<?xml version="1.0" encoding="UTF-8" standalone="no"?>
<!DOCTYPE svg PUBLIC "-//W3C//DTD SVG 1.1//EN"
 "http://www.w3.org/Graphics/SVG/1.1/DTD/svg11.dtd">
<!-- Generated by graphviz version 2.43.0 (0)
 -->
<!-- Title: psr::DefaultNoAliasIDEProblem&lt; AnalysisDomainTy &gt; Pages: 1 -->
<svg width="1111pt" height="233pt"
 viewBox="0.00 0.00 1111.00 233.00" xmlns="http://www.w3.org/2000/svg" xmlns:xlink="http://www.w3.org/1999/xlink">
<g id="graph0" class="graph" transform="scale(1 1) rotate(0) translate(4 229)">
<title>psr::DefaultNoAliasIDEProblem&lt; AnalysisDomainTy &gt;</title>
<!-- Node1 -->
<g id="Node000001" class="node">
<title>Node1</title>
<g id="a_Node000001"><a xlink:title=" ">
<polygon fill="#999999" stroke="#666666" points="1103,-80 935,-80 935,-50 1103,-50 1103,-80"/>
<text text-anchor="start" x="943" y="-68" font-family="Helvetica,sans-Serif" font-size="10.00">psr::DefaultNoAliasIDEProblem</text>
<text text-anchor="middle" x="1019" y="-57" font-family="Helvetica,sans-Serif" font-size="10.00">&lt; AnalysisDomainTy &gt;</text>
</a>
</g>
</g>
<!-- Node2 -->
<g id="Node000002" class="node">
<title>Node2</title>
<g id="a_Node000002"><a xlink:href="classpsr_1_1IDETabulationProblem.html" target="_top" xlink:title="The analysis problem interface for IDE problems (solvable by the IDESolver). Create a subclass from t...">
<polygon fill="white" stroke="#666666" points="898,-116 716,-116 716,-86 898,-86 898,-116"/>
<text text-anchor="start" x="724" y="-104" font-family="Helvetica,sans-Serif" font-size="10.00">psr::IDETabulationProblem</text>
<text text-anchor="middle" x="807" y="-93" font-family="Helvetica,sans-Serif" font-size="10.00">&lt; AnalysisDomainTy, Container &gt;</text>
</a>
</g>
</g>
<!-- Node2&#45;&gt;Node1 -->
<g id="edge1_Node000001_Node000002" class="edge">
<title>Node2&#45;&gt;Node1</title>
<g id="a_edge1_Node000001_Node000002"><a xlink:title=" ">
<path fill="none" stroke="#63b8ff" d="M905.69,-84.25C915.48,-82.57 925.36,-80.88 934.98,-79.23"/>
<polygon fill="#63b8ff" stroke="#63b8ff" points="904.8,-80.85 895.54,-85.99 905.99,-87.75 904.8,-80.85"/>
</a>
</g>
</g>
<!-- Node3 -->
<g id="Node000003" class="node">
<title>Node3</title>
<g id="a_Node000003"><a xlink:href="classpsr_1_1FlowFunctions.html" target="_top" xlink:title=" ">
<polygon fill="white" stroke="#666666" points="641,-223.5 520,-223.5 520,-182.5 641,-182.5 641,-223.5"/>
<text text-anchor="start" x="528" y="-211.5" font-family="Helvetica,sans-Serif" font-size="10.00">psr::FlowFunctions</text>
<text text-anchor="start" x="528" y="-200.5" font-family="Helvetica,sans-Serif" font-size="10.00">&lt; AnalysisDomainTy,</text>
<text text-anchor="middle" x="580.5" y="-189.5" font-family="Helvetica,sans-Serif" font-size="10.00"> Container &gt;</text>
</a>
</g>
</g>
<!-- Node3&#45;&gt;Node2 -->
<g id="edge2_Node000002_Node000003" class="edge">
<title>Node3&#45;&gt;Node2</title>
<g id="a_edge2_Node000002_Node000003"><a xlink:title=" ">
<path fill="none" stroke="#63b8ff" d="M650.63,-183.78C660.28,-180.51 669.97,-176.89 679,-173 716.94,-156.64 758.05,-131.92 782.92,-116.13"/>
<polygon fill="#63b8ff" stroke="#63b8ff" points="649.43,-180.49 641.02,-186.94 651.61,-187.14 649.43,-180.49"/>
</a>
</g>
</g>
<!-- Node4 -->
<g id="Node000004" class="node">
<title>Node4</title>
<g id="a_Node000004"><a xlink:href="classpsr_1_1FlowFunctionTemplates.html" target="_top" xlink:title=" ">
<polygon fill="white" stroke="#666666" points="445,-223.5 293,-223.5 293,-182.5 445,-182.5 445,-223.5"/>
<text text-anchor="start" x="301" y="-211.5" font-family="Helvetica,sans-Serif" font-size="10.00">psr::FlowFunctionTemplates</text>
<text text-anchor="start" x="301" y="-200.5" font-family="Helvetica,sans-Serif" font-size="10.00">&lt; AnalysisDomainTy::d_t,</text>
<text text-anchor="middle" x="369" y="-189.5" font-family="Helvetica,sans-Serif" font-size="10.00"> Container &gt;</text>
</a>
</g>
</g>
<!-- Node4&#45;&gt;Node3 -->
<g id="edge3_Node000003_Node000004" class="edge">
<title>Node4&#45;&gt;Node3</title>
<g id="a_edge3_Node000003_Node000004"><a xlink:title=" ">
<path fill="none" stroke="darkgreen" d="M455.22,-203C476.87,-203 499.67,-203 519.75,-203"/>
<polygon fill="darkgreen" stroke="darkgreen" points="455.04,-199.5 445.04,-203 455.04,-206.5 455.04,-199.5"/>
</a>
</g>
</g>
<!-- Node5 -->
<g id="Node000005" class="node">
<title>Node5</title>
<g id="a_Node000005"><a xlink:href="classpsr_1_1FlowFunctionTemplates.html" target="_top" xlink:title=" ">
<polygon fill="white" stroke="#666666" points="152,-218 0,-218 0,-188 152,-188 152,-218"/>
<text text-anchor="start" x="8" y="-206" font-family="Helvetica,sans-Serif" font-size="10.00">psr::FlowFunctionTemplates</text>
<text text-anchor="middle" x="76" y="-195" font-family="Helvetica,sans-Serif" font-size="10.00">&lt; D, Container &gt;</text>
</a>
</g>
</g>
<!-- Node5&#45;&gt;Node4 -->
<g id="edge4_Node000004_Node000005" class="edge">
<title>Node5&#45;&gt;Node4</title>
<g id="a_edge4_Node000004_Node000005"><a xlink:title=" ">
<path fill="none" stroke="orange" stroke-dasharray="5,2" d="M162.39,-203C203.79,-203 253.06,-203 293,-203"/>
<polygon fill="orange" stroke="orange" points="162.32,-199.5 152.32,-203 162.32,-206.5 162.32,-199.5"/>
</a>
</g>
<text text-anchor="start" x="170" y="-217" font-family="Helvetica,sans-Serif" font-size="10.00" fill="grey"> &lt; AnalysisDomainTy</text>
<text text-anchor="middle" x="222.5" y="-206" font-family="Helvetica,sans-Serif" font-size="10.00" fill="grey">::d_t, Container &gt;</text>
</g>
<!-- Node6 -->
<g id="Node000006" class="node">
<title>Node6</title>
<g id="a_Node000006"><a xlink:href="classpsr_1_1EdgeFunctions.html" target="_top" xlink:title=" ">
<polygon fill="white" stroke="#666666" points="645,-164 516,-164 516,-134 645,-134 645,-164"/>
<text text-anchor="start" x="524" y="-152" font-family="Helvetica,sans-Serif" font-size="10.00">psr::EdgeFunctions</text>
<text text-anchor="middle" x="580.5" y="-141" font-family="Helvetica,sans-Serif" font-size="10.00">&lt; AnalysisDomainTy &gt;</text>
</a>
</g>
</g>
<!-- Node6&#45;&gt;Node2 -->
<g id="edge5_Node000002_Node000006" class="edge">
<title>Node6&#45;&gt;Node2</title>
<g id="a_edge5_Node000002_Node000006"><a xlink:title=" ">
<path fill="none" stroke="#63b8ff" d="M655.02,-133.28C680.99,-127.73 710.11,-121.5 735.8,-116.01"/>
<polygon fill="#63b8ff" stroke="#63b8ff" points="654.28,-129.86 645.23,-135.37 655.74,-136.71 654.28,-129.86"/>
</a>
</g>
</g>
<!-- Node7 -->
<g id="Node000007" class="node">
<title>Node7</title>
<g id="a_Node000007"><a xlink:href="classpsr_1_1JoinLattice_3_01AnalysisDomainTy_01_4.html" target="_top" xlink:title=" ">
<polygon fill="white" stroke="#666666" points="651,-116 510,-116 510,-86 651,-86 651,-116"/>
<text text-anchor="start" x="518" y="-104" font-family="Helvetica,sans-Serif" font-size="10.00">psr::JoinLattice&lt; Analysis</text>
<text text-anchor="middle" x="580.5" y="-93" font-family="Helvetica,sans-Serif" font-size="10.00">DomainTy &gt;</text>
</a>
</g>
</g>
<!-- Node7&#45;&gt;Node2 -->
<g id="edge6_Node000002_Node000007" class="edge">
<title>Node7&#45;&gt;Node2</title>
<g id="a_edge6_Node000002_Node000007"><a xlink:title=" ">
<path fill="none" stroke="#63b8ff" d="M661.54,-101C679.18,-101 697.98,-101 715.98,-101"/>
<polygon fill="#63b8ff" stroke="#63b8ff" points="661.3,-97.5 651.3,-101 661.3,-104.5 661.3,-97.5"/>
</a>
</g>
</g>
<!-- Node8 -->
<g id="Node000008" class="node">
<title>Node8</title>
<g id="a_Node000008"><a xlink:href="classpsr_1_1SemiRing.html" target="_top" xlink:title=" ">
<polygon fill="white" stroke="#666666" points="679,-67.5 482,-67.5 482,-48.5 679,-48.5 679,-67.5"/>
<text text-anchor="middle" x="580.5" y="-55.5" font-family="Helvetica,sans-Serif" font-size="10.00">psr::SemiRing&lt; AnalysisDomainTy &gt;</text>
</a>
</g>
</g>
<!-- Node8&#45;&gt;Node2 -->
<g id="edge7_Node000002_Node000008" class="edge">
<title>Node8&#45;&gt;Node2</title>
<g id="a_edge7_Node000002_Node000008"><a xlink:title=" ">
<path fill="none" stroke="#63b8ff" d="M641.22,-69.44C667.73,-74.52 699.29,-80.56 727.65,-85.99"/>
<polygon fill="#63b8ff" stroke="#63b8ff" points="641.8,-65.99 631.32,-67.54 640.49,-72.86 641.8,-65.99"/>
</a>
</g>
</g>
<!-- Node9 -->
<g id="Node000009" class="node">
<title>Node9</title>
<g id="a_Node000009"><a xlink:href="classpsr_1_1AllTopFnProvider_3_01AnalysisDomainTy_01_4.html" target="_top" xlink:title=" ">
<polygon fill="white" stroke="#666666" points="645,-30 516,-30 516,0 645,0 645,-30"/>
<text text-anchor="start" x="524" y="-18" font-family="Helvetica,sans-Serif" font-size="10.00">psr::AllTopFnProvider</text>
<text text-anchor="middle" x="580.5" y="-7" font-family="Helvetica,sans-Serif" font-size="10.00">&lt; AnalysisDomainTy &gt;</text>
</a>
</g>
</g>
<!-- Node9&#45;&gt;Node2 -->
<g id="edge8_Node000002_Node000009" class="edge">
<title>Node9&#45;&gt;Node2</title>
<g id="a_edge8_Node000002_Node000009"><a xlink:title=" ">
<path fill="none" stroke="#63b8ff" d="M654.72,-28.24C663.18,-31.15 671.47,-34.69 679,-39 699.46,-50.71 695.66,-65.09 716,-77 721.86,-80.43 728.22,-83.38 734.76,-85.92"/>
<polygon fill="#63b8ff" stroke="#63b8ff" points="655.71,-24.88 645.12,-25.22 653.6,-31.56 655.71,-24.88"/>
</a>
</g>
</g>
<!-- Node10 -->
<g id="Node000010" class="node">
<title>Node10</title>
<g id="a_Node000010"><a xlink:title=" ">
<polygon fill="white" stroke="#666666" points="887.5,-68 726.5,-68 726.5,-38 887.5,-38 887.5,-68"/>
<text text-anchor="start" x="734.5" y="-56" font-family="Helvetica,sans-Serif" font-size="10.00">psr::detail::IDENoAliasDefault</text>
<text text-anchor="middle" x="807" y="-45" font-family="Helvetica,sans-Serif" font-size="10.00">FlowFunctionsImpl</text>
</a>
</g>
</g>
<!-- Node10&#45;&gt;Node1 -->
<g id="edge9_Node000001_Node000010" class="edge">
<title>Node10&#45;&gt;Node1</title>
<g id="a_edge9_Node000001_Node000010"><a xlink:title=" ">
<path fill="none" stroke="darkgreen" d="M897.91,-58.14C910.18,-58.84 922.73,-59.56 934.87,-60.25"/>
<polygon fill="darkgreen" stroke="darkgreen" points="897.87,-54.63 887.69,-57.55 897.48,-61.62 897.87,-54.63"/>
</a>
</g>
</g>
</g>
</svg>
