<?xml version="1.0" encoding="UTF-8" standalone="no"?>
<!DOCTYPE svg PUBLIC "-//W3C//DTD SVG 1.1//EN"
 "http://www.w3.org/Graphics/SVG/1.1/DTD/svg11.dtd">
<!-- Generated by graphviz version 2.43.0 (0)
 -->
<!-- Title: psr::SourceMgrPrinter&lt; AnalysisDomainTy &gt; Pages: 1 -->
<svg width="340pt" height="104pt"
 viewBox="0.00 0.00 340.00 104.00" xmlns="http://www.w3.org/2000/svg" xmlns:xlink="http://www.w3.org/1999/xlink">
<g id="graph0" class="graph" transform="scale(1 1) rotate(0) translate(4 100)">
<title>psr::SourceMgrPrinter&lt; AnalysisDomainTy &gt;</title>
<!-- Node1 -->
<g id="Node000001" class="node">
<title>Node1</title>
<g id="a_Node000001"><a xlink:title=" ">
<polygon fill="#999999" stroke="#666666" points="219,-30 90,-30 90,0 219,0 219,-30"/>
<text text-anchor="start" x="98" y="-18" font-family="Helvetica,sans-Serif" font-size="10.00">psr::SourceMgrPrinter</text>
<text text-anchor="middle" x="154.5" y="-7" font-family="Helvetica,sans-Serif" font-size="10.00">&lt; AnalysisDomainTy &gt;</text>
</a>
</g>
</g>
<!-- Node2 -->
<g id="Node000002" class="node">
<title>Node2</title>
<g id="a_Node000002"><a xlink:href="classpsr_1_1AnalysisPrinterBase.html" target="_top" xlink:title="A generic class that serves as the basis for a custom analysis printer implementation.">
<polygon fill="white" stroke="#666666" points="135,-96 0,-96 0,-66 135,-66 135,-96"/>
<text text-anchor="start" x="8" y="-84" font-family="Helvetica,sans-Serif" font-size="10.00">psr::AnalysisPrinterBase</text>
<text text-anchor="middle" x="67.5" y="-73" font-family="Helvetica,sans-Serif" font-size="10.00">&lt; AnalysisDomainTy &gt;</text>
</a>
</g>
</g>
<!-- Node2&#45;&gt;Node1 -->
<g id="edge1_Node000001_Node000002" class="edge">
<title>Node2&#45;&gt;Node1</title>
<g id="a_edge1_Node000001_Node000002"><a xlink:title=" ">
<path fill="none" stroke="#63b8ff" d="M95.02,-59.75C108.11,-50.13 123.43,-38.86 135.25,-30.16"/>
<polygon fill="#63b8ff" stroke="#63b8ff" points="92.79,-57.05 86.81,-65.8 96.94,-62.69 92.79,-57.05"/>
</a>
</g>
</g>
<!-- Node3 -->
<g id="Node000003" class="node">
<title>Node3</title>
<g id="a_Node000003"><a xlink:title=" ">
<polygon fill="white" stroke="#666666" points="332,-90.5 153,-90.5 153,-71.5 332,-71.5 332,-90.5"/>
<text text-anchor="middle" x="242.5" y="-78.5" font-family="Helvetica,sans-Serif" font-size="10.00">psr::detail::SourceMgrPrinterBase</text>
</a>
</g>
</g>
<!-- Node3&#45;&gt;Node1 -->
<g id="edge2_Node000001_Node000003" class="edge">
<title>Node3&#45;&gt;Node1</title>
<g id="a_edge2_Node000001_Node000003"><a xlink:title=" ">
<path fill="none" stroke="#8b1a1a" d="M222.31,-65.32C207.77,-54.74 188.27,-40.56 173.91,-30.12"/>
<polygon fill="#8b1a1a" stroke="#8b1a1a" points="220.49,-68.32 230.63,-71.37 224.6,-62.66 220.49,-68.32"/>
</a>
</g>
</g>
</g>
</svg>
