<?xml version="1.0" encoding="UTF-8" standalone="no"?>
<!DOCTYPE svg PUBLIC "-//W3C//DTD SVG 1.1//EN"
 "http://www.w3.org/Graphics/SVG/1.1/DTD/svg11.dtd">
<!-- Generated by graphviz version 2.43.0 (0)
 -->
<!-- Title: psr::DefaultReachableAllocationSitesIFDSProblem Pages: 1 -->
<svg width="1731pt" height="244pt"
 viewBox="0.00 0.00 1731.00 244.00" xmlns="http://www.w3.org/2000/svg" xmlns:xlink="http://www.w3.org/1999/xlink">
<g id="graph0" class="graph" transform="scale(1 1) rotate(0) translate(4 240)">
<title>psr::DefaultReachableAllocationSitesIFDSProblem</title>
<!-- Node1 -->
<g id="Node000001" class="node">
<title>Node1</title>
<g id="a_Node000001"><a xlink:title=" ">
<polygon fill="#999999" stroke="#666666" points="1723,-60 1550,-60 1550,-30 1723,-30 1723,-60"/>
<text text-anchor="start" x="1558" y="-48" font-family="Helvetica,sans-Serif" font-size="10.00">psr::DefaultReachableAllocation</text>
<text text-anchor="middle" x="1636.5" y="-37" font-family="Helvetica,sans-Serif" font-size="10.00">SitesIFDSProblem</text>
</a>
</g>
</g>
<!-- Node2 -->
<g id="Node000002" class="node">
<title>Node2</title>
<g id="a_Node000002"><a xlink:href="classpsr_1_1IFDSTabulationProblem.html" target="_top" xlink:title=" ">
<polygon fill="white" stroke="#666666" points="1506,-85 1303,-85 1303,-55 1506,-55 1506,-85"/>
<text text-anchor="start" x="1311" y="-73" font-family="Helvetica,sans-Serif" font-size="10.00">psr::IFDSTabulationProblem</text>
<text text-anchor="middle" x="1404.5" y="-62" font-family="Helvetica,sans-Serif" font-size="10.00">&lt; LLVMIFDSAnalysisDomainDefault &gt;</text>
</a>
</g>
</g>
<!-- Node2&#45;&gt;Node1 -->
<g id="edge1_Node000001_Node000002" class="edge">
<title>Node2&#45;&gt;Node1</title>
<g id="a_edge1_Node000001_Node000002"><a xlink:title=" ">
<path fill="none" stroke="#63b8ff" d="M1516.03,-57.99C1527.41,-56.75 1538.85,-55.5 1549.91,-54.3"/>
<polygon fill="#63b8ff" stroke="#63b8ff" points="1515.61,-54.51 1506.05,-59.07 1516.37,-61.47 1515.61,-54.51"/>
</a>
</g>
</g>
<!-- Node3 -->
<g id="Node000003" class="node">
<title>Node3</title>
<g id="a_Node000003"><a xlink:href="classpsr_1_1IDETabulationProblem.html" target="_top" xlink:title="The analysis problem interface for IDE problems (solvable by the IDESolver). Create a subclass from t...">
<polygon fill="white" stroke="#666666" points="898,-80 716,-80 716,-50 898,-50 898,-80"/>
<text text-anchor="start" x="724" y="-68" font-family="Helvetica,sans-Serif" font-size="10.00">psr::IDETabulationProblem</text>
<text text-anchor="middle" x="807" y="-57" font-family="Helvetica,sans-Serif" font-size="10.00">&lt; AnalysisDomainTy, Container &gt;</text>
</a>
</g>
</g>
<!-- Node3&#45;&gt;Node2 -->
<g id="edge2_Node000002_Node000003" class="edge">
<title>Node3&#45;&gt;Node2</title>
<g id="a_edge2_Node000002_Node000003"><a xlink:title=" ">
<path fill="none" stroke="#63b8ff" d="M908.2,-65.84C1017.95,-66.76 1192.94,-68.23 1302.86,-69.16"/>
<polygon fill="#63b8ff" stroke="#63b8ff" points="908.15,-62.34 898.12,-65.76 908.09,-69.34 908.15,-62.34"/>
</a>
</g>
</g>
<!-- Node4 -->
<g id="Node000004" class="node">
<title>Node4</title>
<g id="a_Node000004"><a xlink:href="classpsr_1_1FlowFunctions.html" target="_top" xlink:title=" ">
<polygon fill="white" stroke="#666666" points="641,-234.5 520,-234.5 520,-193.5 641,-193.5 641,-234.5"/>
<text text-anchor="start" x="528" y="-222.5" font-family="Helvetica,sans-Serif" font-size="10.00">psr::FlowFunctions</text>
<text text-anchor="start" x="528" y="-211.5" font-family="Helvetica,sans-Serif" font-size="10.00">&lt; AnalysisDomainTy,</text>
<text text-anchor="middle" x="580.5" y="-200.5" font-family="Helvetica,sans-Serif" font-size="10.00"> Container &gt;</text>
</a>
</g>
</g>
<!-- Node4&#45;&gt;Node3 -->
<g id="edge3_Node000003_Node000004" class="edge">
<title>Node4&#45;&gt;Node3</title>
<g id="a_edge3_Node000003_Node000004"><a xlink:title=" ">
<path fill="none" stroke="#63b8ff" d="M650.55,-199.42C660.78,-195.25 670.66,-189.88 679,-183 705.53,-161.09 691.78,-139.44 716,-115 730.72,-100.15 750.79,-88.43 768.23,-80.08"/>
<polygon fill="#63b8ff" stroke="#63b8ff" points="649.26,-196.17 641.1,-202.93 651.7,-202.73 649.26,-196.17"/>
</a>
</g>
</g>
<!-- Node12 -->
<g id="Node000012" class="node">
<title>Node12</title>
<g id="a_Node000012"><a xlink:href="classpsr_1_1IDETabulationProblem.html" target="_top" xlink:title="The analysis problem interface for IDE problems (solvable by the IDESolver). Create a subclass from t...">
<polygon fill="white" stroke="#666666" points="898,-154 716,-154 716,-124 898,-124 898,-154"/>
<text text-anchor="start" x="724" y="-142" font-family="Helvetica,sans-Serif" font-size="10.00">psr::IDETabulationProblem</text>
<text text-anchor="middle" x="807" y="-131" font-family="Helvetica,sans-Serif" font-size="10.00">&lt; AnalysisDomainTy, Container &gt;</text>
</a>
</g>
</g>
<!-- Node4&#45;&gt;Node12 -->
<g id="edge12_Node000012_Node000004" class="edge">
<title>Node4&#45;&gt;Node12</title>
<g id="a_edge12_Node000012_Node000004"><a xlink:title=" ">
<path fill="none" stroke="#63b8ff" d="M651.37,-220.06C666.99,-219.59 683.28,-217.63 698,-213 735.08,-201.34 770.81,-172.24 790.45,-154.2"/>
<polygon fill="#63b8ff" stroke="#63b8ff" points="651.18,-216.56 641.22,-220.16 651.26,-223.56 651.18,-216.56"/>
</a>
</g>
</g>
<!-- Node5 -->
<g id="Node000005" class="node">
<title>Node5</title>
<g id="a_Node000005"><a xlink:href="classpsr_1_1FlowFunctionTemplates.html" target="_top" xlink:title=" ">
<polygon fill="white" stroke="#666666" points="445,-234.5 293,-234.5 293,-193.5 445,-193.5 445,-234.5"/>
<text text-anchor="start" x="301" y="-222.5" font-family="Helvetica,sans-Serif" font-size="10.00">psr::FlowFunctionTemplates</text>
<text text-anchor="start" x="301" y="-211.5" font-family="Helvetica,sans-Serif" font-size="10.00">&lt; AnalysisDomainTy::d_t,</text>
<text text-anchor="middle" x="369" y="-200.5" font-family="Helvetica,sans-Serif" font-size="10.00"> Container &gt;</text>
</a>
</g>
</g>
<!-- Node5&#45;&gt;Node4 -->
<g id="edge4_Node000004_Node000005" class="edge">
<title>Node5&#45;&gt;Node4</title>
<g id="a_edge4_Node000004_Node000005"><a xlink:title=" ">
<path fill="none" stroke="darkgreen" d="M455.22,-214C476.87,-214 499.67,-214 519.75,-214"/>
<polygon fill="darkgreen" stroke="darkgreen" points="455.04,-210.5 445.04,-214 455.04,-217.5 455.04,-210.5"/>
</a>
</g>
</g>
<!-- Node6 -->
<g id="Node000006" class="node">
<title>Node6</title>
<g id="a_Node000006"><a xlink:href="classpsr_1_1FlowFunctionTemplates.html" target="_top" xlink:title=" ">
<polygon fill="white" stroke="#666666" points="152,-229 0,-229 0,-199 152,-199 152,-229"/>
<text text-anchor="start" x="8" y="-217" font-family="Helvetica,sans-Serif" font-size="10.00">psr::FlowFunctionTemplates</text>
<text text-anchor="middle" x="76" y="-206" font-family="Helvetica,sans-Serif" font-size="10.00">&lt; D, Container &gt;</text>
</a>
</g>
</g>
<!-- Node6&#45;&gt;Node5 -->
<g id="edge5_Node000005_Node000006" class="edge">
<title>Node6&#45;&gt;Node5</title>
<g id="a_edge5_Node000005_Node000006"><a xlink:title=" ">
<path fill="none" stroke="orange" stroke-dasharray="5,2" d="M162.39,-214C203.79,-214 253.06,-214 293,-214"/>
<polygon fill="orange" stroke="orange" points="162.32,-210.5 152.32,-214 162.32,-217.5 162.32,-210.5"/>
</a>
</g>
<text text-anchor="start" x="170" y="-228" font-family="Helvetica,sans-Serif" font-size="10.00" fill="grey"> &lt; AnalysisDomainTy</text>
<text text-anchor="middle" x="222.5" y="-217" font-family="Helvetica,sans-Serif" font-size="10.00" fill="grey">::d_t, Container &gt;</text>
</g>
<!-- Node7 -->
<g id="Node000007" class="node">
<title>Node7</title>
<g id="a_Node000007"><a xlink:href="classpsr_1_1EdgeFunctions.html" target="_top" xlink:title=" ">
<polygon fill="white" stroke="#666666" points="645,-174 516,-174 516,-144 645,-144 645,-174"/>
<text text-anchor="start" x="524" y="-162" font-family="Helvetica,sans-Serif" font-size="10.00">psr::EdgeFunctions</text>
<text text-anchor="middle" x="580.5" y="-151" font-family="Helvetica,sans-Serif" font-size="10.00">&lt; AnalysisDomainTy &gt;</text>
</a>
</g>
</g>
<!-- Node7&#45;&gt;Node3 -->
<g id="edge6_Node000003_Node000007" class="edge">
<title>Node7&#45;&gt;Node3</title>
<g id="a_edge6_Node000003_Node000007"><a xlink:title=" ">
<path fill="none" stroke="#63b8ff" d="M654.83,-142.29C663.08,-139.8 671.28,-137.03 679,-134 689.22,-129.99 744.81,-99.22 778.97,-80.15"/>
<polygon fill="#63b8ff" stroke="#63b8ff" points="653.79,-138.95 645.16,-145.1 655.74,-145.67 653.79,-138.95"/>
</a>
</g>
</g>
<!-- Node7&#45;&gt;Node12 -->
<g id="edge13_Node000012_Node000007" class="edge">
<title>Node7&#45;&gt;Node12</title>
<g id="a_edge13_Node000012_Node000007"><a xlink:title=" ">
<path fill="none" stroke="#63b8ff" d="M655.33,-164.73C669.52,-164.93 684.24,-164.51 698,-163 714.8,-161.16 732.81,-157.74 749.22,-154.06"/>
<polygon fill="#63b8ff" stroke="#63b8ff" points="655.19,-161.23 645.11,-164.48 655.02,-168.22 655.19,-161.23"/>
</a>
</g>
</g>
<!-- Node8 -->
<g id="Node000008" class="node">
<title>Node8</title>
<g id="a_Node000008"><a xlink:href="classpsr_1_1JoinLattice.html" target="_top" xlink:title=" ">
<polygon fill="white" stroke="#666666" points="651,-125 510,-125 510,-95 651,-95 651,-125"/>
<text text-anchor="start" x="518" y="-113" font-family="Helvetica,sans-Serif" font-size="10.00">psr::JoinLattice&lt; Analysis</text>
<text text-anchor="middle" x="580.5" y="-102" font-family="Helvetica,sans-Serif" font-size="10.00">DomainTy, typename &gt;</text>
</a>
</g>
</g>
<!-- Node8&#45;&gt;Node3 -->
<g id="edge7_Node000003_Node000008" class="edge">
<title>Node8&#45;&gt;Node3</title>
<g id="a_edge7_Node000003_Node000008"><a xlink:title=" ">
<path fill="none" stroke="#63b8ff" d="M658.61,-91.41C665.68,-88.66 672.58,-85.53 679,-82 688.38,-76.84 687.01,-69.85 697,-66 703,-63.69 709.34,-61.97 715.8,-60.73"/>
<polygon fill="#63b8ff" stroke="#63b8ff" points="657.11,-88.23 648.91,-94.94 659.5,-94.81 657.11,-88.23"/>
</a>
</g>
</g>
<!-- Node8&#45;&gt;Node12 -->
<g id="edge14_Node000012_Node000008" class="edge">
<title>Node8&#45;&gt;Node12</title>
<g id="a_edge14_Node000012_Node000008"><a xlink:title=" ">
<path fill="none" stroke="#63b8ff" d="M648,-127.48C667.87,-132.4 687.01,-136.76 697,-138 703.1,-138.76 709.41,-139.34 715.78,-139.78"/>
<polygon fill="#63b8ff" stroke="#63b8ff" points="648.77,-124.06 638.22,-125.03 647.07,-130.85 648.77,-124.06"/>
</a>
</g>
</g>
<!-- Node9 -->
<g id="Node000009" class="node">
<title>Node9</title>
<g id="a_Node000009"><a xlink:href="classpsr_1_1SemiRing.html" target="_top" xlink:title=" ">
<polygon fill="white" stroke="#666666" points="679,-73.5 482,-73.5 482,-54.5 679,-54.5 679,-73.5"/>
<text text-anchor="middle" x="580.5" y="-61.5" font-family="Helvetica,sans-Serif" font-size="10.00">psr::SemiRing&lt; AnalysisDomainTy &gt;</text>
</a>
</g>
</g>
<!-- Node9&#45;&gt;Node3 -->
<g id="edge8_Node000003_Node000009" class="edge">
<title>Node9&#45;&gt;Node3</title>
<g id="a_edge8_Node000003_Node000009"><a xlink:title=" ">
<path fill="none" stroke="#63b8ff" d="M616.42,-51.41C639.44,-44.53 670.33,-37.96 698,-41 714.8,-42.84 732.81,-46.26 749.22,-49.94"/>
<polygon fill="#63b8ff" stroke="#63b8ff" points="615.25,-48.11 606.76,-54.46 617.35,-54.79 615.25,-48.11"/>
</a>
</g>
</g>
<!-- Node9&#45;&gt;Node12 -->
<g id="edge15_Node000012_Node000009" class="edge">
<title>Node9&#45;&gt;Node12</title>
<g id="a_edge15_Node000012_Node000009"><a xlink:title=" ">
<path fill="none" stroke="#63b8ff" d="M663.04,-77.27C668.66,-79.72 674.05,-82.6 679,-86 690.88,-94.17 685.17,-104.76 697,-113 703.23,-117.34 710.08,-120.96 717.24,-123.98"/>
<polygon fill="#63b8ff" stroke="#63b8ff" points="663.98,-73.88 653.39,-73.56 661.47,-80.42 663.98,-73.88"/>
</a>
</g>
</g>
<!-- Node10 -->
<g id="Node000010" class="node">
<title>Node10</title>
<g id="a_Node000010"><a xlink:href="classpsr_1_1AllTopFnProvider.html" target="_top" xlink:title=" ">
<polygon fill="white" stroke="#666666" points="673,-30 488,-30 488,0 673,0 673,-30"/>
<text text-anchor="start" x="496" y="-18" font-family="Helvetica,sans-Serif" font-size="10.00">psr::AllTopFnProvider</text>
<text text-anchor="middle" x="580.5" y="-7" font-family="Helvetica,sans-Serif" font-size="10.00">&lt; AnalysisDomainTy, typename &gt;</text>
</a>
</g>
</g>
<!-- Node10&#45;&gt;Node3 -->
<g id="edge9_Node000003_Node000010" class="edge">
<title>Node10&#45;&gt;Node3</title>
<g id="a_edge9_Node000003_Node000010"><a xlink:title=" ">
<path fill="none" stroke="#63b8ff" d="M674.7,-32.02C682.59,-33.64 690.44,-35.31 698,-37 715.3,-40.87 734.02,-45.55 750.95,-49.97"/>
<polygon fill="#63b8ff" stroke="#63b8ff" points="675.19,-28.55 664.69,-30 673.8,-35.41 675.19,-28.55"/>
</a>
</g>
</g>
<!-- Node10&#45;&gt;Node12 -->
<g id="edge16_Node000012_Node000010" class="edge">
<title>Node10&#45;&gt;Node12</title>
<g id="a_edge16_Node000012_Node000010"><a xlink:title=" ">
<path fill="none" stroke="#63b8ff" d="M658.01,-33.8C665.38,-37 672.51,-40.7 679,-45 700.3,-59.11 696.28,-72.75 716,-89 732.97,-102.98 754.4,-115.07 772.1,-123.86"/>
<polygon fill="#63b8ff" stroke="#63b8ff" points="659.17,-30.5 648.59,-30.03 656.57,-37 659.17,-30.5"/>
</a>
</g>
</g>
<!-- Node11 -->
<g id="Node000011" class="node">
<title>Node11</title>
<g id="a_Node000011"><a xlink:href="classpsr_1_1IFDSTabulationProblem.html" target="_top" xlink:title="The analysis problem interface for IFDS problems (solvable by the IFDSSolver). Create a subclass from...">
<polygon fill="white" stroke="#666666" points="1117,-128 935,-128 935,-98 1117,-98 1117,-128"/>
<text text-anchor="start" x="943" y="-116" font-family="Helvetica,sans-Serif" font-size="10.00">psr::IFDSTabulationProblem</text>
<text text-anchor="middle" x="1026" y="-105" font-family="Helvetica,sans-Serif" font-size="10.00">&lt; AnalysisDomainTy, Container &gt;</text>
</a>
</g>
</g>
<!-- Node11&#45;&gt;Node2 -->
<g id="edge10_Node000002_Node000011" class="edge">
<title>Node11&#45;&gt;Node2</title>
<g id="a_edge10_Node000002_Node000011"><a xlink:title=" ">
<path fill="none" stroke="orange" stroke-dasharray="5,2" d="M1127.17,-101.56C1181.47,-95.36 1248.4,-87.71 1302.78,-81.5"/>
<polygon fill="orange" stroke="orange" points="1126.72,-98.09 1117.18,-102.7 1127.51,-105.04 1126.72,-98.09"/>
</a>
</g>
<text text-anchor="start" x="1135" y="-115" font-family="Helvetica,sans-Serif" font-size="10.00" fill="grey"> &lt; LLVMIFDSAnalysisDomain</text>
<text text-anchor="middle" x="1206.5" y="-104" font-family="Helvetica,sans-Serif" font-size="10.00" fill="grey">Default &gt;</text>
</g>
<!-- Node12&#45;&gt;Node11 -->
<g id="edge11_Node000011_Node000012" class="edge">
<title>Node12&#45;&gt;Node11</title>
<g id="a_edge11_Node000011_Node000012"><a xlink:title=" ">
<path fill="none" stroke="#63b8ff" d="M908.13,-127C917.02,-125.94 925.99,-124.86 934.79,-123.81"/>
<polygon fill="#63b8ff" stroke="#63b8ff" points="907.65,-123.53 898.14,-128.2 908.49,-130.48 907.65,-123.53"/>
</a>
</g>
</g>
<!-- Node13 -->
<g id="Node000013" class="node">
<title>Node13</title>
<g id="a_Node000013"><a xlink:title=" ">
<polygon fill="white" stroke="#666666" points="1513,-37 1296,-37 1296,-7 1513,-7 1513,-37"/>
<text text-anchor="start" x="1304" y="-25" font-family="Helvetica,sans-Serif" font-size="10.00">psr::detail::IDEReachable</text>
<text text-anchor="middle" x="1404.5" y="-14" font-family="Helvetica,sans-Serif" font-size="10.00">AllocationSitesDefaultFlowFunctionsImpl</text>
</a>
</g>
</g>
<!-- Node13&#45;&gt;Node1 -->
<g id="edge17_Node000001_Node000013" class="edge">
<title>Node13&#45;&gt;Node1</title>
<g id="a_edge17_Node000001_Node000013"><a xlink:title=" ">
<path fill="none" stroke="darkgreen" d="M1523.18,-33.77C1532.11,-34.66 1541.02,-35.55 1549.7,-36.42"/>
<polygon fill="darkgreen" stroke="darkgreen" points="1523.39,-30.27 1513.09,-32.76 1522.69,-37.24 1523.39,-30.27"/>
</a>
</g>
</g>
<!-- Node14 -->
<g id="Node000014" class="node">
<title>Node14</title>
<g id="a_Node000014"><a xlink:title=" ">
<polygon fill="white" stroke="#666666" points="1106.5,-37 945.5,-37 945.5,-7 1106.5,-7 1106.5,-37"/>
<text text-anchor="start" x="953.5" y="-25" font-family="Helvetica,sans-Serif" font-size="10.00">psr::detail::IDENoAliasDefault</text>
<text text-anchor="middle" x="1026" y="-14" font-family="Helvetica,sans-Serif" font-size="10.00">FlowFunctionsImpl</text>
</a>
</g>
</g>
<!-- Node14&#45;&gt;Node13 -->
<g id="edge18_Node000013_Node000014" class="edge">
<title>Node14&#45;&gt;Node13</title>
<g id="a_edge18_Node000013_Node000014"><a xlink:title=" ">
<path fill="none" stroke="#8b1a1a" d="M1117.04,-22C1170.78,-22 1239.34,-22 1295.91,-22"/>
<polygon fill="#8b1a1a" stroke="#8b1a1a" points="1116.85,-18.5 1106.85,-22 1116.85,-25.5 1116.85,-18.5"/>
</a>
</g>
</g>
</g>
</svg>
