<?xml version="1.0" encoding="UTF-8" standalone="no"?>
<!DOCTYPE svg PUBLIC "-//W3C//DTD SVG 1.1//EN"
 "http://www.w3.org/Graphics/SVG/1.1/DTD/svg11.dtd">
<!-- Generated by graphviz version 2.43.0 (0)
 -->
<!-- Title: psr::DefaultEdgeFunctionSingletonCache&lt; EdgeFunctionTy &gt; Pages: 1 -->
<svg width="1430pt" height="108pt"
 viewBox="0.00 0.00 1430.00 108.00" xmlns="http://www.w3.org/2000/svg" xmlns:xlink="http://www.w3.org/1999/xlink">
<g id="graph0" class="graph" transform="scale(1 1) rotate(0) translate(4 104)">
<title>psr::DefaultEdgeFunctionSingletonCache&lt; EdgeFunctionTy &gt;</title>
<!-- Node1 -->
<g id="Node000001" class="node">
<title>Node1</title>
<g id="a_Node000001"><a xlink:title=" ">
<polygon fill="#999999" stroke="#666666" points="994,-64.5 803,-64.5 803,-34.5 994,-34.5 994,-64.5"/>
<text text-anchor="start" x="811" y="-52.5" font-family="Helvetica,sans-Serif" font-size="10.00">psr::DefaultEdgeFunction</text>
<text text-anchor="middle" x="898.5" y="-41.5" font-family="Helvetica,sans-Serif" font-size="10.00">SingletonCache&lt; EdgeFunctionTy &gt;</text>
</a>
</g>
</g>
<!-- Node5 -->
<g id="Node000005" class="node">
<title>Node5</title>
<g id="a_Node000005"><a xlink:href="classpsr_1_1DefaultEdgeFunctionSingletonCache.html" target="_top" xlink:title=" ">
<polygon fill="white" stroke="#666666" points="1414.5,-100 1199.5,-100 1199.5,-59 1414.5,-59 1414.5,-100"/>
<text text-anchor="start" x="1207.5" y="-88" font-family="Helvetica,sans-Serif" font-size="10.00">psr::DefaultEdgeFunction</text>
<text text-anchor="start" x="1207.5" y="-77" font-family="Helvetica,sans-Serif" font-size="10.00">SingletonCache&lt; psr::IDEInst</text>
<text text-anchor="middle" x="1307" y="-66" font-family="Helvetica,sans-Serif" font-size="10.00">InteractionAnalysisT::IIAAAddLabelsEF &gt;</text>
</a>
</g>
</g>
<!-- Node1&#45;&gt;Node5 -->
<g id="edge5_Node000001_Node000005" class="edge">
<title>Node1&#45;&gt;Node5</title>
<g id="a_edge5_Node000001_Node000005"><a xlink:title=" ">
<path fill="none" stroke="orange" stroke-dasharray="5,2" d="M1004.28,-57.23C1064.22,-61.66 1139.23,-67.19 1199.46,-71.64"/>
<polygon fill="orange" stroke="orange" points="1004.27,-53.72 994.04,-56.48 1003.75,-60.7 1004.27,-53.72"/>
</a>
</g>
<text text-anchor="start" x="1020" y="-82.5" font-family="Helvetica,sans-Serif" font-size="10.00" fill="grey"> &lt; psr::IDEInstInteraction</text>
<text text-anchor="middle" x="1093" y="-71.5" font-family="Helvetica,sans-Serif" font-size="10.00" fill="grey">AnalysisT::IIAAAddLabelsEF &gt;</text>
</g>
<!-- Node6 -->
<g id="Node000006" class="node">
<title>Node6</title>
<g id="a_Node000006"><a xlink:href="classpsr_1_1DefaultEdgeFunctionSingletonCache.html" target="_top" xlink:title=" ">
<polygon fill="white" stroke="#666666" points="1422,-41 1192,-41 1192,0 1422,0 1422,-41"/>
<text text-anchor="start" x="1200" y="-29" font-family="Helvetica,sans-Serif" font-size="10.00">psr::DefaultEdgeFunction</text>
<text text-anchor="start" x="1200" y="-18" font-family="Helvetica,sans-Serif" font-size="10.00">SingletonCache&lt; psr::IDEInst</text>
<text text-anchor="middle" x="1307" y="-7" font-family="Helvetica,sans-Serif" font-size="10.00">InteractionAnalysisT::IIAAKillOrReplaceEF &gt;</text>
</a>
</g>
</g>
<!-- Node1&#45;&gt;Node6 -->
<g id="edge6_Node000001_Node000006" class="edge">
<title>Node1&#45;&gt;Node6</title>
<g id="a_edge6_Node000001_Node000006"><a xlink:title=" ">
<path fill="none" stroke="orange" stroke-dasharray="5,2" d="M1004.33,-36.2C1006.91,-35.96 1009.47,-35.72 1012,-35.5 1071.19,-30.31 1137.24,-26.75 1191.73,-24.39"/>
<polygon fill="orange" stroke="orange" points="1003.88,-32.73 994.28,-37.2 1004.58,-39.7 1003.88,-32.73"/>
</a>
</g>
<text text-anchor="start" x="1012" y="-49.5" font-family="Helvetica,sans-Serif" font-size="10.00" fill="grey"> &lt; psr::IDEInstInteraction</text>
<text text-anchor="middle" x="1093" y="-38.5" font-family="Helvetica,sans-Serif" font-size="10.00" fill="grey">AnalysisT::IIAAKillOrReplaceEF &gt;</text>
</g>
<!-- Node2 -->
<g id="Node000002" class="node">
<title>Node2</title>
<g id="a_Node000002"><a xlink:href="classpsr_1_1DefaultEdgeFunctionSingletonCacheImpl.html" target="_top" xlink:title=" ">
<polygon fill="white" stroke="#666666" points="766,-70 575,-70 575,-29 766,-29 766,-70"/>
<text text-anchor="start" x="583" y="-58" font-family="Helvetica,sans-Serif" font-size="10.00">psr::DefaultEdgeFunction</text>
<text text-anchor="start" x="583" y="-47" font-family="Helvetica,sans-Serif" font-size="10.00">SingletonCacheImpl&lt; EdgeFunction</text>
<text text-anchor="middle" x="670.5" y="-36" font-family="Helvetica,sans-Serif" font-size="10.00">Ty, EdgeFunctionTy::l_t &gt;</text>
</a>
</g>
</g>
<!-- Node2&#45;&gt;Node1 -->
<g id="edge1_Node000001_Node000002" class="edge">
<title>Node2&#45;&gt;Node1</title>
<g id="a_edge1_Node000001_Node000002"><a xlink:title=" ">
<path fill="none" stroke="#63b8ff" d="M776.11,-49.5C785.07,-49.5 794.1,-49.5 802.98,-49.5"/>
<polygon fill="#63b8ff" stroke="#63b8ff" points="776.03,-46 766.03,-49.5 776.03,-53 776.03,-46"/>
</a>
</g>
</g>
<!-- Node3 -->
<g id="Node000003" class="node">
<title>Node3</title>
<g id="a_Node000003"><a xlink:href="classpsr_1_1EdgeFunctionSingletonCache.html" target="_top" xlink:title=" ">
<polygon fill="white" stroke="#666666" points="149,-61.5 0,-61.5 0,-31.5 149,-31.5 149,-61.5"/>
<text text-anchor="start" x="8" y="-49.5" font-family="Helvetica,sans-Serif" font-size="10.00">psr::EdgeFunctionSingleton</text>
<text text-anchor="middle" x="74.5" y="-38.5" font-family="Helvetica,sans-Serif" font-size="10.00">Cache&lt; EdgeFunctionTy &gt;</text>
</a>
</g>
</g>
<!-- Node3&#45;&gt;Node2 -->
<g id="edge2_Node000002_Node000003" class="edge">
<title>Node3&#45;&gt;Node2</title>
<g id="a_edge2_Node000002_Node000003"><a xlink:title=" ">
<path fill="none" stroke="#63b8ff" d="M159.58,-51.39C255.69,-56.29 417.72,-62.45 557,-57.5 562.87,-57.29 568.91,-57.02 575,-56.71"/>
<polygon fill="#63b8ff" stroke="#63b8ff" points="159.51,-47.88 149.34,-50.86 159.15,-54.87 159.51,-47.88"/>
</a>
</g>
</g>
<!-- Node4 -->
<g id="Node000004" class="node">
<title>Node4</title>
<g id="a_Node000004"><a xlink:href="classpsr_1_1DefaultEdgeFunctionSingletonCacheImpl.html" target="_top" xlink:title=" ">
<polygon fill="white" stroke="#666666" points="377,-43 186,-43 186,-2 377,-2 377,-43"/>
<text text-anchor="start" x="194" y="-31" font-family="Helvetica,sans-Serif" font-size="10.00">psr::DefaultEdgeFunction</text>
<text text-anchor="start" x="194" y="-20" font-family="Helvetica,sans-Serif" font-size="10.00">SingletonCacheImpl&lt; EdgeFunction</text>
<text text-anchor="middle" x="281.5" y="-9" font-family="Helvetica,sans-Serif" font-size="10.00">Ty, L &gt;</text>
</a>
</g>
</g>
<!-- Node3&#45;&gt;Node4 -->
<g id="edge4_Node000004_Node000003" class="edge">
<title>Node3&#45;&gt;Node4</title>
<g id="a_edge4_Node000004_Node000003"><a xlink:title=" ">
<path fill="none" stroke="#63b8ff" d="M159.31,-36.69C167.99,-35.67 176.86,-34.63 185.66,-33.6"/>
<polygon fill="#63b8ff" stroke="#63b8ff" points="158.75,-33.23 149.22,-37.87 159.56,-40.18 158.75,-33.23"/>
</a>
</g>
</g>
<!-- Node4&#45;&gt;Node2 -->
<g id="edge3_Node000002_Node000004" class="edge">
<title>Node4&#45;&gt;Node2</title>
<g id="a_edge3_Node000002_Node000004"><a xlink:title=" ">
<path fill="none" stroke="orange" stroke-dasharray="5,2" d="M387.35,-25.58C438.57,-27.57 501.07,-30.7 557,-35.5 562.78,-36 568.73,-36.56 574.72,-37.18"/>
<polygon fill="orange" stroke="orange" points="387.39,-22.08 377.26,-25.2 387.12,-29.08 387.39,-22.08"/>
</a>
</g>
<text text-anchor="start" x="395" y="-49.5" font-family="Helvetica,sans-Serif" font-size="10.00" fill="grey"> &lt; EdgeFunctionTy, EdgeFunction</text>
<text text-anchor="middle" x="476" y="-38.5" font-family="Helvetica,sans-Serif" font-size="10.00" fill="grey">Ty::l_t &gt;</text>
</g>
</g>
</svg>
