<?xml version="1.0" encoding="UTF-8" standalone="no"?>
<!DOCTYPE svg PUBLIC "-//W3C//DTD SVG 1.1//EN"
 "http://www.w3.org/Graphics/SVG/1.1/DTD/svg11.dtd">
<!-- Generated by graphviz version 2.43.0 (0)
 -->
<!-- Title: psr::IFDSTabulationProblem&lt; AnalysisDomainTy, Container &gt; Pages: 1 -->
<svg width="1759pt" height="323pt"
 viewBox="0.00 0.00 1759.00 323.00" xmlns="http://www.w3.org/2000/svg" xmlns:xlink="http://www.w3.org/1999/xlink">
<g id="graph0" class="graph" transform="scale(1 1) rotate(0) translate(4 319)">
<title>psr::IFDSTabulationProblem&lt; AnalysisDomainTy, Container &gt;</title>
<!-- Node1 -->
<g id="Node000001" class="node">
<title>Node1</title>
<g id="a_Node000001"><a xlink:title="The analysis problem interface for IFDS problems (solvable by the IFDSSolver). Create a subclass from...">
<polygon fill="#999999" stroke="#666666" points="1117,-195.5 935,-195.5 935,-165.5 1117,-165.5 1117,-195.5"/>
<text text-anchor="start" x="943" y="-183.5" font-family="Helvetica,sans-Serif" font-size="10.00">psr::IFDSTabulationProblem</text>
<text text-anchor="middle" x="1026" y="-172.5" font-family="Helvetica,sans-Serif" font-size="10.00">&lt; AnalysisDomainTy, Container &gt;</text>
</a>
</g>
</g>
<!-- Node10 -->
<g id="Node000010" class="node">
<title>Node10</title>
<g id="a_Node000010"><a xlink:href="classpsr_1_1IFDSTabulationProblem.html" target="_top" xlink:title=" ">
<polygon fill="white" stroke="#666666" points="1511.5,-270.5 1331.5,-270.5 1331.5,-240.5 1511.5,-240.5 1511.5,-270.5"/>
<text text-anchor="start" x="1339.5" y="-258.5" font-family="Helvetica,sans-Serif" font-size="10.00">psr::IFDSTabulationProblem</text>
<text text-anchor="middle" x="1421.5" y="-247.5" font-family="Helvetica,sans-Serif" font-size="10.00">&lt; LLVMAnalysisDomainDefault &gt;</text>
</a>
</g>
</g>
<!-- Node1&#45;&gt;Node10 -->
<g id="edge9_Node000001_Node000010" class="edge">
<title>Node1&#45;&gt;Node10</title>
<g id="a_edge9_Node000001_Node000010"><a xlink:title=" ">
<path fill="none" stroke="orange" stroke-dasharray="5,2" d="M1116.39,-197.54C1184.15,-210.45 1276.4,-228.03 1341.47,-240.44"/>
<polygon fill="orange" stroke="orange" points="1116.64,-194.02 1106.16,-195.59 1115.33,-200.9 1116.64,-194.02"/>
</a>
</g>
<text text-anchor="middle" x="1218.5" y="-233.5" font-family="Helvetica,sans-Serif" font-size="10.00" fill="grey"> &lt; LLVMAnalysisDomainDefault &gt;</text>
</g>
<!-- Node12 -->
<g id="Node000012" class="node">
<title>Node12</title>
<g id="a_Node000012"><a xlink:href="classpsr_1_1IFDSTabulationProblem.html" target="_top" xlink:title=" ">
<polygon fill="white" stroke="#666666" points="1523,-172.5 1320,-172.5 1320,-142.5 1523,-142.5 1523,-172.5"/>
<text text-anchor="start" x="1328" y="-160.5" font-family="Helvetica,sans-Serif" font-size="10.00">psr::IFDSTabulationProblem</text>
<text text-anchor="middle" x="1421.5" y="-149.5" font-family="Helvetica,sans-Serif" font-size="10.00">&lt; LLVMIFDSAnalysisDomainDefault &gt;</text>
</a>
</g>
</g>
<!-- Node1&#45;&gt;Node12 -->
<g id="edge11_Node000001_Node000012" class="edge">
<title>Node1&#45;&gt;Node12</title>
<g id="a_edge11_Node000001_Node000012"><a xlink:title=" ">
<path fill="none" stroke="orange" stroke-dasharray="5,2" d="M1127.36,-174.63C1186.41,-171.18 1260.84,-166.83 1319.92,-163.38"/>
<polygon fill="orange" stroke="orange" points="1127.06,-171.15 1117.28,-175.22 1127.46,-178.13 1127.06,-171.15"/>
</a>
</g>
<text text-anchor="start" x="1147" y="-187.5" font-family="Helvetica,sans-Serif" font-size="10.00" fill="grey"> &lt; LLVMIFDSAnalysisDomain</text>
<text text-anchor="middle" x="1218.5" y="-176.5" font-family="Helvetica,sans-Serif" font-size="10.00" fill="grey">Default &gt;</text>
</g>
<!-- Node2 -->
<g id="Node000002" class="node">
<title>Node2</title>
<g id="a_Node000002"><a xlink:href="classpsr_1_1IDETabulationProblem.html" target="_top" xlink:title="The analysis problem interface for IDE problems (solvable by the IDESolver). Create a subclass from t...">
<polygon fill="white" stroke="#666666" points="898,-195.5 716,-195.5 716,-165.5 898,-165.5 898,-195.5"/>
<text text-anchor="start" x="724" y="-183.5" font-family="Helvetica,sans-Serif" font-size="10.00">psr::IDETabulationProblem</text>
<text text-anchor="middle" x="807" y="-172.5" font-family="Helvetica,sans-Serif" font-size="10.00">&lt; AnalysisDomainTy, Container &gt;</text>
</a>
</g>
</g>
<!-- Node2&#45;&gt;Node1 -->
<g id="edge1_Node000001_Node000002" class="edge">
<title>Node2&#45;&gt;Node1</title>
<g id="a_edge1_Node000001_Node000002"><a xlink:title=" ">
<path fill="none" stroke="#63b8ff" d="M908.42,-180.5C917.22,-180.5 926.08,-180.5 934.79,-180.5"/>
<polygon fill="#63b8ff" stroke="#63b8ff" points="908.14,-177 898.14,-180.5 908.14,-184 908.14,-177"/>
</a>
</g>
</g>
<!-- Node3 -->
<g id="Node000003" class="node">
<title>Node3</title>
<g id="a_Node000003"><a xlink:href="classpsr_1_1FlowFunctions.html" target="_top" xlink:title=" ">
<polygon fill="white" stroke="#666666" points="641,-303 520,-303 520,-262 641,-262 641,-303"/>
<text text-anchor="start" x="528" y="-291" font-family="Helvetica,sans-Serif" font-size="10.00">psr::FlowFunctions</text>
<text text-anchor="start" x="528" y="-280" font-family="Helvetica,sans-Serif" font-size="10.00">&lt; AnalysisDomainTy,</text>
<text text-anchor="middle" x="580.5" y="-269" font-family="Helvetica,sans-Serif" font-size="10.00"> Container &gt;</text>
</a>
</g>
</g>
<!-- Node3&#45;&gt;Node2 -->
<g id="edge2_Node000002_Node000003" class="edge">
<title>Node3&#45;&gt;Node2</title>
<g id="a_edge2_Node000002_Node000003"><a xlink:title=" ">
<path fill="none" stroke="#63b8ff" d="M650.63,-263.28C660.28,-260.01 669.97,-256.39 679,-252.5 716.94,-236.14 758.05,-211.42 782.92,-195.63"/>
<polygon fill="#63b8ff" stroke="#63b8ff" points="649.43,-259.99 641.02,-266.44 651.61,-266.64 649.43,-259.99"/>
</a>
</g>
</g>
<!-- Node4 -->
<g id="Node000004" class="node">
<title>Node4</title>
<g id="a_Node000004"><a xlink:href="classpsr_1_1FlowFunctionTemplates.html" target="_top" xlink:title=" ">
<polygon fill="white" stroke="#666666" points="445,-303 293,-303 293,-262 445,-262 445,-303"/>
<text text-anchor="start" x="301" y="-291" font-family="Helvetica,sans-Serif" font-size="10.00">psr::FlowFunctionTemplates</text>
<text text-anchor="start" x="301" y="-280" font-family="Helvetica,sans-Serif" font-size="10.00">&lt; AnalysisDomainTy::d_t,</text>
<text text-anchor="middle" x="369" y="-269" font-family="Helvetica,sans-Serif" font-size="10.00"> Container &gt;</text>
</a>
</g>
</g>
<!-- Node4&#45;&gt;Node3 -->
<g id="edge3_Node000003_Node000004" class="edge">
<title>Node4&#45;&gt;Node3</title>
<g id="a_edge3_Node000003_Node000004"><a xlink:title=" ">
<path fill="none" stroke="darkgreen" d="M455.22,-282.5C476.87,-282.5 499.67,-282.5 519.75,-282.5"/>
<polygon fill="darkgreen" stroke="darkgreen" points="455.04,-279 445.04,-282.5 455.04,-286 455.04,-279"/>
</a>
</g>
</g>
<!-- Node5 -->
<g id="Node000005" class="node">
<title>Node5</title>
<g id="a_Node000005"><a xlink:href="classpsr_1_1FlowFunctionTemplates.html" target="_top" xlink:title=" ">
<polygon fill="white" stroke="#666666" points="152,-297.5 0,-297.5 0,-267.5 152,-267.5 152,-297.5"/>
<text text-anchor="start" x="8" y="-285.5" font-family="Helvetica,sans-Serif" font-size="10.00">psr::FlowFunctionTemplates</text>
<text text-anchor="middle" x="76" y="-274.5" font-family="Helvetica,sans-Serif" font-size="10.00">&lt; D, Container &gt;</text>
</a>
</g>
</g>
<!-- Node5&#45;&gt;Node4 -->
<g id="edge4_Node000004_Node000005" class="edge">
<title>Node5&#45;&gt;Node4</title>
<g id="a_edge4_Node000004_Node000005"><a xlink:title=" ">
<path fill="none" stroke="orange" stroke-dasharray="5,2" d="M162.39,-282.5C203.79,-282.5 253.06,-282.5 293,-282.5"/>
<polygon fill="orange" stroke="orange" points="162.32,-279 152.32,-282.5 162.32,-286 162.32,-279"/>
</a>
</g>
<text text-anchor="start" x="170" y="-296.5" font-family="Helvetica,sans-Serif" font-size="10.00" fill="grey"> &lt; AnalysisDomainTy</text>
<text text-anchor="middle" x="222.5" y="-285.5" font-family="Helvetica,sans-Serif" font-size="10.00" fill="grey">::d_t, Container &gt;</text>
</g>
<!-- Node6 -->
<g id="Node000006" class="node">
<title>Node6</title>
<g id="a_Node000006"><a xlink:href="classpsr_1_1EdgeFunctions.html" target="_top" xlink:title=" ">
<polygon fill="white" stroke="#666666" points="645,-243.5 516,-243.5 516,-213.5 645,-213.5 645,-243.5"/>
<text text-anchor="start" x="524" y="-231.5" font-family="Helvetica,sans-Serif" font-size="10.00">psr::EdgeFunctions</text>
<text text-anchor="middle" x="580.5" y="-220.5" font-family="Helvetica,sans-Serif" font-size="10.00">&lt; AnalysisDomainTy &gt;</text>
</a>
</g>
</g>
<!-- Node6&#45;&gt;Node2 -->
<g id="edge5_Node000002_Node000006" class="edge">
<title>Node6&#45;&gt;Node2</title>
<g id="a_edge5_Node000002_Node000006"><a xlink:title=" ">
<path fill="none" stroke="#63b8ff" d="M655.02,-212.78C680.99,-207.23 710.11,-201 735.8,-195.51"/>
<polygon fill="#63b8ff" stroke="#63b8ff" points="654.28,-209.36 645.23,-214.87 655.74,-216.21 654.28,-209.36"/>
</a>
</g>
</g>
<!-- Node7 -->
<g id="Node000007" class="node">
<title>Node7</title>
<g id="a_Node000007"><a xlink:href="classpsr_1_1JoinLattice.html" target="_top" xlink:title=" ">
<polygon fill="white" stroke="#666666" points="651,-195.5 510,-195.5 510,-165.5 651,-165.5 651,-195.5"/>
<text text-anchor="start" x="518" y="-183.5" font-family="Helvetica,sans-Serif" font-size="10.00">psr::JoinLattice&lt; Analysis</text>
<text text-anchor="middle" x="580.5" y="-172.5" font-family="Helvetica,sans-Serif" font-size="10.00">DomainTy, typename &gt;</text>
</a>
</g>
</g>
<!-- Node7&#45;&gt;Node2 -->
<g id="edge6_Node000002_Node000007" class="edge">
<title>Node7&#45;&gt;Node2</title>
<g id="a_edge6_Node000002_Node000007"><a xlink:title=" ">
<path fill="none" stroke="#63b8ff" d="M661.54,-180.5C679.18,-180.5 697.98,-180.5 715.98,-180.5"/>
<polygon fill="#63b8ff" stroke="#63b8ff" points="661.3,-177 651.3,-180.5 661.3,-184 661.3,-177"/>
</a>
</g>
</g>
<!-- Node8 -->
<g id="Node000008" class="node">
<title>Node8</title>
<g id="a_Node000008"><a xlink:href="classpsr_1_1SemiRing.html" target="_top" xlink:title=" ">
<polygon fill="white" stroke="#666666" points="679,-147 482,-147 482,-128 679,-128 679,-147"/>
<text text-anchor="middle" x="580.5" y="-135" font-family="Helvetica,sans-Serif" font-size="10.00">psr::SemiRing&lt; AnalysisDomainTy &gt;</text>
</a>
</g>
</g>
<!-- Node8&#45;&gt;Node2 -->
<g id="edge7_Node000002_Node000008" class="edge">
<title>Node8&#45;&gt;Node2</title>
<g id="a_edge7_Node000002_Node000008"><a xlink:title=" ">
<path fill="none" stroke="#63b8ff" d="M641.22,-148.94C667.73,-154.02 699.29,-160.06 727.65,-165.49"/>
<polygon fill="#63b8ff" stroke="#63b8ff" points="641.8,-145.49 631.32,-147.04 640.49,-152.36 641.8,-145.49"/>
</a>
</g>
</g>
<!-- Node9 -->
<g id="Node000009" class="node">
<title>Node9</title>
<g id="a_Node000009"><a xlink:href="classpsr_1_1AllTopFnProvider.html" target="_top" xlink:title=" ">
<polygon fill="white" stroke="#666666" points="673,-109.5 488,-109.5 488,-79.5 673,-79.5 673,-109.5"/>
<text text-anchor="start" x="496" y="-97.5" font-family="Helvetica,sans-Serif" font-size="10.00">psr::AllTopFnProvider</text>
<text text-anchor="middle" x="580.5" y="-86.5" font-family="Helvetica,sans-Serif" font-size="10.00">&lt; AnalysisDomainTy, typename &gt;</text>
</a>
</g>
</g>
<!-- Node9&#45;&gt;Node2 -->
<g id="edge8_Node000002_Node000009" class="edge">
<title>Node9&#45;&gt;Node2</title>
<g id="a_edge8_Node000002_Node000009"><a xlink:title=" ">
<path fill="none" stroke="#63b8ff" d="M657.56,-112.44C664.87,-114.63 672.11,-116.99 679,-119.5 714.39,-132.39 753.16,-151.85 778.44,-165.31"/>
<polygon fill="#63b8ff" stroke="#63b8ff" points="658.18,-108.98 647.6,-109.57 656.23,-115.7 658.18,-108.98"/>
</a>
</g>
</g>
<!-- Node11 -->
<g id="Node000011" class="node">
<title>Node11</title>
<g id="a_Node000011"><a xlink:href="classpsr_1_1DefaultAliasAwareIFDSProblem.html" target="_top" xlink:title=" ">
<polygon fill="white" stroke="#666666" points="1751,-315 1560,-315 1560,-296 1751,-296 1751,-315"/>
<text text-anchor="middle" x="1655.5" y="-303" font-family="Helvetica,sans-Serif" font-size="10.00">psr::DefaultAliasAwareIFDSProblem</text>
</a>
</g>
</g>
<!-- Node10&#45;&gt;Node11 -->
<g id="edge10_Node000010_Node000011" class="edge">
<title>Node10&#45;&gt;Node11</title>
<g id="a_edge10_Node000010_Node000011"><a xlink:title=" ">
<path fill="none" stroke="#63b8ff" d="M1494.51,-272.84C1515.58,-277.75 1538.68,-282.99 1560,-287.5 1573.73,-290.4 1588.62,-293.34 1602.43,-295.97"/>
<polygon fill="#63b8ff" stroke="#63b8ff" points="1495.2,-269.4 1484.67,-270.53 1493.61,-276.22 1495.2,-269.4"/>
</a>
</g>
</g>
<!-- Node13 -->
<g id="Node000013" class="node">
<title>Node13</title>
<g id="a_Node000013"><a xlink:href="classpsr_1_1DefaultNoAliasIFDSProblem.html" target="_top" xlink:title=" ">
<polygon fill="white" stroke="#666666" points="1742.5,-278 1568.5,-278 1568.5,-259 1742.5,-259 1742.5,-278"/>
<text text-anchor="middle" x="1655.5" y="-266" font-family="Helvetica,sans-Serif" font-size="10.00">psr::DefaultNoAliasIFDSProblem</text>
</a>
</g>
</g>
<!-- Node12&#45;&gt;Node13 -->
<g id="edge12_Node000012_Node000013" class="edge">
<title>Node12&#45;&gt;Node13</title>
<g id="a_edge12_Node000012_Node000013"><a xlink:title=" ">
<path fill="none" stroke="#63b8ff" d="M1451.06,-178.85C1484.26,-203.29 1537.38,-241.16 1560,-250.5 1568.34,-253.94 1577.36,-256.73 1586.41,-258.99"/>
<polygon fill="#63b8ff" stroke="#63b8ff" points="1452.8,-175.78 1442.68,-172.65 1448.64,-181.4 1452.8,-175.78"/>
</a>
</g>
</g>
<!-- Node14 -->
<g id="Node000014" class="node">
<title>Node14</title>
<g id="a_Node000014"><a xlink:href="classpsr_1_1IFDSConstAnalysis.html" target="_top" xlink:title="Computes all possibly mutable memory locations.">
<polygon fill="white" stroke="#666666" points="1720,-241 1591,-241 1591,-222 1720,-222 1720,-241"/>
<text text-anchor="middle" x="1655.5" y="-229" font-family="Helvetica,sans-Serif" font-size="10.00">psr::IFDSConstAnalysis</text>
</a>
</g>
</g>
<!-- Node12&#45;&gt;Node14 -->
<g id="edge13_Node000012_Node000014" class="edge">
<title>Node12&#45;&gt;Node14</title>
<g id="a_edge13_Node000012_Node000014"><a xlink:title=" ">
<path fill="none" stroke="#63b8ff" d="M1463.48,-176.69C1490.42,-188.68 1526.72,-203.66 1560,-213.5 1571.13,-216.79 1583.18,-219.62 1594.84,-222"/>
<polygon fill="#63b8ff" stroke="#63b8ff" points="1464.91,-173.5 1454.36,-172.59 1462.04,-179.88 1464.91,-173.5"/>
</a>
</g>
</g>
<!-- Node15 -->
<g id="Node000015" class="node">
<title>Node15</title>
<g id="a_Node000015"><a xlink:href="classpsr_1_1IFDSProtoAnalysis.html" target="_top" xlink:title=" ">
<polygon fill="white" stroke="#666666" points="1719,-204 1592,-204 1592,-185 1719,-185 1719,-204"/>
<text text-anchor="middle" x="1655.5" y="-192" font-family="Helvetica,sans-Serif" font-size="10.00">psr::IFDSProtoAnalysis</text>
</a>
</g>
</g>
<!-- Node12&#45;&gt;Node15 -->
<g id="edge14_Node000012_Node000015" class="edge">
<title>Node12&#45;&gt;Node15</title>
<g id="a_edge14_Node000012_Node000015"><a xlink:title=" ">
<path fill="none" stroke="#63b8ff" d="M1526.8,-174.13C1550.11,-177.85 1574.06,-181.67 1594.83,-184.98"/>
<polygon fill="#63b8ff" stroke="#63b8ff" points="1527.29,-170.67 1516.86,-172.55 1526.19,-177.58 1527.29,-170.67"/>
</a>
</g>
</g>
<!-- Node16 -->
<g id="Node000016" class="node">
<title>Node16</title>
<g id="a_Node000016"><a xlink:href="classpsr_1_1IFDSSignAnalysis.html" target="_top" xlink:title=" ">
<polygon fill="white" stroke="#666666" points="1716.5,-167 1594.5,-167 1594.5,-148 1716.5,-148 1716.5,-167"/>
<text text-anchor="middle" x="1655.5" y="-155" font-family="Helvetica,sans-Serif" font-size="10.00">psr::IFDSSignAnalysis</text>
</a>
</g>
</g>
<!-- Node12&#45;&gt;Node16 -->
<g id="edge15_Node000012_Node000016" class="edge">
<title>Node12&#45;&gt;Node16</title>
<g id="a_edge15_Node000012_Node000016"><a xlink:title=" ">
<path fill="none" stroke="#63b8ff" d="M1533.5,-157.5C1554.45,-157.5 1575.63,-157.5 1594.27,-157.5"/>
<polygon fill="#63b8ff" stroke="#63b8ff" points="1533.25,-154 1523.25,-157.5 1533.25,-161 1533.25,-154"/>
</a>
</g>
</g>
<!-- Node17 -->
<g id="Node000017" class="node">
<title>Node17</title>
<g id="a_Node000017"><a xlink:href="classpsr_1_1IFDSSolverTest.html" target="_top" xlink:title=" ">
<polygon fill="white" stroke="#666666" points="1710.5,-130 1600.5,-130 1600.5,-111 1710.5,-111 1710.5,-130"/>
<text text-anchor="middle" x="1655.5" y="-118" font-family="Helvetica,sans-Serif" font-size="10.00">psr::IFDSSolverTest</text>
</a>
</g>
</g>
<!-- Node12&#45;&gt;Node17 -->
<g id="edge16_Node000012_Node000017" class="edge">
<title>Node12&#45;&gt;Node17</title>
<g id="a_edge16_Node000012_Node000017"><a xlink:title=" ">
<path fill="none" stroke="#63b8ff" d="M1526.89,-140.85C1552.21,-136.81 1578.26,-132.66 1600.18,-129.16"/>
<polygon fill="#63b8ff" stroke="#63b8ff" points="1526.19,-137.42 1516.86,-142.45 1527.29,-144.33 1526.19,-137.42"/>
</a>
</g>
</g>
<!-- Node18 -->
<g id="Node000018" class="node">
<title>Node18</title>
<g id="a_Node000018"><a xlink:href="classpsr_1_1IFDSTaintAnalysis.html" target="_top" xlink:title=" ">
<polygon fill="white" stroke="#666666" points="1718,-93 1593,-93 1593,-74 1718,-74 1718,-93"/>
<text text-anchor="middle" x="1655.5" y="-81" font-family="Helvetica,sans-Serif" font-size="10.00">psr::IFDSTaintAnalysis</text>
</a>
</g>
</g>
<!-- Node12&#45;&gt;Node18 -->
<g id="edge17_Node000012_Node000018" class="edge">
<title>Node12&#45;&gt;Node18</title>
<g id="a_edge17_Node000012_Node000018"><a xlink:title=" ">
<path fill="none" stroke="#63b8ff" d="M1463.48,-138.31C1490.42,-126.32 1526.72,-111.34 1560,-101.5 1571.13,-98.21 1583.18,-95.38 1594.84,-93"/>
<polygon fill="#63b8ff" stroke="#63b8ff" points="1462.04,-135.12 1454.36,-142.41 1464.91,-141.5 1462.04,-135.12"/>
</a>
</g>
</g>
<!-- Node19 -->
<g id="Node000019" class="node">
<title>Node19</title>
<g id="a_Node000019"><a xlink:href="classpsr_1_1IFDSTypeAnalysis.html" target="_top" xlink:title=" ">
<polygon fill="white" stroke="#666666" points="1717.5,-56 1593.5,-56 1593.5,-37 1717.5,-37 1717.5,-56"/>
<text text-anchor="middle" x="1655.5" y="-44" font-family="Helvetica,sans-Serif" font-size="10.00">psr::IFDSTypeAnalysis</text>
</a>
</g>
</g>
<!-- Node12&#45;&gt;Node19 -->
<g id="edge18_Node000012_Node000019" class="edge">
<title>Node12&#45;&gt;Node19</title>
<g id="a_edge18_Node000012_Node000019"><a xlink:title=" ">
<path fill="none" stroke="#63b8ff" d="M1447.72,-135.74C1473.99,-114.27 1517.21,-82.16 1560,-64.5 1570.5,-60.17 1582.09,-56.87 1593.45,-54.35"/>
<polygon fill="#63b8ff" stroke="#63b8ff" points="1445.27,-133.23 1439.81,-142.31 1449.74,-138.62 1445.27,-133.23"/>
</a>
</g>
</g>
<!-- Node20 -->
<g id="Node000020" class="node">
<title>Node20</title>
<g id="a_Node000020"><a xlink:href="classpsr_1_1IFDSUninitializedVariables.html" target="_top" xlink:title=" ">
<polygon fill="white" stroke="#666666" points="1739,-19 1572,-19 1572,0 1739,0 1739,-19"/>
<text text-anchor="middle" x="1655.5" y="-7" font-family="Helvetica,sans-Serif" font-size="10.00">psr::IFDSUninitializedVariables</text>
</a>
</g>
</g>
<!-- Node12&#45;&gt;Node20 -->
<g id="edge19_Node000012_Node000020" class="edge">
<title>Node12&#45;&gt;Node20</title>
<g id="a_edge19_Node000012_Node000020"><a xlink:title=" ">
<path fill="none" stroke="#63b8ff" d="M1440.19,-133.96C1463.96,-104.14 1509.16,-53.51 1560,-27.5 1566.69,-24.08 1573.95,-21.3 1581.37,-19.05"/>
<polygon fill="#63b8ff" stroke="#63b8ff" points="1437.19,-132.11 1433.79,-142.14 1442.71,-136.42 1437.19,-132.11"/>
</a>
</g>
</g>
</g>
</svg>
