<?xml version="1.0" encoding="UTF-8" standalone="no"?>
<!DOCTYPE svg PUBLIC "-//W3C//DTD SVG 1.1//EN"
 "http://www.w3.org/Graphics/SVG/1.1/DTD/svg11.dtd">
<!-- Generated by graphviz version 2.43.0 (0)
 -->
<!-- Title: psr::Compressor&lt; T, IdT &gt; Pages: 1 -->
<svg width="472pt" height="194pt"
 viewBox="0.00 0.00 472.00 193.50" xmlns="http://www.w3.org/2000/svg" xmlns:xlink="http://www.w3.org/1999/xlink">
<g id="graph0" class="graph" transform="scale(1 1) rotate(0) translate(4 189.5)">
<title>psr::Compressor&lt; T, IdT &gt;</title>
<!-- Node1 -->
<g id="Node000001" class="node">
<title>Node1</title>
<g id="a_Node000001"><a xlink:title=" ">
<polygon fill="#999999" stroke="#666666" points="116,-113 0,-113 0,-83 116,-83 116,-113"/>
<text text-anchor="start" x="8" y="-101" font-family="Helvetica,sans-Serif" font-size="10.00">psr::Compressor&lt; T,</text>
<text text-anchor="middle" x="58" y="-90" font-family="Helvetica,sans-Serif" font-size="10.00"> IdT &gt;</text>
</a>
</g>
</g>
<!-- Node2 -->
<g id="Node000002" class="node">
<title>Node2</title>
<g id="a_Node000002"><a xlink:href="classpsr_1_1Compressor.html" target="_top" xlink:title=" ">
<polygon fill="white" stroke="#666666" points="444.5,-185.5 313.5,-185.5 313.5,-166.5 444.5,-166.5 444.5,-185.5"/>
<text text-anchor="middle" x="379" y="-173.5" font-family="Helvetica,sans-Serif" font-size="10.00">psr::Compressor&lt; f_t &gt;</text>
</a>
</g>
</g>
<!-- Node1&#45;&gt;Node2 -->
<g id="edge1_Node000001_Node000002" class="edge">
<title>Node1&#45;&gt;Node2</title>
<g id="a_edge1_Node000001_Node000002"><a xlink:title=" ">
<path fill="none" stroke="orange" stroke-dasharray="5,2" d="M86.89,-119C100.43,-128.14 117.35,-138.1 134,-144 192.5,-164.71 263.16,-172.22 313.36,-174.84"/>
<polygon fill="orange" stroke="orange" points="88.72,-116.01 78.52,-113.16 84.71,-121.75 88.72,-116.01"/>
</a>
</g>
<text text-anchor="middle" x="205" y="-174" font-family="Helvetica,sans-Serif" font-size="10.00" fill="grey"> &lt; f_t &gt;</text>
</g>
<!-- Node3 -->
<g id="Node000003" class="node">
<title>Node3</title>
<g id="a_Node000003"><a xlink:href="classpsr_1_1Compressor.html" target="_top" xlink:title=" ">
<polygon fill="white" stroke="#666666" points="440,-148.5 318,-148.5 318,-107.5 440,-107.5 440,-148.5"/>
<text text-anchor="start" x="326" y="-136.5" font-family="Helvetica,sans-Serif" font-size="10.00">psr::Compressor&lt; psr</text>
<text text-anchor="start" x="326" y="-125.5" font-family="Helvetica,sans-Serif" font-size="10.00">::vta::TAGNode, vta::</text>
<text text-anchor="middle" x="379" y="-114.5" font-family="Helvetica,sans-Serif" font-size="10.00">TAGNodeId &gt;</text>
</a>
</g>
</g>
<!-- Node1&#45;&gt;Node3 -->
<g id="edge2_Node000001_Node000003" class="edge">
<title>Node1&#45;&gt;Node3</title>
<g id="a_edge2_Node000001_Node000003"><a xlink:title=" ">
<path fill="none" stroke="orange" stroke-dasharray="5,2" d="M126.35,-105.24C128.94,-105.5 131.49,-105.75 134,-106 196.65,-112.16 268.41,-118.55 317.81,-122.85"/>
<polygon fill="orange" stroke="orange" points="126.62,-101.75 116.32,-104.21 125.91,-108.71 126.62,-101.75"/>
</a>
</g>
<text text-anchor="start" x="152" y="-132" font-family="Helvetica,sans-Serif" font-size="10.00" fill="grey"> &lt; psr::vta::TAGNode,</text>
<text text-anchor="middle" x="205" y="-121" font-family="Helvetica,sans-Serif" font-size="10.00" fill="grey"> vta::TAGNodeId &gt;</text>
</g>
<!-- Node4 -->
<g id="Node000004" class="node">
<title>Node4</title>
<g id="a_Node000004"><a xlink:href="classpsr_1_1Compressor.html" target="_top" xlink:title=" ">
<polygon fill="white" stroke="#666666" points="452,-89.5 306,-89.5 306,-48.5 452,-48.5 452,-89.5"/>
<text text-anchor="start" x="314" y="-77.5" font-family="Helvetica,sans-Serif" font-size="10.00">psr::Compressor&lt; psr</text>
<text text-anchor="start" x="314" y="-66.5" font-family="Helvetica,sans-Serif" font-size="10.00">::cfl_fieldsens::FieldString</text>
<text text-anchor="middle" x="379" y="-55.5" font-family="Helvetica,sans-Serif" font-size="10.00">Node, FieldStringNodeId &gt;</text>
</a>
</g>
</g>
<!-- Node1&#45;&gt;Node4 -->
<g id="edge3_Node000001_Node000004" class="edge">
<title>Node1&#45;&gt;Node4</title>
<g id="a_edge3_Node000001_Node000004"><a xlink:title=" ">
<path fill="none" stroke="orange" stroke-dasharray="5,2" d="M106.23,-79.84C115.32,-77.04 124.86,-74.56 134,-73 191.21,-63.23 257.07,-62.77 305.93,-64.46"/>
<polygon fill="orange" stroke="orange" points="105,-76.56 96.58,-82.98 107.17,-83.21 105,-76.56"/>
</a>
</g>
<text text-anchor="start" x="134" y="-98" font-family="Helvetica,sans-Serif" font-size="10.00" fill="grey"> &lt; psr::cfl_fieldsens</text>
<text text-anchor="start" x="134" y="-87" font-family="Helvetica,sans-Serif" font-size="10.00" fill="grey">::FieldStringNode, FieldString</text>
<text text-anchor="middle" x="205" y="-76" font-family="Helvetica,sans-Serif" font-size="10.00" fill="grey">NodeId &gt;</text>
</g>
<!-- Node5 -->
<g id="Node000005" class="node">
<title>Node5</title>
<g id="a_Node000005"><a xlink:href="classpsr_1_1Compressor.html" target="_top" xlink:title=" ">
<polygon fill="white" stroke="#666666" points="464,-30 294,-30 294,0 464,0 464,-30"/>
<text text-anchor="start" x="302" y="-18" font-family="Helvetica,sans-Serif" font-size="10.00">psr::Compressor&lt; psr</text>
<text text-anchor="middle" x="379" y="-7" font-family="Helvetica,sans-Serif" font-size="10.00">::vta::TAGNode, GraphNodeId &gt;</text>
</a>
</g>
</g>
<!-- Node1&#45;&gt;Node5 -->
<g id="edge4_Node000001_Node000005" class="edge">
<title>Node1&#45;&gt;Node5</title>
<g id="a_edge4_Node000001_Node000005"><a xlink:title=" ">
<path fill="none" stroke="orange" stroke-dasharray="5,2" d="M79.36,-75.72C93.3,-62.03 113.01,-45.54 134,-37 184.43,-16.48 245.43,-10.98 293.82,-10.61"/>
<polygon fill="orange" stroke="orange" points="76.75,-73.38 72.24,-82.97 81.74,-78.29 76.75,-73.38"/>
</a>
</g>
<text text-anchor="start" x="152" y="-51" font-family="Helvetica,sans-Serif" font-size="10.00" fill="grey"> &lt; psr::vta::TAGNode,</text>
<text text-anchor="middle" x="205" y="-40" font-family="Helvetica,sans-Serif" font-size="10.00" fill="grey"> GraphNodeId &gt;</text>
</g>
</g>
</svg>
