<?xml version="1.0" encoding="UTF-8" standalone="no"?>
<!DOCTYPE svg PUBLIC "-//W3C//DTD SVG 1.1//EN"
 "http://www.w3.org/Graphics/SVG/1.1/DTD/svg11.dtd">
<!-- Generated by graphviz version 2.43.0 (0)
 -->
<!-- Title: psr::AnalysisPrinterBase&lt; AnalysisDomainTy &gt; Pages: 1 -->
<svg width="625pt" height="961pt"
 viewBox="0.00 0.00 625.00 960.94" xmlns="http://www.w3.org/2000/svg" xmlns:xlink="http://www.w3.org/1999/xlink">
<g id="graph0" class="graph" transform="scale(1 1) rotate(0) translate(4 956.94)">
<title>psr::AnalysisPrinterBase&lt; AnalysisDomainTy &gt;</title>
<!-- Node1 -->
<g id="Node000001" class="node">
<title>Node1</title>
<g id="a_Node000001"><a xlink:title="A generic class that serves as the basis for a custom analysis printer implementation.">
<polygon fill="#999999" stroke="#666666" points="135,-509.65 0,-509.65 0,-479.65 135,-479.65 135,-509.65"/>
<text text-anchor="start" x="8" y="-497.65" font-family="Helvetica,sans-Serif" font-size="10.00">psr::AnalysisPrinterBase</text>
<text text-anchor="middle" x="67.5" y="-486.65" font-family="Helvetica,sans-Serif" font-size="10.00">&lt; AnalysisDomainTy &gt;</text>
</a>
</g>
</g>
<!-- Node2 -->
<g id="Node000002" class="node">
<title>Node2</title>
<g id="a_Node000002"><a xlink:href="classpsr_1_1DefaultAnalysisPrinter.html" target="_top" xlink:title="A default implementation of the AnalysisPrinterBase. Aggregates all analysis results in a vector and ...">
<polygon fill="white" stroke="#666666" points="583,-949.65 436,-949.65 436,-919.65 583,-919.65 583,-949.65"/>
<text text-anchor="start" x="444" y="-937.65" font-family="Helvetica,sans-Serif" font-size="10.00">psr::DefaultAnalysisPrinter</text>
<text text-anchor="middle" x="509.5" y="-926.65" font-family="Helvetica,sans-Serif" font-size="10.00">&lt; AnalysisDomainTy &gt;</text>
</a>
</g>
</g>
<!-- Node1&#45;&gt;Node2 -->
<g id="edge1_Node000001_Node000002" class="edge">
<title>Node1&#45;&gt;Node2</title>
<g id="a_edge1_Node000001_Node000002"><a xlink:title=" ">
<path fill="none" stroke="#63b8ff" d="M70.2,-520.08C76.03,-599.27 98,-839.13 153,-889.65 229.05,-959.51 355.95,-957.69 435.78,-947.78"/>
<polygon fill="#63b8ff" stroke="#63b8ff" points="73.68,-519.74 69.48,-510.01 66.7,-520.24 73.68,-519.74"/>
</a>
</g>
</g>
<!-- Node3 -->
<g id="Node000003" class="node">
<title>Node3</title>
<g id="a_Node000003"><a xlink:href="classpsr_1_1NullAnalysisPrinter.html" target="_top" xlink:title=" ">
<polygon fill="white" stroke="#666666" points="575,-901.65 444,-901.65 444,-871.65 575,-871.65 575,-901.65"/>
<text text-anchor="start" x="452" y="-889.65" font-family="Helvetica,sans-Serif" font-size="10.00">psr::NullAnalysisPrinter</text>
<text text-anchor="middle" x="509.5" y="-878.65" font-family="Helvetica,sans-Serif" font-size="10.00">&lt; AnalysisDomainTy &gt;</text>
</a>
</g>
</g>
<!-- Node1&#45;&gt;Node3 -->
<g id="edge2_Node000001_Node000003" class="edge">
<title>Node1&#45;&gt;Node3</title>
<g id="a_edge2_Node000001_Node000003"><a xlink:title=" ">
<path fill="none" stroke="#63b8ff" d="M70.89,-520.21C78.32,-593.67 103.5,-802.92 153,-846.65 232.82,-917.17 365.24,-911.16 443.96,-899.5"/>
<polygon fill="#63b8ff" stroke="#63b8ff" points="74.35,-519.62 69.89,-510.01 67.38,-520.31 74.35,-519.62"/>
</a>
</g>
</g>
<!-- Node4 -->
<g id="Node000004" class="node">
<title>Node4</title>
<g id="a_Node000004"><a xlink:href="classpsr_1_1OnTheFlyAnalysisPrinter.html" target="_top" xlink:title=" ">
<polygon fill="white" stroke="#666666" points="588.5,-853.65 430.5,-853.65 430.5,-823.65 588.5,-823.65 588.5,-853.65"/>
<text text-anchor="start" x="438.5" y="-841.65" font-family="Helvetica,sans-Serif" font-size="10.00">psr::OnTheFlyAnalysisPrinter</text>
<text text-anchor="middle" x="509.5" y="-830.65" font-family="Helvetica,sans-Serif" font-size="10.00">&lt; AnalysisDomainTy &gt;</text>
</a>
</g>
</g>
<!-- Node1&#45;&gt;Node4 -->
<g id="edge3_Node000001_Node000004" class="edge">
<title>Node1&#45;&gt;Node4</title>
<g id="a_edge3_Node000001_Node000004"><a xlink:title=" ">
<path fill="none" stroke="#63b8ff" d="M71.69,-519.85C80.73,-586.94 108.75,-767.37 153,-804.65 231.48,-870.76 357.07,-865.6 436.05,-853.69"/>
<polygon fill="#63b8ff" stroke="#63b8ff" points="75.13,-519.2 70.36,-509.74 68.19,-520.11 75.13,-519.2"/>
</a>
</g>
</g>
<!-- Node5 -->
<g id="Node000005" class="node">
<title>Node5</title>
<g id="a_Node000005"><a xlink:href="classpsr_1_1SourceMgrPrinter.html" target="_top" xlink:title=" ">
<polygon fill="white" stroke="#666666" points="574,-805.65 445,-805.65 445,-775.65 574,-775.65 574,-805.65"/>
<text text-anchor="start" x="453" y="-793.65" font-family="Helvetica,sans-Serif" font-size="10.00">psr::SourceMgrPrinter</text>
<text text-anchor="middle" x="509.5" y="-782.65" font-family="Helvetica,sans-Serif" font-size="10.00">&lt; AnalysisDomainTy &gt;</text>
</a>
</g>
</g>
<!-- Node1&#45;&gt;Node5 -->
<g id="edge4_Node000001_Node000005" class="edge">
<title>Node1&#45;&gt;Node5</title>
<g id="a_edge4_Node000001_Node000005"><a xlink:title=" ">
<path fill="none" stroke="#63b8ff" d="M67.76,-520.08C67.71,-575.05 76.17,-704.86 153,-765.65 236.45,-831.68 368.25,-820.27 445.75,-805.67"/>
<polygon fill="#63b8ff" stroke="#63b8ff" points="71.27,-519.87 67.88,-509.84 64.27,-519.8 71.27,-519.87"/>
</a>
</g>
</g>
<!-- Node6 -->
<g id="Node000006" class="node">
<title>Node6</title>
<g id="a_Node000006"><a xlink:href="classpsr_1_1AnalysisPrinterBase.html" target="_top" xlink:title=" ">
<polygon fill="white" stroke="#666666" points="605,-757.15 414,-757.15 414,-716.15 605,-716.15 605,-757.15"/>
<text text-anchor="start" x="422" y="-745.15" font-family="Helvetica,sans-Serif" font-size="10.00">psr::AnalysisPrinterBase</text>
<text text-anchor="start" x="422" y="-734.15" font-family="Helvetica,sans-Serif" font-size="10.00">&lt; WithBinaryValueDomain</text>
<text text-anchor="middle" x="509.5" y="-723.15" font-family="Helvetica,sans-Serif" font-size="10.00">&lt; LLVMAnalysisDomainDefault &gt; &gt;</text>
</a>
</g>
</g>
<!-- Node1&#45;&gt;Node6 -->
<g id="edge5_Node000001_Node000006" class="edge">
<title>Node1&#45;&gt;Node6</title>
<g id="a_edge5_Node000001_Node000006"><a xlink:title=" ">
<path fill="none" stroke="orange" stroke-dasharray="5,2" d="M70.17,-519.8C74.7,-565.85 91.45,-663.14 153,-708.65 192.95,-738.19 322.54,-741.69 413.67,-740.2"/>
<polygon fill="orange" stroke="orange" points="73.65,-519.43 69.29,-509.77 66.67,-520.03 73.65,-519.43"/>
</a>
</g>
<text text-anchor="start" x="181" y="-753.65" font-family="Helvetica,sans-Serif" font-size="10.00" fill="grey"> &lt; WithBinaryValueDomain</text>
<text text-anchor="middle" x="268.5" y="-742.65" font-family="Helvetica,sans-Serif" font-size="10.00" fill="grey">&lt; LLVMAnalysisDomainDefault &gt; &gt;</text>
</g>
<!-- Node7 -->
<g id="Node000007" class="node">
<title>Node7</title>
<g id="a_Node000007"><a xlink:href="classpsr_1_1AnalysisPrinterBase.html" target="_top" xlink:title=" ">
<polygon fill="white" stroke="#666666" points="617,-698.15 402,-698.15 402,-657.15 617,-657.15 617,-698.15"/>
<text text-anchor="start" x="410" y="-686.15" font-family="Helvetica,sans-Serif" font-size="10.00">psr::AnalysisPrinterBase</text>
<text text-anchor="start" x="410" y="-675.15" font-family="Helvetica,sans-Serif" font-size="10.00">&lt; WithBinaryValueDomain</text>
<text text-anchor="middle" x="509.5" y="-664.15" font-family="Helvetica,sans-Serif" font-size="10.00">&lt; LLVMIFDSAnalysisDomainDefault &gt; &gt;</text>
</a>
</g>
</g>
<!-- Node1&#45;&gt;Node7 -->
<g id="edge6_Node000001_Node000007" class="edge">
<title>Node1&#45;&gt;Node7</title>
<g id="a_edge6_Node000001_Node000007"><a xlink:title=" ">
<path fill="none" stroke="orange" stroke-dasharray="5,2" d="M73.57,-519.66C82.52,-556.54 104.89,-624.5 153,-655.65 192.77,-681.4 312.32,-684.21 401.89,-682.31"/>
<polygon fill="orange" stroke="orange" points="76.94,-518.69 71.31,-509.71 70.12,-520.24 76.94,-518.69"/>
</a>
</g>
<text text-anchor="start" x="169" y="-696.65" font-family="Helvetica,sans-Serif" font-size="10.00" fill="grey"> &lt; WithBinaryValueDomain</text>
<text text-anchor="middle" x="268.5" y="-685.65" font-family="Helvetica,sans-Serif" font-size="10.00" fill="grey">&lt; LLVMIFDSAnalysisDomainDefault &gt; &gt;</text>
</g>
<!-- Node8 -->
<g id="Node000008" class="node">
<title>Node8</title>
<g id="a_Node000008"><a xlink:href="classpsr_1_1AnalysisPrinterBase.html" target="_top" xlink:title=" ">
<polygon fill="white" stroke="#666666" points="607,-638.65 412,-638.65 412,-608.65 607,-608.65 607,-638.65"/>
<text text-anchor="start" x="420" y="-626.65" font-family="Helvetica,sans-Serif" font-size="10.00">psr::AnalysisPrinterBase</text>
<text text-anchor="middle" x="509.5" y="-615.65" font-family="Helvetica,sans-Serif" font-size="10.00">&lt; IDEFeatureTaintAnalysisDomain &gt;</text>
</a>
</g>
</g>
<!-- Node1&#45;&gt;Node8 -->
<g id="edge7_Node000001_Node000008" class="edge">
<title>Node1&#45;&gt;Node8</title>
<g id="a_edge7_Node000001_Node000008"><a xlink:title=" ">
<path fill="none" stroke="orange" stroke-dasharray="5,2" d="M82.51,-518.46C97.06,-540.78 122.02,-572.98 153,-588.65 233.52,-629.38 337.35,-635.12 411.98,-632.48"/>
<polygon fill="orange" stroke="orange" points="85.39,-516.47 77.1,-509.87 79.47,-520.2 85.39,-516.47"/>
</a>
</g>
<text text-anchor="start" x="202" y="-646.65" font-family="Helvetica,sans-Serif" font-size="10.00" fill="grey"> &lt; IDEFeatureTaintAnalysis</text>
<text text-anchor="middle" x="268.5" y="-635.65" font-family="Helvetica,sans-Serif" font-size="10.00" fill="grey">Domain &gt;</text>
</g>
<!-- Node9 -->
<g id="Node000009" class="node">
<title>Node9</title>
<g id="a_Node000009"><a xlink:href="classpsr_1_1AnalysisPrinterBase.html" target="_top" xlink:title=" ">
<polygon fill="white" stroke="#666666" points="595,-590.65 424,-590.65 424,-560.65 595,-560.65 595,-590.65"/>
<text text-anchor="start" x="432" y="-578.65" font-family="Helvetica,sans-Serif" font-size="10.00">psr::AnalysisPrinterBase</text>
<text text-anchor="middle" x="509.5" y="-567.65" font-family="Helvetica,sans-Serif" font-size="10.00">&lt; IDEGeneralizedLCADomain &gt;</text>
</a>
</g>
</g>
<!-- Node1&#45;&gt;Node9 -->
<g id="edge8_Node000001_Node000009" class="edge">
<title>Node1&#45;&gt;Node9</title>
<g id="a_edge8_Node000001_Node000009"><a xlink:title=" ">
<path fill="none" stroke="orange" stroke-dasharray="5,2" d="M99.72,-515.03C115.14,-524.1 134.39,-533.99 153,-539.65 242.77,-566.94 350.56,-574.55 423.74,-576.21"/>
<polygon fill="orange" stroke="orange" points="101.48,-512.01 91.11,-509.83 97.86,-518 101.48,-512.01"/>
</a>
</g>
<text text-anchor="middle" x="268.5" y="-576.65" font-family="Helvetica,sans-Serif" font-size="10.00" fill="grey"> &lt; IDEGeneralizedLCADomain &gt;</text>
</g>
<!-- Node10 -->
<g id="Node000010" class="node">
<title>Node10</title>
<g id="a_Node000010"><a xlink:href="classpsr_1_1AnalysisPrinterBase.html" target="_top" xlink:title=" ">
<polygon fill="white" stroke="#666666" points="606.5,-542.15 412.5,-542.15 412.5,-501.15 606.5,-501.15 606.5,-542.15"/>
<text text-anchor="start" x="420.5" y="-530.15" font-family="Helvetica,sans-Serif" font-size="10.00">psr::AnalysisPrinterBase</text>
<text text-anchor="start" x="420.5" y="-519.15" font-family="Helvetica,sans-Serif" font-size="10.00">&lt; IDEInstInteractionAnalysisDomain</text>
<text text-anchor="middle" x="509.5" y="-508.15" font-family="Helvetica,sans-Serif" font-size="10.00">&lt; std::string &gt; &gt;</text>
</a>
</g>
</g>
<!-- Node1&#45;&gt;Node10 -->
<g id="edge9_Node000001_Node000010" class="edge">
<title>Node1&#45;&gt;Node10</title>
<g id="a_edge9_Node000001_Node000010"><a xlink:title=" ">
<path fill="none" stroke="orange" stroke-dasharray="5,2" d="M145.54,-499.38C219.79,-503.93 332.36,-510.84 412.43,-515.76"/>
<polygon fill="orange" stroke="orange" points="145.52,-495.87 135.33,-498.75 145.09,-502.86 145.52,-495.87"/>
</a>
</g>
<text text-anchor="start" x="197" y="-527.65" font-family="Helvetica,sans-Serif" font-size="10.00" fill="grey"> &lt; IDEInstInteractionAnalysis</text>
<text text-anchor="middle" x="268.5" y="-516.65" font-family="Helvetica,sans-Serif" font-size="10.00" fill="grey">Domain&lt; std::string &gt; &gt;</text>
</g>
<!-- Node11 -->
<g id="Node000011" class="node">
<title>Node11</title>
<g id="a_Node000011"><a xlink:href="classpsr_1_1AnalysisPrinterBase.html" target="_top" xlink:title=" ">
<polygon fill="white" stroke="#666666" points="614,-482.65 405,-482.65 405,-452.65 614,-452.65 614,-482.65"/>
<text text-anchor="start" x="413" y="-470.65" font-family="Helvetica,sans-Serif" font-size="10.00">psr::AnalysisPrinterBase</text>
<text text-anchor="middle" x="509.5" y="-459.65" font-family="Helvetica,sans-Serif" font-size="10.00">&lt; IDELinearConstantAnalysisDomain &gt;</text>
</a>
</g>
</g>
<!-- Node1&#45;&gt;Node11 -->
<g id="edge10_Node000001_Node000011" class="edge">
<title>Node1&#45;&gt;Node11</title>
<g id="a_edge10_Node000001_Node000011"><a xlink:title=" ">
<path fill="none" stroke="orange" stroke-dasharray="5,2" d="M131.21,-477.4C138.51,-475.89 145.89,-474.58 153,-473.65 237.31,-462.61 333.82,-461.71 404.99,-463.24"/>
<polygon fill="orange" stroke="orange" points="130.35,-474.01 121.34,-479.57 131.86,-480.84 130.35,-474.01"/>
</a>
</g>
<text text-anchor="start" x="195.5" y="-487.65" font-family="Helvetica,sans-Serif" font-size="10.00" fill="grey"> &lt; IDELinearConstantAnalysis</text>
<text text-anchor="middle" x="268.5" y="-476.65" font-family="Helvetica,sans-Serif" font-size="10.00" fill="grey">Domain &gt;</text>
</g>
<!-- Node12 -->
<g id="Node000012" class="node">
<title>Node12</title>
<g id="a_Node000012"><a xlink:href="classpsr_1_1AnalysisPrinterBase.html" target="_top" xlink:title=" ">
<polygon fill="white" stroke="#666666" points="590,-434.65 429,-434.65 429,-404.65 590,-404.65 590,-434.65"/>
<text text-anchor="start" x="437" y="-422.65" font-family="Helvetica,sans-Serif" font-size="10.00">psr::AnalysisPrinterBase</text>
<text text-anchor="middle" x="509.5" y="-411.65" font-family="Helvetica,sans-Serif" font-size="10.00">&lt; IDEProtoAnalysisDomain &gt;</text>
</a>
</g>
</g>
<!-- Node1&#45;&gt;Node12 -->
<g id="edge11_Node000001_Node000012" class="edge">
<title>Node1&#45;&gt;Node12</title>
<g id="a_edge11_Node000001_Node000012"><a xlink:title=" ">
<path fill="none" stroke="orange" stroke-dasharray="5,2" d="M98.23,-473.97C113.82,-464.23 133.65,-453.49 153,-447.65 244.72,-419.97 355.46,-415.52 428.7,-416.34"/>
<polygon fill="orange" stroke="orange" points="96.09,-471.19 89.58,-479.54 99.88,-477.07 96.09,-471.19"/>
</a>
</g>
<text text-anchor="middle" x="268.5" y="-450.65" font-family="Helvetica,sans-Serif" font-size="10.00" fill="grey"> &lt; IDEProtoAnalysisDomain &gt;</text>
</g>
<!-- Node13 -->
<g id="Node000013" class="node">
<title>Node13</title>
<g id="a_Node000013"><a xlink:href="classpsr_1_1AnalysisPrinterBase.html" target="_top" xlink:title=" ">
<polygon fill="white" stroke="#666666" points="611,-386.15 408,-386.15 408,-345.15 611,-345.15 611,-386.15"/>
<text text-anchor="start" x="416" y="-374.15" font-family="Helvetica,sans-Serif" font-size="10.00">psr::AnalysisPrinterBase</text>
<text text-anchor="start" x="416" y="-363.15" font-family="Helvetica,sans-Serif" font-size="10.00">&lt; IDESecureHeapPropagationAnalysis</text>
<text text-anchor="middle" x="509.5" y="-352.15" font-family="Helvetica,sans-Serif" font-size="10.00">Domain &gt;</text>
</a>
</g>
</g>
<!-- Node1&#45;&gt;Node13 -->
<g id="edge12_Node000001_Node000013" class="edge">
<title>Node1&#45;&gt;Node13</title>
<g id="a_edge12_Node000001_Node000013"><a xlink:title=" ">
<path fill="none" stroke="orange" stroke-dasharray="5,2" d="M80.49,-470.44C94.25,-445.59 119.32,-408.16 153,-390.65 231.5,-349.85 333.23,-346.83 407.74,-352.11"/>
<polygon fill="orange" stroke="orange" points="77.39,-468.81 75.78,-479.28 83.57,-472.11 77.39,-468.81"/>
</a>
</g>
<text text-anchor="start" x="194.5" y="-404.65" font-family="Helvetica,sans-Serif" font-size="10.00" fill="grey"> &lt; IDESecureHeapPropagation</text>
<text text-anchor="middle" x="268.5" y="-393.65" font-family="Helvetica,sans-Serif" font-size="10.00" fill="grey">AnalysisDomain &gt;</text>
</g>
<!-- Node14 -->
<g id="Node000014" class="node">
<title>Node14</title>
<g id="a_Node000014"><a xlink:href="classpsr_1_1AnalysisPrinterBase.html" target="_top" xlink:title=" ">
<polygon fill="white" stroke="#666666" points="602,-326.65 417,-326.65 417,-296.65 602,-296.65 602,-326.65"/>
<text text-anchor="start" x="425" y="-314.65" font-family="Helvetica,sans-Serif" font-size="10.00">psr::AnalysisPrinterBase</text>
<text text-anchor="middle" x="509.5" y="-303.65" font-family="Helvetica,sans-Serif" font-size="10.00">&lt; IDESolverTestAnalysisDomain &gt;</text>
</a>
</g>
</g>
<!-- Node1&#45;&gt;Node14 -->
<g id="edge13_Node000001_Node000014" class="edge">
<title>Node1&#45;&gt;Node14</title>
<g id="a_edge13_Node000001_Node000014"><a xlink:title=" ">
<path fill="none" stroke="orange" stroke-dasharray="5,2" d="M73.7,-469.53C82.77,-432.83 105.25,-365.58 153,-334.65 237.09,-280.18 357.12,-285.44 433.92,-296.65"/>
<polygon fill="orange" stroke="orange" points="70.25,-468.91 71.4,-479.44 77.07,-470.49 70.25,-468.91"/>
</a>
</g>
<text text-anchor="middle" x="268.5" y="-337.65" font-family="Helvetica,sans-Serif" font-size="10.00" fill="grey"> &lt; IDESolverTestAnalysisDomain &gt;</text>
</g>
<!-- Node15 -->
<g id="Node000015" class="node">
<title>Node15</title>
<g id="a_Node000015"><a xlink:href="classpsr_1_1AnalysisPrinterBase.html" target="_top" xlink:title=" ">
<polygon fill="white" stroke="#666666" points="595.5,-278.15 423.5,-278.15 423.5,-237.15 595.5,-237.15 595.5,-278.15"/>
<text text-anchor="start" x="431.5" y="-266.15" font-family="Helvetica,sans-Serif" font-size="10.00">psr::AnalysisPrinterBase</text>
<text text-anchor="start" x="431.5" y="-255.15" font-family="Helvetica,sans-Serif" font-size="10.00">&lt; IDETypeStateAnalysisDomain</text>
<text text-anchor="middle" x="509.5" y="-244.15" font-family="Helvetica,sans-Serif" font-size="10.00">&lt; TypeStateDescriptionTy &gt; &gt;</text>
</a>
</g>
</g>
<!-- Node1&#45;&gt;Node15 -->
<g id="edge14_Node000001_Node000015" class="edge">
<title>Node1&#45;&gt;Node15</title>
<g id="a_edge14_Node000001_Node000015"><a xlink:title=" ">
<path fill="none" stroke="orange" stroke-dasharray="5,2" d="M69.01,-469.48C71.53,-420.08 84.94,-311.01 153,-262.65 194.83,-232.93 332.25,-239.7 423.48,-248.1"/>
<polygon fill="orange" stroke="orange" points="65.51,-469.49 68.61,-479.62 72.5,-469.76 65.51,-469.49"/>
</a>
</g>
<text text-anchor="start" x="189" y="-276.65" font-family="Helvetica,sans-Serif" font-size="10.00" fill="grey"> &lt; IDETypeStateAnalysisDomain</text>
<text text-anchor="middle" x="268.5" y="-265.65" font-family="Helvetica,sans-Serif" font-size="10.00" fill="grey">&lt; TypeStateDescriptionTy &gt; &gt;</text>
</g>
<!-- Node16 -->
<g id="Node000016" class="node">
<title>Node16</title>
<g id="a_Node000016"><a xlink:href="classpsr_1_1AnalysisPrinterBase.html" target="_top" xlink:title=" ">
<polygon fill="white" stroke="#666666" points="583,-219.15 436,-219.15 436,-178.15 583,-178.15 583,-219.15"/>
<text text-anchor="start" x="444" y="-207.15" font-family="Helvetica,sans-Serif" font-size="10.00">psr::AnalysisPrinterBase</text>
<text text-anchor="start" x="444" y="-196.15" font-family="Helvetica,sans-Serif" font-size="10.00">&lt; WithBinaryValueDomain</text>
<text text-anchor="middle" x="509.5" y="-185.15" font-family="Helvetica,sans-Serif" font-size="10.00">&lt; AnalysisDomainTy &gt; &gt;</text>
</a>
</g>
</g>
<!-- Node1&#45;&gt;Node16 -->
<g id="edge15_Node000001_Node000016" class="edge">
<title>Node1&#45;&gt;Node16</title>
<g id="a_edge15_Node000001_Node000016"><a xlink:title=" ">
<path fill="none" stroke="orange" stroke-dasharray="5,2" d="M72.38,-469.28C82.53,-406.48 111.99,-246.57 153,-214.65 195.48,-181.59 344.83,-186.12 435.89,-192.39"/>
<polygon fill="orange" stroke="orange" points="68.87,-469.07 70.76,-479.49 75.78,-470.16 68.87,-469.07"/>
</a>
</g>
<text text-anchor="start" x="201.5" y="-228.65" font-family="Helvetica,sans-Serif" font-size="10.00" fill="grey"> &lt; WithBinaryValueDomain</text>
<text text-anchor="middle" x="268.5" y="-217.65" font-family="Helvetica,sans-Serif" font-size="10.00" fill="grey">&lt; AnalysisDomainTy &gt; &gt;</text>
</g>
<!-- Node17 -->
<g id="Node000017" class="node">
<title>Node17</title>
<g id="a_Node000017"><a xlink:href="classpsr_1_1AnalysisPrinterBase.html" target="_top" xlink:title=" ">
<polygon fill="white" stroke="#666666" points="611.5,-159.65 407.5,-159.65 407.5,-129.65 611.5,-129.65 611.5,-159.65"/>
<text text-anchor="start" x="415.5" y="-147.65" font-family="Helvetica,sans-Serif" font-size="10.00">psr::AnalysisPrinterBase</text>
<text text-anchor="middle" x="509.5" y="-136.65" font-family="Helvetica,sans-Serif" font-size="10.00">&lt; IDEExtendedTaintAnalysisDomain &gt;</text>
</a>
</g>
</g>
<!-- Node1&#45;&gt;Node17 -->
<g id="edge16_Node000001_Node000017" class="edge">
<title>Node1&#45;&gt;Node17</title>
<g id="a_edge16_Node000001_Node000017"><a xlink:title=" ">
<path fill="none" stroke="orange" stroke-dasharray="5,2" d="M71.08,-469.39C78.88,-398.65 104.66,-201.14 153,-161.65 190.62,-130.91 316.16,-131.52 407.41,-136.57"/>
<polygon fill="orange" stroke="orange" points="67.57,-469.3 69.99,-479.62 74.53,-470.05 67.57,-469.3"/>
</a>
</g>
<text text-anchor="start" x="197.5" y="-175.65" font-family="Helvetica,sans-Serif" font-size="10.00" fill="grey"> &lt; IDEExtendedTaintAnalysis</text>
<text text-anchor="middle" x="268.5" y="-164.65" font-family="Helvetica,sans-Serif" font-size="10.00" fill="grey">Domain &gt;</text>
</g>
<!-- Node18 -->
<g id="Node000018" class="node">
<title>Node18</title>
<g id="a_Node000018"><a xlink:href="classpsr_1_1AnalysisPrinterBase.html" target="_top" xlink:title=" ">
<polygon fill="white" stroke="#666666" points="614,-111.15 405,-111.15 405,-70.15 614,-70.15 614,-111.15"/>
<text text-anchor="start" x="413" y="-99.15" font-family="Helvetica,sans-Serif" font-size="10.00">psr::AnalysisPrinterBase</text>
<text text-anchor="start" x="413" y="-88.15" font-family="Helvetica,sans-Serif" font-size="10.00">&lt; psr::IDETypeStateAnalysisDomain</text>
<text text-anchor="middle" x="509.5" y="-77.15" font-family="Helvetica,sans-Serif" font-size="10.00">&lt; psr::OpenSSLEVPKDFDescription &gt; &gt;</text>
</a>
</g>
</g>
<!-- Node1&#45;&gt;Node18 -->
<g id="edge17_Node000001_Node000018" class="edge">
<title>Node1&#45;&gt;Node18</title>
<g id="a_edge17_Node000001_Node000018"><a xlink:title=" ">
<path fill="none" stroke="orange" stroke-dasharray="5,2" d="M70.15,-469.06C75.8,-390.44 97.19,-154.83 153,-107.65 189.81,-76.54 313.77,-77.03 404.99,-82.16"/>
<polygon fill="orange" stroke="orange" points="66.63,-469.27 69.43,-479.48 73.61,-469.75 66.63,-469.27"/>
</a>
</g>
<text text-anchor="start" x="153" y="-121.65" font-family="Helvetica,sans-Serif" font-size="10.00" fill="grey"> &lt; psr::IDETypeStateAnalysis</text>
<text text-anchor="middle" x="268.5" y="-110.65" font-family="Helvetica,sans-Serif" font-size="10.00" fill="grey">Domain&lt; psr::OpenSSLEVPKDFDescription &gt; &gt;</text>
</g>
<!-- Node19 -->
<g id="Node000019" class="node">
<title>Node19</title>
<g id="a_Node000019"><a xlink:href="classpsr_1_1AnalysisPrinterBase.html" target="_top" xlink:title=" ">
<polygon fill="white" stroke="#666666" points="600.5,-52.15 418.5,-52.15 418.5,-11.15 600.5,-11.15 600.5,-52.15"/>
<text text-anchor="start" x="426.5" y="-40.15" font-family="Helvetica,sans-Serif" font-size="10.00">psr::AnalysisPrinterBase</text>
<text text-anchor="start" x="426.5" y="-29.15" font-family="Helvetica,sans-Serif" font-size="10.00">&lt; psr::IDESecureHeapPropagation</text>
<text text-anchor="middle" x="509.5" y="-18.15" font-family="Helvetica,sans-Serif" font-size="10.00">AnalysisDomain &gt;</text>
</a>
</g>
</g>
<!-- Node1&#45;&gt;Node19 -->
<g id="edge18_Node000001_Node000019" class="edge">
<title>Node1&#45;&gt;Node19</title>
<g id="a_edge18_Node000001_Node000019"><a xlink:title=" ">
<path fill="none" stroke="orange" stroke-dasharray="5,2" d="M69.42,-469.19C73.1,-383.57 89.72,-108.2 153,-52.65 227.92,13.12 349.5,4.37 429.24,-11.12"/>
<polygon fill="orange" stroke="orange" points="65.92,-469.19 69.01,-479.33 72.91,-469.48 65.92,-469.19"/>
</a>
</g>
<text text-anchor="start" x="184" y="-66.65" font-family="Helvetica,sans-Serif" font-size="10.00" fill="grey"> &lt; psr::IDESecureHeapPropagation</text>
<text text-anchor="middle" x="268.5" y="-55.65" font-family="Helvetica,sans-Serif" font-size="10.00" fill="grey">AnalysisDomain &gt;</text>
</g>
</g>
</svg>
