<?xml version="1.0" encoding="UTF-8" standalone="no"?>
<!DOCTYPE svg PUBLIC "-//W3C//DTD SVG 1.1//EN"
 "http://www.w3.org/Graphics/SVG/1.1/DTD/svg11.dtd">
<!-- Generated by graphviz version 2.43.0 (0)
 -->
<!-- Title: psr::IDEFeatureTaintAnalysis Pages: 1 -->
<svg width="1597pt" height="426pt"
 viewBox="0.00 0.00 1597.00 425.50" xmlns="http://www.w3.org/2000/svg" xmlns:xlink="http://www.w3.org/1999/xlink">
<g id="graph0" class="graph" transform="scale(1 1) rotate(0) translate(4 421.5)">
<title>psr::IDEFeatureTaintAnalysis</title>
<!-- Node1 -->
<g id="Node000001" class="node">
<title>Node1</title>
<g id="a_Node000001"><a xlink:title=" ">
<polygon fill="#999999" stroke="#666666" points="1589,-134.5 1434,-134.5 1434,-115.5 1589,-115.5 1589,-134.5"/>
<text text-anchor="middle" x="1511.5" y="-122.5" font-family="Helvetica,sans-Serif" font-size="10.00">psr::IDEFeatureTaintAnalysis</text>
</a>
</g>
</g>
<!-- Node2 -->
<g id="Node000002" class="node">
<title>Node2</title>
<g id="a_Node000002"><a xlink:href="classpsr_1_1IDETabulationProblem.html" target="_top" xlink:title=" ">
<polygon fill="white" stroke="#666666" points="1397,-140 1202,-140 1202,-110 1397,-110 1397,-140"/>
<text text-anchor="start" x="1210" y="-128" font-family="Helvetica,sans-Serif" font-size="10.00">psr::IDETabulationProblem</text>
<text text-anchor="middle" x="1299.5" y="-117" font-family="Helvetica,sans-Serif" font-size="10.00">&lt; IDEFeatureTaintAnalysisDomain &gt;</text>
</a>
</g>
</g>
<!-- Node2&#45;&gt;Node1 -->
<g id="edge1_Node000001_Node000002" class="edge">
<title>Node2&#45;&gt;Node1</title>
<g id="a_edge1_Node000001_Node000002"><a xlink:title=" ">
<path fill="none" stroke="#63b8ff" d="M1407.29,-125C1416.23,-125 1425.15,-125 1433.8,-125"/>
<polygon fill="#63b8ff" stroke="#63b8ff" points="1407.2,-121.5 1397.2,-125 1407.2,-128.5 1407.2,-121.5"/>
</a>
</g>
</g>
<!-- Node3 -->
<g id="Node000003" class="node">
<title>Node3</title>
<g id="a_Node000003"><a xlink:href="classpsr_1_1FlowFunctions.html" target="_top" xlink:title=" ">
<polygon fill="white" stroke="#666666" points="818,-190.5 697,-190.5 697,-149.5 818,-149.5 818,-190.5"/>
<text text-anchor="start" x="705" y="-178.5" font-family="Helvetica,sans-Serif" font-size="10.00">psr::FlowFunctions</text>
<text text-anchor="start" x="705" y="-167.5" font-family="Helvetica,sans-Serif" font-size="10.00">&lt; AnalysisDomainTy,</text>
<text text-anchor="middle" x="757.5" y="-156.5" font-family="Helvetica,sans-Serif" font-size="10.00"> Container &gt;</text>
</a>
</g>
</g>
<!-- Node3&#45;&gt;Node2 -->
<g id="edge2_Node000002_Node000003" class="edge">
<title>Node3&#45;&gt;Node2</title>
<g id="a_edge2_Node000002_Node000003"><a xlink:title=" ">
<path fill="none" stroke="#63b8ff" d="M828.28,-172.83C830.89,-172.89 833.47,-172.95 836,-173 923.54,-174.69 945.67,-179.33 1033,-173 1100.64,-168.1 1117.32,-163.41 1184,-151 1201.03,-147.83 1219.38,-143.9 1236.29,-140.06"/>
<polygon fill="#63b8ff" stroke="#63b8ff" points="828.25,-169.33 818.15,-172.54 828.05,-176.32 828.25,-169.33"/>
</a>
</g>
</g>
<!-- Node4 -->
<g id="Node000004" class="node">
<title>Node4</title>
<g id="a_Node000004"><a xlink:href="classpsr_1_1FlowFunctionTemplates.html" target="_top" xlink:title=" ">
<polygon fill="white" stroke="#666666" points="445,-198.5 293,-198.5 293,-157.5 445,-157.5 445,-198.5"/>
<text text-anchor="start" x="301" y="-186.5" font-family="Helvetica,sans-Serif" font-size="10.00">psr::FlowFunctionTemplates</text>
<text text-anchor="start" x="301" y="-175.5" font-family="Helvetica,sans-Serif" font-size="10.00">&lt; AnalysisDomainTy::d_t,</text>
<text text-anchor="middle" x="369" y="-164.5" font-family="Helvetica,sans-Serif" font-size="10.00"> Container &gt;</text>
</a>
</g>
</g>
<!-- Node4&#45;&gt;Node3 -->
<g id="edge3_Node000003_Node000004" class="edge">
<title>Node4&#45;&gt;Node3</title>
<g id="a_edge3_Node000003_Node000004"><a xlink:title=" ">
<path fill="none" stroke="darkgreen" d="M455.56,-176.23C528.74,-174.71 632.2,-172.57 696.76,-171.24"/>
<polygon fill="darkgreen" stroke="darkgreen" points="455.36,-172.73 445.44,-176.44 455.51,-179.73 455.36,-172.73"/>
</a>
</g>
</g>
<!-- Node11 -->
<g id="Node000011" class="node">
<title>Node11</title>
<g id="a_Node000011"><a xlink:href="classpsr_1_1FlowFunctions.html" target="_top" xlink:title=" ">
<polygon fill="white" stroke="#666666" points="641,-417.5 520,-417.5 520,-376.5 641,-376.5 641,-417.5"/>
<text text-anchor="start" x="528" y="-405.5" font-family="Helvetica,sans-Serif" font-size="10.00">psr::FlowFunctions</text>
<text text-anchor="start" x="528" y="-394.5" font-family="Helvetica,sans-Serif" font-size="10.00">&lt; AnalysisDomainTy,</text>
<text text-anchor="middle" x="580.5" y="-383.5" font-family="Helvetica,sans-Serif" font-size="10.00"> Container &gt;</text>
</a>
</g>
</g>
<!-- Node4&#45;&gt;Node11 -->
<g id="edge11_Node000011_Node000004" class="edge">
<title>Node4&#45;&gt;Node11</title>
<g id="a_edge11_Node000011_Node000004"><a xlink:title=" ">
<path fill="none" stroke="darkgreen" d="M380.05,-208.36C395.41,-250.16 428.72,-325.03 482,-367 492.99,-375.66 506.48,-381.83 519.89,-386.22"/>
<polygon fill="darkgreen" stroke="darkgreen" points="383.27,-206.97 376.61,-198.73 376.67,-209.33 383.27,-206.97"/>
</a>
</g>
</g>
<!-- Node5 -->
<g id="Node000005" class="node">
<title>Node5</title>
<g id="a_Node000005"><a xlink:href="classpsr_1_1FlowFunctionTemplates.html" target="_top" xlink:title=" ">
<polygon fill="white" stroke="#666666" points="152,-193 0,-193 0,-163 152,-163 152,-193"/>
<text text-anchor="start" x="8" y="-181" font-family="Helvetica,sans-Serif" font-size="10.00">psr::FlowFunctionTemplates</text>
<text text-anchor="middle" x="76" y="-170" font-family="Helvetica,sans-Serif" font-size="10.00">&lt; D, Container &gt;</text>
</a>
</g>
</g>
<!-- Node5&#45;&gt;Node4 -->
<g id="edge4_Node000004_Node000005" class="edge">
<title>Node5&#45;&gt;Node4</title>
<g id="a_edge4_Node000004_Node000005"><a xlink:title=" ">
<path fill="none" stroke="orange" stroke-dasharray="5,2" d="M162.39,-178C203.79,-178 253.06,-178 293,-178"/>
<polygon fill="orange" stroke="orange" points="162.32,-174.5 152.32,-178 162.32,-181.5 162.32,-174.5"/>
</a>
</g>
<text text-anchor="start" x="170" y="-192" font-family="Helvetica,sans-Serif" font-size="10.00" fill="grey"> &lt; AnalysisDomainTy</text>
<text text-anchor="middle" x="222.5" y="-181" font-family="Helvetica,sans-Serif" font-size="10.00" fill="grey">::d_t, Container &gt;</text>
</g>
<!-- Node6 -->
<g id="Node000006" class="node">
<title>Node6</title>
<g id="a_Node000006"><a xlink:href="classpsr_1_1EdgeFunctions.html" target="_top" xlink:title=" ">
<polygon fill="white" stroke="#666666" points="999,-164 870,-164 870,-134 999,-134 999,-164"/>
<text text-anchor="start" x="878" y="-152" font-family="Helvetica,sans-Serif" font-size="10.00">psr::EdgeFunctions</text>
<text text-anchor="middle" x="934.5" y="-141" font-family="Helvetica,sans-Serif" font-size="10.00">&lt; AnalysisDomainTy &gt;</text>
</a>
</g>
</g>
<!-- Node6&#45;&gt;Node2 -->
<g id="edge5_Node000002_Node000006" class="edge">
<title>Node6&#45;&gt;Node2</title>
<g id="a_edge5_Node000002_Node000006"><a xlink:title=" ">
<path fill="none" stroke="#63b8ff" d="M1009.25,-144.12C1064.76,-140.45 1141.33,-135.39 1201.75,-131.4"/>
<polygon fill="#63b8ff" stroke="#63b8ff" points="1008.89,-140.64 999.15,-144.79 1009.35,-147.62 1008.89,-140.64"/>
</a>
</g>
</g>
<!-- Node7 -->
<g id="Node000007" class="node">
<title>Node7</title>
<g id="a_Node000007"><a xlink:href="classpsr_1_1JoinLattice.html" target="_top" xlink:title=" ">
<polygon fill="white" stroke="#666666" points="1005,-116 864,-116 864,-86 1005,-86 1005,-116"/>
<text text-anchor="start" x="872" y="-104" font-family="Helvetica,sans-Serif" font-size="10.00">psr::JoinLattice&lt; Analysis</text>
<text text-anchor="middle" x="934.5" y="-93" font-family="Helvetica,sans-Serif" font-size="10.00">DomainTy &gt;</text>
</a>
</g>
</g>
<!-- Node7&#45;&gt;Node2 -->
<g id="edge6_Node000002_Node000007" class="edge">
<title>Node7&#45;&gt;Node2</title>
<g id="a_edge6_Node000002_Node000007"><a xlink:title=" ">
<path fill="none" stroke="#63b8ff" d="M1015.1,-106.26C1070.04,-109.9 1143.42,-114.75 1201.74,-118.6"/>
<polygon fill="#63b8ff" stroke="#63b8ff" points="1015.27,-102.77 1005.06,-105.6 1014.81,-109.75 1015.27,-102.77"/>
</a>
</g>
</g>
<!-- Node8 -->
<g id="Node000008" class="node">
<title>Node8</title>
<g id="a_Node000008"><a xlink:href="classpsr_1_1SemiRing.html" target="_top" xlink:title=" ">
<polygon fill="white" stroke="#666666" points="1033,-67.5 836,-67.5 836,-48.5 1033,-48.5 1033,-67.5"/>
<text text-anchor="middle" x="934.5" y="-55.5" font-family="Helvetica,sans-Serif" font-size="10.00">psr::SemiRing&lt; AnalysisDomainTy &gt;</text>
</a>
</g>
</g>
<!-- Node8&#45;&gt;Node2 -->
<g id="edge7_Node000002_Node000008" class="edge">
<title>Node8&#45;&gt;Node2</title>
<g id="a_edge7_Node000002_Node000008"><a xlink:title=" ">
<path fill="none" stroke="#63b8ff" d="M997.29,-69.41C1057.82,-80.58 1150.39,-97.66 1216.93,-109.94"/>
<polygon fill="#63b8ff" stroke="#63b8ff" points="997.59,-65.9 987.12,-67.53 996.32,-72.79 997.59,-65.9"/>
</a>
</g>
</g>
<!-- Node9 -->
<g id="Node000009" class="node">
<title>Node9</title>
<g id="a_Node000009"><a xlink:href="classpsr_1_1AllTopFnProvider.html" target="_top" xlink:title=" ">
<polygon fill="white" stroke="#666666" points="999,-30 870,-30 870,0 999,0 999,-30"/>
<text text-anchor="start" x="878" y="-18" font-family="Helvetica,sans-Serif" font-size="10.00">psr::AllTopFnProvider</text>
<text text-anchor="middle" x="934.5" y="-7" font-family="Helvetica,sans-Serif" font-size="10.00">&lt; AnalysisDomainTy &gt;</text>
</a>
</g>
</g>
<!-- Node9&#45;&gt;Node2 -->
<g id="edge8_Node000002_Node000009" class="edge">
<title>Node9&#45;&gt;Node2</title>
<g id="a_edge8_Node000002_Node000009"><a xlink:title=" ">
<path fill="none" stroke="#63b8ff" d="M1009.24,-29.27C1059.19,-39.79 1126.34,-55.62 1184,-75 1213.2,-84.82 1245.23,-99.13 1267.97,-109.92"/>
<polygon fill="#63b8ff" stroke="#63b8ff" points="1009.68,-25.78 999.17,-27.17 1008.25,-32.64 1009.68,-25.78"/>
</a>
</g>
</g>
<!-- Node10 -->
<g id="Node000010" class="node">
<title>Node10</title>
<g id="a_Node000010"><a xlink:href="classpsr_1_1IDETabulationProblem.html" target="_top" xlink:title="The analysis problem interface for IDE problems (solvable by the IDESolver). Create a subclass from t...">
<polygon fill="white" stroke="#666666" points="1025.5,-289 843.5,-289 843.5,-259 1025.5,-259 1025.5,-289"/>
<text text-anchor="start" x="851.5" y="-277" font-family="Helvetica,sans-Serif" font-size="10.00">psr::IDETabulationProblem</text>
<text text-anchor="middle" x="934.5" y="-266" font-family="Helvetica,sans-Serif" font-size="10.00">&lt; AnalysisDomainTy, Container &gt;</text>
</a>
</g>
</g>
<!-- Node10&#45;&gt;Node2 -->
<g id="edge9_Node000002_Node000010" class="edge">
<title>Node10&#45;&gt;Node2</title>
<g id="a_edge9_Node000002_Node000010"><a xlink:title=" ">
<path fill="none" stroke="orange" stroke-dasharray="5,2" d="M1027.82,-256.8C1075.83,-245.87 1134.63,-229.33 1184,-206 1221.43,-188.32 1259.64,-158.4 1281.09,-140.29"/>
<polygon fill="orange" stroke="orange" points="1027.06,-253.38 1018.06,-258.97 1028.58,-260.21 1027.06,-253.38"/>
</a>
</g>
<text text-anchor="start" x="1051" y="-265" font-family="Helvetica,sans-Serif" font-size="10.00" fill="grey"> &lt; IDEFeatureTaintAnalysis</text>
<text text-anchor="middle" x="1117.5" y="-254" font-family="Helvetica,sans-Serif" font-size="10.00" fill="grey">Domain &gt;</text>
</g>
<!-- Node11&#45;&gt;Node10 -->
<g id="edge10_Node000010_Node000011" class="edge">
<title>Node11&#45;&gt;Node10</title>
<g id="a_edge10_Node000010_Node000011"><a xlink:title=" ">
<path fill="none" stroke="#63b8ff" d="M650.86,-375.73C660.32,-372.81 669.9,-369.84 679,-367 740.86,-347.69 757.22,-345.46 818,-323 845.99,-312.66 877.1,-299.35 899.98,-289.22"/>
<polygon fill="#63b8ff" stroke="#63b8ff" points="649.6,-372.46 641.08,-378.75 651.66,-379.15 649.6,-372.46"/>
</a>
</g>
</g>
<!-- Node12 -->
<g id="Node000012" class="node">
<title>Node12</title>
<g id="a_Node000012"><a xlink:href="classpsr_1_1EdgeFunctions.html" target="_top" xlink:title=" ">
<polygon fill="white" stroke="#666666" points="645,-358 516,-358 516,-328 645,-328 645,-358"/>
<text text-anchor="start" x="524" y="-346" font-family="Helvetica,sans-Serif" font-size="10.00">psr::EdgeFunctions</text>
<text text-anchor="middle" x="580.5" y="-335" font-family="Helvetica,sans-Serif" font-size="10.00">&lt; AnalysisDomainTy &gt;</text>
</a>
</g>
</g>
<!-- Node12&#45;&gt;Node10 -->
<g id="edge12_Node000010_Node000012" class="edge">
<title>Node12&#45;&gt;Node10</title>
<g id="a_edge12_Node000010_Node000012"><a xlink:title=" ">
<path fill="none" stroke="#63b8ff" d="M655.08,-329.33C701.78,-320.57 763.48,-308.85 818,-298 832.26,-295.16 847.5,-292.05 862.07,-289.04"/>
<polygon fill="#63b8ff" stroke="#63b8ff" points="654.23,-325.93 645.05,-331.21 655.52,-332.81 654.23,-325.93"/>
</a>
</g>
</g>
<!-- Node13 -->
<g id="Node000013" class="node">
<title>Node13</title>
<g id="a_Node000013"><a xlink:href="classpsr_1_1JoinLattice_3_01AnalysisDomainTy_01_4.html" target="_top" xlink:title=" ">
<polygon fill="white" stroke="#666666" points="651,-310 510,-310 510,-280 651,-280 651,-310"/>
<text text-anchor="start" x="518" y="-298" font-family="Helvetica,sans-Serif" font-size="10.00">psr::JoinLattice&lt; Analysis</text>
<text text-anchor="middle" x="580.5" y="-287" font-family="Helvetica,sans-Serif" font-size="10.00">DomainTy &gt;</text>
</a>
</g>
</g>
<!-- Node13&#45;&gt;Node10 -->
<g id="edge13_Node000010_Node000013" class="edge">
<title>Node13&#45;&gt;Node10</title>
<g id="a_edge13_Node000010_Node000013"><a xlink:title=" ">
<path fill="none" stroke="#63b8ff" d="M661.29,-290.24C715.45,-287.01 787.16,-282.73 843.38,-279.38"/>
<polygon fill="#63b8ff" stroke="#63b8ff" points="660.82,-286.76 651.04,-290.85 661.23,-293.75 660.82,-286.76"/>
</a>
</g>
</g>
<!-- Node14 -->
<g id="Node000014" class="node">
<title>Node14</title>
<g id="a_Node000014"><a xlink:href="classpsr_1_1SemiRing.html" target="_top" xlink:title=" ">
<polygon fill="white" stroke="#666666" points="679,-261.5 482,-261.5 482,-242.5 679,-242.5 679,-261.5"/>
<text text-anchor="middle" x="580.5" y="-249.5" font-family="Helvetica,sans-Serif" font-size="10.00">psr::SemiRing&lt; AnalysisDomainTy &gt;</text>
</a>
</g>
</g>
<!-- Node14&#45;&gt;Node10 -->
<g id="edge14_Node000010_Node000014" class="edge">
<title>Node14&#45;&gt;Node10</title>
<g id="a_edge14_Node000010_Node000014"><a xlink:title=" ">
<path fill="none" stroke="#63b8ff" d="M689.15,-258.73C738.47,-261.81 796.28,-265.42 843.27,-268.36"/>
<polygon fill="#63b8ff" stroke="#63b8ff" points="689.28,-255.23 679.08,-258.1 688.85,-262.22 689.28,-255.23"/>
</a>
</g>
</g>
<!-- Node15 -->
<g id="Node000015" class="node">
<title>Node15</title>
<g id="a_Node000015"><a xlink:href="classpsr_1_1AllTopFnProvider_3_01AnalysisDomainTy_01_4.html" target="_top" xlink:title=" ">
<polygon fill="white" stroke="#666666" points="645,-224 516,-224 516,-194 645,-194 645,-224"/>
<text text-anchor="start" x="524" y="-212" font-family="Helvetica,sans-Serif" font-size="10.00">psr::AllTopFnProvider</text>
<text text-anchor="middle" x="580.5" y="-201" font-family="Helvetica,sans-Serif" font-size="10.00">&lt; AnalysisDomainTy &gt;</text>
</a>
</g>
</g>
<!-- Node15&#45;&gt;Node10 -->
<g id="edge15_Node000010_Node000015" class="edge">
<title>Node15&#45;&gt;Node10</title>
<g id="a_edge15_Node000010_Node000015"><a xlink:title=" ">
<path fill="none" stroke="#63b8ff" d="M655.37,-222.64C712.96,-233.28 792.87,-248.03 852.26,-259"/>
<polygon fill="#63b8ff" stroke="#63b8ff" points="655.71,-219.15 645.24,-220.77 654.44,-226.03 655.71,-219.15"/>
</a>
</g>
</g>
</g>
</svg>
