<?xml version="1.0" encoding="UTF-8" standalone="no"?>
<!DOCTYPE svg PUBLIC "-//W3C//DTD SVG 1.1//EN"
 "http://www.w3.org/Graphics/SVG/1.1/DTD/svg11.dtd">
<!-- Generated by graphviz version 2.43.0 (0)
 -->
<!-- Title: psr::IntraMonoProblem&lt; AnalysisDomainTy &gt; Pages: 1 -->
<svg width="1164pt" height="486pt"
 viewBox="0.00 0.00 1164.00 485.95" xmlns="http://www.w3.org/2000/svg" xmlns:xlink="http://www.w3.org/1999/xlink">
<g id="graph0" class="graph" transform="scale(1 1) rotate(0) translate(4 481.95)">
<title>psr::IntraMonoProblem&lt; AnalysisDomainTy &gt;</title>
<!-- Node1 -->
<g id="Node000001" class="node">
<title>Node1</title>
<g id="a_Node000001"><a xlink:title="The analysis problem interface for intraprocedural monotone problems (solvable by the IntraMonoSolver...">
<polygon fill="#999999" stroke="#666666" points="129,-240.95 0,-240.95 0,-210.95 129,-210.95 129,-240.95"/>
<text text-anchor="start" x="8" y="-228.95" font-family="Helvetica,sans-Serif" font-size="10.00">psr::IntraMonoProblem</text>
<text text-anchor="middle" x="64.5" y="-217.95" font-family="Helvetica,sans-Serif" font-size="10.00">&lt; AnalysisDomainTy &gt;</text>
</a>
</g>
</g>
<!-- Node2 -->
<g id="Node000002" class="node">
<title>Node2</title>
<g id="a_Node000002"><a xlink:href="classpsr_1_1InterMonoProblem.html" target="_top" xlink:title=" ">
<polygon fill="white" stroke="#666666" points="967,-410.45 770,-410.45 770,-369.45 967,-369.45 967,-410.45"/>
<text text-anchor="start" x="778" y="-398.45" font-family="Helvetica,sans-Serif" font-size="10.00">psr::InterMonoProblem</text>
<text text-anchor="start" x="778" y="-387.45" font-family="Helvetica,sans-Serif" font-size="10.00">&lt; IntraMonoFullConstantPropagation</text>
<text text-anchor="middle" x="868.5" y="-376.45" font-family="Helvetica,sans-Serif" font-size="10.00">AnalysisDomain &gt;</text>
</a>
</g>
</g>
<!-- Node1&#45;&gt;Node2 -->
<g id="edge1_Node000001_Node000002" class="edge">
<title>Node1&#45;&gt;Node2</title>
<g id="a_edge1_Node000001_Node000002"><a xlink:title=" ">
<path fill="none" stroke="#63b8ff" d="M85.5,-248.38C100.79,-264.11 123.24,-284.34 147,-295.95 351.59,-395.89 625.86,-401.63 769.84,-396.32"/>
<polygon fill="#63b8ff" stroke="#63b8ff" points="88,-245.93 78.59,-241.07 82.92,-250.74 88,-245.93"/>
</a>
</g>
</g>
<!-- Node4 -->
<g id="Node000004" class="node">
<title>Node4</title>
<g id="a_Node000004"><a xlink:href="classpsr_1_1InterMonoProblem.html" target="_top" xlink:title=" ">
<polygon fill="white" stroke="#666666" points="957,-326.95 780,-326.95 780,-296.95 957,-296.95 957,-326.95"/>
<text text-anchor="start" x="788" y="-314.95" font-family="Helvetica,sans-Serif" font-size="10.00">psr::InterMonoProblem</text>
<text text-anchor="middle" x="868.5" y="-303.95" font-family="Helvetica,sans-Serif" font-size="10.00">&lt; InterMonoSolverTestDomain &gt;</text>
</a>
</g>
</g>
<!-- Node1&#45;&gt;Node4 -->
<g id="edge3_Node000001_Node000004" class="edge">
<title>Node1&#45;&gt;Node4</title>
<g id="a_edge3_Node000001_Node000004"><a xlink:title=" ">
<path fill="none" stroke="#63b8ff" d="M101.49,-245.71C115.38,-252.65 131.6,-259.95 147,-264.95 233.82,-293.11 258.29,-291.83 349,-301.95 499.55,-318.74 676.17,-317.78 779.57,-315.15"/>
<polygon fill="#63b8ff" stroke="#63b8ff" points="102.79,-242.44 92.29,-240.99 99.6,-248.67 102.79,-242.44"/>
</a>
</g>
</g>
<!-- Node6 -->
<g id="Node000006" class="node">
<title>Node6</title>
<g id="a_Node000006"><a xlink:href="classpsr_1_1InterMonoProblem.html" target="_top" xlink:title=" ">
<polygon fill="white" stroke="#666666" points="964,-252.95 773,-252.95 773,-222.95 964,-222.95 964,-252.95"/>
<text text-anchor="start" x="781" y="-240.95" font-family="Helvetica,sans-Serif" font-size="10.00">psr::InterMonoProblem</text>
<text text-anchor="middle" x="868.5" y="-229.95" font-family="Helvetica,sans-Serif" font-size="10.00">&lt; InterMonoTaintAnalysisDomain &gt;</text>
</a>
</g>
</g>
<!-- Node1&#45;&gt;Node6 -->
<g id="edge5_Node000001_Node000006" class="edge">
<title>Node1&#45;&gt;Node6</title>
<g id="a_edge5_Node000001_Node000006"><a xlink:title=" ">
<path fill="none" stroke="#63b8ff" d="M139.31,-227.05C285.44,-229.24 611.42,-234.12 772.99,-236.53"/>
<polygon fill="#63b8ff" stroke="#63b8ff" points="139.15,-223.55 129.1,-226.9 139.05,-230.55 139.15,-223.55"/>
</a>
</g>
</g>
<!-- Node8 -->
<g id="Node000008" class="node">
<title>Node8</title>
<g id="a_Node000008"><a xlink:href="classpsr_1_1InterMonoProblem.html" target="_top" xlink:title="The analysis problem interface for interprocedural monotone problems (solvable by the InterMonoSolver...">
<polygon fill="white" stroke="#666666" points="514,-292.95 385,-292.95 385,-262.95 514,-262.95 514,-292.95"/>
<text text-anchor="start" x="393" y="-280.95" font-family="Helvetica,sans-Serif" font-size="10.00">psr::InterMonoProblem</text>
<text text-anchor="middle" x="449.5" y="-269.95" font-family="Helvetica,sans-Serif" font-size="10.00">&lt; AnalysisDomainTy &gt;</text>
</a>
</g>
</g>
<!-- Node1&#45;&gt;Node8 -->
<g id="edge7_Node000001_Node000008" class="edge">
<title>Node1&#45;&gt;Node8</title>
<g id="a_edge7_Node000001_Node000008"><a xlink:title=" ">
<path fill="none" stroke="#63b8ff" d="M138.97,-238.72C141.68,-239.14 144.36,-239.55 147,-239.95 228.93,-252.14 323.76,-263.67 384.86,-270.76"/>
<polygon fill="#63b8ff" stroke="#63b8ff" points="139.5,-235.26 129.08,-237.15 138.41,-242.18 139.5,-235.26"/>
</a>
</g>
</g>
<!-- Node9 -->
<g id="Node000009" class="node">
<title>Node9</title>
<g id="a_Node000009"><a xlink:href="classpsr_1_1IntraMonoProblem.html" target="_top" xlink:title=" ">
<polygon fill="white" stroke="#666666" points="548,-464.45 351,-464.45 351,-423.45 548,-423.45 548,-464.45"/>
<text text-anchor="start" x="359" y="-452.45" font-family="Helvetica,sans-Serif" font-size="10.00">psr::IntraMonoProblem</text>
<text text-anchor="start" x="359" y="-441.45" font-family="Helvetica,sans-Serif" font-size="10.00">&lt; IntraMonoFullConstantPropagation</text>
<text text-anchor="middle" x="449.5" y="-430.45" font-family="Helvetica,sans-Serif" font-size="10.00">AnalysisDomain &gt;</text>
</a>
</g>
</g>
<!-- Node1&#45;&gt;Node9 -->
<g id="edge11_Node000001_Node000009" class="edge">
<title>Node1&#45;&gt;Node9</title>
<g id="a_edge11_Node000001_Node000009"><a xlink:title=" ">
<path fill="none" stroke="orange" stroke-dasharray="5,2" d="M68.81,-251.25C75.57,-291.83 95.01,-370.75 147,-408.95 205.07,-451.62 287.13,-458.69 350.99,-456.01"/>
<polygon fill="orange" stroke="orange" points="72.23,-250.47 67.25,-241.12 65.31,-251.53 72.23,-250.47"/>
</a>
</g>
<text text-anchor="start" x="147" y="-469.95" font-family="Helvetica,sans-Serif" font-size="10.00" fill="grey"> &lt; IntraMonoFullConstantPropagation</text>
<text text-anchor="middle" x="239" y="-458.95" font-family="Helvetica,sans-Serif" font-size="10.00" fill="grey">AnalysisDomain &gt;</text>
</g>
<!-- Node11 -->
<g id="Node000011" class="node">
<title>Node11</title>
<g id="a_Node000011"><a xlink:href="classpsr_1_1IntraMonoProblem.html" target="_top" xlink:title=" ">
<polygon fill="white" stroke="#666666" points="538,-197.95 361,-197.95 361,-167.95 538,-167.95 538,-197.95"/>
<text text-anchor="start" x="369" y="-185.95" font-family="Helvetica,sans-Serif" font-size="10.00">psr::IntraMonoProblem</text>
<text text-anchor="middle" x="449.5" y="-174.95" font-family="Helvetica,sans-Serif" font-size="10.00">&lt; InterMonoSolverTestDomain &gt;</text>
</a>
</g>
</g>
<!-- Node1&#45;&gt;Node11 -->
<g id="edge14_Node000001_Node000011" class="edge">
<title>Node1&#45;&gt;Node11</title>
<g id="a_edge14_Node000001_Node000011"><a xlink:title=" ">
<path fill="none" stroke="orange" stroke-dasharray="5,2" d="M117.63,-207.95C127.3,-205.19 137.38,-202.68 147,-200.95 218.21,-188.09 300.26,-183.86 360.77,-182.7"/>
<polygon fill="orange" stroke="orange" points="116.33,-204.69 107.75,-210.9 118.33,-211.39 116.33,-204.69"/>
</a>
</g>
<text text-anchor="middle" x="239" y="-203.95" font-family="Helvetica,sans-Serif" font-size="10.00" fill="grey"> &lt; InterMonoSolverTestDomain &gt;</text>
</g>
<!-- Node12 -->
<g id="Node000012" class="node">
<title>Node12</title>
<g id="a_Node000012"><a xlink:href="classpsr_1_1IntraMonoProblem.html" target="_top" xlink:title=" ">
<polygon fill="white" stroke="#666666" points="545,-149.95 354,-149.95 354,-119.95 545,-119.95 545,-149.95"/>
<text text-anchor="start" x="362" y="-137.95" font-family="Helvetica,sans-Serif" font-size="10.00">psr::IntraMonoProblem</text>
<text text-anchor="middle" x="449.5" y="-126.95" font-family="Helvetica,sans-Serif" font-size="10.00">&lt; InterMonoTaintAnalysisDomain &gt;</text>
</a>
</g>
</g>
<!-- Node1&#45;&gt;Node12 -->
<g id="edge15_Node000001_Node000012" class="edge">
<title>Node1&#45;&gt;Node12</title>
<g id="a_edge15_Node000001_Node000012"><a xlink:title=" ">
<path fill="none" stroke="orange" stroke-dasharray="5,2" d="M84.88,-203.23C100.01,-187.23 122.52,-166.95 147,-156.95 212.47,-130.21 292.55,-125.53 353.73,-127.08"/>
<polygon fill="orange" stroke="orange" points="82.24,-200.93 78.07,-210.67 87.4,-205.66 82.24,-200.93"/>
</a>
</g>
<text text-anchor="start" x="174.5" y="-170.95" font-family="Helvetica,sans-Serif" font-size="10.00" fill="grey"> &lt; InterMonoTaintAnalysis</text>
<text text-anchor="middle" x="239" y="-159.95" font-family="Helvetica,sans-Serif" font-size="10.00" fill="grey">Domain &gt;</text>
</g>
<!-- Node13 -->
<g id="Node000013" class="node">
<title>Node13</title>
<g id="a_Node000013"><a xlink:href="classpsr_1_1IntraMonoProblem.html" target="_top" xlink:title=" ">
<polygon fill="white" stroke="#666666" points="534,-101.45 365,-101.45 365,-60.45 534,-60.45 534,-101.45"/>
<text text-anchor="start" x="373" y="-89.45" font-family="Helvetica,sans-Serif" font-size="10.00">psr::IntraMonoProblem</text>
<text text-anchor="start" x="373" y="-78.45" font-family="Helvetica,sans-Serif" font-size="10.00">&lt; IntraMonoSolverTestAnalysis</text>
<text text-anchor="middle" x="449.5" y="-67.45" font-family="Helvetica,sans-Serif" font-size="10.00">Domain &gt;</text>
</a>
</g>
</g>
<!-- Node1&#45;&gt;Node13 -->
<g id="edge16_Node000001_Node000013" class="edge">
<title>Node1&#45;&gt;Node13</title>
<g id="a_edge16_Node000001_Node000013"><a xlink:title=" ">
<path fill="none" stroke="orange" stroke-dasharray="5,2" d="M73.8,-200.87C85.15,-171.03 108.59,-122.44 147,-99.95 212.74,-61.45 300.94,-60.52 364.95,-66.92"/>
<polygon fill="orange" stroke="orange" points="70.41,-199.97 70.29,-210.57 76.99,-202.36 70.41,-199.97"/>
</a>
</g>
<text text-anchor="start" x="161" y="-113.95" font-family="Helvetica,sans-Serif" font-size="10.00" fill="grey"> &lt; IntraMonoSolverTestAnalysis</text>
<text text-anchor="middle" x="239" y="-102.95" font-family="Helvetica,sans-Serif" font-size="10.00" fill="grey">Domain &gt;</text>
</g>
<!-- Node15 -->
<g id="Node000015" class="node">
<title>Node15</title>
<g id="a_Node000015"><a xlink:href="classpsr_1_1IntraMonoProblem.html" target="_top" xlink:title=" ">
<polygon fill="white" stroke="#666666" points="550,-41.95 349,-41.95 349,-11.95 550,-11.95 550,-41.95"/>
<text text-anchor="start" x="357" y="-29.95" font-family="Helvetica,sans-Serif" font-size="10.00">psr::IntraMonoProblem</text>
<text text-anchor="middle" x="449.5" y="-18.95" font-family="Helvetica,sans-Serif" font-size="10.00">&lt; IntraMonoUninitVariablesDomain &gt;</text>
</a>
</g>
</g>
<!-- Node1&#45;&gt;Node15 -->
<g id="edge18_Node000001_Node000015" class="edge">
<title>Node1&#45;&gt;Node15</title>
<g id="a_edge18_Node000001_Node000015"><a xlink:title=" ">
<path fill="none" stroke="orange" stroke-dasharray="5,2" d="M67.98,-200.81C73.62,-158.68 91.59,-74.72 147,-36.95 219.37,12.4 325.87,1.53 391.01,-11.93"/>
<polygon fill="orange" stroke="orange" points="64.5,-200.45 66.77,-210.8 71.44,-201.3 64.5,-200.45"/>
</a>
</g>
<text text-anchor="start" x="169.5" y="-50.95" font-family="Helvetica,sans-Serif" font-size="10.00" fill="grey"> &lt; IntraMonoUninitVariables</text>
<text text-anchor="middle" x="239" y="-39.95" font-family="Helvetica,sans-Serif" font-size="10.00" fill="grey">Domain &gt;</text>
</g>
<!-- Node3 -->
<g id="Node000003" class="node">
<title>Node3</title>
<g id="a_Node000003"><a xlink:href="classpsr_1_1InterMonoFullConstantPropagation.html" target="_top" xlink:title=" ">
<polygon fill="white" stroke="#666666" points="1154,-431.95 1006,-431.95 1006,-401.95 1154,-401.95 1154,-431.95"/>
<text text-anchor="start" x="1014" y="-419.95" font-family="Helvetica,sans-Serif" font-size="10.00">psr::InterMonoFullConstant</text>
<text text-anchor="middle" x="1080" y="-408.95" font-family="Helvetica,sans-Serif" font-size="10.00">Propagation</text>
</a>
</g>
</g>
<!-- Node2&#45;&gt;Node3 -->
<g id="edge2_Node000002_Node000003" class="edge">
<title>Node2&#45;&gt;Node3</title>
<g id="a_edge2_Node000002_Node000003"><a xlink:title=" ">
<path fill="none" stroke="#63b8ff" d="M977.28,-403.84C986.95,-405.08 996.59,-406.33 1005.87,-407.52"/>
<polygon fill="#63b8ff" stroke="#63b8ff" points="977.56,-400.34 967.2,-402.54 976.67,-407.29 977.56,-400.34"/>
</a>
</g>
</g>
<!-- Node5 -->
<g id="Node000005" class="node">
<title>Node5</title>
<g id="a_Node000005"><a xlink:href="classpsr_1_1InterMonoSolverTest.html" target="_top" xlink:title=" ">
<polygon fill="white" stroke="#666666" points="1148.5,-321.45 1011.5,-321.45 1011.5,-302.45 1148.5,-302.45 1148.5,-321.45"/>
<text text-anchor="middle" x="1080" y="-309.45" font-family="Helvetica,sans-Serif" font-size="10.00">psr::InterMonoSolverTest</text>
</a>
</g>
</g>
<!-- Node4&#45;&gt;Node5 -->
<g id="edge4_Node000004_Node000005" class="edge">
<title>Node4&#45;&gt;Node5</title>
<g id="a_edge4_Node000004_Node000005"><a xlink:title=" ">
<path fill="none" stroke="#63b8ff" d="M967.41,-311.95C982.32,-311.95 997.41,-311.95 1011.48,-311.95"/>
<polygon fill="#63b8ff" stroke="#63b8ff" points="967.13,-308.45 957.13,-311.95 967.13,-315.45 967.13,-308.45"/>
</a>
</g>
</g>
<!-- Node7 -->
<g id="Node000007" class="node">
<title>Node7</title>
<g id="a_Node000007"><a xlink:href="classpsr_1_1InterMonoTaintAnalysis.html" target="_top" xlink:title=" ">
<polygon fill="white" stroke="#666666" points="1156,-247.45 1004,-247.45 1004,-228.45 1156,-228.45 1156,-247.45"/>
<text text-anchor="middle" x="1080" y="-235.45" font-family="Helvetica,sans-Serif" font-size="10.00">psr::InterMonoTaintAnalysis</text>
</a>
</g>
</g>
<!-- Node6&#45;&gt;Node7 -->
<g id="edge6_Node000006_Node000007" class="edge">
<title>Node6&#45;&gt;Node7</title>
<g id="a_edge6_Node000006_Node000007"><a xlink:title=" ">
<path fill="none" stroke="#63b8ff" d="M974.17,-237.95C984.21,-237.95 994.26,-237.95 1003.94,-237.95"/>
<polygon fill="#63b8ff" stroke="#63b8ff" points="974.14,-234.45 964.14,-237.95 974.14,-241.45 974.14,-234.45"/>
</a>
</g>
</g>
<!-- Node8&#45;&gt;Node2 -->
<g id="edge8_Node000008_Node000002" class="edge">
<title>Node8&#45;&gt;Node2</title>
<g id="a_edge8_Node000008_Node000002"><a xlink:title=" ">
<path fill="none" stroke="orange" stroke-dasharray="5,2" d="M505.46,-296.13C525.1,-302.4 547.46,-309.26 568,-314.95 649.04,-337.37 670.5,-338.27 752,-358.95 764.98,-362.24 778.75,-365.84 792.09,-369.39"/>
<polygon fill="orange" stroke="orange" points="506.35,-292.74 495.75,-293.02 504.21,-299.41 506.35,-292.74"/>
</a>
</g>
<text text-anchor="start" x="568" y="-372.95" font-family="Helvetica,sans-Serif" font-size="10.00" fill="grey"> &lt; IntraMonoFullConstantPropagation</text>
<text text-anchor="middle" x="660" y="-361.95" font-family="Helvetica,sans-Serif" font-size="10.00" fill="grey">AnalysisDomain &gt;</text>
</g>
<!-- Node8&#45;&gt;Node4 -->
<g id="edge9_Node000008_Node000004" class="edge">
<title>Node8&#45;&gt;Node4</title>
<g id="a_edge9_Node000008_Node000004"><a xlink:title=" ">
<path fill="none" stroke="orange" stroke-dasharray="5,2" d="M524.38,-282.7C585.45,-286.79 674.41,-293.09 752,-299.95 761.04,-300.75 770.47,-301.63 779.87,-302.56"/>
<polygon fill="orange" stroke="orange" points="524.28,-279.19 514.07,-282.02 523.82,-286.17 524.28,-279.19"/>
</a>
</g>
<text text-anchor="middle" x="660" y="-302.95" font-family="Helvetica,sans-Serif" font-size="10.00" fill="grey"> &lt; InterMonoSolverTestDomain &gt;</text>
</g>
<!-- Node8&#45;&gt;Node6 -->
<g id="edge10_Node000008_Node000006" class="edge">
<title>Node8&#45;&gt;Node6</title>
<g id="a_edge10_Node000008_Node000006"><a xlink:title=" ">
<path fill="none" stroke="orange" stroke-dasharray="5,2" d="M524.05,-265.77C538.59,-263.62 553.75,-261.56 568,-259.95 636.38,-252.21 713.87,-246.6 772.9,-242.99"/>
<polygon fill="orange" stroke="orange" points="523.47,-262.32 514.1,-267.27 524.51,-269.24 523.47,-262.32"/>
</a>
</g>
<text text-anchor="start" x="595.5" y="-273.95" font-family="Helvetica,sans-Serif" font-size="10.00" fill="grey"> &lt; InterMonoTaintAnalysis</text>
<text text-anchor="middle" x="660" y="-262.95" font-family="Helvetica,sans-Serif" font-size="10.00" fill="grey">Domain &gt;</text>
</g>
<!-- Node10 -->
<g id="Node000010" class="node">
<title>Node10</title>
<g id="a_Node000010"><a xlink:href="classpsr_1_1IntraMonoFullConstantPropagation.html" target="_top" xlink:title=" ">
<polygon fill="white" stroke="#666666" points="942.5,-458.95 794.5,-458.95 794.5,-428.95 942.5,-428.95 942.5,-458.95"/>
<text text-anchor="start" x="802.5" y="-446.95" font-family="Helvetica,sans-Serif" font-size="10.00">psr::IntraMonoFullConstant</text>
<text text-anchor="middle" x="868.5" y="-435.95" font-family="Helvetica,sans-Serif" font-size="10.00">Propagation</text>
</a>
</g>
</g>
<!-- Node9&#45;&gt;Node10 -->
<g id="edge12_Node000009_Node000010" class="edge">
<title>Node9&#45;&gt;Node10</title>
<g id="a_edge12_Node000009_Node000010"><a xlink:title=" ">
<path fill="none" stroke="#63b8ff" d="M558.32,-443.95C632.49,-443.95 729.04,-443.95 794.37,-443.95"/>
<polygon fill="#63b8ff" stroke="#63b8ff" points="558,-440.45 548,-443.95 558,-447.45 558,-440.45"/>
</a>
</g>
</g>
<!-- Node10&#45;&gt;Node3 -->
<g id="edge13_Node000010_Node000003" class="edge">
<title>Node10&#45;&gt;Node3</title>
<g id="a_edge13_Node000010_Node000003"><a xlink:title=" ">
<path fill="none" stroke="#63b8ff" d="M952.95,-433.19C970.41,-430.94 988.71,-428.58 1005.77,-426.38"/>
<polygon fill="#63b8ff" stroke="#63b8ff" points="952.24,-429.75 942.77,-434.5 953.14,-436.7 952.24,-429.75"/>
</a>
</g>
</g>
<!-- Node14 -->
<g id="Node000014" class="node">
<title>Node14</title>
<g id="a_Node000014"><a xlink:href="classpsr_1_1IntraMonoSolverTest.html" target="_top" xlink:title=" ">
<polygon fill="white" stroke="#666666" points="937,-90.45 800,-90.45 800,-71.45 937,-71.45 937,-90.45"/>
<text text-anchor="middle" x="868.5" y="-78.45" font-family="Helvetica,sans-Serif" font-size="10.00">psr::IntraMonoSolverTest</text>
</a>
</g>
</g>
<!-- Node13&#45;&gt;Node14 -->
<g id="edge17_Node000013_Node000014" class="edge">
<title>Node13&#45;&gt;Node14</title>
<g id="a_edge17_Node000013_Node000014"><a xlink:title=" ">
<path fill="none" stroke="#63b8ff" d="M544.4,-80.95C622.05,-80.95 730.46,-80.95 799.83,-80.95"/>
<polygon fill="#63b8ff" stroke="#63b8ff" points="544.13,-77.45 534.13,-80.95 544.13,-84.45 544.13,-77.45"/>
</a>
</g>
</g>
<!-- Node16 -->
<g id="Node000016" class="node">
<title>Node16</title>
<g id="a_Node000016"><a xlink:href="classpsr_1_1IntraMonoUninitVariables.html" target="_top" xlink:title=" ">
<polygon fill="white" stroke="#666666" points="949,-36.45 788,-36.45 788,-17.45 949,-17.45 949,-36.45"/>
<text text-anchor="middle" x="868.5" y="-24.45" font-family="Helvetica,sans-Serif" font-size="10.00">psr::IntraMonoUninitVariables</text>
</a>
</g>
</g>
<!-- Node15&#45;&gt;Node16 -->
<g id="edge19_Node000015_Node000016" class="edge">
<title>Node15&#45;&gt;Node16</title>
<g id="a_edge19_Node000015_Node000016"><a xlink:title=" ">
<path fill="none" stroke="#63b8ff" d="M560.51,-26.95C631.94,-26.95 723.39,-26.95 787.84,-26.95"/>
<polygon fill="#63b8ff" stroke="#63b8ff" points="560.12,-23.45 550.12,-26.95 560.12,-30.45 560.12,-23.45"/>
</a>
</g>
</g>
</g>
</svg>
