<?xml version="1.0" encoding="UTF-8" standalone="no"?>
<!DOCTYPE svg PUBLIC "-//W3C//DTD SVG 1.1//EN"
 "http://www.w3.org/Graphics/SVG/1.1/DTD/svg11.dtd">
<!-- Generated by graphviz version 2.43.0 (0)
 -->
<!-- Title: psr::CallGraphBase&lt; Derived &gt; Pages: 1 -->
<svg width="1085pt" height="239pt"
 viewBox="0.00 0.00 1085.00 239.00" xmlns="http://www.w3.org/2000/svg" xmlns:xlink="http://www.w3.org/1999/xlink">
<g id="graph0" class="graph" transform="scale(1 1) rotate(0) translate(4 235)">
<title>psr::CallGraphBase&lt; Derived &gt;</title>
<!-- Node1 -->
<g id="Node000001" class="node">
<title>Node1</title>
<g id="a_Node000001"><a xlink:title=" ">
<polygon fill="#999999" stroke="#666666" points="294,-143 184,-143 184,-113 294,-113 294,-143"/>
<text text-anchor="start" x="192" y="-131" font-family="Helvetica,sans-Serif" font-size="10.00">psr::CallGraphBase</text>
<text text-anchor="middle" x="239" y="-120" font-family="Helvetica,sans-Serif" font-size="10.00">&lt; Derived &gt;</text>
</a>
</g>
</g>
<!-- Node3 -->
<g id="Node000003" class="node">
<title>Node3</title>
<g id="a_Node000003"><a xlink:href="classpsr_1_1CallGraph.html" target="_top" xlink:title=" ">
<polygon fill="white" stroke="#666666" points="1066,-231 951,-231 951,-201 1066,-201 1066,-231"/>
<text text-anchor="start" x="959" y="-219" font-family="Helvetica,sans-Serif" font-size="10.00">psr::CallGraph&lt; n_t,</text>
<text text-anchor="middle" x="1008.5" y="-208" font-family="Helvetica,sans-Serif" font-size="10.00"> f_t &gt;</text>
</a>
</g>
</g>
<!-- Node1&#45;&gt;Node3 -->
<g id="edge2_Node000001_Node000003" class="edge">
<title>Node1&#45;&gt;Node3</title>
<g id="a_edge2_Node000001_Node000003"><a xlink:title=" ">
<path fill="none" stroke="#63b8ff" d="M265.69,-149.38C278.76,-159.11 295.37,-169.81 312,-176 380.3,-201.44 696.01,-214.72 789,-218 843.97,-219.94 906.77,-219.04 950.89,-217.89"/>
<polygon fill="#63b8ff" stroke="#63b8ff" points="267.7,-146.52 257.64,-143.19 263.43,-152.06 267.7,-146.52"/>
</a>
</g>
</g>
<!-- Node4 -->
<g id="Node000004" class="node">
<title>Node4</title>
<g id="a_Node000004"><a xlink:href="classpsr_1_1CallGraph.html" target="_top" xlink:title=" ">
<polygon fill="white" stroke="#666666" points="1077,-170.5 940,-170.5 940,-129.5 1077,-129.5 1077,-170.5"/>
<text text-anchor="start" x="948" y="-158.5" font-family="Helvetica,sans-Serif" font-size="10.00">psr::CallGraph&lt; const</text>
<text text-anchor="start" x="948" y="-147.5" font-family="Helvetica,sans-Serif" font-size="10.00"> llvm::Instruction *,</text>
<text text-anchor="middle" x="1008.5" y="-136.5" font-family="Helvetica,sans-Serif" font-size="10.00"> const llvm::Function * &gt;</text>
</a>
</g>
</g>
<!-- Node1&#45;&gt;Node4 -->
<g id="edge3_Node000001_Node000004" class="edge">
<title>Node1&#45;&gt;Node4</title>
<g id="a_edge3_Node000001_Node000004"><a xlink:title=" ">
<path fill="none" stroke="#63b8ff" d="M304.69,-129.85C448.49,-133.98 793.53,-143.87 939.96,-148.06"/>
<polygon fill="#63b8ff" stroke="#63b8ff" points="304.37,-126.34 294.27,-129.56 304.17,-133.34 304.37,-126.34"/>
</a>
</g>
</g>
<!-- Node5 -->
<g id="Node000005" class="node">
<title>Node5</title>
<g id="a_Node000005"><a xlink:href="classpsr_1_1CallGraphBase.html" target="_top" xlink:title=" ">
<polygon fill="white" stroke="#666666" points="599,-186 470,-186 470,-156 599,-156 599,-186"/>
<text text-anchor="start" x="478" y="-174" font-family="Helvetica,sans-Serif" font-size="10.00">psr::CallGraphBase</text>
<text text-anchor="middle" x="534.5" y="-163" font-family="Helvetica,sans-Serif" font-size="10.00">&lt; CallGraph&lt; N, F &gt; &gt;</text>
</a>
</g>
</g>
<!-- Node1&#45;&gt;Node5 -->
<g id="edge4_Node000001_Node000005" class="edge">
<title>Node1&#45;&gt;Node5</title>
<g id="a_edge4_Node000001_Node000005"><a xlink:title=" ">
<path fill="none" stroke="orange" stroke-dasharray="5,2" d="M304.29,-140.71C306.89,-141.16 309.47,-141.59 312,-142 365.02,-150.62 425.5,-158.4 469.85,-163.73"/>
<polygon fill="orange" stroke="orange" points="304.65,-137.22 294.19,-138.91 303.42,-144.11 304.65,-137.22"/>
</a>
</g>
<text text-anchor="middle" x="378.5" y="-164" font-family="Helvetica,sans-Serif" font-size="10.00" fill="grey"> &lt; CallGraph&lt; N, F &gt; &gt;</text>
</g>
<!-- Node7 -->
<g id="Node000007" class="node">
<title>Node7</title>
<g id="a_Node000007"><a xlink:href="classpsr_1_1CallGraphBase.html" target="_top" xlink:title=" ">
<polygon fill="white" stroke="#666666" points="606,-100 463,-100 463,-70 606,-70 606,-100"/>
<text text-anchor="start" x="471" y="-88" font-family="Helvetica,sans-Serif" font-size="10.00">psr::CallGraphBase</text>
<text text-anchor="middle" x="534.5" y="-77" font-family="Helvetica,sans-Serif" font-size="10.00">&lt; CallGraph&lt; n_t, f_t &gt; &gt;</text>
</a>
</g>
</g>
<!-- Node1&#45;&gt;Node7 -->
<g id="edge8_Node000001_Node000007" class="edge">
<title>Node1&#45;&gt;Node7</title>
<g id="a_edge8_Node000001_Node000007"><a xlink:title=" ">
<path fill="none" stroke="orange" stroke-dasharray="5,2" d="M272.74,-107.89C284.66,-101.6 298.53,-95.41 312,-92 361.24,-79.55 418.59,-78.08 462.6,-79.57"/>
<polygon fill="orange" stroke="orange" points="270.7,-105.02 263.64,-112.92 274.08,-111.15 270.7,-105.02"/>
</a>
</g>
<text text-anchor="start" x="329" y="-106" font-family="Helvetica,sans-Serif" font-size="10.00" fill="grey"> &lt; CallGraph&lt; n_t, f</text>
<text text-anchor="middle" x="378.5" y="-95" font-family="Helvetica,sans-Serif" font-size="10.00" fill="grey">_t &gt; &gt;</text>
</g>
<!-- Node8 -->
<g id="Node000008" class="node">
<title>Node8</title>
<g id="a_Node000008"><a xlink:href="classpsr_1_1CallGraphBase.html" target="_top" xlink:title=" ">
<polygon fill="white" stroke="#666666" points="603.5,-52 465.5,-52 465.5,0 603.5,0 603.5,-52"/>
<text text-anchor="start" x="473.5" y="-40" font-family="Helvetica,sans-Serif" font-size="10.00">psr::CallGraphBase</text>
<text text-anchor="start" x="473.5" y="-29" font-family="Helvetica,sans-Serif" font-size="10.00">&lt; CallGraph&lt; const llvm</text>
<text text-anchor="start" x="473.5" y="-18" font-family="Helvetica,sans-Serif" font-size="10.00">::Instruction *, const</text>
<text text-anchor="middle" x="534.5" y="-7" font-family="Helvetica,sans-Serif" font-size="10.00"> llvm::Function * &gt; &gt;</text>
</a>
</g>
</g>
<!-- Node1&#45;&gt;Node8 -->
<g id="edge9_Node000001_Node000008" class="edge">
<title>Node1&#45;&gt;Node8</title>
<g id="a_edge9_Node000001_Node000008"><a xlink:title=" ">
<path fill="none" stroke="orange" stroke-dasharray="5,2" d="M252.88,-104.18C265.18,-84.06 285.71,-56.43 312,-43 359.23,-18.87 419.62,-15.76 465.41,-18.05"/>
<polygon fill="orange" stroke="orange" points="249.85,-102.42 247.82,-112.82 255.89,-105.96 249.85,-102.42"/>
</a>
</g>
<text text-anchor="start" x="312" y="-68" font-family="Helvetica,sans-Serif" font-size="10.00" fill="grey"> &lt; CallGraph&lt; const</text>
<text text-anchor="start" x="312" y="-57" font-family="Helvetica,sans-Serif" font-size="10.00" fill="grey"> llvm::Instruction *,</text>
<text text-anchor="middle" x="378.5" y="-46" font-family="Helvetica,sans-Serif" font-size="10.00" fill="grey"> const llvm::Function * &gt; &gt;</text>
</g>
<!-- Node2 -->
<g id="Node000002" class="node">
<title>Node2</title>
<g id="a_Node000002"><a xlink:href="classpsr_1_1CRTPBase.html" target="_top" xlink:title=" ">
<polygon fill="white" stroke="#666666" points="147,-137.5 0,-137.5 0,-118.5 147,-118.5 147,-137.5"/>
<text text-anchor="middle" x="73.5" y="-125.5" font-family="Helvetica,sans-Serif" font-size="10.00">psr::CRTPBase&lt; Derived &gt;</text>
</a>
</g>
</g>
<!-- Node2&#45;&gt;Node1 -->
<g id="edge1_Node000001_Node000002" class="edge">
<title>Node2&#45;&gt;Node1</title>
<g id="a_edge1_Node000001_Node000002"><a xlink:title=" ">
<path fill="none" stroke="#63b8ff" d="M157.28,-128C166.25,-128 175.21,-128 183.71,-128"/>
<polygon fill="#63b8ff" stroke="#63b8ff" points="157.17,-124.5 147.17,-128 157.17,-131.5 157.17,-124.5"/>
</a>
</g>
</g>
<!-- Node6 -->
<g id="Node000006" class="node">
<title>Node6</title>
<g id="a_Node000006"><a xlink:href="classpsr_1_1CallGraph.html" target="_top" xlink:title=" ">
<polygon fill="white" stroke="#666666" points="771,-180.5 643,-180.5 643,-161.5 771,-161.5 771,-180.5"/>
<text text-anchor="middle" x="707" y="-168.5" font-family="Helvetica,sans-Serif" font-size="10.00">psr::CallGraph&lt; N, F &gt;</text>
</a>
</g>
</g>
<!-- Node5&#45;&gt;Node6 -->
<g id="edge5_Node000005_Node000006" class="edge">
<title>Node5&#45;&gt;Node6</title>
<g id="a_edge5_Node000005_Node000006"><a xlink:title=" ">
<path fill="none" stroke="#63b8ff" d="M609.56,-171C620.64,-171 631.97,-171 642.8,-171"/>
<polygon fill="#63b8ff" stroke="#63b8ff" points="609.47,-167.5 599.47,-171 609.47,-174.5 609.47,-167.5"/>
</a>
</g>
</g>
<!-- Node6&#45;&gt;Node3 -->
<g id="edge6_Node000006_Node000003" class="edge">
<title>Node6&#45;&gt;Node3</title>
<g id="a_edge6_Node000006_Node000003"><a xlink:title=" ">
<path fill="none" stroke="orange" stroke-dasharray="5,2" d="M776.97,-182.14C781.04,-182.77 785.07,-183.4 789,-184 843.95,-192.43 906.75,-201.58 950.88,-207.92"/>
<polygon fill="orange" stroke="orange" points="777.25,-178.64 766.82,-180.54 776.16,-185.55 777.25,-178.64"/>
</a>
</g>
<text text-anchor="middle" x="855.5" y="-206" font-family="Helvetica,sans-Serif" font-size="10.00" fill="grey"> &lt; n_t, f_t &gt;</text>
</g>
<!-- Node6&#45;&gt;Node4 -->
<g id="edge7_Node000006_Node000004" class="edge">
<title>Node6&#45;&gt;Node4</title>
<g id="a_edge7_Node000006_Node000004"><a xlink:title=" ">
<path fill="none" stroke="orange" stroke-dasharray="5,2" d="M781.3,-162.67C783.9,-162.43 786.47,-162.21 789,-162 839.36,-157.82 896.36,-154.75 939.52,-152.76"/>
<polygon fill="orange" stroke="orange" points="780.82,-159.2 771.2,-163.63 781.49,-166.17 780.82,-159.2"/>
</a>
</g>
<text text-anchor="start" x="789" y="-176" font-family="Helvetica,sans-Serif" font-size="10.00" fill="grey"> &lt; const llvm::Instruction</text>
<text text-anchor="middle" x="855.5" y="-165" font-family="Helvetica,sans-Serif" font-size="10.00" fill="grey"> *, const llvm::Function * &gt;</text>
</g>
</g>
</svg>
