<?xml version="1.0" encoding="UTF-8" standalone="no"?>
<!DOCTYPE svg PUBLIC "-//W3C//DTD SVG 1.1//EN"
 "http://www.w3.org/Graphics/SVG/1.1/DTD/svg11.dtd">
<!-- Generated by graphviz version 2.43.0 (0)
 -->
<!-- Title: psr::IDEFeatureTaintAnalysis Pages: 1 -->
<svg width="1462pt" height="264pt"
 viewBox="0.00 0.00 1462.00 264.00" xmlns="http://www.w3.org/2000/svg" xmlns:xlink="http://www.w3.org/1999/xlink">
<g id="graph0" class="graph" transform="scale(1 1) rotate(0) translate(4 260)">
<title>psr::IDEFeatureTaintAnalysis</title>
<!-- Node1 -->
<g id="Node000001" class="node">
<title>Node1</title>
<g id="a_Node000001"><a xlink:title=" ">
<polygon fill="#999999" stroke="#666666" points="1454,-138.5 1299,-138.5 1299,-119.5 1454,-119.5 1454,-138.5"/>
<text text-anchor="middle" x="1376.5" y="-126.5" font-family="Helvetica,sans-Serif" font-size="10.00">psr::IDEFeatureTaintAnalysis</text>
</a>
</g>
</g>
<!-- Node2 -->
<g id="Node000002" class="node">
<title>Node2</title>
<g id="a_Node000002"><a xlink:href="classpsr_1_1IDETabulationProblem.html" target="_top" xlink:title=" ">
<polygon fill="white" stroke="#666666" points="1262,-144 1067,-144 1067,-114 1262,-114 1262,-144"/>
<text text-anchor="start" x="1075" y="-132" font-family="Helvetica,sans-Serif" font-size="10.00">psr::IDETabulationProblem</text>
<text text-anchor="middle" x="1164.5" y="-121" font-family="Helvetica,sans-Serif" font-size="10.00">&lt; IDEFeatureTaintAnalysisDomain &gt;</text>
</a>
</g>
</g>
<!-- Node2&#45;&gt;Node1 -->
<g id="edge1_Node000001_Node000002" class="edge">
<title>Node2&#45;&gt;Node1</title>
<g id="a_edge1_Node000001_Node000002"><a xlink:title=" ">
<path fill="none" stroke="#63b8ff" d="M1272.29,-129C1281.23,-129 1290.15,-129 1298.8,-129"/>
<polygon fill="#63b8ff" stroke="#63b8ff" points="1272.2,-125.5 1262.2,-129 1272.2,-132.5 1272.2,-125.5"/>
</a>
</g>
</g>
<!-- Node3 -->
<g id="Node000003" class="node">
<title>Node3</title>
<g id="a_Node000003"><a xlink:href="classpsr_1_1FlowFunctions.html" target="_top" xlink:title=" ">
<polygon fill="white" stroke="#666666" points="641,-203.5 520,-203.5 520,-162.5 641,-162.5 641,-203.5"/>
<text text-anchor="start" x="528" y="-191.5" font-family="Helvetica,sans-Serif" font-size="10.00">psr::FlowFunctions</text>
<text text-anchor="start" x="528" y="-180.5" font-family="Helvetica,sans-Serif" font-size="10.00">&lt; AnalysisDomainTy,</text>
<text text-anchor="middle" x="580.5" y="-169.5" font-family="Helvetica,sans-Serif" font-size="10.00"> Container &gt;</text>
</a>
</g>
</g>
<!-- Node3&#45;&gt;Node2 -->
<g id="edge2_Node000002_Node000003" class="edge">
<title>Node3&#45;&gt;Node2</title>
<g id="a_edge2_Node000002_Node000003"><a xlink:title=" ">
<path fill="none" stroke="#63b8ff" d="M651.22,-187.7C743.23,-192.36 909.83,-195.46 1049,-169 1076.72,-163.73 1106.79,-153.02 1129.16,-144"/>
<polygon fill="#63b8ff" stroke="#63b8ff" points="651.36,-184.2 641.19,-187.17 650.99,-191.19 651.36,-184.2"/>
</a>
</g>
</g>
<!-- Node10 -->
<g id="Node000010" class="node">
<title>Node10</title>
<g id="a_Node000010"><a xlink:href="classpsr_1_1IDETabulationProblem.html" target="_top" xlink:title="The analysis problem interface for IDE problems (solvable by the IDESolver). Create a subclass from t...">
<polygon fill="white" stroke="#666666" points="898,-166 716,-166 716,-136 898,-136 898,-166"/>
<text text-anchor="start" x="724" y="-154" font-family="Helvetica,sans-Serif" font-size="10.00">psr::IDETabulationProblem</text>
<text text-anchor="middle" x="807" y="-143" font-family="Helvetica,sans-Serif" font-size="10.00">&lt; AnalysisDomainTy, Container &gt;</text>
</a>
</g>
</g>
<!-- Node3&#45;&gt;Node10 -->
<g id="edge10_Node000010_Node000003" class="edge">
<title>Node3&#45;&gt;Node10</title>
<g id="a_edge10_Node000010_Node000003"><a xlink:title=" ">
<path fill="none" stroke="#63b8ff" d="M651.21,-173.06C671.6,-170.16 694.2,-166.94 715.68,-163.87"/>
<polygon fill="#63b8ff" stroke="#63b8ff" points="650.48,-169.63 641.07,-174.51 651.47,-176.56 650.48,-169.63"/>
</a>
</g>
</g>
<!-- Node4 -->
<g id="Node000004" class="node">
<title>Node4</title>
<g id="a_Node000004"><a xlink:href="classpsr_1_1FlowFunctionTemplates.html" target="_top" xlink:title=" ">
<polygon fill="white" stroke="#666666" points="445,-203.5 293,-203.5 293,-162.5 445,-162.5 445,-203.5"/>
<text text-anchor="start" x="301" y="-191.5" font-family="Helvetica,sans-Serif" font-size="10.00">psr::FlowFunctionTemplates</text>
<text text-anchor="start" x="301" y="-180.5" font-family="Helvetica,sans-Serif" font-size="10.00">&lt; AnalysisDomainTy::d_t,</text>
<text text-anchor="middle" x="369" y="-169.5" font-family="Helvetica,sans-Serif" font-size="10.00"> Container &gt;</text>
</a>
</g>
</g>
<!-- Node4&#45;&gt;Node3 -->
<g id="edge3_Node000003_Node000004" class="edge">
<title>Node4&#45;&gt;Node3</title>
<g id="a_edge3_Node000003_Node000004"><a xlink:title=" ">
<path fill="none" stroke="darkgreen" d="M455.22,-183C476.87,-183 499.67,-183 519.75,-183"/>
<polygon fill="darkgreen" stroke="darkgreen" points="455.04,-179.5 445.04,-183 455.04,-186.5 455.04,-179.5"/>
</a>
</g>
</g>
<!-- Node5 -->
<g id="Node000005" class="node">
<title>Node5</title>
<g id="a_Node000005"><a xlink:href="classpsr_1_1FlowFunctionTemplates.html" target="_top" xlink:title=" ">
<polygon fill="white" stroke="#666666" points="152,-198 0,-198 0,-168 152,-168 152,-198"/>
<text text-anchor="start" x="8" y="-186" font-family="Helvetica,sans-Serif" font-size="10.00">psr::FlowFunctionTemplates</text>
<text text-anchor="middle" x="76" y="-175" font-family="Helvetica,sans-Serif" font-size="10.00">&lt; D, Container &gt;</text>
</a>
</g>
</g>
<!-- Node5&#45;&gt;Node4 -->
<g id="edge4_Node000004_Node000005" class="edge">
<title>Node5&#45;&gt;Node4</title>
<g id="a_edge4_Node000004_Node000005"><a xlink:title=" ">
<path fill="none" stroke="orange" stroke-dasharray="5,2" d="M162.39,-183C203.79,-183 253.06,-183 293,-183"/>
<polygon fill="orange" stroke="orange" points="162.32,-179.5 152.32,-183 162.32,-186.5 162.32,-179.5"/>
</a>
</g>
<text text-anchor="start" x="170" y="-197" font-family="Helvetica,sans-Serif" font-size="10.00" fill="grey"> &lt; AnalysisDomainTy</text>
<text text-anchor="middle" x="222.5" y="-186" font-family="Helvetica,sans-Serif" font-size="10.00" fill="grey">::d_t, Container &gt;</text>
</g>
<!-- Node6 -->
<g id="Node000006" class="node">
<title>Node6</title>
<g id="a_Node000006"><a xlink:href="classpsr_1_1EdgeFunctions.html" target="_top" xlink:title=" ">
<polygon fill="white" stroke="#666666" points="645,-256 516,-256 516,-226 645,-226 645,-256"/>
<text text-anchor="start" x="524" y="-244" font-family="Helvetica,sans-Serif" font-size="10.00">psr::EdgeFunctions</text>
<text text-anchor="middle" x="580.5" y="-233" font-family="Helvetica,sans-Serif" font-size="10.00">&lt; AnalysisDomainTy &gt;</text>
</a>
</g>
</g>
<!-- Node6&#45;&gt;Node2 -->
<g id="edge5_Node000002_Node000006" class="edge">
<title>Node6&#45;&gt;Node2</title>
<g id="a_edge5_Node000002_Node000006"><a xlink:title=" ">
<path fill="none" stroke="#63b8ff" d="M655.3,-241.85C748.96,-240.97 914.52,-232.81 1049,-191 1083.54,-180.26 1119.63,-158.73 1141.84,-144.09"/>
<polygon fill="#63b8ff" stroke="#63b8ff" points="655.05,-238.36 645.07,-241.92 655.1,-245.36 655.05,-238.36"/>
</a>
</g>
</g>
<!-- Node6&#45;&gt;Node10 -->
<g id="edge11_Node000010_Node000006" class="edge">
<title>Node6&#45;&gt;Node10</title>
<g id="a_edge11_Node000010_Node000006"><a xlink:title=" ">
<path fill="none" stroke="#63b8ff" d="M649.86,-223.01C659.73,-219.94 669.69,-216.58 679,-213 714.27,-199.45 753.06,-179.76 778.38,-166.23"/>
<polygon fill="#63b8ff" stroke="#63b8ff" points="648.61,-219.74 640.05,-225.98 650.64,-226.44 648.61,-219.74"/>
</a>
</g>
</g>
<!-- Node7 -->
<g id="Node000007" class="node">
<title>Node7</title>
<g id="a_Node000007"><a xlink:href="classpsr_1_1JoinLattice_3_01AnalysisDomainTy_01_4.html" target="_top" xlink:title=" ">
<polygon fill="white" stroke="#666666" points="651,-30 510,-30 510,0 651,0 651,-30"/>
<text text-anchor="start" x="518" y="-18" font-family="Helvetica,sans-Serif" font-size="10.00">psr::JoinLattice&lt; Analysis</text>
<text text-anchor="middle" x="580.5" y="-7" font-family="Helvetica,sans-Serif" font-size="10.00">DomainTy &gt;</text>
</a>
</g>
</g>
<!-- Node7&#45;&gt;Node2 -->
<g id="edge6_Node000002_Node000007" class="edge">
<title>Node7&#45;&gt;Node2</title>
<g id="a_edge6_Node000002_Node000007"><a xlink:title=" ">
<path fill="none" stroke="#63b8ff" d="M661.03,-27.76C754.32,-43.12 913.47,-70.55 1049,-100 1068.14,-104.16 1088.93,-109.25 1107.48,-114"/>
<polygon fill="#63b8ff" stroke="#63b8ff" points="661.53,-24.3 651.1,-26.13 660.4,-31.2 661.53,-24.3"/>
</a>
</g>
</g>
<!-- Node7&#45;&gt;Node10 -->
<g id="edge12_Node000010_Node000007" class="edge">
<title>Node7&#45;&gt;Node10</title>
<g id="a_edge12_Node000010_Node000007"><a xlink:title=" ">
<path fill="none" stroke="#63b8ff" d="M637.81,-33.79C651.63,-39.26 666.15,-45.74 679,-53 721.91,-77.25 766.2,-114.82 789.44,-135.69"/>
<polygon fill="#63b8ff" stroke="#63b8ff" points="638.96,-30.49 628.37,-30.18 636.46,-37.02 638.96,-30.49"/>
</a>
</g>
</g>
<!-- Node8 -->
<g id="Node000008" class="node">
<title>Node8</title>
<g id="a_Node000008"><a xlink:href="classpsr_1_1SemiRing.html" target="_top" xlink:title=" ">
<polygon fill="white" stroke="#666666" points="679,-80.5 482,-80.5 482,-61.5 679,-61.5 679,-80.5"/>
<text text-anchor="middle" x="580.5" y="-68.5" font-family="Helvetica,sans-Serif" font-size="10.00">psr::SemiRing&lt; AnalysisDomainTy &gt;</text>
</a>
</g>
</g>
<!-- Node8&#45;&gt;Node2 -->
<g id="edge7_Node000002_Node000008" class="edge">
<title>Node8&#45;&gt;Node2</title>
<g id="a_edge7_Node000002_Node000008"><a xlink:title=" ">
<path fill="none" stroke="#63b8ff" d="M687.23,-81.54C795.31,-92.31 961.76,-108.89 1066.54,-119.34"/>
<polygon fill="#63b8ff" stroke="#63b8ff" points="687.25,-78.02 676.95,-80.51 686.56,-84.99 687.25,-78.02"/>
</a>
</g>
</g>
<!-- Node8&#45;&gt;Node10 -->
<g id="edge13_Node000010_Node000008" class="edge">
<title>Node8&#45;&gt;Node10</title>
<g id="a_edge13_Node000010_Node000008"><a xlink:title=" ">
<path fill="none" stroke="#63b8ff" d="M632.4,-83.12C647.53,-87.11 664.05,-91.86 679,-97 712.08,-108.38 748.73,-124.34 774.13,-135.96"/>
<polygon fill="#63b8ff" stroke="#63b8ff" points="633.24,-79.72 622.68,-80.61 631.49,-86.5 633.24,-79.72"/>
</a>
</g>
</g>
<!-- Node9 -->
<g id="Node000009" class="node">
<title>Node9</title>
<g id="a_Node000009"><a xlink:href="classpsr_1_1AllTopFnProvider_3_01AnalysisDomainTy_01_4.html" target="_top" xlink:title=" ">
<polygon fill="white" stroke="#666666" points="645,-136 516,-136 516,-106 645,-106 645,-136"/>
<text text-anchor="start" x="524" y="-124" font-family="Helvetica,sans-Serif" font-size="10.00">psr::AllTopFnProvider</text>
<text text-anchor="middle" x="580.5" y="-113" font-family="Helvetica,sans-Serif" font-size="10.00">&lt; AnalysisDomainTy &gt;</text>
</a>
</g>
</g>
<!-- Node9&#45;&gt;Node2 -->
<g id="edge8_Node000002_Node000009" class="edge">
<title>Node9&#45;&gt;Node2</title>
<g id="a_edge8_Node000002_Node000009"><a xlink:title=" ">
<path fill="none" stroke="#63b8ff" d="M655.32,-122.01C759.82,-123.45 951.04,-126.08 1066.78,-127.67"/>
<polygon fill="#63b8ff" stroke="#63b8ff" points="655.22,-118.51 645.17,-121.88 655.12,-125.51 655.22,-118.51"/>
</a>
</g>
</g>
<!-- Node9&#45;&gt;Node10 -->
<g id="edge14_Node000010_Node000009" class="edge">
<title>Node9&#45;&gt;Node10</title>
<g id="a_edge14_Node000010_Node000009"><a xlink:title=" ">
<path fill="none" stroke="#63b8ff" d="M655.18,-130.85C674.52,-133.43 695.61,-136.25 715.71,-138.93"/>
<polygon fill="#63b8ff" stroke="#63b8ff" points="655.61,-127.37 645.23,-129.52 654.68,-134.31 655.61,-127.37"/>
</a>
</g>
</g>
<!-- Node10&#45;&gt;Node2 -->
<g id="edge9_Node000002_Node000010" class="edge">
<title>Node10&#45;&gt;Node2</title>
<g id="a_edge9_Node000002_Node000010"><a xlink:title=" ">
<path fill="none" stroke="orange" stroke-dasharray="5,2" d="M908.29,-144.79C957.98,-141.72 1017.7,-138.02 1066.88,-134.98"/>
<polygon fill="orange" stroke="orange" points="907.93,-141.31 898.17,-145.42 908.36,-148.3 907.93,-141.31"/>
</a>
</g>
<text text-anchor="start" x="916" y="-157" font-family="Helvetica,sans-Serif" font-size="10.00" fill="grey"> &lt; IDEFeatureTaintAnalysis</text>
<text text-anchor="middle" x="982.5" y="-146" font-family="Helvetica,sans-Serif" font-size="10.00" fill="grey">Domain &gt;</text>
</g>
</g>
</svg>
