<?xml version="1.0" encoding="UTF-8" standalone="no"?>
<!DOCTYPE svg PUBLIC "-//W3C//DTD SVG 1.1//EN"
 "http://www.w3.org/Graphics/SVG/1.1/DTD/svg11.dtd">
<!-- Generated by graphviz version 2.43.0 (0)
 -->
<!-- Title: LLVMIFDSAnalysisDomainDefault Pages: 1 -->
<svg width="240pt" height="93pt"
 viewBox="0.00 0.00 240.00 93.00" xmlns="http://www.w3.org/2000/svg" xmlns:xlink="http://www.w3.org/1999/xlink">
<g id="graph0" class="graph" transform="scale(1 1) rotate(0) translate(4 89)">
<title>LLVMIFDSAnalysisDomainDefault</title>
<!-- Node1 -->
<g id="Node000001" class="node">
<title>Node1</title>
<g id="a_Node000001"><a xlink:title=" ">
<polygon fill="#999999" stroke="#666666" points="201.5,-85 20.5,-85 20.5,-66 201.5,-66 201.5,-85"/>
<text text-anchor="middle" x="111" y="-73" font-family="Helvetica,sans-Serif" font-size="10.00">LLVMIFDSAnalysisDomainDefault</text>
</a>
</g>
</g>
<!-- Node2 -->
<g id="Node000002" class="node">
<title>Node2</title>
<g id="a_Node000002"><a xlink:href="structpsr_1_1cfl__fieldsens_1_1IFDSDomain.html" target="_top" xlink:title=" ">
<polygon fill="white" stroke="#666666" points="98,-30 0,-30 0,0 98,0 98,-30"/>
<text text-anchor="start" x="8" y="-18" font-family="Helvetica,sans-Serif" font-size="10.00">psr::cfl_fieldsens</text>
<text text-anchor="middle" x="49" y="-7" font-family="Helvetica,sans-Serif" font-size="10.00">::IFDSDomain</text>
</a>
</g>
</g>
<!-- Node1&#45;&gt;Node2 -->
<g id="edge1_Node000001_Node000002" class="edge">
<title>Node1&#45;&gt;Node2</title>
<g id="a_edge1_Node000001_Node000002"><a xlink:title=" ">
<path fill="none" stroke="#63b8ff" d="M94.54,-58.97C85.04,-50.01 73.19,-38.82 63.96,-30.11"/>
<polygon fill="#63b8ff" stroke="#63b8ff" points="92.18,-61.55 101.85,-65.87 96.98,-56.46 92.18,-61.55"/>
</a>
</g>
</g>
<!-- Node3 -->
<g id="Node000003" class="node">
<title>Node3</title>
<g id="a_Node000003"><a xlink:href="structpsr_1_1cfl__fieldsens_1_1IFDSProblemConfig.html" target="_top" xlink:title="Configures, how the CFLFieldSensIFDSProblem should handle strong updates.">
<polygon fill="white" stroke="#666666" points="232,-30 116,-30 116,0 232,0 232,-30"/>
<text text-anchor="start" x="124" y="-18" font-family="Helvetica,sans-Serif" font-size="10.00">psr::cfl_fieldsens</text>
<text text-anchor="middle" x="174" y="-7" font-family="Helvetica,sans-Serif" font-size="10.00">::IFDSProblemConfig</text>
</a>
</g>
</g>
<!-- Node1&#45;&gt;Node3 -->
<g id="edge2_Node000001_Node000003" class="edge">
<title>Node1&#45;&gt;Node3</title>
<g id="a_edge2_Node000001_Node000003"><a xlink:title=" ">
<path fill="none" stroke="#63b8ff" d="M127.73,-58.97C137.38,-50.01 149.42,-38.82 158.8,-30.11"/>
<polygon fill="#63b8ff" stroke="#63b8ff" points="125.24,-56.5 120.3,-65.87 130.01,-61.63 125.24,-56.5"/>
</a>
</g>
</g>
</g>
</svg>
