<?xml version="1.0" encoding="UTF-8" standalone="no"?>
<!DOCTYPE svg PUBLIC "-//W3C//DTD SVG 1.1//EN"
 "http://www.w3.org/Graphics/SVG/1.1/DTD/svg11.dtd">
<!-- Generated by graphviz version 2.43.0 (0)
 -->
<!-- Title: psr::MaybeUniquePtr&lt; T, RequireAlignment &gt; Pages: 1 -->
<svg width="728pt" height="313pt"
 viewBox="0.00 0.00 728.00 313.00" xmlns="http://www.w3.org/2000/svg" xmlns:xlink="http://www.w3.org/1999/xlink">
<g id="graph0" class="graph" transform="scale(1 1) rotate(0) translate(4 309)">
<title>psr::MaybeUniquePtr&lt; T, RequireAlignment &gt;</title>
<!-- Node1 -->
<g id="Node000001" class="node">
<title>Node1</title>
<g id="a_Node000001"><a xlink:title=" ">
<polygon fill="#999999" stroke="#666666" points="352,-164.5 213,-164.5 213,-134.5 352,-134.5 352,-164.5"/>
<text text-anchor="start" x="221" y="-152.5" font-family="Helvetica,sans-Serif" font-size="10.00">psr::MaybeUniquePtr</text>
<text text-anchor="middle" x="282.5" y="-141.5" font-family="Helvetica,sans-Serif" font-size="10.00">&lt; T, RequireAlignment &gt;</text>
</a>
</g>
</g>
<!-- Node3 -->
<g id="Node000003" class="node">
<title>Node3</title>
<g id="a_Node000003"><a xlink:href="classpsr_1_1MaybeUniquePtr.html" target="_top" xlink:title=" ">
<polygon fill="white" stroke="#666666" points="720,-305 529,-305 529,-264 720,-264 720,-305"/>
<text text-anchor="start" x="537" y="-293" font-family="Helvetica,sans-Serif" font-size="10.00">psr::MaybeUniquePtr</text>
<text text-anchor="start" x="537" y="-282" font-family="Helvetica,sans-Serif" font-size="10.00">&lt; const psr::DIBasedTypeHierarchy,</text>
<text text-anchor="middle" x="624.5" y="-271" font-family="Helvetica,sans-Serif" font-size="10.00"> true &gt;</text>
</a>
</g>
</g>
<!-- Node1&#45;&gt;Node3 -->
<g id="edge2_Node000001_Node000003" class="edge">
<title>Node1&#45;&gt;Node3</title>
<g id="a_edge2_Node000001_Node000003"><a xlink:title=" ">
<path fill="none" stroke="orange" stroke-dasharray="5,2" d="M300.29,-172.65C316.02,-192.54 341.34,-220.33 370,-235.5 418.73,-261.29 479.16,-273.61 528.79,-279.45"/>
<polygon fill="orange" stroke="orange" points="303.03,-170.47 294.16,-164.67 297.48,-174.74 303.03,-170.47"/>
</a>
</g>
<text text-anchor="start" x="376.5" y="-290.5" font-family="Helvetica,sans-Serif" font-size="10.00" fill="grey"> &lt; const psr::DIBasedType</text>
<text text-anchor="middle" x="440.5" y="-279.5" font-family="Helvetica,sans-Serif" font-size="10.00" fill="grey">Hierarchy, true &gt;</text>
</g>
<!-- Node4 -->
<g id="Node000004" class="node">
<title>Node4</title>
<g id="a_Node000004"><a xlink:href="classpsr_1_1MaybeUniquePtr.html" target="_top" xlink:title=" ">
<polygon fill="white" stroke="#666666" points="690,-245.5 559,-245.5 559,-215.5 690,-215.5 690,-245.5"/>
<text text-anchor="start" x="567" y="-233.5" font-family="Helvetica,sans-Serif" font-size="10.00">psr::MaybeUniquePtr</text>
<text text-anchor="middle" x="624.5" y="-222.5" font-family="Helvetica,sans-Serif" font-size="10.00">&lt; llvm::raw_ostream &gt;</text>
</a>
</g>
</g>
<!-- Node1&#45;&gt;Node4 -->
<g id="edge3_Node000001_Node000004" class="edge">
<title>Node1&#45;&gt;Node4</title>
<g id="a_edge3_Node000001_Node000004"><a xlink:title=" ">
<path fill="none" stroke="orange" stroke-dasharray="5,2" d="M316.71,-169.61C332.36,-178.23 351.61,-187.66 370,-193.5 432.42,-213.34 506.9,-222.6 558.92,-226.88"/>
<polygon fill="orange" stroke="orange" points="318.36,-166.52 307.94,-164.65 314.92,-172.62 318.36,-166.52"/>
</a>
</g>
<text text-anchor="middle" x="440.5" y="-223.5" font-family="Helvetica,sans-Serif" font-size="10.00" fill="grey"> &lt; llvm::raw_ostream &gt;</text>
</g>
<!-- Node5 -->
<g id="Node000005" class="node">
<title>Node5</title>
<g id="a_Node000005"><a xlink:href="classpsr_1_1MaybeUniquePtr.html" target="_top" xlink:title=" ">
<polygon fill="white" stroke="#666666" points="684,-197 565,-197 565,-156 684,-156 684,-197"/>
<text text-anchor="start" x="573" y="-185" font-family="Helvetica,sans-Serif" font-size="10.00">psr::MaybeUniquePtr</text>
<text text-anchor="start" x="573" y="-174" font-family="Helvetica,sans-Serif" font-size="10.00">&lt; psr::LLVMAliasSet,</text>
<text text-anchor="middle" x="624.5" y="-163" font-family="Helvetica,sans-Serif" font-size="10.00"> true &gt;</text>
</a>
</g>
</g>
<!-- Node1&#45;&gt;Node5 -->
<g id="edge4_Node000001_Node000005" class="edge">
<title>Node1&#45;&gt;Node5</title>
<g id="a_edge4_Node000001_Node000005"><a xlink:title=" ">
<path fill="none" stroke="orange" stroke-dasharray="5,2" d="M362.42,-155.77C424.31,-160.68 509.06,-167.41 564.99,-171.85"/>
<polygon fill="orange" stroke="orange" points="362.55,-152.27 352.3,-154.96 362,-159.24 362.55,-152.27"/>
</a>
</g>
<text text-anchor="start" x="388.5" y="-181.5" font-family="Helvetica,sans-Serif" font-size="10.00" fill="grey"> &lt; psr::LLVMAliasSet,</text>
<text text-anchor="middle" x="440.5" y="-170.5" font-family="Helvetica,sans-Serif" font-size="10.00" fill="grey"> true &gt;</text>
</g>
<!-- Node6 -->
<g id="Node000006" class="node">
<title>Node6</title>
<g id="a_Node000006"><a xlink:href="classpsr_1_1MaybeUniquePtr.html" target="_top" xlink:title=" ">
<polygon fill="white" stroke="#666666" points="684,-137.5 565,-137.5 565,-107.5 684,-107.5 684,-137.5"/>
<text text-anchor="start" x="573" y="-125.5" font-family="Helvetica,sans-Serif" font-size="10.00">psr::MaybeUniquePtr</text>
<text text-anchor="middle" x="624.5" y="-114.5" font-family="Helvetica,sans-Serif" font-size="10.00">&lt; z3::context &gt;</text>
</a>
</g>
</g>
<!-- Node1&#45;&gt;Node6 -->
<g id="edge5_Node000001_Node000006" class="edge">
<title>Node1&#45;&gt;Node6</title>
<g id="a_edge5_Node000001_Node000006"><a xlink:title=" ">
<path fill="none" stroke="orange" stroke-dasharray="5,2" d="M362.4,-143.11C364.97,-142.9 367.5,-142.7 370,-142.5 436.78,-137.16 513.46,-131.13 564.85,-127.09"/>
<polygon fill="orange" stroke="orange" points="362.12,-139.62 352.43,-143.91 362.68,-146.6 362.12,-139.62"/>
</a>
</g>
<text text-anchor="middle" x="440.5" y="-145.5" font-family="Helvetica,sans-Serif" font-size="10.00" fill="grey"> &lt; z3::context &gt;</text>
</g>
<!-- Node7 -->
<g id="Node000007" class="node">
<title>Node7</title>
<g id="a_Node000007"><a xlink:href="classpsr_1_1MaybeUniquePtr.html" target="_top" xlink:title=" ">
<polygon fill="white" stroke="#666666" points="684,-89.5 565,-89.5 565,-59.5 684,-59.5 684,-89.5"/>
<text text-anchor="start" x="573" y="-77.5" font-family="Helvetica,sans-Serif" font-size="10.00">psr::MaybeUniquePtr</text>
<text text-anchor="middle" x="624.5" y="-66.5" font-family="Helvetica,sans-Serif" font-size="10.00">&lt; llvm::Module &gt;</text>
</a>
</g>
</g>
<!-- Node1&#45;&gt;Node7 -->
<g id="edge6_Node000001_Node000007" class="edge">
<title>Node1&#45;&gt;Node7</title>
<g id="a_edge6_Node000001_Node000007"><a xlink:title=" ">
<path fill="none" stroke="orange" stroke-dasharray="5,2" d="M329.29,-130.75C342.29,-125.93 356.56,-121.09 370,-117.5 435.77,-99.92 513.14,-88.03 564.95,-81.28"/>
<polygon fill="orange" stroke="orange" points="327.74,-127.6 319.63,-134.42 330.22,-134.14 327.74,-127.6"/>
</a>
</g>
<text text-anchor="middle" x="440.5" y="-120.5" font-family="Helvetica,sans-Serif" font-size="10.00" fill="grey"> &lt; llvm::Module &gt;</text>
</g>
<!-- Node8 -->
<g id="Node000008" class="node">
<title>Node8</title>
<g id="a_Node000008"><a xlink:href="classpsr_1_1MaybeUniquePtr.html" target="_top" xlink:title=" ">
<polygon fill="white" stroke="#666666" points="701.5,-41 547.5,-41 547.5,0 701.5,0 701.5,-41"/>
<text text-anchor="start" x="555.5" y="-29" font-family="Helvetica,sans-Serif" font-size="10.00">psr::MaybeUniquePtr</text>
<text text-anchor="start" x="555.5" y="-18" font-family="Helvetica,sans-Serif" font-size="10.00">&lt; psr::LLVMPathConstraints,</text>
<text text-anchor="middle" x="624.5" y="-7" font-family="Helvetica,sans-Serif" font-size="10.00"> true &gt;</text>
</a>
</g>
</g>
<!-- Node1&#45;&gt;Node8 -->
<g id="edge7_Node000001_Node000008" class="edge">
<title>Node1&#45;&gt;Node8</title>
<g id="a_edge7_Node000001_Node000008"><a xlink:title=" ">
<path fill="none" stroke="orange" stroke-dasharray="5,2" d="M300.28,-126.49C316,-106.74 341.32,-79.22 370,-64.5 425.14,-36.2 494.97,-25.65 547.38,-21.92"/>
<polygon fill="orange" stroke="orange" points="297.5,-124.36 294.15,-134.41 303.04,-128.64 297.5,-124.36"/>
</a>
</g>
<text text-anchor="start" x="370" y="-78.5" font-family="Helvetica,sans-Serif" font-size="10.00" fill="grey"> &lt; psr::LLVMPathConstraints,</text>
<text text-anchor="middle" x="440.5" y="-67.5" font-family="Helvetica,sans-Serif" font-size="10.00" fill="grey"> true &gt;</text>
</g>
<!-- Node2 -->
<g id="Node000002" class="node">
<title>Node2</title>
<g id="a_Node000002"><a xlink:title=" ">
<polygon fill="white" stroke="#666666" points="176,-164.5 0,-164.5 0,-134.5 176,-134.5 176,-164.5"/>
<text text-anchor="start" x="8" y="-152.5" font-family="Helvetica,sans-Serif" font-size="10.00">psr::detail::MaybeUnique</text>
<text text-anchor="middle" x="88" y="-141.5" font-family="Helvetica,sans-Serif" font-size="10.00">PtrBase&lt; T, RequireAlignment &gt;</text>
</a>
</g>
</g>
<!-- Node2&#45;&gt;Node1 -->
<g id="edge1_Node000001_Node000002" class="edge">
<title>Node2&#45;&gt;Node1</title>
<g id="a_edge1_Node000001_Node000002"><a xlink:title=" ">
<path fill="none" stroke="#8b1a1a" d="M186.3,-149.5C195.23,-149.5 204.14,-149.5 212.73,-149.5"/>
<polygon fill="#8b1a1a" stroke="#8b1a1a" points="186.24,-146 176.24,-149.5 186.24,-153 186.24,-146"/>
</a>
</g>
</g>
</g>
</svg>
