<?xml version="1.0" encoding="UTF-8" standalone="no"?>
<!DOCTYPE svg PUBLIC "-//W3C//DTD SVG 1.1//EN"
 "http://www.w3.org/Graphics/SVG/1.1/DTD/svg11.dtd">
<!-- Generated by graphviz version 2.43.0 (0)
 -->
<!-- Title: psr::LLVMBasedBackwardCFG Pages: 1 -->
<svg width="296pt" height="357pt"
 viewBox="0.00 0.00 295.50 357.00" xmlns="http://www.w3.org/2000/svg" xmlns:xlink="http://www.w3.org/1999/xlink">
<g id="graph0" class="graph" transform="scale(1 1) rotate(0) translate(4 353)">
<title>psr::LLVMBasedBackwardCFG</title>
<!-- Node1 -->
<g id="Node000001" class="node">
<title>Node1</title>
<g id="a_Node000001"><a xlink:title="A class that represents a backwards control flow graph. Conforms to the CFGBase CRTP interface.">
<polygon fill="#999999" stroke="#666666" points="165,-75 4,-75 4,-56 165,-56 165,-75"/>
<text text-anchor="middle" x="84.5" y="-63" font-family="Helvetica,sans-Serif" font-size="10.00">psr::LLVMBasedBackwardCFG</text>
</a>
</g>
</g>
<!-- Node7 -->
<g id="Node000007" class="node">
<title>Node7</title>
<g id="a_Node000007"><a xlink:href="classpsr_1_1LLVMBasedBackwardICFG.html" target="_top" xlink:title="A class that represents a backwards interprocedural control flow graph. Conforms to the ICFGBase CRTP...">
<polygon fill="white" stroke="#666666" points="166.5,-19 2.5,-19 2.5,0 166.5,0 166.5,-19"/>
<text text-anchor="middle" x="84.5" y="-7" font-family="Helvetica,sans-Serif" font-size="10.00">psr::LLVMBasedBackwardICFG</text>
</a>
</g>
</g>
<!-- Node1&#45;&gt;Node7 -->
<g id="edge7_Node000001_Node000007" class="edge">
<title>Node1&#45;&gt;Node7</title>
<g id="a_edge7_Node000001_Node000007"><a xlink:title=" ">
<path fill="none" stroke="#63b8ff" d="M84.5,-45.3C84.5,-36.41 84.5,-26.28 84.5,-19.25"/>
<polygon fill="#63b8ff" stroke="#63b8ff" points="81,-45.58 84.5,-55.58 88,-45.58 81,-45.58"/>
</a>
</g>
</g>
<!-- Node2 -->
<g id="Node000002" class="node">
<title>Node2</title>
<g id="a_Node000002"><a xlink:title=" ">
<polygon fill="white" stroke="#666666" points="169,-142 0,-142 0,-112 169,-112 169,-142"/>
<text text-anchor="start" x="8" y="-130" font-family="Helvetica,sans-Serif" font-size="10.00">psr::detail::LLVMBasedCFGImpl</text>
<text text-anchor="middle" x="84.5" y="-119" font-family="Helvetica,sans-Serif" font-size="10.00">&lt; LLVMBasedBackwardCFG &gt;</text>
</a>
</g>
</g>
<!-- Node2&#45;&gt;Node1 -->
<g id="edge1_Node000001_Node000002" class="edge">
<title>Node2&#45;&gt;Node1</title>
<g id="a_edge1_Node000001_Node000002"><a xlink:title=" ">
<path fill="none" stroke="#63b8ff" d="M84.5,-101.79C84.5,-92.36 84.5,-82.15 84.5,-75.16"/>
<polygon fill="#63b8ff" stroke="#63b8ff" points="81,-101.9 84.5,-111.9 88,-101.9 81,-101.9"/>
</a>
</g>
</g>
<!-- Node3 -->
<g id="Node000003" class="node">
<title>Node3</title>
<g id="a_Node000003"><a xlink:href="classpsr_1_1CFGBase.html" target="_top" xlink:title=" ">
<polygon fill="white" stroke="#666666" points="146,-256 3,-256 3,-237 146,-237 146,-256"/>
<text text-anchor="middle" x="74.5" y="-244" font-family="Helvetica,sans-Serif" font-size="10.00">psr::CFGBase&lt; Derived &gt;</text>
</a>
</g>
</g>
<!-- Node3&#45;&gt;Node2 -->
<g id="edge2_Node000002_Node000003" class="edge">
<title>Node3&#45;&gt;Node2</title>
<g id="a_edge2_Node000002_Node000003"><a xlink:title=" ">
<path fill="none" stroke="#63b8ff" d="M76.11,-226.56C78.11,-203.03 81.49,-163.42 83.28,-142.29"/>
<polygon fill="#63b8ff" stroke="#63b8ff" points="72.61,-226.41 75.25,-236.67 79.59,-227 72.61,-226.41"/>
</a>
</g>
</g>
<!-- Node4 -->
<g id="Node000004" class="node">
<title>Node4</title>
<g id="a_Node000004"><a xlink:href="classpsr_1_1CRTPBase.html" target="_top" xlink:title=" ">
<polygon fill="white" stroke="#666666" points="163,-349 16,-349 16,-330 163,-330 163,-349"/>
<text text-anchor="middle" x="89.5" y="-337" font-family="Helvetica,sans-Serif" font-size="10.00">psr::CRTPBase&lt; Derived &gt;</text>
</a>
</g>
</g>
<!-- Node4&#45;&gt;Node3 -->
<g id="edge3_Node000003_Node000004" class="edge">
<title>Node4&#45;&gt;Node3</title>
<g id="a_edge3_Node000003_Node000004"><a xlink:title=" ">
<path fill="none" stroke="#63b8ff" d="M86.39,-319.64C83.18,-300.13 78.3,-270.53 75.91,-256.07"/>
<polygon fill="#63b8ff" stroke="#63b8ff" points="82.98,-320.48 88.06,-329.77 89.89,-319.34 82.98,-320.48"/>
</a>
</g>
</g>
<!-- Node6 -->
<g id="Node000006" class="node">
<title>Node6</title>
<g id="a_Node000006"><a xlink:href="classpsr_1_1CFGBase.html" target="_top" xlink:title=" ">
<polygon fill="white" stroke="#666666" points="250,-293 107,-293 107,-274 250,-274 250,-293"/>
<text text-anchor="middle" x="178.5" y="-281" font-family="Helvetica,sans-Serif" font-size="10.00">psr::CFGBase&lt; Derived &gt;</text>
</a>
</g>
</g>
<!-- Node4&#45;&gt;Node6 -->
<g id="edge6_Node000006_Node000004" class="edge">
<title>Node4&#45;&gt;Node6</title>
<g id="a_edge6_Node000006_Node000004"><a xlink:title=" ">
<path fill="none" stroke="#63b8ff" d="M112.74,-324.4C129.06,-314.5 150.37,-301.57 164.24,-293.15"/>
<polygon fill="#63b8ff" stroke="#63b8ff" points="110.53,-321.64 103.8,-329.82 114.16,-327.63 110.53,-321.64"/>
</a>
</g>
</g>
<!-- Node5 -->
<g id="Node000005" class="node">
<title>Node5</title>
<g id="a_Node000005"><a xlink:title=" ">
<polygon fill="white" stroke="#666666" points="265,-219 96,-219 96,-189 265,-189 265,-219"/>
<text text-anchor="start" x="104" y="-207" font-family="Helvetica,sans-Serif" font-size="10.00">psr::detail::LLVMBasedCFGImpl</text>
<text text-anchor="middle" x="180.5" y="-196" font-family="Helvetica,sans-Serif" font-size="10.00">&lt; Derived &gt;</text>
</a>
</g>
</g>
<!-- Node5&#45;&gt;Node2 -->
<g id="edge4_Node000002_Node000005" class="edge">
<title>Node5&#45;&gt;Node2</title>
<g id="a_edge4_Node000002_Node000005"><a xlink:title=" ">
<path fill="none" stroke="orange" stroke-dasharray="5,2" d="M154.29,-182.53C137.85,-169.68 117.07,-153.44 102.48,-142.04"/>
<polygon fill="orange" stroke="orange" points="152.41,-185.49 162.44,-188.89 156.72,-179.98 152.41,-185.49"/>
</a>
</g>
<text text-anchor="middle" x="212.5" y="-163" font-family="Helvetica,sans-Serif" font-size="10.00" fill="grey"> &lt; LLVMBasedBackwardCFG &gt;</text>
</g>
<!-- Node6&#45;&gt;Node5 -->
<g id="edge5_Node000005_Node000006" class="edge">
<title>Node6&#45;&gt;Node5</title>
<g id="a_edge5_Node000005_Node000006"><a xlink:title=" ">
<path fill="none" stroke="#63b8ff" d="M178.99,-263.68C179.34,-249.95 179.81,-231.63 180.14,-219.14"/>
<polygon fill="#63b8ff" stroke="#63b8ff" points="175.48,-263.82 178.72,-273.91 182.48,-264 175.48,-263.82"/>
</a>
</g>
</g>
</g>
</svg>
