<?xml version="1.0" encoding="UTF-8" standalone="no"?>
<!DOCTYPE svg PUBLIC "-//W3C//DTD SVG 1.1//EN"
 "http://www.w3.org/Graphics/SVG/1.1/DTD/svg11.dtd">
<!-- Generated by graphviz version 2.43.0 (0)
 -->
<!-- Title: psr::IFDSTabulationProblem&lt; AnalysisDomainTy, Container &gt; Pages: 1 -->
<svg width="1759pt" height="421pt"
 viewBox="0.00 0.00 1759.00 421.00" xmlns="http://www.w3.org/2000/svg" xmlns:xlink="http://www.w3.org/1999/xlink">
<g id="graph0" class="graph" transform="scale(1 1) rotate(0) translate(4 417)">
<title>psr::IFDSTabulationProblem&lt; AnalysisDomainTy, Container &gt;</title>
<!-- Node1 -->
<g id="Node000001" class="node">
<title>Node1</title>
<g id="a_Node000001"><a xlink:title="The analysis problem interface for IFDS problems (solvable by the IFDSSolver). Create a subclass from...">
<polygon fill="#999999" stroke="#666666" points="1117,-232.5 935,-232.5 935,-202.5 1117,-202.5 1117,-232.5"/>
<text text-anchor="start" x="943" y="-220.5" font-family="Helvetica,sans-Serif" font-size="10.00">psr::IFDSTabulationProblem</text>
<text text-anchor="middle" x="1026" y="-209.5" font-family="Helvetica,sans-Serif" font-size="10.00">&lt; AnalysisDomainTy, Container &gt;</text>
</a>
</g>
</g>
<!-- Node10 -->
<g id="Node000010" class="node">
<title>Node10</title>
<g id="a_Node000010"><a xlink:href="classpsr_1_1IFDSTabulationProblem.html" target="_top" xlink:title=" ">
<polygon fill="white" stroke="#666666" points="1511.5,-337.5 1331.5,-337.5 1331.5,-307.5 1511.5,-307.5 1511.5,-337.5"/>
<text text-anchor="start" x="1339.5" y="-325.5" font-family="Helvetica,sans-Serif" font-size="10.00">psr::IFDSTabulationProblem</text>
<text text-anchor="middle" x="1421.5" y="-314.5" font-family="Helvetica,sans-Serif" font-size="10.00">&lt; LLVMAnalysisDomainDefault &gt;</text>
</a>
</g>
</g>
<!-- Node1&#45;&gt;Node10 -->
<g id="edge9_Node000001_Node000010" class="edge">
<title>Node1&#45;&gt;Node10</title>
<g id="a_edge9_Node000001_Node000010"><a xlink:title=" ">
<path fill="none" stroke="orange" stroke-dasharray="5,2" d="M1093.33,-235.2C1169.36,-255.49 1292.69,-288.39 1364.23,-307.48"/>
<polygon fill="orange" stroke="orange" points="1093.94,-231.74 1083.38,-232.54 1092.14,-238.5 1093.94,-231.74"/>
</a>
</g>
<text text-anchor="middle" x="1218.5" y="-291.5" font-family="Helvetica,sans-Serif" font-size="10.00" fill="grey"> &lt; LLVMAnalysisDomainDefault &gt;</text>
</g>
<!-- Node12 -->
<g id="Node000012" class="node">
<title>Node12</title>
<g id="a_Node000012"><a xlink:href="classpsr_1_1IFDSTabulationProblem.html" target="_top" xlink:title=" ">
<polygon fill="white" stroke="#666666" points="1523,-209.5 1320,-209.5 1320,-179.5 1523,-179.5 1523,-209.5"/>
<text text-anchor="start" x="1328" y="-197.5" font-family="Helvetica,sans-Serif" font-size="10.00">psr::IFDSTabulationProblem</text>
<text text-anchor="middle" x="1421.5" y="-186.5" font-family="Helvetica,sans-Serif" font-size="10.00">&lt; LLVMIFDSAnalysisDomainDefault &gt;</text>
</a>
</g>
</g>
<!-- Node1&#45;&gt;Node12 -->
<g id="edge11_Node000001_Node000012" class="edge">
<title>Node1&#45;&gt;Node12</title>
<g id="a_edge11_Node000001_Node000012"><a xlink:title=" ">
<path fill="none" stroke="orange" stroke-dasharray="5,2" d="M1127.36,-211.63C1186.41,-208.18 1260.84,-203.83 1319.92,-200.38"/>
<polygon fill="orange" stroke="orange" points="1127.06,-208.15 1117.28,-212.22 1127.46,-215.13 1127.06,-208.15"/>
</a>
</g>
<text text-anchor="start" x="1147" y="-224.5" font-family="Helvetica,sans-Serif" font-size="10.00" fill="grey"> &lt; LLVMIFDSAnalysisDomain</text>
<text text-anchor="middle" x="1218.5" y="-213.5" font-family="Helvetica,sans-Serif" font-size="10.00" fill="grey">Default &gt;</text>
</g>
<!-- Node2 -->
<g id="Node000002" class="node">
<title>Node2</title>
<g id="a_Node000002"><a xlink:href="classpsr_1_1IDETabulationProblem.html" target="_top" xlink:title="The analysis problem interface for IDE problems (solvable by the IDESolver). Create a subclass from t...">
<polygon fill="white" stroke="#666666" points="898,-232.5 716,-232.5 716,-202.5 898,-202.5 898,-232.5"/>
<text text-anchor="start" x="724" y="-220.5" font-family="Helvetica,sans-Serif" font-size="10.00">psr::IDETabulationProblem</text>
<text text-anchor="middle" x="807" y="-209.5" font-family="Helvetica,sans-Serif" font-size="10.00">&lt; AnalysisDomainTy, Container &gt;</text>
</a>
</g>
</g>
<!-- Node2&#45;&gt;Node1 -->
<g id="edge1_Node000001_Node000002" class="edge">
<title>Node2&#45;&gt;Node1</title>
<g id="a_edge1_Node000001_Node000002"><a xlink:title=" ">
<path fill="none" stroke="#63b8ff" d="M908.42,-217.5C917.22,-217.5 926.08,-217.5 934.79,-217.5"/>
<polygon fill="#63b8ff" stroke="#63b8ff" points="908.14,-214 898.14,-217.5 908.14,-221 908.14,-214"/>
</a>
</g>
</g>
<!-- Node3 -->
<g id="Node000003" class="node">
<title>Node3</title>
<g id="a_Node000003"><a xlink:href="classpsr_1_1FlowFunctions.html" target="_top" xlink:title=" ">
<polygon fill="white" stroke="#666666" points="641,-340 520,-340 520,-299 641,-299 641,-340"/>
<text text-anchor="start" x="528" y="-328" font-family="Helvetica,sans-Serif" font-size="10.00">psr::FlowFunctions</text>
<text text-anchor="start" x="528" y="-317" font-family="Helvetica,sans-Serif" font-size="10.00">&lt; AnalysisDomainTy,</text>
<text text-anchor="middle" x="580.5" y="-306" font-family="Helvetica,sans-Serif" font-size="10.00"> Container &gt;</text>
</a>
</g>
</g>
<!-- Node3&#45;&gt;Node2 -->
<g id="edge2_Node000002_Node000003" class="edge">
<title>Node3&#45;&gt;Node2</title>
<g id="a_edge2_Node000002_Node000003"><a xlink:title=" ">
<path fill="none" stroke="#63b8ff" d="M650.63,-300.28C660.28,-297.01 669.97,-293.39 679,-289.5 716.94,-273.14 758.05,-248.42 782.92,-232.63"/>
<polygon fill="#63b8ff" stroke="#63b8ff" points="649.43,-296.99 641.02,-303.44 651.61,-303.64 649.43,-296.99"/>
</a>
</g>
</g>
<!-- Node4 -->
<g id="Node000004" class="node">
<title>Node4</title>
<g id="a_Node000004"><a xlink:href="classpsr_1_1FlowFunctionTemplates.html" target="_top" xlink:title=" ">
<polygon fill="white" stroke="#666666" points="445,-340 293,-340 293,-299 445,-299 445,-340"/>
<text text-anchor="start" x="301" y="-328" font-family="Helvetica,sans-Serif" font-size="10.00">psr::FlowFunctionTemplates</text>
<text text-anchor="start" x="301" y="-317" font-family="Helvetica,sans-Serif" font-size="10.00">&lt; AnalysisDomainTy::d_t,</text>
<text text-anchor="middle" x="369" y="-306" font-family="Helvetica,sans-Serif" font-size="10.00"> Container &gt;</text>
</a>
</g>
</g>
<!-- Node4&#45;&gt;Node3 -->
<g id="edge3_Node000003_Node000004" class="edge">
<title>Node4&#45;&gt;Node3</title>
<g id="a_edge3_Node000003_Node000004"><a xlink:title=" ">
<path fill="none" stroke="darkgreen" d="M455.22,-319.5C476.87,-319.5 499.67,-319.5 519.75,-319.5"/>
<polygon fill="darkgreen" stroke="darkgreen" points="455.04,-316 445.04,-319.5 455.04,-323 455.04,-316"/>
</a>
</g>
</g>
<!-- Node5 -->
<g id="Node000005" class="node">
<title>Node5</title>
<g id="a_Node000005"><a xlink:href="classpsr_1_1FlowFunctionTemplates.html" target="_top" xlink:title=" ">
<polygon fill="white" stroke="#666666" points="152,-334.5 0,-334.5 0,-304.5 152,-304.5 152,-334.5"/>
<text text-anchor="start" x="8" y="-322.5" font-family="Helvetica,sans-Serif" font-size="10.00">psr::FlowFunctionTemplates</text>
<text text-anchor="middle" x="76" y="-311.5" font-family="Helvetica,sans-Serif" font-size="10.00">&lt; D, Container &gt;</text>
</a>
</g>
</g>
<!-- Node5&#45;&gt;Node4 -->
<g id="edge4_Node000004_Node000005" class="edge">
<title>Node5&#45;&gt;Node4</title>
<g id="a_edge4_Node000004_Node000005"><a xlink:title=" ">
<path fill="none" stroke="orange" stroke-dasharray="5,2" d="M162.39,-319.5C203.79,-319.5 253.06,-319.5 293,-319.5"/>
<polygon fill="orange" stroke="orange" points="162.32,-316 152.32,-319.5 162.32,-323 162.32,-316"/>
</a>
</g>
<text text-anchor="start" x="170" y="-333.5" font-family="Helvetica,sans-Serif" font-size="10.00" fill="grey"> &lt; AnalysisDomainTy</text>
<text text-anchor="middle" x="222.5" y="-322.5" font-family="Helvetica,sans-Serif" font-size="10.00" fill="grey">::d_t, Container &gt;</text>
</g>
<!-- Node6 -->
<g id="Node000006" class="node">
<title>Node6</title>
<g id="a_Node000006"><a xlink:href="classpsr_1_1EdgeFunctions.html" target="_top" xlink:title=" ">
<polygon fill="white" stroke="#666666" points="645,-280.5 516,-280.5 516,-250.5 645,-250.5 645,-280.5"/>
<text text-anchor="start" x="524" y="-268.5" font-family="Helvetica,sans-Serif" font-size="10.00">psr::EdgeFunctions</text>
<text text-anchor="middle" x="580.5" y="-257.5" font-family="Helvetica,sans-Serif" font-size="10.00">&lt; AnalysisDomainTy &gt;</text>
</a>
</g>
</g>
<!-- Node6&#45;&gt;Node2 -->
<g id="edge5_Node000002_Node000006" class="edge">
<title>Node6&#45;&gt;Node2</title>
<g id="a_edge5_Node000002_Node000006"><a xlink:title=" ">
<path fill="none" stroke="#63b8ff" d="M655.02,-249.78C680.99,-244.23 710.11,-238 735.8,-232.51"/>
<polygon fill="#63b8ff" stroke="#63b8ff" points="654.28,-246.36 645.23,-251.87 655.74,-253.21 654.28,-246.36"/>
</a>
</g>
</g>
<!-- Node7 -->
<g id="Node000007" class="node">
<title>Node7</title>
<g id="a_Node000007"><a xlink:href="classpsr_1_1JoinLattice_3_01AnalysisDomainTy_01_4.html" target="_top" xlink:title=" ">
<polygon fill="white" stroke="#666666" points="651,-232.5 510,-232.5 510,-202.5 651,-202.5 651,-232.5"/>
<text text-anchor="start" x="518" y="-220.5" font-family="Helvetica,sans-Serif" font-size="10.00">psr::JoinLattice&lt; Analysis</text>
<text text-anchor="middle" x="580.5" y="-209.5" font-family="Helvetica,sans-Serif" font-size="10.00">DomainTy &gt;</text>
</a>
</g>
</g>
<!-- Node7&#45;&gt;Node2 -->
<g id="edge6_Node000002_Node000007" class="edge">
<title>Node7&#45;&gt;Node2</title>
<g id="a_edge6_Node000002_Node000007"><a xlink:title=" ">
<path fill="none" stroke="#63b8ff" d="M661.54,-217.5C679.18,-217.5 697.98,-217.5 715.98,-217.5"/>
<polygon fill="#63b8ff" stroke="#63b8ff" points="661.3,-214 651.3,-217.5 661.3,-221 661.3,-214"/>
</a>
</g>
</g>
<!-- Node8 -->
<g id="Node000008" class="node">
<title>Node8</title>
<g id="a_Node000008"><a xlink:href="classpsr_1_1SemiRing.html" target="_top" xlink:title=" ">
<polygon fill="white" stroke="#666666" points="679,-184 482,-184 482,-165 679,-165 679,-184"/>
<text text-anchor="middle" x="580.5" y="-172" font-family="Helvetica,sans-Serif" font-size="10.00">psr::SemiRing&lt; AnalysisDomainTy &gt;</text>
</a>
</g>
</g>
<!-- Node8&#45;&gt;Node2 -->
<g id="edge7_Node000002_Node000008" class="edge">
<title>Node8&#45;&gt;Node2</title>
<g id="a_edge7_Node000002_Node000008"><a xlink:title=" ">
<path fill="none" stroke="#63b8ff" d="M641.22,-185.94C667.73,-191.02 699.29,-197.06 727.65,-202.49"/>
<polygon fill="#63b8ff" stroke="#63b8ff" points="641.8,-182.49 631.32,-184.04 640.49,-189.36 641.8,-182.49"/>
</a>
</g>
</g>
<!-- Node9 -->
<g id="Node000009" class="node">
<title>Node9</title>
<g id="a_Node000009"><a xlink:href="classpsr_1_1AllTopFnProvider_3_01AnalysisDomainTy_01_4.html" target="_top" xlink:title=" ">
<polygon fill="white" stroke="#666666" points="645,-146.5 516,-146.5 516,-116.5 645,-116.5 645,-146.5"/>
<text text-anchor="start" x="524" y="-134.5" font-family="Helvetica,sans-Serif" font-size="10.00">psr::AllTopFnProvider</text>
<text text-anchor="middle" x="580.5" y="-123.5" font-family="Helvetica,sans-Serif" font-size="10.00">&lt; AnalysisDomainTy &gt;</text>
</a>
</g>
</g>
<!-- Node9&#45;&gt;Node2 -->
<g id="edge8_Node000002_Node000009" class="edge">
<title>Node9&#45;&gt;Node2</title>
<g id="a_edge8_Node000002_Node000009"><a xlink:title=" ">
<path fill="none" stroke="#63b8ff" d="M654.88,-148.65C663.09,-151.06 671.27,-153.68 679,-156.5 714.39,-169.39 753.16,-188.85 778.44,-202.31"/>
<polygon fill="#63b8ff" stroke="#63b8ff" points="655.83,-145.28 645.25,-145.92 653.92,-152.01 655.83,-145.28"/>
</a>
</g>
</g>
<!-- Node11 -->
<g id="Node000011" class="node">
<title>Node11</title>
<g id="a_Node000011"><a xlink:href="classpsr_1_1DefaultAliasAwareIFDSProblem.html" target="_top" xlink:title=" ">
<polygon fill="white" stroke="#666666" points="1751,-413 1560,-413 1560,-394 1751,-394 1751,-413"/>
<text text-anchor="middle" x="1655.5" y="-401" font-family="Helvetica,sans-Serif" font-size="10.00">psr::DefaultAliasAwareIFDSProblem</text>
</a>
</g>
</g>
<!-- Node10&#45;&gt;Node11 -->
<g id="edge10_Node000010_Node000011" class="edge">
<title>Node10&#45;&gt;Node11</title>
<g id="a_edge10_Node000010_Node000011"><a xlink:title=" ">
<path fill="none" stroke="#63b8ff" d="M1459.86,-342.11C1487.01,-355.68 1524.99,-373.25 1560,-384.5 1571.63,-388.24 1584.31,-391.39 1596.5,-393.98"/>
<polygon fill="#63b8ff" stroke="#63b8ff" points="1461.23,-338.89 1450.73,-337.5 1458.07,-345.13 1461.23,-338.89"/>
</a>
</g>
</g>
<!-- Node13 -->
<g id="Node000013" class="node">
<title>Node13</title>
<g id="a_Node000013"><a xlink:href="classpsr_1_1DefaultAllocSitesAwareIFDSProblem.html" target="_top" xlink:title=" ">
<polygon fill="white" stroke="#666666" points="1731.5,-375.5 1579.5,-375.5 1579.5,-345.5 1731.5,-345.5 1731.5,-375.5"/>
<text text-anchor="start" x="1587.5" y="-363.5" font-family="Helvetica,sans-Serif" font-size="10.00">psr::DefaultAllocSitesAware</text>
<text text-anchor="middle" x="1655.5" y="-352.5" font-family="Helvetica,sans-Serif" font-size="10.00">IFDSProblem</text>
</a>
</g>
</g>
<!-- Node12&#45;&gt;Node13 -->
<g id="edge12_Node000012_Node000013" class="edge">
<title>Node12&#45;&gt;Node13</title>
<g id="a_edge12_Node000012_Node000013"><a xlink:title=" ">
<path fill="none" stroke="#63b8ff" d="M1444.27,-217.06C1482.81,-256.99 1559.11,-335.99 1560,-336.5 1566.01,-339.98 1572.51,-342.96 1579.2,-345.51"/>
<polygon fill="#63b8ff" stroke="#63b8ff" points="1446.56,-214.39 1437.1,-209.63 1441.52,-219.25 1446.56,-214.39"/>
</a>
</g>
</g>
<!-- Node14 -->
<g id="Node000014" class="node">
<title>Node14</title>
<g id="a_Node000014"><a xlink:href="classpsr_1_1DefaultNoAliasIFDSProblem.html" target="_top" xlink:title=" ">
<polygon fill="white" stroke="#666666" points="1742.5,-327 1568.5,-327 1568.5,-308 1742.5,-308 1742.5,-327"/>
<text text-anchor="middle" x="1655.5" y="-315" font-family="Helvetica,sans-Serif" font-size="10.00">psr::DefaultNoAliasIFDSProblem</text>
</a>
</g>
</g>
<!-- Node12&#45;&gt;Node14 -->
<g id="edge13_Node000012_Node000014" class="edge">
<title>Node12&#45;&gt;Node14</title>
<g id="a_edge13_Node000012_Node000014"><a xlink:title=" ">
<path fill="none" stroke="#63b8ff" d="M1444.81,-216.53C1470.41,-240.5 1514.74,-278.12 1560,-298.5 1568.62,-302.38 1578.04,-305.47 1587.49,-307.94"/>
<polygon fill="#63b8ff" stroke="#63b8ff" points="1447.14,-213.92 1437.48,-209.56 1442.32,-218.99 1447.14,-213.92"/>
</a>
</g>
</g>
<!-- Node15 -->
<g id="Node000015" class="node">
<title>Node15</title>
<g id="a_Node000015"><a xlink:href="classpsr_1_1DefaultReachableAllocationSitesIFDSProblem.html" target="_top" xlink:title=" ">
<polygon fill="white" stroke="#666666" points="1742,-289.5 1569,-289.5 1569,-259.5 1742,-259.5 1742,-289.5"/>
<text text-anchor="start" x="1577" y="-277.5" font-family="Helvetica,sans-Serif" font-size="10.00">psr::DefaultReachableAllocation</text>
<text text-anchor="middle" x="1655.5" y="-266.5" font-family="Helvetica,sans-Serif" font-size="10.00">SitesIFDSProblem</text>
</a>
</g>
</g>
<!-- Node12&#45;&gt;Node15 -->
<g id="edge14_Node000012_Node000015" class="edge">
<title>Node12&#45;&gt;Node15</title>
<g id="a_edge14_Node000012_Node000015"><a xlink:title=" ">
<path fill="none" stroke="#63b8ff" d="M1465.12,-213.64C1491.99,-225.26 1527.62,-239.85 1560,-250.5 1569.73,-253.7 1580.14,-256.73 1590.36,-259.49"/>
<polygon fill="#63b8ff" stroke="#63b8ff" points="1466.21,-210.29 1455.64,-209.51 1463.41,-216.71 1466.21,-210.29"/>
</a>
</g>
</g>
<!-- Node16 -->
<g id="Node000016" class="node">
<title>Node16</title>
<g id="a_Node000016"><a xlink:href="classpsr_1_1IFDSConstAnalysis.html" target="_top" xlink:title="Computes all possibly mutable memory locations.">
<polygon fill="white" stroke="#666666" points="1720,-241 1591,-241 1591,-222 1720,-222 1720,-241"/>
<text text-anchor="middle" x="1655.5" y="-229" font-family="Helvetica,sans-Serif" font-size="10.00">psr::IFDSConstAnalysis</text>
</a>
</g>
</g>
<!-- Node12&#45;&gt;Node16 -->
<g id="edge15_Node000012_Node000016" class="edge">
<title>Node12&#45;&gt;Node16</title>
<g id="a_edge15_Node000012_Node000016"><a xlink:title=" ">
<path fill="none" stroke="#63b8ff" d="M1526.8,-211.13C1550.11,-214.85 1574.06,-218.67 1594.83,-221.98"/>
<polygon fill="#63b8ff" stroke="#63b8ff" points="1527.29,-207.67 1516.86,-209.55 1526.19,-214.58 1527.29,-207.67"/>
</a>
</g>
</g>
<!-- Node17 -->
<g id="Node000017" class="node">
<title>Node17</title>
<g id="a_Node000017"><a xlink:href="classpsr_1_1IFDSProtoAnalysis.html" target="_top" xlink:title=" ">
<polygon fill="white" stroke="#666666" points="1719,-204 1592,-204 1592,-185 1719,-185 1719,-204"/>
<text text-anchor="middle" x="1655.5" y="-192" font-family="Helvetica,sans-Serif" font-size="10.00">psr::IFDSProtoAnalysis</text>
</a>
</g>
</g>
<!-- Node12&#45;&gt;Node17 -->
<g id="edge16_Node000012_Node000017" class="edge">
<title>Node12&#45;&gt;Node17</title>
<g id="a_edge16_Node000012_Node000017"><a xlink:title=" ">
<path fill="none" stroke="#63b8ff" d="M1533.41,-194.5C1553.53,-194.5 1573.86,-194.5 1591.96,-194.5"/>
<polygon fill="#63b8ff" stroke="#63b8ff" points="1533.25,-191 1523.25,-194.5 1533.25,-198 1533.25,-191"/>
</a>
</g>
</g>
<!-- Node18 -->
<g id="Node000018" class="node">
<title>Node18</title>
<g id="a_Node000018"><a xlink:href="classpsr_1_1IFDSSignAnalysis.html" target="_top" xlink:title=" ">
<polygon fill="white" stroke="#666666" points="1716.5,-167 1594.5,-167 1594.5,-148 1716.5,-148 1716.5,-167"/>
<text text-anchor="middle" x="1655.5" y="-155" font-family="Helvetica,sans-Serif" font-size="10.00">psr::IFDSSignAnalysis</text>
</a>
</g>
</g>
<!-- Node12&#45;&gt;Node18 -->
<g id="edge17_Node000012_Node000018" class="edge">
<title>Node12&#45;&gt;Node18</title>
<g id="a_edge17_Node000012_Node000018"><a xlink:title=" ">
<path fill="none" stroke="#63b8ff" d="M1526.8,-177.87C1550.11,-174.15 1574.06,-170.33 1594.83,-167.02"/>
<polygon fill="#63b8ff" stroke="#63b8ff" points="1526.19,-174.42 1516.86,-179.45 1527.29,-181.33 1526.19,-174.42"/>
</a>
</g>
</g>
<!-- Node19 -->
<g id="Node000019" class="node">
<title>Node19</title>
<g id="a_Node000019"><a xlink:href="classpsr_1_1IFDSSolverTest.html" target="_top" xlink:title=" ">
<polygon fill="white" stroke="#666666" points="1710.5,-130 1600.5,-130 1600.5,-111 1710.5,-111 1710.5,-130"/>
<text text-anchor="middle" x="1655.5" y="-118" font-family="Helvetica,sans-Serif" font-size="10.00">psr::IFDSSolverTest</text>
</a>
</g>
</g>
<!-- Node12&#45;&gt;Node19 -->
<g id="edge18_Node000012_Node000019" class="edge">
<title>Node12&#45;&gt;Node19</title>
<g id="a_edge18_Node000012_Node000019"><a xlink:title=" ">
<path fill="none" stroke="#63b8ff" d="M1463.48,-175.31C1490.42,-163.32 1526.72,-148.34 1560,-138.5 1572.81,-134.71 1586.85,-131.53 1600.09,-128.95"/>
<polygon fill="#63b8ff" stroke="#63b8ff" points="1462.04,-172.12 1454.36,-179.41 1464.91,-178.5 1462.04,-172.12"/>
</a>
</g>
</g>
<!-- Node20 -->
<g id="Node000020" class="node">
<title>Node20</title>
<g id="a_Node000020"><a xlink:href="classpsr_1_1IFDSTaintAnalysis.html" target="_top" xlink:title=" ">
<polygon fill="white" stroke="#666666" points="1718,-93 1593,-93 1593,-74 1718,-74 1718,-93"/>
<text text-anchor="middle" x="1655.5" y="-81" font-family="Helvetica,sans-Serif" font-size="10.00">psr::IFDSTaintAnalysis</text>
</a>
</g>
</g>
<!-- Node12&#45;&gt;Node20 -->
<g id="edge19_Node000012_Node000020" class="edge">
<title>Node12&#45;&gt;Node20</title>
<g id="a_edge19_Node000012_Node000020"><a xlink:title=" ">
<path fill="none" stroke="#63b8ff" d="M1447.72,-172.74C1473.99,-151.27 1517.21,-119.16 1560,-101.5 1570.34,-97.23 1581.75,-93.96 1592.94,-91.47"/>
<polygon fill="#63b8ff" stroke="#63b8ff" points="1445.27,-170.23 1439.81,-179.31 1449.74,-175.62 1445.27,-170.23"/>
</a>
</g>
</g>
<!-- Node21 -->
<g id="Node000021" class="node">
<title>Node21</title>
<g id="a_Node000021"><a xlink:href="classpsr_1_1IFDSTypeAnalysis.html" target="_top" xlink:title=" ">
<polygon fill="white" stroke="#666666" points="1717.5,-56 1593.5,-56 1593.5,-37 1717.5,-37 1717.5,-56"/>
<text text-anchor="middle" x="1655.5" y="-44" font-family="Helvetica,sans-Serif" font-size="10.00">psr::IFDSTypeAnalysis</text>
</a>
</g>
</g>
<!-- Node12&#45;&gt;Node21 -->
<g id="edge20_Node000012_Node000021" class="edge">
<title>Node12&#45;&gt;Node21</title>
<g id="a_edge20_Node000012_Node000021"><a xlink:title=" ">
<path fill="none" stroke="#63b8ff" d="M1440.19,-170.96C1463.96,-141.14 1509.16,-90.51 1560,-64.5 1570.26,-59.25 1581.85,-55.53 1593.32,-52.88"/>
<polygon fill="#63b8ff" stroke="#63b8ff" points="1437.19,-169.11 1433.79,-179.14 1442.71,-173.42 1437.19,-169.11"/>
</a>
</g>
</g>
<!-- Node22 -->
<g id="Node000022" class="node">
<title>Node22</title>
<g id="a_Node000022"><a xlink:href="classpsr_1_1IFDSUninitializedVariables.html" target="_top" xlink:title=" ">
<polygon fill="white" stroke="#666666" points="1739,-19 1572,-19 1572,0 1739,0 1739,-19"/>
<text text-anchor="middle" x="1655.5" y="-7" font-family="Helvetica,sans-Serif" font-size="10.00">psr::IFDSUninitializedVariables</text>
</a>
</g>
</g>
<!-- Node12&#45;&gt;Node22 -->
<g id="edge21_Node000012_Node000022" class="edge">
<title>Node12&#45;&gt;Node22</title>
<g id="a_edge21_Node000012_Node000022"><a xlink:title=" ">
<path fill="none" stroke="#63b8ff" d="M1435.2,-170.14C1455.95,-132.93 1500.84,-62.57 1560,-27.5 1565.75,-24.09 1572,-21.31 1578.47,-19.04"/>
<polygon fill="#63b8ff" stroke="#63b8ff" points="1431.93,-168.81 1430.22,-179.27 1438.08,-172.17 1431.93,-168.81"/>
</a>
</g>
</g>
</g>
</svg>
