<?xml version="1.0" encoding="UTF-8" standalone="no"?>
<!DOCTYPE svg PUBLIC "-//W3C//DTD SVG 1.1//EN"
 "http://www.w3.org/Graphics/SVG/1.1/DTD/svg11.dtd">
<!-- Generated by graphviz version 2.43.0 (0)
 -->
<!-- Title: psr::IdBasedSolverResults&lt; N, D, L &gt; Pages: 1 -->
<svg width="682pt" height="51pt"
 viewBox="0.00 0.00 682.00 50.50" xmlns="http://www.w3.org/2000/svg" xmlns:xlink="http://www.w3.org/1999/xlink">
<g id="graph0" class="graph" transform="scale(1 1) rotate(0) translate(4 46.5)">
<title>psr::IdBasedSolverResults&lt; N, D, L &gt;</title>
<!-- Node1 -->
<g id="Node000001" class="node">
<title>Node1</title>
<g id="a_Node000001"><a xlink:title=" ">
<polygon fill="#999999" stroke="#666666" points="674,-35.5 531,-35.5 531,-5.5 674,-5.5 674,-35.5"/>
<text text-anchor="start" x="539" y="-23.5" font-family="Helvetica,sans-Serif" font-size="10.00">psr::IdBasedSolverResults</text>
<text text-anchor="middle" x="602.5" y="-12.5" font-family="Helvetica,sans-Serif" font-size="10.00">&lt; N, D, L &gt;</text>
</a>
</g>
</g>
<!-- Node2 -->
<g id="Node000002" class="node">
<title>Node2</title>
<g id="a_Node000002"><a xlink:title=" ">
<polygon fill="white" stroke="#666666" points="494,-41 300,-41 300,0 494,0 494,-41"/>
<text text-anchor="start" x="308" y="-29" font-family="Helvetica,sans-Serif" font-size="10.00">psr::detail::IdBasedSolver</text>
<text text-anchor="start" x="308" y="-18" font-family="Helvetica,sans-Serif" font-size="10.00">ResultsBase&lt; IdBasedSolverResults</text>
<text text-anchor="middle" x="397" y="-7" font-family="Helvetica,sans-Serif" font-size="10.00">&lt; N, D, L &gt;, N, D, L &gt;</text>
</a>
</g>
</g>
<!-- Node2&#45;&gt;Node1 -->
<g id="edge1_Node000001_Node000002" class="edge">
<title>Node2&#45;&gt;Node1</title>
<g id="a_edge1_Node000001_Node000002"><a xlink:title=" ">
<path fill="none" stroke="#63b8ff" d="M504.23,-20.5C513.21,-20.5 522.14,-20.5 530.74,-20.5"/>
<polygon fill="#63b8ff" stroke="#63b8ff" points="504.09,-17 494.09,-20.5 504.09,-24 504.09,-17"/>
</a>
</g>
</g>
<!-- Node3 -->
<g id="Node000003" class="node">
<title>Node3</title>
<g id="a_Node000003"><a xlink:title=" ">
<polygon fill="white" stroke="#666666" points="143,-41 0,-41 0,0 143,0 143,-41"/>
<text text-anchor="start" x="8" y="-29" font-family="Helvetica,sans-Serif" font-size="10.00">psr::detail::IdBasedSolver</text>
<text text-anchor="start" x="8" y="-18" font-family="Helvetica,sans-Serif" font-size="10.00">ResultsBase&lt; Derived, N,</text>
<text text-anchor="middle" x="71.5" y="-7" font-family="Helvetica,sans-Serif" font-size="10.00"> D, L &gt;</text>
</a>
</g>
</g>
<!-- Node3&#45;&gt;Node2 -->
<g id="edge2_Node000002_Node000003" class="edge">
<title>Node3&#45;&gt;Node2</title>
<g id="a_edge2_Node000002_Node000003"><a xlink:title=" ">
<path fill="none" stroke="orange" stroke-dasharray="5,2" d="M153.27,-20.5C197.7,-20.5 253.12,-20.5 299.79,-20.5"/>
<polygon fill="orange" stroke="orange" points="153.09,-17 143.09,-20.5 153.09,-24 153.09,-17"/>
</a>
</g>
<text text-anchor="start" x="161" y="-34.5" font-family="Helvetica,sans-Serif" font-size="10.00" fill="grey"> &lt; IdBasedSolverResults</text>
<text text-anchor="middle" x="221.5" y="-23.5" font-family="Helvetica,sans-Serif" font-size="10.00" fill="grey">&lt; N, D, L &gt;, N, D, L &gt;</text>
</g>
</g>
</svg>
