<?xml version="1.0" encoding="UTF-8" standalone="no"?>
<!DOCTYPE svg PUBLIC "-//W3C//DTD SVG 1.1//EN"
 "http://www.w3.org/Graphics/SVG/1.1/DTD/svg11.dtd">
<!-- Generated by graphviz version 2.43.0 (0)
 -->
<!-- Title: psr::EdgeFunctionBase Pages: 1 -->
<svg width="546pt" height="159pt"
 viewBox="0.00 0.00 546.00 159.00" xmlns="http://www.w3.org/2000/svg" xmlns:xlink="http://www.w3.org/1999/xlink">
<g id="graph0" class="graph" transform="scale(1 1) rotate(0) translate(4 155)">
<title>psr::EdgeFunctionBase</title>
<!-- Node1 -->
<g id="Node000001" class="node">
<title>Node1</title>
<g id="a_Node000001"><a xlink:title=" ">
<polygon fill="#999999" stroke="#666666" points="127,-86.5 0,-86.5 0,-67.5 127,-67.5 127,-86.5"/>
<text text-anchor="middle" x="63.5" y="-74.5" font-family="Helvetica,sans-Serif" font-size="10.00">psr::EdgeFunctionBase</text>
</a>
</g>
</g>
<!-- Node2 -->
<g id="Node000002" class="node">
<title>Node2</title>
<g id="a_Node000002"><a xlink:href="classpsr_1_1EdgeFunction.html" target="_top" xlink:title=" ">
<polygon fill="white" stroke="#666666" points="538,-151 427,-151 427,-121 538,-121 538,-151"/>
<text text-anchor="start" x="435" y="-139" font-family="Helvetica,sans-Serif" font-size="10.00">psr::EdgeFunction&lt;</text>
<text text-anchor="middle" x="482.5" y="-128" font-family="Helvetica,sans-Serif" font-size="10.00"> l_t &gt;</text>
</a>
</g>
</g>
<!-- Node1&#45;&gt;Node2 -->
<g id="edge1_Node000001_Node000002" class="edge">
<title>Node1&#45;&gt;Node2</title>
<g id="a_edge1_Node000001_Node000002"><a xlink:title=" ">
<path fill="none" stroke="#8b1a1a" d="M94.66,-90.5C114.1,-98.7 140.13,-108.76 164,-115 269.77,-142.65 299.68,-137.75 409,-137 414.79,-136.96 420.84,-136.9 426.87,-136.83"/>
<polygon fill="#8b1a1a" stroke="#8b1a1a" points="95.98,-87.25 85.41,-86.53 93.22,-93.69 95.98,-87.25"/>
</a>
</g>
</g>
<!-- Node3 -->
<g id="Node000003" class="node">
<title>Node3</title>
<g id="a_Node000003"><a xlink:href="classpsr_1_1EdgeFunction.html" target="_top" xlink:title=" ">
<polygon fill="white" stroke="#666666" points="538,-94 427,-94 427,-64 538,-64 538,-94"/>
<text text-anchor="start" x="435" y="-82" font-family="Helvetica,sans-Serif" font-size="10.00">psr::EdgeFunction&lt;</text>
<text text-anchor="middle" x="482.5" y="-71" font-family="Helvetica,sans-Serif" font-size="10.00"> BinaryDomain &gt;</text>
</a>
</g>
</g>
<!-- Node1&#45;&gt;Node3 -->
<g id="edge2_Node000001_Node000003" class="edge">
<title>Node1&#45;&gt;Node3</title>
<g id="a_edge2_Node000001_Node000003"><a xlink:title=" ">
<path fill="none" stroke="#8b1a1a" d="M137.15,-77.3C182.53,-77.49 242.17,-77.74 295,-78 339.36,-78.22 389.65,-78.49 426.82,-78.69"/>
<polygon fill="#8b1a1a" stroke="#8b1a1a" points="137.13,-73.8 127.11,-77.25 137.1,-80.8 137.13,-73.8"/>
</a>
</g>
</g>
<!-- Node4 -->
<g id="Node000004" class="node">
<title>Node4</title>
<g id="a_Node000004"><a xlink:href="classpsr_1_1EdgeFunction.html" target="_top" xlink:title="Ref&#45;counted and type&#45;erased edge function with small&#45;object optimization. Supports caching.">
<polygon fill="white" stroke="#666666" points="295,-105.5 164,-105.5 164,-86.5 295,-86.5 295,-105.5"/>
<text text-anchor="middle" x="229.5" y="-93.5" font-family="Helvetica,sans-Serif" font-size="10.00">psr::EdgeFunction&lt; L &gt;</text>
</a>
</g>
</g>
<!-- Node1&#45;&gt;Node4 -->
<g id="edge3_Node000001_Node000004" class="edge">
<title>Node1&#45;&gt;Node4</title>
<g id="a_edge3_Node000001_Node000004"><a xlink:title=" ">
<path fill="none" stroke="#8b1a1a" d="M137.61,-85.47C146.35,-86.48 155.22,-87.51 163.83,-88.51"/>
<polygon fill="#8b1a1a" stroke="#8b1a1a" points="137.77,-81.97 127.44,-84.29 136.97,-88.92 137.77,-81.97"/>
</a>
</g>
</g>
<!-- Node5 -->
<g id="Node000005" class="node">
<title>Node5</title>
<g id="a_Node000005"><a xlink:href="classpsr_1_1EdgeFunctionRef.html" target="_top" xlink:title="Non&#45;null reference to an edge function that is guarenteed to be managed by an EdgeFunction object.">
<polygon fill="white" stroke="#666666" points="289,-30 170,-30 170,0 289,0 289,-30"/>
<text text-anchor="start" x="178" y="-18" font-family="Helvetica,sans-Serif" font-size="10.00">psr::EdgeFunctionRef</text>
<text text-anchor="middle" x="229.5" y="-7" font-family="Helvetica,sans-Serif" font-size="10.00">&lt; EF &gt;</text>
</a>
</g>
</g>
<!-- Node1&#45;&gt;Node5 -->
<g id="edge6_Node000001_Node000005" class="edge">
<title>Node1&#45;&gt;Node5</title>
<g id="a_edge6_Node000001_Node000005"><a xlink:title=" ">
<path fill="none" stroke="#8b1a1a" d="M96.56,-63.39C111.25,-57.27 128.93,-50.08 145,-44 157.49,-39.28 171.13,-34.41 183.7,-30.05"/>
<polygon fill="#8b1a1a" stroke="#8b1a1a" points="94.8,-60.33 86.92,-67.42 97.5,-66.79 94.8,-60.33"/>
</a>
</g>
</g>
<!-- Node4&#45;&gt;Node2 -->
<g id="edge4_Node000004_Node000002" class="edge">
<title>Node4&#45;&gt;Node2</title>
<g id="a_edge4_Node000004_Node000002"><a xlink:title=" ">
<path fill="none" stroke="orange" stroke-dasharray="5,2" d="M300.25,-107.12C340.25,-113.49 389.72,-121.37 426.87,-127.29"/>
<polygon fill="orange" stroke="orange" points="300.73,-103.65 290.3,-105.53 299.63,-110.56 300.73,-103.65"/>
</a>
</g>
<text text-anchor="middle" x="361" y="-127" font-family="Helvetica,sans-Serif" font-size="10.00" fill="grey"> &lt; l_t &gt;</text>
</g>
<!-- Node4&#45;&gt;Node3 -->
<g id="edge5_Node000004_Node000003" class="edge">
<title>Node4&#45;&gt;Node3</title>
<g id="a_edge5_Node000004_Node000003"><a xlink:title=" ">
<path fill="none" stroke="orange" stroke-dasharray="5,2" d="M305.4,-90.93C344.42,-88.28 391.28,-85.11 426.85,-82.7"/>
<polygon fill="orange" stroke="orange" points="304.88,-87.45 295.14,-91.62 305.35,-94.44 304.88,-87.45"/>
</a>
</g>
<text text-anchor="middle" x="361" y="-93" font-family="Helvetica,sans-Serif" font-size="10.00" fill="grey"> &lt; BinaryDomain &gt;</text>
</g>
</g>
</svg>
