<?xml version="1.0" encoding="UTF-8" standalone="no"?>
<!DOCTYPE svg PUBLIC "-//W3C//DTD SVG 1.1//EN"
 "http://www.w3.org/Graphics/SVG/1.1/DTD/svg11.dtd">
<!-- Generated by graphviz version 2.43.0 (0)
 -->
<!-- Title: psr::DefaultAllocSitesAwareIDEProblem&lt; AnalysisDomainTy &gt; Pages: 1 -->
<svg width="1129pt" height="281pt"
 viewBox="0.00 0.00 1129.00 281.00" xmlns="http://www.w3.org/2000/svg" xmlns:xlink="http://www.w3.org/1999/xlink">
<g id="graph0" class="graph" transform="scale(1 1) rotate(0) translate(4 277)">
<title>psr::DefaultAllocSitesAwareIDEProblem&lt; AnalysisDomainTy &gt;</title>
<!-- Node1 -->
<g id="Node000001" class="node">
<title>Node1</title>
<g id="a_Node000001"><a xlink:title=" ">
<polygon fill="#999999" stroke="#666666" points="1121,-96 935,-96 935,-66 1121,-66 1121,-96"/>
<text text-anchor="start" x="943" y="-84" font-family="Helvetica,sans-Serif" font-size="10.00">psr::DefaultAllocSitesAware</text>
<text text-anchor="middle" x="1028" y="-73" font-family="Helvetica,sans-Serif" font-size="10.00">IDEProblem&lt; AnalysisDomainTy &gt;</text>
</a>
</g>
</g>
<!-- Node2 -->
<g id="Node000002" class="node">
<title>Node2</title>
<g id="a_Node000002"><a xlink:href="classpsr_1_1IDETabulationProblem.html" target="_top" xlink:title="The analysis problem interface for IDE problems (solvable by the IDESolver). Create a subclass from t...">
<polygon fill="white" stroke="#666666" points="898,-142 716,-142 716,-112 898,-112 898,-142"/>
<text text-anchor="start" x="724" y="-130" font-family="Helvetica,sans-Serif" font-size="10.00">psr::IDETabulationProblem</text>
<text text-anchor="middle" x="807" y="-119" font-family="Helvetica,sans-Serif" font-size="10.00">&lt; AnalysisDomainTy, Container &gt;</text>
</a>
</g>
</g>
<!-- Node2&#45;&gt;Node1 -->
<g id="edge1_Node000001_Node000002" class="edge">
<title>Node2&#45;&gt;Node1</title>
<g id="a_edge1_Node000001_Node000002"><a xlink:title=" ">
<path fill="none" stroke="#63b8ff" d="M889.54,-109.87C911.2,-105.32 934.42,-100.45 955.5,-96.02"/>
<polygon fill="#63b8ff" stroke="#63b8ff" points="888.78,-106.46 879.71,-111.94 890.21,-113.31 888.78,-106.46"/>
</a>
</g>
</g>
<!-- Node3 -->
<g id="Node000003" class="node">
<title>Node3</title>
<g id="a_Node000003"><a xlink:href="classpsr_1_1FlowFunctions.html" target="_top" xlink:title=" ">
<polygon fill="white" stroke="#666666" points="641,-271.5 520,-271.5 520,-230.5 641,-230.5 641,-271.5"/>
<text text-anchor="start" x="528" y="-259.5" font-family="Helvetica,sans-Serif" font-size="10.00">psr::FlowFunctions</text>
<text text-anchor="start" x="528" y="-248.5" font-family="Helvetica,sans-Serif" font-size="10.00">&lt; AnalysisDomainTy,</text>
<text text-anchor="middle" x="580.5" y="-237.5" font-family="Helvetica,sans-Serif" font-size="10.00"> Container &gt;</text>
</a>
</g>
</g>
<!-- Node3&#45;&gt;Node2 -->
<g id="edge2_Node000002_Node000003" class="edge">
<title>Node3&#45;&gt;Node2</title>
<g id="a_edge2_Node000002_Node000003"><a xlink:title=" ">
<path fill="none" stroke="#63b8ff" d="M650.71,-232.91C660.42,-229.46 670.11,-225.49 679,-221 722.34,-199.1 766.46,-162.55 789.56,-142.07"/>
<polygon fill="#63b8ff" stroke="#63b8ff" points="649.37,-229.67 641.02,-236.2 651.61,-236.3 649.37,-229.67"/>
</a>
</g>
</g>
<!-- Node4 -->
<g id="Node000004" class="node">
<title>Node4</title>
<g id="a_Node000004"><a xlink:href="classpsr_1_1FlowFunctionTemplates.html" target="_top" xlink:title=" ">
<polygon fill="white" stroke="#666666" points="445,-271.5 293,-271.5 293,-230.5 445,-230.5 445,-271.5"/>
<text text-anchor="start" x="301" y="-259.5" font-family="Helvetica,sans-Serif" font-size="10.00">psr::FlowFunctionTemplates</text>
<text text-anchor="start" x="301" y="-248.5" font-family="Helvetica,sans-Serif" font-size="10.00">&lt; AnalysisDomainTy::d_t,</text>
<text text-anchor="middle" x="369" y="-237.5" font-family="Helvetica,sans-Serif" font-size="10.00"> Container &gt;</text>
</a>
</g>
</g>
<!-- Node4&#45;&gt;Node3 -->
<g id="edge3_Node000003_Node000004" class="edge">
<title>Node4&#45;&gt;Node3</title>
<g id="a_edge3_Node000003_Node000004"><a xlink:title=" ">
<path fill="none" stroke="darkgreen" d="M455.22,-251C476.87,-251 499.67,-251 519.75,-251"/>
<polygon fill="darkgreen" stroke="darkgreen" points="455.04,-247.5 445.04,-251 455.04,-254.5 455.04,-247.5"/>
</a>
</g>
</g>
<!-- Node5 -->
<g id="Node000005" class="node">
<title>Node5</title>
<g id="a_Node000005"><a xlink:href="classpsr_1_1FlowFunctionTemplates.html" target="_top" xlink:title=" ">
<polygon fill="white" stroke="#666666" points="152,-266 0,-266 0,-236 152,-236 152,-266"/>
<text text-anchor="start" x="8" y="-254" font-family="Helvetica,sans-Serif" font-size="10.00">psr::FlowFunctionTemplates</text>
<text text-anchor="middle" x="76" y="-243" font-family="Helvetica,sans-Serif" font-size="10.00">&lt; D, Container &gt;</text>
</a>
</g>
</g>
<!-- Node5&#45;&gt;Node4 -->
<g id="edge4_Node000004_Node000005" class="edge">
<title>Node5&#45;&gt;Node4</title>
<g id="a_edge4_Node000004_Node000005"><a xlink:title=" ">
<path fill="none" stroke="orange" stroke-dasharray="5,2" d="M162.39,-251C203.79,-251 253.06,-251 293,-251"/>
<polygon fill="orange" stroke="orange" points="162.32,-247.5 152.32,-251 162.32,-254.5 162.32,-247.5"/>
</a>
</g>
<text text-anchor="start" x="170" y="-265" font-family="Helvetica,sans-Serif" font-size="10.00" fill="grey"> &lt; AnalysisDomainTy</text>
<text text-anchor="middle" x="222.5" y="-254" font-family="Helvetica,sans-Serif" font-size="10.00" fill="grey">::d_t, Container &gt;</text>
</g>
<!-- Node6 -->
<g id="Node000006" class="node">
<title>Node6</title>
<g id="a_Node000006"><a xlink:href="classpsr_1_1EdgeFunctions.html" target="_top" xlink:title=" ">
<polygon fill="white" stroke="#666666" points="645,-212 516,-212 516,-182 645,-182 645,-212"/>
<text text-anchor="start" x="524" y="-200" font-family="Helvetica,sans-Serif" font-size="10.00">psr::EdgeFunctions</text>
<text text-anchor="middle" x="580.5" y="-189" font-family="Helvetica,sans-Serif" font-size="10.00">&lt; AnalysisDomainTy &gt;</text>
</a>
</g>
</g>
<!-- Node6&#45;&gt;Node2 -->
<g id="edge5_Node000002_Node000006" class="edge">
<title>Node6&#45;&gt;Node2</title>
<g id="a_edge5_Node000002_Node000006"><a xlink:title=" ">
<path fill="none" stroke="#63b8ff" d="M655.08,-179.77C663.19,-177.61 671.29,-175.34 679,-173 709.18,-163.85 742.71,-151.61 767.73,-142.06"/>
<polygon fill="#63b8ff" stroke="#63b8ff" points="654.02,-176.43 645.23,-182.35 655.79,-183.21 654.02,-176.43"/>
</a>
</g>
</g>
<!-- Node7 -->
<g id="Node000007" class="node">
<title>Node7</title>
<g id="a_Node000007"><a xlink:href="classpsr_1_1JoinLattice_3_01AnalysisDomainTy_01_4.html" target="_top" xlink:title=" ">
<polygon fill="white" stroke="#666666" points="651,-164 510,-164 510,-134 651,-134 651,-164"/>
<text text-anchor="start" x="518" y="-152" font-family="Helvetica,sans-Serif" font-size="10.00">psr::JoinLattice&lt; Analysis</text>
<text text-anchor="middle" x="580.5" y="-141" font-family="Helvetica,sans-Serif" font-size="10.00">DomainTy &gt;</text>
</a>
</g>
</g>
<!-- Node7&#45;&gt;Node2 -->
<g id="edge6_Node000002_Node000007" class="edge">
<title>Node7&#45;&gt;Node2</title>
<g id="a_edge6_Node000002_Node000007"><a xlink:title=" ">
<path fill="none" stroke="#63b8ff" d="M661.54,-141.16C679.18,-139.43 697.98,-137.59 715.98,-135.82"/>
<polygon fill="#63b8ff" stroke="#63b8ff" points="660.91,-137.7 651.3,-142.16 661.6,-144.67 660.91,-137.7"/>
</a>
</g>
</g>
<!-- Node8 -->
<g id="Node000008" class="node">
<title>Node8</title>
<g id="a_Node000008"><a xlink:href="classpsr_1_1SemiRing.html" target="_top" xlink:title=" ">
<polygon fill="white" stroke="#666666" points="679,-115.5 482,-115.5 482,-96.5 679,-96.5 679,-115.5"/>
<text text-anchor="middle" x="580.5" y="-103.5" font-family="Helvetica,sans-Serif" font-size="10.00">psr::SemiRing&lt; AnalysisDomainTy &gt;</text>
</a>
</g>
</g>
<!-- Node8&#45;&gt;Node2 -->
<g id="edge7_Node000002_Node000008" class="edge">
<title>Node8&#45;&gt;Node2</title>
<g id="a_edge7_Node000002_Node000008"><a xlink:title=" ">
<path fill="none" stroke="#63b8ff" d="M689.34,-116.09C698.24,-116.92 707.18,-117.76 715.93,-118.58"/>
<polygon fill="#63b8ff" stroke="#63b8ff" points="689.6,-112.6 679.32,-115.15 688.95,-119.57 689.6,-112.6"/>
</a>
</g>
</g>
<!-- Node9 -->
<g id="Node000009" class="node">
<title>Node9</title>
<g id="a_Node000009"><a xlink:href="classpsr_1_1AllTopFnProvider_3_01AnalysisDomainTy_01_4.html" target="_top" xlink:title=" ">
<polygon fill="white" stroke="#666666" points="645,-78 516,-78 516,-48 645,-48 645,-78"/>
<text text-anchor="start" x="524" y="-66" font-family="Helvetica,sans-Serif" font-size="10.00">psr::AllTopFnProvider</text>
<text text-anchor="middle" x="580.5" y="-55" font-family="Helvetica,sans-Serif" font-size="10.00">&lt; AnalysisDomainTy &gt;</text>
</a>
</g>
</g>
<!-- Node9&#45;&gt;Node2 -->
<g id="edge8_Node000002_Node000009" class="edge">
<title>Node9&#45;&gt;Node2</title>
<g id="a_edge8_Node000002_Node000009"><a xlink:title=" ">
<path fill="none" stroke="#63b8ff" d="M651.83,-80.61C660.99,-83.03 670.23,-85.53 679,-88 705.53,-95.47 734.97,-104.46 758.81,-111.93"/>
<polygon fill="#63b8ff" stroke="#63b8ff" points="652.51,-77.17 641.95,-78.03 650.74,-83.95 652.51,-77.17"/>
</a>
</g>
</g>
<!-- Node10 -->
<g id="Node000010" class="node">
<title>Node10</title>
<g id="a_Node000010"><a xlink:title=" ">
<polygon fill="white" stroke="#666666" points="894.5,-73 719.5,-73 719.5,-43 894.5,-43 894.5,-73"/>
<text text-anchor="start" x="727.5" y="-61" font-family="Helvetica,sans-Serif" font-size="10.00">psr::detail::IDEAllocSites</text>
<text text-anchor="middle" x="807" y="-50" font-family="Helvetica,sans-Serif" font-size="10.00">AwareDefaultFlowFunctionsImpl</text>
</a>
</g>
</g>
<!-- Node10&#45;&gt;Node1 -->
<g id="edge9_Node000001_Node000010" class="edge">
<title>Node10&#45;&gt;Node1</title>
<g id="a_edge9_Node000001_Node000010"><a xlink:title=" ">
<path fill="none" stroke="darkgreen" d="M904.58,-68.14C914.67,-69.2 924.91,-70.28 934.95,-71.33"/>
<polygon fill="darkgreen" stroke="darkgreen" points="904.87,-64.65 894.55,-67.09 904.13,-71.62 904.87,-64.65"/>
</a>
</g>
</g>
<!-- Node11 -->
<g id="Node000011" class="node">
<title>Node11</title>
<g id="a_Node000011"><a xlink:title=" ">
<polygon fill="white" stroke="#666666" points="661,-30 500,-30 500,0 661,0 661,-30"/>
<text text-anchor="start" x="508" y="-18" font-family="Helvetica,sans-Serif" font-size="10.00">psr::detail::IDENoAliasDefault</text>
<text text-anchor="middle" x="580.5" y="-7" font-family="Helvetica,sans-Serif" font-size="10.00">FlowFunctionsImpl</text>
</a>
</g>
</g>
<!-- Node11&#45;&gt;Node10 -->
<g id="edge10_Node000010_Node000011" class="edge">
<title>Node11&#45;&gt;Node10</title>
<g id="a_edge10_Node000010_Node000011"><a xlink:title=" ">
<path fill="none" stroke="#8b1a1a" d="M669.87,-31.93C688.91,-35.57 708.9,-39.4 727.53,-42.97"/>
<polygon fill="#8b1a1a" stroke="#8b1a1a" points="670.5,-28.48 660.02,-30.04 669.18,-35.36 670.5,-28.48"/>
</a>
</g>
</g>
</g>
</svg>
