<?xml version="1.0" encoding="UTF-8" standalone="no"?>
<!DOCTYPE svg PUBLIC "-//W3C//DTD SVG 1.1//EN"
 "http://www.w3.org/Graphics/SVG/1.1/DTD/svg11.dtd">
<!-- Generated by graphviz version 2.43.0 (0)
 -->
<!-- Title: psr::CSTDFILEIOTypeStateDescription Pages: 1 -->
<svg width="250pt" height="238pt"
 viewBox="0.00 0.00 249.50 238.00" xmlns="http://www.w3.org/2000/svg" xmlns:xlink="http://www.w3.org/1999/xlink">
<g id="graph0" class="graph" transform="scale(1 1) rotate(0) translate(4 234)">
<title>psr::CSTDFILEIOTypeStateDescription</title>
<!-- Node1 -->
<g id="Node000001" class="node">
<title>Node1</title>
<g id="a_Node000001"><a xlink:title=" ">
<polygon fill="#999999" stroke="#666666" points="158,-30 15,-30 15,0 158,0 158,-30"/>
<text text-anchor="start" x="23" y="-18" font-family="Helvetica,sans-Serif" font-size="10.00">psr::CSTDFILEIOTypeState</text>
<text text-anchor="middle" x="86.5" y="-7" font-family="Helvetica,sans-Serif" font-size="10.00">Description</text>
</a>
</g>
</g>
<!-- Node2 -->
<g id="Node000002" class="node">
<title>Node2</title>
<g id="a_Node000002"><a xlink:href="structpsr_1_1TypeStateDescription.html" target="_top" xlink:title=" ">
<polygon fill="white" stroke="#666666" points="157,-97 16,-97 16,-67 157,-67 157,-97"/>
<text text-anchor="start" x="24" y="-85" font-family="Helvetica,sans-Serif" font-size="10.00">psr::TypeStateDescription</text>
<text text-anchor="middle" x="86.5" y="-74" font-family="Helvetica,sans-Serif" font-size="10.00">&lt; CSTDFILEIOState &gt;</text>
</a>
</g>
</g>
<!-- Node2&#45;&gt;Node1 -->
<g id="edge1_Node000001_Node000002" class="edge">
<title>Node2&#45;&gt;Node1</title>
<g id="a_edge1_Node000001_Node000002"><a xlink:title=" ">
<path fill="none" stroke="#63b8ff" d="M86.5,-56.61C86.5,-47.65 86.5,-37.82 86.5,-30.08"/>
<polygon fill="#63b8ff" stroke="#63b8ff" points="83,-56.9 86.5,-66.9 90,-56.9 83,-56.9"/>
</a>
</g>
</g>
<!-- Node3 -->
<g id="Node000003" class="node">
<title>Node3</title>
<g id="a_Node000003"><a xlink:href="structpsr_1_1TypeStateDescriptionBase.html" target="_top" xlink:title=" ">
<polygon fill="white" stroke="#666666" points="165,-230 0,-230 0,-211 165,-211 165,-230"/>
<text text-anchor="middle" x="82.5" y="-218" font-family="Helvetica,sans-Serif" font-size="10.00">psr::TypeStateDescriptionBase</text>
</a>
</g>
</g>
<!-- Node3&#45;&gt;Node2 -->
<g id="edge2_Node000002_Node000003" class="edge">
<title>Node3&#45;&gt;Node2</title>
<g id="a_edge2_Node000002_Node000003"><a xlink:title=" ">
<path fill="none" stroke="#63b8ff" d="M83.05,-200.65C83.87,-172.91 85.37,-121.7 86.09,-97.02"/>
<polygon fill="#63b8ff" stroke="#63b8ff" points="79.54,-200.86 82.75,-210.96 86.54,-201.07 79.54,-200.86"/>
</a>
</g>
</g>
<!-- Node4 -->
<g id="Node000004" class="node">
<title>Node4</title>
<g id="a_Node000004"><a xlink:href="structpsr_1_1TypeStateDescription.html" target="_top" xlink:title=" ">
<polygon fill="white" stroke="#666666" points="240,-174 99,-174 99,-144 240,-144 240,-174"/>
<text text-anchor="start" x="107" y="-162" font-family="Helvetica,sans-Serif" font-size="10.00">psr::TypeStateDescription</text>
<text text-anchor="middle" x="169.5" y="-151" font-family="Helvetica,sans-Serif" font-size="10.00">&lt; StateTy &gt;</text>
</a>
</g>
</g>
<!-- Node3&#45;&gt;Node4 -->
<g id="edge4_Node000004_Node000003" class="edge">
<title>Node3&#45;&gt;Node4</title>
<g id="a_edge4_Node000004_Node000003"><a xlink:title=" ">
<path fill="none" stroke="#63b8ff" d="M103.35,-205.24C117.18,-195.78 135.24,-183.43 149,-174.02"/>
<polygon fill="#63b8ff" stroke="#63b8ff" points="101.24,-202.44 94.96,-210.98 105.2,-208.22 101.24,-202.44"/>
</a>
</g>
</g>
<!-- Node4&#45;&gt;Node2 -->
<g id="edge3_Node000002_Node000004" class="edge">
<title>Node4&#45;&gt;Node2</title>
<g id="a_edge3_Node000002_Node000004"><a xlink:title=" ">
<path fill="none" stroke="orange" stroke-dasharray="5,2" d="M146.45,-137.17C132.29,-124.38 114.54,-108.34 102.04,-97.04"/>
<polygon fill="orange" stroke="orange" points="144.12,-139.79 153.89,-143.89 148.82,-134.59 144.12,-139.79"/>
</a>
</g>
<text text-anchor="middle" x="187" y="-118" font-family="Helvetica,sans-Serif" font-size="10.00" fill="grey"> &lt; CSTDFILEIOState &gt;</text>
</g>
</g>
</svg>
