<?xml version="1.0" encoding="UTF-8" standalone="no"?>
<!DOCTYPE svg PUBLIC "-//W3C//DTD SVG 1.1//EN"
 "http://www.w3.org/Graphics/SVG/1.1/DTD/svg11.dtd">
<!-- Generated by graphviz version 2.43.0 (0)
 -->
<!-- Title: psr::Z3BasedPathSensitivityManager&lt; AnalysisDomainTy &gt; Pages: 1 -->
<svg width="1196pt" height="120pt"
 viewBox="0.00 0.00 1196.00 119.50" xmlns="http://www.w3.org/2000/svg" xmlns:xlink="http://www.w3.org/1999/xlink">
<g id="graph0" class="graph" transform="scale(1 1) rotate(0) translate(4 115.5)">
<title>psr::Z3BasedPathSensitivityManager&lt; AnalysisDomainTy &gt;</title>
<!-- Node1 -->
<g id="Node000001" class="node">
<title>Node1</title>
<g id="a_Node000001"><a xlink:title="An extension of the path&#45;reconstruction mechanism of the PathSensitivityManager that provides means t...">
<polygon fill="#999999" stroke="#666666" points="1188,-78.5 1016,-78.5 1016,-48.5 1188,-48.5 1188,-78.5"/>
<text text-anchor="start" x="1024" y="-66.5" font-family="Helvetica,sans-Serif" font-size="10.00">psr::Z3BasedPathSensitivity</text>
<text text-anchor="middle" x="1102" y="-55.5" font-family="Helvetica,sans-Serif" font-size="10.00">Manager&lt; AnalysisDomainTy &gt;</text>
</a>
</g>
</g>
<!-- Node2 -->
<g id="Node000002" class="node">
<title>Node2</title>
<g id="a_Node000002"><a xlink:href="classpsr_1_1Z3BasedPathSensitivityManagerBase.html" target="_top" xlink:title=" ">
<polygon fill="white" stroke="#666666" points="941.5,-111.5 788.5,-111.5 788.5,-81.5 941.5,-81.5 941.5,-111.5"/>
<text text-anchor="start" x="796.5" y="-99.5" font-family="Helvetica,sans-Serif" font-size="10.00">psr::Z3BasedPathSensitivity</text>
<text text-anchor="middle" x="865" y="-88.5" font-family="Helvetica,sans-Serif" font-size="10.00">ManagerBase</text>
</a>
</g>
</g>
<!-- Node2&#45;&gt;Node1 -->
<g id="edge1_Node000001_Node000002" class="edge">
<title>Node2&#45;&gt;Node1</title>
<g id="a_edge1_Node000001_Node000002"><a xlink:title=" ">
<path fill="none" stroke="#63b8ff" d="M951.75,-84.46C972.6,-81.53 994.88,-78.4 1015.7,-75.48"/>
<polygon fill="#63b8ff" stroke="#63b8ff" points="951.07,-81.02 941.65,-85.88 952.04,-87.95 951.07,-81.02"/>
</a>
</g>
</g>
<!-- Node3 -->
<g id="Node000003" class="node">
<title>Node3</title>
<g id="a_Node000003"><a xlink:href="classpsr_1_1PathSensitivityManagerBase.html" target="_top" xlink:title=" ">
<polygon fill="white" stroke="#666666" points="518,-111.5 338,-111.5 338,-81.5 518,-81.5 518,-111.5"/>
<text text-anchor="start" x="346" y="-99.5" font-family="Helvetica,sans-Serif" font-size="10.00">psr::PathSensitivityManager</text>
<text text-anchor="middle" x="428" y="-88.5" font-family="Helvetica,sans-Serif" font-size="10.00">Base&lt; const llvm::Instruction * &gt;</text>
</a>
</g>
</g>
<!-- Node3&#45;&gt;Node2 -->
<g id="edge2_Node000002_Node000003" class="edge">
<title>Node3&#45;&gt;Node2</title>
<g id="a_edge2_Node000002_Node000003"><a xlink:title=" ">
<path fill="none" stroke="#63b8ff" d="M528.54,-96.5C607.59,-96.5 716.45,-96.5 788.46,-96.5"/>
<polygon fill="#63b8ff" stroke="#63b8ff" points="528.08,-93 518.08,-96.5 528.08,-100 528.08,-93"/>
</a>
</g>
</g>
<!-- Node4 -->
<g id="Node000004" class="node">
<title>Node4</title>
<g id="a_Node000004"><a xlink:href="classpsr_1_1PathSensitivityManagerBase.html" target="_top" xlink:title=" ">
<polygon fill="white" stroke="#666666" points="153,-111.5 0,-111.5 0,-81.5 153,-81.5 153,-111.5"/>
<text text-anchor="start" x="8" y="-99.5" font-family="Helvetica,sans-Serif" font-size="10.00">psr::PathSensitivityManager</text>
<text text-anchor="middle" x="76.5" y="-88.5" font-family="Helvetica,sans-Serif" font-size="10.00">Base&lt; N &gt;</text>
</a>
</g>
</g>
<!-- Node4&#45;&gt;Node3 -->
<g id="edge3_Node000003_Node000004" class="edge">
<title>Node4&#45;&gt;Node3</title>
<g id="a_edge3_Node000003_Node000004"><a xlink:title=" ">
<path fill="none" stroke="orange" stroke-dasharray="5,2" d="M163.38,-96.5C216.34,-96.5 284.13,-96.5 337.71,-96.5"/>
<polygon fill="orange" stroke="orange" points="163.34,-93 153.34,-96.5 163.34,-100 163.34,-93"/>
</a>
</g>
<text text-anchor="middle" x="242.5" y="-99.5" font-family="Helvetica,sans-Serif" font-size="10.00" fill="grey"> &lt; const llvm::Instruction * &gt;</text>
</g>
<!-- Node5 -->
<g id="Node000005" class="node">
<title>Node5</title>
<g id="a_Node000005"><a xlink:href="classpsr_1_1PathSensitivityManagerMixin.html" target="_top" xlink:title=" ">
<polygon fill="white" stroke="#666666" points="979,-63 751,-63 751,0 979,0 979,-63"/>
<text text-anchor="start" x="759" y="-51" font-family="Helvetica,sans-Serif" font-size="10.00">psr::PathSensitivityManager</text>
<text text-anchor="start" x="759" y="-40" font-family="Helvetica,sans-Serif" font-size="10.00">Mixin&lt; Z3BasedPathSensitivityManager</text>
<text text-anchor="start" x="759" y="-29" font-family="Helvetica,sans-Serif" font-size="10.00">&lt; AnalysisDomainTy &gt;, AnalysisDomainTy,</text>
<text text-anchor="start" x="759" y="-18" font-family="Helvetica,sans-Serif" font-size="10.00"> Z3BasedPathSensitivityManagerBase::</text>
<text text-anchor="middle" x="865" y="-7" font-family="Helvetica,sans-Serif" font-size="10.00">graph_type &gt;</text>
</a>
</g>
</g>
<!-- Node5&#45;&gt;Node1 -->
<g id="edge4_Node000001_Node000005" class="edge">
<title>Node5&#45;&gt;Node1</title>
<g id="a_edge4_Node000001_Node000005"><a xlink:title=" ">
<path fill="none" stroke="#63b8ff" d="M989.16,-48.27C998.12,-49.49 1007.05,-50.71 1015.72,-51.89"/>
<polygon fill="#63b8ff" stroke="#63b8ff" points="989.41,-44.77 979.03,-46.89 988.46,-51.71 989.41,-44.77"/>
</a>
</g>
</g>
<!-- Node6 -->
<g id="Node000006" class="node">
<title>Node6</title>
<g id="a_Node000006"><a xlink:href="classpsr_1_1PathSensitivityManagerMixin.html" target="_top" xlink:title=" ">
<polygon fill="white" stroke="#666666" points="524,-52 332,-52 332,-11 524,-11 524,-52"/>
<text text-anchor="start" x="340" y="-40" font-family="Helvetica,sans-Serif" font-size="10.00">psr::PathSensitivityManager</text>
<text text-anchor="start" x="340" y="-29" font-family="Helvetica,sans-Serif" font-size="10.00">Mixin&lt; Derived, AnalysisDomainTy,</text>
<text text-anchor="middle" x="428" y="-18" font-family="Helvetica,sans-Serif" font-size="10.00"> GraphType &gt;</text>
</a>
</g>
</g>
<!-- Node6&#45;&gt;Node5 -->
<g id="edge5_Node000005_Node000006" class="edge">
<title>Node6&#45;&gt;Node5</title>
<g id="a_edge5_Node000005_Node000006"><a xlink:title=" ">
<path fill="none" stroke="orange" stroke-dasharray="5,2" d="M534.54,-31.5C600,-31.5 684.07,-31.5 750.9,-31.5"/>
<polygon fill="orange" stroke="orange" points="534.19,-28 524.19,-31.5 534.19,-35 534.19,-28"/>
</a>
</g>
<text text-anchor="start" x="542" y="-67.5" font-family="Helvetica,sans-Serif" font-size="10.00" fill="grey"> &lt; Z3BasedPathSensitivity</text>
<text text-anchor="start" x="542" y="-56.5" font-family="Helvetica,sans-Serif" font-size="10.00" fill="grey">Manager&lt; AnalysisDomainTy</text>
<text text-anchor="start" x="542" y="-45.5" font-family="Helvetica,sans-Serif" font-size="10.00" fill="grey"> &gt;, AnalysisDomainTy, Z3BasedPath</text>
<text text-anchor="middle" x="637.5" y="-34.5" font-family="Helvetica,sans-Serif" font-size="10.00" fill="grey">SensitivityManagerBase::graph_type &gt;</text>
</g>
</g>
</svg>
