<?xml version="1.0" encoding="UTF-8" standalone="no"?>
<!DOCTYPE svg PUBLIC "-//W3C//DTD SVG 1.1//EN"
 "http://www.w3.org/Graphics/SVG/1.1/DTD/svg11.dtd">
<!-- Generated by graphviz version 2.43.0 (0)
 -->
<!-- Title: psr::IntraMonoFullConstantPropagation Pages: 1 -->
<svg width="291pt" height="271pt"
 viewBox="0.00 0.00 290.50 271.00" xmlns="http://www.w3.org/2000/svg" xmlns:xlink="http://www.w3.org/1999/xlink">
<g id="graph0" class="graph" transform="scale(1 1) rotate(0) translate(4 267)">
<title>psr::IntraMonoFullConstantPropagation</title>
<!-- Node1 -->
<g id="Node000001" class="node">
<title>Node1</title>
<g id="a_Node000001"><a xlink:title=" ">
<polygon fill="#999999" stroke="#666666" points="172.5,-97 24.5,-97 24.5,-67 172.5,-67 172.5,-97"/>
<text text-anchor="start" x="32.5" y="-85" font-family="Helvetica,sans-Serif" font-size="10.00">psr::IntraMonoFullConstant</text>
<text text-anchor="middle" x="98.5" y="-74" font-family="Helvetica,sans-Serif" font-size="10.00">Propagation</text>
</a>
</g>
</g>
<!-- Node4 -->
<g id="Node000004" class="node">
<title>Node4</title>
<g id="a_Node000004"><a xlink:href="classpsr_1_1InterMonoFullConstantPropagation.html" target="_top" xlink:title=" ">
<polygon fill="white" stroke="#666666" points="172.5,-30 24.5,-30 24.5,0 172.5,0 172.5,-30"/>
<text text-anchor="start" x="32.5" y="-18" font-family="Helvetica,sans-Serif" font-size="10.00">psr::InterMonoFullConstant</text>
<text text-anchor="middle" x="98.5" y="-7" font-family="Helvetica,sans-Serif" font-size="10.00">Propagation</text>
</a>
</g>
</g>
<!-- Node1&#45;&gt;Node4 -->
<g id="edge3_Node000001_Node000004" class="edge">
<title>Node1&#45;&gt;Node4</title>
<g id="a_edge3_Node000001_Node000004"><a xlink:title=" ">
<path fill="none" stroke="#63b8ff" d="M98.5,-56.61C98.5,-47.65 98.5,-37.82 98.5,-30.08"/>
<polygon fill="#63b8ff" stroke="#63b8ff" points="95,-56.9 98.5,-66.9 102,-56.9 95,-56.9"/>
</a>
</g>
</g>
<!-- Node2 -->
<g id="Node000002" class="node">
<title>Node2</title>
<g id="a_Node000002"><a xlink:href="classpsr_1_1IntraMonoProblem.html" target="_top" xlink:title=" ">
<polygon fill="white" stroke="#666666" points="197,-175 0,-175 0,-134 197,-134 197,-175"/>
<text text-anchor="start" x="8" y="-163" font-family="Helvetica,sans-Serif" font-size="10.00">psr::IntraMonoProblem</text>
<text text-anchor="start" x="8" y="-152" font-family="Helvetica,sans-Serif" font-size="10.00">&lt; IntraMonoFullConstantPropagation</text>
<text text-anchor="middle" x="98.5" y="-141" font-family="Helvetica,sans-Serif" font-size="10.00">AnalysisDomain &gt;</text>
</a>
</g>
</g>
<!-- Node2&#45;&gt;Node1 -->
<g id="edge1_Node000001_Node000002" class="edge">
<title>Node2&#45;&gt;Node1</title>
<g id="a_edge1_Node000001_Node000002"><a xlink:title=" ">
<path fill="none" stroke="#63b8ff" d="M98.5,-123.58C98.5,-114.51 98.5,-104.95 98.5,-97.39"/>
<polygon fill="#63b8ff" stroke="#63b8ff" points="95,-123.86 98.5,-133.86 102,-123.86 95,-123.86"/>
</a>
</g>
</g>
<!-- Node3 -->
<g id="Node000003" class="node">
<title>Node3</title>
<g id="a_Node000003"><a xlink:href="classpsr_1_1IntraMonoProblem.html" target="_top" xlink:title="The analysis problem interface for intraprocedural monotone problems (solvable by the IntraMonoSolver...">
<polygon fill="white" stroke="#666666" points="163,-263 34,-263 34,-233 163,-233 163,-263"/>
<text text-anchor="start" x="42" y="-251" font-family="Helvetica,sans-Serif" font-size="10.00">psr::IntraMonoProblem</text>
<text text-anchor="middle" x="98.5" y="-240" font-family="Helvetica,sans-Serif" font-size="10.00">&lt; AnalysisDomainTy &gt;</text>
</a>
</g>
</g>
<!-- Node3&#45;&gt;Node2 -->
<g id="edge2_Node000002_Node000003" class="edge">
<title>Node3&#45;&gt;Node2</title>
<g id="a_edge2_Node000002_Node000003"><a xlink:title=" ">
<path fill="none" stroke="orange" stroke-dasharray="5,2" d="M98.5,-222.69C98.5,-207.82 98.5,-189.05 98.5,-175.13"/>
<polygon fill="orange" stroke="orange" points="95,-222.7 98.5,-232.7 102,-222.7 95,-222.7"/>
</a>
</g>
<text text-anchor="start" x="98.5" y="-207" font-family="Helvetica,sans-Serif" font-size="10.00" fill="grey"> &lt; IntraMonoFullConstantPropagation</text>
<text text-anchor="middle" x="190.5" y="-196" font-family="Helvetica,sans-Serif" font-size="10.00" fill="grey">AnalysisDomain &gt;</text>
</g>
</g>
</svg>
