<?xml version="1.0" encoding="UTF-8" standalone="no"?>
<!DOCTYPE svg PUBLIC "-//W3C//DTD SVG 1.1//EN"
 "http://www.w3.org/Graphics/SVG/1.1/DTD/svg11.dtd">
<!-- Generated by graphviz version 2.43.0 (0)
 -->
<!-- Title: psr::IFDSConstAnalysis Pages: 1 -->
<svg width="1673pt" height="239pt"
 viewBox="0.00 0.00 1673.00 238.50" xmlns="http://www.w3.org/2000/svg" xmlns:xlink="http://www.w3.org/1999/xlink">
<g id="graph0" class="graph" transform="scale(1 1) rotate(0) translate(4 234.5)">
<title>psr::IFDSConstAnalysis</title>
<!-- Node1 -->
<g id="Node000001" class="node">
<title>Node1</title>
<g id="a_Node000001"><a xlink:title="Computes all possibly mutable memory locations.">
<polygon fill="#999999" stroke="#666666" points="1665,-96 1536,-96 1536,-77 1665,-77 1665,-96"/>
<text text-anchor="middle" x="1600.5" y="-84" font-family="Helvetica,sans-Serif" font-size="10.00">psr::IFDSConstAnalysis</text>
</a>
</g>
</g>
<!-- Node2 -->
<g id="Node000002" class="node">
<title>Node2</title>
<g id="a_Node000002"><a xlink:href="classpsr_1_1IFDSTabulationProblem.html" target="_top" xlink:title=" ">
<polygon fill="white" stroke="#666666" points="1499,-101.5 1296,-101.5 1296,-71.5 1499,-71.5 1499,-101.5"/>
<text text-anchor="start" x="1304" y="-89.5" font-family="Helvetica,sans-Serif" font-size="10.00">psr::IFDSTabulationProblem</text>
<text text-anchor="middle" x="1397.5" y="-78.5" font-family="Helvetica,sans-Serif" font-size="10.00">&lt; LLVMIFDSAnalysisDomainDefault &gt;</text>
</a>
</g>
</g>
<!-- Node2&#45;&gt;Node1 -->
<g id="edge1_Node000001_Node000002" class="edge">
<title>Node2&#45;&gt;Node1</title>
<g id="a_edge1_Node000001_Node000002"><a xlink:title=" ">
<path fill="none" stroke="#63b8ff" d="M1509.29,-86.5C1518.37,-86.5 1527.35,-86.5 1535.9,-86.5"/>
<polygon fill="#63b8ff" stroke="#63b8ff" points="1509,-83 1499,-86.5 1509,-90 1509,-83"/>
</a>
</g>
</g>
<!-- Node3 -->
<g id="Node000003" class="node">
<title>Node3</title>
<g id="a_Node000003"><a xlink:href="classpsr_1_1IDETabulationProblem.html" target="_top" xlink:title="The analysis problem interface for IDE problems (solvable by the IDESolver). Create a subclass from t...">
<polygon fill="white" stroke="#666666" points="898,-148.5 716,-148.5 716,-118.5 898,-118.5 898,-148.5"/>
<text text-anchor="start" x="724" y="-136.5" font-family="Helvetica,sans-Serif" font-size="10.00">psr::IDETabulationProblem</text>
<text text-anchor="middle" x="807" y="-125.5" font-family="Helvetica,sans-Serif" font-size="10.00">&lt; AnalysisDomainTy, Container &gt;</text>
</a>
</g>
</g>
<!-- Node3&#45;&gt;Node2 -->
<g id="edge2_Node000002_Node000003" class="edge">
<title>Node3&#45;&gt;Node2</title>
<g id="a_edge2_Node000002_Node000003"><a xlink:title=" ">
<path fill="none" stroke="#63b8ff" d="M908.29,-125.49C1016.43,-116.85 1187.61,-103.18 1295.89,-94.54"/>
<polygon fill="#63b8ff" stroke="#63b8ff" points="907.71,-122.03 898.02,-126.31 908.27,-129 907.71,-122.03"/>
</a>
</g>
</g>
<!-- Node4 -->
<g id="Node000004" class="node">
<title>Node4</title>
<g id="a_Node000004"><a xlink:href="classpsr_1_1FlowFunctions.html" target="_top" xlink:title=" ">
<polygon fill="white" stroke="#666666" points="641,-229 520,-229 520,-188 641,-188 641,-229"/>
<text text-anchor="start" x="528" y="-217" font-family="Helvetica,sans-Serif" font-size="10.00">psr::FlowFunctions</text>
<text text-anchor="start" x="528" y="-206" font-family="Helvetica,sans-Serif" font-size="10.00">&lt; AnalysisDomainTy,</text>
<text text-anchor="middle" x="580.5" y="-195" font-family="Helvetica,sans-Serif" font-size="10.00"> Container &gt;</text>
</a>
</g>
</g>
<!-- Node4&#45;&gt;Node3 -->
<g id="edge3_Node000003_Node000004" class="edge">
<title>Node4&#45;&gt;Node3</title>
<g id="a_edge3_Node000003_Node000004"><a xlink:title=" ">
<path fill="none" stroke="#63b8ff" d="M651.37,-214.56C666.99,-214.09 683.28,-212.13 698,-207.5 735.08,-195.84 770.81,-166.74 790.45,-148.7"/>
<polygon fill="#63b8ff" stroke="#63b8ff" points="651.18,-211.06 641.22,-214.66 651.26,-218.06 651.18,-211.06"/>
</a>
</g>
</g>
<!-- Node12 -->
<g id="Node000012" class="node">
<title>Node12</title>
<g id="a_Node000012"><a xlink:href="classpsr_1_1IDETabulationProblem.html" target="_top" xlink:title="The analysis problem interface for IDE problems (solvable by the IDESolver). Create a subclass from t...">
<polygon fill="white" stroke="#666666" points="898,-74.5 716,-74.5 716,-44.5 898,-44.5 898,-74.5"/>
<text text-anchor="start" x="724" y="-62.5" font-family="Helvetica,sans-Serif" font-size="10.00">psr::IDETabulationProblem</text>
<text text-anchor="middle" x="807" y="-51.5" font-family="Helvetica,sans-Serif" font-size="10.00">&lt; AnalysisDomainTy, Container &gt;</text>
</a>
</g>
</g>
<!-- Node4&#45;&gt;Node12 -->
<g id="edge12_Node000012_Node000004" class="edge">
<title>Node4&#45;&gt;Node12</title>
<g id="a_edge12_Node000012_Node000004"><a xlink:title=" ">
<path fill="none" stroke="#63b8ff" d="M650.58,-194.72C660.8,-190.64 670.68,-185.35 679,-178.5 705.87,-156.39 691.58,-134.29 716,-109.5 730.68,-94.6 750.74,-82.88 768.19,-74.54"/>
<polygon fill="#63b8ff" stroke="#63b8ff" points="649.34,-191.45 641.13,-198.14 651.72,-198.03 649.34,-191.45"/>
</a>
</g>
</g>
<!-- Node5 -->
<g id="Node000005" class="node">
<title>Node5</title>
<g id="a_Node000005"><a xlink:href="classpsr_1_1FlowFunctionTemplates.html" target="_top" xlink:title=" ">
<polygon fill="white" stroke="#666666" points="445,-229 293,-229 293,-188 445,-188 445,-229"/>
<text text-anchor="start" x="301" y="-217" font-family="Helvetica,sans-Serif" font-size="10.00">psr::FlowFunctionTemplates</text>
<text text-anchor="start" x="301" y="-206" font-family="Helvetica,sans-Serif" font-size="10.00">&lt; AnalysisDomainTy::d_t,</text>
<text text-anchor="middle" x="369" y="-195" font-family="Helvetica,sans-Serif" font-size="10.00"> Container &gt;</text>
</a>
</g>
</g>
<!-- Node5&#45;&gt;Node4 -->
<g id="edge4_Node000004_Node000005" class="edge">
<title>Node5&#45;&gt;Node4</title>
<g id="a_edge4_Node000004_Node000005"><a xlink:title=" ">
<path fill="none" stroke="darkgreen" d="M455.22,-208.5C476.87,-208.5 499.67,-208.5 519.75,-208.5"/>
<polygon fill="darkgreen" stroke="darkgreen" points="455.04,-205 445.04,-208.5 455.04,-212 455.04,-205"/>
</a>
</g>
</g>
<!-- Node6 -->
<g id="Node000006" class="node">
<title>Node6</title>
<g id="a_Node000006"><a xlink:href="classpsr_1_1FlowFunctionTemplates.html" target="_top" xlink:title=" ">
<polygon fill="white" stroke="#666666" points="152,-223.5 0,-223.5 0,-193.5 152,-193.5 152,-223.5"/>
<text text-anchor="start" x="8" y="-211.5" font-family="Helvetica,sans-Serif" font-size="10.00">psr::FlowFunctionTemplates</text>
<text text-anchor="middle" x="76" y="-200.5" font-family="Helvetica,sans-Serif" font-size="10.00">&lt; D, Container &gt;</text>
</a>
</g>
</g>
<!-- Node6&#45;&gt;Node5 -->
<g id="edge5_Node000005_Node000006" class="edge">
<title>Node6&#45;&gt;Node5</title>
<g id="a_edge5_Node000005_Node000006"><a xlink:title=" ">
<path fill="none" stroke="orange" stroke-dasharray="5,2" d="M162.39,-208.5C203.79,-208.5 253.06,-208.5 293,-208.5"/>
<polygon fill="orange" stroke="orange" points="162.32,-205 152.32,-208.5 162.32,-212 162.32,-205"/>
</a>
</g>
<text text-anchor="start" x="170" y="-222.5" font-family="Helvetica,sans-Serif" font-size="10.00" fill="grey"> &lt; AnalysisDomainTy</text>
<text text-anchor="middle" x="222.5" y="-211.5" font-family="Helvetica,sans-Serif" font-size="10.00" fill="grey">::d_t, Container &gt;</text>
</g>
<!-- Node7 -->
<g id="Node000007" class="node">
<title>Node7</title>
<g id="a_Node000007"><a xlink:href="classpsr_1_1EdgeFunctions.html" target="_top" xlink:title=" ">
<polygon fill="white" stroke="#666666" points="645,-120.5 516,-120.5 516,-90.5 645,-90.5 645,-120.5"/>
<text text-anchor="start" x="524" y="-108.5" font-family="Helvetica,sans-Serif" font-size="10.00">psr::EdgeFunctions</text>
<text text-anchor="middle" x="580.5" y="-97.5" font-family="Helvetica,sans-Serif" font-size="10.00">&lt; AnalysisDomainTy &gt;</text>
</a>
</g>
</g>
<!-- Node7&#45;&gt;Node3 -->
<g id="edge6_Node000003_Node000007" class="edge">
<title>Node7&#45;&gt;Node3</title>
<g id="a_edge6_Node000003_Node000007"><a xlink:title=" ">
<path fill="none" stroke="#63b8ff" d="M644.59,-122.89C661.48,-126.82 679.82,-130.44 697,-132.5 703.11,-133.23 709.42,-133.8 715.79,-134.22"/>
<polygon fill="#63b8ff" stroke="#63b8ff" points="645.37,-119.48 634.83,-120.55 643.74,-126.29 645.37,-119.48"/>
</a>
</g>
</g>
<!-- Node7&#45;&gt;Node12 -->
<g id="edge13_Node000012_Node000007" class="edge">
<title>Node7&#45;&gt;Node12</title>
<g id="a_edge13_Node000012_Node000007"><a xlink:title=" ">
<path fill="none" stroke="#63b8ff" d="M654.79,-90.74C663.24,-87.66 671.51,-83.96 679,-79.5 689,-73.55 686.34,-65.15 697,-60.5 702.99,-57.89 709.34,-55.97 715.85,-54.59"/>
<polygon fill="#63b8ff" stroke="#63b8ff" points="653.56,-87.46 645.19,-93.96 655.79,-94.1 653.56,-87.46"/>
</a>
</g>
</g>
<!-- Node8 -->
<g id="Node000008" class="node">
<title>Node8</title>
<g id="a_Node000008"><a xlink:href="classpsr_1_1JoinLattice_3_01AnalysisDomainTy_01_4.html" target="_top" xlink:title=" ">
<polygon fill="white" stroke="#666666" points="651,-169.5 510,-169.5 510,-139.5 651,-139.5 651,-169.5"/>
<text text-anchor="start" x="518" y="-157.5" font-family="Helvetica,sans-Serif" font-size="10.00">psr::JoinLattice&lt; Analysis</text>
<text text-anchor="middle" x="580.5" y="-146.5" font-family="Helvetica,sans-Serif" font-size="10.00">DomainTy &gt;</text>
</a>
</g>
</g>
<!-- Node8&#45;&gt;Node3 -->
<g id="edge7_Node000003_Node000008" class="edge">
<title>Node8&#45;&gt;Node3</title>
<g id="a_edge7_Node000003_Node000008"><a xlink:title=" ">
<path fill="none" stroke="#63b8ff" d="M661.46,-159.41C673.72,-159.34 686.22,-158.79 698,-157.5 714.8,-155.66 732.81,-152.24 749.22,-148.56"/>
<polygon fill="#63b8ff" stroke="#63b8ff" points="661.26,-155.91 651.24,-159.36 661.22,-162.91 661.26,-155.91"/>
</a>
</g>
</g>
<!-- Node8&#45;&gt;Node12 -->
<g id="edge14_Node000012_Node000008" class="edge">
<title>Node8&#45;&gt;Node12</title>
<g id="a_edge14_Node000012_Node000008"><a xlink:title=" ">
<path fill="none" stroke="#63b8ff" d="M659.26,-136.47C666.01,-134.33 672.67,-132.01 679,-129.5 681.61,-128.47 742.33,-94.84 778.85,-74.58"/>
<polygon fill="#63b8ff" stroke="#63b8ff" points="657.9,-133.23 649.34,-139.47 659.93,-139.93 657.9,-133.23"/>
</a>
</g>
</g>
<!-- Node9 -->
<g id="Node000009" class="node">
<title>Node9</title>
<g id="a_Node000009"><a xlink:href="classpsr_1_1SemiRing.html" target="_top" xlink:title=" ">
<polygon fill="white" stroke="#666666" points="679,-19 482,-19 482,0 679,0 679,-19"/>
<text text-anchor="middle" x="580.5" y="-7" font-family="Helvetica,sans-Serif" font-size="10.00">psr::SemiRing&lt; AnalysisDomainTy &gt;</text>
</a>
</g>
</g>
<!-- Node9&#45;&gt;Node3 -->
<g id="edge8_Node000003_Node000009" class="edge">
<title>Node9&#45;&gt;Node3</title>
<g id="a_edge8_Node000003_Node000009"><a xlink:title=" ">
<path fill="none" stroke="#63b8ff" d="M662.03,-22.56C668,-25.05 673.74,-28 679,-31.5 702.61,-47.21 694.86,-64.59 716,-83.5 732.12,-97.92 753.11,-109.88 770.76,-118.48"/>
<polygon fill="#63b8ff" stroke="#63b8ff" points="663.08,-19.22 652.48,-19.03 660.65,-25.78 663.08,-19.22"/>
</a>
</g>
</g>
<!-- Node9&#45;&gt;Node12 -->
<g id="edge15_Node000012_Node000009" class="edge">
<title>Node9&#45;&gt;Node12</title>
<g id="a_edge15_Node000012_Node000009"><a xlink:title=" ">
<path fill="none" stroke="#63b8ff" d="M646.48,-20.97C663.3,-24.16 681.37,-27.78 698,-31.5 715.3,-35.37 734.02,-40.05 750.95,-44.47"/>
<polygon fill="#63b8ff" stroke="#63b8ff" points="646.66,-17.44 636.18,-19.04 645.37,-24.33 646.66,-17.44"/>
</a>
</g>
</g>
<!-- Node10 -->
<g id="Node000010" class="node">
<title>Node10</title>
<g id="a_Node000010"><a xlink:href="classpsr_1_1AllTopFnProvider_3_01AnalysisDomainTy_01_4.html" target="_top" xlink:title=" ">
<polygon fill="white" stroke="#666666" points="645,-70.5 516,-70.5 516,-40.5 645,-40.5 645,-70.5"/>
<text text-anchor="start" x="524" y="-58.5" font-family="Helvetica,sans-Serif" font-size="10.00">psr::AllTopFnProvider</text>
<text text-anchor="middle" x="580.5" y="-47.5" font-family="Helvetica,sans-Serif" font-size="10.00">&lt; AnalysisDomainTy &gt;</text>
</a>
</g>
</g>
<!-- Node10&#45;&gt;Node3 -->
<g id="edge9_Node000003_Node000010" class="edge">
<title>Node10&#45;&gt;Node3</title>
<g id="a_edge9_Node000003_Node000010"><a xlink:title=" ">
<path fill="none" stroke="#63b8ff" d="M654.94,-68.96C663.47,-72.26 671.71,-76.37 679,-81.5 690.5,-89.59 685.4,-99.57 697,-107.5 703.34,-111.84 710.32,-115.45 717.6,-118.47"/>
<polygon fill="#63b8ff" stroke="#63b8ff" points="655.83,-65.56 645.23,-65.56 653.52,-72.16 655.83,-65.56"/>
</a>
</g>
</g>
<!-- Node10&#45;&gt;Node12 -->
<g id="edge16_Node000012_Node000010" class="edge">
<title>Node10&#45;&gt;Node12</title>
<g id="a_edge16_Node000012_Node000010"><a xlink:title=" ">
<path fill="none" stroke="#63b8ff" d="M642.86,-38.44C660.59,-35.28 680.01,-33.53 698,-35.5 714.8,-37.34 732.81,-40.76 749.22,-44.44"/>
<polygon fill="#63b8ff" stroke="#63b8ff" points="641.78,-35.08 632.64,-40.44 643.12,-41.95 641.78,-35.08"/>
</a>
</g>
</g>
<!-- Node11 -->
<g id="Node000011" class="node">
<title>Node11</title>
<g id="a_Node000011"><a xlink:href="classpsr_1_1IFDSTabulationProblem.html" target="_top" xlink:title="The analysis problem interface for IFDS problems (solvable by the IFDSSolver). Create a subclass from...">
<polygon fill="white" stroke="#666666" points="1117,-79.5 935,-79.5 935,-49.5 1117,-49.5 1117,-79.5"/>
<text text-anchor="start" x="943" y="-67.5" font-family="Helvetica,sans-Serif" font-size="10.00">psr::IFDSTabulationProblem</text>
<text text-anchor="middle" x="1026" y="-56.5" font-family="Helvetica,sans-Serif" font-size="10.00">&lt; AnalysisDomainTy, Container &gt;</text>
</a>
</g>
</g>
<!-- Node11&#45;&gt;Node2 -->
<g id="edge10_Node000002_Node000011" class="edge">
<title>Node11&#45;&gt;Node2</title>
<g id="a_edge10_Node000002_Node000011"><a xlink:title=" ">
<path fill="none" stroke="orange" stroke-dasharray="5,2" d="M1127.4,-65.73C1173.35,-66.8 1228.49,-68.79 1278,-72.5 1283.78,-72.93 1289.72,-73.44 1295.71,-74"/>
<polygon fill="orange" stroke="orange" points="1127.21,-62.23 1117.13,-65.5 1127.05,-69.22 1127.21,-62.23"/>
</a>
</g>
<text text-anchor="start" x="1135" y="-86.5" font-family="Helvetica,sans-Serif" font-size="10.00" fill="grey"> &lt; LLVMIFDSAnalysisDomain</text>
<text text-anchor="middle" x="1206.5" y="-75.5" font-family="Helvetica,sans-Serif" font-size="10.00" fill="grey">Default &gt;</text>
</g>
<!-- Node12&#45;&gt;Node11 -->
<g id="edge11_Node000011_Node000012" class="edge">
<title>Node12&#45;&gt;Node11</title>
<g id="a_edge11_Node000011_Node000012"><a xlink:title=" ">
<path fill="none" stroke="#63b8ff" d="M908.42,-61.81C917.22,-62.02 926.08,-62.22 934.79,-62.42"/>
<polygon fill="#63b8ff" stroke="#63b8ff" points="908.22,-58.31 898.14,-61.58 908.06,-65.31 908.22,-58.31"/>
</a>
</g>
</g>
</g>
</svg>
