<?xml version="1.0" encoding="UTF-8" standalone="no"?>
<!DOCTYPE svg PUBLIC "-//W3C//DTD SVG 1.1//EN"
 "http://www.w3.org/Graphics/SVG/1.1/DTD/svg11.dtd">
<!-- Generated by graphviz version 2.43.0 (0)
 -->
<!-- Title: psr::IDETypeStateAnalysis&lt; TypeStateDescriptionTy &gt; Pages: 1 -->
<svg width="1918pt" height="444pt"
 viewBox="0.00 0.00 1918.00 443.50" xmlns="http://www.w3.org/2000/svg" xmlns:xlink="http://www.w3.org/1999/xlink">
<g id="graph0" class="graph" transform="scale(1 1) rotate(0) translate(4 439.5)">
<title>psr::IDETypeStateAnalysis&lt; TypeStateDescriptionTy &gt;</title>
<!-- Node1 -->
<g id="Node000001" class="node">
<title>Node1</title>
<g id="a_Node000001"><a xlink:title=" ">
<polygon fill="#999999" stroke="#666666" points="1910,-288.5 1757,-288.5 1757,-258.5 1910,-258.5 1910,-288.5"/>
<text text-anchor="start" x="1765" y="-276.5" font-family="Helvetica,sans-Serif" font-size="10.00">psr::IDETypeStateAnalysis</text>
<text text-anchor="middle" x="1833.5" y="-265.5" font-family="Helvetica,sans-Serif" font-size="10.00">&lt; TypeStateDescriptionTy &gt;</text>
</a>
</g>
</g>
<!-- Node2 -->
<g id="Node000002" class="node">
<title>Node2</title>
<g id="a_Node000002"><a xlink:href="classpsr_1_1IDETabulationProblem.html" target="_top" xlink:title=" ">
<polygon fill="white" stroke="#666666" points="1720,-164 1548,-164 1548,-123 1720,-123 1720,-164"/>
<text text-anchor="start" x="1556" y="-152" font-family="Helvetica,sans-Serif" font-size="10.00">psr::IDETabulationProblem</text>
<text text-anchor="start" x="1556" y="-141" font-family="Helvetica,sans-Serif" font-size="10.00">&lt; IDETypeStateAnalysisDomain</text>
<text text-anchor="middle" x="1634" y="-130" font-family="Helvetica,sans-Serif" font-size="10.00">&lt; TypeStateDescriptionTy &gt; &gt;</text>
</a>
</g>
</g>
<!-- Node2&#45;&gt;Node1 -->
<g id="edge1_Node000001_Node000002" class="edge">
<title>Node2&#45;&gt;Node1</title>
<g id="a_edge1_Node000001_Node000002"><a xlink:title=" ">
<path fill="none" stroke="#63b8ff" d="M1674.86,-169.73C1715.37,-196.4 1776.72,-236.78 1809.66,-258.47"/>
<polygon fill="#63b8ff" stroke="#63b8ff" points="1676.57,-166.67 1666.29,-164.1 1672.72,-172.52 1676.57,-166.67"/>
</a>
</g>
</g>
<!-- Node3 -->
<g id="Node000003" class="node">
<title>Node3</title>
<g id="a_Node000003"><a xlink:href="classpsr_1_1FlowFunctions.html" target="_top" xlink:title=" ">
<polygon fill="white" stroke="#666666" points="1138,-130 1017,-130 1017,-89 1138,-89 1138,-130"/>
<text text-anchor="start" x="1025" y="-118" font-family="Helvetica,sans-Serif" font-size="10.00">psr::FlowFunctions</text>
<text text-anchor="start" x="1025" y="-107" font-family="Helvetica,sans-Serif" font-size="10.00">&lt; AnalysisDomainTy,</text>
<text text-anchor="middle" x="1077.5" y="-96" font-family="Helvetica,sans-Serif" font-size="10.00"> Container &gt;</text>
</a>
</g>
</g>
<!-- Node3&#45;&gt;Node2 -->
<g id="edge2_Node000002_Node000003" class="edge">
<title>Node3&#45;&gt;Node2</title>
<g id="a_edge2_Node000002_Node000003"><a xlink:title=" ">
<path fill="none" stroke="#63b8ff" d="M1147.93,-123.46C1150.65,-123.84 1153.35,-124.19 1156,-124.5 1292.46,-140.33 1452.17,-143.63 1547.83,-143.98"/>
<polygon fill="#63b8ff" stroke="#63b8ff" points="1148.43,-120 1138.02,-121.96 1147.38,-126.92 1148.43,-120"/>
</a>
</g>
</g>
<!-- Node4 -->
<g id="Node000004" class="node">
<title>Node4</title>
<g id="a_Node000004"><a xlink:href="classpsr_1_1FlowFunctionTemplates.html" target="_top" xlink:title=" ">
<polygon fill="white" stroke="#666666" points="732,-317 580,-317 580,-276 732,-276 732,-317"/>
<text text-anchor="start" x="588" y="-305" font-family="Helvetica,sans-Serif" font-size="10.00">psr::FlowFunctionTemplates</text>
<text text-anchor="start" x="588" y="-294" font-family="Helvetica,sans-Serif" font-size="10.00">&lt; AnalysisDomainTy::d_t,</text>
<text text-anchor="middle" x="656" y="-283" font-family="Helvetica,sans-Serif" font-size="10.00"> Container &gt;</text>
</a>
</g>
</g>
<!-- Node4&#45;&gt;Node3 -->
<g id="edge3_Node000003_Node000004" class="edge">
<title>Node4&#45;&gt;Node3</title>
<g id="a_edge3_Node000003_Node000004"><a xlink:title=" ">
<path fill="none" stroke="darkgreen" d="M671.81,-267.05C693.92,-226.66 739.74,-155.54 802,-124.5 869.7,-90.75 958.79,-93.04 1016.84,-99.68"/>
<polygon fill="darkgreen" stroke="darkgreen" points="668.7,-265.43 667.07,-275.9 674.88,-268.73 668.7,-265.43"/>
</a>
</g>
</g>
<!-- Node11 -->
<g id="Node000011" class="node">
<title>Node11</title>
<g id="a_Node000011"><a xlink:href="classpsr_1_1FlowFunctions.html" target="_top" xlink:title=" ">
<polygon fill="white" stroke="#666666" points="961,-357 840,-357 840,-316 961,-316 961,-357"/>
<text text-anchor="start" x="848" y="-345" font-family="Helvetica,sans-Serif" font-size="10.00">psr::FlowFunctions</text>
<text text-anchor="start" x="848" y="-334" font-family="Helvetica,sans-Serif" font-size="10.00">&lt; AnalysisDomainTy,</text>
<text text-anchor="middle" x="900.5" y="-323" font-family="Helvetica,sans-Serif" font-size="10.00"> Container &gt;</text>
</a>
</g>
</g>
<!-- Node4&#45;&gt;Node11 -->
<g id="edge11_Node000011_Node000004" class="edge">
<title>Node4&#45;&gt;Node11</title>
<g id="a_edge11_Node000011_Node000004"><a xlink:title=" ">
<path fill="none" stroke="darkgreen" d="M741.95,-310.51C774.24,-315.84 810.3,-321.79 839.77,-326.65"/>
<polygon fill="darkgreen" stroke="darkgreen" points="742.5,-307.06 732.07,-308.88 741.36,-313.96 742.5,-307.06"/>
</a>
</g>
</g>
<!-- Node5 -->
<g id="Node000005" class="node">
<title>Node5</title>
<g id="a_Node000005"><a xlink:href="classpsr_1_1FlowFunctionTemplates.html" target="_top" xlink:title=" ">
<polygon fill="white" stroke="#666666" points="319.5,-344.5 167.5,-344.5 167.5,-314.5 319.5,-314.5 319.5,-344.5"/>
<text text-anchor="start" x="175.5" y="-332.5" font-family="Helvetica,sans-Serif" font-size="10.00">psr::FlowFunctionTemplates</text>
<text text-anchor="middle" x="243.5" y="-321.5" font-family="Helvetica,sans-Serif" font-size="10.00">&lt; D, Container &gt;</text>
</a>
</g>
</g>
<!-- Node5&#45;&gt;Node4 -->
<g id="edge4_Node000004_Node000005" class="edge">
<title>Node5&#45;&gt;Node4</title>
<g id="a_edge4_Node000004_Node000005"><a xlink:title=" ">
<path fill="none" stroke="orange" stroke-dasharray="5,2" d="M330.05,-314.14C337.12,-313.14 344.17,-312.24 351,-311.5 428.75,-303.04 518.2,-299.35 579.85,-297.74"/>
<polygon fill="orange" stroke="orange" points="329.08,-310.74 319.69,-315.65 330.09,-317.67 329.08,-310.74"/>
</a>
</g>
<text text-anchor="start" x="387.5" y="-325.5" font-family="Helvetica,sans-Serif" font-size="10.00" fill="grey"> &lt; AnalysisDomainTy</text>
<text text-anchor="middle" x="440" y="-314.5" font-family="Helvetica,sans-Serif" font-size="10.00" fill="grey">::d_t, Container &gt;</text>
</g>
<!-- Node20 -->
<g id="Node000020" class="node">
<title>Node20</title>
<g id="a_Node000020"><a xlink:href="classpsr_1_1FlowFunctionTemplates.html" target="_top" xlink:title=" ">
<polygon fill="white" stroke="#666666" points="765,-387.5 547,-387.5 547,-335.5 765,-335.5 765,-387.5"/>
<text text-anchor="start" x="555" y="-375.5" font-family="Helvetica,sans-Serif" font-size="10.00">psr::FlowFunctionTemplates</text>
<text text-anchor="start" x="555" y="-364.5" font-family="Helvetica,sans-Serif" font-size="10.00">&lt; IDETypeStateAnalysisBaseCommon</text>
<text text-anchor="start" x="555" y="-353.5" font-family="Helvetica,sans-Serif" font-size="10.00">::d_t, IDETypeStateAnalysisBaseCommon</text>
<text text-anchor="middle" x="656" y="-342.5" font-family="Helvetica,sans-Serif" font-size="10.00">::container_type &gt;</text>
</a>
</g>
</g>
<!-- Node5&#45;&gt;Node20 -->
<g id="edge21_Node000020_Node000005" class="edge">
<title>Node5&#45;&gt;Node20</title>
<g id="a_edge21_Node000020_Node000005"><a xlink:title=" ">
<path fill="none" stroke="orange" stroke-dasharray="5,2" d="M330.09,-336.17C393.09,-341.08 479.19,-347.8 546.94,-353.08"/>
<polygon fill="orange" stroke="orange" points="330.03,-332.66 319.79,-335.37 329.49,-339.64 330.03,-332.66"/>
</a>
</g>
<text text-anchor="start" x="351" y="-375.5" font-family="Helvetica,sans-Serif" font-size="10.00" fill="grey"> &lt; IDETypeStateAnalysisBase</text>
<text text-anchor="start" x="351" y="-364.5" font-family="Helvetica,sans-Serif" font-size="10.00" fill="grey">Common::d_t, IDETypeStateAnalysis</text>
<text text-anchor="middle" x="440" y="-353.5" font-family="Helvetica,sans-Serif" font-size="10.00" fill="grey">BaseCommon::container_type &gt;</text>
</g>
<!-- Node6 -->
<g id="Node000006" class="node">
<title>Node6</title>
<g id="a_Node000006"><a xlink:href="classpsr_1_1EdgeFunctions.html" target="_top" xlink:title=" ">
<polygon fill="white" stroke="#666666" points="1319,-115.5 1190,-115.5 1190,-85.5 1319,-85.5 1319,-115.5"/>
<text text-anchor="start" x="1198" y="-103.5" font-family="Helvetica,sans-Serif" font-size="10.00">psr::EdgeFunctions</text>
<text text-anchor="middle" x="1254.5" y="-92.5" font-family="Helvetica,sans-Serif" font-size="10.00">&lt; AnalysisDomainTy &gt;</text>
</a>
</g>
</g>
<!-- Node6&#45;&gt;Node2 -->
<g id="edge5_Node000002_Node000006" class="edge">
<title>Node6&#45;&gt;Node2</title>
<g id="a_edge5_Node000002_Node000006"><a xlink:title=" ">
<path fill="none" stroke="#63b8ff" d="M1329.13,-107.68C1384.44,-113.21 1462.03,-121.29 1530,-129.5 1535.82,-130.2 1541.83,-130.95 1547.87,-131.73"/>
<polygon fill="#63b8ff" stroke="#63b8ff" points="1329.37,-104.18 1319.07,-106.67 1328.67,-111.15 1329.37,-104.18"/>
</a>
</g>
</g>
<!-- Node7 -->
<g id="Node000007" class="node">
<title>Node7</title>
<g id="a_Node000007"><a xlink:href="classpsr_1_1JoinLattice.html" target="_top" xlink:title=" ">
<polygon fill="white" stroke="#666666" points="1325,-67.5 1184,-67.5 1184,-37.5 1325,-37.5 1325,-67.5"/>
<text text-anchor="start" x="1192" y="-55.5" font-family="Helvetica,sans-Serif" font-size="10.00">psr::JoinLattice&lt; Analysis</text>
<text text-anchor="middle" x="1254.5" y="-44.5" font-family="Helvetica,sans-Serif" font-size="10.00">DomainTy, typename &gt;</text>
</a>
</g>
</g>
<!-- Node7&#45;&gt;Node2 -->
<g id="edge6_Node000002_Node000007" class="edge">
<title>Node7&#45;&gt;Node2</title>
<g id="a_edge6_Node000002_Node000007"><a xlink:title=" ">
<path fill="none" stroke="#63b8ff" d="M1335.28,-65.47C1390.43,-75.17 1465.23,-89.78 1530,-107.5 1545.99,-111.87 1563.08,-117.46 1578.65,-122.93"/>
<polygon fill="#63b8ff" stroke="#63b8ff" points="1335.67,-61.99 1325.22,-63.72 1334.47,-68.88 1335.67,-61.99"/>
</a>
</g>
</g>
<!-- Node8 -->
<g id="Node000008" class="node">
<title>Node8</title>
<g id="a_Node000008"><a xlink:href="classpsr_1_1SemiRing.html" target="_top" xlink:title=" ">
<polygon fill="white" stroke="#666666" points="1353,-19 1156,-19 1156,0 1353,0 1353,-19"/>
<text text-anchor="middle" x="1254.5" y="-7" font-family="Helvetica,sans-Serif" font-size="10.00">psr::SemiRing&lt; AnalysisDomainTy &gt;</text>
</a>
</g>
</g>
<!-- Node8&#45;&gt;Node2 -->
<g id="edge7_Node000002_Node000008" class="edge">
<title>Node8&#45;&gt;Node2</title>
<g id="a_edge7_Node000002_Node000008"><a xlink:title=" ">
<path fill="none" stroke="#63b8ff" d="M1352.46,-20.55C1406.48,-29.17 1473.95,-44.11 1530,-69.5 1560.09,-83.13 1590.28,-106.19 1610.12,-122.95"/>
<polygon fill="#63b8ff" stroke="#63b8ff" points="1352.96,-17.09 1342.54,-19.02 1351.88,-24.01 1352.96,-17.09"/>
</a>
</g>
</g>
<!-- Node9 -->
<g id="Node000009" class="node">
<title>Node9</title>
<g id="a_Node000009"><a xlink:href="classpsr_1_1AllTopFnProvider.html" target="_top" xlink:title=" ">
<polygon fill="white" stroke="#666666" points="1347,-201.5 1162,-201.5 1162,-171.5 1347,-171.5 1347,-201.5"/>
<text text-anchor="start" x="1170" y="-189.5" font-family="Helvetica,sans-Serif" font-size="10.00">psr::AllTopFnProvider</text>
<text text-anchor="middle" x="1254.5" y="-178.5" font-family="Helvetica,sans-Serif" font-size="10.00">&lt; AnalysisDomainTy, typename &gt;</text>
</a>
</g>
</g>
<!-- Node9&#45;&gt;Node2 -->
<g id="edge8_Node000002_Node000009" class="edge">
<title>Node9&#45;&gt;Node2</title>
<g id="a_edge8_Node000002_Node000009"><a xlink:title=" ">
<path fill="none" stroke="#63b8ff" d="M1357.26,-176.48C1409.03,-171.2 1472.91,-164.39 1530,-157.5 1535.82,-156.8 1541.83,-156.05 1547.87,-155.27"/>
<polygon fill="#63b8ff" stroke="#63b8ff" points="1356.67,-173.02 1347.08,-177.52 1357.38,-179.99 1356.67,-173.02"/>
</a>
</g>
</g>
<!-- Node10 -->
<g id="Node000010" class="node">
<title>Node10</title>
<g id="a_Node000010"><a xlink:href="classpsr_1_1IDETabulationProblem.html" target="_top" xlink:title="The analysis problem interface for IDE problems (solvable by the IDESolver). Create a subclass from t...">
<polygon fill="white" stroke="#666666" points="1345.5,-249.5 1163.5,-249.5 1163.5,-219.5 1345.5,-219.5 1345.5,-249.5"/>
<text text-anchor="start" x="1171.5" y="-237.5" font-family="Helvetica,sans-Serif" font-size="10.00">psr::IDETabulationProblem</text>
<text text-anchor="middle" x="1254.5" y="-226.5" font-family="Helvetica,sans-Serif" font-size="10.00">&lt; AnalysisDomainTy, Container &gt;</text>
</a>
</g>
</g>
<!-- Node10&#45;&gt;Node2 -->
<g id="edge9_Node000002_Node000010" class="edge">
<title>Node10&#45;&gt;Node2</title>
<g id="a_edge9_Node000002_Node000010"><a xlink:title=" ">
<path fill="none" stroke="orange" stroke-dasharray="5,2" d="M1355.52,-217.9C1407.89,-208.35 1472.85,-195.13 1530,-179.5 1545.99,-175.13 1563.08,-169.54 1578.65,-164.07"/>
<polygon fill="orange" stroke="orange" points="1354.77,-214.48 1345.55,-219.7 1356.02,-221.37 1354.77,-214.48"/>
</a>
</g>
<text text-anchor="start" x="1371" y="-227.5" font-family="Helvetica,sans-Serif" font-size="10.00" fill="grey"> &lt; IDETypeStateAnalysisDomain</text>
<text text-anchor="middle" x="1450.5" y="-216.5" font-family="Helvetica,sans-Serif" font-size="10.00" fill="grey">&lt; TypeStateDescriptionTy &gt; &gt;</text>
</g>
<!-- Node11&#45;&gt;Node10 -->
<g id="edge10_Node000010_Node000011" class="edge">
<title>Node11&#45;&gt;Node10</title>
<g id="a_edge10_Node000010_Node000011"><a xlink:title=" ">
<path fill="none" stroke="#63b8ff" d="M970.87,-318.77C1018.15,-306.44 1082.08,-289.25 1138,-272.5 1161.76,-265.38 1188.04,-256.79 1209.52,-249.58"/>
<polygon fill="#63b8ff" stroke="#63b8ff" points="969.83,-315.43 961.04,-321.33 971.6,-322.2 969.83,-315.43"/>
</a>
</g>
</g>
<!-- Node12 -->
<g id="Node000012" class="node">
<title>Node12</title>
<g id="a_Node000012"><a xlink:href="classpsr_1_1EdgeFunctions.html" target="_top" xlink:title=" ">
<polygon fill="white" stroke="#666666" points="965,-297.5 836,-297.5 836,-267.5 965,-267.5 965,-297.5"/>
<text text-anchor="start" x="844" y="-285.5" font-family="Helvetica,sans-Serif" font-size="10.00">psr::EdgeFunctions</text>
<text text-anchor="middle" x="900.5" y="-274.5" font-family="Helvetica,sans-Serif" font-size="10.00">&lt; AnalysisDomainTy &gt;</text>
</a>
</g>
</g>
<!-- Node12&#45;&gt;Node10 -->
<g id="edge12_Node000010_Node000012" class="edge">
<title>Node12&#45;&gt;Node10</title>
<g id="a_edge12_Node000010_Node000012"><a xlink:title=" ">
<path fill="none" stroke="#63b8ff" d="M975.23,-272.45C1030.02,-264.97 1105.07,-254.74 1163.42,-246.78"/>
<polygon fill="#63b8ff" stroke="#63b8ff" points="974.68,-268.99 965.24,-273.81 975.63,-275.92 974.68,-268.99"/>
</a>
</g>
</g>
<!-- Node13 -->
<g id="Node000013" class="node">
<title>Node13</title>
<g id="a_Node000013"><a xlink:href="classpsr_1_1JoinLattice.html" target="_top" xlink:title=" ">
<polygon fill="white" stroke="#666666" points="971,-249.5 830,-249.5 830,-219.5 971,-219.5 971,-249.5"/>
<text text-anchor="start" x="838" y="-237.5" font-family="Helvetica,sans-Serif" font-size="10.00">psr::JoinLattice&lt; Analysis</text>
<text text-anchor="middle" x="900.5" y="-226.5" font-family="Helvetica,sans-Serif" font-size="10.00">DomainTy, typename &gt;</text>
</a>
</g>
</g>
<!-- Node13&#45;&gt;Node10 -->
<g id="edge13_Node000010_Node000013" class="edge">
<title>Node13&#45;&gt;Node10</title>
<g id="a_edge13_Node000010_Node000013"><a xlink:title=" ">
<path fill="none" stroke="#63b8ff" d="M981.29,-234.5C1035.45,-234.5 1107.16,-234.5 1163.38,-234.5"/>
<polygon fill="#63b8ff" stroke="#63b8ff" points="981.04,-231 971.04,-234.5 981.04,-238 981.04,-231"/>
</a>
</g>
</g>
<!-- Node14 -->
<g id="Node000014" class="node">
<title>Node14</title>
<g id="a_Node000014"><a xlink:href="classpsr_1_1SemiRing.html" target="_top" xlink:title=" ">
<polygon fill="white" stroke="#666666" points="999,-201 802,-201 802,-182 999,-182 999,-201"/>
<text text-anchor="middle" x="900.5" y="-189" font-family="Helvetica,sans-Serif" font-size="10.00">psr::SemiRing&lt; AnalysisDomainTy &gt;</text>
</a>
</g>
</g>
<!-- Node14&#45;&gt;Node10 -->
<g id="edge14_Node000010_Node000014" class="edge">
<title>Node14&#45;&gt;Node10</title>
<g id="a_edge14_Node000010_Node000014"><a xlink:title=" ">
<path fill="none" stroke="#63b8ff" d="M989.69,-202.27C1042.74,-208.75 1110.11,-216.98 1163.48,-223.5"/>
<polygon fill="#63b8ff" stroke="#63b8ff" points="989.97,-198.78 979.62,-201.04 989.12,-205.73 989.97,-198.78"/>
</a>
</g>
</g>
<!-- Node15 -->
<g id="Node000015" class="node">
<title>Node15</title>
<g id="a_Node000015"><a xlink:href="classpsr_1_1AllTopFnProvider.html" target="_top" xlink:title=" ">
<polygon fill="white" stroke="#666666" points="993,-163.5 808,-163.5 808,-133.5 993,-133.5 993,-163.5"/>
<text text-anchor="start" x="816" y="-151.5" font-family="Helvetica,sans-Serif" font-size="10.00">psr::AllTopFnProvider</text>
<text text-anchor="middle" x="900.5" y="-140.5" font-family="Helvetica,sans-Serif" font-size="10.00">&lt; AnalysisDomainTy, typename &gt;</text>
</a>
</g>
</g>
<!-- Node15&#45;&gt;Node10 -->
<g id="edge15_Node000010_Node000015" class="edge">
<title>Node15&#45;&gt;Node10</title>
<g id="a_edge15_Node000010_Node000015"><a xlink:title=" ">
<path fill="none" stroke="#63b8ff" d="M995.3,-165.56C1039.19,-174.64 1091.84,-187.13 1138,-202.5 1146.31,-205.27 1147.72,-207.66 1156,-210.5 1165.48,-213.75 1175.63,-216.74 1185.65,-219.44"/>
<polygon fill="#63b8ff" stroke="#63b8ff" points="995.99,-162.13 985.49,-163.55 994.59,-168.98 995.99,-162.13"/>
</a>
</g>
</g>
<!-- Node16 -->
<g id="Node000016" class="node">
<title>Node16</title>
<g id="a_Node000016"><a xlink:title=" ">
<polygon fill="white" stroke="#666666" points="968.5,-405.5 832.5,-405.5 832.5,-375.5 968.5,-375.5 968.5,-405.5"/>
<text text-anchor="start" x="840.5" y="-393.5" font-family="Helvetica,sans-Serif" font-size="10.00">psr::detail::IDETypeState</text>
<text text-anchor="middle" x="900.5" y="-382.5" font-family="Helvetica,sans-Serif" font-size="10.00">AnalysisBase</text>
</a>
</g>
</g>
<!-- Node16&#45;&gt;Node1 -->
<g id="edge16_Node000001_Node000016" class="edge">
<title>Node16&#45;&gt;Node1</title>
<g id="a_edge16_Node000001_Node000016"><a xlink:title=" ">
<path fill="none" stroke="#8b1a1a" d="M978.78,-380.79C1154.61,-358.69 1582.77,-304.88 1756.94,-283"/>
<polygon fill="#8b1a1a" stroke="#8b1a1a" points="978.32,-377.32 968.83,-382.04 979.19,-384.26 978.32,-377.32"/>
</a>
</g>
</g>
<!-- Node17 -->
<g id="Node000017" class="node">
<title>Node17</title>
<g id="a_Node000017"><a xlink:title=" ">
<polygon fill="white" stroke="#666666" points="724,-435.5 588,-435.5 588,-405.5 724,-405.5 724,-435.5"/>
<text text-anchor="start" x="596" y="-423.5" font-family="Helvetica,sans-Serif" font-size="10.00">psr::detail::IDETypeState</text>
<text text-anchor="middle" x="656" y="-412.5" font-family="Helvetica,sans-Serif" font-size="10.00">AnalysisBaseCommon</text>
</a>
</g>
</g>
<!-- Node17&#45;&gt;Node16 -->
<g id="edge17_Node000016_Node000017" class="edge">
<title>Node17&#45;&gt;Node16</title>
<g id="a_edge17_Node000016_Node000017"><a xlink:title=" ">
<path fill="none" stroke="#8b1a1a" d="M734.27,-410.94C765.73,-407.05 801.77,-402.59 832.14,-398.83"/>
<polygon fill="#8b1a1a" stroke="#8b1a1a" points="733.72,-407.48 724.23,-412.18 734.58,-414.43 733.72,-407.48"/>
</a>
</g>
</g>
<!-- Node18 -->
<g id="Node000018" class="node">
<title>Node18</title>
<g id="a_Node000018"><a xlink:href="structpsr_1_1LLVMAnalysisDomainDefault.html" target="_top" xlink:title="An AnalysisDomain that specializes sensible defaults for LLVM&#45;based analysis.">
<polygon fill="white" stroke="#666666" points="333,-430 154,-430 154,-411 333,-411 333,-430"/>
<text text-anchor="middle" x="243.5" y="-418" font-family="Helvetica,sans-Serif" font-size="10.00">psr::LLVMAnalysisDomainDefault</text>
</a>
</g>
</g>
<!-- Node18&#45;&gt;Node17 -->
<g id="edge18_Node000017_Node000018" class="edge">
<title>Node18&#45;&gt;Node17</title>
<g id="a_edge18_Node000017_Node000018"><a xlink:title=" ">
<path fill="none" stroke="#63b8ff" d="M343.1,-420.5C418.83,-420.5 521.39,-420.5 587.87,-420.5"/>
<polygon fill="#63b8ff" stroke="#63b8ff" points="343.07,-417 333.07,-420.5 343.07,-424 343.07,-417"/>
</a>
</g>
</g>
<!-- Node19 -->
<g id="Node000019" class="node">
<title>Node19</title>
<g id="a_Node000019"><a xlink:href="structpsr_1_1AnalysisDomain.html" target="_top" xlink:title=" ">
<polygon fill="white" stroke="#666666" points="117,-430 0,-430 0,-411 117,-411 117,-430"/>
<text text-anchor="middle" x="58.5" y="-418" font-family="Helvetica,sans-Serif" font-size="10.00">psr::AnalysisDomain</text>
</a>
</g>
</g>
<!-- Node19&#45;&gt;Node18 -->
<g id="edge19_Node000018_Node000019" class="edge">
<title>Node19&#45;&gt;Node18</title>
<g id="a_edge19_Node000018_Node000019"><a xlink:title=" ">
<path fill="none" stroke="#63b8ff" d="M127.43,-420.5C135.99,-420.5 144.85,-420.5 153.67,-420.5"/>
<polygon fill="#63b8ff" stroke="#63b8ff" points="127.15,-417 117.15,-420.5 127.15,-424 127.15,-417"/>
</a>
</g>
</g>
<!-- Node20&#45;&gt;Node16 -->
<g id="edge20_Node000016_Node000020" class="edge">
<title>Node20&#45;&gt;Node16</title>
<g id="a_edge20_Node000016_Node000020"><a xlink:title=" ">
<path fill="none" stroke="#8b1a1a" d="M775.07,-375.62C794.72,-377.97 814.49,-380.33 832.3,-382.46"/>
<polygon fill="#8b1a1a" stroke="#8b1a1a" points="775.47,-372.14 765.13,-374.43 774.64,-379.09 775.47,-372.14"/>
</a>
</g>
</g>
</g>
</svg>
