<?xml version="1.0" encoding="UTF-8" standalone="no"?>
<!DOCTYPE svg PUBLIC "-//W3C//DTD SVG 1.1//EN"
 "http://www.w3.org/Graphics/SVG/1.1/DTD/svg11.dtd">
<!-- Generated by graphviz version 2.43.0 (0)
 -->
<!-- Title: psr::IterativeIDESolver&lt; ProblemTy, StaticSolverConfigTy &gt; Pages: 1 -->
<svg width="961pt" height="250pt"
 viewBox="0.00 0.00 961.00 249.50" xmlns="http://www.w3.org/2000/svg" xmlns:xlink="http://www.w3.org/1999/xlink">
<g id="graph0" class="graph" transform="scale(1 1) rotate(0) translate(4 245.5)">
<title>psr::IterativeIDESolver&lt; ProblemTy, StaticSolverConfigTy &gt;</title>
<!-- Node1 -->
<g id="Node000001" class="node">
<title>Node1</title>
<g id="a_Node000001"><a xlink:title=" ">
<polygon fill="#999999" stroke="#666666" points="953,-122 757,-122 757,-92 953,-92 953,-122"/>
<text text-anchor="start" x="765" y="-110" font-family="Helvetica,sans-Serif" font-size="10.00">psr::IterativeIDESolver</text>
<text text-anchor="middle" x="855" y="-99" font-family="Helvetica,sans-Serif" font-size="10.00">&lt; ProblemTy, StaticSolverConfigTy &gt;</text>
</a>
</g>
</g>
<!-- Node2 -->
<g id="Node000002" class="node">
<title>Node2</title>
<g id="a_Node000002"><a xlink:href="structpsr_1_1SolverStatsSelector.html" target="_top" xlink:title=" ">
<polygon fill="white" stroke="#666666" points="646,-241.5 513,-241.5 513,-200.5 646,-200.5 646,-241.5"/>
<text text-anchor="start" x="521" y="-229.5" font-family="Helvetica,sans-Serif" font-size="10.00">psr::SolverStatsSelector</text>
<text text-anchor="start" x="521" y="-218.5" font-family="Helvetica,sans-Serif" font-size="10.00">&lt; StaticSolverConfigTy,</text>
<text text-anchor="middle" x="579.5" y="-207.5" font-family="Helvetica,sans-Serif" font-size="10.00"> typename &gt;</text>
</a>
</g>
</g>
<!-- Node2&#45;&gt;Node1 -->
<g id="edge1_Node000001_Node000002" class="edge">
<title>Node2&#45;&gt;Node1</title>
<g id="a_edge1_Node000001_Node000002"><a xlink:title=" ">
<path fill="none" stroke="#8b1a1a" d="M656.06,-209.74C677.2,-205.26 699.89,-199.17 720,-191 764.01,-173.12 809.73,-141.05 834.75,-122.13"/>
<polygon fill="#8b1a1a" stroke="#8b1a1a" points="655.25,-206.33 646.15,-211.75 656.64,-213.19 655.25,-206.33"/>
</a>
</g>
</g>
<!-- Node3 -->
<g id="Node000003" class="node">
<title>Node3</title>
<g id="a_Node000003"><a xlink:title=" ">
<polygon fill="white" stroke="#666666" points="720,-182 439,-182 439,-108 720,-108 720,-182"/>
<text text-anchor="start" x="447" y="-170" font-family="Helvetica,sans-Serif" font-size="10.00">psr::detail::IterativeIDESolver</text>
<text text-anchor="start" x="447" y="-159" font-family="Helvetica,sans-Serif" font-size="10.00">Results&lt; ProblemTy::ProblemAnalysis</text>
<text text-anchor="start" x="447" y="-148" font-family="Helvetica,sans-Serif" font-size="10.00">Domain::n_t, ProblemTy::ProblemAnalysisDomain</text>
<text text-anchor="start" x="447" y="-137" font-family="Helvetica,sans-Serif" font-size="10.00">::d_t, std::conditional_t&lt; StaticSolverConfigTy</text>
<text text-anchor="start" x="447" y="-126" font-family="Helvetica,sans-Serif" font-size="10.00">::ComputeValues, ProblemTy::ProblemAnalysisDomain</text>
<text text-anchor="middle" x="579.5" y="-115" font-family="Helvetica,sans-Serif" font-size="10.00">::l_t, BinaryDomain &gt; &gt;</text>
</a>
</g>
</g>
<!-- Node3&#45;&gt;Node1 -->
<g id="edge2_Node000001_Node000003" class="edge">
<title>Node3&#45;&gt;Node1</title>
<g id="a_edge2_Node000001_Node000003"><a xlink:title=" ">
<path fill="none" stroke="#8b1a1a" d="M730.19,-124.2C739.15,-122.96 748.04,-121.72 756.69,-120.52"/>
<polygon fill="#8b1a1a" stroke="#8b1a1a" points="729.48,-120.77 720.05,-125.61 730.44,-127.7 729.48,-120.77"/>
</a>
</g>
</g>
<!-- Node4 -->
<g id="Node000004" class="node">
<title>Node4</title>
<g id="a_Node000004"><a xlink:title=" ">
<polygon fill="white" stroke="#666666" points="160,-160 0,-160 0,-130 160,-130 160,-160"/>
<text text-anchor="start" x="8" y="-148" font-family="Helvetica,sans-Serif" font-size="10.00">psr::detail::IterativeIDESolver</text>
<text text-anchor="middle" x="80" y="-137" font-family="Helvetica,sans-Serif" font-size="10.00">Results&lt; N, D, L &gt;</text>
</a>
</g>
</g>
<!-- Node4&#45;&gt;Node3 -->
<g id="edge3_Node000003_Node000004" class="edge">
<title>Node4&#45;&gt;Node3</title>
<g id="a_edge3_Node000003_Node000004"><a xlink:title=" ">
<path fill="none" stroke="orange" stroke-dasharray="5,2" d="M170.4,-145C244.98,-145 352.56,-145 438.54,-145"/>
<polygon fill="orange" stroke="orange" points="170.11,-141.5 160.11,-145 170.11,-148.5 170.11,-141.5"/>
</a>
</g>
<text text-anchor="start" x="178" y="-203" font-family="Helvetica,sans-Serif" font-size="10.00" fill="grey"> &lt; ProblemTy::ProblemAnalysis</text>
<text text-anchor="start" x="178" y="-192" font-family="Helvetica,sans-Serif" font-size="10.00" fill="grey">Domain::n_t, ProblemTy::</text>
<text text-anchor="start" x="178" y="-181" font-family="Helvetica,sans-Serif" font-size="10.00" fill="grey">ProblemAnalysisDomain::d</text>
<text text-anchor="start" x="178" y="-170" font-family="Helvetica,sans-Serif" font-size="10.00" fill="grey">_t, std::conditional_t&lt; StaticSolver</text>
<text text-anchor="start" x="178" y="-159" font-family="Helvetica,sans-Serif" font-size="10.00" fill="grey">ConfigTy::ComputeValues, ProblemTy</text>
<text text-anchor="middle" x="299.5" y="-148" font-family="Helvetica,sans-Serif" font-size="10.00" fill="grey">::ProblemAnalysisDomain::l_t, BinaryDomain &gt; &gt;</text>
</g>
<!-- Node5 -->
<g id="Node000005" class="node">
<title>Node5</title>
<g id="a_Node000005"><a xlink:href="classpsr_1_1IterativeIDESolverBase.html" target="_top" xlink:title=" ">
<polygon fill="white" stroke="#666666" points="654.5,-89.5 504.5,-89.5 504.5,-48.5 654.5,-48.5 654.5,-89.5"/>
<text text-anchor="start" x="512.5" y="-77.5" font-family="Helvetica,sans-Serif" font-size="10.00">psr::IterativeIDESolverBase</text>
<text text-anchor="start" x="512.5" y="-66.5" font-family="Helvetica,sans-Serif" font-size="10.00">&lt; StaticSolverConfigTy,</text>
<text text-anchor="middle" x="579.5" y="-55.5" font-family="Helvetica,sans-Serif" font-size="10.00"> EdgeFunPtrTy &gt;</text>
</a>
</g>
</g>
<!-- Node5&#45;&gt;Node1 -->
<g id="edge4_Node000001_Node000005" class="edge">
<title>Node5&#45;&gt;Node1</title>
<g id="a_edge4_Node000001_Node000005"><a xlink:title=" ">
<path fill="none" stroke="#63b8ff" d="M664.65,-80.69C693.79,-84.74 726.69,-89.31 756.79,-93.49"/>
<polygon fill="#63b8ff" stroke="#63b8ff" points="664.9,-77.19 654.51,-79.28 663.94,-84.13 664.9,-77.19"/>
</a>
</g>
</g>
<!-- Node6 -->
<g id="Node000006" class="node">
<title>Node6</title>
<g id="a_Node000006"><a xlink:href="classpsr_1_1IDESolverAPIMixin.html" target="_top" xlink:title=" ">
<polygon fill="white" stroke="#666666" points="643.5,-30 515.5,-30 515.5,0 643.5,0 643.5,-30"/>
<text text-anchor="start" x="523.5" y="-18" font-family="Helvetica,sans-Serif" font-size="10.00">psr::IDESolverAPIMixin</text>
<text text-anchor="middle" x="579.5" y="-7" font-family="Helvetica,sans-Serif" font-size="10.00">&lt; Derived &gt;</text>
</a>
</g>
</g>
<!-- Node6&#45;&gt;Node1 -->
<g id="edge5_Node000001_Node000006" class="edge">
<title>Node6&#45;&gt;Node1</title>
<g id="a_edge5_Node000001_Node000006"><a xlink:title=" ">
<path fill="none" stroke="#63b8ff" d="M653.73,-24.08C675.39,-27.84 698.93,-33.01 720,-40 759.99,-53.27 803.03,-76.58 829.24,-91.9"/>
<polygon fill="#63b8ff" stroke="#63b8ff" points="654.04,-20.58 643.6,-22.39 652.89,-27.49 654.04,-20.58"/>
</a>
</g>
</g>
</g>
</svg>
