<?xml version="1.0" encoding="UTF-8" standalone="no"?>
<!DOCTYPE svg PUBLIC "-//W3C//DTD SVG 1.1//EN"
 "http://www.w3.org/Graphics/SVG/1.1/DTD/svg11.dtd">
<!-- Generated by graphviz version 2.43.0 (0)
 -->
<!-- Title: psr::LLVMVFTable Pages: 1 -->
<svg width="198pt" height="160pt"
 viewBox="0.00 0.00 197.50 160.00" xmlns="http://www.w3.org/2000/svg" xmlns:xlink="http://www.w3.org/1999/xlink">
<g id="graph0" class="graph" transform="scale(1 1) rotate(0) translate(4 156)">
<title>psr::LLVMVFTable</title>
<!-- Node1 -->
<g id="Node000001" class="node">
<title>Node1</title>
<g id="a_Node000001"><a xlink:title="Represents a virtual method table.">
<polygon fill="#999999" stroke="#666666" points="107,-19 6,-19 6,0 107,0 107,-19"/>
<text text-anchor="middle" x="56.5" y="-7" font-family="Helvetica,sans-Serif" font-size="10.00">psr::LLVMVFTable</text>
</a>
</g>
</g>
<!-- Node2 -->
<g id="Node000002" class="node">
<title>Node2</title>
<g id="a_Node000002"><a xlink:href="classpsr_1_1VFTable.html" target="_top" xlink:title=" ">
<polygon fill="white" stroke="#666666" points="113,-86 0,-86 0,-56 113,-56 113,-86"/>
<text text-anchor="start" x="8" y="-74" font-family="Helvetica,sans-Serif" font-size="10.00">psr::VFTable&lt; const</text>
<text text-anchor="middle" x="56.5" y="-63" font-family="Helvetica,sans-Serif" font-size="10.00"> llvm::Function * &gt;</text>
</a>
</g>
</g>
<!-- Node2&#45;&gt;Node1 -->
<g id="edge1_Node000001_Node000002" class="edge">
<title>Node2&#45;&gt;Node1</title>
<g id="a_edge1_Node000001_Node000002"><a xlink:title=" ">
<path fill="none" stroke="#63b8ff" d="M56.5,-45.79C56.5,-36.36 56.5,-26.15 56.5,-19.16"/>
<polygon fill="#63b8ff" stroke="#63b8ff" points="53,-45.9 56.5,-55.9 60,-45.9 53,-45.9"/>
</a>
</g>
</g>
<!-- Node3 -->
<g id="Node000003" class="node">
<title>Node3</title>
<g id="a_Node000003"><a xlink:href="classpsr_1_1VFTable.html" target="_top" xlink:title="A generic class to represent a virtual function table.">
<polygon fill="white" stroke="#666666" points="108.5,-152 4.5,-152 4.5,-133 108.5,-133 108.5,-152"/>
<text text-anchor="middle" x="56.5" y="-140" font-family="Helvetica,sans-Serif" font-size="10.00">psr::VFTable&lt; F &gt;</text>
</a>
</g>
</g>
<!-- Node3&#45;&gt;Node2 -->
<g id="edge2_Node000002_Node000003" class="edge">
<title>Node3&#45;&gt;Node2</title>
<g id="a_edge2_Node000002_Node000003"><a xlink:title=" ">
<path fill="none" stroke="orange" stroke-dasharray="5,2" d="M56.5,-122.71C56.5,-111.19 56.5,-96.68 56.5,-86.14"/>
<polygon fill="orange" stroke="orange" points="53,-122.98 56.5,-132.98 60,-122.98 53,-122.98"/>
</a>
</g>
<text text-anchor="middle" x="123" y="-107" font-family="Helvetica,sans-Serif" font-size="10.00" fill="grey"> &lt; const llvm::Function * &gt;</text>
</g>
</g>
</svg>
