<?xml version="1.0" encoding="UTF-8" standalone="no"?>
<!DOCTYPE svg PUBLIC "-//W3C//DTD SVG 1.1//EN"
 "http://www.w3.org/Graphics/SVG/1.1/DTD/svg11.dtd">
<!-- Generated by graphviz version 2.43.0 (0)
 -->
<!-- Title: psr::Compressor&lt; T, IdT &gt; Pages: 1 -->
<svg width="436pt" height="135pt"
 viewBox="0.00 0.00 436.00 134.50" xmlns="http://www.w3.org/2000/svg" xmlns:xlink="http://www.w3.org/1999/xlink">
<g id="graph0" class="graph" transform="scale(1 1) rotate(0) translate(4 130.5)">
<title>psr::Compressor&lt; T, IdT &gt;</title>
<!-- Node1 -->
<g id="Node000001" class="node">
<title>Node1</title>
<g id="a_Node000001"><a xlink:title=" ">
<polygon fill="#999999" stroke="#666666" points="116,-84 0,-84 0,-54 116,-54 116,-84"/>
<text text-anchor="start" x="8" y="-72" font-family="Helvetica,sans-Serif" font-size="10.00">psr::Compressor&lt; T,</text>
<text text-anchor="middle" x="58" y="-61" font-family="Helvetica,sans-Serif" font-size="10.00"> IdT &gt;</text>
</a>
</g>
</g>
<!-- Node2 -->
<g id="Node000002" class="node">
<title>Node2</title>
<g id="a_Node000002"><a xlink:href="classpsr_1_1Compressor.html" target="_top" xlink:title=" ">
<polygon fill="white" stroke="#666666" points="408.5,-126.5 277.5,-126.5 277.5,-107.5 408.5,-107.5 408.5,-126.5"/>
<text text-anchor="middle" x="343" y="-114.5" font-family="Helvetica,sans-Serif" font-size="10.00">psr::Compressor&lt; f_t &gt;</text>
</a>
</g>
</g>
<!-- Node1&#45;&gt;Node2 -->
<g id="edge1_Node000001_Node000002" class="edge">
<title>Node1&#45;&gt;Node2</title>
<g id="a_edge1_Node000001_Node000002"><a xlink:title=" ">
<path fill="none" stroke="orange" stroke-dasharray="5,2" d="M106.61,-87.32C115.6,-90.26 125.01,-92.99 134,-95 181.31,-105.56 235.85,-111.09 277.2,-113.96"/>
<polygon fill="orange" stroke="orange" points="107.65,-83.98 97.05,-84.08 105.4,-90.61 107.65,-83.98"/>
</a>
</g>
<text text-anchor="middle" x="187" y="-113" font-family="Helvetica,sans-Serif" font-size="10.00" fill="grey"> &lt; f_t &gt;</text>
</g>
<!-- Node3 -->
<g id="Node000003" class="node">
<title>Node3</title>
<g id="a_Node000003"><a xlink:href="classpsr_1_1Compressor.html" target="_top" xlink:title=" ">
<polygon fill="white" stroke="#666666" points="404,-89.5 282,-89.5 282,-48.5 404,-48.5 404,-89.5"/>
<text text-anchor="start" x="290" y="-77.5" font-family="Helvetica,sans-Serif" font-size="10.00">psr::Compressor&lt; psr</text>
<text text-anchor="start" x="290" y="-66.5" font-family="Helvetica,sans-Serif" font-size="10.00">::vta::TAGNode, vta::</text>
<text text-anchor="middle" x="343" y="-55.5" font-family="Helvetica,sans-Serif" font-size="10.00">TAGNodeId &gt;</text>
</a>
</g>
</g>
<!-- Node1&#45;&gt;Node3 -->
<g id="edge2_Node000001_Node000003" class="edge">
<title>Node1&#45;&gt;Node3</title>
<g id="a_edge2_Node000001_Node000003"><a xlink:title=" ">
<path fill="none" stroke="orange" stroke-dasharray="5,2" d="M126.41,-69C173.68,-69 236.32,-69 281.89,-69"/>
<polygon fill="orange" stroke="orange" points="126.27,-65.5 116.27,-69 126.27,-72.5 126.27,-65.5"/>
</a>
</g>
<text text-anchor="start" x="134" y="-83" font-family="Helvetica,sans-Serif" font-size="10.00" fill="grey"> &lt; psr::vta::TAGNode,</text>
<text text-anchor="middle" x="187" y="-72" font-family="Helvetica,sans-Serif" font-size="10.00" fill="grey"> vta::TAGNodeId &gt;</text>
</g>
<!-- Node4 -->
<g id="Node000004" class="node">
<title>Node4</title>
<g id="a_Node000004"><a xlink:href="classpsr_1_1Compressor.html" target="_top" xlink:title=" ">
<polygon fill="white" stroke="#666666" points="428,-30 258,-30 258,0 428,0 428,-30"/>
<text text-anchor="start" x="266" y="-18" font-family="Helvetica,sans-Serif" font-size="10.00">psr::Compressor&lt; psr</text>
<text text-anchor="middle" x="343" y="-7" font-family="Helvetica,sans-Serif" font-size="10.00">::vta::TAGNode, GraphNodeId &gt;</text>
</a>
</g>
</g>
<!-- Node1&#45;&gt;Node4 -->
<g id="edge3_Node000001_Node000004" class="edge">
<title>Node1&#45;&gt;Node4</title>
<g id="a_edge3_Node000001_Node000004"><a xlink:title=" ">
<path fill="none" stroke="orange" stroke-dasharray="5,2" d="M107.53,-50.6C116.26,-47.74 125.33,-45.06 134,-43 174.23,-33.42 219.67,-26.83 257.8,-22.46"/>
<polygon fill="orange" stroke="orange" points="106.22,-47.35 97.88,-53.87 108.47,-53.98 106.22,-47.35"/>
</a>
</g>
<text text-anchor="start" x="134" y="-57" font-family="Helvetica,sans-Serif" font-size="10.00" fill="grey"> &lt; psr::vta::TAGNode,</text>
<text text-anchor="middle" x="187" y="-46" font-family="Helvetica,sans-Serif" font-size="10.00" fill="grey"> GraphNodeId &gt;</text>
</g>
</g>
</svg>
