<?xml version="1.0" encoding="UTF-8" standalone="no"?>
<!DOCTYPE svg PUBLIC "-//W3C//DTD SVG 1.1//EN"
 "http://www.w3.org/Graphics/SVG/1.1/DTD/svg11.dtd">
<!-- Generated by graphviz version 2.43.0 (0)
 -->
<!-- Title: psr::JoinLattice&lt; AnalysisDomainTy &gt; Pages: 1 -->
<svg width="1125pt" height="1593pt"
 viewBox="0.00 0.00 1125.00 1592.51" xmlns="http://www.w3.org/2000/svg" xmlns:xlink="http://www.w3.org/1999/xlink">
<g id="graph0" class="graph" transform="scale(1 1) rotate(0) translate(4 1588.51)">
<title>psr::JoinLattice&lt; AnalysisDomainTy &gt;</title>
<!-- Node1 -->
<g id="Node000001" class="node">
<title>Node1</title>
<g id="a_Node000001"><a xlink:title=" ">
<polygon fill="#999999" stroke="#666666" points="141,-770.01 0,-770.01 0,-740.01 141,-740.01 141,-770.01"/>
<text text-anchor="start" x="8" y="-758.01" font-family="Helvetica,sans-Serif" font-size="10.00">psr::JoinLattice&lt; Analysis</text>
<text text-anchor="middle" x="70.5" y="-747.01" font-family="Helvetica,sans-Serif" font-size="10.00">DomainTy &gt;</text>
</a>
</g>
</g>
<!-- Node2 -->
<g id="Node000002" class="node">
<title>Node2</title>
<g id="a_Node000002"><a xlink:href="classpsr_1_1IDETabulationProblem.html" target="_top" xlink:title=" ">
<polygon fill="white" stroke="#666666" points="647.5,-1584.51 434.5,-1584.51 434.5,-1521.51 647.5,-1521.51 647.5,-1584.51"/>
<text text-anchor="start" x="442.5" y="-1572.51" font-family="Helvetica,sans-Serif" font-size="10.00">psr::IDETabulationProblem</text>
<text text-anchor="start" x="442.5" y="-1561.51" font-family="Helvetica,sans-Serif" font-size="10.00">&lt; WithBinaryValueDomain</text>
<text text-anchor="start" x="442.5" y="-1550.51" font-family="Helvetica,sans-Serif" font-size="10.00">&lt; LLVMAnalysisDomainDefault</text>
<text text-anchor="start" x="442.5" y="-1539.51" font-family="Helvetica,sans-Serif" font-size="10.00"> &gt;, std::set&lt; typename AnalysisDomain</text>
<text text-anchor="middle" x="541" y="-1528.51" font-family="Helvetica,sans-Serif" font-size="10.00">Ty::d_t &gt; &gt;</text>
</a>
</g>
</g>
<!-- Node1&#45;&gt;Node2 -->
<g id="edge1_Node000001_Node000002" class="edge">
<title>Node1&#45;&gt;Node2</title>
<g id="a_edge1_Node000001_Node000002"><a xlink:title=" ">
<path fill="none" stroke="#63b8ff" d="M72.95,-780.08C80.06,-899.49 112.85,-1407.06 159,-1459.01 227.21,-1535.8 347.2,-1554.75 434.34,-1557.35"/>
<polygon fill="#63b8ff" stroke="#63b8ff" points="76.44,-779.83 72.36,-770.05 69.45,-780.24 76.44,-779.83"/>
</a>
</g>
</g>
<!-- Node3 -->
<g id="Node000003" class="node">
<title>Node3</title>
<g id="a_Node000003"><a xlink:href="classpsr_1_1IDETabulationProblem.html" target="_top" xlink:title=" ">
<polygon fill="white" stroke="#666666" points="674,-1503.01 408,-1503.01 408,-1451.01 674,-1451.01 674,-1503.01"/>
<text text-anchor="start" x="416" y="-1491.01" font-family="Helvetica,sans-Serif" font-size="10.00">psr::IDETabulationProblem</text>
<text text-anchor="start" x="416" y="-1480.01" font-family="Helvetica,sans-Serif" font-size="10.00">&lt; WithBinaryValueDomain</text>
<text text-anchor="start" x="416" y="-1469.01" font-family="Helvetica,sans-Serif" font-size="10.00">&lt; LLVMIFDSAnalysisDomainDefault</text>
<text text-anchor="middle" x="541" y="-1458.01" font-family="Helvetica,sans-Serif" font-size="10.00"> &gt;, std::set&lt; typename AnalysisDomainTy::d_t &gt; &gt;</text>
</a>
</g>
</g>
<!-- Node1&#45;&gt;Node3 -->
<g id="edge2_Node000001_Node000003" class="edge">
<title>Node1&#45;&gt;Node3</title>
<g id="a_edge2_Node000001_Node000003"><a xlink:title=" ">
<path fill="none" stroke="#63b8ff" d="M71.14,-780.22C70.14,-888.39 71.93,-1312 159,-1404.01 221.72,-1470.3 324.78,-1486.87 407.91,-1487.78"/>
<polygon fill="#63b8ff" stroke="#63b8ff" points="74.64,-780.25 71.25,-770.22 67.64,-780.18 74.64,-780.25"/>
</a>
</g>
</g>
<!-- Node4 -->
<g id="Node000004" class="node">
<title>Node4</title>
<g id="a_Node000004"><a xlink:href="classpsr_1_1IDETabulationProblem.html" target="_top" xlink:title=" ">
<polygon fill="white" stroke="#666666" points="638.5,-1433.01 443.5,-1433.01 443.5,-1403.01 638.5,-1403.01 638.5,-1433.01"/>
<text text-anchor="start" x="451.5" y="-1421.01" font-family="Helvetica,sans-Serif" font-size="10.00">psr::IDETabulationProblem</text>
<text text-anchor="middle" x="541" y="-1410.01" font-family="Helvetica,sans-Serif" font-size="10.00">&lt; IDEFeatureTaintAnalysisDomain &gt;</text>
</a>
</g>
</g>
<!-- Node1&#45;&gt;Node4 -->
<g id="edge3_Node000001_Node000004" class="edge">
<title>Node1&#45;&gt;Node4</title>
<g id="a_edge3_Node000001_Node000004"><a xlink:title=" ">
<path fill="none" stroke="#63b8ff" d="M71.45,-780.09C71.8,-882.44 78.52,-1267.03 159,-1350.01 231.62,-1424.9 356.29,-1433.96 443.16,-1429.5"/>
<polygon fill="#63b8ff" stroke="#63b8ff" points="74.95,-780.05 71.44,-770.06 67.95,-780.06 74.95,-780.05"/>
</a>
</g>
</g>
<!-- Node6 -->
<g id="Node000006" class="node">
<title>Node6</title>
<g id="a_Node000006"><a xlink:href="classpsr_1_1IDETabulationProblem.html" target="_top" xlink:title=" ">
<polygon fill="white" stroke="#666666" points="626.5,-1385.01 455.5,-1385.01 455.5,-1355.01 626.5,-1355.01 626.5,-1385.01"/>
<text text-anchor="start" x="463.5" y="-1373.01" font-family="Helvetica,sans-Serif" font-size="10.00">psr::IDETabulationProblem</text>
<text text-anchor="middle" x="541" y="-1362.01" font-family="Helvetica,sans-Serif" font-size="10.00">&lt; IDEGeneralizedLCADomain &gt;</text>
</a>
</g>
</g>
<!-- Node1&#45;&gt;Node6 -->
<g id="edge5_Node000001_Node000006" class="edge">
<title>Node1&#45;&gt;Node6</title>
<g id="a_edge5_Node000001_Node000006"><a xlink:title=" ">
<path fill="none" stroke="#63b8ff" d="M71.95,-780.42C74.19,-876.88 87.16,-1218.87 159,-1294.01 234.86,-1373.36 368.25,-1382.54 455.37,-1378.69"/>
<polygon fill="#63b8ff" stroke="#63b8ff" points="75.44,-780.07 71.73,-770.14 68.44,-780.22 75.44,-780.07"/>
</a>
</g>
</g>
<!-- Node8 -->
<g id="Node000008" class="node">
<title>Node8</title>
<g id="a_Node000008"><a xlink:href="classpsr_1_1IDETabulationProblem.html" target="_top" xlink:title=" ">
<polygon fill="white" stroke="#666666" points="638,-1336.51 444,-1336.51 444,-1295.51 638,-1295.51 638,-1336.51"/>
<text text-anchor="start" x="452" y="-1324.51" font-family="Helvetica,sans-Serif" font-size="10.00">psr::IDETabulationProblem</text>
<text text-anchor="start" x="452" y="-1313.51" font-family="Helvetica,sans-Serif" font-size="10.00">&lt; IDEInstInteractionAnalysisDomain</text>
<text text-anchor="middle" x="541" y="-1302.51" font-family="Helvetica,sans-Serif" font-size="10.00">&lt; std::string &gt; &gt;</text>
</a>
</g>
</g>
<!-- Node1&#45;&gt;Node8 -->
<g id="edge7_Node000001_Node000008" class="edge">
<title>Node1&#45;&gt;Node8</title>
<g id="a_edge7_Node000001_Node000008"><a xlink:title=" ">
<path fill="none" stroke="#63b8ff" d="M72.45,-780.09C76.37,-869.63 94.24,-1171.76 159,-1238.01 232.39,-1313.09 357.2,-1325.74 443.88,-1324.1"/>
<polygon fill="#63b8ff" stroke="#63b8ff" points="75.94,-779.87 72.03,-770.03 68.95,-780.17 75.94,-779.87"/>
</a>
</g>
</g>
<!-- Node9 -->
<g id="Node000009" class="node">
<title>Node9</title>
<g id="a_Node000009"><a xlink:href="classpsr_1_1IDETabulationProblem.html" target="_top" xlink:title=" ">
<polygon fill="white" stroke="#666666" points="645.5,-1277.01 436.5,-1277.01 436.5,-1247.01 645.5,-1247.01 645.5,-1277.01"/>
<text text-anchor="start" x="444.5" y="-1265.01" font-family="Helvetica,sans-Serif" font-size="10.00">psr::IDETabulationProblem</text>
<text text-anchor="middle" x="541" y="-1254.01" font-family="Helvetica,sans-Serif" font-size="10.00">&lt; IDELinearConstantAnalysisDomain &gt;</text>
</a>
</g>
</g>
<!-- Node1&#45;&gt;Node9 -->
<g id="edge8_Node000001_Node000009" class="edge">
<title>Node1&#45;&gt;Node9</title>
<g id="a_edge8_Node000001_Node000009"><a xlink:title=" ">
<path fill="none" stroke="#63b8ff" d="M73.18,-780.25C79.19,-862.84 102.35,-1123.08 159,-1181.01 230.39,-1254.02 350.12,-1269.09 436.32,-1269.16"/>
<polygon fill="#63b8ff" stroke="#63b8ff" points="76.65,-779.75 72.46,-770.02 69.67,-780.25 76.65,-779.75"/>
</a>
</g>
</g>
<!-- Node11 -->
<g id="Node000011" class="node">
<title>Node11</title>
<g id="a_Node000011"><a xlink:href="classpsr_1_1IDETabulationProblem.html" target="_top" xlink:title=" ">
<polygon fill="white" stroke="#666666" points="621.5,-1229.01 460.5,-1229.01 460.5,-1199.01 621.5,-1199.01 621.5,-1229.01"/>
<text text-anchor="start" x="468.5" y="-1217.01" font-family="Helvetica,sans-Serif" font-size="10.00">psr::IDETabulationProblem</text>
<text text-anchor="middle" x="541" y="-1206.01" font-family="Helvetica,sans-Serif" font-size="10.00">&lt; IDEProtoAnalysisDomain &gt;</text>
</a>
</g>
</g>
<!-- Node1&#45;&gt;Node11 -->
<g id="edge10_Node000001_Node000011" class="edge">
<title>Node1&#45;&gt;Node11</title>
<g id="a_edge10_Node000001_Node000011"><a xlink:title=" ">
<path fill="none" stroke="#63b8ff" d="M74.19,-780.32C82.63,-855 110.91,-1072.33 159,-1122.01 237.33,-1202.93 373.62,-1217.68 460.19,-1217.99"/>
<polygon fill="#63b8ff" stroke="#63b8ff" points="77.67,-779.93 73.09,-770.37 70.71,-780.7 77.67,-779.93"/>
</a>
</g>
</g>
<!-- Node13 -->
<g id="Node000013" class="node">
<title>Node13</title>
<g id="a_Node000013"><a xlink:href="classpsr_1_1IDETabulationProblem.html" target="_top" xlink:title=" ">
<polygon fill="white" stroke="#666666" points="642.5,-1180.51 439.5,-1180.51 439.5,-1139.51 642.5,-1139.51 642.5,-1180.51"/>
<text text-anchor="start" x="447.5" y="-1168.51" font-family="Helvetica,sans-Serif" font-size="10.00">psr::IDETabulationProblem</text>
<text text-anchor="start" x="447.5" y="-1157.51" font-family="Helvetica,sans-Serif" font-size="10.00">&lt; IDESecureHeapPropagationAnalysis</text>
<text text-anchor="middle" x="541" y="-1146.51" font-family="Helvetica,sans-Serif" font-size="10.00">Domain &gt;</text>
</a>
</g>
</g>
<!-- Node1&#45;&gt;Node13 -->
<g id="edge12_Node000001_Node000013" class="edge">
<title>Node1&#45;&gt;Node13</title>
<g id="a_edge12_Node000001_Node000013"><a xlink:title=" ">
<path fill="none" stroke="#63b8ff" d="M70.91,-780.55C71.02,-839.04 79.78,-983.67 159,-1062.01 232.93,-1135.14 353.69,-1155.94 439.42,-1160.8"/>
<polygon fill="#63b8ff" stroke="#63b8ff" points="74.41,-780.38 70.98,-770.36 67.41,-780.33 74.41,-780.38"/>
</a>
</g>
</g>
<!-- Node15 -->
<g id="Node000015" class="node">
<title>Node15</title>
<g id="a_Node000015"><a xlink:href="classpsr_1_1IDETabulationProblem.html" target="_top" xlink:title=" ">
<polygon fill="white" stroke="#666666" points="633.5,-1121.01 448.5,-1121.01 448.5,-1091.01 633.5,-1091.01 633.5,-1121.01"/>
<text text-anchor="start" x="456.5" y="-1109.01" font-family="Helvetica,sans-Serif" font-size="10.00">psr::IDETabulationProblem</text>
<text text-anchor="middle" x="541" y="-1098.01" font-family="Helvetica,sans-Serif" font-size="10.00">&lt; IDESolverTestAnalysisDomain &gt;</text>
</a>
</g>
</g>
<!-- Node1&#45;&gt;Node15 -->
<g id="edge14_Node000001_Node000015" class="edge">
<title>Node1&#45;&gt;Node15</title>
<g id="a_edge14_Node000001_Node000015"><a xlink:title=" ">
<path fill="none" stroke="#63b8ff" d="M73.35,-780.17C78.31,-829.34 96.18,-938.74 159,-1000.01 236.29,-1075.4 362.38,-1098.17 448.16,-1104.52"/>
<polygon fill="#63b8ff" stroke="#63b8ff" points="76.83,-779.73 72.43,-770.09 69.85,-780.37 76.83,-779.73"/>
</a>
</g>
</g>
<!-- Node17 -->
<g id="Node000017" class="node">
<title>Node17</title>
<g id="a_Node000017"><a xlink:href="classpsr_1_1IDETabulationProblem.html" target="_top" xlink:title=" ">
<polygon fill="white" stroke="#666666" points="627,-1072.51 455,-1072.51 455,-1031.51 627,-1031.51 627,-1072.51"/>
<text text-anchor="start" x="463" y="-1060.51" font-family="Helvetica,sans-Serif" font-size="10.00">psr::IDETabulationProblem</text>
<text text-anchor="start" x="463" y="-1049.51" font-family="Helvetica,sans-Serif" font-size="10.00">&lt; IDETypeStateAnalysisDomain</text>
<text text-anchor="middle" x="541" y="-1038.51" font-family="Helvetica,sans-Serif" font-size="10.00">&lt; TypeStateDescriptionTy &gt; &gt;</text>
</a>
</g>
</g>
<!-- Node1&#45;&gt;Node17 -->
<g id="edge16_Node000001_Node000017" class="edge">
<title>Node1&#45;&gt;Node17</title>
<g id="a_edge16_Node000001_Node000017"><a xlink:title=" ">
<path fill="none" stroke="#63b8ff" d="M77.04,-779.94C86.91,-818.69 111.14,-893.33 159,-936.01 241.69,-1009.77 370.15,-1036.64 454.68,-1046.42"/>
<polygon fill="#63b8ff" stroke="#63b8ff" points="80.39,-778.91 74.63,-770.02 73.59,-780.57 80.39,-778.91"/>
</a>
</g>
</g>
<!-- Node19 -->
<g id="Node000019" class="node">
<title>Node19</title>
<g id="a_Node000019"><a xlink:href="classpsr_1_1IDETabulationProblem.html" target="_top" xlink:title=" ">
<polygon fill="white" stroke="#666666" points="636.5,-1013.51 445.5,-1013.51 445.5,-950.51 636.5,-950.51 636.5,-1013.51"/>
<text text-anchor="start" x="453.5" y="-1001.51" font-family="Helvetica,sans-Serif" font-size="10.00">psr::IDETabulationProblem</text>
<text text-anchor="start" x="453.5" y="-990.51" font-family="Helvetica,sans-Serif" font-size="10.00">&lt; WithBinaryValueDomain</text>
<text text-anchor="start" x="453.5" y="-979.51" font-family="Helvetica,sans-Serif" font-size="10.00">&lt; AnalysisDomainTy &gt;, std</text>
<text text-anchor="start" x="453.5" y="-968.51" font-family="Helvetica,sans-Serif" font-size="10.00">::set&lt; typename AnalysisDomainTy</text>
<text text-anchor="middle" x="541" y="-957.51" font-family="Helvetica,sans-Serif" font-size="10.00">::d_t &gt; &gt;</text>
</a>
</g>
</g>
<!-- Node1&#45;&gt;Node19 -->
<g id="edge18_Node000001_Node000019" class="edge">
<title>Node1&#45;&gt;Node19</title>
<g id="a_edge18_Node000001_Node000019"><a xlink:title=" ">
<path fill="none" stroke="#63b8ff" d="M82.23,-779.58C95.92,-808.05 122.31,-854.33 159,-880.01 244.54,-939.91 363.37,-964.64 445.47,-974.85"/>
<polygon fill="#63b8ff" stroke="#63b8ff" points="85.31,-777.91 77.92,-770.32 78.96,-780.86 85.31,-777.91"/>
</a>
</g>
</g>
<!-- Node20 -->
<g id="Node000020" class="node">
<title>Node20</title>
<g id="a_Node000020"><a xlink:href="classpsr_1_1IDETabulationProblem.html" target="_top" xlink:title=" ">
<polygon fill="white" stroke="#666666" points="643,-932.01 439,-932.01 439,-902.01 643,-902.01 643,-932.01"/>
<text text-anchor="start" x="447" y="-920.01" font-family="Helvetica,sans-Serif" font-size="10.00">psr::IDETabulationProblem</text>
<text text-anchor="middle" x="541" y="-909.01" font-family="Helvetica,sans-Serif" font-size="10.00">&lt; IDEExtendedTaintAnalysisDomain &gt;</text>
</a>
</g>
</g>
<!-- Node1&#45;&gt;Node20 -->
<g id="edge19_Node000001_Node000020" class="edge">
<title>Node1&#45;&gt;Node20</title>
<g id="a_edge19_Node000001_Node000020"><a xlink:title=" ">
<path fill="none" stroke="#63b8ff" d="M91.39,-777.68C107.84,-795.05 132.71,-818.29 159,-832.01 247.02,-877.95 359.07,-899.14 438.83,-908.87"/>
<polygon fill="#63b8ff" stroke="#63b8ff" points="93.8,-775.13 84.44,-770.17 88.66,-779.89 93.8,-775.13"/>
</a>
</g>
</g>
<!-- Node23 -->
<g id="Node000023" class="node">
<title>Node23</title>
<g id="a_Node000023"><a xlink:href="classpsr_1_1IDETabulationProblem.html" target="_top" xlink:title=" ">
<polygon fill="white" stroke="#666666" points="674,-884.01 408,-884.01 408,-832.01 674,-832.01 674,-884.01"/>
<text text-anchor="start" x="416" y="-872.01" font-family="Helvetica,sans-Serif" font-size="10.00">psr::IDETabulationProblem</text>
<text text-anchor="start" x="416" y="-861.01" font-family="Helvetica,sans-Serif" font-size="10.00">&lt; psr::IDETypeStateAnalysisDomain</text>
<text text-anchor="start" x="416" y="-850.01" font-family="Helvetica,sans-Serif" font-size="10.00">&lt; psr::OpenSSLEVPKDFDescription</text>
<text text-anchor="middle" x="541" y="-839.01" font-family="Helvetica,sans-Serif" font-size="10.00"> &gt;, std::set&lt; typename AnalysisDomainTy::d_t &gt; &gt;</text>
</a>
</g>
</g>
<!-- Node1&#45;&gt;Node23 -->
<g id="edge22_Node000001_Node000023" class="edge">
<title>Node1&#45;&gt;Node23</title>
<g id="a_edge22_Node000001_Node000023"><a xlink:title=" ">
<path fill="none" stroke="#63b8ff" d="M108.62,-774.62C123.87,-781.98 141.93,-789.8 159,-795.01 239.95,-819.73 333.72,-835.39 407.98,-844.92"/>
<polygon fill="#63b8ff" stroke="#63b8ff" points="110.04,-771.42 99.52,-770.13 106.94,-777.7 110.04,-771.42"/>
</a>
</g>
</g>
<!-- Node24 -->
<g id="Node000024" class="node">
<title>Node24</title>
<g id="a_Node000024"><a xlink:href="classpsr_1_1IDETabulationProblem.html" target="_top" xlink:title=" ">
<polygon fill="white" stroke="#666666" points="640.5,-814.01 441.5,-814.01 441.5,-762.01 640.5,-762.01 640.5,-814.01"/>
<text text-anchor="start" x="449.5" y="-802.01" font-family="Helvetica,sans-Serif" font-size="10.00">psr::IDETabulationProblem</text>
<text text-anchor="start" x="449.5" y="-791.01" font-family="Helvetica,sans-Serif" font-size="10.00">&lt; psr::IDESecureHeapPropagation</text>
<text text-anchor="start" x="449.5" y="-780.01" font-family="Helvetica,sans-Serif" font-size="10.00">AnalysisDomain, std::set&lt; typename</text>
<text text-anchor="middle" x="541" y="-769.01" font-family="Helvetica,sans-Serif" font-size="10.00"> AnalysisDomainTy::d_t &gt; &gt;</text>
</a>
</g>
</g>
<!-- Node1&#45;&gt;Node24 -->
<g id="edge23_Node000001_Node000024" class="edge">
<title>Node1&#45;&gt;Node24</title>
<g id="a_edge23_Node000001_Node000024"><a xlink:title=" ">
<path fill="none" stroke="#63b8ff" d="M144.44,-771.86C149.35,-772.68 154.24,-773.41 159,-774.01 254.39,-786.03 364.19,-788.92 441.33,-789.17"/>
<polygon fill="#63b8ff" stroke="#63b8ff" points="144.82,-768.37 134.36,-770.06 143.59,-775.26 144.82,-768.37"/>
</a>
</g>
</g>
<!-- Node25 -->
<g id="Node000025" class="node">
<title>Node25</title>
<g id="a_Node000025"><a xlink:href="classpsr_1_1JoinLattice.html" target="_top" xlink:title=" ">
<polygon fill="white" stroke="#666666" points="640,-743.51 442,-743.51 442,-702.51 640,-702.51 640,-743.51"/>
<text text-anchor="start" x="450" y="-731.51" font-family="Helvetica,sans-Serif" font-size="10.00">psr::JoinLattice&lt; WithBinary</text>
<text text-anchor="start" x="450" y="-720.51" font-family="Helvetica,sans-Serif" font-size="10.00">ValueDomain&lt; LLVMAnalysisDomain</text>
<text text-anchor="middle" x="541" y="-709.51" font-family="Helvetica,sans-Serif" font-size="10.00">Default &gt; &gt;</text>
</a>
</g>
</g>
<!-- Node1&#45;&gt;Node25 -->
<g id="edge24_Node000001_Node000025" class="edge">
<title>Node1&#45;&gt;Node25</title>
<g id="a_edge24_Node000001_Node000025"><a xlink:title=" ">
<path fill="none" stroke="orange" stroke-dasharray="5,2" d="M151.19,-749.57C231.47,-744.09 355.49,-735.62 441.8,-729.72"/>
<polygon fill="orange" stroke="orange" points="150.87,-746.08 141.13,-750.26 151.35,-753.07 150.87,-746.08"/>
</a>
</g>
<text text-anchor="start" x="187" y="-762.01" font-family="Helvetica,sans-Serif" font-size="10.00" fill="grey"> &lt; WithBinaryValueDomain</text>
<text text-anchor="middle" x="274.5" y="-751.01" font-family="Helvetica,sans-Serif" font-size="10.00" fill="grey">&lt; LLVMAnalysisDomainDefault &gt; &gt;</text>
</g>
<!-- Node26 -->
<g id="Node000026" class="node">
<title>Node26</title>
<g id="a_Node000026"><a xlink:href="classpsr_1_1JoinLattice.html" target="_top" xlink:title=" ">
<polygon fill="white" stroke="#666666" points="651.5,-684.51 430.5,-684.51 430.5,-643.51 651.5,-643.51 651.5,-684.51"/>
<text text-anchor="start" x="438.5" y="-672.51" font-family="Helvetica,sans-Serif" font-size="10.00">psr::JoinLattice&lt; WithBinary</text>
<text text-anchor="start" x="438.5" y="-661.51" font-family="Helvetica,sans-Serif" font-size="10.00">ValueDomain&lt; LLVMIFDSAnalysisDomain</text>
<text text-anchor="middle" x="541" y="-650.51" font-family="Helvetica,sans-Serif" font-size="10.00">Default &gt; &gt;</text>
</a>
</g>
</g>
<!-- Node1&#45;&gt;Node26 -->
<g id="edge25_Node000001_Node000026" class="edge">
<title>Node1&#45;&gt;Node26</title>
<g id="a_edge25_Node000001_Node000026"><a xlink:title=" ">
<path fill="none" stroke="orange" stroke-dasharray="5,2" d="M101.96,-734.46C118.2,-724.51 138.93,-713.38 159,-707.01 247.52,-678.95 352.7,-668.7 430.1,-665.19"/>
<polygon fill="orange" stroke="orange" points="100.03,-731.53 93.43,-739.82 103.76,-737.46 100.03,-731.53"/>
</a>
</g>
<text text-anchor="start" x="175" y="-721.01" font-family="Helvetica,sans-Serif" font-size="10.00" fill="grey"> &lt; WithBinaryValueDomain</text>
<text text-anchor="middle" x="274.5" y="-710.01" font-family="Helvetica,sans-Serif" font-size="10.00" fill="grey">&lt; LLVMIFDSAnalysisDomainDefault &gt; &gt;</text>
</g>
<!-- Node27 -->
<g id="Node000027" class="node">
<title>Node27</title>
<g id="a_Node000027"><a xlink:href="classpsr_1_1JoinLattice.html" target="_top" xlink:title=" ">
<polygon fill="white" stroke="#666666" points="617.5,-625.01 464.5,-625.01 464.5,-595.01 617.5,-595.01 617.5,-625.01"/>
<text text-anchor="start" x="472.5" y="-613.01" font-family="Helvetica,sans-Serif" font-size="10.00">psr::JoinLattice&lt; IDEFeature</text>
<text text-anchor="middle" x="541" y="-602.01" font-family="Helvetica,sans-Serif" font-size="10.00">TaintAnalysisDomain &gt;</text>
</a>
</g>
</g>
<!-- Node1&#45;&gt;Node27 -->
<g id="edge26_Node000001_Node000027" class="edge">
<title>Node1&#45;&gt;Node27</title>
<g id="a_edge26_Node000001_Node000027"><a xlink:title=" ">
<path fill="none" stroke="orange" stroke-dasharray="5,2" d="M82.79,-730.49C96.59,-703.63 122.69,-661.75 159,-642.01 254.5,-590.11 383.71,-591.51 464.44,-599.27"/>
<polygon fill="orange" stroke="orange" points="79.56,-729.13 78.26,-739.64 85.83,-732.23 79.56,-729.13"/>
</a>
</g>
<text text-anchor="start" x="208" y="-656.01" font-family="Helvetica,sans-Serif" font-size="10.00" fill="grey"> &lt; IDEFeatureTaintAnalysis</text>
<text text-anchor="middle" x="274.5" y="-645.01" font-family="Helvetica,sans-Serif" font-size="10.00" fill="grey">Domain &gt;</text>
</g>
<!-- Node28 -->
<g id="Node000028" class="node">
<title>Node28</title>
<g id="a_Node000028"><a xlink:href="classpsr_1_1JoinLattice.html" target="_top" xlink:title=" ">
<polygon fill="white" stroke="#666666" points="628.5,-577.01 453.5,-577.01 453.5,-547.01 628.5,-547.01 628.5,-577.01"/>
<text text-anchor="start" x="461.5" y="-565.01" font-family="Helvetica,sans-Serif" font-size="10.00">psr::JoinLattice&lt; IDEGeneralized</text>
<text text-anchor="middle" x="541" y="-554.01" font-family="Helvetica,sans-Serif" font-size="10.00">LCADomain &gt;</text>
</a>
</g>
</g>
<!-- Node1&#45;&gt;Node28 -->
<g id="edge27_Node000001_Node000028" class="edge">
<title>Node1&#45;&gt;Node28</title>
<g id="a_edge27_Node000001_Node000028"><a xlink:title=" ">
<path fill="none" stroke="orange" stroke-dasharray="5,2" d="M75.8,-730.03C84.09,-690.45 106.33,-614.31 159,-580.01 205.75,-549.57 356.02,-551.41 453.28,-556.22"/>
<polygon fill="orange" stroke="orange" points="72.35,-729.45 73.86,-739.94 79.22,-730.8 72.35,-729.45"/>
</a>
</g>
<text text-anchor="middle" x="274.5" y="-583.01" font-family="Helvetica,sans-Serif" font-size="10.00" fill="grey"> &lt; IDEGeneralizedLCADomain &gt;</text>
</g>
<!-- Node29 -->
<g id="Node000029" class="node">
<title>Node29</title>
<g id="a_Node000029"><a xlink:href="classpsr_1_1JoinLattice.html" target="_top" xlink:title=" ">
<polygon fill="white" stroke="#666666" points="615.5,-528.51 466.5,-528.51 466.5,-487.51 615.5,-487.51 615.5,-528.51"/>
<text text-anchor="start" x="474.5" y="-516.51" font-family="Helvetica,sans-Serif" font-size="10.00">psr::JoinLattice&lt; IDEInst</text>
<text text-anchor="start" x="474.5" y="-505.51" font-family="Helvetica,sans-Serif" font-size="10.00">InteractionAnalysisDomain</text>
<text text-anchor="middle" x="541" y="-494.51" font-family="Helvetica,sans-Serif" font-size="10.00">&lt; std::string &gt; &gt;</text>
</a>
</g>
</g>
<!-- Node1&#45;&gt;Node29 -->
<g id="edge28_Node000001_Node000029" class="edge">
<title>Node1&#45;&gt;Node29</title>
<g id="a_edge28_Node000001_Node000029"><a xlink:title=" ">
<path fill="none" stroke="orange" stroke-dasharray="5,2" d="M72.7,-729.74C76.52,-681.15 92.45,-575.24 159,-527.01 206.33,-492.72 369.5,-496.68 466.28,-502.45"/>
<polygon fill="orange" stroke="orange" points="69.21,-729.52 72.03,-739.74 76.19,-729.99 69.21,-729.52"/>
</a>
</g>
<text text-anchor="start" x="203" y="-541.01" font-family="Helvetica,sans-Serif" font-size="10.00" fill="grey"> &lt; IDEInstInteractionAnalysis</text>
<text text-anchor="middle" x="274.5" y="-530.01" font-family="Helvetica,sans-Serif" font-size="10.00" fill="grey">Domain&lt; std::string &gt; &gt;</text>
</g>
<!-- Node30 -->
<g id="Node000030" class="node">
<title>Node30</title>
<g id="a_Node000030"><a xlink:href="classpsr_1_1JoinLattice.html" target="_top" xlink:title=" ">
<polygon fill="white" stroke="#666666" points="616.5,-469.01 465.5,-469.01 465.5,-439.01 616.5,-439.01 616.5,-469.01"/>
<text text-anchor="start" x="473.5" y="-457.01" font-family="Helvetica,sans-Serif" font-size="10.00">psr::JoinLattice&lt; IDELinear</text>
<text text-anchor="middle" x="541" y="-446.01" font-family="Helvetica,sans-Serif" font-size="10.00">ConstantAnalysisDomain &gt;</text>
</a>
</g>
</g>
<!-- Node1&#45;&gt;Node30 -->
<g id="edge29_Node000001_Node000030" class="edge">
<title>Node1&#45;&gt;Node30</title>
<g id="a_edge29_Node000001_Node000030"><a xlink:title=" ">
<path fill="none" stroke="orange" stroke-dasharray="5,2" d="M70.56,-729.49C70.01,-672.51 77.62,-535.05 159,-472.01 205.07,-436.33 367.87,-441.2 465.13,-447.73"/>
<polygon fill="orange" stroke="orange" points="67.06,-729.83 70.76,-739.76 74.06,-729.7 67.06,-729.83"/>
</a>
</g>
<text text-anchor="start" x="201.5" y="-486.01" font-family="Helvetica,sans-Serif" font-size="10.00" fill="grey"> &lt; IDELinearConstantAnalysis</text>
<text text-anchor="middle" x="274.5" y="-475.01" font-family="Helvetica,sans-Serif" font-size="10.00" fill="grey">Domain &gt;</text>
</g>
<!-- Node31 -->
<g id="Node000031" class="node">
<title>Node31</title>
<g id="a_Node000031"><a xlink:href="classpsr_1_1JoinLattice.html" target="_top" xlink:title=" ">
<polygon fill="white" stroke="#666666" points="612,-421.01 470,-421.01 470,-391.01 612,-391.01 612,-421.01"/>
<text text-anchor="start" x="478" y="-409.01" font-family="Helvetica,sans-Serif" font-size="10.00">psr::JoinLattice&lt; IDEProto</text>
<text text-anchor="middle" x="541" y="-398.01" font-family="Helvetica,sans-Serif" font-size="10.00">AnalysisDomain &gt;</text>
</a>
</g>
</g>
<!-- Node1&#45;&gt;Node31 -->
<g id="edge30_Node000001_Node000031" class="edge">
<title>Node1&#45;&gt;Node31</title>
<g id="a_edge30_Node000001_Node000031"><a xlink:title=" ">
<path fill="none" stroke="orange" stroke-dasharray="5,2" d="M74.47,-729.74C83.24,-659.89 111.42,-466.77 159,-428.01 204.98,-390.57 372.93,-394.73 469.81,-400.62"/>
<polygon fill="orange" stroke="orange" points="70.98,-729.5 73.23,-739.86 77.92,-730.36 70.98,-729.5"/>
</a>
</g>
<text text-anchor="middle" x="274.5" y="-431.01" font-family="Helvetica,sans-Serif" font-size="10.00" fill="grey"> &lt; IDEProtoAnalysisDomain &gt;</text>
</g>
<!-- Node32 -->
<g id="Node000032" class="node">
<title>Node32</title>
<g id="a_Node000032"><a xlink:href="classpsr_1_1JoinLattice.html" target="_top" xlink:title=" ">
<polygon fill="white" stroke="#666666" points="636.5,-373.01 445.5,-373.01 445.5,-343.01 636.5,-343.01 636.5,-373.01"/>
<text text-anchor="start" x="453.5" y="-361.01" font-family="Helvetica,sans-Serif" font-size="10.00">psr::JoinLattice&lt; IDESecure</text>
<text text-anchor="middle" x="541" y="-350.01" font-family="Helvetica,sans-Serif" font-size="10.00">HeapPropagationAnalysisDomain &gt;</text>
</a>
</g>
</g>
<!-- Node1&#45;&gt;Node32 -->
<g id="edge31_Node000001_Node000032" class="edge">
<title>Node1&#45;&gt;Node32</title>
<g id="a_edge31_Node000001_Node000032"><a xlink:title=" ">
<path fill="none" stroke="orange" stroke-dasharray="5,2" d="M73.35,-729.51C79.6,-651.14 102.79,-416.35 159,-370.01 201.06,-335.34 346.78,-340.32 445.32,-348.28"/>
<polygon fill="orange" stroke="orange" points="69.83,-729.66 72.55,-739.89 76.81,-730.19 69.83,-729.66"/>
</a>
</g>
<text text-anchor="start" x="200.5" y="-384.01" font-family="Helvetica,sans-Serif" font-size="10.00" fill="grey"> &lt; IDESecureHeapPropagation</text>
<text text-anchor="middle" x="274.5" y="-373.01" font-family="Helvetica,sans-Serif" font-size="10.00" fill="grey">AnalysisDomain &gt;</text>
</g>
<!-- Node33 -->
<g id="Node000033" class="node">
<title>Node33</title>
<g id="a_Node000033"><a xlink:href="classpsr_1_1JoinLattice.html" target="_top" xlink:title=" ">
<polygon fill="white" stroke="#666666" points="614.5,-325.01 467.5,-325.01 467.5,-295.01 614.5,-295.01 614.5,-325.01"/>
<text text-anchor="start" x="475.5" y="-313.01" font-family="Helvetica,sans-Serif" font-size="10.00">psr::JoinLattice&lt; IDESolver</text>
<text text-anchor="middle" x="541" y="-302.01" font-family="Helvetica,sans-Serif" font-size="10.00">TestAnalysisDomain &gt;</text>
</a>
</g>
</g>
<!-- Node1&#45;&gt;Node33 -->
<g id="edge32_Node000001_Node000033" class="edge">
<title>Node1&#45;&gt;Node33</title>
<g id="a_edge32_Node000001_Node000033"><a xlink:title=" ">
<path fill="none" stroke="orange" stroke-dasharray="5,2" d="M72.75,-729.5C77.45,-645.5 97.05,-379.93 159,-327.01 203.68,-288.85 369.57,-295.44 467.1,-303.06"/>
<polygon fill="orange" stroke="orange" points="69.25,-729.51 72.21,-739.68 76.24,-729.88 69.25,-729.51"/>
</a>
</g>
<text text-anchor="middle" x="274.5" y="-330.01" font-family="Helvetica,sans-Serif" font-size="10.00" fill="grey"> &lt; IDESolverTestAnalysisDomain &gt;</text>
</g>
<!-- Node34 -->
<g id="Node000034" class="node">
<title>Node34</title>
<g id="a_Node000034"><a xlink:href="classpsr_1_1JoinLattice.html" target="_top" xlink:title=" ">
<polygon fill="white" stroke="#666666" points="631.5,-276.51 450.5,-276.51 450.5,-235.51 631.5,-235.51 631.5,-276.51"/>
<text text-anchor="start" x="458.5" y="-264.51" font-family="Helvetica,sans-Serif" font-size="10.00">psr::JoinLattice&lt; IDEType</text>
<text text-anchor="start" x="458.5" y="-253.51" font-family="Helvetica,sans-Serif" font-size="10.00">StateAnalysisDomain&lt; TypeState</text>
<text text-anchor="middle" x="541" y="-242.51" font-family="Helvetica,sans-Serif" font-size="10.00">DescriptionTy &gt; &gt;</text>
</a>
</g>
</g>
<!-- Node1&#45;&gt;Node34 -->
<g id="edge33_Node000001_Node000034" class="edge">
<title>Node1&#45;&gt;Node34</title>
<g id="a_edge33_Node000001_Node000034"><a xlink:title=" ">
<path fill="none" stroke="orange" stroke-dasharray="5,2" d="M72.09,-729.51C74.77,-638.51 88.94,-331.92 159,-271.01 200.9,-234.59 351.48,-239.46 450.32,-247.15"/>
<polygon fill="orange" stroke="orange" points="68.58,-729.65 71.81,-739.74 75.58,-729.84 68.58,-729.65"/>
</a>
</g>
<text text-anchor="start" x="195" y="-285.01" font-family="Helvetica,sans-Serif" font-size="10.00" fill="grey"> &lt; IDETypeStateAnalysisDomain</text>
<text text-anchor="middle" x="274.5" y="-274.01" font-family="Helvetica,sans-Serif" font-size="10.00" fill="grey">&lt; TypeStateDescriptionTy &gt; &gt;</text>
</g>
<!-- Node35 -->
<g id="Node000035" class="node">
<title>Node35</title>
<g id="a_Node000035"><a xlink:href="classpsr_1_1JoinLattice.html" target="_top" xlink:title=" ">
<polygon fill="white" stroke="#666666" points="644,-217.01 438,-217.01 438,-187.01 644,-187.01 644,-217.01"/>
<text text-anchor="start" x="446" y="-205.01" font-family="Helvetica,sans-Serif" font-size="10.00">psr::JoinLattice&lt; WithBinary</text>
<text text-anchor="middle" x="541" y="-194.01" font-family="Helvetica,sans-Serif" font-size="10.00">ValueDomain&lt; AnalysisDomainTy &gt; &gt;</text>
</a>
</g>
</g>
<!-- Node1&#45;&gt;Node35 -->
<g id="edge34_Node000001_Node000035" class="edge">
<title>Node1&#45;&gt;Node35</title>
<g id="a_edge34_Node000001_Node000035"><a xlink:title=" ">
<path fill="none" stroke="orange" stroke-dasharray="5,2" d="M71.56,-729.79C72.35,-632.54 80.68,-284 159,-215.01 198.92,-179.85 338.93,-183.72 437.59,-191.47"/>
<polygon fill="orange" stroke="orange" points="68.06,-729.86 71.49,-739.88 75.06,-729.9 68.06,-729.86"/>
</a>
</g>
<text text-anchor="start" x="207.5" y="-229.01" font-family="Helvetica,sans-Serif" font-size="10.00" fill="grey"> &lt; WithBinaryValueDomain</text>
<text text-anchor="middle" x="274.5" y="-218.01" font-family="Helvetica,sans-Serif" font-size="10.00" fill="grey">&lt; AnalysisDomainTy &gt; &gt;</text>
</g>
<!-- Node36 -->
<g id="Node000036" class="node">
<title>Node36</title>
<g id="a_Node000036"><a xlink:href="classpsr_1_1JoinLattice.html" target="_top" xlink:title=" ">
<polygon fill="white" stroke="#666666" points="622,-169.01 460,-169.01 460,-139.01 622,-139.01 622,-169.01"/>
<text text-anchor="start" x="468" y="-157.01" font-family="Helvetica,sans-Serif" font-size="10.00">psr::JoinLattice&lt; IDEExtended</text>
<text text-anchor="middle" x="541" y="-146.01" font-family="Helvetica,sans-Serif" font-size="10.00">TaintAnalysisDomain &gt;</text>
</a>
</g>
</g>
<!-- Node1&#45;&gt;Node36 -->
<g id="edge35_Node000001_Node000036" class="edge">
<title>Node1&#45;&gt;Node36</title>
<g id="a_edge35_Node000001_Node000036"><a xlink:title=" ">
<path fill="none" stroke="orange" stroke-dasharray="5,2" d="M71.1,-729.57C70.07,-625.77 72.11,-236.26 159,-160.01 202.07,-122.22 361.34,-132.83 459.81,-143.64"/>
<polygon fill="orange" stroke="orange" points="67.6,-729.79 71.22,-739.75 74.6,-729.71 67.6,-729.79"/>
</a>
</g>
<text text-anchor="start" x="203.5" y="-174.01" font-family="Helvetica,sans-Serif" font-size="10.00" fill="grey"> &lt; IDEExtendedTaintAnalysis</text>
<text text-anchor="middle" x="274.5" y="-163.01" font-family="Helvetica,sans-Serif" font-size="10.00" fill="grey">Domain &gt;</text>
</g>
<!-- Node37 -->
<g id="Node000037" class="node">
<title>Node37</title>
<g id="a_Node000037"><a xlink:href="classpsr_1_1JoinLattice.html" target="_top" xlink:title=" ">
<polygon fill="white" stroke="#666666" points="645.5,-120.51 436.5,-120.51 436.5,-79.51 645.5,-79.51 645.5,-120.51"/>
<text text-anchor="start" x="444.5" y="-108.51" font-family="Helvetica,sans-Serif" font-size="10.00">psr::JoinLattice&lt; psr</text>
<text text-anchor="start" x="444.5" y="-97.51" font-family="Helvetica,sans-Serif" font-size="10.00">::IDETypeStateAnalysisDomain</text>
<text text-anchor="middle" x="541" y="-86.51" font-family="Helvetica,sans-Serif" font-size="10.00">&lt; psr::OpenSSLEVPKDFDescription &gt; &gt;</text>
</a>
</g>
</g>
<!-- Node1&#45;&gt;Node37 -->
<g id="edge36_Node000001_Node000037" class="edge">
<title>Node1&#45;&gt;Node37</title>
<g id="a_edge36_Node000001_Node000037"><a xlink:title=" ">
<path fill="none" stroke="orange" stroke-dasharray="5,2" d="M73.01,-729.59C80.06,-614.88 111.46,-149.34 159,-107.01 198.53,-71.82 337.47,-77.88 436.13,-87.38"/>
<polygon fill="orange" stroke="orange" points="69.5,-729.66 72.38,-739.85 76.48,-730.08 69.5,-729.66"/>
</a>
</g>
<text text-anchor="start" x="159" y="-121.01" font-family="Helvetica,sans-Serif" font-size="10.00" fill="grey"> &lt; psr::IDETypeStateAnalysis</text>
<text text-anchor="middle" x="274.5" y="-110.01" font-family="Helvetica,sans-Serif" font-size="10.00" fill="grey">Domain&lt; psr::OpenSSLEVPKDFDescription &gt; &gt;</text>
</g>
<!-- Node38 -->
<g id="Node000038" class="node">
<title>Node38</title>
<g id="a_Node000038"><a xlink:href="classpsr_1_1JoinLattice.html" target="_top" xlink:title=" ">
<polygon fill="white" stroke="#666666" points="639.5,-61.51 442.5,-61.51 442.5,-20.51 639.5,-20.51 639.5,-61.51"/>
<text text-anchor="start" x="450.5" y="-49.51" font-family="Helvetica,sans-Serif" font-size="10.00">psr::JoinLattice&lt; psr</text>
<text text-anchor="start" x="450.5" y="-38.51" font-family="Helvetica,sans-Serif" font-size="10.00">::IDESecureHeapPropagationAnalysis</text>
<text text-anchor="middle" x="541" y="-27.51" font-family="Helvetica,sans-Serif" font-size="10.00">Domain &gt;</text>
</a>
</g>
</g>
<!-- Node1&#45;&gt;Node38 -->
<g id="edge37_Node000001_Node000038" class="edge">
<title>Node1&#45;&gt;Node38</title>
<g id="a_edge37_Node000001_Node000038"><a xlink:title=" ">
<path fill="none" stroke="orange" stroke-dasharray="5,2" d="M72.75,-729.88C78.92,-610.18 108.04,-101.69 159,-55.01 243.93,22.78 389.42,1.29 473.91,-20.46"/>
<polygon fill="orange" stroke="orange" points="69.25,-729.77 72.23,-739.93 76.24,-730.12 69.25,-729.77"/>
</a>
</g>
<text text-anchor="start" x="190" y="-69.01" font-family="Helvetica,sans-Serif" font-size="10.00" fill="grey"> &lt; psr::IDESecureHeapPropagation</text>
<text text-anchor="middle" x="274.5" y="-58.01" font-family="Helvetica,sans-Serif" font-size="10.00" fill="grey">AnalysisDomain &gt;</text>
</g>
<!-- Node5 -->
<g id="Node000005" class="node">
<title>Node5</title>
<g id="a_Node000005"><a xlink:href="classpsr_1_1IDEFeatureTaintAnalysis.html" target="_top" xlink:title=" ">
<polygon fill="white" stroke="#666666" points="874,-1427.51 719,-1427.51 719,-1408.51 874,-1408.51 874,-1427.51"/>
<text text-anchor="middle" x="796.5" y="-1415.51" font-family="Helvetica,sans-Serif" font-size="10.00">psr::IDEFeatureTaintAnalysis</text>
</a>
</g>
</g>
<!-- Node4&#45;&gt;Node5 -->
<g id="edge4_Node000004_Node000005" class="edge">
<title>Node4&#45;&gt;Node5</title>
<g id="a_edge4_Node000004_Node000005"><a xlink:title=" ">
<path fill="none" stroke="#63b8ff" d="M648.61,-1418.01C672.21,-1418.01 696.77,-1418.01 718.9,-1418.01"/>
<polygon fill="#63b8ff" stroke="#63b8ff" points="648.56,-1414.51 638.56,-1418.01 648.56,-1421.51 648.56,-1414.51"/>
</a>
</g>
</g>
<!-- Node7 -->
<g id="Node000007" class="node">
<title>Node7</title>
<g id="a_Node000007"><a xlink:href="classpsr_1_1IDEGeneralizedLCA.html" target="_top" xlink:title="An implementation of a linear constant analysis, similar to IDELinearConstantAnalysis,...">
<polygon fill="white" stroke="#666666" points="862,-1379.51 731,-1379.51 731,-1360.51 862,-1360.51 862,-1379.51"/>
<text text-anchor="middle" x="796.5" y="-1367.51" font-family="Helvetica,sans-Serif" font-size="10.00">psr::IDEGeneralizedLCA</text>
</a>
</g>
</g>
<!-- Node6&#45;&gt;Node7 -->
<g id="edge6_Node000006_Node000007" class="edge">
<title>Node6&#45;&gt;Node7</title>
<g id="a_edge6_Node000006_Node000007"><a xlink:title=" ">
<path fill="none" stroke="#63b8ff" d="M636.84,-1370.01C668.19,-1370.01 702.33,-1370.01 730.88,-1370.01"/>
<polygon fill="#63b8ff" stroke="#63b8ff" points="636.76,-1366.51 626.76,-1370.01 636.76,-1373.51 636.76,-1366.51"/>
</a>
</g>
</g>
<!-- Node10 -->
<g id="Node000010" class="node">
<title>Node10</title>
<g id="a_Node000010"><a xlink:href="classpsr_1_1IDELinearConstantAnalysis.html" target="_top" xlink:title=" ">
<polygon fill="white" stroke="#666666" points="881,-1271.51 712,-1271.51 712,-1252.51 881,-1252.51 881,-1271.51"/>
<text text-anchor="middle" x="796.5" y="-1259.51" font-family="Helvetica,sans-Serif" font-size="10.00">psr::IDELinearConstantAnalysis</text>
</a>
</g>
</g>
<!-- Node9&#45;&gt;Node10 -->
<g id="edge9_Node000009_Node000010" class="edge">
<title>Node9&#45;&gt;Node10</title>
<g id="a_edge9_Node000009_Node000010"><a xlink:title=" ">
<path fill="none" stroke="#63b8ff" d="M655.96,-1262.01C674.81,-1262.01 694.04,-1262.01 711.97,-1262.01"/>
<polygon fill="#63b8ff" stroke="#63b8ff" points="655.84,-1258.51 645.84,-1262.01 655.84,-1265.51 655.84,-1258.51"/>
</a>
</g>
</g>
<!-- Node12 -->
<g id="Node000012" class="node">
<title>Node12</title>
<g id="a_Node000012"><a xlink:href="classpsr_1_1IDEProtoAnalysis.html" target="_top" xlink:title=" ">
<polygon fill="white" stroke="#666666" points="857,-1223.51 736,-1223.51 736,-1204.51 857,-1204.51 857,-1223.51"/>
<text text-anchor="middle" x="796.5" y="-1211.51" font-family="Helvetica,sans-Serif" font-size="10.00">psr::IDEProtoAnalysis</text>
</a>
</g>
</g>
<!-- Node11&#45;&gt;Node12 -->
<g id="edge11_Node000011_Node000012" class="edge">
<title>Node11&#45;&gt;Node12</title>
<g id="a_edge11_Node000011_Node000012"><a xlink:title=" ">
<path fill="none" stroke="#63b8ff" d="M631.63,-1214.01C666.25,-1214.01 704.91,-1214.01 735.98,-1214.01"/>
<polygon fill="#63b8ff" stroke="#63b8ff" points="631.51,-1210.51 621.51,-1214.01 631.51,-1217.51 631.51,-1210.51"/>
</a>
</g>
</g>
<!-- Node14 -->
<g id="Node000014" class="node">
<title>Node14</title>
<g id="a_Node000014"><a xlink:href="classpsr_1_1IDESecureHeapPropagation.html" target="_top" xlink:title=" ">
<polygon fill="white" stroke="#666666" points="882,-1169.51 711,-1169.51 711,-1150.51 882,-1150.51 882,-1169.51"/>
<text text-anchor="middle" x="796.5" y="-1157.51" font-family="Helvetica,sans-Serif" font-size="10.00">psr::IDESecureHeapPropagation</text>
</a>
</g>
</g>
<!-- Node13&#45;&gt;Node14 -->
<g id="edge13_Node000013_Node000014" class="edge">
<title>Node13&#45;&gt;Node14</title>
<g id="a_edge13_Node000013_Node000014"><a xlink:title=" ">
<path fill="none" stroke="#63b8ff" d="M652.72,-1160.01C672.26,-1160.01 692.32,-1160.01 711,-1160.01"/>
<polygon fill="#63b8ff" stroke="#63b8ff" points="652.55,-1156.51 642.55,-1160.01 652.55,-1163.51 652.55,-1156.51"/>
</a>
</g>
</g>
<!-- Node16 -->
<g id="Node000016" class="node">
<title>Node16</title>
<g id="a_Node000016"><a xlink:href="classpsr_1_1IDESolverTest.html" target="_top" xlink:title=" ">
<polygon fill="white" stroke="#666666" points="848.5,-1115.51 744.5,-1115.51 744.5,-1096.51 848.5,-1096.51 848.5,-1115.51"/>
<text text-anchor="middle" x="796.5" y="-1103.51" font-family="Helvetica,sans-Serif" font-size="10.00">psr::IDESolverTest</text>
</a>
</g>
</g>
<!-- Node15&#45;&gt;Node16 -->
<g id="edge15_Node000015_Node000016" class="edge">
<title>Node15&#45;&gt;Node16</title>
<g id="a_edge15_Node000015_Node000016"><a xlink:title=" ">
<path fill="none" stroke="#63b8ff" d="M643.67,-1106.01C678.23,-1106.01 715.39,-1106.01 744.3,-1106.01"/>
<polygon fill="#63b8ff" stroke="#63b8ff" points="643.52,-1102.51 633.52,-1106.01 643.52,-1109.51 643.52,-1102.51"/>
</a>
</g>
</g>
<!-- Node18 -->
<g id="Node000018" class="node">
<title>Node18</title>
<g id="a_Node000018"><a xlink:href="classpsr_1_1IDETypeStateAnalysis.html" target="_top" xlink:title=" ">
<polygon fill="white" stroke="#666666" points="873,-1067.01 720,-1067.01 720,-1037.01 873,-1037.01 873,-1067.01"/>
<text text-anchor="start" x="728" y="-1055.01" font-family="Helvetica,sans-Serif" font-size="10.00">psr::IDETypeStateAnalysis</text>
<text text-anchor="middle" x="796.5" y="-1044.01" font-family="Helvetica,sans-Serif" font-size="10.00">&lt; TypeStateDescriptionTy &gt;</text>
</a>
</g>
</g>
<!-- Node17&#45;&gt;Node18 -->
<g id="edge17_Node000017_Node000018" class="edge">
<title>Node17&#45;&gt;Node18</title>
<g id="a_edge17_Node000017_Node000018"><a xlink:title=" ">
<path fill="none" stroke="#63b8ff" d="M637.46,-1052.01C664.73,-1052.01 694.06,-1052.01 719.97,-1052.01"/>
<polygon fill="#63b8ff" stroke="#63b8ff" points="637.12,-1048.51 627.12,-1052.01 637.12,-1055.51 637.12,-1048.51"/>
</a>
</g>
</g>
<!-- Node21 -->
<g id="Node000021" class="node">
<title>Node21</title>
<g id="a_Node000021"><a xlink:href="classpsr_1_1XTaint_1_1IDEExtendedTaintAnalysis.html" target="_top" xlink:title="An IDE&#45;based taint analysis that uses k&#45;limited field&#45;access paths to achieve field sensitivity.">
<polygon fill="white" stroke="#666666" points="864.5,-932.01 728.5,-932.01 728.5,-902.01 864.5,-902.01 864.5,-932.01"/>
<text text-anchor="start" x="736.5" y="-920.01" font-family="Helvetica,sans-Serif" font-size="10.00">psr::XTaint::IDEExtended</text>
<text text-anchor="middle" x="796.5" y="-909.01" font-family="Helvetica,sans-Serif" font-size="10.00">TaintAnalysis</text>
</a>
</g>
</g>
<!-- Node20&#45;&gt;Node21 -->
<g id="edge20_Node000020_Node000021" class="edge">
<title>Node20&#45;&gt;Node21</title>
<g id="a_edge20_Node000020_Node000021"><a xlink:title=" ">
<path fill="none" stroke="#63b8ff" d="M653.38,-917.01C678.88,-917.01 705.22,-917.01 728.2,-917.01"/>
<polygon fill="#63b8ff" stroke="#63b8ff" points="653.28,-913.51 643.28,-917.01 653.28,-920.51 653.28,-913.51"/>
</a>
</g>
</g>
<!-- Node22 -->
<g id="Node000022" class="node">
<title>Node22</title>
<g id="a_Node000022"><a xlink:href="classpsr_1_1IDEExtendedTaintAnalysis.html" target="_top" xlink:title=" ">
<polygon fill="white" stroke="#666666" points="1117,-932.01 919,-932.01 919,-902.01 1117,-902.01 1117,-932.01"/>
<text text-anchor="start" x="927" y="-920.01" font-family="Helvetica,sans-Serif" font-size="10.00">psr::IDEExtendedTaintAnalysis</text>
<text text-anchor="middle" x="1018" y="-909.01" font-family="Helvetica,sans-Serif" font-size="10.00">&lt; BOUND, USE_STRONG_UPDATES &gt;</text>
</a>
</g>
</g>
<!-- Node21&#45;&gt;Node22 -->
<g id="edge21_Node000021_Node000022" class="edge">
<title>Node21&#45;&gt;Node22</title>
<g id="a_edge21_Node000021_Node000022"><a xlink:title=" ">
<path fill="none" stroke="#63b8ff" d="M874.77,-917.01C889.02,-917.01 904.08,-917.01 918.85,-917.01"/>
<polygon fill="#63b8ff" stroke="#63b8ff" points="874.55,-913.51 864.55,-917.01 874.55,-920.51 874.55,-913.51"/>
</a>
</g>
</g>
</g>
</svg>
