<?xml version="1.0" encoding="UTF-8" standalone="no"?>
<!DOCTYPE svg PUBLIC "-//W3C//DTD SVG 1.1//EN"
 "http://www.w3.org/Graphics/SVG/1.1/DTD/svg11.dtd">
<!-- Generated by graphviz version 2.43.0 (0)
 -->
<!-- Title: psr::LLVMBasedICFG Pages: 1 -->
<svg width="1483pt" height="141pt"
 viewBox="0.00 0.00 1483.00 141.00" xmlns="http://www.w3.org/2000/svg" xmlns:xlink="http://www.w3.org/1999/xlink">
<g id="graph0" class="graph" transform="scale(1 1) rotate(0) translate(4 137)">
<title>psr::LLVMBasedICFG</title>
<!-- Node1 -->
<g id="Node000001" class="node">
<title>Node1</title>
<g id="a_Node000001"><a xlink:title="A class that implements a inter&#45;procedural control flow graph. Conforms to the ICFGBase CRTP interfac...">
<polygon fill="#999999" stroke="#666666" points="1289,-58 1173,-58 1173,-39 1289,-39 1289,-58"/>
<text text-anchor="middle" x="1231" y="-46" font-family="Helvetica,sans-Serif" font-size="10.00">psr::LLVMBasedICFG</text>
</a>
</g>
</g>
<!-- Node11 -->
<g id="Node000011" class="node">
<title>Node11</title>
<g id="a_Node000011"><a xlink:href="classpsr_1_1SparseLLVMBasedICFG.html" target="_top" xlink:title="A class that implements a sparse interprocedural control flow graph. Conforms to the ICFGBase CRTP in...">
<polygon fill="white" stroke="#666666" points="1475,-58 1326,-58 1326,-39 1475,-39 1475,-58"/>
<text text-anchor="middle" x="1400.5" y="-46" font-family="Helvetica,sans-Serif" font-size="10.00">psr::SparseLLVMBasedICFG</text>
</a>
</g>
</g>
<!-- Node1&#45;&gt;Node11 -->
<g id="edge12_Node000001_Node000011" class="edge">
<title>Node1&#45;&gt;Node11</title>
<g id="a_edge12_Node000001_Node000011"><a xlink:title=" ">
<path fill="none" stroke="#63b8ff" d="M1299.33,-48.5C1308.11,-48.5 1317.13,-48.5 1326,-48.5"/>
<polygon fill="#63b8ff" stroke="#63b8ff" points="1299.18,-45 1289.18,-48.5 1299.18,-52 1299.18,-45"/>
</a>
</g>
</g>
<!-- Node2 -->
<g id="Node000002" class="node">
<title>Node2</title>
<g id="a_Node000002"><a xlink:href="classpsr_1_1LLVMBasedCFG.html" target="_top" xlink:title=" ">
<polygon fill="white" stroke="#666666" points="1136,-86 1023,-86 1023,-67 1136,-67 1136,-86"/>
<text text-anchor="middle" x="1079.5" y="-74" font-family="Helvetica,sans-Serif" font-size="10.00">psr::LLVMBasedCFG</text>
</a>
</g>
</g>
<!-- Node2&#45;&gt;Node1 -->
<g id="edge1_Node000001_Node000002" class="edge">
<title>Node2&#45;&gt;Node1</title>
<g id="a_edge1_Node000001_Node000002"><a xlink:title=" ">
<path fill="none" stroke="#63b8ff" d="M1141.45,-65.09C1153.99,-62.74 1167.06,-60.29 1179.2,-58.01"/>
<polygon fill="#63b8ff" stroke="#63b8ff" points="1140.72,-61.66 1131.53,-66.94 1142,-68.54 1140.72,-61.66"/>
</a>
</g>
</g>
<!-- Node3 -->
<g id="Node000003" class="node">
<title>Node3</title>
<g id="a_Node000003"><a xlink:title=" ">
<polygon fill="white" stroke="#666666" points="986,-96.5 817,-96.5 817,-66.5 986,-66.5 986,-96.5"/>
<text text-anchor="start" x="825" y="-84.5" font-family="Helvetica,sans-Serif" font-size="10.00">psr::detail::LLVMBasedCFGImpl</text>
<text text-anchor="middle" x="901.5" y="-73.5" font-family="Helvetica,sans-Serif" font-size="10.00">&lt; LLVMBasedCFG &gt;</text>
</a>
</g>
</g>
<!-- Node3&#45;&gt;Node2 -->
<g id="edge2_Node000002_Node000003" class="edge">
<title>Node3&#45;&gt;Node2</title>
<g id="a_edge2_Node000002_Node000003"><a xlink:title=" ">
<path fill="none" stroke="#63b8ff" d="M996.31,-78.83C1005.32,-78.58 1014.26,-78.33 1022.73,-78.08"/>
<polygon fill="#63b8ff" stroke="#63b8ff" points="996.02,-75.34 986.12,-79.12 996.21,-82.34 996.02,-75.34"/>
</a>
</g>
</g>
<!-- Node4 -->
<g id="Node000004" class="node">
<title>Node4</title>
<g id="a_Node000004"><a xlink:href="classpsr_1_1CFGBase.html" target="_top" xlink:title=" ">
<polygon fill="white" stroke="#666666" points="492,-133 349,-133 349,-114 492,-114 492,-133"/>
<text text-anchor="middle" x="420.5" y="-121" font-family="Helvetica,sans-Serif" font-size="10.00">psr::CFGBase&lt; Derived &gt;</text>
</a>
</g>
</g>
<!-- Node4&#45;&gt;Node3 -->
<g id="edge3_Node000003_Node000004" class="edge">
<title>Node4&#45;&gt;Node3</title>
<g id="a_edge3_Node000003_Node000004"><a xlink:title=" ">
<path fill="none" stroke="#63b8ff" d="M502.32,-119.57C578.88,-115.4 696.97,-107.85 799,-96.5 804.84,-95.85 810.86,-95.12 816.92,-94.34"/>
<polygon fill="#63b8ff" stroke="#63b8ff" points="502.07,-116.07 492.27,-120.11 502.44,-123.06 502.07,-116.07"/>
</a>
</g>
</g>
<!-- Node5 -->
<g id="Node000005" class="node">
<title>Node5</title>
<g id="a_Node000005"><a xlink:href="classpsr_1_1CRTPBase.html" target="_top" xlink:title=" ">
<polygon fill="white" stroke="#666666" points="147,-93 0,-93 0,-74 147,-74 147,-93"/>
<text text-anchor="middle" x="73.5" y="-81" font-family="Helvetica,sans-Serif" font-size="10.00">psr::CRTPBase&lt; Derived &gt;</text>
</a>
</g>
</g>
<!-- Node5&#45;&gt;Node4 -->
<g id="edge4_Node000004_Node000005" class="edge">
<title>Node5&#45;&gt;Node4</title>
<g id="a_edge4_Node000004_Node000005"><a xlink:title=" ">
<path fill="none" stroke="#63b8ff" d="M134.1,-94.76C150.25,-97.56 167.76,-100.37 184,-102.5 239.15,-109.73 301.89,-115.19 348.74,-118.73"/>
<polygon fill="#63b8ff" stroke="#63b8ff" points="134.7,-91.32 124.24,-93.03 133.49,-98.21 134.7,-91.32"/>
</a>
</g>
</g>
<!-- Node7 -->
<g id="Node000007" class="node">
<title>Node7</title>
<g id="a_Node000007"><a xlink:href="classpsr_1_1CFGBase.html" target="_top" xlink:title=" ">
<polygon fill="white" stroke="#666666" points="329,-93 186,-93 186,-74 329,-74 329,-93"/>
<text text-anchor="middle" x="257.5" y="-81" font-family="Helvetica,sans-Serif" font-size="10.00">psr::CFGBase&lt; Derived &gt;</text>
</a>
</g>
</g>
<!-- Node5&#45;&gt;Node7 -->
<g id="edge7_Node000007_Node000005" class="edge">
<title>Node5&#45;&gt;Node7</title>
<g id="a_edge7_Node000007_Node000005"><a xlink:title=" ">
<path fill="none" stroke="#63b8ff" d="M157.48,-83.5C167,-83.5 176.64,-83.5 185.97,-83.5"/>
<polygon fill="#63b8ff" stroke="#63b8ff" points="157.22,-80 147.22,-83.5 157.22,-87 157.22,-80"/>
</a>
</g>
</g>
<!-- Node10 -->
<g id="Node000010" class="node">
<title>Node10</title>
<g id="a_Node000010"><a xlink:href="classpsr_1_1ICFGBase.html" target="_top" xlink:title=" ">
<polygon fill="white" stroke="#666666" points="330.5,-56 184.5,-56 184.5,-37 330.5,-37 330.5,-56"/>
<text text-anchor="middle" x="257.5" y="-44" font-family="Helvetica,sans-Serif" font-size="10.00">psr::ICFGBase&lt; Derived &gt;</text>
</a>
</g>
</g>
<!-- Node5&#45;&gt;Node10 -->
<g id="edge11_Node000010_Node000005" class="edge">
<title>Node5&#45;&gt;Node10</title>
<g id="a_edge11_Node000010_Node000005"><a xlink:title=" ">
<path fill="none" stroke="#63b8ff" d="M131.48,-71.92C156.56,-66.82 185.66,-60.9 209.47,-56.06"/>
<polygon fill="#63b8ff" stroke="#63b8ff" points="130.47,-68.55 121.37,-73.97 131.87,-75.41 130.47,-68.55"/>
</a>
</g>
</g>
<!-- Node6 -->
<g id="Node000006" class="node">
<title>Node6</title>
<g id="a_Node000006"><a xlink:title=" ">
<polygon fill="white" stroke="#666666" points="679,-96.5 510,-96.5 510,-66.5 679,-66.5 679,-96.5"/>
<text text-anchor="start" x="518" y="-84.5" font-family="Helvetica,sans-Serif" font-size="10.00">psr::detail::LLVMBasedCFGImpl</text>
<text text-anchor="middle" x="594.5" y="-73.5" font-family="Helvetica,sans-Serif" font-size="10.00">&lt; Derived &gt;</text>
</a>
</g>
</g>
<!-- Node6&#45;&gt;Node3 -->
<g id="edge5_Node000003_Node000006" class="edge">
<title>Node6&#45;&gt;Node3</title>
<g id="a_edge5_Node000003_Node000006"><a xlink:title=" ">
<path fill="none" stroke="orange" stroke-dasharray="5,2" d="M689.45,-81.5C730.17,-81.5 777.46,-81.5 816.94,-81.5"/>
<polygon fill="orange" stroke="orange" points="689.25,-78 679.25,-81.5 689.25,-85 689.25,-78"/>
</a>
</g>
<text text-anchor="middle" x="748" y="-84.5" font-family="Helvetica,sans-Serif" font-size="10.00" fill="grey"> &lt; LLVMBasedCFG &gt;</text>
</g>
<!-- Node7&#45;&gt;Node6 -->
<g id="edge6_Node000006_Node000007" class="edge">
<title>Node7&#45;&gt;Node6</title>
<g id="a_edge6_Node000006_Node000007"><a xlink:title=" ">
<path fill="none" stroke="#63b8ff" d="M339.25,-83.02C390.9,-82.71 457.75,-82.31 509.94,-82"/>
<polygon fill="#63b8ff" stroke="#63b8ff" points="339.11,-79.52 329.14,-83.08 339.16,-86.52 339.11,-79.52"/>
</a>
</g>
</g>
<!-- Node8 -->
<g id="Node000008" class="node">
<title>Node8</title>
<g id="a_Node000008"><a xlink:href="classpsr_1_1ICFGBase.html" target="_top" xlink:title=" ">
<polygon fill="white" stroke="#666666" points="670.5,-48.5 518.5,-48.5 518.5,-18.5 670.5,-18.5 670.5,-48.5"/>
<text text-anchor="start" x="526.5" y="-36.5" font-family="Helvetica,sans-Serif" font-size="10.00">psr::ICFGBase&lt; LLVMBased</text>
<text text-anchor="middle" x="594.5" y="-25.5" font-family="Helvetica,sans-Serif" font-size="10.00">ICFG &gt;</text>
</a>
</g>
</g>
<!-- Node8&#45;&gt;Node1 -->
<g id="edge8_Node000001_Node000008" class="edge">
<title>Node8&#45;&gt;Node1</title>
<g id="a_edge8_Node000001_Node000008"><a xlink:title=" ">
<path fill="none" stroke="#63b8ff" d="M680.8,-35.52C812.16,-38.62 1060.5,-44.49 1172.57,-47.14"/>
<polygon fill="#63b8ff" stroke="#63b8ff" points="680.86,-32.02 670.78,-35.28 680.69,-39.02 680.86,-32.02"/>
</a>
</g>
</g>
<!-- Node9 -->
<g id="Node000009" class="node">
<title>Node9</title>
<g id="a_Node000009"><a xlink:href="classpsr_1_1CRTPBase.html" target="_top" xlink:title=" ">
<polygon fill="white" stroke="#666666" points="331,-19 184,-19 184,0 331,0 331,-19"/>
<text text-anchor="middle" x="257.5" y="-7" font-family="Helvetica,sans-Serif" font-size="10.00">psr::CRTPBase&lt; Derived &gt;</text>
</a>
</g>
</g>
<!-- Node9&#45;&gt;Node8 -->
<g id="edge9_Node000008_Node000009" class="edge">
<title>Node9&#45;&gt;Node8</title>
<g id="a_edge9_Node000008_Node000009"><a xlink:title=" ">
<path fill="none" stroke="#63b8ff" d="M341.46,-15.44C395.63,-19.32 465.8,-24.35 518.34,-28.12"/>
<polygon fill="#63b8ff" stroke="#63b8ff" points="341.41,-11.93 331.19,-14.71 340.91,-18.91 341.41,-11.93"/>
</a>
</g>
</g>
<!-- Node10&#45;&gt;Node8 -->
<g id="edge10_Node000008_Node000010" class="edge">
<title>Node10&#45;&gt;Node8</title>
<g id="a_edge10_Node000008_Node000010"><a xlink:title=" ">
<path fill="none" stroke="orange" stroke-dasharray="5,2" d="M341.06,-43.3C395.33,-41.19 465.77,-38.46 518.45,-36.41"/>
<polygon fill="orange" stroke="orange" points="340.63,-39.81 330.78,-43.7 340.91,-46.8 340.63,-39.81"/>
</a>
</g>
<text text-anchor="middle" x="420.5" y="-45.5" font-family="Helvetica,sans-Serif" font-size="10.00" fill="grey"> &lt; LLVMBasedICFG &gt;</text>
</g>
</g>
</svg>
