<?xml version="1.0" encoding="UTF-8" standalone="no"?>
<!DOCTYPE svg PUBLIC "-//W3C//DTD SVG 1.1//EN"
 "http://www.w3.org/Graphics/SVG/1.1/DTD/svg11.dtd">
<!-- Generated by graphviz version 2.43.0 (0)
 -->
<!-- Title: psr::CFGBase&lt; Derived &gt; Pages: 1 -->
<svg width="1667pt" height="396pt"
 viewBox="0.00 0.00 1667.00 396.44" xmlns="http://www.w3.org/2000/svg" xmlns:xlink="http://www.w3.org/1999/xlink">
<g id="graph0" class="graph" transform="scale(1 1) rotate(0) translate(4 392.44)">
<title>psr::CFGBase&lt; Derived &gt;</title>
<!-- Node1 -->
<g id="Node000001" class="node">
<title>Node1</title>
<g id="a_Node000001"><a xlink:title=" ">
<polygon fill="#999999" stroke="#666666" points="327,-191.5 184,-191.5 184,-172.5 327,-172.5 327,-191.5"/>
<text text-anchor="middle" x="255.5" y="-179.5" font-family="Helvetica,sans-Serif" font-size="10.00">psr::CFGBase&lt; Derived &gt;</text>
</a>
</g>
</g>
<!-- Node3 -->
<g id="Node000003" class="node">
<title>Node3</title>
<g id="a_Node000003"><a xlink:href="classpsr_1_1SparseCFGBase.html" target="_top" xlink:title=" ">
<polygon fill="white" stroke="#666666" points="1054.5,-338 906.5,-338 906.5,-308 1054.5,-308 1054.5,-338"/>
<text text-anchor="start" x="914.5" y="-326" font-family="Helvetica,sans-Serif" font-size="10.00">psr::SparseCFGBase</text>
<text text-anchor="middle" x="980.5" y="-315" font-family="Helvetica,sans-Serif" font-size="10.00">&lt; SparseLLVMBasedCFG &gt;</text>
</a>
</g>
</g>
<!-- Node1&#45;&gt;Node3 -->
<g id="edge2_Node000001_Node000003" class="edge">
<title>Node1&#45;&gt;Node3</title>
<g id="a_edge2_Node000001_Node000003"><a xlink:title=" ">
<path fill="none" stroke="#63b8ff" d="M262.86,-201.36C274.07,-232.18 300.5,-291.77 345,-320 533.82,-439.8 822.16,-371.49 933.45,-338.07"/>
<polygon fill="#63b8ff" stroke="#63b8ff" points="266.11,-200.06 259.52,-191.76 259.5,-202.36 266.11,-200.06"/>
</a>
</g>
</g>
<!-- Node5 -->
<g id="Node000005" class="node">
<title>Node5</title>
<g id="a_Node000005"><a xlink:title=" ">
<polygon fill="white" stroke="#666666" points="1065,-208 896,-208 896,-178 1065,-178 1065,-208"/>
<text text-anchor="start" x="904" y="-196" font-family="Helvetica,sans-Serif" font-size="10.00">psr::detail::LLVMBasedCFGImpl</text>
<text text-anchor="middle" x="980.5" y="-185" font-family="Helvetica,sans-Serif" font-size="10.00">&lt; LLVMBasedBackwardCFG &gt;</text>
</a>
</g>
</g>
<!-- Node1&#45;&gt;Node5 -->
<g id="edge4_Node000001_Node000005" class="edge">
<title>Node1&#45;&gt;Node5</title>
<g id="a_edge4_Node000001_Node000005"><a xlink:title=" ">
<path fill="none" stroke="#63b8ff" d="M337.24,-183.23C475.4,-185.33 755.75,-189.6 895.87,-191.73"/>
<polygon fill="#63b8ff" stroke="#63b8ff" points="337.19,-179.73 327.14,-183.07 337.09,-186.73 337.19,-179.73"/>
</a>
</g>
</g>
<!-- Node8 -->
<g id="Node000008" class="node">
<title>Node8</title>
<g id="a_Node000008"><a xlink:title=" ">
<polygon fill="white" stroke="#666666" points="1065,-288 896,-288 896,-258 1065,-258 1065,-288"/>
<text text-anchor="start" x="904" y="-276" font-family="Helvetica,sans-Serif" font-size="10.00">psr::detail::LLVMBasedCFGImpl</text>
<text text-anchor="middle" x="980.5" y="-265" font-family="Helvetica,sans-Serif" font-size="10.00">&lt; LLVMBasedCFG &gt;</text>
</a>
</g>
</g>
<!-- Node1&#45;&gt;Node8 -->
<g id="edge7_Node000001_Node000008" class="edge">
<title>Node1&#45;&gt;Node8</title>
<g id="a_edge7_Node000001_Node000008"><a xlink:title=" ">
<path fill="none" stroke="#63b8ff" d="M285.45,-196C302.46,-203.74 324.57,-212.98 345,-219 536.16,-275.29 772.69,-279.08 895.93,-276.4"/>
<polygon fill="#63b8ff" stroke="#63b8ff" points="286.63,-192.69 276.08,-191.65 283.68,-199.04 286.63,-192.69"/>
</a>
</g>
</g>
<!-- Node13 -->
<g id="Node000013" class="node">
<title>Node13</title>
<g id="a_Node000013"><a xlink:href="classpsr_1_1SparseCFGBase.html" target="_top" xlink:title=" ">
<polygon fill="white" stroke="#666666" points="669,-333 554,-333 554,-303 669,-303 669,-333"/>
<text text-anchor="start" x="562" y="-321" font-family="Helvetica,sans-Serif" font-size="10.00">psr::SparseCFGBase</text>
<text text-anchor="middle" x="611.5" y="-310" font-family="Helvetica,sans-Serif" font-size="10.00">&lt; Derived &gt;</text>
</a>
</g>
</g>
<!-- Node1&#45;&gt;Node13 -->
<g id="edge13_Node000001_Node000013" class="edge">
<title>Node1&#45;&gt;Node13</title>
<g id="a_edge13_Node000001_Node000013"><a xlink:title=" ">
<path fill="none" stroke="#63b8ff" d="M265.93,-200.64C279.62,-225.52 307.51,-268.8 345,-289 410.21,-324.14 497.42,-326.72 553.78,-323.69"/>
<polygon fill="#63b8ff" stroke="#63b8ff" points="268.87,-198.71 261.09,-191.51 262.68,-201.99 268.87,-198.71"/>
</a>
</g>
</g>
<!-- Node14 -->
<g id="Node000014" class="node">
<title>Node14</title>
<g id="a_Node000014"><a xlink:title=" ">
<polygon fill="white" stroke="#666666" points="696,-240 527,-240 527,-210 696,-210 696,-240"/>
<text text-anchor="start" x="535" y="-228" font-family="Helvetica,sans-Serif" font-size="10.00">psr::detail::LLVMBasedCFGImpl</text>
<text text-anchor="middle" x="611.5" y="-217" font-family="Helvetica,sans-Serif" font-size="10.00">&lt; Derived &gt;</text>
</a>
</g>
</g>
<!-- Node1&#45;&gt;Node14 -->
<g id="edge15_Node000001_Node000014" class="edge">
<title>Node1&#45;&gt;Node14</title>
<g id="a_edge15_Node000001_Node000014"><a xlink:title=" ">
<path fill="none" stroke="#63b8ff" d="M324.26,-193.06C331.25,-194.1 338.27,-195.1 345,-196 405.78,-204.12 474.62,-211.59 526.97,-216.92"/>
<polygon fill="#63b8ff" stroke="#63b8ff" points="324.46,-189.55 314.04,-191.51 323.41,-196.47 324.46,-189.55"/>
</a>
</g>
</g>
<!-- Node15 -->
<g id="Node000015" class="node">
<title>Node15</title>
<g id="a_Node000015"><a xlink:href="classpsr_1_1CFGBase.html" target="_top" xlink:title=" ">
<polygon fill="white" stroke="#666666" points="671,-153.5 552,-153.5 552,-134.5 671,-134.5 671,-153.5"/>
<text text-anchor="middle" x="611.5" y="-141.5" font-family="Helvetica,sans-Serif" font-size="10.00">psr::CFGBase&lt; c_t &gt;</text>
</a>
</g>
</g>
<!-- Node1&#45;&gt;Node15 -->
<g id="edge18_Node000001_Node000015" class="edge">
<title>Node1&#45;&gt;Node15</title>
<g id="a_edge18_Node000001_Node000015"><a xlink:title=" ">
<path fill="none" stroke="orange" stroke-dasharray="5,2" d="M293.85,-169.42C309.48,-164.69 327.94,-159.79 345,-157 415.48,-145.47 497.77,-143.13 551.83,-143.08"/>
<polygon fill="orange" stroke="orange" points="292.54,-166.16 284.04,-172.48 294.63,-172.85 292.54,-166.16"/>
</a>
</g>
<text text-anchor="middle" x="420" y="-160" font-family="Helvetica,sans-Serif" font-size="10.00" fill="grey"> &lt; c_t &gt;</text>
</g>
<!-- Node16 -->
<g id="Node000016" class="node">
<title>Node16</title>
<g id="a_Node000016"><a xlink:href="classpsr_1_1CFGBase.html" target="_top" xlink:title=" ">
<polygon fill="white" stroke="#666666" points="710,-116 513,-116 513,-86 710,-86 710,-116"/>
<text text-anchor="start" x="521" y="-104" font-family="Helvetica,sans-Serif" font-size="10.00">psr::CFGBase&lt; LLVMBasedBackward</text>
<text text-anchor="middle" x="611.5" y="-93" font-family="Helvetica,sans-Serif" font-size="10.00">CFG &gt;</text>
</a>
</g>
</g>
<!-- Node1&#45;&gt;Node16 -->
<g id="edge19_Node000001_Node000016" class="edge">
<title>Node1&#45;&gt;Node16</title>
<g id="a_edge19_Node000001_Node000016"><a xlink:title=" ">
<path fill="none" stroke="orange" stroke-dasharray="5,2" d="M277.04,-166.52C294.24,-154.42 319.94,-138.31 345,-130 398.81,-112.17 461.77,-104.75 512.87,-101.87"/>
<polygon fill="orange" stroke="orange" points="274.92,-163.72 268.86,-172.41 279.02,-169.4 274.92,-163.72"/>
</a>
</g>
<text text-anchor="middle" x="420" y="-133" font-family="Helvetica,sans-Serif" font-size="10.00" fill="grey"> &lt; LLVMBasedBackwardCFG &gt;</text>
</g>
<!-- Node17 -->
<g id="Node000017" class="node">
<title>Node17</title>
<g id="a_Node000017"><a xlink:href="classpsr_1_1CFGBase.html" target="_top" xlink:title=" ">
<polygon fill="white" stroke="#666666" points="701.5,-67.5 521.5,-67.5 521.5,-48.5 701.5,-48.5 701.5,-67.5"/>
<text text-anchor="middle" x="611.5" y="-55.5" font-family="Helvetica,sans-Serif" font-size="10.00">psr::CFGBase&lt; LLVMBasedCFG &gt;</text>
</a>
</g>
</g>
<!-- Node1&#45;&gt;Node17 -->
<g id="edge20_Node000001_Node000017" class="edge">
<title>Node1&#45;&gt;Node17</title>
<g id="a_edge20_Node000001_Node000017"><a xlink:title=" ">
<path fill="none" stroke="orange" stroke-dasharray="5,2" d="M267.88,-163.87C282.71,-142.01 310.8,-106.08 345,-89 399.39,-61.84 467.63,-54.36 521.32,-53.53"/>
<polygon fill="orange" stroke="orange" points="264.92,-162 262.37,-172.29 270.78,-165.84 264.92,-162"/>
</a>
</g>
<text text-anchor="middle" x="420" y="-92" font-family="Helvetica,sans-Serif" font-size="10.00" fill="grey"> &lt; LLVMBasedCFG &gt;</text>
</g>
<!-- Node18 -->
<g id="Node000018" class="node">
<title>Node18</title>
<g id="a_Node000018"><a xlink:href="classpsr_1_1CFGBase.html" target="_top" xlink:title=" ">
<polygon fill="white" stroke="#666666" points="702.5,-30 520.5,-30 520.5,0 702.5,0 702.5,-30"/>
<text text-anchor="start" x="528.5" y="-18" font-family="Helvetica,sans-Serif" font-size="10.00">psr::CFGBase&lt; SparseLLVMBased</text>
<text text-anchor="middle" x="611.5" y="-7" font-family="Helvetica,sans-Serif" font-size="10.00">CFG &gt;</text>
</a>
</g>
</g>
<!-- Node1&#45;&gt;Node18 -->
<g id="edge21_Node000001_Node000018" class="edge">
<title>Node1&#45;&gt;Node18</title>
<g id="a_edge21_Node000001_Node000018"><a xlink:title=" ">
<path fill="none" stroke="orange" stroke-dasharray="5,2" d="M262.41,-162.36C273.13,-130.54 299.03,-68.42 345,-40 396.88,-7.93 465.69,-2.24 520.25,-4.28"/>
<polygon fill="orange" stroke="orange" points="258.96,-161.66 259.25,-172.25 265.63,-163.79 258.96,-161.66"/>
</a>
</g>
<text text-anchor="middle" x="420" y="-43" font-family="Helvetica,sans-Serif" font-size="10.00" fill="grey"> &lt; SparseLLVMBasedCFG &gt;</text>
</g>
<!-- Node2 -->
<g id="Node000002" class="node">
<title>Node2</title>
<g id="a_Node000002"><a xlink:href="classpsr_1_1CRTPBase.html" target="_top" xlink:title=" ">
<polygon fill="white" stroke="#666666" points="147,-191.5 0,-191.5 0,-172.5 147,-172.5 147,-191.5"/>
<text text-anchor="middle" x="73.5" y="-179.5" font-family="Helvetica,sans-Serif" font-size="10.00">psr::CRTPBase&lt; Derived &gt;</text>
</a>
</g>
</g>
<!-- Node2&#45;&gt;Node1 -->
<g id="edge1_Node000001_Node000002" class="edge">
<title>Node2&#45;&gt;Node1</title>
<g id="a_edge1_Node000001_Node000002"><a xlink:title=" ">
<path fill="none" stroke="#63b8ff" d="M157.2,-182C166.11,-182 175.12,-182 183.87,-182"/>
<polygon fill="#63b8ff" stroke="#63b8ff" points="157.19,-178.5 147.19,-182 157.19,-185.5 157.19,-178.5"/>
</a>
</g>
</g>
<!-- Node4 -->
<g id="Node000004" class="node">
<title>Node4</title>
<g id="a_Node000004"><a xlink:href="classpsr_1_1SparseLLVMBasedCFG.html" target="_top" xlink:title="A class that implements a sparse control flow graph. Conforms to the CFGBase CRTP interface.">
<polygon fill="white" stroke="#666666" points="1459.5,-329.5 1313.5,-329.5 1313.5,-310.5 1459.5,-310.5 1459.5,-329.5"/>
<text text-anchor="middle" x="1386.5" y="-317.5" font-family="Helvetica,sans-Serif" font-size="10.00">psr::SparseLLVMBasedCFG</text>
</a>
</g>
</g>
<!-- Node3&#45;&gt;Node4 -->
<g id="edge3_Node000003_Node000004" class="edge">
<title>Node3&#45;&gt;Node4</title>
<g id="a_edge3_Node000003_Node000004"><a xlink:title=" ">
<path fill="none" stroke="#63b8ff" d="M1064.77,-322.38C1138,-321.84 1243.49,-321.05 1313.22,-320.54"/>
<polygon fill="#63b8ff" stroke="#63b8ff" points="1064.64,-318.88 1054.66,-322.46 1064.69,-325.88 1064.64,-318.88"/>
</a>
</g>
</g>
<!-- Node6 -->
<g id="Node000006" class="node">
<title>Node6</title>
<g id="a_Node000006"><a xlink:href="classpsr_1_1LLVMBasedBackwardCFG.html" target="_top" xlink:title="A class that represents a backwards control flow graph. Conforms to the CFGBase CRTP interface.">
<polygon fill="white" stroke="#666666" points="1263,-202.5 1102,-202.5 1102,-183.5 1263,-183.5 1263,-202.5"/>
<text text-anchor="middle" x="1182.5" y="-190.5" font-family="Helvetica,sans-Serif" font-size="10.00">psr::LLVMBasedBackwardCFG</text>
</a>
</g>
</g>
<!-- Node5&#45;&gt;Node6 -->
<g id="edge5_Node000005_Node000006" class="edge">
<title>Node5&#45;&gt;Node6</title>
<g id="a_edge5_Node000005_Node000006"><a xlink:title=" ">
<path fill="none" stroke="#63b8ff" d="M1075.43,-193C1084.21,-193 1093.06,-193 1101.7,-193"/>
<polygon fill="#63b8ff" stroke="#63b8ff" points="1075.16,-189.5 1065.16,-193 1075.16,-196.5 1075.16,-189.5"/>
</a>
</g>
</g>
<!-- Node7 -->
<g id="Node000007" class="node">
<title>Node7</title>
<g id="a_Node000007"><a xlink:href="classpsr_1_1LLVMBasedBackwardICFG.html" target="_top" xlink:title="A class that represents a backwards interprocedural control flow graph. Conforms to the ICFGBase CRTP...">
<polygon fill="white" stroke="#666666" points="1468.5,-202.5 1304.5,-202.5 1304.5,-183.5 1468.5,-183.5 1468.5,-202.5"/>
<text text-anchor="middle" x="1386.5" y="-190.5" font-family="Helvetica,sans-Serif" font-size="10.00">psr::LLVMBasedBackwardICFG</text>
</a>
</g>
</g>
<!-- Node6&#45;&gt;Node7 -->
<g id="edge6_Node000006_Node000007" class="edge">
<title>Node6&#45;&gt;Node7</title>
<g id="a_edge6_Node000006_Node000007"><a xlink:title=" ">
<path fill="none" stroke="#63b8ff" d="M1273.32,-193C1283.66,-193 1294.15,-193 1304.37,-193"/>
<polygon fill="#63b8ff" stroke="#63b8ff" points="1273.05,-189.5 1263.05,-193 1273.05,-196.5 1273.05,-189.5"/>
</a>
</g>
</g>
<!-- Node9 -->
<g id="Node000009" class="node">
<title>Node9</title>
<g id="a_Node000009"><a xlink:href="classpsr_1_1LLVMBasedCFG.html" target="_top" xlink:title=" ">
<polygon fill="white" stroke="#666666" points="1239,-282.5 1126,-282.5 1126,-263.5 1239,-263.5 1239,-282.5"/>
<text text-anchor="middle" x="1182.5" y="-270.5" font-family="Helvetica,sans-Serif" font-size="10.00">psr::LLVMBasedCFG</text>
</a>
</g>
</g>
<!-- Node8&#45;&gt;Node9 -->
<g id="edge8_Node000008_Node000009" class="edge">
<title>Node8&#45;&gt;Node9</title>
<g id="a_edge8_Node000008_Node000009"><a xlink:title=" ">
<path fill="none" stroke="#63b8ff" d="M1075.28,-273C1092.55,-273 1110.07,-273 1125.76,-273"/>
<polygon fill="#63b8ff" stroke="#63b8ff" points="1075.16,-269.5 1065.16,-273 1075.16,-276.5 1075.16,-269.5"/>
</a>
</g>
</g>
<!-- Node9&#45;&gt;Node4 -->
<g id="edge11_Node000009_Node000004" class="edge">
<title>Node9&#45;&gt;Node4</title>
<g id="a_edge11_Node000009_Node000004"><a xlink:title=" ">
<path fill="none" stroke="#63b8ff" d="M1234.14,-284.78C1268.17,-292.7 1312.47,-303.01 1344.34,-310.42"/>
<polygon fill="#63b8ff" stroke="#63b8ff" points="1234.91,-281.37 1224.38,-282.51 1233.32,-288.19 1234.91,-281.37"/>
</a>
</g>
</g>
<!-- Node10 -->
<g id="Node000010" class="node">
<title>Node10</title>
<g id="a_Node000010"><a xlink:href="classpsr_1_1LLVMBasedICFG.html" target="_top" xlink:title="A class that implements a inter&#45;procedural control flow graph. Conforms to the ICFGBase CRTP interfac...">
<polygon fill="white" stroke="#666666" points="1444.5,-288.5 1328.5,-288.5 1328.5,-269.5 1444.5,-269.5 1444.5,-288.5"/>
<text text-anchor="middle" x="1386.5" y="-276.5" font-family="Helvetica,sans-Serif" font-size="10.00">psr::LLVMBasedICFG</text>
</a>
</g>
</g>
<!-- Node9&#45;&gt;Node10 -->
<g id="edge9_Node000009_Node000010" class="edge">
<title>Node9&#45;&gt;Node10</title>
<g id="a_edge9_Node000009_Node000010"><a xlink:title=" ">
<path fill="none" stroke="#63b8ff" d="M1249.52,-274.96C1274.92,-275.72 1303.68,-276.57 1328.19,-277.3"/>
<polygon fill="#63b8ff" stroke="#63b8ff" points="1249.33,-271.45 1239.23,-274.66 1249.12,-278.45 1249.33,-271.45"/>
</a>
</g>
</g>
<!-- Node12 -->
<g id="Node000012" class="node">
<title>Node12</title>
<g id="a_Node000012"><a xlink:href="classpsr_1_1SparseLLVMBasedICFGView.html" target="_top" xlink:title="Similar to SparseLLVMBasedICFG; the only difference is that this one is no LLVMBasedICFG – it contain...">
<polygon fill="white" stroke="#666666" points="1473,-251.5 1300,-251.5 1300,-232.5 1473,-232.5 1473,-251.5"/>
<text text-anchor="middle" x="1386.5" y="-239.5" font-family="Helvetica,sans-Serif" font-size="10.00">psr::SparseLLVMBasedICFGView</text>
</a>
</g>
</g>
<!-- Node9&#45;&gt;Node12 -->
<g id="edge12_Node000009_Node000012" class="edge">
<title>Node9&#45;&gt;Node12</title>
<g id="a_edge12_Node000009_Node000012"><a xlink:title=" ">
<path fill="none" stroke="#63b8ff" d="M1249.26,-262.91C1273.14,-259.24 1300.02,-255.12 1323.55,-251.51"/>
<polygon fill="#63b8ff" stroke="#63b8ff" points="1248.59,-259.47 1239.23,-264.45 1249.65,-266.39 1248.59,-259.47"/>
</a>
</g>
</g>
<!-- Node11 -->
<g id="Node000011" class="node">
<title>Node11</title>
<g id="a_Node000011"><a xlink:href="classpsr_1_1SparseLLVMBasedICFG.html" target="_top" xlink:title="A class that implements a sparse interprocedural control flow graph. Conforms to the ICFGBase CRTP in...">
<polygon fill="white" stroke="#666666" points="1659,-288.5 1510,-288.5 1510,-269.5 1659,-269.5 1659,-288.5"/>
<text text-anchor="middle" x="1584.5" y="-276.5" font-family="Helvetica,sans-Serif" font-size="10.00">psr::SparseLLVMBasedICFG</text>
</a>
</g>
</g>
<!-- Node10&#45;&gt;Node11 -->
<g id="edge10_Node000010_Node000011" class="edge">
<title>Node10&#45;&gt;Node11</title>
<g id="a_edge10_Node000010_Node000011"><a xlink:title=" ">
<path fill="none" stroke="#63b8ff" d="M1454.94,-279C1472.62,-279 1491.78,-279 1509.77,-279"/>
<polygon fill="#63b8ff" stroke="#63b8ff" points="1454.72,-275.5 1444.72,-279 1454.72,-282.5 1454.72,-275.5"/>
</a>
</g>
</g>
<!-- Node13&#45;&gt;Node3 -->
<g id="edge14_Node000013_Node000003" class="edge">
<title>Node13&#45;&gt;Node3</title>
<g id="a_edge14_Node000013_Node000003"><a xlink:title=" ">
<path fill="none" stroke="orange" stroke-dasharray="5,2" d="M679.05,-318.91C743.23,-319.78 840.15,-321.1 906.44,-322"/>
<polygon fill="orange" stroke="orange" points="679.09,-315.41 669.04,-318.77 678.99,-322.41 679.09,-315.41"/>
</a>
</g>
<text text-anchor="middle" x="803" y="-324" font-family="Helvetica,sans-Serif" font-size="10.00" fill="grey"> &lt; SparseLLVMBasedCFG &gt;</text>
</g>
<!-- Node14&#45;&gt;Node5 -->
<g id="edge16_Node000014_Node000005" class="edge">
<title>Node14&#45;&gt;Node5</title>
<g id="a_edge16_Node000014_Node000005"><a xlink:title=" ">
<path fill="none" stroke="orange" stroke-dasharray="5,2" d="M706.22,-216.83C764.7,-211.73 839.32,-205.22 895.81,-200.3"/>
<polygon fill="orange" stroke="orange" points="705.9,-213.34 696.24,-217.7 706.5,-220.32 705.9,-213.34"/>
</a>
</g>
<text text-anchor="middle" x="803" y="-218" font-family="Helvetica,sans-Serif" font-size="10.00" fill="grey"> &lt; LLVMBasedBackwardCFG &gt;</text>
</g>
<!-- Node14&#45;&gt;Node8 -->
<g id="edge17_Node000014_Node000008" class="edge">
<title>Node14&#45;&gt;Node8</title>
<g id="a_edge17_Node000014_Node000008"><a xlink:title=" ">
<path fill="none" stroke="orange" stroke-dasharray="5,2" d="M706.27,-230.87C757.26,-234.8 821.32,-240.95 878,-250 891.38,-252.14 905.63,-255 919.1,-257.97"/>
<polygon fill="orange" stroke="orange" points="706.49,-227.37 696.26,-230.11 705.96,-234.35 706.49,-227.37"/>
</a>
</g>
<text text-anchor="middle" x="803" y="-253" font-family="Helvetica,sans-Serif" font-size="10.00" fill="grey"> &lt; LLVMBasedCFG &gt;</text>
</g>
</g>
</svg>
