<?xml version="1.0" encoding="UTF-8" standalone="no"?>
<!DOCTYPE svg PUBLIC "-//W3C//DTD SVG 1.1//EN"
 "http://www.w3.org/Graphics/SVG/1.1/DTD/svg11.dtd">
<!-- Generated by graphviz version 2.43.0 (0)
 -->
<!-- Title: psr::AliasInfo&lt; V, N &gt; Pages: 1 -->
<svg width="181pt" height="249pt"
 viewBox="0.00 0.00 180.50 249.00" xmlns="http://www.w3.org/2000/svg" xmlns:xlink="http://www.w3.org/1999/xlink">
<g id="graph0" class="graph" transform="scale(1 1) rotate(0) translate(4 245)">
<title>psr::AliasInfo&lt; V, N &gt;</title>
<!-- Node1 -->
<g id="Node000001" class="node">
<title>Node1</title>
<g id="a_Node000001"><a xlink:title="Similar to AliasInfoRef, but exclusively owns the held reference. Use this, if you need to decide dyn...">
<polygon fill="#999999" stroke="#666666" points="139,-19 16,-19 16,0 139,0 139,-19"/>
<text text-anchor="middle" x="77.5" y="-7" font-family="Helvetica,sans-Serif" font-size="10.00">psr::AliasInfo&lt; V, N &gt;</text>
</a>
</g>
</g>
<!-- Node2 -->
<g id="Node000002" class="node">
<title>Node2</title>
<g id="a_Node000002"><a xlink:href="classpsr_1_1AliasInfoRef.html" target="_top" xlink:title="A type&#45;erased reference to any object implementing the IsAliasInfo interface. Use this,...">
<polygon fill="white" stroke="#666666" points="130,-86 25,-86 25,-56 130,-56 130,-86"/>
<text text-anchor="start" x="33" y="-74" font-family="Helvetica,sans-Serif" font-size="10.00">psr::AliasInfoRef&lt;</text>
<text text-anchor="middle" x="77.5" y="-63" font-family="Helvetica,sans-Serif" font-size="10.00"> V, N &gt;</text>
</a>
</g>
</g>
<!-- Node2&#45;&gt;Node1 -->
<g id="edge1_Node000001_Node000002" class="edge">
<title>Node2&#45;&gt;Node1</title>
<g id="a_edge1_Node000001_Node000002"><a xlink:title=" ">
<path fill="none" stroke="#63b8ff" d="M77.5,-45.79C77.5,-36.36 77.5,-26.15 77.5,-19.16"/>
<polygon fill="#63b8ff" stroke="#63b8ff" points="74,-45.9 77.5,-55.9 81,-45.9 74,-45.9"/>
</a>
</g>
</g>
<!-- Node3 -->
<g id="Node000003" class="node">
<title>Node3</title>
<g id="a_Node000003"><a xlink:href="classpsr_1_1AnalysisPropertiesMixin.html" target="_top" xlink:title=" ">
<polygon fill="white" stroke="#666666" points="155,-153 0,-153 0,-123 155,-123 155,-153"/>
<text text-anchor="start" x="8" y="-141" font-family="Helvetica,sans-Serif" font-size="10.00">psr::AnalysisPropertiesMixin</text>
<text text-anchor="middle" x="77.5" y="-130" font-family="Helvetica,sans-Serif" font-size="10.00">&lt; AliasInfoRef&lt; V, N &gt; &gt;</text>
</a>
</g>
</g>
<!-- Node3&#45;&gt;Node2 -->
<g id="edge2_Node000002_Node000003" class="edge">
<title>Node3&#45;&gt;Node2</title>
<g id="a_edge2_Node000002_Node000003"><a xlink:title=" ">
<path fill="none" stroke="#63b8ff" d="M77.5,-112.61C77.5,-103.65 77.5,-93.82 77.5,-86.08"/>
<polygon fill="#63b8ff" stroke="#63b8ff" points="74,-112.9 77.5,-122.9 81,-112.9 74,-112.9"/>
</a>
</g>
</g>
<!-- Node4 -->
<g id="Node000004" class="node">
<title>Node4</title>
<g id="a_Node000004"><a xlink:href="classpsr_1_1AnalysisPropertiesMixin.html" target="_top" xlink:title=" ">
<polygon fill="white" stroke="#666666" points="155,-241 0,-241 0,-211 155,-211 155,-241"/>
<text text-anchor="start" x="8" y="-229" font-family="Helvetica,sans-Serif" font-size="10.00">psr::AnalysisPropertiesMixin</text>
<text text-anchor="middle" x="77.5" y="-218" font-family="Helvetica,sans-Serif" font-size="10.00">&lt; Derived &gt;</text>
</a>
</g>
</g>
<!-- Node4&#45;&gt;Node3 -->
<g id="edge3_Node000003_Node000004" class="edge">
<title>Node4&#45;&gt;Node3</title>
<g id="a_edge3_Node000003_Node000004"><a xlink:title=" ">
<path fill="none" stroke="orange" stroke-dasharray="5,2" d="M77.5,-200.49C77.5,-185.2 77.5,-166.05 77.5,-153.22"/>
<polygon fill="orange" stroke="orange" points="74,-200.8 77.5,-210.8 81,-200.8 74,-200.8"/>
</a>
</g>
<text text-anchor="start" x="77.5" y="-185" font-family="Helvetica,sans-Serif" font-size="10.00" fill="grey"> &lt; AliasInfoRef&lt; V,</text>
<text text-anchor="middle" x="125" y="-174" font-family="Helvetica,sans-Serif" font-size="10.00" fill="grey"> N &gt; &gt;</text>
</g>
</g>
</svg>
