<?xml version="1.0" encoding="UTF-8" standalone="no"?>
<!DOCTYPE svg PUBLIC "-//W3C//DTD SVG 1.1//EN"
 "http://www.w3.org/Graphics/SVG/1.1/DTD/svg11.dtd">
<!-- Generated by graphviz version 2.43.0 (0)
 -->
<!-- Title: psr::PathSensitivityManagerBase&lt; N &gt; Pages: 1 -->
<svg width="919pt" height="86pt"
 viewBox="0.00 0.00 919.00 86.00" xmlns="http://www.w3.org/2000/svg" xmlns:xlink="http://www.w3.org/1999/xlink">
<g id="graph0" class="graph" transform="scale(1 1) rotate(0) translate(4 82)">
<title>psr::PathSensitivityManagerBase&lt; N &gt;</title>
<!-- Node1 -->
<g id="Node000001" class="node">
<title>Node1</title>
<g id="a_Node000001"><a xlink:title=" ">
<polygon fill="#999999" stroke="#666666" points="153,-54 0,-54 0,-24 153,-24 153,-54"/>
<text text-anchor="start" x="8" y="-42" font-family="Helvetica,sans-Serif" font-size="10.00">psr::PathSensitivityManager</text>
<text text-anchor="middle" x="76.5" y="-31" font-family="Helvetica,sans-Serif" font-size="10.00">Base&lt; N &gt;</text>
</a>
</g>
</g>
<!-- Node2 -->
<g id="Node000002" class="node">
<title>Node2</title>
<g id="a_Node000002"><a xlink:href="classpsr_1_1PathSensitivityManagerBase.html" target="_top" xlink:title=" ">
<polygon fill="white" stroke="#666666" points="508.5,-78 335.5,-78 335.5,-48 508.5,-48 508.5,-78"/>
<text text-anchor="start" x="343.5" y="-66" font-family="Helvetica,sans-Serif" font-size="10.00">psr::PathSensitivityManager</text>
<text text-anchor="middle" x="422" y="-55" font-family="Helvetica,sans-Serif" font-size="10.00">Base&lt; AnalysisDomainTy::n_t &gt;</text>
</a>
</g>
</g>
<!-- Node1&#45;&gt;Node2 -->
<g id="edge1_Node000001_Node000002" class="edge">
<title>Node1&#45;&gt;Node2</title>
<g id="a_edge1_Node000001_Node000002"><a xlink:title=" ">
<path fill="none" stroke="orange" stroke-dasharray="5,2" d="M163.61,-45.02C216.13,-48.69 283,-53.36 335.42,-57.02"/>
<polygon fill="orange" stroke="orange" points="163.53,-41.5 153.31,-44.3 163.04,-48.49 163.53,-41.5"/>
</a>
</g>
<text text-anchor="start" x="190" y="-69" font-family="Helvetica,sans-Serif" font-size="10.00" fill="grey"> &lt; AnalysisDomainTy</text>
<text text-anchor="middle" x="242.5" y="-58" font-family="Helvetica,sans-Serif" font-size="10.00" fill="grey">::n_t &gt;</text>
</g>
<!-- Node4 -->
<g id="Node000004" class="node">
<title>Node4</title>
<g id="a_Node000004"><a xlink:href="classpsr_1_1PathSensitivityManagerBase.html" target="_top" xlink:title=" ">
<polygon fill="white" stroke="#666666" points="512,-30 332,-30 332,0 512,0 512,-30"/>
<text text-anchor="start" x="340" y="-18" font-family="Helvetica,sans-Serif" font-size="10.00">psr::PathSensitivityManager</text>
<text text-anchor="middle" x="422" y="-7" font-family="Helvetica,sans-Serif" font-size="10.00">Base&lt; const llvm::Instruction * &gt;</text>
</a>
</g>
</g>
<!-- Node1&#45;&gt;Node4 -->
<g id="edge3_Node000001_Node000004" class="edge">
<title>Node1&#45;&gt;Node4</title>
<g id="a_edge3_Node000001_Node000004"><a xlink:title=" ">
<path fill="none" stroke="orange" stroke-dasharray="5,2" d="M163.22,-31.59C165.84,-31.39 168.44,-31.19 171,-31 224.35,-27.01 284.14,-23.16 331.88,-20.24"/>
<polygon fill="orange" stroke="orange" points="162.71,-28.12 153.01,-32.4 163.26,-35.1 162.71,-28.12"/>
</a>
</g>
<text text-anchor="middle" x="242.5" y="-34" font-family="Helvetica,sans-Serif" font-size="10.00" fill="grey"> &lt; const llvm::Instruction * &gt;</text>
</g>
<!-- Node3 -->
<g id="Node000003" class="node">
<title>Node3</title>
<g id="a_Node000003"><a xlink:href="classpsr_1_1PathSensitivityManager.html" target="_top" xlink:title="A utility class that allows path&#45;reconstruction for IFDS/IDE solver results.">
<polygon fill="white" stroke="#666666" points="702,-78 549,-78 549,-48 702,-48 702,-78"/>
<text text-anchor="start" x="557" y="-66" font-family="Helvetica,sans-Serif" font-size="10.00">psr::PathSensitivityManager</text>
<text text-anchor="middle" x="625.5" y="-55" font-family="Helvetica,sans-Serif" font-size="10.00">&lt; AnalysisDomainTy &gt;</text>
</a>
</g>
</g>
<!-- Node2&#45;&gt;Node3 -->
<g id="edge2_Node000002_Node000003" class="edge">
<title>Node2&#45;&gt;Node3</title>
<g id="a_edge2_Node000002_Node000003"><a xlink:title=" ">
<path fill="none" stroke="#63b8ff" d="M518.76,-63C528.81,-63 538.93,-63 548.71,-63"/>
<polygon fill="#63b8ff" stroke="#63b8ff" points="518.75,-59.5 508.75,-63 518.75,-66.5 518.75,-59.5"/>
</a>
</g>
</g>
<!-- Node5 -->
<g id="Node000005" class="node">
<title>Node5</title>
<g id="a_Node000005"><a xlink:href="classpsr_1_1Z3BasedPathSensitivityManagerBase.html" target="_top" xlink:title=" ">
<polygon fill="white" stroke="#666666" points="702,-30 549,-30 549,0 702,0 702,-30"/>
<text text-anchor="start" x="557" y="-18" font-family="Helvetica,sans-Serif" font-size="10.00">psr::Z3BasedPathSensitivity</text>
<text text-anchor="middle" x="625.5" y="-7" font-family="Helvetica,sans-Serif" font-size="10.00">ManagerBase</text>
</a>
</g>
</g>
<!-- Node4&#45;&gt;Node5 -->
<g id="edge4_Node000004_Node000005" class="edge">
<title>Node4&#45;&gt;Node5</title>
<g id="a_edge4_Node000004_Node000005"><a xlink:title=" ">
<path fill="none" stroke="#63b8ff" d="M522.31,-15C531.24,-15 540.18,-15 548.85,-15"/>
<polygon fill="#63b8ff" stroke="#63b8ff" points="522.26,-11.5 512.26,-15 522.26,-18.5 522.26,-11.5"/>
</a>
</g>
</g>
<!-- Node6 -->
<g id="Node000006" class="node">
<title>Node6</title>
<g id="a_Node000006"><a xlink:href="classpsr_1_1Z3BasedPathSensitivityManager.html" target="_top" xlink:title="An extension of the path&#45;reconstruction mechanism of the PathSensitivityManager that provides means t...">
<polygon fill="white" stroke="#666666" points="911,-30 739,-30 739,0 911,0 911,-30"/>
<text text-anchor="start" x="747" y="-18" font-family="Helvetica,sans-Serif" font-size="10.00">psr::Z3BasedPathSensitivity</text>
<text text-anchor="middle" x="825" y="-7" font-family="Helvetica,sans-Serif" font-size="10.00">Manager&lt; AnalysisDomainTy &gt;</text>
</a>
</g>
</g>
<!-- Node5&#45;&gt;Node6 -->
<g id="edge5_Node000005_Node000006" class="edge">
<title>Node5&#45;&gt;Node6</title>
<g id="a_edge5_Node000005_Node000006"><a xlink:title=" ">
<path fill="none" stroke="#63b8ff" d="M712.02,-15C720.96,-15 730.04,-15 738.97,-15"/>
<polygon fill="#63b8ff" stroke="#63b8ff" points="712.01,-11.5 702.01,-15 712.01,-18.5 712.01,-11.5"/>
</a>
</g>
</g>
</g>
</svg>
