<?xml version="1.0" encoding="UTF-8" standalone="no"?>
<!DOCTYPE svg PUBLIC "-//W3C//DTD SVG 1.1//EN"
 "http://www.w3.org/Graphics/SVG/1.1/DTD/svg11.dtd">
<!-- Generated by graphviz version 2.43.0 (0)
 -->
<!-- Title: psr::IDESolver&lt; AnalysisDomainTy, Container &gt; Pages: 1 -->
<svg width="790pt" height="334pt"
 viewBox="0.00 0.00 790.00 333.50" xmlns="http://www.w3.org/2000/svg" xmlns:xlink="http://www.w3.org/1999/xlink">
<g id="graph0" class="graph" transform="scale(1 1) rotate(0) translate(4 329.5)">
<title>psr::IDESolver&lt; AnalysisDomainTy, Container &gt;</title>
<!-- Node1 -->
<g id="Node000001" class="node">
<title>Node1</title>
<g id="a_Node000001"><a xlink:title=" ">
<polygon fill="#999999" stroke="#666666" points="302,-185.5 165,-185.5 165,-155.5 302,-155.5 302,-185.5"/>
<text text-anchor="start" x="173" y="-173.5" font-family="Helvetica,sans-Serif" font-size="10.00">psr::IDESolver&lt; Analysis</text>
<text text-anchor="middle" x="233.5" y="-162.5" font-family="Helvetica,sans-Serif" font-size="10.00">DomainTy, Container &gt;</text>
</a>
</g>
</g>
<!-- Node3 -->
<g id="Node000003" class="node">
<title>Node3</title>
<g id="a_Node000003"><a xlink:href="classpsr_1_1IFDSSolver.html" target="_top" xlink:title="Solves the given IFDSTabulationProblem as described in the 1995 paper by Reps, Horwitz and Sagiv....">
<polygon fill="white" stroke="#666666" points="747,-325.5 604,-325.5 604,-295.5 747,-295.5 747,-325.5"/>
<text text-anchor="start" x="612" y="-313.5" font-family="Helvetica,sans-Serif" font-size="10.00">psr::IFDSSolver&lt; Analysis</text>
<text text-anchor="middle" x="675.5" y="-302.5" font-family="Helvetica,sans-Serif" font-size="10.00">DomainTy, Container &gt;</text>
</a>
</g>
</g>
<!-- Node1&#45;&gt;Node3 -->
<g id="edge2_Node000001_Node000003" class="edge">
<title>Node1&#45;&gt;Node3</title>
<g id="a_edge2_Node000001_Node000003"><a xlink:title=" ">
<path fill="none" stroke="#63b8ff" d="M246.52,-194.35C260.49,-219.28 286.03,-257.25 320,-275.5 409.08,-323.35 528.97,-324.35 603.99,-318.83"/>
<polygon fill="#63b8ff" stroke="#63b8ff" points="249.57,-192.64 241.74,-185.5 243.41,-195.96 249.57,-192.64"/>
</a>
</g>
</g>
<!-- Node4 -->
<g id="Node000004" class="node">
<title>Node4</title>
<g id="a_Node000004"><a xlink:href="classpsr_1_1PathAwareIDESolver.html" target="_top" xlink:title=" ">
<polygon fill="white" stroke="#666666" points="766.5,-277.5 584.5,-277.5 584.5,-247.5 766.5,-247.5 766.5,-277.5"/>
<text text-anchor="start" x="592.5" y="-265.5" font-family="Helvetica,sans-Serif" font-size="10.00">psr::PathAwareIDESolver</text>
<text text-anchor="middle" x="675.5" y="-254.5" font-family="Helvetica,sans-Serif" font-size="10.00">&lt; AnalysisDomainTy, Container &gt;</text>
</a>
</g>
</g>
<!-- Node1&#45;&gt;Node4 -->
<g id="edge3_Node000001_Node000004" class="edge">
<title>Node1&#45;&gt;Node4</title>
<g id="a_edge3_Node000001_Node000004"><a xlink:title=" ">
<path fill="none" stroke="#63b8ff" d="M252.41,-193.34C268.07,-211.39 292.56,-235.35 320,-246.5 404.76,-280.93 510.47,-280.8 584.31,-274.62"/>
<polygon fill="#63b8ff" stroke="#63b8ff" points="254.96,-190.94 245.85,-185.53 249.6,-195.44 254.96,-190.94"/>
</a>
</g>
</g>
<!-- Node5 -->
<g id="Node000005" class="node">
<title>Node5</title>
<g id="a_Node000005"><a xlink:href="classpsr_1_1IDESolver.html" target="_top" xlink:title=" ">
<polygon fill="white" stroke="#666666" points="782,-229.5 569,-229.5 569,-177.5 782,-177.5 782,-229.5"/>
<text text-anchor="start" x="577" y="-217.5" font-family="Helvetica,sans-Serif" font-size="10.00">psr::IDESolver&lt; WithBinary</text>
<text text-anchor="start" x="577" y="-206.5" font-family="Helvetica,sans-Serif" font-size="10.00">ValueDomain&lt; AnalysisDomainTy</text>
<text text-anchor="start" x="577" y="-195.5" font-family="Helvetica,sans-Serif" font-size="10.00"> &gt;, std::set&lt; typename AnalysisDomain</text>
<text text-anchor="middle" x="675.5" y="-184.5" font-family="Helvetica,sans-Serif" font-size="10.00">Ty::d_t &gt; &gt;</text>
</a>
</g>
</g>
<!-- Node1&#45;&gt;Node5 -->
<g id="edge4_Node000001_Node000005" class="edge">
<title>Node1&#45;&gt;Node5</title>
<g id="a_edge4_Node000001_Node000005"><a xlink:title=" ">
<path fill="none" stroke="orange" stroke-dasharray="5,2" d="M312.27,-180.73C314.87,-181 317.46,-181.26 320,-181.5 403.48,-189.45 498.32,-195.16 568.88,-198.77"/>
<polygon fill="orange" stroke="orange" points="312.45,-177.23 302.13,-179.62 311.69,-184.18 312.45,-177.23"/>
</a>
</g>
<text text-anchor="start" x="344" y="-234.5" font-family="Helvetica,sans-Serif" font-size="10.00" fill="grey"> &lt; WithBinaryValueDomain</text>
<text text-anchor="start" x="344" y="-223.5" font-family="Helvetica,sans-Serif" font-size="10.00" fill="grey">&lt; AnalysisDomainTy &gt;,</text>
<text text-anchor="start" x="344" y="-212.5" font-family="Helvetica,sans-Serif" font-size="10.00" fill="grey"> std::set&lt; typename AnalysisDomain</text>
<text text-anchor="middle" x="435.5" y="-201.5" font-family="Helvetica,sans-Serif" font-size="10.00" fill="grey">Ty::d_t &gt; &gt;</text>
</g>
<!-- Node6 -->
<g id="Node000006" class="node">
<title>Node6</title>
<g id="a_Node000006"><a xlink:href="classpsr_1_1IDESolver.html" target="_top" xlink:title=" ">
<polygon fill="white" stroke="#666666" points="759.5,-159 591.5,-159 591.5,-118 759.5,-118 759.5,-159"/>
<text text-anchor="start" x="599.5" y="-147" font-family="Helvetica,sans-Serif" font-size="10.00">psr::IDESolver&lt; Analysis</text>
<text text-anchor="start" x="599.5" y="-136" font-family="Helvetica,sans-Serif" font-size="10.00">DomainTy, std::set&lt; typename</text>
<text text-anchor="middle" x="675.5" y="-125" font-family="Helvetica,sans-Serif" font-size="10.00"> AnalysisDomainTy::d_t &gt; &gt;</text>
</a>
</g>
</g>
<!-- Node1&#45;&gt;Node6 -->
<g id="edge5_Node000001_Node000006" class="edge">
<title>Node1&#45;&gt;Node6</title>
<g id="a_edge5_Node000001_Node000006"><a xlink:title=" ">
<path fill="none" stroke="orange" stroke-dasharray="5,2" d="M295.2,-153.11C303.48,-151.26 311.91,-149.64 320,-148.5 412.21,-135.5 519.21,-134.37 591.33,-135.62"/>
<polygon fill="orange" stroke="orange" points="294.14,-149.76 285.21,-155.46 295.75,-156.58 294.14,-149.76"/>
</a>
</g>
<text text-anchor="start" x="367.5" y="-173.5" font-family="Helvetica,sans-Serif" font-size="10.00" fill="grey"> &lt; AnalysisDomainTy,</text>
<text text-anchor="start" x="367.5" y="-162.5" font-family="Helvetica,sans-Serif" font-size="10.00" fill="grey"> std::set&lt; typename</text>
<text text-anchor="middle" x="435.5" y="-151.5" font-family="Helvetica,sans-Serif" font-size="10.00" fill="grey"> AnalysisDomainTy::d_t &gt; &gt;</text>
</g>
<!-- Node7 -->
<g id="Node000007" class="node">
<title>Node7</title>
<g id="a_Node000007"><a xlink:href="classpsr_1_1IDESolver.html" target="_top" xlink:title=" ">
<polygon fill="white" stroke="#666666" points="780,-100 571,-100 571,-59 780,-59 780,-100"/>
<text text-anchor="start" x="579" y="-88" font-family="Helvetica,sans-Serif" font-size="10.00">psr::IDESolver&lt; psr</text>
<text text-anchor="start" x="579" y="-77" font-family="Helvetica,sans-Serif" font-size="10.00">::IDETypeStateAnalysisDomain</text>
<text text-anchor="middle" x="675.5" y="-66" font-family="Helvetica,sans-Serif" font-size="10.00">&lt; psr::OpenSSLEVPKDFDescription &gt; &gt;</text>
</a>
</g>
</g>
<!-- Node1&#45;&gt;Node7 -->
<g id="edge6_Node000001_Node000007" class="edge">
<title>Node1&#45;&gt;Node7</title>
<g id="a_edge6_Node000001_Node000007"><a xlink:title=" ">
<path fill="none" stroke="orange" stroke-dasharray="5,2" d="M257.81,-148.57C273.96,-134.79 296.68,-118.07 320,-109.5 400.73,-79.84 498.53,-73.57 570.93,-74.02"/>
<polygon fill="orange" stroke="orange" points="255.2,-146.21 250,-155.44 259.82,-151.47 255.2,-146.21"/>
</a>
</g>
<text text-anchor="start" x="320" y="-123.5" font-family="Helvetica,sans-Serif" font-size="10.00" fill="grey"> &lt; psr::IDETypeStateAnalysis</text>
<text text-anchor="middle" x="435.5" y="-112.5" font-family="Helvetica,sans-Serif" font-size="10.00" fill="grey">Domain&lt; psr::OpenSSLEVPKDFDescription &gt; &gt;</text>
</g>
<!-- Node8 -->
<g id="Node000008" class="node">
<title>Node8</title>
<g id="a_Node000008"><a xlink:href="classpsr_1_1IDESolver.html" target="_top" xlink:title=" ">
<polygon fill="white" stroke="#666666" points="753.5,-41 597.5,-41 597.5,0 753.5,0 753.5,-41"/>
<text text-anchor="start" x="605.5" y="-29" font-family="Helvetica,sans-Serif" font-size="10.00">psr::IDESolver&lt; psr</text>
<text text-anchor="start" x="605.5" y="-18" font-family="Helvetica,sans-Serif" font-size="10.00">::IDESecureHeapPropagation</text>
<text text-anchor="middle" x="675.5" y="-7" font-family="Helvetica,sans-Serif" font-size="10.00">AnalysisDomain &gt;</text>
</a>
</g>
</g>
<!-- Node1&#45;&gt;Node8 -->
<g id="edge7_Node000001_Node000008" class="edge">
<title>Node1&#45;&gt;Node8</title>
<g id="a_edge7_Node000001_Node000008"><a xlink:title=" ">
<path fill="none" stroke="orange" stroke-dasharray="5,2" d="M244.05,-145.81C256.66,-116.94 281.83,-70.31 320,-48.5 405.36,0.28 521.7,-0.79 597.45,-8.57"/>
<polygon fill="orange" stroke="orange" points="240.74,-144.64 240.11,-155.22 247.2,-147.34 240.74,-144.64"/>
</a>
</g>
<text text-anchor="start" x="351" y="-62.5" font-family="Helvetica,sans-Serif" font-size="10.00" fill="grey"> &lt; psr::IDESecureHeapPropagation</text>
<text text-anchor="middle" x="435.5" y="-51.5" font-family="Helvetica,sans-Serif" font-size="10.00" fill="grey">AnalysisDomain &gt;</text>
</g>
<!-- Node2 -->
<g id="Node000002" class="node">
<title>Node2</title>
<g id="a_Node000002"><a xlink:href="classpsr_1_1IDESolverAPIMixin.html" target="_top" xlink:title=" ">
<polygon fill="white" stroke="#666666" points="128,-185.5 0,-185.5 0,-155.5 128,-155.5 128,-185.5"/>
<text text-anchor="start" x="8" y="-173.5" font-family="Helvetica,sans-Serif" font-size="10.00">psr::IDESolverAPIMixin</text>
<text text-anchor="middle" x="64" y="-162.5" font-family="Helvetica,sans-Serif" font-size="10.00">&lt; Derived &gt;</text>
</a>
</g>
</g>
<!-- Node2&#45;&gt;Node1 -->
<g id="edge1_Node000001_Node000002" class="edge">
<title>Node2&#45;&gt;Node1</title>
<g id="a_edge1_Node000001_Node000002"><a xlink:title=" ">
<path fill="none" stroke="#63b8ff" d="M138.52,-170.5C147.29,-170.5 156.21,-170.5 164.89,-170.5"/>
<polygon fill="#63b8ff" stroke="#63b8ff" points="138.32,-167 128.32,-170.5 138.32,-174 138.32,-167"/>
</a>
</g>
</g>
</g>
</svg>
