<?xml version="1.0" encoding="UTF-8" standalone="no"?>
<!DOCTYPE svg PUBLIC "-//W3C//DTD SVG 1.1//EN"
 "http://www.w3.org/Graphics/SVG/1.1/DTD/svg11.dtd">
<!-- Generated by graphviz version 2.43.0 (0)
 -->
<!-- Title: psr::Z3BasedPathSensitivityManagerBase Pages: 1 -->
<svg width="241pt" height="249pt"
 viewBox="0.00 0.00 241.00 249.00" xmlns="http://www.w3.org/2000/svg" xmlns:xlink="http://www.w3.org/1999/xlink">
<g id="graph0" class="graph" transform="scale(1 1) rotate(0) translate(4 245)">
<title>psr::Z3BasedPathSensitivityManagerBase</title>
<!-- Node1 -->
<g id="Node000001" class="node">
<title>Node1</title>
<g id="a_Node000001"><a xlink:title=" ">
<polygon fill="#999999" stroke="#666666" points="166.5,-97 13.5,-97 13.5,-67 166.5,-67 166.5,-97"/>
<text text-anchor="start" x="21.5" y="-85" font-family="Helvetica,sans-Serif" font-size="10.00">psr::Z3BasedPathSensitivity</text>
<text text-anchor="middle" x="90" y="-74" font-family="Helvetica,sans-Serif" font-size="10.00">ManagerBase</text>
</a>
</g>
</g>
<!-- Node4 -->
<g id="Node000004" class="node">
<title>Node4</title>
<g id="a_Node000004"><a xlink:href="classpsr_1_1Z3BasedPathSensitivityManager.html" target="_top" xlink:title="An extension of the path&#45;reconstruction mechanism of the PathSensitivityManager that provides means t...">
<polygon fill="white" stroke="#666666" points="176,-30 4,-30 4,0 176,0 176,-30"/>
<text text-anchor="start" x="12" y="-18" font-family="Helvetica,sans-Serif" font-size="10.00">psr::Z3BasedPathSensitivity</text>
<text text-anchor="middle" x="90" y="-7" font-family="Helvetica,sans-Serif" font-size="10.00">Manager&lt; AnalysisDomainTy &gt;</text>
</a>
</g>
</g>
<!-- Node1&#45;&gt;Node4 -->
<g id="edge3_Node000001_Node000004" class="edge">
<title>Node1&#45;&gt;Node4</title>
<g id="a_edge3_Node000001_Node000004"><a xlink:title=" ">
<path fill="none" stroke="#63b8ff" d="M90,-56.61C90,-47.65 90,-37.82 90,-30.08"/>
<polygon fill="#63b8ff" stroke="#63b8ff" points="86.5,-56.9 90,-66.9 93.5,-56.9 86.5,-56.9"/>
</a>
</g>
</g>
<!-- Node2 -->
<g id="Node000002" class="node">
<title>Node2</title>
<g id="a_Node000002"><a xlink:href="classpsr_1_1PathSensitivityManagerBase.html" target="_top" xlink:title=" ">
<polygon fill="white" stroke="#666666" points="180,-164 0,-164 0,-134 180,-134 180,-164"/>
<text text-anchor="start" x="8" y="-152" font-family="Helvetica,sans-Serif" font-size="10.00">psr::PathSensitivityManager</text>
<text text-anchor="middle" x="90" y="-141" font-family="Helvetica,sans-Serif" font-size="10.00">Base&lt; const llvm::Instruction * &gt;</text>
</a>
</g>
</g>
<!-- Node2&#45;&gt;Node1 -->
<g id="edge1_Node000001_Node000002" class="edge">
<title>Node2&#45;&gt;Node1</title>
<g id="a_edge1_Node000001_Node000002"><a xlink:title=" ">
<path fill="none" stroke="#63b8ff" d="M90,-123.61C90,-114.65 90,-104.82 90,-97.08"/>
<polygon fill="#63b8ff" stroke="#63b8ff" points="86.5,-123.9 90,-133.9 93.5,-123.9 86.5,-123.9"/>
</a>
</g>
</g>
<!-- Node3 -->
<g id="Node000003" class="node">
<title>Node3</title>
<g id="a_Node000003"><a xlink:href="classpsr_1_1PathSensitivityManagerBase.html" target="_top" xlink:title=" ">
<polygon fill="white" stroke="#666666" points="166.5,-241 13.5,-241 13.5,-211 166.5,-211 166.5,-241"/>
<text text-anchor="start" x="21.5" y="-229" font-family="Helvetica,sans-Serif" font-size="10.00">psr::PathSensitivityManager</text>
<text text-anchor="middle" x="90" y="-218" font-family="Helvetica,sans-Serif" font-size="10.00">Base&lt; N &gt;</text>
</a>
</g>
</g>
<!-- Node3&#45;&gt;Node2 -->
<g id="edge2_Node000002_Node000003" class="edge">
<title>Node3&#45;&gt;Node2</title>
<g id="a_edge2_Node000002_Node000003"><a xlink:title=" ">
<path fill="none" stroke="orange" stroke-dasharray="5,2" d="M90,-200.54C90,-188.45 90,-174.29 90,-164.04"/>
<polygon fill="orange" stroke="orange" points="86.5,-200.89 90,-210.89 93.5,-200.89 86.5,-200.89"/>
</a>
</g>
<text text-anchor="middle" x="161.5" y="-185" font-family="Helvetica,sans-Serif" font-size="10.00" fill="grey"> &lt; const llvm::Instruction * &gt;</text>
</g>
</g>
</svg>
