<?xml version="1.0" encoding="UTF-8" standalone="no"?>
<!DOCTYPE svg PUBLIC "-//W3C//DTD SVG 1.1//EN"
 "http://www.w3.org/Graphics/SVG/1.1/DTD/svg11.dtd">
<!-- Generated by graphviz version 2.43.0 (0)
 -->
<!-- Title: psr::InterMonoTaintAnalysis Pages: 1 -->
<svg width="848pt" height="61pt"
 viewBox="0.00 0.00 848.00 61.00" xmlns="http://www.w3.org/2000/svg" xmlns:xlink="http://www.w3.org/1999/xlink">
<g id="graph0" class="graph" transform="scale(1 1) rotate(0) translate(4 57)">
<title>psr::InterMonoTaintAnalysis</title>
<!-- Node1 -->
<g id="Node000001" class="node">
<title>Node1</title>
<g id="a_Node000001"><a xlink:title=" ">
<polygon fill="#999999" stroke="#666666" points="840,-47.5 688,-47.5 688,-28.5 840,-28.5 840,-47.5"/>
<text text-anchor="middle" x="764" y="-35.5" font-family="Helvetica,sans-Serif" font-size="10.00">psr::InterMonoTaintAnalysis</text>
</a>
</g>
</g>
<!-- Node2 -->
<g id="Node000002" class="node">
<title>Node2</title>
<g id="a_Node000002"><a xlink:href="classpsr_1_1InterMonoProblem.html" target="_top" xlink:title=" ">
<polygon fill="white" stroke="#666666" points="651,-53 460,-53 460,-23 651,-23 651,-53"/>
<text text-anchor="start" x="468" y="-41" font-family="Helvetica,sans-Serif" font-size="10.00">psr::InterMonoProblem</text>
<text text-anchor="middle" x="555.5" y="-30" font-family="Helvetica,sans-Serif" font-size="10.00">&lt; InterMonoTaintAnalysisDomain &gt;</text>
</a>
</g>
</g>
<!-- Node2&#45;&gt;Node1 -->
<g id="edge1_Node000001_Node000002" class="edge">
<title>Node2&#45;&gt;Node1</title>
<g id="a_edge1_Node000001_Node000002"><a xlink:title=" ">
<path fill="none" stroke="#63b8ff" d="M661.4,-38C670.36,-38 679.31,-38 687.97,-38"/>
<polygon fill="#63b8ff" stroke="#63b8ff" points="661.29,-34.5 651.29,-38 661.29,-41.5 661.29,-34.5"/>
</a>
</g>
</g>
<!-- Node3 -->
<g id="Node000003" class="node">
<title>Node3</title>
<g id="a_Node000003"><a xlink:href="classpsr_1_1IntraMonoProblem.html" target="_top" xlink:title="The analysis problem interface for intraprocedural monotone problems (solvable by the IntraMonoSolver...">
<polygon fill="white" stroke="#666666" points="129,-51 0,-51 0,-21 129,-21 129,-51"/>
<text text-anchor="start" x="8" y="-39" font-family="Helvetica,sans-Serif" font-size="10.00">psr::IntraMonoProblem</text>
<text text-anchor="middle" x="64.5" y="-28" font-family="Helvetica,sans-Serif" font-size="10.00">&lt; AnalysisDomainTy &gt;</text>
</a>
</g>
</g>
<!-- Node3&#45;&gt;Node2 -->
<g id="edge2_Node000002_Node000003" class="edge">
<title>Node3&#45;&gt;Node2</title>
<g id="a_edge2_Node000002_Node000003"><a xlink:title=" ">
<path fill="none" stroke="#63b8ff" d="M139.53,-39.66C215.46,-42.93 336.98,-46.8 442,-44 447.87,-43.84 453.9,-43.64 459.99,-43.41"/>
<polygon fill="#63b8ff" stroke="#63b8ff" points="139.27,-36.15 129.12,-39.21 138.96,-43.14 139.27,-36.15"/>
</a>
</g>
</g>
<!-- Node4 -->
<g id="Node000004" class="node">
<title>Node4</title>
<g id="a_Node000004"><a xlink:href="classpsr_1_1InterMonoProblem.html" target="_top" xlink:title="The analysis problem interface for interprocedural monotone problems (solvable by the InterMonoSolver...">
<polygon fill="white" stroke="#666666" points="295,-30 166,-30 166,0 295,0 295,-30"/>
<text text-anchor="start" x="174" y="-18" font-family="Helvetica,sans-Serif" font-size="10.00">psr::InterMonoProblem</text>
<text text-anchor="middle" x="230.5" y="-7" font-family="Helvetica,sans-Serif" font-size="10.00">&lt; AnalysisDomainTy &gt;</text>
</a>
</g>
</g>
<!-- Node3&#45;&gt;Node4 -->
<g id="edge4_Node000004_Node000003" class="edge">
<title>Node3&#45;&gt;Node4</title>
<g id="a_edge4_Node000004_Node000003"><a xlink:title=" ">
<path fill="none" stroke="#63b8ff" d="M139.57,-26.51C148.33,-25.39 157.2,-24.26 165.8,-23.16"/>
<polygon fill="#63b8ff" stroke="#63b8ff" points="138.85,-23.08 129.38,-27.82 139.74,-30.02 138.85,-23.08"/>
</a>
</g>
</g>
<!-- Node4&#45;&gt;Node2 -->
<g id="edge3_Node000002_Node000004" class="edge">
<title>Node4&#45;&gt;Node2</title>
<g id="a_edge3_Node000002_Node000004"><a xlink:title=" ">
<path fill="none" stroke="orange" stroke-dasharray="5,2" d="M305.21,-15.5C345.66,-16.27 396.67,-18.03 442,-22 447.8,-22.51 453.75,-23.11 459.75,-23.78"/>
<polygon fill="orange" stroke="orange" points="305.23,-12 295.17,-15.33 305.1,-19 305.23,-12"/>
</a>
</g>
<text text-anchor="start" x="313" y="-36" font-family="Helvetica,sans-Serif" font-size="10.00" fill="grey"> &lt; InterMonoTaintAnalysis</text>
<text text-anchor="middle" x="377.5" y="-25" font-family="Helvetica,sans-Serif" font-size="10.00" fill="grey">Domain &gt;</text>
</g>
</g>
</svg>
