<?xml version="1.0" encoding="UTF-8" standalone="no"?>
<!DOCTYPE svg PUBLIC "-//W3C//DTD SVG 1.1//EN"
 "http://www.w3.org/Graphics/SVG/1.1/DTD/svg11.dtd">
<!-- Generated by graphviz version 2.43.0 (0)
 -->
<!-- Title: psr::PointsToInfoRef&lt; PTATraits &gt; Pages: 1 -->
<svg width="307pt" height="316pt"
 viewBox="0.00 0.00 307.00 316.00" xmlns="http://www.w3.org/2000/svg" xmlns:xlink="http://www.w3.org/1999/xlink">
<g id="graph0" class="graph" transform="scale(1 1) rotate(0) translate(4 312)">
<title>psr::PointsToInfoRef&lt; PTATraits &gt;</title>
<!-- Node1 -->
<g id="Node000001" class="node">
<title>Node1</title>
<g id="a_Node000001"><a xlink:title=" ">
<polygon fill="#999999" stroke="#666666" points="176,-97 63,-97 63,-67 176,-67 176,-97"/>
<text text-anchor="start" x="71" y="-85" font-family="Helvetica,sans-Serif" font-size="10.00">psr::PointsToInfoRef</text>
<text text-anchor="middle" x="119.5" y="-74" font-family="Helvetica,sans-Serif" font-size="10.00">&lt; PTATraits &gt;</text>
</a>
</g>
</g>
<!-- Node6 -->
<g id="Node000006" class="node">
<title>Node6</title>
<g id="a_Node000006"><a xlink:href="classpsr_1_1PointsToInfo_3_01PTATraits_01_4.html" target="_top" xlink:title=" ">
<polygon fill="white" stroke="#666666" points="172,-30 67,-30 67,0 172,0 172,-30"/>
<text text-anchor="start" x="75" y="-18" font-family="Helvetica,sans-Serif" font-size="10.00">psr::PointsToInfo&lt;</text>
<text text-anchor="middle" x="119.5" y="-7" font-family="Helvetica,sans-Serif" font-size="10.00"> PTATraits &gt;</text>
</a>
</g>
</g>
<!-- Node1&#45;&gt;Node6 -->
<g id="edge5_Node000001_Node000006" class="edge">
<title>Node1&#45;&gt;Node6</title>
<g id="a_edge5_Node000001_Node000006"><a xlink:title=" ">
<path fill="none" stroke="#63b8ff" d="M119.5,-56.61C119.5,-47.65 119.5,-37.82 119.5,-30.08"/>
<polygon fill="#63b8ff" stroke="#63b8ff" points="116,-56.9 119.5,-66.9 123,-56.9 116,-56.9"/>
</a>
</g>
</g>
<!-- Node2 -->
<g id="Node000002" class="node">
<title>Node2</title>
<g id="a_Node000002"><a xlink:href="classpsr_1_1PointsToInfoBase.html" target="_top" xlink:title=" ">
<polygon fill="white" stroke="#666666" points="210,-164 29,-164 29,-134 210,-134 210,-164"/>
<text text-anchor="start" x="37" y="-152" font-family="Helvetica,sans-Serif" font-size="10.00">psr::PointsToInfoBase</text>
<text text-anchor="middle" x="119.5" y="-141" font-family="Helvetica,sans-Serif" font-size="10.00">&lt; PointsToInfoRef&lt; PTATraits &gt; &gt;</text>
</a>
</g>
</g>
<!-- Node2&#45;&gt;Node1 -->
<g id="edge1_Node000001_Node000002" class="edge">
<title>Node2&#45;&gt;Node1</title>
<g id="a_edge1_Node000001_Node000002"><a xlink:title=" ">
<path fill="none" stroke="#63b8ff" d="M119.5,-123.61C119.5,-114.65 119.5,-104.82 119.5,-97.08"/>
<polygon fill="#63b8ff" stroke="#63b8ff" points="116,-123.9 119.5,-133.9 123,-123.9 116,-123.9"/>
</a>
</g>
</g>
<!-- Node3 -->
<g id="Node000003" class="node">
<title>Node3</title>
<g id="a_Node000003"><a xlink:href="classpsr_1_1CRTPBase.html" target="_top" xlink:title=" ">
<polygon fill="white" stroke="#666666" points="147,-246.5 0,-246.5 0,-227.5 147,-227.5 147,-246.5"/>
<text text-anchor="middle" x="73.5" y="-234.5" font-family="Helvetica,sans-Serif" font-size="10.00">psr::CRTPBase&lt; Derived &gt;</text>
</a>
</g>
</g>
<!-- Node3&#45;&gt;Node2 -->
<g id="edge2_Node000002_Node000003" class="edge">
<title>Node3&#45;&gt;Node2</title>
<g id="a_edge2_Node000002_Node000003"><a xlink:title=" ">
<path fill="none" stroke="#63b8ff" d="M82.82,-218.57C91.39,-202.55 103.94,-179.1 111.91,-164.2"/>
<polygon fill="#63b8ff" stroke="#63b8ff" points="79.71,-216.97 78.08,-227.44 85.88,-220.27 79.71,-216.97"/>
</a>
</g>
</g>
<!-- Node4 -->
<g id="Node000004" class="node">
<title>Node4</title>
<g id="a_Node000004"><a xlink:href="classpsr_1_1PointsToInfoBase.html" target="_top" xlink:title=" ">
<polygon fill="white" stroke="#666666" points="286,-252 165,-252 165,-222 286,-222 286,-252"/>
<text text-anchor="start" x="173" y="-240" font-family="Helvetica,sans-Serif" font-size="10.00">psr::PointsToInfoBase</text>
<text text-anchor="middle" x="225.5" y="-229" font-family="Helvetica,sans-Serif" font-size="10.00">&lt; Derived &gt;</text>
</a>
</g>
</g>
<!-- Node4&#45;&gt;Node2 -->
<g id="edge3_Node000002_Node000004" class="edge">
<title>Node4&#45;&gt;Node2</title>
<g id="a_edge3_Node000002_Node000004"><a xlink:title=" ">
<path fill="none" stroke="orange" stroke-dasharray="5,2" d="M200.11,-215.4C180.63,-199.59 154.22,-178.17 137.03,-164.22"/>
<polygon fill="orange" stroke="orange" points="198.03,-218.22 208,-221.8 202.44,-212.78 198.03,-218.22"/>
</a>
</g>
<text text-anchor="start" x="184.5" y="-196" font-family="Helvetica,sans-Serif" font-size="10.00" fill="grey"> &lt; PointsToInfoRef&lt;</text>
<text text-anchor="middle" x="234" y="-185" font-family="Helvetica,sans-Serif" font-size="10.00" fill="grey"> PTATraits &gt; &gt;</text>
</g>
<!-- Node5 -->
<g id="Node000005" class="node">
<title>Node5</title>
<g id="a_Node000005"><a xlink:href="classpsr_1_1CRTPBase.html" target="_top" xlink:title=" ">
<polygon fill="white" stroke="#666666" points="299,-308 152,-308 152,-289 299,-289 299,-308"/>
<text text-anchor="middle" x="225.5" y="-296" font-family="Helvetica,sans-Serif" font-size="10.00">psr::CRTPBase&lt; Derived &gt;</text>
</a>
</g>
</g>
<!-- Node5&#45;&gt;Node4 -->
<g id="edge4_Node000004_Node000005" class="edge">
<title>Node5&#45;&gt;Node4</title>
<g id="a_edge4_Node000004_Node000005"><a xlink:title=" ">
<path fill="none" stroke="#63b8ff" d="M225.5,-278.73C225.5,-270.09 225.5,-260 225.5,-252.02"/>
<polygon fill="#63b8ff" stroke="#63b8ff" points="222,-278.98 225.5,-288.98 229,-278.98 222,-278.98"/>
</a>
</g>
</g>
</g>
</svg>
