<?xml version="1.0" encoding="UTF-8" standalone="no"?>
<!DOCTYPE svg PUBLIC "-//W3C//DTD SVG 1.1//EN"
 "http://www.w3.org/Graphics/SVG/1.1/DTD/svg11.dtd">
<!-- Generated by graphviz version 2.43.0 (0)
 -->
<!-- Title: psr::AnalysisPropertiesMixin&lt; Derived &gt; Pages: 1 -->
<svg width="985pt" height="316pt"
 viewBox="0.00 0.00 985.00 316.39" xmlns="http://www.w3.org/2000/svg" xmlns:xlink="http://www.w3.org/1999/xlink">
<g id="graph0" class="graph" transform="scale(1 1) rotate(0) translate(4 312.39)">
<title>psr::AnalysisPropertiesMixin&lt; Derived &gt;</title>
<!-- Node1 -->
<g id="Node000001" class="node">
<title>Node1</title>
<g id="a_Node000001"><a xlink:title=" ">
<polygon fill="#999999" stroke="#666666" points="155,-158.5 0,-158.5 0,-128.5 155,-128.5 155,-158.5"/>
<text text-anchor="start" x="8" y="-146.5" font-family="Helvetica,sans-Serif" font-size="10.00">psr::AnalysisPropertiesMixin</text>
<text text-anchor="middle" x="77.5" y="-135.5" font-family="Helvetica,sans-Serif" font-size="10.00">&lt; Derived &gt;</text>
</a>
</g>
</g>
<!-- Node2 -->
<g id="Node000002" class="node">
<title>Node2</title>
<g id="a_Node000002"><a xlink:href="classpsr_1_1AliasInfoRef.html" target="_top" xlink:title=" ">
<polygon fill="white" stroke="#666666" points="955.5,-301.5 850.5,-301.5 850.5,-271.5 955.5,-271.5 955.5,-301.5"/>
<text text-anchor="start" x="858.5" y="-289.5" font-family="Helvetica,sans-Serif" font-size="10.00">psr::AliasInfoRef&lt;</text>
<text text-anchor="middle" x="903" y="-278.5" font-family="Helvetica,sans-Serif" font-size="10.00"> v_t, n_t &gt;</text>
</a>
</g>
</g>
<!-- Node1&#45;&gt;Node2 -->
<g id="edge1_Node000001_Node000002" class="edge">
<title>Node1&#45;&gt;Node2</title>
<g id="a_edge1_Node000001_Node000002"><a xlink:title=" ">
<path fill="none" stroke="#63b8ff" d="M96.48,-166.64C113.72,-186.98 141.7,-215.45 173,-229.5 407.23,-334.66 726.37,-309.24 850.06,-293.92"/>
<polygon fill="#63b8ff" stroke="#63b8ff" points="99.04,-164.25 89.98,-158.76 93.64,-168.7 99.04,-164.25"/>
</a>
</g>
</g>
<!-- Node3 -->
<g id="Node000003" class="node">
<title>Node3</title>
<g id="a_Node000003"><a xlink:href="classpsr_1_1AliasInfoRef.html" target="_top" xlink:title=" ">
<polygon fill="white" stroke="#666666" points="977,-197 829,-197 829,-156 977,-156 977,-197"/>
<text text-anchor="start" x="837" y="-185" font-family="Helvetica,sans-Serif" font-size="10.00">psr::AliasInfoRef&lt;</text>
<text text-anchor="start" x="837" y="-174" font-family="Helvetica,sans-Serif" font-size="10.00"> const llvm::Value *,</text>
<text text-anchor="middle" x="903" y="-163" font-family="Helvetica,sans-Serif" font-size="10.00"> const llvm::Instruction * &gt;</text>
</a>
</g>
</g>
<!-- Node1&#45;&gt;Node3 -->
<g id="edge2_Node000001_Node000003" class="edge">
<title>Node1&#45;&gt;Node3</title>
<g id="a_edge2_Node000001_Node000003"><a xlink:title=" ">
<path fill="none" stroke="#63b8ff" d="M165.24,-151.01C167.86,-151.19 170.45,-151.35 173,-151.5 412.87,-165.76 697.66,-172.61 829,-175.21"/>
<polygon fill="#63b8ff" stroke="#63b8ff" points="165.28,-147.51 155.07,-150.31 164.8,-154.49 165.28,-147.51"/>
</a>
</g>
</g>
<!-- Node4 -->
<g id="Node000004" class="node">
<title>Node4</title>
<g id="a_Node000004"><a xlink:href="classpsr_1_1AnalysisPropertiesMixin.html" target="_top" xlink:title=" ">
<polygon fill="white" stroke="#666666" points="484,-234.5 329,-234.5 329,-204.5 484,-204.5 484,-234.5"/>
<text text-anchor="start" x="337" y="-222.5" font-family="Helvetica,sans-Serif" font-size="10.00">psr::AnalysisPropertiesMixin</text>
<text text-anchor="middle" x="406.5" y="-211.5" font-family="Helvetica,sans-Serif" font-size="10.00">&lt; AliasInfoRef&lt; V, N &gt; &gt;</text>
</a>
</g>
</g>
<!-- Node1&#45;&gt;Node4 -->
<g id="edge3_Node000001_Node000004" class="edge">
<title>Node1&#45;&gt;Node4</title>
<g id="a_edge3_Node000001_Node000004"><a xlink:title=" ">
<path fill="none" stroke="orange" stroke-dasharray="5,2" d="M122.83,-162.42C138.47,-168.55 156.31,-174.93 173,-179.5 224.16,-193.5 283.05,-203.57 328.77,-210.11"/>
<polygon fill="orange" stroke="orange" points="124,-159.12 113.41,-158.66 121.4,-165.62 124,-159.12"/>
</a>
</g>
<text text-anchor="start" x="182.5" y="-217.5" font-family="Helvetica,sans-Serif" font-size="10.00" fill="grey"> &lt; AliasInfoRef&lt; V,</text>
<text text-anchor="middle" x="230" y="-206.5" font-family="Helvetica,sans-Serif" font-size="10.00" fill="grey"> N &gt; &gt;</text>
</g>
<!-- Node7 -->
<g id="Node000007" class="node">
<title>Node7</title>
<g id="a_Node000007"><a xlink:href="classpsr_1_1AnalysisPropertiesMixin.html" target="_top" xlink:title=" ">
<polygon fill="white" stroke="#666666" points="485,-137.5 328,-137.5 328,-107.5 485,-107.5 485,-137.5"/>
<text text-anchor="start" x="336" y="-125.5" font-family="Helvetica,sans-Serif" font-size="10.00">psr::AnalysisPropertiesMixin</text>
<text text-anchor="middle" x="406.5" y="-114.5" font-family="Helvetica,sans-Serif" font-size="10.00">&lt; AliasInfoRef&lt; v_t, n_t &gt; &gt;</text>
</a>
</g>
</g>
<!-- Node1&#45;&gt;Node7 -->
<g id="edge8_Node000001_Node000007" class="edge">
<title>Node1&#45;&gt;Node7</title>
<g id="a_edge8_Node000001_Node000007"><a xlink:title=" ">
<path fill="none" stroke="orange" stroke-dasharray="5,2" d="M165.32,-130.24C167.91,-129.97 170.47,-129.72 173,-129.5 224.49,-124.93 282.61,-123.18 327.87,-122.57"/>
<polygon fill="orange" stroke="orange" points="164.81,-126.78 155.26,-131.36 165.58,-133.73 164.81,-126.78"/>
</a>
</g>
<text text-anchor="start" x="178.5" y="-143.5" font-family="Helvetica,sans-Serif" font-size="10.00" fill="grey"> &lt; AliasInfoRef&lt; v_t,</text>
<text text-anchor="middle" x="230" y="-132.5" font-family="Helvetica,sans-Serif" font-size="10.00" fill="grey"> n_t &gt; &gt;</text>
</g>
<!-- Node8 -->
<g id="Node000008" class="node">
<title>Node8</title>
<g id="a_Node000008"><a xlink:href="classpsr_1_1AnalysisPropertiesMixin.html" target="_top" xlink:title=" ">
<polygon fill="white" stroke="#666666" points="484,-89.5 329,-89.5 329,-59.5 484,-59.5 484,-89.5"/>
<text text-anchor="start" x="337" y="-77.5" font-family="Helvetica,sans-Serif" font-size="10.00">psr::AnalysisPropertiesMixin</text>
<text text-anchor="middle" x="406.5" y="-66.5" font-family="Helvetica,sans-Serif" font-size="10.00">&lt; LLVMAliasSet &gt;</text>
</a>
</g>
</g>
<!-- Node1&#45;&gt;Node8 -->
<g id="edge9_Node000001_Node000008" class="edge">
<title>Node1&#45;&gt;Node8</title>
<g id="a_edge9_Node000001_Node000008"><a xlink:title=" ">
<path fill="none" stroke="orange" stroke-dasharray="5,2" d="M123.21,-124.76C138.75,-118.83 156.44,-112.73 173,-108.5 224.19,-95.43 283.08,-86.89 328.79,-81.63"/>
<polygon fill="orange" stroke="orange" points="121.89,-121.51 113.84,-128.41 124.43,-128.04 121.89,-121.51"/>
</a>
</g>
<text text-anchor="middle" x="230" y="-111.5" font-family="Helvetica,sans-Serif" font-size="10.00" fill="grey"> &lt; LLVMAliasSet &gt;</text>
</g>
<!-- Node10 -->
<g id="Node000010" class="node">
<title>Node10</title>
<g id="a_Node000010"><a xlink:href="classpsr_1_1AnalysisPropertiesMixin.html" target="_top" xlink:title=" ">
<polygon fill="white" stroke="#666666" points="508,-41 305,-41 305,0 508,0 508,-41"/>
<text text-anchor="start" x="313" y="-29" font-family="Helvetica,sans-Serif" font-size="10.00">psr::AnalysisPropertiesMixin</text>
<text text-anchor="start" x="313" y="-18" font-family="Helvetica,sans-Serif" font-size="10.00">&lt; AliasInfoRef&lt; const llvm</text>
<text text-anchor="middle" x="406.5" y="-7" font-family="Helvetica,sans-Serif" font-size="10.00">::Value *, const llvm::Instruction * &gt; &gt;</text>
</a>
</g>
</g>
<!-- Node1&#45;&gt;Node10 -->
<g id="edge11_Node000001_Node000010" class="edge">
<title>Node1&#45;&gt;Node10</title>
<g id="a_edge11_Node000001_Node000010"><a xlink:title=" ">
<path fill="none" stroke="orange" stroke-dasharray="5,2" d="M94.7,-120.14C111.51,-97.94 139.94,-65.61 173,-49.5 213.41,-29.81 262.25,-21.72 304.72,-18.87"/>
<polygon fill="orange" stroke="orange" points="91.74,-118.26 88.64,-128.39 97.38,-122.41 91.74,-118.26"/>
</a>
</g>
<text text-anchor="start" x="173" y="-74.5" font-family="Helvetica,sans-Serif" font-size="10.00" fill="grey"> &lt; AliasInfoRef&lt; const</text>
<text text-anchor="start" x="173" y="-63.5" font-family="Helvetica,sans-Serif" font-size="10.00" fill="grey"> llvm::Value *, const</text>
<text text-anchor="middle" x="230" y="-52.5" font-family="Helvetica,sans-Serif" font-size="10.00" fill="grey"> llvm::Instruction * &gt; &gt;</text>
</g>
<!-- Node5 -->
<g id="Node000005" class="node">
<title>Node5</title>
<g id="a_Node000005"><a xlink:href="classpsr_1_1AliasInfoRef.html" target="_top" xlink:title="A type&#45;erased reference to any object implementing the IsAliasInfo interface. Use this,...">
<polygon fill="white" stroke="#666666" points="650,-245.5 545,-245.5 545,-215.5 650,-215.5 650,-245.5"/>
<text text-anchor="start" x="553" y="-233.5" font-family="Helvetica,sans-Serif" font-size="10.00">psr::AliasInfoRef&lt;</text>
<text text-anchor="middle" x="597.5" y="-222.5" font-family="Helvetica,sans-Serif" font-size="10.00"> V, N &gt;</text>
</a>
</g>
</g>
<!-- Node4&#45;&gt;Node5 -->
<g id="edge4_Node000004_Node000005" class="edge">
<title>Node4&#45;&gt;Node5</title>
<g id="a_edge4_Node000004_Node000005"><a xlink:title=" ">
<path fill="none" stroke="#63b8ff" d="M494.25,-224.55C511.59,-225.56 529.27,-226.59 544.95,-227.5"/>
<polygon fill="#63b8ff" stroke="#63b8ff" points="494.29,-221.05 484.1,-223.96 493.88,-228.03 494.29,-221.05"/>
</a>
</g>
</g>
<!-- Node5&#45;&gt;Node2 -->
<g id="edge6_Node000005_Node000002" class="edge">
<title>Node5&#45;&gt;Node2</title>
<g id="a_edge6_Node000005_Node000002"><a xlink:title=" ">
<path fill="none" stroke="orange" stroke-dasharray="5,2" d="M659.94,-244.88C662.66,-245.44 665.36,-245.98 668,-246.5 731.18,-258.84 747.58,-258.48 811,-269.5 823.67,-271.7 837.3,-274.19 850.07,-276.56"/>
<polygon fill="orange" stroke="orange" points="660.54,-241.43 650.03,-242.77 659.09,-248.27 660.54,-241.43"/>
</a>
</g>
<text text-anchor="middle" x="739.5" y="-272.5" font-family="Helvetica,sans-Serif" font-size="10.00" fill="grey"> &lt; v_t, n_t &gt;</text>
</g>
<!-- Node5&#45;&gt;Node3 -->
<g id="edge7_Node000005_Node000003" class="edge">
<title>Node5&#45;&gt;Node3</title>
<g id="a_edge7_Node000005_Node000003"><a xlink:title=" ">
<path fill="none" stroke="orange" stroke-dasharray="5,2" d="M645,-212.18C652.6,-209.64 660.46,-207.3 668,-205.5 721.06,-192.84 782.28,-185.5 828.79,-181.37"/>
<polygon fill="orange" stroke="orange" points="643.85,-208.87 635.55,-215.46 646.14,-215.48 643.85,-208.87"/>
</a>
</g>
<text text-anchor="start" x="668" y="-219.5" font-family="Helvetica,sans-Serif" font-size="10.00" fill="grey"> &lt; const llvm::Value</text>
<text text-anchor="middle" x="739.5" y="-208.5" font-family="Helvetica,sans-Serif" font-size="10.00" fill="grey"> *, const llvm::Instruction * &gt;</text>
</g>
<!-- Node6 -->
<g id="Node000006" class="node">
<title>Node6</title>
<g id="a_Node000006"><a xlink:href="classpsr_1_1AliasInfo.html" target="_top" xlink:title="Similar to AliasInfoRef, but exclusively owns the held reference. Use this, if you need to decide dyn...">
<polygon fill="white" stroke="#666666" points="964.5,-245 841.5,-245 841.5,-226 964.5,-226 964.5,-245"/>
<text text-anchor="middle" x="903" y="-233" font-family="Helvetica,sans-Serif" font-size="10.00">psr::AliasInfo&lt; V, N &gt;</text>
</a>
</g>
</g>
<!-- Node5&#45;&gt;Node6 -->
<g id="edge5_Node000005_Node000006" class="edge">
<title>Node5&#45;&gt;Node6</title>
<g id="a_edge5_Node000005_Node000006"><a xlink:title=" ">
<path fill="none" stroke="#63b8ff" d="M660.58,-231.52C713.39,-232.39 788.81,-233.64 841.24,-234.5"/>
<polygon fill="#63b8ff" stroke="#63b8ff" points="660.38,-228.02 650.33,-231.35 660.27,-235.02 660.38,-228.02"/>
</a>
</g>
</g>
<!-- Node9 -->
<g id="Node000009" class="node">
<title>Node9</title>
<g id="a_Node000009"><a xlink:href="classpsr_1_1LLVMAliasSet.html" target="_top" xlink:title=" ">
<polygon fill="white" stroke="#666666" points="649,-84 546,-84 546,-65 649,-65 649,-84"/>
<text text-anchor="middle" x="597.5" y="-72" font-family="Helvetica,sans-Serif" font-size="10.00">psr::LLVMAliasSet</text>
</a>
</g>
</g>
<!-- Node8&#45;&gt;Node9 -->
<g id="edge10_Node000008_Node000009" class="edge">
<title>Node8&#45;&gt;Node9</title>
<g id="a_edge10_Node000008_Node000009"><a xlink:title=" ">
<path fill="none" stroke="#63b8ff" d="M494.4,-74.5C512,-74.5 529.95,-74.5 545.79,-74.5"/>
<polygon fill="#63b8ff" stroke="#63b8ff" points="494.1,-71 484.1,-74.5 494.1,-78 494.1,-71"/>
</a>
</g>
</g>
</g>
</svg>
