<?xml version="1.0" encoding="UTF-8" standalone="no"?>
<!DOCTYPE svg PUBLIC "-//W3C//DTD SVG 1.1//EN"
 "http://www.w3.org/Graphics/SVG/1.1/DTD/svg11.dtd">
<!-- Generated by graphviz version 2.43.0 (0)
 -->
<!-- Title: psr::DenseTable1d&lt; K, V &gt; Pages: 1 -->
<svg width="505pt" height="255pt"
 viewBox="0.00 0.00 505.00 254.50" xmlns="http://www.w3.org/2000/svg" xmlns:xlink="http://www.w3.org/1999/xlink">
<g id="graph0" class="graph" transform="scale(1 1) rotate(0) translate(4 250.5)">
<title>psr::DenseTable1d&lt; K, V &gt;</title>
<!-- Node1 -->
<g id="Node000001" class="node">
<title>Node1</title>
<g id="a_Node000001"><a xlink:title=" ">
<polygon fill="#999999" stroke="#666666" points="114,-137.5 0,-137.5 0,-107.5 114,-107.5 114,-137.5"/>
<text text-anchor="start" x="8" y="-125.5" font-family="Helvetica,sans-Serif" font-size="10.00">psr::DenseTable1d&lt;</text>
<text text-anchor="middle" x="57" y="-114.5" font-family="Helvetica,sans-Serif" font-size="10.00"> K, V &gt;</text>
</a>
</g>
</g>
<!-- Node2 -->
<g id="Node000002" class="node">
<title>Node2</title>
<g id="a_Node000002"><a xlink:href="classpsr_1_1DenseTable1d.html" target="_top" xlink:title=" ">
<polygon fill="white" stroke="#666666" points="466.5,-246.5 351.5,-246.5 351.5,-216.5 466.5,-216.5 466.5,-246.5"/>
<text text-anchor="start" x="359.5" y="-234.5" font-family="Helvetica,sans-Serif" font-size="10.00">psr::DenseTable1d&lt;</text>
<text text-anchor="middle" x="409" y="-223.5" font-family="Helvetica,sans-Serif" font-size="10.00"> uint64_t, call_ff_t &gt;</text>
</a>
</g>
</g>
<!-- Node1&#45;&gt;Node2 -->
<g id="edge1_Node000001_Node000002" class="edge">
<title>Node1&#45;&gt;Node2</title>
<g id="a_edge1_Node000001_Node000002"><a xlink:title=" ">
<path fill="none" stroke="orange" stroke-dasharray="5,2" d="M73.55,-145.92C86.82,-163.82 107.59,-187.4 132,-199.5 201.79,-234.11 293.37,-237.79 351.47,-235.79"/>
<polygon fill="orange" stroke="orange" points="76.32,-143.78 67.66,-137.67 70.63,-147.84 76.32,-143.78"/>
</a>
</g>
<text text-anchor="middle" x="217.5" y="-238.5" font-family="Helvetica,sans-Serif" font-size="10.00" fill="grey"> &lt; uint64_t, call_ff_t &gt;</text>
</g>
<!-- Node3 -->
<g id="Node000003" class="node">
<title>Node3</title>
<g id="a_Node000003"><a xlink:href="classpsr_1_1DenseTable1d.html" target="_top" xlink:title=" ">
<polygon fill="white" stroke="#666666" points="470,-197 348,-197 348,-156 470,-156 470,-197"/>
<text text-anchor="start" x="356" y="-185" font-family="Helvetica,sans-Serif" font-size="10.00">psr::DenseTable1d&lt;</text>
<text text-anchor="start" x="356" y="-174" font-family="Helvetica,sans-Serif" font-size="10.00"> std::pair&lt; uint64_t,</text>
<text text-anchor="middle" x="409" y="-163" font-family="Helvetica,sans-Serif" font-size="10.00"> uint64_t &gt;, ctr_ff_t &gt;</text>
</a>
</g>
</g>
<!-- Node1&#45;&gt;Node3 -->
<g id="edge2_Node000001_Node000003" class="edge">
<title>Node1&#45;&gt;Node3</title>
<g id="a_edge2_Node000001_Node000003"><a xlink:title=" ">
<path fill="none" stroke="orange" stroke-dasharray="5,2" d="M123.97,-136.08C126.68,-136.57 129.37,-137.05 132,-137.5 206.04,-150.22 291.79,-161.86 347.81,-169.05"/>
<polygon fill="orange" stroke="orange" points="124.57,-132.63 114.1,-134.24 123.28,-139.51 124.57,-132.63"/>
</a>
</g>
<text text-anchor="start" x="169" y="-187.5" font-family="Helvetica,sans-Serif" font-size="10.00" fill="grey"> &lt; std::pair&lt; uint64</text>
<text text-anchor="start" x="169" y="-176.5" font-family="Helvetica,sans-Serif" font-size="10.00" fill="grey">_t, uint64_t &gt;, ctr</text>
<text text-anchor="middle" x="217.5" y="-165.5" font-family="Helvetica,sans-Serif" font-size="10.00" fill="grey">_ff_t &gt;</text>
</g>
<!-- Node4 -->
<g id="Node000004" class="node">
<title>Node4</title>
<g id="a_Node000004"><a xlink:href="classpsr_1_1DenseTable1d.html" target="_top" xlink:title=" ">
<polygon fill="white" stroke="#666666" points="466,-137.5 352,-137.5 352,-107.5 466,-107.5 466,-137.5"/>
<text text-anchor="start" x="360" y="-125.5" font-family="Helvetica,sans-Serif" font-size="10.00">psr::DenseTable1d&lt;</text>
<text text-anchor="middle" x="409" y="-114.5" font-family="Helvetica,sans-Serif" font-size="10.00"> uint64_t, ctr_ff_t &gt;</text>
</a>
</g>
</g>
<!-- Node1&#45;&gt;Node4 -->
<g id="edge3_Node000001_Node000004" class="edge">
<title>Node1&#45;&gt;Node4</title>
<g id="a_edge3_Node000001_Node000004"><a xlink:title=" ">
<path fill="none" stroke="orange" stroke-dasharray="5,2" d="M124.5,-122.5C190.32,-122.5 289.97,-122.5 351.91,-122.5"/>
<polygon fill="orange" stroke="orange" points="124.23,-119 114.23,-122.5 124.23,-126 124.23,-119"/>
</a>
</g>
<text text-anchor="middle" x="217.5" y="-125.5" font-family="Helvetica,sans-Serif" font-size="10.00" fill="grey"> &lt; uint64_t, ctr_ff_t &gt;</text>
</g>
<!-- Node5 -->
<g id="Node000005" class="node">
<title>Node5</title>
<g id="a_Node000005"><a xlink:href="classpsr_1_1DenseTable1d.html" target="_top" xlink:title=" ">
<polygon fill="white" stroke="#666666" points="481,-89.5 337,-89.5 337,-59.5 481,-59.5 481,-89.5"/>
<text text-anchor="start" x="345" y="-77.5" font-family="Helvetica,sans-Serif" font-size="10.00">psr::DenseTable1d&lt;</text>
<text text-anchor="middle" x="409" y="-66.5" font-family="Helvetica,sans-Serif" font-size="10.00"> uint64_t, summary_ff_t &gt;</text>
</a>
</g>
</g>
<!-- Node1&#45;&gt;Node5 -->
<g id="edge4_Node000001_Node000005" class="edge">
<title>Node1&#45;&gt;Node5</title>
<g id="a_edge4_Node000001_Node000005"><a xlink:title=" ">
<path fill="none" stroke="orange" stroke-dasharray="5,2" d="M104.34,-104.17C113.39,-101.18 122.9,-98.43 132,-96.5 200.66,-81.96 280.77,-76.85 336.95,-75.14"/>
<polygon fill="orange" stroke="orange" points="103.04,-100.92 94.73,-107.49 105.32,-107.53 103.04,-100.92"/>
</a>
</g>
<text text-anchor="start" x="164" y="-110.5" font-family="Helvetica,sans-Serif" font-size="10.00" fill="grey"> &lt; uint64_t, summary</text>
<text text-anchor="middle" x="217.5" y="-99.5" font-family="Helvetica,sans-Serif" font-size="10.00" fill="grey">_ff_t &gt;</text>
</g>
<!-- Node6 -->
<g id="Node000006" class="node">
<title>Node6</title>
<g id="a_Node000006"><a xlink:href="classpsr_1_1DenseTable1d.html" target="_top" xlink:title=" ">
<polygon fill="white" stroke="#666666" points="497,-41 321,-41 321,0 497,0 497,-41"/>
<text text-anchor="start" x="329" y="-29" font-family="Helvetica,sans-Serif" font-size="10.00">psr::DenseTable1d&lt;</text>
<text text-anchor="start" x="329" y="-18" font-family="Helvetica,sans-Serif" font-size="10.00"> uint64_t, const InterPropagation</text>
<text text-anchor="middle" x="409" y="-7" font-family="Helvetica,sans-Serif" font-size="10.00">Job * &gt;</text>
</a>
</g>
</g>
<!-- Node1&#45;&gt;Node6 -->
<g id="edge5_Node000001_Node000006" class="edge">
<title>Node1&#45;&gt;Node6</title>
<g id="a_edge5_Node000001_Node000006"><a xlink:title=" ">
<path fill="none" stroke="orange" stroke-dasharray="5,2" d="M74.95,-99.2C88.42,-82.62 108.8,-61.42 132,-50.5 190.87,-22.79 264.4,-15.96 320.77,-15.7"/>
<polygon fill="orange" stroke="orange" points="71.97,-97.34 68.56,-107.37 77.48,-101.65 71.97,-97.34"/>
</a>
</g>
<text text-anchor="start" x="132" y="-64.5" font-family="Helvetica,sans-Serif" font-size="10.00" fill="grey"> &lt; uint64_t, const InterPropagation</text>
<text text-anchor="middle" x="217.5" y="-53.5" font-family="Helvetica,sans-Serif" font-size="10.00" fill="grey">Job * &gt;</text>
</g>
</g>
</svg>
