<?xml version="1.0" encoding="UTF-8" standalone="no"?>
<!DOCTYPE svg PUBLIC "-//W3C//DTD SVG 1.1//EN"
 "http://www.w3.org/Graphics/SVG/1.1/DTD/svg11.dtd">
<!-- Generated by graphviz version 2.43.0 (0)
 -->
<!-- Title: psr::TypeHierarchy&lt; T, F &gt; Pages: 1 -->
<svg width="618pt" height="157pt"
 viewBox="0.00 0.00 618.00 157.00" xmlns="http://www.w3.org/2000/svg" xmlns:xlink="http://www.w3.org/1999/xlink">
<g id="graph0" class="graph" transform="scale(1 1) rotate(0) translate(4 153)">
<title>psr::TypeHierarchy&lt; T, F &gt;</title>
<!-- Node1 -->
<g id="Node000001" class="node">
<title>Node1</title>
<g id="a_Node000001"><a xlink:title=" ">
<polygon fill="#999999" stroke="#666666" points="107,-89.5 0,-89.5 0,-59.5 107,-59.5 107,-89.5"/>
<text text-anchor="start" x="8" y="-77.5" font-family="Helvetica,sans-Serif" font-size="10.00">psr::TypeHierarchy</text>
<text text-anchor="middle" x="53.5" y="-66.5" font-family="Helvetica,sans-Serif" font-size="10.00">&lt; T, F &gt;</text>
</a>
</g>
</g>
<!-- Node2 -->
<g id="Node000002" class="node">
<title>Node2</title>
<g id="a_Node000002"><a xlink:href="classpsr_1_1TypeHierarchy.html" target="_top" xlink:title=" ">
<polygon fill="white" stroke="#666666" points="425,-149 276,-149 276,-108 425,-108 425,-149"/>
<text text-anchor="start" x="284" y="-137" font-family="Helvetica,sans-Serif" font-size="10.00">psr::TypeHierarchy</text>
<text text-anchor="start" x="284" y="-126" font-family="Helvetica,sans-Serif" font-size="10.00">&lt; const llvm::DIType</text>
<text text-anchor="middle" x="350.5" y="-115" font-family="Helvetica,sans-Serif" font-size="10.00"> *, const llvm::Function * &gt;</text>
</a>
</g>
</g>
<!-- Node1&#45;&gt;Node2 -->
<g id="edge1_Node000001_Node000002" class="edge">
<title>Node1&#45;&gt;Node2</title>
<g id="a_edge1_Node000001_Node000002"><a xlink:title=" ">
<path fill="none" stroke="orange" stroke-dasharray="5,2" d="M117.02,-87.93C119.71,-88.47 122.38,-88.99 125,-89.5 175.2,-99.2 231.94,-109.04 275.81,-116.42"/>
<polygon fill="orange" stroke="orange" points="117.69,-84.5 107.2,-85.94 116.3,-91.36 117.69,-84.5"/>
</a>
</g>
<text text-anchor="start" x="125" y="-126.5" font-family="Helvetica,sans-Serif" font-size="10.00" fill="grey"> &lt; const llvm::DIType</text>
<text text-anchor="middle" x="191.5" y="-115.5" font-family="Helvetica,sans-Serif" font-size="10.00" fill="grey"> *, const llvm::Function * &gt;</text>
</g>
<!-- Node4 -->
<g id="Node000004" class="node">
<title>Node4</title>
<g id="a_Node000004"><a xlink:href="classpsr_1_1TypeHierarchy.html" target="_top" xlink:title=" ">
<polygon fill="white" stroke="#666666" points="404,-89.5 297,-89.5 297,-59.5 404,-59.5 404,-89.5"/>
<text text-anchor="start" x="305" y="-77.5" font-family="Helvetica,sans-Serif" font-size="10.00">psr::TypeHierarchy</text>
<text text-anchor="middle" x="350.5" y="-66.5" font-family="Helvetica,sans-Serif" font-size="10.00">&lt; t_t, f_t &gt;</text>
</a>
</g>
</g>
<!-- Node1&#45;&gt;Node4 -->
<g id="edge3_Node000001_Node000004" class="edge">
<title>Node1&#45;&gt;Node4</title>
<g id="a_edge3_Node000001_Node000004"><a xlink:title=" ">
<path fill="none" stroke="orange" stroke-dasharray="5,2" d="M117.27,-74.5C170.64,-74.5 246.42,-74.5 296.72,-74.5"/>
<polygon fill="orange" stroke="orange" points="117.24,-71 107.24,-74.5 117.24,-78 117.24,-71"/>
</a>
</g>
<text text-anchor="middle" x="191.5" y="-77.5" font-family="Helvetica,sans-Serif" font-size="10.00" fill="grey"> &lt; t_t, f_t &gt;</text>
</g>
<!-- Node5 -->
<g id="Node000005" class="node">
<title>Node5</title>
<g id="a_Node000005"><a xlink:href="classpsr_1_1TypeHierarchy.html" target="_top" xlink:title=" ">
<polygon fill="white" stroke="#666666" points="425,-41 276,-41 276,0 425,0 425,-41"/>
<text text-anchor="start" x="284" y="-29" font-family="Helvetica,sans-Serif" font-size="10.00">psr::TypeHierarchy</text>
<text text-anchor="start" x="284" y="-18" font-family="Helvetica,sans-Serif" font-size="10.00">&lt; const llvm::StructType</text>
<text text-anchor="middle" x="350.5" y="-7" font-family="Helvetica,sans-Serif" font-size="10.00"> *, const llvm::Function * &gt;</text>
</a>
</g>
</g>
<!-- Node1&#45;&gt;Node5 -->
<g id="edge4_Node000001_Node000005" class="edge">
<title>Node1&#45;&gt;Node5</title>
<g id="a_edge4_Node000001_Node000005"><a xlink:title=" ">
<path fill="none" stroke="orange" stroke-dasharray="5,2" d="M100.03,-55.98C108.24,-53.14 116.8,-50.5 125,-48.5 174.61,-36.43 231.73,-29.4 275.94,-25.4"/>
<polygon fill="orange" stroke="orange" points="98.82,-52.7 90.6,-59.38 101.19,-59.29 98.82,-52.7"/>
</a>
</g>
<text text-anchor="start" x="125" y="-62.5" font-family="Helvetica,sans-Serif" font-size="10.00" fill="grey"> &lt; const llvm::StructType</text>
<text text-anchor="middle" x="191.5" y="-51.5" font-family="Helvetica,sans-Serif" font-size="10.00" fill="grey"> *, const llvm::Function * &gt;</text>
</g>
<!-- Node3 -->
<g id="Node000003" class="node">
<title>Node3</title>
<g id="a_Node000003"><a xlink:href="classpsr_1_1DIBasedTypeHierarchy.html" target="_top" xlink:title="Represents the type hierarchy of the target program.">
<polygon fill="white" stroke="#666666" points="610,-138 462,-138 462,-119 610,-119 610,-138"/>
<text text-anchor="middle" x="536" y="-126" font-family="Helvetica,sans-Serif" font-size="10.00">psr::DIBasedTypeHierarchy</text>
</a>
</g>
</g>
<!-- Node2&#45;&gt;Node3 -->
<g id="edge2_Node000002_Node000003" class="edge">
<title>Node2&#45;&gt;Node3</title>
<g id="a_edge2_Node000002_Node000003"><a xlink:title=" ">
<path fill="none" stroke="#63b8ff" d="M435.34,-128.5C444.14,-128.5 453.04,-128.5 461.7,-128.5"/>
<polygon fill="#63b8ff" stroke="#63b8ff" points="435.08,-125 425.08,-128.5 435.08,-132 435.08,-125"/>
</a>
</g>
</g>
<!-- Node6 -->
<g id="Node000006" class="node">
<title>Node6</title>
<g id="a_Node000006"><a xlink:href="classpsr_1_1LLVMTypeHierarchy.html" target="_top" xlink:title="Owns the class hierarchy of the analyzed program.">
<polygon fill="white" stroke="#666666" points="602.5,-30 469.5,-30 469.5,-11 602.5,-11 602.5,-30"/>
<text text-anchor="middle" x="536" y="-18" font-family="Helvetica,sans-Serif" font-size="10.00">psr::LLVMTypeHierarchy</text>
</a>
</g>
</g>
<!-- Node5&#45;&gt;Node6 -->
<g id="edge5_Node000005_Node000006" class="edge">
<title>Node5&#45;&gt;Node6</title>
<g id="a_edge5_Node000005_Node000006"><a xlink:title=" ">
<path fill="none" stroke="#63b8ff" d="M435.12,-20.5C446.62,-20.5 458.29,-20.5 469.41,-20.5"/>
<polygon fill="#63b8ff" stroke="#63b8ff" points="435.08,-17 425.08,-20.5 435.08,-24 435.08,-17"/>
</a>
</g>
</g>
</g>
</svg>
