<?xml version="1.0" encoding="UTF-8" standalone="no"?>
<!DOCTYPE svg PUBLIC "-//W3C//DTD SVG 1.1//EN"
 "http://www.w3.org/Graphics/SVG/1.1/DTD/svg11.dtd">
<!-- Generated by graphviz version 2.43.0 (0)
 -->
<!-- Title: psr::InterMonoSolverTest Pages: 1 -->
<svg width="854pt" height="86pt"
 viewBox="0.00 0.00 854.00 86.00" xmlns="http://www.w3.org/2000/svg" xmlns:xlink="http://www.w3.org/1999/xlink">
<g id="graph0" class="graph" transform="scale(1 1) rotate(0) translate(4 82)">
<title>psr::InterMonoSolverTest</title>
<!-- Node1 -->
<g id="Node000001" class="node">
<title>Node1</title>
<g id="a_Node000001"><a xlink:title=" ">
<polygon fill="#999999" stroke="#666666" points="846,-48.5 709,-48.5 709,-29.5 846,-29.5 846,-48.5"/>
<text text-anchor="middle" x="777.5" y="-36.5" font-family="Helvetica,sans-Serif" font-size="10.00">psr::InterMonoSolverTest</text>
</a>
</g>
</g>
<!-- Node2 -->
<g id="Node000002" class="node">
<title>Node2</title>
<g id="a_Node000002"><a xlink:href="classpsr_1_1InterMonoProblem.html" target="_top" xlink:title=" ">
<polygon fill="white" stroke="#666666" points="672,-54 495,-54 495,-24 672,-24 672,-54"/>
<text text-anchor="start" x="503" y="-42" font-family="Helvetica,sans-Serif" font-size="10.00">psr::InterMonoProblem</text>
<text text-anchor="middle" x="583.5" y="-31" font-family="Helvetica,sans-Serif" font-size="10.00">&lt; InterMonoSolverTestDomain &gt;</text>
</a>
</g>
</g>
<!-- Node2&#45;&gt;Node1 -->
<g id="edge1_Node000001_Node000002" class="edge">
<title>Node2&#45;&gt;Node1</title>
<g id="a_edge1_Node000001_Node000002"><a xlink:title=" ">
<path fill="none" stroke="#63b8ff" d="M682.24,-39C691.25,-39 700.24,-39 708.9,-39"/>
<polygon fill="#63b8ff" stroke="#63b8ff" points="682.07,-35.5 672.07,-39 682.07,-42.5 682.07,-35.5"/>
</a>
</g>
</g>
<!-- Node3 -->
<g id="Node000003" class="node">
<title>Node3</title>
<g id="a_Node000003"><a xlink:href="classpsr_1_1IntraMonoProblem.html" target="_top" xlink:title="The analysis problem interface for intraprocedural monotone problems (solvable by the IntraMonoSolver...">
<polygon fill="white" stroke="#666666" points="295,-78 166,-78 166,-48 295,-48 295,-78"/>
<text text-anchor="start" x="174" y="-66" font-family="Helvetica,sans-Serif" font-size="10.00">psr::IntraMonoProblem</text>
<text text-anchor="middle" x="230.5" y="-55" font-family="Helvetica,sans-Serif" font-size="10.00">&lt; AnalysisDomainTy &gt;</text>
</a>
</g>
</g>
<!-- Node3&#45;&gt;Node2 -->
<g id="edge2_Node000002_Node000003" class="edge">
<title>Node3&#45;&gt;Node2</title>
<g id="a_edge2_Node000002_Node000003"><a xlink:title=" ">
<path fill="none" stroke="#63b8ff" d="M305.15,-57.96C360.5,-54.18 436.53,-48.98 494.99,-44.98"/>
<polygon fill="#63b8ff" stroke="#63b8ff" points="304.8,-54.48 295.06,-58.65 305.28,-61.46 304.8,-54.48"/>
</a>
</g>
</g>
<!-- Node4 -->
<g id="Node000004" class="node">
<title>Node4</title>
<g id="a_Node000004"><a xlink:href="classpsr_1_1InterMonoProblem.html" target="_top" xlink:title="The analysis problem interface for interprocedural monotone problems (solvable by the InterMonoSolver...">
<polygon fill="white" stroke="#666666" points="295,-30 166,-30 166,0 295,0 295,-30"/>
<text text-anchor="start" x="174" y="-18" font-family="Helvetica,sans-Serif" font-size="10.00">psr::InterMonoProblem</text>
<text text-anchor="middle" x="230.5" y="-7" font-family="Helvetica,sans-Serif" font-size="10.00">&lt; AnalysisDomainTy &gt;</text>
</a>
</g>
</g>
<!-- Node4&#45;&gt;Node2 -->
<g id="edge3_Node000002_Node000004" class="edge">
<title>Node4&#45;&gt;Node2</title>
<g id="a_edge3_Node000002_Node000004"><a xlink:title=" ">
<path fill="none" stroke="orange" stroke-dasharray="5,2" d="M305.24,-19.6C354,-22.69 419.32,-26.93 477,-31 482.77,-31.41 488.72,-31.83 494.72,-32.27"/>
<polygon fill="orange" stroke="orange" points="305.3,-16.1 295.1,-18.96 304.85,-23.08 305.3,-16.1"/>
</a>
</g>
<text text-anchor="middle" x="395" y="-34" font-family="Helvetica,sans-Serif" font-size="10.00" fill="grey"> &lt; InterMonoSolverTestDomain &gt;</text>
</g>
<!-- Node5 -->
<g id="Node000005" class="node">
<title>Node5</title>
<g id="a_Node000005"><a xlink:href="classpsr_1_1IntraMonoProblem.html" target="_top" xlink:title="The analysis problem interface for intraprocedural monotone problems (solvable by the IntraMonoSolver...">
<polygon fill="white" stroke="#666666" points="129,-30 0,-30 0,0 129,0 129,-30"/>
<text text-anchor="start" x="8" y="-18" font-family="Helvetica,sans-Serif" font-size="10.00">psr::IntraMonoProblem</text>
<text text-anchor="middle" x="64.5" y="-7" font-family="Helvetica,sans-Serif" font-size="10.00">&lt; AnalysisDomainTy &gt;</text>
</a>
</g>
</g>
<!-- Node5&#45;&gt;Node4 -->
<g id="edge4_Node000004_Node000005" class="edge">
<title>Node5&#45;&gt;Node4</title>
<g id="a_edge4_Node000004_Node000005"><a xlink:title=" ">
<path fill="none" stroke="#63b8ff" d="M139.57,-15C148.33,-15 157.2,-15 165.8,-15"/>
<polygon fill="#63b8ff" stroke="#63b8ff" points="139.38,-11.5 129.38,-15 139.38,-18.5 139.38,-11.5"/>
</a>
</g>
</g>
</g>
</svg>
