<?xml version="1.0" encoding="UTF-8" standalone="no"?>
<!DOCTYPE svg PUBLIC "-//W3C//DTD SVG 1.1//EN"
 "http://www.w3.org/Graphics/SVG/1.1/DTD/svg11.dtd">
<!-- Generated by graphviz version 2.43.0 (0)
 -->
<!-- Title: psr::CFGBase&lt; Derived &gt; Pages: 1 -->
<svg width="1667pt" height="354pt"
 viewBox="0.00 0.00 1667.00 353.57" xmlns="http://www.w3.org/2000/svg" xmlns:xlink="http://www.w3.org/1999/xlink">
<g id="graph0" class="graph" transform="scale(1 1) rotate(0) translate(4 349.57)">
<title>psr::CFGBase&lt; Derived &gt;</title>
<!-- Node1 -->
<g id="Node000001" class="node">
<title>Node1</title>
<g id="a_Node000001"><a xlink:title=" ">
<polygon fill="#999999" stroke="#666666" points="327,-174.5 184,-174.5 184,-155.5 327,-155.5 327,-174.5"/>
<text text-anchor="middle" x="255.5" y="-162.5" font-family="Helvetica,sans-Serif" font-size="10.00">psr::CFGBase&lt; Derived &gt;</text>
</a>
</g>
</g>
<!-- Node3 -->
<g id="Node000003" class="node">
<title>Node3</title>
<g id="a_Node000003"><a xlink:href="classpsr_1_1SparseCFGBase.html" target="_top" xlink:title=" ">
<polygon fill="white" stroke="#666666" points="1054.5,-300 906.5,-300 906.5,-270 1054.5,-270 1054.5,-300"/>
<text text-anchor="start" x="914.5" y="-288" font-family="Helvetica,sans-Serif" font-size="10.00">psr::SparseCFGBase</text>
<text text-anchor="middle" x="980.5" y="-277" font-family="Helvetica,sans-Serif" font-size="10.00">&lt; SparseLLVMBasedCFG &gt;</text>
</a>
</g>
</g>
<!-- Node1&#45;&gt;Node3 -->
<g id="edge2_Node000001_Node000003" class="edge">
<title>Node1&#45;&gt;Node3</title>
<g id="a_edge2_Node000001_Node000003"><a xlink:title=" ">
<path fill="none" stroke="#63b8ff" d="M265.02,-183.88C278.1,-210.44 305.78,-258.15 345,-281 536.08,-392.33 817.65,-331.51 930.29,-300.08"/>
<polygon fill="#63b8ff" stroke="#63b8ff" points="268.04,-182.07 260.6,-174.53 261.71,-185.06 268.04,-182.07"/>
</a>
</g>
</g>
<!-- Node5 -->
<g id="Node000005" class="node">
<title>Node5</title>
<g id="a_Node000005"><a xlink:title=" ">
<polygon fill="white" stroke="#666666" points="1065,-170 896,-170 896,-140 1065,-140 1065,-170"/>
<text text-anchor="start" x="904" y="-158" font-family="Helvetica,sans-Serif" font-size="10.00">psr::detail::LLVMBasedCFGImpl</text>
<text text-anchor="middle" x="980.5" y="-147" font-family="Helvetica,sans-Serif" font-size="10.00">&lt; LLVMBasedBackwardCFG &gt;</text>
</a>
</g>
</g>
<!-- Node1&#45;&gt;Node5 -->
<g id="edge4_Node000001_Node000005" class="edge">
<title>Node1&#45;&gt;Node5</title>
<g id="a_edge4_Node000001_Node000005"><a xlink:title=" ">
<path fill="none" stroke="#63b8ff" d="M337.24,-163.88C475.4,-161.97 755.75,-158.09 895.87,-156.16"/>
<polygon fill="#63b8ff" stroke="#63b8ff" points="337.09,-160.38 327.14,-164.02 337.19,-167.38 337.09,-160.38"/>
</a>
</g>
</g>
<!-- Node8 -->
<g id="Node000008" class="node">
<title>Node8</title>
<g id="a_Node000008"><a xlink:title=" ">
<polygon fill="white" stroke="#666666" points="1065,-250 896,-250 896,-220 1065,-220 1065,-250"/>
<text text-anchor="start" x="904" y="-238" font-family="Helvetica,sans-Serif" font-size="10.00">psr::detail::LLVMBasedCFGImpl</text>
<text text-anchor="middle" x="980.5" y="-227" font-family="Helvetica,sans-Serif" font-size="10.00">&lt; LLVMBasedCFG &gt;</text>
</a>
</g>
</g>
<!-- Node1&#45;&gt;Node8 -->
<g id="edge7_Node000001_Node000008" class="edge">
<title>Node1&#45;&gt;Node8</title>
<g id="a_edge7_Node000001_Node000008"><a xlink:title=" ">
<path fill="none" stroke="#63b8ff" d="M295.76,-177.47C311.01,-181.94 328.7,-186.7 345,-190 539.55,-229.4 773.71,-235.66 895.94,-235.89"/>
<polygon fill="#63b8ff" stroke="#63b8ff" points="296.71,-174.1 286.13,-174.58 294.7,-180.8 296.71,-174.1"/>
</a>
</g>
</g>
<!-- Node13 -->
<g id="Node000013" class="node">
<title>Node13</title>
<g id="a_Node000013"><a xlink:href="classpsr_1_1SparseCFGBase.html" target="_top" xlink:title=" ">
<polygon fill="white" stroke="#666666" points="669,-295 554,-295 554,-265 669,-265 669,-295"/>
<text text-anchor="start" x="562" y="-283" font-family="Helvetica,sans-Serif" font-size="10.00">psr::SparseCFGBase</text>
<text text-anchor="middle" x="611.5" y="-272" font-family="Helvetica,sans-Serif" font-size="10.00">&lt; Derived &gt;</text>
</a>
</g>
</g>
<!-- Node1&#45;&gt;Node13 -->
<g id="edge13_Node000001_Node000013" class="edge">
<title>Node1&#45;&gt;Node13</title>
<g id="a_edge13_Node000001_Node000013"><a xlink:title=" ">
<path fill="none" stroke="#63b8ff" d="M268.87,-182.71C284.17,-203.04 312.24,-235.58 345,-251 411.7,-282.4 497.97,-285.98 553.76,-284.19"/>
<polygon fill="#63b8ff" stroke="#63b8ff" points="271.66,-180.59 262.94,-174.57 266,-184.72 271.66,-180.59"/>
</a>
</g>
</g>
<!-- Node14 -->
<g id="Node000014" class="node">
<title>Node14</title>
<g id="a_Node000014"><a xlink:title=" ">
<polygon fill="white" stroke="#666666" points="696,-202 527,-202 527,-172 696,-172 696,-202"/>
<text text-anchor="start" x="535" y="-190" font-family="Helvetica,sans-Serif" font-size="10.00">psr::detail::LLVMBasedCFGImpl</text>
<text text-anchor="middle" x="611.5" y="-179" font-family="Helvetica,sans-Serif" font-size="10.00">&lt; Derived &gt;</text>
</a>
</g>
</g>
<!-- Node1&#45;&gt;Node14 -->
<g id="edge15_Node000001_Node000014" class="edge">
<title>Node1&#45;&gt;Node14</title>
<g id="a_edge15_Node000001_Node000014"><a xlink:title=" ">
<path fill="none" stroke="#63b8ff" d="M337.28,-170.02C393.93,-173.54 469.47,-178.24 526.76,-181.8"/>
<polygon fill="#63b8ff" stroke="#63b8ff" points="337.48,-166.53 327.29,-169.4 337.05,-173.51 337.48,-166.53"/>
</a>
</g>
</g>
<!-- Node15 -->
<g id="Node000015" class="node">
<title>Node15</title>
<g id="a_Node000015"><a xlink:href="classpsr_1_1CFGBase.html" target="_top" xlink:title=" ">
<polygon fill="white" stroke="#666666" points="710,-116 513,-116 513,-86 710,-86 710,-116"/>
<text text-anchor="start" x="521" y="-104" font-family="Helvetica,sans-Serif" font-size="10.00">psr::CFGBase&lt; LLVMBasedBackward</text>
<text text-anchor="middle" x="611.5" y="-93" font-family="Helvetica,sans-Serif" font-size="10.00">CFG &gt;</text>
</a>
</g>
</g>
<!-- Node1&#45;&gt;Node15 -->
<g id="edge18_Node000001_Node000015" class="edge">
<title>Node1&#45;&gt;Node15</title>
<g id="a_edge18_Node000001_Node000015"><a xlink:title=" ">
<path fill="none" stroke="orange" stroke-dasharray="5,2" d="M279.22,-149.84C296.48,-139.18 321.23,-125.67 345,-119 399.16,-103.81 461.85,-98.99 512.72,-98.12"/>
<polygon fill="orange" stroke="orange" points="277.02,-147.09 270.45,-155.41 280.77,-153 277.02,-147.09"/>
</a>
</g>
<text text-anchor="middle" x="420" y="-122" font-family="Helvetica,sans-Serif" font-size="10.00" fill="grey"> &lt; LLVMBasedBackwardCFG &gt;</text>
</g>
<!-- Node16 -->
<g id="Node000016" class="node">
<title>Node16</title>
<g id="a_Node000016"><a xlink:href="classpsr_1_1CFGBase.html" target="_top" xlink:title=" ">
<polygon fill="white" stroke="#666666" points="701.5,-67.5 521.5,-67.5 521.5,-48.5 701.5,-48.5 701.5,-67.5"/>
<text text-anchor="middle" x="611.5" y="-55.5" font-family="Helvetica,sans-Serif" font-size="10.00">psr::CFGBase&lt; LLVMBasedCFG &gt;</text>
</a>
</g>
</g>
<!-- Node1&#45;&gt;Node16 -->
<g id="edge19_Node000001_Node000016" class="edge">
<title>Node1&#45;&gt;Node16</title>
<g id="a_edge19_Node000001_Node000016"><a xlink:title=" ">
<path fill="none" stroke="orange" stroke-dasharray="5,2" d="M269.77,-147.4C285.42,-128.14 313.33,-98.12 345,-84 400.2,-59.39 468.12,-53.11 521.44,-52.87"/>
<polygon fill="orange" stroke="orange" points="266.91,-145.37 263.48,-155.4 272.41,-149.7 266.91,-145.37"/>
</a>
</g>
<text text-anchor="middle" x="420" y="-87" font-family="Helvetica,sans-Serif" font-size="10.00" fill="grey"> &lt; LLVMBasedCFG &gt;</text>
</g>
<!-- Node17 -->
<g id="Node000017" class="node">
<title>Node17</title>
<g id="a_Node000017"><a xlink:href="classpsr_1_1CFGBase.html" target="_top" xlink:title=" ">
<polygon fill="white" stroke="#666666" points="702.5,-30 520.5,-30 520.5,0 702.5,0 702.5,-30"/>
<text text-anchor="start" x="528.5" y="-18" font-family="Helvetica,sans-Serif" font-size="10.00">psr::CFGBase&lt; SparseLLVMBased</text>
<text text-anchor="middle" x="611.5" y="-7" font-family="Helvetica,sans-Serif" font-size="10.00">CFG &gt;</text>
</a>
</g>
</g>
<!-- Node1&#45;&gt;Node17 -->
<g id="edge20_Node000001_Node000017" class="edge">
<title>Node1&#45;&gt;Node17</title>
<g id="a_edge20_Node000001_Node000017"><a xlink:title=" ">
<path fill="none" stroke="orange" stroke-dasharray="5,2" d="M263.74,-145.88C275.75,-117.1 302.75,-63.43 345,-39 397.58,-8.59 466.04,-3.05 520.27,-4.88"/>
<polygon fill="orange" stroke="orange" points="260.45,-144.67 259.99,-155.26 266.95,-147.27 260.45,-144.67"/>
</a>
</g>
<text text-anchor="middle" x="420" y="-42" font-family="Helvetica,sans-Serif" font-size="10.00" fill="grey"> &lt; SparseLLVMBasedCFG &gt;</text>
</g>
<!-- Node2 -->
<g id="Node000002" class="node">
<title>Node2</title>
<g id="a_Node000002"><a xlink:href="classpsr_1_1CRTPBase.html" target="_top" xlink:title=" ">
<polygon fill="white" stroke="#666666" points="147,-174.5 0,-174.5 0,-155.5 147,-155.5 147,-174.5"/>
<text text-anchor="middle" x="73.5" y="-162.5" font-family="Helvetica,sans-Serif" font-size="10.00">psr::CRTPBase&lt; Derived &gt;</text>
</a>
</g>
</g>
<!-- Node2&#45;&gt;Node1 -->
<g id="edge1_Node000001_Node000002" class="edge">
<title>Node2&#45;&gt;Node1</title>
<g id="a_edge1_Node000001_Node000002"><a xlink:title=" ">
<path fill="none" stroke="#63b8ff" d="M157.2,-165C166.11,-165 175.12,-165 183.87,-165"/>
<polygon fill="#63b8ff" stroke="#63b8ff" points="157.19,-161.5 147.19,-165 157.19,-168.5 157.19,-161.5"/>
</a>
</g>
</g>
<!-- Node4 -->
<g id="Node000004" class="node">
<title>Node4</title>
<g id="a_Node000004"><a xlink:href="classpsr_1_1SparseLLVMBasedCFG.html" target="_top" xlink:title="A class that implements a sparse control flow graph. Conforms to the CFGBase CRTP interface.">
<polygon fill="white" stroke="#666666" points="1459.5,-291.5 1313.5,-291.5 1313.5,-272.5 1459.5,-272.5 1459.5,-291.5"/>
<text text-anchor="middle" x="1386.5" y="-279.5" font-family="Helvetica,sans-Serif" font-size="10.00">psr::SparseLLVMBasedCFG</text>
</a>
</g>
</g>
<!-- Node3&#45;&gt;Node4 -->
<g id="edge3_Node000003_Node000004" class="edge">
<title>Node3&#45;&gt;Node4</title>
<g id="a_edge3_Node000003_Node000004"><a xlink:title=" ">
<path fill="none" stroke="#63b8ff" d="M1064.77,-284.38C1138,-283.84 1243.49,-283.05 1313.22,-282.54"/>
<polygon fill="#63b8ff" stroke="#63b8ff" points="1064.64,-280.88 1054.66,-284.46 1064.69,-287.88 1064.64,-280.88"/>
</a>
</g>
</g>
<!-- Node6 -->
<g id="Node000006" class="node">
<title>Node6</title>
<g id="a_Node000006"><a xlink:href="classpsr_1_1LLVMBasedBackwardCFG.html" target="_top" xlink:title="A class that represents a backwards control flow graph. Conforms to the CFGBase CRTP interface.">
<polygon fill="white" stroke="#666666" points="1263,-164.5 1102,-164.5 1102,-145.5 1263,-145.5 1263,-164.5"/>
<text text-anchor="middle" x="1182.5" y="-152.5" font-family="Helvetica,sans-Serif" font-size="10.00">psr::LLVMBasedBackwardCFG</text>
</a>
</g>
</g>
<!-- Node5&#45;&gt;Node6 -->
<g id="edge5_Node000005_Node000006" class="edge">
<title>Node5&#45;&gt;Node6</title>
<g id="a_edge5_Node000005_Node000006"><a xlink:title=" ">
<path fill="none" stroke="#63b8ff" d="M1075.43,-155C1084.21,-155 1093.06,-155 1101.7,-155"/>
<polygon fill="#63b8ff" stroke="#63b8ff" points="1075.16,-151.5 1065.16,-155 1075.16,-158.5 1075.16,-151.5"/>
</a>
</g>
</g>
<!-- Node7 -->
<g id="Node000007" class="node">
<title>Node7</title>
<g id="a_Node000007"><a xlink:href="classpsr_1_1LLVMBasedBackwardICFG.html" target="_top" xlink:title="A class that represents a backwards interprocedural control flow graph. Conforms to the ICFGBase CRTP...">
<polygon fill="white" stroke="#666666" points="1468.5,-164.5 1304.5,-164.5 1304.5,-145.5 1468.5,-145.5 1468.5,-164.5"/>
<text text-anchor="middle" x="1386.5" y="-152.5" font-family="Helvetica,sans-Serif" font-size="10.00">psr::LLVMBasedBackwardICFG</text>
</a>
</g>
</g>
<!-- Node6&#45;&gt;Node7 -->
<g id="edge6_Node000006_Node000007" class="edge">
<title>Node6&#45;&gt;Node7</title>
<g id="a_edge6_Node000006_Node000007"><a xlink:title=" ">
<path fill="none" stroke="#63b8ff" d="M1273.32,-155C1283.66,-155 1294.15,-155 1304.37,-155"/>
<polygon fill="#63b8ff" stroke="#63b8ff" points="1273.05,-151.5 1263.05,-155 1273.05,-158.5 1273.05,-151.5"/>
</a>
</g>
</g>
<!-- Node9 -->
<g id="Node000009" class="node">
<title>Node9</title>
<g id="a_Node000009"><a xlink:href="classpsr_1_1LLVMBasedCFG.html" target="_top" xlink:title=" ">
<polygon fill="white" stroke="#666666" points="1239,-244.5 1126,-244.5 1126,-225.5 1239,-225.5 1239,-244.5"/>
<text text-anchor="middle" x="1182.5" y="-232.5" font-family="Helvetica,sans-Serif" font-size="10.00">psr::LLVMBasedCFG</text>
</a>
</g>
</g>
<!-- Node8&#45;&gt;Node9 -->
<g id="edge8_Node000008_Node000009" class="edge">
<title>Node8&#45;&gt;Node9</title>
<g id="a_edge8_Node000008_Node000009"><a xlink:title=" ">
<path fill="none" stroke="#63b8ff" d="M1075.28,-235C1092.55,-235 1110.07,-235 1125.76,-235"/>
<polygon fill="#63b8ff" stroke="#63b8ff" points="1075.16,-231.5 1065.16,-235 1075.16,-238.5 1075.16,-231.5"/>
</a>
</g>
</g>
<!-- Node9&#45;&gt;Node4 -->
<g id="edge11_Node000009_Node000004" class="edge">
<title>Node9&#45;&gt;Node4</title>
<g id="a_edge11_Node000009_Node000004"><a xlink:title=" ">
<path fill="none" stroke="#63b8ff" d="M1234.14,-246.78C1268.17,-254.7 1312.47,-265.01 1344.34,-272.42"/>
<polygon fill="#63b8ff" stroke="#63b8ff" points="1234.91,-243.37 1224.38,-244.51 1233.32,-250.19 1234.91,-243.37"/>
</a>
</g>
</g>
<!-- Node10 -->
<g id="Node000010" class="node">
<title>Node10</title>
<g id="a_Node000010"><a xlink:href="classpsr_1_1LLVMBasedICFG.html" target="_top" xlink:title="A class that implements a inter&#45;procedural control flow graph. Conforms to the ICFGBase CRTP interfac...">
<polygon fill="white" stroke="#666666" points="1444.5,-250.5 1328.5,-250.5 1328.5,-231.5 1444.5,-231.5 1444.5,-250.5"/>
<text text-anchor="middle" x="1386.5" y="-238.5" font-family="Helvetica,sans-Serif" font-size="10.00">psr::LLVMBasedICFG</text>
</a>
</g>
</g>
<!-- Node9&#45;&gt;Node10 -->
<g id="edge9_Node000009_Node000010" class="edge">
<title>Node9&#45;&gt;Node10</title>
<g id="a_edge9_Node000009_Node000010"><a xlink:title=" ">
<path fill="none" stroke="#63b8ff" d="M1249.52,-236.96C1274.92,-237.72 1303.68,-238.57 1328.19,-239.3"/>
<polygon fill="#63b8ff" stroke="#63b8ff" points="1249.33,-233.45 1239.23,-236.66 1249.12,-240.45 1249.33,-233.45"/>
</a>
</g>
</g>
<!-- Node12 -->
<g id="Node000012" class="node">
<title>Node12</title>
<g id="a_Node000012"><a xlink:href="classpsr_1_1SparseLLVMBasedICFGView.html" target="_top" xlink:title="Similar to SparseLLVMBasedICFG; the only difference is that this one is no LLVMBasedICFG – it contain...">
<polygon fill="white" stroke="#666666" points="1473,-213.5 1300,-213.5 1300,-194.5 1473,-194.5 1473,-213.5"/>
<text text-anchor="middle" x="1386.5" y="-201.5" font-family="Helvetica,sans-Serif" font-size="10.00">psr::SparseLLVMBasedICFGView</text>
</a>
</g>
</g>
<!-- Node9&#45;&gt;Node12 -->
<g id="edge12_Node000009_Node000012" class="edge">
<title>Node9&#45;&gt;Node12</title>
<g id="a_edge12_Node000009_Node000012"><a xlink:title=" ">
<path fill="none" stroke="#63b8ff" d="M1249.26,-224.91C1273.14,-221.24 1300.02,-217.12 1323.55,-213.51"/>
<polygon fill="#63b8ff" stroke="#63b8ff" points="1248.59,-221.47 1239.23,-226.45 1249.65,-228.39 1248.59,-221.47"/>
</a>
</g>
</g>
<!-- Node11 -->
<g id="Node000011" class="node">
<title>Node11</title>
<g id="a_Node000011"><a xlink:href="classpsr_1_1SparseLLVMBasedICFG.html" target="_top" xlink:title="A class that implements a sparse interprocedural control flow graph. Conforms to the ICFGBase CRTP in...">
<polygon fill="white" stroke="#666666" points="1659,-250.5 1510,-250.5 1510,-231.5 1659,-231.5 1659,-250.5"/>
<text text-anchor="middle" x="1584.5" y="-238.5" font-family="Helvetica,sans-Serif" font-size="10.00">psr::SparseLLVMBasedICFG</text>
</a>
</g>
</g>
<!-- Node10&#45;&gt;Node11 -->
<g id="edge10_Node000010_Node000011" class="edge">
<title>Node10&#45;&gt;Node11</title>
<g id="a_edge10_Node000010_Node000011"><a xlink:title=" ">
<path fill="none" stroke="#63b8ff" d="M1454.94,-241C1472.62,-241 1491.78,-241 1509.77,-241"/>
<polygon fill="#63b8ff" stroke="#63b8ff" points="1454.72,-237.5 1444.72,-241 1454.72,-244.5 1454.72,-237.5"/>
</a>
</g>
</g>
<!-- Node13&#45;&gt;Node3 -->
<g id="edge14_Node000013_Node000003" class="edge">
<title>Node13&#45;&gt;Node3</title>
<g id="a_edge14_Node000013_Node000003"><a xlink:title=" ">
<path fill="none" stroke="orange" stroke-dasharray="5,2" d="M679.05,-280.91C743.23,-281.78 840.15,-283.1 906.44,-284"/>
<polygon fill="orange" stroke="orange" points="679.09,-277.41 669.04,-280.77 678.99,-284.41 679.09,-277.41"/>
</a>
</g>
<text text-anchor="middle" x="803" y="-286" font-family="Helvetica,sans-Serif" font-size="10.00" fill="grey"> &lt; SparseLLVMBasedCFG &gt;</text>
</g>
<!-- Node14&#45;&gt;Node5 -->
<g id="edge16_Node000014_Node000005" class="edge">
<title>Node14&#45;&gt;Node5</title>
<g id="a_edge16_Node000014_Node000005"><a xlink:title=" ">
<path fill="none" stroke="orange" stroke-dasharray="5,2" d="M706.22,-178.83C764.7,-173.73 839.32,-167.22 895.81,-162.3"/>
<polygon fill="orange" stroke="orange" points="705.9,-175.34 696.24,-179.7 706.5,-182.32 705.9,-175.34"/>
</a>
</g>
<text text-anchor="middle" x="803" y="-180" font-family="Helvetica,sans-Serif" font-size="10.00" fill="grey"> &lt; LLVMBasedBackwardCFG &gt;</text>
</g>
<!-- Node14&#45;&gt;Node8 -->
<g id="edge17_Node000014_Node000008" class="edge">
<title>Node14&#45;&gt;Node8</title>
<g id="a_edge17_Node000014_Node000008"><a xlink:title=" ">
<path fill="none" stroke="orange" stroke-dasharray="5,2" d="M706.27,-192.87C757.26,-196.8 821.32,-202.95 878,-212 891.38,-214.14 905.63,-217 919.1,-219.97"/>
<polygon fill="orange" stroke="orange" points="706.49,-189.37 696.26,-192.11 705.96,-196.35 706.49,-189.37"/>
</a>
</g>
<text text-anchor="middle" x="803" y="-215" font-family="Helvetica,sans-Serif" font-size="10.00" fill="grey"> &lt; LLVMBasedCFG &gt;</text>
</g>
</g>
</svg>
