<?xml version="1.0" encoding="UTF-8" standalone="no"?>
<!DOCTYPE svg PUBLIC "-//W3C//DTD SVG 1.1//EN"
 "http://www.w3.org/Graphics/SVG/1.1/DTD/svg11.dtd">
<!-- Generated by graphviz version 2.43.0 (0)
 -->
<!-- Title: psr::SparseLLVMBasedCFG Pages: 1 -->
<svg width="1356pt" height="135pt"
 viewBox="0.00 0.00 1356.00 135.00" xmlns="http://www.w3.org/2000/svg" xmlns:xlink="http://www.w3.org/1999/xlink">
<g id="graph0" class="graph" transform="scale(1 1) rotate(0) translate(4 131)">
<title>psr::SparseLLVMBasedCFG</title>
<!-- Node1 -->
<g id="Node000001" class="node">
<title>Node1</title>
<g id="a_Node000001"><a xlink:title="A class that implements a sparse control flow graph. Conforms to the CFGBase CRTP interface.">
<polygon fill="#999999" stroke="#666666" points="1348,-71 1202,-71 1202,-52 1348,-52 1348,-71"/>
<text text-anchor="middle" x="1275" y="-59" font-family="Helvetica,sans-Serif" font-size="10.00">psr::SparseLLVMBasedCFG</text>
</a>
</g>
</g>
<!-- Node2 -->
<g id="Node000002" class="node">
<title>Node2</title>
<g id="a_Node000002"><a xlink:href="classpsr_1_1LLVMBasedCFG.html" target="_top" xlink:title=" ">
<polygon fill="white" stroke="#666666" points="1165,-99 1052,-99 1052,-80 1165,-80 1165,-99"/>
<text text-anchor="middle" x="1108.5" y="-87" font-family="Helvetica,sans-Serif" font-size="10.00">psr::LLVMBasedCFG</text>
</a>
</g>
</g>
<!-- Node2&#45;&gt;Node1 -->
<g id="edge1_Node000001_Node000002" class="edge">
<title>Node2&#45;&gt;Node1</title>
<g id="a_edge1_Node000001_Node000002"><a xlink:title=" ">
<path fill="none" stroke="#63b8ff" d="M1175.36,-78.29C1189.51,-75.88 1204.35,-73.36 1218.09,-71.02"/>
<polygon fill="#63b8ff" stroke="#63b8ff" points="1174.46,-74.89 1165.19,-80.02 1175.64,-81.79 1174.46,-74.89"/>
</a>
</g>
</g>
<!-- Node3 -->
<g id="Node000003" class="node">
<title>Node3</title>
<g id="a_Node000003"><a xlink:title=" ">
<polygon fill="white" stroke="#666666" points="1015,-107.5 846,-107.5 846,-77.5 1015,-77.5 1015,-107.5"/>
<text text-anchor="start" x="854" y="-95.5" font-family="Helvetica,sans-Serif" font-size="10.00">psr::detail::LLVMBasedCFGImpl</text>
<text text-anchor="middle" x="930.5" y="-84.5" font-family="Helvetica,sans-Serif" font-size="10.00">&lt; LLVMBasedCFG &gt;</text>
</a>
</g>
</g>
<!-- Node3&#45;&gt;Node2 -->
<g id="edge2_Node000002_Node000003" class="edge">
<title>Node3&#45;&gt;Node2</title>
<g id="a_edge2_Node000002_Node000003"><a xlink:title=" ">
<path fill="none" stroke="#63b8ff" d="M1025.31,-90.9C1034.32,-90.75 1043.26,-90.6 1051.73,-90.45"/>
<polygon fill="#63b8ff" stroke="#63b8ff" points="1025.06,-87.4 1015.12,-91.07 1025.18,-94.4 1025.06,-87.4"/>
</a>
</g>
</g>
<!-- Node4 -->
<g id="Node000004" class="node">
<title>Node4</title>
<g id="a_Node000004"><a xlink:href="classpsr_1_1CFGBase.html" target="_top" xlink:title=" ">
<polygon fill="white" stroke="#666666" points="488,-127 345,-127 345,-108 488,-108 488,-127"/>
<text text-anchor="middle" x="416.5" y="-115" font-family="Helvetica,sans-Serif" font-size="10.00">psr::CFGBase&lt; Derived &gt;</text>
</a>
</g>
</g>
<!-- Node4&#45;&gt;Node3 -->
<g id="edge3_Node000003_Node000004" class="edge">
<title>Node4&#45;&gt;Node3</title>
<g id="a_edge3_Node000003_Node000004"><a xlink:title=" ">
<path fill="none" stroke="#63b8ff" d="M498.29,-119.26C581.24,-120.19 713.98,-119.26 828,-107.5 833.85,-106.9 839.87,-106.2 845.94,-105.44"/>
<polygon fill="#63b8ff" stroke="#63b8ff" points="498.21,-115.76 488.17,-119.13 498.13,-122.76 498.21,-115.76"/>
</a>
</g>
</g>
<!-- Node5 -->
<g id="Node000005" class="node">
<title>Node5</title>
<g id="a_Node000005"><a xlink:href="classpsr_1_1CRTPBase.html" target="_top" xlink:title=" ">
<polygon fill="white" stroke="#666666" points="147,-80 0,-80 0,-61 147,-61 147,-80"/>
<text text-anchor="middle" x="73.5" y="-68" font-family="Helvetica,sans-Serif" font-size="10.00">psr::CRTPBase&lt; Derived &gt;</text>
</a>
</g>
</g>
<!-- Node5&#45;&gt;Node4 -->
<g id="edge4_Node000004_Node000005" class="edge">
<title>Node5&#45;&gt;Node4</title>
<g id="a_edge4_Node000004_Node000005"><a xlink:title=" ">
<path fill="none" stroke="#63b8ff" d="M136.25,-81.79C151.81,-84.47 168.5,-87.22 184,-89.5 237.87,-97.43 299.04,-104.75 344.96,-109.92"/>
<polygon fill="#63b8ff" stroke="#63b8ff" points="136.67,-78.31 126.21,-80.04 135.46,-85.2 136.67,-78.31"/>
</a>
</g>
</g>
<!-- Node7 -->
<g id="Node000007" class="node">
<title>Node7</title>
<g id="a_Node000007"><a xlink:href="classpsr_1_1CFGBase.html" target="_top" xlink:title=" ">
<polygon fill="white" stroke="#666666" points="327,-80 184,-80 184,-61 327,-61 327,-80"/>
<text text-anchor="middle" x="255.5" y="-68" font-family="Helvetica,sans-Serif" font-size="10.00">psr::CFGBase&lt; Derived &gt;</text>
</a>
</g>
</g>
<!-- Node5&#45;&gt;Node7 -->
<g id="edge7_Node000007_Node000005" class="edge">
<title>Node5&#45;&gt;Node7</title>
<g id="a_edge7_Node000007_Node000005"><a xlink:title=" ">
<path fill="none" stroke="#63b8ff" d="M157.2,-70.5C166.11,-70.5 175.12,-70.5 183.87,-70.5"/>
<polygon fill="#63b8ff" stroke="#63b8ff" points="157.19,-67 147.19,-70.5 157.19,-74 157.19,-67"/>
</a>
</g>
</g>
<!-- Node9 -->
<g id="Node000009" class="node">
<title>Node9</title>
<g id="a_Node000009"><a xlink:href="classpsr_1_1CFGBase.html" target="_top" xlink:title=" ">
<polygon fill="white" stroke="#666666" points="488,-19 345,-19 345,0 488,0 488,-19"/>
<text text-anchor="middle" x="416.5" y="-7" font-family="Helvetica,sans-Serif" font-size="10.00">psr::CFGBase&lt; Derived &gt;</text>
</a>
</g>
</g>
<!-- Node5&#45;&gt;Node9 -->
<g id="edge10_Node000009_Node000005" class="edge">
<title>Node5&#45;&gt;Node9</title>
<g id="a_edge10_Node000009_Node000005"><a xlink:title=" ">
<path fill="none" stroke="#63b8ff" d="M137.85,-59.17C202.47,-47.61 301.63,-29.87 362.31,-19.01"/>
<polygon fill="#63b8ff" stroke="#63b8ff" points="137.01,-55.76 127.78,-60.97 138.24,-62.65 137.01,-55.76"/>
</a>
</g>
</g>
<!-- Node6 -->
<g id="Node000006" class="node">
<title>Node6</title>
<g id="a_Node000006"><a xlink:title=" ">
<polygon fill="white" stroke="#666666" points="675,-107.5 506,-107.5 506,-77.5 675,-77.5 675,-107.5"/>
<text text-anchor="start" x="514" y="-95.5" font-family="Helvetica,sans-Serif" font-size="10.00">psr::detail::LLVMBasedCFGImpl</text>
<text text-anchor="middle" x="590.5" y="-84.5" font-family="Helvetica,sans-Serif" font-size="10.00">&lt; Derived &gt;</text>
</a>
</g>
</g>
<!-- Node6&#45;&gt;Node3 -->
<g id="edge5_Node000003_Node000006" class="edge">
<title>Node6&#45;&gt;Node3</title>
<g id="a_edge5_Node000003_Node000006"><a xlink:title=" ">
<path fill="none" stroke="orange" stroke-dasharray="5,2" d="M685.28,-92.5C735.58,-92.5 797.05,-92.5 845.74,-92.5"/>
<polygon fill="orange" stroke="orange" points="685.05,-89 675.05,-92.5 685.05,-96 685.05,-89"/>
</a>
</g>
<text text-anchor="middle" x="760.5" y="-95.5" font-family="Helvetica,sans-Serif" font-size="10.00" fill="grey"> &lt; LLVMBasedCFG &gt;</text>
</g>
<!-- Node7&#45;&gt;Node6 -->
<g id="edge6_Node000006_Node000007" class="edge">
<title>Node7&#45;&gt;Node6</title>
<g id="a_edge6_Node000006_Node000007"><a xlink:title=" ">
<path fill="none" stroke="#63b8ff" d="M337.13,-75.83C388.19,-79.2 454.08,-83.55 505.73,-86.97"/>
<polygon fill="#63b8ff" stroke="#63b8ff" points="337.33,-72.33 327.12,-75.17 336.87,-79.32 337.33,-72.33"/>
</a>
</g>
</g>
<!-- Node10 -->
<g id="Node000010" class="node">
<title>Node10</title>
<g id="a_Node000010"><a xlink:href="classpsr_1_1SparseCFGBase.html" target="_top" xlink:title=" ">
<polygon fill="white" stroke="#666666" points="648,-59.5 533,-59.5 533,-29.5 648,-29.5 648,-59.5"/>
<text text-anchor="start" x="541" y="-47.5" font-family="Helvetica,sans-Serif" font-size="10.00">psr::SparseCFGBase</text>
<text text-anchor="middle" x="590.5" y="-36.5" font-family="Helvetica,sans-Serif" font-size="10.00">&lt; Derived &gt;</text>
</a>
</g>
</g>
<!-- Node7&#45;&gt;Node10 -->
<g id="edge12_Node000010_Node000007" class="edge">
<title>Node7&#45;&gt;Node10</title>
<g id="a_edge12_Node000010_Node000007"><a xlink:title=" ">
<path fill="none" stroke="#63b8ff" d="M337.4,-64.18C397.89,-59.46 479.08,-53.12 532.79,-48.93"/>
<polygon fill="#63b8ff" stroke="#63b8ff" points="336.82,-60.72 327.12,-64.99 337.36,-67.7 336.82,-60.72"/>
</a>
</g>
</g>
<!-- Node8 -->
<g id="Node000008" class="node">
<title>Node8</title>
<g id="a_Node000008"><a xlink:href="classpsr_1_1SparseCFGBase.html" target="_top" xlink:title=" ">
<polygon fill="white" stroke="#666666" points="1004.5,-59.5 856.5,-59.5 856.5,-29.5 1004.5,-29.5 1004.5,-59.5"/>
<text text-anchor="start" x="864.5" y="-47.5" font-family="Helvetica,sans-Serif" font-size="10.00">psr::SparseCFGBase</text>
<text text-anchor="middle" x="930.5" y="-36.5" font-family="Helvetica,sans-Serif" font-size="10.00">&lt; SparseLLVMBasedCFG &gt;</text>
</a>
</g>
</g>
<!-- Node8&#45;&gt;Node1 -->
<g id="edge8_Node000001_Node000008" class="edge">
<title>Node8&#45;&gt;Node1</title>
<g id="a_edge8_Node000001_Node000008"><a xlink:title=" ">
<path fill="none" stroke="#63b8ff" d="M1014.66,-48.63C1071.92,-51.47 1147.24,-55.21 1201.94,-57.92"/>
<polygon fill="#63b8ff" stroke="#63b8ff" points="1014.72,-45.13 1004.55,-48.13 1014.37,-52.12 1014.72,-45.13"/>
</a>
</g>
</g>
<!-- Node9&#45;&gt;Node8 -->
<g id="edge9_Node000008_Node000009" class="edge">
<title>Node9&#45;&gt;Node8</title>
<g id="a_edge9_Node000008_Node000009"><a xlink:title=" ">
<path fill="none" stroke="#63b8ff" d="M498.3,-11.89C549.07,-13.65 615.9,-16.45 675,-20.5 736.21,-24.69 805.53,-31.35 856.35,-36.6"/>
<polygon fill="#63b8ff" stroke="#63b8ff" points="498.16,-8.38 488.05,-11.54 497.92,-15.38 498.16,-8.38"/>
</a>
</g>
</g>
<!-- Node10&#45;&gt;Node8 -->
<g id="edge11_Node000008_Node000010" class="edge">
<title>Node10&#45;&gt;Node8</title>
<g id="a_edge11_Node000008_Node000010"><a xlink:title=" ">
<path fill="none" stroke="orange" stroke-dasharray="5,2" d="M658.09,-44.5C715.26,-44.5 797.54,-44.5 856.49,-44.5"/>
<polygon fill="orange" stroke="orange" points="658.07,-41 648.07,-44.5 658.07,-48 658.07,-41"/>
</a>
</g>
<text text-anchor="middle" x="760.5" y="-47.5" font-family="Helvetica,sans-Serif" font-size="10.00" fill="grey"> &lt; SparseLLVMBasedCFG &gt;</text>
</g>
</g>
</svg>
