<?xml version="1.0" encoding="UTF-8" standalone="no"?>
<!DOCTYPE svg PUBLIC "-//W3C//DTD SVG 1.1//EN"
 "http://www.w3.org/Graphics/SVG/1.1/DTD/svg11.dtd">
<!-- Generated by graphviz version 2.43.0 (0)
 -->
<!-- Title: psr::SolverResults&lt; N, D, L &gt; Pages: 1 -->
<svg width="181pt" height="204pt"
 viewBox="0.00 0.00 181.00 204.00" xmlns="http://www.w3.org/2000/svg" xmlns:xlink="http://www.w3.org/1999/xlink">
<g id="graph0" class="graph" transform="scale(1 1) rotate(0) translate(4 200)">
<title>psr::SolverResults&lt; N, D, L &gt;</title>
<!-- Node1 -->
<g id="Node000001" class="node">
<title>Node1</title>
<g id="a_Node000001"><a xlink:title=" ">
<polygon fill="#999999" stroke="#666666" points="122,-30 18,-30 18,0 122,0 122,-30"/>
<text text-anchor="start" x="26" y="-18" font-family="Helvetica,sans-Serif" font-size="10.00">psr::SolverResults</text>
<text text-anchor="middle" x="70" y="-7" font-family="Helvetica,sans-Serif" font-size="10.00">&lt; N, D, L &gt;</text>
</a>
</g>
</g>
<!-- Node2 -->
<g id="Node000002" class="node">
<title>Node2</title>
<g id="a_Node000002"><a xlink:title=" ">
<polygon fill="white" stroke="#666666" points="140,-108 0,-108 0,-67 140,-67 140,-108"/>
<text text-anchor="start" x="8" y="-96" font-family="Helvetica,sans-Serif" font-size="10.00">psr::detail::SolverResults</text>
<text text-anchor="start" x="8" y="-85" font-family="Helvetica,sans-Serif" font-size="10.00">Base&lt; SolverResults&lt; N,</text>
<text text-anchor="middle" x="70" y="-74" font-family="Helvetica,sans-Serif" font-size="10.00"> D, L &gt;, N, D, L &gt;</text>
</a>
</g>
</g>
<!-- Node2&#45;&gt;Node1 -->
<g id="edge1_Node000001_Node000002" class="edge">
<title>Node2&#45;&gt;Node1</title>
<g id="a_edge1_Node000001_Node000002"><a xlink:title=" ">
<path fill="none" stroke="#63b8ff" d="M70,-56.58C70,-47.51 70,-37.95 70,-30.39"/>
<polygon fill="#63b8ff" stroke="#63b8ff" points="66.5,-56.86 70,-66.86 73.5,-56.86 66.5,-56.86"/>
</a>
</g>
</g>
<!-- Node3 -->
<g id="Node000003" class="node">
<title>Node3</title>
<g id="a_Node000003"><a xlink:title=" ">
<polygon fill="white" stroke="#666666" points="140,-196 0,-196 0,-166 140,-166 140,-196"/>
<text text-anchor="start" x="8" y="-184" font-family="Helvetica,sans-Serif" font-size="10.00">psr::detail::SolverResults</text>
<text text-anchor="middle" x="70" y="-173" font-family="Helvetica,sans-Serif" font-size="10.00">Base&lt; Derived, N, D, L &gt;</text>
</a>
</g>
</g>
<!-- Node3&#45;&gt;Node2 -->
<g id="edge2_Node000002_Node000003" class="edge">
<title>Node3&#45;&gt;Node2</title>
<g id="a_edge2_Node000002_Node000003"><a xlink:title=" ">
<path fill="none" stroke="orange" stroke-dasharray="5,2" d="M70,-155.69C70,-140.82 70,-122.05 70,-108.13"/>
<polygon fill="orange" stroke="orange" points="66.5,-155.7 70,-165.7 73.5,-155.7 66.5,-155.7"/>
</a>
</g>
<text text-anchor="start" x="70" y="-140" font-family="Helvetica,sans-Serif" font-size="10.00" fill="grey"> &lt; SolverResults&lt; N,</text>
<text text-anchor="middle" x="121.5" y="-129" font-family="Helvetica,sans-Serif" font-size="10.00" fill="grey"> D, L &gt;, N, D, L &gt;</text>
</g>
</g>
</svg>
