<?xml version="1.0" encoding="UTF-8" standalone="no"?>
<!DOCTYPE svg PUBLIC "-//W3C//DTD SVG 1.1//EN"
 "http://www.w3.org/Graphics/SVG/1.1/DTD/svg11.dtd">
<!-- Generated by graphviz version 2.43.0 (0)
 -->
<!-- Title: psr::IFDSTabulationProblem&lt; AnalysisDomainTy, Container &gt; Pages: 1 -->
<svg width="1759pt" height="372pt"
 viewBox="0.00 0.00 1759.00 372.00" xmlns="http://www.w3.org/2000/svg" xmlns:xlink="http://www.w3.org/1999/xlink">
<g id="graph0" class="graph" transform="scale(1 1) rotate(0) translate(4 368)">
<title>psr::IFDSTabulationProblem&lt; AnalysisDomainTy, Container &gt;</title>
<!-- Node1 -->
<g id="Node000001" class="node">
<title>Node1</title>
<g id="a_Node000001"><a xlink:title="The analysis problem interface for IFDS problems (solvable by the IFDSSolver). Create a subclass from...">
<polygon fill="#999999" stroke="#666666" points="1117,-213.5 935,-213.5 935,-183.5 1117,-183.5 1117,-213.5"/>
<text text-anchor="start" x="943" y="-201.5" font-family="Helvetica,sans-Serif" font-size="10.00">psr::IFDSTabulationProblem</text>
<text text-anchor="middle" x="1026" y="-190.5" font-family="Helvetica,sans-Serif" font-size="10.00">&lt; AnalysisDomainTy, Container &gt;</text>
</a>
</g>
</g>
<!-- Node10 -->
<g id="Node000010" class="node">
<title>Node10</title>
<g id="a_Node000010"><a xlink:href="classpsr_1_1IFDSTabulationProblem.html" target="_top" xlink:title=" ">
<polygon fill="white" stroke="#666666" points="1511.5,-303.5 1331.5,-303.5 1331.5,-273.5 1511.5,-273.5 1511.5,-303.5"/>
<text text-anchor="start" x="1339.5" y="-291.5" font-family="Helvetica,sans-Serif" font-size="10.00">psr::IFDSTabulationProblem</text>
<text text-anchor="middle" x="1421.5" y="-280.5" font-family="Helvetica,sans-Serif" font-size="10.00">&lt; LLVMAnalysisDomainDefault &gt;</text>
</a>
</g>
</g>
<!-- Node1&#45;&gt;Node10 -->
<g id="edge9_Node000001_Node000010" class="edge">
<title>Node1&#45;&gt;Node10</title>
<g id="a_edge9_Node000001_Node000010"><a xlink:title=" ">
<path fill="none" stroke="orange" stroke-dasharray="5,2" d="M1102.92,-215.86C1175.98,-232.57 1285.31,-257.58 1354.75,-273.46"/>
<polygon fill="orange" stroke="orange" points="1103.39,-212.38 1092.86,-213.56 1101.83,-219.21 1103.39,-212.38"/>
</a>
</g>
<text text-anchor="middle" x="1218.5" y="-261.5" font-family="Helvetica,sans-Serif" font-size="10.00" fill="grey"> &lt; LLVMAnalysisDomainDefault &gt;</text>
</g>
<!-- Node12 -->
<g id="Node000012" class="node">
<title>Node12</title>
<g id="a_Node000012"><a xlink:href="classpsr_1_1IFDSTabulationProblem.html" target="_top" xlink:title=" ">
<polygon fill="white" stroke="#666666" points="1523,-190.5 1320,-190.5 1320,-160.5 1523,-160.5 1523,-190.5"/>
<text text-anchor="start" x="1328" y="-178.5" font-family="Helvetica,sans-Serif" font-size="10.00">psr::IFDSTabulationProblem</text>
<text text-anchor="middle" x="1421.5" y="-167.5" font-family="Helvetica,sans-Serif" font-size="10.00">&lt; LLVMIFDSAnalysisDomainDefault &gt;</text>
</a>
</g>
</g>
<!-- Node1&#45;&gt;Node12 -->
<g id="edge11_Node000001_Node000012" class="edge">
<title>Node1&#45;&gt;Node12</title>
<g id="a_edge11_Node000001_Node000012"><a xlink:title=" ">
<path fill="none" stroke="orange" stroke-dasharray="5,2" d="M1127.36,-192.63C1186.41,-189.18 1260.84,-184.83 1319.92,-181.38"/>
<polygon fill="orange" stroke="orange" points="1127.06,-189.15 1117.28,-193.22 1127.46,-196.13 1127.06,-189.15"/>
</a>
</g>
<text text-anchor="start" x="1147" y="-205.5" font-family="Helvetica,sans-Serif" font-size="10.00" fill="grey"> &lt; LLVMIFDSAnalysisDomain</text>
<text text-anchor="middle" x="1218.5" y="-194.5" font-family="Helvetica,sans-Serif" font-size="10.00" fill="grey">Default &gt;</text>
</g>
<!-- Node2 -->
<g id="Node000002" class="node">
<title>Node2</title>
<g id="a_Node000002"><a xlink:href="classpsr_1_1IDETabulationProblem.html" target="_top" xlink:title="The analysis problem interface for IDE problems (solvable by the IDESolver). Create a subclass from t...">
<polygon fill="white" stroke="#666666" points="898,-213.5 716,-213.5 716,-183.5 898,-183.5 898,-213.5"/>
<text text-anchor="start" x="724" y="-201.5" font-family="Helvetica,sans-Serif" font-size="10.00">psr::IDETabulationProblem</text>
<text text-anchor="middle" x="807" y="-190.5" font-family="Helvetica,sans-Serif" font-size="10.00">&lt; AnalysisDomainTy, Container &gt;</text>
</a>
</g>
</g>
<!-- Node2&#45;&gt;Node1 -->
<g id="edge1_Node000001_Node000002" class="edge">
<title>Node2&#45;&gt;Node1</title>
<g id="a_edge1_Node000001_Node000002"><a xlink:title=" ">
<path fill="none" stroke="#63b8ff" d="M908.42,-198.5C917.22,-198.5 926.08,-198.5 934.79,-198.5"/>
<polygon fill="#63b8ff" stroke="#63b8ff" points="908.14,-195 898.14,-198.5 908.14,-202 908.14,-195"/>
</a>
</g>
</g>
<!-- Node3 -->
<g id="Node000003" class="node">
<title>Node3</title>
<g id="a_Node000003"><a xlink:href="classpsr_1_1FlowFunctions.html" target="_top" xlink:title=" ">
<polygon fill="white" stroke="#666666" points="641,-321 520,-321 520,-280 641,-280 641,-321"/>
<text text-anchor="start" x="528" y="-309" font-family="Helvetica,sans-Serif" font-size="10.00">psr::FlowFunctions</text>
<text text-anchor="start" x="528" y="-298" font-family="Helvetica,sans-Serif" font-size="10.00">&lt; AnalysisDomainTy,</text>
<text text-anchor="middle" x="580.5" y="-287" font-family="Helvetica,sans-Serif" font-size="10.00"> Container &gt;</text>
</a>
</g>
</g>
<!-- Node3&#45;&gt;Node2 -->
<g id="edge2_Node000002_Node000003" class="edge">
<title>Node3&#45;&gt;Node2</title>
<g id="a_edge2_Node000002_Node000003"><a xlink:title=" ">
<path fill="none" stroke="#63b8ff" d="M650.63,-281.28C660.28,-278.01 669.97,-274.39 679,-270.5 716.94,-254.14 758.05,-229.42 782.92,-213.63"/>
<polygon fill="#63b8ff" stroke="#63b8ff" points="649.43,-277.99 641.02,-284.44 651.61,-284.64 649.43,-277.99"/>
</a>
</g>
</g>
<!-- Node4 -->
<g id="Node000004" class="node">
<title>Node4</title>
<g id="a_Node000004"><a xlink:href="classpsr_1_1FlowFunctionTemplates.html" target="_top" xlink:title=" ">
<polygon fill="white" stroke="#666666" points="445,-321 293,-321 293,-280 445,-280 445,-321"/>
<text text-anchor="start" x="301" y="-309" font-family="Helvetica,sans-Serif" font-size="10.00">psr::FlowFunctionTemplates</text>
<text text-anchor="start" x="301" y="-298" font-family="Helvetica,sans-Serif" font-size="10.00">&lt; AnalysisDomainTy::d_t,</text>
<text text-anchor="middle" x="369" y="-287" font-family="Helvetica,sans-Serif" font-size="10.00"> Container &gt;</text>
</a>
</g>
</g>
<!-- Node4&#45;&gt;Node3 -->
<g id="edge3_Node000003_Node000004" class="edge">
<title>Node4&#45;&gt;Node3</title>
<g id="a_edge3_Node000003_Node000004"><a xlink:title=" ">
<path fill="none" stroke="darkgreen" d="M455.22,-300.5C476.87,-300.5 499.67,-300.5 519.75,-300.5"/>
<polygon fill="darkgreen" stroke="darkgreen" points="455.04,-297 445.04,-300.5 455.04,-304 455.04,-297"/>
</a>
</g>
</g>
<!-- Node5 -->
<g id="Node000005" class="node">
<title>Node5</title>
<g id="a_Node000005"><a xlink:href="classpsr_1_1FlowFunctionTemplates.html" target="_top" xlink:title=" ">
<polygon fill="white" stroke="#666666" points="152,-315.5 0,-315.5 0,-285.5 152,-285.5 152,-315.5"/>
<text text-anchor="start" x="8" y="-303.5" font-family="Helvetica,sans-Serif" font-size="10.00">psr::FlowFunctionTemplates</text>
<text text-anchor="middle" x="76" y="-292.5" font-family="Helvetica,sans-Serif" font-size="10.00">&lt; D, Container &gt;</text>
</a>
</g>
</g>
<!-- Node5&#45;&gt;Node4 -->
<g id="edge4_Node000004_Node000005" class="edge">
<title>Node5&#45;&gt;Node4</title>
<g id="a_edge4_Node000004_Node000005"><a xlink:title=" ">
<path fill="none" stroke="orange" stroke-dasharray="5,2" d="M162.39,-300.5C203.79,-300.5 253.06,-300.5 293,-300.5"/>
<polygon fill="orange" stroke="orange" points="162.32,-297 152.32,-300.5 162.32,-304 162.32,-297"/>
</a>
</g>
<text text-anchor="start" x="170" y="-314.5" font-family="Helvetica,sans-Serif" font-size="10.00" fill="grey"> &lt; AnalysisDomainTy</text>
<text text-anchor="middle" x="222.5" y="-303.5" font-family="Helvetica,sans-Serif" font-size="10.00" fill="grey">::d_t, Container &gt;</text>
</g>
<!-- Node6 -->
<g id="Node000006" class="node">
<title>Node6</title>
<g id="a_Node000006"><a xlink:href="classpsr_1_1EdgeFunctions.html" target="_top" xlink:title=" ">
<polygon fill="white" stroke="#666666" points="645,-261.5 516,-261.5 516,-231.5 645,-231.5 645,-261.5"/>
<text text-anchor="start" x="524" y="-249.5" font-family="Helvetica,sans-Serif" font-size="10.00">psr::EdgeFunctions</text>
<text text-anchor="middle" x="580.5" y="-238.5" font-family="Helvetica,sans-Serif" font-size="10.00">&lt; AnalysisDomainTy &gt;</text>
</a>
</g>
</g>
<!-- Node6&#45;&gt;Node2 -->
<g id="edge5_Node000002_Node000006" class="edge">
<title>Node6&#45;&gt;Node2</title>
<g id="a_edge5_Node000002_Node000006"><a xlink:title=" ">
<path fill="none" stroke="#63b8ff" d="M655.02,-230.78C680.99,-225.23 710.11,-219 735.8,-213.51"/>
<polygon fill="#63b8ff" stroke="#63b8ff" points="654.28,-227.36 645.23,-232.87 655.74,-234.21 654.28,-227.36"/>
</a>
</g>
</g>
<!-- Node7 -->
<g id="Node000007" class="node">
<title>Node7</title>
<g id="a_Node000007"><a xlink:href="classpsr_1_1JoinLattice_3_01AnalysisDomainTy_01_4.html" target="_top" xlink:title=" ">
<polygon fill="white" stroke="#666666" points="651,-213.5 510,-213.5 510,-183.5 651,-183.5 651,-213.5"/>
<text text-anchor="start" x="518" y="-201.5" font-family="Helvetica,sans-Serif" font-size="10.00">psr::JoinLattice&lt; Analysis</text>
<text text-anchor="middle" x="580.5" y="-190.5" font-family="Helvetica,sans-Serif" font-size="10.00">DomainTy &gt;</text>
</a>
</g>
</g>
<!-- Node7&#45;&gt;Node2 -->
<g id="edge6_Node000002_Node000007" class="edge">
<title>Node7&#45;&gt;Node2</title>
<g id="a_edge6_Node000002_Node000007"><a xlink:title=" ">
<path fill="none" stroke="#63b8ff" d="M661.54,-198.5C679.18,-198.5 697.98,-198.5 715.98,-198.5"/>
<polygon fill="#63b8ff" stroke="#63b8ff" points="661.3,-195 651.3,-198.5 661.3,-202 661.3,-195"/>
</a>
</g>
</g>
<!-- Node8 -->
<g id="Node000008" class="node">
<title>Node8</title>
<g id="a_Node000008"><a xlink:href="classpsr_1_1SemiRing.html" target="_top" xlink:title=" ">
<polygon fill="white" stroke="#666666" points="679,-165 482,-165 482,-146 679,-146 679,-165"/>
<text text-anchor="middle" x="580.5" y="-153" font-family="Helvetica,sans-Serif" font-size="10.00">psr::SemiRing&lt; AnalysisDomainTy &gt;</text>
</a>
</g>
</g>
<!-- Node8&#45;&gt;Node2 -->
<g id="edge7_Node000002_Node000008" class="edge">
<title>Node8&#45;&gt;Node2</title>
<g id="a_edge7_Node000002_Node000008"><a xlink:title=" ">
<path fill="none" stroke="#63b8ff" d="M641.22,-166.94C667.73,-172.02 699.29,-178.06 727.65,-183.49"/>
<polygon fill="#63b8ff" stroke="#63b8ff" points="641.8,-163.49 631.32,-165.04 640.49,-170.36 641.8,-163.49"/>
</a>
</g>
</g>
<!-- Node9 -->
<g id="Node000009" class="node">
<title>Node9</title>
<g id="a_Node000009"><a xlink:href="classpsr_1_1AllTopFnProvider_3_01AnalysisDomainTy_01_4.html" target="_top" xlink:title=" ">
<polygon fill="white" stroke="#666666" points="645,-127.5 516,-127.5 516,-97.5 645,-97.5 645,-127.5"/>
<text text-anchor="start" x="524" y="-115.5" font-family="Helvetica,sans-Serif" font-size="10.00">psr::AllTopFnProvider</text>
<text text-anchor="middle" x="580.5" y="-104.5" font-family="Helvetica,sans-Serif" font-size="10.00">&lt; AnalysisDomainTy &gt;</text>
</a>
</g>
</g>
<!-- Node9&#45;&gt;Node2 -->
<g id="edge8_Node000002_Node000009" class="edge">
<title>Node9&#45;&gt;Node2</title>
<g id="a_edge8_Node000002_Node000009"><a xlink:title=" ">
<path fill="none" stroke="#63b8ff" d="M654.88,-129.65C663.09,-132.06 671.27,-134.68 679,-137.5 714.39,-150.39 753.16,-169.85 778.44,-183.31"/>
<polygon fill="#63b8ff" stroke="#63b8ff" points="655.83,-126.28 645.25,-126.92 653.92,-133.01 655.83,-126.28"/>
</a>
</g>
</g>
<!-- Node11 -->
<g id="Node000011" class="node">
<title>Node11</title>
<g id="a_Node000011"><a xlink:href="classpsr_1_1DefaultAliasAwareIFDSProblem.html" target="_top" xlink:title=" ">
<polygon fill="white" stroke="#666666" points="1751,-364 1560,-364 1560,-345 1751,-345 1751,-364"/>
<text text-anchor="middle" x="1655.5" y="-352" font-family="Helvetica,sans-Serif" font-size="10.00">psr::DefaultAliasAwareIFDSProblem</text>
</a>
</g>
</g>
<!-- Node10&#45;&gt;Node11 -->
<g id="edge10_Node000010_Node000011" class="edge">
<title>Node10&#45;&gt;Node11</title>
<g id="a_edge10_Node000010_Node000011"><a xlink:title=" ">
<path fill="none" stroke="#63b8ff" d="M1467.7,-307.18C1494.17,-317.39 1528.48,-329.36 1560,-336.5 1573.19,-339.49 1587.5,-342.39 1600.89,-344.96"/>
<polygon fill="#63b8ff" stroke="#63b8ff" points="1468.91,-303.9 1458.32,-303.52 1466.36,-310.42 1468.91,-303.9"/>
</a>
</g>
</g>
<!-- Node13 -->
<g id="Node000013" class="node">
<title>Node13</title>
<g id="a_Node000013"><a xlink:href="classpsr_1_1DefaultNoAliasIFDSProblem.html" target="_top" xlink:title=" ">
<polygon fill="white" stroke="#666666" points="1742.5,-327 1568.5,-327 1568.5,-308 1742.5,-308 1742.5,-327"/>
<text text-anchor="middle" x="1655.5" y="-315" font-family="Helvetica,sans-Serif" font-size="10.00">psr::DefaultNoAliasIFDSProblem</text>
</a>
</g>
</g>
<!-- Node12&#45;&gt;Node13 -->
<g id="edge12_Node000012_Node000013" class="edge">
<title>Node12&#45;&gt;Node13</title>
<g id="a_edge12_Node000012_Node000013"><a xlink:title=" ">
<path fill="none" stroke="#63b8ff" d="M1447.26,-197.21C1467.68,-215.15 1497.33,-241.35 1523,-264.5 1539.58,-279.46 1540.1,-288.37 1560,-298.5 1567.61,-302.37 1575.93,-305.45 1584.39,-307.91"/>
<polygon fill="#63b8ff" stroke="#63b8ff" points="1449.48,-194.49 1439.66,-190.52 1444.86,-199.75 1449.48,-194.49"/>
</a>
</g>
</g>
<!-- Node14 -->
<g id="Node000014" class="node">
<title>Node14</title>
<g id="a_Node000014"><a xlink:href="classpsr_1_1DefaultReachableAllocationSitesIFDSProblem.html" target="_top" xlink:title=" ">
<polygon fill="white" stroke="#666666" points="1742,-289.5 1569,-289.5 1569,-259.5 1742,-259.5 1742,-289.5"/>
<text text-anchor="start" x="1577" y="-277.5" font-family="Helvetica,sans-Serif" font-size="10.00">psr::DefaultReachableAllocation</text>
<text text-anchor="middle" x="1655.5" y="-266.5" font-family="Helvetica,sans-Serif" font-size="10.00">SitesIFDSProblem</text>
</a>
</g>
</g>
<!-- Node12&#45;&gt;Node14 -->
<g id="edge13_Node000012_Node000014" class="edge">
<title>Node12&#45;&gt;Node14</title>
<g id="a_edge13_Node000012_Node000014"><a xlink:title=" ">
<path fill="none" stroke="#63b8ff" d="M1454.64,-196.05C1481.82,-212.68 1522.25,-235.68 1560,-250.5 1568.51,-253.84 1577.63,-256.84 1586.73,-259.49"/>
<polygon fill="#63b8ff" stroke="#63b8ff" points="1456.3,-192.96 1445.95,-190.68 1452.62,-198.91 1456.3,-192.96"/>
</a>
</g>
</g>
<!-- Node15 -->
<g id="Node000015" class="node">
<title>Node15</title>
<g id="a_Node000015"><a xlink:href="classpsr_1_1IFDSConstAnalysis.html" target="_top" xlink:title="Computes all possibly mutable memory locations.">
<polygon fill="white" stroke="#666666" points="1720,-241 1591,-241 1591,-222 1720,-222 1720,-241"/>
<text text-anchor="middle" x="1655.5" y="-229" font-family="Helvetica,sans-Serif" font-size="10.00">psr::IFDSConstAnalysis</text>
</a>
</g>
</g>
<!-- Node12&#45;&gt;Node15 -->
<g id="edge14_Node000012_Node000015" class="edge">
<title>Node12&#45;&gt;Node15</title>
<g id="a_edge14_Node000012_Node000015"><a xlink:title=" ">
<path fill="none" stroke="#63b8ff" d="M1482.83,-193.32C1506.74,-200.08 1534.56,-207.57 1560,-213.5 1573.01,-216.53 1587.12,-219.43 1600.37,-221.97"/>
<polygon fill="#63b8ff" stroke="#63b8ff" points="1483.76,-189.94 1473.18,-190.57 1481.84,-196.67 1483.76,-189.94"/>
</a>
</g>
</g>
<!-- Node16 -->
<g id="Node000016" class="node">
<title>Node16</title>
<g id="a_Node000016"><a xlink:href="classpsr_1_1IFDSProtoAnalysis.html" target="_top" xlink:title=" ">
<polygon fill="white" stroke="#666666" points="1719,-204 1592,-204 1592,-185 1719,-185 1719,-204"/>
<text text-anchor="middle" x="1655.5" y="-192" font-family="Helvetica,sans-Serif" font-size="10.00">psr::IFDSProtoAnalysis</text>
</a>
</g>
</g>
<!-- Node12&#45;&gt;Node16 -->
<g id="edge15_Node000012_Node000016" class="edge">
<title>Node12&#45;&gt;Node16</title>
<g id="a_edge15_Node000012_Node000016"><a xlink:title=" ">
<path fill="none" stroke="#63b8ff" d="M1533.41,-184.58C1553.53,-186.23 1573.86,-187.9 1591.96,-189.38"/>
<polygon fill="#63b8ff" stroke="#63b8ff" points="1533.5,-181.08 1523.25,-183.75 1532.93,-188.06 1533.5,-181.08"/>
</a>
</g>
</g>
<!-- Node17 -->
<g id="Node000017" class="node">
<title>Node17</title>
<g id="a_Node000017"><a xlink:href="classpsr_1_1IFDSSignAnalysis.html" target="_top" xlink:title=" ">
<polygon fill="white" stroke="#666666" points="1716.5,-167 1594.5,-167 1594.5,-148 1716.5,-148 1716.5,-167"/>
<text text-anchor="middle" x="1655.5" y="-155" font-family="Helvetica,sans-Serif" font-size="10.00">psr::IFDSSignAnalysis</text>
</a>
</g>
</g>
<!-- Node12&#45;&gt;Node17 -->
<g id="edge16_Node000012_Node000017" class="edge">
<title>Node12&#45;&gt;Node17</title>
<g id="a_edge16_Node000012_Node000017"><a xlink:title=" ">
<path fill="none" stroke="#63b8ff" d="M1533.22,-166.91C1554.26,-165.28 1575.54,-163.63 1594.27,-162.17"/>
<polygon fill="#63b8ff" stroke="#63b8ff" points="1532.95,-163.42 1523.25,-167.68 1533.49,-170.4 1532.95,-163.42"/>
</a>
</g>
</g>
<!-- Node18 -->
<g id="Node000018" class="node">
<title>Node18</title>
<g id="a_Node000018"><a xlink:href="classpsr_1_1IFDSSolverTest.html" target="_top" xlink:title=" ">
<polygon fill="white" stroke="#666666" points="1710.5,-130 1600.5,-130 1600.5,-111 1710.5,-111 1710.5,-130"/>
<text text-anchor="middle" x="1655.5" y="-118" font-family="Helvetica,sans-Serif" font-size="10.00">psr::IFDSSolverTest</text>
</a>
</g>
</g>
<!-- Node12&#45;&gt;Node18 -->
<g id="edge17_Node000012_Node000018" class="edge">
<title>Node12&#45;&gt;Node18</title>
<g id="a_edge17_Node000012_Node000018"><a xlink:title=" ">
<path fill="none" stroke="#63b8ff" d="M1486.54,-157.92C1509.62,-151.79 1535.91,-145.07 1560,-139.5 1574.35,-136.18 1590,-132.9 1604.36,-130.02"/>
<polygon fill="#63b8ff" stroke="#63b8ff" points="1485.62,-154.54 1476.86,-160.5 1487.42,-161.3 1485.62,-154.54"/>
</a>
</g>
</g>
<!-- Node19 -->
<g id="Node000019" class="node">
<title>Node19</title>
<g id="a_Node000019"><a xlink:href="classpsr_1_1IFDSTaintAnalysis.html" target="_top" xlink:title=" ">
<polygon fill="white" stroke="#666666" points="1718,-93 1593,-93 1593,-74 1718,-74 1718,-93"/>
<text text-anchor="middle" x="1655.5" y="-81" font-family="Helvetica,sans-Serif" font-size="10.00">psr::IFDSTaintAnalysis</text>
</a>
</g>
</g>
<!-- Node12&#45;&gt;Node19 -->
<g id="edge18_Node000012_Node000019" class="edge">
<title>Node12&#45;&gt;Node19</title>
<g id="a_edge18_Node000012_Node000019"><a xlink:title=" ">
<path fill="none" stroke="#63b8ff" d="M1453.97,-154.95C1481.04,-138.18 1521.67,-115.1 1560,-101.5 1570.39,-97.81 1581.7,-94.83 1592.77,-92.44"/>
<polygon fill="#63b8ff" stroke="#63b8ff" points="1451.94,-152.09 1445.33,-160.38 1455.66,-158.02 1451.94,-152.09"/>
</a>
</g>
</g>
<!-- Node20 -->
<g id="Node000020" class="node">
<title>Node20</title>
<g id="a_Node000020"><a xlink:href="classpsr_1_1IFDSTypeAnalysis.html" target="_top" xlink:title=" ">
<polygon fill="white" stroke="#666666" points="1717.5,-56 1593.5,-56 1593.5,-37 1717.5,-37 1717.5,-56"/>
<text text-anchor="middle" x="1655.5" y="-44" font-family="Helvetica,sans-Serif" font-size="10.00">psr::IFDSTypeAnalysis</text>
</a>
</g>
</g>
<!-- Node12&#45;&gt;Node20 -->
<g id="edge19_Node000012_Node000020" class="edge">
<title>Node12&#45;&gt;Node20</title>
<g id="a_edge19_Node000012_Node000020"><a xlink:title=" ">
<path fill="none" stroke="#63b8ff" d="M1443.65,-152.69C1468.81,-127.03 1513.33,-86.11 1560,-64.5 1570.31,-59.73 1581.8,-56.22 1593.13,-53.64"/>
<polygon fill="#63b8ff" stroke="#63b8ff" points="1440.9,-150.5 1436.48,-160.13 1445.94,-155.36 1440.9,-150.5"/>
</a>
</g>
</g>
<!-- Node21 -->
<g id="Node000021" class="node">
<title>Node21</title>
<g id="a_Node000021"><a xlink:href="classpsr_1_1IFDSUninitializedVariables.html" target="_top" xlink:title=" ">
<polygon fill="white" stroke="#666666" points="1739,-19 1572,-19 1572,0 1739,0 1739,-19"/>
<text text-anchor="middle" x="1655.5" y="-7" font-family="Helvetica,sans-Serif" font-size="10.00">psr::IFDSUninitializedVariables</text>
</a>
</g>
</g>
<!-- Node12&#45;&gt;Node21 -->
<g id="edge20_Node000012_Node000021" class="edge">
<title>Node12&#45;&gt;Node21</title>
<g id="a_edge20_Node000012_Node000021"><a xlink:title=" ">
<path fill="none" stroke="#63b8ff" d="M1437.37,-151.72C1459.65,-118.24 1505.02,-57.91 1560,-27.5 1566.14,-24.11 1572.81,-21.34 1579.66,-19.09"/>
<polygon fill="#63b8ff" stroke="#63b8ff" points="1434.23,-150.12 1431.71,-160.4 1440.1,-153.94 1434.23,-150.12"/>
</a>
</g>
</g>
</g>
</svg>
