<?xml version="1.0" encoding="UTF-8" standalone="no"?>
<!DOCTYPE svg PUBLIC "-//W3C//DTD SVG 1.1//EN"
 "http://www.w3.org/Graphics/SVG/1.1/DTD/svg11.dtd">
<!-- Generated by graphviz version 2.43.0 (0)
 -->
<!-- Title: psr::MaybeUniquePtr&lt; T, RequireAlignment &gt; Pages: 1 -->
<svg width="832pt" height="1340pt"
 viewBox="0.00 0.00 832.00 1340.08" xmlns="http://www.w3.org/2000/svg" xmlns:xlink="http://www.w3.org/1999/xlink">
<g id="graph0" class="graph" transform="scale(1 1) rotate(0) translate(4 1336.08)">
<title>psr::MaybeUniquePtr&lt; T, RequireAlignment &gt;</title>
<!-- Node1 -->
<g id="Node000001" class="node">
<title>Node1</title>
<g id="a_Node000001"><a xlink:title=" ">
<polygon fill="#999999" stroke="#666666" points="352,-641.08 213,-641.08 213,-611.08 352,-611.08 352,-641.08"/>
<text text-anchor="start" x="221" y="-629.08" font-family="Helvetica,sans-Serif" font-size="10.00">psr::MaybeUniquePtr</text>
<text text-anchor="middle" x="282.5" y="-618.08" font-family="Helvetica,sans-Serif" font-size="10.00">&lt; T, RequireAlignment &gt;</text>
</a>
</g>
</g>
<!-- Node3 -->
<g id="Node000003" class="node">
<title>Node3</title>
<g id="a_Node000003"><a xlink:href="classpsr_1_1MaybeUniquePtr.html" target="_top" xlink:title=" ">
<polygon fill="white" stroke="#666666" points="812.5,-1300.08 609.5,-1300.08 609.5,-1248.08 812.5,-1248.08 812.5,-1300.08"/>
<text text-anchor="start" x="617.5" y="-1288.08" font-family="Helvetica,sans-Serif" font-size="10.00">psr::MaybeUniquePtr</text>
<text text-anchor="start" x="617.5" y="-1277.08" font-family="Helvetica,sans-Serif" font-size="10.00">&lt; psr::AnalysisPrinterBase</text>
<text text-anchor="start" x="617.5" y="-1266.08" font-family="Helvetica,sans-Serif" font-size="10.00">&lt; WithBinaryValueDomain</text>
<text text-anchor="middle" x="711" y="-1255.08" font-family="Helvetica,sans-Serif" font-size="10.00">&lt; LLVMAnalysisDomainDefault &gt; &gt; &gt;</text>
</a>
</g>
</g>
<!-- Node1&#45;&gt;Node3 -->
<g id="edge2_Node000001_Node000003" class="edge">
<title>Node1&#45;&gt;Node3</title>
<g id="a_edge2_Node000001_Node000003"><a xlink:title=" ">
<path fill="none" stroke="orange" stroke-dasharray="5,2" d="M283.07,-651.26C281.86,-756.58 283.02,-1160.21 370,-1243.08 432.33,-1302.47 533.39,-1304.44 609.15,-1295.04"/>
<polygon fill="orange" stroke="orange" points="286.57,-651.27 283.21,-641.22 279.58,-651.18 286.57,-651.27"/>
</a>
</g>
<text text-anchor="start" x="381.5" y="-1324.08" font-family="Helvetica,sans-Serif" font-size="10.00" fill="grey"> &lt; psr::AnalysisPrinterBase</text>
<text text-anchor="start" x="381.5" y="-1313.08" font-family="Helvetica,sans-Serif" font-size="10.00" fill="grey">&lt; WithBinaryValueDomain</text>
<text text-anchor="middle" x="475" y="-1302.08" font-family="Helvetica,sans-Serif" font-size="10.00" fill="grey">&lt; LLVMAnalysisDomainDefault &gt; &gt; &gt;</text>
</g>
<!-- Node4 -->
<g id="Node000004" class="node">
<title>Node4</title>
<g id="a_Node000004"><a xlink:href="classpsr_1_1MaybeUniquePtr.html" target="_top" xlink:title=" ">
<polygon fill="white" stroke="#666666" points="824,-1230.08 598,-1230.08 598,-1178.08 824,-1178.08 824,-1230.08"/>
<text text-anchor="start" x="606" y="-1218.08" font-family="Helvetica,sans-Serif" font-size="10.00">psr::MaybeUniquePtr</text>
<text text-anchor="start" x="606" y="-1207.08" font-family="Helvetica,sans-Serif" font-size="10.00">&lt; psr::AnalysisPrinterBase</text>
<text text-anchor="start" x="606" y="-1196.08" font-family="Helvetica,sans-Serif" font-size="10.00">&lt; WithBinaryValueDomain</text>
<text text-anchor="middle" x="711" y="-1185.08" font-family="Helvetica,sans-Serif" font-size="10.00">&lt; LLVMIFDSAnalysisDomainDefault &gt; &gt; &gt;</text>
</a>
</g>
</g>
<!-- Node1&#45;&gt;Node4 -->
<g id="edge3_Node000001_Node000004" class="edge">
<title>Node1&#45;&gt;Node4</title>
<g id="a_edge3_Node000001_Node000004"><a xlink:title=" ">
<path fill="none" stroke="orange" stroke-dasharray="5,2" d="M283.61,-651.33C284.62,-748.72 293.57,-1097.96 370,-1170.08 402.09,-1200.36 511.68,-1206.93 597.87,-1207.12"/>
<polygon fill="orange" stroke="orange" points="287.11,-651.2 283.53,-641.23 280.11,-651.26 287.11,-651.2"/>
</a>
</g>
<text text-anchor="start" x="370" y="-1231.08" font-family="Helvetica,sans-Serif" font-size="10.00" fill="grey"> &lt; psr::AnalysisPrinterBase</text>
<text text-anchor="start" x="370" y="-1220.08" font-family="Helvetica,sans-Serif" font-size="10.00" fill="grey">&lt; WithBinaryValueDomain</text>
<text text-anchor="middle" x="475" y="-1209.08" font-family="Helvetica,sans-Serif" font-size="10.00" fill="grey">&lt; LLVMIFDSAnalysisDomainDefault &gt; &gt; &gt;</text>
</g>
<!-- Node5 -->
<g id="Node000005" class="node">
<title>Node5</title>
<g id="a_Node000005"><a xlink:href="classpsr_1_1MaybeUniquePtr.html" target="_top" xlink:title=" ">
<polygon fill="white" stroke="#666666" points="814,-1159.58 608,-1159.58 608,-1118.58 814,-1118.58 814,-1159.58"/>
<text text-anchor="start" x="616" y="-1147.58" font-family="Helvetica,sans-Serif" font-size="10.00">psr::MaybeUniquePtr</text>
<text text-anchor="start" x="616" y="-1136.58" font-family="Helvetica,sans-Serif" font-size="10.00">&lt; psr::AnalysisPrinterBase</text>
<text text-anchor="middle" x="711" y="-1125.58" font-family="Helvetica,sans-Serif" font-size="10.00">&lt; IDEFeatureTaintAnalysisDomain &gt; &gt;</text>
</a>
</g>
</g>
<!-- Node1&#45;&gt;Node5 -->
<g id="edge4_Node000001_Node000005" class="edge">
<title>Node1&#45;&gt;Node5</title>
<g id="a_edge4_Node000001_Node000005"><a xlink:title=" ">
<path fill="none" stroke="orange" stroke-dasharray="5,2" d="M284.12,-651.53C286.88,-742.35 301.22,-1048.5 370,-1111.08 403.84,-1141.87 520.67,-1145.69 608,-1143.88"/>
<polygon fill="orange" stroke="orange" points="287.61,-651.21 283.83,-641.32 280.61,-651.41 287.61,-651.21"/>
</a>
</g>
<text text-anchor="start" x="380" y="-1158.08" font-family="Helvetica,sans-Serif" font-size="10.00" fill="grey"> &lt; psr::AnalysisPrinterBase</text>
<text text-anchor="middle" x="475" y="-1147.08" font-family="Helvetica,sans-Serif" font-size="10.00" fill="grey">&lt; IDEFeatureTaintAnalysisDomain &gt; &gt;</text>
</g>
<!-- Node6 -->
<g id="Node000006" class="node">
<title>Node6</title>
<g id="a_Node000006"><a xlink:href="classpsr_1_1MaybeUniquePtr.html" target="_top" xlink:title=" ">
<polygon fill="white" stroke="#666666" points="802,-1100.58 620,-1100.58 620,-1059.58 802,-1059.58 802,-1100.58"/>
<text text-anchor="start" x="628" y="-1088.58" font-family="Helvetica,sans-Serif" font-size="10.00">psr::MaybeUniquePtr</text>
<text text-anchor="start" x="628" y="-1077.58" font-family="Helvetica,sans-Serif" font-size="10.00">&lt; psr::AnalysisPrinterBase</text>
<text text-anchor="middle" x="711" y="-1066.58" font-family="Helvetica,sans-Serif" font-size="10.00">&lt; IDEGeneralizedLCADomain &gt; &gt;</text>
</a>
</g>
</g>
<!-- Node1&#45;&gt;Node6 -->
<g id="edge5_Node000001_Node000006" class="edge">
<title>Node1&#45;&gt;Node6</title>
<g id="a_edge5_Node000001_Node000006"><a xlink:title=" ">
<path fill="none" stroke="orange" stroke-dasharray="5,2" d="M284.77,-651.45C289.52,-734.99 309.19,-999.19 370,-1053.08 405.79,-1084.79 531.74,-1087.24 619.84,-1084.72"/>
<polygon fill="orange" stroke="orange" points="288.26,-651.12 284.22,-641.32 281.27,-651.5 288.26,-651.12"/>
</a>
</g>
<text text-anchor="start" x="392" y="-1099.08" font-family="Helvetica,sans-Serif" font-size="10.00" fill="grey"> &lt; psr::AnalysisPrinterBase</text>
<text text-anchor="middle" x="475" y="-1088.08" font-family="Helvetica,sans-Serif" font-size="10.00" fill="grey">&lt; IDEGeneralizedLCADomain &gt; &gt;</text>
</g>
<!-- Node7 -->
<g id="Node000007" class="node">
<title>Node7</title>
<g id="a_Node000007"><a xlink:href="classpsr_1_1MaybeUniquePtr.html" target="_top" xlink:title=" ">
<polygon fill="white" stroke="#666666" points="808,-1041.08 614,-1041.08 614,-989.08 808,-989.08 808,-1041.08"/>
<text text-anchor="start" x="622" y="-1029.08" font-family="Helvetica,sans-Serif" font-size="10.00">psr::MaybeUniquePtr</text>
<text text-anchor="start" x="622" y="-1018.08" font-family="Helvetica,sans-Serif" font-size="10.00">&lt; psr::AnalysisPrinterBase</text>
<text text-anchor="start" x="622" y="-1007.08" font-family="Helvetica,sans-Serif" font-size="10.00">&lt; IDEInstInteractionAnalysisDomain</text>
<text text-anchor="middle" x="711" y="-996.08" font-family="Helvetica,sans-Serif" font-size="10.00">&lt; std::string &gt; &gt; &gt;</text>
</a>
</g>
</g>
<!-- Node1&#45;&gt;Node7 -->
<g id="edge6_Node000001_Node000007" class="edge">
<title>Node1&#45;&gt;Node7</title>
<g id="a_edge6_Node000001_Node000007"><a xlink:title=" ">
<path fill="none" stroke="orange" stroke-dasharray="5,2" d="M285.97,-651.23C293.69,-724.51 319.94,-935.35 370,-979.08 405.26,-1009.88 526.17,-1016.39 613.78,-1016.85"/>
<polygon fill="orange" stroke="orange" points="289.43,-650.67 284.92,-641.08 282.46,-651.38 289.43,-650.67"/>
</a>
</g>
<text text-anchor="start" x="386" y="-1041.08" font-family="Helvetica,sans-Serif" font-size="10.00" fill="grey"> &lt; psr::AnalysisPrinterBase</text>
<text text-anchor="start" x="386" y="-1030.08" font-family="Helvetica,sans-Serif" font-size="10.00" fill="grey">&lt; IDEInstInteractionAnalysisDomain</text>
<text text-anchor="middle" x="475" y="-1019.08" font-family="Helvetica,sans-Serif" font-size="10.00" fill="grey">&lt; std::string &gt; &gt; &gt;</text>
</g>
<!-- Node8 -->
<g id="Node000008" class="node">
<title>Node8</title>
<g id="a_Node000008"><a xlink:href="classpsr_1_1MaybeUniquePtr.html" target="_top" xlink:title=" ">
<polygon fill="white" stroke="#666666" points="821,-970.58 601,-970.58 601,-929.58 821,-929.58 821,-970.58"/>
<text text-anchor="start" x="609" y="-958.58" font-family="Helvetica,sans-Serif" font-size="10.00">psr::MaybeUniquePtr</text>
<text text-anchor="start" x="609" y="-947.58" font-family="Helvetica,sans-Serif" font-size="10.00">&lt; psr::AnalysisPrinterBase</text>
<text text-anchor="middle" x="711" y="-936.58" font-family="Helvetica,sans-Serif" font-size="10.00">&lt; IDELinearConstantAnalysisDomain &gt; &gt;</text>
</a>
</g>
</g>
<!-- Node1&#45;&gt;Node8 -->
<g id="edge7_Node000001_Node000008" class="edge">
<title>Node1&#45;&gt;Node8</title>
<g id="a_edge7_Node000001_Node000008"><a xlink:title=" ">
<path fill="none" stroke="orange" stroke-dasharray="5,2" d="M287.25,-651.29C297.41,-716.01 327.59,-885.34 370,-920.08 404.32,-948.19 514.83,-953.68 600.65,-953.39"/>
<polygon fill="orange" stroke="orange" points="290.67,-650.51 285.69,-641.16 283.75,-651.58 290.67,-650.51"/>
</a>
</g>
<text text-anchor="start" x="373" y="-967.08" font-family="Helvetica,sans-Serif" font-size="10.00" fill="grey"> &lt; psr::AnalysisPrinterBase</text>
<text text-anchor="middle" x="475" y="-956.08" font-family="Helvetica,sans-Serif" font-size="10.00" fill="grey">&lt; IDELinearConstantAnalysisDomain &gt; &gt;</text>
</g>
<!-- Node9 -->
<g id="Node000009" class="node">
<title>Node9</title>
<g id="a_Node000009"><a xlink:href="classpsr_1_1MaybeUniquePtr.html" target="_top" xlink:title=" ">
<polygon fill="white" stroke="#666666" points="797,-911.58 625,-911.58 625,-870.58 797,-870.58 797,-911.58"/>
<text text-anchor="start" x="633" y="-899.58" font-family="Helvetica,sans-Serif" font-size="10.00">psr::MaybeUniquePtr</text>
<text text-anchor="start" x="633" y="-888.58" font-family="Helvetica,sans-Serif" font-size="10.00">&lt; psr::AnalysisPrinterBase</text>
<text text-anchor="middle" x="711" y="-877.58" font-family="Helvetica,sans-Serif" font-size="10.00">&lt; IDEProtoAnalysisDomain &gt; &gt;</text>
</a>
</g>
</g>
<!-- Node1&#45;&gt;Node9 -->
<g id="edge8_Node000001_Node000009" class="edge">
<title>Node1&#45;&gt;Node9</title>
<g id="a_edge8_Node000001_Node000009"><a xlink:title=" ">
<path fill="none" stroke="orange" stroke-dasharray="5,2" d="M284.29,-651.51C287.34,-701.5 301.87,-812.21 370,-864.08 408.63,-893.49 537.3,-896.3 624.8,-894.52"/>
<polygon fill="orange" stroke="orange" points="287.77,-651.07 283.77,-641.26 280.78,-651.42 287.77,-651.07"/>
</a>
</g>
<text text-anchor="start" x="397" y="-908.08" font-family="Helvetica,sans-Serif" font-size="10.00" fill="grey"> &lt; psr::AnalysisPrinterBase</text>
<text text-anchor="middle" x="475" y="-897.08" font-family="Helvetica,sans-Serif" font-size="10.00" fill="grey">&lt; IDEProtoAnalysisDomain &gt; &gt;</text>
</g>
<!-- Node10 -->
<g id="Node000010" class="node">
<title>Node10</title>
<g id="a_Node000010"><a xlink:href="classpsr_1_1MaybeUniquePtr.html" target="_top" xlink:title=" ">
<polygon fill="white" stroke="#666666" points="812.5,-852.08 609.5,-852.08 609.5,-800.08 812.5,-800.08 812.5,-852.08"/>
<text text-anchor="start" x="617.5" y="-840.08" font-family="Helvetica,sans-Serif" font-size="10.00">psr::MaybeUniquePtr</text>
<text text-anchor="start" x="617.5" y="-829.08" font-family="Helvetica,sans-Serif" font-size="10.00">&lt; psr::AnalysisPrinterBase</text>
<text text-anchor="start" x="617.5" y="-818.08" font-family="Helvetica,sans-Serif" font-size="10.00">&lt; IDESecureHeapPropagationAnalysis</text>
<text text-anchor="middle" x="711" y="-807.08" font-family="Helvetica,sans-Serif" font-size="10.00">Domain &gt; &gt;</text>
</a>
</g>
</g>
<!-- Node1&#45;&gt;Node10 -->
<g id="edge9_Node000001_Node000010" class="edge">
<title>Node1&#45;&gt;Node10</title>
<g id="a_edge9_Node000001_Node000010"><a xlink:title=" ">
<path fill="none" stroke="orange" stroke-dasharray="5,2" d="M288.18,-651.09C296.84,-689.69 319.34,-762.88 370,-797.08 407.81,-822.6 523.17,-827.91 609.09,-828.09"/>
<polygon fill="orange" stroke="orange" points="291.58,-650.25 286.09,-641.18 284.73,-651.69 291.58,-650.25"/>
</a>
</g>
<text text-anchor="start" x="381.5" y="-852.08" font-family="Helvetica,sans-Serif" font-size="10.00" fill="grey"> &lt; psr::AnalysisPrinterBase</text>
<text text-anchor="start" x="381.5" y="-841.08" font-family="Helvetica,sans-Serif" font-size="10.00" fill="grey">&lt; IDESecureHeapPropagationAnalysis</text>
<text text-anchor="middle" x="475" y="-830.08" font-family="Helvetica,sans-Serif" font-size="10.00" fill="grey">Domain &gt; &gt;</text>
</g>
<!-- Node11 -->
<g id="Node000011" class="node">
<title>Node11</title>
<g id="a_Node000011"><a xlink:href="classpsr_1_1MaybeUniquePtr.html" target="_top" xlink:title=" ">
<polygon fill="white" stroke="#666666" points="809.5,-781.58 612.5,-781.58 612.5,-740.58 809.5,-740.58 809.5,-781.58"/>
<text text-anchor="start" x="620.5" y="-769.58" font-family="Helvetica,sans-Serif" font-size="10.00">psr::MaybeUniquePtr</text>
<text text-anchor="start" x="620.5" y="-758.58" font-family="Helvetica,sans-Serif" font-size="10.00">&lt; psr::AnalysisPrinterBase</text>
<text text-anchor="middle" x="711" y="-747.58" font-family="Helvetica,sans-Serif" font-size="10.00">&lt; IDESolverTestAnalysisDomain &gt; &gt;</text>
</a>
</g>
</g>
<!-- Node1&#45;&gt;Node11 -->
<g id="edge10_Node000001_Node000011" class="edge">
<title>Node1&#45;&gt;Node11</title>
<g id="a_edge10_Node000001_Node000011"><a xlink:title=" ">
<path fill="none" stroke="orange" stroke-dasharray="5,2" d="M296.07,-649.91C310.39,-674.4 336.26,-711.38 370,-729.08 444.56,-768.18 541.01,-773.75 612.13,-770.96"/>
<polygon fill="orange" stroke="orange" points="299.11,-648.19 291.15,-641.2 293.02,-651.63 299.11,-648.19"/>
</a>
</g>
<text text-anchor="start" x="384.5" y="-785.08" font-family="Helvetica,sans-Serif" font-size="10.00" fill="grey"> &lt; psr::AnalysisPrinterBase</text>
<text text-anchor="middle" x="475" y="-774.08" font-family="Helvetica,sans-Serif" font-size="10.00" fill="grey">&lt; IDESolverTestAnalysisDomain &gt; &gt;</text>
</g>
<!-- Node12 -->
<g id="Node000012" class="node">
<title>Node12</title>
<g id="a_Node000012"><a xlink:href="classpsr_1_1MaybeUniquePtr.html" target="_top" xlink:title=" ">
<polygon fill="white" stroke="#666666" points="799,-722.08 623,-722.08 623,-670.08 799,-670.08 799,-722.08"/>
<text text-anchor="start" x="631" y="-710.08" font-family="Helvetica,sans-Serif" font-size="10.00">psr::MaybeUniquePtr</text>
<text text-anchor="start" x="631" y="-699.08" font-family="Helvetica,sans-Serif" font-size="10.00">&lt; psr::AnalysisPrinterBase</text>
<text text-anchor="start" x="631" y="-688.08" font-family="Helvetica,sans-Serif" font-size="10.00">&lt; IDETypeStateAnalysisDomain</text>
<text text-anchor="middle" x="711" y="-677.08" font-family="Helvetica,sans-Serif" font-size="10.00">&lt; TypeStateDescriptionTy &gt; &gt; &gt;</text>
</a>
</g>
</g>
<!-- Node1&#45;&gt;Node12 -->
<g id="edge11_Node000001_Node000012" class="edge">
<title>Node1&#45;&gt;Node12</title>
<g id="a_edge11_Node000001_Node000012"><a xlink:title=" ">
<path fill="none" stroke="orange" stroke-dasharray="5,2" d="M321.99,-645.55C336.67,-652.16 353.77,-658.93 370,-663.08 454.17,-684.61 553.35,-692.31 622.8,-694.95"/>
<polygon fill="orange" stroke="orange" points="323.28,-642.29 312.73,-641.25 320.33,-648.64 323.28,-642.29"/>
</a>
</g>
<text text-anchor="start" x="395" y="-717.08" font-family="Helvetica,sans-Serif" font-size="10.00" fill="grey"> &lt; psr::AnalysisPrinterBase</text>
<text text-anchor="start" x="395" y="-706.08" font-family="Helvetica,sans-Serif" font-size="10.00" fill="grey">&lt; IDETypeStateAnalysisDomain</text>
<text text-anchor="middle" x="475" y="-695.08" font-family="Helvetica,sans-Serif" font-size="10.00" fill="grey">&lt; TypeStateDescriptionTy &gt; &gt; &gt;</text>
</g>
<!-- Node13 -->
<g id="Node000013" class="node">
<title>Node13</title>
<g id="a_Node000013"><a xlink:href="classpsr_1_1MaybeUniquePtr.html" target="_top" xlink:title=" ">
<polygon fill="white" stroke="#666666" points="787,-652.08 635,-652.08 635,-600.08 787,-600.08 787,-652.08"/>
<text text-anchor="start" x="643" y="-640.08" font-family="Helvetica,sans-Serif" font-size="10.00">psr::MaybeUniquePtr</text>
<text text-anchor="start" x="643" y="-629.08" font-family="Helvetica,sans-Serif" font-size="10.00">&lt; psr::AnalysisPrinterBase</text>
<text text-anchor="start" x="643" y="-618.08" font-family="Helvetica,sans-Serif" font-size="10.00">&lt; WithBinaryValueDomain</text>
<text text-anchor="middle" x="711" y="-607.08" font-family="Helvetica,sans-Serif" font-size="10.00">&lt; AnalysisDomainTy &gt; &gt; &gt;</text>
</a>
</g>
</g>
<!-- Node1&#45;&gt;Node13 -->
<g id="edge12_Node000001_Node000013" class="edge">
<title>Node1&#45;&gt;Node13</title>
<g id="a_edge12_Node000001_Node000013"><a xlink:title=" ">
<path fill="none" stroke="orange" stroke-dasharray="5,2" d="M362.25,-626.08C440.07,-626.08 558.27,-626.08 634.82,-626.08"/>
<polygon fill="orange" stroke="orange" points="362.02,-622.58 352.02,-626.08 362.02,-629.58 362.02,-622.58"/>
</a>
</g>
<text text-anchor="start" x="407" y="-651.08" font-family="Helvetica,sans-Serif" font-size="10.00" fill="grey"> &lt; psr::AnalysisPrinterBase</text>
<text text-anchor="start" x="407" y="-640.08" font-family="Helvetica,sans-Serif" font-size="10.00" fill="grey">&lt; WithBinaryValueDomain</text>
<text text-anchor="middle" x="475" y="-629.08" font-family="Helvetica,sans-Serif" font-size="10.00" fill="grey">&lt; AnalysisDomainTy &gt; &gt; &gt;</text>
</g>
<!-- Node14 -->
<g id="Node000014" class="node">
<title>Node14</title>
<g id="a_Node000014"><a xlink:href="classpsr_1_1MaybeUniquePtr.html" target="_top" xlink:title=" ">
<polygon fill="white" stroke="#666666" points="784,-581.58 638,-581.58 638,-540.58 784,-540.58 784,-581.58"/>
<text text-anchor="start" x="646" y="-569.58" font-family="Helvetica,sans-Serif" font-size="10.00">psr::MaybeUniquePtr</text>
<text text-anchor="start" x="646" y="-558.58" font-family="Helvetica,sans-Serif" font-size="10.00">&lt; psr::AnalysisPrinterBase</text>
<text text-anchor="middle" x="711" y="-547.58" font-family="Helvetica,sans-Serif" font-size="10.00">&lt; AnalysisDomainTy &gt; &gt;</text>
</a>
</g>
</g>
<!-- Node1&#45;&gt;Node14 -->
<g id="edge13_Node000001_Node000014" class="edge">
<title>Node1&#45;&gt;Node14</title>
<g id="a_edge13_Node000001_Node000014"><a xlink:title=" ">
<path fill="none" stroke="orange" stroke-dasharray="5,2" d="M337.61,-608.21C348.26,-605.15 359.42,-602.26 370,-600.08 461.36,-581.26 568.54,-570.86 637.78,-565.62"/>
<polygon fill="orange" stroke="orange" points="336.6,-604.86 328.01,-611.05 338.59,-611.57 336.6,-604.86"/>
</a>
</g>
<text text-anchor="start" x="408.5" y="-614.08" font-family="Helvetica,sans-Serif" font-size="10.00" fill="grey"> &lt; psr::AnalysisPrinterBase</text>
<text text-anchor="middle" x="475" y="-603.08" font-family="Helvetica,sans-Serif" font-size="10.00" fill="grey">&lt; AnalysisDomainTy &gt; &gt;</text>
</g>
<!-- Node15 -->
<g id="Node000015" class="node">
<title>Node15</title>
<g id="a_Node000015"><a xlink:href="classpsr_1_1MaybeUniquePtr.html" target="_top" xlink:title=" ">
<polygon fill="white" stroke="#666666" points="818.5,-522.58 603.5,-522.58 603.5,-481.58 818.5,-481.58 818.5,-522.58"/>
<text text-anchor="start" x="611.5" y="-510.58" font-family="Helvetica,sans-Serif" font-size="10.00">psr::MaybeUniquePtr</text>
<text text-anchor="start" x="611.5" y="-499.58" font-family="Helvetica,sans-Serif" font-size="10.00">&lt; psr::AnalysisPrinterBase</text>
<text text-anchor="middle" x="711" y="-488.58" font-family="Helvetica,sans-Serif" font-size="10.00">&lt; IDEExtendedTaintAnalysisDomain &gt; &gt;</text>
</a>
</g>
</g>
<!-- Node1&#45;&gt;Node15 -->
<g id="edge14_Node000001_Node000015" class="edge">
<title>Node1&#45;&gt;Node15</title>
<g id="a_edge14_Node000001_Node000015"><a xlink:title=" ">
<path fill="none" stroke="orange" stroke-dasharray="5,2" d="M301.12,-602.93C316.94,-583.99 341.94,-558.26 370,-545.08 442.97,-510.8 533.95,-500.76 603.43,-498.91"/>
<polygon fill="orange" stroke="orange" points="298.3,-600.85 294.72,-610.83 303.74,-605.26 298.3,-600.85"/>
</a>
</g>
<text text-anchor="start" x="375.5" y="-559.08" font-family="Helvetica,sans-Serif" font-size="10.00" fill="grey"> &lt; psr::AnalysisPrinterBase</text>
<text text-anchor="middle" x="475" y="-548.08" font-family="Helvetica,sans-Serif" font-size="10.00" fill="grey">&lt; IDEExtendedTaintAnalysisDomain &gt; &gt;</text>
</g>
<!-- Node16 -->
<g id="Node000016" class="node">
<title>Node16</title>
<g id="a_Node000016"><a xlink:href="classpsr_1_1MaybeUniquePtr.html" target="_top" xlink:title=" ">
<polygon fill="white" stroke="#666666" points="806.5,-463.58 615.5,-463.58 615.5,-422.58 806.5,-422.58 806.5,-463.58"/>
<text text-anchor="start" x="623.5" y="-451.58" font-family="Helvetica,sans-Serif" font-size="10.00">psr::MaybeUniquePtr</text>
<text text-anchor="start" x="623.5" y="-440.58" font-family="Helvetica,sans-Serif" font-size="10.00">&lt; const psr::DIBasedTypeHierarchy,</text>
<text text-anchor="middle" x="711" y="-429.58" font-family="Helvetica,sans-Serif" font-size="10.00"> true &gt;</text>
</a>
</g>
</g>
<!-- Node1&#45;&gt;Node16 -->
<g id="edge15_Node000001_Node000016" class="edge">
<title>Node1&#45;&gt;Node16</title>
<g id="a_edge15_Node000001_Node000016"><a xlink:title=" ">
<path fill="none" stroke="orange" stroke-dasharray="5,2" d="M290.01,-600.99C300.49,-566.19 324.65,-504.28 370,-475.08 442.52,-428.37 542.44,-424.42 615.18,-429.71"/>
<polygon fill="orange" stroke="orange" points="286.58,-600.27 287.19,-610.85 293.31,-602.2 286.58,-600.27"/>
</a>
</g>
<text text-anchor="start" x="411" y="-489.08" font-family="Helvetica,sans-Serif" font-size="10.00" fill="grey"> &lt; const psr::DIBasedType</text>
<text text-anchor="middle" x="475" y="-478.08" font-family="Helvetica,sans-Serif" font-size="10.00" fill="grey">Hierarchy, true &gt;</text>
</g>
<!-- Node17 -->
<g id="Node000017" class="node">
<title>Node17</title>
<g id="a_Node000017"><a xlink:href="classpsr_1_1MaybeUniquePtr.html" target="_top" xlink:title=" ">
<polygon fill="white" stroke="#666666" points="770.5,-404.58 651.5,-404.58 651.5,-363.58 770.5,-363.58 770.5,-404.58"/>
<text text-anchor="start" x="659.5" y="-392.58" font-family="Helvetica,sans-Serif" font-size="10.00">psr::MaybeUniquePtr</text>
<text text-anchor="start" x="659.5" y="-381.58" font-family="Helvetica,sans-Serif" font-size="10.00">&lt; psr::LLVMAliasSet,</text>
<text text-anchor="middle" x="711" y="-370.58" font-family="Helvetica,sans-Serif" font-size="10.00"> true &gt;</text>
</a>
</g>
</g>
<!-- Node1&#45;&gt;Node17 -->
<g id="edge16_Node000001_Node000017" class="edge">
<title>Node1&#45;&gt;Node17</title>
<g id="a_edge16_Node000001_Node000017"><a xlink:title=" ">
<path fill="none" stroke="orange" stroke-dasharray="5,2" d="M284.78,-600.96C288.71,-553.11 304.73,-449.43 370,-402.08 452.54,-342.2 578.22,-354.85 651.42,-369.46"/>
<polygon fill="orange" stroke="orange" points="281.28,-600.85 284.06,-611.08 288.26,-601.35 281.28,-600.85"/>
</a>
</g>
<text text-anchor="start" x="423" y="-416.08" font-family="Helvetica,sans-Serif" font-size="10.00" fill="grey"> &lt; psr::LLVMAliasSet,</text>
<text text-anchor="middle" x="475" y="-405.08" font-family="Helvetica,sans-Serif" font-size="10.00" fill="grey"> true &gt;</text>
</g>
<!-- Node18 -->
<g id="Node000018" class="node">
<title>Node18</title>
<g id="a_Node000018"><a xlink:href="classpsr_1_1MaybeUniquePtr.html" target="_top" xlink:title=" ">
<polygon fill="white" stroke="#666666" points="770.5,-345.08 651.5,-345.08 651.5,-315.08 770.5,-315.08 770.5,-345.08"/>
<text text-anchor="start" x="659.5" y="-333.08" font-family="Helvetica,sans-Serif" font-size="10.00">psr::MaybeUniquePtr</text>
<text text-anchor="middle" x="711" y="-322.08" font-family="Helvetica,sans-Serif" font-size="10.00">&lt; z3::context &gt;</text>
</a>
</g>
</g>
<!-- Node1&#45;&gt;Node18 -->
<g id="edge17_Node000001_Node000018" class="edge">
<title>Node1&#45;&gt;Node18</title>
<g id="a_edge17_Node000001_Node000018"><a xlink:title=" ">
<path fill="none" stroke="orange" stroke-dasharray="5,2" d="M287.44,-600.81C297.87,-537.56 328.25,-375.23 370,-343.08 412.47,-310.37 565.63,-317.51 651.17,-324.43"/>
<polygon fill="orange" stroke="orange" points="283.98,-600.31 285.84,-610.74 290.89,-601.43 283.98,-600.31"/>
</a>
</g>
<text text-anchor="middle" x="475" y="-346.08" font-family="Helvetica,sans-Serif" font-size="10.00" fill="grey"> &lt; z3::context &gt;</text>
</g>
<!-- Node19 -->
<g id="Node000019" class="node">
<title>Node19</title>
<g id="a_Node000019"><a xlink:href="classpsr_1_1MaybeUniquePtr.html" target="_top" xlink:title=" ">
<polygon fill="white" stroke="#666666" points="770.5,-297.08 651.5,-297.08 651.5,-267.08 770.5,-267.08 770.5,-297.08"/>
<text text-anchor="start" x="659.5" y="-285.08" font-family="Helvetica,sans-Serif" font-size="10.00">psr::MaybeUniquePtr</text>
<text text-anchor="middle" x="711" y="-274.08" font-family="Helvetica,sans-Serif" font-size="10.00">&lt; llvm::Module &gt;</text>
</a>
</g>
</g>
<!-- Node1&#45;&gt;Node19 -->
<g id="edge18_Node000001_Node000019" class="edge">
<title>Node1&#45;&gt;Node19</title>
<g id="a_edge18_Node000001_Node000019"><a xlink:title=" ">
<path fill="none" stroke="orange" stroke-dasharray="5,2" d="M286.53,-600.74C295.34,-531.6 323.36,-342.3 370,-304.08 449.27,-239.12 576.96,-252.01 651.24,-267.13"/>
<polygon fill="orange" stroke="orange" points="283.04,-600.41 285.28,-610.76 289.99,-601.27 283.04,-600.41"/>
</a>
</g>
<text text-anchor="middle" x="475" y="-307.08" font-family="Helvetica,sans-Serif" font-size="10.00" fill="grey"> &lt; llvm::Module &gt;</text>
</g>
<!-- Node20 -->
<g id="Node000020" class="node">
<title>Node20</title>
<g id="a_Node000020"><a xlink:href="classpsr_1_1MaybeUniquePtr.html" target="_top" xlink:title=" ">
<polygon fill="white" stroke="#666666" points="776.5,-249.08 645.5,-249.08 645.5,-219.08 776.5,-219.08 776.5,-249.08"/>
<text text-anchor="start" x="653.5" y="-237.08" font-family="Helvetica,sans-Serif" font-size="10.00">psr::MaybeUniquePtr</text>
<text text-anchor="middle" x="711" y="-226.08" font-family="Helvetica,sans-Serif" font-size="10.00">&lt; llvm::raw_ostream &gt;</text>
</a>
</g>
</g>
<!-- Node1&#45;&gt;Node20 -->
<g id="edge19_Node000001_Node000020" class="edge">
<title>Node1&#45;&gt;Node20</title>
<g id="a_edge19_Node000001_Node000020"><a xlink:title=" ">
<path fill="none" stroke="orange" stroke-dasharray="5,2" d="M285.24,-600.48C291.17,-521.82 313.43,-286.2 370,-240.08 410.61,-206.97 558.36,-216.89 645.15,-226.09"/>
<polygon fill="orange" stroke="orange" points="281.72,-600.67 284.48,-610.9 288.7,-601.18 281.72,-600.67"/>
</a>
</g>
<text text-anchor="middle" x="475" y="-243.08" font-family="Helvetica,sans-Serif" font-size="10.00" fill="grey"> &lt; llvm::raw_ostream &gt;</text>
</g>
<!-- Node21 -->
<g id="Node000021" class="node">
<title>Node21</title>
<g id="a_Node000021"><a xlink:href="classpsr_1_1MaybeUniquePtr.html" target="_top" xlink:title=" ">
<polygon fill="white" stroke="#666666" points="821,-201.08 601,-201.08 601,-149.08 821,-149.08 821,-201.08"/>
<text text-anchor="start" x="609" y="-189.08" font-family="Helvetica,sans-Serif" font-size="10.00">psr::MaybeUniquePtr</text>
<text text-anchor="start" x="609" y="-178.08" font-family="Helvetica,sans-Serif" font-size="10.00">&lt; psr::AnalysisPrinterBase</text>
<text text-anchor="start" x="609" y="-167.08" font-family="Helvetica,sans-Serif" font-size="10.00">&lt; psr::IDETypeStateAnalysisDomain</text>
<text text-anchor="middle" x="711" y="-156.08" font-family="Helvetica,sans-Serif" font-size="10.00">&lt; psr::OpenSSLEVPKDFDescription &gt; &gt; &gt;</text>
</a>
</g>
</g>
<!-- Node1&#45;&gt;Node21 -->
<g id="edge20_Node000001_Node000021" class="edge">
<title>Node1&#45;&gt;Node21</title>
<g id="a_edge20_Node000001_Node000021"><a xlink:title=" ">
<path fill="none" stroke="orange" stroke-dasharray="5,2" d="M284.41,-600.92C288.07,-515.04 304.88,-235.73 370,-181.08 403.92,-152.61 514.82,-155.45 600.84,-162.67"/>
<polygon fill="orange" stroke="orange" points="280.9,-600.93 284,-611.06 287.9,-601.21 280.9,-600.93"/>
</a>
</g>
<text text-anchor="start" x="373" y="-206.08" font-family="Helvetica,sans-Serif" font-size="10.00" fill="grey"> &lt; psr::AnalysisPrinterBase</text>
<text text-anchor="start" x="373" y="-195.08" font-family="Helvetica,sans-Serif" font-size="10.00" fill="grey">&lt; psr::IDETypeStateAnalysisDomain</text>
<text text-anchor="middle" x="475" y="-184.08" font-family="Helvetica,sans-Serif" font-size="10.00" fill="grey">&lt; psr::OpenSSLEVPKDFDescription &gt; &gt; &gt;</text>
</g>
<!-- Node22 -->
<g id="Node000022" class="node">
<title>Node22</title>
<g id="a_Node000022"><a xlink:href="classpsr_1_1MaybeUniquePtr.html" target="_top" xlink:title=" ">
<polygon fill="white" stroke="#666666" points="802,-131.08 620,-131.08 620,-79.08 802,-79.08 802,-131.08"/>
<text text-anchor="start" x="628" y="-119.08" font-family="Helvetica,sans-Serif" font-size="10.00">psr::MaybeUniquePtr</text>
<text text-anchor="start" x="628" y="-108.08" font-family="Helvetica,sans-Serif" font-size="10.00">&lt; psr::AnalysisPrinterBase</text>
<text text-anchor="start" x="628" y="-97.08" font-family="Helvetica,sans-Serif" font-size="10.00">&lt; psr::IDESecureHeapPropagation</text>
<text text-anchor="middle" x="711" y="-86.08" font-family="Helvetica,sans-Serif" font-size="10.00">AnalysisDomain &gt; &gt;</text>
</a>
</g>
</g>
<!-- Node1&#45;&gt;Node22 -->
<g id="edge21_Node000001_Node000022" class="edge">
<title>Node1&#45;&gt;Node22</title>
<g id="a_edge21_Node000001_Node000022"><a xlink:title=" ">
<path fill="none" stroke="orange" stroke-dasharray="5,2" d="M283.84,-600.73C285.67,-507.45 297.25,-185.42 370,-121.08 437.06,-61.77 543.83,-67.06 619.82,-81.25"/>
<polygon fill="orange" stroke="orange" points="280.34,-600.87 283.66,-610.93 287.34,-601 280.34,-600.87"/>
</a>
</g>
<text text-anchor="start" x="392" y="-146.08" font-family="Helvetica,sans-Serif" font-size="10.00" fill="grey"> &lt; psr::AnalysisPrinterBase</text>
<text text-anchor="start" x="392" y="-135.08" font-family="Helvetica,sans-Serif" font-size="10.00" fill="grey">&lt; psr::IDESecureHeapPropagation</text>
<text text-anchor="middle" x="475" y="-124.08" font-family="Helvetica,sans-Serif" font-size="10.00" fill="grey">AnalysisDomain &gt; &gt;</text>
</g>
<!-- Node23 -->
<g id="Node000023" class="node">
<title>Node23</title>
<g id="a_Node000023"><a xlink:href="classpsr_1_1MaybeUniquePtr.html" target="_top" xlink:title=" ">
<polygon fill="white" stroke="#666666" points="788,-60.58 634,-60.58 634,-19.58 788,-19.58 788,-60.58"/>
<text text-anchor="start" x="642" y="-48.58" font-family="Helvetica,sans-Serif" font-size="10.00">psr::MaybeUniquePtr</text>
<text text-anchor="start" x="642" y="-37.58" font-family="Helvetica,sans-Serif" font-size="10.00">&lt; psr::LLVMPathConstraints,</text>
<text text-anchor="middle" x="711" y="-26.58" font-family="Helvetica,sans-Serif" font-size="10.00"> true &gt;</text>
</a>
</g>
</g>
<!-- Node1&#45;&gt;Node23 -->
<g id="edge22_Node000001_Node000023" class="edge">
<title>Node1&#45;&gt;Node23</title>
<g id="a_edge22_Node000001_Node000023"><a xlink:title=" ">
<path fill="none" stroke="orange" stroke-dasharray="5,2" d="M283.17,-600.63C282.41,-498.5 285.45,-120.26 370,-46.08 445.77,20.41 571.72,0.87 647.21,-19.51"/>
<polygon fill="orange" stroke="orange" points="279.67,-600.96 283.26,-610.92 286.67,-600.89 279.67,-600.96"/>
</a>
</g>
<text text-anchor="start" x="404.5" y="-60.08" font-family="Helvetica,sans-Serif" font-size="10.00" fill="grey"> &lt; psr::LLVMPathConstraints,</text>
<text text-anchor="middle" x="475" y="-49.08" font-family="Helvetica,sans-Serif" font-size="10.00" fill="grey"> true &gt;</text>
</g>
<!-- Node2 -->
<g id="Node000002" class="node">
<title>Node2</title>
<g id="a_Node000002"><a xlink:title=" ">
<polygon fill="white" stroke="#666666" points="176,-641.08 0,-641.08 0,-611.08 176,-611.08 176,-641.08"/>
<text text-anchor="start" x="8" y="-629.08" font-family="Helvetica,sans-Serif" font-size="10.00">psr::detail::MaybeUnique</text>
<text text-anchor="middle" x="88" y="-618.08" font-family="Helvetica,sans-Serif" font-size="10.00">PtrBase&lt; T, RequireAlignment &gt;</text>
</a>
</g>
</g>
<!-- Node2&#45;&gt;Node1 -->
<g id="edge1_Node000001_Node000002" class="edge">
<title>Node2&#45;&gt;Node1</title>
<g id="a_edge1_Node000001_Node000002"><a xlink:title=" ">
<path fill="none" stroke="#8b1a1a" d="M186.3,-626.08C195.23,-626.08 204.14,-626.08 212.73,-626.08"/>
<polygon fill="#8b1a1a" stroke="#8b1a1a" points="186.24,-622.58 176.24,-626.08 186.24,-629.58 186.24,-622.58"/>
</a>
</g>
</g>
</g>
</svg>
