<?xml version="1.0" encoding="UTF-8" standalone="no"?>
<!DOCTYPE svg PUBLIC "-//W3C//DTD SVG 1.1//EN"
 "http://www.w3.org/Graphics/SVG/1.1/DTD/svg11.dtd">
<!-- Generated by graphviz version 2.43.0 (0)
 -->
<!-- Title: psr::PointsToInfoRef&lt; PTATraits, std::enable_if_t&lt; is_PointsToTraits_v&lt; PTATraits &gt; &gt; &gt; Pages: 1 -->
<svg width="307pt" height="271pt"
 viewBox="0.00 0.00 307.00 271.00" xmlns="http://www.w3.org/2000/svg" xmlns:xlink="http://www.w3.org/1999/xlink">
<g id="graph0" class="graph" transform="scale(1 1) rotate(0) translate(4 267)">
<title>psr::PointsToInfoRef&lt; PTATraits, std::enable_if_t&lt; is_PointsToTraits_v&lt; PTATraits &gt; &gt; &gt;</title>
<!-- Node1 -->
<g id="Node000001" class="node">
<title>Node1</title>
<g id="a_Node000001"><a xlink:title=" ">
<polygon fill="#999999" stroke="#666666" points="185,-52 54,-52 54,0 185,0 185,-52"/>
<text text-anchor="start" x="62" y="-40" font-family="Helvetica,sans-Serif" font-size="10.00">psr::PointsToInfoRef</text>
<text text-anchor="start" x="62" y="-29" font-family="Helvetica,sans-Serif" font-size="10.00">&lt; PTATraits, std::enable</text>
<text text-anchor="start" x="62" y="-18" font-family="Helvetica,sans-Serif" font-size="10.00">_if_t&lt; is_PointsToTraits</text>
<text text-anchor="middle" x="119.5" y="-7" font-family="Helvetica,sans-Serif" font-size="10.00">_v&lt; PTATraits &gt; &gt; &gt;</text>
</a>
</g>
</g>
<!-- Node2 -->
<g id="Node000002" class="node">
<title>Node2</title>
<g id="a_Node000002"><a xlink:href="classpsr_1_1PointsToInfoBase.html" target="_top" xlink:title=" ">
<polygon fill="white" stroke="#666666" points="210,-119 29,-119 29,-89 210,-89 210,-119"/>
<text text-anchor="start" x="37" y="-107" font-family="Helvetica,sans-Serif" font-size="10.00">psr::PointsToInfoBase</text>
<text text-anchor="middle" x="119.5" y="-96" font-family="Helvetica,sans-Serif" font-size="10.00">&lt; PointsToInfoRef&lt; PTATraits &gt; &gt;</text>
</a>
</g>
</g>
<!-- Node2&#45;&gt;Node1 -->
<g id="edge1_Node000001_Node000002" class="edge">
<title>Node2&#45;&gt;Node1</title>
<g id="a_edge1_Node000001_Node000002"><a xlink:title=" ">
<path fill="none" stroke="#63b8ff" d="M119.5,-78.64C119.5,-70.13 119.5,-60.57 119.5,-52"/>
<polygon fill="#63b8ff" stroke="#63b8ff" points="116,-78.7 119.5,-88.7 123,-78.71 116,-78.7"/>
</a>
</g>
</g>
<!-- Node3 -->
<g id="Node000003" class="node">
<title>Node3</title>
<g id="a_Node000003"><a xlink:href="classpsr_1_1CRTPBase.html" target="_top" xlink:title=" ">
<polygon fill="white" stroke="#666666" points="147,-201.5 0,-201.5 0,-182.5 147,-182.5 147,-201.5"/>
<text text-anchor="middle" x="73.5" y="-189.5" font-family="Helvetica,sans-Serif" font-size="10.00">psr::CRTPBase&lt; Derived &gt;</text>
</a>
</g>
</g>
<!-- Node3&#45;&gt;Node2 -->
<g id="edge2_Node000002_Node000003" class="edge">
<title>Node3&#45;&gt;Node2</title>
<g id="a_edge2_Node000002_Node000003"><a xlink:title=" ">
<path fill="none" stroke="#63b8ff" d="M82.82,-173.57C91.39,-157.55 103.94,-134.1 111.91,-119.2"/>
<polygon fill="#63b8ff" stroke="#63b8ff" points="79.71,-171.97 78.08,-182.44 85.88,-175.27 79.71,-171.97"/>
</a>
</g>
</g>
<!-- Node4 -->
<g id="Node000004" class="node">
<title>Node4</title>
<g id="a_Node000004"><a xlink:href="classpsr_1_1PointsToInfoBase.html" target="_top" xlink:title=" ">
<polygon fill="white" stroke="#666666" points="286,-207 165,-207 165,-177 286,-177 286,-207"/>
<text text-anchor="start" x="173" y="-195" font-family="Helvetica,sans-Serif" font-size="10.00">psr::PointsToInfoBase</text>
<text text-anchor="middle" x="225.5" y="-184" font-family="Helvetica,sans-Serif" font-size="10.00">&lt; Derived &gt;</text>
</a>
</g>
</g>
<!-- Node4&#45;&gt;Node2 -->
<g id="edge3_Node000002_Node000004" class="edge">
<title>Node4&#45;&gt;Node2</title>
<g id="a_edge3_Node000002_Node000004"><a xlink:title=" ">
<path fill="none" stroke="orange" stroke-dasharray="5,2" d="M200.11,-170.4C180.63,-154.59 154.22,-133.17 137.03,-119.22"/>
<polygon fill="orange" stroke="orange" points="198.03,-173.22 208,-176.8 202.44,-167.78 198.03,-173.22"/>
</a>
</g>
<text text-anchor="start" x="184.5" y="-151" font-family="Helvetica,sans-Serif" font-size="10.00" fill="grey"> &lt; PointsToInfoRef&lt;</text>
<text text-anchor="middle" x="234" y="-140" font-family="Helvetica,sans-Serif" font-size="10.00" fill="grey"> PTATraits &gt; &gt;</text>
</g>
<!-- Node5 -->
<g id="Node000005" class="node">
<title>Node5</title>
<g id="a_Node000005"><a xlink:href="classpsr_1_1CRTPBase.html" target="_top" xlink:title=" ">
<polygon fill="white" stroke="#666666" points="299,-263 152,-263 152,-244 299,-244 299,-263"/>
<text text-anchor="middle" x="225.5" y="-251" font-family="Helvetica,sans-Serif" font-size="10.00">psr::CRTPBase&lt; Derived &gt;</text>
</a>
</g>
</g>
<!-- Node5&#45;&gt;Node4 -->
<g id="edge4_Node000004_Node000005" class="edge">
<title>Node5&#45;&gt;Node4</title>
<g id="a_edge4_Node000004_Node000005"><a xlink:title=" ">
<path fill="none" stroke="#63b8ff" d="M225.5,-233.73C225.5,-225.09 225.5,-215 225.5,-207.02"/>
<polygon fill="#63b8ff" stroke="#63b8ff" points="222,-233.98 225.5,-243.98 229,-233.98 222,-233.98"/>
</a>
</g>
</g>
</g>
</svg>
