<?xml version="1.0" encoding="UTF-8" standalone="no"?>
<!DOCTYPE svg PUBLIC "-//W3C//DTD SVG 1.1//EN"
 "http://www.w3.org/Graphics/SVG/1.1/DTD/svg11.dtd">
<!-- Generated by graphviz version 2.43.0 (0)
 -->
<!-- Title: psr::StableVector&lt; T, Allocator &gt; Pages: 1 -->
<svg width="458pt" height="274pt"
 viewBox="0.00 0.00 458.00 274.00" xmlns="http://www.w3.org/2000/svg" xmlns:xlink="http://www.w3.org/1999/xlink">
<g id="graph0" class="graph" transform="scale(1 1) rotate(0) translate(4 270)">
<title>psr::StableVector&lt; T, Allocator &gt;</title>
<!-- Node1 -->
<g id="Node000001" class="node">
<title>Node1</title>
<g id="a_Node000001"><a xlink:title=" ">
<polygon fill="#999999" stroke="#666666" points="107,-159 0,-159 0,-129 107,-129 107,-159"/>
<text text-anchor="start" x="8" y="-147" font-family="Helvetica,sans-Serif" font-size="10.00">psr::StableVector&lt;</text>
<text text-anchor="middle" x="53.5" y="-136" font-family="Helvetica,sans-Serif" font-size="10.00"> T, Allocator &gt;</text>
</a>
</g>
</g>
<!-- Node2 -->
<g id="Node000002" class="node">
<title>Node2</title>
<g id="a_Node000002"><a xlink:href="classpsr_1_1StableVector.html" target="_top" xlink:title=" ">
<polygon fill="white" stroke="#666666" points="421,-266 314,-266 314,-236 421,-236 421,-266"/>
<text text-anchor="start" x="322" y="-254" font-family="Helvetica,sans-Serif" font-size="10.00">psr::StableVector&lt;</text>
<text text-anchor="middle" x="367.5" y="-243" font-family="Helvetica,sans-Serif" font-size="10.00"> AliasSetTy * &gt;</text>
</a>
</g>
</g>
<!-- Node1&#45;&gt;Node2 -->
<g id="edge1_Node000001_Node000002" class="edge">
<title>Node1&#45;&gt;Node2</title>
<g id="a_edge1_Node000001_Node000002"><a xlink:title=" ">
<path fill="none" stroke="orange" stroke-dasharray="5,2" d="M70.44,-167.4C83.17,-184.1 102.54,-205.55 125,-217 184.6,-247.38 262.63,-253.21 313.63,-253.22"/>
<polygon fill="orange" stroke="orange" points="73.15,-165.18 64.42,-159.18 67.51,-169.32 73.15,-165.18"/>
</a>
</g>
<text text-anchor="middle" x="196" y="-254" font-family="Helvetica,sans-Serif" font-size="10.00" fill="grey"> &lt; AliasSetTy * &gt;</text>
</g>
<!-- Node3 -->
<g id="Node000003" class="node">
<title>Node3</title>
<g id="a_Node000003"><a xlink:href="classpsr_1_1StableVector.html" target="_top" xlink:title=" ">
<polygon fill="white" stroke="#666666" points="430,-218 305,-218 305,-188 430,-188 430,-218"/>
<text text-anchor="start" x="313" y="-206" font-family="Helvetica,sans-Serif" font-size="10.00">psr::StableVector&lt;</text>
<text text-anchor="middle" x="367.5" y="-195" font-family="Helvetica,sans-Serif" font-size="10.00"> InstructionVertexTy &gt;</text>
</a>
</g>
</g>
<!-- Node1&#45;&gt;Node3 -->
<g id="edge2_Node000001_Node000003" class="edge">
<title>Node1&#45;&gt;Node3</title>
<g id="a_edge2_Node000001_Node000003"><a xlink:title=" ">
<path fill="none" stroke="orange" stroke-dasharray="5,2" d="M86.57,-164.23C98.24,-170.66 111.82,-177.11 125,-181 184.46,-198.55 255.41,-203.19 304.97,-203.97"/>
<polygon fill="orange" stroke="orange" points="88.07,-161.05 77.65,-159.12 84.59,-167.13 88.07,-161.05"/>
</a>
</g>
<text text-anchor="middle" x="196" y="-205" font-family="Helvetica,sans-Serif" font-size="10.00" fill="grey"> &lt; InstructionVertexTy &gt;</text>
</g>
<!-- Node4 -->
<g id="Node000004" class="node">
<title>Node4</title>
<g id="a_Node000004"><a xlink:href="classpsr_1_1StableVector.html" target="_top" xlink:title=" ">
<polygon fill="white" stroke="#666666" points="448.5,-170 286.5,-170 286.5,-118 448.5,-118 448.5,-170"/>
<text text-anchor="start" x="294.5" y="-158" font-family="Helvetica,sans-Serif" font-size="10.00">psr::StableVector&lt;</text>
<text text-anchor="start" x="294.5" y="-147" font-family="Helvetica,sans-Serif" font-size="10.00"> psr::EquivalenceClassMapNG</text>
<text text-anchor="start" x="294.5" y="-136" font-family="Helvetica,sans-Serif" font-size="10.00">&lt; uint64_t, EdgeFunction</text>
<text text-anchor="middle" x="367.5" y="-125" font-family="Helvetica,sans-Serif" font-size="10.00">&lt; l_t &gt; &gt; &gt;</text>
</a>
</g>
</g>
<!-- Node1&#45;&gt;Node4 -->
<g id="edge3_Node000001_Node000004" class="edge">
<title>Node1&#45;&gt;Node4</title>
<g id="a_edge3_Node000001_Node000004"><a xlink:title=" ">
<path fill="none" stroke="orange" stroke-dasharray="5,2" d="M117.16,-144C165.87,-144 233.78,-144 286.43,-144"/>
<polygon fill="orange" stroke="orange" points="117.07,-140.5 107.07,-144 117.07,-147.5 117.07,-140.5"/>
</a>
</g>
<text text-anchor="start" x="125" y="-169" font-family="Helvetica,sans-Serif" font-size="10.00" fill="grey"> &lt; psr::EquivalenceClassMap</text>
<text text-anchor="start" x="125" y="-158" font-family="Helvetica,sans-Serif" font-size="10.00" fill="grey">NG&lt; uint64_t, EdgeFunction</text>
<text text-anchor="middle" x="196" y="-147" font-family="Helvetica,sans-Serif" font-size="10.00" fill="grey">&lt; l_t &gt; &gt; &gt;</text>
</g>
<!-- Node5 -->
<g id="Node000005" class="node">
<title>Node5</title>
<g id="a_Node000005"><a xlink:href="classpsr_1_1StableVector.html" target="_top" xlink:title=" ">
<polygon fill="white" stroke="#666666" points="450,-100 285,-100 285,-48 450,-48 450,-100"/>
<text text-anchor="start" x="293" y="-88" font-family="Helvetica,sans-Serif" font-size="10.00">psr::StableVector&lt;</text>
<text text-anchor="start" x="293" y="-77" font-family="Helvetica,sans-Serif" font-size="10.00"> psr::EquivalenceClassMapNG</text>
<text text-anchor="start" x="293" y="-66" font-family="Helvetica,sans-Serif" font-size="10.00">&lt; std::pair&lt; uint64_t, uint64</text>
<text text-anchor="middle" x="367.5" y="-55" font-family="Helvetica,sans-Serif" font-size="10.00">_t &gt;, EdgeFunction&lt; l_t &gt; &gt; &gt;</text>
</a>
</g>
</g>
<!-- Node1&#45;&gt;Node5 -->
<g id="edge4_Node000001_Node000005" class="edge">
<title>Node1&#45;&gt;Node5</title>
<g id="a_edge4_Node000001_Node000005"><a xlink:title=" ">
<path fill="none" stroke="orange" stroke-dasharray="5,2" d="M79.23,-122.57C92.03,-112.73 108.42,-101.94 125,-96 176.12,-77.67 237.05,-72.23 284.91,-71.34"/>
<polygon fill="orange" stroke="orange" points="77,-119.87 71.37,-128.84 81.37,-125.34 77,-119.87"/>
</a>
</g>
<text text-anchor="start" x="125" y="-132" font-family="Helvetica,sans-Serif" font-size="10.00" fill="grey"> &lt; psr::EquivalenceClassMap</text>
<text text-anchor="start" x="125" y="-121" font-family="Helvetica,sans-Serif" font-size="10.00" fill="grey">NG&lt; std::pair&lt; uint64_t,</text>
<text text-anchor="start" x="125" y="-110" font-family="Helvetica,sans-Serif" font-size="10.00" fill="grey"> uint64_t &gt;, EdgeFunction</text>
<text text-anchor="middle" x="196" y="-99" font-family="Helvetica,sans-Serif" font-size="10.00" fill="grey">&lt; l_t &gt; &gt; &gt;</text>
</g>
<!-- Node6 -->
<g id="Node000006" class="node">
<title>Node6</title>
<g id="a_Node000006"><a xlink:href="classpsr_1_1StableVector.html" target="_top" xlink:title=" ">
<polygon fill="white" stroke="#666666" points="431,-30 304,-30 304,0 431,0 431,-30"/>
<text text-anchor="start" x="312" y="-18" font-family="Helvetica,sans-Serif" font-size="10.00">psr::StableVector&lt;</text>
<text text-anchor="middle" x="367.5" y="-7" font-family="Helvetica,sans-Serif" font-size="10.00"> InterPropagationJob &gt;</text>
</a>
</g>
</g>
<!-- Node1&#45;&gt;Node6 -->
<g id="edge5_Node000001_Node000006" class="edge">
<title>Node1&#45;&gt;Node6</title>
<g id="a_edge5_Node000001_Node000006"><a xlink:title=" ">
<path fill="none" stroke="orange" stroke-dasharray="5,2" d="M67.11,-119.95C79.14,-99.51 99.25,-71.15 125,-56 179.62,-23.87 252.47,-15.25 303.82,-13.66"/>
<polygon fill="orange" stroke="orange" points="64.03,-118.28 62.15,-128.71 70.12,-121.73 64.03,-118.28"/>
</a>
</g>
<text text-anchor="middle" x="196" y="-59" font-family="Helvetica,sans-Serif" font-size="10.00" fill="grey"> &lt; InterPropagationJob &gt;</text>
</g>
</g>
</svg>
