<?xml version="1.0" encoding="UTF-8" standalone="no"?>
<!DOCTYPE svg PUBLIC "-//W3C//DTD SVG 1.1//EN"
 "http://www.w3.org/Graphics/SVG/1.1/DTD/svg11.dtd">
<!-- Generated by graphviz version 2.43.0 (0)
 -->
<!-- Title: psr::FlowFunctionCache&lt; ProblemTy, AutoAddZero &gt; Pages: 1 -->
<svg width="1030pt" height="120pt"
 viewBox="0.00 0.00 1030.00 119.50" xmlns="http://www.w3.org/2000/svg" xmlns:xlink="http://www.w3.org/1999/xlink">
<g id="graph0" class="graph" transform="scale(1 1) rotate(0) translate(4 115.5)">
<title>psr::FlowFunctionCache&lt; ProblemTy, AutoAddZero &gt;</title>
<!-- Node1 -->
<g id="Node000001" class="node">
<title>Node1</title>
<g id="a_Node000001"><a xlink:title=" ">
<polygon fill="#999999" stroke="#666666" points="810,-78.5 650,-78.5 650,-48.5 810,-48.5 810,-78.5"/>
<text text-anchor="start" x="658" y="-66.5" font-family="Helvetica,sans-Serif" font-size="10.00">psr::FlowFunctionCache</text>
<text text-anchor="middle" x="730" y="-55.5" font-family="Helvetica,sans-Serif" font-size="10.00">&lt; ProblemTy, AutoAddZero &gt;</text>
</a>
</g>
</g>
<!-- Node5 -->
<g id="Node000005" class="node">
<title>Node5</title>
<g id="a_Node000005"><a xlink:href="classpsr_1_1FlowEdgeFunctionCacheNG.html" target="_top" xlink:title=" ">
<polygon fill="white" stroke="#666666" points="1022,-78.5 847,-78.5 847,-48.5 1022,-48.5 1022,-78.5"/>
<text text-anchor="start" x="855" y="-66.5" font-family="Helvetica,sans-Serif" font-size="10.00">psr::FlowEdgeFunctionCache</text>
<text text-anchor="middle" x="934.5" y="-55.5" font-family="Helvetica,sans-Serif" font-size="10.00">NG&lt; ProblemTy, AutoAddZero &gt;</text>
</a>
</g>
</g>
<!-- Node1&#45;&gt;Node5 -->
<g id="edge4_Node000001_Node000005" class="edge">
<title>Node1&#45;&gt;Node5</title>
<g id="a_edge4_Node000001_Node000005"><a xlink:title=" ">
<path fill="none" stroke="#63b8ff" d="M820.36,-63.5C829.1,-63.5 837.97,-63.5 846.69,-63.5"/>
<polygon fill="#63b8ff" stroke="#63b8ff" points="820.16,-60 810.16,-63.5 820.16,-67 820.16,-60"/>
</a>
</g>
</g>
<!-- Node2 -->
<g id="Node000002" class="node">
<title>Node2</title>
<g id="a_Node000002"><a xlink:title=" ">
<polygon fill="white" stroke="#666666" points="581.5,-111.5 437.5,-111.5 437.5,-81.5 581.5,-81.5 581.5,-111.5"/>
<text text-anchor="start" x="445.5" y="-99.5" font-family="Helvetica,sans-Serif" font-size="10.00">psr::detail::FlowFunction</text>
<text text-anchor="middle" x="509.5" y="-88.5" font-family="Helvetica,sans-Serif" font-size="10.00">CacheBase&lt; ProblemTy &gt;</text>
</a>
</g>
</g>
<!-- Node2&#45;&gt;Node1 -->
<g id="edge1_Node000001_Node000002" class="edge">
<title>Node2&#45;&gt;Node1</title>
<g id="a_edge1_Node000001_Node000002"><a xlink:title=" ">
<path fill="none" stroke="#8b1a1a" d="M591.85,-84.21C610.84,-81.35 631.03,-78.3 649.92,-75.44"/>
<polygon fill="#8b1a1a" stroke="#8b1a1a" points="591.11,-80.79 581.74,-85.74 592.15,-87.71 591.11,-80.79"/>
</a>
</g>
</g>
<!-- Node3 -->
<g id="Node000003" class="node">
<title>Node3</title>
<g id="a_Node000003"><a xlink:title=" ">
<polygon fill="white" stroke="#666666" points="613,-63 406,-63 406,0 613,0 613,-63"/>
<text text-anchor="start" x="414" y="-51" font-family="Helvetica,sans-Serif" font-size="10.00">psr::detail::IntraFlowFunctions</text>
<text text-anchor="start" x="414" y="-40" font-family="Helvetica,sans-Serif" font-size="10.00">Mixin&lt; detail::FlowFunctionCacheBase</text>
<text text-anchor="start" x="414" y="-29" font-family="Helvetica,sans-Serif" font-size="10.00">&lt; ProblemTy &gt;::normal_ff_t, detail</text>
<text text-anchor="start" x="414" y="-18" font-family="Helvetica,sans-Serif" font-size="10.00">::FlowFunctionCacheBase&lt; ProblemTy</text>
<text text-anchor="middle" x="509.5" y="-7" font-family="Helvetica,sans-Serif" font-size="10.00"> &gt;::ctr_ff_t &gt;</text>
</a>
</g>
</g>
<!-- Node3&#45;&gt;Node1 -->
<g id="edge2_Node000001_Node000003" class="edge">
<title>Node3&#45;&gt;Node1</title>
<g id="a_edge2_Node000001_Node000003"><a xlink:title=" ">
<path fill="none" stroke="#8b1a1a" d="M622.94,-47.97C632.07,-49.3 641.17,-50.64 649.99,-51.93"/>
<polygon fill="#8b1a1a" stroke="#8b1a1a" points="623.43,-44.5 613.03,-46.52 622.42,-51.43 623.43,-44.5"/>
</a>
</g>
</g>
<!-- Node4 -->
<g id="Node000004" class="node">
<title>Node4</title>
<g id="a_Node000004"><a xlink:title=" ">
<polygon fill="white" stroke="#666666" points="190,-46.5 0,-46.5 0,-16.5 190,-16.5 190,-46.5"/>
<text text-anchor="start" x="8" y="-34.5" font-family="Helvetica,sans-Serif" font-size="10.00">psr::detail::IntraFlowFunctions</text>
<text text-anchor="middle" x="95" y="-23.5" font-family="Helvetica,sans-Serif" font-size="10.00">Mixin&lt; NormalFFType, CtrFFType &gt;</text>
</a>
</g>
</g>
<!-- Node4&#45;&gt;Node3 -->
<g id="edge3_Node000003_Node000004" class="edge">
<title>Node4&#45;&gt;Node3</title>
<g id="a_edge3_Node000003_Node000004"><a xlink:title=" ">
<path fill="none" stroke="orange" stroke-dasharray="5,2" d="M200.46,-31.5C263.37,-31.5 343.15,-31.5 405.75,-31.5"/>
<polygon fill="orange" stroke="orange" points="200.12,-28 190.12,-31.5 200.12,-35 200.12,-28"/>
</a>
</g>
<text text-anchor="start" x="208" y="-67.5" font-family="Helvetica,sans-Serif" font-size="10.00" fill="grey"> &lt; detail::FlowFunctionCache</text>
<text text-anchor="start" x="208" y="-56.5" font-family="Helvetica,sans-Serif" font-size="10.00" fill="grey">Base&lt; ProblemTy &gt;::normal</text>
<text text-anchor="start" x="208" y="-45.5" font-family="Helvetica,sans-Serif" font-size="10.00" fill="grey">_ff_t, detail::FlowFunctionCacheBase</text>
<text text-anchor="middle" x="298" y="-34.5" font-family="Helvetica,sans-Serif" font-size="10.00" fill="grey">&lt; ProblemTy &gt;::ctr_ff_t &gt;</text>
</g>
</g>
</svg>
