<?xml version="1.0" encoding="UTF-8" standalone="no"?>
<!DOCTYPE svg PUBLIC "-//W3C//DTD SVG 1.1//EN"
 "http://www.w3.org/Graphics/SVG/1.1/DTD/svg11.dtd">
<!-- Generated by graphviz version 2.43.0 (0)
 -->
<!-- Title: psr::SparseLLVMBasedICFGView Pages: 1 -->
<svg width="1451pt" height="163pt"
 viewBox="0.00 0.00 1451.00 162.50" xmlns="http://www.w3.org/2000/svg" xmlns:xlink="http://www.w3.org/1999/xlink">
<g id="graph0" class="graph" transform="scale(1 1) rotate(0) translate(4 158.5)">
<title>psr::SparseLLVMBasedICFGView</title>
<!-- Node1 -->
<g id="Node000001" class="node">
<title>Node1</title>
<g id="a_Node000001"><a xlink:title="Similar to SparseLLVMBasedICFG; the only difference is that this one is no LLVMBasedICFG – it contain...">
<polygon fill="#999999" stroke="#666666" points="1443,-67.5 1270,-67.5 1270,-48.5 1443,-48.5 1443,-67.5"/>
<text text-anchor="middle" x="1356.5" y="-55.5" font-family="Helvetica,sans-Serif" font-size="10.00">psr::SparseLLVMBasedICFGView</text>
</a>
</g>
</g>
<!-- Node2 -->
<g id="Node000002" class="node">
<title>Node2</title>
<g id="a_Node000002"><a xlink:href="classpsr_1_1LLVMBasedCFG.html" target="_top" xlink:title=" ">
<polygon fill="white" stroke="#666666" points="1202,-107.5 1089,-107.5 1089,-88.5 1202,-88.5 1202,-107.5"/>
<text text-anchor="middle" x="1145.5" y="-95.5" font-family="Helvetica,sans-Serif" font-size="10.00">psr::LLVMBasedCFG</text>
</a>
</g>
</g>
<!-- Node2&#45;&gt;Node1 -->
<g id="edge1_Node000001_Node000002" class="edge">
<title>Node2&#45;&gt;Node1</title>
<g id="a_edge1_Node000001_Node000002"><a xlink:title=" ">
<path fill="none" stroke="#63b8ff" d="M1206.26,-86.56C1237.73,-80.54 1275.88,-73.24 1305.72,-67.53"/>
<polygon fill="#63b8ff" stroke="#63b8ff" points="1205.46,-83.15 1196.3,-88.47 1206.77,-90.03 1205.46,-83.15"/>
</a>
</g>
</g>
<!-- Node3 -->
<g id="Node000003" class="node">
<title>Node3</title>
<g id="a_Node000003"><a xlink:title=" ">
<polygon fill="white" stroke="#666666" points="1021,-118 852,-118 852,-88 1021,-88 1021,-118"/>
<text text-anchor="start" x="860" y="-106" font-family="Helvetica,sans-Serif" font-size="10.00">psr::detail::LLVMBasedCFGImpl</text>
<text text-anchor="middle" x="936.5" y="-95" font-family="Helvetica,sans-Serif" font-size="10.00">&lt; LLVMBasedCFG &gt;</text>
</a>
</g>
</g>
<!-- Node3&#45;&gt;Node2 -->
<g id="edge2_Node000002_Node000003" class="edge">
<title>Node3&#45;&gt;Node2</title>
<g id="a_edge2_Node000002_Node000003"><a xlink:title=" ">
<path fill="none" stroke="#63b8ff" d="M1031.31,-100.73C1050.96,-100.26 1071.08,-99.77 1088.8,-99.35"/>
<polygon fill="#63b8ff" stroke="#63b8ff" points="1031.01,-97.24 1021.1,-100.98 1031.18,-104.24 1031.01,-97.24"/>
</a>
</g>
</g>
<!-- Node4 -->
<g id="Node000004" class="node">
<title>Node4</title>
<g id="a_Node000004"><a xlink:href="classpsr_1_1CFGBase.html" target="_top" xlink:title=" ">
<polygon fill="white" stroke="#666666" points="501.5,-154.5 358.5,-154.5 358.5,-135.5 501.5,-135.5 501.5,-154.5"/>
<text text-anchor="middle" x="430" y="-142.5" font-family="Helvetica,sans-Serif" font-size="10.00">psr::CFGBase&lt; Derived &gt;</text>
</a>
</g>
</g>
<!-- Node4&#45;&gt;Node3 -->
<g id="edge3_Node000003_Node000004" class="edge">
<title>Node4&#45;&gt;Node3</title>
<g id="a_edge3_Node000003_Node000004"><a xlink:title=" ">
<path fill="none" stroke="#63b8ff" d="M511.97,-141.67C593.48,-137.82 722.72,-130.38 834,-118 839.84,-117.35 845.86,-116.62 851.92,-115.84"/>
<polygon fill="#63b8ff" stroke="#63b8ff" points="511.61,-138.18 501.78,-142.14 511.93,-145.17 511.61,-138.18"/>
</a>
</g>
</g>
<!-- Node5 -->
<g id="Node000005" class="node">
<title>Node5</title>
<g id="a_Node000005"><a xlink:href="classpsr_1_1CRTPBase.html" target="_top" xlink:title=" ">
<polygon fill="white" stroke="#666666" points="147,-114.5 0,-114.5 0,-95.5 147,-95.5 147,-114.5"/>
<text text-anchor="middle" x="73.5" y="-102.5" font-family="Helvetica,sans-Serif" font-size="10.00">psr::CRTPBase&lt; Derived &gt;</text>
</a>
</g>
</g>
<!-- Node5&#45;&gt;Node4 -->
<g id="edge4_Node000004_Node000005" class="edge">
<title>Node5&#45;&gt;Node4</title>
<g id="a_edge4_Node000004_Node000005"><a xlink:title=" ">
<path fill="none" stroke="#63b8ff" d="M133.86,-116.26C150.08,-119.07 167.68,-121.89 184,-124 242.53,-131.57 309.3,-137.09 358.33,-140.56"/>
<polygon fill="#63b8ff" stroke="#63b8ff" points="134.42,-112.81 123.97,-114.52 133.21,-119.7 134.42,-112.81"/>
</a>
</g>
</g>
<!-- Node7 -->
<g id="Node000007" class="node">
<title>Node7</title>
<g id="a_Node000007"><a xlink:href="classpsr_1_1CFGBase.html" target="_top" xlink:title=" ">
<polygon fill="white" stroke="#666666" points="329,-114.5 186,-114.5 186,-95.5 329,-95.5 329,-114.5"/>
<text text-anchor="middle" x="257.5" y="-102.5" font-family="Helvetica,sans-Serif" font-size="10.00">psr::CFGBase&lt; Derived &gt;</text>
</a>
</g>
</g>
<!-- Node5&#45;&gt;Node7 -->
<g id="edge7_Node000007_Node000005" class="edge">
<title>Node5&#45;&gt;Node7</title>
<g id="a_edge7_Node000007_Node000005"><a xlink:title=" ">
<path fill="none" stroke="#63b8ff" d="M157.48,-105C167,-105 176.64,-105 185.97,-105"/>
<polygon fill="#63b8ff" stroke="#63b8ff" points="157.22,-101.5 147.22,-105 157.22,-108.5 157.22,-101.5"/>
</a>
</g>
</g>
<!-- Node10 -->
<g id="Node000010" class="node">
<title>Node10</title>
<g id="a_Node000010"><a xlink:href="classpsr_1_1ICFGBase.html" target="_top" xlink:title=" ">
<polygon fill="white" stroke="#666666" points="330.5,-77.5 184.5,-77.5 184.5,-58.5 330.5,-58.5 330.5,-77.5"/>
<text text-anchor="middle" x="257.5" y="-65.5" font-family="Helvetica,sans-Serif" font-size="10.00">psr::ICFGBase&lt; Derived &gt;</text>
</a>
</g>
</g>
<!-- Node5&#45;&gt;Node10 -->
<g id="edge11_Node000010_Node000005" class="edge">
<title>Node5&#45;&gt;Node10</title>
<g id="a_edge11_Node000010_Node000005"><a xlink:title=" ">
<path fill="none" stroke="#63b8ff" d="M131.48,-93.42C156.56,-88.32 185.66,-82.4 209.47,-77.56"/>
<polygon fill="#63b8ff" stroke="#63b8ff" points="130.47,-90.05 121.37,-95.47 131.87,-96.91 130.47,-90.05"/>
</a>
</g>
</g>
<!-- Node6 -->
<g id="Node000006" class="node">
<title>Node6</title>
<g id="a_Node000006"><a xlink:title=" ">
<polygon fill="white" stroke="#666666" points="706,-118 537,-118 537,-88 706,-88 706,-118"/>
<text text-anchor="start" x="545" y="-106" font-family="Helvetica,sans-Serif" font-size="10.00">psr::detail::LLVMBasedCFGImpl</text>
<text text-anchor="middle" x="621.5" y="-95" font-family="Helvetica,sans-Serif" font-size="10.00">&lt; Derived &gt;</text>
</a>
</g>
</g>
<!-- Node6&#45;&gt;Node3 -->
<g id="edge5_Node000003_Node000006" class="edge">
<title>Node6&#45;&gt;Node3</title>
<g id="a_edge5_Node000003_Node000006"><a xlink:title=" ">
<path fill="none" stroke="orange" stroke-dasharray="5,2" d="M716.58,-103C759.64,-103 810.23,-103 851.93,-103"/>
<polygon fill="orange" stroke="orange" points="716.38,-99.5 706.38,-103 716.38,-106.5 716.38,-99.5"/>
</a>
</g>
<text text-anchor="middle" x="783" y="-106" font-family="Helvetica,sans-Serif" font-size="10.00" fill="grey"> &lt; LLVMBasedCFG &gt;</text>
</g>
<!-- Node7&#45;&gt;Node6 -->
<g id="edge6_Node000006_Node000007" class="edge">
<title>Node7&#45;&gt;Node6</title>
<g id="a_edge6_Node000006_Node000007"><a xlink:title=" ">
<path fill="none" stroke="#63b8ff" d="M339.5,-104.55C398.2,-104.23 477.34,-103.79 536.68,-103.46"/>
<polygon fill="#63b8ff" stroke="#63b8ff" points="339.14,-101.05 329.16,-104.61 339.18,-108.05 339.14,-101.05"/>
</a>
</g>
</g>
<!-- Node8 -->
<g id="Node000008" class="node">
<title>Node8</title>
<g id="a_Node000008"><a xlink:href="classpsr_1_1ICFGBase.html" target="_top" xlink:title=" ">
<polygon fill="white" stroke="#666666" points="714,-70 529,-70 529,-40 714,-40 714,-70"/>
<text text-anchor="start" x="537" y="-58" font-family="Helvetica,sans-Serif" font-size="10.00">psr::ICFGBase&lt; SparseLLVMBased</text>
<text text-anchor="middle" x="621.5" y="-47" font-family="Helvetica,sans-Serif" font-size="10.00">ICFGView &gt;</text>
</a>
</g>
</g>
<!-- Node8&#45;&gt;Node1 -->
<g id="edge8_Node000001_Node000008" class="edge">
<title>Node8&#45;&gt;Node1</title>
<g id="a_edge8_Node000001_Node000008"><a xlink:title=" ">
<path fill="none" stroke="#63b8ff" d="M724.48,-55.42C869.88,-56.01 1134.16,-57.09 1269.93,-57.65"/>
<polygon fill="#63b8ff" stroke="#63b8ff" points="724.24,-51.92 714.22,-55.38 724.21,-58.92 724.24,-51.92"/>
</a>
</g>
</g>
<!-- Node9 -->
<g id="Node000009" class="node">
<title>Node9</title>
<g id="a_Node000009"><a xlink:href="classpsr_1_1CRTPBase.html" target="_top" xlink:title=" ">
<polygon fill="white" stroke="#666666" points="331,-40.5 184,-40.5 184,-21.5 331,-21.5 331,-40.5"/>
<text text-anchor="middle" x="257.5" y="-28.5" font-family="Helvetica,sans-Serif" font-size="10.00">psr::CRTPBase&lt; Derived &gt;</text>
</a>
</g>
</g>
<!-- Node9&#45;&gt;Node8 -->
<g id="edge9_Node000008_Node000009" class="edge">
<title>Node9&#45;&gt;Node8</title>
<g id="a_edge9_Node000008_Node000009"><a xlink:title=" ">
<path fill="none" stroke="#63b8ff" d="M341.54,-36.51C397.44,-40.21 471.18,-45.1 528.81,-48.92"/>
<polygon fill="#63b8ff" stroke="#63b8ff" points="341.53,-33 331.32,-35.83 341.07,-39.98 341.53,-33"/>
</a>
</g>
</g>
<!-- Node10&#45;&gt;Node8 -->
<g id="edge10_Node000008_Node000010" class="edge">
<title>Node10&#45;&gt;Node8</title>
<g id="a_edge10_Node000008_Node000010"><a xlink:title=" ">
<path fill="none" stroke="orange" stroke-dasharray="5,2" d="M341.12,-65.03C397.11,-63.02 471.14,-60.36 528.93,-58.29"/>
<polygon fill="orange" stroke="orange" points="340.75,-61.54 330.89,-65.4 341.01,-68.54 340.75,-61.54"/>
</a>
</g>
<text text-anchor="middle" x="430" y="-67" font-family="Helvetica,sans-Serif" font-size="10.00" fill="grey"> &lt; SparseLLVMBasedICFGView &gt;</text>
</g>
<!-- Node11 -->
<g id="Node000011" class="node">
<title>Node11</title>
<g id="a_Node000011"><a xlink:href="classpsr_1_1SparseCFGProvider.html" target="_top" xlink:title=" ">
<polygon fill="white" stroke="#666666" points="1233,-30 1058,-30 1058,0 1233,0 1233,-30"/>
<text text-anchor="start" x="1066" y="-18" font-family="Helvetica,sans-Serif" font-size="10.00">SparseLLVMBasedCFGProvider</text>
<text text-anchor="middle" x="1145.5" y="-7" font-family="Helvetica,sans-Serif" font-size="10.00">&lt; SparseLLVMBasedICFGView &gt;</text>
</a>
</g>
</g>
<!-- Node11&#45;&gt;Node1 -->
<g id="edge12_Node000001_Node000011" class="edge">
<title>Node11&#45;&gt;Node1</title>
<g id="a_edge12_Node000001_Node000011"><a xlink:title=" ">
<path fill="none" stroke="#63b8ff" d="M1229.49,-32.07C1256.63,-37.66 1285.79,-43.66 1309.22,-48.48"/>
<polygon fill="#63b8ff" stroke="#63b8ff" points="1230.1,-28.63 1219.6,-30.04 1228.69,-35.48 1230.1,-28.63"/>
</a>
</g>
</g>
</g>
</svg>
