<?xml version="1.0" encoding="UTF-8" standalone="no"?>
<!DOCTYPE svg PUBLIC "-//W3C//DTD SVG 1.1//EN"
 "http://www.w3.org/Graphics/SVG/1.1/DTD/svg11.dtd">
<!-- Generated by graphviz version 2.43.0 (0)
 -->
<!-- Title: psr::TypedVector&lt; IdT, ValueT, SmallSize &gt; Pages: 1 -->
<svg width="526pt" height="688pt"
 viewBox="0.00 0.00 526.00 687.58" xmlns="http://www.w3.org/2000/svg" xmlns:xlink="http://www.w3.org/1999/xlink">
<g id="graph0" class="graph" transform="scale(1 1) rotate(0) translate(4 683.58)">
<title>psr::TypedVector&lt; IdT, ValueT, SmallSize &gt;</title>
<!-- Node1 -->
<g id="Node000001" class="node">
<title>Node1</title>
<g id="a_Node000001"><a xlink:title=" ">
<polygon fill="#999999" stroke="#666666" points="126,-382.58 0,-382.58 0,-352.58 126,-352.58 126,-382.58"/>
<text text-anchor="start" x="8" y="-370.58" font-family="Helvetica,sans-Serif" font-size="10.00">psr::TypedVector&lt; IdT,</text>
<text text-anchor="middle" x="63" y="-359.58" font-family="Helvetica,sans-Serif" font-size="10.00"> ValueT, SmallSize &gt;</text>
</a>
</g>
</g>
<!-- Node2 -->
<g id="Node000002" class="node">
<title>Node2</title>
<g id="a_Node000002"><a xlink:href="classpsr_1_1TypedVector.html" target="_top" xlink:title=" ">
<polygon fill="white" stroke="#666666" points="494.5,-667.58 355.5,-667.58 355.5,-637.58 494.5,-637.58 494.5,-667.58"/>
<text text-anchor="start" x="363.5" y="-655.58" font-family="Helvetica,sans-Serif" font-size="10.00">psr::TypedVector&lt; uint32</text>
<text text-anchor="middle" x="425" y="-644.58" font-family="Helvetica,sans-Serif" font-size="10.00">_t, T, 0 &gt;</text>
</a>
</g>
</g>
<!-- Node1&#45;&gt;Node2 -->
<g id="edge1_Node000001_Node000002" class="edge">
<title>Node1&#45;&gt;Node2</title>
<g id="a_edge1_Node000001_Node000002"><a xlink:title=" ">
<path fill="none" stroke="orange" stroke-dasharray="5,2" d="M63.37,-392.72C63.56,-445.36 72.18,-567.13 144,-625.58 202.81,-673.44 293.26,-673.18 355.36,-665.57"/>
<polygon fill="orange" stroke="orange" points="66.87,-392.61 63.44,-382.58 59.87,-392.56 66.87,-392.61"/>
</a>
</g>
<text text-anchor="middle" x="229" y="-671.58" font-family="Helvetica,sans-Serif" font-size="10.00" fill="grey"> &lt; uint32_t, T, 0 &gt;</text>
</g>
<!-- Node3 -->
<g id="Node000003" class="node">
<title>Node3</title>
<g id="a_Node000003"><a xlink:href="classpsr_1_1TypedVector.html" target="_top" xlink:title=" ">
<polygon fill="white" stroke="#666666" points="494.5,-619.08 355.5,-619.08 355.5,-578.08 494.5,-578.08 494.5,-619.08"/>
<text text-anchor="start" x="363.5" y="-607.08" font-family="Helvetica,sans-Serif" font-size="10.00">psr::TypedVector&lt; uint32</text>
<text text-anchor="start" x="363.5" y="-596.08" font-family="Helvetica,sans-Serif" font-size="10.00">_t, llvm::SmallVector&lt;</text>
<text text-anchor="middle" x="425" y="-585.08" font-family="Helvetica,sans-Serif" font-size="10.00"> uint32_t, 2 &gt;, 0 &gt;</text>
</a>
</g>
</g>
<!-- Node1&#45;&gt;Node3 -->
<g id="edge2_Node000001_Node000003" class="edge">
<title>Node1&#45;&gt;Node3</title>
<g id="a_edge2_Node000001_Node000003"><a xlink:title=" ">
<path fill="none" stroke="orange" stroke-dasharray="5,2" d="M65.57,-392.65C69.84,-437.22 85.64,-529.7 144,-573.58 176.18,-597.78 283.2,-601.17 355.21,-600.52"/>
<polygon fill="orange" stroke="orange" points="69.06,-392.32 64.73,-382.65 62.08,-392.91 69.06,-392.32"/>
</a>
</g>
<text text-anchor="start" x="155.5" y="-613.58" font-family="Helvetica,sans-Serif" font-size="10.00" fill="grey"> &lt; uint32_t, llvm::SmallVector</text>
<text text-anchor="middle" x="229" y="-602.58" font-family="Helvetica,sans-Serif" font-size="10.00" fill="grey">&lt; uint32_t, 2 &gt;, 0 &gt;</text>
</g>
<!-- Node4 -->
<g id="Node000004" class="node">
<title>Node4</title>
<g id="a_Node000004"><a xlink:href="classpsr_1_1TypedVector.html" target="_top" xlink:title=" ">
<polygon fill="white" stroke="#666666" points="502.5,-560.08 347.5,-560.08 347.5,-519.08 502.5,-519.08 502.5,-560.08"/>
<text text-anchor="start" x="355.5" y="-548.08" font-family="Helvetica,sans-Serif" font-size="10.00">psr::TypedVector&lt; VtxId,</text>
<text text-anchor="start" x="355.5" y="-537.08" font-family="Helvetica,sans-Serif" font-size="10.00"> llvm::SmallVector&lt; EdgeTy,</text>
<text text-anchor="middle" x="425" y="-526.08" font-family="Helvetica,sans-Serif" font-size="10.00"> 2 &gt;, 0 &gt;</text>
</a>
</g>
</g>
<!-- Node1&#45;&gt;Node4 -->
<g id="edge3_Node000001_Node000004" class="edge">
<title>Node1&#45;&gt;Node4</title>
<g id="a_edge3_Node000001_Node000004"><a xlink:title=" ">
<path fill="none" stroke="orange" stroke-dasharray="5,2" d="M70.93,-392.66C81.2,-424.65 103.71,-479 144,-505.58 203.99,-545.15 287.21,-550.53 347.32,-547.91"/>
<polygon fill="orange" stroke="orange" points="74.17,-391.29 67.91,-382.74 67.48,-393.32 74.17,-391.29"/>
</a>
</g>
<text text-anchor="start" x="162.5" y="-561.58" font-family="Helvetica,sans-Serif" font-size="10.00" fill="grey"> &lt; VtxId, llvm::SmallVector</text>
<text text-anchor="middle" x="229" y="-550.58" font-family="Helvetica,sans-Serif" font-size="10.00" fill="grey">&lt; EdgeTy, 2 &gt;, 0 &gt;</text>
</g>
<!-- Node5 -->
<g id="Node000005" class="node">
<title>Node5</title>
<g id="a_Node000005"><a xlink:href="classpsr_1_1TypedVector.html" target="_top" xlink:title=" ">
<polygon fill="white" stroke="#666666" points="488,-500.58 362,-500.58 362,-470.58 488,-470.58 488,-500.58"/>
<text text-anchor="start" x="370" y="-488.58" font-family="Helvetica,sans-Serif" font-size="10.00">psr::TypedVector&lt; IdT,</text>
<text text-anchor="middle" x="425" y="-477.58" font-family="Helvetica,sans-Serif" font-size="10.00"> T, 0 &gt;</text>
</a>
</g>
</g>
<!-- Node1&#45;&gt;Node5 -->
<g id="edge4_Node000001_Node000005" class="edge">
<title>Node1&#45;&gt;Node5</title>
<g id="a_edge4_Node000001_Node000005"><a xlink:title=" ">
<path fill="none" stroke="orange" stroke-dasharray="5,2" d="M78.5,-391.14C92.53,-411.65 115.78,-440.29 144,-454.58 212.61,-489.33 302.58,-493.08 361.78,-490.81"/>
<polygon fill="orange" stroke="orange" points="81.32,-389.06 72.9,-382.64 75.48,-392.91 81.32,-389.06"/>
</a>
</g>
<text text-anchor="middle" x="229" y="-493.58" font-family="Helvetica,sans-Serif" font-size="10.00" fill="grey"> &lt; IdT, T, 0 &gt;</text>
</g>
<!-- Node6 -->
<g id="Node000006" class="node">
<title>Node6</title>
<g id="a_Node000006"><a xlink:href="classpsr_1_1TypedVector.html" target="_top" xlink:title=" ">
<polygon fill="white" stroke="#666666" points="518,-452.58 332,-452.58 332,-400.58 518,-400.58 518,-452.58"/>
<text text-anchor="start" x="340" y="-440.58" font-family="Helvetica,sans-Serif" font-size="10.00">psr::TypedVector&lt; psr</text>
<text text-anchor="start" x="340" y="-429.58" font-family="Helvetica,sans-Serif" font-size="10.00">::SCCId&lt; GraphNodeId</text>
<text text-anchor="start" x="340" y="-418.58" font-family="Helvetica,sans-Serif" font-size="10.00"> &gt;, llvm::SmallDenseSet</text>
<text text-anchor="middle" x="425" y="-407.58" font-family="Helvetica,sans-Serif" font-size="10.00">&lt; psr::SCCId&lt; GraphNodeId &gt; &gt; &gt;</text>
</a>
</g>
</g>
<!-- Node1&#45;&gt;Node6 -->
<g id="edge5_Node000001_Node000006" class="edge">
<title>Node1&#45;&gt;Node6</title>
<g id="a_edge5_Node000001_Node000006"><a xlink:title=" ">
<path fill="none" stroke="orange" stroke-dasharray="5,2" d="M114.89,-385.77C124.47,-388.72 134.47,-391.49 144,-393.58 205.92,-407.15 276.84,-415.44 331.82,-420.31"/>
<polygon fill="orange" stroke="orange" points="115.68,-382.35 105.09,-382.65 113.56,-389.02 115.68,-382.35"/>
</a>
</g>
<text text-anchor="start" x="144" y="-442.58" font-family="Helvetica,sans-Serif" font-size="10.00" fill="grey"> &lt; psr::SCCId&lt; GraphNodeId</text>
<text text-anchor="start" x="144" y="-431.58" font-family="Helvetica,sans-Serif" font-size="10.00" fill="grey"> &gt;, llvm::SmallDenseSet</text>
<text text-anchor="middle" x="229" y="-420.58" font-family="Helvetica,sans-Serif" font-size="10.00" fill="grey">&lt; psr::SCCId&lt; GraphNodeId &gt; &gt; &gt;</text>
</g>
<!-- Node7 -->
<g id="Node000007" class="node">
<title>Node7</title>
<g id="a_Node000007"><a xlink:href="classpsr_1_1TypedVector.html" target="_top" xlink:title=" ">
<polygon fill="white" stroke="#666666" points="514.5,-382.58 335.5,-382.58 335.5,-352.58 514.5,-352.58 514.5,-382.58"/>
<text text-anchor="start" x="343.5" y="-370.58" font-family="Helvetica,sans-Serif" font-size="10.00">psr::TypedVector&lt; GraphNode</text>
<text text-anchor="middle" x="425" y="-359.58" font-family="Helvetica,sans-Serif" font-size="10.00">Id, psr::SCCId&lt; GraphNodeId &gt; &gt;</text>
</a>
</g>
</g>
<!-- Node1&#45;&gt;Node7 -->
<g id="edge6_Node000001_Node000007" class="edge">
<title>Node1&#45;&gt;Node7</title>
<g id="a_edge6_Node000001_Node000007"><a xlink:title=" ">
<path fill="none" stroke="orange" stroke-dasharray="5,2" d="M136.36,-367.58C193.67,-367.58 273.97,-367.58 335.18,-367.58"/>
<polygon fill="orange" stroke="orange" points="136.3,-364.08 126.3,-367.58 136.3,-371.08 136.3,-364.08"/>
</a>
</g>
<text text-anchor="start" x="162.5" y="-381.58" font-family="Helvetica,sans-Serif" font-size="10.00" fill="grey"> &lt; GraphNodeId, psr</text>
<text text-anchor="middle" x="229" y="-370.58" font-family="Helvetica,sans-Serif" font-size="10.00" fill="grey">::SCCId&lt; GraphNodeId &gt; &gt;</text>
</g>
<!-- Node8 -->
<g id="Node000008" class="node">
<title>Node8</title>
<g id="a_Node000008"><a xlink:href="classpsr_1_1TypedVector.html" target="_top" xlink:title=" ">
<polygon fill="white" stroke="#666666" points="488,-334.58 362,-334.58 362,-282.58 488,-282.58 488,-334.58"/>
<text text-anchor="start" x="370" y="-322.58" font-family="Helvetica,sans-Serif" font-size="10.00">psr::TypedVector&lt; psr</text>
<text text-anchor="start" x="370" y="-311.58" font-family="Helvetica,sans-Serif" font-size="10.00">::SCCId&lt; GraphNodeId</text>
<text text-anchor="start" x="370" y="-300.58" font-family="Helvetica,sans-Serif" font-size="10.00"> &gt;, llvm::SmallVector</text>
<text text-anchor="middle" x="425" y="-289.58" font-family="Helvetica,sans-Serif" font-size="10.00">&lt; GraphNodeId, 1 &gt; &gt;</text>
</a>
</g>
</g>
<!-- Node1&#45;&gt;Node8 -->
<g id="edge7_Node000001_Node000008" class="edge">
<title>Node1&#45;&gt;Node8</title>
<g id="a_edge7_Node000001_Node000008"><a xlink:title=" ">
<path fill="none" stroke="orange" stroke-dasharray="5,2" d="M99.48,-347.88C113.02,-341.26 128.84,-334.55 144,-330.58 217.12,-311.46 304.34,-307.43 361.78,-307.22"/>
<polygon fill="orange" stroke="orange" points="97.85,-344.78 90.51,-352.42 101.01,-351.03 97.85,-344.78"/>
</a>
</g>
<text text-anchor="start" x="159.5" y="-355.58" font-family="Helvetica,sans-Serif" font-size="10.00" fill="grey"> &lt; psr::SCCId&lt; GraphNodeId</text>
<text text-anchor="start" x="159.5" y="-344.58" font-family="Helvetica,sans-Serif" font-size="10.00" fill="grey"> &gt;, llvm::SmallVector&lt;</text>
<text text-anchor="middle" x="229" y="-333.58" font-family="Helvetica,sans-Serif" font-size="10.00" fill="grey"> GraphNodeId, 1 &gt; &gt;</text>
</g>
<!-- Node9 -->
<g id="Node000009" class="node">
<title>Node9</title>
<g id="a_Node000009"><a xlink:href="classpsr_1_1TypedVector.html" target="_top" xlink:title=" ">
<polygon fill="white" stroke="#666666" points="491,-264.08 359,-264.08 359,-223.08 491,-223.08 491,-264.08"/>
<text text-anchor="start" x="367" y="-252.08" font-family="Helvetica,sans-Serif" font-size="10.00">psr::TypedVector&lt; vta</text>
<text text-anchor="start" x="367" y="-241.08" font-family="Helvetica,sans-Serif" font-size="10.00">::TAGNodeId, psr::SCCId</text>
<text text-anchor="middle" x="425" y="-230.08" font-family="Helvetica,sans-Serif" font-size="10.00">&lt; vta::TAGNodeId &gt; &gt;</text>
</a>
</g>
</g>
<!-- Node1&#45;&gt;Node9 -->
<g id="edge8_Node000001_Node000009" class="edge">
<title>Node1&#45;&gt;Node9</title>
<g id="a_edge8_Node000001_Node000009"><a xlink:title=" ">
<path fill="none" stroke="orange" stroke-dasharray="5,2" d="M78.89,-344.11C93.04,-323.97 116.24,-295.97 144,-281.58 211.4,-246.65 299.63,-240.06 358.88,-240.32"/>
<polygon fill="orange" stroke="orange" points="75.94,-342.23 73.22,-352.47 81.73,-346.16 75.94,-342.23"/>
</a>
</g>
<text text-anchor="start" x="156.5" y="-295.58" font-family="Helvetica,sans-Serif" font-size="10.00" fill="grey"> &lt; vta::TAGNodeId, psr</text>
<text text-anchor="middle" x="229" y="-284.58" font-family="Helvetica,sans-Serif" font-size="10.00" fill="grey">::SCCId&lt; vta::TAGNodeId &gt; &gt;</text>
</g>
<!-- Node10 -->
<g id="Node000010" class="node">
<title>Node10</title>
<g id="a_Node000010"><a xlink:href="classpsr_1_1TypedVector.html" target="_top" xlink:title=" ">
<polygon fill="white" stroke="#666666" points="494,-204.58 356,-204.58 356,-152.58 494,-152.58 494,-204.58"/>
<text text-anchor="start" x="364" y="-192.58" font-family="Helvetica,sans-Serif" font-size="10.00">psr::TypedVector&lt; psr</text>
<text text-anchor="start" x="364" y="-181.58" font-family="Helvetica,sans-Serif" font-size="10.00">::SCCId&lt; vta::TAGNodeId</text>
<text text-anchor="start" x="364" y="-170.58" font-family="Helvetica,sans-Serif" font-size="10.00"> &gt;, llvm::SmallVector&lt;</text>
<text text-anchor="middle" x="425" y="-159.58" font-family="Helvetica,sans-Serif" font-size="10.00"> vta::TAGNodeId, 1 &gt; &gt;</text>
</a>
</g>
</g>
<!-- Node1&#45;&gt;Node10 -->
<g id="edge9_Node000001_Node000010" class="edge">
<title>Node1&#45;&gt;Node10</title>
<g id="a_edge9_Node000001_Node000010"><a xlink:title=" ">
<path fill="none" stroke="orange" stroke-dasharray="5,2" d="M68.4,-342.5C76.35,-305.47 96.87,-237.07 144,-204.58 206,-161.84 294.94,-161.17 355.85,-167.38"/>
<polygon fill="orange" stroke="orange" points="64.94,-341.99 66.4,-352.48 71.8,-343.37 64.94,-341.99"/>
</a>
</g>
<text text-anchor="start" x="150" y="-229.58" font-family="Helvetica,sans-Serif" font-size="10.00" fill="grey"> &lt; psr::SCCId&lt; vta::</text>
<text text-anchor="start" x="150" y="-218.58" font-family="Helvetica,sans-Serif" font-size="10.00" fill="grey">TAGNodeId &gt;, llvm::SmallVector</text>
<text text-anchor="middle" x="229" y="-207.58" font-family="Helvetica,sans-Serif" font-size="10.00" fill="grey">&lt; vta::TAGNodeId, 1 &gt; &gt;</text>
</g>
<!-- Node11 -->
<g id="Node000011" class="node">
<title>Node11</title>
<g id="a_Node000011"><a xlink:href="classpsr_1_1TypedVector.html" target="_top" xlink:title=" ">
<polygon fill="white" stroke="#666666" points="502,-134.58 348,-134.58 348,-60.58 502,-60.58 502,-134.58"/>
<text text-anchor="start" x="356" y="-122.58" font-family="Helvetica,sans-Serif" font-size="10.00">psr::TypedVector&lt; psr</text>
<text text-anchor="start" x="356" y="-111.58" font-family="Helvetica,sans-Serif" font-size="10.00">::SCCId&lt; TAGNodeId &gt;,</text>
<text text-anchor="start" x="356" y="-100.58" font-family="Helvetica,sans-Serif" font-size="10.00"> llvm::SmallDenseSet&lt;</text>
<text text-anchor="start" x="356" y="-89.58" font-family="Helvetica,sans-Serif" font-size="10.00"> llvm::PointerUnion&lt; const</text>
<text text-anchor="start" x="356" y="-78.58" font-family="Helvetica,sans-Serif" font-size="10.00"> llvm::Function *, const llvm</text>
<text text-anchor="middle" x="425" y="-67.58" font-family="Helvetica,sans-Serif" font-size="10.00">::DIType * &gt; &gt; &gt;</text>
</a>
</g>
</g>
<!-- Node1&#45;&gt;Node11 -->
<g id="edge10_Node000001_Node000011" class="edge">
<title>Node1&#45;&gt;Node11</title>
<g id="a_edge10_Node000001_Node000011"><a xlink:title=" ">
<path fill="none" stroke="orange" stroke-dasharray="5,2" d="M67.93,-342.09C77.77,-281.91 105.47,-133.89 144,-104.58 201.47,-60.87 286.49,-65.51 347.75,-77.12"/>
<polygon fill="orange" stroke="orange" points="64.43,-341.83 66.3,-352.25 71.34,-342.93 64.43,-341.83"/>
</a>
</g>
<text text-anchor="start" x="159" y="-151.58" font-family="Helvetica,sans-Serif" font-size="10.00" fill="grey"> &lt; psr::SCCId&lt; TAGNodeId</text>
<text text-anchor="start" x="159" y="-140.58" font-family="Helvetica,sans-Serif" font-size="10.00" fill="grey"> &gt;, llvm::SmallDenseSet</text>
<text text-anchor="start" x="159" y="-129.58" font-family="Helvetica,sans-Serif" font-size="10.00" fill="grey">&lt; llvm::PointerUnion&lt; const</text>
<text text-anchor="start" x="159" y="-118.58" font-family="Helvetica,sans-Serif" font-size="10.00" fill="grey"> llvm::Function *, const llvm</text>
<text text-anchor="middle" x="229" y="-107.58" font-family="Helvetica,sans-Serif" font-size="10.00" fill="grey">::DIType * &gt; &gt; &gt;</text>
</g>
<!-- Node12 -->
<g id="Node000012" class="node">
<title>Node12</title>
<g id="a_Node000012"><a xlink:href="classpsr_1_1TypedVector.html" target="_top" xlink:title=" ">
<polygon fill="white" stroke="#666666" points="501.5,-42.08 348.5,-42.08 348.5,-1.08 501.5,-1.08 501.5,-42.08"/>
<text text-anchor="start" x="356.5" y="-30.08" font-family="Helvetica,sans-Serif" font-size="10.00">psr::TypedVector&lt; TAGNode</text>
<text text-anchor="start" x="356.5" y="-19.08" font-family="Helvetica,sans-Serif" font-size="10.00">Id, llvm::SmallDenseSet</text>
<text text-anchor="middle" x="425" y="-8.08" font-family="Helvetica,sans-Serif" font-size="10.00">&lt; TAGNodeId &gt; &gt;</text>
</a>
</g>
</g>
<!-- Node1&#45;&gt;Node12 -->
<g id="edge11_Node000001_Node000012" class="edge">
<title>Node1&#45;&gt;Node12</title>
<g id="a_edge11_Node000001_Node000012"><a xlink:title=" ">
<path fill="none" stroke="orange" stroke-dasharray="5,2" d="M66.43,-342.53C73.7,-273.29 97.68,-81.77 144,-42.58 199.82,4.64 286.36,3.74 348.45,-5.11"/>
<polygon fill="orange" stroke="orange" points="62.94,-342.25 65.41,-352.56 69.9,-342.96 62.94,-342.25"/>
</a>
</g>
<text text-anchor="start" x="147.5" y="-56.58" font-family="Helvetica,sans-Serif" font-size="10.00" fill="grey"> &lt; TAGNodeId, llvm::</text>
<text text-anchor="middle" x="229" y="-45.58" font-family="Helvetica,sans-Serif" font-size="10.00" fill="grey">SmallDenseSet&lt; TAGNodeId &gt; &gt;</text>
</g>
</g>
</svg>
