<?xml version="1.0" encoding="UTF-8" standalone="no"?>
<!DOCTYPE svg PUBLIC "-//W3C//DTD SVG 1.1//EN"
 "http://www.w3.org/Graphics/SVG/1.1/DTD/svg11.dtd">
<!-- Generated by graphviz version 2.43.0 (0)
 -->
<!-- Title: psr::DenseSet&lt; T, DSI &gt; Pages: 1 -->
<svg width="517pt" height="113pt"
 viewBox="0.00 0.00 517.00 112.50" xmlns="http://www.w3.org/2000/svg" xmlns:xlink="http://www.w3.org/1999/xlink">
<g id="graph0" class="graph" transform="scale(1 1) rotate(0) translate(4 108.5)">
<title>psr::DenseSet&lt; T, DSI &gt;</title>
<!-- Node1 -->
<g id="Node000001" class="node">
<title>Node1</title>
<g id="a_Node000001"><a xlink:title=" ">
<polygon fill="#999999" stroke="#666666" points="135,-56 0,-56 0,-37 135,-37 135,-56"/>
<text text-anchor="middle" x="67.5" y="-44" font-family="Helvetica,sans-Serif" font-size="10.00">psr::DenseSet&lt; T, DSI &gt;</text>
</a>
</g>
</g>
<!-- Node2 -->
<g id="Node000002" class="node">
<title>Node2</title>
<g id="a_Node000002"><a xlink:href="classpsr_1_1DenseSet.html" target="_top" xlink:title=" ">
<polygon fill="white" stroke="#666666" points="509,-104.5 315,-104.5 315,-74.5 509,-74.5 509,-104.5"/>
<text text-anchor="start" x="323" y="-92.5" font-family="Helvetica,sans-Serif" font-size="10.00">psr::DenseSet&lt; InterPropagation</text>
<text text-anchor="middle" x="412" y="-81.5" font-family="Helvetica,sans-Serif" font-size="10.00">JobRef, InterPropagationJobRefDSI &gt;</text>
</a>
</g>
</g>
<!-- Node1&#45;&gt;Node2 -->
<g id="edge1_Node000001_Node000002" class="edge">
<title>Node1&#45;&gt;Node2</title>
<g id="a_edge1_Node000001_Node000002"><a xlink:title=" ">
<path fill="none" stroke="orange" stroke-dasharray="5,2" d="M129.01,-57.75C137.06,-59.1 145.22,-60.39 153,-61.5 206.41,-69.13 266.31,-75.75 314.93,-80.63"/>
<polygon fill="orange" stroke="orange" points="129.35,-54.26 118.9,-56.02 128.17,-61.16 129.35,-54.26"/>
</a>
</g>
<text text-anchor="start" x="153" y="-91.5" font-family="Helvetica,sans-Serif" font-size="10.00" fill="grey"> &lt; InterPropagationJobRef,</text>
<text text-anchor="middle" x="225" y="-80.5" font-family="Helvetica,sans-Serif" font-size="10.00" fill="grey"> InterPropagationJobRefDSI &gt;</text>
</g>
<!-- Node3 -->
<g id="Node000003" class="node">
<title>Node3</title>
<g id="a_Node000003"><a xlink:href="classpsr_1_1DenseSet.html" target="_top" xlink:title=" ">
<polygon fill="white" stroke="#666666" points="485,-56 339,-56 339,-37 485,-37 485,-56"/>
<text text-anchor="middle" x="412" y="-44" font-family="Helvetica,sans-Serif" font-size="10.00">psr::DenseSet&lt; uint64_t &gt;</text>
</a>
</g>
</g>
<!-- Node1&#45;&gt;Node3 -->
<g id="edge2_Node000001_Node000003" class="edge">
<title>Node1&#45;&gt;Node3</title>
<g id="a_edge2_Node000001_Node000003"><a xlink:title=" ">
<path fill="none" stroke="orange" stroke-dasharray="5,2" d="M145.55,-46.5C203.49,-46.5 282.32,-46.5 339,-46.5"/>
<polygon fill="orange" stroke="orange" points="145.35,-43 135.35,-46.5 145.35,-50 145.35,-43"/>
</a>
</g>
<text text-anchor="middle" x="225" y="-49.5" font-family="Helvetica,sans-Serif" font-size="10.00" fill="grey"> &lt; uint64_t &gt;</text>
</g>
<!-- Node4 -->
<g id="Node000004" class="node">
<title>Node4</title>
<g id="a_Node000004"><a xlink:href="classpsr_1_1DenseSet.html" target="_top" xlink:title=" ">
<polygon fill="white" stroke="#666666" points="485,-19 339,-19 339,0 485,0 485,-19"/>
<text text-anchor="middle" x="412" y="-7" font-family="Helvetica,sans-Serif" font-size="10.00">psr::DenseSet&lt; uint32_t &gt;</text>
</a>
</g>
</g>
<!-- Node1&#45;&gt;Node4 -->
<g id="edge3_Node000001_Node000004" class="edge">
<title>Node1&#45;&gt;Node4</title>
<g id="a_edge3_Node000001_Node000004"><a xlink:title=" ">
<path fill="none" stroke="orange" stroke-dasharray="5,2" d="M128.07,-35.23C136.42,-33.85 144.91,-32.56 153,-31.5 215.51,-23.3 286.97,-17.48 338.8,-13.9"/>
<polygon fill="orange" stroke="orange" points="127.25,-31.82 117.98,-36.94 128.43,-38.72 127.25,-31.82"/>
</a>
</g>
<text text-anchor="middle" x="225" y="-34.5" font-family="Helvetica,sans-Serif" font-size="10.00" fill="grey"> &lt; uint32_t &gt;</text>
</g>
</g>
</svg>
