<?xml version="1.0" encoding="UTF-8" standalone="no"?>
<!DOCTYPE svg PUBLIC "-//W3C//DTD SVG 1.1//EN"
 "http://www.w3.org/Graphics/SVG/1.1/DTD/svg11.dtd">
<!-- Generated by graphviz version 2.43.0 (0)
 -->
<!-- Title: psr::AliasInfoRef&lt; V, N &gt; Pages: 1 -->
<svg width="918pt" height="135pt"
 viewBox="0.00 0.00 918.00 135.00" xmlns="http://www.w3.org/2000/svg" xmlns:xlink="http://www.w3.org/1999/xlink">
<g id="graph0" class="graph" transform="scale(1 1) rotate(0) translate(4 131)">
<title>psr::AliasInfoRef&lt; V, N &gt;</title>
<!-- Node1 -->
<g id="Node000001" class="node">
<title>Node1</title>
<g id="a_Node000001"><a xlink:title="A type&#45;erased reference to any object implementing the IsAliasInfo interface. Use this,...">
<polygon fill="#999999" stroke="#666666" points="583,-89.5 478,-89.5 478,-59.5 583,-59.5 583,-89.5"/>
<text text-anchor="start" x="486" y="-77.5" font-family="Helvetica,sans-Serif" font-size="10.00">psr::AliasInfoRef&lt;</text>
<text text-anchor="middle" x="530.5" y="-66.5" font-family="Helvetica,sans-Serif" font-size="10.00"> V, N &gt;</text>
</a>
</g>
</g>
<!-- Node4 -->
<g id="Node000004" class="node">
<title>Node4</title>
<g id="a_Node000004"><a xlink:href="classpsr_1_1AliasInfo.html" target="_top" xlink:title="Similar to AliasInfoRef, but exclusively owns the held reference. Use this, if you need to decide dyn...">
<polygon fill="white" stroke="#666666" points="897.5,-127 774.5,-127 774.5,-108 897.5,-108 897.5,-127"/>
<text text-anchor="middle" x="836" y="-115" font-family="Helvetica,sans-Serif" font-size="10.00">psr::AliasInfo&lt; V, N &gt;</text>
</a>
</g>
</g>
<!-- Node1&#45;&gt;Node4 -->
<g id="edge3_Node000001_Node000004" class="edge">
<title>Node1&#45;&gt;Node4</title>
<g id="a_edge3_Node000001_Node000004"><a xlink:title=" ">
<path fill="none" stroke="#63b8ff" d="M592.93,-88.08C595.65,-88.58 598.35,-89.06 601,-89.5 659.51,-99.29 726.81,-106.98 774.17,-111.8"/>
<polygon fill="#63b8ff" stroke="#63b8ff" points="593.49,-84.62 583.01,-86.18 592.17,-91.5 593.49,-84.62"/>
</a>
</g>
</g>
<!-- Node5 -->
<g id="Node000005" class="node">
<title>Node5</title>
<g id="a_Node000005"><a xlink:href="classpsr_1_1AliasInfoRef.html" target="_top" xlink:title=" ">
<polygon fill="white" stroke="#666666" points="888.5,-89.5 783.5,-89.5 783.5,-59.5 888.5,-59.5 888.5,-89.5"/>
<text text-anchor="start" x="791.5" y="-77.5" font-family="Helvetica,sans-Serif" font-size="10.00">psr::AliasInfoRef&lt;</text>
<text text-anchor="middle" x="836" y="-66.5" font-family="Helvetica,sans-Serif" font-size="10.00"> v_t, n_t &gt;</text>
</a>
</g>
</g>
<!-- Node1&#45;&gt;Node5 -->
<g id="edge4_Node000001_Node000005" class="edge">
<title>Node1&#45;&gt;Node5</title>
<g id="a_edge4_Node000001_Node000005"><a xlink:title=" ">
<path fill="none" stroke="orange" stroke-dasharray="5,2" d="M593.47,-74.5C649.45,-74.5 730.87,-74.5 783.39,-74.5"/>
<polygon fill="orange" stroke="orange" points="593.33,-71 583.33,-74.5 593.33,-78 593.33,-71"/>
</a>
</g>
<text text-anchor="middle" x="672.5" y="-77.5" font-family="Helvetica,sans-Serif" font-size="10.00" fill="grey"> &lt; v_t, n_t &gt;</text>
</g>
<!-- Node6 -->
<g id="Node000006" class="node">
<title>Node6</title>
<g id="a_Node000006"><a xlink:href="classpsr_1_1AliasInfoRef.html" target="_top" xlink:title=" ">
<polygon fill="white" stroke="#666666" points="910,-41 762,-41 762,0 910,0 910,-41"/>
<text text-anchor="start" x="770" y="-29" font-family="Helvetica,sans-Serif" font-size="10.00">psr::AliasInfoRef&lt;</text>
<text text-anchor="start" x="770" y="-18" font-family="Helvetica,sans-Serif" font-size="10.00"> const llvm::Value *,</text>
<text text-anchor="middle" x="836" y="-7" font-family="Helvetica,sans-Serif" font-size="10.00"> const llvm::Instruction * &gt;</text>
</a>
</g>
</g>
<!-- Node1&#45;&gt;Node6 -->
<g id="edge5_Node000001_Node000006" class="edge">
<title>Node1&#45;&gt;Node6</title>
<g id="a_edge5_Node000001_Node000006"><a xlink:title=" ">
<path fill="none" stroke="orange" stroke-dasharray="5,2" d="M576.09,-56.03C584.27,-53.16 592.81,-50.49 601,-48.5 654.07,-35.59 715.43,-28.53 762,-24.73"/>
<polygon fill="orange" stroke="orange" points="574.89,-52.75 566.7,-59.47 577.29,-59.32 574.89,-52.75"/>
</a>
</g>
<text text-anchor="start" x="601" y="-62.5" font-family="Helvetica,sans-Serif" font-size="10.00" fill="grey"> &lt; const llvm::Value</text>
<text text-anchor="middle" x="672.5" y="-51.5" font-family="Helvetica,sans-Serif" font-size="10.00" fill="grey"> *, const llvm::Instruction * &gt;</text>
</g>
<!-- Node2 -->
<g id="Node000002" class="node">
<title>Node2</title>
<g id="a_Node000002"><a xlink:href="classpsr_1_1AnalysisPropertiesMixin.html" target="_top" xlink:title=" ">
<polygon fill="white" stroke="#666666" points="441,-89.5 286,-89.5 286,-59.5 441,-59.5 441,-89.5"/>
<text text-anchor="start" x="294" y="-77.5" font-family="Helvetica,sans-Serif" font-size="10.00">psr::AnalysisPropertiesMixin</text>
<text text-anchor="middle" x="363.5" y="-66.5" font-family="Helvetica,sans-Serif" font-size="10.00">&lt; AliasInfoRef&lt; V, N &gt; &gt;</text>
</a>
</g>
</g>
<!-- Node2&#45;&gt;Node1 -->
<g id="edge1_Node000001_Node000002" class="edge">
<title>Node2&#45;&gt;Node1</title>
<g id="a_edge1_Node000001_Node000002"><a xlink:title=" ">
<path fill="none" stroke="#63b8ff" d="M451.44,-74.5C460.49,-74.5 469.48,-74.5 477.96,-74.5"/>
<polygon fill="#63b8ff" stroke="#63b8ff" points="451.2,-71 441.2,-74.5 451.2,-78 451.2,-71"/>
</a>
</g>
</g>
<!-- Node3 -->
<g id="Node000003" class="node">
<title>Node3</title>
<g id="a_Node000003"><a xlink:href="classpsr_1_1AnalysisPropertiesMixin.html" target="_top" xlink:title=" ">
<polygon fill="white" stroke="#666666" points="155,-89.5 0,-89.5 0,-59.5 155,-59.5 155,-89.5"/>
<text text-anchor="start" x="8" y="-77.5" font-family="Helvetica,sans-Serif" font-size="10.00">psr::AnalysisPropertiesMixin</text>
<text text-anchor="middle" x="77.5" y="-66.5" font-family="Helvetica,sans-Serif" font-size="10.00">&lt; Derived &gt;</text>
</a>
</g>
</g>
<!-- Node3&#45;&gt;Node2 -->
<g id="edge2_Node000002_Node000003" class="edge">
<title>Node3&#45;&gt;Node2</title>
<g id="a_edge2_Node000002_Node000003"><a xlink:title=" ">
<path fill="none" stroke="orange" stroke-dasharray="5,2" d="M165.47,-74.5C203.81,-74.5 248.48,-74.5 285.58,-74.5"/>
<polygon fill="orange" stroke="orange" points="165.35,-71 155.35,-74.5 165.35,-78 165.35,-71"/>
</a>
</g>
<text text-anchor="start" x="173" y="-88.5" font-family="Helvetica,sans-Serif" font-size="10.00" fill="grey"> &lt; AliasInfoRef&lt; V,</text>
<text text-anchor="middle" x="220.5" y="-77.5" font-family="Helvetica,sans-Serif" font-size="10.00" fill="grey"> N &gt; &gt;</text>
</g>
</g>
</svg>
