<?xml version="1.0" encoding="UTF-8" standalone="no"?>
<!DOCTYPE svg PUBLIC "-//W3C//DTD SVG 1.1//EN"
 "http://www.w3.org/Graphics/SVG/1.1/DTD/svg11.dtd">
<!-- Generated by graphviz version 2.43.0 (0)
 -->
<!-- Title: psr::LLVMAliasSet Pages: 1 -->
<svg width="308pt" height="171pt"
 viewBox="0.00 0.00 308.00 171.00" xmlns="http://www.w3.org/2000/svg" xmlns:xlink="http://www.w3.org/1999/xlink">
<g id="graph0" class="graph" transform="scale(1 1) rotate(0) translate(4 167)">
<title>psr::LLVMAliasSet</title>
<!-- Node1 -->
<g id="Node000001" class="node">
<title>Node1</title>
<g id="a_Node000001"><a xlink:title=" ">
<polygon fill="#999999" stroke="#666666" points="248,-19 145,-19 145,0 248,0 248,-19"/>
<text text-anchor="middle" x="196.5" y="-7" font-family="Helvetica,sans-Serif" font-size="10.00">psr::LLVMAliasSet</text>
</a>
</g>
</g>
<!-- Node2 -->
<g id="Node000002" class="node">
<title>Node2</title>
<g id="a_Node000002"><a xlink:href="classpsr_1_1AnalysisPropertiesMixin.html" target="_top" xlink:title=" ">
<polygon fill="white" stroke="#666666" points="155,-86 0,-86 0,-56 155,-56 155,-86"/>
<text text-anchor="start" x="8" y="-74" font-family="Helvetica,sans-Serif" font-size="10.00">psr::AnalysisPropertiesMixin</text>
<text text-anchor="middle" x="77.5" y="-63" font-family="Helvetica,sans-Serif" font-size="10.00">&lt; LLVMAliasSet &gt;</text>
</a>
</g>
</g>
<!-- Node2&#45;&gt;Node1 -->
<g id="edge1_Node000001_Node000002" class="edge">
<title>Node2&#45;&gt;Node1</title>
<g id="a_edge1_Node000001_Node000002"><a xlink:title=" ">
<path fill="none" stroke="#63b8ff" d="M114.91,-51.3C136.41,-40.54 162.41,-27.55 179.18,-19.16"/>
<polygon fill="#63b8ff" stroke="#63b8ff" points="113.08,-48.3 105.7,-55.9 116.21,-54.56 113.08,-48.3"/>
</a>
</g>
</g>
<!-- Node3 -->
<g id="Node000003" class="node">
<title>Node3</title>
<g id="a_Node000003"><a xlink:href="classpsr_1_1AnalysisPropertiesMixin.html" target="_top" xlink:title=" ">
<polygon fill="white" stroke="#666666" points="155,-163 0,-163 0,-133 155,-133 155,-163"/>
<text text-anchor="start" x="8" y="-151" font-family="Helvetica,sans-Serif" font-size="10.00">psr::AnalysisPropertiesMixin</text>
<text text-anchor="middle" x="77.5" y="-140" font-family="Helvetica,sans-Serif" font-size="10.00">&lt; Derived &gt;</text>
</a>
</g>
</g>
<!-- Node3&#45;&gt;Node2 -->
<g id="edge2_Node000002_Node000003" class="edge">
<title>Node3&#45;&gt;Node2</title>
<g id="a_edge2_Node000002_Node000003"><a xlink:title=" ">
<path fill="none" stroke="orange" stroke-dasharray="5,2" d="M77.5,-122.54C77.5,-110.45 77.5,-96.29 77.5,-86.04"/>
<polygon fill="orange" stroke="orange" points="74,-122.89 77.5,-132.89 81,-122.89 74,-122.89"/>
</a>
</g>
<text text-anchor="middle" x="123" y="-107" font-family="Helvetica,sans-Serif" font-size="10.00" fill="grey"> &lt; LLVMAliasSet &gt;</text>
</g>
<!-- Node4 -->
<g id="Node000004" class="node">
<title>Node4</title>
<g id="a_Node000004"><a xlink:href="classpsr_1_1AliasInfoBaseUtils.html" target="_top" xlink:title=" ">
<polygon fill="white" stroke="#666666" points="300,-80.5 173,-80.5 173,-61.5 300,-61.5 300,-80.5"/>
<text text-anchor="middle" x="236.5" y="-68.5" font-family="Helvetica,sans-Serif" font-size="10.00">psr::AliasInfoBaseUtils</text>
</a>
</g>
</g>
<!-- Node4&#45;&gt;Node1 -->
<g id="edge3_Node000001_Node000004" class="edge">
<title>Node4&#45;&gt;Node1</title>
<g id="a_edge3_Node000001_Node000004"><a xlink:title=" ">
<path fill="none" stroke="#63b8ff" d="M225.07,-53.01C217.6,-41.89 208.16,-27.84 202.22,-19.01"/>
<polygon fill="#63b8ff" stroke="#63b8ff" points="222.29,-55.13 230.77,-61.48 228.09,-51.22 222.29,-55.13"/>
</a>
</g>
</g>
</g>
</svg>
