<?xml version="1.0" encoding="UTF-8" standalone="no"?>
<!DOCTYPE svg PUBLIC "-//W3C//DTD SVG 1.1//EN"
 "http://www.w3.org/Graphics/SVG/1.1/DTD/svg11.dtd">
<!-- Generated by graphviz version 2.43.0 (0)
 -->
<!-- Title: psr::OpenSSLSecureMemoryDescription Pages: 1 -->
<svg width="313pt" height="238pt"
 viewBox="0.00 0.00 312.50 238.00" xmlns="http://www.w3.org/2000/svg" xmlns:xlink="http://www.w3.org/1999/xlink">
<g id="graph0" class="graph" transform="scale(1 1) rotate(0) translate(4 234)">
<title>psr::OpenSSLSecureMemoryDescription</title>
<!-- Node1 -->
<g id="Node000001" class="node">
<title>Node1</title>
<g id="a_Node000001"><a xlink:title=" ">
<polygon fill="#999999" stroke="#666666" points="167.5,-30 13.5,-30 13.5,0 167.5,0 167.5,-30"/>
<text text-anchor="start" x="21.5" y="-18" font-family="Helvetica,sans-Serif" font-size="10.00">psr::OpenSSLSecureMemory</text>
<text text-anchor="middle" x="90.5" y="-7" font-family="Helvetica,sans-Serif" font-size="10.00">Description</text>
</a>
</g>
</g>
<!-- Node2 -->
<g id="Node000002" class="node">
<title>Node2</title>
<g id="a_Node000002"><a xlink:href="structpsr_1_1TypeStateDescription.html" target="_top" xlink:title=" ">
<polygon fill="white" stroke="#666666" points="181,-97 0,-97 0,-67 181,-67 181,-97"/>
<text text-anchor="start" x="8" y="-85" font-family="Helvetica,sans-Serif" font-size="10.00">psr::TypeStateDescription</text>
<text text-anchor="middle" x="90.5" y="-74" font-family="Helvetica,sans-Serif" font-size="10.00">&lt; OpenSSLSecureMemoryState &gt;</text>
</a>
</g>
</g>
<!-- Node2&#45;&gt;Node1 -->
<g id="edge1_Node000001_Node000002" class="edge">
<title>Node2&#45;&gt;Node1</title>
<g id="a_edge1_Node000001_Node000002"><a xlink:title=" ">
<path fill="none" stroke="#63b8ff" d="M90.5,-56.61C90.5,-47.65 90.5,-37.82 90.5,-30.08"/>
<polygon fill="#63b8ff" stroke="#63b8ff" points="87,-56.9 90.5,-66.9 94,-56.9 87,-56.9"/>
</a>
</g>
</g>
<!-- Node3 -->
<g id="Node000003" class="node">
<title>Node3</title>
<g id="a_Node000003"><a xlink:href="structpsr_1_1TypeStateDescriptionBase.html" target="_top" xlink:title=" ">
<polygon fill="white" stroke="#666666" points="169,-230 4,-230 4,-211 169,-211 169,-230"/>
<text text-anchor="middle" x="86.5" y="-218" font-family="Helvetica,sans-Serif" font-size="10.00">psr::TypeStateDescriptionBase</text>
</a>
</g>
</g>
<!-- Node3&#45;&gt;Node2 -->
<g id="edge2_Node000002_Node000003" class="edge">
<title>Node3&#45;&gt;Node2</title>
<g id="a_edge2_Node000002_Node000003"><a xlink:title=" ">
<path fill="none" stroke="#63b8ff" d="M87.05,-200.65C87.87,-172.91 89.37,-121.7 90.09,-97.02"/>
<polygon fill="#63b8ff" stroke="#63b8ff" points="83.54,-200.86 86.75,-210.96 90.54,-201.07 83.54,-200.86"/>
</a>
</g>
</g>
<!-- Node4 -->
<g id="Node000004" class="node">
<title>Node4</title>
<g id="a_Node000004"><a xlink:href="structpsr_1_1TypeStateDescription.html" target="_top" xlink:title=" ">
<polygon fill="white" stroke="#666666" points="244,-174 103,-174 103,-144 244,-144 244,-174"/>
<text text-anchor="start" x="111" y="-162" font-family="Helvetica,sans-Serif" font-size="10.00">psr::TypeStateDescription</text>
<text text-anchor="middle" x="173.5" y="-151" font-family="Helvetica,sans-Serif" font-size="10.00">&lt; StateTy &gt;</text>
</a>
</g>
</g>
<!-- Node3&#45;&gt;Node4 -->
<g id="edge4_Node000004_Node000003" class="edge">
<title>Node3&#45;&gt;Node4</title>
<g id="a_edge4_Node000004_Node000003"><a xlink:title=" ">
<path fill="none" stroke="#63b8ff" d="M107.35,-205.24C121.18,-195.78 139.24,-183.43 153,-174.02"/>
<polygon fill="#63b8ff" stroke="#63b8ff" points="105.24,-202.44 98.96,-210.98 109.2,-208.22 105.24,-202.44"/>
</a>
</g>
</g>
<!-- Node4&#45;&gt;Node2 -->
<g id="edge3_Node000002_Node000004" class="edge">
<title>Node4&#45;&gt;Node2</title>
<g id="a_edge3_Node000002_Node000004"><a xlink:title=" ">
<path fill="none" stroke="orange" stroke-dasharray="5,2" d="M150.45,-137.17C136.29,-124.38 118.54,-108.34 106.04,-97.04"/>
<polygon fill="orange" stroke="orange" points="148.12,-139.79 157.89,-143.89 152.82,-134.59 148.12,-139.79"/>
</a>
</g>
<text text-anchor="middle" x="220.5" y="-118" font-family="Helvetica,sans-Serif" font-size="10.00" fill="grey"> &lt; OpenSSLSecureMemoryState &gt;</text>
</g>
</g>
</svg>
