<?xml version="1.0" encoding="UTF-8" standalone="no"?>
<!DOCTYPE svg PUBLIC "-//W3C//DTD SVG 1.1//EN"
 "http://www.w3.org/Graphics/SVG/1.1/DTD/svg11.dtd">
<!-- Generated by graphviz version 2.43.0 (0)
 -->
<!-- Title: psr::TypeHierarchy&lt; T, F &gt; Pages: 1 -->
<svg width="618pt" height="98pt"
 viewBox="0.00 0.00 618.00 97.50" xmlns="http://www.w3.org/2000/svg" xmlns:xlink="http://www.w3.org/1999/xlink">
<g id="graph0" class="graph" transform="scale(1 1) rotate(0) translate(4 93.5)">
<title>psr::TypeHierarchy&lt; T, F &gt;</title>
<!-- Node1 -->
<g id="Node000001" class="node">
<title>Node1</title>
<g id="a_Node000001"><a xlink:title=" ">
<polygon fill="#999999" stroke="#666666" points="107,-47 0,-47 0,-17 107,-17 107,-47"/>
<text text-anchor="start" x="8" y="-35" font-family="Helvetica,sans-Serif" font-size="10.00">psr::TypeHierarchy</text>
<text text-anchor="middle" x="53.5" y="-24" font-family="Helvetica,sans-Serif" font-size="10.00">&lt; T, F &gt;</text>
</a>
</g>
</g>
<!-- Node2 -->
<g id="Node000002" class="node">
<title>Node2</title>
<g id="a_Node000002"><a xlink:href="classpsr_1_1TypeHierarchy.html" target="_top" xlink:title=" ">
<polygon fill="white" stroke="#666666" points="425,-89.5 276,-89.5 276,-48.5 425,-48.5 425,-89.5"/>
<text text-anchor="start" x="284" y="-77.5" font-family="Helvetica,sans-Serif" font-size="10.00">psr::TypeHierarchy</text>
<text text-anchor="start" x="284" y="-66.5" font-family="Helvetica,sans-Serif" font-size="10.00">&lt; const llvm::DIType</text>
<text text-anchor="middle" x="350.5" y="-55.5" font-family="Helvetica,sans-Serif" font-size="10.00"> *, const llvm::Function * &gt;</text>
</a>
</g>
</g>
<!-- Node1&#45;&gt;Node2 -->
<g id="edge1_Node000001_Node000002" class="edge">
<title>Node1&#45;&gt;Node2</title>
<g id="a_edge1_Node000001_Node000002"><a xlink:title=" ">
<path fill="none" stroke="orange" stroke-dasharray="5,2" d="M117.17,-39.86C163.61,-45.69 227.04,-53.64 275.89,-59.77"/>
<polygon fill="orange" stroke="orange" points="117.6,-36.39 107.24,-38.61 116.73,-43.33 117.6,-36.39"/>
</a>
</g>
<text text-anchor="start" x="125" y="-72" font-family="Helvetica,sans-Serif" font-size="10.00" fill="grey"> &lt; const llvm::DIType</text>
<text text-anchor="middle" x="191.5" y="-61" font-family="Helvetica,sans-Serif" font-size="10.00" fill="grey"> *, const llvm::Function * &gt;</text>
</g>
<!-- Node4 -->
<g id="Node000004" class="node">
<title>Node4</title>
<g id="a_Node000004"><a xlink:href="classpsr_1_1TypeHierarchy.html" target="_top" xlink:title=" ">
<polygon fill="white" stroke="#666666" points="404,-30 297,-30 297,0 404,0 404,-30"/>
<text text-anchor="start" x="305" y="-18" font-family="Helvetica,sans-Serif" font-size="10.00">psr::TypeHierarchy</text>
<text text-anchor="middle" x="350.5" y="-7" font-family="Helvetica,sans-Serif" font-size="10.00">&lt; t_t, f_t &gt;</text>
</a>
</g>
</g>
<!-- Node1&#45;&gt;Node4 -->
<g id="edge3_Node000001_Node000004" class="edge">
<title>Node1&#45;&gt;Node4</title>
<g id="a_edge3_Node000001_Node000004"><a xlink:title=" ">
<path fill="none" stroke="orange" stroke-dasharray="5,2" d="M117.31,-26.54C119.91,-26.35 122.48,-26.17 125,-26 183.79,-22.06 251.33,-18.94 296.85,-17.04"/>
<polygon fill="orange" stroke="orange" points="116.93,-23.06 107.23,-27.3 117.46,-30.04 116.93,-23.06"/>
</a>
</g>
<text text-anchor="middle" x="191.5" y="-29" font-family="Helvetica,sans-Serif" font-size="10.00" fill="grey"> &lt; t_t, f_t &gt;</text>
</g>
<!-- Node3 -->
<g id="Node000003" class="node">
<title>Node3</title>
<g id="a_Node000003"><a xlink:href="classpsr_1_1DIBasedTypeHierarchy.html" target="_top" xlink:title="Represents the type hierarchy of the target program.">
<polygon fill="white" stroke="#666666" points="610,-78.5 462,-78.5 462,-59.5 610,-59.5 610,-78.5"/>
<text text-anchor="middle" x="536" y="-66.5" font-family="Helvetica,sans-Serif" font-size="10.00">psr::DIBasedTypeHierarchy</text>
</a>
</g>
</g>
<!-- Node2&#45;&gt;Node3 -->
<g id="edge2_Node000002_Node000003" class="edge">
<title>Node2&#45;&gt;Node3</title>
<g id="a_edge2_Node000002_Node000003"><a xlink:title=" ">
<path fill="none" stroke="#63b8ff" d="M435.34,-69C444.14,-69 453.04,-69 461.7,-69"/>
<polygon fill="#63b8ff" stroke="#63b8ff" points="435.08,-65.5 425.08,-69 435.08,-72.5 435.08,-65.5"/>
</a>
</g>
</g>
</g>
</svg>
