<?xml version="1.0" encoding="UTF-8" standalone="no"?>
<!DOCTYPE svg PUBLIC "-//W3C//DTD SVG 1.1//EN"
 "http://www.w3.org/Graphics/SVG/1.1/DTD/svg11.dtd">
<!-- Generated by graphviz version 2.43.0 (0)
 -->
<!-- Title: psr::EdgeFunctionSingletonCache&lt; EdgeFunctionTy &gt; Pages: 1 -->
<svg width="1630pt" height="664pt"
 viewBox="0.00 0.00 1630.00 663.93" xmlns="http://www.w3.org/2000/svg" xmlns:xlink="http://www.w3.org/1999/xlink">
<g id="graph0" class="graph" transform="scale(1 1) rotate(0) translate(4 659.93)">
<title>psr::EdgeFunctionSingletonCache&lt; EdgeFunctionTy &gt;</title>
<!-- Node1 -->
<g id="Node000001" class="node">
<title>Node1</title>
<g id="a_Node000001"><a xlink:title=" ">
<polygon fill="#999999" stroke="#666666" points="149,-287.5 0,-287.5 0,-257.5 149,-257.5 149,-287.5"/>
<text text-anchor="start" x="8" y="-275.5" font-family="Helvetica,sans-Serif" font-size="10.00">psr::EdgeFunctionSingleton</text>
<text text-anchor="middle" x="74.5" y="-264.5" font-family="Helvetica,sans-Serif" font-size="10.00">Cache&lt; EdgeFunctionTy &gt;</text>
</a>
</g>
</g>
<!-- Node2 -->
<g id="Node000002" class="node">
<title>Node2</title>
<g id="a_Node000002"><a xlink:href="classpsr_1_1DefaultEdgeFunctionSingletonCacheImpl.html" target="_top" xlink:title=" ">
<polygon fill="white" stroke="#666666" points="946.5,-653 755.5,-653 755.5,-612 946.5,-612 946.5,-653"/>
<text text-anchor="start" x="763.5" y="-641" font-family="Helvetica,sans-Serif" font-size="10.00">psr::DefaultEdgeFunction</text>
<text text-anchor="start" x="763.5" y="-630" font-family="Helvetica,sans-Serif" font-size="10.00">SingletonCacheImpl&lt; EdgeFunction</text>
<text text-anchor="middle" x="851" y="-619" font-family="Helvetica,sans-Serif" font-size="10.00">Ty, EdgeFunctionTy::l_t &gt;</text>
</a>
</g>
</g>
<!-- Node1&#45;&gt;Node2 -->
<g id="edge1_Node000001_Node000002" class="edge">
<title>Node1&#45;&gt;Node2</title>
<g id="a_edge1_Node000001_Node000002"><a xlink:title=" ">
<path fill="none" stroke="#63b8ff" d="M79.06,-297.72C86.91,-344.7 109.77,-446.48 167,-508.5 317.78,-671.91 605.99,-664.19 755.21,-647.13"/>
<polygon fill="#63b8ff" stroke="#63b8ff" points="82.51,-297.11 77.49,-287.78 75.6,-298.2 82.51,-297.11"/>
</a>
</g>
</g>
<!-- Node6 -->
<g id="Node000006" class="node">
<title>Node6</title>
<g id="a_Node000006"><a xlink:href="classpsr_1_1DefaultEdgeFunctionSingletonCacheImpl.html" target="_top" xlink:title=" ">
<polygon fill="white" stroke="#666666" points="936,-455 766,-455 766,-414 936,-414 936,-455"/>
<text text-anchor="start" x="774" y="-443" font-family="Helvetica,sans-Serif" font-size="10.00">psr::DefaultEdgeFunction</text>
<text text-anchor="start" x="774" y="-432" font-family="Helvetica,sans-Serif" font-size="10.00">SingletonCacheImpl&lt; Generate</text>
<text text-anchor="middle" x="851" y="-421" font-family="Helvetica,sans-Serif" font-size="10.00">EF, l_t &gt;</text>
</a>
</g>
</g>
<!-- Node1&#45;&gt;Node6 -->
<g id="edge5_Node000001_Node000006" class="edge">
<title>Node1&#45;&gt;Node6</title>
<g id="a_edge5_Node000001_Node000006"><a xlink:title=" ">
<path fill="none" stroke="#63b8ff" d="M121.98,-291.19C136.25,-296.4 152.12,-301.68 167,-305.5 287.07,-336.33 597.57,-363.13 718,-392.5 726.19,-394.5 727.98,-395.9 736,-398.5 751.6,-403.56 768.42,-408.93 784.23,-413.93"/>
<polygon fill="#63b8ff" stroke="#63b8ff" points="122.99,-287.83 112.39,-287.61 120.54,-294.39 122.99,-287.83"/>
</a>
</g>
</g>
<!-- Node7 -->
<g id="Node000007" class="node">
<title>Node7</title>
<g id="a_Node000007"><a xlink:href="classpsr_1_1DefaultEdgeFunctionSingletonCacheImpl.html" target="_top" xlink:title=" ">
<polygon fill="white" stroke="#666666" points="935.5,-594 766.5,-594 766.5,-553 935.5,-553 935.5,-594"/>
<text text-anchor="start" x="774.5" y="-582" font-family="Helvetica,sans-Serif" font-size="10.00">psr::DefaultEdgeFunction</text>
<text text-anchor="start" x="774.5" y="-571" font-family="Helvetica,sans-Serif" font-size="10.00">SingletonCacheImpl&lt; AddFacts</text>
<text text-anchor="middle" x="851" y="-560" font-family="Helvetica,sans-Serif" font-size="10.00">EF, l_t &gt;</text>
</a>
</g>
</g>
<!-- Node1&#45;&gt;Node7 -->
<g id="edge6_Node000001_Node000007" class="edge">
<title>Node1&#45;&gt;Node7</title>
<g id="a_edge6_Node000001_Node000007"><a xlink:title=" ">
<path fill="none" stroke="#63b8ff" d="M83.24,-297.18C95.6,-332.97 122.99,-399.34 167,-439.5 306.24,-566.56 371.44,-570.14 556,-608.5 626.49,-623.15 646.66,-618.22 718,-608.5 726.23,-607.38 727.99,-605.67 736,-603.5 747.46,-600.4 759.58,-597.17 771.47,-594.02"/>
<polygon fill="#63b8ff" stroke="#63b8ff" points="86.5,-295.91 80.02,-287.54 79.87,-298.13 86.5,-295.91"/>
</a>
</g>
</g>
<!-- Node8 -->
<g id="Node000008" class="node">
<title>Node8</title>
<g id="a_Node000008"><a xlink:href="classpsr_1_1DefaultEdgeFunctionSingletonCacheImpl.html" target="_top" xlink:title=" ">
<polygon fill="white" stroke="#666666" points="958.5,-389.5 743.5,-389.5 743.5,-337.5 958.5,-337.5 958.5,-389.5"/>
<text text-anchor="start" x="751.5" y="-377.5" font-family="Helvetica,sans-Serif" font-size="10.00">psr::DefaultEdgeFunction</text>
<text text-anchor="start" x="751.5" y="-366.5" font-family="Helvetica,sans-Serif" font-size="10.00">SingletonCacheImpl&lt; psr</text>
<text text-anchor="start" x="751.5" y="-355.5" font-family="Helvetica,sans-Serif" font-size="10.00">::IDEInstInteractionAnalysisT</text>
<text text-anchor="middle" x="851" y="-344.5" font-family="Helvetica,sans-Serif" font-size="10.00">::IIAAAddLabelsEF, EdgeFunctionTy::l_t &gt;</text>
</a>
</g>
</g>
<!-- Node1&#45;&gt;Node8 -->
<g id="edge7_Node000001_Node000008" class="edge">
<title>Node1&#45;&gt;Node8</title>
<g id="a_edge7_Node000001_Node000008"><a xlink:title=" ">
<path fill="none" stroke="#63b8ff" d="M159.33,-287.61C161.91,-287.93 164.47,-288.23 167,-288.5 288.84,-301.64 598.1,-286.13 718,-311.5 732.34,-314.53 761.87,-325.98 789.37,-337.37"/>
<polygon fill="#63b8ff" stroke="#63b8ff" points="159.67,-284.12 149.29,-286.26 158.74,-291.06 159.67,-284.12"/>
</a>
</g>
</g>
<!-- Node9 -->
<g id="Node000009" class="node">
<title>Node9</title>
<g id="a_Node000009"><a xlink:href="classpsr_1_1DefaultEdgeFunctionSingletonCacheImpl.html" target="_top" xlink:title=" ">
<polygon fill="white" stroke="#666666" points="966,-307.5 736,-307.5 736,-255.5 966,-255.5 966,-307.5"/>
<text text-anchor="start" x="744" y="-295.5" font-family="Helvetica,sans-Serif" font-size="10.00">psr::DefaultEdgeFunction</text>
<text text-anchor="start" x="744" y="-284.5" font-family="Helvetica,sans-Serif" font-size="10.00">SingletonCacheImpl&lt; psr</text>
<text text-anchor="start" x="744" y="-273.5" font-family="Helvetica,sans-Serif" font-size="10.00">::IDEInstInteractionAnalysisT</text>
<text text-anchor="middle" x="851" y="-262.5" font-family="Helvetica,sans-Serif" font-size="10.00">::IIAAKillOrReplaceEF, EdgeFunctionTy::l_t &gt;</text>
</a>
</g>
</g>
<!-- Node1&#45;&gt;Node9 -->
<g id="edge8_Node000001_Node000009" class="edge">
<title>Node1&#45;&gt;Node9</title>
<g id="a_edge8_Node000001_Node000009"><a xlink:title=" ">
<path fill="none" stroke="#63b8ff" d="M159.26,-273.47C298.7,-275.09 578.63,-278.35 735.95,-280.17"/>
<polygon fill="#63b8ff" stroke="#63b8ff" points="159.1,-269.97 149.06,-273.35 159.02,-276.97 159.1,-269.97"/>
</a>
</g>
</g>
<!-- Node10 -->
<g id="Node000010" class="node">
<title>Node10</title>
<g id="a_Node000010"><a xlink:href="classpsr_1_1DefaultEdgeFunctionSingletonCacheImpl.html" target="_top" xlink:title=" ">
<polygon fill="white" stroke="#666666" points="538,-501 347,-501 347,-460 538,-460 538,-501"/>
<text text-anchor="start" x="355" y="-489" font-family="Helvetica,sans-Serif" font-size="10.00">psr::DefaultEdgeFunction</text>
<text text-anchor="start" x="355" y="-478" font-family="Helvetica,sans-Serif" font-size="10.00">SingletonCacheImpl&lt; EdgeFunction</text>
<text text-anchor="middle" x="442.5" y="-467" font-family="Helvetica,sans-Serif" font-size="10.00">Ty, L &gt;</text>
</a>
</g>
</g>
<!-- Node1&#45;&gt;Node10 -->
<g id="edge9_Node000001_Node000010" class="edge">
<title>Node1&#45;&gt;Node10</title>
<g id="a_edge9_Node000001_Node000010"><a xlink:title=" ">
<path fill="none" stroke="#63b8ff" d="M87.95,-296.64C103.12,-323.74 131.2,-367.22 167,-392.5 220.35,-430.17 290.64,-452.3 346.74,-464.95"/>
<polygon fill="#63b8ff" stroke="#63b8ff" points="90.99,-294.9 83.14,-287.8 84.84,-298.25 90.99,-294.9"/>
</a>
</g>
</g>
<!-- Node11 -->
<g id="Node000011" class="node">
<title>Node11</title>
<g id="a_Node000011"><a xlink:href="classpsr_1_1EdgeFunctionSingletonCache.html" target="_top" xlink:title=" ">
<polygon fill="white" stroke="#666666" points="517,-244.5 368,-244.5 368,-214.5 517,-214.5 517,-244.5"/>
<text text-anchor="start" x="376" y="-232.5" font-family="Helvetica,sans-Serif" font-size="10.00">psr::EdgeFunctionSingleton</text>
<text text-anchor="middle" x="442.5" y="-221.5" font-family="Helvetica,sans-Serif" font-size="10.00">Cache&lt; T &gt;</text>
</a>
</g>
</g>
<!-- Node1&#45;&gt;Node11 -->
<g id="edge17_Node000001_Node000011" class="edge">
<title>Node1&#45;&gt;Node11</title>
<g id="a_edge17_Node000001_Node000011"><a xlink:title=" ">
<path fill="none" stroke="orange" stroke-dasharray="5,2" d="M133.5,-254.77C144.54,-251.93 156.06,-249.33 167,-247.5 234.47,-236.19 312.39,-231.9 367.93,-230.32"/>
<polygon fill="orange" stroke="orange" points="132.29,-251.47 123.53,-257.43 134.1,-258.23 132.29,-251.47"/>
</a>
</g>
<text text-anchor="middle" x="248" y="-250.5" font-family="Helvetica,sans-Serif" font-size="10.00" fill="grey"> &lt; T &gt;</text>
</g>
<!-- Node12 -->
<g id="Node000012" class="node">
<title>Node12</title>
<g id="a_Node000012"><a xlink:href="classpsr_1_1EdgeFunctionSingletonCache.html" target="_top" xlink:title=" ">
<polygon fill="white" stroke="#666666" points="517,-196.5 368,-196.5 368,-166.5 517,-166.5 517,-196.5"/>
<text text-anchor="start" x="376" y="-184.5" font-family="Helvetica,sans-Serif" font-size="10.00">psr::EdgeFunctionSingleton</text>
<text text-anchor="middle" x="442.5" y="-173.5" font-family="Helvetica,sans-Serif" font-size="10.00">Cache&lt; GenerateEF &gt;</text>
</a>
</g>
</g>
<!-- Node1&#45;&gt;Node12 -->
<g id="edge18_Node000001_Node000012" class="edge">
<title>Node1&#45;&gt;Node12</title>
<g id="a_edge18_Node000001_Node000012"><a xlink:title=" ">
<path fill="none" stroke="orange" stroke-dasharray="5,2" d="M103.12,-251.31C120.51,-239.1 143.96,-224.6 167,-216.5 232.49,-193.48 311.51,-185.3 367.91,-182.53"/>
<polygon fill="orange" stroke="orange" points="100.68,-248.76 94.62,-257.44 104.77,-254.43 100.68,-248.76"/>
</a>
</g>
<text text-anchor="middle" x="248" y="-219.5" font-family="Helvetica,sans-Serif" font-size="10.00" fill="grey"> &lt; GenerateEF &gt;</text>
</g>
<!-- Node13 -->
<g id="Node000013" class="node">
<title>Node13</title>
<g id="a_Node000013"><a xlink:href="classpsr_1_1EdgeFunctionSingletonCache.html" target="_top" xlink:title=" ">
<polygon fill="white" stroke="#666666" points="517,-148.5 368,-148.5 368,-118.5 517,-118.5 517,-148.5"/>
<text text-anchor="start" x="376" y="-136.5" font-family="Helvetica,sans-Serif" font-size="10.00">psr::EdgeFunctionSingleton</text>
<text text-anchor="middle" x="442.5" y="-125.5" font-family="Helvetica,sans-Serif" font-size="10.00">Cache&lt; AddFactsEF &gt;</text>
</a>
</g>
</g>
<!-- Node1&#45;&gt;Node13 -->
<g id="edge19_Node000001_Node000013" class="edge">
<title>Node1&#45;&gt;Node13</title>
<g id="a_edge19_Node000001_Node000013"><a xlink:title=" ">
<path fill="none" stroke="orange" stroke-dasharray="5,2" d="M89.52,-248.5C105.13,-224.2 132.71,-187.68 167,-169.5 229.21,-136.52 310.12,-129.5 367.95,-129.52"/>
<polygon fill="orange" stroke="orange" points="86.45,-246.81 84.14,-257.15 92.4,-250.51 86.45,-246.81"/>
</a>
</g>
<text text-anchor="middle" x="248" y="-172.5" font-family="Helvetica,sans-Serif" font-size="10.00" fill="grey"> &lt; AddFactsEF &gt;</text>
</g>
<!-- Node14 -->
<g id="Node000014" class="node">
<title>Node14</title>
<g id="a_Node000014"><a xlink:href="classpsr_1_1EdgeFunctionSingletonCache.html" target="_top" xlink:title=" ">
<polygon fill="white" stroke="#666666" points="525.5,-100 359.5,-100 359.5,-59 525.5,-59 525.5,-100"/>
<text text-anchor="start" x="367.5" y="-88" font-family="Helvetica,sans-Serif" font-size="10.00">psr::EdgeFunctionSingleton</text>
<text text-anchor="start" x="367.5" y="-77" font-family="Helvetica,sans-Serif" font-size="10.00">Cache&lt; psr::IDEInstInteraction</text>
<text text-anchor="middle" x="442.5" y="-66" font-family="Helvetica,sans-Serif" font-size="10.00">AnalysisT::IIAAAddLabelsEF &gt;</text>
</a>
</g>
</g>
<!-- Node1&#45;&gt;Node14 -->
<g id="edge20_Node000001_Node000014" class="edge">
<title>Node1&#45;&gt;Node14</title>
<g id="a_edge20_Node000001_Node000014"><a xlink:title=" ">
<path fill="none" stroke="orange" stroke-dasharray="5,2" d="M81.14,-247.62C91.2,-209.6 116.13,-137.93 167,-104.5 223.39,-67.44 300.93,-63.62 359.22,-67.67"/>
<polygon fill="orange" stroke="orange" points="77.73,-246.84 78.69,-257.39 84.52,-248.54 77.73,-246.84"/>
</a>
</g>
<text text-anchor="start" x="175" y="-118.5" font-family="Helvetica,sans-Serif" font-size="10.00" fill="grey"> &lt; psr::IDEInstInteraction</text>
<text text-anchor="middle" x="248" y="-107.5" font-family="Helvetica,sans-Serif" font-size="10.00" fill="grey">AnalysisT::IIAAAddLabelsEF &gt;</text>
</g>
<!-- Node15 -->
<g id="Node000015" class="node">
<title>Node15</title>
<g id="a_Node000015"><a xlink:href="classpsr_1_1EdgeFunctionSingletonCache.html" target="_top" xlink:title=" ">
<polygon fill="white" stroke="#666666" points="531.5,-41 353.5,-41 353.5,0 531.5,0 531.5,-41"/>
<text text-anchor="start" x="361.5" y="-29" font-family="Helvetica,sans-Serif" font-size="10.00">psr::EdgeFunctionSingleton</text>
<text text-anchor="start" x="361.5" y="-18" font-family="Helvetica,sans-Serif" font-size="10.00">Cache&lt; psr::IDEInstInteraction</text>
<text text-anchor="middle" x="442.5" y="-7" font-family="Helvetica,sans-Serif" font-size="10.00">AnalysisT::IIAAKillOrReplaceEF &gt;</text>
</a>
</g>
</g>
<!-- Node1&#45;&gt;Node15 -->
<g id="edge21_Node000001_Node000015" class="edge">
<title>Node1&#45;&gt;Node15</title>
<g id="a_edge21_Node000001_Node000015"><a xlink:title=" ">
<path fill="none" stroke="orange" stroke-dasharray="5,2" d="M77.02,-247.13C81.47,-197.8 98.91,-89.44 167,-39.5 219.87,-0.72 294.95,1.94 353.23,-3.94"/>
<polygon fill="orange" stroke="orange" points="73.52,-247.01 76.21,-257.26 80.49,-247.56 73.52,-247.01"/>
</a>
</g>
<text text-anchor="start" x="167" y="-53.5" font-family="Helvetica,sans-Serif" font-size="10.00" fill="grey"> &lt; psr::IDEInstInteraction</text>
<text text-anchor="middle" x="248" y="-42.5" font-family="Helvetica,sans-Serif" font-size="10.00" fill="grey">AnalysisT::IIAAKillOrReplaceEF &gt;</text>
</g>
<!-- Node3 -->
<g id="Node000003" class="node">
<title>Node3</title>
<g id="a_Node000003"><a xlink:href="classpsr_1_1DefaultEdgeFunctionSingletonCache.html" target="_top" xlink:title=" ">
<polygon fill="white" stroke="#666666" points="1194,-617.5 1003,-617.5 1003,-587.5 1194,-587.5 1194,-617.5"/>
<text text-anchor="start" x="1011" y="-605.5" font-family="Helvetica,sans-Serif" font-size="10.00">psr::DefaultEdgeFunction</text>
<text text-anchor="middle" x="1098.5" y="-594.5" font-family="Helvetica,sans-Serif" font-size="10.00">SingletonCache&lt; EdgeFunctionTy &gt;</text>
</a>
</g>
</g>
<!-- Node2&#45;&gt;Node3 -->
<g id="edge2_Node000002_Node000003" class="edge">
<title>Node2&#45;&gt;Node3</title>
<g id="a_edge2_Node000002_Node000003"><a xlink:title=" ">
<path fill="none" stroke="#63b8ff" d="M956.62,-619.72C972.02,-617.83 987.8,-615.9 1002.98,-614.05"/>
<polygon fill="#63b8ff" stroke="#63b8ff" points="956.07,-616.26 946.57,-620.94 956.92,-623.21 956.07,-616.26"/>
</a>
</g>
</g>
<!-- Node4 -->
<g id="Node000004" class="node">
<title>Node4</title>
<g id="a_Node000004"><a xlink:href="classpsr_1_1DefaultEdgeFunctionSingletonCache.html" target="_top" xlink:title=" ">
<polygon fill="white" stroke="#666666" points="1614.5,-535 1399.5,-535 1399.5,-494 1614.5,-494 1614.5,-535"/>
<text text-anchor="start" x="1407.5" y="-523" font-family="Helvetica,sans-Serif" font-size="10.00">psr::DefaultEdgeFunction</text>
<text text-anchor="start" x="1407.5" y="-512" font-family="Helvetica,sans-Serif" font-size="10.00">SingletonCache&lt; psr::IDEInst</text>
<text text-anchor="middle" x="1507" y="-501" font-family="Helvetica,sans-Serif" font-size="10.00">InteractionAnalysisT::IIAAAddLabelsEF &gt;</text>
</a>
</g>
</g>
<!-- Node3&#45;&gt;Node4 -->
<g id="edge3_Node000003_Node000004" class="edge">
<title>Node3&#45;&gt;Node4</title>
<g id="a_edge3_Node000003_Node000004"><a xlink:title=" ">
<path fill="none" stroke="orange" stroke-dasharray="5,2" d="M1151.46,-584.26C1170.36,-578.06 1192,-571.45 1212,-566.5 1273.51,-551.29 1343.32,-538.75 1399.48,-529.8"/>
<polygon fill="orange" stroke="orange" points="1150.23,-580.98 1141.85,-587.46 1152.44,-587.62 1150.23,-580.98"/>
</a>
</g>
<text text-anchor="start" x="1220" y="-580.5" font-family="Helvetica,sans-Serif" font-size="10.00" fill="grey"> &lt; psr::IDEInstInteraction</text>
<text text-anchor="middle" x="1293" y="-569.5" font-family="Helvetica,sans-Serif" font-size="10.00" fill="grey">AnalysisT::IIAAAddLabelsEF &gt;</text>
</g>
<!-- Node5 -->
<g id="Node000005" class="node">
<title>Node5</title>
<g id="a_Node000005"><a xlink:href="classpsr_1_1DefaultEdgeFunctionSingletonCache.html" target="_top" xlink:title=" ">
<polygon fill="white" stroke="#666666" points="1622,-608 1392,-608 1392,-567 1622,-567 1622,-608"/>
<text text-anchor="start" x="1400" y="-596" font-family="Helvetica,sans-Serif" font-size="10.00">psr::DefaultEdgeFunction</text>
<text text-anchor="start" x="1400" y="-585" font-family="Helvetica,sans-Serif" font-size="10.00">SingletonCache&lt; psr::IDEInst</text>
<text text-anchor="middle" x="1507" y="-574" font-family="Helvetica,sans-Serif" font-size="10.00">InteractionAnalysisT::IIAAKillOrReplaceEF &gt;</text>
</a>
</g>
</g>
<!-- Node3&#45;&gt;Node5 -->
<g id="edge4_Node000003_Node000005" class="edge">
<title>Node3&#45;&gt;Node5</title>
<g id="a_edge4_Node000003_Node000005"><a xlink:title=" ">
<path fill="none" stroke="orange" stroke-dasharray="5,2" d="M1204.22,-598.64C1261.63,-596.52 1332.88,-593.89 1391.72,-591.72"/>
<polygon fill="orange" stroke="orange" points="1203.9,-595.15 1194.04,-599.01 1204.16,-602.14 1203.9,-595.15"/>
</a>
</g>
<text text-anchor="start" x="1212" y="-611.5" font-family="Helvetica,sans-Serif" font-size="10.00" fill="grey"> &lt; psr::IDEInstInteraction</text>
<text text-anchor="middle" x="1293" y="-600.5" font-family="Helvetica,sans-Serif" font-size="10.00" fill="grey">AnalysisT::IIAAKillOrReplaceEF &gt;</text>
</g>
<!-- Node10&#45;&gt;Node2 -->
<g id="edge12_Node000010_Node000002" class="edge">
<title>Node10&#45;&gt;Node2</title>
<g id="a_edge12_Node000010_Node000002"><a xlink:title=" ">
<path fill="none" stroke="orange" stroke-dasharray="5,2" d="M473.64,-508.06C495.14,-526.31 525.53,-549.41 556,-563.5 619.29,-592.76 696.17,-610.24 755.44,-620.29"/>
<polygon fill="orange" stroke="orange" points="475.71,-505.22 465.85,-501.33 471.13,-510.51 475.71,-505.22"/>
</a>
</g>
<text text-anchor="start" x="556" y="-625.5" font-family="Helvetica,sans-Serif" font-size="10.00" fill="grey"> &lt; EdgeFunctionTy, EdgeFunction</text>
<text text-anchor="middle" x="637" y="-614.5" font-family="Helvetica,sans-Serif" font-size="10.00" fill="grey">Ty::l_t &gt;</text>
</g>
<!-- Node10&#45;&gt;Node4 -->
<g id="edge10_Node000010_Node000004" class="edge">
<title>Node10&#45;&gt;Node4</title>
<g id="a_edge10_Node000010_Node000004"><a xlink:title=" ">
<path fill="none" stroke="#63b8ff" d="M548.32,-483.85C751.03,-490.34 1194.81,-504.54 1399.14,-511.08"/>
<polygon fill="#63b8ff" stroke="#63b8ff" points="548.36,-480.35 538.26,-483.53 548.14,-487.35 548.36,-480.35"/>
</a>
</g>
</g>
<!-- Node10&#45;&gt;Node5 -->
<g id="edge11_Node000010_Node000005" class="edge">
<title>Node10&#45;&gt;Node5</title>
<g id="a_edge11_Node000010_Node000005"><a xlink:title=" ">
<path fill="none" stroke="#63b8ff" d="M548.29,-499.58C550.88,-499.91 553.46,-500.22 556,-500.5 736.85,-520.69 1195.69,-502.18 1374,-538.5 1378.19,-539.35 1417.28,-553.93 1451.84,-566.96"/>
<polygon fill="#63b8ff" stroke="#63b8ff" points="548.58,-496.09 538.2,-498.24 547.65,-503.03 548.58,-496.09"/>
</a>
</g>
</g>
<!-- Node10&#45;&gt;Node6 -->
<g id="edge13_Node000010_Node000006" class="edge">
<title>Node10&#45;&gt;Node6</title>
<g id="a_edge13_Node000010_Node000006"><a xlink:title=" ">
<path fill="none" stroke="orange" stroke-dasharray="5,2" d="M548.28,-468.64C615.85,-461 702.55,-451.19 765.66,-444.04"/>
<polygon fill="orange" stroke="orange" points="547.58,-465.2 538.04,-469.8 548.37,-472.16 547.58,-465.2"/>
</a>
</g>
<text text-anchor="middle" x="637" y="-469.5" font-family="Helvetica,sans-Serif" font-size="10.00" fill="grey"> &lt; GenerateEF, l_t &gt;</text>
</g>
<!-- Node10&#45;&gt;Node7 -->
<g id="edge14_Node000010_Node000007" class="edge">
<title>Node10&#45;&gt;Node7</title>
<g id="a_edge14_Node000010_Node000007"><a xlink:title=" ">
<path fill="none" stroke="orange" stroke-dasharray="5,2" d="M492.61,-505.32C511.94,-514.17 534.6,-523.44 556,-529.5 625.97,-549.31 646.09,-541.68 718,-552.5 733.6,-554.85 750.23,-557.43 766.24,-559.96"/>
<polygon fill="orange" stroke="orange" points="493.95,-502.08 483.41,-501.03 490.99,-508.43 493.95,-502.08"/>
</a>
</g>
<text text-anchor="middle" x="637" y="-555.5" font-family="Helvetica,sans-Serif" font-size="10.00" fill="grey"> &lt; AddFactsEF, l_t &gt;</text>
</g>
<!-- Node10&#45;&gt;Node8 -->
<g id="edge15_Node000010_Node000008" class="edge">
<title>Node10&#45;&gt;Node8</title>
<g id="a_edge15_Node000010_Node000008"><a xlink:title=" ">
<path fill="none" stroke="orange" stroke-dasharray="5,2" d="M479.99,-454.06C501.2,-439.93 529,-423.44 556,-413.5 616,-391.41 686.54,-378.99 743.47,-372.06"/>
<polygon fill="orange" stroke="orange" points="477.93,-451.23 471.62,-459.74 481.86,-457.02 477.93,-451.23"/>
</a>
</g>
<text text-anchor="start" x="568" y="-438.5" font-family="Helvetica,sans-Serif" font-size="10.00" fill="grey"> &lt; psr::IDEInstInteraction</text>
<text text-anchor="start" x="568" y="-427.5" font-family="Helvetica,sans-Serif" font-size="10.00" fill="grey">AnalysisT::IIAAAddLabelsEF,</text>
<text text-anchor="middle" x="637" y="-416.5" font-family="Helvetica,sans-Serif" font-size="10.00" fill="grey"> EdgeFunctionTy::l_t &gt;</text>
</g>
<!-- Node10&#45;&gt;Node9 -->
<g id="edge16_Node000010_Node000009" class="edge">
<title>Node10&#45;&gt;Node9</title>
<g id="a_edge16_Node000010_Node000009"><a xlink:title=" ">
<path fill="none" stroke="orange" stroke-dasharray="5,2" d="M458.56,-450.85C476.91,-417.91 511.11,-365.78 556,-338.5 609.76,-305.82 678.38,-291.3 735.8,-285.08"/>
<polygon fill="orange" stroke="orange" points="455.29,-449.54 453.59,-460 461.44,-452.88 455.29,-449.54"/>
</a>
</g>
<text text-anchor="start" x="560" y="-363.5" font-family="Helvetica,sans-Serif" font-size="10.00" fill="grey"> &lt; psr::IDEInstInteraction</text>
<text text-anchor="start" x="560" y="-352.5" font-family="Helvetica,sans-Serif" font-size="10.00" fill="grey">AnalysisT::IIAAKillOrReplaceEF,</text>
<text text-anchor="middle" x="637" y="-341.5" font-family="Helvetica,sans-Serif" font-size="10.00" fill="grey"> EdgeFunctionTy::l_t &gt;</text>
</g>
</g>
</svg>
