<?xml version="1.0" encoding="UTF-8" standalone="no"?>
<!DOCTYPE svg PUBLIC "-//W3C//DTD SVG 1.1//EN"
 "http://www.w3.org/Graphics/SVG/1.1/DTD/svg11.dtd">
<!-- Generated by graphviz version 2.43.0 (0)
 -->
<!-- Title: psr::OpenSSLEVPKDFDescription Pages: 1 -->
<svg width="275pt" height="227pt"
 viewBox="0.00 0.00 274.50 227.00" xmlns="http://www.w3.org/2000/svg" xmlns:xlink="http://www.w3.org/1999/xlink">
<g id="graph0" class="graph" transform="scale(1 1) rotate(0) translate(4 223)">
<title>psr::OpenSSLEVPKDFDescription</title>
<!-- Node1 -->
<g id="Node000001" class="node">
<title>Node1</title>
<g id="a_Node000001"><a xlink:title=" ">
<polygon fill="#999999" stroke="#666666" points="175,-19 0,-19 0,0 175,0 175,-19"/>
<text text-anchor="middle" x="87.5" y="-7" font-family="Helvetica,sans-Serif" font-size="10.00">psr::OpenSSLEVPKDFDescription</text>
</a>
</g>
</g>
<!-- Node2 -->
<g id="Node000002" class="node">
<title>Node2</title>
<g id="a_Node000002"><a xlink:href="structpsr_1_1TypeStateDescription.html" target="_top" xlink:title=" ">
<polygon fill="white" stroke="#666666" points="160.5,-86 14.5,-86 14.5,-56 160.5,-56 160.5,-86"/>
<text text-anchor="start" x="22.5" y="-74" font-family="Helvetica,sans-Serif" font-size="10.00">psr::TypeStateDescription</text>
<text text-anchor="middle" x="87.5" y="-63" font-family="Helvetica,sans-Serif" font-size="10.00">&lt; OpenSSLEVPKDFState &gt;</text>
</a>
</g>
</g>
<!-- Node2&#45;&gt;Node1 -->
<g id="edge1_Node000001_Node000002" class="edge">
<title>Node2&#45;&gt;Node1</title>
<g id="a_edge1_Node000001_Node000002"><a xlink:title=" ">
<path fill="none" stroke="#63b8ff" d="M87.5,-45.79C87.5,-36.36 87.5,-26.15 87.5,-19.16"/>
<polygon fill="#63b8ff" stroke="#63b8ff" points="84,-45.9 87.5,-55.9 91,-45.9 84,-45.9"/>
</a>
</g>
</g>
<!-- Node3 -->
<g id="Node000003" class="node">
<title>Node3</title>
<g id="a_Node000003"><a xlink:href="structpsr_1_1TypeStateDescriptionBase.html" target="_top" xlink:title=" ">
<polygon fill="white" stroke="#666666" points="166,-219 1,-219 1,-200 166,-200 166,-219"/>
<text text-anchor="middle" x="83.5" y="-207" font-family="Helvetica,sans-Serif" font-size="10.00">psr::TypeStateDescriptionBase</text>
</a>
</g>
</g>
<!-- Node3&#45;&gt;Node2 -->
<g id="edge2_Node000002_Node000003" class="edge">
<title>Node3&#45;&gt;Node2</title>
<g id="a_edge2_Node000002_Node000003"><a xlink:title=" ">
<path fill="none" stroke="#63b8ff" d="M84.05,-189.65C84.87,-161.91 86.37,-110.7 87.09,-86.02"/>
<polygon fill="#63b8ff" stroke="#63b8ff" points="80.54,-189.86 83.75,-199.96 87.54,-190.07 80.54,-189.86"/>
</a>
</g>
</g>
<!-- Node4 -->
<g id="Node000004" class="node">
<title>Node4</title>
<g id="a_Node000004"><a xlink:href="structpsr_1_1TypeStateDescription.html" target="_top" xlink:title=" ">
<polygon fill="white" stroke="#666666" points="241,-163 100,-163 100,-133 241,-133 241,-163"/>
<text text-anchor="start" x="108" y="-151" font-family="Helvetica,sans-Serif" font-size="10.00">psr::TypeStateDescription</text>
<text text-anchor="middle" x="170.5" y="-140" font-family="Helvetica,sans-Serif" font-size="10.00">&lt; StateTy &gt;</text>
</a>
</g>
</g>
<!-- Node3&#45;&gt;Node4 -->
<g id="edge4_Node000004_Node000003" class="edge">
<title>Node3&#45;&gt;Node4</title>
<g id="a_edge4_Node000004_Node000003"><a xlink:title=" ">
<path fill="none" stroke="#63b8ff" d="M104.35,-194.24C118.18,-184.78 136.24,-172.43 150,-163.02"/>
<polygon fill="#63b8ff" stroke="#63b8ff" points="102.24,-191.44 95.96,-199.98 106.2,-197.22 102.24,-191.44"/>
</a>
</g>
</g>
<!-- Node4&#45;&gt;Node2 -->
<g id="edge3_Node000002_Node000004" class="edge">
<title>Node4&#45;&gt;Node2</title>
<g id="a_edge3_Node000002_Node000004"><a xlink:title=" ">
<path fill="none" stroke="orange" stroke-dasharray="5,2" d="M147.45,-126.17C133.29,-113.38 115.54,-97.34 103.04,-86.04"/>
<polygon fill="orange" stroke="orange" points="145.12,-128.79 154.89,-132.89 149.82,-123.59 145.12,-128.79"/>
</a>
</g>
<text text-anchor="middle" x="200" y="-107" font-family="Helvetica,sans-Serif" font-size="10.00" fill="grey"> &lt; OpenSSLEVPKDFState &gt;</text>
</g>
</g>
</svg>
