<?xml version="1.0" encoding="UTF-8" standalone="no"?>
<!DOCTYPE svg PUBLIC "-//W3C//DTD SVG 1.1//EN"
 "http://www.w3.org/Graphics/SVG/1.1/DTD/svg11.dtd">
<!-- Generated by graphviz version 2.43.0 (0)
 -->
<!-- Title: psr::Resolver Pages: 1 -->
<svg width="341pt" height="137pt"
 viewBox="0.00 0.00 340.50 137.00" xmlns="http://www.w3.org/2000/svg" xmlns:xlink="http://www.w3.org/1999/xlink">
<g id="graph0" class="graph" transform="scale(1 1) rotate(0) translate(4 133)">
<title>psr::Resolver</title>
<!-- Node1 -->
<g id="Node000001" class="node">
<title>Node1</title>
<g id="a_Node000001"><a xlink:title="A base class for call&#45;target resolvers. Used to build call graphs.">
<polygon fill="#999999" stroke="#666666" points="206.5,-129 126.5,-129 126.5,-110 206.5,-110 206.5,-129"/>
<text text-anchor="middle" x="166.5" y="-117" font-family="Helvetica,sans-Serif" font-size="10.00">psr::Resolver</text>
</a>
</g>
</g>
<!-- Node2 -->
<g id="Node000002" class="node">
<title>Node2</title>
<g id="a_Node000002"><a xlink:href="classpsr_1_1CHAResolver.html" target="_top" xlink:title="A resolver that performs Class Hierarchy Analysis to resolve calls to C++ virtual functions....">
<polygon fill="white" stroke="#666666" points="101,-74 0,-74 0,-55 101,-55 101,-74"/>
<text text-anchor="middle" x="50.5" y="-62" font-family="Helvetica,sans-Serif" font-size="10.00">psr::CHAResolver</text>
</a>
</g>
</g>
<!-- Node1&#45;&gt;Node2 -->
<g id="edge1_Node000001_Node000002" class="edge">
<title>Node1&#45;&gt;Node2</title>
<g id="a_edge1_Node000001_Node000002"><a xlink:title=" ">
<path fill="none" stroke="#63b8ff" d="M138.63,-105.77C117.23,-95.99 88.26,-82.75 69.48,-74.17"/>
<polygon fill="#63b8ff" stroke="#63b8ff" points="137.31,-109.01 147.86,-109.98 140.22,-102.65 137.31,-109.01"/>
</a>
</g>
</g>
<!-- Node4 -->
<g id="Node000004" class="node">
<title>Node4</title>
<g id="a_Node000004"><a xlink:href="classpsr_1_1NOResolver.html" target="_top" xlink:title="A resolver that doesn&#39;t resolve indirect&#45; and virtual calls.">
<polygon fill="white" stroke="#666666" points="214,-74 119,-74 119,-55 214,-55 214,-74"/>
<text text-anchor="middle" x="166.5" y="-62" font-family="Helvetica,sans-Serif" font-size="10.00">psr::NOResolver</text>
</a>
</g>
</g>
<!-- Node1&#45;&gt;Node4 -->
<g id="edge3_Node000001_Node000004" class="edge">
<title>Node1&#45;&gt;Node4</title>
<g id="a_edge3_Node000001_Node000004"><a xlink:title=" ">
<path fill="none" stroke="#63b8ff" d="M166.5,-99.66C166.5,-90.93 166.5,-80.99 166.5,-74.09"/>
<polygon fill="#63b8ff" stroke="#63b8ff" points="163,-99.75 166.5,-109.75 170,-99.75 163,-99.75"/>
</a>
</g>
</g>
<!-- Node5 -->
<g id="Node000005" class="node">
<title>Node5</title>
<g id="a_Node000005"><a xlink:href="classpsr_1_1OTFResolver.html" target="_top" xlink:title="A resolver that uses alias information to resolve indirect and virtual calls.">
<polygon fill="white" stroke="#666666" points="332.5,-74 232.5,-74 232.5,-55 332.5,-55 332.5,-74"/>
<text text-anchor="middle" x="282.5" y="-62" font-family="Helvetica,sans-Serif" font-size="10.00">psr::OTFResolver</text>
</a>
</g>
</g>
<!-- Node1&#45;&gt;Node5 -->
<g id="edge4_Node000001_Node000005" class="edge">
<title>Node1&#45;&gt;Node5</title>
<g id="a_edge4_Node000001_Node000005"><a xlink:title=" ">
<path fill="none" stroke="#63b8ff" d="M194.37,-105.77C215.77,-95.99 244.74,-82.75 263.52,-74.17"/>
<polygon fill="#63b8ff" stroke="#63b8ff" points="192.78,-102.65 185.14,-109.98 195.69,-109.01 192.78,-102.65"/>
</a>
</g>
</g>
<!-- Node3 -->
<g id="Node000003" class="node">
<title>Node3</title>
<g id="a_Node000003"><a xlink:href="classpsr_1_1RTAResolver.html" target="_top" xlink:title="A resolver that performs Rapid Type Analysis to resolve calls to C++ virtual functions....">
<polygon fill="white" stroke="#666666" points="99.5,-19 1.5,-19 1.5,0 99.5,0 99.5,-19"/>
<text text-anchor="middle" x="50.5" y="-7" font-family="Helvetica,sans-Serif" font-size="10.00">psr::RTAResolver</text>
</a>
</g>
</g>
<!-- Node2&#45;&gt;Node3 -->
<g id="edge2_Node000002_Node000003" class="edge">
<title>Node2&#45;&gt;Node3</title>
<g id="a_edge2_Node000002_Node000003"><a xlink:title=" ">
<path fill="none" stroke="#63b8ff" d="M50.5,-44.66C50.5,-35.93 50.5,-25.99 50.5,-19.09"/>
<polygon fill="#63b8ff" stroke="#63b8ff" points="47,-44.75 50.5,-54.75 54,-44.75 47,-44.75"/>
</a>
</g>
</g>
</g>
</svg>
