<?xml version="1.0" encoding="UTF-8" standalone="no"?>
<!DOCTYPE svg PUBLIC "-//W3C//DTD SVG 1.1//EN"
 "http://www.w3.org/Graphics/SVG/1.1/DTD/svg11.dtd">
<!-- Generated by graphviz version 2.43.0 (0)
 -->
<!-- Title: psr::IFDSProtoAnalysis Pages: 1 -->
<svg width="1671pt" height="233pt"
 viewBox="0.00 0.00 1671.00 233.00" xmlns="http://www.w3.org/2000/svg" xmlns:xlink="http://www.w3.org/1999/xlink">
<g id="graph0" class="graph" transform="scale(1 1) rotate(0) translate(4 229)">
<title>psr::IFDSProtoAnalysis</title>
<!-- Node1 -->
<g id="Node000001" class="node">
<title>Node1</title>
<g id="a_Node000001"><a xlink:title=" ">
<polygon fill="#999999" stroke="#666666" points="1663,-110.5 1536,-110.5 1536,-91.5 1663,-91.5 1663,-110.5"/>
<text text-anchor="middle" x="1599.5" y="-98.5" font-family="Helvetica,sans-Serif" font-size="10.00">psr::IFDSProtoAnalysis</text>
</a>
</g>
</g>
<!-- Node2 -->
<g id="Node000002" class="node">
<title>Node2</title>
<g id="a_Node000002"><a xlink:href="classpsr_1_1IFDSTabulationProblem.html" target="_top" xlink:title=" ">
<polygon fill="white" stroke="#666666" points="1499,-116 1296,-116 1296,-86 1499,-86 1499,-116"/>
<text text-anchor="start" x="1304" y="-104" font-family="Helvetica,sans-Serif" font-size="10.00">psr::IFDSTabulationProblem</text>
<text text-anchor="middle" x="1397.5" y="-93" font-family="Helvetica,sans-Serif" font-size="10.00">&lt; LLVMIFDSAnalysisDomainDefault &gt;</text>
</a>
</g>
</g>
<!-- Node2&#45;&gt;Node1 -->
<g id="edge1_Node000001_Node000002" class="edge">
<title>Node2&#45;&gt;Node1</title>
<g id="a_edge1_Node000001_Node000002"><a xlink:title=" ">
<path fill="none" stroke="#63b8ff" d="M1509.36,-101C1518.43,-101 1527.38,-101 1535.9,-101"/>
<polygon fill="#63b8ff" stroke="#63b8ff" points="1509.09,-97.5 1499.09,-101 1509.09,-104.5 1509.09,-97.5"/>
</a>
</g>
</g>
<!-- Node3 -->
<g id="Node000003" class="node">
<title>Node3</title>
<g id="a_Node000003"><a xlink:href="classpsr_1_1IDETabulationProblem.html" target="_top" xlink:title="The analysis problem interface for IDE problems (solvable by the IDESolver). Create a subclass from t...">
<polygon fill="white" stroke="#666666" points="898,-116 716,-116 716,-86 898,-86 898,-116"/>
<text text-anchor="start" x="724" y="-104" font-family="Helvetica,sans-Serif" font-size="10.00">psr::IDETabulationProblem</text>
<text text-anchor="middle" x="807" y="-93" font-family="Helvetica,sans-Serif" font-size="10.00">&lt; AnalysisDomainTy, Container &gt;</text>
</a>
</g>
</g>
<!-- Node3&#45;&gt;Node2 -->
<g id="edge2_Node000002_Node000003" class="edge">
<title>Node3&#45;&gt;Node2</title>
<g id="a_edge2_Node000002_Node000003"><a xlink:title=" ">
<path fill="none" stroke="#63b8ff" d="M908.32,-105.65C1003.49,-109.37 1150.51,-113.3 1278,-109 1283.87,-108.8 1289.91,-108.55 1295.99,-108.26"/>
<polygon fill="#63b8ff" stroke="#63b8ff" points="908.26,-102.15 898.12,-105.25 907.98,-109.14 908.26,-102.15"/>
</a>
</g>
</g>
<!-- Node11 -->
<g id="Node000011" class="node">
<title>Node11</title>
<g id="a_Node000011"><a xlink:href="classpsr_1_1IFDSTabulationProblem.html" target="_top" xlink:title="The analysis problem interface for IFDS problems (solvable by the IFDSSolver). Create a subclass from...">
<polygon fill="white" stroke="#666666" points="1117,-95 935,-95 935,-65 1117,-65 1117,-95"/>
<text text-anchor="start" x="943" y="-83" font-family="Helvetica,sans-Serif" font-size="10.00">psr::IFDSTabulationProblem</text>
<text text-anchor="middle" x="1026" y="-72" font-family="Helvetica,sans-Serif" font-size="10.00">&lt; AnalysisDomainTy, Container &gt;</text>
</a>
</g>
</g>
<!-- Node3&#45;&gt;Node11 -->
<g id="edge11_Node000011_Node000003" class="edge">
<title>Node3&#45;&gt;Node11</title>
<g id="a_edge11_Node000011_Node000003"><a xlink:title=" ">
<path fill="none" stroke="#63b8ff" d="M908.13,-91.31C917.02,-90.45 925.99,-89.58 934.79,-88.73"/>
<polygon fill="#63b8ff" stroke="#63b8ff" points="907.76,-87.83 898.14,-92.28 908.43,-94.8 907.76,-87.83"/>
</a>
</g>
</g>
<!-- Node4 -->
<g id="Node000004" class="node">
<title>Node4</title>
<g id="a_Node000004"><a xlink:href="classpsr_1_1FlowFunctions.html" target="_top" xlink:title=" ">
<polygon fill="white" stroke="#666666" points="641,-223.5 520,-223.5 520,-182.5 641,-182.5 641,-223.5"/>
<text text-anchor="start" x="528" y="-211.5" font-family="Helvetica,sans-Serif" font-size="10.00">psr::FlowFunctions</text>
<text text-anchor="start" x="528" y="-200.5" font-family="Helvetica,sans-Serif" font-size="10.00">&lt; AnalysisDomainTy,</text>
<text text-anchor="middle" x="580.5" y="-189.5" font-family="Helvetica,sans-Serif" font-size="10.00"> Container &gt;</text>
</a>
</g>
</g>
<!-- Node4&#45;&gt;Node3 -->
<g id="edge3_Node000003_Node000004" class="edge">
<title>Node4&#45;&gt;Node3</title>
<g id="a_edge3_Node000003_Node000004"><a xlink:title=" ">
<path fill="none" stroke="#63b8ff" d="M650.63,-183.78C660.28,-180.51 669.97,-176.89 679,-173 716.94,-156.64 758.05,-131.92 782.92,-116.13"/>
<polygon fill="#63b8ff" stroke="#63b8ff" points="649.43,-180.49 641.02,-186.94 651.61,-187.14 649.43,-180.49"/>
</a>
</g>
</g>
<!-- Node5 -->
<g id="Node000005" class="node">
<title>Node5</title>
<g id="a_Node000005"><a xlink:href="classpsr_1_1FlowFunctionTemplates.html" target="_top" xlink:title=" ">
<polygon fill="white" stroke="#666666" points="445,-223.5 293,-223.5 293,-182.5 445,-182.5 445,-223.5"/>
<text text-anchor="start" x="301" y="-211.5" font-family="Helvetica,sans-Serif" font-size="10.00">psr::FlowFunctionTemplates</text>
<text text-anchor="start" x="301" y="-200.5" font-family="Helvetica,sans-Serif" font-size="10.00">&lt; AnalysisDomainTy::d_t,</text>
<text text-anchor="middle" x="369" y="-189.5" font-family="Helvetica,sans-Serif" font-size="10.00"> Container &gt;</text>
</a>
</g>
</g>
<!-- Node5&#45;&gt;Node4 -->
<g id="edge4_Node000004_Node000005" class="edge">
<title>Node5&#45;&gt;Node4</title>
<g id="a_edge4_Node000004_Node000005"><a xlink:title=" ">
<path fill="none" stroke="darkgreen" d="M455.22,-203C476.87,-203 499.67,-203 519.75,-203"/>
<polygon fill="darkgreen" stroke="darkgreen" points="455.04,-199.5 445.04,-203 455.04,-206.5 455.04,-199.5"/>
</a>
</g>
</g>
<!-- Node6 -->
<g id="Node000006" class="node">
<title>Node6</title>
<g id="a_Node000006"><a xlink:href="classpsr_1_1FlowFunctionTemplates.html" target="_top" xlink:title=" ">
<polygon fill="white" stroke="#666666" points="152,-218 0,-218 0,-188 152,-188 152,-218"/>
<text text-anchor="start" x="8" y="-206" font-family="Helvetica,sans-Serif" font-size="10.00">psr::FlowFunctionTemplates</text>
<text text-anchor="middle" x="76" y="-195" font-family="Helvetica,sans-Serif" font-size="10.00">&lt; D, Container &gt;</text>
</a>
</g>
</g>
<!-- Node6&#45;&gt;Node5 -->
<g id="edge5_Node000005_Node000006" class="edge">
<title>Node6&#45;&gt;Node5</title>
<g id="a_edge5_Node000005_Node000006"><a xlink:title=" ">
<path fill="none" stroke="orange" stroke-dasharray="5,2" d="M162.39,-203C203.79,-203 253.06,-203 293,-203"/>
<polygon fill="orange" stroke="orange" points="162.32,-199.5 152.32,-203 162.32,-206.5 162.32,-199.5"/>
</a>
</g>
<text text-anchor="start" x="170" y="-217" font-family="Helvetica,sans-Serif" font-size="10.00" fill="grey"> &lt; AnalysisDomainTy</text>
<text text-anchor="middle" x="222.5" y="-206" font-family="Helvetica,sans-Serif" font-size="10.00" fill="grey">::d_t, Container &gt;</text>
</g>
<!-- Node7 -->
<g id="Node000007" class="node">
<title>Node7</title>
<g id="a_Node000007"><a xlink:href="classpsr_1_1EdgeFunctions.html" target="_top" xlink:title=" ">
<polygon fill="white" stroke="#666666" points="645,-164 516,-164 516,-134 645,-134 645,-164"/>
<text text-anchor="start" x="524" y="-152" font-family="Helvetica,sans-Serif" font-size="10.00">psr::EdgeFunctions</text>
<text text-anchor="middle" x="580.5" y="-141" font-family="Helvetica,sans-Serif" font-size="10.00">&lt; AnalysisDomainTy &gt;</text>
</a>
</g>
</g>
<!-- Node7&#45;&gt;Node3 -->
<g id="edge6_Node000003_Node000007" class="edge">
<title>Node7&#45;&gt;Node3</title>
<g id="a_edge6_Node000003_Node000007"><a xlink:title=" ">
<path fill="none" stroke="#63b8ff" d="M655.02,-133.28C680.99,-127.73 710.11,-121.5 735.8,-116.01"/>
<polygon fill="#63b8ff" stroke="#63b8ff" points="654.28,-129.86 645.23,-135.37 655.74,-136.71 654.28,-129.86"/>
</a>
</g>
</g>
<!-- Node8 -->
<g id="Node000008" class="node">
<title>Node8</title>
<g id="a_Node000008"><a xlink:href="classpsr_1_1JoinLattice_3_01AnalysisDomainTy_01_4.html" target="_top" xlink:title=" ">
<polygon fill="white" stroke="#666666" points="651,-116 510,-116 510,-86 651,-86 651,-116"/>
<text text-anchor="start" x="518" y="-104" font-family="Helvetica,sans-Serif" font-size="10.00">psr::JoinLattice&lt; Analysis</text>
<text text-anchor="middle" x="580.5" y="-93" font-family="Helvetica,sans-Serif" font-size="10.00">DomainTy &gt;</text>
</a>
</g>
</g>
<!-- Node8&#45;&gt;Node3 -->
<g id="edge7_Node000003_Node000008" class="edge">
<title>Node8&#45;&gt;Node3</title>
<g id="a_edge7_Node000003_Node000008"><a xlink:title=" ">
<path fill="none" stroke="#63b8ff" d="M661.54,-101C679.18,-101 697.98,-101 715.98,-101"/>
<polygon fill="#63b8ff" stroke="#63b8ff" points="661.3,-97.5 651.3,-101 661.3,-104.5 661.3,-97.5"/>
</a>
</g>
</g>
<!-- Node9 -->
<g id="Node000009" class="node">
<title>Node9</title>
<g id="a_Node000009"><a xlink:href="classpsr_1_1SemiRing.html" target="_top" xlink:title=" ">
<polygon fill="white" stroke="#666666" points="679,-67.5 482,-67.5 482,-48.5 679,-48.5 679,-67.5"/>
<text text-anchor="middle" x="580.5" y="-55.5" font-family="Helvetica,sans-Serif" font-size="10.00">psr::SemiRing&lt; AnalysisDomainTy &gt;</text>
</a>
</g>
</g>
<!-- Node9&#45;&gt;Node3 -->
<g id="edge8_Node000003_Node000009" class="edge">
<title>Node9&#45;&gt;Node3</title>
<g id="a_edge8_Node000003_Node000009"><a xlink:title=" ">
<path fill="none" stroke="#63b8ff" d="M641.22,-69.44C667.73,-74.52 699.29,-80.56 727.65,-85.99"/>
<polygon fill="#63b8ff" stroke="#63b8ff" points="641.8,-65.99 631.32,-67.54 640.49,-72.86 641.8,-65.99"/>
</a>
</g>
</g>
<!-- Node10 -->
<g id="Node000010" class="node">
<title>Node10</title>
<g id="a_Node000010"><a xlink:href="classpsr_1_1AllTopFnProvider_3_01AnalysisDomainTy_01_4.html" target="_top" xlink:title=" ">
<polygon fill="white" stroke="#666666" points="645,-30 516,-30 516,0 645,0 645,-30"/>
<text text-anchor="start" x="524" y="-18" font-family="Helvetica,sans-Serif" font-size="10.00">psr::AllTopFnProvider</text>
<text text-anchor="middle" x="580.5" y="-7" font-family="Helvetica,sans-Serif" font-size="10.00">&lt; AnalysisDomainTy &gt;</text>
</a>
</g>
</g>
<!-- Node10&#45;&gt;Node3 -->
<g id="edge9_Node000003_Node000010" class="edge">
<title>Node10&#45;&gt;Node3</title>
<g id="a_edge9_Node000003_Node000010"><a xlink:title=" ">
<path fill="none" stroke="#63b8ff" d="M654.88,-32.15C663.09,-34.56 671.27,-37.18 679,-40 714.39,-52.89 753.16,-72.35 778.44,-85.81"/>
<polygon fill="#63b8ff" stroke="#63b8ff" points="655.83,-28.78 645.25,-29.42 653.92,-35.51 655.83,-28.78"/>
</a>
</g>
</g>
<!-- Node11&#45;&gt;Node2 -->
<g id="edge10_Node000002_Node000011" class="edge">
<title>Node11&#45;&gt;Node2</title>
<g id="a_edge10_Node000002_Node000011"><a xlink:title=" ">
<path fill="none" stroke="orange" stroke-dasharray="5,2" d="M1127.39,-80.74C1173.35,-81.61 1228.48,-83.39 1278,-87 1283.79,-87.42 1289.72,-87.92 1295.71,-88.47"/>
<polygon fill="orange" stroke="orange" points="1127.19,-77.24 1117.13,-80.56 1127.07,-84.24 1127.19,-77.24"/>
</a>
</g>
<text text-anchor="start" x="1135" y="-101" font-family="Helvetica,sans-Serif" font-size="10.00" fill="grey"> &lt; LLVMIFDSAnalysisDomain</text>
<text text-anchor="middle" x="1206.5" y="-90" font-family="Helvetica,sans-Serif" font-size="10.00" fill="grey">Default &gt;</text>
</g>
</g>
</svg>
