<?xml version="1.0" encoding="UTF-8" standalone="no"?>
<!DOCTYPE svg PUBLIC "-//W3C//DTD SVG 1.1//EN"
 "http://www.w3.org/Graphics/SVG/1.1/DTD/svg11.dtd">
<!-- Generated by graphviz version 2.43.0 (0)
 -->
<!-- Title: psr::IDETypeStateAnalysis&lt; TypeStateDescriptionTy &gt; Pages: 1 -->
<svg width="1783pt" height="363pt"
 viewBox="0.00 0.00 1783.00 363.00" xmlns="http://www.w3.org/2000/svg" xmlns:xlink="http://www.w3.org/1999/xlink">
<g id="graph0" class="graph" transform="scale(1 1) rotate(0) translate(4 359)">
<title>psr::IDETypeStateAnalysis&lt; TypeStateDescriptionTy &gt;</title>
<!-- Node1 -->
<g id="Node000001" class="node">
<title>Node1</title>
<g id="a_Node000001"><a xlink:title=" ">
<polygon fill="#999999" stroke="#666666" points="1775,-102 1622,-102 1622,-72 1775,-72 1775,-102"/>
<text text-anchor="start" x="1630" y="-90" font-family="Helvetica,sans-Serif" font-size="10.00">psr::IDETypeStateAnalysis</text>
<text text-anchor="middle" x="1698.5" y="-79" font-family="Helvetica,sans-Serif" font-size="10.00">&lt; TypeStateDescriptionTy &gt;</text>
</a>
</g>
</g>
<!-- Node2 -->
<g id="Node000002" class="node">
<title>Node2</title>
<g id="a_Node000002"><a xlink:href="classpsr_1_1IDETabulationProblem.html" target="_top" xlink:title=" ">
<polygon fill="white" stroke="#666666" points="1585,-233.5 1413,-233.5 1413,-192.5 1585,-192.5 1585,-233.5"/>
<text text-anchor="start" x="1421" y="-221.5" font-family="Helvetica,sans-Serif" font-size="10.00">psr::IDETabulationProblem</text>
<text text-anchor="start" x="1421" y="-210.5" font-family="Helvetica,sans-Serif" font-size="10.00">&lt; IDETypeStateAnalysisDomain</text>
<text text-anchor="middle" x="1499" y="-199.5" font-family="Helvetica,sans-Serif" font-size="10.00">&lt; TypeStateDescriptionTy &gt; &gt;</text>
</a>
</g>
</g>
<!-- Node2&#45;&gt;Node1 -->
<g id="edge1_Node000001_Node000002" class="edge">
<title>Node2&#45;&gt;Node1</title>
<g id="a_edge1_Node000001_Node000002"><a xlink:title=" ">
<path fill="none" stroke="#63b8ff" d="M1540.67,-187.06C1580.8,-161.45 1640.79,-123.18 1673.73,-102.17"/>
<polygon fill="#63b8ff" stroke="#63b8ff" points="1538.72,-184.15 1532.17,-192.48 1542.48,-190.05 1538.72,-184.15"/>
</a>
</g>
</g>
<!-- Node3 -->
<g id="Node000003" class="node">
<title>Node3</title>
<g id="a_Node000003"><a xlink:href="classpsr_1_1FlowFunctions.html" target="_top" xlink:title=" ">
<polygon fill="white" stroke="#666666" points="961,-157.5 840,-157.5 840,-116.5 961,-116.5 961,-157.5"/>
<text text-anchor="start" x="848" y="-145.5" font-family="Helvetica,sans-Serif" font-size="10.00">psr::FlowFunctions</text>
<text text-anchor="start" x="848" y="-134.5" font-family="Helvetica,sans-Serif" font-size="10.00">&lt; AnalysisDomainTy,</text>
<text text-anchor="middle" x="900.5" y="-123.5" font-family="Helvetica,sans-Serif" font-size="10.00"> Container &gt;</text>
</a>
</g>
</g>
<!-- Node3&#45;&gt;Node2 -->
<g id="edge2_Node000002_Node000003" class="edge">
<title>Node3&#45;&gt;Node2</title>
<g id="a_edge2_Node000002_Node000003"><a xlink:title=" ">
<path fill="none" stroke="#63b8ff" d="M971.34,-140.47C1067.39,-146.02 1245.37,-159.13 1395,-186 1404.92,-187.78 1415.28,-190.03 1425.45,-192.46"/>
<polygon fill="#63b8ff" stroke="#63b8ff" points="971.35,-136.96 961.17,-139.89 970.95,-143.95 971.35,-136.96"/>
</a>
</g>
</g>
<!-- Node10 -->
<g id="Node000010" class="node">
<title>Node10</title>
<g id="a_Node000010"><a xlink:href="classpsr_1_1IDETabulationProblem.html" target="_top" xlink:title="The analysis problem interface for IDE problems (solvable by the IDESolver). Create a subclass from t...">
<polygon fill="white" stroke="#666666" points="1218,-228 1036,-228 1036,-198 1218,-198 1218,-228"/>
<text text-anchor="start" x="1044" y="-216" font-family="Helvetica,sans-Serif" font-size="10.00">psr::IDETabulationProblem</text>
<text text-anchor="middle" x="1127" y="-205" font-family="Helvetica,sans-Serif" font-size="10.00">&lt; AnalysisDomainTy, Container &gt;</text>
</a>
</g>
</g>
<!-- Node3&#45;&gt;Node10 -->
<g id="edge10_Node000010_Node000003" class="edge">
<title>Node3&#45;&gt;Node10</title>
<g id="a_edge10_Node000010_Node000003"><a xlink:title=" ">
<path fill="none" stroke="#63b8ff" d="M970.98,-157.92C980.42,-160.9 989.96,-163.98 999,-167 1028.35,-176.83 1061.2,-188.75 1086.14,-197.99"/>
<polygon fill="#63b8ff" stroke="#63b8ff" points="971.79,-154.51 961.2,-154.86 969.7,-161.19 971.79,-154.51"/>
</a>
</g>
</g>
<!-- Node4 -->
<g id="Node000004" class="node">
<title>Node4</title>
<g id="a_Node000004"><a xlink:href="classpsr_1_1FlowFunctionTemplates.html" target="_top" xlink:title=" ">
<polygon fill="white" stroke="#666666" points="732,-159.5 580,-159.5 580,-118.5 732,-118.5 732,-159.5"/>
<text text-anchor="start" x="588" y="-147.5" font-family="Helvetica,sans-Serif" font-size="10.00">psr::FlowFunctionTemplates</text>
<text text-anchor="start" x="588" y="-136.5" font-family="Helvetica,sans-Serif" font-size="10.00">&lt; AnalysisDomainTy::d_t,</text>
<text text-anchor="middle" x="656" y="-125.5" font-family="Helvetica,sans-Serif" font-size="10.00"> Container &gt;</text>
</a>
</g>
</g>
<!-- Node4&#45;&gt;Node3 -->
<g id="edge3_Node000003_Node000004" class="edge">
<title>Node4&#45;&gt;Node3</title>
<g id="a_edge3_Node000003_Node000004"><a xlink:title=" ">
<path fill="none" stroke="darkgreen" d="M742.37,-138.3C774.55,-138.03 810.43,-137.73 839.77,-137.49"/>
<polygon fill="darkgreen" stroke="darkgreen" points="742.04,-134.8 732.07,-138.38 742.1,-141.8 742.04,-134.8"/>
</a>
</g>
</g>
<!-- Node5 -->
<g id="Node000005" class="node">
<title>Node5</title>
<g id="a_Node000005"><a xlink:href="classpsr_1_1FlowFunctionTemplates.html" target="_top" xlink:title=" ">
<polygon fill="white" stroke="#666666" points="319.5,-119 167.5,-119 167.5,-89 319.5,-89 319.5,-119"/>
<text text-anchor="start" x="175.5" y="-107" font-family="Helvetica,sans-Serif" font-size="10.00">psr::FlowFunctionTemplates</text>
<text text-anchor="middle" x="243.5" y="-96" font-family="Helvetica,sans-Serif" font-size="10.00">&lt; D, Container &gt;</text>
</a>
</g>
</g>
<!-- Node5&#45;&gt;Node4 -->
<g id="edge4_Node000004_Node000005" class="edge">
<title>Node5&#45;&gt;Node4</title>
<g id="a_edge4_Node000004_Node000005"><a xlink:title=" ">
<path fill="none" stroke="orange" stroke-dasharray="5,2" d="M329.97,-112.11C337.08,-112.76 344.16,-113.4 351,-114 428.94,-120.86 518.18,-128.13 579.71,-133.05"/>
<polygon fill="orange" stroke="orange" points="329.83,-108.59 319.55,-111.16 329.19,-115.56 329.83,-108.59"/>
</a>
</g>
<text text-anchor="start" x="387.5" y="-142" font-family="Helvetica,sans-Serif" font-size="10.00" fill="grey"> &lt; AnalysisDomainTy</text>
<text text-anchor="middle" x="440" y="-131" font-family="Helvetica,sans-Serif" font-size="10.00" fill="grey">::d_t, Container &gt;</text>
</g>
<!-- Node15 -->
<g id="Node000015" class="node">
<title>Node15</title>
<g id="a_Node000015"><a xlink:href="classpsr_1_1FlowFunctionTemplates.html" target="_top" xlink:title=" ">
<polygon fill="white" stroke="#666666" points="765,-100 547,-100 547,-48 765,-48 765,-100"/>
<text text-anchor="start" x="555" y="-88" font-family="Helvetica,sans-Serif" font-size="10.00">psr::FlowFunctionTemplates</text>
<text text-anchor="start" x="555" y="-77" font-family="Helvetica,sans-Serif" font-size="10.00">&lt; IDETypeStateAnalysisBaseCommon</text>
<text text-anchor="start" x="555" y="-66" font-family="Helvetica,sans-Serif" font-size="10.00">::d_t, IDETypeStateAnalysisBaseCommon</text>
<text text-anchor="middle" x="656" y="-55" font-family="Helvetica,sans-Serif" font-size="10.00">::container_type &gt;</text>
</a>
</g>
</g>
<!-- Node5&#45;&gt;Node15 -->
<g id="edge20_Node000015_Node000005" class="edge">
<title>Node5&#45;&gt;Node15</title>
<g id="a_edge20_Node000015_Node000005"><a xlink:title=" ">
<path fill="none" stroke="orange" stroke-dasharray="5,2" d="M314.48,-86.91C326.59,-84.52 339.11,-82.41 351,-81 415.61,-73.35 488.48,-71.44 546.67,-71.52"/>
<polygon fill="orange" stroke="orange" points="313.52,-83.54 304.43,-88.98 314.93,-90.4 313.52,-83.54"/>
</a>
</g>
<text text-anchor="start" x="351" y="-106" font-family="Helvetica,sans-Serif" font-size="10.00" fill="grey"> &lt; IDETypeStateAnalysisBase</text>
<text text-anchor="start" x="351" y="-95" font-family="Helvetica,sans-Serif" font-size="10.00" fill="grey">Common::d_t, IDETypeStateAnalysis</text>
<text text-anchor="middle" x="440" y="-84" font-family="Helvetica,sans-Serif" font-size="10.00" fill="grey">BaseCommon::container_type &gt;</text>
</g>
<!-- Node6 -->
<g id="Node000006" class="node">
<title>Node6</title>
<g id="a_Node000006"><a xlink:href="classpsr_1_1EdgeFunctions.html" target="_top" xlink:title=" ">
<polygon fill="white" stroke="#666666" points="965,-304 836,-304 836,-274 965,-274 965,-304"/>
<text text-anchor="start" x="844" y="-292" font-family="Helvetica,sans-Serif" font-size="10.00">psr::EdgeFunctions</text>
<text text-anchor="middle" x="900.5" y="-281" font-family="Helvetica,sans-Serif" font-size="10.00">&lt; AnalysisDomainTy &gt;</text>
</a>
</g>
</g>
<!-- Node6&#45;&gt;Node2 -->
<g id="edge5_Node000002_Node000006" class="edge">
<title>Node6&#45;&gt;Node2</title>
<g id="a_edge5_Node000002_Node000006"><a xlink:title=" ">
<path fill="none" stroke="#63b8ff" d="M975.31,-292.28C1072.85,-294.83 1249.34,-293.23 1395,-258 1417.19,-252.63 1440.61,-242.77 1459.5,-233.65"/>
<polygon fill="#63b8ff" stroke="#63b8ff" points="975.35,-288.78 965.26,-291.99 975.16,-295.78 975.35,-288.78"/>
</a>
</g>
</g>
<!-- Node6&#45;&gt;Node10 -->
<g id="edge11_Node000010_Node000006" class="edge">
<title>Node6&#45;&gt;Node10</title>
<g id="a_edge11_Node000010_Node000006"><a xlink:title=" ">
<path fill="none" stroke="#63b8ff" d="M966.75,-271.06C977.57,-267.86 988.63,-264.44 999,-261 1029.42,-250.9 1063.37,-237.99 1088.5,-228.1"/>
<polygon fill="#63b8ff" stroke="#63b8ff" points="965.53,-267.77 956.91,-273.94 967.49,-274.49 965.53,-267.77"/>
</a>
</g>
</g>
<!-- Node7 -->
<g id="Node000007" class="node">
<title>Node7</title>
<g id="a_Node000007"><a xlink:href="classpsr_1_1JoinLattice_3_01AnalysisDomainTy_01_4.html" target="_top" xlink:title=" ">
<polygon fill="white" stroke="#666666" points="971,-355 830,-355 830,-325 971,-325 971,-355"/>
<text text-anchor="start" x="838" y="-343" font-family="Helvetica,sans-Serif" font-size="10.00">psr::JoinLattice&lt; Analysis</text>
<text text-anchor="middle" x="900.5" y="-332" font-family="Helvetica,sans-Serif" font-size="10.00">DomainTy &gt;</text>
</a>
</g>
</g>
<!-- Node7&#45;&gt;Node2 -->
<g id="edge6_Node000002_Node000007" class="edge">
<title>Node7&#45;&gt;Node2</title>
<g id="a_edge6_Node000002_Node000007"><a xlink:title=" ">
<path fill="none" stroke="#63b8ff" d="M981.43,-342.67C1081.39,-343.39 1256.23,-335.96 1395,-284 1425.51,-272.58 1455.63,-250.16 1475.34,-233.56"/>
<polygon fill="#63b8ff" stroke="#63b8ff" points="981.44,-339.17 971.4,-342.57 981.37,-346.17 981.44,-339.17"/>
</a>
</g>
</g>
<!-- Node7&#45;&gt;Node10 -->
<g id="edge12_Node000010_Node000007" class="edge">
<title>Node7&#45;&gt;Node10</title>
<g id="a_edge12_Node000010_Node000007"><a xlink:title=" ">
<path fill="none" stroke="#63b8ff" d="M978.93,-321.65C985.85,-319.09 992.64,-316.22 999,-313 1044.07,-290.19 1088.55,-250.02 1110.98,-228.18"/>
<polygon fill="#63b8ff" stroke="#63b8ff" points="977.72,-318.37 969.43,-324.96 980.02,-324.98 977.72,-318.37"/>
</a>
</g>
</g>
<!-- Node8 -->
<g id="Node000008" class="node">
<title>Node8</title>
<g id="a_Node000008"><a xlink:href="classpsr_1_1SemiRing.html" target="_top" xlink:title=" ">
<polygon fill="white" stroke="#666666" points="999,-251.5 802,-251.5 802,-232.5 999,-232.5 999,-251.5"/>
<text text-anchor="middle" x="900.5" y="-239.5" font-family="Helvetica,sans-Serif" font-size="10.00">psr::SemiRing&lt; AnalysisDomainTy &gt;</text>
</a>
</g>
</g>
<!-- Node8&#45;&gt;Node2 -->
<g id="edge7_Node000002_Node000008" class="edge">
<title>Node8&#45;&gt;Node2</title>
<g id="a_edge7_Node000002_Node000008"><a xlink:title=" ">
<path fill="none" stroke="#63b8ff" d="M1009.49,-248.79C1109.8,-253.33 1263.12,-255.8 1395,-239 1405.06,-237.72 1415.56,-235.79 1425.83,-233.55"/>
<polygon fill="#63b8ff" stroke="#63b8ff" points="1009.49,-245.28 999.34,-248.31 1009.17,-252.28 1009.49,-245.28"/>
</a>
</g>
</g>
<!-- Node8&#45;&gt;Node10 -->
<g id="edge13_Node000010_Node000008" class="edge">
<title>Node8&#45;&gt;Node10</title>
<g id="a_edge13_Node000010_Node000008"><a xlink:title=" ">
<path fill="none" stroke="#63b8ff" d="M985.41,-231.16C1001.82,-229.04 1019.09,-226.81 1035.69,-224.67"/>
<polygon fill="#63b8ff" stroke="#63b8ff" points="984.79,-227.71 975.32,-232.46 985.69,-234.65 984.79,-227.71"/>
</a>
</g>
</g>
<!-- Node9 -->
<g id="Node000009" class="node">
<title>Node9</title>
<g id="a_Node000009"><a xlink:href="classpsr_1_1AllTopFnProvider_3_01AnalysisDomainTy_01_4.html" target="_top" xlink:title=" ">
<polygon fill="white" stroke="#666666" points="965,-206 836,-206 836,-176 965,-176 965,-206"/>
<text text-anchor="start" x="844" y="-194" font-family="Helvetica,sans-Serif" font-size="10.00">psr::AllTopFnProvider</text>
<text text-anchor="middle" x="900.5" y="-183" font-family="Helvetica,sans-Serif" font-size="10.00">&lt; AnalysisDomainTy &gt;</text>
</a>
</g>
</g>
<!-- Node9&#45;&gt;Node2 -->
<g id="edge8_Node000002_Node000009" class="edge">
<title>Node9&#45;&gt;Node2</title>
<g id="a_edge8_Node000002_Node000009"><a xlink:title=" ">
<path fill="none" stroke="#63b8ff" d="M975.28,-189.71C995.01,-189.41 1016.31,-189.15 1036,-189 1116.89,-188.4 1137.19,-185.54 1218,-189 1283.56,-191.8 1357.52,-198.29 1412.96,-203.81"/>
<polygon fill="#63b8ff" stroke="#63b8ff" points="975.07,-186.21 965.13,-189.86 975.18,-193.21 975.07,-186.21"/>
</a>
</g>
</g>
<!-- Node9&#45;&gt;Node10 -->
<g id="edge14_Node000010_Node000009" class="edge">
<title>Node9&#45;&gt;Node10</title>
<g id="a_edge14_Node000010_Node000009"><a xlink:title=" ">
<path fill="none" stroke="#63b8ff" d="M975.44,-198.25C994.71,-200.13 1015.7,-202.19 1035.71,-204.15"/>
<polygon fill="#63b8ff" stroke="#63b8ff" points="975.53,-194.74 965.23,-197.25 974.84,-201.7 975.53,-194.74"/>
</a>
</g>
</g>
<!-- Node10&#45;&gt;Node2 -->
<g id="edge9_Node000002_Node000010" class="edge">
<title>Node10&#45;&gt;Node2</title>
<g id="a_edge9_Node000002_Node000010"><a xlink:title=" ">
<path fill="none" stroke="orange" stroke-dasharray="5,2" d="M1228.29,-213C1286.09,-213 1357.96,-213 1412.97,-213"/>
<polygon fill="orange" stroke="orange" points="1228.04,-209.5 1218.04,-213 1228.04,-216.5 1228.04,-209.5"/>
</a>
</g>
<text text-anchor="start" x="1236" y="-227" font-family="Helvetica,sans-Serif" font-size="10.00" fill="grey"> &lt; IDETypeStateAnalysisDomain</text>
<text text-anchor="middle" x="1315.5" y="-216" font-family="Helvetica,sans-Serif" font-size="10.00" fill="grey">&lt; TypeStateDescriptionTy &gt; &gt;</text>
</g>
<!-- Node11 -->
<g id="Node000011" class="node">
<title>Node11</title>
<g id="a_Node000011"><a xlink:title=" ">
<polygon fill="white" stroke="#666666" points="968.5,-89 832.5,-89 832.5,-59 968.5,-59 968.5,-89"/>
<text text-anchor="start" x="840.5" y="-77" font-family="Helvetica,sans-Serif" font-size="10.00">psr::detail::IDETypeState</text>
<text text-anchor="middle" x="900.5" y="-66" font-family="Helvetica,sans-Serif" font-size="10.00">AnalysisBase</text>
</a>
</g>
</g>
<!-- Node11&#45;&gt;Node1 -->
<g id="edge15_Node000001_Node000011" class="edge">
<title>Node11&#45;&gt;Node1</title>
<g id="a_edge15_Node000001_Node000011"><a xlink:title=" ">
<path fill="none" stroke="#8b1a1a" d="M978.92,-75.26C1131.74,-77.76 1470.48,-83.29 1621.86,-85.76"/>
<polygon fill="#8b1a1a" stroke="#8b1a1a" points="978.74,-71.76 968.68,-75.1 978.62,-78.76 978.74,-71.76"/>
</a>
</g>
</g>
<!-- Node12 -->
<g id="Node000012" class="node">
<title>Node12</title>
<g id="a_Node000012"><a xlink:title=" ">
<polygon fill="white" stroke="#666666" points="724,-30 588,-30 588,0 724,0 724,-30"/>
<text text-anchor="start" x="596" y="-18" font-family="Helvetica,sans-Serif" font-size="10.00">psr::detail::IDETypeState</text>
<text text-anchor="middle" x="656" y="-7" font-family="Helvetica,sans-Serif" font-size="10.00">AnalysisBaseCommon</text>
</a>
</g>
</g>
<!-- Node12&#45;&gt;Node11 -->
<g id="edge16_Node000011_Node000012" class="edge">
<title>Node12&#45;&gt;Node11</title>
<g id="a_edge16_Node000011_Node000012"><a xlink:title=" ">
<path fill="none" stroke="#8b1a1a" d="M734.11,-31.78C744.51,-34.15 755.02,-36.59 765,-39 790.92,-45.25 819.52,-52.63 843.66,-58.99"/>
<polygon fill="#8b1a1a" stroke="#8b1a1a" points="734.73,-28.33 724.2,-29.54 733.19,-35.16 734.73,-28.33"/>
</a>
</g>
</g>
<!-- Node13 -->
<g id="Node000013" class="node">
<title>Node13</title>
<g id="a_Node000013"><a xlink:href="structpsr_1_1LLVMAnalysisDomainDefault.html" target="_top" xlink:title="An AnalysisDomain that specializes sensible defaults for LLVM&#45;based analysis.">
<polygon fill="white" stroke="#666666" points="333,-24.5 154,-24.5 154,-5.5 333,-5.5 333,-24.5"/>
<text text-anchor="middle" x="243.5" y="-12.5" font-family="Helvetica,sans-Serif" font-size="10.00">psr::LLVMAnalysisDomainDefault</text>
</a>
</g>
</g>
<!-- Node13&#45;&gt;Node12 -->
<g id="edge17_Node000012_Node000013" class="edge">
<title>Node13&#45;&gt;Node12</title>
<g id="a_edge17_Node000012_Node000013"><a xlink:title=" ">
<path fill="none" stroke="#63b8ff" d="M343.1,-15C418.83,-15 521.39,-15 587.87,-15"/>
<polygon fill="#63b8ff" stroke="#63b8ff" points="343.07,-11.5 333.07,-15 343.07,-18.5 343.07,-11.5"/>
</a>
</g>
</g>
<!-- Node14 -->
<g id="Node000014" class="node">
<title>Node14</title>
<g id="a_Node000014"><a xlink:href="structpsr_1_1AnalysisDomain.html" target="_top" xlink:title=" ">
<polygon fill="white" stroke="#666666" points="117,-24.5 0,-24.5 0,-5.5 117,-5.5 117,-24.5"/>
<text text-anchor="middle" x="58.5" y="-12.5" font-family="Helvetica,sans-Serif" font-size="10.00">psr::AnalysisDomain</text>
</a>
</g>
</g>
<!-- Node14&#45;&gt;Node13 -->
<g id="edge18_Node000013_Node000014" class="edge">
<title>Node14&#45;&gt;Node13</title>
<g id="a_edge18_Node000013_Node000014"><a xlink:title=" ">
<path fill="none" stroke="#63b8ff" d="M127.43,-15C135.99,-15 144.85,-15 153.67,-15"/>
<polygon fill="#63b8ff" stroke="#63b8ff" points="127.15,-11.5 117.15,-15 127.15,-18.5 127.15,-11.5"/>
</a>
</g>
</g>
<!-- Node15&#45;&gt;Node11 -->
<g id="edge19_Node000011_Node000015" class="edge">
<title>Node15&#45;&gt;Node11</title>
<g id="a_edge19_Node000011_Node000015"><a xlink:title=" ">
<path fill="none" stroke="#8b1a1a" d="M775.34,-74C794.9,-74 814.57,-74 832.3,-74"/>
<polygon fill="#8b1a1a" stroke="#8b1a1a" points="775.13,-70.5 765.13,-74 775.13,-77.5 775.13,-70.5"/>
</a>
</g>
</g>
</g>
</svg>
