<?xml version="1.0" encoding="UTF-8" standalone="no"?>
<!DOCTYPE svg PUBLIC "-//W3C//DTD SVG 1.1//EN"
 "http://www.w3.org/Graphics/SVG/1.1/DTD/svg11.dtd">
<!-- Generated by graphviz version 2.43.0 (0)
 -->
<!-- Title: psr::EdgeFunctionBase Pages: 1 -->
<svg width="344pt" height="171pt"
 viewBox="0.00 0.00 344.00 171.00" xmlns="http://www.w3.org/2000/svg" xmlns:xlink="http://www.w3.org/1999/xlink">
<g id="graph0" class="graph" transform="scale(1 1) rotate(0) translate(4 167)">
<title>psr::EdgeFunctionBase</title>
<!-- Node1 -->
<g id="Node000001" class="node">
<title>Node1</title>
<g id="a_Node000001"><a xlink:title=" ">
<polygon fill="#999999" stroke="#666666" points="197,-163 70,-163 70,-144 197,-144 197,-163"/>
<text text-anchor="middle" x="133.5" y="-151" font-family="Helvetica,sans-Serif" font-size="10.00">psr::EdgeFunctionBase</text>
</a>
</g>
</g>
<!-- Node2 -->
<g id="Node000002" class="node">
<title>Node2</title>
<g id="a_Node000002"><a xlink:href="classpsr_1_1EdgeFunction.html" target="_top" xlink:title=" ">
<polygon fill="white" stroke="#666666" points="111,-30 0,-30 0,0 111,0 111,-30"/>
<text text-anchor="start" x="8" y="-18" font-family="Helvetica,sans-Serif" font-size="10.00">psr::EdgeFunction&lt;</text>
<text text-anchor="middle" x="55.5" y="-7" font-family="Helvetica,sans-Serif" font-size="10.00"> l_t &gt;</text>
</a>
</g>
</g>
<!-- Node1&#45;&gt;Node2 -->
<g id="edge1_Node000001_Node000002" class="edge">
<title>Node1&#45;&gt;Node2</title>
<g id="a_edge1_Node000001_Node000002"><a xlink:title=" ">
<path fill="none" stroke="#8b1a1a" d="M97.65,-139.71C82.88,-132.5 67.2,-121.88 58.5,-107 44.45,-82.99 48.3,-48.98 52.08,-30.07"/>
<polygon fill="#8b1a1a" stroke="#8b1a1a" points="96.59,-143.07 107.15,-143.97 99.46,-136.69 96.59,-143.07"/>
</a>
</g>
</g>
<!-- Node3 -->
<g id="Node000003" class="node">
<title>Node3</title>
<g id="a_Node000003"><a xlink:href="classpsr_1_1EdgeFunction.html" target="_top" xlink:title="Ref&#45;counted and type&#45;erased edge function with small&#45;object optimization. Supports caching.">
<polygon fill="white" stroke="#666666" points="199,-101.5 68,-101.5 68,-82.5 199,-82.5 199,-101.5"/>
<text text-anchor="middle" x="133.5" y="-89.5" font-family="Helvetica,sans-Serif" font-size="10.00">psr::EdgeFunction&lt; L &gt;</text>
</a>
</g>
</g>
<!-- Node1&#45;&gt;Node3 -->
<g id="edge2_Node000001_Node000003" class="edge">
<title>Node1&#45;&gt;Node3</title>
<g id="a_edge2_Node000001_Node000003"><a xlink:title=" ">
<path fill="none" stroke="#8b1a1a" d="M133.5,-133.82C133.5,-123 133.5,-109.9 133.5,-101.51"/>
<polygon fill="#8b1a1a" stroke="#8b1a1a" points="130,-133.98 133.5,-143.98 137,-133.98 130,-133.98"/>
</a>
</g>
</g>
<!-- Node4 -->
<g id="Node000004" class="node">
<title>Node4</title>
<g id="a_Node000004"><a xlink:href="classpsr_1_1EdgeFunctionRef.html" target="_top" xlink:title="Non&#45;null reference to an edge function that is guarenteed to be managed by an EdgeFunction object.">
<polygon fill="white" stroke="#666666" points="336,-107 217,-107 217,-77 336,-77 336,-107"/>
<text text-anchor="start" x="225" y="-95" font-family="Helvetica,sans-Serif" font-size="10.00">psr::EdgeFunctionRef</text>
<text text-anchor="middle" x="276.5" y="-84" font-family="Helvetica,sans-Serif" font-size="10.00">&lt; EF &gt;</text>
</a>
</g>
</g>
<!-- Node1&#45;&gt;Node4 -->
<g id="edge4_Node000001_Node000004" class="edge">
<title>Node1&#45;&gt;Node4</title>
<g id="a_edge4_Node000001_Node000004"><a xlink:title=" ">
<path fill="none" stroke="#8b1a1a" d="M163.33,-140.09C186.51,-130.44 218.68,-117.06 242.8,-107.02"/>
<polygon fill="#8b1a1a" stroke="#8b1a1a" points="161.88,-136.9 153.99,-143.98 164.57,-143.36 161.88,-136.9"/>
</a>
</g>
</g>
<!-- Node3&#45;&gt;Node2 -->
<g id="edge3_Node000003_Node000002" class="edge">
<title>Node3&#45;&gt;Node2</title>
<g id="a_edge3_Node000003_Node000002"><a xlink:title=" ">
<path fill="none" stroke="orange" stroke-dasharray="5,2" d="M117.15,-75.28C103.28,-61.94 83.55,-42.97 70.18,-30.11"/>
<polygon fill="orange" stroke="orange" points="114.92,-77.99 124.55,-82.4 119.77,-72.94 114.92,-77.99"/>
</a>
</g>
<text text-anchor="middle" x="118.5" y="-51" font-family="Helvetica,sans-Serif" font-size="10.00" fill="grey"> &lt; l_t &gt;</text>
</g>
</g>
</svg>
