<?xml version="1.0" encoding="UTF-8" standalone="no"?>
<!DOCTYPE svg PUBLIC "-//W3C//DTD SVG 1.1//EN"
 "http://www.w3.org/Graphics/SVG/1.1/DTD/svg11.dtd">
<!-- Generated by graphviz version 2.43.0 (0)
 -->
<!-- Title: psr::Table&lt; R, C, V &gt; Pages: 1 -->
<svg width="513pt" height="532pt"
 viewBox="0.00 0.00 513.00 531.71" xmlns="http://www.w3.org/2000/svg" xmlns:xlink="http://www.w3.org/1999/xlink">
<g id="graph0" class="graph" transform="scale(1 1) rotate(0) translate(4 527.71)">
<title>psr::Table&lt; R, C, V &gt;</title>
<!-- Node1 -->
<g id="Node000001" class="node">
<title>Node1</title>
<g id="a_Node000001"><a xlink:title=" ">
<polygon fill="#999999" stroke="#666666" points="118,-231.21 0,-231.21 0,-212.21 118,-212.21 118,-231.21"/>
<text text-anchor="middle" x="59" y="-219.21" font-family="Helvetica,sans-Serif" font-size="10.00">psr::Table&lt; R, C, V &gt;</text>
</a>
</g>
</g>
<!-- Node2 -->
<g id="Node000002" class="node">
<title>Node2</title>
<g id="a_Node000002"><a xlink:href="classpsr_1_1Table.html" target="_top" xlink:title=" ">
<polygon fill="white" stroke="#666666" points="505,-507.71 324,-507.71 324,-455.71 505,-455.71 505,-507.71"/>
<text text-anchor="start" x="332" y="-495.71" font-family="Helvetica,sans-Serif" font-size="10.00">psr::Table&lt; n_t, n</text>
<text text-anchor="start" x="332" y="-484.71" font-family="Helvetica,sans-Serif" font-size="10.00">_t, std::map&lt; d_t, std</text>
<text text-anchor="start" x="332" y="-473.71" font-family="Helvetica,sans-Serif" font-size="10.00">::set&lt; typename AnalysisDomain</text>
<text text-anchor="middle" x="414.5" y="-462.71" font-family="Helvetica,sans-Serif" font-size="10.00">Ty::d_t &gt; &gt; &gt;</text>
</a>
</g>
</g>
<!-- Node1&#45;&gt;Node2 -->
<g id="edge1_Node000001_Node000002" class="edge">
<title>Node1&#45;&gt;Node2</title>
<g id="a_edge1_Node000001_Node000002"><a xlink:title=" ">
<path fill="none" stroke="orange" stroke-dasharray="5,2" d="M60.45,-241.71C62.59,-285.42 74.26,-389.57 136,-440.71 187.76,-483.58 264.35,-492.14 323.97,-490.93"/>
<polygon fill="orange" stroke="orange" points="63.94,-241.39 60.07,-231.53 56.94,-241.65 63.94,-241.39"/>
</a>
</g>
<text text-anchor="start" x="147" y="-515.71" font-family="Helvetica,sans-Serif" font-size="10.00" fill="grey"> &lt; n_t, n_t, std::map</text>
<text text-anchor="start" x="147" y="-504.71" font-family="Helvetica,sans-Serif" font-size="10.00" fill="grey">&lt; d_t, std::set&lt; typename</text>
<text text-anchor="middle" x="221" y="-493.71" font-family="Helvetica,sans-Serif" font-size="10.00" fill="grey"> AnalysisDomainTy::d_t &gt; &gt; &gt;</text>
</g>
<!-- Node3 -->
<g id="Node000003" class="node">
<title>Node3</title>
<g id="a_Node000003"><a xlink:href="classpsr_1_1Table.html" target="_top" xlink:title=" ">
<polygon fill="white" stroke="#666666" points="481.5,-437.21 347.5,-437.21 347.5,-374.21 481.5,-374.21 481.5,-437.21"/>
<text text-anchor="start" x="355.5" y="-425.21" font-family="Helvetica,sans-Serif" font-size="10.00">psr::Table&lt; n_t, d</text>
<text text-anchor="start" x="355.5" y="-414.21" font-family="Helvetica,sans-Serif" font-size="10.00">_t, llvm::SmallVector</text>
<text text-anchor="start" x="355.5" y="-403.21" font-family="Helvetica,sans-Serif" font-size="10.00">&lt; std::pair&lt; d_t, psr</text>
<text text-anchor="start" x="355.5" y="-392.21" font-family="Helvetica,sans-Serif" font-size="10.00">::EdgeFunction&lt; l_t &gt; &gt;</text>
<text text-anchor="middle" x="414.5" y="-381.21" font-family="Helvetica,sans-Serif" font-size="10.00">, 1 &gt; &gt;</text>
</a>
</g>
</g>
<!-- Node1&#45;&gt;Node3 -->
<g id="edge2_Node000001_Node000003" class="edge">
<title>Node1&#45;&gt;Node3</title>
<g id="a_edge2_Node000001_Node000003"><a xlink:title=" ">
<path fill="none" stroke="orange" stroke-dasharray="5,2" d="M65.74,-241.06C75.33,-269.81 97.46,-323.37 136,-350.71 198.19,-394.83 287.01,-405.66 347.29,-407.36"/>
<polygon fill="orange" stroke="orange" points="69.03,-239.83 62.67,-231.36 62.35,-241.95 69.03,-239.83"/>
</a>
</g>
<text text-anchor="start" x="136" y="-428.71" font-family="Helvetica,sans-Serif" font-size="10.00" fill="grey"> &lt; n_t, d_t, llvm::SmallVector</text>
<text text-anchor="start" x="136" y="-417.71" font-family="Helvetica,sans-Serif" font-size="10.00" fill="grey">&lt; std::pair&lt; d_t, psr::EdgeFunction</text>
<text text-anchor="middle" x="221" y="-406.71" font-family="Helvetica,sans-Serif" font-size="10.00" fill="grey">&lt; l_t &gt; &gt;, 1 &gt; &gt;</text>
</g>
<!-- Node4 -->
<g id="Node000004" class="node">
<title>Node4</title>
<g id="a_Node000004"><a xlink:href="classpsr_1_1Table.html" target="_top" xlink:title=" ">
<polygon fill="white" stroke="#666666" points="481.5,-356.21 347.5,-356.21 347.5,-293.21 481.5,-293.21 481.5,-356.21"/>
<text text-anchor="start" x="355.5" y="-344.21" font-family="Helvetica,sans-Serif" font-size="10.00">psr::Table&lt; d_t, n</text>
<text text-anchor="start" x="355.5" y="-333.21" font-family="Helvetica,sans-Serif" font-size="10.00">_t, llvm::SmallVector</text>
<text text-anchor="start" x="355.5" y="-322.21" font-family="Helvetica,sans-Serif" font-size="10.00">&lt; std::pair&lt; d_t, psr</text>
<text text-anchor="start" x="355.5" y="-311.21" font-family="Helvetica,sans-Serif" font-size="10.00">::EdgeFunction&lt; l_t &gt; &gt;</text>
<text text-anchor="middle" x="414.5" y="-300.21" font-family="Helvetica,sans-Serif" font-size="10.00">, 1 &gt; &gt;</text>
</a>
</g>
</g>
<!-- Node1&#45;&gt;Node4 -->
<g id="edge3_Node000001_Node000004" class="edge">
<title>Node1&#45;&gt;Node4</title>
<g id="a_edge3_Node000001_Node000004"><a xlink:title=" ">
<path fill="none" stroke="orange" stroke-dasharray="5,2" d="M78.82,-237.53C93.49,-249.04 114.85,-264.06 136,-272.71 204.96,-300.9 289.86,-313.95 347.46,-319.9"/>
<polygon fill="orange" stroke="orange" points="80.99,-234.79 71.01,-231.24 76.6,-240.24 80.99,-234.79"/>
</a>
</g>
<text text-anchor="start" x="136" y="-338.71" font-family="Helvetica,sans-Serif" font-size="10.00" fill="grey"> &lt; d_t, n_t, llvm::SmallVector</text>
<text text-anchor="start" x="136" y="-327.71" font-family="Helvetica,sans-Serif" font-size="10.00" fill="grey">&lt; std::pair&lt; d_t, psr::EdgeFunction</text>
<text text-anchor="middle" x="221" y="-316.71" font-family="Helvetica,sans-Serif" font-size="10.00" fill="grey">&lt; l_t &gt; &gt;, 1 &gt; &gt;</text>
</g>
<!-- Node5 -->
<g id="Node000005" class="node">
<title>Node5</title>
<g id="a_Node000005"><a xlink:href="classpsr_1_1Table.html" target="_top" xlink:title=" ">
<polygon fill="white" stroke="#666666" points="473.5,-275.21 355.5,-275.21 355.5,-234.21 473.5,-234.21 473.5,-275.21"/>
<text text-anchor="start" x="363.5" y="-263.21" font-family="Helvetica,sans-Serif" font-size="10.00">psr::Table&lt; d_t, d</text>
<text text-anchor="start" x="363.5" y="-252.21" font-family="Helvetica,sans-Serif" font-size="10.00">_t, psr::EdgeFunction</text>
<text text-anchor="middle" x="414.5" y="-241.21" font-family="Helvetica,sans-Serif" font-size="10.00">&lt; l_t &gt; &gt;</text>
</a>
</g>
</g>
<!-- Node1&#45;&gt;Node5 -->
<g id="edge4_Node000001_Node000005" class="edge">
<title>Node1&#45;&gt;Node5</title>
<g id="a_edge4_Node000001_Node000005"><a xlink:title=" ">
<path fill="none" stroke="orange" stroke-dasharray="5,2" d="M128.23,-231.8C130.85,-232.12 133.45,-232.42 136,-232.71 211.64,-241.17 299.25,-247.55 355.46,-251.2"/>
<polygon fill="orange" stroke="orange" points="128.4,-228.29 118.04,-230.5 127.52,-235.24 128.4,-228.29"/>
</a>
</g>
<text text-anchor="start" x="149.5" y="-260.71" font-family="Helvetica,sans-Serif" font-size="10.00" fill="grey"> &lt; d_t, d_t, psr::EdgeFunction</text>
<text text-anchor="middle" x="221" y="-249.71" font-family="Helvetica,sans-Serif" font-size="10.00" fill="grey">&lt; l_t &gt; &gt;</text>
</g>
<!-- Node6 -->
<g id="Node000006" class="node">
<title>Node6</title>
<g id="a_Node000006"><a xlink:href="classpsr_1_1Table.html" target="_top" xlink:title=" ">
<polygon fill="white" stroke="#666666" points="478,-215.71 351,-215.71 351,-163.71 478,-163.71 478,-215.71"/>
<text text-anchor="start" x="359" y="-203.71" font-family="Helvetica,sans-Serif" font-size="10.00">psr::Table&lt; n_t, d</text>
<text text-anchor="start" x="359" y="-192.71" font-family="Helvetica,sans-Serif" font-size="10.00">_t, psr::Table&lt; n_t,</text>
<text text-anchor="start" x="359" y="-181.71" font-family="Helvetica,sans-Serif" font-size="10.00"> d_t, psr::EdgeFunction</text>
<text text-anchor="middle" x="414.5" y="-170.71" font-family="Helvetica,sans-Serif" font-size="10.00">&lt; l_t &gt; &gt; &gt;</text>
</a>
</g>
</g>
<!-- Node1&#45;&gt;Node6 -->
<g id="edge5_Node000001_Node000006" class="edge">
<title>Node1&#45;&gt;Node6</title>
<g id="a_edge5_Node000001_Node000006"><a xlink:title=" ">
<path fill="none" stroke="orange" stroke-dasharray="5,2" d="M96.96,-209.03C109.24,-205.36 123.07,-201.78 136,-199.71 209.07,-188 294.28,-186.74 350.8,-187.6"/>
<polygon fill="orange" stroke="orange" points="95.58,-205.8 87.07,-212.11 97.66,-212.48 95.58,-205.8"/>
</a>
</g>
<text text-anchor="start" x="151" y="-224.71" font-family="Helvetica,sans-Serif" font-size="10.00" fill="grey"> &lt; n_t, d_t, psr::Table</text>
<text text-anchor="start" x="151" y="-213.71" font-family="Helvetica,sans-Serif" font-size="10.00" fill="grey">&lt; n_t, d_t, psr::EdgeFunction</text>
<text text-anchor="middle" x="221" y="-202.71" font-family="Helvetica,sans-Serif" font-size="10.00" fill="grey">&lt; l_t &gt; &gt; &gt;</text>
</g>
<!-- Node7 -->
<g id="Node000007" class="node">
<title>Node7</title>
<g id="a_Node000007"><a xlink:href="classpsr_1_1Table.html" target="_top" xlink:title=" ">
<polygon fill="white" stroke="#666666" points="505,-145.71 324,-145.71 324,-93.71 505,-93.71 505,-145.71"/>
<text text-anchor="start" x="332" y="-133.71" font-family="Helvetica,sans-Serif" font-size="10.00">psr::Table&lt; n_t, d</text>
<text text-anchor="start" x="332" y="-122.71" font-family="Helvetica,sans-Serif" font-size="10.00">_t, std::map&lt; n_t, std</text>
<text text-anchor="start" x="332" y="-111.71" font-family="Helvetica,sans-Serif" font-size="10.00">::set&lt; typename AnalysisDomain</text>
<text text-anchor="middle" x="414.5" y="-100.71" font-family="Helvetica,sans-Serif" font-size="10.00">Ty::d_t &gt; &gt; &gt;</text>
</a>
</g>
</g>
<!-- Node1&#45;&gt;Node7 -->
<g id="edge6_Node000001_Node000007" class="edge">
<title>Node1&#45;&gt;Node7</title>
<g id="a_edge6_Node000001_Node000007"><a xlink:title=" ">
<path fill="none" stroke="orange" stroke-dasharray="5,2" d="M72.89,-204.1C86.49,-187.01 109.59,-161.92 136,-149.71 194.61,-122.61 267.39,-115.6 323.71,-115.1"/>
<polygon fill="orange" stroke="orange" points="69.98,-202.14 66.67,-212.2 75.54,-206.4 69.98,-202.14"/>
</a>
</g>
<text text-anchor="start" x="147" y="-174.71" font-family="Helvetica,sans-Serif" font-size="10.00" fill="grey"> &lt; n_t, d_t, std::map</text>
<text text-anchor="start" x="147" y="-163.71" font-family="Helvetica,sans-Serif" font-size="10.00" fill="grey">&lt; n_t, std::set&lt; typename</text>
<text text-anchor="middle" x="221" y="-152.71" font-family="Helvetica,sans-Serif" font-size="10.00" fill="grey"> AnalysisDomainTy::d_t &gt; &gt; &gt;</text>
</g>
<!-- Node8 -->
<g id="Node000008" class="node">
<title>Node8</title>
<g id="a_Node000008"><a xlink:href="classpsr_1_1Table.html" target="_top" xlink:title=" ">
<polygon fill="white" stroke="#666666" points="465,-75.71 364,-75.71 364,-45.71 465,-45.71 465,-75.71"/>
<text text-anchor="start" x="372" y="-63.71" font-family="Helvetica,sans-Serif" font-size="10.00">psr::Table&lt; n_t, d</text>
<text text-anchor="middle" x="414.5" y="-52.71" font-family="Helvetica,sans-Serif" font-size="10.00">_t, l_t &gt;</text>
</a>
</g>
</g>
<!-- Node1&#45;&gt;Node8 -->
<g id="edge7_Node000001_Node000008" class="edge">
<title>Node1&#45;&gt;Node8</title>
<g id="a_edge7_Node000001_Node000008"><a xlink:title=" ">
<path fill="none" stroke="orange" stroke-dasharray="5,2" d="M66.15,-202.35C76.05,-174.62 98.33,-124.21 136,-99.71 205.23,-54.68 304.66,-52.22 363.8,-55.67"/>
<polygon fill="orange" stroke="orange" points="62.74,-201.49 62.85,-212.09 69.37,-203.74 62.74,-201.49"/>
</a>
</g>
<text text-anchor="middle" x="221" y="-102.71" font-family="Helvetica,sans-Serif" font-size="10.00" fill="grey"> &lt; n_t, d_t, l_t &gt;</text>
</g>
<!-- Node9 -->
<g id="Node000009" class="node">
<title>Node9</title>
<g id="a_Node000009"><a xlink:href="classpsr_1_1Table.html" target="_top" xlink:title=" ">
<polygon fill="white" stroke="#666666" points="473.5,-27.21 355.5,-27.21 355.5,-8.21 473.5,-8.21 473.5,-27.21"/>
<text text-anchor="middle" x="414.5" y="-15.21" font-family="Helvetica,sans-Serif" font-size="10.00">psr::Table&lt; N, D, L &gt;</text>
</a>
</g>
</g>
<!-- Node1&#45;&gt;Node9 -->
<g id="edge8_Node000001_Node000009" class="edge">
<title>Node1&#45;&gt;Node9</title>
<g id="a_edge8_Node000001_Node000009"><a xlink:title=" ">
<path fill="none" stroke="orange" stroke-dasharray="5,2" d="M61.75,-201.68C66.31,-163.05 82.23,-78.68 136,-39.71 204.87,10.21 310.21,1.89 369.32,-8.19"/>
<polygon fill="orange" stroke="orange" points="58.22,-201.78 60.67,-212.09 65.19,-202.51 58.22,-201.78"/>
</a>
</g>
<text text-anchor="middle" x="221" y="-42.71" font-family="Helvetica,sans-Serif" font-size="10.00" fill="grey"> &lt; N, D, L &gt;</text>
</g>
</g>
</svg>
