<?xml version="1.0" encoding="UTF-8" standalone="no"?>
<!DOCTYPE svg PUBLIC "-//W3C//DTD SVG 1.1//EN"
 "http://www.w3.org/Graphics/SVG/1.1/DTD/svg11.dtd">
<!-- Generated by graphviz version 2.43.0 (0)
 -->
<!-- Title: psr::SparseLLVMBasedICFG Pages: 1 -->
<svg width="1533pt" height="148pt"
 viewBox="0.00 0.00 1533.00 147.50" xmlns="http://www.w3.org/2000/svg" xmlns:xlink="http://www.w3.org/1999/xlink">
<g id="graph0" class="graph" transform="scale(1 1) rotate(0) translate(4 143.5)">
<title>psr::SparseLLVMBasedICFG</title>
<!-- Node1 -->
<g id="Node000001" class="node">
<title>Node1</title>
<g id="a_Node000001"><a xlink:title="A class that implements a sparse interprocedural control flow graph. Conforms to the ICFGBase CRTP in...">
<polygon fill="#999999" stroke="#666666" points="1525,-36.5 1376,-36.5 1376,-17.5 1525,-17.5 1525,-36.5"/>
<text text-anchor="middle" x="1450.5" y="-24.5" font-family="Helvetica,sans-Serif" font-size="10.00">psr::SparseLLVMBasedICFG</text>
</a>
</g>
</g>
<!-- Node2 -->
<g id="Node000002" class="node">
<title>Node2</title>
<g id="a_Node000002"><a xlink:href="classpsr_1_1LLVMBasedICFG.html" target="_top" xlink:title="A class that implements a inter&#45;procedural control flow graph. Conforms to the ICFGBase CRTP interfac...">
<polygon fill="white" stroke="#666666" points="1314,-67.5 1198,-67.5 1198,-48.5 1314,-48.5 1314,-67.5"/>
<text text-anchor="middle" x="1256" y="-55.5" font-family="Helvetica,sans-Serif" font-size="10.00">psr::LLVMBasedICFG</text>
</a>
</g>
</g>
<!-- Node2&#45;&gt;Node1 -->
<g id="edge1_Node000001_Node000002" class="edge">
<title>Node2&#45;&gt;Node1</title>
<g id="a_edge1_Node000001_Node000002"><a xlink:title=" ">
<path fill="none" stroke="#63b8ff" d="M1324.3,-47.16C1345.86,-43.69 1369.56,-39.87 1390.48,-36.5"/>
<polygon fill="#63b8ff" stroke="#63b8ff" points="1323.55,-43.74 1314.24,-48.78 1324.66,-50.65 1323.55,-43.74"/>
</a>
</g>
</g>
<!-- Node3 -->
<g id="Node000003" class="node">
<title>Node3</title>
<g id="a_Node000003"><a xlink:href="classpsr_1_1LLVMBasedCFG.html" target="_top" xlink:title=" ">
<polygon fill="white" stroke="#666666" points="1136,-92.5 1023,-92.5 1023,-73.5 1136,-73.5 1136,-92.5"/>
<text text-anchor="middle" x="1079.5" y="-80.5" font-family="Helvetica,sans-Serif" font-size="10.00">psr::LLVMBasedCFG</text>
</a>
</g>
</g>
<!-- Node3&#45;&gt;Node2 -->
<g id="edge2_Node000002_Node000003" class="edge">
<title>Node3&#45;&gt;Node2</title>
<g id="a_edge2_Node000002_Node000003"><a xlink:title=" ">
<path fill="none" stroke="#63b8ff" d="M1146.52,-73.54C1163.38,-71.13 1181.36,-68.55 1197.74,-66.2"/>
<polygon fill="#63b8ff" stroke="#63b8ff" points="1145.6,-70.14 1136.19,-75.02 1146.59,-77.07 1145.6,-70.14"/>
</a>
</g>
</g>
<!-- Node4 -->
<g id="Node000004" class="node">
<title>Node4</title>
<g id="a_Node000004"><a xlink:title=" ">
<polygon fill="white" stroke="#666666" points="986,-103 817,-103 817,-73 986,-73 986,-103"/>
<text text-anchor="start" x="825" y="-91" font-family="Helvetica,sans-Serif" font-size="10.00">psr::detail::LLVMBasedCFGImpl</text>
<text text-anchor="middle" x="901.5" y="-80" font-family="Helvetica,sans-Serif" font-size="10.00">&lt; LLVMBasedCFG &gt;</text>
</a>
</g>
</g>
<!-- Node4&#45;&gt;Node3 -->
<g id="edge3_Node000003_Node000004" class="edge">
<title>Node4&#45;&gt;Node3</title>
<g id="a_edge3_Node000003_Node000004"><a xlink:title=" ">
<path fill="none" stroke="#63b8ff" d="M996.31,-85.33C1005.32,-85.08 1014.26,-84.83 1022.73,-84.58"/>
<polygon fill="#63b8ff" stroke="#63b8ff" points="996.02,-81.84 986.12,-85.62 996.21,-88.84 996.02,-81.84"/>
</a>
</g>
</g>
<!-- Node5 -->
<g id="Node000005" class="node">
<title>Node5</title>
<g id="a_Node000005"><a xlink:href="classpsr_1_1CFGBase.html" target="_top" xlink:title=" ">
<polygon fill="white" stroke="#666666" points="492,-139.5 349,-139.5 349,-120.5 492,-120.5 492,-139.5"/>
<text text-anchor="middle" x="420.5" y="-127.5" font-family="Helvetica,sans-Serif" font-size="10.00">psr::CFGBase&lt; Derived &gt;</text>
</a>
</g>
</g>
<!-- Node5&#45;&gt;Node4 -->
<g id="edge4_Node000004_Node000005" class="edge">
<title>Node5&#45;&gt;Node4</title>
<g id="a_edge4_Node000004_Node000005"><a xlink:title=" ">
<path fill="none" stroke="#63b8ff" d="M502.32,-126.07C578.88,-121.9 696.97,-114.35 799,-103 804.84,-102.35 810.86,-101.62 816.92,-100.84"/>
<polygon fill="#63b8ff" stroke="#63b8ff" points="502.07,-122.57 492.27,-126.61 502.44,-129.56 502.07,-122.57"/>
</a>
</g>
</g>
<!-- Node6 -->
<g id="Node000006" class="node">
<title>Node6</title>
<g id="a_Node000006"><a xlink:href="classpsr_1_1CRTPBase.html" target="_top" xlink:title=" ">
<polygon fill="white" stroke="#666666" points="147,-99.5 0,-99.5 0,-80.5 147,-80.5 147,-99.5"/>
<text text-anchor="middle" x="73.5" y="-87.5" font-family="Helvetica,sans-Serif" font-size="10.00">psr::CRTPBase&lt; Derived &gt;</text>
</a>
</g>
</g>
<!-- Node6&#45;&gt;Node5 -->
<g id="edge5_Node000005_Node000006" class="edge">
<title>Node6&#45;&gt;Node5</title>
<g id="a_edge5_Node000005_Node000006"><a xlink:title=" ">
<path fill="none" stroke="#63b8ff" d="M134.1,-101.26C150.25,-104.06 167.76,-106.87 184,-109 239.15,-116.23 301.89,-121.69 348.74,-125.23"/>
<polygon fill="#63b8ff" stroke="#63b8ff" points="134.7,-97.82 124.24,-99.53 133.49,-104.71 134.7,-97.82"/>
</a>
</g>
</g>
<!-- Node8 -->
<g id="Node000008" class="node">
<title>Node8</title>
<g id="a_Node000008"><a xlink:href="classpsr_1_1CFGBase.html" target="_top" xlink:title=" ">
<polygon fill="white" stroke="#666666" points="329,-99.5 186,-99.5 186,-80.5 329,-80.5 329,-99.5"/>
<text text-anchor="middle" x="257.5" y="-87.5" font-family="Helvetica,sans-Serif" font-size="10.00">psr::CFGBase&lt; Derived &gt;</text>
</a>
</g>
</g>
<!-- Node6&#45;&gt;Node8 -->
<g id="edge8_Node000008_Node000006" class="edge">
<title>Node6&#45;&gt;Node8</title>
<g id="a_edge8_Node000008_Node000006"><a xlink:title=" ">
<path fill="none" stroke="#63b8ff" d="M157.48,-90C167,-90 176.64,-90 185.97,-90"/>
<polygon fill="#63b8ff" stroke="#63b8ff" points="157.22,-86.5 147.22,-90 157.22,-93.5 157.22,-86.5"/>
</a>
</g>
</g>
<!-- Node11 -->
<g id="Node000011" class="node">
<title>Node11</title>
<g id="a_Node000011"><a xlink:href="classpsr_1_1ICFGBase.html" target="_top" xlink:title=" ">
<polygon fill="white" stroke="#666666" points="330.5,-62.5 184.5,-62.5 184.5,-43.5 330.5,-43.5 330.5,-62.5"/>
<text text-anchor="middle" x="257.5" y="-50.5" font-family="Helvetica,sans-Serif" font-size="10.00">psr::ICFGBase&lt; Derived &gt;</text>
</a>
</g>
</g>
<!-- Node6&#45;&gt;Node11 -->
<g id="edge12_Node000011_Node000006" class="edge">
<title>Node6&#45;&gt;Node11</title>
<g id="a_edge12_Node000011_Node000006"><a xlink:title=" ">
<path fill="none" stroke="#63b8ff" d="M131.48,-78.42C156.56,-73.32 185.66,-67.4 209.47,-62.56"/>
<polygon fill="#63b8ff" stroke="#63b8ff" points="130.47,-75.05 121.37,-80.47 131.87,-81.91 130.47,-75.05"/>
</a>
</g>
</g>
<!-- Node7 -->
<g id="Node000007" class="node">
<title>Node7</title>
<g id="a_Node000007"><a xlink:title=" ">
<polygon fill="white" stroke="#666666" points="679,-103 510,-103 510,-73 679,-73 679,-103"/>
<text text-anchor="start" x="518" y="-91" font-family="Helvetica,sans-Serif" font-size="10.00">psr::detail::LLVMBasedCFGImpl</text>
<text text-anchor="middle" x="594.5" y="-80" font-family="Helvetica,sans-Serif" font-size="10.00">&lt; Derived &gt;</text>
</a>
</g>
</g>
<!-- Node7&#45;&gt;Node4 -->
<g id="edge6_Node000004_Node000007" class="edge">
<title>Node7&#45;&gt;Node4</title>
<g id="a_edge6_Node000004_Node000007"><a xlink:title=" ">
<path fill="none" stroke="orange" stroke-dasharray="5,2" d="M689.45,-88C730.17,-88 777.46,-88 816.94,-88"/>
<polygon fill="orange" stroke="orange" points="689.25,-84.5 679.25,-88 689.25,-91.5 689.25,-84.5"/>
</a>
</g>
<text text-anchor="middle" x="748" y="-91" font-family="Helvetica,sans-Serif" font-size="10.00" fill="grey"> &lt; LLVMBasedCFG &gt;</text>
</g>
<!-- Node8&#45;&gt;Node7 -->
<g id="edge7_Node000007_Node000008" class="edge">
<title>Node8&#45;&gt;Node7</title>
<g id="a_edge7_Node000007_Node000008"><a xlink:title=" ">
<path fill="none" stroke="#63b8ff" d="M339.25,-89.52C390.9,-89.21 457.75,-88.81 509.94,-88.5"/>
<polygon fill="#63b8ff" stroke="#63b8ff" points="339.11,-86.02 329.14,-89.58 339.16,-93.02 339.11,-86.02"/>
</a>
</g>
</g>
<!-- Node9 -->
<g id="Node000009" class="node">
<title>Node9</title>
<g id="a_Node000009"><a xlink:href="classpsr_1_1ICFGBase.html" target="_top" xlink:title=" ">
<polygon fill="white" stroke="#666666" points="670.5,-55 518.5,-55 518.5,-25 670.5,-25 670.5,-55"/>
<text text-anchor="start" x="526.5" y="-43" font-family="Helvetica,sans-Serif" font-size="10.00">psr::ICFGBase&lt; LLVMBased</text>
<text text-anchor="middle" x="594.5" y="-32" font-family="Helvetica,sans-Serif" font-size="10.00">ICFG &gt;</text>
</a>
</g>
</g>
<!-- Node9&#45;&gt;Node2 -->
<g id="edge9_Node000002_Node000009" class="edge">
<title>Node9&#45;&gt;Node2</title>
<g id="a_edge9_Node000002_Node000009"><a xlink:title=" ">
<path fill="none" stroke="#63b8ff" d="M680.51,-42.32C817.03,-46.05 1081.55,-53.27 1197.82,-56.44"/>
<polygon fill="#63b8ff" stroke="#63b8ff" points="680.6,-38.82 670.51,-42.05 680.41,-45.82 680.6,-38.82"/>
</a>
</g>
</g>
<!-- Node10 -->
<g id="Node000010" class="node">
<title>Node10</title>
<g id="a_Node000010"><a xlink:href="classpsr_1_1CRTPBase.html" target="_top" xlink:title=" ">
<polygon fill="white" stroke="#666666" points="331,-25.5 184,-25.5 184,-6.5 331,-6.5 331,-25.5"/>
<text text-anchor="middle" x="257.5" y="-13.5" font-family="Helvetica,sans-Serif" font-size="10.00">psr::CRTPBase&lt; Derived &gt;</text>
</a>
</g>
</g>
<!-- Node10&#45;&gt;Node9 -->
<g id="edge10_Node000009_Node000010" class="edge">
<title>Node10&#45;&gt;Node9</title>
<g id="a_edge10_Node000009_Node000010"><a xlink:title=" ">
<path fill="none" stroke="#63b8ff" d="M341.46,-21.94C395.63,-25.82 465.8,-30.85 518.34,-34.62"/>
<polygon fill="#63b8ff" stroke="#63b8ff" points="341.41,-18.43 331.19,-21.21 340.91,-25.41 341.41,-18.43"/>
</a>
</g>
</g>
<!-- Node11&#45;&gt;Node9 -->
<g id="edge11_Node000009_Node000011" class="edge">
<title>Node11&#45;&gt;Node9</title>
<g id="a_edge11_Node000009_Node000011"><a xlink:title=" ">
<path fill="none" stroke="orange" stroke-dasharray="5,2" d="M341.06,-49.8C395.33,-47.69 465.77,-44.96 518.45,-42.91"/>
<polygon fill="orange" stroke="orange" points="340.63,-46.31 330.78,-50.2 340.91,-53.3 340.63,-46.31"/>
</a>
</g>
<text text-anchor="middle" x="420.5" y="-53" font-family="Helvetica,sans-Serif" font-size="10.00" fill="grey"> &lt; LLVMBasedICFG &gt;</text>
</g>
<!-- Node12 -->
<g id="Node000012" class="node">
<title>Node12</title>
<g id="a_Node000012"><a xlink:href="classpsr_1_1SparseCFGProvider.html" target="_top" xlink:title=" ">
<polygon fill="white" stroke="#666666" points="1339,-30 1173,-30 1173,0 1339,0 1339,-30"/>
<text text-anchor="start" x="1181" y="-18" font-family="Helvetica,sans-Serif" font-size="10.00">SparseLLVMBasedCFGProvider</text>
<text text-anchor="middle" x="1256" y="-7" font-family="Helvetica,sans-Serif" font-size="10.00">&lt; SparseLLVMBasedICFG &gt;</text>
</a>
</g>
</g>
<!-- Node12&#45;&gt;Node1 -->
<g id="edge13_Node000001_Node000012" class="edge">
<title>Node12&#45;&gt;Node1</title>
<g id="a_edge13_Node000001_Node000012"><a xlink:title=" ">
<path fill="none" stroke="#63b8ff" d="M1349.22,-20.75C1358.14,-21.3 1367.1,-21.86 1375.8,-22.41"/>
<polygon fill="#63b8ff" stroke="#63b8ff" points="1349.39,-17.25 1339.2,-20.12 1348.96,-24.24 1349.39,-17.25"/>
</a>
</g>
</g>
</g>
</svg>
