<?xml version="1.0" encoding="UTF-8" standalone="no"?>
<!DOCTYPE svg PUBLIC "-//W3C//DTD SVG 1.1//EN"
 "http://www.w3.org/Graphics/SVG/1.1/DTD/svg11.dtd">
<!-- Generated by graphviz version 2.43.0 (0)
 -->
<!-- Title: psr::DefaultEdgeFunctionSingletonCacheImpl&lt; EdgeFunctionTy, L &gt; Pages: 1 -->
<svg width="1469pt" height="431pt"
 viewBox="0.00 0.00 1469.00 430.57" xmlns="http://www.w3.org/2000/svg" xmlns:xlink="http://www.w3.org/1999/xlink">
<g id="graph0" class="graph" transform="scale(1 1) rotate(0) translate(4 426.57)">
<title>psr::DefaultEdgeFunctionSingletonCacheImpl&lt; EdgeFunctionTy, L &gt;</title>
<!-- Node1 -->
<g id="Node000001" class="node">
<title>Node1</title>
<g id="a_Node000001"><a xlink:title=" ">
<polygon fill="#999999" stroke="#666666" points="377,-240.5 186,-240.5 186,-199.5 377,-199.5 377,-240.5"/>
<text text-anchor="start" x="194" y="-228.5" font-family="Helvetica,sans-Serif" font-size="10.00">psr::DefaultEdgeFunction</text>
<text text-anchor="start" x="194" y="-217.5" font-family="Helvetica,sans-Serif" font-size="10.00">SingletonCacheImpl&lt; EdgeFunction</text>
<text text-anchor="middle" x="281.5" y="-206.5" font-family="Helvetica,sans-Serif" font-size="10.00">Ty, L &gt;</text>
</a>
</g>
</g>
<!-- Node3 -->
<g id="Node000003" class="node">
<title>Node3</title>
<g id="a_Node000003"><a xlink:href="classpsr_1_1DefaultEdgeFunctionSingletonCache.html" target="_top" xlink:title=" ">
<polygon fill="white" stroke="#666666" points="1453.5,-378.5 1238.5,-378.5 1238.5,-337.5 1453.5,-337.5 1453.5,-378.5"/>
<text text-anchor="start" x="1246.5" y="-366.5" font-family="Helvetica,sans-Serif" font-size="10.00">psr::DefaultEdgeFunction</text>
<text text-anchor="start" x="1246.5" y="-355.5" font-family="Helvetica,sans-Serif" font-size="10.00">SingletonCache&lt; psr::IDEInst</text>
<text text-anchor="middle" x="1346" y="-344.5" font-family="Helvetica,sans-Serif" font-size="10.00">InteractionAnalysisT::IIAAAddLabelsEF &gt;</text>
</a>
</g>
</g>
<!-- Node1&#45;&gt;Node3 -->
<g id="edge2_Node000001_Node000003" class="edge">
<title>Node1&#45;&gt;Node3</title>
<g id="a_edge2_Node000001_Node000003"><a xlink:title=" ">
<path fill="none" stroke="#63b8ff" d="M300.6,-249.11C320.04,-277.46 353.78,-318.98 395,-338 685.96,-472.28 1082.34,-414.29 1256.63,-378.51"/>
<polygon fill="#63b8ff" stroke="#63b8ff" points="303.5,-247.15 295.03,-240.78 297.68,-251.04 303.5,-247.15"/>
</a>
</g>
</g>
<!-- Node4 -->
<g id="Node000004" class="node">
<title>Node4</title>
<g id="a_Node000004"><a xlink:href="classpsr_1_1DefaultEdgeFunctionSingletonCache.html" target="_top" xlink:title=" ">
<polygon fill="white" stroke="#666666" points="1461,-310.5 1231,-310.5 1231,-269.5 1461,-269.5 1461,-310.5"/>
<text text-anchor="start" x="1239" y="-298.5" font-family="Helvetica,sans-Serif" font-size="10.00">psr::DefaultEdgeFunction</text>
<text text-anchor="start" x="1239" y="-287.5" font-family="Helvetica,sans-Serif" font-size="10.00">SingletonCache&lt; psr::IDEInst</text>
<text text-anchor="middle" x="1346" y="-276.5" font-family="Helvetica,sans-Serif" font-size="10.00">InteractionAnalysisT::IIAAKillOrReplaceEF &gt;</text>
</a>
</g>
</g>
<!-- Node1&#45;&gt;Node4 -->
<g id="edge3_Node000001_Node000004" class="edge">
<title>Node1&#45;&gt;Node4</title>
<g id="a_edge3_Node000001_Node000004"><a xlink:title=" ">
<path fill="none" stroke="#63b8ff" d="M387.33,-234.17C389.91,-234.46 392.47,-234.73 395,-235 474.8,-243.42 494.93,-243.76 575,-249 807.77,-264.25 1080.41,-277.73 1230.8,-284.79"/>
<polygon fill="#63b8ff" stroke="#63b8ff" points="387.62,-230.68 377.29,-233.02 386.82,-237.63 387.62,-230.68"/>
</a>
</g>
</g>
<!-- Node5 -->
<g id="Node000005" class="node">
<title>Node5</title>
<g id="a_Node000005"><a xlink:href="classpsr_1_1DefaultEdgeFunctionSingletonCacheImpl.html" target="_top" xlink:title=" ">
<polygon fill="white" stroke="#666666" points="785.5,-338.5 594.5,-338.5 594.5,-297.5 785.5,-297.5 785.5,-338.5"/>
<text text-anchor="start" x="602.5" y="-326.5" font-family="Helvetica,sans-Serif" font-size="10.00">psr::DefaultEdgeFunction</text>
<text text-anchor="start" x="602.5" y="-315.5" font-family="Helvetica,sans-Serif" font-size="10.00">SingletonCacheImpl&lt; EdgeFunction</text>
<text text-anchor="middle" x="690" y="-304.5" font-family="Helvetica,sans-Serif" font-size="10.00">Ty, EdgeFunctionTy::l_t &gt;</text>
</a>
</g>
</g>
<!-- Node1&#45;&gt;Node5 -->
<g id="edge4_Node000001_Node000005" class="edge">
<title>Node1&#45;&gt;Node5</title>
<g id="a_edge4_Node000001_Node000005"><a xlink:title=" ">
<path fill="none" stroke="orange" stroke-dasharray="5,2" d="M320.2,-246.05C341.27,-259.3 368.55,-274.4 395,-283 459.52,-303.99 535.67,-312.64 594.3,-316.09"/>
<polygon fill="orange" stroke="orange" points="321.88,-242.96 311.58,-240.5 318.1,-248.85 321.88,-242.96"/>
</a>
</g>
<text text-anchor="start" x="395" y="-326" font-family="Helvetica,sans-Serif" font-size="10.00" fill="grey"> &lt; EdgeFunctionTy, EdgeFunction</text>
<text text-anchor="middle" x="476" y="-315" font-family="Helvetica,sans-Serif" font-size="10.00" fill="grey">Ty::l_t &gt;</text>
</g>
<!-- Node7 -->
<g id="Node000007" class="node">
<title>Node7</title>
<g id="a_Node000007"><a xlink:href="classpsr_1_1DefaultEdgeFunctionSingletonCacheImpl.html" target="_top" xlink:title=" ">
<polygon fill="white" stroke="#666666" points="775,-240.5 605,-240.5 605,-199.5 775,-199.5 775,-240.5"/>
<text text-anchor="start" x="613" y="-228.5" font-family="Helvetica,sans-Serif" font-size="10.00">psr::DefaultEdgeFunction</text>
<text text-anchor="start" x="613" y="-217.5" font-family="Helvetica,sans-Serif" font-size="10.00">SingletonCacheImpl&lt; Generate</text>
<text text-anchor="middle" x="690" y="-206.5" font-family="Helvetica,sans-Serif" font-size="10.00">EF, l_t &gt;</text>
</a>
</g>
</g>
<!-- Node1&#45;&gt;Node7 -->
<g id="edge8_Node000001_Node000007" class="edge">
<title>Node1&#45;&gt;Node7</title>
<g id="a_edge8_Node000001_Node000007"><a xlink:title=" ">
<path fill="none" stroke="orange" stroke-dasharray="5,2" d="M387.28,-220C454.85,-220 541.55,-220 604.66,-220"/>
<polygon fill="orange" stroke="orange" points="387.04,-216.5 377.04,-220 387.04,-223.5 387.04,-216.5"/>
</a>
</g>
<text text-anchor="middle" x="476" y="-223" font-family="Helvetica,sans-Serif" font-size="10.00" fill="grey"> &lt; GenerateEF, l_t &gt;</text>
</g>
<!-- Node8 -->
<g id="Node000008" class="node">
<title>Node8</title>
<g id="a_Node000008"><a xlink:href="classpsr_1_1DefaultEdgeFunctionSingletonCacheImpl.html" target="_top" xlink:title=" ">
<polygon fill="white" stroke="#666666" points="774.5,-181.5 605.5,-181.5 605.5,-140.5 774.5,-140.5 774.5,-181.5"/>
<text text-anchor="start" x="613.5" y="-169.5" font-family="Helvetica,sans-Serif" font-size="10.00">psr::DefaultEdgeFunction</text>
<text text-anchor="start" x="613.5" y="-158.5" font-family="Helvetica,sans-Serif" font-size="10.00">SingletonCacheImpl&lt; AddFacts</text>
<text text-anchor="middle" x="690" y="-147.5" font-family="Helvetica,sans-Serif" font-size="10.00">EF, l_t &gt;</text>
</a>
</g>
</g>
<!-- Node1&#45;&gt;Node8 -->
<g id="edge9_Node000001_Node000008" class="edge">
<title>Node1&#45;&gt;Node8</title>
<g id="a_edge9_Node000001_Node000008"><a xlink:title=" ">
<path fill="none" stroke="orange" stroke-dasharray="5,2" d="M387.32,-204.79C455.12,-194.95 542.18,-182.31 605.34,-173.14"/>
<polygon fill="orange" stroke="orange" points="386.43,-201.38 377.04,-206.28 387.44,-208.31 386.43,-201.38"/>
</a>
</g>
<text text-anchor="middle" x="476" y="-206" font-family="Helvetica,sans-Serif" font-size="10.00" fill="grey"> &lt; AddFactsEF, l_t &gt;</text>
</g>
<!-- Node9 -->
<g id="Node000009" class="node">
<title>Node9</title>
<g id="a_Node000009"><a xlink:href="classpsr_1_1DefaultEdgeFunctionSingletonCacheImpl.html" target="_top" xlink:title=" ">
<polygon fill="white" stroke="#666666" points="797.5,-122 582.5,-122 582.5,-70 797.5,-70 797.5,-122"/>
<text text-anchor="start" x="590.5" y="-110" font-family="Helvetica,sans-Serif" font-size="10.00">psr::DefaultEdgeFunction</text>
<text text-anchor="start" x="590.5" y="-99" font-family="Helvetica,sans-Serif" font-size="10.00">SingletonCacheImpl&lt; psr</text>
<text text-anchor="start" x="590.5" y="-88" font-family="Helvetica,sans-Serif" font-size="10.00">::IDEInstInteractionAnalysisT</text>
<text text-anchor="middle" x="690" y="-77" font-family="Helvetica,sans-Serif" font-size="10.00">::IIAAAddLabelsEF, EdgeFunctionTy::l_t &gt;</text>
</a>
</g>
</g>
<!-- Node1&#45;&gt;Node9 -->
<g id="edge10_Node000001_Node000009" class="edge">
<title>Node1&#45;&gt;Node9</title>
<g id="a_edge10_Node000001_Node000009"><a xlink:title=" ">
<path fill="none" stroke="orange" stroke-dasharray="5,2" d="M314.78,-193.08C336.21,-176.63 365.71,-156.58 395,-145 454.55,-121.45 525.23,-109.22 582.36,-102.87"/>
<polygon fill="orange" stroke="orange" points="312.4,-190.5 306.69,-199.42 316.72,-196.01 312.4,-190.5"/>
</a>
</g>
<text text-anchor="start" x="407" y="-170" font-family="Helvetica,sans-Serif" font-size="10.00" fill="grey"> &lt; psr::IDEInstInteraction</text>
<text text-anchor="start" x="407" y="-159" font-family="Helvetica,sans-Serif" font-size="10.00" fill="grey">AnalysisT::IIAAAddLabelsEF,</text>
<text text-anchor="middle" x="476" y="-148" font-family="Helvetica,sans-Serif" font-size="10.00" fill="grey"> EdgeFunctionTy::l_t &gt;</text>
</g>
<!-- Node10 -->
<g id="Node000010" class="node">
<title>Node10</title>
<g id="a_Node000010"><a xlink:href="classpsr_1_1DefaultEdgeFunctionSingletonCacheImpl.html" target="_top" xlink:title=" ">
<polygon fill="white" stroke="#666666" points="805,-52 575,-52 575,0 805,0 805,-52"/>
<text text-anchor="start" x="583" y="-40" font-family="Helvetica,sans-Serif" font-size="10.00">psr::DefaultEdgeFunction</text>
<text text-anchor="start" x="583" y="-29" font-family="Helvetica,sans-Serif" font-size="10.00">SingletonCacheImpl&lt; psr</text>
<text text-anchor="start" x="583" y="-18" font-family="Helvetica,sans-Serif" font-size="10.00">::IDEInstInteractionAnalysisT</text>
<text text-anchor="middle" x="690" y="-7" font-family="Helvetica,sans-Serif" font-size="10.00">::IIAAKillOrReplaceEF, EdgeFunctionTy::l_t &gt;</text>
</a>
</g>
</g>
<!-- Node1&#45;&gt;Node10 -->
<g id="edge11_Node000001_Node000010" class="edge">
<title>Node1&#45;&gt;Node10</title>
<g id="a_edge11_Node000001_Node000010"><a xlink:title=" ">
<path fill="none" stroke="orange" stroke-dasharray="5,2" d="M295.96,-190.2C313.45,-155.21 347.47,-98.36 395,-70 448.63,-38 517.24,-26.42 574.69,-23.11"/>
<polygon fill="orange" stroke="orange" points="292.69,-188.92 291.47,-199.45 298.99,-191.98 292.69,-188.92"/>
</a>
</g>
<text text-anchor="start" x="399" y="-95" font-family="Helvetica,sans-Serif" font-size="10.00" fill="grey"> &lt; psr::IDEInstInteraction</text>
<text text-anchor="start" x="399" y="-84" font-family="Helvetica,sans-Serif" font-size="10.00" fill="grey">AnalysisT::IIAAKillOrReplaceEF,</text>
<text text-anchor="middle" x="476" y="-73" font-family="Helvetica,sans-Serif" font-size="10.00" fill="grey"> EdgeFunctionTy::l_t &gt;</text>
</g>
<!-- Node2 -->
<g id="Node000002" class="node">
<title>Node2</title>
<g id="a_Node000002"><a xlink:href="classpsr_1_1EdgeFunctionSingletonCache.html" target="_top" xlink:title=" ">
<polygon fill="white" stroke="#666666" points="149,-235 0,-235 0,-205 149,-205 149,-235"/>
<text text-anchor="start" x="8" y="-223" font-family="Helvetica,sans-Serif" font-size="10.00">psr::EdgeFunctionSingleton</text>
<text text-anchor="middle" x="74.5" y="-212" font-family="Helvetica,sans-Serif" font-size="10.00">Cache&lt; EdgeFunctionTy &gt;</text>
</a>
</g>
</g>
<!-- Node2&#45;&gt;Node1 -->
<g id="edge1_Node000001_Node000002" class="edge">
<title>Node2&#45;&gt;Node1</title>
<g id="a_edge1_Node000001_Node000002"><a xlink:title=" ">
<path fill="none" stroke="#63b8ff" d="M159.31,-220C167.99,-220 176.86,-220 185.66,-220"/>
<polygon fill="#63b8ff" stroke="#63b8ff" points="159.22,-216.5 149.22,-220 159.22,-223.5 159.22,-216.5"/>
</a>
</g>
</g>
<!-- Node6 -->
<g id="Node000006" class="node">
<title>Node6</title>
<g id="a_Node000006"><a xlink:href="classpsr_1_1DefaultEdgeFunctionSingletonCache.html" target="_top" xlink:title=" ">
<polygon fill="white" stroke="#666666" points="1033,-333 842,-333 842,-303 1033,-303 1033,-333"/>
<text text-anchor="start" x="850" y="-321" font-family="Helvetica,sans-Serif" font-size="10.00">psr::DefaultEdgeFunction</text>
<text text-anchor="middle" x="937.5" y="-310" font-family="Helvetica,sans-Serif" font-size="10.00">SingletonCache&lt; EdgeFunctionTy &gt;</text>
</a>
</g>
</g>
<!-- Node5&#45;&gt;Node6 -->
<g id="edge5_Node000005_Node000006" class="edge">
<title>Node5&#45;&gt;Node6</title>
<g id="a_edge5_Node000005_Node000006"><a xlink:title=" ">
<path fill="none" stroke="#63b8ff" d="M795.62,-318C811.02,-318 826.8,-318 841.98,-318"/>
<polygon fill="#63b8ff" stroke="#63b8ff" points="795.57,-314.5 785.57,-318 795.57,-321.5 795.57,-314.5"/>
</a>
</g>
</g>
<!-- Node6&#45;&gt;Node3 -->
<g id="edge6_Node000006_Node000003" class="edge">
<title>Node6&#45;&gt;Node3</title>
<g id="a_edge6_Node000006_Node000003"><a xlink:title=" ">
<path fill="none" stroke="orange" stroke-dasharray="5,2" d="M1043.28,-328.31C1103.22,-334.21 1178.23,-341.59 1238.46,-347.52"/>
<polygon fill="orange" stroke="orange" points="1043.33,-324.8 1033.04,-327.3 1042.65,-331.77 1043.33,-324.8"/>
</a>
</g>
<text text-anchor="start" x="1059" y="-357" font-family="Helvetica,sans-Serif" font-size="10.00" fill="grey"> &lt; psr::IDEInstInteraction</text>
<text text-anchor="middle" x="1132" y="-346" font-family="Helvetica,sans-Serif" font-size="10.00" fill="grey">AnalysisT::IIAAAddLabelsEF &gt;</text>
</g>
<!-- Node6&#45;&gt;Node4 -->
<g id="edge7_Node000006_Node000004" class="edge">
<title>Node6&#45;&gt;Node4</title>
<g id="a_edge7_Node000006_Node000004"><a xlink:title=" ">
<path fill="none" stroke="orange" stroke-dasharray="5,2" d="M1043.32,-303.72C1045.9,-303.46 1048.47,-303.22 1051,-303 1110.16,-297.76 1176.22,-294.6 1230.71,-292.71"/>
<polygon fill="orange" stroke="orange" points="1042.85,-300.25 1033.27,-304.76 1043.57,-307.21 1042.85,-300.25"/>
</a>
</g>
<text text-anchor="start" x="1051" y="-317" font-family="Helvetica,sans-Serif" font-size="10.00" fill="grey"> &lt; psr::IDEInstInteraction</text>
<text text-anchor="middle" x="1132" y="-306" font-family="Helvetica,sans-Serif" font-size="10.00" fill="grey">AnalysisT::IIAAKillOrReplaceEF &gt;</text>
</g>
</g>
</svg>
