<?xml version="1.0" encoding="UTF-8" standalone="no"?>
<!DOCTYPE svg PUBLIC "-//W3C//DTD SVG 1.1//EN"
 "http://www.w3.org/Graphics/SVG/1.1/DTD/svg11.dtd">
<!-- Generated by graphviz version 2.43.0 (0)
 -->
<!-- Title: psr::EdgeFunction&lt; L &gt; Pages: 1 -->
<svg width="139pt" height="160pt"
 viewBox="0.00 0.00 139.00 160.00" xmlns="http://www.w3.org/2000/svg" xmlns:xlink="http://www.w3.org/1999/xlink">
<g id="graph0" class="graph" transform="scale(1 1) rotate(0) translate(4 156)">
<title>psr::EdgeFunction&lt; L &gt;</title>
<!-- Node1 -->
<g id="Node000001" class="node">
<title>Node1</title>
<g id="a_Node000001"><a xlink:title="Ref&#45;counted and type&#45;erased edge function with small&#45;object optimization. Supports caching.">
<polygon fill="#999999" stroke="#666666" points="131,-96 0,-96 0,-77 131,-77 131,-96"/>
<text text-anchor="middle" x="65.5" y="-84" font-family="Helvetica,sans-Serif" font-size="10.00">psr::EdgeFunction&lt; L &gt;</text>
</a>
</g>
</g>
<!-- Node3 -->
<g id="Node000003" class="node">
<title>Node3</title>
<g id="a_Node000003"><a xlink:href="classpsr_1_1EdgeFunction.html" target="_top" xlink:title=" ">
<polygon fill="white" stroke="#666666" points="121,-30 10,-30 10,0 121,0 121,-30"/>
<text text-anchor="start" x="18" y="-18" font-family="Helvetica,sans-Serif" font-size="10.00">psr::EdgeFunction&lt;</text>
<text text-anchor="middle" x="65.5" y="-7" font-family="Helvetica,sans-Serif" font-size="10.00"> l_t &gt;</text>
</a>
</g>
</g>
<!-- Node1&#45;&gt;Node3 -->
<g id="edge2_Node000001_Node000003" class="edge">
<title>Node1&#45;&gt;Node3</title>
<g id="a_edge2_Node000001_Node000003"><a xlink:title=" ">
<path fill="none" stroke="orange" stroke-dasharray="5,2" d="M65.5,-66.71C65.5,-55.19 65.5,-40.68 65.5,-30.14"/>
<polygon fill="orange" stroke="orange" points="62,-66.98 65.5,-76.98 69,-66.98 62,-66.98"/>
</a>
</g>
<text text-anchor="middle" x="84.5" y="-51" font-family="Helvetica,sans-Serif" font-size="10.00" fill="grey"> &lt; l_t &gt;</text>
</g>
<!-- Node2 -->
<g id="Node000002" class="node">
<title>Node2</title>
<g id="a_Node000002"><a xlink:href="classpsr_1_1EdgeFunctionBase.html" target="_top" xlink:title=" ">
<polygon fill="white" stroke="#666666" points="129,-152 2,-152 2,-133 129,-133 129,-152"/>
<text text-anchor="middle" x="65.5" y="-140" font-family="Helvetica,sans-Serif" font-size="10.00">psr::EdgeFunctionBase</text>
</a>
</g>
</g>
<!-- Node2&#45;&gt;Node1 -->
<g id="edge1_Node000001_Node000002" class="edge">
<title>Node2&#45;&gt;Node1</title>
<g id="a_edge1_Node000001_Node000002"><a xlink:title=" ">
<path fill="none" stroke="#8b1a1a" d="M65.5,-122.3C65.5,-113.41 65.5,-103.28 65.5,-96.25"/>
<polygon fill="#8b1a1a" stroke="#8b1a1a" points="62,-122.58 65.5,-132.58 69,-122.58 62,-122.58"/>
</a>
</g>
</g>
</g>
</svg>
