<?xml version="1.0" encoding="UTF-8" standalone="no"?>
<!DOCTYPE svg PUBLIC "-//W3C//DTD SVG 1.1//EN"
 "http://www.w3.org/Graphics/SVG/1.1/DTD/svg11.dtd">
<!-- Generated by graphviz version 2.43.0 (0)
 -->
<!-- Title: psr::InterMonoSolverTest Pages: 1 -->
<svg width="854pt" height="64pt"
 viewBox="0.00 0.00 854.00 64.00" xmlns="http://www.w3.org/2000/svg" xmlns:xlink="http://www.w3.org/1999/xlink">
<g id="graph0" class="graph" transform="scale(1 1) rotate(0) translate(4 60)">
<title>psr::InterMonoSolverTest</title>
<!-- Node1 -->
<g id="Node000001" class="node">
<title>Node1</title>
<g id="a_Node000001"><a xlink:title=" ">
<polygon fill="#999999" stroke="#666666" points="846,-50.5 709,-50.5 709,-31.5 846,-31.5 846,-50.5"/>
<text text-anchor="middle" x="777.5" y="-38.5" font-family="Helvetica,sans-Serif" font-size="10.00">psr::InterMonoSolverTest</text>
</a>
</g>
</g>
<!-- Node2 -->
<g id="Node000002" class="node">
<title>Node2</title>
<g id="a_Node000002"><a xlink:href="classpsr_1_1InterMonoProblem.html" target="_top" xlink:title=" ">
<polygon fill="white" stroke="#666666" points="672,-56 495,-56 495,-26 672,-26 672,-56"/>
<text text-anchor="start" x="503" y="-44" font-family="Helvetica,sans-Serif" font-size="10.00">psr::InterMonoProblem</text>
<text text-anchor="middle" x="583.5" y="-33" font-family="Helvetica,sans-Serif" font-size="10.00">&lt; InterMonoSolverTestDomain &gt;</text>
</a>
</g>
</g>
<!-- Node2&#45;&gt;Node1 -->
<g id="edge1_Node000001_Node000002" class="edge">
<title>Node2&#45;&gt;Node1</title>
<g id="a_edge1_Node000001_Node000002"><a xlink:title=" ">
<path fill="none" stroke="#63b8ff" d="M682.24,-41C691.25,-41 700.24,-41 708.9,-41"/>
<polygon fill="#63b8ff" stroke="#63b8ff" points="682.07,-37.5 672.07,-41 682.07,-44.5 682.07,-37.5"/>
</a>
</g>
</g>
<!-- Node3 -->
<g id="Node000003" class="node">
<title>Node3</title>
<g id="a_Node000003"><a xlink:href="classpsr_1_1IntraMonoProblem.html" target="_top" xlink:title="The analysis problem interface for intraprocedural monotone problems (solvable by the IntraMonoSolver...">
<polygon fill="white" stroke="#666666" points="129,-51 0,-51 0,-21 129,-21 129,-51"/>
<text text-anchor="start" x="8" y="-39" font-family="Helvetica,sans-Serif" font-size="10.00">psr::IntraMonoProblem</text>
<text text-anchor="middle" x="64.5" y="-28" font-family="Helvetica,sans-Serif" font-size="10.00">&lt; AnalysisDomainTy &gt;</text>
</a>
</g>
</g>
<!-- Node3&#45;&gt;Node2 -->
<g id="edge2_Node000002_Node000003" class="edge">
<title>Node3&#45;&gt;Node2</title>
<g id="a_edge2_Node000002_Node000003"><a xlink:title=" ">
<path fill="none" stroke="#63b8ff" d="M139.27,-38.74C141.88,-38.83 144.46,-38.92 147,-39 293.6,-43.91 330.33,-46.08 477,-44 482.86,-43.92 488.91,-43.81 495,-43.68"/>
<polygon fill="#63b8ff" stroke="#63b8ff" points="139.24,-35.23 129.12,-38.38 138.99,-42.23 139.24,-35.23"/>
</a>
</g>
</g>
<!-- Node4 -->
<g id="Node000004" class="node">
<title>Node4</title>
<g id="a_Node000004"><a xlink:href="classpsr_1_1InterMonoProblem.html" target="_top" xlink:title="The analysis problem interface for interprocedural monotone problems (solvable by the InterMonoSolver...">
<polygon fill="white" stroke="#666666" points="295,-30 166,-30 166,0 295,0 295,-30"/>
<text text-anchor="start" x="174" y="-18" font-family="Helvetica,sans-Serif" font-size="10.00">psr::InterMonoProblem</text>
<text text-anchor="middle" x="230.5" y="-7" font-family="Helvetica,sans-Serif" font-size="10.00">&lt; AnalysisDomainTy &gt;</text>
</a>
</g>
</g>
<!-- Node3&#45;&gt;Node4 -->
<g id="edge4_Node000004_Node000003" class="edge">
<title>Node3&#45;&gt;Node4</title>
<g id="a_edge4_Node000004_Node000003"><a xlink:title=" ">
<path fill="none" stroke="#63b8ff" d="M139.57,-26.51C148.33,-25.39 157.2,-24.26 165.8,-23.16"/>
<polygon fill="#63b8ff" stroke="#63b8ff" points="138.85,-23.08 129.38,-27.82 139.74,-30.02 138.85,-23.08"/>
</a>
</g>
</g>
<!-- Node4&#45;&gt;Node2 -->
<g id="edge3_Node000002_Node000004" class="edge">
<title>Node4&#45;&gt;Node2</title>
<g id="a_edge3_Node000002_Node000004"><a xlink:title=" ">
<path fill="none" stroke="orange" stroke-dasharray="5,2" d="M305.23,-20.36C353.98,-23.91 419.31,-28.7 477,-33 482.86,-33.44 488.91,-33.89 495,-34.35"/>
<polygon fill="orange" stroke="orange" points="305.31,-16.85 295.09,-19.62 304.81,-23.84 305.31,-16.85"/>
</a>
</g>
<text text-anchor="middle" x="395" y="-36" font-family="Helvetica,sans-Serif" font-size="10.00" fill="grey"> &lt; InterMonoSolverTestDomain &gt;</text>
</g>
</g>
</svg>
