<?xml version="1.0" encoding="UTF-8" standalone="no"?>
<!DOCTYPE svg PUBLIC "-//W3C//DTD SVG 1.1//EN"
 "http://www.w3.org/Graphics/SVG/1.1/DTD/svg11.dtd">
<!-- Generated by graphviz version 2.43.0 (0)
 -->
<!-- Title: psr::SparseCFGProvider&lt; Derived, F, V &gt; Pages: 1 -->
<svg width="350pt" height="86pt"
 viewBox="0.00 0.00 350.00 86.00" xmlns="http://www.w3.org/2000/svg" xmlns:xlink="http://www.w3.org/1999/xlink">
<g id="graph0" class="graph" transform="scale(1 1) rotate(0) translate(4 82)">
<title>psr::SparseCFGProvider&lt; Derived, F, V &gt;</title>
<!-- Node1 -->
<g id="Node000001" class="node">
<title>Node1</title>
<g id="a_Node000001"><a xlink:title=" ">
<polygon fill="#999999" stroke="#666666" points="131,-54 0,-54 0,-24 131,-24 131,-54"/>
<text text-anchor="start" x="8" y="-42" font-family="Helvetica,sans-Serif" font-size="10.00">psr::SparseCFGProvider</text>
<text text-anchor="middle" x="65.5" y="-31" font-family="Helvetica,sans-Serif" font-size="10.00">&lt; Derived, F, V &gt;</text>
</a>
</g>
</g>
<!-- Node2 -->
<g id="Node000002" class="node">
<title>Node2</title>
<g id="a_Node000002"><a xlink:href="classpsr_1_1SparseLLVMBasedICFG.html" target="_top" xlink:title="A class that implements a sparse interprocedural control flow graph. Conforms to the ICFGBase CRTP in...">
<polygon fill="white" stroke="#666666" points="330,-78 179,-78 179,-48 330,-48 330,-78"/>
<text text-anchor="start" x="187" y="-66" font-family="Helvetica,sans-Serif" font-size="10.00">psr::SparseLLVMBasedICFG</text>
<text text-anchor="middle" x="254.5" y="-55" font-family="Helvetica,sans-Serif" font-size="10.00">&lt; SparseLLVMBasedICFG &gt;</text>
</a>
</g>
</g>
<!-- Node1&#45;&gt;Node2 -->
<g id="edge1_Node000001_Node000002" class="edge">
<title>Node1&#45;&gt;Node2</title>
<g id="a_edge1_Node000001_Node000002"><a xlink:title=" ">
<path fill="none" stroke="#63b8ff" d="M141.38,-48.61C153.74,-50.2 166.56,-51.84 178.92,-53.43"/>
<polygon fill="#63b8ff" stroke="#63b8ff" points="141.48,-45.09 131.12,-47.29 140.59,-52.04 141.48,-45.09"/>
</a>
</g>
</g>
<!-- Node3 -->
<g id="Node000003" class="node">
<title>Node3</title>
<g id="a_Node000003"><a xlink:href="classpsr_1_1SparseLLVMBasedICFGView.html" target="_top" xlink:title="Similar to SparseLLVMBasedICFG; the only difference is that this one is no LLVMBasedICFG – it contain...">
<polygon fill="white" stroke="#666666" points="342,-30 167,-30 167,0 342,0 342,-30"/>
<text text-anchor="start" x="175" y="-18" font-family="Helvetica,sans-Serif" font-size="10.00">psr::SparseLLVMBasedICFGView</text>
<text text-anchor="middle" x="254.5" y="-7" font-family="Helvetica,sans-Serif" font-size="10.00">&lt; SparseLLVMBasedICFGView &gt;</text>
</a>
</g>
</g>
<!-- Node1&#45;&gt;Node3 -->
<g id="edge2_Node000001_Node000003" class="edge">
<title>Node1&#45;&gt;Node3</title>
<g id="a_edge2_Node000001_Node000003"><a xlink:title=" ">
<path fill="none" stroke="#63b8ff" d="M141.24,-29.41C149.64,-28.33 158.25,-27.22 166.78,-26.13"/>
<polygon fill="#63b8ff" stroke="#63b8ff" points="140.59,-25.96 131.12,-30.71 141.48,-32.91 140.59,-25.96"/>
</a>
</g>
</g>
</g>
</svg>
