<?xml version="1.0" encoding="UTF-8" standalone="no"?>
<!DOCTYPE svg PUBLIC "-//W3C//DTD SVG 1.1//EN"
 "http://www.w3.org/Graphics/SVG/1.1/DTD/svg11.dtd">
<!-- Generated by graphviz version 2.43.0 (0)
 -->
<!-- Title: psr::XTaint::AnalysisBase Pages: 1 -->
<svg width="206pt" height="159pt"
 viewBox="0.00 0.00 206.00 159.00" xmlns="http://www.w3.org/2000/svg" xmlns:xlink="http://www.w3.org/1999/xlink">
<g id="graph0" class="graph" transform="scale(1 1) rotate(0) translate(4 155)">
<title>psr::XTaint::AnalysisBase</title>
<!-- Node1 -->
<g id="Node000001" class="node">
<title>Node1</title>
<g id="a_Node000001"><a xlink:title=" ">
<polygon fill="#999999" stroke="#666666" points="168.5,-151 29.5,-151 29.5,-132 168.5,-132 168.5,-151"/>
<text text-anchor="middle" x="99" y="-139" font-family="Helvetica,sans-Serif" font-size="10.00">psr::XTaint::AnalysisBase</text>
</a>
</g>
</g>
<!-- Node2 -->
<g id="Node000002" class="node">
<title>Node2</title>
<g id="a_Node000002"><a xlink:href="classpsr_1_1XTaint_1_1IDEExtendedTaintAnalysis.html" target="_top" xlink:title="An IDE&#45;based taint analysis that uses k&#45;limited field&#45;access paths to achieve field sensitivity.">
<polygon fill="white" stroke="#666666" points="167,-96 31,-96 31,-66 167,-66 167,-96"/>
<text text-anchor="start" x="39" y="-84" font-family="Helvetica,sans-Serif" font-size="10.00">psr::XTaint::IDEExtended</text>
<text text-anchor="middle" x="99" y="-73" font-family="Helvetica,sans-Serif" font-size="10.00">TaintAnalysis</text>
</a>
</g>
</g>
<!-- Node1&#45;&gt;Node2 -->
<g id="edge1_Node000001_Node000002" class="edge">
<title>Node1&#45;&gt;Node2</title>
<g id="a_edge1_Node000001_Node000002"><a xlink:title=" ">
<path fill="none" stroke="#63b8ff" d="M99,-121.65C99,-113.36 99,-103.78 99,-96.11"/>
<polygon fill="#63b8ff" stroke="#63b8ff" points="95.5,-121.87 99,-131.87 102.5,-121.87 95.5,-121.87"/>
</a>
</g>
</g>
<!-- Node3 -->
<g id="Node000003" class="node">
<title>Node3</title>
<g id="a_Node000003"><a xlink:href="classpsr_1_1IDEExtendedTaintAnalysis.html" target="_top" xlink:title=" ">
<polygon fill="white" stroke="#666666" points="198,-30 0,-30 0,0 198,0 198,-30"/>
<text text-anchor="start" x="8" y="-18" font-family="Helvetica,sans-Serif" font-size="10.00">psr::IDEExtendedTaintAnalysis</text>
<text text-anchor="middle" x="99" y="-7" font-family="Helvetica,sans-Serif" font-size="10.00">&lt; BOUND, USE_STRONG_UPDATES &gt;</text>
</a>
</g>
</g>
<!-- Node2&#45;&gt;Node3 -->
<g id="edge2_Node000002_Node000003" class="edge">
<title>Node2&#45;&gt;Node3</title>
<g id="a_edge2_Node000002_Node000003"><a xlink:title=" ">
<path fill="none" stroke="#63b8ff" d="M99,-55.54C99,-46.96 99,-37.61 99,-30.16"/>
<polygon fill="#63b8ff" stroke="#63b8ff" points="95.5,-55.8 99,-65.8 102.5,-55.8 95.5,-55.8"/>
</a>
</g>
</g>
</g>
</svg>
