<?xml version="1.0" encoding="UTF-8" standalone="no"?>
<!DOCTYPE svg PUBLIC "-//W3C//DTD SVG 1.1//EN"
 "http://www.w3.org/Graphics/SVG/1.1/DTD/svg11.dtd">
<!-- Generated by graphviz version 2.43.0 (0)
 -->
<!-- Title: psr::MaybeUniquePtr&lt; T, RequireAlignment &gt; Pages: 1 -->
<svg width="832pt" height="1395pt"
 viewBox="0.00 0.00 832.00 1394.77" xmlns="http://www.w3.org/2000/svg" xmlns:xlink="http://www.w3.org/1999/xlink">
<g id="graph0" class="graph" transform="scale(1 1) rotate(0) translate(4 1390.77)">
<title>psr::MaybeUniquePtr&lt; T, RequireAlignment &gt;</title>
<!-- Node1 -->
<g id="Node000001" class="node">
<title>Node1</title>
<g id="a_Node000001"><a xlink:title=" ">
<polygon fill="#999999" stroke="#666666" points="352,-662.77 213,-662.77 213,-632.77 352,-632.77 352,-662.77"/>
<text text-anchor="start" x="221" y="-650.77" font-family="Helvetica,sans-Serif" font-size="10.00">psr::MaybeUniquePtr</text>
<text text-anchor="middle" x="282.5" y="-639.77" font-family="Helvetica,sans-Serif" font-size="10.00">&lt; T, RequireAlignment &gt;</text>
</a>
</g>
</g>
<!-- Node3 -->
<g id="Node000003" class="node">
<title>Node3</title>
<g id="a_Node000003"><a xlink:href="classpsr_1_1MaybeUniquePtr.html" target="_top" xlink:title=" ">
<polygon fill="white" stroke="#666666" points="812.5,-1354.77 609.5,-1354.77 609.5,-1302.77 812.5,-1302.77 812.5,-1354.77"/>
<text text-anchor="start" x="617.5" y="-1342.77" font-family="Helvetica,sans-Serif" font-size="10.00">psr::MaybeUniquePtr</text>
<text text-anchor="start" x="617.5" y="-1331.77" font-family="Helvetica,sans-Serif" font-size="10.00">&lt; psr::AnalysisPrinterBase</text>
<text text-anchor="start" x="617.5" y="-1320.77" font-family="Helvetica,sans-Serif" font-size="10.00">&lt; WithBinaryValueDomain</text>
<text text-anchor="middle" x="711" y="-1309.77" font-family="Helvetica,sans-Serif" font-size="10.00">&lt; LLVMAnalysisDomainDefault &gt; &gt; &gt;</text>
</a>
</g>
</g>
<!-- Node1&#45;&gt;Node3 -->
<g id="edge2_Node000001_Node000003" class="edge">
<title>Node1&#45;&gt;Node3</title>
<g id="a_edge2_Node000001_Node000003"><a xlink:title=" ">
<path fill="none" stroke="orange" stroke-dasharray="5,2" d="M285.03,-673.19C292.19,-787.91 323.94,-1253.57 370,-1297.77 432.23,-1357.47 533.55,-1359.32 609.43,-1349.8"/>
<polygon fill="orange" stroke="orange" points="288.51,-672.69 284.4,-662.93 281.52,-673.13 288.51,-672.69"/>
</a>
</g>
<text text-anchor="start" x="381.5" y="-1378.77" font-family="Helvetica,sans-Serif" font-size="10.00" fill="grey"> &lt; psr::AnalysisPrinterBase</text>
<text text-anchor="start" x="381.5" y="-1367.77" font-family="Helvetica,sans-Serif" font-size="10.00" fill="grey">&lt; WithBinaryValueDomain</text>
<text text-anchor="middle" x="475" y="-1356.77" font-family="Helvetica,sans-Serif" font-size="10.00" fill="grey">&lt; LLVMAnalysisDomainDefault &gt; &gt; &gt;</text>
</g>
<!-- Node4 -->
<g id="Node000004" class="node">
<title>Node4</title>
<g id="a_Node000004"><a xlink:href="classpsr_1_1MaybeUniquePtr.html" target="_top" xlink:title=" ">
<polygon fill="white" stroke="#666666" points="824,-1284.77 598,-1284.77 598,-1232.77 824,-1232.77 824,-1284.77"/>
<text text-anchor="start" x="606" y="-1272.77" font-family="Helvetica,sans-Serif" font-size="10.00">psr::MaybeUniquePtr</text>
<text text-anchor="start" x="606" y="-1261.77" font-family="Helvetica,sans-Serif" font-size="10.00">&lt; psr::AnalysisPrinterBase</text>
<text text-anchor="start" x="606" y="-1250.77" font-family="Helvetica,sans-Serif" font-size="10.00">&lt; WithBinaryValueDomain</text>
<text text-anchor="middle" x="711" y="-1239.77" font-family="Helvetica,sans-Serif" font-size="10.00">&lt; LLVMIFDSAnalysisDomainDefault &gt; &gt; &gt;</text>
</a>
</g>
</g>
<!-- Node1&#45;&gt;Node4 -->
<g id="edge3_Node000001_Node000004" class="edge">
<title>Node1&#45;&gt;Node4</title>
<g id="a_edge3_Node000001_Node000004"><a xlink:title=" ">
<path fill="none" stroke="orange" stroke-dasharray="5,2" d="M283.36,-673.22C283.38,-774.58 289.03,-1147.68 370,-1224.77 401.96,-1255.19 511.57,-1261.74 597.8,-1261.88"/>
<polygon fill="orange" stroke="orange" points="286.86,-673 283.38,-663 279.86,-672.99 286.86,-673"/>
</a>
</g>
<text text-anchor="start" x="370" y="-1285.77" font-family="Helvetica,sans-Serif" font-size="10.00" fill="grey"> &lt; psr::AnalysisPrinterBase</text>
<text text-anchor="start" x="370" y="-1274.77" font-family="Helvetica,sans-Serif" font-size="10.00" fill="grey">&lt; WithBinaryValueDomain</text>
<text text-anchor="middle" x="475" y="-1263.77" font-family="Helvetica,sans-Serif" font-size="10.00" fill="grey">&lt; LLVMIFDSAnalysisDomainDefault &gt; &gt; &gt;</text>
</g>
<!-- Node5 -->
<g id="Node000005" class="node">
<title>Node5</title>
<g id="a_Node000005"><a xlink:href="classpsr_1_1MaybeUniquePtr.html" target="_top" xlink:title=" ">
<polygon fill="white" stroke="#666666" points="814,-1214.27 608,-1214.27 608,-1173.27 814,-1173.27 814,-1214.27"/>
<text text-anchor="start" x="616" y="-1202.27" font-family="Helvetica,sans-Serif" font-size="10.00">psr::MaybeUniquePtr</text>
<text text-anchor="start" x="616" y="-1191.27" font-family="Helvetica,sans-Serif" font-size="10.00">&lt; psr::AnalysisPrinterBase</text>
<text text-anchor="middle" x="711" y="-1180.27" font-family="Helvetica,sans-Serif" font-size="10.00">&lt; IDEFeatureTaintAnalysisDomain &gt; &gt;</text>
</a>
</g>
</g>
<!-- Node1&#45;&gt;Node5 -->
<g id="edge4_Node000001_Node000005" class="edge">
<title>Node1&#45;&gt;Node5</title>
<g id="a_edge4_Node000001_Node000005"><a xlink:title=" ">
<path fill="none" stroke="orange" stroke-dasharray="5,2" d="M283.8,-673.08C285.48,-767.64 296.58,-1098.22 370,-1165.77 403.67,-1196.74 520.54,-1200.53 607.92,-1198.66"/>
<polygon fill="orange" stroke="orange" points="287.3,-672.93 283.64,-662.99 280.3,-673.04 287.3,-672.93"/>
</a>
</g>
<text text-anchor="start" x="380" y="-1212.77" font-family="Helvetica,sans-Serif" font-size="10.00" fill="grey"> &lt; psr::AnalysisPrinterBase</text>
<text text-anchor="middle" x="475" y="-1201.77" font-family="Helvetica,sans-Serif" font-size="10.00" fill="grey">&lt; IDEFeatureTaintAnalysisDomain &gt; &gt;</text>
</g>
<!-- Node6 -->
<g id="Node000006" class="node">
<title>Node6</title>
<g id="a_Node000006"><a xlink:href="classpsr_1_1MaybeUniquePtr.html" target="_top" xlink:title=" ">
<polygon fill="white" stroke="#666666" points="802,-1155.27 620,-1155.27 620,-1114.27 802,-1114.27 802,-1155.27"/>
<text text-anchor="start" x="628" y="-1143.27" font-family="Helvetica,sans-Serif" font-size="10.00">psr::MaybeUniquePtr</text>
<text text-anchor="start" x="628" y="-1132.27" font-family="Helvetica,sans-Serif" font-size="10.00">&lt; psr::AnalysisPrinterBase</text>
<text text-anchor="middle" x="711" y="-1121.27" font-family="Helvetica,sans-Serif" font-size="10.00">&lt; IDEGeneralizedLCADomain &gt; &gt;</text>
</a>
</g>
</g>
<!-- Node1&#45;&gt;Node6 -->
<g id="edge5_Node000001_Node000006" class="edge">
<title>Node1&#45;&gt;Node6</title>
<g id="a_edge5_Node000001_Node000006"><a xlink:title=" ">
<path fill="none" stroke="orange" stroke-dasharray="5,2" d="M284.38,-673.34C287.98,-761.29 304.65,-1049.04 370,-1107.77 405.56,-1139.73 531.57,-1142.11 619.75,-1139.51"/>
<polygon fill="orange" stroke="orange" points="287.87,-673.05 283.99,-663.19 280.88,-673.32 287.87,-673.05"/>
</a>
</g>
<text text-anchor="start" x="392" y="-1153.77" font-family="Helvetica,sans-Serif" font-size="10.00" fill="grey"> &lt; psr::AnalysisPrinterBase</text>
<text text-anchor="middle" x="475" y="-1142.77" font-family="Helvetica,sans-Serif" font-size="10.00" fill="grey">&lt; IDEGeneralizedLCADomain &gt; &gt;</text>
</g>
<!-- Node7 -->
<g id="Node000007" class="node">
<title>Node7</title>
<g id="a_Node000007"><a xlink:href="classpsr_1_1MaybeUniquePtr.html" target="_top" xlink:title=" ">
<polygon fill="white" stroke="#666666" points="808,-1095.77 614,-1095.77 614,-1043.77 808,-1043.77 808,-1095.77"/>
<text text-anchor="start" x="622" y="-1083.77" font-family="Helvetica,sans-Serif" font-size="10.00">psr::MaybeUniquePtr</text>
<text text-anchor="start" x="622" y="-1072.77" font-family="Helvetica,sans-Serif" font-size="10.00">&lt; psr::AnalysisPrinterBase</text>
<text text-anchor="start" x="622" y="-1061.77" font-family="Helvetica,sans-Serif" font-size="10.00">&lt; IDEInstInteractionAnalysisDomain</text>
<text text-anchor="middle" x="711" y="-1050.77" font-family="Helvetica,sans-Serif" font-size="10.00">&lt; std::string &gt; &gt; &gt;</text>
</a>
</g>
</g>
<!-- Node1&#45;&gt;Node7 -->
<g id="edge6_Node000001_Node000007" class="edge">
<title>Node1&#45;&gt;Node7</title>
<g id="a_edge6_Node000001_Node000007"><a xlink:title=" ">
<path fill="none" stroke="orange" stroke-dasharray="5,2" d="M285.4,-673.23C291.81,-751.49 315.32,-986.15 370,-1034.77 404.98,-1065.86 525.95,-1071.93 613.66,-1072"/>
<polygon fill="orange" stroke="orange" points="288.86,-672.55 284.58,-662.86 281.88,-673.1 288.86,-672.55"/>
</a>
</g>
<text text-anchor="start" x="386" y="-1095.77" font-family="Helvetica,sans-Serif" font-size="10.00" fill="grey"> &lt; psr::AnalysisPrinterBase</text>
<text text-anchor="start" x="386" y="-1084.77" font-family="Helvetica,sans-Serif" font-size="10.00" fill="grey">&lt; IDEInstInteractionAnalysisDomain</text>
<text text-anchor="middle" x="475" y="-1073.77" font-family="Helvetica,sans-Serif" font-size="10.00" fill="grey">&lt; std::string &gt; &gt; &gt;</text>
</g>
<!-- Node8 -->
<g id="Node000008" class="node">
<title>Node8</title>
<g id="a_Node000008"><a xlink:href="classpsr_1_1MaybeUniquePtr.html" target="_top" xlink:title=" ">
<polygon fill="white" stroke="#666666" points="821,-1025.27 601,-1025.27 601,-984.27 821,-984.27 821,-1025.27"/>
<text text-anchor="start" x="609" y="-1013.27" font-family="Helvetica,sans-Serif" font-size="10.00">psr::MaybeUniquePtr</text>
<text text-anchor="start" x="609" y="-1002.27" font-family="Helvetica,sans-Serif" font-size="10.00">&lt; psr::AnalysisPrinterBase</text>
<text text-anchor="middle" x="711" y="-991.27" font-family="Helvetica,sans-Serif" font-size="10.00">&lt; IDELinearConstantAnalysisDomain &gt; &gt;</text>
</a>
</g>
</g>
<!-- Node1&#45;&gt;Node8 -->
<g id="edge7_Node000001_Node000008" class="edge">
<title>Node1&#45;&gt;Node8</title>
<g id="a_edge7_Node000001_Node000008"><a xlink:title=" ">
<path fill="none" stroke="orange" stroke-dasharray="5,2" d="M286.4,-673.21C294.96,-743.55 322.58,-938.08 370,-977.77 404.06,-1006.27 514.93,-1010.64 600.91,-1009.37"/>
<polygon fill="orange" stroke="orange" points="289.84,-672.54 285.19,-663.03 282.89,-673.37 289.84,-672.54"/>
</a>
</g>
<text text-anchor="start" x="373" y="-1022.77" font-family="Helvetica,sans-Serif" font-size="10.00" fill="grey"> &lt; psr::AnalysisPrinterBase</text>
<text text-anchor="middle" x="475" y="-1011.77" font-family="Helvetica,sans-Serif" font-size="10.00" fill="grey">&lt; IDELinearConstantAnalysisDomain &gt; &gt;</text>
</g>
<!-- Node9 -->
<g id="Node000009" class="node">
<title>Node9</title>
<g id="a_Node000009"><a xlink:href="classpsr_1_1MaybeUniquePtr.html" target="_top" xlink:title=" ">
<polygon fill="white" stroke="#666666" points="797,-966.27 625,-966.27 625,-925.27 797,-925.27 797,-966.27"/>
<text text-anchor="start" x="633" y="-954.27" font-family="Helvetica,sans-Serif" font-size="10.00">psr::MaybeUniquePtr</text>
<text text-anchor="start" x="633" y="-943.27" font-family="Helvetica,sans-Serif" font-size="10.00">&lt; psr::AnalysisPrinterBase</text>
<text text-anchor="middle" x="711" y="-932.27" font-family="Helvetica,sans-Serif" font-size="10.00">&lt; IDEProtoAnalysisDomain &gt; &gt;</text>
</a>
</g>
</g>
<!-- Node1&#45;&gt;Node9 -->
<g id="edge8_Node000001_Node000009" class="edge">
<title>Node1&#45;&gt;Node9</title>
<g id="a_edge8_Node000001_Node000009"><a xlink:title=" ">
<path fill="none" stroke="orange" stroke-dasharray="5,2" d="M282.81,-672.86C282.82,-728.25 291.46,-860.95 370,-922.77 408.18,-952.82 537.33,-953.77 625,-950.6"/>
<polygon fill="orange" stroke="orange" points="286.31,-672.89 282.91,-662.85 279.31,-672.82 286.31,-672.89"/>
</a>
</g>
<text text-anchor="start" x="397" y="-965.77" font-family="Helvetica,sans-Serif" font-size="10.00" fill="grey"> &lt; psr::AnalysisPrinterBase</text>
<text text-anchor="middle" x="475" y="-954.77" font-family="Helvetica,sans-Serif" font-size="10.00" fill="grey">&lt; IDEProtoAnalysisDomain &gt; &gt;</text>
</g>
<!-- Node10 -->
<g id="Node000010" class="node">
<title>Node10</title>
<g id="a_Node000010"><a xlink:href="classpsr_1_1MaybeUniquePtr.html" target="_top" xlink:title=" ">
<polygon fill="white" stroke="#666666" points="812.5,-906.77 609.5,-906.77 609.5,-854.77 812.5,-854.77 812.5,-906.77"/>
<text text-anchor="start" x="617.5" y="-894.77" font-family="Helvetica,sans-Serif" font-size="10.00">psr::MaybeUniquePtr</text>
<text text-anchor="start" x="617.5" y="-883.77" font-family="Helvetica,sans-Serif" font-size="10.00">&lt; psr::AnalysisPrinterBase</text>
<text text-anchor="start" x="617.5" y="-872.77" font-family="Helvetica,sans-Serif" font-size="10.00">&lt; IDESecureHeapPropagationAnalysis</text>
<text text-anchor="middle" x="711" y="-861.77" font-family="Helvetica,sans-Serif" font-size="10.00">Domain &gt; &gt;</text>
</a>
</g>
</g>
<!-- Node1&#45;&gt;Node10 -->
<g id="edge9_Node000001_Node000010" class="edge">
<title>Node1&#45;&gt;Node10</title>
<g id="a_edge9_Node000001_Node000010"><a xlink:title=" ">
<path fill="none" stroke="orange" stroke-dasharray="5,2" d="M285.59,-673.16C290.85,-718.76 308.95,-813.83 370,-857.77 407.04,-884.42 522.88,-887.3 609.11,-885.39"/>
<polygon fill="orange" stroke="orange" points="289.05,-672.54 284.54,-662.95 282.09,-673.26 289.05,-672.54"/>
</a>
</g>
<text text-anchor="start" x="381.5" y="-910.77" font-family="Helvetica,sans-Serif" font-size="10.00" fill="grey"> &lt; psr::AnalysisPrinterBase</text>
<text text-anchor="start" x="381.5" y="-899.77" font-family="Helvetica,sans-Serif" font-size="10.00" fill="grey">&lt; IDESecureHeapPropagationAnalysis</text>
<text text-anchor="middle" x="475" y="-888.77" font-family="Helvetica,sans-Serif" font-size="10.00" fill="grey">Domain &gt; &gt;</text>
</g>
<!-- Node11 -->
<g id="Node000011" class="node">
<title>Node11</title>
<g id="a_Node000011"><a xlink:href="classpsr_1_1MaybeUniquePtr.html" target="_top" xlink:title=" ">
<polygon fill="white" stroke="#666666" points="809.5,-836.27 612.5,-836.27 612.5,-795.27 809.5,-795.27 809.5,-836.27"/>
<text text-anchor="start" x="620.5" y="-824.27" font-family="Helvetica,sans-Serif" font-size="10.00">psr::MaybeUniquePtr</text>
<text text-anchor="start" x="620.5" y="-813.27" font-family="Helvetica,sans-Serif" font-size="10.00">&lt; psr::AnalysisPrinterBase</text>
<text text-anchor="middle" x="711" y="-802.27" font-family="Helvetica,sans-Serif" font-size="10.00">&lt; IDESolverTestAnalysisDomain &gt; &gt;</text>
</a>
</g>
</g>
<!-- Node1&#45;&gt;Node11 -->
<g id="edge10_Node000001_Node000011" class="edge">
<title>Node1&#45;&gt;Node11</title>
<g id="a_edge10_Node000001_Node000011"><a xlink:title=" ">
<path fill="none" stroke="orange" stroke-dasharray="5,2" d="M291.01,-672.56C302.33,-705.2 327.14,-761.5 370,-787.77 442.34,-832.09 540.18,-835.58 612.34,-830.05"/>
<polygon fill="orange" stroke="orange" points="294.27,-671.26 287.8,-662.87 287.62,-673.46 294.27,-671.26"/>
</a>
</g>
<text text-anchor="start" x="384.5" y="-845.77" font-family="Helvetica,sans-Serif" font-size="10.00" fill="grey"> &lt; psr::AnalysisPrinterBase</text>
<text text-anchor="middle" x="475" y="-834.77" font-family="Helvetica,sans-Serif" font-size="10.00" fill="grey">&lt; IDESolverTestAnalysisDomain &gt; &gt;</text>
</g>
<!-- Node12 -->
<g id="Node000012" class="node">
<title>Node12</title>
<g id="a_Node000012"><a xlink:href="classpsr_1_1MaybeUniquePtr.html" target="_top" xlink:title=" ">
<polygon fill="white" stroke="#666666" points="799,-776.77 623,-776.77 623,-724.77 799,-724.77 799,-776.77"/>
<text text-anchor="start" x="631" y="-764.77" font-family="Helvetica,sans-Serif" font-size="10.00">psr::MaybeUniquePtr</text>
<text text-anchor="start" x="631" y="-753.77" font-family="Helvetica,sans-Serif" font-size="10.00">&lt; psr::AnalysisPrinterBase</text>
<text text-anchor="start" x="631" y="-742.77" font-family="Helvetica,sans-Serif" font-size="10.00">&lt; IDETypeStateAnalysisDomain</text>
<text text-anchor="middle" x="711" y="-731.77" font-family="Helvetica,sans-Serif" font-size="10.00">&lt; TypeStateDescriptionTy &gt; &gt; &gt;</text>
</a>
</g>
</g>
<!-- Node1&#45;&gt;Node12 -->
<g id="edge11_Node000001_Node000012" class="edge">
<title>Node1&#45;&gt;Node12</title>
<g id="a_edge11_Node000001_Node000012"><a xlink:title=" ">
<path fill="none" stroke="orange" stroke-dasharray="5,2" d="M305.97,-669.61C322.34,-684.13 345.81,-702.23 370,-711.77 451.67,-743.97 552.32,-751.99 622.84,-753.02"/>
<polygon fill="orange" stroke="orange" points="308.28,-666.98 298.54,-662.82 303.56,-672.15 308.28,-666.98"/>
</a>
</g>
<text text-anchor="start" x="395" y="-775.77" font-family="Helvetica,sans-Serif" font-size="10.00" fill="grey"> &lt; psr::AnalysisPrinterBase</text>
<text text-anchor="start" x="395" y="-764.77" font-family="Helvetica,sans-Serif" font-size="10.00" fill="grey">&lt; IDETypeStateAnalysisDomain</text>
<text text-anchor="middle" x="475" y="-753.77" font-family="Helvetica,sans-Serif" font-size="10.00" fill="grey">&lt; TypeStateDescriptionTy &gt; &gt; &gt;</text>
</g>
<!-- Node13 -->
<g id="Node000013" class="node">
<title>Node13</title>
<g id="a_Node000013"><a xlink:href="classpsr_1_1MaybeUniquePtr.html" target="_top" xlink:title=" ">
<polygon fill="white" stroke="#666666" points="787,-706.77 635,-706.77 635,-654.77 787,-654.77 787,-706.77"/>
<text text-anchor="start" x="643" y="-694.77" font-family="Helvetica,sans-Serif" font-size="10.00">psr::MaybeUniquePtr</text>
<text text-anchor="start" x="643" y="-683.77" font-family="Helvetica,sans-Serif" font-size="10.00">&lt; psr::AnalysisPrinterBase</text>
<text text-anchor="start" x="643" y="-672.77" font-family="Helvetica,sans-Serif" font-size="10.00">&lt; WithBinaryValueDomain</text>
<text text-anchor="middle" x="711" y="-661.77" font-family="Helvetica,sans-Serif" font-size="10.00">&lt; AnalysisDomainTy &gt; &gt; &gt;</text>
</a>
</g>
</g>
<!-- Node1&#45;&gt;Node13 -->
<g id="edge12_Node000001_Node000013" class="edge">
<title>Node1&#45;&gt;Node13</title>
<g id="a_edge12_Node000001_Node000013"><a xlink:title=" ">
<path fill="none" stroke="orange" stroke-dasharray="5,2" d="M362.38,-658C364.95,-658.27 367.49,-658.53 370,-658.77 460.97,-667.48 565.98,-673.69 634.94,-677.24"/>
<polygon fill="orange" stroke="orange" points="362.71,-654.52 352.39,-656.92 361.95,-661.48 362.71,-654.52"/>
</a>
</g>
<text text-anchor="start" x="407" y="-699.77" font-family="Helvetica,sans-Serif" font-size="10.00" fill="grey"> &lt; psr::AnalysisPrinterBase</text>
<text text-anchor="start" x="407" y="-688.77" font-family="Helvetica,sans-Serif" font-size="10.00" fill="grey">&lt; WithBinaryValueDomain</text>
<text text-anchor="middle" x="475" y="-677.77" font-family="Helvetica,sans-Serif" font-size="10.00" fill="grey">&lt; AnalysisDomainTy &gt; &gt; &gt;</text>
</g>
<!-- Node14 -->
<g id="Node000014" class="node">
<title>Node14</title>
<g id="a_Node000014"><a xlink:href="classpsr_1_1MaybeUniquePtr.html" target="_top" xlink:title=" ">
<polygon fill="white" stroke="#666666" points="784,-636.27 638,-636.27 638,-595.27 784,-595.27 784,-636.27"/>
<text text-anchor="start" x="646" y="-624.27" font-family="Helvetica,sans-Serif" font-size="10.00">psr::MaybeUniquePtr</text>
<text text-anchor="start" x="646" y="-613.27" font-family="Helvetica,sans-Serif" font-size="10.00">&lt; psr::AnalysisPrinterBase</text>
<text text-anchor="middle" x="711" y="-602.27" font-family="Helvetica,sans-Serif" font-size="10.00">&lt; AnalysisDomainTy &gt; &gt;</text>
</a>
</g>
</g>
<!-- Node1&#45;&gt;Node14 -->
<g id="edge13_Node000001_Node000014" class="edge">
<title>Node1&#45;&gt;Node14</title>
<g id="a_edge13_Node000001_Node000014"><a xlink:title=" ">
<path fill="none" stroke="orange" stroke-dasharray="5,2" d="M362.38,-637.52C364.95,-637.25 367.49,-637 370,-636.77 462.29,-628.06 569.03,-622.14 637.93,-618.86"/>
<polygon fill="orange" stroke="orange" points="361.96,-634.04 352.39,-638.6 362.71,-641 361.96,-634.04"/>
</a>
</g>
<text text-anchor="start" x="408.5" y="-650.77" font-family="Helvetica,sans-Serif" font-size="10.00" fill="grey"> &lt; psr::AnalysisPrinterBase</text>
<text text-anchor="middle" x="475" y="-639.77" font-family="Helvetica,sans-Serif" font-size="10.00" fill="grey">&lt; AnalysisDomainTy &gt; &gt;</text>
</g>
<!-- Node15 -->
<g id="Node000015" class="node">
<title>Node15</title>
<g id="a_Node000015"><a xlink:href="classpsr_1_1MaybeUniquePtr.html" target="_top" xlink:title=" ">
<polygon fill="white" stroke="#666666" points="818.5,-577.27 603.5,-577.27 603.5,-536.27 818.5,-536.27 818.5,-577.27"/>
<text text-anchor="start" x="611.5" y="-565.27" font-family="Helvetica,sans-Serif" font-size="10.00">psr::MaybeUniquePtr</text>
<text text-anchor="start" x="611.5" y="-554.27" font-family="Helvetica,sans-Serif" font-size="10.00">&lt; psr::AnalysisPrinterBase</text>
<text text-anchor="middle" x="711" y="-543.27" font-family="Helvetica,sans-Serif" font-size="10.00">&lt; IDEExtendedTaintAnalysisDomain &gt; &gt;</text>
</a>
</g>
</g>
<!-- Node1&#45;&gt;Node15 -->
<g id="edge14_Node000001_Node000015" class="edge">
<title>Node1&#45;&gt;Node15</title>
<g id="a_edge14_Node000001_Node000015"><a xlink:title=" ">
<path fill="none" stroke="orange" stroke-dasharray="5,2" d="M312.1,-626.8C328.28,-616.02 349.37,-603.72 370,-596.77 445.48,-571.34 535.09,-561.57 603.37,-558.04"/>
<polygon fill="orange" stroke="orange" points="309.91,-624.05 303.64,-632.59 313.87,-629.83 309.91,-624.05"/>
</a>
</g>
<text text-anchor="start" x="375.5" y="-610.77" font-family="Helvetica,sans-Serif" font-size="10.00" fill="grey"> &lt; psr::AnalysisPrinterBase</text>
<text text-anchor="middle" x="475" y="-599.77" font-family="Helvetica,sans-Serif" font-size="10.00" fill="grey">&lt; IDEExtendedTaintAnalysisDomain &gt; &gt;</text>
</g>
<!-- Node16 -->
<g id="Node000016" class="node">
<title>Node16</title>
<g id="a_Node000016"><a xlink:href="classpsr_1_1MaybeUniquePtr.html" target="_top" xlink:title=" ">
<polygon fill="white" stroke="#666666" points="806.5,-518.27 615.5,-518.27 615.5,-477.27 806.5,-477.27 806.5,-518.27"/>
<text text-anchor="start" x="623.5" y="-506.27" font-family="Helvetica,sans-Serif" font-size="10.00">psr::MaybeUniquePtr</text>
<text text-anchor="start" x="623.5" y="-495.27" font-family="Helvetica,sans-Serif" font-size="10.00">&lt; const psr::DIBasedTypeHierarchy,</text>
<text text-anchor="middle" x="711" y="-484.27" font-family="Helvetica,sans-Serif" font-size="10.00"> true &gt;</text>
</a>
</g>
</g>
<!-- Node1&#45;&gt;Node16 -->
<g id="edge15_Node000001_Node000016" class="edge">
<title>Node1&#45;&gt;Node16</title>
<g id="a_edge15_Node000001_Node000016"><a xlink:title=" ">
<path fill="none" stroke="orange" stroke-dasharray="5,2" d="M294.6,-623.18C308.2,-596.22 333.96,-554.09 370,-533.77 444.71,-491.62 543.4,-485.59 615.2,-488.32"/>
<polygon fill="orange" stroke="orange" points="291.37,-621.83 290.15,-632.36 297.66,-624.89 291.37,-621.83"/>
</a>
</g>
<text text-anchor="start" x="411" y="-547.77" font-family="Helvetica,sans-Serif" font-size="10.00" fill="grey"> &lt; const psr::DIBasedType</text>
<text text-anchor="middle" x="475" y="-536.77" font-family="Helvetica,sans-Serif" font-size="10.00" fill="grey">Hierarchy, true &gt;</text>
</g>
<!-- Node17 -->
<g id="Node000017" class="node">
<title>Node17</title>
<g id="a_Node000017"><a xlink:href="classpsr_1_1MaybeUniquePtr.html" target="_top" xlink:title=" ">
<polygon fill="white" stroke="#666666" points="770.5,-458.77 651.5,-458.77 651.5,-428.77 770.5,-428.77 770.5,-458.77"/>
<text text-anchor="start" x="659.5" y="-446.77" font-family="Helvetica,sans-Serif" font-size="10.00">psr::MaybeUniquePtr</text>
<text text-anchor="middle" x="711" y="-435.77" font-family="Helvetica,sans-Serif" font-size="10.00">&lt; z3::context &gt;</text>
</a>
</g>
</g>
<!-- Node1&#45;&gt;Node17 -->
<g id="edge16_Node000001_Node000017" class="edge">
<title>Node1&#45;&gt;Node17</title>
<g id="a_edge16_Node000001_Node000017"><a xlink:title=" ">
<path fill="none" stroke="orange" stroke-dasharray="5,2" d="M287.98,-622.64C296.43,-583.48 318.67,-508.78 370,-473.77 454.19,-416.32 578.73,-422.53 651.4,-432.78"/>
<polygon fill="orange" stroke="orange" points="284.51,-622.18 285.96,-632.67 291.37,-623.56 284.51,-622.18"/>
</a>
</g>
<text text-anchor="middle" x="475" y="-476.77" font-family="Helvetica,sans-Serif" font-size="10.00" fill="grey"> &lt; z3::context &gt;</text>
</g>
<!-- Node18 -->
<g id="Node000018" class="node">
<title>Node18</title>
<g id="a_Node000018"><a xlink:href="classpsr_1_1MaybeUniquePtr.html" target="_top" xlink:title=" ">
<polygon fill="white" stroke="#666666" points="770.5,-410.77 651.5,-410.77 651.5,-380.77 770.5,-380.77 770.5,-410.77"/>
<text text-anchor="start" x="659.5" y="-398.77" font-family="Helvetica,sans-Serif" font-size="10.00">psr::MaybeUniquePtr</text>
<text text-anchor="middle" x="711" y="-387.77" font-family="Helvetica,sans-Serif" font-size="10.00">&lt; llvm::Module &gt;</text>
</a>
</g>
</g>
<!-- Node1&#45;&gt;Node18 -->
<g id="edge17_Node000001_Node000018" class="edge">
<title>Node1&#45;&gt;Node18</title>
<g id="a_edge17_Node000001_Node000018"><a xlink:title=" ">
<path fill="none" stroke="orange" stroke-dasharray="5,2" d="M284.22,-622.35C287.16,-572.43 301.49,-462.06 370,-411.77 413.23,-380.03 566.06,-385.25 651.36,-390.98"/>
<polygon fill="orange" stroke="orange" points="280.71,-622.43 283.73,-632.59 287.7,-622.77 280.71,-622.43"/>
</a>
</g>
<text text-anchor="middle" x="475" y="-414.77" font-family="Helvetica,sans-Serif" font-size="10.00" fill="grey"> &lt; llvm::Module &gt;</text>
</g>
<!-- Node19 -->
<g id="Node000019" class="node">
<title>Node19</title>
<g id="a_Node000019"><a xlink:href="classpsr_1_1MaybeUniquePtr.html" target="_top" xlink:title=" ">
<polygon fill="white" stroke="#666666" points="776.5,-362.77 645.5,-362.77 645.5,-332.77 776.5,-332.77 776.5,-362.77"/>
<text text-anchor="start" x="653.5" y="-350.77" font-family="Helvetica,sans-Serif" font-size="10.00">psr::MaybeUniquePtr</text>
<text text-anchor="middle" x="711" y="-339.77" font-family="Helvetica,sans-Serif" font-size="10.00">&lt; llvm::raw_ostream &gt;</text>
</a>
</g>
</g>
<!-- Node1&#45;&gt;Node19 -->
<g id="edge18_Node000001_Node000019" class="edge">
<title>Node1&#45;&gt;Node19</title>
<g id="a_edge18_Node000001_Node000019"><a xlink:title=" ">
<path fill="none" stroke="orange" stroke-dasharray="5,2" d="M282.79,-622.6C282.76,-567.05 291.33,-433.94 370,-371.77 411.2,-339.2 558.72,-340.26 645.32,-343.97"/>
<polygon fill="orange" stroke="orange" points="279.3,-622.67 282.9,-632.63 286.3,-622.6 279.3,-622.67"/>
</a>
</g>
<text text-anchor="middle" x="475" y="-374.77" font-family="Helvetica,sans-Serif" font-size="10.00" fill="grey"> &lt; llvm::raw_ostream &gt;</text>
</g>
<!-- Node20 -->
<g id="Node000020" class="node">
<title>Node20</title>
<g id="a_Node000020"><a xlink:href="classpsr_1_1MaybeUniquePtr.html" target="_top" xlink:title=" ">
<polygon fill="white" stroke="#666666" points="821,-314.77 601,-314.77 601,-262.77 821,-262.77 821,-314.77"/>
<text text-anchor="start" x="609" y="-302.77" font-family="Helvetica,sans-Serif" font-size="10.00">psr::MaybeUniquePtr</text>
<text text-anchor="start" x="609" y="-291.77" font-family="Helvetica,sans-Serif" font-size="10.00">&lt; psr::AnalysisPrinterBase</text>
<text text-anchor="start" x="609" y="-280.77" font-family="Helvetica,sans-Serif" font-size="10.00">&lt; psr::IDETypeStateAnalysisDomain</text>
<text text-anchor="middle" x="711" y="-269.77" font-family="Helvetica,sans-Serif" font-size="10.00">&lt; psr::OpenSSLEVPKDFDescription &gt; &gt; &gt;</text>
</a>
</g>
</g>
<!-- Node1&#45;&gt;Node20 -->
<g id="edge19_Node000001_Node000020" class="edge">
<title>Node1&#45;&gt;Node20</title>
<g id="a_edge19_Node000001_Node000020"><a xlink:title=" ">
<path fill="none" stroke="orange" stroke-dasharray="5,2" d="M286.03,-622.77C293.87,-550.96 320.21,-346.57 370,-305.77 433.31,-253.88 527.64,-253.16 600.88,-263.43"/>
<polygon fill="orange" stroke="orange" points="282.55,-622.43 284.97,-632.74 289.51,-623.17 282.55,-622.43"/>
</a>
</g>
<text text-anchor="start" x="373" y="-330.77" font-family="Helvetica,sans-Serif" font-size="10.00" fill="grey"> &lt; psr::AnalysisPrinterBase</text>
<text text-anchor="start" x="373" y="-319.77" font-family="Helvetica,sans-Serif" font-size="10.00" fill="grey">&lt; psr::IDETypeStateAnalysisDomain</text>
<text text-anchor="middle" x="475" y="-308.77" font-family="Helvetica,sans-Serif" font-size="10.00" fill="grey">&lt; psr::OpenSSLEVPKDFDescription &gt; &gt; &gt;</text>
</g>
<!-- Node21 -->
<g id="Node000021" class="node">
<title>Node21</title>
<g id="a_Node000021"><a xlink:href="classpsr_1_1MaybeUniquePtr.html" target="_top" xlink:title=" ">
<polygon fill="white" stroke="#666666" points="802,-244.77 620,-244.77 620,-192.77 802,-192.77 802,-244.77"/>
<text text-anchor="start" x="628" y="-232.77" font-family="Helvetica,sans-Serif" font-size="10.00">psr::MaybeUniquePtr</text>
<text text-anchor="start" x="628" y="-221.77" font-family="Helvetica,sans-Serif" font-size="10.00">&lt; psr::AnalysisPrinterBase</text>
<text text-anchor="start" x="628" y="-210.77" font-family="Helvetica,sans-Serif" font-size="10.00">&lt; psr::IDESecureHeapPropagation</text>
<text text-anchor="middle" x="711" y="-199.77" font-family="Helvetica,sans-Serif" font-size="10.00">AnalysisDomain &gt; &gt;</text>
</a>
</g>
</g>
<!-- Node1&#45;&gt;Node21 -->
<g id="edge20_Node000001_Node000021" class="edge">
<title>Node1&#45;&gt;Node21</title>
<g id="a_edge20_Node000001_Node000021"><a xlink:title=" ">
<path fill="none" stroke="orange" stroke-dasharray="5,2" d="M284.64,-622.29C288.97,-538.41 307.45,-273.35 370,-221.77 406.72,-191.48 532.07,-198.16 619.84,-207.25"/>
<polygon fill="orange" stroke="orange" points="281.13,-622.29 284.14,-632.45 288.13,-622.64 281.13,-622.29"/>
</a>
</g>
<text text-anchor="start" x="392" y="-246.77" font-family="Helvetica,sans-Serif" font-size="10.00" fill="grey"> &lt; psr::AnalysisPrinterBase</text>
<text text-anchor="start" x="392" y="-235.77" font-family="Helvetica,sans-Serif" font-size="10.00" fill="grey">&lt; psr::IDESecureHeapPropagation</text>
<text text-anchor="middle" x="475" y="-224.77" font-family="Helvetica,sans-Serif" font-size="10.00" fill="grey">AnalysisDomain &gt; &gt;</text>
</g>
<!-- Node22 -->
<g id="Node000022" class="node">
<title>Node22</title>
<g id="a_Node000022"><a xlink:href="classpsr_1_1MaybeUniquePtr.html" target="_top" xlink:title=" ">
<polygon fill="white" stroke="#666666" points="782.5,-174.77 639.5,-174.77 639.5,-122.77 782.5,-122.77 782.5,-174.77"/>
<text text-anchor="start" x="647.5" y="-162.77" font-family="Helvetica,sans-Serif" font-size="10.00">psr::MaybeUniquePtr</text>
<text text-anchor="start" x="647.5" y="-151.77" font-family="Helvetica,sans-Serif" font-size="10.00">&lt; const CallGraph&lt; const</text>
<text text-anchor="start" x="647.5" y="-140.77" font-family="Helvetica,sans-Serif" font-size="10.00"> llvm::Instruction *, const</text>
<text text-anchor="middle" x="711" y="-129.77" font-family="Helvetica,sans-Serif" font-size="10.00"> llvm::Function * &gt; &gt;</text>
</a>
</g>
</g>
<!-- Node1&#45;&gt;Node22 -->
<g id="edge21_Node000001_Node000022" class="edge">
<title>Node1&#45;&gt;Node22</title>
<g id="a_edge21_Node000001_Node000022"><a xlink:title=" ">
<path fill="none" stroke="orange" stroke-dasharray="5,2" d="M284.03,-622.22C286.49,-531.06 299.95,-223.92 370,-162.77 443.43,-98.66 563.45,-111.37 639.49,-128.51"/>
<polygon fill="orange" stroke="orange" points="280.52,-622.38 283.77,-632.47 287.52,-622.56 280.52,-622.38"/>
</a>
</g>
<text text-anchor="start" x="403" y="-187.77" font-family="Helvetica,sans-Serif" font-size="10.00" fill="grey"> &lt; const CallGraph&lt;</text>
<text text-anchor="start" x="403" y="-176.77" font-family="Helvetica,sans-Serif" font-size="10.00" fill="grey"> const llvm::Instruction</text>
<text text-anchor="middle" x="475" y="-165.77" font-family="Helvetica,sans-Serif" font-size="10.00" fill="grey"> *, const llvm::Function * &gt; &gt;</text>
</g>
<!-- Node23 -->
<g id="Node000023" class="node">
<title>Node23</title>
<g id="a_Node000023"><a xlink:href="classpsr_1_1MaybeUniquePtr.html" target="_top" xlink:title=" ">
<polygon fill="white" stroke="#666666" points="770.5,-104.77 651.5,-104.77 651.5,-74.77 770.5,-74.77 770.5,-104.77"/>
<text text-anchor="start" x="659.5" y="-92.77" font-family="Helvetica,sans-Serif" font-size="10.00">psr::MaybeUniquePtr</text>
<text text-anchor="middle" x="711" y="-81.77" font-family="Helvetica,sans-Serif" font-size="10.00">&lt; psr::Resolver &gt;</text>
</a>
</g>
</g>
<!-- Node1&#45;&gt;Node23 -->
<g id="edge22_Node000001_Node000023" class="edge">
<title>Node1&#45;&gt;Node23</title>
<g id="a_edge22_Node000001_Node000023"><a xlink:title=" ">
<path fill="none" stroke="orange" stroke-dasharray="5,2" d="M283.43,-622.48C283.75,-524.23 290.47,-169.78 370,-99.77 410.34,-64.26 565.17,-74.18 651.31,-82.89"/>
<polygon fill="orange" stroke="orange" points="279.93,-622.67 283.42,-632.67 286.93,-622.67 279.93,-622.67"/>
</a>
</g>
<text text-anchor="middle" x="475" y="-102.77" font-family="Helvetica,sans-Serif" font-size="10.00" fill="grey"> &lt; psr::Resolver &gt;</text>
</g>
<!-- Node24 -->
<g id="Node000024" class="node">
<title>Node24</title>
<g id="a_Node000024"><a xlink:href="classpsr_1_1MaybeUniquePtr.html" target="_top" xlink:title=" ">
<polygon fill="white" stroke="#666666" points="788,-56.27 634,-56.27 634,-15.27 788,-15.27 788,-56.27"/>
<text text-anchor="start" x="642" y="-44.27" font-family="Helvetica,sans-Serif" font-size="10.00">psr::MaybeUniquePtr</text>
<text text-anchor="start" x="642" y="-33.27" font-family="Helvetica,sans-Serif" font-size="10.00">&lt; psr::LLVMPathConstraints,</text>
<text text-anchor="middle" x="711" y="-22.27" font-family="Helvetica,sans-Serif" font-size="10.00"> true &gt;</text>
</a>
</g>
</g>
<!-- Node1&#45;&gt;Node24 -->
<g id="edge23_Node000001_Node000024" class="edge">
<title>Node1&#45;&gt;Node24</title>
<g id="a_edge23_Node000001_Node000024"><a xlink:title=" ">
<path fill="none" stroke="orange" stroke-dasharray="5,2" d="M283.08,-622.55C281.93,-518.79 283.44,-126.67 370,-48.77 443,16.93 564.57,2.78 640.85,-15.21"/>
<polygon fill="orange" stroke="orange" points="279.58,-622.76 283.21,-632.71 286.58,-622.66 279.58,-622.76"/>
</a>
</g>
<text text-anchor="start" x="404.5" y="-62.77" font-family="Helvetica,sans-Serif" font-size="10.00" fill="grey"> &lt; psr::LLVMPathConstraints,</text>
<text text-anchor="middle" x="475" y="-51.77" font-family="Helvetica,sans-Serif" font-size="10.00" fill="grey"> true &gt;</text>
</g>
<!-- Node2 -->
<g id="Node000002" class="node">
<title>Node2</title>
<g id="a_Node000002"><a xlink:title=" ">
<polygon fill="white" stroke="#666666" points="176,-662.77 0,-662.77 0,-632.77 176,-632.77 176,-662.77"/>
<text text-anchor="start" x="8" y="-650.77" font-family="Helvetica,sans-Serif" font-size="10.00">psr::detail::MaybeUnique</text>
<text text-anchor="middle" x="88" y="-639.77" font-family="Helvetica,sans-Serif" font-size="10.00">PtrBase&lt; T, RequireAlignment &gt;</text>
</a>
</g>
</g>
<!-- Node2&#45;&gt;Node1 -->
<g id="edge1_Node000001_Node000002" class="edge">
<title>Node2&#45;&gt;Node1</title>
<g id="a_edge1_Node000001_Node000002"><a xlink:title=" ">
<path fill="none" stroke="#8b1a1a" d="M186.3,-647.77C195.23,-647.77 204.14,-647.77 212.73,-647.77"/>
<polygon fill="#8b1a1a" stroke="#8b1a1a" points="186.24,-644.27 176.24,-647.77 186.24,-651.27 186.24,-644.27"/>
</a>
</g>
</g>
</g>
</svg>
