<?xml version="1.0" encoding="UTF-8" standalone="no"?>
<!DOCTYPE svg PUBLIC "-//W3C//DTD SVG 1.1//EN"
 "http://www.w3.org/Graphics/SVG/1.1/DTD/svg11.dtd">
<!-- Generated by graphviz version 2.43.0 (0)
 -->
<!-- Title: psr::MaybeUniquePtr&lt; T, RequireAlignment &gt; Pages: 1 -->
<svg width="731pt" height="431pt"
 viewBox="0.00 0.00 731.00 430.50" xmlns="http://www.w3.org/2000/svg" xmlns:xlink="http://www.w3.org/1999/xlink">
<g id="graph0" class="graph" transform="scale(1 1) rotate(0) translate(4 426.5)">
<title>psr::MaybeUniquePtr&lt; T, RequireAlignment &gt;</title>
<!-- Node1 -->
<g id="Node000001" class="node">
<title>Node1</title>
<g id="a_Node000001"><a xlink:title=" ">
<polygon fill="#999999" stroke="#666666" points="352,-231.5 213,-231.5 213,-201.5 352,-201.5 352,-231.5"/>
<text text-anchor="start" x="221" y="-219.5" font-family="Helvetica,sans-Serif" font-size="10.00">psr::MaybeUniquePtr</text>
<text text-anchor="middle" x="282.5" y="-208.5" font-family="Helvetica,sans-Serif" font-size="10.00">&lt; T, RequireAlignment &gt;</text>
</a>
</g>
</g>
<!-- Node3 -->
<g id="Node000003" class="node">
<title>Node3</title>
<g id="a_Node000003"><a xlink:href="classpsr_1_1MaybeUniquePtr.html" target="_top" xlink:title=" ">
<polygon fill="white" stroke="#666666" points="700.5,-422 554.5,-422 554.5,-381 700.5,-381 700.5,-422"/>
<text text-anchor="start" x="562.5" y="-410" font-family="Helvetica,sans-Serif" font-size="10.00">psr::MaybeUniquePtr</text>
<text text-anchor="start" x="562.5" y="-399" font-family="Helvetica,sans-Serif" font-size="10.00">&lt; psr::AnalysisPrinterBase</text>
<text text-anchor="middle" x="627.5" y="-388" font-family="Helvetica,sans-Serif" font-size="10.00">&lt; AnalysisDomainTy &gt; &gt;</text>
</a>
</g>
</g>
<!-- Node1&#45;&gt;Node3 -->
<g id="edge2_Node000001_Node000003" class="edge">
<title>Node1&#45;&gt;Node3</title>
<g id="a_edge2_Node000001_Node000003"><a xlink:title=" ">
<path fill="none" stroke="orange" stroke-dasharray="5,2" d="M291.56,-241.22C303.37,-273.3 328.6,-328.45 370,-356.5 424.27,-393.27 499.35,-402.83 554.26,-404.2"/>
<polygon fill="orange" stroke="orange" points="294.82,-239.95 288.19,-231.69 288.22,-242.28 294.82,-239.95"/>
</a>
</g>
<text text-anchor="start" x="375.5" y="-414.5" font-family="Helvetica,sans-Serif" font-size="10.00" fill="grey"> &lt; psr::AnalysisPrinterBase</text>
<text text-anchor="middle" x="442" y="-403.5" font-family="Helvetica,sans-Serif" font-size="10.00" fill="grey">&lt; AnalysisDomainTy &gt; &gt;</text>
</g>
<!-- Node4 -->
<g id="Node000004" class="node">
<title>Node4</title>
<g id="a_Node000004"><a xlink:href="classpsr_1_1MaybeUniquePtr.html" target="_top" xlink:title=" ">
<polygon fill="white" stroke="#666666" points="723,-363 532,-363 532,-322 723,-322 723,-363"/>
<text text-anchor="start" x="540" y="-351" font-family="Helvetica,sans-Serif" font-size="10.00">psr::MaybeUniquePtr</text>
<text text-anchor="start" x="540" y="-340" font-family="Helvetica,sans-Serif" font-size="10.00">&lt; const psr::DIBasedTypeHierarchy,</text>
<text text-anchor="middle" x="627.5" y="-329" font-family="Helvetica,sans-Serif" font-size="10.00"> true &gt;</text>
</a>
</g>
</g>
<!-- Node1&#45;&gt;Node4 -->
<g id="edge3_Node000001_Node000004" class="edge">
<title>Node1&#45;&gt;Node4</title>
<g id="a_edge3_Node000001_Node000004"><a xlink:title=" ">
<path fill="none" stroke="orange" stroke-dasharray="5,2" d="M304.6,-239.2C320.92,-255.39 344.91,-276.36 370,-288.5 420.48,-312.94 481.81,-326.36 531.84,-333.71"/>
<polygon fill="orange" stroke="orange" points="306.74,-236.38 297.23,-231.7 301.74,-241.29 306.74,-236.38"/>
</a>
</g>
<text text-anchor="start" x="378" y="-344.5" font-family="Helvetica,sans-Serif" font-size="10.00" fill="grey"> &lt; const psr::DIBasedType</text>
<text text-anchor="middle" x="442" y="-333.5" font-family="Helvetica,sans-Serif" font-size="10.00" fill="grey">Hierarchy, true &gt;</text>
</g>
<!-- Node5 -->
<g id="Node000005" class="node">
<title>Node5</title>
<g id="a_Node000005"><a xlink:href="classpsr_1_1MaybeUniquePtr.html" target="_top" xlink:title=" ">
<polygon fill="white" stroke="#666666" points="687,-303.5 568,-303.5 568,-273.5 687,-273.5 687,-303.5"/>
<text text-anchor="start" x="576" y="-291.5" font-family="Helvetica,sans-Serif" font-size="10.00">psr::MaybeUniquePtr</text>
<text text-anchor="middle" x="627.5" y="-280.5" font-family="Helvetica,sans-Serif" font-size="10.00">&lt; z3::context &gt;</text>
</a>
</g>
</g>
<!-- Node1&#45;&gt;Node5 -->
<g id="edge4_Node000001_Node000005" class="edge">
<title>Node1&#45;&gt;Node5</title>
<g id="a_edge4_Node000001_Node000005"><a xlink:title=" ">
<path fill="none" stroke="orange" stroke-dasharray="5,2" d="M330.38,-235.09C343.09,-239.63 356.95,-244.15 370,-247.5 436.83,-264.66 515.4,-275.95 567.8,-282.26"/>
<polygon fill="orange" stroke="orange" points="331.51,-231.78 320.92,-231.63 329.11,-238.35 331.51,-231.78"/>
</a>
</g>
<text text-anchor="middle" x="442" y="-276.5" font-family="Helvetica,sans-Serif" font-size="10.00" fill="grey"> &lt; z3::context &gt;</text>
</g>
<!-- Node6 -->
<g id="Node000006" class="node">
<title>Node6</title>
<g id="a_Node000006"><a xlink:href="classpsr_1_1MaybeUniquePtr.html" target="_top" xlink:title=" ">
<polygon fill="white" stroke="#666666" points="687,-255.5 568,-255.5 568,-225.5 687,-225.5 687,-255.5"/>
<text text-anchor="start" x="576" y="-243.5" font-family="Helvetica,sans-Serif" font-size="10.00">psr::MaybeUniquePtr</text>
<text text-anchor="middle" x="627.5" y="-232.5" font-family="Helvetica,sans-Serif" font-size="10.00">&lt; llvm::Module &gt;</text>
</a>
</g>
</g>
<!-- Node1&#45;&gt;Node6 -->
<g id="edge5_Node000001_Node000006" class="edge">
<title>Node1&#45;&gt;Node6</title>
<g id="a_edge5_Node000001_Node000006"><a xlink:title=" ">
<path fill="none" stroke="orange" stroke-dasharray="5,2" d="M362.31,-222.01C424.92,-226.4 511.07,-232.42 567.74,-236.39"/>
<polygon fill="orange" stroke="orange" points="362.31,-218.51 352.09,-221.3 361.82,-225.49 362.31,-218.51"/>
</a>
</g>
<text text-anchor="middle" x="442" y="-235.5" font-family="Helvetica,sans-Serif" font-size="10.00" fill="grey"> &lt; llvm::Module &gt;</text>
</g>
<!-- Node7 -->
<g id="Node000007" class="node">
<title>Node7</title>
<g id="a_Node000007"><a xlink:href="classpsr_1_1MaybeUniquePtr.html" target="_top" xlink:title=" ">
<polygon fill="white" stroke="#666666" points="693,-207.5 562,-207.5 562,-177.5 693,-177.5 693,-207.5"/>
<text text-anchor="start" x="570" y="-195.5" font-family="Helvetica,sans-Serif" font-size="10.00">psr::MaybeUniquePtr</text>
<text text-anchor="middle" x="627.5" y="-184.5" font-family="Helvetica,sans-Serif" font-size="10.00">&lt; llvm::raw_ostream &gt;</text>
</a>
</g>
</g>
<!-- Node1&#45;&gt;Node7 -->
<g id="edge6_Node000001_Node000007" class="edge">
<title>Node1&#45;&gt;Node7</title>
<g id="a_edge6_Node000001_Node000007"><a xlink:title=" ">
<path fill="none" stroke="orange" stroke-dasharray="5,2" d="M362.4,-209.1C364.96,-208.9 367.5,-208.69 370,-208.5 435.28,-203.45 510.01,-198.93 561.9,-195.99"/>
<polygon fill="orange" stroke="orange" points="362.09,-205.62 352.42,-209.94 362.67,-212.59 362.09,-205.62"/>
</a>
</g>
<text text-anchor="middle" x="442" y="-211.5" font-family="Helvetica,sans-Serif" font-size="10.00" fill="grey"> &lt; llvm::raw_ostream &gt;</text>
</g>
<!-- Node8 -->
<g id="Node000008" class="node">
<title>Node8</title>
<g id="a_Node000008"><a xlink:href="classpsr_1_1MaybeUniquePtr.html" target="_top" xlink:title=" ">
<polygon fill="white" stroke="#666666" points="699,-159.5 556,-159.5 556,-107.5 699,-107.5 699,-159.5"/>
<text text-anchor="start" x="564" y="-147.5" font-family="Helvetica,sans-Serif" font-size="10.00">psr::MaybeUniquePtr</text>
<text text-anchor="start" x="564" y="-136.5" font-family="Helvetica,sans-Serif" font-size="10.00">&lt; const CallGraph&lt; const</text>
<text text-anchor="start" x="564" y="-125.5" font-family="Helvetica,sans-Serif" font-size="10.00"> llvm::Instruction *, const</text>
<text text-anchor="middle" x="627.5" y="-114.5" font-family="Helvetica,sans-Serif" font-size="10.00"> llvm::Function * &gt; &gt;</text>
</a>
</g>
</g>
<!-- Node1&#45;&gt;Node8 -->
<g id="edge7_Node000001_Node000008" class="edge">
<title>Node1&#45;&gt;Node8</title>
<g id="a_edge7_Node000001_Node000008"><a xlink:title=" ">
<path fill="none" stroke="orange" stroke-dasharray="5,2" d="M310.61,-195.16C326.89,-183.51 348.56,-169.97 370,-162.5 430.41,-141.45 503.2,-134.86 555.79,-133.14"/>
<polygon fill="orange" stroke="orange" points="308.12,-192.64 302.15,-201.39 312.28,-198.28 308.12,-192.64"/>
</a>
</g>
<text text-anchor="start" x="370" y="-187.5" font-family="Helvetica,sans-Serif" font-size="10.00" fill="grey"> &lt; const CallGraph&lt;</text>
<text text-anchor="start" x="370" y="-176.5" font-family="Helvetica,sans-Serif" font-size="10.00" fill="grey"> const llvm::Instruction</text>
<text text-anchor="middle" x="442" y="-165.5" font-family="Helvetica,sans-Serif" font-size="10.00" fill="grey"> *, const llvm::Function * &gt; &gt;</text>
</g>
<!-- Node9 -->
<g id="Node000009" class="node">
<title>Node9</title>
<g id="a_Node000009"><a xlink:href="classpsr_1_1MaybeUniquePtr.html" target="_top" xlink:title=" ">
<polygon fill="white" stroke="#666666" points="687,-89.5 568,-89.5 568,-59.5 687,-59.5 687,-89.5"/>
<text text-anchor="start" x="576" y="-77.5" font-family="Helvetica,sans-Serif" font-size="10.00">psr::MaybeUniquePtr</text>
<text text-anchor="middle" x="627.5" y="-66.5" font-family="Helvetica,sans-Serif" font-size="10.00">&lt; psr::Resolver &gt;</text>
</a>
</g>
</g>
<!-- Node1&#45;&gt;Node9 -->
<g id="edge8_Node000001_Node000009" class="edge">
<title>Node1&#45;&gt;Node9</title>
<g id="a_edge8_Node000001_Node000009"><a xlink:title=" ">
<path fill="none" stroke="orange" stroke-dasharray="5,2" d="M298.15,-192.72C313.27,-170.34 338.98,-137.75 370,-120.5 431.68,-86.2 513.44,-76.63 567.9,-74.37"/>
<polygon fill="orange" stroke="orange" points="295.06,-191.05 292.51,-201.33 300.92,-194.88 295.06,-191.05"/>
</a>
</g>
<text text-anchor="middle" x="442" y="-123.5" font-family="Helvetica,sans-Serif" font-size="10.00" fill="grey"> &lt; psr::Resolver &gt;</text>
</g>
<!-- Node10 -->
<g id="Node000010" class="node">
<title>Node10</title>
<g id="a_Node000010"><a xlink:href="classpsr_1_1MaybeUniquePtr.html" target="_top" xlink:title=" ">
<polygon fill="white" stroke="#666666" points="704.5,-41 550.5,-41 550.5,0 704.5,0 704.5,-41"/>
<text text-anchor="start" x="558.5" y="-29" font-family="Helvetica,sans-Serif" font-size="10.00">psr::MaybeUniquePtr</text>
<text text-anchor="start" x="558.5" y="-18" font-family="Helvetica,sans-Serif" font-size="10.00">&lt; psr::LLVMPathConstraints,</text>
<text text-anchor="middle" x="627.5" y="-7" font-family="Helvetica,sans-Serif" font-size="10.00"> true &gt;</text>
</a>
</g>
</g>
<!-- Node1&#45;&gt;Node10 -->
<g id="edge9_Node000001_Node000010" class="edge">
<title>Node1&#45;&gt;Node10</title>
<g id="a_edge9_Node000001_Node000010"><a xlink:title=" ">
<path fill="none" stroke="orange" stroke-dasharray="5,2" d="M289.13,-191.3C298.79,-154.41 322.29,-86.52 370,-53.5 422.42,-17.22 495.61,-11.03 550.39,-12.72"/>
<polygon fill="orange" stroke="orange" points="285.67,-190.7 286.66,-201.25 292.46,-192.39 285.67,-190.7"/>
</a>
</g>
<text text-anchor="start" x="371.5" y="-67.5" font-family="Helvetica,sans-Serif" font-size="10.00" fill="grey"> &lt; psr::LLVMPathConstraints,</text>
<text text-anchor="middle" x="442" y="-56.5" font-family="Helvetica,sans-Serif" font-size="10.00" fill="grey"> true &gt;</text>
</g>
<!-- Node2 -->
<g id="Node000002" class="node">
<title>Node2</title>
<g id="a_Node000002"><a xlink:title=" ">
<polygon fill="white" stroke="#666666" points="176,-231.5 0,-231.5 0,-201.5 176,-201.5 176,-231.5"/>
<text text-anchor="start" x="8" y="-219.5" font-family="Helvetica,sans-Serif" font-size="10.00">psr::detail::MaybeUnique</text>
<text text-anchor="middle" x="88" y="-208.5" font-family="Helvetica,sans-Serif" font-size="10.00">PtrBase&lt; T, RequireAlignment &gt;</text>
</a>
</g>
</g>
<!-- Node2&#45;&gt;Node1 -->
<g id="edge1_Node000001_Node000002" class="edge">
<title>Node2&#45;&gt;Node1</title>
<g id="a_edge1_Node000001_Node000002"><a xlink:title=" ">
<path fill="none" stroke="#8b1a1a" d="M186.3,-216.5C195.23,-216.5 204.14,-216.5 212.73,-216.5"/>
<polygon fill="#8b1a1a" stroke="#8b1a1a" points="186.24,-213 176.24,-216.5 186.24,-220 186.24,-213"/>
</a>
</g>
</g>
</g>
</svg>
