<?xml version="1.0" encoding="UTF-8" standalone="no"?>
<!DOCTYPE svg PUBLIC "-//W3C//DTD SVG 1.1//EN"
 "http://www.w3.org/Graphics/SVG/1.1/DTD/svg11.dtd">
<!-- Generated by graphviz version 2.43.0 (0)
 -->
<!-- Title: psr::LLVMBasedBackwardICFG Pages: 1 -->
<svg width="1451pt" height="141pt"
 viewBox="0.00 0.00 1451.00 141.00" xmlns="http://www.w3.org/2000/svg" xmlns:xlink="http://www.w3.org/1999/xlink">
<g id="graph0" class="graph" transform="scale(1 1) rotate(0) translate(4 137)">
<title>psr::LLVMBasedBackwardICFG</title>
<!-- Node1 -->
<g id="Node000001" class="node">
<title>Node1</title>
<g id="a_Node000001"><a xlink:title="A class that represents a backwards interprocedural control flow graph. Conforms to the ICFGBase CRTP...">
<polygon fill="#999999" stroke="#666666" points="1443,-58 1279,-58 1279,-39 1443,-39 1443,-58"/>
<text text-anchor="middle" x="1361" y="-46" font-family="Helvetica,sans-Serif" font-size="10.00">psr::LLVMBasedBackwardICFG</text>
</a>
</g>
</g>
<!-- Node2 -->
<g id="Node000002" class="node">
<title>Node2</title>
<g id="a_Node000002"><a xlink:href="classpsr_1_1LLVMBasedBackwardCFG.html" target="_top" xlink:title="A class that represents a backwards control flow graph. Conforms to the CFGBase CRTP interface.">
<polygon fill="white" stroke="#666666" points="1242,-86 1081,-86 1081,-67 1242,-67 1242,-86"/>
<text text-anchor="middle" x="1161.5" y="-74" font-family="Helvetica,sans-Serif" font-size="10.00">psr::LLVMBasedBackwardCFG</text>
</a>
</g>
</g>
<!-- Node2&#45;&gt;Node1 -->
<g id="edge1_Node000001_Node000002" class="edge">
<title>Node2&#45;&gt;Node1</title>
<g id="a_edge1_Node000001_Node000002"><a xlink:title=" ">
<path fill="none" stroke="#63b8ff" d="M1239.8,-65.54C1257.27,-63.06 1275.69,-60.45 1292.71,-58.04"/>
<polygon fill="#63b8ff" stroke="#63b8ff" points="1239.05,-62.11 1229.64,-66.98 1240.03,-69.04 1239.05,-62.11"/>
</a>
</g>
</g>
<!-- Node3 -->
<g id="Node000003" class="node">
<title>Node3</title>
<g id="a_Node000003"><a xlink:title=" ">
<polygon fill="white" stroke="#666666" points="1044,-96.5 875,-96.5 875,-66.5 1044,-66.5 1044,-96.5"/>
<text text-anchor="start" x="883" y="-84.5" font-family="Helvetica,sans-Serif" font-size="10.00">psr::detail::LLVMBasedCFGImpl</text>
<text text-anchor="middle" x="959.5" y="-73.5" font-family="Helvetica,sans-Serif" font-size="10.00">&lt; LLVMBasedBackwardCFG &gt;</text>
</a>
</g>
</g>
<!-- Node3&#45;&gt;Node2 -->
<g id="edge2_Node000002_Node000003" class="edge">
<title>Node3&#45;&gt;Node2</title>
<g id="a_edge2_Node000002_Node000003"><a xlink:title=" ">
<path fill="none" stroke="#63b8ff" d="M1054.43,-79.15C1063.21,-78.93 1072.06,-78.71 1080.7,-78.5"/>
<polygon fill="#63b8ff" stroke="#63b8ff" points="1054.07,-75.66 1044.16,-79.41 1054.24,-82.66 1054.07,-75.66"/>
</a>
</g>
</g>
<!-- Node4 -->
<g id="Node000004" class="node">
<title>Node4</title>
<g id="a_Node000004"><a xlink:href="classpsr_1_1CFGBase.html" target="_top" xlink:title=" ">
<polygon fill="white" stroke="#666666" points="497,-133 354,-133 354,-114 497,-114 497,-133"/>
<text text-anchor="middle" x="425.5" y="-121" font-family="Helvetica,sans-Serif" font-size="10.00">psr::CFGBase&lt; Derived &gt;</text>
</a>
</g>
</g>
<!-- Node4&#45;&gt;Node3 -->
<g id="edge3_Node000003_Node000004" class="edge">
<title>Node4&#45;&gt;Node3</title>
<g id="a_edge3_Node000003_Node000004"><a xlink:title=" ">
<path fill="none" stroke="#63b8ff" d="M507.15,-120.47C593.77,-116.74 735.39,-109.28 857,-96.5 862.85,-95.89 868.87,-95.18 874.93,-94.42"/>
<polygon fill="#63b8ff" stroke="#63b8ff" points="506.96,-116.97 497.12,-120.89 507.26,-123.97 506.96,-116.97"/>
</a>
</g>
</g>
<!-- Node5 -->
<g id="Node000005" class="node">
<title>Node5</title>
<g id="a_Node000005"><a xlink:href="classpsr_1_1CRTPBase.html" target="_top" xlink:title=" ">
<polygon fill="white" stroke="#666666" points="147,-93 0,-93 0,-74 147,-74 147,-93"/>
<text text-anchor="middle" x="73.5" y="-81" font-family="Helvetica,sans-Serif" font-size="10.00">psr::CRTPBase&lt; Derived &gt;</text>
</a>
</g>
</g>
<!-- Node5&#45;&gt;Node4 -->
<g id="edge4_Node000004_Node000005" class="edge">
<title>Node5&#45;&gt;Node4</title>
<g id="a_edge4_Node000004_Node000005"><a xlink:title=" ">
<path fill="none" stroke="#63b8ff" d="M134.1,-94.78C150.25,-97.58 167.76,-100.39 184,-102.5 240.94,-109.91 305.81,-115.41 353.82,-118.91"/>
<polygon fill="#63b8ff" stroke="#63b8ff" points="134.7,-91.34 124.24,-93.05 133.48,-98.23 134.7,-91.34"/>
</a>
</g>
</g>
<!-- Node7 -->
<g id="Node000007" class="node">
<title>Node7</title>
<g id="a_Node000007"><a xlink:href="classpsr_1_1CFGBase.html" target="_top" xlink:title=" ">
<polygon fill="white" stroke="#666666" points="329,-93 186,-93 186,-74 329,-74 329,-93"/>
<text text-anchor="middle" x="257.5" y="-81" font-family="Helvetica,sans-Serif" font-size="10.00">psr::CFGBase&lt; Derived &gt;</text>
</a>
</g>
</g>
<!-- Node5&#45;&gt;Node7 -->
<g id="edge7_Node000007_Node000005" class="edge">
<title>Node5&#45;&gt;Node7</title>
<g id="a_edge7_Node000007_Node000005"><a xlink:title=" ">
<path fill="none" stroke="#63b8ff" d="M157.48,-83.5C167,-83.5 176.64,-83.5 185.97,-83.5"/>
<polygon fill="#63b8ff" stroke="#63b8ff" points="157.22,-80 147.22,-83.5 157.22,-87 157.22,-80"/>
</a>
</g>
</g>
<!-- Node10 -->
<g id="Node000010" class="node">
<title>Node10</title>
<g id="a_Node000010"><a xlink:href="classpsr_1_1ICFGBase.html" target="_top" xlink:title=" ">
<polygon fill="white" stroke="#666666" points="330.5,-56 184.5,-56 184.5,-37 330.5,-37 330.5,-56"/>
<text text-anchor="middle" x="257.5" y="-44" font-family="Helvetica,sans-Serif" font-size="10.00">psr::ICFGBase&lt; Derived &gt;</text>
</a>
</g>
</g>
<!-- Node5&#45;&gt;Node10 -->
<g id="edge11_Node000010_Node000005" class="edge">
<title>Node5&#45;&gt;Node10</title>
<g id="a_edge11_Node000010_Node000005"><a xlink:title=" ">
<path fill="none" stroke="#63b8ff" d="M131.48,-71.92C156.56,-66.82 185.66,-60.9 209.47,-56.06"/>
<polygon fill="#63b8ff" stroke="#63b8ff" points="130.47,-68.55 121.37,-73.97 131.87,-75.41 130.47,-68.55"/>
</a>
</g>
</g>
<!-- Node6 -->
<g id="Node000006" class="node">
<title>Node6</title>
<g id="a_Node000006"><a xlink:title=" ">
<polygon fill="white" stroke="#666666" points="689,-96.5 520,-96.5 520,-66.5 689,-66.5 689,-96.5"/>
<text text-anchor="start" x="528" y="-84.5" font-family="Helvetica,sans-Serif" font-size="10.00">psr::detail::LLVMBasedCFGImpl</text>
<text text-anchor="middle" x="604.5" y="-73.5" font-family="Helvetica,sans-Serif" font-size="10.00">&lt; Derived &gt;</text>
</a>
</g>
</g>
<!-- Node6&#45;&gt;Node3 -->
<g id="edge5_Node000003_Node000006" class="edge">
<title>Node6&#45;&gt;Node3</title>
<g id="a_edge5_Node000003_Node000006"><a xlink:title=" ">
<path fill="none" stroke="orange" stroke-dasharray="5,2" d="M699.18,-81.5C753.78,-81.5 822.05,-81.5 874.83,-81.5"/>
<polygon fill="orange" stroke="orange" points="699.16,-78 689.16,-81.5 699.16,-85 699.16,-78"/>
</a>
</g>
<text text-anchor="middle" x="782" y="-84.5" font-family="Helvetica,sans-Serif" font-size="10.00" fill="grey"> &lt; LLVMBasedBackwardCFG &gt;</text>
</g>
<!-- Node7&#45;&gt;Node6 -->
<g id="edge6_Node000006_Node000007" class="edge">
<title>Node7&#45;&gt;Node6</title>
<g id="a_edge6_Node000006_Node000007"><a xlink:title=" ">
<path fill="none" stroke="#63b8ff" d="M339.42,-83.03C393.71,-82.72 465.03,-82.3 519.87,-81.98"/>
<polygon fill="#63b8ff" stroke="#63b8ff" points="339.13,-79.53 329.15,-83.09 339.17,-86.53 339.13,-79.53"/>
</a>
</g>
</g>
<!-- Node8 -->
<g id="Node000008" class="node">
<title>Node8</title>
<g id="a_Node000008"><a xlink:href="classpsr_1_1ICFGBase.html" target="_top" xlink:title=" ">
<polygon fill="white" stroke="#666666" points="680.5,-48.5 528.5,-48.5 528.5,-18.5 680.5,-18.5 680.5,-48.5"/>
<text text-anchor="start" x="536.5" y="-36.5" font-family="Helvetica,sans-Serif" font-size="10.00">psr::ICFGBase&lt; LLVMBased</text>
<text text-anchor="middle" x="604.5" y="-25.5" font-family="Helvetica,sans-Serif" font-size="10.00">BackwardICFG &gt;</text>
</a>
</g>
</g>
<!-- Node8&#45;&gt;Node1 -->
<g id="edge8_Node000001_Node000008" class="edge">
<title>Node8&#45;&gt;Node1</title>
<g id="a_edge8_Node000001_Node000008"><a xlink:title=" ">
<path fill="none" stroke="#63b8ff" d="M690.9,-35.2C837.56,-38.11 1135.35,-44.03 1278.96,-46.89"/>
<polygon fill="#63b8ff" stroke="#63b8ff" points="690.67,-31.69 680.6,-34.99 690.53,-38.69 690.67,-31.69"/>
</a>
</g>
</g>
<!-- Node9 -->
<g id="Node000009" class="node">
<title>Node9</title>
<g id="a_Node000009"><a xlink:href="classpsr_1_1CRTPBase.html" target="_top" xlink:title=" ">
<polygon fill="white" stroke="#666666" points="331,-19 184,-19 184,0 331,0 331,-19"/>
<text text-anchor="middle" x="257.5" y="-7" font-family="Helvetica,sans-Serif" font-size="10.00">psr::CRTPBase&lt; Derived &gt;</text>
</a>
</g>
</g>
<!-- Node9&#45;&gt;Node8 -->
<g id="edge9_Node000008_Node000009" class="edge">
<title>Node9&#45;&gt;Node8</title>
<g id="a_edge9_Node000008_Node000009"><a xlink:title=" ">
<path fill="none" stroke="#63b8ff" d="M341.3,-15.26C398.25,-19.22 473.27,-24.44 528.47,-28.28"/>
<polygon fill="#63b8ff" stroke="#63b8ff" points="341.46,-11.76 331.24,-14.56 340.98,-18.75 341.46,-11.76"/>
</a>
</g>
</g>
<!-- Node10&#45;&gt;Node8 -->
<g id="edge10_Node000008_Node000010" class="edge">
<title>Node10&#45;&gt;Node8</title>
<g id="a_edge10_Node000008_Node000010"><a xlink:title=" ">
<path fill="none" stroke="orange" stroke-dasharray="5,2" d="M340.87,-43.4C397.81,-41.25 472.97,-38.42 528.29,-36.33"/>
<polygon fill="orange" stroke="orange" points="340.68,-39.9 330.82,-43.77 340.95,-46.9 340.68,-39.9"/>
</a>
</g>
<text text-anchor="middle" x="425.5" y="-45.5" font-family="Helvetica,sans-Serif" font-size="10.00" fill="grey"> &lt; LLVMBasedBackwardICFG &gt;</text>
</g>
</g>
</svg>
