<?xml version="1.0" encoding="UTF-8" standalone="no"?>
<!DOCTYPE svg PUBLIC "-//W3C//DTD SVG 1.1//EN"
 "http://www.w3.org/Graphics/SVG/1.1/DTD/svg11.dtd">
<!-- Generated by graphviz version 2.43.0 (0)
 -->
<!-- Title: psr::TypedVector&lt; IdT, ValueT, SmallSize &gt; Pages: 1 -->
<svg width="526pt" height="738pt"
 viewBox="0.00 0.00 526.00 737.84" xmlns="http://www.w3.org/2000/svg" xmlns:xlink="http://www.w3.org/1999/xlink">
<g id="graph0" class="graph" transform="scale(1 1) rotate(0) translate(4 733.84)">
<title>psr::TypedVector&lt; IdT, ValueT, SmallSize &gt;</title>
<!-- Node1 -->
<g id="Node000001" class="node">
<title>Node1</title>
<g id="a_Node000001"><a xlink:title=" ">
<polygon fill="#999999" stroke="#666666" points="126,-400.84 0,-400.84 0,-370.84 126,-370.84 126,-400.84"/>
<text text-anchor="start" x="8" y="-388.84" font-family="Helvetica,sans-Serif" font-size="10.00">psr::TypedVector&lt; IdT,</text>
<text text-anchor="middle" x="63" y="-377.84" font-family="Helvetica,sans-Serif" font-size="10.00"> ValueT, SmallSize &gt;</text>
</a>
</g>
</g>
<!-- Node2 -->
<g id="Node000002" class="node">
<title>Node2</title>
<g id="a_Node000002"><a xlink:href="classpsr_1_1TypedVector.html" target="_top" xlink:title=" ">
<polygon fill="white" stroke="#666666" points="494.5,-715.84 355.5,-715.84 355.5,-685.84 494.5,-685.84 494.5,-715.84"/>
<text text-anchor="start" x="363.5" y="-703.84" font-family="Helvetica,sans-Serif" font-size="10.00">psr::TypedVector&lt; uint32</text>
<text text-anchor="middle" x="425" y="-692.84" font-family="Helvetica,sans-Serif" font-size="10.00">_t, T, 0 &gt;</text>
</a>
</g>
</g>
<!-- Node1&#45;&gt;Node2 -->
<g id="edge1_Node000001_Node000002" class="edge">
<title>Node1&#45;&gt;Node2</title>
<g id="a_edge1_Node000001_Node000002"><a xlink:title=" ">
<path fill="none" stroke="orange" stroke-dasharray="5,2" d="M67.29,-411.13C76.17,-475.23 102.77,-641.44 144,-675.84 202.27,-724.46 293.06,-723.23 355.37,-714.78"/>
<polygon fill="orange" stroke="orange" points="70.74,-410.51 65.92,-401.07 63.8,-411.45 70.74,-410.51"/>
</a>
</g>
<text text-anchor="middle" x="229" y="-721.84" font-family="Helvetica,sans-Serif" font-size="10.00" fill="grey"> &lt; uint32_t, T, 0 &gt;</text>
</g>
<!-- Node3 -->
<g id="Node000003" class="node">
<title>Node3</title>
<g id="a_Node000003"><a xlink:href="classpsr_1_1TypedVector.html" target="_top" xlink:title=" ">
<polygon fill="white" stroke="#666666" points="494.5,-667.34 355.5,-667.34 355.5,-626.34 494.5,-626.34 494.5,-667.34"/>
<text text-anchor="start" x="363.5" y="-655.34" font-family="Helvetica,sans-Serif" font-size="10.00">psr::TypedVector&lt; uint32</text>
<text text-anchor="start" x="363.5" y="-644.34" font-family="Helvetica,sans-Serif" font-size="10.00">_t, llvm::SmallVector&lt;</text>
<text text-anchor="middle" x="425" y="-633.34" font-family="Helvetica,sans-Serif" font-size="10.00"> uint32_t, 2 &gt;, 0 &gt;</text>
</a>
</g>
</g>
<!-- Node1&#45;&gt;Node3 -->
<g id="edge2_Node000001_Node000003" class="edge">
<title>Node1&#45;&gt;Node3</title>
<g id="a_edge2_Node000001_Node000003"><a xlink:title=" ">
<path fill="none" stroke="orange" stroke-dasharray="5,2" d="M64.01,-411.31C65.56,-461.4 76.84,-572.38 144,-624.84 175.75,-649.64 283.18,-651.59 355.36,-649.85"/>
<polygon fill="orange" stroke="orange" points="67.51,-410.97 63.81,-401.04 60.51,-411.11 67.51,-410.97"/>
</a>
</g>
<text text-anchor="start" x="155.5" y="-663.84" font-family="Helvetica,sans-Serif" font-size="10.00" fill="grey"> &lt; uint32_t, llvm::SmallVector</text>
<text text-anchor="middle" x="229" y="-652.84" font-family="Helvetica,sans-Serif" font-size="10.00" fill="grey">&lt; uint32_t, 2 &gt;, 0 &gt;</text>
</g>
<!-- Node4 -->
<g id="Node000004" class="node">
<title>Node4</title>
<g id="a_Node000004"><a xlink:href="classpsr_1_1TypedVector.html" target="_top" xlink:title=" ">
<polygon fill="white" stroke="#666666" points="502.5,-608.34 347.5,-608.34 347.5,-567.34 502.5,-567.34 502.5,-608.34"/>
<text text-anchor="start" x="355.5" y="-596.34" font-family="Helvetica,sans-Serif" font-size="10.00">psr::TypedVector&lt; VtxId,</text>
<text text-anchor="start" x="355.5" y="-585.34" font-family="Helvetica,sans-Serif" font-size="10.00"> llvm::SmallVector&lt; EdgeTy,</text>
<text text-anchor="middle" x="425" y="-574.34" font-family="Helvetica,sans-Serif" font-size="10.00"> 2 &gt;, 0 &gt;</text>
</a>
</g>
</g>
<!-- Node1&#45;&gt;Node4 -->
<g id="edge3_Node000001_Node000004" class="edge">
<title>Node1&#45;&gt;Node4</title>
<g id="a_edge3_Node000001_Node000004"><a xlink:title=" ">
<path fill="none" stroke="orange" stroke-dasharray="5,2" d="M67.76,-410.8C75.01,-449.36 94.79,-522.63 144,-557.84 202.64,-599.8 286.66,-603.37 347.35,-598.85"/>
<polygon fill="orange" stroke="orange" points="71.2,-410.16 66.04,-400.91 64.31,-411.36 71.2,-410.16"/>
</a>
</g>
<text text-anchor="start" x="162.5" y="-613.84" font-family="Helvetica,sans-Serif" font-size="10.00" fill="grey"> &lt; VtxId, llvm::SmallVector</text>
<text text-anchor="middle" x="229" y="-602.84" font-family="Helvetica,sans-Serif" font-size="10.00" fill="grey">&lt; EdgeTy, 2 &gt;, 0 &gt;</text>
</g>
<!-- Node5 -->
<g id="Node000005" class="node">
<title>Node5</title>
<g id="a_Node000005"><a xlink:href="classpsr_1_1TypedVector.html" target="_top" xlink:title=" ">
<polygon fill="white" stroke="#666666" points="488,-548.84 362,-548.84 362,-518.84 488,-518.84 488,-548.84"/>
<text text-anchor="start" x="370" y="-536.84" font-family="Helvetica,sans-Serif" font-size="10.00">psr::TypedVector&lt; IdT,</text>
<text text-anchor="middle" x="425" y="-525.84" font-family="Helvetica,sans-Serif" font-size="10.00"> T, 0 &gt;</text>
</a>
</g>
</g>
<!-- Node1&#45;&gt;Node5 -->
<g id="edge4_Node000001_Node000005" class="edge">
<title>Node1&#45;&gt;Node5</title>
<g id="a_edge4_Node000001_Node000005"><a xlink:title=" ">
<path fill="none" stroke="orange" stroke-dasharray="5,2" d="M73.16,-410.33C84.95,-438.13 108.28,-482.39 144,-503.84 210.43,-543.74 301.93,-545.73 362,-541.46"/>
<polygon fill="orange" stroke="orange" points="76.33,-408.85 69.33,-400.9 69.85,-411.49 76.33,-408.85"/>
</a>
</g>
<text text-anchor="middle" x="229" y="-545.84" font-family="Helvetica,sans-Serif" font-size="10.00" fill="grey"> &lt; IdT, T, 0 &gt;</text>
</g>
<!-- Node6 -->
<g id="Node000006" class="node">
<title>Node6</title>
<g id="a_Node000006"><a xlink:href="classpsr_1_1TypedVector.html" target="_top" xlink:title=" ">
<polygon fill="white" stroke="#666666" points="518,-500.84 332,-500.84 332,-448.84 518,-448.84 518,-500.84"/>
<text text-anchor="start" x="340" y="-488.84" font-family="Helvetica,sans-Serif" font-size="10.00">psr::TypedVector&lt; psr</text>
<text text-anchor="start" x="340" y="-477.84" font-family="Helvetica,sans-Serif" font-size="10.00">::SCCId&lt; GraphNodeId</text>
<text text-anchor="start" x="340" y="-466.84" font-family="Helvetica,sans-Serif" font-size="10.00"> &gt;, llvm::SmallDenseSet</text>
<text text-anchor="middle" x="425" y="-455.84" font-family="Helvetica,sans-Serif" font-size="10.00">&lt; psr::SCCId&lt; GraphNodeId &gt; &gt; &gt;</text>
</a>
</g>
</g>
<!-- Node1&#45;&gt;Node6 -->
<g id="edge5_Node000001_Node000006" class="edge">
<title>Node1&#45;&gt;Node6</title>
<g id="a_edge5_Node000001_Node000006"><a xlink:title=" ">
<path fill="none" stroke="orange" stroke-dasharray="5,2" d="M93.21,-406.66C107.81,-416.09 126.14,-426.52 144,-432.84 204.47,-454.23 276.05,-464.73 331.7,-469.88"/>
<polygon fill="orange" stroke="orange" points="94.9,-403.58 84.63,-400.96 91.03,-409.41 94.9,-403.58"/>
</a>
</g>
<text text-anchor="start" x="144" y="-491.84" font-family="Helvetica,sans-Serif" font-size="10.00" fill="grey"> &lt; psr::SCCId&lt; GraphNodeId</text>
<text text-anchor="start" x="144" y="-480.84" font-family="Helvetica,sans-Serif" font-size="10.00" fill="grey"> &gt;, llvm::SmallDenseSet</text>
<text text-anchor="middle" x="229" y="-469.84" font-family="Helvetica,sans-Serif" font-size="10.00" fill="grey">&lt; psr::SCCId&lt; GraphNodeId &gt; &gt; &gt;</text>
</g>
<!-- Node7 -->
<g id="Node000007" class="node">
<title>Node7</title>
<g id="a_Node000007"><a xlink:href="classpsr_1_1TypedVector.html" target="_top" xlink:title=" ">
<polygon fill="white" stroke="#666666" points="514.5,-430.84 335.5,-430.84 335.5,-400.84 514.5,-400.84 514.5,-430.84"/>
<text text-anchor="start" x="343.5" y="-418.84" font-family="Helvetica,sans-Serif" font-size="10.00">psr::TypedVector&lt; GraphNode</text>
<text text-anchor="middle" x="425" y="-407.84" font-family="Helvetica,sans-Serif" font-size="10.00">Id, psr::SCCId&lt; GraphNodeId &gt; &gt;</text>
</a>
</g>
</g>
<!-- Node1&#45;&gt;Node7 -->
<g id="edge6_Node000001_Node000007" class="edge">
<title>Node1&#45;&gt;Node7</title>
<g id="a_edge6_Node000001_Node000007"><a xlink:title=" ">
<path fill="none" stroke="orange" stroke-dasharray="5,2" d="M136.22,-393.13C138.85,-393.37 141.45,-393.61 144,-393.84 207.99,-399.55 280.28,-405.21 335.37,-409.36"/>
<polygon fill="orange" stroke="orange" points="136.29,-389.62 126.01,-392.17 135.63,-396.59 136.29,-389.62"/>
</a>
</g>
<text text-anchor="start" x="162.5" y="-420.84" font-family="Helvetica,sans-Serif" font-size="10.00" fill="grey"> &lt; GraphNodeId, psr</text>
<text text-anchor="middle" x="229" y="-409.84" font-family="Helvetica,sans-Serif" font-size="10.00" fill="grey">::SCCId&lt; GraphNodeId &gt; &gt;</text>
</g>
<!-- Node8 -->
<g id="Node000008" class="node">
<title>Node8</title>
<g id="a_Node000008"><a xlink:href="classpsr_1_1TypedVector.html" target="_top" xlink:title=" ">
<polygon fill="white" stroke="#666666" points="488,-382.84 362,-382.84 362,-330.84 488,-330.84 488,-382.84"/>
<text text-anchor="start" x="370" y="-370.84" font-family="Helvetica,sans-Serif" font-size="10.00">psr::TypedVector&lt; psr</text>
<text text-anchor="start" x="370" y="-359.84" font-family="Helvetica,sans-Serif" font-size="10.00">::SCCId&lt; GraphNodeId</text>
<text text-anchor="start" x="370" y="-348.84" font-family="Helvetica,sans-Serif" font-size="10.00"> &gt;, llvm::SmallVector</text>
<text text-anchor="middle" x="425" y="-337.84" font-family="Helvetica,sans-Serif" font-size="10.00">&lt; GraphNodeId, 1 &gt; &gt;</text>
</a>
</g>
</g>
<!-- Node1&#45;&gt;Node8 -->
<g id="edge7_Node000001_Node000008" class="edge">
<title>Node1&#45;&gt;Node8</title>
<g id="a_edge7_Node000001_Node000008"><a xlink:title=" ">
<path fill="none" stroke="orange" stroke-dasharray="5,2" d="M113.83,-367.84C123.7,-364.97 134.09,-362.42 144,-360.84 218.17,-348.98 304.8,-349.97 361.83,-352.63"/>
<polygon fill="orange" stroke="orange" points="112.69,-364.53 104.15,-370.81 114.74,-371.23 112.69,-364.53"/>
</a>
</g>
<text text-anchor="start" x="159.5" y="-385.84" font-family="Helvetica,sans-Serif" font-size="10.00" fill="grey"> &lt; psr::SCCId&lt; GraphNodeId</text>
<text text-anchor="start" x="159.5" y="-374.84" font-family="Helvetica,sans-Serif" font-size="10.00" fill="grey"> &gt;, llvm::SmallVector&lt;</text>
<text text-anchor="middle" x="229" y="-363.84" font-family="Helvetica,sans-Serif" font-size="10.00" fill="grey"> GraphNodeId, 1 &gt; &gt;</text>
</g>
<!-- Node9 -->
<g id="Node000009" class="node">
<title>Node9</title>
<g id="a_Node000009"><a xlink:href="classpsr_1_1TypedVector.html" target="_top" xlink:title=" ">
<polygon fill="white" stroke="#666666" points="491,-312.34 359,-312.34 359,-271.34 491,-271.34 491,-312.34"/>
<text text-anchor="start" x="367" y="-300.34" font-family="Helvetica,sans-Serif" font-size="10.00">psr::TypedVector&lt; vta</text>
<text text-anchor="start" x="367" y="-289.34" font-family="Helvetica,sans-Serif" font-size="10.00">::TAGNodeId, psr::SCCId</text>
<text text-anchor="middle" x="425" y="-278.34" font-family="Helvetica,sans-Serif" font-size="10.00">&lt; vta::TAGNodeId &gt; &gt;</text>
</a>
</g>
</g>
<!-- Node1&#45;&gt;Node9 -->
<g id="edge8_Node000001_Node000009" class="edge">
<title>Node1&#45;&gt;Node9</title>
<g id="a_edge8_Node000001_Node000009"><a xlink:title=" ">
<path fill="none" stroke="orange" stroke-dasharray="5,2" d="M86.35,-363.51C101.35,-349.95 122.28,-333.62 144,-324.84 213.65,-296.66 300.44,-290.41 358.78,-289.92"/>
<polygon fill="orange" stroke="orange" points="83.59,-361.3 78.66,-370.69 88.36,-366.42 83.59,-361.3"/>
</a>
</g>
<text text-anchor="start" x="156.5" y="-338.84" font-family="Helvetica,sans-Serif" font-size="10.00" fill="grey"> &lt; vta::TAGNodeId, psr</text>
<text text-anchor="middle" x="229" y="-327.84" font-family="Helvetica,sans-Serif" font-size="10.00" fill="grey">::SCCId&lt; vta::TAGNodeId &gt; &gt;</text>
</g>
<!-- Node10 -->
<g id="Node000010" class="node">
<title>Node10</title>
<g id="a_Node000010"><a xlink:href="classpsr_1_1TypedVector.html" target="_top" xlink:title=" ">
<polygon fill="white" stroke="#666666" points="494,-252.84 356,-252.84 356,-200.84 494,-200.84 494,-252.84"/>
<text text-anchor="start" x="364" y="-240.84" font-family="Helvetica,sans-Serif" font-size="10.00">psr::TypedVector&lt; psr</text>
<text text-anchor="start" x="364" y="-229.84" font-family="Helvetica,sans-Serif" font-size="10.00">::SCCId&lt; vta::TAGNodeId</text>
<text text-anchor="start" x="364" y="-218.84" font-family="Helvetica,sans-Serif" font-size="10.00"> &gt;, llvm::SmallVector&lt;</text>
<text text-anchor="middle" x="425" y="-207.84" font-family="Helvetica,sans-Serif" font-size="10.00"> vta::TAGNodeId, 1 &gt; &gt;</text>
</a>
</g>
</g>
<!-- Node1&#45;&gt;Node10 -->
<g id="edge9_Node000001_Node000010" class="edge">
<title>Node1&#45;&gt;Node10</title>
<g id="a_edge9_Node000001_Node000010"><a xlink:title=" ">
<path fill="none" stroke="orange" stroke-dasharray="5,2" d="M71.32,-361.2C81.91,-330.35 104.66,-278.56 144,-253.84 207.47,-213.95 295.5,-212.19 355.81,-217.17"/>
<polygon fill="orange" stroke="orange" points="67.97,-360.2 68.19,-370.79 74.62,-362.37 67.97,-360.2"/>
</a>
</g>
<text text-anchor="start" x="150" y="-278.84" font-family="Helvetica,sans-Serif" font-size="10.00" fill="grey"> &lt; psr::SCCId&lt; vta::</text>
<text text-anchor="start" x="150" y="-267.84" font-family="Helvetica,sans-Serif" font-size="10.00" fill="grey">TAGNodeId &gt;, llvm::SmallVector</text>
<text text-anchor="middle" x="229" y="-256.84" font-family="Helvetica,sans-Serif" font-size="10.00" fill="grey">&lt; vta::TAGNodeId, 1 &gt; &gt;</text>
</g>
<!-- Node11 -->
<g id="Node000011" class="node">
<title>Node11</title>
<g id="a_Node000011"><a xlink:href="classpsr_1_1TypedVector.html" target="_top" xlink:title=" ">
<polygon fill="white" stroke="#666666" points="505,-182.84 345,-182.84 345,-152.84 505,-152.84 505,-182.84"/>
<text text-anchor="start" x="353" y="-170.84" font-family="Helvetica,sans-Serif" font-size="10.00">psr::TypedVector&lt; FieldString</text>
<text text-anchor="middle" x="425" y="-159.84" font-family="Helvetica,sans-Serif" font-size="10.00">NodeId, uint32_t &gt;</text>
</a>
</g>
</g>
<!-- Node1&#45;&gt;Node11 -->
<g id="edge10_Node000001_Node000011" class="edge">
<title>Node1&#45;&gt;Node11</title>
<g id="a_edge10_Node000001_Node000011"><a xlink:title=" ">
<path fill="none" stroke="orange" stroke-dasharray="5,2" d="M65.99,-360.85C70.89,-317.71 87.63,-229.93 144,-188.84 174.97,-166.26 273.54,-163.49 344.98,-164.72"/>
<polygon fill="orange" stroke="orange" points="62.51,-360.5 64.98,-370.8 69.47,-361.21 62.51,-360.5"/>
</a>
</g>
<text text-anchor="start" x="177" y="-202.84" font-family="Helvetica,sans-Serif" font-size="10.00" fill="grey"> &lt; FieldStringNodeId,</text>
<text text-anchor="middle" x="229" y="-191.84" font-family="Helvetica,sans-Serif" font-size="10.00" fill="grey"> uint32_t &gt;</text>
</g>
<!-- Node12 -->
<g id="Node000012" class="node">
<title>Node12</title>
<g id="a_Node000012"><a xlink:href="classpsr_1_1TypedVector.html" target="_top" xlink:title=" ">
<polygon fill="white" stroke="#666666" points="502,-134.84 348,-134.84 348,-60.84 502,-60.84 502,-134.84"/>
<text text-anchor="start" x="356" y="-122.84" font-family="Helvetica,sans-Serif" font-size="10.00">psr::TypedVector&lt; psr</text>
<text text-anchor="start" x="356" y="-111.84" font-family="Helvetica,sans-Serif" font-size="10.00">::SCCId&lt; TAGNodeId &gt;,</text>
<text text-anchor="start" x="356" y="-100.84" font-family="Helvetica,sans-Serif" font-size="10.00"> llvm::SmallDenseSet&lt;</text>
<text text-anchor="start" x="356" y="-89.84" font-family="Helvetica,sans-Serif" font-size="10.00"> llvm::PointerUnion&lt; const</text>
<text text-anchor="start" x="356" y="-78.84" font-family="Helvetica,sans-Serif" font-size="10.00"> llvm::Function *, const llvm</text>
<text text-anchor="middle" x="425" y="-67.84" font-family="Helvetica,sans-Serif" font-size="10.00">::DIType * &gt; &gt; &gt;</text>
</a>
</g>
</g>
<!-- Node1&#45;&gt;Node12 -->
<g id="edge11_Node000001_Node000012" class="edge">
<title>Node1&#45;&gt;Node12</title>
<g id="a_edge11_Node000001_Node000012"><a xlink:title=" ">
<path fill="none" stroke="orange" stroke-dasharray="5,2" d="M67.41,-360.35C76.4,-297.26 102.96,-136.64 144,-104.84 201.18,-60.53 286.44,-65.35 347.85,-77.17"/>
<polygon fill="orange" stroke="orange" points="63.89,-360.22 65.98,-370.61 70.82,-361.19 63.89,-360.22"/>
</a>
</g>
<text text-anchor="start" x="159" y="-151.84" font-family="Helvetica,sans-Serif" font-size="10.00" fill="grey"> &lt; psr::SCCId&lt; TAGNodeId</text>
<text text-anchor="start" x="159" y="-140.84" font-family="Helvetica,sans-Serif" font-size="10.00" fill="grey"> &gt;, llvm::SmallDenseSet</text>
<text text-anchor="start" x="159" y="-129.84" font-family="Helvetica,sans-Serif" font-size="10.00" fill="grey">&lt; llvm::PointerUnion&lt; const</text>
<text text-anchor="start" x="159" y="-118.84" font-family="Helvetica,sans-Serif" font-size="10.00" fill="grey"> llvm::Function *, const llvm</text>
<text text-anchor="middle" x="229" y="-107.84" font-family="Helvetica,sans-Serif" font-size="10.00" fill="grey">::DIType * &gt; &gt; &gt;</text>
</g>
<!-- Node13 -->
<g id="Node000013" class="node">
<title>Node13</title>
<g id="a_Node000013"><a xlink:href="classpsr_1_1TypedVector.html" target="_top" xlink:title=" ">
<polygon fill="white" stroke="#666666" points="501.5,-42.34 348.5,-42.34 348.5,-1.34 501.5,-1.34 501.5,-42.34"/>
<text text-anchor="start" x="356.5" y="-30.34" font-family="Helvetica,sans-Serif" font-size="10.00">psr::TypedVector&lt; TAGNode</text>
<text text-anchor="start" x="356.5" y="-19.34" font-family="Helvetica,sans-Serif" font-size="10.00">Id, llvm::SmallDenseSet</text>
<text text-anchor="middle" x="425" y="-8.34" font-family="Helvetica,sans-Serif" font-size="10.00">&lt; TAGNodeId &gt; &gt;</text>
</a>
</g>
</g>
<!-- Node1&#45;&gt;Node13 -->
<g id="edge12_Node000001_Node000013" class="edge">
<title>Node1&#45;&gt;Node13</title>
<g id="a_edge12_Node000001_Node000013"><a xlink:title=" ">
<path fill="none" stroke="orange" stroke-dasharray="5,2" d="M66.08,-360.85C72.6,-289.06 95.19,-84.64 144,-42.84 199.54,4.73 286.12,3.76 348.3,-5.19"/>
<polygon fill="orange" stroke="orange" points="62.59,-360.55 65.2,-370.82 69.56,-361.17 62.59,-360.55"/>
</a>
</g>
<text text-anchor="start" x="147.5" y="-56.84" font-family="Helvetica,sans-Serif" font-size="10.00" fill="grey"> &lt; TAGNodeId, llvm::</text>
<text text-anchor="middle" x="229" y="-45.84" font-family="Helvetica,sans-Serif" font-size="10.00" fill="grey">SmallDenseSet&lt; TAGNodeId &gt; &gt;</text>
</g>
</g>
</svg>
