<?xml version="1.0" encoding="UTF-8" standalone="no"?>
<!DOCTYPE svg PUBLIC "-//W3C//DTD SVG 1.1//EN"
 "http://www.w3.org/Graphics/SVG/1.1/DTD/svg11.dtd">
<!-- Generated by graphviz version 2.43.0 (0)
 -->
<!-- Title: psr::InterMonoProblem&lt; AnalysisDomainTy &gt; Pages: 1 -->
<svg width="909pt" height="146pt"
 viewBox="0.00 0.00 909.00 145.50" xmlns="http://www.w3.org/2000/svg" xmlns:xlink="http://www.w3.org/1999/xlink">
<g id="graph0" class="graph" transform="scale(1 1) rotate(0) translate(4 141.5)">
<title>psr::InterMonoProblem&lt; AnalysisDomainTy &gt;</title>
<!-- Node1 -->
<g id="Node000001" class="node">
<title>Node1</title>
<g id="a_Node000001"><a xlink:title="The analysis problem interface for interprocedural monotone problems (solvable by the InterMonoSolver...">
<polygon fill="#999999" stroke="#666666" points="295,-78 166,-78 166,-48 295,-48 295,-78"/>
<text text-anchor="start" x="174" y="-66" font-family="Helvetica,sans-Serif" font-size="10.00">psr::InterMonoProblem</text>
<text text-anchor="middle" x="230.5" y="-55" font-family="Helvetica,sans-Serif" font-size="10.00">&lt; AnalysisDomainTy &gt;</text>
</a>
</g>
</g>
<!-- Node3 -->
<g id="Node000003" class="node">
<title>Node3</title>
<g id="a_Node000003"><a xlink:href="classpsr_1_1InterMonoProblem.html" target="_top" xlink:title=" ">
<polygon fill="white" stroke="#666666" points="712,-137.5 515,-137.5 515,-96.5 712,-96.5 712,-137.5"/>
<text text-anchor="start" x="523" y="-125.5" font-family="Helvetica,sans-Serif" font-size="10.00">psr::InterMonoProblem</text>
<text text-anchor="start" x="523" y="-114.5" font-family="Helvetica,sans-Serif" font-size="10.00">&lt; IntraMonoFullConstantPropagation</text>
<text text-anchor="middle" x="613.5" y="-103.5" font-family="Helvetica,sans-Serif" font-size="10.00">AnalysisDomain &gt;</text>
</a>
</g>
</g>
<!-- Node1&#45;&gt;Node3 -->
<g id="edge2_Node000001_Node000003" class="edge">
<title>Node1&#45;&gt;Node3</title>
<g id="a_edge2_Node000001_Node000003"><a xlink:title=" ">
<path fill="none" stroke="orange" stroke-dasharray="5,2" d="M304.96,-76.7C307.67,-77.15 310.36,-77.59 313,-78 380.21,-88.55 456.23,-98.43 514.86,-105.6"/>
<polygon fill="orange" stroke="orange" points="305.51,-73.25 295.07,-75.03 304.34,-80.15 305.51,-73.25"/>
</a>
</g>
<text text-anchor="start" x="313" y="-116" font-family="Helvetica,sans-Serif" font-size="10.00" fill="grey"> &lt; IntraMonoFullConstantPropagation</text>
<text text-anchor="middle" x="405" y="-105" font-family="Helvetica,sans-Serif" font-size="10.00" fill="grey">AnalysisDomain &gt;</text>
</g>
<!-- Node5 -->
<g id="Node000005" class="node">
<title>Node5</title>
<g id="a_Node000005"><a xlink:href="classpsr_1_1InterMonoProblem.html" target="_top" xlink:title=" ">
<polygon fill="white" stroke="#666666" points="702,-78 525,-78 525,-48 702,-48 702,-78"/>
<text text-anchor="start" x="533" y="-66" font-family="Helvetica,sans-Serif" font-size="10.00">psr::InterMonoProblem</text>
<text text-anchor="middle" x="613.5" y="-55" font-family="Helvetica,sans-Serif" font-size="10.00">&lt; InterMonoSolverTestDomain &gt;</text>
</a>
</g>
</g>
<!-- Node1&#45;&gt;Node5 -->
<g id="edge4_Node000001_Node000005" class="edge">
<title>Node1&#45;&gt;Node5</title>
<g id="a_edge4_Node000001_Node000005"><a xlink:title=" ">
<path fill="none" stroke="orange" stroke-dasharray="5,2" d="M305.5,-63C368.31,-63 458.55,-63 524.95,-63"/>
<polygon fill="orange" stroke="orange" points="305.27,-59.5 295.27,-63 305.27,-66.5 305.27,-59.5"/>
</a>
</g>
<text text-anchor="middle" x="405" y="-66" font-family="Helvetica,sans-Serif" font-size="10.00" fill="grey"> &lt; InterMonoSolverTestDomain &gt;</text>
</g>
<!-- Node7 -->
<g id="Node000007" class="node">
<title>Node7</title>
<g id="a_Node000007"><a xlink:href="classpsr_1_1InterMonoProblem.html" target="_top" xlink:title=" ">
<polygon fill="white" stroke="#666666" points="709,-30 518,-30 518,0 709,0 709,-30"/>
<text text-anchor="start" x="526" y="-18" font-family="Helvetica,sans-Serif" font-size="10.00">psr::InterMonoProblem</text>
<text text-anchor="middle" x="613.5" y="-7" font-family="Helvetica,sans-Serif" font-size="10.00">&lt; InterMonoTaintAnalysisDomain &gt;</text>
</a>
</g>
</g>
<!-- Node1&#45;&gt;Node7 -->
<g id="edge6_Node000001_Node000007" class="edge">
<title>Node1&#45;&gt;Node7</title>
<g id="a_edge6_Node000001_Node000007"><a xlink:title=" ">
<path fill="none" stroke="orange" stroke-dasharray="5,2" d="M281.68,-44.96C291.93,-41.85 302.72,-38.99 313,-37 380.82,-23.88 458.67,-18.45 518,-16.26"/>
<polygon fill="orange" stroke="orange" points="280.54,-41.65 272.05,-47.99 282.64,-48.32 280.54,-41.65"/>
</a>
</g>
<text text-anchor="start" x="340.5" y="-51" font-family="Helvetica,sans-Serif" font-size="10.00" fill="grey"> &lt; InterMonoTaintAnalysis</text>
<text text-anchor="middle" x="405" y="-40" font-family="Helvetica,sans-Serif" font-size="10.00" fill="grey">Domain &gt;</text>
</g>
<!-- Node2 -->
<g id="Node000002" class="node">
<title>Node2</title>
<g id="a_Node000002"><a xlink:href="classpsr_1_1IntraMonoProblem.html" target="_top" xlink:title="The analysis problem interface for intraprocedural monotone problems (solvable by the IntraMonoSolver...">
<polygon fill="white" stroke="#666666" points="129,-78 0,-78 0,-48 129,-48 129,-78"/>
<text text-anchor="start" x="8" y="-66" font-family="Helvetica,sans-Serif" font-size="10.00">psr::IntraMonoProblem</text>
<text text-anchor="middle" x="64.5" y="-55" font-family="Helvetica,sans-Serif" font-size="10.00">&lt; AnalysisDomainTy &gt;</text>
</a>
</g>
</g>
<!-- Node2&#45;&gt;Node1 -->
<g id="edge1_Node000001_Node000002" class="edge">
<title>Node2&#45;&gt;Node1</title>
<g id="a_edge1_Node000001_Node000002"><a xlink:title=" ">
<path fill="none" stroke="#63b8ff" d="M139.57,-63C148.33,-63 157.2,-63 165.8,-63"/>
<polygon fill="#63b8ff" stroke="#63b8ff" points="139.38,-59.5 129.38,-63 139.38,-66.5 139.38,-59.5"/>
</a>
</g>
</g>
<!-- Node4 -->
<g id="Node000004" class="node">
<title>Node4</title>
<g id="a_Node000004"><a xlink:href="classpsr_1_1InterMonoFullConstantPropagation.html" target="_top" xlink:title=" ">
<polygon fill="white" stroke="#666666" points="899,-132 751,-132 751,-102 899,-102 899,-132"/>
<text text-anchor="start" x="759" y="-120" font-family="Helvetica,sans-Serif" font-size="10.00">psr::InterMonoFullConstant</text>
<text text-anchor="middle" x="825" y="-109" font-family="Helvetica,sans-Serif" font-size="10.00">Propagation</text>
</a>
</g>
</g>
<!-- Node3&#45;&gt;Node4 -->
<g id="edge3_Node000003_Node000004" class="edge">
<title>Node3&#45;&gt;Node4</title>
<g id="a_edge3_Node000003_Node000004"><a xlink:title=" ">
<path fill="none" stroke="#63b8ff" d="M722.28,-117C731.95,-117 741.59,-117 750.87,-117"/>
<polygon fill="#63b8ff" stroke="#63b8ff" points="722.2,-113.5 712.2,-117 722.2,-120.5 722.2,-113.5"/>
</a>
</g>
</g>
<!-- Node6 -->
<g id="Node000006" class="node">
<title>Node6</title>
<g id="a_Node000006"><a xlink:href="classpsr_1_1InterMonoSolverTest.html" target="_top" xlink:title=" ">
<polygon fill="white" stroke="#666666" points="893.5,-72.5 756.5,-72.5 756.5,-53.5 893.5,-53.5 893.5,-72.5"/>
<text text-anchor="middle" x="825" y="-60.5" font-family="Helvetica,sans-Serif" font-size="10.00">psr::InterMonoSolverTest</text>
</a>
</g>
</g>
<!-- Node5&#45;&gt;Node6 -->
<g id="edge5_Node000005_Node000006" class="edge">
<title>Node5&#45;&gt;Node6</title>
<g id="a_edge5_Node000005_Node000006"><a xlink:title=" ">
<path fill="none" stroke="#63b8ff" d="M712.41,-63C727.32,-63 742.41,-63 756.48,-63"/>
<polygon fill="#63b8ff" stroke="#63b8ff" points="712.13,-59.5 702.13,-63 712.13,-66.5 712.13,-59.5"/>
</a>
</g>
</g>
<!-- Node8 -->
<g id="Node000008" class="node">
<title>Node8</title>
<g id="a_Node000008"><a xlink:href="classpsr_1_1InterMonoTaintAnalysis.html" target="_top" xlink:title=" ">
<polygon fill="white" stroke="#666666" points="901,-24.5 749,-24.5 749,-5.5 901,-5.5 901,-24.5"/>
<text text-anchor="middle" x="825" y="-12.5" font-family="Helvetica,sans-Serif" font-size="10.00">psr::InterMonoTaintAnalysis</text>
</a>
</g>
</g>
<!-- Node7&#45;&gt;Node8 -->
<g id="edge7_Node000007_Node000008" class="edge">
<title>Node7&#45;&gt;Node8</title>
<g id="a_edge7_Node000007_Node000008"><a xlink:title=" ">
<path fill="none" stroke="#63b8ff" d="M719.17,-15C729.21,-15 739.26,-15 748.94,-15"/>
<polygon fill="#63b8ff" stroke="#63b8ff" points="719.14,-11.5 709.14,-15 719.14,-18.5 719.14,-11.5"/>
</a>
</g>
</g>
</g>
</svg>
