<?xml version="1.0" encoding="UTF-8" standalone="no"?>
<!DOCTYPE svg PUBLIC "-//W3C//DTD SVG 1.1//EN"
 "http://www.w3.org/Graphics/SVG/1.1/DTD/svg11.dtd">
<!-- Generated by graphviz version 2.43.0 (0)
 -->
<!-- Title: psr::TaintConfigBase&lt; Derived &gt; Pages: 1 -->
<svg width="174pt" height="171pt"
 viewBox="0.00 0.00 173.50 171.00" xmlns="http://www.w3.org/2000/svg" xmlns:xlink="http://www.w3.org/1999/xlink">
<g id="graph0" class="graph" transform="scale(1 1) rotate(0) translate(4 167)">
<title>psr::TaintConfigBase&lt; Derived &gt;</title>
<!-- Node1 -->
<g id="Node000001" class="node">
<title>Node1</title>
<g id="a_Node000001"><a xlink:title=" ">
<polygon fill="#999999" stroke="#666666" points="117.5,-163 1.5,-163 1.5,-133 117.5,-133 117.5,-163"/>
<text text-anchor="start" x="9.5" y="-151" font-family="Helvetica,sans-Serif" font-size="10.00">psr::TaintConfigBase</text>
<text text-anchor="middle" x="59.5" y="-140" font-family="Helvetica,sans-Serif" font-size="10.00">&lt; Derived &gt;</text>
</a>
</g>
</g>
<!-- Node2 -->
<g id="Node000002" class="node">
<title>Node2</title>
<g id="a_Node000002"><a xlink:href="classpsr_1_1TaintConfigBase.html" target="_top" xlink:title=" ">
<polygon fill="white" stroke="#666666" points="119,-86 0,-86 0,-56 119,-56 119,-86"/>
<text text-anchor="start" x="8" y="-74" font-family="Helvetica,sans-Serif" font-size="10.00">psr::TaintConfigBase</text>
<text text-anchor="middle" x="59.5" y="-63" font-family="Helvetica,sans-Serif" font-size="10.00">&lt; LLVMTaintConfig &gt;</text>
</a>
</g>
</g>
<!-- Node1&#45;&gt;Node2 -->
<g id="edge1_Node000001_Node000002" class="edge">
<title>Node1&#45;&gt;Node2</title>
<g id="a_edge1_Node000001_Node000002"><a xlink:title=" ">
<path fill="none" stroke="orange" stroke-dasharray="5,2" d="M59.5,-122.54C59.5,-110.45 59.5,-96.29 59.5,-86.04"/>
<polygon fill="orange" stroke="orange" points="56,-122.89 59.5,-132.89 63,-122.89 56,-122.89"/>
</a>
</g>
<text text-anchor="middle" x="112.5" y="-107" font-family="Helvetica,sans-Serif" font-size="10.00" fill="grey"> &lt; LLVMTaintConfig &gt;</text>
</g>
<!-- Node3 -->
<g id="Node000003" class="node">
<title>Node3</title>
<g id="a_Node000003"><a xlink:href="classpsr_1_1LLVMTaintConfig.html" target="_top" xlink:title=" ">
<polygon fill="white" stroke="#666666" points="118,-19 1,-19 1,0 118,0 118,-19"/>
<text text-anchor="middle" x="59.5" y="-7" font-family="Helvetica,sans-Serif" font-size="10.00">psr::LLVMTaintConfig</text>
</a>
</g>
</g>
<!-- Node2&#45;&gt;Node3 -->
<g id="edge2_Node000002_Node000003" class="edge">
<title>Node2&#45;&gt;Node3</title>
<g id="a_edge2_Node000002_Node000003"><a xlink:title=" ">
<path fill="none" stroke="#63b8ff" d="M59.5,-45.79C59.5,-36.36 59.5,-26.15 59.5,-19.16"/>
<polygon fill="#63b8ff" stroke="#63b8ff" points="56,-45.9 59.5,-55.9 63,-45.9 56,-45.9"/>
</a>
</g>
</g>
</g>
</svg>
