<?xml version="1.0" encoding="UTF-8" standalone="no"?>
<!DOCTYPE svg PUBLIC "-//W3C//DTD SVG 1.1//EN"
 "http://www.w3.org/Graphics/SVG/1.1/DTD/svg11.dtd">
<!-- Generated by graphviz version 2.43.0 (0)
 -->
<!-- Title: psr::DefaultReachableAllocationSitesIDEProblem&lt; AnalysisDomainTy &gt; Pages: 1 -->
<svg width="1188pt" height="281pt"
 viewBox="0.00 0.00 1188.00 281.00" xmlns="http://www.w3.org/2000/svg" xmlns:xlink="http://www.w3.org/1999/xlink">
<g id="graph0" class="graph" transform="scale(1 1) rotate(0) translate(4 277)">
<title>psr::DefaultReachableAllocationSitesIDEProblem&lt; AnalysisDomainTy &gt;</title>
<!-- Node1 -->
<g id="Node000001" class="node">
<title>Node1</title>
<g id="a_Node000001"><a xlink:title=" ">
<polygon fill="#999999" stroke="#666666" points="1180,-96 970,-96 970,-66 1180,-66 1180,-96"/>
<text text-anchor="start" x="978" y="-84" font-family="Helvetica,sans-Serif" font-size="10.00">psr::DefaultReachableAllocation</text>
<text text-anchor="middle" x="1075" y="-73" font-family="Helvetica,sans-Serif" font-size="10.00">SitesIDEProblem&lt; AnalysisDomainTy &gt;</text>
</a>
</g>
</g>
<!-- Node2 -->
<g id="Node000002" class="node">
<title>Node2</title>
<g id="a_Node000002"><a xlink:href="classpsr_1_1IDETabulationProblem.html" target="_top" xlink:title="The analysis problem interface for IDE problems (solvable by the IDESolver). Create a subclass from t...">
<polygon fill="white" stroke="#666666" points="915.5,-142 733.5,-142 733.5,-112 915.5,-112 915.5,-142"/>
<text text-anchor="start" x="741.5" y="-130" font-family="Helvetica,sans-Serif" font-size="10.00">psr::IDETabulationProblem</text>
<text text-anchor="middle" x="824.5" y="-119" font-family="Helvetica,sans-Serif" font-size="10.00">&lt; AnalysisDomainTy, Container &gt;</text>
</a>
</g>
</g>
<!-- Node2&#45;&gt;Node1 -->
<g id="edge1_Node000001_Node000002" class="edge">
<title>Node2&#45;&gt;Node1</title>
<g id="a_edge1_Node000001_Node000002"><a xlink:title=" ">
<path fill="none" stroke="#63b8ff" d="M917.03,-110.06C941.89,-105.46 968.63,-100.51 992.87,-96.02"/>
<polygon fill="#63b8ff" stroke="#63b8ff" points="916.06,-106.68 906.87,-111.94 917.34,-113.56 916.06,-106.68"/>
</a>
</g>
</g>
<!-- Node3 -->
<g id="Node000003" class="node">
<title>Node3</title>
<g id="a_Node000003"><a xlink:href="classpsr_1_1FlowFunctions.html" target="_top" xlink:title=" ">
<polygon fill="white" stroke="#666666" points="641,-271.5 520,-271.5 520,-230.5 641,-230.5 641,-271.5"/>
<text text-anchor="start" x="528" y="-259.5" font-family="Helvetica,sans-Serif" font-size="10.00">psr::FlowFunctions</text>
<text text-anchor="start" x="528" y="-248.5" font-family="Helvetica,sans-Serif" font-size="10.00">&lt; AnalysisDomainTy,</text>
<text text-anchor="middle" x="580.5" y="-237.5" font-family="Helvetica,sans-Serif" font-size="10.00"> Container &gt;</text>
</a>
</g>
</g>
<!-- Node3&#45;&gt;Node2 -->
<g id="edge2_Node000002_Node000003" class="edge">
<title>Node3&#45;&gt;Node2</title>
<g id="a_edge2_Node000002_Node000003"><a xlink:title=" ">
<path fill="none" stroke="#63b8ff" d="M650.66,-232.35C660.34,-228.99 670.04,-225.19 679,-221 726.71,-198.68 777.12,-162.62 803.96,-142.26"/>
<polygon fill="#63b8ff" stroke="#63b8ff" points="649.39,-229.09 641.01,-235.58 651.61,-235.73 649.39,-229.09"/>
</a>
</g>
</g>
<!-- Node4 -->
<g id="Node000004" class="node">
<title>Node4</title>
<g id="a_Node000004"><a xlink:href="classpsr_1_1FlowFunctionTemplates.html" target="_top" xlink:title=" ">
<polygon fill="white" stroke="#666666" points="445,-271.5 293,-271.5 293,-230.5 445,-230.5 445,-271.5"/>
<text text-anchor="start" x="301" y="-259.5" font-family="Helvetica,sans-Serif" font-size="10.00">psr::FlowFunctionTemplates</text>
<text text-anchor="start" x="301" y="-248.5" font-family="Helvetica,sans-Serif" font-size="10.00">&lt; AnalysisDomainTy::d_t,</text>
<text text-anchor="middle" x="369" y="-237.5" font-family="Helvetica,sans-Serif" font-size="10.00"> Container &gt;</text>
</a>
</g>
</g>
<!-- Node4&#45;&gt;Node3 -->
<g id="edge3_Node000003_Node000004" class="edge">
<title>Node4&#45;&gt;Node3</title>
<g id="a_edge3_Node000003_Node000004"><a xlink:title=" ">
<path fill="none" stroke="darkgreen" d="M455.22,-251C476.87,-251 499.67,-251 519.75,-251"/>
<polygon fill="darkgreen" stroke="darkgreen" points="455.04,-247.5 445.04,-251 455.04,-254.5 455.04,-247.5"/>
</a>
</g>
</g>
<!-- Node5 -->
<g id="Node000005" class="node">
<title>Node5</title>
<g id="a_Node000005"><a xlink:href="classpsr_1_1FlowFunctionTemplates.html" target="_top" xlink:title=" ">
<polygon fill="white" stroke="#666666" points="152,-266 0,-266 0,-236 152,-236 152,-266"/>
<text text-anchor="start" x="8" y="-254" font-family="Helvetica,sans-Serif" font-size="10.00">psr::FlowFunctionTemplates</text>
<text text-anchor="middle" x="76" y="-243" font-family="Helvetica,sans-Serif" font-size="10.00">&lt; D, Container &gt;</text>
</a>
</g>
</g>
<!-- Node5&#45;&gt;Node4 -->
<g id="edge4_Node000004_Node000005" class="edge">
<title>Node5&#45;&gt;Node4</title>
<g id="a_edge4_Node000004_Node000005"><a xlink:title=" ">
<path fill="none" stroke="orange" stroke-dasharray="5,2" d="M162.39,-251C203.79,-251 253.06,-251 293,-251"/>
<polygon fill="orange" stroke="orange" points="162.32,-247.5 152.32,-251 162.32,-254.5 162.32,-247.5"/>
</a>
</g>
<text text-anchor="start" x="170" y="-265" font-family="Helvetica,sans-Serif" font-size="10.00" fill="grey"> &lt; AnalysisDomainTy</text>
<text text-anchor="middle" x="222.5" y="-254" font-family="Helvetica,sans-Serif" font-size="10.00" fill="grey">::d_t, Container &gt;</text>
</g>
<!-- Node6 -->
<g id="Node000006" class="node">
<title>Node6</title>
<g id="a_Node000006"><a xlink:href="classpsr_1_1EdgeFunctions.html" target="_top" xlink:title=" ">
<polygon fill="white" stroke="#666666" points="645,-212 516,-212 516,-182 645,-182 645,-212"/>
<text text-anchor="start" x="524" y="-200" font-family="Helvetica,sans-Serif" font-size="10.00">psr::EdgeFunctions</text>
<text text-anchor="middle" x="580.5" y="-189" font-family="Helvetica,sans-Serif" font-size="10.00">&lt; AnalysisDomainTy &gt;</text>
</a>
</g>
</g>
<!-- Node6&#45;&gt;Node2 -->
<g id="edge5_Node000002_Node000006" class="edge">
<title>Node6&#45;&gt;Node2</title>
<g id="a_edge5_Node000002_Node000006"><a xlink:title=" ">
<path fill="none" stroke="#63b8ff" d="M655,-179.47C663.12,-177.36 671.25,-175.19 679,-173 712.7,-163.5 750.39,-151.45 778.82,-142.07"/>
<polygon fill="#63b8ff" stroke="#63b8ff" points="653.94,-176.12 645.12,-181.99 655.68,-182.91 653.94,-176.12"/>
</a>
</g>
</g>
<!-- Node7 -->
<g id="Node000007" class="node">
<title>Node7</title>
<g id="a_Node000007"><a xlink:href="classpsr_1_1JoinLattice.html" target="_top" xlink:title=" ">
<polygon fill="white" stroke="#666666" points="651,-164 510,-164 510,-134 651,-134 651,-164"/>
<text text-anchor="start" x="518" y="-152" font-family="Helvetica,sans-Serif" font-size="10.00">psr::JoinLattice&lt; Analysis</text>
<text text-anchor="middle" x="580.5" y="-141" font-family="Helvetica,sans-Serif" font-size="10.00">DomainTy, typename &gt;</text>
</a>
</g>
</g>
<!-- Node7&#45;&gt;Node2 -->
<g id="edge6_Node000002_Node000007" class="edge">
<title>Node7&#45;&gt;Node2</title>
<g id="a_edge6_Node000002_Node000007"><a xlink:title=" ">
<path fill="none" stroke="#63b8ff" d="M661.23,-141.75C684.24,-139.66 709.52,-137.36 733.13,-135.22"/>
<polygon fill="#63b8ff" stroke="#63b8ff" points="660.81,-138.28 651.17,-142.67 661.45,-145.25 660.81,-138.28"/>
</a>
</g>
</g>
<!-- Node8 -->
<g id="Node000008" class="node">
<title>Node8</title>
<g id="a_Node000008"><a xlink:href="classpsr_1_1SemiRing.html" target="_top" xlink:title=" ">
<polygon fill="white" stroke="#666666" points="679,-115.5 482,-115.5 482,-96.5 679,-96.5 679,-115.5"/>
<text text-anchor="middle" x="580.5" y="-103.5" font-family="Helvetica,sans-Serif" font-size="10.00">psr::SemiRing&lt; AnalysisDomainTy &gt;</text>
</a>
</g>
</g>
<!-- Node8&#45;&gt;Node2 -->
<g id="edge7_Node000002_Node000008" class="edge">
<title>Node8&#45;&gt;Node2</title>
<g id="a_edge7_Node000002_Node000008"><a xlink:title=" ">
<path fill="none" stroke="#63b8ff" d="M689.33,-115.36C703.99,-116.63 718.92,-117.92 733.23,-119.17"/>
<polygon fill="#63b8ff" stroke="#63b8ff" points="689.5,-111.86 679.23,-114.48 688.89,-118.83 689.5,-111.86"/>
</a>
</g>
</g>
<!-- Node9 -->
<g id="Node000009" class="node">
<title>Node9</title>
<g id="a_Node000009"><a xlink:href="classpsr_1_1AllTopFnProvider.html" target="_top" xlink:title=" ">
<polygon fill="white" stroke="#666666" points="673,-78 488,-78 488,-48 673,-48 673,-78"/>
<text text-anchor="start" x="496" y="-66" font-family="Helvetica,sans-Serif" font-size="10.00">psr::AllTopFnProvider</text>
<text text-anchor="middle" x="580.5" y="-55" font-family="Helvetica,sans-Serif" font-size="10.00">&lt; AnalysisDomainTy, typename &gt;</text>
</a>
</g>
</g>
<!-- Node9&#45;&gt;Node2 -->
<g id="edge8_Node000002_Node000009" class="edge">
<title>Node9&#45;&gt;Node2</title>
<g id="a_edge8_Node000002_Node000009"><a xlink:title=" ">
<path fill="none" stroke="#63b8ff" d="M650.48,-80.57C660.06,-83.05 669.78,-85.57 679,-88 708.53,-95.77 741.39,-104.62 768.31,-111.93"/>
<polygon fill="#63b8ff" stroke="#63b8ff" points="651.12,-77.12 640.57,-78.02 649.38,-83.9 651.12,-77.12"/>
</a>
</g>
</g>
<!-- Node10 -->
<g id="Node000010" class="node">
<title>Node10</title>
<g id="a_Node000010"><a xlink:title=" ">
<polygon fill="white" stroke="#666666" points="933,-73 716,-73 716,-43 933,-43 933,-73"/>
<text text-anchor="start" x="724" y="-61" font-family="Helvetica,sans-Serif" font-size="10.00">psr::detail::IDEReachable</text>
<text text-anchor="middle" x="824.5" y="-50" font-family="Helvetica,sans-Serif" font-size="10.00">AllocationSitesDefaultFlowFunctionsImpl</text>
</a>
</g>
</g>
<!-- Node10&#45;&gt;Node1 -->
<g id="edge9_Node000001_Node000010" class="edge">
<title>Node10&#45;&gt;Node1</title>
<g id="a_edge9_Node000001_Node000010"><a xlink:title=" ">
<path fill="none" stroke="darkgreen" d="M943.1,-68.88C952.02,-69.71 960.99,-70.54 969.82,-71.36"/>
<polygon fill="darkgreen" stroke="darkgreen" points="943.33,-65.39 933.05,-67.95 942.69,-72.36 943.33,-65.39"/>
</a>
</g>
</g>
<!-- Node11 -->
<g id="Node000011" class="node">
<title>Node11</title>
<g id="a_Node000011"><a xlink:title=" ">
<polygon fill="white" stroke="#666666" points="661,-30 500,-30 500,0 661,0 661,-30"/>
<text text-anchor="start" x="508" y="-18" font-family="Helvetica,sans-Serif" font-size="10.00">psr::detail::IDENoAliasDefault</text>
<text text-anchor="middle" x="580.5" y="-7" font-family="Helvetica,sans-Serif" font-size="10.00">FlowFunctionsImpl</text>
</a>
</g>
</g>
<!-- Node11&#45;&gt;Node10 -->
<g id="edge10_Node000010_Node000011" class="edge">
<title>Node11&#45;&gt;Node10</title>
<g id="a_edge10_Node000010_Node000011"><a xlink:title=" ">
<path fill="none" stroke="#8b1a1a" d="M671.14,-30.93C693.3,-34.87 716.97,-39.07 738.88,-42.96"/>
<polygon fill="#8b1a1a" stroke="#8b1a1a" points="671.53,-27.44 661.08,-29.14 670.31,-34.33 671.53,-27.44"/>
</a>
</g>
</g>
</g>
</svg>
