<?xml version="1.0" encoding="UTF-8" standalone="no"?>
<!DOCTYPE svg PUBLIC "-//W3C//DTD SVG 1.1//EN"
 "http://www.w3.org/Graphics/SVG/1.1/DTD/svg11.dtd">
<!-- Generated by graphviz version 2.43.0 (0)
 -->
<!-- Title: psr::IterativeIDESolver&lt; ProblemTy, StaticSolverConfigTy &gt; Pages: 1 -->
<svg width="961pt" height="201pt"
 viewBox="0.00 0.00 961.00 201.00" xmlns="http://www.w3.org/2000/svg" xmlns:xlink="http://www.w3.org/1999/xlink">
<g id="graph0" class="graph" transform="scale(1 1) rotate(0) translate(4 197)">
<title>psr::IterativeIDESolver&lt; ProblemTy, StaticSolverConfigTy &gt;</title>
<!-- Node1 -->
<g id="Node000001" class="node">
<title>Node1</title>
<g id="a_Node000001"><a xlink:title=" ">
<polygon fill="#999999" stroke="#666666" points="953,-111.5 757,-111.5 757,-81.5 953,-81.5 953,-111.5"/>
<text text-anchor="start" x="765" y="-99.5" font-family="Helvetica,sans-Serif" font-size="10.00">psr::IterativeIDESolver</text>
<text text-anchor="middle" x="855" y="-88.5" font-family="Helvetica,sans-Serif" font-size="10.00">&lt; ProblemTy, StaticSolverConfigTy &gt;</text>
</a>
</g>
</g>
<!-- Node2 -->
<g id="Node000002" class="node">
<title>Node2</title>
<g id="a_Node000002"><a xlink:href="structpsr_1_1SolverStatsSelector.html" target="_top" xlink:title=" ">
<polygon fill="white" stroke="#666666" points="646,-193 513,-193 513,-152 646,-152 646,-193"/>
<text text-anchor="start" x="521" y="-181" font-family="Helvetica,sans-Serif" font-size="10.00">psr::SolverStatsSelector</text>
<text text-anchor="start" x="521" y="-170" font-family="Helvetica,sans-Serif" font-size="10.00">&lt; StaticSolverConfigTy,</text>
<text text-anchor="middle" x="579.5" y="-159" font-family="Helvetica,sans-Serif" font-size="10.00"> typename &gt;</text>
</a>
</g>
</g>
<!-- Node2&#45;&gt;Node1 -->
<g id="edge1_Node000001_Node000002" class="edge">
<title>Node2&#45;&gt;Node1</title>
<g id="a_edge1_Node000001_Node000002"><a xlink:title=" ">
<path fill="none" stroke="#8b1a1a" d="M656.24,-157.92C677.03,-153.46 699.49,-148.2 720,-142.5 752.11,-133.57 787.77,-121.21 814.22,-111.55"/>
<polygon fill="#8b1a1a" stroke="#8b1a1a" points="655.24,-154.56 646.18,-160.05 656.69,-161.41 655.24,-154.56"/>
</a>
</g>
</g>
<!-- Node3 -->
<g id="Node000003" class="node">
<title>Node3</title>
<g id="a_Node000003"><a xlink:title=" ">
<polygon fill="white" stroke="#666666" points="720,-133.5 439,-133.5 439,-59.5 720,-59.5 720,-133.5"/>
<text text-anchor="start" x="447" y="-121.5" font-family="Helvetica,sans-Serif" font-size="10.00">psr::detail::IterativeIDESolver</text>
<text text-anchor="start" x="447" y="-110.5" font-family="Helvetica,sans-Serif" font-size="10.00">Results&lt; ProblemTy::ProblemAnalysis</text>
<text text-anchor="start" x="447" y="-99.5" font-family="Helvetica,sans-Serif" font-size="10.00">Domain::n_t, ProblemTy::ProblemAnalysisDomain</text>
<text text-anchor="start" x="447" y="-88.5" font-family="Helvetica,sans-Serif" font-size="10.00">::d_t, std::conditional_t&lt; StaticSolverConfigTy</text>
<text text-anchor="start" x="447" y="-77.5" font-family="Helvetica,sans-Serif" font-size="10.00">::ComputeValues, ProblemTy::ProblemAnalysisDomain</text>
<text text-anchor="middle" x="579.5" y="-66.5" font-family="Helvetica,sans-Serif" font-size="10.00">::l_t, BinaryDomain &gt; &gt;</text>
</a>
</g>
</g>
<!-- Node3&#45;&gt;Node1 -->
<g id="edge2_Node000001_Node000003" class="edge">
<title>Node3&#45;&gt;Node1</title>
<g id="a_edge2_Node000001_Node000003"><a xlink:title=" ">
<path fill="none" stroke="#8b1a1a" d="M730.19,-96.5C739.15,-96.5 748.04,-96.5 756.69,-96.5"/>
<polygon fill="#8b1a1a" stroke="#8b1a1a" points="730.05,-93 720.05,-96.5 730.05,-100 730.05,-93"/>
</a>
</g>
</g>
<!-- Node4 -->
<g id="Node000004" class="node">
<title>Node4</title>
<g id="a_Node000004"><a xlink:title=" ">
<polygon fill="white" stroke="#666666" points="160,-111.5 0,-111.5 0,-81.5 160,-81.5 160,-111.5"/>
<text text-anchor="start" x="8" y="-99.5" font-family="Helvetica,sans-Serif" font-size="10.00">psr::detail::IterativeIDESolver</text>
<text text-anchor="middle" x="80" y="-88.5" font-family="Helvetica,sans-Serif" font-size="10.00">Results&lt; N, D, L &gt;</text>
</a>
</g>
</g>
<!-- Node4&#45;&gt;Node3 -->
<g id="edge3_Node000003_Node000004" class="edge">
<title>Node4&#45;&gt;Node3</title>
<g id="a_edge3_Node000003_Node000004"><a xlink:title=" ">
<path fill="none" stroke="orange" stroke-dasharray="5,2" d="M170.4,-96.5C244.98,-96.5 352.56,-96.5 438.54,-96.5"/>
<polygon fill="orange" stroke="orange" points="170.11,-93 160.11,-96.5 170.11,-100 170.11,-93"/>
</a>
</g>
<text text-anchor="start" x="178" y="-154.5" font-family="Helvetica,sans-Serif" font-size="10.00" fill="grey"> &lt; ProblemTy::ProblemAnalysis</text>
<text text-anchor="start" x="178" y="-143.5" font-family="Helvetica,sans-Serif" font-size="10.00" fill="grey">Domain::n_t, ProblemTy::</text>
<text text-anchor="start" x="178" y="-132.5" font-family="Helvetica,sans-Serif" font-size="10.00" fill="grey">ProblemAnalysisDomain::d</text>
<text text-anchor="start" x="178" y="-121.5" font-family="Helvetica,sans-Serif" font-size="10.00" fill="grey">_t, std::conditional_t&lt; StaticSolver</text>
<text text-anchor="start" x="178" y="-110.5" font-family="Helvetica,sans-Serif" font-size="10.00" fill="grey">ConfigTy::ComputeValues, ProblemTy</text>
<text text-anchor="middle" x="299.5" y="-99.5" font-family="Helvetica,sans-Serif" font-size="10.00" fill="grey">::ProblemAnalysisDomain::l_t, BinaryDomain &gt; &gt;</text>
</g>
<!-- Node5 -->
<g id="Node000005" class="node">
<title>Node5</title>
<g id="a_Node000005"><a xlink:href="classpsr_1_1IterativeIDESolverBase.html" target="_top" xlink:title=" ">
<polygon fill="white" stroke="#666666" points="654.5,-41 504.5,-41 504.5,0 654.5,0 654.5,-41"/>
<text text-anchor="start" x="512.5" y="-29" font-family="Helvetica,sans-Serif" font-size="10.00">psr::IterativeIDESolverBase</text>
<text text-anchor="start" x="512.5" y="-18" font-family="Helvetica,sans-Serif" font-size="10.00">&lt; StaticSolverConfigTy,</text>
<text text-anchor="middle" x="579.5" y="-7" font-family="Helvetica,sans-Serif" font-size="10.00"> EdgeFunPtrTy &gt;</text>
</a>
</g>
</g>
<!-- Node5&#45;&gt;Node1 -->
<g id="edge4_Node000001_Node000005" class="edge">
<title>Node5&#45;&gt;Node1</title>
<g id="a_edge4_Node000001_Node000005"><a xlink:title=" ">
<path fill="none" stroke="#63b8ff" d="M664.55,-36.88C682.92,-40.94 702.2,-45.55 720,-50.5 752.11,-59.43 787.77,-71.79 814.22,-81.45"/>
<polygon fill="#63b8ff" stroke="#63b8ff" points="665.26,-33.46 654.75,-34.76 663.78,-40.3 665.26,-33.46"/>
</a>
</g>
</g>
</g>
</svg>
