<?xml version="1.0" encoding="UTF-8" standalone="no"?>
<!DOCTYPE svg PUBLIC "-//W3C//DTD SVG 1.1//EN"
 "http://www.w3.org/Graphics/SVG/1.1/DTD/svg11.dtd">
<!-- Generated by graphviz version 2.43.0 (0)
 -->
<!-- Title: psr::FlowEdgeFunctionCacheNG&lt; ProblemTy, AutoAddZero &gt; Pages: 1 -->
<svg width="1030pt" height="157pt"
 viewBox="0.00 0.00 1030.00 156.50" xmlns="http://www.w3.org/2000/svg" xmlns:xlink="http://www.w3.org/1999/xlink">
<g id="graph0" class="graph" transform="scale(1 1) rotate(0) translate(4 152.5)">
<title>psr::FlowEdgeFunctionCacheNG&lt; ProblemTy, AutoAddZero &gt;</title>
<!-- Node1 -->
<g id="Node000001" class="node">
<title>Node1</title>
<g id="a_Node000001"><a xlink:title=" ">
<polygon fill="#999999" stroke="#666666" points="1022,-53.5 847,-53.5 847,-23.5 1022,-23.5 1022,-53.5"/>
<text text-anchor="start" x="855" y="-41.5" font-family="Helvetica,sans-Serif" font-size="10.00">psr::FlowEdgeFunctionCache</text>
<text text-anchor="middle" x="934.5" y="-30.5" font-family="Helvetica,sans-Serif" font-size="10.00">NG&lt; ProblemTy, AutoAddZero &gt;</text>
</a>
</g>
</g>
<!-- Node2 -->
<g id="Node000002" class="node">
<title>Node2</title>
<g id="a_Node000002"><a xlink:href="classpsr_1_1FlowFunctionCache.html" target="_top" xlink:title=" ">
<polygon fill="white" stroke="#666666" points="810,-83.5 650,-83.5 650,-53.5 810,-53.5 810,-83.5"/>
<text text-anchor="start" x="658" y="-71.5" font-family="Helvetica,sans-Serif" font-size="10.00">psr::FlowFunctionCache</text>
<text text-anchor="middle" x="730" y="-60.5" font-family="Helvetica,sans-Serif" font-size="10.00">&lt; ProblemTy, AutoAddZero &gt;</text>
</a>
</g>
</g>
<!-- Node2&#45;&gt;Node1 -->
<g id="edge1_Node000001_Node000002" class="edge">
<title>Node2&#45;&gt;Node1</title>
<g id="a_edge1_Node000001_Node000002"><a xlink:title=" ">
<path fill="none" stroke="#63b8ff" d="M820.07,-55.3C828.91,-53.99 837.87,-52.67 846.69,-51.36"/>
<polygon fill="#63b8ff" stroke="#63b8ff" points="819.54,-51.84 810.16,-56.77 820.57,-58.77 819.54,-51.84"/>
</a>
</g>
</g>
<!-- Node3 -->
<g id="Node000003" class="node">
<title>Node3</title>
<g id="a_Node000003"><a xlink:title=" ">
<polygon fill="white" stroke="#666666" points="581.5,-148.5 437.5,-148.5 437.5,-118.5 581.5,-118.5 581.5,-148.5"/>
<text text-anchor="start" x="445.5" y="-136.5" font-family="Helvetica,sans-Serif" font-size="10.00">psr::detail::FlowFunction</text>
<text text-anchor="middle" x="509.5" y="-125.5" font-family="Helvetica,sans-Serif" font-size="10.00">CacheBase&lt; ProblemTy &gt;</text>
</a>
</g>
</g>
<!-- Node3&#45;&gt;Node2 -->
<g id="edge2_Node000002_Node000003" class="edge">
<title>Node3&#45;&gt;Node2</title>
<g id="a_edge2_Node000002_Node000003"><a xlink:title=" ">
<path fill="none" stroke="#8b1a1a" d="M589.23,-115.99C597.29,-113.92 605.33,-111.75 613,-109.5 638.93,-101.91 667.56,-91.81 689.89,-83.53"/>
<polygon fill="#8b1a1a" stroke="#8b1a1a" points="588.26,-112.63 579.42,-118.46 589.97,-119.42 588.26,-112.63"/>
</a>
</g>
</g>
<!-- Node4 -->
<g id="Node000004" class="node">
<title>Node4</title>
<g id="a_Node000004"><a xlink:title=" ">
<polygon fill="white" stroke="#666666" points="613,-100 406,-100 406,-37 613,-37 613,-100"/>
<text text-anchor="start" x="414" y="-88" font-family="Helvetica,sans-Serif" font-size="10.00">psr::detail::IntraFlowFunctions</text>
<text text-anchor="start" x="414" y="-77" font-family="Helvetica,sans-Serif" font-size="10.00">Mixin&lt; detail::FlowFunctionCacheBase</text>
<text text-anchor="start" x="414" y="-66" font-family="Helvetica,sans-Serif" font-size="10.00">&lt; ProblemTy &gt;::normal_ff_t, detail</text>
<text text-anchor="start" x="414" y="-55" font-family="Helvetica,sans-Serif" font-size="10.00">::FlowFunctionCacheBase&lt; ProblemTy</text>
<text text-anchor="middle" x="509.5" y="-44" font-family="Helvetica,sans-Serif" font-size="10.00"> &gt;::ctr_ff_t &gt;</text>
</a>
</g>
</g>
<!-- Node4&#45;&gt;Node2 -->
<g id="edge3_Node000002_Node000004" class="edge">
<title>Node4&#45;&gt;Node2</title>
<g id="a_edge3_Node000002_Node000004"><a xlink:title=" ">
<path fill="none" stroke="#8b1a1a" d="M623.23,-68.5C632.27,-68.5 641.27,-68.5 649.99,-68.5"/>
<polygon fill="#8b1a1a" stroke="#8b1a1a" points="623.03,-65 613.03,-68.5 623.03,-72 623.03,-65"/>
</a>
</g>
</g>
<!-- Node5 -->
<g id="Node000005" class="node">
<title>Node5</title>
<g id="a_Node000005"><a xlink:title=" ">
<polygon fill="white" stroke="#666666" points="190,-83.5 0,-83.5 0,-53.5 190,-53.5 190,-83.5"/>
<text text-anchor="start" x="8" y="-71.5" font-family="Helvetica,sans-Serif" font-size="10.00">psr::detail::IntraFlowFunctions</text>
<text text-anchor="middle" x="95" y="-60.5" font-family="Helvetica,sans-Serif" font-size="10.00">Mixin&lt; NormalFFType, CtrFFType &gt;</text>
</a>
</g>
</g>
<!-- Node5&#45;&gt;Node4 -->
<g id="edge4_Node000004_Node000005" class="edge">
<title>Node5&#45;&gt;Node4</title>
<g id="a_edge4_Node000004_Node000005"><a xlink:title=" ">
<path fill="none" stroke="orange" stroke-dasharray="5,2" d="M200.46,-68.5C263.37,-68.5 343.15,-68.5 405.75,-68.5"/>
<polygon fill="orange" stroke="orange" points="200.12,-65 190.12,-68.5 200.12,-72 200.12,-65"/>
</a>
</g>
<text text-anchor="start" x="208" y="-104.5" font-family="Helvetica,sans-Serif" font-size="10.00" fill="grey"> &lt; detail::FlowFunctionCache</text>
<text text-anchor="start" x="208" y="-93.5" font-family="Helvetica,sans-Serif" font-size="10.00" fill="grey">Base&lt; ProblemTy &gt;::normal</text>
<text text-anchor="start" x="208" y="-82.5" font-family="Helvetica,sans-Serif" font-size="10.00" fill="grey">_ff_t, detail::FlowFunctionCacheBase</text>
<text text-anchor="middle" x="298" y="-71.5" font-family="Helvetica,sans-Serif" font-size="10.00" fill="grey">&lt; ProblemTy &gt;::ctr_ff_t &gt;</text>
</g>
<!-- Node6 -->
<g id="Node000006" class="node">
<title>Node6</title>
<g id="a_Node000006"><a xlink:href="classpsr_1_1EdgeFunctionCache.html" target="_top" xlink:title=" ">
<polygon fill="white" stroke="#666666" points="796.5,-30.5 663.5,-30.5 663.5,-0.5 796.5,-0.5 796.5,-30.5"/>
<text text-anchor="start" x="671.5" y="-18.5" font-family="Helvetica,sans-Serif" font-size="10.00">psr::EdgeFunctionCache</text>
<text text-anchor="middle" x="730" y="-7.5" font-family="Helvetica,sans-Serif" font-size="10.00">&lt; ProblemTy &gt;</text>
</a>
</g>
</g>
<!-- Node6&#45;&gt;Node1 -->
<g id="edge5_Node000001_Node000006" class="edge">
<title>Node6&#45;&gt;Node1</title>
<g id="a_edge5_Node000001_Node000006"><a xlink:title=" ">
<path fill="none" stroke="#63b8ff" d="M806.99,-24.13C819.95,-25.6 833.5,-27.14 846.71,-28.64"/>
<polygon fill="#63b8ff" stroke="#63b8ff" points="807.08,-20.62 796.75,-22.97 806.29,-27.57 807.08,-20.62"/>
</a>
</g>
</g>
<!-- Node7 -->
<g id="Node000007" class="node">
<title>Node7</title>
<g id="a_Node000007"><a xlink:href="structpsr_1_1EdgeFunctionCacheStats.html" target="_top" xlink:title=" ">
<polygon fill="white" stroke="#666666" points="588.5,-19 430.5,-19 430.5,0 588.5,0 588.5,-19"/>
<text text-anchor="middle" x="509.5" y="-7" font-family="Helvetica,sans-Serif" font-size="10.00">psr::EdgeFunctionCacheStats</text>
</a>
</g>
</g>
<!-- Node7&#45;&gt;Node6 -->
<g id="edge6_Node000006_Node000007" class="edge">
<title>Node7&#45;&gt;Node6</title>
<g id="a_edge6_Node000006_Node000007"><a xlink:title=" ">
<path fill="none" stroke="#8b1a1a" d="M598.87,-11.93C620.35,-12.52 642.95,-13.14 663.17,-13.69"/>
<polygon fill="#8b1a1a" stroke="#8b1a1a" points="598.86,-8.43 588.77,-11.65 598.67,-15.42 598.86,-8.43"/>
</a>
</g>
</g>
</g>
</svg>
