<?xml version="1.0" encoding="UTF-8" standalone="no"?>
<!DOCTYPE svg PUBLIC "-//W3C//DTD SVG 1.1//EN"
 "http://www.w3.org/Graphics/SVG/1.1/DTD/svg11.dtd">
<!-- Generated by graphviz version 2.43.0 (0)
 -->
<!-- Title: psr::InterMonoFullConstantPropagation Pages: 1 -->
<svg width="1156pt" height="147pt"
 viewBox="0.00 0.00 1156.00 147.00" xmlns="http://www.w3.org/2000/svg" xmlns:xlink="http://www.w3.org/1999/xlink">
<g id="graph0" class="graph" transform="scale(1 1) rotate(0) translate(4 143)">
<title>psr::InterMonoFullConstantPropagation</title>
<!-- Node1 -->
<g id="Node000001" class="node">
<title>Node1</title>
<g id="a_Node000001"><a xlink:title=" ">
<polygon fill="#999999" stroke="#666666" points="1148,-104 1000,-104 1000,-74 1148,-74 1148,-104"/>
<text text-anchor="start" x="1008" y="-92" font-family="Helvetica,sans-Serif" font-size="10.00">psr::InterMonoFullConstant</text>
<text text-anchor="middle" x="1074" y="-81" font-family="Helvetica,sans-Serif" font-size="10.00">Propagation</text>
</a>
</g>
</g>
<!-- Node2 -->
<g id="Node000002" class="node">
<title>Node2</title>
<g id="a_Node000002"><a xlink:href="classpsr_1_1IntraMonoFullConstantPropagation.html" target="_top" xlink:title=" ">
<polygon fill="white" stroke="#666666" points="938.5,-132 790.5,-132 790.5,-102 938.5,-102 938.5,-132"/>
<text text-anchor="start" x="798.5" y="-120" font-family="Helvetica,sans-Serif" font-size="10.00">psr::IntraMonoFullConstant</text>
<text text-anchor="middle" x="864.5" y="-109" font-family="Helvetica,sans-Serif" font-size="10.00">Propagation</text>
</a>
</g>
</g>
<!-- Node2&#45;&gt;Node1 -->
<g id="edge1_Node000001_Node000002" class="edge">
<title>Node2&#45;&gt;Node1</title>
<g id="a_edge1_Node000001_Node000002"><a xlink:title=" ">
<path fill="none" stroke="#63b8ff" d="M949.01,-105.73C965.83,-103.46 983.38,-101.09 999.8,-98.88"/>
<polygon fill="#63b8ff" stroke="#63b8ff" points="948.1,-102.32 938.66,-107.13 949.03,-109.26 948.1,-102.32"/>
</a>
</g>
</g>
<!-- Node3 -->
<g id="Node000003" class="node">
<title>Node3</title>
<g id="a_Node000003"><a xlink:href="classpsr_1_1IntraMonoProblem.html" target="_top" xlink:title=" ">
<polygon fill="white" stroke="#666666" points="546,-137.5 349,-137.5 349,-96.5 546,-96.5 546,-137.5"/>
<text text-anchor="start" x="357" y="-125.5" font-family="Helvetica,sans-Serif" font-size="10.00">psr::IntraMonoProblem</text>
<text text-anchor="start" x="357" y="-114.5" font-family="Helvetica,sans-Serif" font-size="10.00">&lt; IntraMonoFullConstantPropagation</text>
<text text-anchor="middle" x="447.5" y="-103.5" font-family="Helvetica,sans-Serif" font-size="10.00">AnalysisDomain &gt;</text>
</a>
</g>
</g>
<!-- Node3&#45;&gt;Node2 -->
<g id="edge2_Node000002_Node000003" class="edge">
<title>Node3&#45;&gt;Node2</title>
<g id="a_edge2_Node000002_Node000003"><a xlink:title=" ">
<path fill="none" stroke="#63b8ff" d="M556.29,-117C629.87,-117 725.39,-117 790.25,-117"/>
<polygon fill="#63b8ff" stroke="#63b8ff" points="556.06,-113.5 546.06,-117 556.06,-120.5 556.06,-113.5"/>
</a>
</g>
</g>
<!-- Node4 -->
<g id="Node000004" class="node">
<title>Node4</title>
<g id="a_Node000004"><a xlink:href="classpsr_1_1IntraMonoProblem.html" target="_top" xlink:title="The analysis problem interface for intraprocedural monotone problems (solvable by the IntraMonoSolver...">
<polygon fill="white" stroke="#666666" points="129,-132 0,-132 0,-102 129,-102 129,-132"/>
<text text-anchor="start" x="8" y="-120" font-family="Helvetica,sans-Serif" font-size="10.00">psr::IntraMonoProblem</text>
<text text-anchor="middle" x="64.5" y="-109" font-family="Helvetica,sans-Serif" font-size="10.00">&lt; AnalysisDomainTy &gt;</text>
</a>
</g>
</g>
<!-- Node4&#45;&gt;Node3 -->
<g id="edge3_Node000003_Node000004" class="edge">
<title>Node4&#45;&gt;Node3</title>
<g id="a_edge3_Node000003_Node000004"><a xlink:title=" ">
<path fill="none" stroke="orange" stroke-dasharray="5,2" d="M139.37,-117C199.07,-117 283.59,-117 348.86,-117"/>
<polygon fill="orange" stroke="orange" points="139.27,-113.5 129.27,-117 139.27,-120.5 139.27,-113.5"/>
</a>
</g>
<text text-anchor="start" x="147" y="-131" font-family="Helvetica,sans-Serif" font-size="10.00" fill="grey"> &lt; IntraMonoFullConstantPropagation</text>
<text text-anchor="middle" x="239" y="-120" font-family="Helvetica,sans-Serif" font-size="10.00" fill="grey">AnalysisDomain &gt;</text>
</g>
<!-- Node5 -->
<g id="Node000005" class="node">
<title>Node5</title>
<g id="a_Node000005"><a xlink:href="classpsr_1_1InterMonoProblem.html" target="_top" xlink:title=" ">
<polygon fill="white" stroke="#666666" points="963,-83.5 766,-83.5 766,-42.5 963,-42.5 963,-83.5"/>
<text text-anchor="start" x="774" y="-71.5" font-family="Helvetica,sans-Serif" font-size="10.00">psr::InterMonoProblem</text>
<text text-anchor="start" x="774" y="-60.5" font-family="Helvetica,sans-Serif" font-size="10.00">&lt; IntraMonoFullConstantPropagation</text>
<text text-anchor="middle" x="864.5" y="-49.5" font-family="Helvetica,sans-Serif" font-size="10.00">AnalysisDomain &gt;</text>
</a>
</g>
</g>
<!-- Node5&#45;&gt;Node1 -->
<g id="edge4_Node000001_Node000005" class="edge">
<title>Node5&#45;&gt;Node1</title>
<g id="a_edge4_Node000001_Node000005"><a xlink:title=" ">
<path fill="none" stroke="#63b8ff" d="M973.27,-76.5C982.22,-77.62 991.12,-78.74 999.72,-79.82"/>
<polygon fill="#63b8ff" stroke="#63b8ff" points="973.53,-73.01 963.17,-75.24 972.66,-79.95 973.53,-73.01"/>
</a>
</g>
</g>
<!-- Node6 -->
<g id="Node000006" class="node">
<title>Node6</title>
<g id="a_Node000006"><a xlink:href="classpsr_1_1IntraMonoProblem.html" target="_top" xlink:title="The analysis problem interface for intraprocedural monotone problems (solvable by the IntraMonoSolver...">
<polygon fill="white" stroke="#666666" points="512,-78 383,-78 383,-48 512,-48 512,-78"/>
<text text-anchor="start" x="391" y="-66" font-family="Helvetica,sans-Serif" font-size="10.00">psr::IntraMonoProblem</text>
<text text-anchor="middle" x="447.5" y="-55" font-family="Helvetica,sans-Serif" font-size="10.00">&lt; AnalysisDomainTy &gt;</text>
</a>
</g>
</g>
<!-- Node6&#45;&gt;Node5 -->
<g id="edge5_Node000005_Node000006" class="edge">
<title>Node6&#45;&gt;Node5</title>
<g id="a_edge5_Node000005_Node000006"><a xlink:title=" ">
<path fill="none" stroke="#63b8ff" d="M522.62,-63C590.51,-63 691.46,-63 765.89,-63"/>
<polygon fill="#63b8ff" stroke="#63b8ff" points="522.43,-59.5 512.43,-63 522.43,-66.5 522.43,-59.5"/>
</a>
</g>
</g>
<!-- Node7 -->
<g id="Node000007" class="node">
<title>Node7</title>
<g id="a_Node000007"><a xlink:href="classpsr_1_1InterMonoProblem.html" target="_top" xlink:title="The analysis problem interface for interprocedural monotone problems (solvable by the InterMonoSolver...">
<polygon fill="white" stroke="#666666" points="512,-30 383,-30 383,0 512,0 512,-30"/>
<text text-anchor="start" x="391" y="-18" font-family="Helvetica,sans-Serif" font-size="10.00">psr::InterMonoProblem</text>
<text text-anchor="middle" x="447.5" y="-7" font-family="Helvetica,sans-Serif" font-size="10.00">&lt; AnalysisDomainTy &gt;</text>
</a>
</g>
</g>
<!-- Node7&#45;&gt;Node5 -->
<g id="edge6_Node000005_Node000007" class="edge">
<title>Node7&#45;&gt;Node5</title>
<g id="a_edge6_Node000005_Node000007"><a xlink:title=" ">
<path fill="none" stroke="orange" stroke-dasharray="5,2" d="M522.47,-17.38C583.29,-20.07 671.58,-25.66 748,-37 758.06,-38.49 768.55,-40.38 778.93,-42.46"/>
<polygon fill="orange" stroke="orange" points="522.33,-13.87 512.19,-16.95 522.04,-20.87 522.33,-13.87"/>
</a>
</g>
<text text-anchor="start" x="564" y="-51" font-family="Helvetica,sans-Serif" font-size="10.00" fill="grey"> &lt; IntraMonoFullConstantPropagation</text>
<text text-anchor="middle" x="656" y="-40" font-family="Helvetica,sans-Serif" font-size="10.00" fill="grey">AnalysisDomain &gt;</text>
</g>
<!-- Node8 -->
<g id="Node000008" class="node">
<title>Node8</title>
<g id="a_Node000008"><a xlink:href="classpsr_1_1IntraMonoProblem.html" target="_top" xlink:title="The analysis problem interface for intraprocedural monotone problems (solvable by the IntraMonoSolver...">
<polygon fill="white" stroke="#666666" points="129,-30 0,-30 0,0 129,0 129,-30"/>
<text text-anchor="start" x="8" y="-18" font-family="Helvetica,sans-Serif" font-size="10.00">psr::IntraMonoProblem</text>
<text text-anchor="middle" x="64.5" y="-7" font-family="Helvetica,sans-Serif" font-size="10.00">&lt; AnalysisDomainTy &gt;</text>
</a>
</g>
</g>
<!-- Node8&#45;&gt;Node7 -->
<g id="edge7_Node000007_Node000008" class="edge">
<title>Node8&#45;&gt;Node7</title>
<g id="a_edge7_Node000007_Node000008"><a xlink:title=" ">
<path fill="none" stroke="#63b8ff" d="M139.45,-15C210.18,-15 315.75,-15 382.84,-15"/>
<polygon fill="#63b8ff" stroke="#63b8ff" points="139.27,-11.5 129.27,-15 139.27,-18.5 139.27,-11.5"/>
</a>
</g>
</g>
</g>
</svg>
