<?xml version="1.0" encoding="UTF-8" standalone="no"?>
<!DOCTYPE svg PUBLIC "-//W3C//DTD SVG 1.1//EN"
 "http://www.w3.org/Graphics/SVG/1.1/DTD/svg11.dtd">
<!-- Generated by graphviz version 2.43.0 (0)
 -->
<!-- Title: psr::OwningIdBasedSolverResults&lt; N, D, L &gt; Pages: 1 -->
<svg width="719pt" height="51pt"
 viewBox="0.00 0.00 719.00 50.50" xmlns="http://www.w3.org/2000/svg" xmlns:xlink="http://www.w3.org/1999/xlink">
<g id="graph0" class="graph" transform="scale(1 1) rotate(0) translate(4 46.5)">
<title>psr::OwningIdBasedSolverResults&lt; N, D, L &gt;</title>
<!-- Node1 -->
<g id="Node000001" class="node">
<title>Node1</title>
<g id="a_Node000001"><a xlink:title=" ">
<polygon fill="#999999" stroke="#666666" points="711,-35.5 567,-35.5 567,-5.5 711,-5.5 711,-35.5"/>
<text text-anchor="start" x="575" y="-23.5" font-family="Helvetica,sans-Serif" font-size="10.00">psr::OwningIdBasedSolver</text>
<text text-anchor="middle" x="639" y="-12.5" font-family="Helvetica,sans-Serif" font-size="10.00">Results&lt; N, D, L &gt;</text>
</a>
</g>
</g>
<!-- Node2 -->
<g id="Node000002" class="node">
<title>Node2</title>
<g id="a_Node000002"><a xlink:title=" ">
<polygon fill="white" stroke="#666666" points="530,-41 336,-41 336,0 530,0 530,-41"/>
<text text-anchor="start" x="344" y="-29" font-family="Helvetica,sans-Serif" font-size="10.00">psr::detail::IdBasedSolver</text>
<text text-anchor="start" x="344" y="-18" font-family="Helvetica,sans-Serif" font-size="10.00">ResultsBase&lt; OwningIdBasedSolver</text>
<text text-anchor="middle" x="433" y="-7" font-family="Helvetica,sans-Serif" font-size="10.00">Results&lt; N, D, L &gt;, N, D, L &gt;</text>
</a>
</g>
</g>
<!-- Node2&#45;&gt;Node1 -->
<g id="edge1_Node000001_Node000002" class="edge">
<title>Node2&#45;&gt;Node1</title>
<g id="a_edge1_Node000001_Node000002"><a xlink:title=" ">
<path fill="none" stroke="#63b8ff" d="M540.21,-20.5C549.23,-20.5 558.2,-20.5 566.85,-20.5"/>
<polygon fill="#63b8ff" stroke="#63b8ff" points="540.03,-17 530.03,-20.5 540.03,-24 540.03,-17"/>
</a>
</g>
</g>
<!-- Node3 -->
<g id="Node000003" class="node">
<title>Node3</title>
<g id="a_Node000003"><a xlink:title=" ">
<polygon fill="white" stroke="#666666" points="143,-41 0,-41 0,0 143,0 143,-41"/>
<text text-anchor="start" x="8" y="-29" font-family="Helvetica,sans-Serif" font-size="10.00">psr::detail::IdBasedSolver</text>
<text text-anchor="start" x="8" y="-18" font-family="Helvetica,sans-Serif" font-size="10.00">ResultsBase&lt; Derived, N,</text>
<text text-anchor="middle" x="71.5" y="-7" font-family="Helvetica,sans-Serif" font-size="10.00"> D, L &gt;</text>
</a>
</g>
</g>
<!-- Node3&#45;&gt;Node2 -->
<g id="edge2_Node000002_Node000003" class="edge">
<title>Node3&#45;&gt;Node2</title>
<g id="a_edge2_Node000002_Node000003"><a xlink:title=" ">
<path fill="none" stroke="orange" stroke-dasharray="5,2" d="M153.32,-20.5C207.36,-20.5 278.73,-20.5 335.71,-20.5"/>
<polygon fill="orange" stroke="orange" points="153.1,-17 143.1,-20.5 153.1,-24 153.1,-17"/>
</a>
</g>
<text text-anchor="start" x="161" y="-34.5" font-family="Helvetica,sans-Serif" font-size="10.00" fill="grey"> &lt; OwningIdBasedSolverResults</text>
<text text-anchor="middle" x="239.5" y="-23.5" font-family="Helvetica,sans-Serif" font-size="10.00" fill="grey">&lt; N, D, L &gt;, N, D, L &gt;</text>
</g>
</g>
</svg>
