<?xml version="1.0" encoding="UTF-8" standalone="no"?>
<!DOCTYPE svg PUBLIC "-//W3C//DTD SVG 1.1//EN"
 "http://www.w3.org/Graphics/SVG/1.1/DTD/svg11.dtd">
<!-- Generated by graphviz version 2.43.0 (0)
 -->
<!-- Title: psr::XTaint::IDEExtendedTaintAnalysis Pages: 1 -->
<svg width="1696pt" height="264pt"
 viewBox="0.00 0.00 1696.00 264.00" xmlns="http://www.w3.org/2000/svg" xmlns:xlink="http://www.w3.org/1999/xlink">
<g id="graph0" class="graph" transform="scale(1 1) rotate(0) translate(4 260)">
<title>psr::XTaint::IDEExtendedTaintAnalysis</title>
<!-- Node1 -->
<g id="Node000001" class="node">
<title>Node1</title>
<g id="a_Node000001"><a xlink:title="An IDE&#45;based taint analysis that uses k&#45;limited field&#45;access paths to achieve field sensitivity.">
<polygon fill="#999999" stroke="#666666" points="1453,-111 1317,-111 1317,-81 1453,-81 1453,-111"/>
<text text-anchor="start" x="1325" y="-99" font-family="Helvetica,sans-Serif" font-size="10.00">psr::XTaint::IDEExtended</text>
<text text-anchor="middle" x="1385" y="-88" font-family="Helvetica,sans-Serif" font-size="10.00">TaintAnalysis</text>
</a>
</g>
</g>
<!-- Node12 -->
<g id="Node000012" class="node">
<title>Node12</title>
<g id="a_Node000012"><a xlink:href="classpsr_1_1IDEExtendedTaintAnalysis.html" target="_top" xlink:title=" ">
<polygon fill="white" stroke="#666666" points="1688,-111 1490,-111 1490,-81 1688,-81 1688,-111"/>
<text text-anchor="start" x="1498" y="-99" font-family="Helvetica,sans-Serif" font-size="10.00">psr::IDEExtendedTaintAnalysis</text>
<text text-anchor="middle" x="1589" y="-88" font-family="Helvetica,sans-Serif" font-size="10.00">&lt; BOUND, USE_STRONG_UPDATES &gt;</text>
</a>
</g>
</g>
<!-- Node1&#45;&gt;Node12 -->
<g id="edge16_Node000001_Node000012" class="edge">
<title>Node1&#45;&gt;Node12</title>
<g id="a_edge16_Node000001_Node000012"><a xlink:title=" ">
<path fill="none" stroke="#63b8ff" d="M1463.29,-96C1471.93,-96 1480.83,-96 1489.7,-96"/>
<polygon fill="#63b8ff" stroke="#63b8ff" points="1463.26,-92.5 1453.26,-96 1463.26,-99.5 1463.26,-92.5"/>
</a>
</g>
</g>
<!-- Node2 -->
<g id="Node000002" class="node">
<title>Node2</title>
<g id="a_Node000002"><a xlink:href="classpsr_1_1IDETabulationProblem.html" target="_top" xlink:title=" ">
<polygon fill="white" stroke="#666666" points="1280,-142 1076,-142 1076,-112 1280,-112 1280,-142"/>
<text text-anchor="start" x="1084" y="-130" font-family="Helvetica,sans-Serif" font-size="10.00">psr::IDETabulationProblem</text>
<text text-anchor="middle" x="1178" y="-119" font-family="Helvetica,sans-Serif" font-size="10.00">&lt; IDEExtendedTaintAnalysisDomain &gt;</text>
</a>
</g>
</g>
<!-- Node2&#45;&gt;Node1 -->
<g id="edge1_Node000001_Node000002" class="edge">
<title>Node2&#45;&gt;Node1</title>
<g id="a_edge1_Node000001_Node000002"><a xlink:title=" ">
<path fill="none" stroke="#63b8ff" d="M1288.31,-110.47C1298.01,-109 1307.62,-107.55 1316.8,-106.16"/>
<polygon fill="#63b8ff" stroke="#63b8ff" points="1287.56,-107.04 1278.2,-112 1288.61,-113.96 1287.56,-107.04"/>
</a>
</g>
</g>
<!-- Node3 -->
<g id="Node000003" class="node">
<title>Node3</title>
<g id="a_Node000003"><a xlink:href="classpsr_1_1FlowFunctions.html" target="_top" xlink:title=" ">
<polygon fill="white" stroke="#666666" points="641,-203.5 520,-203.5 520,-162.5 641,-162.5 641,-203.5"/>
<text text-anchor="start" x="528" y="-191.5" font-family="Helvetica,sans-Serif" font-size="10.00">psr::FlowFunctions</text>
<text text-anchor="start" x="528" y="-180.5" font-family="Helvetica,sans-Serif" font-size="10.00">&lt; AnalysisDomainTy,</text>
<text text-anchor="middle" x="580.5" y="-169.5" font-family="Helvetica,sans-Serif" font-size="10.00"> Container &gt;</text>
</a>
</g>
</g>
<!-- Node3&#45;&gt;Node2 -->
<g id="edge2_Node000002_Node000003" class="edge">
<title>Node3&#45;&gt;Node2</title>
<g id="a_edge2_Node000002_Node000003"><a xlink:title=" ">
<path fill="none" stroke="#63b8ff" d="M651.41,-188.07C744.96,-193.28 915.61,-197.24 1058,-170 1088.1,-164.24 1120.73,-151.99 1144.2,-142.03"/>
<polygon fill="#63b8ff" stroke="#63b8ff" points="651.4,-184.57 641.22,-187.48 651,-191.56 651.4,-184.57"/>
</a>
</g>
</g>
<!-- Node10 -->
<g id="Node000010" class="node">
<title>Node10</title>
<g id="a_Node000010"><a xlink:href="classpsr_1_1IDETabulationProblem.html" target="_top" xlink:title="The analysis problem interface for IDE problems (solvable by the IDESolver). Create a subclass from t...">
<polygon fill="white" stroke="#666666" points="898,-166 716,-166 716,-136 898,-136 898,-166"/>
<text text-anchor="start" x="724" y="-154" font-family="Helvetica,sans-Serif" font-size="10.00">psr::IDETabulationProblem</text>
<text text-anchor="middle" x="807" y="-143" font-family="Helvetica,sans-Serif" font-size="10.00">&lt; AnalysisDomainTy, Container &gt;</text>
</a>
</g>
</g>
<!-- Node3&#45;&gt;Node10 -->
<g id="edge10_Node000010_Node000003" class="edge">
<title>Node3&#45;&gt;Node10</title>
<g id="a_edge10_Node000010_Node000003"><a xlink:title=" ">
<path fill="none" stroke="#63b8ff" d="M651.21,-173.06C671.6,-170.16 694.2,-166.94 715.68,-163.87"/>
<polygon fill="#63b8ff" stroke="#63b8ff" points="650.48,-169.63 641.07,-174.51 651.47,-176.56 650.48,-169.63"/>
</a>
</g>
</g>
<!-- Node4 -->
<g id="Node000004" class="node">
<title>Node4</title>
<g id="a_Node000004"><a xlink:href="classpsr_1_1FlowFunctionTemplates.html" target="_top" xlink:title=" ">
<polygon fill="white" stroke="#666666" points="445,-203.5 293,-203.5 293,-162.5 445,-162.5 445,-203.5"/>
<text text-anchor="start" x="301" y="-191.5" font-family="Helvetica,sans-Serif" font-size="10.00">psr::FlowFunctionTemplates</text>
<text text-anchor="start" x="301" y="-180.5" font-family="Helvetica,sans-Serif" font-size="10.00">&lt; AnalysisDomainTy::d_t,</text>
<text text-anchor="middle" x="369" y="-169.5" font-family="Helvetica,sans-Serif" font-size="10.00"> Container &gt;</text>
</a>
</g>
</g>
<!-- Node4&#45;&gt;Node3 -->
<g id="edge3_Node000003_Node000004" class="edge">
<title>Node4&#45;&gt;Node3</title>
<g id="a_edge3_Node000003_Node000004"><a xlink:title=" ">
<path fill="none" stroke="darkgreen" d="M455.22,-183C476.87,-183 499.67,-183 519.75,-183"/>
<polygon fill="darkgreen" stroke="darkgreen" points="455.04,-179.5 445.04,-183 455.04,-186.5 455.04,-179.5"/>
</a>
</g>
</g>
<!-- Node5 -->
<g id="Node000005" class="node">
<title>Node5</title>
<g id="a_Node000005"><a xlink:href="classpsr_1_1FlowFunctionTemplates.html" target="_top" xlink:title=" ">
<polygon fill="white" stroke="#666666" points="152,-198 0,-198 0,-168 152,-168 152,-198"/>
<text text-anchor="start" x="8" y="-186" font-family="Helvetica,sans-Serif" font-size="10.00">psr::FlowFunctionTemplates</text>
<text text-anchor="middle" x="76" y="-175" font-family="Helvetica,sans-Serif" font-size="10.00">&lt; D, Container &gt;</text>
</a>
</g>
</g>
<!-- Node5&#45;&gt;Node4 -->
<g id="edge4_Node000004_Node000005" class="edge">
<title>Node5&#45;&gt;Node4</title>
<g id="a_edge4_Node000004_Node000005"><a xlink:title=" ">
<path fill="none" stroke="orange" stroke-dasharray="5,2" d="M162.39,-183C203.79,-183 253.06,-183 293,-183"/>
<polygon fill="orange" stroke="orange" points="162.32,-179.5 152.32,-183 162.32,-186.5 162.32,-179.5"/>
</a>
</g>
<text text-anchor="start" x="170" y="-197" font-family="Helvetica,sans-Serif" font-size="10.00" fill="grey"> &lt; AnalysisDomainTy</text>
<text text-anchor="middle" x="222.5" y="-186" font-family="Helvetica,sans-Serif" font-size="10.00" fill="grey">::d_t, Container &gt;</text>
</g>
<!-- Node6 -->
<g id="Node000006" class="node">
<title>Node6</title>
<g id="a_Node000006"><a xlink:href="classpsr_1_1EdgeFunctions.html" target="_top" xlink:title=" ">
<polygon fill="white" stroke="#666666" points="645,-256 516,-256 516,-226 645,-226 645,-256"/>
<text text-anchor="start" x="524" y="-244" font-family="Helvetica,sans-Serif" font-size="10.00">psr::EdgeFunctions</text>
<text text-anchor="middle" x="580.5" y="-233" font-family="Helvetica,sans-Serif" font-size="10.00">&lt; AnalysisDomainTy &gt;</text>
</a>
</g>
</g>
<!-- Node6&#45;&gt;Node2 -->
<g id="edge5_Node000002_Node000006" class="edge">
<title>Node6&#45;&gt;Node2</title>
<g id="a_edge5_Node000002_Node000006"><a xlink:title=" ">
<path fill="none" stroke="#63b8ff" d="M655.29,-242.69C750.54,-242.82 920.39,-236.08 1058,-193 1094.75,-181.5 1132.94,-157.88 1155.85,-142.25"/>
<polygon fill="#63b8ff" stroke="#63b8ff" points="655.19,-239.19 645.18,-242.65 655.16,-246.19 655.19,-239.19"/>
</a>
</g>
</g>
<!-- Node6&#45;&gt;Node10 -->
<g id="edge11_Node000010_Node000006" class="edge">
<title>Node6&#45;&gt;Node10</title>
<g id="a_edge11_Node000010_Node000006"><a xlink:title=" ">
<path fill="none" stroke="#63b8ff" d="M647.41,-222.95C658.07,-219.59 668.91,-215.9 679,-212 713.91,-198.52 752.46,-179.37 777.82,-166.13"/>
<polygon fill="#63b8ff" stroke="#63b8ff" points="646.22,-219.65 637.7,-225.94 648.29,-226.34 646.22,-219.65"/>
</a>
</g>
</g>
<!-- Node7 -->
<g id="Node000007" class="node">
<title>Node7</title>
<g id="a_Node000007"><a xlink:href="classpsr_1_1JoinLattice_3_01AnalysisDomainTy_01_4.html" target="_top" xlink:title=" ">
<polygon fill="white" stroke="#666666" points="651,-30 510,-30 510,0 651,0 651,-30"/>
<text text-anchor="start" x="518" y="-18" font-family="Helvetica,sans-Serif" font-size="10.00">psr::JoinLattice&lt; Analysis</text>
<text text-anchor="middle" x="580.5" y="-7" font-family="Helvetica,sans-Serif" font-size="10.00">DomainTy &gt;</text>
</a>
</g>
</g>
<!-- Node7&#45;&gt;Node2 -->
<g id="edge6_Node000002_Node000007" class="edge">
<title>Node7&#45;&gt;Node2</title>
<g id="a_edge6_Node000002_Node000007"><a xlink:title=" ">
<path fill="none" stroke="#63b8ff" d="M661.27,-27.65C756.12,-43.01 919.07,-70.43 1058,-99 1076.92,-102.89 1097.42,-107.55 1116,-111.95"/>
<polygon fill="#63b8ff" stroke="#63b8ff" points="661.61,-24.15 651.18,-26.01 660.49,-31.07 661.61,-24.15"/>
</a>
</g>
</g>
<!-- Node7&#45;&gt;Node10 -->
<g id="edge12_Node000010_Node000007" class="edge">
<title>Node7&#45;&gt;Node10</title>
<g id="a_edge12_Node000010_Node000007"><a xlink:title=" ">
<path fill="none" stroke="#63b8ff" d="M639.48,-33.74C652.81,-38.93 666.68,-45.07 679,-52 722.37,-76.4 766.83,-114.73 789.89,-135.82"/>
<polygon fill="#63b8ff" stroke="#63b8ff" points="640.49,-30.38 629.9,-30.12 638.02,-36.93 640.49,-30.38"/>
</a>
</g>
</g>
<!-- Node8 -->
<g id="Node000008" class="node">
<title>Node8</title>
<g id="a_Node000008"><a xlink:href="classpsr_1_1SemiRing.html" target="_top" xlink:title=" ">
<polygon fill="white" stroke="#666666" points="679,-80.5 482,-80.5 482,-61.5 679,-61.5 679,-80.5"/>
<text text-anchor="middle" x="580.5" y="-68.5" font-family="Helvetica,sans-Serif" font-size="10.00">psr::SemiRing&lt; AnalysisDomainTy &gt;</text>
</a>
</g>
</g>
<!-- Node8&#45;&gt;Node2 -->
<g id="edge7_Node000002_Node000008" class="edge">
<title>Node8&#45;&gt;Node2</title>
<g id="a_edge7_Node000002_Node000008"><a xlink:title=" ">
<path fill="none" stroke="#63b8ff" d="M689.28,-81.14C799.17,-91.47 968.34,-107.38 1075.79,-117.48"/>
<polygon fill="#63b8ff" stroke="#63b8ff" points="689.45,-77.64 679.17,-80.18 688.8,-84.61 689.45,-77.64"/>
</a>
</g>
</g>
<!-- Node8&#45;&gt;Node10 -->
<g id="edge13_Node000010_Node000008" class="edge">
<title>Node8&#45;&gt;Node10</title>
<g id="a_edge13_Node000010_Node000008"><a xlink:title=" ">
<path fill="none" stroke="#63b8ff" d="M632.4,-83.12C647.53,-87.11 664.05,-91.86 679,-97 712.08,-108.38 748.73,-124.34 774.13,-135.96"/>
<polygon fill="#63b8ff" stroke="#63b8ff" points="633.24,-79.72 622.68,-80.61 631.49,-86.5 633.24,-79.72"/>
</a>
</g>
</g>
<!-- Node9 -->
<g id="Node000009" class="node">
<title>Node9</title>
<g id="a_Node000009"><a xlink:href="classpsr_1_1AllTopFnProvider_3_01AnalysisDomainTy_01_4.html" target="_top" xlink:title=" ">
<polygon fill="white" stroke="#666666" points="645,-136 516,-136 516,-106 645,-106 645,-136"/>
<text text-anchor="start" x="524" y="-124" font-family="Helvetica,sans-Serif" font-size="10.00">psr::AllTopFnProvider</text>
<text text-anchor="middle" x="580.5" y="-113" font-family="Helvetica,sans-Serif" font-size="10.00">&lt; AnalysisDomainTy &gt;</text>
</a>
</g>
</g>
<!-- Node9&#45;&gt;Node2 -->
<g id="edge8_Node000002_Node000009" class="edge">
<title>Node9&#45;&gt;Node2</title>
<g id="a_edge8_Node000002_Node000009"><a xlink:title=" ">
<path fill="none" stroke="#63b8ff" d="M655.51,-121.75C761.46,-122.81 956.69,-124.78 1075.88,-125.98"/>
<polygon fill="#63b8ff" stroke="#63b8ff" points="655.26,-118.24 645.23,-121.64 655.19,-125.24 655.26,-118.24"/>
</a>
</g>
</g>
<!-- Node9&#45;&gt;Node10 -->
<g id="edge14_Node000010_Node000009" class="edge">
<title>Node9&#45;&gt;Node10</title>
<g id="a_edge14_Node000010_Node000009"><a xlink:title=" ">
<path fill="none" stroke="#63b8ff" d="M655.18,-130.85C674.52,-133.43 695.61,-136.25 715.71,-138.93"/>
<polygon fill="#63b8ff" stroke="#63b8ff" points="655.61,-127.37 645.23,-129.52 654.68,-134.31 655.61,-127.37"/>
</a>
</g>
</g>
<!-- Node10&#45;&gt;Node2 -->
<g id="edge9_Node000002_Node000010" class="edge">
<title>Node10&#45;&gt;Node2</title>
<g id="a_edge9_Node000002_Node000010"><a xlink:title=" ">
<path fill="none" stroke="orange" stroke-dasharray="5,2" d="M908.51,-144.46C960.53,-141.08 1023.87,-136.96 1075.96,-133.57"/>
<polygon fill="orange" stroke="orange" points="908.02,-140.99 898.27,-145.13 908.47,-147.97 908.02,-140.99"/>
</a>
</g>
<text text-anchor="start" x="916" y="-158" font-family="Helvetica,sans-Serif" font-size="10.00" fill="grey"> &lt; IDEExtendedTaintAnalysis</text>
<text text-anchor="middle" x="987" y="-147" font-family="Helvetica,sans-Serif" font-size="10.00" fill="grey">Domain &gt;</text>
</g>
<!-- Node11 -->
<g id="Node000011" class="node">
<title>Node11</title>
<g id="a_Node000011"><a xlink:href="classpsr_1_1XTaint_1_1AnalysisBase.html" target="_top" xlink:title=" ">
<polygon fill="white" stroke="#666666" points="1247.5,-93.5 1108.5,-93.5 1108.5,-74.5 1247.5,-74.5 1247.5,-93.5"/>
<text text-anchor="middle" x="1178" y="-81.5" font-family="Helvetica,sans-Serif" font-size="10.00">psr::XTaint::AnalysisBase</text>
</a>
</g>
</g>
<!-- Node11&#45;&gt;Node1 -->
<g id="edge15_Node000001_Node000011" class="edge">
<title>Node11&#45;&gt;Node1</title>
<g id="a_edge15_Node000001_Node000011"><a xlink:title=" ">
<path fill="none" stroke="#63b8ff" d="M1257.64,-88.6C1277.19,-89.75 1297.97,-90.96 1316.91,-92.07"/>
<polygon fill="#63b8ff" stroke="#63b8ff" points="1257.73,-85.1 1247.55,-88.01 1257.33,-92.09 1257.73,-85.1"/>
</a>
</g>
</g>
</g>
</svg>
