<?xml version="1.0" encoding="UTF-8" standalone="no"?>
<!DOCTYPE svg PUBLIC "-//W3C//DTD SVG 1.1//EN"
 "http://www.w3.org/Graphics/SVG/1.1/DTD/svg11.dtd">
<!-- Generated by graphviz version 2.43.0 (0)
 -->
<!-- Title: psr::OwningSolverResults&lt; N, D, L &gt; Pages: 1 -->
<svg width="204pt" height="204pt"
 viewBox="0.00 0.00 203.50 204.00" xmlns="http://www.w3.org/2000/svg" xmlns:xlink="http://www.w3.org/1999/xlink">
<g id="graph0" class="graph" transform="scale(1 1) rotate(0) translate(4 200)">
<title>psr::OwningSolverResults&lt; N, D, L &gt;</title>
<!-- Node1 -->
<g id="Node000001" class="node">
<title>Node1</title>
<g id="a_Node000001"><a xlink:title=" ">
<polygon fill="#999999" stroke="#666666" points="148,-30 7,-30 7,0 148,0 148,-30"/>
<text text-anchor="start" x="15" y="-18" font-family="Helvetica,sans-Serif" font-size="10.00">psr::OwningSolverResults</text>
<text text-anchor="middle" x="77.5" y="-7" font-family="Helvetica,sans-Serif" font-size="10.00">&lt; N, D, L &gt;</text>
</a>
</g>
</g>
<!-- Node2 -->
<g id="Node000002" class="node">
<title>Node2</title>
<g id="a_Node000002"><a xlink:title=" ">
<polygon fill="white" stroke="#666666" points="155,-108 0,-108 0,-67 155,-67 155,-108"/>
<text text-anchor="start" x="8" y="-96" font-family="Helvetica,sans-Serif" font-size="10.00">psr::detail::SolverResults</text>
<text text-anchor="start" x="8" y="-85" font-family="Helvetica,sans-Serif" font-size="10.00">Base&lt; OwningSolverResults</text>
<text text-anchor="middle" x="77.5" y="-74" font-family="Helvetica,sans-Serif" font-size="10.00">&lt; N, D, L &gt;, N, D, L &gt;</text>
</a>
</g>
</g>
<!-- Node2&#45;&gt;Node1 -->
<g id="edge1_Node000001_Node000002" class="edge">
<title>Node2&#45;&gt;Node1</title>
<g id="a_edge1_Node000001_Node000002"><a xlink:title=" ">
<path fill="none" stroke="#63b8ff" d="M77.5,-56.58C77.5,-47.51 77.5,-37.95 77.5,-30.39"/>
<polygon fill="#63b8ff" stroke="#63b8ff" points="74,-56.86 77.5,-66.86 81,-56.86 74,-56.86"/>
</a>
</g>
</g>
<!-- Node3 -->
<g id="Node000003" class="node">
<title>Node3</title>
<g id="a_Node000003"><a xlink:title=" ">
<polygon fill="white" stroke="#666666" points="147.5,-196 7.5,-196 7.5,-166 147.5,-166 147.5,-196"/>
<text text-anchor="start" x="15.5" y="-184" font-family="Helvetica,sans-Serif" font-size="10.00">psr::detail::SolverResults</text>
<text text-anchor="middle" x="77.5" y="-173" font-family="Helvetica,sans-Serif" font-size="10.00">Base&lt; Derived, N, D, L &gt;</text>
</a>
</g>
</g>
<!-- Node3&#45;&gt;Node2 -->
<g id="edge2_Node000002_Node000003" class="edge">
<title>Node3&#45;&gt;Node2</title>
<g id="a_edge2_Node000002_Node000003"><a xlink:title=" ">
<path fill="none" stroke="orange" stroke-dasharray="5,2" d="M77.5,-155.69C77.5,-140.82 77.5,-122.05 77.5,-108.13"/>
<polygon fill="orange" stroke="orange" points="74,-155.7 77.5,-165.7 81,-155.7 74,-155.7"/>
</a>
</g>
<text text-anchor="start" x="77.5" y="-140" font-family="Helvetica,sans-Serif" font-size="10.00" fill="grey"> &lt; OwningSolverResults</text>
<text text-anchor="middle" x="136.5" y="-129" font-family="Helvetica,sans-Serif" font-size="10.00" fill="grey">&lt; N, D, L &gt;, N, D, L &gt;</text>
</g>
</g>
</svg>
