<?xml version="1.0" encoding="UTF-8" standalone="no"?>
<!DOCTYPE svg PUBLIC "-//W3C//DTD SVG 1.1//EN"
 "http://www.w3.org/Graphics/SVG/1.1/DTD/svg11.dtd">
<!-- Generated by graphviz version 2.43.0 (0)
 -->
<!-- Title: psr::AllTopFnProvider&lt; AnalysisDomainTy &gt; Pages: 1 -->
<svg width="1113pt" height="1625pt"
 viewBox="0.00 0.00 1113.00 1625.03" xmlns="http://www.w3.org/2000/svg" xmlns:xlink="http://www.w3.org/1999/xlink">
<g id="graph0" class="graph" transform="scale(1 1) rotate(0) translate(4 1621.03)">
<title>psr::AllTopFnProvider&lt; AnalysisDomainTy &gt;</title>
<!-- Node1 -->
<g id="Node000001" class="node">
<title>Node1</title>
<g id="a_Node000001"><a xlink:title=" ">
<polygon fill="#999999" stroke="#666666" points="129,-802.53 0,-802.53 0,-772.53 129,-772.53 129,-802.53"/>
<text text-anchor="start" x="8" y="-790.53" font-family="Helvetica,sans-Serif" font-size="10.00">psr::AllTopFnProvider</text>
<text text-anchor="middle" x="64.5" y="-779.53" font-family="Helvetica,sans-Serif" font-size="10.00">&lt; AnalysisDomainTy &gt;</text>
</a>
</g>
</g>
<!-- Node2 -->
<g id="Node000002" class="node">
<title>Node2</title>
<g id="a_Node000002"><a xlink:href="classpsr_1_1IDETabulationProblem.html" target="_top" xlink:title=" ">
<polygon fill="white" stroke="#666666" points="635.5,-1617.03 422.5,-1617.03 422.5,-1554.03 635.5,-1554.03 635.5,-1617.03"/>
<text text-anchor="start" x="430.5" y="-1605.03" font-family="Helvetica,sans-Serif" font-size="10.00">psr::IDETabulationProblem</text>
<text text-anchor="start" x="430.5" y="-1594.03" font-family="Helvetica,sans-Serif" font-size="10.00">&lt; WithBinaryValueDomain</text>
<text text-anchor="start" x="430.5" y="-1583.03" font-family="Helvetica,sans-Serif" font-size="10.00">&lt; LLVMAnalysisDomainDefault</text>
<text text-anchor="start" x="430.5" y="-1572.03" font-family="Helvetica,sans-Serif" font-size="10.00"> &gt;, std::set&lt; typename AnalysisDomain</text>
<text text-anchor="middle" x="529" y="-1561.03" font-family="Helvetica,sans-Serif" font-size="10.00">Ty::d_t &gt; &gt;</text>
</a>
</g>
</g>
<!-- Node1&#45;&gt;Node2 -->
<g id="edge1_Node000001_Node000002" class="edge">
<title>Node1&#45;&gt;Node2</title>
<g id="a_edge1_Node000001_Node000002"><a xlink:title=" ">
<path fill="none" stroke="#63b8ff" d="M66.73,-812.58C72.79,-931.96 101.11,-1439.43 147,-1491.53 214.88,-1568.6 334.93,-1587.5 422.18,-1590.01"/>
<polygon fill="#63b8ff" stroke="#63b8ff" points="70.22,-812.38 66.22,-802.56 63.23,-812.73 70.22,-812.38"/>
</a>
</g>
</g>
<!-- Node3 -->
<g id="Node000003" class="node">
<title>Node3</title>
<g id="a_Node000003"><a xlink:href="classpsr_1_1IDETabulationProblem.html" target="_top" xlink:title=" ">
<polygon fill="white" stroke="#666666" points="662,-1535.53 396,-1535.53 396,-1483.53 662,-1483.53 662,-1535.53"/>
<text text-anchor="start" x="404" y="-1523.53" font-family="Helvetica,sans-Serif" font-size="10.00">psr::IDETabulationProblem</text>
<text text-anchor="start" x="404" y="-1512.53" font-family="Helvetica,sans-Serif" font-size="10.00">&lt; WithBinaryValueDomain</text>
<text text-anchor="start" x="404" y="-1501.53" font-family="Helvetica,sans-Serif" font-size="10.00">&lt; LLVMIFDSAnalysisDomainDefault</text>
<text text-anchor="middle" x="529" y="-1490.53" font-family="Helvetica,sans-Serif" font-size="10.00"> &gt;, std::set&lt; typename AnalysisDomainTy::d_t &gt; &gt;</text>
</a>
</g>
</g>
<!-- Node1&#45;&gt;Node3 -->
<g id="edge2_Node000001_Node000003" class="edge">
<title>Node1&#45;&gt;Node3</title>
<g id="a_edge2_Node000001_Node000003"><a xlink:title=" ">
<path fill="none" stroke="#63b8ff" d="M66.94,-812.81C73.65,-926.88 103.45,-1390.08 147,-1436.53 209.42,-1503.1 312.5,-1519.65 395.71,-1520.48"/>
<polygon fill="#63b8ff" stroke="#63b8ff" points="70.42,-812.38 66.34,-802.6 63.43,-812.79 70.42,-812.38"/>
</a>
</g>
</g>
<!-- Node4 -->
<g id="Node000004" class="node">
<title>Node4</title>
<g id="a_Node000004"><a xlink:href="classpsr_1_1IDETabulationProblem.html" target="_top" xlink:title=" ">
<polygon fill="white" stroke="#666666" points="626.5,-1465.53 431.5,-1465.53 431.5,-1435.53 626.5,-1435.53 626.5,-1465.53"/>
<text text-anchor="start" x="439.5" y="-1453.53" font-family="Helvetica,sans-Serif" font-size="10.00">psr::IDETabulationProblem</text>
<text text-anchor="middle" x="529" y="-1442.53" font-family="Helvetica,sans-Serif" font-size="10.00">&lt; IDEFeatureTaintAnalysisDomain &gt;</text>
</a>
</g>
</g>
<!-- Node1&#45;&gt;Node4 -->
<g id="edge3_Node000001_Node000004" class="edge">
<title>Node1&#45;&gt;Node4</title>
<g id="a_edge3_Node000001_Node000004"><a xlink:title=" ">
<path fill="none" stroke="#63b8ff" d="M65.18,-812.59C64.43,-914.88 67.04,-1299.27 147,-1382.53 219.37,-1457.89 344.4,-1466.79 431.41,-1462.16"/>
<polygon fill="#63b8ff" stroke="#63b8ff" points="68.68,-812.59 65.28,-802.56 61.68,-812.53 68.68,-812.59"/>
</a>
</g>
</g>
<!-- Node6 -->
<g id="Node000006" class="node">
<title>Node6</title>
<g id="a_Node000006"><a xlink:href="classpsr_1_1IDETabulationProblem.html" target="_top" xlink:title=" ">
<polygon fill="white" stroke="#666666" points="614.5,-1417.53 443.5,-1417.53 443.5,-1387.53 614.5,-1387.53 614.5,-1417.53"/>
<text text-anchor="start" x="451.5" y="-1405.53" font-family="Helvetica,sans-Serif" font-size="10.00">psr::IDETabulationProblem</text>
<text text-anchor="middle" x="529" y="-1394.53" font-family="Helvetica,sans-Serif" font-size="10.00">&lt; IDEGeneralizedLCADomain &gt;</text>
</a>
</g>
</g>
<!-- Node1&#45;&gt;Node6 -->
<g id="edge5_Node000001_Node000006" class="edge">
<title>Node1&#45;&gt;Node6</title>
<g id="a_edge5_Node000001_Node000006"><a xlink:title=" ">
<path fill="none" stroke="#63b8ff" d="M65.63,-812.97C66.67,-909.59 75.43,-1252.12 147,-1327.53 222.53,-1407.11 356.01,-1415.82 443.24,-1411.6"/>
<polygon fill="#63b8ff" stroke="#63b8ff" points="69.13,-812.65 65.54,-802.68 62.13,-812.71 69.13,-812.65"/>
</a>
</g>
</g>
<!-- Node8 -->
<g id="Node000008" class="node">
<title>Node8</title>
<g id="a_Node000008"><a xlink:href="classpsr_1_1IDETabulationProblem.html" target="_top" xlink:title=" ">
<polygon fill="white" stroke="#666666" points="626,-1369.03 432,-1369.03 432,-1328.03 626,-1328.03 626,-1369.03"/>
<text text-anchor="start" x="440" y="-1357.03" font-family="Helvetica,sans-Serif" font-size="10.00">psr::IDETabulationProblem</text>
<text text-anchor="start" x="440" y="-1346.03" font-family="Helvetica,sans-Serif" font-size="10.00">&lt; IDEInstInteractionAnalysisDomain</text>
<text text-anchor="middle" x="529" y="-1335.03" font-family="Helvetica,sans-Serif" font-size="10.00">&lt; std::string &gt; &gt;</text>
</a>
</g>
</g>
<!-- Node1&#45;&gt;Node8 -->
<g id="edge7_Node000001_Node000008" class="edge">
<title>Node1&#45;&gt;Node8</title>
<g id="a_edge7_Node000001_Node000008"><a xlink:title=" ">
<path fill="none" stroke="#63b8ff" d="M66.11,-812.64C68.79,-902.32 82.57,-1204.96 147,-1271.53 219.98,-1346.93 344.88,-1359.14 431.69,-1357.1"/>
<polygon fill="#63b8ff" stroke="#63b8ff" points="69.6,-812.46 65.82,-802.56 62.6,-812.66 69.6,-812.46"/>
</a>
</g>
</g>
<!-- Node9 -->
<g id="Node000009" class="node">
<title>Node9</title>
<g id="a_Node000009"><a xlink:href="classpsr_1_1IDETabulationProblem.html" target="_top" xlink:title=" ">
<polygon fill="white" stroke="#666666" points="633.5,-1309.53 424.5,-1309.53 424.5,-1279.53 633.5,-1279.53 633.5,-1309.53"/>
<text text-anchor="start" x="432.5" y="-1297.53" font-family="Helvetica,sans-Serif" font-size="10.00">psr::IDETabulationProblem</text>
<text text-anchor="middle" x="529" y="-1286.53" font-family="Helvetica,sans-Serif" font-size="10.00">&lt; IDELinearConstantAnalysisDomain &gt;</text>
</a>
</g>
</g>
<!-- Node1&#45;&gt;Node9 -->
<g id="edge8_Node000001_Node000009" class="edge">
<title>Node1&#45;&gt;Node9</title>
<g id="a_edge8_Node000001_Node000009"><a xlink:title=" ">
<path fill="none" stroke="#63b8ff" d="M66.77,-812.56C71.47,-895.03 90.61,-1156.27 147,-1214.53 217.98,-1287.86 337.78,-1302.52 424.12,-1302.2"/>
<polygon fill="#63b8ff" stroke="#63b8ff" points="70.26,-812.36 66.22,-802.57 63.27,-812.74 70.26,-812.36"/>
</a>
</g>
</g>
<!-- Node11 -->
<g id="Node000011" class="node">
<title>Node11</title>
<g id="a_Node000011"><a xlink:href="classpsr_1_1IDETabulationProblem.html" target="_top" xlink:title=" ">
<polygon fill="white" stroke="#666666" points="609.5,-1261.53 448.5,-1261.53 448.5,-1231.53 609.5,-1231.53 609.5,-1261.53"/>
<text text-anchor="start" x="456.5" y="-1249.53" font-family="Helvetica,sans-Serif" font-size="10.00">psr::IDETabulationProblem</text>
<text text-anchor="middle" x="529" y="-1238.53" font-family="Helvetica,sans-Serif" font-size="10.00">&lt; IDEProtoAnalysisDomain &gt;</text>
</a>
</g>
</g>
<!-- Node1&#45;&gt;Node11 -->
<g id="edge10_Node000001_Node000011" class="edge">
<title>Node1&#45;&gt;Node11</title>
<g id="a_edge10_Node000001_Node000011"><a xlink:title=" ">
<path fill="none" stroke="#63b8ff" d="M67.74,-812.89C74.83,-887.75 99.27,-1105.6 147,-1155.53 224.9,-1237 361.64,-1251.12 448.37,-1250.95"/>
<polygon fill="#63b8ff" stroke="#63b8ff" points="71.22,-812.56 66.81,-802.92 64.25,-813.2 71.22,-812.56"/>
</a>
</g>
</g>
<!-- Node13 -->
<g id="Node000013" class="node">
<title>Node13</title>
<g id="a_Node000013"><a xlink:href="classpsr_1_1IDETabulationProblem.html" target="_top" xlink:title=" ">
<polygon fill="white" stroke="#666666" points="630.5,-1213.03 427.5,-1213.03 427.5,-1172.03 630.5,-1172.03 630.5,-1213.03"/>
<text text-anchor="start" x="435.5" y="-1201.03" font-family="Helvetica,sans-Serif" font-size="10.00">psr::IDETabulationProblem</text>
<text text-anchor="start" x="435.5" y="-1190.03" font-family="Helvetica,sans-Serif" font-size="10.00">&lt; IDESecureHeapPropagationAnalysis</text>
<text text-anchor="middle" x="529" y="-1179.03" font-family="Helvetica,sans-Serif" font-size="10.00">Domain &gt;</text>
</a>
</g>
</g>
<!-- Node1&#45;&gt;Node13 -->
<g id="edge12_Node000001_Node000013" class="edge">
<title>Node1&#45;&gt;Node13</title>
<g id="a_edge12_Node000001_Node000013"><a xlink:title=" ">
<path fill="none" stroke="#63b8ff" d="M68.88,-812.62C78.26,-878.66 106.61,-1054.97 147,-1095.53 220.33,-1169.16 341.2,-1189.52 427.12,-1193.93"/>
<polygon fill="#63b8ff" stroke="#63b8ff" points="72.34,-812.08 67.49,-802.66 65.4,-813.05 72.34,-812.08"/>
</a>
</g>
</g>
<!-- Node15 -->
<g id="Node000015" class="node">
<title>Node15</title>
<g id="a_Node000015"><a xlink:href="classpsr_1_1IDETabulationProblem.html" target="_top" xlink:title=" ">
<polygon fill="white" stroke="#666666" points="621.5,-1153.53 436.5,-1153.53 436.5,-1123.53 621.5,-1123.53 621.5,-1153.53"/>
<text text-anchor="start" x="444.5" y="-1141.53" font-family="Helvetica,sans-Serif" font-size="10.00">psr::IDETabulationProblem</text>
<text text-anchor="middle" x="529" y="-1130.53" font-family="Helvetica,sans-Serif" font-size="10.00">&lt; IDESolverTestAnalysisDomain &gt;</text>
</a>
</g>
</g>
<!-- Node1&#45;&gt;Node15 -->
<g id="edge14_Node000001_Node000015" class="edge">
<title>Node1&#45;&gt;Node15</title>
<g id="a_edge14_Node000001_Node000015"><a xlink:title=" ">
<path fill="none" stroke="#63b8ff" d="M66.62,-812.76C70.17,-862.1 85.02,-971.88 147,-1033.53 223.62,-1109.73 350.17,-1131.91 436.22,-1137.7"/>
<polygon fill="#63b8ff" stroke="#63b8ff" points="70.1,-812.42 65.99,-802.65 63.12,-812.85 70.1,-812.42"/>
</a>
</g>
</g>
<!-- Node17 -->
<g id="Node000017" class="node">
<title>Node17</title>
<g id="a_Node000017"><a xlink:href="classpsr_1_1IDETabulationProblem.html" target="_top" xlink:title=" ">
<polygon fill="white" stroke="#666666" points="615,-1105.03 443,-1105.03 443,-1064.03 615,-1064.03 615,-1105.03"/>
<text text-anchor="start" x="451" y="-1093.03" font-family="Helvetica,sans-Serif" font-size="10.00">psr::IDETabulationProblem</text>
<text text-anchor="start" x="451" y="-1082.03" font-family="Helvetica,sans-Serif" font-size="10.00">&lt; IDETypeStateAnalysisDomain</text>
<text text-anchor="middle" x="529" y="-1071.03" font-family="Helvetica,sans-Serif" font-size="10.00">&lt; TypeStateDescriptionTy &gt; &gt;</text>
</a>
</g>
</g>
<!-- Node1&#45;&gt;Node17 -->
<g id="edge16_Node000001_Node000017" class="edge">
<title>Node1&#45;&gt;Node17</title>
<g id="a_edge16_Node000001_Node000017"><a xlink:title=" ">
<path fill="none" stroke="#63b8ff" d="M70.1,-812.59C78.53,-851.54 100.08,-926.58 147,-969.53 228.81,-1044.4 357.79,-1070.59 442.65,-1079.71"/>
<polygon fill="#63b8ff" stroke="#63b8ff" points="73.49,-811.71 68.06,-802.61 66.64,-813.11 73.49,-811.71"/>
</a>
</g>
</g>
<!-- Node19 -->
<g id="Node000019" class="node">
<title>Node19</title>
<g id="a_Node000019"><a xlink:href="classpsr_1_1IDETabulationProblem.html" target="_top" xlink:title=" ">
<polygon fill="white" stroke="#666666" points="624.5,-1046.03 433.5,-1046.03 433.5,-983.03 624.5,-983.03 624.5,-1046.03"/>
<text text-anchor="start" x="441.5" y="-1034.03" font-family="Helvetica,sans-Serif" font-size="10.00">psr::IDETabulationProblem</text>
<text text-anchor="start" x="441.5" y="-1023.03" font-family="Helvetica,sans-Serif" font-size="10.00">&lt; WithBinaryValueDomain</text>
<text text-anchor="start" x="441.5" y="-1012.03" font-family="Helvetica,sans-Serif" font-size="10.00">&lt; AnalysisDomainTy &gt;, std</text>
<text text-anchor="start" x="441.5" y="-1001.03" font-family="Helvetica,sans-Serif" font-size="10.00">::set&lt; typename AnalysisDomainTy</text>
<text text-anchor="middle" x="529" y="-990.03" font-family="Helvetica,sans-Serif" font-size="10.00">::d_t &gt; &gt;</text>
</a>
</g>
</g>
<!-- Node1&#45;&gt;Node19 -->
<g id="edge18_Node000001_Node000019" class="edge">
<title>Node1&#45;&gt;Node19</title>
<g id="a_edge18_Node000001_Node000019"><a xlink:title=" ">
<path fill="none" stroke="#63b8ff" d="M74.79,-811.84C86.99,-840.5 111.17,-887.52 147,-913.53 231.59,-974.93 350.88,-999.02 433.34,-1008.46"/>
<polygon fill="#63b8ff" stroke="#63b8ff" points="78,-810.46 70.97,-802.54 71.53,-813.12 78,-810.46"/>
</a>
</g>
</g>
<!-- Node20 -->
<g id="Node000020" class="node">
<title>Node20</title>
<g id="a_Node000020"><a xlink:href="classpsr_1_1IDETabulationProblem.html" target="_top" xlink:title=" ">
<polygon fill="white" stroke="#666666" points="631,-964.53 427,-964.53 427,-934.53 631,-934.53 631,-964.53"/>
<text text-anchor="start" x="435" y="-952.53" font-family="Helvetica,sans-Serif" font-size="10.00">psr::IDETabulationProblem</text>
<text text-anchor="middle" x="529" y="-941.53" font-family="Helvetica,sans-Serif" font-size="10.00">&lt; IDEExtendedTaintAnalysisDomain &gt;</text>
</a>
</g>
</g>
<!-- Node1&#45;&gt;Node20 -->
<g id="edge19_Node000001_Node000020" class="edge">
<title>Node1&#45;&gt;Node20</title>
<g id="a_edge19_Node000001_Node000020"><a xlink:title=" ">
<path fill="none" stroke="#63b8ff" d="M84.13,-810.71C99.28,-828.04 122.17,-851.01 147,-864.53 234.35,-912.09 346.75,-933.05 426.78,-942.28"/>
<polygon fill="#63b8ff" stroke="#63b8ff" points="86.47,-808.06 77.33,-802.71 81.14,-812.6 86.47,-808.06"/>
</a>
</g>
</g>
<!-- Node23 -->
<g id="Node000023" class="node">
<title>Node23</title>
<g id="a_Node000023"><a xlink:href="classpsr_1_1IDETabulationProblem.html" target="_top" xlink:title=" ">
<polygon fill="white" stroke="#666666" points="662,-916.53 396,-916.53 396,-864.53 662,-864.53 662,-916.53"/>
<text text-anchor="start" x="404" y="-904.53" font-family="Helvetica,sans-Serif" font-size="10.00">psr::IDETabulationProblem</text>
<text text-anchor="start" x="404" y="-893.53" font-family="Helvetica,sans-Serif" font-size="10.00">&lt; psr::IDETypeStateAnalysisDomain</text>
<text text-anchor="start" x="404" y="-882.53" font-family="Helvetica,sans-Serif" font-size="10.00">&lt; psr::OpenSSLEVPKDFDescription</text>
<text text-anchor="middle" x="529" y="-871.53" font-family="Helvetica,sans-Serif" font-size="10.00"> &gt;, std::set&lt; typename AnalysisDomainTy::d_t &gt; &gt;</text>
</a>
</g>
</g>
<!-- Node1&#45;&gt;Node23 -->
<g id="edge22_Node000001_Node000023" class="edge">
<title>Node1&#45;&gt;Node23</title>
<g id="a_edge22_Node000001_Node000023"><a xlink:title=" ">
<path fill="none" stroke="#63b8ff" d="M100.34,-807.42C114.44,-814.72 131.12,-822.44 147,-827.53 227.61,-853.35 321.37,-869.03 395.71,-878.28"/>
<polygon fill="#63b8ff" stroke="#63b8ff" points="101.95,-804.31 91.48,-802.71 98.67,-810.49 101.95,-804.31"/>
</a>
</g>
</g>
<!-- Node24 -->
<g id="Node000024" class="node">
<title>Node24</title>
<g id="a_Node000024"><a xlink:href="classpsr_1_1IDETabulationProblem.html" target="_top" xlink:title=" ">
<polygon fill="white" stroke="#666666" points="628.5,-846.53 429.5,-846.53 429.5,-794.53 628.5,-794.53 628.5,-846.53"/>
<text text-anchor="start" x="437.5" y="-834.53" font-family="Helvetica,sans-Serif" font-size="10.00">psr::IDETabulationProblem</text>
<text text-anchor="start" x="437.5" y="-823.53" font-family="Helvetica,sans-Serif" font-size="10.00">&lt; psr::IDESecureHeapPropagation</text>
<text text-anchor="start" x="437.5" y="-812.53" font-family="Helvetica,sans-Serif" font-size="10.00">AnalysisDomain, std::set&lt; typename</text>
<text text-anchor="middle" x="529" y="-801.53" font-family="Helvetica,sans-Serif" font-size="10.00"> AnalysisDomainTy::d_t &gt; &gt;</text>
</a>
</g>
</g>
<!-- Node1&#45;&gt;Node24 -->
<g id="edge23_Node000001_Node000024" class="edge">
<title>Node1&#45;&gt;Node24</title>
<g id="a_edge23_Node000001_Node000024"><a xlink:title=" ">
<path fill="none" stroke="#63b8ff" d="M134.14,-804.51C138.47,-805.28 142.79,-805.96 147,-806.53 242.29,-819.26 352.1,-822.06 429.28,-822.09"/>
<polygon fill="#63b8ff" stroke="#63b8ff" points="134.49,-801.02 124.01,-802.59 133.18,-807.9 134.49,-801.02"/>
</a>
</g>
</g>
<!-- Node25 -->
<g id="Node000025" class="node">
<title>Node25</title>
<g id="a_Node000025"><a xlink:href="classpsr_1_1AllTopFnProvider.html" target="_top" xlink:title=" ">
<polygon fill="white" stroke="#666666" points="624.5,-776.03 433.5,-776.03 433.5,-735.03 624.5,-735.03 624.5,-776.03"/>
<text text-anchor="start" x="441.5" y="-764.03" font-family="Helvetica,sans-Serif" font-size="10.00">psr::AllTopFnProvider</text>
<text text-anchor="start" x="441.5" y="-753.03" font-family="Helvetica,sans-Serif" font-size="10.00">&lt; WithBinaryValueDomain</text>
<text text-anchor="middle" x="529" y="-742.03" font-family="Helvetica,sans-Serif" font-size="10.00">&lt; LLVMAnalysisDomainDefault &gt; &gt;</text>
</a>
</g>
</g>
<!-- Node1&#45;&gt;Node25 -->
<g id="edge24_Node000001_Node000025" class="edge">
<title>Node1&#45;&gt;Node25</title>
<g id="a_edge24_Node000001_Node000025"><a xlink:title=" ">
<path fill="none" stroke="orange" stroke-dasharray="5,2" d="M139.77,-782.39C219.47,-776.87 346.31,-768.1 433.17,-762.09"/>
<polygon fill="orange" stroke="orange" points="139.06,-778.93 129.32,-783.11 139.54,-785.91 139.06,-778.93"/>
</a>
</g>
<text text-anchor="start" x="175" y="-794.53" font-family="Helvetica,sans-Serif" font-size="10.00" fill="grey"> &lt; WithBinaryValueDomain</text>
<text text-anchor="middle" x="262.5" y="-783.53" font-family="Helvetica,sans-Serif" font-size="10.00" fill="grey">&lt; LLVMAnalysisDomainDefault &gt; &gt;</text>
</g>
<!-- Node26 -->
<g id="Node000026" class="node">
<title>Node26</title>
<g id="a_Node000026"><a xlink:href="classpsr_1_1AllTopFnProvider.html" target="_top" xlink:title=" ">
<polygon fill="white" stroke="#666666" points="636.5,-717.03 421.5,-717.03 421.5,-676.03 636.5,-676.03 636.5,-717.03"/>
<text text-anchor="start" x="429.5" y="-705.03" font-family="Helvetica,sans-Serif" font-size="10.00">psr::AllTopFnProvider</text>
<text text-anchor="start" x="429.5" y="-694.03" font-family="Helvetica,sans-Serif" font-size="10.00">&lt; WithBinaryValueDomain</text>
<text text-anchor="middle" x="529" y="-683.03" font-family="Helvetica,sans-Serif" font-size="10.00">&lt; LLVMIFDSAnalysisDomainDefault &gt; &gt;</text>
</a>
</g>
</g>
<!-- Node1&#45;&gt;Node26 -->
<g id="edge25_Node000001_Node000026" class="edge">
<title>Node1&#45;&gt;Node26</title>
<g id="a_edge25_Node000001_Node000026"><a xlink:title=" ">
<path fill="none" stroke="orange" stroke-dasharray="5,2" d="M94.9,-766.65C109.82,-757.1 128.63,-746.59 147,-740.53 236.46,-710.97 343.43,-700.65 421.22,-697.32"/>
<polygon fill="orange" stroke="orange" points="92.58,-763.99 86.16,-772.42 96.43,-769.84 92.58,-763.99"/>
</a>
</g>
<text text-anchor="start" x="163" y="-754.53" font-family="Helvetica,sans-Serif" font-size="10.00" fill="grey"> &lt; WithBinaryValueDomain</text>
<text text-anchor="middle" x="262.5" y="-743.53" font-family="Helvetica,sans-Serif" font-size="10.00" fill="grey">&lt; LLVMIFDSAnalysisDomainDefault &gt; &gt;</text>
</g>
<!-- Node27 -->
<g id="Node000027" class="node">
<title>Node27</title>
<g id="a_Node000027"><a xlink:href="classpsr_1_1AllTopFnProvider.html" target="_top" xlink:title=" ">
<polygon fill="white" stroke="#666666" points="626.5,-657.53 431.5,-657.53 431.5,-627.53 626.5,-627.53 626.5,-657.53"/>
<text text-anchor="start" x="439.5" y="-645.53" font-family="Helvetica,sans-Serif" font-size="10.00">psr::AllTopFnProvider</text>
<text text-anchor="middle" x="529" y="-634.53" font-family="Helvetica,sans-Serif" font-size="10.00">&lt; IDEFeatureTaintAnalysisDomain &gt;</text>
</a>
</g>
</g>
<!-- Node1&#45;&gt;Node27 -->
<g id="edge26_Node000001_Node000027" class="edge">
<title>Node1&#45;&gt;Node27</title>
<g id="a_edge26_Node000001_Node000027"><a xlink:title=" ">
<path fill="none" stroke="orange" stroke-dasharray="5,2" d="M75.29,-763.25C87.62,-736.19 111.56,-693.61 147,-673.53 233.89,-624.28 350.3,-622.22 431.48,-628.89"/>
<polygon fill="orange" stroke="orange" points="72.07,-761.88 71.27,-772.44 78.48,-764.68 72.07,-761.88"/>
</a>
</g>
<text text-anchor="start" x="196" y="-687.53" font-family="Helvetica,sans-Serif" font-size="10.00" fill="grey"> &lt; IDEFeatureTaintAnalysis</text>
<text text-anchor="middle" x="262.5" y="-676.53" font-family="Helvetica,sans-Serif" font-size="10.00" fill="grey">Domain &gt;</text>
</g>
<!-- Node28 -->
<g id="Node000028" class="node">
<title>Node28</title>
<g id="a_Node000028"><a xlink:href="classpsr_1_1AllTopFnProvider.html" target="_top" xlink:title=" ">
<polygon fill="white" stroke="#666666" points="614.5,-609.53 443.5,-609.53 443.5,-579.53 614.5,-579.53 614.5,-609.53"/>
<text text-anchor="start" x="451.5" y="-597.53" font-family="Helvetica,sans-Serif" font-size="10.00">psr::AllTopFnProvider</text>
<text text-anchor="middle" x="529" y="-586.53" font-family="Helvetica,sans-Serif" font-size="10.00">&lt; IDEGeneralizedLCADomain &gt;</text>
</a>
</g>
</g>
<!-- Node1&#45;&gt;Node28 -->
<g id="edge27_Node000001_Node000028" class="edge">
<title>Node1&#45;&gt;Node28</title>
<g id="a_edge27_Node000001_Node000028"><a xlink:title=" ">
<path fill="none" stroke="orange" stroke-dasharray="5,2" d="M68.83,-762.3C75.6,-722.32 95.01,-645.39 147,-610.53 193.67,-579.24 345.97,-582.41 443.29,-588.1"/>
<polygon fill="orange" stroke="orange" points="65.35,-761.88 67.27,-772.3 72.27,-762.96 65.35,-761.88"/>
</a>
</g>
<text text-anchor="middle" x="262.5" y="-613.53" font-family="Helvetica,sans-Serif" font-size="10.00" fill="grey"> &lt; IDEGeneralizedLCADomain &gt;</text>
</g>
<!-- Node29 -->
<g id="Node000029" class="node">
<title>Node29</title>
<g id="a_Node000029"><a xlink:href="classpsr_1_1AllTopFnProvider.html" target="_top" xlink:title=" ">
<polygon fill="white" stroke="#666666" points="607,-561.03 451,-561.03 451,-520.03 607,-520.03 607,-561.03"/>
<text text-anchor="start" x="459" y="-549.03" font-family="Helvetica,sans-Serif" font-size="10.00">psr::AllTopFnProvider</text>
<text text-anchor="start" x="459" y="-538.03" font-family="Helvetica,sans-Serif" font-size="10.00">&lt; IDEInstInteractionAnalysis</text>
<text text-anchor="middle" x="529" y="-527.03" font-family="Helvetica,sans-Serif" font-size="10.00">Domain&lt; std::string &gt; &gt;</text>
</a>
</g>
</g>
<!-- Node1&#45;&gt;Node29 -->
<g id="edge28_Node000001_Node000029" class="edge">
<title>Node1&#45;&gt;Node29</title>
<g id="a_edge28_Node000001_Node000029"><a xlink:title=" ">
<path fill="none" stroke="orange" stroke-dasharray="5,2" d="M65.89,-762.43C68.17,-713.64 80.85,-606.51 147,-557.53 234.66,-492.61 367.29,-504.21 450.7,-520.72"/>
<polygon fill="orange" stroke="orange" points="62.39,-762.33 65.54,-772.44 69.39,-762.57 62.39,-762.33"/>
</a>
</g>
<text text-anchor="start" x="191" y="-571.53" font-family="Helvetica,sans-Serif" font-size="10.00" fill="grey"> &lt; IDEInstInteractionAnalysis</text>
<text text-anchor="middle" x="262.5" y="-560.53" font-family="Helvetica,sans-Serif" font-size="10.00" fill="grey">Domain&lt; std::string &gt; &gt;</text>
</g>
<!-- Node30 -->
<g id="Node000030" class="node">
<title>Node30</title>
<g id="a_Node000030"><a xlink:href="classpsr_1_1AllTopFnProvider.html" target="_top" xlink:title=" ">
<polygon fill="white" stroke="#666666" points="608.5,-502.03 449.5,-502.03 449.5,-461.03 608.5,-461.03 608.5,-502.03"/>
<text text-anchor="start" x="457.5" y="-490.03" font-family="Helvetica,sans-Serif" font-size="10.00">psr::AllTopFnProvider</text>
<text text-anchor="start" x="457.5" y="-479.03" font-family="Helvetica,sans-Serif" font-size="10.00">&lt; IDELinearConstantAnalysis</text>
<text text-anchor="middle" x="529" y="-468.03" font-family="Helvetica,sans-Serif" font-size="10.00">Domain &gt;</text>
</a>
</g>
</g>
<!-- Node1&#45;&gt;Node30 -->
<g id="edge29_Node000001_Node000030" class="edge">
<title>Node1&#45;&gt;Node30</title>
<g id="a_edge29_Node000001_Node000030"><a xlink:title=" ">
<path fill="none" stroke="orange" stroke-dasharray="5,2" d="M68.3,-762.43C76.33,-695.65 101.78,-516.28 147,-481.53 192.56,-446.51 351.78,-459.03 449.39,-470.68"/>
<polygon fill="orange" stroke="orange" points="64.81,-762.16 67.12,-772.5 71.76,-762.97 64.81,-762.16"/>
</a>
</g>
<text text-anchor="start" x="189.5" y="-495.53" font-family="Helvetica,sans-Serif" font-size="10.00" fill="grey"> &lt; IDELinearConstantAnalysis</text>
<text text-anchor="middle" x="262.5" y="-484.53" font-family="Helvetica,sans-Serif" font-size="10.00" fill="grey">Domain &gt;</text>
</g>
<!-- Node31 -->
<g id="Node000031" class="node">
<title>Node31</title>
<g id="a_Node000031"><a xlink:href="classpsr_1_1AllTopFnProvider.html" target="_top" xlink:title=" ">
<polygon fill="white" stroke="#666666" points="609.5,-442.53 448.5,-442.53 448.5,-412.53 609.5,-412.53 609.5,-442.53"/>
<text text-anchor="start" x="456.5" y="-430.53" font-family="Helvetica,sans-Serif" font-size="10.00">psr::AllTopFnProvider</text>
<text text-anchor="middle" x="529" y="-419.53" font-family="Helvetica,sans-Serif" font-size="10.00">&lt; IDEProtoAnalysisDomain &gt;</text>
</a>
</g>
</g>
<!-- Node1&#45;&gt;Node31 -->
<g id="edge30_Node000001_Node000031" class="edge">
<title>Node1&#45;&gt;Node31</title>
<g id="a_edge30_Node000001_Node000031"><a xlink:title=" ">
<path fill="none" stroke="orange" stroke-dasharray="5,2" d="M67.61,-762.39C74.25,-690.16 97.25,-484.59 147,-443.53 191.23,-407.02 350.09,-412.6 448.17,-420.02"/>
<polygon fill="orange" stroke="orange" points="64.12,-762.14 66.72,-772.42 71.09,-762.77 64.12,-762.14"/>
</a>
</g>
<text text-anchor="middle" x="262.5" y="-446.53" font-family="Helvetica,sans-Serif" font-size="10.00" fill="grey"> &lt; IDEProtoAnalysisDomain &gt;</text>
</g>
<!-- Node32 -->
<g id="Node000032" class="node">
<title>Node32</title>
<g id="a_Node000032"><a xlink:href="classpsr_1_1AllTopFnProvider.html" target="_top" xlink:title=" ">
<polygon fill="white" stroke="#666666" points="630.5,-394.03 427.5,-394.03 427.5,-353.03 630.5,-353.03 630.5,-394.03"/>
<text text-anchor="start" x="435.5" y="-382.03" font-family="Helvetica,sans-Serif" font-size="10.00">psr::AllTopFnProvider</text>
<text text-anchor="start" x="435.5" y="-371.03" font-family="Helvetica,sans-Serif" font-size="10.00">&lt; IDESecureHeapPropagationAnalysis</text>
<text text-anchor="middle" x="529" y="-360.03" font-family="Helvetica,sans-Serif" font-size="10.00">Domain &gt;</text>
</a>
</g>
</g>
<!-- Node1&#45;&gt;Node32 -->
<g id="edge31_Node000001_Node000032" class="edge">
<title>Node1&#45;&gt;Node32</title>
<g id="a_edge31_Node000001_Node000032"><a xlink:title=" ">
<path fill="none" stroke="orange" stroke-dasharray="5,2" d="M66.74,-762.18C71.22,-682.18 89.5,-437.39 147,-388.53 187.73,-353.91 328.71,-357 427.23,-364"/>
<polygon fill="orange" stroke="orange" points="63.24,-762.17 66.2,-772.34 70.23,-762.54 63.24,-762.17"/>
</a>
</g>
<text text-anchor="start" x="188.5" y="-402.53" font-family="Helvetica,sans-Serif" font-size="10.00" fill="grey"> &lt; IDESecureHeapPropagation</text>
<text text-anchor="middle" x="262.5" y="-391.53" font-family="Helvetica,sans-Serif" font-size="10.00" fill="grey">AnalysisDomain &gt;</text>
</g>
<!-- Node33 -->
<g id="Node000033" class="node">
<title>Node33</title>
<g id="a_Node000033"><a xlink:href="classpsr_1_1AllTopFnProvider.html" target="_top" xlink:title=" ">
<polygon fill="white" stroke="#666666" points="621.5,-334.53 436.5,-334.53 436.5,-304.53 621.5,-304.53 621.5,-334.53"/>
<text text-anchor="start" x="444.5" y="-322.53" font-family="Helvetica,sans-Serif" font-size="10.00">psr::AllTopFnProvider</text>
<text text-anchor="middle" x="529" y="-311.53" font-family="Helvetica,sans-Serif" font-size="10.00">&lt; IDESolverTestAnalysisDomain &gt;</text>
</a>
</g>
</g>
<!-- Node1&#45;&gt;Node33 -->
<g id="edge32_Node000001_Node000033" class="edge">
<title>Node1&#45;&gt;Node33</title>
<g id="a_edge32_Node000001_Node000033"><a xlink:title=" ">
<path fill="none" stroke="orange" stroke-dasharray="5,2" d="M66.25,-762.04C69.32,-676.3 84.04,-400.55 147,-344.53 188.29,-307.79 337.44,-308.3 436.42,-313.13"/>
<polygon fill="orange" stroke="orange" points="62.74,-762.07 65.9,-772.18 69.74,-762.31 62.74,-762.07"/>
</a>
</g>
<text text-anchor="middle" x="262.5" y="-347.53" font-family="Helvetica,sans-Serif" font-size="10.00" fill="grey"> &lt; IDESolverTestAnalysisDomain &gt;</text>
</g>
<!-- Node34 -->
<g id="Node000034" class="node">
<title>Node34</title>
<g id="a_Node000034"><a xlink:href="classpsr_1_1AllTopFnProvider.html" target="_top" xlink:title=" ">
<polygon fill="white" stroke="#666666" points="615,-286.03 443,-286.03 443,-245.03 615,-245.03 615,-286.03"/>
<text text-anchor="start" x="451" y="-274.03" font-family="Helvetica,sans-Serif" font-size="10.00">psr::AllTopFnProvider</text>
<text text-anchor="start" x="451" y="-263.03" font-family="Helvetica,sans-Serif" font-size="10.00">&lt; IDETypeStateAnalysisDomain</text>
<text text-anchor="middle" x="529" y="-252.03" font-family="Helvetica,sans-Serif" font-size="10.00">&lt; TypeStateDescriptionTy &gt; &gt;</text>
</a>
</g>
</g>
<!-- Node1&#45;&gt;Node34 -->
<g id="edge33_Node000001_Node000034" class="edge">
<title>Node1&#45;&gt;Node34</title>
<g id="a_edge33_Node000001_Node000034"><a xlink:title=" ">
<path fill="none" stroke="orange" stroke-dasharray="5,2" d="M65.6,-762.3C66.54,-669.47 75.02,-348.94 147,-284.53 189.07,-246.88 344.11,-250.95 442.97,-257.87"/>
<polygon fill="orange" stroke="orange" points="62.1,-762.43 65.52,-772.46 69.1,-762.48 62.1,-762.43"/>
</a>
</g>
<text text-anchor="start" x="183" y="-298.53" font-family="Helvetica,sans-Serif" font-size="10.00" fill="grey"> &lt; IDETypeStateAnalysisDomain</text>
<text text-anchor="middle" x="262.5" y="-287.53" font-family="Helvetica,sans-Serif" font-size="10.00" fill="grey">&lt; TypeStateDescriptionTy &gt; &gt;</text>
</g>
<!-- Node35 -->
<g id="Node000035" class="node">
<title>Node35</title>
<g id="a_Node000035"><a xlink:href="classpsr_1_1AllTopFnProvider.html" target="_top" xlink:title=" ">
<polygon fill="white" stroke="#666666" points="602.5,-227.03 455.5,-227.03 455.5,-186.03 602.5,-186.03 602.5,-227.03"/>
<text text-anchor="start" x="463.5" y="-215.03" font-family="Helvetica,sans-Serif" font-size="10.00">psr::AllTopFnProvider</text>
<text text-anchor="start" x="463.5" y="-204.03" font-family="Helvetica,sans-Serif" font-size="10.00">&lt; WithBinaryValueDomain</text>
<text text-anchor="middle" x="529" y="-193.03" font-family="Helvetica,sans-Serif" font-size="10.00">&lt; AnalysisDomainTy &gt; &gt;</text>
</a>
</g>
</g>
<!-- Node1&#45;&gt;Node35 -->
<g id="edge34_Node000001_Node000035" class="edge">
<title>Node1&#45;&gt;Node35</title>
<g id="a_edge34_Node000001_Node000035"><a xlink:title=" ">
<path fill="none" stroke="orange" stroke-dasharray="5,2" d="M65.14,-762.35C64.3,-662.95 66.84,-299.65 147,-226.53 190.49,-186.86 357.27,-192.63 455.16,-199.87"/>
<polygon fill="orange" stroke="orange" points="61.64,-762.43 65.25,-772.39 68.64,-762.35 61.64,-762.43"/>
</a>
</g>
<text text-anchor="start" x="195.5" y="-240.53" font-family="Helvetica,sans-Serif" font-size="10.00" fill="grey"> &lt; WithBinaryValueDomain</text>
<text text-anchor="middle" x="262.5" y="-229.53" font-family="Helvetica,sans-Serif" font-size="10.00" fill="grey">&lt; AnalysisDomainTy &gt; &gt;</text>
</g>
<!-- Node36 -->
<g id="Node000036" class="node">
<title>Node36</title>
<g id="a_Node000036"><a xlink:href="classpsr_1_1AllTopFnProvider.html" target="_top" xlink:title=" ">
<polygon fill="white" stroke="#666666" points="631,-167.53 427,-167.53 427,-137.53 631,-137.53 631,-167.53"/>
<text text-anchor="start" x="435" y="-155.53" font-family="Helvetica,sans-Serif" font-size="10.00">psr::AllTopFnProvider</text>
<text text-anchor="middle" x="529" y="-144.53" font-family="Helvetica,sans-Serif" font-size="10.00">&lt; IDEExtendedTaintAnalysisDomain &gt;</text>
</a>
</g>
</g>
<!-- Node1&#45;&gt;Node36 -->
<g id="edge35_Node000001_Node000036" class="edge">
<title>Node1&#45;&gt;Node36</title>
<g id="a_edge35_Node000001_Node000036"><a xlink:title=" ">
<path fill="none" stroke="orange" stroke-dasharray="5,2" d="M66.94,-762.21C73.52,-651 102.3,-209.42 147,-168.53 186.44,-132.44 327.75,-135.52 426.7,-142.71"/>
<polygon fill="orange" stroke="orange" points="63.43,-762.29 66.34,-772.47 70.42,-762.7 63.43,-762.29"/>
</a>
</g>
<text text-anchor="start" x="191.5" y="-182.53" font-family="Helvetica,sans-Serif" font-size="10.00" fill="grey"> &lt; IDEExtendedTaintAnalysis</text>
<text text-anchor="middle" x="262.5" y="-171.53" font-family="Helvetica,sans-Serif" font-size="10.00" fill="grey">Domain &gt;</text>
</g>
<!-- Node37 -->
<g id="Node000037" class="node">
<title>Node37</title>
<g id="a_Node000037"><a xlink:href="classpsr_1_1AllTopFnProvider.html" target="_top" xlink:title=" ">
<polygon fill="white" stroke="#666666" points="652.5,-119.03 405.5,-119.03 405.5,-78.03 652.5,-78.03 652.5,-119.03"/>
<text text-anchor="start" x="413.5" y="-107.03" font-family="Helvetica,sans-Serif" font-size="10.00">psr::AllTopFnProvider</text>
<text text-anchor="start" x="413.5" y="-96.03" font-family="Helvetica,sans-Serif" font-size="10.00">&lt; psr::IDETypeStateAnalysis</text>
<text text-anchor="middle" x="529" y="-85.03" font-family="Helvetica,sans-Serif" font-size="10.00">Domain&lt; psr::OpenSSLEVPKDFDescription &gt; &gt;</text>
</a>
</g>
</g>
<!-- Node1&#45;&gt;Node37 -->
<g id="edge36_Node000001_Node000037" class="edge">
<title>Node1&#45;&gt;Node37</title>
<g id="a_edge36_Node000001_Node000037"><a xlink:title=" ">
<path fill="none" stroke="orange" stroke-dasharray="5,2" d="M66.64,-762.16C72.18,-644.57 98.01,-156.48 147,-111.53 183.63,-77.91 308.51,-79.28 405.43,-86.14"/>
<polygon fill="orange" stroke="orange" points="63.14,-762.2 66.17,-772.35 70.13,-762.52 63.14,-762.2"/>
</a>
</g>
<text text-anchor="start" x="147" y="-125.53" font-family="Helvetica,sans-Serif" font-size="10.00" fill="grey"> &lt; psr::IDETypeStateAnalysis</text>
<text text-anchor="middle" x="262.5" y="-114.53" font-family="Helvetica,sans-Serif" font-size="10.00" fill="grey">Domain&lt; psr::OpenSSLEVPKDFDescription &gt; &gt;</text>
</g>
<!-- Node38 -->
<g id="Node000038" class="node">
<title>Node38</title>
<g id="a_Node000038"><a xlink:href="classpsr_1_1AllTopFnProvider.html" target="_top" xlink:title=" ">
<polygon fill="white" stroke="#666666" points="620,-60.03 438,-60.03 438,-19.03 620,-19.03 620,-60.03"/>
<text text-anchor="start" x="446" y="-48.03" font-family="Helvetica,sans-Serif" font-size="10.00">psr::AllTopFnProvider</text>
<text text-anchor="start" x="446" y="-37.03" font-family="Helvetica,sans-Serif" font-size="10.00">&lt; psr::IDESecureHeapPropagation</text>
<text text-anchor="middle" x="529" y="-26.03" font-family="Helvetica,sans-Serif" font-size="10.00">AnalysisDomain &gt;</text>
</a>
</g>
</g>
<!-- Node1&#45;&gt;Node38 -->
<g id="edge37_Node000001_Node000038" class="edge">
<title>Node1&#45;&gt;Node38</title>
<g id="a_edge37_Node000001_Node000038"><a xlink:title=" ">
<path fill="none" stroke="orange" stroke-dasharray="5,2" d="M66.41,-762.1C71.1,-638.68 94.27,-105.86 147,-56.53 230.52,21.62 374.81,2.04 459.83,-18.96"/>
<polygon fill="orange" stroke="orange" points="62.9,-762.32 66.03,-772.44 69.9,-762.58 62.9,-762.32"/>
</a>
</g>
<text text-anchor="start" x="178" y="-70.53" font-family="Helvetica,sans-Serif" font-size="10.00" fill="grey"> &lt; psr::IDESecureHeapPropagation</text>
<text text-anchor="middle" x="262.5" y="-59.53" font-family="Helvetica,sans-Serif" font-size="10.00" fill="grey">AnalysisDomain &gt;</text>
</g>
<!-- Node5 -->
<g id="Node000005" class="node">
<title>Node5</title>
<g id="a_Node000005"><a xlink:href="classpsr_1_1IDEFeatureTaintAnalysis.html" target="_top" xlink:title=" ">
<polygon fill="white" stroke="#666666" points="862,-1460.03 707,-1460.03 707,-1441.03 862,-1441.03 862,-1460.03"/>
<text text-anchor="middle" x="784.5" y="-1448.03" font-family="Helvetica,sans-Serif" font-size="10.00">psr::IDEFeatureTaintAnalysis</text>
</a>
</g>
</g>
<!-- Node4&#45;&gt;Node5 -->
<g id="edge4_Node000004_Node000005" class="edge">
<title>Node4&#45;&gt;Node5</title>
<g id="a_edge4_Node000004_Node000005"><a xlink:title=" ">
<path fill="none" stroke="#63b8ff" d="M636.61,-1450.53C660.21,-1450.53 684.77,-1450.53 706.9,-1450.53"/>
<polygon fill="#63b8ff" stroke="#63b8ff" points="636.56,-1447.03 626.56,-1450.53 636.56,-1454.03 636.56,-1447.03"/>
</a>
</g>
</g>
<!-- Node7 -->
<g id="Node000007" class="node">
<title>Node7</title>
<g id="a_Node000007"><a xlink:href="classpsr_1_1IDEGeneralizedLCA.html" target="_top" xlink:title="An implementation of a linear constant analysis, similar to IDELinearConstantAnalysis,...">
<polygon fill="white" stroke="#666666" points="850,-1412.03 719,-1412.03 719,-1393.03 850,-1393.03 850,-1412.03"/>
<text text-anchor="middle" x="784.5" y="-1400.03" font-family="Helvetica,sans-Serif" font-size="10.00">psr::IDEGeneralizedLCA</text>
</a>
</g>
</g>
<!-- Node6&#45;&gt;Node7 -->
<g id="edge6_Node000006_Node000007" class="edge">
<title>Node6&#45;&gt;Node7</title>
<g id="a_edge6_Node000006_Node000007"><a xlink:title=" ">
<path fill="none" stroke="#63b8ff" d="M624.84,-1402.53C656.19,-1402.53 690.33,-1402.53 718.88,-1402.53"/>
<polygon fill="#63b8ff" stroke="#63b8ff" points="624.76,-1399.03 614.76,-1402.53 624.76,-1406.03 624.76,-1399.03"/>
</a>
</g>
</g>
<!-- Node10 -->
<g id="Node000010" class="node">
<title>Node10</title>
<g id="a_Node000010"><a xlink:href="classpsr_1_1IDELinearConstantAnalysis.html" target="_top" xlink:title=" ">
<polygon fill="white" stroke="#666666" points="869,-1304.03 700,-1304.03 700,-1285.03 869,-1285.03 869,-1304.03"/>
<text text-anchor="middle" x="784.5" y="-1292.03" font-family="Helvetica,sans-Serif" font-size="10.00">psr::IDELinearConstantAnalysis</text>
</a>
</g>
</g>
<!-- Node9&#45;&gt;Node10 -->
<g id="edge9_Node000009_Node000010" class="edge">
<title>Node9&#45;&gt;Node10</title>
<g id="a_edge9_Node000009_Node000010"><a xlink:title=" ">
<path fill="none" stroke="#63b8ff" d="M643.96,-1294.53C662.81,-1294.53 682.04,-1294.53 699.97,-1294.53"/>
<polygon fill="#63b8ff" stroke="#63b8ff" points="643.84,-1291.03 633.84,-1294.53 643.84,-1298.03 643.84,-1291.03"/>
</a>
</g>
</g>
<!-- Node12 -->
<g id="Node000012" class="node">
<title>Node12</title>
<g id="a_Node000012"><a xlink:href="classpsr_1_1IDEProtoAnalysis.html" target="_top" xlink:title=" ">
<polygon fill="white" stroke="#666666" points="845,-1256.03 724,-1256.03 724,-1237.03 845,-1237.03 845,-1256.03"/>
<text text-anchor="middle" x="784.5" y="-1244.03" font-family="Helvetica,sans-Serif" font-size="10.00">psr::IDEProtoAnalysis</text>
</a>
</g>
</g>
<!-- Node11&#45;&gt;Node12 -->
<g id="edge11_Node000011_Node000012" class="edge">
<title>Node11&#45;&gt;Node12</title>
<g id="a_edge11_Node000011_Node000012"><a xlink:title=" ">
<path fill="none" stroke="#63b8ff" d="M619.63,-1246.53C654.25,-1246.53 692.91,-1246.53 723.98,-1246.53"/>
<polygon fill="#63b8ff" stroke="#63b8ff" points="619.51,-1243.03 609.51,-1246.53 619.51,-1250.03 619.51,-1243.03"/>
</a>
</g>
</g>
<!-- Node14 -->
<g id="Node000014" class="node">
<title>Node14</title>
<g id="a_Node000014"><a xlink:href="classpsr_1_1IDESecureHeapPropagation.html" target="_top" xlink:title=" ">
<polygon fill="white" stroke="#666666" points="870,-1202.03 699,-1202.03 699,-1183.03 870,-1183.03 870,-1202.03"/>
<text text-anchor="middle" x="784.5" y="-1190.03" font-family="Helvetica,sans-Serif" font-size="10.00">psr::IDESecureHeapPropagation</text>
</a>
</g>
</g>
<!-- Node13&#45;&gt;Node14 -->
<g id="edge13_Node000013_Node000014" class="edge">
<title>Node13&#45;&gt;Node14</title>
<g id="a_edge13_Node000013_Node000014"><a xlink:title=" ">
<path fill="none" stroke="#63b8ff" d="M640.72,-1192.53C660.26,-1192.53 680.32,-1192.53 699,-1192.53"/>
<polygon fill="#63b8ff" stroke="#63b8ff" points="640.55,-1189.03 630.55,-1192.53 640.55,-1196.03 640.55,-1189.03"/>
</a>
</g>
</g>
<!-- Node16 -->
<g id="Node000016" class="node">
<title>Node16</title>
<g id="a_Node000016"><a xlink:href="classpsr_1_1IDESolverTest.html" target="_top" xlink:title=" ">
<polygon fill="white" stroke="#666666" points="836.5,-1148.03 732.5,-1148.03 732.5,-1129.03 836.5,-1129.03 836.5,-1148.03"/>
<text text-anchor="middle" x="784.5" y="-1136.03" font-family="Helvetica,sans-Serif" font-size="10.00">psr::IDESolverTest</text>
</a>
</g>
</g>
<!-- Node15&#45;&gt;Node16 -->
<g id="edge15_Node000015_Node000016" class="edge">
<title>Node15&#45;&gt;Node16</title>
<g id="a_edge15_Node000015_Node000016"><a xlink:title=" ">
<path fill="none" stroke="#63b8ff" d="M631.67,-1138.53C666.23,-1138.53 703.39,-1138.53 732.3,-1138.53"/>
<polygon fill="#63b8ff" stroke="#63b8ff" points="631.52,-1135.03 621.52,-1138.53 631.52,-1142.03 631.52,-1135.03"/>
</a>
</g>
</g>
<!-- Node18 -->
<g id="Node000018" class="node">
<title>Node18</title>
<g id="a_Node000018"><a xlink:href="classpsr_1_1IDETypeStateAnalysis.html" target="_top" xlink:title=" ">
<polygon fill="white" stroke="#666666" points="861,-1099.53 708,-1099.53 708,-1069.53 861,-1069.53 861,-1099.53"/>
<text text-anchor="start" x="716" y="-1087.53" font-family="Helvetica,sans-Serif" font-size="10.00">psr::IDETypeStateAnalysis</text>
<text text-anchor="middle" x="784.5" y="-1076.53" font-family="Helvetica,sans-Serif" font-size="10.00">&lt; TypeStateDescriptionTy &gt;</text>
</a>
</g>
</g>
<!-- Node17&#45;&gt;Node18 -->
<g id="edge17_Node000017_Node000018" class="edge">
<title>Node17&#45;&gt;Node18</title>
<g id="a_edge17_Node000017_Node000018"><a xlink:title=" ">
<path fill="none" stroke="#63b8ff" d="M625.46,-1084.53C652.73,-1084.53 682.06,-1084.53 707.97,-1084.53"/>
<polygon fill="#63b8ff" stroke="#63b8ff" points="625.12,-1081.03 615.12,-1084.53 625.12,-1088.03 625.12,-1081.03"/>
</a>
</g>
</g>
<!-- Node21 -->
<g id="Node000021" class="node">
<title>Node21</title>
<g id="a_Node000021"><a xlink:href="classpsr_1_1XTaint_1_1IDEExtendedTaintAnalysis.html" target="_top" xlink:title="An IDE&#45;based taint analysis that uses k&#45;limited field&#45;access paths to achieve field sensitivity.">
<polygon fill="white" stroke="#666666" points="852.5,-964.53 716.5,-964.53 716.5,-934.53 852.5,-934.53 852.5,-964.53"/>
<text text-anchor="start" x="724.5" y="-952.53" font-family="Helvetica,sans-Serif" font-size="10.00">psr::XTaint::IDEExtended</text>
<text text-anchor="middle" x="784.5" y="-941.53" font-family="Helvetica,sans-Serif" font-size="10.00">TaintAnalysis</text>
</a>
</g>
</g>
<!-- Node20&#45;&gt;Node21 -->
<g id="edge20_Node000020_Node000021" class="edge">
<title>Node20&#45;&gt;Node21</title>
<g id="a_edge20_Node000020_Node000021"><a xlink:title=" ">
<path fill="none" stroke="#63b8ff" d="M641.38,-949.53C666.88,-949.53 693.22,-949.53 716.2,-949.53"/>
<polygon fill="#63b8ff" stroke="#63b8ff" points="641.28,-946.03 631.28,-949.53 641.28,-953.03 641.28,-946.03"/>
</a>
</g>
</g>
<!-- Node22 -->
<g id="Node000022" class="node">
<title>Node22</title>
<g id="a_Node000022"><a xlink:href="classpsr_1_1IDEExtendedTaintAnalysis.html" target="_top" xlink:title=" ">
<polygon fill="white" stroke="#666666" points="1105,-964.53 907,-964.53 907,-934.53 1105,-934.53 1105,-964.53"/>
<text text-anchor="start" x="915" y="-952.53" font-family="Helvetica,sans-Serif" font-size="10.00">psr::IDEExtendedTaintAnalysis</text>
<text text-anchor="middle" x="1006" y="-941.53" font-family="Helvetica,sans-Serif" font-size="10.00">&lt; BOUND, USE_STRONG_UPDATES &gt;</text>
</a>
</g>
</g>
<!-- Node21&#45;&gt;Node22 -->
<g id="edge21_Node000021_Node000022" class="edge">
<title>Node21&#45;&gt;Node22</title>
<g id="a_edge21_Node000021_Node000022"><a xlink:title=" ">
<path fill="none" stroke="#63b8ff" d="M862.77,-949.53C877.02,-949.53 892.08,-949.53 906.85,-949.53"/>
<polygon fill="#63b8ff" stroke="#63b8ff" points="862.55,-946.03 852.55,-949.53 862.55,-953.03 862.55,-946.03"/>
</a>
</g>
</g>
</g>
</svg>
