<?xml version="1.0" encoding="UTF-8" standalone="no"?>
<!DOCTYPE svg PUBLIC "-//W3C//DTD SVG 1.1//EN"
 "http://www.w3.org/Graphics/SVG/1.1/DTD/svg11.dtd">
<!-- Generated by graphviz version 2.43.0 (0)
 -->
<!-- Title: psr::IDESolverAPIMixin&lt; Derived &gt; Pages: 1 -->
<svg width="1127pt" height="819pt"
 viewBox="0.00 0.00 1127.00 818.68" xmlns="http://www.w3.org/2000/svg" xmlns:xlink="http://www.w3.org/1999/xlink">
<g id="graph0" class="graph" transform="scale(1 1) rotate(0) translate(4 814.68)">
<title>psr::IDESolverAPIMixin&lt; Derived &gt;</title>
<!-- Node1 -->
<g id="Node000001" class="node">
<title>Node1</title>
<g id="a_Node000001"><a xlink:title=" ">
<polygon fill="#999999" stroke="#666666" points="128,-408.68 0,-408.68 0,-378.68 128,-378.68 128,-408.68"/>
<text text-anchor="start" x="8" y="-396.68" font-family="Helvetica,sans-Serif" font-size="10.00">psr::IDESolverAPIMixin</text>
<text text-anchor="middle" x="64" y="-385.68" font-family="Helvetica,sans-Serif" font-size="10.00">&lt; Derived &gt;</text>
</a>
</g>
</g>
<!-- Node2 -->
<g id="Node000002" class="node">
<title>Node2</title>
<g id="a_Node000002"><a xlink:href="classpsr_1_1IDESolver.html" target="_top" xlink:title=" ">
<polygon fill="white" stroke="#666666" points="1119,-810.68 906,-810.68 906,-758.68 1119,-758.68 1119,-810.68"/>
<text text-anchor="start" x="914" y="-798.68" font-family="Helvetica,sans-Serif" font-size="10.00">psr::IDESolver&lt; WithBinary</text>
<text text-anchor="start" x="914" y="-787.68" font-family="Helvetica,sans-Serif" font-size="10.00">ValueDomain&lt; AnalysisDomainTy</text>
<text text-anchor="start" x="914" y="-776.68" font-family="Helvetica,sans-Serif" font-size="10.00"> &gt;, std::set&lt; typename AnalysisDomain</text>
<text text-anchor="middle" x="1012.5" y="-765.68" font-family="Helvetica,sans-Serif" font-size="10.00">Ty::d_t &gt; &gt;</text>
</a>
</g>
</g>
<!-- Node1&#45;&gt;Node2 -->
<g id="edge1_Node000001_Node000002" class="edge">
<title>Node1&#45;&gt;Node2</title>
<g id="a_edge1_Node000001_Node000002"><a xlink:title=" ">
<path fill="none" stroke="#63b8ff" d="M67.96,-419.01C74.43,-463.99 93.71,-558.54 146,-616.68 217.11,-695.75 259.23,-690.83 361,-721.68 546.95,-778.04 775.21,-787.19 905.96,-787.07"/>
<polygon fill="#63b8ff" stroke="#63b8ff" points="71.4,-418.39 66.6,-408.94 64.47,-419.32 71.4,-418.39"/>
</a>
</g>
</g>
<!-- Node3 -->
<g id="Node000003" class="node">
<title>Node3</title>
<g id="a_Node000003"><a xlink:href="classpsr_1_1IDESolver.html" target="_top" xlink:title=" ">
<polygon fill="white" stroke="#666666" points="1096.5,-723.18 928.5,-723.18 928.5,-682.18 1096.5,-682.18 1096.5,-723.18"/>
<text text-anchor="start" x="936.5" y="-711.18" font-family="Helvetica,sans-Serif" font-size="10.00">psr::IDESolver&lt; Analysis</text>
<text text-anchor="start" x="936.5" y="-700.18" font-family="Helvetica,sans-Serif" font-size="10.00">DomainTy, std::set&lt; typename</text>
<text text-anchor="middle" x="1012.5" y="-689.18" font-family="Helvetica,sans-Serif" font-size="10.00"> AnalysisDomainTy::d_t &gt; &gt;</text>
</a>
</g>
</g>
<!-- Node1&#45;&gt;Node3 -->
<g id="edge2_Node000001_Node000003" class="edge">
<title>Node1&#45;&gt;Node3</title>
<g id="a_edge2_Node000001_Node000003"><a xlink:title=" ">
<path fill="none" stroke="#63b8ff" d="M72.96,-418.51C84.37,-450.41 108.24,-505.58 146,-538.68 329.76,-699.77 416.98,-695.75 657,-741.68 757.84,-760.97 786.53,-757.32 888,-741.68 911.78,-738.01 937.25,-730.6 958.85,-723.21"/>
<polygon fill="#63b8ff" stroke="#63b8ff" points="76.27,-417.35 69.7,-409.04 69.65,-419.63 76.27,-417.35"/>
</a>
</g>
</g>
<!-- Node4 -->
<g id="Node000004" class="node">
<title>Node4</title>
<g id="a_Node000004"><a xlink:href="classpsr_1_1IDESolver.html" target="_top" xlink:title=" ">
<polygon fill="white" stroke="#666666" points="1117,-533.18 908,-533.18 908,-492.18 1117,-492.18 1117,-533.18"/>
<text text-anchor="start" x="916" y="-521.18" font-family="Helvetica,sans-Serif" font-size="10.00">psr::IDESolver&lt; psr</text>
<text text-anchor="start" x="916" y="-510.18" font-family="Helvetica,sans-Serif" font-size="10.00">::IDETypeStateAnalysisDomain</text>
<text text-anchor="middle" x="1012.5" y="-499.18" font-family="Helvetica,sans-Serif" font-size="10.00">&lt; psr::OpenSSLEVPKDFDescription &gt; &gt;</text>
</a>
</g>
</g>
<!-- Node1&#45;&gt;Node4 -->
<g id="edge3_Node000001_Node000004" class="edge">
<title>Node1&#45;&gt;Node4</title>
<g id="a_edge3_Node000001_Node000004"><a xlink:title=" ">
<path fill="none" stroke="#63b8ff" d="M101.68,-413.05C115.25,-419.39 130.99,-425.79 146,-429.68 238.87,-453.71 265.34,-441.46 361,-448.68 595.02,-466.34 656.1,-445.63 888,-481.68 904.71,-484.28 922.46,-488.09 939.14,-492.16"/>
<polygon fill="#63b8ff" stroke="#63b8ff" points="103.19,-409.9 92.66,-408.71 100.15,-416.2 103.19,-409.9"/>
</a>
</g>
</g>
<!-- Node5 -->
<g id="Node000005" class="node">
<title>Node5</title>
<g id="a_Node000005"><a xlink:href="classpsr_1_1IDESolver.html" target="_top" xlink:title=" ">
<polygon fill="white" stroke="#666666" points="1090.5,-472.18 934.5,-472.18 934.5,-431.18 1090.5,-431.18 1090.5,-472.18"/>
<text text-anchor="start" x="942.5" y="-460.18" font-family="Helvetica,sans-Serif" font-size="10.00">psr::IDESolver&lt; psr</text>
<text text-anchor="start" x="942.5" y="-449.18" font-family="Helvetica,sans-Serif" font-size="10.00">::IDESecureHeapPropagation</text>
<text text-anchor="middle" x="1012.5" y="-438.18" font-family="Helvetica,sans-Serif" font-size="10.00">AnalysisDomain &gt;</text>
</a>
</g>
</g>
<!-- Node1&#45;&gt;Node5 -->
<g id="edge4_Node000001_Node000005" class="edge">
<title>Node1&#45;&gt;Node5</title>
<g id="a_edge4_Node000001_Node000005"><a xlink:title=" ">
<path fill="none" stroke="#63b8ff" d="M138.26,-406.75C140.87,-407.08 143.46,-407.39 146,-407.68 435.71,-439.96 782.65,-448.58 934.25,-450.87"/>
<polygon fill="#63b8ff" stroke="#63b8ff" points="138.51,-403.25 128.13,-405.34 137.55,-410.18 138.51,-403.25"/>
</a>
</g>
</g>
<!-- Node6 -->
<g id="Node000006" class="node">
<title>Node6</title>
<g id="a_Node000006"><a xlink:href="classpsr_1_1IDESolver.html" target="_top" xlink:title=" ">
<polygon fill="white" stroke="#666666" points="568.5,-597.68 431.5,-597.68 431.5,-567.68 568.5,-567.68 568.5,-597.68"/>
<text text-anchor="start" x="439.5" y="-585.68" font-family="Helvetica,sans-Serif" font-size="10.00">psr::IDESolver&lt; Analysis</text>
<text text-anchor="middle" x="500" y="-574.68" font-family="Helvetica,sans-Serif" font-size="10.00">DomainTy, Container &gt;</text>
</a>
</g>
</g>
<!-- Node1&#45;&gt;Node6 -->
<g id="edge5_Node000001_Node000006" class="edge">
<title>Node1&#45;&gt;Node6</title>
<g id="a_edge5_Node000001_Node000006"><a xlink:title=" ">
<path fill="none" stroke="#63b8ff" d="M79.4,-417.69C93.65,-439.41 117.44,-470.67 146,-488.68 234.92,-544.74 356.68,-567.61 431.47,-576.77"/>
<polygon fill="#63b8ff" stroke="#63b8ff" points="82.21,-415.59 73.89,-409.03 76.3,-419.35 82.21,-415.59"/>
</a>
</g>
</g>
<!-- Node9 -->
<g id="Node000009" class="node">
<title>Node9</title>
<g id="a_Node000009"><a xlink:href="classpsr_1_1IterativeIDESolver.html" target="_top" xlink:title=" ">
<polygon fill="white" stroke="#666666" points="598,-408.68 402,-408.68 402,-378.68 598,-378.68 598,-408.68"/>
<text text-anchor="start" x="410" y="-396.68" font-family="Helvetica,sans-Serif" font-size="10.00">psr::IterativeIDESolver</text>
<text text-anchor="middle" x="500" y="-385.68" font-family="Helvetica,sans-Serif" font-size="10.00">&lt; ProblemTy, StaticSolverConfigTy &gt;</text>
</a>
</g>
</g>
<!-- Node1&#45;&gt;Node9 -->
<g id="edge12_Node000001_Node000009" class="edge">
<title>Node1&#45;&gt;Node9</title>
<g id="a_edge12_Node000001_Node000009"><a xlink:title=" ">
<path fill="none" stroke="#63b8ff" d="M138.5,-393.68C210.93,-393.68 322.01,-393.68 401.72,-393.68"/>
<polygon fill="#63b8ff" stroke="#63b8ff" points="138.11,-390.18 128.11,-393.68 138.11,-397.18 138.11,-390.18"/>
</a>
</g>
</g>
<!-- Node10 -->
<g id="Node000010" class="node">
<title>Node10</title>
<g id="a_Node000010"><a xlink:href="classpsr_1_1IDESolverAPIMixin.html" target="_top" xlink:title=" ">
<polygon fill="white" stroke="#666666" points="604.5,-360.68 395.5,-360.68 395.5,-308.68 604.5,-308.68 604.5,-360.68"/>
<text text-anchor="start" x="403.5" y="-348.68" font-family="Helvetica,sans-Serif" font-size="10.00">psr::IDESolverAPIMixin</text>
<text text-anchor="start" x="403.5" y="-337.68" font-family="Helvetica,sans-Serif" font-size="10.00">&lt; IDESolver&lt; AnalysisDomainTy,</text>
<text text-anchor="start" x="403.5" y="-326.68" font-family="Helvetica,sans-Serif" font-size="10.00"> std::set&lt; typename AnalysisDomainTy</text>
<text text-anchor="middle" x="500" y="-315.68" font-family="Helvetica,sans-Serif" font-size="10.00">::d_t &gt; &gt; &gt;</text>
</a>
</g>
</g>
<!-- Node1&#45;&gt;Node10 -->
<g id="edge13_Node000001_Node000010" class="edge">
<title>Node1&#45;&gt;Node10</title>
<g id="a_edge13_Node000001_Node000010"><a xlink:title=" ">
<path fill="none" stroke="orange" stroke-dasharray="5,2" d="M100.59,-374.01C114.36,-367.32 130.52,-360.55 146,-356.68 228.05,-336.13 324.01,-331.33 395.15,-331.27"/>
<polygon fill="orange" stroke="orange" points="98.83,-370.98 91.47,-378.59 101.97,-377.23 98.83,-370.98"/>
</a>
</g>
<text text-anchor="start" x="165.5" y="-381.68" font-family="Helvetica,sans-Serif" font-size="10.00" fill="grey"> &lt; IDESolver&lt; AnalysisDomain</text>
<text text-anchor="start" x="165.5" y="-370.68" font-family="Helvetica,sans-Serif" font-size="10.00" fill="grey">Ty, std::set&lt; typename Analysis</text>
<text text-anchor="middle" x="244.5" y="-359.68" font-family="Helvetica,sans-Serif" font-size="10.00" fill="grey">DomainTy::d_t &gt; &gt; &gt;</text>
</g>
<!-- Node11 -->
<g id="Node000011" class="node">
<title>Node11</title>
<g id="a_Node000011"><a xlink:href="classpsr_1_1IDESolverAPIMixin.html" target="_top" xlink:title=" ">
<polygon fill="white" stroke="#666666" points="601,-290.18 399,-290.18 399,-227.18 601,-227.18 601,-290.18"/>
<text text-anchor="start" x="407" y="-278.18" font-family="Helvetica,sans-Serif" font-size="10.00">psr::IDESolverAPIMixin</text>
<text text-anchor="start" x="407" y="-267.18" font-family="Helvetica,sans-Serif" font-size="10.00">&lt; IDESolver&lt; WithBinaryValue</text>
<text text-anchor="start" x="407" y="-256.18" font-family="Helvetica,sans-Serif" font-size="10.00">Domain&lt; AnalysisDomainTy &gt;</text>
<text text-anchor="start" x="407" y="-245.18" font-family="Helvetica,sans-Serif" font-size="10.00">, std::set&lt; typename AnalysisDomain</text>
<text text-anchor="middle" x="500" y="-234.18" font-family="Helvetica,sans-Serif" font-size="10.00">Ty::d_t &gt; &gt; &gt;</text>
</a>
</g>
</g>
<!-- Node1&#45;&gt;Node11 -->
<g id="edge14_Node000001_Node000011" class="edge">
<title>Node1&#45;&gt;Node11</title>
<g id="a_edge14_Node000001_Node000011"><a xlink:title=" ">
<path fill="none" stroke="orange" stroke-dasharray="5,2" d="M75.25,-369.41C87.75,-343.19 111.55,-302.65 146,-283.68 223.09,-241.22 324.44,-238.45 398.76,-244.25"/>
<polygon fill="orange" stroke="orange" points="71.99,-368.12 71.01,-378.68 78.35,-371.03 71.99,-368.12"/>
</a>
</g>
<text text-anchor="start" x="146" y="-319.68" font-family="Helvetica,sans-Serif" font-size="10.00" fill="grey"> &lt; IDESolver&lt; WithBinaryValue</text>
<text text-anchor="start" x="146" y="-308.68" font-family="Helvetica,sans-Serif" font-size="10.00" fill="grey">Domain&lt; AnalysisDomainTy</text>
<text text-anchor="start" x="146" y="-297.68" font-family="Helvetica,sans-Serif" font-size="10.00" fill="grey"> &gt;, std::set&lt; typename AnalysisDomain</text>
<text text-anchor="middle" x="244.5" y="-286.68" font-family="Helvetica,sans-Serif" font-size="10.00" fill="grey">Ty::d_t &gt; &gt; &gt;</text>
</g>
<!-- Node12 -->
<g id="Node000012" class="node">
<title>Node12</title>
<g id="a_Node000012"><a xlink:href="classpsr_1_1IDESolverAPIMixin.html" target="_top" xlink:title=" ">
<polygon fill="white" stroke="#666666" points="595.5,-208.68 404.5,-208.68 404.5,-156.68 595.5,-156.68 595.5,-208.68"/>
<text text-anchor="start" x="412.5" y="-196.68" font-family="Helvetica,sans-Serif" font-size="10.00">psr::IDESolverAPIMixin</text>
<text text-anchor="start" x="412.5" y="-185.68" font-family="Helvetica,sans-Serif" font-size="10.00">&lt; IterativeIDESolver&lt;</text>
<text text-anchor="start" x="412.5" y="-174.68" font-family="Helvetica,sans-Serif" font-size="10.00"> ProblemTy, DefaultIDESolverConfig</text>
<text text-anchor="middle" x="500" y="-163.68" font-family="Helvetica,sans-Serif" font-size="10.00">&lt; ProblemTy &gt; &gt; &gt;</text>
</a>
</g>
</g>
<!-- Node1&#45;&gt;Node12 -->
<g id="edge15_Node000001_Node000012" class="edge">
<title>Node1&#45;&gt;Node12</title>
<g id="a_edge15_Node000001_Node000012"><a xlink:title=" ">
<path fill="none" stroke="orange" stroke-dasharray="5,2" d="M67.53,-368.72C73.24,-326.85 91.25,-243.28 146,-204.68 186.15,-176.37 314,-174.86 404.25,-177.7"/>
<polygon fill="orange" stroke="orange" points="64.06,-368.29 66.3,-378.65 71,-369.15 64.06,-368.29"/>
</a>
</g>
<text text-anchor="start" x="168.5" y="-229.68" font-family="Helvetica,sans-Serif" font-size="10.00" fill="grey"> &lt; IterativeIDESolver</text>
<text text-anchor="start" x="168.5" y="-218.68" font-family="Helvetica,sans-Serif" font-size="10.00" fill="grey">&lt; ProblemTy, DefaultIDESolver</text>
<text text-anchor="middle" x="244.5" y="-207.68" font-family="Helvetica,sans-Serif" font-size="10.00" fill="grey">Config&lt; ProblemTy &gt; &gt; &gt;</text>
</g>
<!-- Node13 -->
<g id="Node000013" class="node">
<title>Node13</title>
<g id="a_Node000013"><a xlink:href="classpsr_1_1IDESolverAPIMixin.html" target="_top" xlink:title=" ">
<polygon fill="white" stroke="#666666" points="639,-138.68 361,-138.68 361,-86.68 639,-86.68 639,-138.68"/>
<text text-anchor="start" x="369" y="-126.68" font-family="Helvetica,sans-Serif" font-size="10.00">psr::IDESolverAPIMixin</text>
<text text-anchor="start" x="369" y="-115.68" font-family="Helvetica,sans-Serif" font-size="10.00">&lt; IDESolver&lt; psr::IDETypeState</text>
<text text-anchor="start" x="369" y="-104.68" font-family="Helvetica,sans-Serif" font-size="10.00">AnalysisDomain&lt; psr::OpenSSLEVPKDFDescription</text>
<text text-anchor="middle" x="500" y="-93.68" font-family="Helvetica,sans-Serif" font-size="10.00"> &gt;, std::set&lt; typename AnalysisDomainTy::d_t &gt; &gt; &gt;</text>
</a>
</g>
</g>
<!-- Node1&#45;&gt;Node13 -->
<g id="edge16_Node000001_Node000013" class="edge">
<title>Node1&#45;&gt;Node13</title>
<g id="a_edge16_Node000001_Node000013"><a xlink:title=" ">
<path fill="none" stroke="orange" stroke-dasharray="5,2" d="M68.62,-368.17C78.02,-305.83 105.4,-148.53 146,-117.68 179.19,-92.46 276.74,-92.63 360.9,-98.32"/>
<polygon fill="orange" stroke="orange" points="65.11,-367.93 67.12,-378.33 72.04,-368.95 65.11,-367.93"/>
</a>
</g>
<text text-anchor="start" x="146" y="-164.68" font-family="Helvetica,sans-Serif" font-size="10.00" fill="grey"> &lt; IDESolver&lt; psr::IDEType</text>
<text text-anchor="start" x="146" y="-153.68" font-family="Helvetica,sans-Serif" font-size="10.00" fill="grey">StateAnalysisDomain&lt; psr</text>
<text text-anchor="start" x="146" y="-142.68" font-family="Helvetica,sans-Serif" font-size="10.00" fill="grey">::OpenSSLEVPKDFDescription</text>
<text text-anchor="start" x="146" y="-131.68" font-family="Helvetica,sans-Serif" font-size="10.00" fill="grey"> &gt;, std::set&lt; typename AnalysisDomain</text>
<text text-anchor="middle" x="244.5" y="-120.68" font-family="Helvetica,sans-Serif" font-size="10.00" fill="grey">Ty::d_t &gt; &gt; &gt;</text>
</g>
<!-- Node14 -->
<g id="Node000014" class="node">
<title>Node14</title>
<g id="a_Node000014"><a xlink:href="classpsr_1_1IDESolverAPIMixin.html" target="_top" xlink:title=" ">
<polygon fill="white" stroke="#666666" points="604.5,-68.18 395.5,-68.18 395.5,-5.18 604.5,-5.18 604.5,-68.18"/>
<text text-anchor="start" x="403.5" y="-56.18" font-family="Helvetica,sans-Serif" font-size="10.00">psr::IDESolverAPIMixin</text>
<text text-anchor="start" x="403.5" y="-45.18" font-family="Helvetica,sans-Serif" font-size="10.00">&lt; IDESolver&lt; psr::IDESecureHeap</text>
<text text-anchor="start" x="403.5" y="-34.18" font-family="Helvetica,sans-Serif" font-size="10.00">PropagationAnalysisDomain,</text>
<text text-anchor="start" x="403.5" y="-23.18" font-family="Helvetica,sans-Serif" font-size="10.00"> std::set&lt; typename AnalysisDomainTy</text>
<text text-anchor="middle" x="500" y="-12.18" font-family="Helvetica,sans-Serif" font-size="10.00">::d_t &gt; &gt; &gt;</text>
</a>
</g>
</g>
<!-- Node1&#45;&gt;Node14 -->
<g id="edge17_Node000001_Node000014" class="edge">
<title>Node1&#45;&gt;Node14</title>
<g id="a_edge17_Node000001_Node000014"><a xlink:title=" ">
<path fill="none" stroke="orange" stroke-dasharray="5,2" d="M67.03,-368.37C73.44,-295.66 95.83,-88.75 146,-47.68 214.56,8.44 318.19,4.71 395.46,-9.18"/>
<polygon fill="orange" stroke="orange" points="63.53,-368.2 66.17,-378.47 70.51,-368.8 63.53,-368.2"/>
</a>
</g>
<text text-anchor="start" x="148" y="-83.68" font-family="Helvetica,sans-Serif" font-size="10.00" fill="grey"> &lt; IDESolver&lt; psr::IDESecure</text>
<text text-anchor="start" x="148" y="-72.68" font-family="Helvetica,sans-Serif" font-size="10.00" fill="grey">HeapPropagationAnalysisDomain,</text>
<text text-anchor="start" x="148" y="-61.68" font-family="Helvetica,sans-Serif" font-size="10.00" fill="grey"> std::set&lt; typename AnalysisDomainTy</text>
<text text-anchor="middle" x="244.5" y="-50.68" font-family="Helvetica,sans-Serif" font-size="10.00" fill="grey">::d_t &gt; &gt; &gt;</text>
</g>
<!-- Node6&#45;&gt;Node2 -->
<g id="edge8_Node000006_Node000002" class="edge">
<title>Node6&#45;&gt;Node2</title>
<g id="a_edge8_Node000006_Node000002"><a xlink:title=" ">
<path fill="none" stroke="orange" stroke-dasharray="5,2" d="M530.67,-603.54C561.13,-624.13 610.52,-655.27 657,-674.68 754.99,-715.59 787.14,-702.48 888,-735.68 908.49,-742.42 930.48,-750.77 950.15,-758.66"/>
<polygon fill="orange" stroke="orange" points="532.45,-600.52 522.22,-597.77 528.5,-606.3 532.45,-600.52"/>
</a>
</g>
<text text-anchor="start" x="681" y="-771.68" font-family="Helvetica,sans-Serif" font-size="10.00" fill="grey"> &lt; WithBinaryValueDomain</text>
<text text-anchor="start" x="681" y="-760.68" font-family="Helvetica,sans-Serif" font-size="10.00" fill="grey">&lt; AnalysisDomainTy &gt;,</text>
<text text-anchor="start" x="681" y="-749.68" font-family="Helvetica,sans-Serif" font-size="10.00" fill="grey"> std::set&lt; typename AnalysisDomain</text>
<text text-anchor="middle" x="772.5" y="-738.68" font-family="Helvetica,sans-Serif" font-size="10.00" fill="grey">Ty::d_t &gt; &gt;</text>
</g>
<!-- Node6&#45;&gt;Node3 -->
<g id="edge9_Node000006_Node000003" class="edge">
<title>Node6&#45;&gt;Node3</title>
<g id="a_edge9_Node000006_Node000003"><a xlink:title=" ">
<path fill="none" stroke="orange" stroke-dasharray="5,2" d="M578.87,-599.35C603.76,-604.36 631.48,-609.6 657,-613.68 759.12,-629.99 788.89,-612.14 888,-641.68 919.86,-651.17 953.53,-668.34 977.65,-682.05"/>
<polygon fill="orange" stroke="orange" points="579.25,-595.86 568.76,-597.3 577.86,-602.72 579.25,-595.86"/>
</a>
</g>
<text text-anchor="start" x="704.5" y="-666.68" font-family="Helvetica,sans-Serif" font-size="10.00" fill="grey"> &lt; AnalysisDomainTy,</text>
<text text-anchor="start" x="704.5" y="-655.68" font-family="Helvetica,sans-Serif" font-size="10.00" fill="grey"> std::set&lt; typename</text>
<text text-anchor="middle" x="772.5" y="-644.68" font-family="Helvetica,sans-Serif" font-size="10.00" fill="grey"> AnalysisDomainTy::d_t &gt; &gt;</text>
</g>
<!-- Node6&#45;&gt;Node4 -->
<g id="edge10_Node000006_Node000004" class="edge">
<title>Node6&#45;&gt;Node4</title>
<g id="a_edge10_Node000006_Node000004"><a xlink:title=" ">
<path fill="none" stroke="orange" stroke-dasharray="5,2" d="M566.21,-565.06C594.01,-558.11 626.91,-550.62 657,-545.68 669.33,-543.65 807.6,-531.01 907.74,-521.98"/>
<polygon fill="orange" stroke="orange" points="565.05,-561.74 556.21,-567.59 566.77,-568.53 565.05,-561.74"/>
</a>
</g>
<text text-anchor="start" x="657" y="-559.68" font-family="Helvetica,sans-Serif" font-size="10.00" fill="grey"> &lt; psr::IDETypeStateAnalysis</text>
<text text-anchor="middle" x="772.5" y="-548.68" font-family="Helvetica,sans-Serif" font-size="10.00" fill="grey">Domain&lt; psr::OpenSSLEVPKDFDescription &gt; &gt;</text>
</g>
<!-- Node6&#45;&gt;Node5 -->
<g id="edge11_Node000006_Node000005" class="edge">
<title>Node6&#45;&gt;Node5</title>
<g id="a_edge11_Node000006_Node000005"><a xlink:title=" ">
<path fill="none" stroke="orange" stroke-dasharray="5,2" d="M530.97,-561.94C561.3,-542.05 610.28,-512.85 657,-497.68 749.38,-467.68 861.29,-457.17 934.34,-453.53"/>
<polygon fill="orange" stroke="orange" points="528.94,-559.09 522.55,-567.54 532.82,-564.92 528.94,-559.09"/>
</a>
</g>
<text text-anchor="start" x="688" y="-511.68" font-family="Helvetica,sans-Serif" font-size="10.00" fill="grey"> &lt; psr::IDESecureHeapPropagation</text>
<text text-anchor="middle" x="772.5" y="-500.68" font-family="Helvetica,sans-Serif" font-size="10.00" fill="grey">AnalysisDomain &gt;</text>
</g>
<!-- Node7 -->
<g id="Node000007" class="node">
<title>Node7</title>
<g id="a_Node000007"><a xlink:href="classpsr_1_1IFDSSolver.html" target="_top" xlink:title="Solves the given IFDSTabulationProblem as described in the 1995 paper by Reps, Horwitz and Sagiv....">
<polygon fill="white" stroke="#666666" points="1084,-582.68 941,-582.68 941,-552.68 1084,-552.68 1084,-582.68"/>
<text text-anchor="start" x="949" y="-570.68" font-family="Helvetica,sans-Serif" font-size="10.00">psr::IFDSSolver&lt; Analysis</text>
<text text-anchor="middle" x="1012.5" y="-559.68" font-family="Helvetica,sans-Serif" font-size="10.00">DomainTy, Container &gt;</text>
</a>
</g>
</g>
<!-- Node6&#45;&gt;Node7 -->
<g id="edge6_Node000006_Node000007" class="edge">
<title>Node6&#45;&gt;Node7</title>
<g id="a_edge6_Node000006_Node000007"><a xlink:title=" ">
<path fill="none" stroke="#63b8ff" d="M578.72,-580.39C677.29,-577.5 845.83,-572.55 940.89,-569.75"/>
<polygon fill="#63b8ff" stroke="#63b8ff" points="578.42,-576.9 568.53,-580.69 578.63,-583.9 578.42,-576.9"/>
</a>
</g>
</g>
<!-- Node8 -->
<g id="Node000008" class="node">
<title>Node8</title>
<g id="a_Node000008"><a xlink:href="classpsr_1_1PathAwareIDESolver.html" target="_top" xlink:title=" ">
<polygon fill="white" stroke="#666666" points="1103.5,-630.68 921.5,-630.68 921.5,-600.68 1103.5,-600.68 1103.5,-630.68"/>
<text text-anchor="start" x="929.5" y="-618.68" font-family="Helvetica,sans-Serif" font-size="10.00">psr::PathAwareIDESolver</text>
<text text-anchor="middle" x="1012.5" y="-607.68" font-family="Helvetica,sans-Serif" font-size="10.00">&lt; AnalysisDomainTy, Container &gt;</text>
</a>
</g>
</g>
<!-- Node6&#45;&gt;Node8 -->
<g id="edge7_Node000006_Node000008" class="edge">
<title>Node6&#45;&gt;Node8</title>
<g id="a_edge7_Node000006_Node000008"><a xlink:title=" ">
<path fill="none" stroke="#63b8ff" d="M578.62,-587.7C670.75,-593.65 824.1,-603.56 921.38,-609.85"/>
<polygon fill="#63b8ff" stroke="#63b8ff" points="578.73,-584.2 568.53,-587.04 578.28,-591.18 578.73,-584.2"/>
</a>
</g>
</g>
</g>
</svg>
