<?xml version="1.0" encoding="UTF-8" standalone="no"?>
<!DOCTYPE svg PUBLIC "-//W3C//DTD SVG 1.1//EN"
 "http://www.w3.org/Graphics/SVG/1.1/DTD/svg11.dtd">
<!-- Generated by graphviz version 2.43.0 (0)
 -->
<!-- Title: psr::PointsToInfoBase&lt; Derived &gt; Pages: 1 -->
<svg width="198pt" height="316pt"
 viewBox="0.00 0.00 197.50 316.00" xmlns="http://www.w3.org/2000/svg" xmlns:xlink="http://www.w3.org/1999/xlink">
<g id="graph0" class="graph" transform="scale(1 1) rotate(0) translate(4 312)">
<title>psr::PointsToInfoBase&lt; Derived &gt;</title>
<!-- Node1 -->
<g id="Node000001" class="node">
<title>Node1</title>
<g id="a_Node000001"><a xlink:title=" ">
<polygon fill="#999999" stroke="#666666" points="151,-252 30,-252 30,-222 151,-222 151,-252"/>
<text text-anchor="start" x="38" y="-240" font-family="Helvetica,sans-Serif" font-size="10.00">psr::PointsToInfoBase</text>
<text text-anchor="middle" x="90.5" y="-229" font-family="Helvetica,sans-Serif" font-size="10.00">&lt; Derived &gt;</text>
</a>
</g>
</g>
<!-- Node3 -->
<g id="Node000003" class="node">
<title>Node3</title>
<g id="a_Node000003"><a xlink:href="classpsr_1_1PointsToInfoBase.html" target="_top" xlink:title=" ">
<polygon fill="white" stroke="#666666" points="181,-164 0,-164 0,-134 181,-134 181,-164"/>
<text text-anchor="start" x="8" y="-152" font-family="Helvetica,sans-Serif" font-size="10.00">psr::PointsToInfoBase</text>
<text text-anchor="middle" x="90.5" y="-141" font-family="Helvetica,sans-Serif" font-size="10.00">&lt; PointsToInfoRef&lt; PTATraits &gt; &gt;</text>
</a>
</g>
</g>
<!-- Node1&#45;&gt;Node3 -->
<g id="edge2_Node000001_Node000003" class="edge">
<title>Node1&#45;&gt;Node3</title>
<g id="a_edge2_Node000001_Node000003"><a xlink:title=" ">
<path fill="none" stroke="orange" stroke-dasharray="5,2" d="M90.5,-211.49C90.5,-196.2 90.5,-177.05 90.5,-164.22"/>
<polygon fill="orange" stroke="orange" points="87,-211.8 90.5,-221.8 94,-211.8 87,-211.8"/>
</a>
</g>
<text text-anchor="start" x="90.5" y="-196" font-family="Helvetica,sans-Serif" font-size="10.00" fill="grey"> &lt; PointsToInfoRef&lt;</text>
<text text-anchor="middle" x="140" y="-185" font-family="Helvetica,sans-Serif" font-size="10.00" fill="grey"> PTATraits &gt; &gt;</text>
</g>
<!-- Node2 -->
<g id="Node000002" class="node">
<title>Node2</title>
<g id="a_Node000002"><a xlink:href="classpsr_1_1CRTPBase.html" target="_top" xlink:title=" ">
<polygon fill="white" stroke="#666666" points="164,-308 17,-308 17,-289 164,-289 164,-308"/>
<text text-anchor="middle" x="90.5" y="-296" font-family="Helvetica,sans-Serif" font-size="10.00">psr::CRTPBase&lt; Derived &gt;</text>
</a>
</g>
</g>
<!-- Node2&#45;&gt;Node1 -->
<g id="edge1_Node000001_Node000002" class="edge">
<title>Node2&#45;&gt;Node1</title>
<g id="a_edge1_Node000001_Node000002"><a xlink:title=" ">
<path fill="none" stroke="#63b8ff" d="M90.5,-278.73C90.5,-270.09 90.5,-260 90.5,-252.02"/>
<polygon fill="#63b8ff" stroke="#63b8ff" points="87,-278.98 90.5,-288.98 94,-278.98 87,-278.98"/>
</a>
</g>
</g>
<!-- Node4 -->
<g id="Node000004" class="node">
<title>Node4</title>
<g id="a_Node000004"><a xlink:href="classpsr_1_1PointsToInfoRef_3_01PTATraits_01_4.html" target="_top" xlink:title=" ">
<polygon fill="white" stroke="#666666" points="147,-97 34,-97 34,-67 147,-67 147,-97"/>
<text text-anchor="start" x="42" y="-85" font-family="Helvetica,sans-Serif" font-size="10.00">psr::PointsToInfoRef</text>
<text text-anchor="middle" x="90.5" y="-74" font-family="Helvetica,sans-Serif" font-size="10.00">&lt; PTATraits &gt;</text>
</a>
</g>
</g>
<!-- Node3&#45;&gt;Node4 -->
<g id="edge3_Node000003_Node000004" class="edge">
<title>Node3&#45;&gt;Node4</title>
<g id="a_edge3_Node000003_Node000004"><a xlink:title=" ">
<path fill="none" stroke="#63b8ff" d="M90.5,-123.61C90.5,-114.65 90.5,-104.82 90.5,-97.08"/>
<polygon fill="#63b8ff" stroke="#63b8ff" points="87,-123.9 90.5,-133.9 94,-123.9 87,-123.9"/>
</a>
</g>
</g>
<!-- Node5 -->
<g id="Node000005" class="node">
<title>Node5</title>
<g id="a_Node000005"><a xlink:href="classpsr_1_1PointsToInfo_3_01PTATraits_01_4.html" target="_top" xlink:title=" ">
<polygon fill="white" stroke="#666666" points="143,-30 38,-30 38,0 143,0 143,-30"/>
<text text-anchor="start" x="46" y="-18" font-family="Helvetica,sans-Serif" font-size="10.00">psr::PointsToInfo&lt;</text>
<text text-anchor="middle" x="90.5" y="-7" font-family="Helvetica,sans-Serif" font-size="10.00"> PTATraits &gt;</text>
</a>
</g>
</g>
<!-- Node4&#45;&gt;Node5 -->
<g id="edge4_Node000004_Node000005" class="edge">
<title>Node4&#45;&gt;Node5</title>
<g id="a_edge4_Node000004_Node000005"><a xlink:title=" ">
<path fill="none" stroke="#63b8ff" d="M90.5,-56.61C90.5,-47.65 90.5,-37.82 90.5,-30.08"/>
<polygon fill="#63b8ff" stroke="#63b8ff" points="87,-56.9 90.5,-66.9 94,-56.9 87,-56.9"/>
</a>
</g>
</g>
</g>
</svg>
