<?xml version="1.0" encoding="UTF-8" standalone="no"?>
<!DOCTYPE svg PUBLIC "-//W3C//DTD SVG 1.1//EN"
 "http://www.w3.org/Graphics/SVG/1.1/DTD/svg11.dtd">
<!-- Generated by graphviz version 2.43.0 (0)
 -->
<!-- Title: psr::glca::MapFactsToCalleeFlowFunction Pages: 1 -->
<svg width="202pt" height="182pt"
 viewBox="0.00 0.00 201.50 182.00" xmlns="http://www.w3.org/2000/svg" xmlns:xlink="http://www.w3.org/1999/xlink">
<g id="graph0" class="graph" transform="scale(1 1) rotate(0) translate(4 178)">
<title>psr::glca::MapFactsToCalleeFlowFunction</title>
<!-- Node1 -->
<g id="Node000001" class="node">
<title>Node1</title>
<g id="a_Node000001"><a xlink:title=" ">
<polygon fill="#999999" stroke="#666666" points="151,-30 0,-30 0,0 151,0 151,-30"/>
<text text-anchor="start" x="8" y="-18" font-family="Helvetica,sans-Serif" font-size="10.00">psr::glca::MapFactsToCallee</text>
<text text-anchor="middle" x="75.5" y="-7" font-family="Helvetica,sans-Serif" font-size="10.00">FlowFunction</text>
</a>
</g>
</g>
<!-- Node2 -->
<g id="Node000002" class="node">
<title>Node2</title>
<g id="a_Node000002"><a xlink:href="classpsr_1_1FlowFunction.html" target="_top" xlink:title=" ">
<polygon fill="white" stroke="#666666" points="137,-97 14,-97 14,-67 137,-67 137,-97"/>
<text text-anchor="start" x="22" y="-85" font-family="Helvetica,sans-Serif" font-size="10.00">psr::FlowFunction&lt;</text>
<text text-anchor="middle" x="75.5" y="-74" font-family="Helvetica,sans-Serif" font-size="10.00"> const llvm::Value * &gt;</text>
</a>
</g>
</g>
<!-- Node2&#45;&gt;Node1 -->
<g id="edge1_Node000001_Node000002" class="edge">
<title>Node2&#45;&gt;Node1</title>
<g id="a_edge1_Node000001_Node000002"><a xlink:title=" ">
<path fill="none" stroke="#63b8ff" d="M75.5,-56.61C75.5,-47.65 75.5,-37.82 75.5,-30.08"/>
<polygon fill="#63b8ff" stroke="#63b8ff" points="72,-56.9 75.5,-66.9 79,-56.9 72,-56.9"/>
</a>
</g>
</g>
<!-- Node3 -->
<g id="Node000003" class="node">
<title>Node3</title>
<g id="a_Node000003"><a xlink:href="classpsr_1_1FlowFunction.html" target="_top" xlink:title=" ">
<polygon fill="white" stroke="#666666" points="130.5,-174 20.5,-174 20.5,-144 130.5,-144 130.5,-174"/>
<text text-anchor="start" x="28.5" y="-162" font-family="Helvetica,sans-Serif" font-size="10.00">psr::FlowFunction&lt;</text>
<text text-anchor="middle" x="75.5" y="-151" font-family="Helvetica,sans-Serif" font-size="10.00"> D, Container &gt;</text>
</a>
</g>
</g>
<!-- Node3&#45;&gt;Node2 -->
<g id="edge2_Node000002_Node000003" class="edge">
<title>Node3&#45;&gt;Node2</title>
<g id="a_edge2_Node000002_Node000003"><a xlink:title=" ">
<path fill="none" stroke="orange" stroke-dasharray="5,2" d="M75.5,-133.54C75.5,-121.45 75.5,-107.29 75.5,-97.04"/>
<polygon fill="orange" stroke="orange" points="72,-133.89 75.5,-143.89 79,-133.89 72,-133.89"/>
</a>
</g>
<text text-anchor="middle" x="134.5" y="-118" font-family="Helvetica,sans-Serif" font-size="10.00" fill="grey"> &lt; const llvm::Value * &gt;</text>
</g>
</g>
</svg>
