<?xml version="1.0" encoding="UTF-8" standalone="no"?>
<!DOCTYPE svg PUBLIC "-//W3C//DTD SVG 1.1//EN"
 "http://www.w3.org/Graphics/SVG/1.1/DTD/svg11.dtd">
<!-- Generated by graphviz version 2.43.0 (0)
 -->
<!-- Title: psr::CallGraph&lt; N, F &gt; Pages: 1 -->
<svg width="1091pt" height="98pt"
 viewBox="0.00 0.00 1091.00 97.50" xmlns="http://www.w3.org/2000/svg" xmlns:xlink="http://www.w3.org/1999/xlink">
<g id="graph0" class="graph" transform="scale(1 1) rotate(0) translate(4 93.5)">
<title>psr::CallGraph&lt; N, F &gt;</title>
<!-- Node1 -->
<g id="Node000001" class="node">
<title>Node1</title>
<g id="a_Node000001"><a xlink:title=" ">
<polygon fill="#999999" stroke="#666666" points="777,-57 649,-57 649,-38 777,-38 777,-57"/>
<text text-anchor="middle" x="713" y="-45" font-family="Helvetica,sans-Serif" font-size="10.00">psr::CallGraph&lt; N, F &gt;</text>
</a>
</g>
</g>
<!-- Node6 -->
<g id="Node000006" class="node">
<title>Node6</title>
<g id="a_Node000006"><a xlink:href="classpsr_1_1CallGraph.html" target="_top" xlink:title=" ">
<polygon fill="white" stroke="#666666" points="1072,-89.5 957,-89.5 957,-59.5 1072,-59.5 1072,-89.5"/>
<text text-anchor="start" x="965" y="-77.5" font-family="Helvetica,sans-Serif" font-size="10.00">psr::CallGraph&lt; n_t,</text>
<text text-anchor="middle" x="1014.5" y="-66.5" font-family="Helvetica,sans-Serif" font-size="10.00"> f_t &gt;</text>
</a>
</g>
</g>
<!-- Node1&#45;&gt;Node6 -->
<g id="edge5_Node000001_Node000006" class="edge">
<title>Node1&#45;&gt;Node6</title>
<g id="a_edge5_Node000001_Node000006"><a xlink:title=" ">
<path fill="none" stroke="orange" stroke-dasharray="5,2" d="M787.34,-54.11C839.48,-58.81 908.49,-65.03 956.51,-69.36"/>
<polygon fill="orange" stroke="orange" points="787.42,-50.61 777.15,-53.19 786.8,-57.58 787.42,-50.61"/>
</a>
</g>
<text text-anchor="middle" x="861.5" y="-69.5" font-family="Helvetica,sans-Serif" font-size="10.00" fill="grey"> &lt; n_t, f_t &gt;</text>
</g>
<!-- Node7 -->
<g id="Node000007" class="node">
<title>Node7</title>
<g id="a_Node000007"><a xlink:href="classpsr_1_1CallGraph.html" target="_top" xlink:title=" ">
<polygon fill="white" stroke="#666666" points="1083,-41 946,-41 946,0 1083,0 1083,-41"/>
<text text-anchor="start" x="954" y="-29" font-family="Helvetica,sans-Serif" font-size="10.00">psr::CallGraph&lt; const</text>
<text text-anchor="start" x="954" y="-18" font-family="Helvetica,sans-Serif" font-size="10.00"> llvm::Instruction *,</text>
<text text-anchor="middle" x="1014.5" y="-7" font-family="Helvetica,sans-Serif" font-size="10.00"> const llvm::Function * &gt;</text>
</a>
</g>
</g>
<!-- Node1&#45;&gt;Node7 -->
<g id="edge6_Node000001_Node000007" class="edge">
<title>Node1&#45;&gt;Node7</title>
<g id="a_edge6_Node000001_Node000007"><a xlink:title=" ">
<path fill="none" stroke="orange" stroke-dasharray="5,2" d="M757.79,-35.6C769.77,-32.79 782.81,-30.14 795,-28.5 845.22,-21.75 902.49,-19.87 945.79,-19.61"/>
<polygon fill="orange" stroke="orange" points="756.91,-32.21 748.02,-37.97 758.56,-39.01 756.91,-32.21"/>
</a>
</g>
<text text-anchor="start" x="795" y="-42.5" font-family="Helvetica,sans-Serif" font-size="10.00" fill="grey"> &lt; const llvm::Instruction</text>
<text text-anchor="middle" x="861.5" y="-31.5" font-family="Helvetica,sans-Serif" font-size="10.00" fill="grey"> *, const llvm::Function * &gt;</text>
</g>
<!-- Node2 -->
<g id="Node000002" class="node">
<title>Node2</title>
<g id="a_Node000002"><a xlink:href="classpsr_1_1CallGraphBase.html" target="_top" xlink:title=" ">
<polygon fill="white" stroke="#666666" points="612,-62.5 483,-62.5 483,-32.5 612,-32.5 612,-62.5"/>
<text text-anchor="start" x="491" y="-50.5" font-family="Helvetica,sans-Serif" font-size="10.00">psr::CallGraphBase</text>
<text text-anchor="middle" x="547.5" y="-39.5" font-family="Helvetica,sans-Serif" font-size="10.00">&lt; CallGraph&lt; N, F &gt; &gt;</text>
</a>
</g>
</g>
<!-- Node2&#45;&gt;Node1 -->
<g id="edge1_Node000001_Node000002" class="edge">
<title>Node2&#45;&gt;Node1</title>
<g id="a_edge1_Node000001_Node000002"><a xlink:title=" ">
<path fill="none" stroke="#63b8ff" d="M622.42,-47.5C631.22,-47.5 640.14,-47.5 648.76,-47.5"/>
<polygon fill="#63b8ff" stroke="#63b8ff" points="622.18,-44 612.18,-47.5 622.18,-51 622.18,-44"/>
</a>
</g>
</g>
<!-- Node3 -->
<g id="Node000003" class="node">
<title>Node3</title>
<g id="a_Node000003"><a xlink:href="classpsr_1_1CRTPBase.html" target="_top" xlink:title=" ">
<polygon fill="white" stroke="#666666" points="331,-78 184,-78 184,-59 331,-59 331,-78"/>
<text text-anchor="middle" x="257.5" y="-66" font-family="Helvetica,sans-Serif" font-size="10.00">psr::CRTPBase&lt; Derived &gt;</text>
</a>
</g>
</g>
<!-- Node3&#45;&gt;Node2 -->
<g id="edge2_Node000002_Node000003" class="edge">
<title>Node3&#45;&gt;Node2</title>
<g id="a_edge2_Node000002_Node000003"><a xlink:title=" ">
<path fill="none" stroke="#63b8ff" d="M341.2,-62.47C386.2,-59.19 441.01,-55.19 482.67,-52.15"/>
<polygon fill="#63b8ff" stroke="#63b8ff" points="340.89,-58.98 331.17,-63.2 341.4,-65.96 340.89,-58.98"/>
</a>
</g>
</g>
<!-- Node4 -->
<g id="Node000004" class="node">
<title>Node4</title>
<g id="a_Node000004"><a xlink:href="classpsr_1_1CallGraphBase.html" target="_top" xlink:title=" ">
<polygon fill="white" stroke="#666666" points="312.5,-40.5 202.5,-40.5 202.5,-10.5 312.5,-10.5 312.5,-40.5"/>
<text text-anchor="start" x="210.5" y="-28.5" font-family="Helvetica,sans-Serif" font-size="10.00">psr::CallGraphBase</text>
<text text-anchor="middle" x="257.5" y="-17.5" font-family="Helvetica,sans-Serif" font-size="10.00">&lt; Derived &gt;</text>
</a>
</g>
</g>
<!-- Node4&#45;&gt;Node2 -->
<g id="edge3_Node000002_Node000004" class="edge">
<title>Node4&#45;&gt;Node2</title>
<g id="a_edge3_Node000002_Node000004"><a xlink:title=" ">
<path fill="none" stroke="orange" stroke-dasharray="5,2" d="M322.97,-28.78C363.73,-31.04 417.49,-34.38 465,-38.5 470.81,-39 476.86,-39.58 482.91,-40.18"/>
<polygon fill="orange" stroke="orange" points="323.08,-25.28 312.9,-28.22 322.69,-32.27 323.08,-25.28"/>
</a>
</g>
<text text-anchor="middle" x="407" y="-41.5" font-family="Helvetica,sans-Serif" font-size="10.00" fill="grey"> &lt; CallGraph&lt; N, F &gt; &gt;</text>
</g>
<!-- Node5 -->
<g id="Node000005" class="node">
<title>Node5</title>
<g id="a_Node000005"><a xlink:href="classpsr_1_1CRTPBase.html" target="_top" xlink:title=" ">
<polygon fill="white" stroke="#666666" points="147,-35 0,-35 0,-16 147,-16 147,-35"/>
<text text-anchor="middle" x="73.5" y="-23" font-family="Helvetica,sans-Serif" font-size="10.00">psr::CRTPBase&lt; Derived &gt;</text>
</a>
</g>
</g>
<!-- Node5&#45;&gt;Node4 -->
<g id="edge4_Node000004_Node000005" class="edge">
<title>Node5&#45;&gt;Node4</title>
<g id="a_edge4_Node000004_Node000005"><a xlink:title=" ">
<path fill="none" stroke="#63b8ff" d="M157.23,-25.5C172.56,-25.5 188.2,-25.5 202.4,-25.5"/>
<polygon fill="#63b8ff" stroke="#63b8ff" points="157.22,-22 147.22,-25.5 157.22,-29 157.22,-22"/>
</a>
</g>
</g>
</g>
</svg>
