<?xml version="1.0" encoding="UTF-8" standalone="no"?>
<!DOCTYPE svg PUBLIC "-//W3C//DTD SVG 1.1//EN"
 "http://www.w3.org/Graphics/SVG/1.1/DTD/svg11.dtd">
<!-- Generated by graphviz version 2.43.0 (0)
 -->
<!-- Title: psr::OpenSSLEVPKDFCTXDescription Pages: 1 -->
<svg width="304pt" height="227pt"
 viewBox="0.00 0.00 304.00 227.00" xmlns="http://www.w3.org/2000/svg" xmlns:xlink="http://www.w3.org/1999/xlink">
<g id="graph0" class="graph" transform="scale(1 1) rotate(0) translate(4 223)">
<title>psr::OpenSSLEVPKDFCTXDescription</title>
<!-- Node1 -->
<g id="Node000001" class="node">
<title>Node1</title>
<g id="a_Node000001"><a xlink:title=" ">
<polygon fill="#999999" stroke="#666666" points="194,-19 0,-19 0,0 194,0 194,-19"/>
<text text-anchor="middle" x="97" y="-7" font-family="Helvetica,sans-Serif" font-size="10.00">psr::OpenSSLEVPKDFCTXDescription</text>
</a>
</g>
</g>
<!-- Node2 -->
<g id="Node000002" class="node">
<title>Node2</title>
<g id="a_Node000002"><a xlink:href="structpsr_1_1TypeStateDescription.html" target="_top" xlink:title=" ">
<polygon fill="white" stroke="#666666" points="180,-86 14,-86 14,-56 180,-56 180,-86"/>
<text text-anchor="start" x="22" y="-74" font-family="Helvetica,sans-Serif" font-size="10.00">psr::TypeStateDescription</text>
<text text-anchor="middle" x="97" y="-63" font-family="Helvetica,sans-Serif" font-size="10.00">&lt; OpenSSLEVPKDFCTXState &gt;</text>
</a>
</g>
</g>
<!-- Node2&#45;&gt;Node1 -->
<g id="edge1_Node000001_Node000002" class="edge">
<title>Node2&#45;&gt;Node1</title>
<g id="a_edge1_Node000001_Node000002"><a xlink:title=" ">
<path fill="none" stroke="#63b8ff" d="M97,-45.79C97,-36.36 97,-26.15 97,-19.16"/>
<polygon fill="#63b8ff" stroke="#63b8ff" points="93.5,-45.9 97,-55.9 100.5,-45.9 93.5,-45.9"/>
</a>
</g>
</g>
<!-- Node3 -->
<g id="Node000003" class="node">
<title>Node3</title>
<g id="a_Node000003"><a xlink:href="structpsr_1_1TypeStateDescriptionBase.html" target="_top" xlink:title=" ">
<polygon fill="white" stroke="#666666" points="175.5,-219 10.5,-219 10.5,-200 175.5,-200 175.5,-219"/>
<text text-anchor="middle" x="93" y="-207" font-family="Helvetica,sans-Serif" font-size="10.00">psr::TypeStateDescriptionBase</text>
</a>
</g>
</g>
<!-- Node3&#45;&gt;Node2 -->
<g id="edge2_Node000002_Node000003" class="edge">
<title>Node3&#45;&gt;Node2</title>
<g id="a_edge2_Node000002_Node000003"><a xlink:title=" ">
<path fill="none" stroke="#63b8ff" d="M93.55,-189.65C94.37,-161.91 95.87,-110.7 96.59,-86.02"/>
<polygon fill="#63b8ff" stroke="#63b8ff" points="90.04,-189.86 93.25,-199.96 97.04,-190.07 90.04,-189.86"/>
</a>
</g>
</g>
<!-- Node4 -->
<g id="Node000004" class="node">
<title>Node4</title>
<g id="a_Node000004"><a xlink:href="structpsr_1_1TypeStateDescription.html" target="_top" xlink:title=" ">
<polygon fill="white" stroke="#666666" points="250.5,-163 109.5,-163 109.5,-133 250.5,-133 250.5,-163"/>
<text text-anchor="start" x="117.5" y="-151" font-family="Helvetica,sans-Serif" font-size="10.00">psr::TypeStateDescription</text>
<text text-anchor="middle" x="180" y="-140" font-family="Helvetica,sans-Serif" font-size="10.00">&lt; StateTy &gt;</text>
</a>
</g>
</g>
<!-- Node3&#45;&gt;Node4 -->
<g id="edge4_Node000004_Node000003" class="edge">
<title>Node3&#45;&gt;Node4</title>
<g id="a_edge4_Node000004_Node000003"><a xlink:title=" ">
<path fill="none" stroke="#63b8ff" d="M113.85,-194.24C127.68,-184.78 145.74,-172.43 159.5,-163.02"/>
<polygon fill="#63b8ff" stroke="#63b8ff" points="111.74,-191.44 105.46,-199.98 115.7,-197.22 111.74,-191.44"/>
</a>
</g>
</g>
<!-- Node4&#45;&gt;Node2 -->
<g id="edge3_Node000002_Node000004" class="edge">
<title>Node4&#45;&gt;Node2</title>
<g id="a_edge3_Node000002_Node000004"><a xlink:title=" ">
<path fill="none" stroke="orange" stroke-dasharray="5,2" d="M156.95,-126.17C142.79,-113.38 125.04,-97.34 112.54,-86.04"/>
<polygon fill="orange" stroke="orange" points="154.62,-128.79 164.39,-132.89 159.32,-123.59 154.62,-128.79"/>
</a>
</g>
<text text-anchor="middle" x="219.5" y="-107" font-family="Helvetica,sans-Serif" font-size="10.00" fill="grey"> &lt; OpenSSLEVPKDFCTXState &gt;</text>
</g>
</g>
</svg>
