<?xml version="1.0" encoding="UTF-8" standalone="no"?>
<!DOCTYPE svg PUBLIC "-//W3C//DTD SVG 1.1//EN"
 "http://www.w3.org/Graphics/SVG/1.1/DTD/svg11.dtd">
<!-- Generated by graphviz version 2.43.0 (0)
 -->
<!-- Title: psr::ProjectIRDBBase&lt; Derived &gt; Pages: 1 -->
<svg width="270pt" height="171pt"
 viewBox="0.00 0.00 269.50 171.00" xmlns="http://www.w3.org/2000/svg" xmlns:xlink="http://www.w3.org/1999/xlink">
<g id="graph0" class="graph" transform="scale(1 1) rotate(0) translate(4 167)">
<title>psr::ProjectIRDBBase&lt; Derived &gt;</title>
<!-- Node1 -->
<g id="Node000001" class="node">
<title>Node1</title>
<g id="a_Node000001"><a xlink:title=" ">
<polygon fill="#999999" stroke="#666666" points="154,-163 35,-163 35,-133 154,-133 154,-163"/>
<text text-anchor="start" x="43" y="-151" font-family="Helvetica,sans-Serif" font-size="10.00">psr::ProjectIRDBBase</text>
<text text-anchor="middle" x="94.5" y="-140" font-family="Helvetica,sans-Serif" font-size="10.00">&lt; Derived &gt;</text>
</a>
</g>
</g>
<!-- Node2 -->
<g id="Node000002" class="node">
<title>Node2</title>
<g id="a_Node000002"><a xlink:href="classpsr_1_1ProjectIRDBBase.html" target="_top" xlink:title=" ">
<polygon fill="white" stroke="#666666" points="119,-86 0,-86 0,-56 119,-56 119,-86"/>
<text text-anchor="start" x="8" y="-74" font-family="Helvetica,sans-Serif" font-size="10.00">psr::ProjectIRDBBase</text>
<text text-anchor="middle" x="59.5" y="-63" font-family="Helvetica,sans-Serif" font-size="10.00">&lt; db_t &gt;</text>
</a>
</g>
</g>
<!-- Node1&#45;&gt;Node2 -->
<g id="edge1_Node000001_Node000002" class="edge">
<title>Node1&#45;&gt;Node2</title>
<g id="a_edge1_Node000001_Node000002"><a xlink:title=" ">
<path fill="none" stroke="orange" stroke-dasharray="5,2" d="M83.6,-123.65C77.85,-111.32 70.98,-96.61 66.05,-86.04"/>
<polygon fill="orange" stroke="orange" points="80.52,-125.31 87.92,-132.89 86.86,-122.35 80.52,-125.31"/>
</a>
</g>
<text text-anchor="middle" x="103" y="-107" font-family="Helvetica,sans-Serif" font-size="10.00" fill="grey"> &lt; db_t &gt;</text>
</g>
<!-- Node3 -->
<g id="Node000003" class="node">
<title>Node3</title>
<g id="a_Node000003"><a xlink:href="classpsr_1_1ProjectIRDBBase.html" target="_top" xlink:title=" ">
<polygon fill="white" stroke="#666666" points="259.5,-86 137.5,-86 137.5,-56 259.5,-56 259.5,-86"/>
<text text-anchor="start" x="145.5" y="-74" font-family="Helvetica,sans-Serif" font-size="10.00">psr::ProjectIRDBBase</text>
<text text-anchor="middle" x="198.5" y="-63" font-family="Helvetica,sans-Serif" font-size="10.00">&lt; LLVMProjectIRDB &gt;</text>
</a>
</g>
</g>
<!-- Node1&#45;&gt;Node3 -->
<g id="edge2_Node000001_Node000003" class="edge">
<title>Node1&#45;&gt;Node3</title>
<g id="a_edge2_Node000001_Node000003"><a xlink:title=" ">
<path fill="none" stroke="orange" stroke-dasharray="5,2" d="M122.4,-126.88C140.29,-113.98 163.07,-97.55 179.03,-86.04"/>
<polygon fill="orange" stroke="orange" points="120.13,-124.21 114.06,-132.89 124.22,-129.88 120.13,-124.21"/>
</a>
</g>
<text text-anchor="middle" x="207" y="-107" font-family="Helvetica,sans-Serif" font-size="10.00" fill="grey"> &lt; LLVMProjectIRDB &gt;</text>
</g>
<!-- Node4 -->
<g id="Node000004" class="node">
<title>Node4</title>
<g id="a_Node000004"><a xlink:href="classpsr_1_1LLVMProjectIRDB.html" target="_top" xlink:title="Project IR Database that manages a LLVM IR module.">
<polygon fill="white" stroke="#666666" points="259,-19 138,-19 138,0 259,0 259,-19"/>
<text text-anchor="middle" x="198.5" y="-7" font-family="Helvetica,sans-Serif" font-size="10.00">psr::LLVMProjectIRDB</text>
</a>
</g>
</g>
<!-- Node3&#45;&gt;Node4 -->
<g id="edge3_Node000003_Node000004" class="edge">
<title>Node3&#45;&gt;Node4</title>
<g id="a_edge3_Node000003_Node000004"><a xlink:title=" ">
<path fill="none" stroke="#63b8ff" d="M198.5,-45.79C198.5,-36.36 198.5,-26.15 198.5,-19.16"/>
<polygon fill="#63b8ff" stroke="#63b8ff" points="195,-45.9 198.5,-55.9 202,-45.9 195,-45.9"/>
</a>
</g>
</g>
</g>
</svg>
