<?xml version="1.0" encoding="UTF-8" standalone="no"?>
<!DOCTYPE svg PUBLIC "-//W3C//DTD SVG 1.1//EN"
 "http://www.w3.org/Graphics/SVG/1.1/DTD/svg11.dtd">
<!-- Generated by graphviz version 2.43.0 (0)
 -->
<!-- Title: psr::IntraMonoProblem&lt; AnalysisDomainTy &gt; Pages: 1 -->
<svg width="1164pt" height="390pt"
 viewBox="0.00 0.00 1164.00 389.97" xmlns="http://www.w3.org/2000/svg" xmlns:xlink="http://www.w3.org/1999/xlink">
<g id="graph0" class="graph" transform="scale(1 1) rotate(0) translate(4 385.97)">
<title>psr::IntraMonoProblem&lt; AnalysisDomainTy &gt;</title>
<!-- Node1 -->
<g id="Node000001" class="node">
<title>Node1</title>
<g id="a_Node000001"><a xlink:title="The analysis problem interface for intraprocedural monotone problems (solvable by the IntraMonoSolver...">
<polygon fill="#999999" stroke="#666666" points="129,-203.97 0,-203.97 0,-173.97 129,-173.97 129,-203.97"/>
<text text-anchor="start" x="8" y="-191.97" font-family="Helvetica,sans-Serif" font-size="10.00">psr::IntraMonoProblem</text>
<text text-anchor="middle" x="64.5" y="-180.97" font-family="Helvetica,sans-Serif" font-size="10.00">&lt; AnalysisDomainTy &gt;</text>
</a>
</g>
</g>
<!-- Node2 -->
<g id="Node000002" class="node">
<title>Node2</title>
<g id="a_Node000002"><a xlink:href="classpsr_1_1InterMonoProblem.html" target="_top" xlink:title=" ">
<polygon fill="white" stroke="#666666" points="967,-317.47 770,-317.47 770,-276.47 967,-276.47 967,-317.47"/>
<text text-anchor="start" x="778" y="-305.47" font-family="Helvetica,sans-Serif" font-size="10.00">psr::InterMonoProblem</text>
<text text-anchor="start" x="778" y="-294.47" font-family="Helvetica,sans-Serif" font-size="10.00">&lt; IntraMonoFullConstantPropagation</text>
<text text-anchor="middle" x="868.5" y="-283.47" font-family="Helvetica,sans-Serif" font-size="10.00">AnalysisDomain &gt;</text>
</a>
</g>
</g>
<!-- Node1&#45;&gt;Node2 -->
<g id="edge1_Node000001_Node000002" class="edge">
<title>Node1&#45;&gt;Node2</title>
<g id="a_edge1_Node000001_Node000002"><a xlink:title=" ">
<path fill="none" stroke="#63b8ff" d="M106.09,-208.17C118.94,-213.63 133.36,-219.13 147,-222.97 363.67,-283.91 629.6,-295.81 769.97,-297.45"/>
<polygon fill="#63b8ff" stroke="#63b8ff" points="107.17,-204.82 96.6,-204.03 104.37,-211.24 107.17,-204.82"/>
</a>
</g>
</g>
<!-- Node4 -->
<g id="Node000004" class="node">
<title>Node4</title>
<g id="a_Node000004"><a xlink:href="classpsr_1_1InterMonoProblem.html" target="_top" xlink:title=" ">
<polygon fill="white" stroke="#666666" points="957,-233.97 780,-233.97 780,-203.97 957,-203.97 957,-233.97"/>
<text text-anchor="start" x="788" y="-221.97" font-family="Helvetica,sans-Serif" font-size="10.00">psr::InterMonoProblem</text>
<text text-anchor="middle" x="868.5" y="-210.97" font-family="Helvetica,sans-Serif" font-size="10.00">&lt; InterMonoSolverTestDomain &gt;</text>
</a>
</g>
</g>
<!-- Node1&#45;&gt;Node4 -->
<g id="edge3_Node000001_Node000004" class="edge">
<title>Node1&#45;&gt;Node4</title>
<g id="a_edge3_Node000001_Node000004"><a xlink:title=" ">
<path fill="none" stroke="#63b8ff" d="M138.93,-202C141.65,-202.35 144.35,-202.67 147,-202.97 374.12,-228 643.86,-225.46 779.83,-221.95"/>
<polygon fill="#63b8ff" stroke="#63b8ff" points="139.4,-198.53 129.02,-200.64 138.45,-205.47 139.4,-198.53"/>
</a>
</g>
</g>
<!-- Node6 -->
<g id="Node000006" class="node">
<title>Node6</title>
<g id="a_Node000006"><a xlink:href="classpsr_1_1InterMonoProblem.html" target="_top" xlink:title=" ">
<polygon fill="white" stroke="#666666" points="964,-159.97 773,-159.97 773,-129.97 964,-129.97 964,-159.97"/>
<text text-anchor="start" x="781" y="-147.97" font-family="Helvetica,sans-Serif" font-size="10.00">psr::InterMonoProblem</text>
<text text-anchor="middle" x="868.5" y="-136.97" font-family="Helvetica,sans-Serif" font-size="10.00">&lt; InterMonoTaintAnalysisDomain &gt;</text>
</a>
</g>
</g>
<!-- Node1&#45;&gt;Node6 -->
<g id="edge5_Node000001_Node000006" class="edge">
<title>Node1&#45;&gt;Node6</title>
<g id="a_edge5_Node000001_Node000006"><a xlink:title=" ">
<path fill="none" stroke="#63b8ff" d="M139.14,-182.59C196.36,-177.67 277.71,-170.75 349,-164.97 446.31,-157.07 470.47,-152.23 568,-147.97 636.44,-144.97 713.76,-144.26 772.7,-144.28"/>
<polygon fill="#63b8ff" stroke="#63b8ff" points="138.77,-179.11 129.11,-183.45 139.37,-186.08 138.77,-179.11"/>
</a>
</g>
</g>
<!-- Node8 -->
<g id="Node000008" class="node">
<title>Node8</title>
<g id="a_Node000008"><a xlink:href="classpsr_1_1InterMonoProblem.html" target="_top" xlink:title="The analysis problem interface for interprocedural monotone problems (solvable by the InterMonoSolver...">
<polygon fill="white" stroke="#666666" points="514,-203.97 385,-203.97 385,-173.97 514,-173.97 514,-203.97"/>
<text text-anchor="start" x="393" y="-191.97" font-family="Helvetica,sans-Serif" font-size="10.00">psr::InterMonoProblem</text>
<text text-anchor="middle" x="449.5" y="-180.97" font-family="Helvetica,sans-Serif" font-size="10.00">&lt; AnalysisDomainTy &gt;</text>
</a>
</g>
</g>
<!-- Node1&#45;&gt;Node8 -->
<g id="edge7_Node000001_Node000008" class="edge">
<title>Node1&#45;&gt;Node8</title>
<g id="a_edge7_Node000001_Node000008"><a xlink:title=" ">
<path fill="none" stroke="#63b8ff" d="M139.43,-188.97C210.71,-188.97 317.44,-188.97 384.99,-188.97"/>
<polygon fill="#63b8ff" stroke="#63b8ff" points="139.17,-185.47 129.17,-188.97 139.17,-192.47 139.17,-185.47"/>
</a>
</g>
</g>
<!-- Node9 -->
<g id="Node000009" class="node">
<title>Node9</title>
<g id="a_Node000009"><a xlink:href="classpsr_1_1IntraMonoProblem.html" target="_top" xlink:title=" ">
<polygon fill="white" stroke="#666666" points="548,-371.47 351,-371.47 351,-330.47 548,-330.47 548,-371.47"/>
<text text-anchor="start" x="359" y="-359.47" font-family="Helvetica,sans-Serif" font-size="10.00">psr::IntraMonoProblem</text>
<text text-anchor="start" x="359" y="-348.47" font-family="Helvetica,sans-Serif" font-size="10.00">&lt; IntraMonoFullConstantPropagation</text>
<text text-anchor="middle" x="449.5" y="-337.47" font-family="Helvetica,sans-Serif" font-size="10.00">AnalysisDomain &gt;</text>
</a>
</g>
</g>
<!-- Node1&#45;&gt;Node9 -->
<g id="edge11_Node000001_Node000009" class="edge">
<title>Node1&#45;&gt;Node9</title>
<g id="a_edge11_Node000001_Node000009"><a xlink:title=" ">
<path fill="none" stroke="orange" stroke-dasharray="5,2" d="M73.95,-213.9C85.44,-243.63 109.03,-292.27 147,-315.97 207.46,-353.7 288.19,-361.33 350.9,-360.13"/>
<polygon fill="orange" stroke="orange" points="77.13,-212.42 70.38,-204.25 70.56,-214.84 77.13,-212.42"/>
</a>
</g>
<text text-anchor="start" x="147" y="-373.97" font-family="Helvetica,sans-Serif" font-size="10.00" fill="grey"> &lt; IntraMonoFullConstantPropagation</text>
<text text-anchor="middle" x="239" y="-362.97" font-family="Helvetica,sans-Serif" font-size="10.00" fill="grey">AnalysisDomain &gt;</text>
</g>
<!-- Node11 -->
<g id="Node000011" class="node">
<title>Node11</title>
<g id="a_Node000011"><a xlink:href="classpsr_1_1IntraMonoProblem.html" target="_top" xlink:title=" ">
<polygon fill="white" stroke="#666666" points="534,-99.47 365,-99.47 365,-58.47 534,-58.47 534,-99.47"/>
<text text-anchor="start" x="373" y="-87.47" font-family="Helvetica,sans-Serif" font-size="10.00">psr::IntraMonoProblem</text>
<text text-anchor="start" x="373" y="-76.47" font-family="Helvetica,sans-Serif" font-size="10.00">&lt; IntraMonoSolverTestAnalysis</text>
<text text-anchor="middle" x="449.5" y="-65.47" font-family="Helvetica,sans-Serif" font-size="10.00">Domain &gt;</text>
</a>
</g>
</g>
<!-- Node1&#45;&gt;Node11 -->
<g id="edge14_Node000001_Node000011" class="edge">
<title>Node1&#45;&gt;Node11</title>
<g id="a_edge14_Node000001_Node000011"><a xlink:title=" ">
<path fill="none" stroke="orange" stroke-dasharray="5,2" d="M77.98,-164.82C91.5,-141.5 115.44,-107.51 147,-91.97 214.68,-58.64 301.62,-58.69 364.73,-65.12"/>
<polygon fill="orange" stroke="orange" points="74.8,-163.33 72.99,-173.77 80.91,-166.74 74.8,-163.33"/>
</a>
</g>
<text text-anchor="start" x="161" y="-105.97" font-family="Helvetica,sans-Serif" font-size="10.00" fill="grey"> &lt; IntraMonoSolverTestAnalysis</text>
<text text-anchor="middle" x="239" y="-94.97" font-family="Helvetica,sans-Serif" font-size="10.00" fill="grey">Domain &gt;</text>
</g>
<!-- Node13 -->
<g id="Node000013" class="node">
<title>Node13</title>
<g id="a_Node000013"><a xlink:href="classpsr_1_1IntraMonoProblem.html" target="_top" xlink:title=" ">
<polygon fill="white" stroke="#666666" points="550,-39.97 349,-39.97 349,-9.97 550,-9.97 550,-39.97"/>
<text text-anchor="start" x="357" y="-27.97" font-family="Helvetica,sans-Serif" font-size="10.00">psr::IntraMonoProblem</text>
<text text-anchor="middle" x="449.5" y="-16.97" font-family="Helvetica,sans-Serif" font-size="10.00">&lt; IntraMonoUninitVariablesDomain &gt;</text>
</a>
</g>
</g>
<!-- Node1&#45;&gt;Node13 -->
<g id="edge16_Node000001_Node000013" class="edge">
<title>Node1&#45;&gt;Node13</title>
<g id="a_edge16_Node000001_Node000013"><a xlink:title=" ">
<path fill="none" stroke="orange" stroke-dasharray="5,2" d="M70.66,-163.6C79.43,-127.83 100.97,-63.73 147,-34.97 219.17,10.14 321.2,2.01 386.1,-9.94"/>
<polygon fill="orange" stroke="orange" points="67.16,-163.19 68.33,-173.72 73.98,-164.76 67.16,-163.19"/>
</a>
</g>
<text text-anchor="start" x="169.5" y="-48.97" font-family="Helvetica,sans-Serif" font-size="10.00" fill="grey"> &lt; IntraMonoUninitVariables</text>
<text text-anchor="middle" x="239" y="-37.97" font-family="Helvetica,sans-Serif" font-size="10.00" fill="grey">Domain &gt;</text>
</g>
<!-- Node3 -->
<g id="Node000003" class="node">
<title>Node3</title>
<g id="a_Node000003"><a xlink:href="classpsr_1_1InterMonoFullConstantPropagation.html" target="_top" xlink:title=" ">
<polygon fill="white" stroke="#666666" points="1154,-338.97 1006,-338.97 1006,-308.97 1154,-308.97 1154,-338.97"/>
<text text-anchor="start" x="1014" y="-326.97" font-family="Helvetica,sans-Serif" font-size="10.00">psr::InterMonoFullConstant</text>
<text text-anchor="middle" x="1080" y="-315.97" font-family="Helvetica,sans-Serif" font-size="10.00">Propagation</text>
</a>
</g>
</g>
<!-- Node2&#45;&gt;Node3 -->
<g id="edge2_Node000002_Node000003" class="edge">
<title>Node2&#45;&gt;Node3</title>
<g id="a_edge2_Node000002_Node000003"><a xlink:title=" ">
<path fill="none" stroke="#63b8ff" d="M977.28,-310.86C986.95,-312.1 996.59,-313.34 1005.87,-314.54"/>
<polygon fill="#63b8ff" stroke="#63b8ff" points="977.56,-307.36 967.2,-309.56 976.67,-314.31 977.56,-307.36"/>
</a>
</g>
</g>
<!-- Node5 -->
<g id="Node000005" class="node">
<title>Node5</title>
<g id="a_Node000005"><a xlink:href="classpsr_1_1InterMonoSolverTest.html" target="_top" xlink:title=" ">
<polygon fill="white" stroke="#666666" points="1148.5,-228.47 1011.5,-228.47 1011.5,-209.47 1148.5,-209.47 1148.5,-228.47"/>
<text text-anchor="middle" x="1080" y="-216.47" font-family="Helvetica,sans-Serif" font-size="10.00">psr::InterMonoSolverTest</text>
</a>
</g>
</g>
<!-- Node4&#45;&gt;Node5 -->
<g id="edge4_Node000004_Node000005" class="edge">
<title>Node4&#45;&gt;Node5</title>
<g id="a_edge4_Node000004_Node000005"><a xlink:title=" ">
<path fill="none" stroke="#63b8ff" d="M967.41,-218.97C982.32,-218.97 997.41,-218.97 1011.48,-218.97"/>
<polygon fill="#63b8ff" stroke="#63b8ff" points="967.13,-215.47 957.13,-218.97 967.13,-222.47 967.13,-215.47"/>
</a>
</g>
</g>
<!-- Node7 -->
<g id="Node000007" class="node">
<title>Node7</title>
<g id="a_Node000007"><a xlink:href="classpsr_1_1InterMonoTaintAnalysis.html" target="_top" xlink:title=" ">
<polygon fill="white" stroke="#666666" points="1156,-154.47 1004,-154.47 1004,-135.47 1156,-135.47 1156,-154.47"/>
<text text-anchor="middle" x="1080" y="-142.47" font-family="Helvetica,sans-Serif" font-size="10.00">psr::InterMonoTaintAnalysis</text>
</a>
</g>
</g>
<!-- Node6&#45;&gt;Node7 -->
<g id="edge6_Node000006_Node000007" class="edge">
<title>Node6&#45;&gt;Node7</title>
<g id="a_edge6_Node000006_Node000007"><a xlink:title=" ">
<path fill="none" stroke="#63b8ff" d="M974.17,-144.97C984.21,-144.97 994.26,-144.97 1003.94,-144.97"/>
<polygon fill="#63b8ff" stroke="#63b8ff" points="974.14,-141.47 964.14,-144.97 974.14,-148.47 974.14,-141.47"/>
</a>
</g>
</g>
<!-- Node8&#45;&gt;Node2 -->
<g id="edge8_Node000008_Node000002" class="edge">
<title>Node8&#45;&gt;Node2</title>
<g id="a_edge8_Node000008_Node000002"><a xlink:title=" ">
<path fill="none" stroke="orange" stroke-dasharray="5,2" d="M512.22,-206.79C530.17,-211.84 549.83,-217.24 568,-221.97 649.38,-243.11 670.5,-245.29 752,-265.97 764.98,-269.26 778.75,-272.86 792.09,-276.41"/>
<polygon fill="orange" stroke="orange" points="513.01,-203.38 502.44,-204.02 511.11,-210.11 513.01,-203.38"/>
</a>
</g>
<text text-anchor="start" x="568" y="-279.97" font-family="Helvetica,sans-Serif" font-size="10.00" fill="grey"> &lt; IntraMonoFullConstantPropagation</text>
<text text-anchor="middle" x="660" y="-268.97" font-family="Helvetica,sans-Serif" font-size="10.00" fill="grey">AnalysisDomain &gt;</text>
</g>
<!-- Node8&#45;&gt;Node4 -->
<g id="edge9_Node000008_Node000004" class="edge">
<title>Node8&#45;&gt;Node4</title>
<g id="a_edge9_Node000008_Node000004"><a xlink:title=" ">
<path fill="none" stroke="orange" stroke-dasharray="5,2" d="M524.39,-192.47C585.47,-195.59 674.44,-200.62 752,-206.97 761.04,-207.7 770.47,-208.55 779.88,-209.45"/>
<polygon fill="orange" stroke="orange" points="524.25,-188.96 514.08,-191.95 523.89,-195.95 524.25,-188.96"/>
</a>
</g>
<text text-anchor="middle" x="660" y="-209.97" font-family="Helvetica,sans-Serif" font-size="10.00" fill="grey"> &lt; InterMonoSolverTestDomain &gt;</text>
</g>
<!-- Node8&#45;&gt;Node6 -->
<g id="edge10_Node000008_Node000006" class="edge">
<title>Node8&#45;&gt;Node6</title>
<g id="a_edge10_Node000008_Node000006"><a xlink:title=" ">
<path fill="none" stroke="orange" stroke-dasharray="5,2" d="M524.02,-175.42C538.56,-173.03 553.74,-170.75 568,-168.97 636.32,-160.43 713.82,-154.32 772.86,-150.4"/>
<polygon fill="orange" stroke="orange" points="523.36,-171.98 514.07,-177.09 524.51,-178.89 523.36,-171.98"/>
</a>
</g>
<text text-anchor="start" x="595.5" y="-182.97" font-family="Helvetica,sans-Serif" font-size="10.00" fill="grey"> &lt; InterMonoTaintAnalysis</text>
<text text-anchor="middle" x="660" y="-171.97" font-family="Helvetica,sans-Serif" font-size="10.00" fill="grey">Domain &gt;</text>
</g>
<!-- Node10 -->
<g id="Node000010" class="node">
<title>Node10</title>
<g id="a_Node000010"><a xlink:href="classpsr_1_1IntraMonoFullConstantPropagation.html" target="_top" xlink:title=" ">
<polygon fill="white" stroke="#666666" points="942.5,-365.97 794.5,-365.97 794.5,-335.97 942.5,-335.97 942.5,-365.97"/>
<text text-anchor="start" x="802.5" y="-353.97" font-family="Helvetica,sans-Serif" font-size="10.00">psr::IntraMonoFullConstant</text>
<text text-anchor="middle" x="868.5" y="-342.97" font-family="Helvetica,sans-Serif" font-size="10.00">Propagation</text>
</a>
</g>
</g>
<!-- Node9&#45;&gt;Node10 -->
<g id="edge12_Node000009_Node000010" class="edge">
<title>Node9&#45;&gt;Node10</title>
<g id="a_edge12_Node000009_Node000010"><a xlink:title=" ">
<path fill="none" stroke="#63b8ff" d="M558.32,-350.97C632.49,-350.97 729.04,-350.97 794.37,-350.97"/>
<polygon fill="#63b8ff" stroke="#63b8ff" points="558,-347.47 548,-350.97 558,-354.47 558,-347.47"/>
</a>
</g>
</g>
<!-- Node10&#45;&gt;Node3 -->
<g id="edge13_Node000010_Node000003" class="edge">
<title>Node10&#45;&gt;Node3</title>
<g id="a_edge13_Node000010_Node000003"><a xlink:title=" ">
<path fill="none" stroke="#63b8ff" d="M952.95,-340.21C970.41,-337.96 988.71,-335.6 1005.77,-333.4"/>
<polygon fill="#63b8ff" stroke="#63b8ff" points="952.24,-336.77 942.77,-341.52 953.14,-343.71 952.24,-336.77"/>
</a>
</g>
</g>
<!-- Node12 -->
<g id="Node000012" class="node">
<title>Node12</title>
<g id="a_Node000012"><a xlink:href="classpsr_1_1IntraMonoSolverTest.html" target="_top" xlink:title=" ">
<polygon fill="white" stroke="#666666" points="937,-88.47 800,-88.47 800,-69.47 937,-69.47 937,-88.47"/>
<text text-anchor="middle" x="868.5" y="-76.47" font-family="Helvetica,sans-Serif" font-size="10.00">psr::IntraMonoSolverTest</text>
</a>
</g>
</g>
<!-- Node11&#45;&gt;Node12 -->
<g id="edge15_Node000011_Node000012" class="edge">
<title>Node11&#45;&gt;Node12</title>
<g id="a_edge15_Node000011_Node000012"><a xlink:title=" ">
<path fill="none" stroke="#63b8ff" d="M544.4,-78.97C622.05,-78.97 730.46,-78.97 799.83,-78.97"/>
<polygon fill="#63b8ff" stroke="#63b8ff" points="544.13,-75.47 534.13,-78.97 544.13,-82.47 544.13,-75.47"/>
</a>
</g>
</g>
<!-- Node14 -->
<g id="Node000014" class="node">
<title>Node14</title>
<g id="a_Node000014"><a xlink:href="classpsr_1_1IntraMonoUninitVariables.html" target="_top" xlink:title=" ">
<polygon fill="white" stroke="#666666" points="949,-34.47 788,-34.47 788,-15.47 949,-15.47 949,-34.47"/>
<text text-anchor="middle" x="868.5" y="-22.47" font-family="Helvetica,sans-Serif" font-size="10.00">psr::IntraMonoUninitVariables</text>
</a>
</g>
</g>
<!-- Node13&#45;&gt;Node14 -->
<g id="edge17_Node000013_Node000014" class="edge">
<title>Node13&#45;&gt;Node14</title>
<g id="a_edge17_Node000013_Node000014"><a xlink:title=" ">
<path fill="none" stroke="#63b8ff" d="M560.51,-24.97C631.94,-24.97 723.39,-24.97 787.84,-24.97"/>
<polygon fill="#63b8ff" stroke="#63b8ff" points="560.12,-21.47 550.12,-24.97 560.12,-28.47 560.12,-21.47"/>
</a>
</g>
</g>
</g>
</svg>
