<?xml version="1.0" encoding="UTF-8" standalone="no"?>
<!DOCTYPE svg PUBLIC "-//W3C//DTD SVG 1.1//EN"
 "http://www.w3.org/Graphics/SVG/1.1/DTD/svg11.dtd">
<!-- Generated by graphviz version 2.43.0 (0)
 -->
<!-- Title: psr::TypeHierarchy&lt; T, F &gt; Pages: 1 -->
<svg width="216pt" height="193pt"
 viewBox="0.00 0.00 215.50 193.00" xmlns="http://www.w3.org/2000/svg" xmlns:xlink="http://www.w3.org/1999/xlink">
<g id="graph0" class="graph" transform="scale(1 1) rotate(0) translate(4 189)">
<title>psr::TypeHierarchy&lt; T, F &gt;</title>
<!-- Node1 -->
<g id="Node000001" class="node">
<title>Node1</title>
<g id="a_Node000001"><a xlink:title=" ">
<polygon fill="#999999" stroke="#666666" points="128,-185 21,-185 21,-155 128,-155 128,-185"/>
<text text-anchor="start" x="29" y="-173" font-family="Helvetica,sans-Serif" font-size="10.00">psr::TypeHierarchy</text>
<text text-anchor="middle" x="74.5" y="-162" font-family="Helvetica,sans-Serif" font-size="10.00">&lt; T, F &gt;</text>
</a>
</g>
</g>
<!-- Node2 -->
<g id="Node000002" class="node">
<title>Node2</title>
<g id="a_Node000002"><a xlink:href="classpsr_1_1TypeHierarchy.html" target="_top" xlink:title=" ">
<polygon fill="white" stroke="#666666" points="149,-97 0,-97 0,-56 149,-56 149,-97"/>
<text text-anchor="start" x="8" y="-85" font-family="Helvetica,sans-Serif" font-size="10.00">psr::TypeHierarchy</text>
<text text-anchor="start" x="8" y="-74" font-family="Helvetica,sans-Serif" font-size="10.00">&lt; const llvm::DIType</text>
<text text-anchor="middle" x="74.5" y="-63" font-family="Helvetica,sans-Serif" font-size="10.00"> *, const llvm::Function * &gt;</text>
</a>
</g>
</g>
<!-- Node1&#45;&gt;Node2 -->
<g id="edge1_Node000001_Node000002" class="edge">
<title>Node1&#45;&gt;Node2</title>
<g id="a_edge1_Node000001_Node000002"><a xlink:title=" ">
<path fill="none" stroke="orange" stroke-dasharray="5,2" d="M74.5,-144.69C74.5,-129.82 74.5,-111.05 74.5,-97.13"/>
<polygon fill="orange" stroke="orange" points="71,-144.7 74.5,-154.7 78,-144.7 71,-144.7"/>
</a>
</g>
<text text-anchor="start" x="74.5" y="-129" font-family="Helvetica,sans-Serif" font-size="10.00" fill="grey"> &lt; const llvm::DIType</text>
<text text-anchor="middle" x="141" y="-118" font-family="Helvetica,sans-Serif" font-size="10.00" fill="grey"> *, const llvm::Function * &gt;</text>
</g>
<!-- Node3 -->
<g id="Node000003" class="node">
<title>Node3</title>
<g id="a_Node000003"><a xlink:href="classpsr_1_1DIBasedTypeHierarchy.html" target="_top" xlink:title="Represents the type hierarchy of the target program.">
<polygon fill="white" stroke="#666666" points="148.5,-19 0.5,-19 0.5,0 148.5,0 148.5,-19"/>
<text text-anchor="middle" x="74.5" y="-7" font-family="Helvetica,sans-Serif" font-size="10.00">psr::DIBasedTypeHierarchy</text>
</a>
</g>
</g>
<!-- Node2&#45;&gt;Node3 -->
<g id="edge2_Node000002_Node000003" class="edge">
<title>Node2&#45;&gt;Node3</title>
<g id="a_edge2_Node000002_Node000003"><a xlink:title=" ">
<path fill="none" stroke="#63b8ff" d="M74.5,-45.76C74.5,-36.06 74.5,-26.02 74.5,-19.15"/>
<polygon fill="#63b8ff" stroke="#63b8ff" points="71,-46 74.5,-56 78,-46 71,-46"/>
</a>
</g>
</g>
</g>
</svg>
