<?xml version="1.0" encoding="UTF-8" standalone="no"?>
<!DOCTYPE svg PUBLIC "-//W3C//DTD SVG 1.1//EN"
 "http://www.w3.org/Graphics/SVG/1.1/DTD/svg11.dtd">
<!-- Generated by graphviz version 2.43.0 (0)
 -->
<!-- Title: psr::SparseCFGBase&lt; Derived &gt; Pages: 1 -->
<svg width="217pt" height="283pt"
 viewBox="0.00 0.00 217.00 283.00" xmlns="http://www.w3.org/2000/svg" xmlns:xlink="http://www.w3.org/1999/xlink">
<g id="graph0" class="graph" transform="scale(1 1) rotate(0) translate(4 279)">
<title>psr::SparseCFGBase&lt; Derived &gt;</title>
<!-- Node1 -->
<g id="Node000001" class="node">
<title>Node1</title>
<g id="a_Node000001"><a xlink:title=" ">
<polygon fill="#999999" stroke="#666666" points="131.5,-163 16.5,-163 16.5,-133 131.5,-133 131.5,-163"/>
<text text-anchor="start" x="24.5" y="-151" font-family="Helvetica,sans-Serif" font-size="10.00">psr::SparseCFGBase</text>
<text text-anchor="middle" x="74" y="-140" font-family="Helvetica,sans-Serif" font-size="10.00">&lt; Derived &gt;</text>
</a>
</g>
</g>
<!-- Node4 -->
<g id="Node000004" class="node">
<title>Node4</title>
<g id="a_Node000004"><a xlink:href="classpsr_1_1SparseCFGBase.html" target="_top" xlink:title=" ">
<polygon fill="white" stroke="#666666" points="148,-86 0,-86 0,-56 148,-56 148,-86"/>
<text text-anchor="start" x="8" y="-74" font-family="Helvetica,sans-Serif" font-size="10.00">psr::SparseCFGBase</text>
<text text-anchor="middle" x="74" y="-63" font-family="Helvetica,sans-Serif" font-size="10.00">&lt; SparseLLVMBasedCFG &gt;</text>
</a>
</g>
</g>
<!-- Node1&#45;&gt;Node4 -->
<g id="edge3_Node000001_Node000004" class="edge">
<title>Node1&#45;&gt;Node4</title>
<g id="a_edge3_Node000001_Node000004"><a xlink:title=" ">
<path fill="none" stroke="orange" stroke-dasharray="5,2" d="M74,-122.54C74,-110.45 74,-96.29 74,-86.04"/>
<polygon fill="orange" stroke="orange" points="70.5,-122.89 74,-132.89 77.5,-122.89 70.5,-122.89"/>
</a>
</g>
<text text-anchor="middle" x="141.5" y="-107" font-family="Helvetica,sans-Serif" font-size="10.00" fill="grey"> &lt; SparseLLVMBasedCFG &gt;</text>
</g>
<!-- Node2 -->
<g id="Node000002" class="node">
<title>Node2</title>
<g id="a_Node000002"><a xlink:href="classpsr_1_1CFGBase.html" target="_top" xlink:title=" ">
<polygon fill="white" stroke="#666666" points="145.5,-219 2.5,-219 2.5,-200 145.5,-200 145.5,-219"/>
<text text-anchor="middle" x="74" y="-207" font-family="Helvetica,sans-Serif" font-size="10.00">psr::CFGBase&lt; Derived &gt;</text>
</a>
</g>
</g>
<!-- Node2&#45;&gt;Node1 -->
<g id="edge1_Node000001_Node000002" class="edge">
<title>Node2&#45;&gt;Node1</title>
<g id="a_edge1_Node000001_Node000002"><a xlink:title=" ">
<path fill="none" stroke="#63b8ff" d="M74,-189.73C74,-181.09 74,-171 74,-163.02"/>
<polygon fill="#63b8ff" stroke="#63b8ff" points="70.5,-189.98 74,-199.98 77.5,-189.98 70.5,-189.98"/>
</a>
</g>
</g>
<!-- Node3 -->
<g id="Node000003" class="node">
<title>Node3</title>
<g id="a_Node000003"><a xlink:href="classpsr_1_1CRTPBase.html" target="_top" xlink:title=" ">
<polygon fill="white" stroke="#666666" points="147.5,-275 0.5,-275 0.5,-256 147.5,-256 147.5,-275"/>
<text text-anchor="middle" x="74" y="-263" font-family="Helvetica,sans-Serif" font-size="10.00">psr::CRTPBase&lt; Derived &gt;</text>
</a>
</g>
</g>
<!-- Node3&#45;&gt;Node2 -->
<g id="edge2_Node000002_Node000003" class="edge">
<title>Node3&#45;&gt;Node2</title>
<g id="a_edge2_Node000002_Node000003"><a xlink:title=" ">
<path fill="none" stroke="#63b8ff" d="M74,-245.3C74,-236.41 74,-226.28 74,-219.25"/>
<polygon fill="#63b8ff" stroke="#63b8ff" points="70.5,-245.58 74,-255.58 77.5,-245.58 70.5,-245.58"/>
</a>
</g>
</g>
<!-- Node5 -->
<g id="Node000005" class="node">
<title>Node5</title>
<g id="a_Node000005"><a xlink:href="classpsr_1_1SparseLLVMBasedCFG.html" target="_top" xlink:title="A class that implements a sparse control flow graph. Conforms to the CFGBase CRTP interface.">
<polygon fill="white" stroke="#666666" points="147,-19 1,-19 1,0 147,0 147,-19"/>
<text text-anchor="middle" x="74" y="-7" font-family="Helvetica,sans-Serif" font-size="10.00">psr::SparseLLVMBasedCFG</text>
</a>
</g>
</g>
<!-- Node4&#45;&gt;Node5 -->
<g id="edge4_Node000004_Node000005" class="edge">
<title>Node4&#45;&gt;Node5</title>
<g id="a_edge4_Node000004_Node000005"><a xlink:title=" ">
<path fill="none" stroke="#63b8ff" d="M74,-45.79C74,-36.36 74,-26.15 74,-19.16"/>
<polygon fill="#63b8ff" stroke="#63b8ff" points="70.5,-45.9 74,-55.9 77.5,-45.9 70.5,-45.9"/>
</a>
</g>
</g>
</g>
</svg>
