<?xml version="1.0" encoding="UTF-8" standalone="no"?>
<!DOCTYPE svg PUBLIC "-//W3C//DTD SVG 1.1//EN"
 "http://www.w3.org/Graphics/SVG/1.1/DTD/svg11.dtd">
<!-- Generated by graphviz version 2.43.0 (0)
 -->
<!-- Title: psr::IDESolverAPIMixin&lt; Derived &gt; Pages: 1 -->
<svg width="1127pt" height="696pt"
 viewBox="0.00 0.00 1127.00 696.50" xmlns="http://www.w3.org/2000/svg" xmlns:xlink="http://www.w3.org/1999/xlink">
<g id="graph0" class="graph" transform="scale(1 1) rotate(0) translate(4 692.5)">
<title>psr::IDESolverAPIMixin&lt; Derived &gt;</title>
<!-- Node1 -->
<g id="Node000001" class="node">
<title>Node1</title>
<g id="a_Node000001"><a xlink:title=" ">
<polygon fill="#999999" stroke="#666666" points="128,-329.5 0,-329.5 0,-299.5 128,-299.5 128,-329.5"/>
<text text-anchor="start" x="8" y="-317.5" font-family="Helvetica,sans-Serif" font-size="10.00">psr::IDESolverAPIMixin</text>
<text text-anchor="middle" x="64" y="-306.5" font-family="Helvetica,sans-Serif" font-size="10.00">&lt; Derived &gt;</text>
</a>
</g>
</g>
<!-- Node2 -->
<g id="Node000002" class="node">
<title>Node2</title>
<g id="a_Node000002"><a xlink:href="classpsr_1_1IDESolver.html" target="_top" xlink:title=" ">
<polygon fill="white" stroke="#666666" points="1119,-688.5 906,-688.5 906,-636.5 1119,-636.5 1119,-688.5"/>
<text text-anchor="start" x="914" y="-676.5" font-family="Helvetica,sans-Serif" font-size="10.00">psr::IDESolver&lt; WithBinary</text>
<text text-anchor="start" x="914" y="-665.5" font-family="Helvetica,sans-Serif" font-size="10.00">ValueDomain&lt; AnalysisDomainTy</text>
<text text-anchor="start" x="914" y="-654.5" font-family="Helvetica,sans-Serif" font-size="10.00"> &gt;, std::set&lt; typename AnalysisDomain</text>
<text text-anchor="middle" x="1012.5" y="-643.5" font-family="Helvetica,sans-Serif" font-size="10.00">Ty::d_t &gt; &gt;</text>
</a>
</g>
</g>
<!-- Node1&#45;&gt;Node2 -->
<g id="edge1_Node000001_Node000002" class="edge">
<title>Node1&#45;&gt;Node2</title>
<g id="a_edge1_Node000001_Node000002"><a xlink:title=" ">
<path fill="none" stroke="#63b8ff" d="M71.17,-339.49C81.27,-375.78 104.47,-443.31 146,-485.5 220.74,-561.42 259.52,-559.06 361,-591.5 546.31,-650.74 774.79,-662.49 905.75,-663.78"/>
<polygon fill="#63b8ff" stroke="#63b8ff" points="74.52,-338.47 68.56,-329.72 67.76,-340.28 74.52,-338.47"/>
</a>
</g>
</g>
<!-- Node3 -->
<g id="Node000003" class="node">
<title>Node3</title>
<g id="a_Node000003"><a xlink:href="classpsr_1_1IDESolver.html" target="_top" xlink:title=" ">
<polygon fill="white" stroke="#666666" points="1096.5,-601 928.5,-601 928.5,-560 1096.5,-560 1096.5,-601"/>
<text text-anchor="start" x="936.5" y="-589" font-family="Helvetica,sans-Serif" font-size="10.00">psr::IDESolver&lt; Analysis</text>
<text text-anchor="start" x="936.5" y="-578" font-family="Helvetica,sans-Serif" font-size="10.00">DomainTy, std::set&lt; typename</text>
<text text-anchor="middle" x="1012.5" y="-567" font-family="Helvetica,sans-Serif" font-size="10.00"> AnalysisDomainTy::d_t &gt; &gt;</text>
</a>
</g>
</g>
<!-- Node1&#45;&gt;Node3 -->
<g id="edge2_Node000001_Node000003" class="edge">
<title>Node1&#45;&gt;Node3</title>
<g id="a_edge2_Node000001_Node000003"><a xlink:title=" ">
<path fill="none" stroke="#63b8ff" d="M80.15,-338.3C94.78,-359.66 118.69,-390.63 146,-410.5 344.4,-554.88 416.24,-572.16 657,-619.5 757.74,-639.3 786.53,-635.14 888,-619.5 911.78,-615.83 937.25,-608.42 958.85,-601.03"/>
<polygon fill="#63b8ff" stroke="#63b8ff" points="82.93,-336.16 74.46,-329.79 77.11,-340.05 82.93,-336.16"/>
</a>
</g>
</g>
<!-- Node4 -->
<g id="Node000004" class="node">
<title>Node4</title>
<g id="a_Node000004"><a xlink:href="classpsr_1_1IDESolver.html" target="_top" xlink:title=" ">
<polygon fill="white" stroke="#666666" points="1117,-411 908,-411 908,-370 1117,-370 1117,-411"/>
<text text-anchor="start" x="916" y="-399" font-family="Helvetica,sans-Serif" font-size="10.00">psr::IDESolver&lt; psr</text>
<text text-anchor="start" x="916" y="-388" font-family="Helvetica,sans-Serif" font-size="10.00">::IDETypeStateAnalysisDomain</text>
<text text-anchor="middle" x="1012.5" y="-377" font-family="Helvetica,sans-Serif" font-size="10.00">&lt; psr::OpenSSLEVPKDFDescription &gt; &gt;</text>
</a>
</g>
</g>
<!-- Node1&#45;&gt;Node4 -->
<g id="edge3_Node000001_Node000004" class="edge">
<title>Node1&#45;&gt;Node4</title>
<g id="a_edge3_Node000001_Node000004"><a xlink:title=" ">
<path fill="none" stroke="#63b8ff" d="M138.24,-329.49C140.85,-329.86 143.45,-330.2 146,-330.5 473.77,-369.04 561.32,-312.63 888,-359.5 905.07,-361.95 923.2,-365.78 940.16,-369.93"/>
<polygon fill="#63b8ff" stroke="#63b8ff" points="138.5,-325.99 128.08,-327.95 137.44,-332.91 138.5,-325.99"/>
</a>
</g>
</g>
<!-- Node5 -->
<g id="Node000005" class="node">
<title>Node5</title>
<g id="a_Node000005"><a xlink:href="classpsr_1_1IDESolver.html" target="_top" xlink:title=" ">
<polygon fill="white" stroke="#666666" points="1090.5,-350 934.5,-350 934.5,-309 1090.5,-309 1090.5,-350"/>
<text text-anchor="start" x="942.5" y="-338" font-family="Helvetica,sans-Serif" font-size="10.00">psr::IDESolver&lt; psr</text>
<text text-anchor="start" x="942.5" y="-327" font-family="Helvetica,sans-Serif" font-size="10.00">::IDESecureHeapPropagation</text>
<text text-anchor="middle" x="1012.5" y="-316" font-family="Helvetica,sans-Serif" font-size="10.00">AnalysisDomain &gt;</text>
</a>
</g>
</g>
<!-- Node1&#45;&gt;Node5 -->
<g id="edge4_Node000001_Node000005" class="edge">
<title>Node1&#45;&gt;Node5</title>
<g id="a_edge4_Node000001_Node000005"><a xlink:title=" ">
<path fill="none" stroke="#63b8ff" d="M138.35,-315.66C313.54,-318.44 755.05,-325.43 934.18,-328.27"/>
<polygon fill="#63b8ff" stroke="#63b8ff" points="138.26,-312.16 128.2,-315.5 138.15,-319.16 138.26,-312.16"/>
</a>
</g>
</g>
<!-- Node6 -->
<g id="Node000006" class="node">
<title>Node6</title>
<g id="a_Node000006"><a xlink:href="classpsr_1_1IDESolver.html" target="_top" xlink:title=" ">
<polygon fill="white" stroke="#666666" points="568.5,-475.5 431.5,-475.5 431.5,-445.5 568.5,-445.5 568.5,-475.5"/>
<text text-anchor="start" x="439.5" y="-463.5" font-family="Helvetica,sans-Serif" font-size="10.00">psr::IDESolver&lt; Analysis</text>
<text text-anchor="middle" x="500" y="-452.5" font-family="Helvetica,sans-Serif" font-size="10.00">DomainTy, Container &gt;</text>
</a>
</g>
</g>
<!-- Node1&#45;&gt;Node6 -->
<g id="edge5_Node000001_Node000006" class="edge">
<title>Node1&#45;&gt;Node6</title>
<g id="a_edge5_Node000001_Node000006"><a xlink:title=" ">
<path fill="none" stroke="#63b8ff" d="M93,-335.55C108.06,-346.06 127.34,-358.27 146,-366.5 240.87,-408.35 358.55,-435.09 431.2,-448.94"/>
<polygon fill="#63b8ff" stroke="#63b8ff" points="94.82,-332.55 84.65,-329.6 90.76,-338.25 94.82,-332.55"/>
</a>
</g>
</g>
<!-- Node9 -->
<g id="Node000009" class="node">
<title>Node9</title>
<g id="a_Node000009"><a xlink:href="classpsr_1_1IDESolverAPIMixin.html" target="_top" xlink:title=" ">
<polygon fill="white" stroke="#666666" points="604.5,-286.5 395.5,-286.5 395.5,-234.5 604.5,-234.5 604.5,-286.5"/>
<text text-anchor="start" x="403.5" y="-274.5" font-family="Helvetica,sans-Serif" font-size="10.00">psr::IDESolverAPIMixin</text>
<text text-anchor="start" x="403.5" y="-263.5" font-family="Helvetica,sans-Serif" font-size="10.00">&lt; IDESolver&lt; AnalysisDomainTy,</text>
<text text-anchor="start" x="403.5" y="-252.5" font-family="Helvetica,sans-Serif" font-size="10.00"> std::set&lt; typename AnalysisDomainTy</text>
<text text-anchor="middle" x="500" y="-241.5" font-family="Helvetica,sans-Serif" font-size="10.00">::d_t &gt; &gt; &gt;</text>
</a>
</g>
</g>
<!-- Node1&#45;&gt;Node9 -->
<g id="edge12_Node000001_Node000009" class="edge">
<title>Node1&#45;&gt;Node9</title>
<g id="a_edge12_Node000001_Node000009"><a xlink:title=" ">
<path fill="none" stroke="orange" stroke-dasharray="5,2" d="M92.63,-293.75C107.59,-283.78 126.89,-272.84 146,-267.5 227.61,-244.67 324.02,-244.45 395.45,-249.09"/>
<polygon fill="orange" stroke="orange" points="90.59,-290.9 84.35,-299.46 94.57,-296.66 90.59,-290.9"/>
</a>
</g>
<text text-anchor="start" x="165.5" y="-292.5" font-family="Helvetica,sans-Serif" font-size="10.00" fill="grey"> &lt; IDESolver&lt; AnalysisDomain</text>
<text text-anchor="start" x="165.5" y="-281.5" font-family="Helvetica,sans-Serif" font-size="10.00" fill="grey">Ty, std::set&lt; typename Analysis</text>
<text text-anchor="middle" x="244.5" y="-270.5" font-family="Helvetica,sans-Serif" font-size="10.00" fill="grey">DomainTy::d_t &gt; &gt; &gt;</text>
</g>
<!-- Node10 -->
<g id="Node000010" class="node">
<title>Node10</title>
<g id="a_Node000010"><a xlink:href="classpsr_1_1IDESolverAPIMixin.html" target="_top" xlink:title=" ">
<polygon fill="white" stroke="#666666" points="601,-216 399,-216 399,-153 601,-153 601,-216"/>
<text text-anchor="start" x="407" y="-204" font-family="Helvetica,sans-Serif" font-size="10.00">psr::IDESolverAPIMixin</text>
<text text-anchor="start" x="407" y="-193" font-family="Helvetica,sans-Serif" font-size="10.00">&lt; IDESolver&lt; WithBinaryValue</text>
<text text-anchor="start" x="407" y="-182" font-family="Helvetica,sans-Serif" font-size="10.00">Domain&lt; AnalysisDomainTy &gt;</text>
<text text-anchor="start" x="407" y="-171" font-family="Helvetica,sans-Serif" font-size="10.00">, std::set&lt; typename AnalysisDomain</text>
<text text-anchor="middle" x="500" y="-160" font-family="Helvetica,sans-Serif" font-size="10.00">Ty::d_t &gt; &gt; &gt;</text>
</a>
</g>
</g>
<!-- Node1&#45;&gt;Node10 -->
<g id="edge13_Node000001_Node000010" class="edge">
<title>Node1&#45;&gt;Node10</title>
<g id="a_edge13_Node000001_Node000010"><a xlink:title=" ">
<path fill="none" stroke="orange" stroke-dasharray="5,2" d="M74.23,-289.98C86.13,-262.24 109.72,-218.34 146,-198.5 187.97,-175.54 309.87,-175.37 398.7,-178.73"/>
<polygon fill="orange" stroke="orange" points="70.92,-288.82 70.37,-299.4 77.4,-291.47 70.92,-288.82"/>
</a>
</g>
<text text-anchor="start" x="146" y="-234.5" font-family="Helvetica,sans-Serif" font-size="10.00" fill="grey"> &lt; IDESolver&lt; WithBinaryValue</text>
<text text-anchor="start" x="146" y="-223.5" font-family="Helvetica,sans-Serif" font-size="10.00" fill="grey">Domain&lt; AnalysisDomainTy</text>
<text text-anchor="start" x="146" y="-212.5" font-family="Helvetica,sans-Serif" font-size="10.00" fill="grey"> &gt;, std::set&lt; typename AnalysisDomain</text>
<text text-anchor="middle" x="244.5" y="-201.5" font-family="Helvetica,sans-Serif" font-size="10.00" fill="grey">Ty::d_t &gt; &gt; &gt;</text>
</g>
<!-- Node11 -->
<g id="Node000011" class="node">
<title>Node11</title>
<g id="a_Node000011"><a xlink:href="classpsr_1_1IDESolverAPIMixin.html" target="_top" xlink:title=" ">
<polygon fill="white" stroke="#666666" points="639,-134.5 361,-134.5 361,-82.5 639,-82.5 639,-134.5"/>
<text text-anchor="start" x="369" y="-122.5" font-family="Helvetica,sans-Serif" font-size="10.00">psr::IDESolverAPIMixin</text>
<text text-anchor="start" x="369" y="-111.5" font-family="Helvetica,sans-Serif" font-size="10.00">&lt; IDESolver&lt; psr::IDETypeState</text>
<text text-anchor="start" x="369" y="-100.5" font-family="Helvetica,sans-Serif" font-size="10.00">AnalysisDomain&lt; psr::OpenSSLEVPKDFDescription</text>
<text text-anchor="middle" x="500" y="-89.5" font-family="Helvetica,sans-Serif" font-size="10.00"> &gt;, std::set&lt; typename AnalysisDomainTy::d_t &gt; &gt; &gt;</text>
</a>
</g>
</g>
<!-- Node1&#45;&gt;Node11 -->
<g id="edge14_Node000001_Node000011" class="edge">
<title>Node1&#45;&gt;Node11</title>
<g id="a_edge14_Node000001_Node000011"><a xlink:title=" ">
<path fill="none" stroke="orange" stroke-dasharray="5,2" d="M66.91,-289.21C71.72,-245.61 88.44,-157.14 146,-117.5 180.21,-93.94 277.1,-92.8 360.73,-96.94"/>
<polygon fill="orange" stroke="orange" points="63.42,-288.98 65.93,-299.28 70.39,-289.67 63.42,-288.98"/>
</a>
</g>
<text text-anchor="start" x="146" y="-164.5" font-family="Helvetica,sans-Serif" font-size="10.00" fill="grey"> &lt; IDESolver&lt; psr::IDEType</text>
<text text-anchor="start" x="146" y="-153.5" font-family="Helvetica,sans-Serif" font-size="10.00" fill="grey">StateAnalysisDomain&lt; psr</text>
<text text-anchor="start" x="146" y="-142.5" font-family="Helvetica,sans-Serif" font-size="10.00" fill="grey">::OpenSSLEVPKDFDescription</text>
<text text-anchor="start" x="146" y="-131.5" font-family="Helvetica,sans-Serif" font-size="10.00" fill="grey"> &gt;, std::set&lt; typename AnalysisDomain</text>
<text text-anchor="middle" x="244.5" y="-120.5" font-family="Helvetica,sans-Serif" font-size="10.00" fill="grey">Ty::d_t &gt; &gt; &gt;</text>
</g>
<!-- Node12 -->
<g id="Node000012" class="node">
<title>Node12</title>
<g id="a_Node000012"><a xlink:href="classpsr_1_1IDESolverAPIMixin.html" target="_top" xlink:title=" ">
<polygon fill="white" stroke="#666666" points="604.5,-64 395.5,-64 395.5,-1 604.5,-1 604.5,-64"/>
<text text-anchor="start" x="403.5" y="-52" font-family="Helvetica,sans-Serif" font-size="10.00">psr::IDESolverAPIMixin</text>
<text text-anchor="start" x="403.5" y="-41" font-family="Helvetica,sans-Serif" font-size="10.00">&lt; IDESolver&lt; psr::IDESecureHeap</text>
<text text-anchor="start" x="403.5" y="-30" font-family="Helvetica,sans-Serif" font-size="10.00">PropagationAnalysisDomain,</text>
<text text-anchor="start" x="403.5" y="-19" font-family="Helvetica,sans-Serif" font-size="10.00"> std::set&lt; typename AnalysisDomainTy</text>
<text text-anchor="middle" x="500" y="-8" font-family="Helvetica,sans-Serif" font-size="10.00">::d_t &gt; &gt; &gt;</text>
</a>
</g>
</g>
<!-- Node1&#45;&gt;Node12 -->
<g id="edge15_Node000001_Node000012" class="edge">
<title>Node1&#45;&gt;Node12</title>
<g id="a_edge15_Node000001_Node000012"><a xlink:title=" ">
<path fill="none" stroke="orange" stroke-dasharray="5,2" d="M68.93,-289.09C78.88,-228.37 107.07,-77.67 146,-47.5 215.69,6.52 318.42,4.6 395.11,-7.46"/>
<polygon fill="orange" stroke="orange" points="65.42,-288.9 67.29,-299.33 72.33,-290.01 65.42,-288.9"/>
</a>
</g>
<text text-anchor="start" x="148" y="-83.5" font-family="Helvetica,sans-Serif" font-size="10.00" fill="grey"> &lt; IDESolver&lt; psr::IDESecure</text>
<text text-anchor="start" x="148" y="-72.5" font-family="Helvetica,sans-Serif" font-size="10.00" fill="grey">HeapPropagationAnalysisDomain,</text>
<text text-anchor="start" x="148" y="-61.5" font-family="Helvetica,sans-Serif" font-size="10.00" fill="grey"> std::set&lt; typename AnalysisDomainTy</text>
<text text-anchor="middle" x="244.5" y="-50.5" font-family="Helvetica,sans-Serif" font-size="10.00" fill="grey">::d_t &gt; &gt; &gt;</text>
</g>
<!-- Node6&#45;&gt;Node2 -->
<g id="edge8_Node000006_Node000002" class="edge">
<title>Node6&#45;&gt;Node2</title>
<g id="a_edge8_Node000006_Node000002"><a xlink:title=" ">
<path fill="none" stroke="orange" stroke-dasharray="5,2" d="M530.67,-481.36C561.13,-501.95 610.52,-533.09 657,-552.5 754.99,-593.41 787.14,-580.3 888,-613.5 908.49,-620.24 930.48,-628.59 950.15,-636.48"/>
<polygon fill="orange" stroke="orange" points="532.45,-478.34 522.22,-475.59 528.5,-484.12 532.45,-478.34"/>
</a>
</g>
<text text-anchor="start" x="681" y="-649.5" font-family="Helvetica,sans-Serif" font-size="10.00" fill="grey"> &lt; WithBinaryValueDomain</text>
<text text-anchor="start" x="681" y="-638.5" font-family="Helvetica,sans-Serif" font-size="10.00" fill="grey">&lt; AnalysisDomainTy &gt;,</text>
<text text-anchor="start" x="681" y="-627.5" font-family="Helvetica,sans-Serif" font-size="10.00" fill="grey"> std::set&lt; typename AnalysisDomain</text>
<text text-anchor="middle" x="772.5" y="-616.5" font-family="Helvetica,sans-Serif" font-size="10.00" fill="grey">Ty::d_t &gt; &gt;</text>
</g>
<!-- Node6&#45;&gt;Node3 -->
<g id="edge9_Node000006_Node000003" class="edge">
<title>Node6&#45;&gt;Node3</title>
<g id="a_edge9_Node000006_Node000003"><a xlink:title=" ">
<path fill="none" stroke="orange" stroke-dasharray="5,2" d="M578.87,-477.17C603.76,-482.18 631.48,-487.42 657,-491.5 759.12,-507.81 788.89,-489.96 888,-519.5 919.86,-528.99 953.53,-546.16 977.65,-559.87"/>
<polygon fill="orange" stroke="orange" points="579.25,-473.68 568.76,-475.12 577.86,-480.54 579.25,-473.68"/>
</a>
</g>
<text text-anchor="start" x="704.5" y="-544.5" font-family="Helvetica,sans-Serif" font-size="10.00" fill="grey"> &lt; AnalysisDomainTy,</text>
<text text-anchor="start" x="704.5" y="-533.5" font-family="Helvetica,sans-Serif" font-size="10.00" fill="grey"> std::set&lt; typename</text>
<text text-anchor="middle" x="772.5" y="-522.5" font-family="Helvetica,sans-Serif" font-size="10.00" fill="grey"> AnalysisDomainTy::d_t &gt; &gt;</text>
</g>
<!-- Node6&#45;&gt;Node4 -->
<g id="edge10_Node000006_Node000004" class="edge">
<title>Node6&#45;&gt;Node4</title>
<g id="a_edge10_Node000006_Node000004"><a xlink:title=" ">
<path fill="none" stroke="orange" stroke-dasharray="5,2" d="M566.21,-442.88C594.01,-435.93 626.91,-428.44 657,-423.5 669.33,-421.47 807.6,-408.83 907.74,-399.8"/>
<polygon fill="orange" stroke="orange" points="565.05,-439.56 556.21,-445.41 566.77,-446.35 565.05,-439.56"/>
</a>
</g>
<text text-anchor="start" x="657" y="-437.5" font-family="Helvetica,sans-Serif" font-size="10.00" fill="grey"> &lt; psr::IDETypeStateAnalysis</text>
<text text-anchor="middle" x="772.5" y="-426.5" font-family="Helvetica,sans-Serif" font-size="10.00" fill="grey">Domain&lt; psr::OpenSSLEVPKDFDescription &gt; &gt;</text>
</g>
<!-- Node6&#45;&gt;Node5 -->
<g id="edge11_Node000006_Node000005" class="edge">
<title>Node6&#45;&gt;Node5</title>
<g id="a_edge11_Node000006_Node000005"><a xlink:title=" ">
<path fill="none" stroke="orange" stroke-dasharray="5,2" d="M530.97,-439.76C561.3,-419.87 610.28,-390.67 657,-375.5 749.38,-345.5 861.29,-334.99 934.34,-331.35"/>
<polygon fill="orange" stroke="orange" points="528.94,-436.91 522.55,-445.36 532.82,-442.74 528.94,-436.91"/>
</a>
</g>
<text text-anchor="start" x="688" y="-389.5" font-family="Helvetica,sans-Serif" font-size="10.00" fill="grey"> &lt; psr::IDESecureHeapPropagation</text>
<text text-anchor="middle" x="772.5" y="-378.5" font-family="Helvetica,sans-Serif" font-size="10.00" fill="grey">AnalysisDomain &gt;</text>
</g>
<!-- Node7 -->
<g id="Node000007" class="node">
<title>Node7</title>
<g id="a_Node000007"><a xlink:href="classpsr_1_1IFDSSolver.html" target="_top" xlink:title="Solves the given IFDSTabulationProblem as described in the 1995 paper by Reps, Horwitz and Sagiv....">
<polygon fill="white" stroke="#666666" points="1084,-460.5 941,-460.5 941,-430.5 1084,-430.5 1084,-460.5"/>
<text text-anchor="start" x="949" y="-448.5" font-family="Helvetica,sans-Serif" font-size="10.00">psr::IFDSSolver&lt; Analysis</text>
<text text-anchor="middle" x="1012.5" y="-437.5" font-family="Helvetica,sans-Serif" font-size="10.00">DomainTy, Container &gt;</text>
</a>
</g>
</g>
<!-- Node6&#45;&gt;Node7 -->
<g id="edge6_Node000006_Node000007" class="edge">
<title>Node6&#45;&gt;Node7</title>
<g id="a_edge6_Node000006_Node000007"><a xlink:title=" ">
<path fill="none" stroke="#63b8ff" d="M578.72,-458.21C677.29,-455.32 845.83,-450.37 940.89,-447.57"/>
<polygon fill="#63b8ff" stroke="#63b8ff" points="578.42,-454.72 568.53,-458.51 578.63,-461.72 578.42,-454.72"/>
</a>
</g>
</g>
<!-- Node8 -->
<g id="Node000008" class="node">
<title>Node8</title>
<g id="a_Node000008"><a xlink:href="classpsr_1_1PathAwareIDESolver.html" target="_top" xlink:title=" ">
<polygon fill="white" stroke="#666666" points="1103.5,-508.5 921.5,-508.5 921.5,-478.5 1103.5,-478.5 1103.5,-508.5"/>
<text text-anchor="start" x="929.5" y="-496.5" font-family="Helvetica,sans-Serif" font-size="10.00">psr::PathAwareIDESolver</text>
<text text-anchor="middle" x="1012.5" y="-485.5" font-family="Helvetica,sans-Serif" font-size="10.00">&lt; AnalysisDomainTy, Container &gt;</text>
</a>
</g>
</g>
<!-- Node6&#45;&gt;Node8 -->
<g id="edge7_Node000006_Node000008" class="edge">
<title>Node6&#45;&gt;Node8</title>
<g id="a_edge7_Node000006_Node000008"><a xlink:title=" ">
<path fill="none" stroke="#63b8ff" d="M578.62,-465.52C670.75,-471.47 824.1,-481.38 921.38,-487.67"/>
<polygon fill="#63b8ff" stroke="#63b8ff" points="578.73,-462.02 568.53,-464.86 578.28,-469 578.73,-462.02"/>
</a>
</g>
</g>
</g>
</svg>
