<?xml version="1.0" encoding="UTF-8" standalone="no"?>
<!DOCTYPE svg PUBLIC "-//W3C//DTD SVG 1.1//EN"
 "http://www.w3.org/Graphics/SVG/1.1/DTD/svg11.dtd">
<!-- Generated by graphviz version 2.43.0 (0)
 -->
<!-- Title: psr::IDEExtendedTaintAnalysis&lt; BOUND, USE_STRONG_UPDATES &gt; Pages: 1 -->
<svg width="1831pt" height="426pt"
 viewBox="0.00 0.00 1831.00 425.50" xmlns="http://www.w3.org/2000/svg" xmlns:xlink="http://www.w3.org/1999/xlink">
<g id="graph0" class="graph" transform="scale(1 1) rotate(0) translate(4 421.5)">
<title>psr::IDEExtendedTaintAnalysis&lt; BOUND, USE_STRONG_UPDATES &gt;</title>
<!-- Node1 -->
<g id="Node000001" class="node">
<title>Node1</title>
<g id="a_Node000001"><a xlink:title=" ">
<polygon fill="#999999" stroke="#666666" points="1823,-109 1625,-109 1625,-79 1823,-79 1823,-109"/>
<text text-anchor="start" x="1633" y="-97" font-family="Helvetica,sans-Serif" font-size="10.00">psr::IDEExtendedTaintAnalysis</text>
<text text-anchor="middle" x="1724" y="-86" font-family="Helvetica,sans-Serif" font-size="10.00">&lt; BOUND, USE_STRONG_UPDATES &gt;</text>
</a>
</g>
</g>
<!-- Node2 -->
<g id="Node000002" class="node">
<title>Node2</title>
<g id="a_Node000002"><a xlink:href="classpsr_1_1XTaint_1_1IDEExtendedTaintAnalysis.html" target="_top" xlink:title="An IDE&#45;based taint analysis that uses k&#45;limited field&#45;access paths to achieve field sensitivity.">
<polygon fill="white" stroke="#666666" points="1588,-109 1452,-109 1452,-79 1588,-79 1588,-109"/>
<text text-anchor="start" x="1460" y="-97" font-family="Helvetica,sans-Serif" font-size="10.00">psr::XTaint::IDEExtended</text>
<text text-anchor="middle" x="1520" y="-86" font-family="Helvetica,sans-Serif" font-size="10.00">TaintAnalysis</text>
</a>
</g>
</g>
<!-- Node2&#45;&gt;Node1 -->
<g id="edge1_Node000001_Node000002" class="edge">
<title>Node2&#45;&gt;Node1</title>
<g id="a_edge1_Node000001_Node000002"><a xlink:title=" ">
<path fill="none" stroke="#63b8ff" d="M1598.29,-94C1606.93,-94 1615.83,-94 1624.7,-94"/>
<polygon fill="#63b8ff" stroke="#63b8ff" points="1598.26,-90.5 1588.26,-94 1598.26,-97.5 1598.26,-90.5"/>
</a>
</g>
</g>
<!-- Node3 -->
<g id="Node000003" class="node">
<title>Node3</title>
<g id="a_Node000003"><a xlink:href="classpsr_1_1IDETabulationProblem.html" target="_top" xlink:title=" ">
<polygon fill="white" stroke="#666666" points="1415,-140 1211,-140 1211,-110 1415,-110 1415,-140"/>
<text text-anchor="start" x="1219" y="-128" font-family="Helvetica,sans-Serif" font-size="10.00">psr::IDETabulationProblem</text>
<text text-anchor="middle" x="1313" y="-117" font-family="Helvetica,sans-Serif" font-size="10.00">&lt; IDEExtendedTaintAnalysisDomain &gt;</text>
</a>
</g>
</g>
<!-- Node3&#45;&gt;Node2 -->
<g id="edge2_Node000002_Node000003" class="edge">
<title>Node3&#45;&gt;Node2</title>
<g id="a_edge2_Node000002_Node000003"><a xlink:title=" ">
<path fill="none" stroke="#63b8ff" d="M1423.31,-108.47C1433.01,-107 1442.62,-105.55 1451.8,-104.16"/>
<polygon fill="#63b8ff" stroke="#63b8ff" points="1422.56,-105.04 1413.2,-110 1423.61,-111.96 1422.56,-105.04"/>
</a>
</g>
</g>
<!-- Node4 -->
<g id="Node000004" class="node">
<title>Node4</title>
<g id="a_Node000004"><a xlink:href="classpsr_1_1FlowFunctions.html" target="_top" xlink:title=" ">
<polygon fill="white" stroke="#666666" points="818,-190.5 697,-190.5 697,-149.5 818,-149.5 818,-190.5"/>
<text text-anchor="start" x="705" y="-178.5" font-family="Helvetica,sans-Serif" font-size="10.00">psr::FlowFunctions</text>
<text text-anchor="start" x="705" y="-167.5" font-family="Helvetica,sans-Serif" font-size="10.00">&lt; AnalysisDomainTy,</text>
<text text-anchor="middle" x="757.5" y="-156.5" font-family="Helvetica,sans-Serif" font-size="10.00"> Container &gt;</text>
</a>
</g>
</g>
<!-- Node4&#45;&gt;Node3 -->
<g id="edge3_Node000003_Node000004" class="edge">
<title>Node4&#45;&gt;Node3</title>
<g id="a_edge3_Node000003_Node000004"><a xlink:title=" ">
<path fill="none" stroke="#63b8ff" d="M828.28,-172.83C830.89,-172.89 833.47,-172.95 836,-173 923.54,-174.69 945.65,-178.98 1033,-173 1104.61,-168.1 1122.33,-163.56 1193,-151 1210.8,-147.84 1229.99,-143.89 1247.64,-140.03"/>
<polygon fill="#63b8ff" stroke="#63b8ff" points="828.25,-169.33 818.15,-172.54 828.05,-176.32 828.25,-169.33"/>
</a>
</g>
</g>
<!-- Node5 -->
<g id="Node000005" class="node">
<title>Node5</title>
<g id="a_Node000005"><a xlink:href="classpsr_1_1FlowFunctionTemplates.html" target="_top" xlink:title=" ">
<polygon fill="white" stroke="#666666" points="445,-198.5 293,-198.5 293,-157.5 445,-157.5 445,-198.5"/>
<text text-anchor="start" x="301" y="-186.5" font-family="Helvetica,sans-Serif" font-size="10.00">psr::FlowFunctionTemplates</text>
<text text-anchor="start" x="301" y="-175.5" font-family="Helvetica,sans-Serif" font-size="10.00">&lt; AnalysisDomainTy::d_t,</text>
<text text-anchor="middle" x="369" y="-164.5" font-family="Helvetica,sans-Serif" font-size="10.00"> Container &gt;</text>
</a>
</g>
</g>
<!-- Node5&#45;&gt;Node4 -->
<g id="edge4_Node000004_Node000005" class="edge">
<title>Node5&#45;&gt;Node4</title>
<g id="a_edge4_Node000004_Node000005"><a xlink:title=" ">
<path fill="none" stroke="darkgreen" d="M455.56,-176.23C528.74,-174.71 632.2,-172.57 696.76,-171.24"/>
<polygon fill="darkgreen" stroke="darkgreen" points="455.36,-172.73 445.44,-176.44 455.51,-179.73 455.36,-172.73"/>
</a>
</g>
</g>
<!-- Node12 -->
<g id="Node000012" class="node">
<title>Node12</title>
<g id="a_Node000012"><a xlink:href="classpsr_1_1FlowFunctions.html" target="_top" xlink:title=" ">
<polygon fill="white" stroke="#666666" points="641,-417.5 520,-417.5 520,-376.5 641,-376.5 641,-417.5"/>
<text text-anchor="start" x="528" y="-405.5" font-family="Helvetica,sans-Serif" font-size="10.00">psr::FlowFunctions</text>
<text text-anchor="start" x="528" y="-394.5" font-family="Helvetica,sans-Serif" font-size="10.00">&lt; AnalysisDomainTy,</text>
<text text-anchor="middle" x="580.5" y="-383.5" font-family="Helvetica,sans-Serif" font-size="10.00"> Container &gt;</text>
</a>
</g>
</g>
<!-- Node5&#45;&gt;Node12 -->
<g id="edge12_Node000012_Node000005" class="edge">
<title>Node5&#45;&gt;Node12</title>
<g id="a_edge12_Node000012_Node000005"><a xlink:title=" ">
<path fill="none" stroke="darkgreen" d="M380.05,-208.36C395.41,-250.16 428.72,-325.03 482,-367 492.99,-375.66 506.48,-381.83 519.89,-386.22"/>
<polygon fill="darkgreen" stroke="darkgreen" points="383.27,-206.97 376.61,-198.73 376.67,-209.33 383.27,-206.97"/>
</a>
</g>
</g>
<!-- Node6 -->
<g id="Node000006" class="node">
<title>Node6</title>
<g id="a_Node000006"><a xlink:href="classpsr_1_1FlowFunctionTemplates.html" target="_top" xlink:title=" ">
<polygon fill="white" stroke="#666666" points="152,-193 0,-193 0,-163 152,-163 152,-193"/>
<text text-anchor="start" x="8" y="-181" font-family="Helvetica,sans-Serif" font-size="10.00">psr::FlowFunctionTemplates</text>
<text text-anchor="middle" x="76" y="-170" font-family="Helvetica,sans-Serif" font-size="10.00">&lt; D, Container &gt;</text>
</a>
</g>
</g>
<!-- Node6&#45;&gt;Node5 -->
<g id="edge5_Node000005_Node000006" class="edge">
<title>Node6&#45;&gt;Node5</title>
<g id="a_edge5_Node000005_Node000006"><a xlink:title=" ">
<path fill="none" stroke="orange" stroke-dasharray="5,2" d="M162.39,-178C203.79,-178 253.06,-178 293,-178"/>
<polygon fill="orange" stroke="orange" points="162.32,-174.5 152.32,-178 162.32,-181.5 162.32,-174.5"/>
</a>
</g>
<text text-anchor="start" x="170" y="-192" font-family="Helvetica,sans-Serif" font-size="10.00" fill="grey"> &lt; AnalysisDomainTy</text>
<text text-anchor="middle" x="222.5" y="-181" font-family="Helvetica,sans-Serif" font-size="10.00" fill="grey">::d_t, Container &gt;</text>
</g>
<!-- Node7 -->
<g id="Node000007" class="node">
<title>Node7</title>
<g id="a_Node000007"><a xlink:href="classpsr_1_1EdgeFunctions.html" target="_top" xlink:title=" ">
<polygon fill="white" stroke="#666666" points="999,-164 870,-164 870,-134 999,-134 999,-164"/>
<text text-anchor="start" x="878" y="-152" font-family="Helvetica,sans-Serif" font-size="10.00">psr::EdgeFunctions</text>
<text text-anchor="middle" x="934.5" y="-141" font-family="Helvetica,sans-Serif" font-size="10.00">&lt; AnalysisDomainTy &gt;</text>
</a>
</g>
</g>
<!-- Node7&#45;&gt;Node3 -->
<g id="edge6_Node000003_Node000007" class="edge">
<title>Node7&#45;&gt;Node3</title>
<g id="a_edge6_Node000003_Node000007"><a xlink:title=" ">
<path fill="none" stroke="#63b8ff" d="M1009.47,-144.28C1066.99,-140.62 1147.41,-135.49 1210.87,-131.45"/>
<polygon fill="#63b8ff" stroke="#63b8ff" points="1009.13,-140.8 999.37,-144.93 1009.57,-147.79 1009.13,-140.8"/>
</a>
</g>
</g>
<!-- Node8 -->
<g id="Node000008" class="node">
<title>Node8</title>
<g id="a_Node000008"><a xlink:href="classpsr_1_1JoinLattice.html" target="_top" xlink:title=" ">
<polygon fill="white" stroke="#666666" points="1005,-116 864,-116 864,-86 1005,-86 1005,-116"/>
<text text-anchor="start" x="872" y="-104" font-family="Helvetica,sans-Serif" font-size="10.00">psr::JoinLattice&lt; Analysis</text>
<text text-anchor="middle" x="934.5" y="-93" font-family="Helvetica,sans-Serif" font-size="10.00">DomainTy &gt;</text>
</a>
</g>
</g>
<!-- Node8&#45;&gt;Node3 -->
<g id="edge7_Node000003_Node000008" class="edge">
<title>Node8&#45;&gt;Node3</title>
<g id="a_edge7_Node000003_Node000008"><a xlink:title=" ">
<path fill="none" stroke="#63b8ff" d="M1015.48,-106.1C1072.48,-109.73 1149.56,-114.65 1210.84,-118.55"/>
<polygon fill="#63b8ff" stroke="#63b8ff" points="1015.64,-102.6 1005.43,-105.46 1015.19,-109.59 1015.64,-102.6"/>
</a>
</g>
</g>
<!-- Node9 -->
<g id="Node000009" class="node">
<title>Node9</title>
<g id="a_Node000009"><a xlink:href="classpsr_1_1SemiRing.html" target="_top" xlink:title=" ">
<polygon fill="white" stroke="#666666" points="1033,-67.5 836,-67.5 836,-48.5 1033,-48.5 1033,-67.5"/>
<text text-anchor="middle" x="934.5" y="-55.5" font-family="Helvetica,sans-Serif" font-size="10.00">psr::SemiRing&lt; AnalysisDomainTy &gt;</text>
</a>
</g>
</g>
<!-- Node9&#45;&gt;Node3 -->
<g id="edge8_Node000003_Node000009" class="edge">
<title>Node9&#45;&gt;Node3</title>
<g id="a_edge8_Node000003_Node000009"><a xlink:title=" ">
<path fill="none" stroke="#63b8ff" d="M999.2,-69.34C1061.97,-80.51 1158.24,-97.64 1227.4,-109.94"/>
<polygon fill="#63b8ff" stroke="#63b8ff" points="999.5,-65.83 989.04,-67.53 998.28,-72.73 999.5,-65.83"/>
</a>
</g>
</g>
<!-- Node10 -->
<g id="Node000010" class="node">
<title>Node10</title>
<g id="a_Node000010"><a xlink:href="classpsr_1_1AllTopFnProvider.html" target="_top" xlink:title=" ">
<polygon fill="white" stroke="#666666" points="999,-30 870,-30 870,0 999,0 999,-30"/>
<text text-anchor="start" x="878" y="-18" font-family="Helvetica,sans-Serif" font-size="10.00">psr::AllTopFnProvider</text>
<text text-anchor="middle" x="934.5" y="-7" font-family="Helvetica,sans-Serif" font-size="10.00">&lt; AnalysisDomainTy &gt;</text>
</a>
</g>
</g>
<!-- Node10&#45;&gt;Node3 -->
<g id="edge9_Node000003_Node000010" class="edge">
<title>Node10&#45;&gt;Node3</title>
<g id="a_edge9_Node000003_Node000010"><a xlink:title=" ">
<path fill="none" stroke="#63b8ff" d="M1009.22,-19.08C1063.8,-25.12 1137.92,-39.92 1193,-76 1204.15,-83.31 1199.88,-92.64 1211,-100 1216.87,-103.89 1223.3,-107.18 1229.98,-109.95"/>
<polygon fill="#63b8ff" stroke="#63b8ff" points="1009.58,-15.6 999.27,-18.05 1008.86,-22.56 1009.58,-15.6"/>
</a>
</g>
</g>
<!-- Node11 -->
<g id="Node000011" class="node">
<title>Node11</title>
<g id="a_Node000011"><a xlink:href="classpsr_1_1IDETabulationProblem.html" target="_top" xlink:title="The analysis problem interface for IDE problems (solvable by the IDESolver). Create a subclass from t...">
<polygon fill="white" stroke="#666666" points="1025.5,-289 843.5,-289 843.5,-259 1025.5,-259 1025.5,-289"/>
<text text-anchor="start" x="851.5" y="-277" font-family="Helvetica,sans-Serif" font-size="10.00">psr::IDETabulationProblem</text>
<text text-anchor="middle" x="934.5" y="-266" font-family="Helvetica,sans-Serif" font-size="10.00">&lt; AnalysisDomainTy, Container &gt;</text>
</a>
</g>
</g>
<!-- Node11&#45;&gt;Node3 -->
<g id="edge10_Node000003_Node000011" class="edge">
<title>Node11&#45;&gt;Node3</title>
<g id="a_edge10_Node000003_Node000011"><a xlink:title=" ">
<path fill="none" stroke="orange" stroke-dasharray="5,2" d="M1030.98,-256.88C1080.68,-245.98 1141.63,-229.43 1193,-206 1231.65,-188.37 1271.45,-158.44 1293.82,-140.31"/>
<polygon fill="orange" stroke="orange" points="1030.23,-253.46 1021.19,-258.99 1031.7,-260.3 1030.23,-253.46"/>
</a>
</g>
<text text-anchor="start" x="1051" y="-265" font-family="Helvetica,sans-Serif" font-size="10.00" fill="grey"> &lt; IDEExtendedTaintAnalysis</text>
<text text-anchor="middle" x="1122" y="-254" font-family="Helvetica,sans-Serif" font-size="10.00" fill="grey">Domain &gt;</text>
</g>
<!-- Node12&#45;&gt;Node11 -->
<g id="edge11_Node000011_Node000012" class="edge">
<title>Node12&#45;&gt;Node11</title>
<g id="a_edge11_Node000011_Node000012"><a xlink:title=" ">
<path fill="none" stroke="#63b8ff" d="M650.86,-375.73C660.32,-372.81 669.9,-369.84 679,-367 740.86,-347.69 757.22,-345.46 818,-323 845.99,-312.66 877.1,-299.35 899.98,-289.22"/>
<polygon fill="#63b8ff" stroke="#63b8ff" points="649.6,-372.46 641.08,-378.75 651.66,-379.15 649.6,-372.46"/>
</a>
</g>
</g>
<!-- Node13 -->
<g id="Node000013" class="node">
<title>Node13</title>
<g id="a_Node000013"><a xlink:href="classpsr_1_1EdgeFunctions.html" target="_top" xlink:title=" ">
<polygon fill="white" stroke="#666666" points="645,-358 516,-358 516,-328 645,-328 645,-358"/>
<text text-anchor="start" x="524" y="-346" font-family="Helvetica,sans-Serif" font-size="10.00">psr::EdgeFunctions</text>
<text text-anchor="middle" x="580.5" y="-335" font-family="Helvetica,sans-Serif" font-size="10.00">&lt; AnalysisDomainTy &gt;</text>
</a>
</g>
</g>
<!-- Node13&#45;&gt;Node11 -->
<g id="edge13_Node000011_Node000013" class="edge">
<title>Node13&#45;&gt;Node11</title>
<g id="a_edge13_Node000011_Node000013"><a xlink:title=" ">
<path fill="none" stroke="#63b8ff" d="M655.08,-329.33C701.78,-320.57 763.48,-308.85 818,-298 832.26,-295.16 847.5,-292.05 862.07,-289.04"/>
<polygon fill="#63b8ff" stroke="#63b8ff" points="654.23,-325.93 645.05,-331.21 655.52,-332.81 654.23,-325.93"/>
</a>
</g>
</g>
<!-- Node14 -->
<g id="Node000014" class="node">
<title>Node14</title>
<g id="a_Node000014"><a xlink:href="classpsr_1_1JoinLattice_3_01AnalysisDomainTy_01_4.html" target="_top" xlink:title=" ">
<polygon fill="white" stroke="#666666" points="651,-310 510,-310 510,-280 651,-280 651,-310"/>
<text text-anchor="start" x="518" y="-298" font-family="Helvetica,sans-Serif" font-size="10.00">psr::JoinLattice&lt; Analysis</text>
<text text-anchor="middle" x="580.5" y="-287" font-family="Helvetica,sans-Serif" font-size="10.00">DomainTy &gt;</text>
</a>
</g>
</g>
<!-- Node14&#45;&gt;Node11 -->
<g id="edge14_Node000011_Node000014" class="edge">
<title>Node14&#45;&gt;Node11</title>
<g id="a_edge14_Node000011_Node000014"><a xlink:title=" ">
<path fill="none" stroke="#63b8ff" d="M661.29,-290.24C715.45,-287.01 787.16,-282.73 843.38,-279.38"/>
<polygon fill="#63b8ff" stroke="#63b8ff" points="660.82,-286.76 651.04,-290.85 661.23,-293.75 660.82,-286.76"/>
</a>
</g>
</g>
<!-- Node15 -->
<g id="Node000015" class="node">
<title>Node15</title>
<g id="a_Node000015"><a xlink:href="classpsr_1_1SemiRing.html" target="_top" xlink:title=" ">
<polygon fill="white" stroke="#666666" points="679,-261.5 482,-261.5 482,-242.5 679,-242.5 679,-261.5"/>
<text text-anchor="middle" x="580.5" y="-249.5" font-family="Helvetica,sans-Serif" font-size="10.00">psr::SemiRing&lt; AnalysisDomainTy &gt;</text>
</a>
</g>
</g>
<!-- Node15&#45;&gt;Node11 -->
<g id="edge15_Node000011_Node000015" class="edge">
<title>Node15&#45;&gt;Node11</title>
<g id="a_edge15_Node000011_Node000015"><a xlink:title=" ">
<path fill="none" stroke="#63b8ff" d="M689.15,-258.73C738.47,-261.81 796.28,-265.42 843.27,-268.36"/>
<polygon fill="#63b8ff" stroke="#63b8ff" points="689.28,-255.23 679.08,-258.1 688.85,-262.22 689.28,-255.23"/>
</a>
</g>
</g>
<!-- Node16 -->
<g id="Node000016" class="node">
<title>Node16</title>
<g id="a_Node000016"><a xlink:href="classpsr_1_1AllTopFnProvider_3_01AnalysisDomainTy_01_4.html" target="_top" xlink:title=" ">
<polygon fill="white" stroke="#666666" points="645,-224 516,-224 516,-194 645,-194 645,-224"/>
<text text-anchor="start" x="524" y="-212" font-family="Helvetica,sans-Serif" font-size="10.00">psr::AllTopFnProvider</text>
<text text-anchor="middle" x="580.5" y="-201" font-family="Helvetica,sans-Serif" font-size="10.00">&lt; AnalysisDomainTy &gt;</text>
</a>
</g>
</g>
<!-- Node16&#45;&gt;Node11 -->
<g id="edge16_Node000011_Node000016" class="edge">
<title>Node16&#45;&gt;Node11</title>
<g id="a_edge16_Node000011_Node000016"><a xlink:title=" ">
<path fill="none" stroke="#63b8ff" d="M655.37,-222.64C712.96,-233.28 792.87,-248.03 852.26,-259"/>
<polygon fill="#63b8ff" stroke="#63b8ff" points="655.71,-219.15 645.24,-220.77 654.44,-226.03 655.71,-219.15"/>
</a>
</g>
</g>
<!-- Node17 -->
<g id="Node000017" class="node">
<title>Node17</title>
<g id="a_Node000017"><a xlink:href="classpsr_1_1XTaint_1_1AnalysisBase.html" target="_top" xlink:title=" ">
<polygon fill="white" stroke="#666666" points="1382.5,-91.5 1243.5,-91.5 1243.5,-72.5 1382.5,-72.5 1382.5,-91.5"/>
<text text-anchor="middle" x="1313" y="-79.5" font-family="Helvetica,sans-Serif" font-size="10.00">psr::XTaint::AnalysisBase</text>
</a>
</g>
</g>
<!-- Node17&#45;&gt;Node2 -->
<g id="edge17_Node000002_Node000017" class="edge">
<title>Node17&#45;&gt;Node2</title>
<g id="a_edge17_Node000002_Node000017"><a xlink:title=" ">
<path fill="none" stroke="#63b8ff" d="M1392.64,-86.6C1412.19,-87.75 1432.97,-88.96 1451.91,-90.07"/>
<polygon fill="#63b8ff" stroke="#63b8ff" points="1392.73,-83.1 1382.55,-86.01 1392.33,-90.09 1392.73,-83.1"/>
</a>
</g>
</g>
</g>
</svg>
