<?xml version="1.0" encoding="UTF-8" standalone="no"?>
<!DOCTYPE svg PUBLIC "-//W3C//DTD SVG 1.1//EN"
 "http://www.w3.org/Graphics/SVG/1.1/DTD/svg11.dtd">
<!-- Generated by graphviz version 2.43.0 (0)
 -->
<!-- Title: psr::MaybeUniquePtr&lt; T, RequireAlignment &gt; Pages: 1 -->
<svg width="832pt" height="1279pt"
 viewBox="0.00 0.00 832.00 1279.29" xmlns="http://www.w3.org/2000/svg" xmlns:xlink="http://www.w3.org/1999/xlink">
<g id="graph0" class="graph" transform="scale(1 1) rotate(0) translate(4 1275.29)">
<title>psr::MaybeUniquePtr&lt; T, RequireAlignment &gt;</title>
<!-- Node1 -->
<g id="Node000001" class="node">
<title>Node1</title>
<g id="a_Node000001"><a xlink:title=" ">
<polygon fill="#999999" stroke="#666666" points="352,-616.29 213,-616.29 213,-586.29 352,-586.29 352,-616.29"/>
<text text-anchor="start" x="221" y="-604.29" font-family="Helvetica,sans-Serif" font-size="10.00">psr::MaybeUniquePtr</text>
<text text-anchor="middle" x="282.5" y="-593.29" font-family="Helvetica,sans-Serif" font-size="10.00">&lt; T, RequireAlignment &gt;</text>
</a>
</g>
</g>
<!-- Node3 -->
<g id="Node000003" class="node">
<title>Node3</title>
<g id="a_Node000003"><a xlink:href="classpsr_1_1MaybeUniquePtr.html" target="_top" xlink:title=" ">
<polygon fill="white" stroke="#666666" points="812.5,-1240.29 609.5,-1240.29 609.5,-1188.29 812.5,-1188.29 812.5,-1240.29"/>
<text text-anchor="start" x="617.5" y="-1228.29" font-family="Helvetica,sans-Serif" font-size="10.00">psr::MaybeUniquePtr</text>
<text text-anchor="start" x="617.5" y="-1217.29" font-family="Helvetica,sans-Serif" font-size="10.00">&lt; psr::AnalysisPrinterBase</text>
<text text-anchor="start" x="617.5" y="-1206.29" font-family="Helvetica,sans-Serif" font-size="10.00">&lt; WithBinaryValueDomain</text>
<text text-anchor="middle" x="711" y="-1195.29" font-family="Helvetica,sans-Serif" font-size="10.00">&lt; LLVMAnalysisDomainDefault &gt; &gt; &gt;</text>
</a>
</g>
</g>
<!-- Node1&#45;&gt;Node3 -->
<g id="edge2_Node000001_Node000003" class="edge">
<title>Node1&#45;&gt;Node3</title>
<g id="a_edge2_Node000001_Node000003"><a xlink:title=" ">
<path fill="none" stroke="orange" stroke-dasharray="5,2" d="M283.31,-626.65C283.1,-728.47 287.97,-1105.78 370,-1183.29 432.58,-1242.42 533.6,-1244.43 609.29,-1235.11"/>
<polygon fill="orange" stroke="orange" points="286.81,-626.41 283.35,-616.4 279.81,-626.38 286.81,-626.41"/>
</a>
</g>
<text text-anchor="start" x="381.5" y="-1263.29" font-family="Helvetica,sans-Serif" font-size="10.00" fill="grey"> &lt; psr::AnalysisPrinterBase</text>
<text text-anchor="start" x="381.5" y="-1252.29" font-family="Helvetica,sans-Serif" font-size="10.00" fill="grey">&lt; WithBinaryValueDomain</text>
<text text-anchor="middle" x="475" y="-1241.29" font-family="Helvetica,sans-Serif" font-size="10.00" fill="grey">&lt; LLVMAnalysisDomainDefault &gt; &gt; &gt;</text>
</g>
<!-- Node4 -->
<g id="Node000004" class="node">
<title>Node4</title>
<g id="a_Node000004"><a xlink:href="classpsr_1_1MaybeUniquePtr.html" target="_top" xlink:title=" ">
<polygon fill="white" stroke="#666666" points="824,-1170.29 598,-1170.29 598,-1118.29 824,-1118.29 824,-1170.29"/>
<text text-anchor="start" x="606" y="-1158.29" font-family="Helvetica,sans-Serif" font-size="10.00">psr::MaybeUniquePtr</text>
<text text-anchor="start" x="606" y="-1147.29" font-family="Helvetica,sans-Serif" font-size="10.00">&lt; psr::AnalysisPrinterBase</text>
<text text-anchor="start" x="606" y="-1136.29" font-family="Helvetica,sans-Serif" font-size="10.00">&lt; WithBinaryValueDomain</text>
<text text-anchor="middle" x="711" y="-1125.29" font-family="Helvetica,sans-Serif" font-size="10.00">&lt; LLVMIFDSAnalysisDomainDefault &gt; &gt; &gt;</text>
</a>
</g>
</g>
<!-- Node1&#45;&gt;Node4 -->
<g id="edge3_Node000001_Node000004" class="edge">
<title>Node1&#45;&gt;Node4</title>
<g id="a_edge3_Node000001_Node000004"><a xlink:title=" ">
<path fill="none" stroke="orange" stroke-dasharray="5,2" d="M283.93,-626.66C286.09,-720.03 298.68,-1042.54 370,-1109.29 402.22,-1139.45 511.79,-1146.38 597.94,-1146.89"/>
<polygon fill="orange" stroke="orange" points="287.43,-626.37 283.72,-616.45 280.43,-626.52 287.43,-626.37"/>
</a>
</g>
<text text-anchor="start" x="370" y="-1171.29" font-family="Helvetica,sans-Serif" font-size="10.00" fill="grey"> &lt; psr::AnalysisPrinterBase</text>
<text text-anchor="start" x="370" y="-1160.29" font-family="Helvetica,sans-Serif" font-size="10.00" fill="grey">&lt; WithBinaryValueDomain</text>
<text text-anchor="middle" x="475" y="-1149.29" font-family="Helvetica,sans-Serif" font-size="10.00" fill="grey">&lt; LLVMIFDSAnalysisDomainDefault &gt; &gt; &gt;</text>
</g>
<!-- Node5 -->
<g id="Node000005" class="node">
<title>Node5</title>
<g id="a_Node000005"><a xlink:href="classpsr_1_1MaybeUniquePtr.html" target="_top" xlink:title=" ">
<polygon fill="white" stroke="#666666" points="814,-1099.79 608,-1099.79 608,-1058.79 814,-1058.79 814,-1099.79"/>
<text text-anchor="start" x="616" y="-1087.79" font-family="Helvetica,sans-Serif" font-size="10.00">psr::MaybeUniquePtr</text>
<text text-anchor="start" x="616" y="-1076.79" font-family="Helvetica,sans-Serif" font-size="10.00">&lt; psr::AnalysisPrinterBase</text>
<text text-anchor="middle" x="711" y="-1065.79" font-family="Helvetica,sans-Serif" font-size="10.00">&lt; IDEFeatureTaintAnalysisDomain &gt; &gt;</text>
</a>
</g>
</g>
<!-- Node1&#45;&gt;Node5 -->
<g id="edge4_Node000001_Node000005" class="edge">
<title>Node1&#45;&gt;Node5</title>
<g id="a_edge4_Node000001_Node000005"><a xlink:title=" ">
<path fill="none" stroke="orange" stroke-dasharray="5,2" d="M284.51,-626.52C288.5,-712.64 306.26,-992.93 370,-1050.29 403.96,-1080.86 520.44,-1085.12 607.66,-1083.68"/>
<polygon fill="orange" stroke="orange" points="287.99,-626.18 284.06,-616.35 281,-626.49 287.99,-626.18"/>
</a>
</g>
<text text-anchor="start" x="380" y="-1097.29" font-family="Helvetica,sans-Serif" font-size="10.00" fill="grey"> &lt; psr::AnalysisPrinterBase</text>
<text text-anchor="middle" x="475" y="-1086.29" font-family="Helvetica,sans-Serif" font-size="10.00" fill="grey">&lt; IDEFeatureTaintAnalysisDomain &gt; &gt;</text>
</g>
<!-- Node6 -->
<g id="Node000006" class="node">
<title>Node6</title>
<g id="a_Node000006"><a xlink:href="classpsr_1_1MaybeUniquePtr.html" target="_top" xlink:title=" ">
<polygon fill="white" stroke="#666666" points="802,-1040.79 620,-1040.79 620,-999.79 802,-999.79 802,-1040.79"/>
<text text-anchor="start" x="628" y="-1028.79" font-family="Helvetica,sans-Serif" font-size="10.00">psr::MaybeUniquePtr</text>
<text text-anchor="start" x="628" y="-1017.79" font-family="Helvetica,sans-Serif" font-size="10.00">&lt; psr::AnalysisPrinterBase</text>
<text text-anchor="middle" x="711" y="-1006.79" font-family="Helvetica,sans-Serif" font-size="10.00">&lt; IDEGeneralizedLCADomain &gt; &gt;</text>
</a>
</g>
</g>
<!-- Node1&#45;&gt;Node6 -->
<g id="edge5_Node000001_Node000006" class="edge">
<title>Node1&#45;&gt;Node6</title>
<g id="a_edge5_Node000001_Node000006"><a xlink:title=" ">
<path fill="none" stroke="orange" stroke-dasharray="5,2" d="M285.28,-626.58C291.38,-705.3 314.22,-943.61 370,-992.29 406.03,-1023.74 531.92,-1026.66 619.94,-1024.52"/>
<polygon fill="orange" stroke="orange" points="288.77,-626.28 284.53,-616.57 281.79,-626.8 288.77,-626.28"/>
</a>
</g>
<text text-anchor="start" x="392" y="-1038.29" font-family="Helvetica,sans-Serif" font-size="10.00" fill="grey"> &lt; psr::AnalysisPrinterBase</text>
<text text-anchor="middle" x="475" y="-1027.29" font-family="Helvetica,sans-Serif" font-size="10.00" fill="grey">&lt; IDEGeneralizedLCADomain &gt; &gt;</text>
</g>
<!-- Node7 -->
<g id="Node000007" class="node">
<title>Node7</title>
<g id="a_Node000007"><a xlink:href="classpsr_1_1MaybeUniquePtr.html" target="_top" xlink:title=" ">
<polygon fill="white" stroke="#666666" points="808,-981.29 614,-981.29 614,-929.29 808,-929.29 808,-981.29"/>
<text text-anchor="start" x="622" y="-969.29" font-family="Helvetica,sans-Serif" font-size="10.00">psr::MaybeUniquePtr</text>
<text text-anchor="start" x="622" y="-958.29" font-family="Helvetica,sans-Serif" font-size="10.00">&lt; psr::AnalysisPrinterBase</text>
<text text-anchor="start" x="622" y="-947.29" font-family="Helvetica,sans-Serif" font-size="10.00">&lt; IDEInstInteractionAnalysisDomain</text>
<text text-anchor="middle" x="711" y="-936.29" font-family="Helvetica,sans-Serif" font-size="10.00">&lt; std::string &gt; &gt; &gt;</text>
</a>
</g>
</g>
<!-- Node1&#45;&gt;Node7 -->
<g id="edge6_Node000001_Node000007" class="edge">
<title>Node1&#45;&gt;Node7</title>
<g id="a_edge6_Node000001_Node000007"><a xlink:title=" ">
<path fill="none" stroke="orange" stroke-dasharray="5,2" d="M286.71,-626.65C295.93,-695.03 324.71,-880.73 370,-919.29 405.65,-949.65 526.47,-956.26 613.95,-956.87"/>
<polygon fill="orange" stroke="orange" points="290.14,-625.82 285.36,-616.36 283.2,-626.73 290.14,-625.82"/>
</a>
</g>
<text text-anchor="start" x="386" y="-980.29" font-family="Helvetica,sans-Serif" font-size="10.00" fill="grey"> &lt; psr::AnalysisPrinterBase</text>
<text text-anchor="start" x="386" y="-969.29" font-family="Helvetica,sans-Serif" font-size="10.00" fill="grey">&lt; IDEInstInteractionAnalysisDomain</text>
<text text-anchor="middle" x="475" y="-958.29" font-family="Helvetica,sans-Serif" font-size="10.00" fill="grey">&lt; std::string &gt; &gt; &gt;</text>
</g>
<!-- Node8 -->
<g id="Node000008" class="node">
<title>Node8</title>
<g id="a_Node000008"><a xlink:href="classpsr_1_1MaybeUniquePtr.html" target="_top" xlink:title=" ">
<polygon fill="white" stroke="#666666" points="821,-910.79 601,-910.79 601,-869.79 821,-869.79 821,-910.79"/>
<text text-anchor="start" x="609" y="-898.79" font-family="Helvetica,sans-Serif" font-size="10.00">psr::MaybeUniquePtr</text>
<text text-anchor="start" x="609" y="-887.79" font-family="Helvetica,sans-Serif" font-size="10.00">&lt; psr::AnalysisPrinterBase</text>
<text text-anchor="middle" x="711" y="-876.79" font-family="Helvetica,sans-Serif" font-size="10.00">&lt; IDELinearConstantAnalysisDomain &gt; &gt;</text>
</a>
</g>
</g>
<!-- Node1&#45;&gt;Node8 -->
<g id="edge7_Node000001_Node000008" class="edge">
<title>Node1&#45;&gt;Node8</title>
<g id="a_edge7_Node000001_Node000008"><a xlink:title=" ">
<path fill="none" stroke="orange" stroke-dasharray="5,2" d="M283.38,-626.86C284.65,-680.37 295.91,-804.02 370,-862.29 404.86,-889.71 515.27,-894.63 600.93,-894"/>
<polygon fill="orange" stroke="orange" points="286.87,-626.51 283.24,-616.55 279.87,-626.6 286.87,-626.51"/>
</a>
</g>
<text text-anchor="start" x="373" y="-907.29" font-family="Helvetica,sans-Serif" font-size="10.00" fill="grey"> &lt; psr::AnalysisPrinterBase</text>
<text text-anchor="middle" x="475" y="-896.29" font-family="Helvetica,sans-Serif" font-size="10.00" fill="grey">&lt; IDELinearConstantAnalysisDomain &gt; &gt;</text>
</g>
<!-- Node9 -->
<g id="Node000009" class="node">
<title>Node9</title>
<g id="a_Node000009"><a xlink:href="classpsr_1_1MaybeUniquePtr.html" target="_top" xlink:title=" ">
<polygon fill="white" stroke="#666666" points="797,-851.79 625,-851.79 625,-810.79 797,-810.79 797,-851.79"/>
<text text-anchor="start" x="633" y="-839.79" font-family="Helvetica,sans-Serif" font-size="10.00">psr::MaybeUniquePtr</text>
<text text-anchor="start" x="633" y="-828.79" font-family="Helvetica,sans-Serif" font-size="10.00">&lt; psr::AnalysisPrinterBase</text>
<text text-anchor="middle" x="711" y="-817.79" font-family="Helvetica,sans-Serif" font-size="10.00">&lt; IDEProtoAnalysisDomain &gt; &gt;</text>
</a>
</g>
</g>
<!-- Node1&#45;&gt;Node9 -->
<g id="edge8_Node000001_Node000009" class="edge">
<title>Node1&#45;&gt;Node9</title>
<g id="a_edge8_Node000001_Node000009"><a xlink:title=" ">
<path fill="none" stroke="orange" stroke-dasharray="5,2" d="M285.66,-626.47C291.03,-671.68 309.31,-765.9 370,-809.29 409.4,-837.46 537.51,-838.59 624.72,-835.75"/>
<polygon fill="orange" stroke="orange" points="289.13,-625.92 284.58,-616.35 282.16,-626.66 289.13,-625.92"/>
</a>
</g>
<text text-anchor="start" x="397" y="-850.29" font-family="Helvetica,sans-Serif" font-size="10.00" fill="grey"> &lt; psr::AnalysisPrinterBase</text>
<text text-anchor="middle" x="475" y="-839.29" font-family="Helvetica,sans-Serif" font-size="10.00" fill="grey">&lt; IDEProtoAnalysisDomain &gt; &gt;</text>
</g>
<!-- Node10 -->
<g id="Node000010" class="node">
<title>Node10</title>
<g id="a_Node000010"><a xlink:href="classpsr_1_1MaybeUniquePtr.html" target="_top" xlink:title=" ">
<polygon fill="white" stroke="#666666" points="812.5,-792.29 609.5,-792.29 609.5,-740.29 812.5,-740.29 812.5,-792.29"/>
<text text-anchor="start" x="617.5" y="-780.29" font-family="Helvetica,sans-Serif" font-size="10.00">psr::MaybeUniquePtr</text>
<text text-anchor="start" x="617.5" y="-769.29" font-family="Helvetica,sans-Serif" font-size="10.00">&lt; psr::AnalysisPrinterBase</text>
<text text-anchor="start" x="617.5" y="-758.29" font-family="Helvetica,sans-Serif" font-size="10.00">&lt; IDESecureHeapPropagationAnalysis</text>
<text text-anchor="middle" x="711" y="-747.29" font-family="Helvetica,sans-Serif" font-size="10.00">Domain &gt; &gt;</text>
</a>
</g>
</g>
<!-- Node1&#45;&gt;Node10 -->
<g id="edge9_Node000001_Node000010" class="edge">
<title>Node1&#45;&gt;Node10</title>
<g id="a_edge9_Node000001_Node000010"><a xlink:title=" ">
<path fill="none" stroke="orange" stroke-dasharray="5,2" d="M293.02,-625.87C305.76,-655.16 331.36,-703.06 370,-726.29 441.82,-769.47 537.67,-777.22 609.29,-775.47"/>
<polygon fill="orange" stroke="orange" points="296.13,-624.23 289.04,-616.35 289.67,-626.93 296.13,-624.23"/>
</a>
</g>
<text text-anchor="start" x="381.5" y="-800.29" font-family="Helvetica,sans-Serif" font-size="10.00" fill="grey"> &lt; psr::AnalysisPrinterBase</text>
<text text-anchor="start" x="381.5" y="-789.29" font-family="Helvetica,sans-Serif" font-size="10.00" fill="grey">&lt; IDESecureHeapPropagationAnalysis</text>
<text text-anchor="middle" x="475" y="-778.29" font-family="Helvetica,sans-Serif" font-size="10.00" fill="grey">Domain &gt; &gt;</text>
</g>
<!-- Node11 -->
<g id="Node000011" class="node">
<title>Node11</title>
<g id="a_Node000011"><a xlink:href="classpsr_1_1MaybeUniquePtr.html" target="_top" xlink:title=" ">
<polygon fill="white" stroke="#666666" points="809.5,-721.79 612.5,-721.79 612.5,-680.79 809.5,-680.79 809.5,-721.79"/>
<text text-anchor="start" x="620.5" y="-709.79" font-family="Helvetica,sans-Serif" font-size="10.00">psr::MaybeUniquePtr</text>
<text text-anchor="start" x="620.5" y="-698.79" font-family="Helvetica,sans-Serif" font-size="10.00">&lt; psr::AnalysisPrinterBase</text>
<text text-anchor="middle" x="711" y="-687.79" font-family="Helvetica,sans-Serif" font-size="10.00">&lt; IDESolverTestAnalysisDomain &gt; &gt;</text>
</a>
</g>
</g>
<!-- Node1&#45;&gt;Node11 -->
<g id="edge10_Node000001_Node000011" class="edge">
<title>Node1&#45;&gt;Node11</title>
<g id="a_edge10_Node000001_Node000011"><a xlink:title=" ">
<path fill="none" stroke="orange" stroke-dasharray="5,2" d="M307.53,-623.25C323.9,-636.88 346.75,-653.43 370,-662.29 448,-692.03 542.8,-700.87 612.46,-702.8"/>
<polygon fill="orange" stroke="orange" points="309.46,-620.3 299.59,-616.45 304.9,-625.61 309.46,-620.3"/>
</a>
</g>
<text text-anchor="start" x="384.5" y="-714.29" font-family="Helvetica,sans-Serif" font-size="10.00" fill="grey"> &lt; psr::AnalysisPrinterBase</text>
<text text-anchor="middle" x="475" y="-703.29" font-family="Helvetica,sans-Serif" font-size="10.00" fill="grey">&lt; IDESolverTestAnalysisDomain &gt; &gt;</text>
</g>
<!-- Node12 -->
<g id="Node000012" class="node">
<title>Node12</title>
<g id="a_Node000012"><a xlink:href="classpsr_1_1MaybeUniquePtr.html" target="_top" xlink:title=" ">
<polygon fill="white" stroke="#666666" points="799,-662.29 623,-662.29 623,-610.29 799,-610.29 799,-662.29"/>
<text text-anchor="start" x="631" y="-650.29" font-family="Helvetica,sans-Serif" font-size="10.00">psr::MaybeUniquePtr</text>
<text text-anchor="start" x="631" y="-639.29" font-family="Helvetica,sans-Serif" font-size="10.00">&lt; psr::AnalysisPrinterBase</text>
<text text-anchor="start" x="631" y="-628.29" font-family="Helvetica,sans-Serif" font-size="10.00">&lt; IDETypeStateAnalysisDomain</text>
<text text-anchor="middle" x="711" y="-617.29" font-family="Helvetica,sans-Serif" font-size="10.00">&lt; TypeStateDescriptionTy &gt; &gt; &gt;</text>
</a>
</g>
</g>
<!-- Node1&#45;&gt;Node12 -->
<g id="edge11_Node000001_Node000012" class="edge">
<title>Node1&#45;&gt;Node12</title>
<g id="a_edge11_Node000001_Node000012"><a xlink:title=" ">
<path fill="none" stroke="orange" stroke-dasharray="5,2" d="M362.2,-607.75C436.06,-613.81 546.32,-622.86 622.82,-629.14"/>
<polygon fill="orange" stroke="orange" points="362.28,-604.25 352.02,-606.92 361.7,-611.22 362.28,-604.25"/>
</a>
</g>
<text text-anchor="start" x="395" y="-650.29" font-family="Helvetica,sans-Serif" font-size="10.00" fill="grey"> &lt; psr::AnalysisPrinterBase</text>
<text text-anchor="start" x="395" y="-639.29" font-family="Helvetica,sans-Serif" font-size="10.00" fill="grey">&lt; IDETypeStateAnalysisDomain</text>
<text text-anchor="middle" x="475" y="-628.29" font-family="Helvetica,sans-Serif" font-size="10.00" fill="grey">&lt; TypeStateDescriptionTy &gt; &gt; &gt;</text>
</g>
<!-- Node13 -->
<g id="Node000013" class="node">
<title>Node13</title>
<g id="a_Node000013"><a xlink:href="classpsr_1_1MaybeUniquePtr.html" target="_top" xlink:title=" ">
<polygon fill="white" stroke="#666666" points="787,-592.29 635,-592.29 635,-540.29 787,-540.29 787,-592.29"/>
<text text-anchor="start" x="643" y="-580.29" font-family="Helvetica,sans-Serif" font-size="10.00">psr::MaybeUniquePtr</text>
<text text-anchor="start" x="643" y="-569.29" font-family="Helvetica,sans-Serif" font-size="10.00">&lt; psr::AnalysisPrinterBase</text>
<text text-anchor="start" x="643" y="-558.29" font-family="Helvetica,sans-Serif" font-size="10.00">&lt; WithBinaryValueDomain</text>
<text text-anchor="middle" x="711" y="-547.29" font-family="Helvetica,sans-Serif" font-size="10.00">&lt; AnalysisDomainTy &gt; &gt; &gt;</text>
</a>
</g>
</g>
<!-- Node1&#45;&gt;Node13 -->
<g id="edge12_Node000001_Node000013" class="edge">
<title>Node1&#45;&gt;Node13</title>
<g id="a_edge12_Node000001_Node000013"><a xlink:title=" ">
<path fill="none" stroke="orange" stroke-dasharray="5,2" d="M329.84,-582.86C342.65,-578.57 356.69,-574.59 370,-572.29 460.03,-556.79 565.46,-557.83 634.77,-561.09"/>
<polygon fill="orange" stroke="orange" points="328.61,-579.58 320.32,-586.18 330.92,-586.19 328.61,-579.58"/>
</a>
</g>
<text text-anchor="start" x="407" y="-597.29" font-family="Helvetica,sans-Serif" font-size="10.00" fill="grey"> &lt; psr::AnalysisPrinterBase</text>
<text text-anchor="start" x="407" y="-586.29" font-family="Helvetica,sans-Serif" font-size="10.00" fill="grey">&lt; WithBinaryValueDomain</text>
<text text-anchor="middle" x="475" y="-575.29" font-family="Helvetica,sans-Serif" font-size="10.00" fill="grey">&lt; AnalysisDomainTy &gt; &gt; &gt;</text>
</g>
<!-- Node14 -->
<g id="Node000014" class="node">
<title>Node14</title>
<g id="a_Node000014"><a xlink:href="classpsr_1_1MaybeUniquePtr.html" target="_top" xlink:title=" ">
<polygon fill="white" stroke="#666666" points="784,-521.79 638,-521.79 638,-480.79 784,-480.79 784,-521.79"/>
<text text-anchor="start" x="646" y="-509.79" font-family="Helvetica,sans-Serif" font-size="10.00">psr::MaybeUniquePtr</text>
<text text-anchor="start" x="646" y="-498.79" font-family="Helvetica,sans-Serif" font-size="10.00">&lt; psr::AnalysisPrinterBase</text>
<text text-anchor="middle" x="711" y="-487.79" font-family="Helvetica,sans-Serif" font-size="10.00">&lt; AnalysisDomainTy &gt; &gt;</text>
</a>
</g>
</g>
<!-- Node1&#45;&gt;Node14 -->
<g id="edge13_Node000001_Node000014" class="edge">
<title>Node1&#45;&gt;Node14</title>
<g id="a_edge13_Node000001_Node000014"><a xlink:title=" ">
<path fill="none" stroke="orange" stroke-dasharray="5,2" d="M304.77,-578.77C321.02,-563.12 344.85,-543.34 370,-533.29 457.41,-498.38 567.15,-494.46 637.92,-496.52"/>
<polygon fill="orange" stroke="orange" points="302.06,-576.53 297.42,-586.06 306.99,-581.5 302.06,-576.53"/>
</a>
</g>
<text text-anchor="start" x="408.5" y="-547.29" font-family="Helvetica,sans-Serif" font-size="10.00" fill="grey"> &lt; psr::AnalysisPrinterBase</text>
<text text-anchor="middle" x="475" y="-536.29" font-family="Helvetica,sans-Serif" font-size="10.00" fill="grey">&lt; AnalysisDomainTy &gt; &gt;</text>
</g>
<!-- Node15 -->
<g id="Node000015" class="node">
<title>Node15</title>
<g id="a_Node000015"><a xlink:href="classpsr_1_1MaybeUniquePtr.html" target="_top" xlink:title=" ">
<polygon fill="white" stroke="#666666" points="818.5,-462.79 603.5,-462.79 603.5,-421.79 818.5,-421.79 818.5,-462.79"/>
<text text-anchor="start" x="611.5" y="-450.79" font-family="Helvetica,sans-Serif" font-size="10.00">psr::MaybeUniquePtr</text>
<text text-anchor="start" x="611.5" y="-439.79" font-family="Helvetica,sans-Serif" font-size="10.00">&lt; psr::AnalysisPrinterBase</text>
<text text-anchor="middle" x="711" y="-428.79" font-family="Helvetica,sans-Serif" font-size="10.00">&lt; IDEExtendedTaintAnalysisDomain &gt; &gt;</text>
</a>
</g>
</g>
<!-- Node1&#45;&gt;Node15 -->
<g id="edge14_Node000001_Node000015" class="edge">
<title>Node1&#45;&gt;Node15</title>
<g id="a_edge14_Node000001_Node000015"><a xlink:title=" ">
<path fill="none" stroke="orange" stroke-dasharray="5,2" d="M292.26,-576.43C304.47,-545.86 329.76,-495.11 370,-471.29 439.85,-429.96 532.31,-424.56 603.18,-428.47"/>
<polygon fill="orange" stroke="orange" points="288.92,-575.36 288.62,-585.95 295.46,-577.86 288.92,-575.36"/>
</a>
</g>
<text text-anchor="start" x="375.5" y="-485.29" font-family="Helvetica,sans-Serif" font-size="10.00" fill="grey"> &lt; psr::AnalysisPrinterBase</text>
<text text-anchor="middle" x="475" y="-474.29" font-family="Helvetica,sans-Serif" font-size="10.00" fill="grey">&lt; IDEExtendedTaintAnalysisDomain &gt; &gt;</text>
</g>
<!-- Node16 -->
<g id="Node000016" class="node">
<title>Node16</title>
<g id="a_Node000016"><a xlink:href="classpsr_1_1MaybeUniquePtr.html" target="_top" xlink:title=" ">
<polygon fill="white" stroke="#666666" points="806.5,-403.79 615.5,-403.79 615.5,-362.79 806.5,-362.79 806.5,-403.79"/>
<text text-anchor="start" x="623.5" y="-391.79" font-family="Helvetica,sans-Serif" font-size="10.00">psr::MaybeUniquePtr</text>
<text text-anchor="start" x="623.5" y="-380.79" font-family="Helvetica,sans-Serif" font-size="10.00">&lt; const psr::DIBasedTypeHierarchy,</text>
<text text-anchor="middle" x="711" y="-369.79" font-family="Helvetica,sans-Serif" font-size="10.00"> true &gt;</text>
</a>
</g>
</g>
<!-- Node1&#45;&gt;Node16 -->
<g id="edge15_Node000001_Node000016" class="edge">
<title>Node1&#45;&gt;Node16</title>
<g id="a_edge15_Node000001_Node000016"><a xlink:title=" ">
<path fill="none" stroke="orange" stroke-dasharray="5,2" d="M286.12,-576.21C292.18,-532.48 311.43,-443.08 370,-402.29 440.95,-352.88 541.8,-353.73 615.23,-363.53"/>
<polygon fill="orange" stroke="orange" points="282.63,-575.92 284.85,-586.28 289.58,-576.8 282.63,-575.92"/>
</a>
</g>
<text text-anchor="start" x="411" y="-416.29" font-family="Helvetica,sans-Serif" font-size="10.00" fill="grey"> &lt; const psr::DIBasedType</text>
<text text-anchor="middle" x="475" y="-405.29" font-family="Helvetica,sans-Serif" font-size="10.00" fill="grey">Hierarchy, true &gt;</text>
</g>
<!-- Node17 -->
<g id="Node000017" class="node">
<title>Node17</title>
<g id="a_Node000017"><a xlink:href="classpsr_1_1MaybeUniquePtr.html" target="_top" xlink:title=" ">
<polygon fill="white" stroke="#666666" points="770.5,-344.29 651.5,-344.29 651.5,-314.29 770.5,-314.29 770.5,-344.29"/>
<text text-anchor="start" x="659.5" y="-332.29" font-family="Helvetica,sans-Serif" font-size="10.00">psr::MaybeUniquePtr</text>
<text text-anchor="middle" x="711" y="-321.29" font-family="Helvetica,sans-Serif" font-size="10.00">&lt; z3::context &gt;</text>
</a>
</g>
</g>
<!-- Node1&#45;&gt;Node17 -->
<g id="edge16_Node000001_Node000017" class="edge">
<title>Node1&#45;&gt;Node17</title>
<g id="a_edge16_Node000001_Node000017"><a xlink:title=" ">
<path fill="none" stroke="orange" stroke-dasharray="5,2" d="M283.3,-575.78C284.43,-522.41 295.42,-399.32 370,-343.29 412.87,-311.09 565.85,-317.52 651.27,-323.98"/>
<polygon fill="orange" stroke="orange" points="279.8,-576.02 283.19,-586.06 286.8,-576.09 279.8,-576.02"/>
</a>
</g>
<text text-anchor="middle" x="475" y="-346.29" font-family="Helvetica,sans-Serif" font-size="10.00" fill="grey"> &lt; z3::context &gt;</text>
</g>
<!-- Node18 -->
<g id="Node000018" class="node">
<title>Node18</title>
<g id="a_Node000018"><a xlink:href="classpsr_1_1MaybeUniquePtr.html" target="_top" xlink:title=" ">
<polygon fill="white" stroke="#666666" points="770.5,-296.29 651.5,-296.29 651.5,-266.29 770.5,-266.29 770.5,-296.29"/>
<text text-anchor="start" x="659.5" y="-284.29" font-family="Helvetica,sans-Serif" font-size="10.00">psr::MaybeUniquePtr</text>
<text text-anchor="middle" x="711" y="-273.29" font-family="Helvetica,sans-Serif" font-size="10.00">&lt; llvm::Module &gt;</text>
</a>
</g>
</g>
<!-- Node1&#45;&gt;Node18 -->
<g id="edge17_Node000001_Node000018" class="edge">
<title>Node1&#45;&gt;Node18</title>
<g id="a_edge17_Node000001_Node000018"><a xlink:title=" ">
<path fill="none" stroke="orange" stroke-dasharray="5,2" d="M287.17,-575.77C297.13,-510.28 326.88,-338.98 370,-304.29 449.86,-240.05 577.35,-252.22 651.42,-266.81"/>
<polygon fill="orange" stroke="orange" points="283.65,-575.62 285.64,-586.03 290.57,-576.66 283.65,-575.62"/>
</a>
</g>
<text text-anchor="middle" x="475" y="-307.29" font-family="Helvetica,sans-Serif" font-size="10.00" fill="grey"> &lt; llvm::Module &gt;</text>
</g>
<!-- Node19 -->
<g id="Node000019" class="node">
<title>Node19</title>
<g id="a_Node000019"><a xlink:href="classpsr_1_1MaybeUniquePtr.html" target="_top" xlink:title=" ">
<polygon fill="white" stroke="#666666" points="776.5,-248.29 645.5,-248.29 645.5,-218.29 776.5,-218.29 776.5,-248.29"/>
<text text-anchor="start" x="653.5" y="-236.29" font-family="Helvetica,sans-Serif" font-size="10.00">psr::MaybeUniquePtr</text>
<text text-anchor="middle" x="711" y="-225.29" font-family="Helvetica,sans-Serif" font-size="10.00">&lt; llvm::raw_ostream &gt;</text>
</a>
</g>
</g>
<!-- Node1&#45;&gt;Node19 -->
<g id="edge18_Node000001_Node000019" class="edge">
<title>Node1&#45;&gt;Node19</title>
<g id="a_edge18_Node000001_Node000019"><a xlink:title=" ">
<path fill="none" stroke="orange" stroke-dasharray="5,2" d="M285.65,-575.88C292.59,-500.86 317.01,-282.98 370,-240.29 410.81,-207.42 558.48,-216.77 645.21,-225.59"/>
<polygon fill="orange" stroke="orange" points="282.13,-575.98 284.72,-586.26 289.1,-576.61 282.13,-575.98"/>
</a>
</g>
<text text-anchor="middle" x="475" y="-243.29" font-family="Helvetica,sans-Serif" font-size="10.00" fill="grey"> &lt; llvm::raw_ostream &gt;</text>
</g>
<!-- Node20 -->
<g id="Node000020" class="node">
<title>Node20</title>
<g id="a_Node000020"><a xlink:href="classpsr_1_1MaybeUniquePtr.html" target="_top" xlink:title=" ">
<polygon fill="white" stroke="#666666" points="821,-200.29 601,-200.29 601,-148.29 821,-148.29 821,-200.29"/>
<text text-anchor="start" x="609" y="-188.29" font-family="Helvetica,sans-Serif" font-size="10.00">psr::MaybeUniquePtr</text>
<text text-anchor="start" x="609" y="-177.29" font-family="Helvetica,sans-Serif" font-size="10.00">&lt; psr::AnalysisPrinterBase</text>
<text text-anchor="start" x="609" y="-166.29" font-family="Helvetica,sans-Serif" font-size="10.00">&lt; psr::IDETypeStateAnalysisDomain</text>
<text text-anchor="middle" x="711" y="-155.29" font-family="Helvetica,sans-Serif" font-size="10.00">&lt; psr::OpenSSLEVPKDFDescription &gt; &gt; &gt;</text>
</a>
</g>
</g>
<!-- Node1&#45;&gt;Node20 -->
<g id="edge19_Node000001_Node000020" class="edge">
<title>Node1&#45;&gt;Node20</title>
<g id="a_edge19_Node000001_Node000020"><a xlink:title=" ">
<path fill="none" stroke="orange" stroke-dasharray="5,2" d="M284.71,-576.13C289.25,-493.3 308.33,-231.5 370,-180.29 404.07,-152.01 514.94,-154.81 600.92,-161.98"/>
<polygon fill="orange" stroke="orange" points="281.21,-576 284.18,-586.17 288.2,-576.37 281.21,-576"/>
</a>
</g>
<text text-anchor="start" x="373" y="-205.29" font-family="Helvetica,sans-Serif" font-size="10.00" fill="grey"> &lt; psr::AnalysisPrinterBase</text>
<text text-anchor="start" x="373" y="-194.29" font-family="Helvetica,sans-Serif" font-size="10.00" fill="grey">&lt; psr::IDETypeStateAnalysisDomain</text>
<text text-anchor="middle" x="475" y="-183.29" font-family="Helvetica,sans-Serif" font-size="10.00" fill="grey">&lt; psr::OpenSSLEVPKDFDescription &gt; &gt; &gt;</text>
</g>
<!-- Node21 -->
<g id="Node000021" class="node">
<title>Node21</title>
<g id="a_Node000021"><a xlink:href="classpsr_1_1MaybeUniquePtr.html" target="_top" xlink:title=" ">
<polygon fill="white" stroke="#666666" points="802,-130.29 620,-130.29 620,-78.29 802,-78.29 802,-130.29"/>
<text text-anchor="start" x="628" y="-118.29" font-family="Helvetica,sans-Serif" font-size="10.00">psr::MaybeUniquePtr</text>
<text text-anchor="start" x="628" y="-107.29" font-family="Helvetica,sans-Serif" font-size="10.00">&lt; psr::AnalysisPrinterBase</text>
<text text-anchor="start" x="628" y="-96.29" font-family="Helvetica,sans-Serif" font-size="10.00">&lt; psr::IDESecureHeapPropagation</text>
<text text-anchor="middle" x="711" y="-85.29" font-family="Helvetica,sans-Serif" font-size="10.00">AnalysisDomain &gt; &gt;</text>
</a>
</g>
</g>
<!-- Node1&#45;&gt;Node21 -->
<g id="edge20_Node000001_Node000021" class="edge">
<title>Node1&#45;&gt;Node21</title>
<g id="a_edge20_Node000001_Node000021"><a xlink:title=" ">
<path fill="none" stroke="orange" stroke-dasharray="5,2" d="M284.08,-575.97C286.7,-485.6 300.65,-181.11 370,-120.29 437.31,-61.27 544.03,-66.5 619.94,-80.61"/>
<polygon fill="orange" stroke="orange" points="280.57,-576.04 283.8,-586.13 287.57,-576.23 280.57,-576.04"/>
</a>
</g>
<text text-anchor="start" x="392" y="-145.29" font-family="Helvetica,sans-Serif" font-size="10.00" fill="grey"> &lt; psr::AnalysisPrinterBase</text>
<text text-anchor="start" x="392" y="-134.29" font-family="Helvetica,sans-Serif" font-size="10.00" fill="grey">&lt; psr::IDESecureHeapPropagation</text>
<text text-anchor="middle" x="475" y="-123.29" font-family="Helvetica,sans-Serif" font-size="10.00" fill="grey">AnalysisDomain &gt; &gt;</text>
</g>
<!-- Node22 -->
<g id="Node000022" class="node">
<title>Node22</title>
<g id="a_Node000022"><a xlink:href="classpsr_1_1MaybeUniquePtr.html" target="_top" xlink:title=" ">
<polygon fill="white" stroke="#666666" points="788,-59.79 634,-59.79 634,-18.79 788,-18.79 788,-59.79"/>
<text text-anchor="start" x="642" y="-47.79" font-family="Helvetica,sans-Serif" font-size="10.00">psr::MaybeUniquePtr</text>
<text text-anchor="start" x="642" y="-36.79" font-family="Helvetica,sans-Serif" font-size="10.00">&lt; psr::LLVMPathConstraints,</text>
<text text-anchor="middle" x="711" y="-25.79" font-family="Helvetica,sans-Serif" font-size="10.00"> true &gt;</text>
</a>
</g>
</g>
<!-- Node1&#45;&gt;Node22 -->
<g id="edge21_Node000001_Node000022" class="edge">
<title>Node1&#45;&gt;Node22</title>
<g id="a_edge21_Node000001_Node000022"><a xlink:title=" ">
<path fill="none" stroke="orange" stroke-dasharray="5,2" d="M283.36,-576C283.39,-476.89 289.14,-116.98 370,-46.29 445.56,19.77 570.7,1.18 646.25,-18.77"/>
<polygon fill="orange" stroke="orange" points="279.86,-576.27 283.38,-586.26 286.86,-576.26 279.86,-576.27"/>
</a>
</g>
<text text-anchor="start" x="404.5" y="-60.29" font-family="Helvetica,sans-Serif" font-size="10.00" fill="grey"> &lt; psr::LLVMPathConstraints,</text>
<text text-anchor="middle" x="475" y="-49.29" font-family="Helvetica,sans-Serif" font-size="10.00" fill="grey"> true &gt;</text>
</g>
<!-- Node2 -->
<g id="Node000002" class="node">
<title>Node2</title>
<g id="a_Node000002"><a xlink:title=" ">
<polygon fill="white" stroke="#666666" points="176,-616.29 0,-616.29 0,-586.29 176,-586.29 176,-616.29"/>
<text text-anchor="start" x="8" y="-604.29" font-family="Helvetica,sans-Serif" font-size="10.00">psr::detail::MaybeUnique</text>
<text text-anchor="middle" x="88" y="-593.29" font-family="Helvetica,sans-Serif" font-size="10.00">PtrBase&lt; T, RequireAlignment &gt;</text>
</a>
</g>
</g>
<!-- Node2&#45;&gt;Node1 -->
<g id="edge1_Node000001_Node000002" class="edge">
<title>Node2&#45;&gt;Node1</title>
<g id="a_edge1_Node000001_Node000002"><a xlink:title=" ">
<path fill="none" stroke="#8b1a1a" d="M186.3,-601.29C195.23,-601.29 204.14,-601.29 212.73,-601.29"/>
<polygon fill="#8b1a1a" stroke="#8b1a1a" points="186.24,-597.79 176.24,-601.29 186.24,-604.79 186.24,-597.79"/>
</a>
</g>
</g>
</g>
</svg>
