<?xml version="1.0" encoding="UTF-8" standalone="no"?>
<!DOCTYPE svg PUBLIC "-//W3C//DTD SVG 1.1//EN"
 "http://www.w3.org/Graphics/SVG/1.1/DTD/svg11.dtd">
<!-- Generated by graphviz version 2.43.0 (0)
 -->
<!-- Title: psr::PathSensitivityManagerBase&lt; N &gt; Pages: 1 -->
<svg width="911pt" height="92pt"
 viewBox="0.00 0.00 911.00 91.50" xmlns="http://www.w3.org/2000/svg" xmlns:xlink="http://www.w3.org/1999/xlink">
<g id="graph0" class="graph" transform="scale(1 1) rotate(0) translate(4 87.5)">
<title>psr::PathSensitivityManagerBase&lt; N &gt;</title>
<!-- Node1 -->
<g id="Node000001" class="node">
<title>Node1</title>
<g id="a_Node000001"><a xlink:title=" ">
<polygon fill="#999999" stroke="#666666" points="153,-59.5 0,-59.5 0,-29.5 153,-29.5 153,-59.5"/>
<text text-anchor="start" x="8" y="-47.5" font-family="Helvetica,sans-Serif" font-size="10.00">psr::PathSensitivityManager</text>
<text text-anchor="middle" x="76.5" y="-36.5" font-family="Helvetica,sans-Serif" font-size="10.00">Base&lt; N &gt;</text>
</a>
</g>
</g>
<!-- Node2 -->
<g id="Node000002" class="node">
<title>Node2</title>
<g id="a_Node000002"><a xlink:href="classpsr_1_1PathSensitivityManagerBase.html" target="_top" xlink:title=" ">
<polygon fill="white" stroke="#666666" points="508.5,-83.5 335.5,-83.5 335.5,-53.5 508.5,-53.5 508.5,-83.5"/>
<text text-anchor="start" x="343.5" y="-71.5" font-family="Helvetica,sans-Serif" font-size="10.00">psr::PathSensitivityManager</text>
<text text-anchor="middle" x="422" y="-60.5" font-family="Helvetica,sans-Serif" font-size="10.00">Base&lt; AnalysisDomainTy::n_t &gt;</text>
</a>
</g>
</g>
<!-- Node1&#45;&gt;Node2 -->
<g id="edge1_Node000001_Node000002" class="edge">
<title>Node1&#45;&gt;Node2</title>
<g id="a_edge1_Node000001_Node000002"><a xlink:title=" ">
<path fill="none" stroke="orange" stroke-dasharray="5,2" d="M163.61,-50.52C216.13,-54.19 283,-58.86 335.42,-62.52"/>
<polygon fill="orange" stroke="orange" points="163.53,-47 153.31,-49.8 163.04,-53.99 163.53,-47"/>
</a>
</g>
<text text-anchor="start" x="190" y="-74.5" font-family="Helvetica,sans-Serif" font-size="10.00" fill="grey"> &lt; AnalysisDomainTy</text>
<text text-anchor="middle" x="242.5" y="-63.5" font-family="Helvetica,sans-Serif" font-size="10.00" fill="grey">::n_t &gt;</text>
</g>
<!-- Node4 -->
<g id="Node000004" class="node">
<title>Node4</title>
<g id="a_Node000004"><a xlink:href="classpsr_1_1PathSensitivityManagerBase.html" target="_top" xlink:title=" ">
<polygon fill="white" stroke="#666666" points="512,-35.5 332,-35.5 332,-5.5 512,-5.5 512,-35.5"/>
<text text-anchor="start" x="340" y="-23.5" font-family="Helvetica,sans-Serif" font-size="10.00">psr::PathSensitivityManager</text>
<text text-anchor="middle" x="422" y="-12.5" font-family="Helvetica,sans-Serif" font-size="10.00">Base&lt; const llvm::Instruction * &gt;</text>
</a>
</g>
</g>
<!-- Node1&#45;&gt;Node4 -->
<g id="edge3_Node000001_Node000004" class="edge">
<title>Node1&#45;&gt;Node4</title>
<g id="a_edge3_Node000001_Node000004"><a xlink:title=" ">
<path fill="none" stroke="orange" stroke-dasharray="5,2" d="M163.22,-37.09C165.84,-36.89 168.44,-36.69 171,-36.5 224.35,-32.51 284.14,-28.66 331.88,-25.74"/>
<polygon fill="orange" stroke="orange" points="162.71,-33.62 153.01,-37.9 163.26,-40.6 162.71,-33.62"/>
</a>
</g>
<text text-anchor="middle" x="242.5" y="-39.5" font-family="Helvetica,sans-Serif" font-size="10.00" fill="grey"> &lt; const llvm::Instruction * &gt;</text>
</g>
<!-- Node3 -->
<g id="Node000003" class="node">
<title>Node3</title>
<g id="a_Node000003"><a xlink:href="classpsr_1_1PathSensitivityManager.html" target="_top" xlink:title="A utility class that allows path&#45;reconstruction for IFDS/IDE solver results.">
<polygon fill="white" stroke="#666666" points="702,-83.5 549,-83.5 549,-53.5 702,-53.5 702,-83.5"/>
<text text-anchor="start" x="557" y="-71.5" font-family="Helvetica,sans-Serif" font-size="10.00">psr::PathSensitivityManager</text>
<text text-anchor="middle" x="625.5" y="-60.5" font-family="Helvetica,sans-Serif" font-size="10.00">&lt; AnalysisDomainTy &gt;</text>
</a>
</g>
</g>
<!-- Node2&#45;&gt;Node3 -->
<g id="edge2_Node000002_Node000003" class="edge">
<title>Node2&#45;&gt;Node3</title>
<g id="a_edge2_Node000002_Node000003"><a xlink:title=" ">
<path fill="none" stroke="#63b8ff" d="M518.76,-68.5C528.81,-68.5 538.93,-68.5 548.71,-68.5"/>
<polygon fill="#63b8ff" stroke="#63b8ff" points="518.75,-65 508.75,-68.5 518.75,-72 518.75,-65"/>
</a>
</g>
</g>
<!-- Node5 -->
<g id="Node000005" class="node">
<title>Node5</title>
<g id="a_Node000005"><a xlink:href="classpsr_1_1Z3BasedPathSensitivityManagerBase.html" target="_top" xlink:title=" ">
<polygon fill="white" stroke="#666666" points="702,-35.5 549,-35.5 549,-5.5 702,-5.5 702,-35.5"/>
<text text-anchor="start" x="557" y="-23.5" font-family="Helvetica,sans-Serif" font-size="10.00">psr::Z3BasedPathSensitivity</text>
<text text-anchor="middle" x="625.5" y="-12.5" font-family="Helvetica,sans-Serif" font-size="10.00">ManagerBase</text>
</a>
</g>
</g>
<!-- Node4&#45;&gt;Node5 -->
<g id="edge4_Node000004_Node000005" class="edge">
<title>Node4&#45;&gt;Node5</title>
<g id="a_edge4_Node000004_Node000005"><a xlink:title=" ">
<path fill="none" stroke="#63b8ff" d="M522.31,-20.5C531.24,-20.5 540.18,-20.5 548.85,-20.5"/>
<polygon fill="#63b8ff" stroke="#63b8ff" points="522.26,-17 512.26,-20.5 522.26,-24 522.26,-17"/>
</a>
</g>
</g>
<!-- Node6 -->
<g id="Node000006" class="node">
<title>Node6</title>
<g id="a_Node000006"><a xlink:href="classpsr_1_1Z3BasedPathSensitivityManager.html" target="_top" xlink:title="An extension of the path&#45;reconstruction mechanism of the PathSensitivityManager that provides means t...">
<polygon fill="white" stroke="#666666" points="903,-41 739,-41 739,0 903,0 903,-41"/>
<text text-anchor="start" x="747" y="-29" font-family="Helvetica,sans-Serif" font-size="10.00">psr::Z3BasedPathSensitivity</text>
<text text-anchor="start" x="747" y="-18" font-family="Helvetica,sans-Serif" font-size="10.00">Manager&lt; AnalysisDomainTy,</text>
<text text-anchor="middle" x="821" y="-7" font-family="Helvetica,sans-Serif" font-size="10.00"> typename &gt;</text>
</a>
</g>
</g>
<!-- Node5&#45;&gt;Node6 -->
<g id="edge5_Node000005_Node000006" class="edge">
<title>Node5&#45;&gt;Node6</title>
<g id="a_edge5_Node000005_Node000006"><a xlink:title=" ">
<path fill="none" stroke="#63b8ff" d="M712.43,-20.5C721.26,-20.5 730.2,-20.5 738.98,-20.5"/>
<polygon fill="#63b8ff" stroke="#63b8ff" points="712.14,-17 702.14,-20.5 712.14,-24 712.14,-17"/>
</a>
</g>
</g>
</g>
</svg>
