<?xml version="1.0" encoding="UTF-8" standalone="no"?>
<!DOCTYPE svg PUBLIC "-//W3C//DTD SVG 1.1//EN"
 "http://www.w3.org/Graphics/SVG/1.1/DTD/svg11.dtd">
<!-- Generated by graphviz version 2.43.0 (0)
 -->
<!-- Title: psr::ICFGBase&lt; Derived &gt; Pages: 1 -->
<svg width="1117pt" height="134pt"
 viewBox="0.00 0.00 1117.00 134.00" xmlns="http://www.w3.org/2000/svg" xmlns:xlink="http://www.w3.org/1999/xlink">
<g id="graph0" class="graph" transform="scale(1 1) rotate(0) translate(4 130)">
<title>psr::ICFGBase&lt; Derived &gt;</title>
<!-- Node1 -->
<g id="Node000001" class="node">
<title>Node1</title>
<g id="a_Node000001"><a xlink:title=" ">
<polygon fill="#999999" stroke="#666666" points="330,-72.5 184,-72.5 184,-53.5 330,-53.5 330,-72.5"/>
<text text-anchor="middle" x="257" y="-60.5" font-family="Helvetica,sans-Serif" font-size="10.00">psr::ICFGBase&lt; Derived &gt;</text>
</a>
</g>
</g>
<!-- Node3 -->
<g id="Node000003" class="node">
<title>Node3</title>
<g id="a_Node000003"><a xlink:href="classpsr_1_1ICFGBase.html" target="_top" xlink:title=" ">
<polygon fill="white" stroke="#666666" points="696.5,-126 544.5,-126 544.5,-96 696.5,-96 696.5,-126"/>
<text text-anchor="start" x="552.5" y="-114" font-family="Helvetica,sans-Serif" font-size="10.00">psr::ICFGBase&lt; LLVMBased</text>
<text text-anchor="middle" x="620.5" y="-103" font-family="Helvetica,sans-Serif" font-size="10.00">BackwardICFG &gt;</text>
</a>
</g>
</g>
<!-- Node1&#45;&gt;Node3 -->
<g id="edge2_Node000001_Node000003" class="edge">
<title>Node1&#45;&gt;Node3</title>
<g id="a_edge2_Node000001_Node000003"><a xlink:title=" ">
<path fill="none" stroke="orange" stroke-dasharray="5,2" d="M322.61,-74.12C331.14,-75.49 339.77,-76.82 348,-78 414.27,-87.54 489.9,-96.59 544.48,-102.78"/>
<polygon fill="orange" stroke="orange" points="323.1,-70.66 312.67,-72.51 321.98,-77.57 323.1,-70.66"/>
</a>
</g>
<text text-anchor="middle" x="429" y="-102" font-family="Helvetica,sans-Serif" font-size="10.00" fill="grey"> &lt; LLVMBasedBackwardICFG &gt;</text>
</g>
<!-- Node5 -->
<g id="Node000005" class="node">
<title>Node5</title>
<g id="a_Node000005"><a xlink:href="classpsr_1_1ICFGBase.html" target="_top" xlink:title=" ">
<polygon fill="white" stroke="#666666" points="696.5,-78 544.5,-78 544.5,-48 696.5,-48 696.5,-78"/>
<text text-anchor="start" x="552.5" y="-66" font-family="Helvetica,sans-Serif" font-size="10.00">psr::ICFGBase&lt; LLVMBased</text>
<text text-anchor="middle" x="620.5" y="-55" font-family="Helvetica,sans-Serif" font-size="10.00">ICFG &gt;</text>
</a>
</g>
</g>
<!-- Node1&#45;&gt;Node5 -->
<g id="edge4_Node000001_Node000005" class="edge">
<title>Node1&#45;&gt;Node5</title>
<g id="a_edge4_Node000001_Node000005"><a xlink:title=" ">
<path fill="none" stroke="orange" stroke-dasharray="5,2" d="M340.32,-63C401.63,-63 484.68,-63 544.23,-63"/>
<polygon fill="orange" stroke="orange" points="340.29,-59.5 330.29,-63 340.29,-66.5 340.29,-59.5"/>
</a>
</g>
<text text-anchor="middle" x="429" y="-66" font-family="Helvetica,sans-Serif" font-size="10.00" fill="grey"> &lt; LLVMBasedICFG &gt;</text>
</g>
<!-- Node8 -->
<g id="Node000008" class="node">
<title>Node8</title>
<g id="a_Node000008"><a xlink:href="classpsr_1_1ICFGBase.html" target="_top" xlink:title=" ">
<polygon fill="white" stroke="#666666" points="713,-30 528,-30 528,0 713,0 713,-30"/>
<text text-anchor="start" x="536" y="-18" font-family="Helvetica,sans-Serif" font-size="10.00">psr::ICFGBase&lt; SparseLLVMBased</text>
<text text-anchor="middle" x="620.5" y="-7" font-family="Helvetica,sans-Serif" font-size="10.00">ICFGView &gt;</text>
</a>
</g>
</g>
<!-- Node1&#45;&gt;Node8 -->
<g id="edge7_Node000001_Node000008" class="edge">
<title>Node1&#45;&gt;Node8</title>
<g id="a_edge7_Node000001_Node000008"><a xlink:title=" ">
<path fill="none" stroke="orange" stroke-dasharray="5,2" d="M322.61,-51.88C331.14,-50.51 339.77,-49.18 348,-48 407.8,-39.39 475.24,-31.18 527.94,-25.11"/>
<polygon fill="orange" stroke="orange" points="321.98,-48.43 312.67,-53.49 323.1,-55.34 321.98,-48.43"/>
</a>
</g>
<text text-anchor="middle" x="429" y="-51" font-family="Helvetica,sans-Serif" font-size="10.00" fill="grey"> &lt; SparseLLVMBasedICFGView &gt;</text>
</g>
<!-- Node2 -->
<g id="Node000002" class="node">
<title>Node2</title>
<g id="a_Node000002"><a xlink:href="classpsr_1_1CRTPBase.html" target="_top" xlink:title=" ">
<polygon fill="white" stroke="#666666" points="147,-72.5 0,-72.5 0,-53.5 147,-53.5 147,-72.5"/>
<text text-anchor="middle" x="73.5" y="-60.5" font-family="Helvetica,sans-Serif" font-size="10.00">psr::CRTPBase&lt; Derived &gt;</text>
</a>
</g>
</g>
<!-- Node2&#45;&gt;Node1 -->
<g id="edge1_Node000001_Node000002" class="edge">
<title>Node2&#45;&gt;Node1</title>
<g id="a_edge1_Node000001_Node000002"><a xlink:title=" ">
<path fill="none" stroke="#63b8ff" d="M157.06,-63C166.02,-63 175.08,-63 183.9,-63"/>
<polygon fill="#63b8ff" stroke="#63b8ff" points="157.02,-59.5 147.02,-63 157.02,-66.5 157.02,-59.5"/>
</a>
</g>
</g>
<!-- Node4 -->
<g id="Node000004" class="node">
<title>Node4</title>
<g id="a_Node000004"><a xlink:href="classpsr_1_1LLVMBasedBackwardICFG.html" target="_top" xlink:title="A class that represents a backwards interprocedural control flow graph. Conforms to the ICFGBase CRTP...">
<polygon fill="white" stroke="#666666" points="918.5,-120.5 754.5,-120.5 754.5,-101.5 918.5,-101.5 918.5,-120.5"/>
<text text-anchor="middle" x="836.5" y="-108.5" font-family="Helvetica,sans-Serif" font-size="10.00">psr::LLVMBasedBackwardICFG</text>
</a>
</g>
</g>
<!-- Node3&#45;&gt;Node4 -->
<g id="edge3_Node000003_Node000004" class="edge">
<title>Node3&#45;&gt;Node4</title>
<g id="a_edge3_Node000003_Node000004"><a xlink:title=" ">
<path fill="none" stroke="#63b8ff" d="M706.83,-111C722.5,-111 738.81,-111 754.35,-111"/>
<polygon fill="#63b8ff" stroke="#63b8ff" points="706.65,-107.5 696.65,-111 706.65,-114.5 706.65,-107.5"/>
</a>
</g>
</g>
<!-- Node6 -->
<g id="Node000006" class="node">
<title>Node6</title>
<g id="a_Node000006"><a xlink:href="classpsr_1_1LLVMBasedICFG.html" target="_top" xlink:title="A class that implements a inter&#45;procedural control flow graph. Conforms to the ICFGBase CRTP interfac...">
<polygon fill="white" stroke="#666666" points="894.5,-72.5 778.5,-72.5 778.5,-53.5 894.5,-53.5 894.5,-72.5"/>
<text text-anchor="middle" x="836.5" y="-60.5" font-family="Helvetica,sans-Serif" font-size="10.00">psr::LLVMBasedICFG</text>
</a>
</g>
</g>
<!-- Node5&#45;&gt;Node6 -->
<g id="edge5_Node000005_Node000006" class="edge">
<title>Node5&#45;&gt;Node6</title>
<g id="a_edge5_Node000005_Node000006"><a xlink:title=" ">
<path fill="none" stroke="#63b8ff" d="M706.84,-63C730.88,-63 756.44,-63 778.39,-63"/>
<polygon fill="#63b8ff" stroke="#63b8ff" points="706.65,-59.5 696.65,-63 706.65,-66.5 706.65,-59.5"/>
</a>
</g>
</g>
<!-- Node7 -->
<g id="Node000007" class="node">
<title>Node7</title>
<g id="a_Node000007"><a xlink:href="classpsr_1_1SparseLLVMBasedICFG.html" target="_top" xlink:title="A class that implements a sparse interprocedural control flow graph. Conforms to the ICFGBase CRTP in...">
<polygon fill="white" stroke="#666666" points="1109,-72.5 960,-72.5 960,-53.5 1109,-53.5 1109,-72.5"/>
<text text-anchor="middle" x="1034.5" y="-60.5" font-family="Helvetica,sans-Serif" font-size="10.00">psr::SparseLLVMBasedICFG</text>
</a>
</g>
</g>
<!-- Node6&#45;&gt;Node7 -->
<g id="edge6_Node000006_Node000007" class="edge">
<title>Node6&#45;&gt;Node7</title>
<g id="a_edge6_Node000006_Node000007"><a xlink:title=" ">
<path fill="none" stroke="#63b8ff" d="M904.94,-63C922.62,-63 941.78,-63 959.77,-63"/>
<polygon fill="#63b8ff" stroke="#63b8ff" points="904.72,-59.5 894.72,-63 904.72,-66.5 904.72,-59.5"/>
</a>
</g>
</g>
<!-- Node9 -->
<g id="Node000009" class="node">
<title>Node9</title>
<g id="a_Node000009"><a xlink:href="classpsr_1_1SparseLLVMBasedICFGView.html" target="_top" xlink:title="Similar to SparseLLVMBasedICFG; the only difference is that this one is no LLVMBasedICFG – it contain...">
<polygon fill="white" stroke="#666666" points="923,-24.5 750,-24.5 750,-5.5 923,-5.5 923,-24.5"/>
<text text-anchor="middle" x="836.5" y="-12.5" font-family="Helvetica,sans-Serif" font-size="10.00">psr::SparseLLVMBasedICFGView</text>
</a>
</g>
</g>
<!-- Node8&#45;&gt;Node9 -->
<g id="edge8_Node000008_Node000009" class="edge">
<title>Node8&#45;&gt;Node9</title>
<g id="a_edge8_Node000008_Node000009"><a xlink:title=" ">
<path fill="none" stroke="#63b8ff" d="M723.19,-15C732.08,-15 741.02,-15 749.77,-15"/>
<polygon fill="#63b8ff" stroke="#63b8ff" points="723.19,-11.5 713.19,-15 723.19,-18.5 723.19,-11.5"/>
</a>
</g>
</g>
</g>
</svg>
