<?xml version="1.0" encoding="UTF-8" standalone="no"?>
<!DOCTYPE svg PUBLIC "-//W3C//DTD SVG 1.1//EN"
 "http://www.w3.org/Graphics/SVG/1.1/DTD/svg11.dtd">
<!-- Generated by graphviz version 2.43.0 (0)
 -->
<!-- Title: psr::PointsToInfoBase&lt; Derived &gt; Pages: 1 -->
<svg width="797pt" height="60pt"
 viewBox="0.00 0.00 797.00 60.00" xmlns="http://www.w3.org/2000/svg" xmlns:xlink="http://www.w3.org/1999/xlink">
<g id="graph0" class="graph" transform="scale(1 1) rotate(0) translate(4 56)">
<title>psr::PointsToInfoBase&lt; Derived &gt;</title>
<!-- Node1 -->
<g id="Node000001" class="node">
<title>Node1</title>
<g id="a_Node000001"><a xlink:title=" ">
<polygon fill="#999999" stroke="#666666" points="305,-41 184,-41 184,-11 305,-11 305,-41"/>
<text text-anchor="start" x="192" y="-29" font-family="Helvetica,sans-Serif" font-size="10.00">psr::PointsToInfoBase</text>
<text text-anchor="middle" x="244.5" y="-18" font-family="Helvetica,sans-Serif" font-size="10.00">&lt; Derived &gt;</text>
</a>
</g>
</g>
<!-- Node3 -->
<g id="Node000003" class="node">
<title>Node3</title>
<g id="a_Node000003"><a xlink:href="classpsr_1_1PointsToInfoBase.html" target="_top" xlink:title=" ">
<polygon fill="white" stroke="#666666" points="621,-41 440,-41 440,-11 621,-11 621,-41"/>
<text text-anchor="start" x="448" y="-29" font-family="Helvetica,sans-Serif" font-size="10.00">psr::PointsToInfoBase</text>
<text text-anchor="middle" x="530.5" y="-18" font-family="Helvetica,sans-Serif" font-size="10.00">&lt; PointsToInfoRef&lt; PTATraits &gt; &gt;</text>
</a>
</g>
</g>
<!-- Node1&#45;&gt;Node3 -->
<g id="edge2_Node000001_Node000003" class="edge">
<title>Node1&#45;&gt;Node3</title>
<g id="a_edge2_Node000001_Node000003"><a xlink:title=" ">
<path fill="none" stroke="orange" stroke-dasharray="5,2" d="M315.37,-26C352.91,-26 399.61,-26 439.81,-26"/>
<polygon fill="orange" stroke="orange" points="315.04,-22.5 305.04,-26 315.04,-29.5 315.04,-22.5"/>
</a>
</g>
<text text-anchor="start" x="323" y="-40" font-family="Helvetica,sans-Serif" font-size="10.00" fill="grey"> &lt; PointsToInfoRef&lt;</text>
<text text-anchor="middle" x="372.5" y="-29" font-family="Helvetica,sans-Serif" font-size="10.00" fill="grey"> PTATraits &gt; &gt;</text>
</g>
<!-- Node2 -->
<g id="Node000002" class="node">
<title>Node2</title>
<g id="a_Node000002"><a xlink:href="classpsr_1_1CRTPBase.html" target="_top" xlink:title=" ">
<polygon fill="white" stroke="#666666" points="147,-35.5 0,-35.5 0,-16.5 147,-16.5 147,-35.5"/>
<text text-anchor="middle" x="73.5" y="-23.5" font-family="Helvetica,sans-Serif" font-size="10.00">psr::CRTPBase&lt; Derived &gt;</text>
</a>
</g>
</g>
<!-- Node2&#45;&gt;Node1 -->
<g id="edge1_Node000001_Node000002" class="edge">
<title>Node2&#45;&gt;Node1</title>
<g id="a_edge1_Node000001_Node000002"><a xlink:title=" ">
<path fill="none" stroke="#63b8ff" d="M157.26,-26C166.24,-26 175.25,-26 183.88,-26"/>
<polygon fill="#63b8ff" stroke="#63b8ff" points="157.15,-22.5 147.15,-26 157.15,-29.5 157.15,-22.5"/>
</a>
</g>
</g>
<!-- Node4 -->
<g id="Node000004" class="node">
<title>Node4</title>
<g id="a_Node000004"><a xlink:href="classpsr_1_1PointsToInfoRef_3_01PTATraits_00_01std_1_1enable__if__t_3_01is__PointsToTraits__v_3_01PTATraits_01_4_01_4_01_4.html" target="_top" xlink:title=" ">
<polygon fill="white" stroke="#666666" points="789,-52 658,-52 658,0 789,0 789,-52"/>
<text text-anchor="start" x="666" y="-40" font-family="Helvetica,sans-Serif" font-size="10.00">psr::PointsToInfoRef</text>
<text text-anchor="start" x="666" y="-29" font-family="Helvetica,sans-Serif" font-size="10.00">&lt; PTATraits, std::enable</text>
<text text-anchor="start" x="666" y="-18" font-family="Helvetica,sans-Serif" font-size="10.00">_if_t&lt; is_PointsToTraits</text>
<text text-anchor="middle" x="723.5" y="-7" font-family="Helvetica,sans-Serif" font-size="10.00">_v&lt; PTATraits &gt; &gt; &gt;</text>
</a>
</g>
</g>
<!-- Node3&#45;&gt;Node4 -->
<g id="edge3_Node000003_Node000004" class="edge">
<title>Node3&#45;&gt;Node4</title>
<g id="a_edge3_Node000003_Node000004"><a xlink:title=" ">
<path fill="none" stroke="#63b8ff" d="M631.32,-26C640.34,-26 649.31,-26 657.9,-26"/>
<polygon fill="#63b8ff" stroke="#63b8ff" points="631.13,-22.5 621.13,-26 631.13,-29.5 631.13,-22.5"/>
</a>
</g>
</g>
</g>
</svg>
