<?xml version="1.0" encoding="UTF-8" standalone="no"?>
<!DOCTYPE svg PUBLIC "-//W3C//DTD SVG 1.1//EN"
 "http://www.w3.org/Graphics/SVG/1.1/DTD/svg11.dtd">
<!-- Generated by graphviz version 2.43.0 (0)
 -->
<!-- Title: psr::FilteredLLVMAliasSet Pages: 1 -->
<svg width="346pt" height="82pt"
 viewBox="0.00 0.00 345.50 82.00" xmlns="http://www.w3.org/2000/svg" xmlns:xlink="http://www.w3.org/1999/xlink">
<g id="graph0" class="graph" transform="scale(1 1) rotate(0) translate(4 78)">
<title>psr::FilteredLLVMAliasSet</title>
<!-- Node1 -->
<g id="Node000001" class="node">
<title>Node1</title>
<g id="a_Node000001"><a xlink:title=" ">
<polygon fill="#999999" stroke="#666666" points="239,-19 99,-19 99,0 239,0 239,-19"/>
<text text-anchor="middle" x="169" y="-7" font-family="Helvetica,sans-Serif" font-size="10.00">psr::FilteredLLVMAliasSet</text>
</a>
</g>
</g>
<!-- Node2 -->
<g id="Node000002" class="node">
<title>Node2</title>
<g id="a_Node000002"><a xlink:href="classpsr_1_1FilteredLLVMAliasIterator.html" target="_top" xlink:title=" ">
<polygon fill="white" stroke="#666666" points="160,-74 0,-74 0,-55 160,-55 160,-74"/>
<text text-anchor="middle" x="80" y="-62" font-family="Helvetica,sans-Serif" font-size="10.00">psr::FilteredLLVMAliasIterator</text>
</a>
</g>
</g>
<!-- Node2&#45;&gt;Node1 -->
<g id="edge1_Node000001_Node000002" class="edge">
<title>Node2&#45;&gt;Node1</title>
<g id="a_edge1_Node000001_Node000002"><a xlink:title=" ">
<path fill="none" stroke="#8b1a1a" d="M103.18,-49.7C119.39,-40.04 140.55,-27.44 154.44,-19.17"/>
<polygon fill="#8b1a1a" stroke="#8b1a1a" points="101.1,-46.86 94.3,-54.98 104.68,-52.88 101.1,-46.86"/>
</a>
</g>
</g>
<!-- Node3 -->
<g id="Node000003" class="node">
<title>Node3</title>
<g id="a_Node000003"><a xlink:href="classpsr_1_1CachedLLVMAliasIterator.html" target="_top" xlink:title="A wrapper over a LLVMAliasIteratorRef that adds caching to make it conform to the LLVMAliasInfoRef in...">
<polygon fill="white" stroke="#666666" points="337.5,-74 178.5,-74 178.5,-55 337.5,-55 337.5,-74"/>
<text text-anchor="middle" x="258" y="-62" font-family="Helvetica,sans-Serif" font-size="10.00">psr::CachedLLVMAliasIterator</text>
</a>
</g>
</g>
<!-- Node3&#45;&gt;Node1 -->
<g id="edge2_Node000001_Node000003" class="edge">
<title>Node3&#45;&gt;Node1</title>
<g id="a_edge2_Node000001_Node000003"><a xlink:title=" ">
<path fill="none" stroke="#63b8ff" d="M234.82,-49.7C218.61,-40.04 197.45,-27.44 183.56,-19.17"/>
<polygon fill="#63b8ff" stroke="#63b8ff" points="233.32,-52.88 243.7,-54.98 236.9,-46.86 233.32,-52.88"/>
</a>
</g>
</g>
</g>
</svg>
