<?xml version="1.0" encoding="UTF-8" standalone="no"?>
<!DOCTYPE svg PUBLIC "-//W3C//DTD SVG 1.1//EN"
 "http://www.w3.org/Graphics/SVG/1.1/DTD/svg11.dtd">
<!-- Generated by graphviz version 2.43.0 (0)
 -->
<!-- Title: psr::LLVMProjectIRDB Pages: 1 -->
<svg width="178pt" height="171pt"
 viewBox="0.00 0.00 178.00 171.00" xmlns="http://www.w3.org/2000/svg" xmlns:xlink="http://www.w3.org/1999/xlink">
<g id="graph0" class="graph" transform="scale(1 1) rotate(0) translate(4 167)">
<title>psr::LLVMProjectIRDB</title>
<!-- Node1 -->
<g id="Node000001" class="node">
<title>Node1</title>
<g id="a_Node000001"><a xlink:title="Project IR Database that manages a LLVM IR module.">
<polygon fill="#999999" stroke="#666666" points="121.5,-19 0.5,-19 0.5,0 121.5,0 121.5,-19"/>
<text text-anchor="middle" x="61" y="-7" font-family="Helvetica,sans-Serif" font-size="10.00">psr::LLVMProjectIRDB</text>
</a>
</g>
</g>
<!-- Node2 -->
<g id="Node000002" class="node">
<title>Node2</title>
<g id="a_Node000002"><a xlink:href="classpsr_1_1ProjectIRDBBase.html" target="_top" xlink:title=" ">
<polygon fill="white" stroke="#666666" points="122,-86 0,-86 0,-56 122,-56 122,-86"/>
<text text-anchor="start" x="8" y="-74" font-family="Helvetica,sans-Serif" font-size="10.00">psr::ProjectIRDBBase</text>
<text text-anchor="middle" x="61" y="-63" font-family="Helvetica,sans-Serif" font-size="10.00">&lt; LLVMProjectIRDB &gt;</text>
</a>
</g>
</g>
<!-- Node2&#45;&gt;Node1 -->
<g id="edge1_Node000001_Node000002" class="edge">
<title>Node2&#45;&gt;Node1</title>
<g id="a_edge1_Node000001_Node000002"><a xlink:title=" ">
<path fill="none" stroke="#63b8ff" d="M61,-45.79C61,-36.36 61,-26.15 61,-19.16"/>
<polygon fill="#63b8ff" stroke="#63b8ff" points="57.5,-45.9 61,-55.9 64.5,-45.9 57.5,-45.9"/>
</a>
</g>
</g>
<!-- Node3 -->
<g id="Node000003" class="node">
<title>Node3</title>
<g id="a_Node000003"><a xlink:href="classpsr_1_1ProjectIRDBBase.html" target="_top" xlink:title=" ">
<polygon fill="white" stroke="#666666" points="120.5,-163 1.5,-163 1.5,-133 120.5,-133 120.5,-163"/>
<text text-anchor="start" x="9.5" y="-151" font-family="Helvetica,sans-Serif" font-size="10.00">psr::ProjectIRDBBase</text>
<text text-anchor="middle" x="61" y="-140" font-family="Helvetica,sans-Serif" font-size="10.00">&lt; Derived &gt;</text>
</a>
</g>
</g>
<!-- Node3&#45;&gt;Node2 -->
<g id="edge2_Node000002_Node000003" class="edge">
<title>Node3&#45;&gt;Node2</title>
<g id="a_edge2_Node000002_Node000003"><a xlink:title=" ">
<path fill="none" stroke="orange" stroke-dasharray="5,2" d="M61,-122.54C61,-110.45 61,-96.29 61,-86.04"/>
<polygon fill="orange" stroke="orange" points="57.5,-122.89 61,-132.89 64.5,-122.89 57.5,-122.89"/>
</a>
</g>
<text text-anchor="middle" x="115.5" y="-107" font-family="Helvetica,sans-Serif" font-size="10.00" fill="grey"> &lt; LLVMProjectIRDB &gt;</text>
</g>
</g>
</svg>
