<?xml version="1.0" encoding="UTF-8" standalone="no"?>
<!DOCTYPE svg PUBLIC "-//W3C//DTD SVG 1.1//EN"
 "http://www.w3.org/Graphics/SVG/1.1/DTD/svg11.dtd">
<!-- Generated by graphviz version 2.43.0 (0)
 -->
<!-- Title: psr::IterativeIDESolverBase&lt; StaticSolverConfigTy, EdgeFunPtrTy &gt; Pages: 1 -->
<svg width="668pt" height="120pt"
 viewBox="0.00 0.00 668.00 119.50" xmlns="http://www.w3.org/2000/svg" xmlns:xlink="http://www.w3.org/1999/xlink">
<g id="graph0" class="graph" transform="scale(1 1) rotate(0) translate(4 115.5)">
<title>psr::IterativeIDESolverBase&lt; StaticSolverConfigTy, EdgeFunPtrTy &gt;</title>
<!-- Node1 -->
<g id="Node000001" class="node">
<title>Node1</title>
<g id="a_Node000001"><a xlink:title=" ">
<polygon fill="#999999" stroke="#666666" points="150,-84 0,-84 0,-43 150,-43 150,-84"/>
<text text-anchor="start" x="8" y="-72" font-family="Helvetica,sans-Serif" font-size="10.00">psr::IterativeIDESolverBase</text>
<text text-anchor="start" x="8" y="-61" font-family="Helvetica,sans-Serif" font-size="10.00">&lt; StaticSolverConfigTy,</text>
<text text-anchor="middle" x="75" y="-50" font-family="Helvetica,sans-Serif" font-size="10.00"> EdgeFunPtrTy &gt;</text>
</a>
</g>
</g>
<!-- Node2 -->
<g id="Node000002" class="node">
<title>Node2</title>
<g id="a_Node000002"><a xlink:href="classpsr_1_1IterativeIDESolver.html" target="_top" xlink:title=" ">
<polygon fill="white" stroke="#666666" points="635.5,-111.5 439.5,-111.5 439.5,-81.5 635.5,-81.5 635.5,-111.5"/>
<text text-anchor="start" x="447.5" y="-99.5" font-family="Helvetica,sans-Serif" font-size="10.00">psr::IterativeIDESolver</text>
<text text-anchor="middle" x="537.5" y="-88.5" font-family="Helvetica,sans-Serif" font-size="10.00">&lt; ProblemTy, StaticSolverConfigTy &gt;</text>
</a>
</g>
</g>
<!-- Node1&#45;&gt;Node2 -->
<g id="edge1_Node000001_Node000002" class="edge">
<title>Node1&#45;&gt;Node2</title>
<g id="a_edge1_Node000001_Node000002"><a xlink:title=" ">
<path fill="none" stroke="#63b8ff" d="M160.26,-81.48C162.87,-81.85 165.45,-82.19 168,-82.5 259.52,-93.61 364.68,-96.65 439.17,-97.19"/>
<polygon fill="#63b8ff" stroke="#63b8ff" points="160.56,-77.98 150.14,-79.91 159.49,-84.9 160.56,-77.98"/>
</a>
</g>
</g>
<!-- Node3 -->
<g id="Node000003" class="node">
<title>Node3</title>
<g id="a_Node000003"><a xlink:href="classpsr_1_1IterativeIDESolverBase.html" target="_top" xlink:title=" ">
<polygon fill="white" stroke="#666666" points="660,-63 415,-63 415,0 660,0 660,-63"/>
<text text-anchor="start" x="423" y="-51" font-family="Helvetica,sans-Serif" font-size="10.00">psr::IterativeIDESolverBase</text>
<text text-anchor="start" x="423" y="-40" font-family="Helvetica,sans-Serif" font-size="10.00">&lt; DefaultIDESolverConfig</text>
<text text-anchor="start" x="423" y="-29" font-family="Helvetica,sans-Serif" font-size="10.00">&lt; ProblemTy &gt;, StaticSolverConfig</text>
<text text-anchor="start" x="423" y="-18" font-family="Helvetica,sans-Serif" font-size="10.00">Ty::template EdgeFunctionPtrType</text>
<text text-anchor="middle" x="537.5" y="-7" font-family="Helvetica,sans-Serif" font-size="10.00">&lt; ProblemTy::ProblemAnalysisDomain::l_t &gt; &gt;</text>
</a>
</g>
</g>
<!-- Node1&#45;&gt;Node3 -->
<g id="edge2_Node000001_Node000003" class="edge">
<title>Node1&#45;&gt;Node3</title>
<g id="a_edge2_Node000001_Node000003"><a xlink:title=" ">
<path fill="none" stroke="orange" stroke-dasharray="5,2" d="M154.29,-40.84C158.91,-39.94 163.5,-39.14 168,-38.5 249.71,-26.8 342.64,-25.12 414.74,-26.32"/>
<polygon fill="orange" stroke="orange" points="153.24,-37.49 144.19,-42.98 154.69,-44.33 153.24,-37.49"/>
</a>
</g>
<text text-anchor="start" x="168" y="-74.5" font-family="Helvetica,sans-Serif" font-size="10.00" fill="grey"> &lt; DefaultIDESolverConfig</text>
<text text-anchor="start" x="168" y="-63.5" font-family="Helvetica,sans-Serif" font-size="10.00" fill="grey">&lt; ProblemTy &gt;, StaticSolverConfig</text>
<text text-anchor="start" x="168" y="-52.5" font-family="Helvetica,sans-Serif" font-size="10.00" fill="grey">Ty::template EdgeFunctionPtrType</text>
<text text-anchor="middle" x="282.5" y="-41.5" font-family="Helvetica,sans-Serif" font-size="10.00" fill="grey">&lt; ProblemTy::ProblemAnalysisDomain::l_t &gt; &gt;</text>
</g>
</g>
</svg>
