<?xml version="1.0" encoding="UTF-8" standalone="no"?>
<!DOCTYPE svg PUBLIC "-//W3C//DTD SVG 1.1//EN"
 "http://www.w3.org/Graphics/SVG/1.1/DTD/svg11.dtd">
<!-- Generated by graphviz version 2.43.0 (0)
 -->
<!-- Title: psr::LLVMBasedCFG Pages: 1 -->
<svg width="496pt" height="413pt"
 viewBox="0.00 0.00 496.00 413.00" xmlns="http://www.w3.org/2000/svg" xmlns:xlink="http://www.w3.org/1999/xlink">
<g id="graph0" class="graph" transform="scale(1 1) rotate(0) translate(4 409)">
<title>psr::LLVMBasedCFG</title>
<!-- Node1 -->
<g id="Node000001" class="node">
<title>Node1</title>
<g id="a_Node000001"><a xlink:title=" ">
<polygon fill="#999999" stroke="#666666" points="280,-131 167,-131 167,-112 280,-112 280,-131"/>
<text text-anchor="middle" x="223.5" y="-119" font-family="Helvetica,sans-Serif" font-size="10.00">psr::LLVMBasedCFG</text>
</a>
</g>
</g>
<!-- Node7 -->
<g id="Node000007" class="node">
<title>Node7</title>
<g id="a_Node000007"><a xlink:href="classpsr_1_1LLVMBasedICFG.html" target="_top" xlink:title="A class that implements a inter&#45;procedural control flow graph. Conforms to the ICFGBase CRTP interfac...">
<polygon fill="white" stroke="#666666" points="132.5,-75 16.5,-75 16.5,-56 132.5,-56 132.5,-75"/>
<text text-anchor="middle" x="74.5" y="-63" font-family="Helvetica,sans-Serif" font-size="10.00">psr::LLVMBasedICFG</text>
</a>
</g>
</g>
<!-- Node1&#45;&gt;Node7 -->
<g id="edge7_Node000001_Node000007" class="edge">
<title>Node1&#45;&gt;Node7</title>
<g id="a_edge7_Node000001_Node000007"><a xlink:title=" ">
<path fill="none" stroke="#63b8ff" d="M190.13,-108.41C162.12,-98.25 122.8,-84.01 98,-75.02"/>
<polygon fill="#63b8ff" stroke="#63b8ff" points="189.3,-111.83 199.89,-111.94 191.68,-105.25 189.3,-111.83"/>
</a>
</g>
</g>
<!-- Node9 -->
<g id="Node000009" class="node">
<title>Node9</title>
<g id="a_Node000009"><a xlink:href="classpsr_1_1SparseLLVMBasedCFG.html" target="_top" xlink:title="A class that implements a sparse control flow graph. Conforms to the CFGBase CRTP interface.">
<polygon fill="white" stroke="#666666" points="296.5,-75 150.5,-75 150.5,-56 296.5,-56 296.5,-75"/>
<text text-anchor="middle" x="223.5" y="-63" font-family="Helvetica,sans-Serif" font-size="10.00">psr::SparseLLVMBasedCFG</text>
</a>
</g>
</g>
<!-- Node1&#45;&gt;Node9 -->
<g id="edge9_Node000001_Node000009" class="edge">
<title>Node1&#45;&gt;Node9</title>
<g id="a_edge9_Node000001_Node000009"><a xlink:title=" ">
<path fill="none" stroke="#63b8ff" d="M223.5,-101.3C223.5,-92.41 223.5,-82.28 223.5,-75.25"/>
<polygon fill="#63b8ff" stroke="#63b8ff" points="220,-101.58 223.5,-111.58 227,-101.58 220,-101.58"/>
</a>
</g>
</g>
<!-- Node10 -->
<g id="Node000010" class="node">
<title>Node10</title>
<g id="a_Node000010"><a xlink:href="classpsr_1_1SparseLLVMBasedICFGView.html" target="_top" xlink:title="Similar to SparseLLVMBasedICFG; the only difference is that this one is no LLVMBasedICFG – it contain...">
<polygon fill="white" stroke="#666666" points="488,-75 315,-75 315,-56 488,-56 488,-75"/>
<text text-anchor="middle" x="401.5" y="-63" font-family="Helvetica,sans-Serif" font-size="10.00">psr::SparseLLVMBasedICFGView</text>
</a>
</g>
</g>
<!-- Node1&#45;&gt;Node10 -->
<g id="edge10_Node000001_Node000010" class="edge">
<title>Node1&#45;&gt;Node10</title>
<g id="a_edge10_Node000001_Node000010"><a xlink:title=" ">
<path fill="none" stroke="#63b8ff" d="M261.62,-108.94C295.18,-98.76 343.27,-84.16 373.43,-75.02"/>
<polygon fill="#63b8ff" stroke="#63b8ff" points="260.26,-105.69 251.7,-111.94 262.29,-112.39 260.26,-105.69"/>
</a>
</g>
</g>
<!-- Node2 -->
<g id="Node000002" class="node">
<title>Node2</title>
<g id="a_Node000002"><a xlink:title=" ">
<polygon fill="white" stroke="#666666" points="308,-198 139,-198 139,-168 308,-168 308,-198"/>
<text text-anchor="start" x="147" y="-186" font-family="Helvetica,sans-Serif" font-size="10.00">psr::detail::LLVMBasedCFGImpl</text>
<text text-anchor="middle" x="223.5" y="-175" font-family="Helvetica,sans-Serif" font-size="10.00">&lt; LLVMBasedCFG &gt;</text>
</a>
</g>
</g>
<!-- Node2&#45;&gt;Node1 -->
<g id="edge1_Node000001_Node000002" class="edge">
<title>Node2&#45;&gt;Node1</title>
<g id="a_edge1_Node000001_Node000002"><a xlink:title=" ">
<path fill="none" stroke="#63b8ff" d="M223.5,-157.79C223.5,-148.36 223.5,-138.15 223.5,-131.16"/>
<polygon fill="#63b8ff" stroke="#63b8ff" points="220,-157.9 223.5,-167.9 227,-157.9 220,-157.9"/>
</a>
</g>
</g>
<!-- Node3 -->
<g id="Node000003" class="node">
<title>Node3</title>
<g id="a_Node000003"><a xlink:href="classpsr_1_1CFGBase.html" target="_top" xlink:title=" ">
<polygon fill="white" stroke="#666666" points="285,-312 142,-312 142,-293 285,-293 285,-312"/>
<text text-anchor="middle" x="213.5" y="-300" font-family="Helvetica,sans-Serif" font-size="10.00">psr::CFGBase&lt; Derived &gt;</text>
</a>
</g>
</g>
<!-- Node3&#45;&gt;Node2 -->
<g id="edge2_Node000002_Node000003" class="edge">
<title>Node3&#45;&gt;Node2</title>
<g id="a_edge2_Node000002_Node000003"><a xlink:title=" ">
<path fill="none" stroke="#63b8ff" d="M215.11,-282.56C217.11,-259.03 220.49,-219.42 222.28,-198.29"/>
<polygon fill="#63b8ff" stroke="#63b8ff" points="211.61,-282.41 214.25,-292.67 218.59,-283 211.61,-282.41"/>
</a>
</g>
</g>
<!-- Node4 -->
<g id="Node000004" class="node">
<title>Node4</title>
<g id="a_Node000004"><a xlink:href="classpsr_1_1CRTPBase.html" target="_top" xlink:title=" ">
<polygon fill="white" stroke="#666666" points="302,-405 155,-405 155,-386 302,-386 302,-405"/>
<text text-anchor="middle" x="228.5" y="-393" font-family="Helvetica,sans-Serif" font-size="10.00">psr::CRTPBase&lt; Derived &gt;</text>
</a>
</g>
</g>
<!-- Node4&#45;&gt;Node3 -->
<g id="edge3_Node000003_Node000004" class="edge">
<title>Node4&#45;&gt;Node3</title>
<g id="a_edge3_Node000003_Node000004"><a xlink:title=" ">
<path fill="none" stroke="#63b8ff" d="M225.39,-375.64C222.18,-356.13 217.3,-326.53 214.91,-312.07"/>
<polygon fill="#63b8ff" stroke="#63b8ff" points="221.98,-376.48 227.06,-385.77 228.89,-375.34 221.98,-376.48"/>
</a>
</g>
</g>
<!-- Node6 -->
<g id="Node000006" class="node">
<title>Node6</title>
<g id="a_Node000006"><a xlink:href="classpsr_1_1CFGBase.html" target="_top" xlink:title=" ">
<polygon fill="white" stroke="#666666" points="389,-349 246,-349 246,-330 389,-330 389,-349"/>
<text text-anchor="middle" x="317.5" y="-337" font-family="Helvetica,sans-Serif" font-size="10.00">psr::CFGBase&lt; Derived &gt;</text>
</a>
</g>
</g>
<!-- Node4&#45;&gt;Node6 -->
<g id="edge6_Node000006_Node000004" class="edge">
<title>Node4&#45;&gt;Node6</title>
<g id="a_edge6_Node000006_Node000004"><a xlink:title=" ">
<path fill="none" stroke="#63b8ff" d="M251.74,-380.4C268.06,-370.5 289.37,-357.57 303.24,-349.15"/>
<polygon fill="#63b8ff" stroke="#63b8ff" points="249.53,-377.64 242.8,-385.82 253.16,-383.63 249.53,-377.64"/>
</a>
</g>
</g>
<!-- Node5 -->
<g id="Node000005" class="node">
<title>Node5</title>
<g id="a_Node000005"><a xlink:title=" ">
<polygon fill="white" stroke="#666666" points="404,-275 235,-275 235,-245 404,-245 404,-275"/>
<text text-anchor="start" x="243" y="-263" font-family="Helvetica,sans-Serif" font-size="10.00">psr::detail::LLVMBasedCFGImpl</text>
<text text-anchor="middle" x="319.5" y="-252" font-family="Helvetica,sans-Serif" font-size="10.00">&lt; Derived &gt;</text>
</a>
</g>
</g>
<!-- Node5&#45;&gt;Node2 -->
<g id="edge4_Node000002_Node000005" class="edge">
<title>Node5&#45;&gt;Node2</title>
<g id="a_edge4_Node000002_Node000005"><a xlink:title=" ">
<path fill="none" stroke="orange" stroke-dasharray="5,2" d="M293.29,-238.53C276.85,-225.68 256.07,-209.44 241.48,-198.04"/>
<polygon fill="orange" stroke="orange" points="291.41,-241.49 301.44,-244.89 295.72,-235.98 291.41,-241.49"/>
</a>
</g>
<text text-anchor="middle" x="327.5" y="-219" font-family="Helvetica,sans-Serif" font-size="10.00" fill="grey"> &lt; LLVMBasedCFG &gt;</text>
</g>
<!-- Node6&#45;&gt;Node5 -->
<g id="edge5_Node000005_Node000006" class="edge">
<title>Node6&#45;&gt;Node5</title>
<g id="a_edge5_Node000005_Node000006"><a xlink:title=" ">
<path fill="none" stroke="#63b8ff" d="M317.99,-319.68C318.34,-305.95 318.81,-287.63 319.14,-275.14"/>
<polygon fill="#63b8ff" stroke="#63b8ff" points="314.48,-319.82 317.72,-329.91 321.48,-320 314.48,-319.82"/>
</a>
</g>
</g>
<!-- Node8 -->
<g id="Node000008" class="node">
<title>Node8</title>
<g id="a_Node000008"><a xlink:href="classpsr_1_1SparseLLVMBasedICFG.html" target="_top" xlink:title="A class that implements a sparse interprocedural control flow graph. Conforms to the ICFGBase CRTP in...">
<polygon fill="white" stroke="#666666" points="149,-19 0,-19 0,0 149,0 149,-19"/>
<text text-anchor="middle" x="74.5" y="-7" font-family="Helvetica,sans-Serif" font-size="10.00">psr::SparseLLVMBasedICFG</text>
</a>
</g>
</g>
<!-- Node7&#45;&gt;Node8 -->
<g id="edge8_Node000007_Node000008" class="edge">
<title>Node7&#45;&gt;Node8</title>
<g id="a_edge8_Node000007_Node000008"><a xlink:title=" ">
<path fill="none" stroke="#63b8ff" d="M74.5,-45.3C74.5,-36.41 74.5,-26.28 74.5,-19.25"/>
<polygon fill="#63b8ff" stroke="#63b8ff" points="71,-45.58 74.5,-55.58 78,-45.58 71,-45.58"/>
</a>
</g>
</g>
</g>
</svg>
