<?xml version="1.0" encoding="UTF-8" standalone="no"?>
<!DOCTYPE svg PUBLIC "-//W3C//DTD SVG 1.1//EN"
 "http://www.w3.org/Graphics/SVG/1.1/DTD/svg11.dtd">
<!-- Generated by graphviz version 2.43.0 (0)
 -->
<!-- Title: include/phasar Pages: 1 -->
<svg width="594pt" height="369pt"
 viewBox="0.00 0.00 594.00 369.00" xmlns="http://www.w3.org/2000/svg" xmlns:xlink="http://www.w3.org/1999/xlink">
<g id="graph0" class="graph" transform="scale(1 1) rotate(0) translate(4 365)">
<title>include/phasar</title>
<g id="clust1" class="cluster">
<title>clusterdir_d44c64559bbebec7f509842c48db8b23</title>
<g id="a_clust1"><a xlink:href="dir_d44c64559bbebec7f509842c48db8b23.html" target="_top" xlink:title="include">
<polygon fill="#edf0f7" stroke="#404040" stroke-dasharray="5,2" points="8,-8 8,-353 578,-353 578,-8 8,-8"/>
<text text-anchor="middle" x="293" y="-341" font-family="Helvetica,sans-Serif" font-size="10.00">include</text>
</a>
</g>
</g>
<g id="clust2" class="cluster">
<title>clusterdir_05d093d0ed3722b9a30705a9449fa665</title>
<g id="a_clust2"><a xlink:href="dir_05d093d0ed3722b9a30705a9449fa665.html" target="_top">
<polygon fill="#edf0f7" stroke="#404040" stroke-width="2" points="16,-16 16,-326 570,-326 570,-16 16,-16"/>
</a>
</g>
</g>
<!-- dir_05d093d0ed3722b9a30705a9449fa665 -->
<g id="node1" class="node">
<title>dir_05d093d0ed3722b9a30705a9449fa665</title>
<text text-anchor="middle" x="252" y="-306" font-family="Helvetica,sans-Serif" font-size="10.00">phasar</text>
</g>
<!-- dir_2222cf0644c06f9277150910065165b7 -->
<g id="node2" class="node">
<title>dir_2222cf0644c06f9277150910065165b7</title>
<g id="a_node2"><a xlink:href="dir_2222cf0644c06f9277150910065165b7.html" target="_top" xlink:title="AnalysisStrategy">
<polygon fill="#a2b4d6" stroke="#404040" points="123.5,-263 24.5,-263 24.5,-244 123.5,-244 123.5,-263"/>
<text text-anchor="middle" x="74" y="-251" font-family="Helvetica,sans-Serif" font-size="10.00">AnalysisStrategy</text>
</a>
</g>
</g>
<!-- dir_05d093d0ed3722b9a30705a9449fa665&#45;&gt;dir_2222cf0644c06f9277150910065165b7 -->
<g id="edge3" class="edge">
<title>dir_05d093d0ed3722b9a30705a9449fa665&#45;&gt;dir_2222cf0644c06f9277150910065165b7</title>
<g id="a_edge3"><a xlink:href="dir_000022_000000.html" target="_top">
<path fill="none" stroke="#63b8ff" d="M226.87,-300.02C197.13,-291.16 147.27,-276.32 112.62,-266"/>
<polygon fill="#63b8ff" stroke="#63b8ff" points="113.41,-262.58 102.83,-263.08 111.42,-269.29 113.41,-262.58"/>
</a>
</g>
<g id="a_edge3&#45;headlabel"><a xlink:href="dir_000022_000000.html" target="_top" xlink:title="6">
<text text-anchor="middle" x="117.67" y="-258.39" font-family="Helvetica,sans-Serif" font-size="10.00" fill="#63b8ff">6</text>
</a>
</g>
</g>
<!-- dir_86d6a0ef6fcd04306246bc919bf79e2a -->
<g id="node3" class="node">
<title>dir_86d6a0ef6fcd04306246bc919bf79e2a</title>
<g id="a_node3"><a xlink:href="dir_86d6a0ef6fcd04306246bc919bf79e2a.html" target="_top" xlink:title="Config">
<polygon fill="#a2b4d6" stroke="#404040" points="274.5,-98 227.5,-98 227.5,-79 274.5,-79 274.5,-98"/>
<text text-anchor="middle" x="251" y="-86" font-family="Helvetica,sans-Serif" font-size="10.00">Config</text>
</a>
</g>
</g>
<!-- dir_05d093d0ed3722b9a30705a9449fa665&#45;&gt;dir_86d6a0ef6fcd04306246bc919bf79e2a -->
<g id="edge8" class="edge">
<title>dir_05d093d0ed3722b9a30705a9449fa665&#45;&gt;dir_86d6a0ef6fcd04306246bc919bf79e2a</title>
<g id="a_edge8"><a xlink:href="dir_000022_000001.html" target="_top">
<path fill="none" stroke="#63b8ff" d="M242.98,-298.96C234.93,-290.66 223.71,-277.25 219,-263 200.79,-207.87 227.1,-139.25 241.98,-107.35"/>
<polygon fill="#63b8ff" stroke="#63b8ff" points="245.29,-108.53 246.5,-98.01 238.99,-105.48 245.29,-108.53"/>
</a>
</g>
<g id="a_edge8&#45;headlabel"><a xlink:href="dir_000022_000001.html" target="_top" xlink:title="4">
<text text-anchor="middle" x="246.28" y="-110.51" font-family="Helvetica,sans-Serif" font-size="10.00" fill="#63b8ff">4</text>
</a>
</g>
</g>
<!-- dir_9d06c2f3a5ac32ab80fc048d7ff16b35 -->
<g id="node4" class="node">
<title>dir_9d06c2f3a5ac32ab80fc048d7ff16b35</title>
<g id="a_node4"><a xlink:href="dir_9d06c2f3a5ac32ab80fc048d7ff16b35.html" target="_top" xlink:title="ControlFlow">
<polygon fill="#a2b4d6" stroke="#404040" points="412.5,-263 337.5,-263 337.5,-244 412.5,-244 412.5,-263"/>
<text text-anchor="middle" x="375" y="-251" font-family="Helvetica,sans-Serif" font-size="10.00">ControlFlow</text>
</a>
</g>
</g>
<!-- dir_05d093d0ed3722b9a30705a9449fa665&#45;&gt;dir_9d06c2f3a5ac32ab80fc048d7ff16b35 -->
<g id="edge10" class="edge">
<title>dir_05d093d0ed3722b9a30705a9449fa665&#45;&gt;dir_9d06c2f3a5ac32ab80fc048d7ff16b35</title>
<g id="a_edge10"><a xlink:href="dir_000022_000003.html" target="_top">
<path fill="none" stroke="#63b8ff" d="M271.76,-298.98C291.73,-290.38 322.8,-276.99 345.65,-267.15"/>
<polygon fill="#63b8ff" stroke="#63b8ff" points="347.08,-270.34 354.88,-263.17 344.31,-263.91 347.08,-270.34"/>
</a>
</g>
<g id="a_edge10&#45;headlabel"><a xlink:href="dir_000022_000003.html" target="_top" xlink:title="22">
<text text-anchor="middle" x="344.9" y="-271.87" font-family="Helvetica,sans-Serif" font-size="10.00" fill="#63b8ff">22</text>
</a>
</g>
</g>
<!-- dir_69cf206f122d9153ac8b30a0f4a917bf -->
<g id="node5" class="node">
<title>dir_69cf206f122d9153ac8b30a0f4a917bf</title>
<g id="a_node5"><a xlink:href="dir_69cf206f122d9153ac8b30a0f4a917bf.html" target="_top" xlink:title="DataFlow">
<polygon fill="#a2b4d6" stroke="#404040" points="334.5,-153 271.5,-153 271.5,-134 334.5,-134 334.5,-153"/>
<text text-anchor="middle" x="303" y="-141" font-family="Helvetica,sans-Serif" font-size="10.00">DataFlow</text>
</a>
</g>
</g>
<!-- dir_05d093d0ed3722b9a30705a9449fa665&#45;&gt;dir_69cf206f122d9153ac8b30a0f4a917bf -->
<g id="edge7" class="edge">
<title>dir_05d093d0ed3722b9a30705a9449fa665&#45;&gt;dir_69cf206f122d9153ac8b30a0f4a917bf</title>
<g id="a_edge7"><a xlink:href="dir_000022_000005.html" target="_top">
<path fill="none" stroke="#63b8ff" d="M243.72,-298.61C233.46,-286.47 218.12,-263.93 225,-244 236.91,-209.51 266.25,-177.85 285.35,-159.9"/>
<polygon fill="#63b8ff" stroke="#63b8ff" points="287.8,-162.4 292.83,-153.07 283.09,-157.22 287.8,-162.4"/>
</a>
</g>
<g id="a_edge7&#45;headlabel"><a xlink:href="dir_000022_000005.html" target="_top" xlink:title="87">
<text text-anchor="middle" x="287.06" y="-164.42" font-family="Helvetica,sans-Serif" font-size="10.00" fill="#63b8ff">87</text>
</a>
</g>
</g>
<!-- dir_1f703d4dd1e982897af273349847e927 -->
<g id="node6" class="node">
<title>dir_1f703d4dd1e982897af273349847e927</title>
<g id="a_node6"><a xlink:href="dir_1f703d4dd1e982897af273349847e927.html" target="_top" xlink:title="DB">
<polygon fill="#a2b4d6" stroke="#404040" points="265.5,-43 234.5,-43 234.5,-24 265.5,-24 265.5,-43"/>
<text text-anchor="middle" x="250" y="-31" font-family="Helvetica,sans-Serif" font-size="10.00">DB</text>
</a>
</g>
</g>
<!-- dir_05d093d0ed3722b9a30705a9449fa665&#45;&gt;dir_1f703d4dd1e982897af273349847e927 -->
<g id="edge2" class="edge">
<title>dir_05d093d0ed3722b9a30705a9449fa665&#45;&gt;dir_1f703d4dd1e982897af273349847e927</title>
<g id="a_edge2"><a xlink:href="dir_000022_000007.html" target="_top">
<path fill="none" stroke="#63b8ff" d="M226.61,-302C205.17,-296.02 175.26,-284.33 158,-263 139.76,-240.46 143,-228.5 143,-199.5 143,-199.5 143,-199.5 143,-142.5 143,-113.5 139.85,-101.62 158,-79 174.72,-58.16 203.59,-46.44 224.54,-40.32"/>
<polygon fill="#63b8ff" stroke="#63b8ff" points="225.63,-43.66 234.39,-37.69 223.82,-36.89 225.63,-43.66"/>
</a>
</g>
<g id="a_edge2&#45;headlabel"><a xlink:href="dir_000022_000007.html" target="_top" xlink:title="8">
<text text-anchor="middle" x="222.9" y="-44.83" font-family="Helvetica,sans-Serif" font-size="10.00" fill="#63b8ff">8</text>
</a>
</g>
</g>
<!-- dir_15b1266ec3c6694d64b0cfc160192d3b -->
<g id="node7" class="node">
<title>dir_15b1266ec3c6694d64b0cfc160192d3b</title>
<g id="a_node7"><a xlink:href="dir_15b1266ec3c6694d64b0cfc160192d3b.html" target="_top" xlink:title="Domain">
<polygon fill="#a2b4d6" stroke="#404040" points="381.5,-43 326.5,-43 326.5,-24 381.5,-24 381.5,-43"/>
<text text-anchor="middle" x="354" y="-31" font-family="Helvetica,sans-Serif" font-size="10.00">Domain</text>
</a>
</g>
</g>
<!-- dir_05d093d0ed3722b9a30705a9449fa665&#45;&gt;dir_15b1266ec3c6694d64b0cfc160192d3b -->
<g id="edge1" class="edge">
<title>dir_05d093d0ed3722b9a30705a9449fa665&#45;&gt;dir_15b1266ec3c6694d64b0cfc160192d3b</title>
<g id="a_edge1"><a xlink:href="dir_000022_000010.html" target="_top">
<path fill="none" stroke="#63b8ff" d="M237.3,-298.87C212.02,-282.79 163,-245.66 163,-199.5 163,-199.5 163,-199.5 163,-142.5 163,-72.89 260.31,-47.63 316.01,-38.87"/>
<polygon fill="#63b8ff" stroke="#63b8ff" points="316.84,-42.29 326.23,-37.38 315.83,-35.36 316.84,-42.29"/>
</a>
</g>
<g id="a_edge1&#45;headlabel"><a xlink:href="dir_000022_000010.html" target="_top" xlink:title="26">
<text text-anchor="middle" x="313.69" y="-43.12" font-family="Helvetica,sans-Serif" font-size="10.00" fill="#63b8ff">26</text>
</a>
</g>
</g>
<!-- dir_2f78a14425137c07c54cd90f1df5b3e0 -->
<g id="node8" class="node">
<title>dir_2f78a14425137c07c54cd90f1df5b3e0</title>
<g id="a_node8"><a xlink:href="dir_2f78a14425137c07c54cd90f1df5b3e0.html" target="_top" xlink:title="PhasarClang">
<polygon fill="#a2b4d6" stroke="#404040" points="319.5,-263 242.5,-263 242.5,-244 319.5,-244 319.5,-263"/>
<text text-anchor="middle" x="281" y="-251" font-family="Helvetica,sans-Serif" font-size="10.00">PhasarClang</text>
</a>
</g>
</g>
<!-- dir_05d093d0ed3722b9a30705a9449fa665&#45;&gt;dir_2f78a14425137c07c54cd90f1df5b3e0 -->
<g id="edge4" class="edge">
<title>dir_05d093d0ed3722b9a30705a9449fa665&#45;&gt;dir_2f78a14425137c07c54cd90f1df5b3e0</title>
<g id="a_edge4"><a xlink:href="dir_000022_000023.html" target="_top">
<path fill="none" stroke="#63b8ff" d="M256.79,-298.75C260.76,-291.49 266.53,-280.95 271.43,-271.98"/>
<polygon fill="#63b8ff" stroke="#63b8ff" points="274.57,-273.54 276.3,-263.09 268.43,-270.18 274.57,-273.54"/>
</a>
</g>
<g id="a_edge4&#45;headlabel"><a xlink:href="dir_000022_000023.html" target="_top" xlink:title="4">
<text text-anchor="middle" x="275.34" y="-275.56" font-family="Helvetica,sans-Serif" font-size="10.00" fill="#63b8ff">4</text>
</a>
</g>
</g>
<!-- dir_6556945d274d6e1e874171d9d575b3f4 -->
<g id="node9" class="node">
<title>dir_6556945d274d6e1e874171d9d575b3f4</title>
<g id="a_node9"><a xlink:href="dir_6556945d274d6e1e874171d9d575b3f4.html" target="_top" xlink:title="PhasarLLVM">
<polygon fill="#a2b4d6" stroke="#404040" points="467.5,-98 392.5,-98 392.5,-79 467.5,-79 467.5,-98"/>
<text text-anchor="middle" x="430" y="-86" font-family="Helvetica,sans-Serif" font-size="10.00">PhasarLLVM</text>
</a>
</g>
</g>
<!-- dir_05d093d0ed3722b9a30705a9449fa665&#45;&gt;dir_6556945d274d6e1e874171d9d575b3f4 -->
<g id="edge6" class="edge">
<title>dir_05d093d0ed3722b9a30705a9449fa665&#45;&gt;dir_6556945d274d6e1e874171d9d575b3f4</title>
<g id="a_edge6"><a xlink:href="dir_000022_000024.html" target="_top">
<path fill="none" stroke="#63b8ff" d="M277.31,-307.11C336.5,-305.61 481.23,-298.32 511,-263 553.05,-213.11 483.01,-137.74 448.04,-105.28"/>
<polygon fill="#63b8ff" stroke="#63b8ff" points="450.14,-102.46 440.38,-98.34 445.44,-107.65 450.14,-102.46"/>
</a>
</g>
<g id="a_edge6&#45;headlabel"><a xlink:href="dir_000022_000024.html" target="_top" xlink:title="149">
<text text-anchor="middle" x="454.71" y="-100.27" font-family="Helvetica,sans-Serif" font-size="10.00" fill="#63b8ff">149</text>
</a>
</g>
</g>
<!-- dir_95cb90d78e6f0ffe194b938b245cf9c5 -->
<g id="node10" class="node">
<title>dir_95cb90d78e6f0ffe194b938b245cf9c5</title>
<g id="a_node10"><a xlink:href="dir_95cb90d78e6f0ffe194b938b245cf9c5.html" target="_top" xlink:title="PhasarPass">
<polygon fill="#a2b4d6" stroke="#404040" points="501.5,-263 430.5,-263 430.5,-244 501.5,-244 501.5,-263"/>
<text text-anchor="middle" x="466" y="-251" font-family="Helvetica,sans-Serif" font-size="10.00">PhasarPass</text>
</a>
</g>
</g>
<!-- dir_05d093d0ed3722b9a30705a9449fa665&#45;&gt;dir_95cb90d78e6f0ffe194b938b245cf9c5 -->
<g id="edge9" class="edge">
<title>dir_05d093d0ed3722b9a30705a9449fa665&#45;&gt;dir_95cb90d78e6f0ffe194b938b245cf9c5</title>
<g id="a_edge9"><a xlink:href="dir_000022_000025.html" target="_top">
<path fill="none" stroke="#63b8ff" d="M277.39,-301.21C312.93,-292.41 378.04,-276.28 421.68,-265.48"/>
<polygon fill="#63b8ff" stroke="#63b8ff" points="422.59,-268.86 431.46,-263.05 420.91,-262.06 422.59,-268.86"/>
</a>
</g>
<g id="a_edge9&#45;headlabel"><a xlink:href="dir_000022_000025.html" target="_top" xlink:title="4">
<text text-anchor="middle" x="419.79" y="-269.98" font-family="Helvetica,sans-Serif" font-size="10.00" fill="#63b8ff">4</text>
</a>
</g>
</g>
<!-- dir_58a8bb8411baaae7f5177ea38c71ea73 -->
<g id="node11" class="node">
<title>dir_58a8bb8411baaae7f5177ea38c71ea73</title>
<g id="a_node11"><a xlink:href="dir_58a8bb8411baaae7f5177ea38c71ea73.html" target="_top" xlink:title="Pointer">
<polygon fill="#a2b4d6" stroke="#404040" points="452.5,-43 401.5,-43 401.5,-24 452.5,-24 452.5,-43"/>
<text text-anchor="middle" x="427" y="-31" font-family="Helvetica,sans-Serif" font-size="10.00">Pointer</text>
</a>
</g>
</g>
<!-- dir_05d093d0ed3722b9a30705a9449fa665&#45;&gt;dir_58a8bb8411baaae7f5177ea38c71ea73 -->
<g id="edge5" class="edge">
<title>dir_05d093d0ed3722b9a30705a9449fa665&#45;&gt;dir_58a8bb8411baaae7f5177ea38c71ea73</title>
<g id="a_edge5"><a xlink:href="dir_000022_000027.html" target="_top">
<path fill="none" stroke="#63b8ff" d="M277.15,-306.62C336.83,-304.02 484.71,-294.49 521,-263 543.35,-243.61 541,-229.09 541,-199.5 541,-199.5 541,-199.5 541,-142.5 541,-96.47 491.42,-64.18 457.65,-47.53"/>
<polygon fill="#63b8ff" stroke="#63b8ff" points="458.71,-44.16 448.18,-43.05 455.72,-50.49 458.71,-44.16"/>
</a>
</g>
<g id="a_edge5&#45;headlabel"><a xlink:href="dir_000022_000027.html" target="_top" xlink:title="23">
<text text-anchor="middle" x="463.18" y="-40.63" font-family="Helvetica,sans-Serif" font-size="10.00" fill="#63b8ff">23</text>
</a>
</g>
</g>
<!-- dir_cd166ded320aef6ec75102a3779bae14 -->
<g id="node12" class="node">
<title>dir_cd166ded320aef6ec75102a3779bae14</title>
<g id="a_node12"><a xlink:href="dir_cd166ded320aef6ec75102a3779bae14.html" target="_top" xlink:title="TypeHierarchy">
<polygon fill="#a2b4d6" stroke="#404040" points="562,-43 476,-43 476,-24 562,-24 562,-43"/>
<text text-anchor="middle" x="519" y="-31" font-family="Helvetica,sans-Serif" font-size="10.00">TypeHierarchy</text>
</a>
</g>
</g>
<!-- dir_05d093d0ed3722b9a30705a9449fa665&#45;&gt;dir_cd166ded320aef6ec75102a3779bae14 -->
<g id="edge12" class="edge">
<title>dir_05d093d0ed3722b9a30705a9449fa665&#45;&gt;dir_cd166ded320aef6ec75102a3779bae14</title>
<g id="a_edge12"><a xlink:href="dir_000022_000036.html" target="_top">
<path fill="none" stroke="#63b8ff" d="M277.13,-306.54C338.35,-303.75 493.09,-293.74 533,-263 557.44,-244.18 561,-230.34 561,-199.5 561,-199.5 561,-199.5 561,-142.5 561,-108.46 542.65,-72.24 530.21,-51.59"/>
<polygon fill="#63b8ff" stroke="#63b8ff" points="533.12,-49.63 524.84,-43.02 527.19,-53.35 533.12,-49.63"/>
</a>
</g>
<g id="a_edge12&#45;headlabel"><a xlink:href="dir_000022_000036.html" target="_top" xlink:title="5">
<text text-anchor="middle" x="537.43" y="-48.67" font-family="Helvetica,sans-Serif" font-size="10.00" fill="#63b8ff">5</text>
</a>
</g>
</g>
<!-- dir_aeca43db7a276eb6dbfba1f93dc4539c -->
<g id="node13" class="node">
<title>dir_aeca43db7a276eb6dbfba1f93dc4539c</title>
<g id="a_node13"><a xlink:href="dir_aeca43db7a276eb6dbfba1f93dc4539c.html" target="_top" xlink:title="Utils">
<polygon fill="#a2b4d6" stroke="#404040" points="373.5,-208 334.5,-208 334.5,-189 373.5,-189 373.5,-208"/>
<text text-anchor="middle" x="354" y="-196" font-family="Helvetica,sans-Serif" font-size="10.00">Utils</text>
</a>
</g>
</g>
<!-- dir_05d093d0ed3722b9a30705a9449fa665&#45;&gt;dir_aeca43db7a276eb6dbfba1f93dc4539c -->
<g id="edge11" class="edge">
<title>dir_05d093d0ed3722b9a30705a9449fa665&#45;&gt;dir_aeca43db7a276eb6dbfba1f93dc4539c</title>
<g id="a_edge11"><a xlink:href="dir_000022_000039.html" target="_top">
<path fill="none" stroke="#63b8ff" d="M245.37,-298.94C236.21,-285.99 222.09,-261.12 234,-244 254.14,-215.05 295.44,-204.89 323.91,-201.35"/>
<polygon fill="#63b8ff" stroke="#63b8ff" points="324.54,-204.81 334.13,-200.29 323.82,-197.84 324.54,-204.81"/>
</a>
</g>
<g id="a_edge11&#45;headlabel"><a xlink:href="dir_000022_000039.html" target="_top" xlink:title="194">
<text text-anchor="middle" x="321.26" y="-205.5" font-family="Helvetica,sans-Serif" font-size="10.00" fill="#63b8ff">194</text>
</a>
</g>
</g>
<!-- dir_9d06c2f3a5ac32ab80fc048d7ff16b35&#45;&gt;dir_aeca43db7a276eb6dbfba1f93dc4539c -->
<g id="edge13" class="edge">
<title>dir_9d06c2f3a5ac32ab80fc048d7ff16b35&#45;&gt;dir_aeca43db7a276eb6dbfba1f93dc4539c</title>
<g id="a_edge13"><a xlink:href="dir_000003_000039.html" target="_top">
<path fill="none" stroke="#63b8ff" d="M371.53,-243.75C368.72,-236.65 364.66,-226.4 361.15,-217.56"/>
<polygon fill="#63b8ff" stroke="#63b8ff" points="364.34,-216.1 357.4,-208.09 357.83,-218.68 364.34,-216.1"/>
</a>
</g>
<g id="a_edge13&#45;headlabel"><a xlink:href="dir_000003_000039.html" target="_top" xlink:title="15">
<text text-anchor="middle" x="368.3" y="-215.89" font-family="Helvetica,sans-Serif" font-size="10.00" fill="#63b8ff">15</text>
</a>
</g>
</g>
<!-- dir_69cf206f122d9153ac8b30a0f4a917bf&#45;&gt;dir_86d6a0ef6fcd04306246bc919bf79e2a -->
<g id="edge18" class="edge">
<title>dir_69cf206f122d9153ac8b30a0f4a917bf&#45;&gt;dir_86d6a0ef6fcd04306246bc919bf79e2a</title>
<g id="a_edge18"><a xlink:href="dir_000005_000001.html" target="_top">
<path fill="none" stroke="#63b8ff" d="M294.41,-133.75C286.84,-126.03 275.62,-114.6 266.49,-105.28"/>
<polygon fill="#63b8ff" stroke="#63b8ff" points="268.93,-102.78 259.43,-98.09 263.93,-107.68 268.93,-102.78"/>
</a>
</g>
<g id="a_edge18&#45;headlabel"><a xlink:href="dir_000005_000001.html" target="_top" xlink:title="2">
<text text-anchor="middle" x="273.47" y="-100.85" font-family="Helvetica,sans-Serif" font-size="10.00" fill="#63b8ff">2</text>
</a>
</g>
</g>
<!-- dir_69cf206f122d9153ac8b30a0f4a917bf&#45;&gt;dir_9d06c2f3a5ac32ab80fc048d7ff16b35 -->
<g id="edge15" class="edge">
<title>dir_69cf206f122d9153ac8b30a0f4a917bf&#45;&gt;dir_9d06c2f3a5ac32ab80fc048d7ff16b35</title>
<g id="a_edge15"><a xlink:href="dir_000005_000003.html" target="_top">
<path fill="none" stroke="#63b8ff" d="M304.77,-153.33C307.65,-166.2 314.25,-190.47 326,-208 333.62,-219.37 344.76,-229.79 354.49,-237.69"/>
<polygon fill="#63b8ff" stroke="#63b8ff" points="352.51,-240.58 362.55,-243.94 356.79,-235.05 352.51,-240.58"/>
</a>
</g>
<g id="a_edge15&#45;headlabel"><a xlink:href="dir_000005_000003.html" target="_top" xlink:title="4">
<text text-anchor="middle" x="347.93" y="-238.12" font-family="Helvetica,sans-Serif" font-size="10.00" fill="#63b8ff">4</text>
</a>
</g>
</g>
<!-- dir_69cf206f122d9153ac8b30a0f4a917bf&#45;&gt;dir_1f703d4dd1e982897af273349847e927 -->
<g id="edge16" class="edge">
<title>dir_69cf206f122d9153ac8b30a0f4a917bf&#45;&gt;dir_1f703d4dd1e982897af273349847e927</title>
<g id="a_edge16"><a xlink:href="dir_000005_000007.html" target="_top">
<path fill="none" stroke="#63b8ff" d="M301.46,-133.91C298.98,-121.35 293.41,-97.45 284,-79 278.87,-68.95 271.41,-58.87 264.78,-50.85"/>
<polygon fill="#63b8ff" stroke="#63b8ff" points="267.24,-48.35 258.06,-43.05 261.94,-52.91 267.24,-48.35"/>
</a>
</g>
<g id="a_edge16&#45;headlabel"><a xlink:href="dir_000005_000007.html" target="_top" xlink:title="4">
<text text-anchor="middle" x="271.74" y="-46.71" font-family="Helvetica,sans-Serif" font-size="10.00" fill="#63b8ff">4</text>
</a>
</g>
</g>
<!-- dir_69cf206f122d9153ac8b30a0f4a917bf&#45;&gt;dir_15b1266ec3c6694d64b0cfc160192d3b -->
<g id="edge17" class="edge">
<title>dir_69cf206f122d9153ac8b30a0f4a917bf&#45;&gt;dir_15b1266ec3c6694d64b0cfc160192d3b</title>
<g id="a_edge17"><a xlink:href="dir_000005_000010.html" target="_top">
<path fill="none" stroke="#63b8ff" d="M306.2,-133.72C310.81,-121.33 319.77,-98.09 329,-79 333.39,-69.92 338.81,-60.13 343.48,-52.04"/>
<polygon fill="#63b8ff" stroke="#63b8ff" points="346.64,-53.59 348.69,-43.19 340.6,-50.04 346.64,-53.59"/>
</a>
</g>
<g id="a_edge17&#45;headlabel"><a xlink:href="dir_000005_000010.html" target="_top" xlink:title="10">
<text text-anchor="middle" x="347.26" y="-55.63" font-family="Helvetica,sans-Serif" font-size="10.00" fill="#63b8ff">10</text>
</a>
</g>
</g>
<!-- dir_69cf206f122d9153ac8b30a0f4a917bf&#45;&gt;dir_6556945d274d6e1e874171d9d575b3f4 -->
<g id="edge20" class="edge">
<title>dir_69cf206f122d9153ac8b30a0f4a917bf&#45;&gt;dir_6556945d274d6e1e874171d9d575b3f4</title>
<g id="a_edge20"><a xlink:href="dir_000005_000024.html" target="_top">
<path fill="none" stroke="#63b8ff" d="M318.29,-133.98C337.17,-125.3 369.42,-111.75 394.51,-101.88"/>
<polygon fill="#63b8ff" stroke="#63b8ff" points="396.02,-105.05 404.08,-98.17 393.49,-98.53 396.02,-105.05"/>
</a>
</g>
<g id="a_edge20&#45;headlabel"><a xlink:href="dir_000005_000024.html" target="_top" xlink:title="4">
<text text-anchor="middle" x="393.7" y="-106.5" font-family="Helvetica,sans-Serif" font-size="10.00" fill="#63b8ff">4</text>
</a>
</g>
</g>
<!-- dir_69cf206f122d9153ac8b30a0f4a917bf&#45;&gt;dir_58a8bb8411baaae7f5177ea38c71ea73 -->
<g id="edge19" class="edge">
<title>dir_69cf206f122d9153ac8b30a0f4a917bf&#45;&gt;dir_58a8bb8411baaae7f5177ea38c71ea73</title>
<g id="a_edge19"><a xlink:href="dir_000005_000027.html" target="_top">
<path fill="none" stroke="#63b8ff" d="M311.26,-133.97C323.49,-121.47 347.3,-97.66 369,-79 381,-68.68 395.06,-57.86 406.34,-49.47"/>
<polygon fill="#63b8ff" stroke="#63b8ff" points="408.72,-52.07 414.69,-43.32 404.56,-46.43 408.72,-52.07"/>
</a>
</g>
<g id="a_edge19&#45;headlabel"><a xlink:href="dir_000005_000027.html" target="_top" xlink:title="2">
<text text-anchor="middle" x="407.5" y="-53.99" font-family="Helvetica,sans-Serif" font-size="10.00" fill="#63b8ff">2</text>
</a>
</g>
</g>
<!-- dir_69cf206f122d9153ac8b30a0f4a917bf&#45;&gt;dir_aeca43db7a276eb6dbfba1f93dc4539c -->
<g id="edge14" class="edge">
<title>dir_69cf206f122d9153ac8b30a0f4a917bf&#45;&gt;dir_aeca43db7a276eb6dbfba1f93dc4539c</title>
<g id="a_edge14"><a xlink:href="dir_000005_000039.html" target="_top">
<path fill="none" stroke="#63b8ff" d="M316.4,-153.09C325.27,-160.6 336.36,-171.72 344.39,-180.96"/>
<polygon fill="#63b8ff" stroke="#63b8ff" points="341.71,-183.21 350.74,-188.75 347.14,-178.79 341.71,-183.21"/>
</a>
</g>
<g id="a_edge14&#45;headlabel"><a xlink:href="dir_000005_000039.html" target="_top" xlink:title="92">
<text text-anchor="middle" x="337.24" y="-179.72" font-family="Helvetica,sans-Serif" font-size="10.00" fill="#63b8ff">92</text>
</a>
</g>
</g>
<!-- dir_1f703d4dd1e982897af273349847e927&#45;&gt;dir_aeca43db7a276eb6dbfba1f93dc4539c -->
<g id="edge21" class="edge">
<title>dir_1f703d4dd1e982897af273349847e927&#45;&gt;dir_aeca43db7a276eb6dbfba1f93dc4539c</title>
<g id="a_edge21"><a xlink:href="dir_000007_000039.html" target="_top">
<path fill="none" stroke="#63b8ff" d="M241.52,-43.15C233.95,-51.53 223.4,-64.99 219,-79 208.32,-113.02 223.45,-129.2 250,-153 271.3,-172.1 302.04,-183.87 324.58,-190.47"/>
<polygon fill="#63b8ff" stroke="#63b8ff" points="323.72,-193.87 334.29,-193.15 325.58,-187.12 323.72,-193.87"/>
</a>
</g>
<g id="a_edge21&#45;headlabel"><a xlink:href="dir_000007_000039.html" target="_top" xlink:title="1">
<text text-anchor="middle" x="319.5" y="-193.15" font-family="Helvetica,sans-Serif" font-size="10.00" fill="#63b8ff">1</text>
</a>
</g>
</g>
<!-- dir_15b1266ec3c6694d64b0cfc160192d3b&#45;&gt;dir_aeca43db7a276eb6dbfba1f93dc4539c -->
<g id="edge22" class="edge">
<title>dir_15b1266ec3c6694d64b0cfc160192d3b&#45;&gt;dir_aeca43db7a276eb6dbfba1f93dc4539c</title>
<g id="a_edge22"><a xlink:href="dir_000010_000039.html" target="_top">
<path fill="none" stroke="#63b8ff" d="M357.27,-43.31C361.44,-68.79 361.86,-143.03 358.54,-178.37"/>
<polygon fill="#63b8ff" stroke="#63b8ff" points="355.01,-178.38 357.26,-188.74 361.95,-179.24 355.01,-178.38"/>
</a>
</g>
<g id="a_edge22&#45;headlabel"><a xlink:href="dir_000010_000039.html" target="_top" xlink:title="4">
<text text-anchor="middle" x="352.63" y="-171.97" font-family="Helvetica,sans-Serif" font-size="10.00" fill="#63b8ff">4</text>
</a>
</g>
</g>
<!-- dir_6556945d274d6e1e874171d9d575b3f4&#45;&gt;dir_9d06c2f3a5ac32ab80fc048d7ff16b35 -->
<g id="edge27" class="edge">
<title>dir_6556945d274d6e1e874171d9d575b3f4&#45;&gt;dir_9d06c2f3a5ac32ab80fc048d7ff16b35</title>
<g id="a_edge27"><a xlink:href="dir_000024_000003.html" target="_top">
<path fill="none" stroke="#63b8ff" d="M427.03,-98.31C418.39,-123.9 393.16,-198.67 381.3,-233.83"/>
<polygon fill="#63b8ff" stroke="#63b8ff" points="377.84,-233.14 377.96,-243.74 384.47,-235.38 377.84,-233.14"/>
</a>
</g>
<g id="a_edge27&#45;headlabel"><a xlink:href="dir_000024_000003.html" target="_top" xlink:title="12">
<text text-anchor="middle" x="376.3" y="-226.33" font-family="Helvetica,sans-Serif" font-size="10.00" fill="#63b8ff">12</text>
</a>
</g>
</g>
<!-- dir_6556945d274d6e1e874171d9d575b3f4&#45;&gt;dir_69cf206f122d9153ac8b30a0f4a917bf -->
<g id="edge26" class="edge">
<title>dir_6556945d274d6e1e874171d9d575b3f4&#45;&gt;dir_69cf206f122d9153ac8b30a0f4a917bf</title>
<g id="a_edge26"><a xlink:href="dir_000024_000005.html" target="_top">
<path fill="none" stroke="#63b8ff" d="M414.37,-98.17C395.33,-106.91 363.05,-120.47 338.05,-130.29"/>
<polygon fill="#63b8ff" stroke="#63b8ff" points="336.58,-127.11 328.52,-133.98 339.11,-133.63 336.58,-127.11"/>
</a>
</g>
<g id="a_edge26&#45;headlabel"><a xlink:href="dir_000024_000005.html" target="_top" xlink:title="56">
<text text-anchor="middle" x="338.9" y="-120.66" font-family="Helvetica,sans-Serif" font-size="10.00" fill="#63b8ff">56</text>
</a>
</g>
</g>
<!-- dir_6556945d274d6e1e874171d9d575b3f4&#45;&gt;dir_1f703d4dd1e982897af273349847e927 -->
<g id="edge24" class="edge">
<title>dir_6556945d274d6e1e874171d9d575b3f4&#45;&gt;dir_1f703d4dd1e982897af273349847e927</title>
<g id="a_edge24"><a xlink:href="dir_000024_000007.html" target="_top">
<path fill="none" stroke="#63b8ff" d="M401.08,-78.98C366.29,-68.74 308.43,-51.71 275.33,-41.96"/>
<polygon fill="#63b8ff" stroke="#63b8ff" points="276.09,-38.53 265.51,-39.07 274.11,-45.25 276.09,-38.53"/>
</a>
</g>
<g id="a_edge24&#45;headlabel"><a xlink:href="dir_000024_000007.html" target="_top" xlink:title="1">
<text text-anchor="middle" x="280.34" y="-34.32" font-family="Helvetica,sans-Serif" font-size="10.00" fill="#63b8ff">1</text>
</a>
</g>
</g>
<!-- dir_6556945d274d6e1e874171d9d575b3f4&#45;&gt;dir_15b1266ec3c6694d64b0cfc160192d3b -->
<g id="edge23" class="edge">
<title>dir_6556945d274d6e1e874171d9d575b3f4&#45;&gt;dir_15b1266ec3c6694d64b0cfc160192d3b</title>
<g id="a_edge23"><a xlink:href="dir_000024_000010.html" target="_top">
<path fill="none" stroke="#63b8ff" d="M417.79,-78.98C406.22,-70.92 388.62,-58.65 374.84,-49.03"/>
<polygon fill="#63b8ff" stroke="#63b8ff" points="376.64,-46.02 366.43,-43.17 372.63,-51.76 376.64,-46.02"/>
</a>
</g>
<g id="a_edge23&#45;headlabel"><a xlink:href="dir_000024_000010.html" target="_top" xlink:title="10">
<text text-anchor="middle" x="381.21" y="-43.25" font-family="Helvetica,sans-Serif" font-size="10.00" fill="#63b8ff">10</text>
</a>
</g>
</g>
<!-- dir_6556945d274d6e1e874171d9d575b3f4&#45;&gt;dir_58a8bb8411baaae7f5177ea38c71ea73 -->
<g id="edge25" class="edge">
<title>dir_6556945d274d6e1e874171d9d575b3f4&#45;&gt;dir_58a8bb8411baaae7f5177ea38c71ea73</title>
<g id="a_edge25"><a xlink:href="dir_000024_000027.html" target="_top">
<path fill="none" stroke="#63b8ff" d="M429.5,-78.75C429.11,-71.8 428.55,-61.85 428.05,-53.13"/>
<polygon fill="#63b8ff" stroke="#63b8ff" points="431.55,-52.88 427.49,-43.09 424.56,-53.27 431.55,-52.88"/>
</a>
</g>
<g id="a_edge25&#45;headlabel"><a xlink:href="dir_000024_000027.html" target="_top" xlink:title="13">
<text text-anchor="middle" x="434.58" y="-53.8" font-family="Helvetica,sans-Serif" font-size="10.00" fill="#63b8ff">13</text>
</a>
</g>
</g>
<!-- dir_6556945d274d6e1e874171d9d575b3f4&#45;&gt;dir_cd166ded320aef6ec75102a3779bae14 -->
<g id="edge29" class="edge">
<title>dir_6556945d274d6e1e874171d9d575b3f4&#45;&gt;dir_cd166ded320aef6ec75102a3779bae14</title>
<g id="a_edge29"><a xlink:href="dir_000024_000036.html" target="_top">
<path fill="none" stroke="#63b8ff" d="M444.3,-78.98C458.1,-70.77 479.24,-58.18 495.51,-48.49"/>
<polygon fill="#63b8ff" stroke="#63b8ff" points="497.64,-51.29 504.44,-43.17 494.06,-45.28 497.64,-51.29"/>
</a>
</g>
<g id="a_edge29&#45;headlabel"><a xlink:href="dir_000024_000036.html" target="_top" xlink:title="3">
<text text-anchor="middle" x="496" y="-53.07" font-family="Helvetica,sans-Serif" font-size="10.00" fill="#63b8ff">3</text>
</a>
</g>
</g>
<!-- dir_6556945d274d6e1e874171d9d575b3f4&#45;&gt;dir_aeca43db7a276eb6dbfba1f93dc4539c -->
<g id="edge28" class="edge">
<title>dir_6556945d274d6e1e874171d9d575b3f4&#45;&gt;dir_aeca43db7a276eb6dbfba1f93dc4539c</title>
<g id="a_edge28"><a xlink:href="dir_000024_000039.html" target="_top">
<path fill="none" stroke="#63b8ff" d="M427.79,-98.16C418.54,-116.13 389.64,-157.73 370.63,-181"/>
<polygon fill="#63b8ff" stroke="#63b8ff" points="367.93,-178.77 364.13,-188.66 373.27,-183.3 367.93,-178.77"/>
</a>
</g>
<g id="a_edge28&#45;headlabel"><a xlink:href="dir_000024_000039.html" target="_top" xlink:title="44">
<text text-anchor="middle" x="368.09" y="-171.69" font-family="Helvetica,sans-Serif" font-size="10.00" fill="#63b8ff">44</text>
</a>
</g>
</g>
<!-- dir_58a8bb8411baaae7f5177ea38c71ea73&#45;&gt;dir_aeca43db7a276eb6dbfba1f93dc4539c -->
<g id="edge30" class="edge">
<title>dir_58a8bb8411baaae7f5177ea38c71ea73&#45;&gt;dir_aeca43db7a276eb6dbfba1f93dc4539c</title>
<g id="a_edge30"><a xlink:href="dir_000027_000039.html" target="_top">
<path fill="none" stroke="#63b8ff" d="M415.79,-43.18C405.98,-51.38 392.05,-64.55 384,-79 366,-111.33 358.6,-154.6 355.71,-178.9"/>
<polygon fill="#63b8ff" stroke="#63b8ff" points="352.23,-178.59 354.66,-188.91 359.19,-179.33 352.23,-178.59"/>
</a>
</g>
<g id="a_edge30&#45;headlabel"><a xlink:href="dir_000027_000039.html" target="_top" xlink:title="14">
<text text-anchor="middle" x="349.78" y="-172.22" font-family="Helvetica,sans-Serif" font-size="10.00" fill="#63b8ff">14</text>
</a>
</g>
</g>
<!-- dir_cd166ded320aef6ec75102a3779bae14&#45;&gt;dir_aeca43db7a276eb6dbfba1f93dc4539c -->
<g id="edge31" class="edge">
<title>dir_cd166ded320aef6ec75102a3779bae14&#45;&gt;dir_aeca43db7a276eb6dbfba1f93dc4539c</title>
<g id="a_edge31"><a xlink:href="dir_000036_000039.html" target="_top">
<path fill="none" stroke="#63b8ff" d="M514.32,-43.31C507.26,-56.15 493,-80.39 477,-98 445.61,-132.55 401.68,-165.08 375.7,-183.05"/>
<polygon fill="#63b8ff" stroke="#63b8ff" points="373.6,-180.24 367.31,-188.77 377.55,-186.03 373.6,-180.24"/>
</a>
</g>
<g id="a_edge31&#45;headlabel"><a xlink:href="dir_000036_000039.html" target="_top" xlink:title="1">
<text text-anchor="middle" x="374.97" y="-173.37" font-family="Helvetica,sans-Serif" font-size="10.00" fill="#63b8ff">1</text>
</a>
</g>
</g>
<!-- dir_aeca43db7a276eb6dbfba1f93dc4539c&#45;&gt;dir_86d6a0ef6fcd04306246bc919bf79e2a -->
<g id="edge35" class="edge">
<title>dir_aeca43db7a276eb6dbfba1f93dc4539c&#45;&gt;dir_86d6a0ef6fcd04306246bc919bf79e2a</title>
<g id="a_edge35"><a xlink:href="dir_000039_000001.html" target="_top">
<path fill="none" stroke="#63b8ff" d="M334.35,-193.38C313.31,-187.89 280.59,-176.08 263,-153 253.33,-140.31 250.7,-122.13 250.27,-108.47"/>
<polygon fill="#63b8ff" stroke="#63b8ff" points="253.77,-108.3 250.33,-98.28 246.77,-108.26 253.77,-108.3"/>
</a>
</g>
<g id="a_edge35&#45;headlabel"><a xlink:href="dir_000039_000001.html" target="_top" xlink:title="1">
<text text-anchor="middle" x="256.59" y="-109.41" font-family="Helvetica,sans-Serif" font-size="10.00" fill="#63b8ff">1</text>
</a>
</g>
</g>
<!-- dir_aeca43db7a276eb6dbfba1f93dc4539c&#45;&gt;dir_69cf206f122d9153ac8b30a0f4a917bf -->
<g id="edge34" class="edge">
<title>dir_aeca43db7a276eb6dbfba1f93dc4539c&#45;&gt;dir_69cf206f122d9153ac8b30a0f4a917bf</title>
<g id="a_edge34"><a xlink:href="dir_000039_000005.html" target="_top">
<path fill="none" stroke="#63b8ff" d="M340.69,-188.98C331.79,-181.46 320.62,-170.26 312.56,-160.99"/>
<polygon fill="#63b8ff" stroke="#63b8ff" points="315.22,-158.71 306.19,-153.17 309.8,-163.13 315.22,-158.71"/>
</a>
</g>
<g id="a_edge34&#45;headlabel"><a xlink:href="dir_000039_000005.html" target="_top" xlink:title="1">
<text text-anchor="middle" x="319.7" y="-157.21" font-family="Helvetica,sans-Serif" font-size="10.00" fill="#63b8ff">1</text>
</a>
</g>
</g>
<!-- dir_aeca43db7a276eb6dbfba1f93dc4539c&#45;&gt;dir_15b1266ec3c6694d64b0cfc160192d3b -->
<g id="edge32" class="edge">
<title>dir_aeca43db7a276eb6dbfba1f93dc4539c&#45;&gt;dir_15b1266ec3c6694d64b0cfc160192d3b</title>
<g id="a_edge32"><a xlink:href="dir_000039_000010.html" target="_top">
<path fill="none" stroke="#63b8ff" d="M350.74,-188.74C346.54,-163.2 346.13,-88.43 349.5,-53.23"/>
<polygon fill="#63b8ff" stroke="#63b8ff" points="352.98,-53.66 350.73,-43.31 346.03,-52.8 352.98,-53.66"/>
</a>
</g>
<g id="a_edge32&#45;headlabel"><a xlink:href="dir_000039_000010.html" target="_top" xlink:title="3">
<text text-anchor="middle" x="355.35" y="-55.08" font-family="Helvetica,sans-Serif" font-size="10.00" fill="#63b8ff">3</text>
</a>
</g>
</g>
<!-- dir_aeca43db7a276eb6dbfba1f93dc4539c&#45;&gt;dir_6556945d274d6e1e874171d9d575b3f4 -->
<g id="edge33" class="edge">
<title>dir_aeca43db7a276eb6dbfba1f93dc4539c&#45;&gt;dir_6556945d274d6e1e874171d9d575b3f4</title>
<g id="a_edge33"><a xlink:href="dir_000039_000024.html" target="_top">
<path fill="none" stroke="#63b8ff" d="M356.31,-188.66C365.64,-170.61 394.36,-129.28 413.31,-106.08"/>
<polygon fill="#63b8ff" stroke="#63b8ff" points="416.22,-108.05 420.03,-98.16 410.89,-103.52 416.22,-108.05"/>
</a>
</g>
<g id="a_edge33&#45;headlabel"><a xlink:href="dir_000039_000024.html" target="_top" xlink:title="2">
<text text-anchor="middle" x="416.06" y="-110.12" font-family="Helvetica,sans-Serif" font-size="10.00" fill="#63b8ff">2</text>
</a>
</g>
</g>
</g>
</svg>
