<?xml version="1.0" encoding="UTF-8" standalone="no"?>
<!DOCTYPE svg PUBLIC "-//W3C//DTD SVG 1.1//EN"
 "http://www.w3.org/Graphics/SVG/1.1/DTD/svg11.dtd">
<!-- Generated by graphviz version 2.43.0 (0)
 -->
<!-- Title: include/phasar Pages: 1 -->
<svg width="522pt" height="424pt"
 viewBox="0.00 0.00 522.00 424.00" xmlns="http://www.w3.org/2000/svg" xmlns:xlink="http://www.w3.org/1999/xlink">
<g id="graph0" class="graph" transform="scale(1 1) rotate(0) translate(4 420)">
<title>include/phasar</title>
<g id="clust1" class="cluster">
<title>clusterdir_d44c64559bbebec7f509842c48db8b23</title>
<g id="a_clust1"><a xlink:href="dir_d44c64559bbebec7f509842c48db8b23.html" target="_top" xlink:title="include">
<polygon fill="#edf0f7" stroke="#404040" stroke-dasharray="5,2" points="8,-8 8,-408 506,-408 506,-8 8,-8"/>
<text text-anchor="middle" x="257" y="-396" font-family="Helvetica,sans-Serif" font-size="10.00">include</text>
</a>
</g>
</g>
<g id="clust2" class="cluster">
<title>clusterdir_05d093d0ed3722b9a30705a9449fa665</title>
<g id="a_clust2"><a xlink:href="dir_05d093d0ed3722b9a30705a9449fa665.html" target="_top">
<polygon fill="#edf0f7" stroke="#404040" stroke-width="2" points="16,-16 16,-381 498,-381 498,-16 16,-16"/>
</a>
</g>
</g>
<!-- dir_05d093d0ed3722b9a30705a9449fa665 -->
<g id="node1" class="node">
<title>dir_05d093d0ed3722b9a30705a9449fa665</title>
<text text-anchor="middle" x="252" y="-361" font-family="Helvetica,sans-Serif" font-size="10.00">phasar</text>
</g>
<!-- dir_2222cf0644c06f9277150910065165b7 -->
<g id="node2" class="node">
<title>dir_2222cf0644c06f9277150910065165b7</title>
<g id="a_node2"><a xlink:href="dir_2222cf0644c06f9277150910065165b7.html" target="_top" xlink:title="AnalysisStrategy">
<polygon fill="#a2b4d6" stroke="#404040" points="203.5,-318 104.5,-318 104.5,-299 203.5,-299 203.5,-318"/>
<text text-anchor="middle" x="154" y="-306" font-family="Helvetica,sans-Serif" font-size="10.00">AnalysisStrategy</text>
</a>
</g>
</g>
<!-- dir_05d093d0ed3722b9a30705a9449fa665&#45;&gt;dir_2222cf0644c06f9277150910065165b7 -->
<g id="edge3" class="edge">
<title>dir_05d093d0ed3722b9a30705a9449fa665&#45;&gt;dir_2222cf0644c06f9277150910065165b7</title>
<g id="a_edge3"><a xlink:href="dir_000022_000000.html" target="_top">
<path fill="none" stroke="#63b8ff" d="M236.25,-353.98C220.77,-345.61 196.91,-332.7 178.86,-322.95"/>
<polygon fill="#63b8ff" stroke="#63b8ff" points="180.49,-319.85 170.03,-318.17 177.16,-326.01 180.49,-319.85"/>
</a>
</g>
<g id="a_edge3&#45;headlabel"><a xlink:href="dir_000022_000000.html" target="_top" xlink:title="6">
<text text-anchor="middle" x="185.01" y="-316.56" font-family="Helvetica,sans-Serif" font-size="10.00" fill="#63b8ff">6</text>
</a>
</g>
</g>
<!-- dir_86d6a0ef6fcd04306246bc919bf79e2a -->
<g id="node3" class="node">
<title>dir_86d6a0ef6fcd04306246bc919bf79e2a</title>
<g id="a_node3"><a xlink:href="dir_86d6a0ef6fcd04306246bc919bf79e2a.html" target="_top" xlink:title="Config">
<polygon fill="#a2b4d6" stroke="#404040" points="212.5,-43 165.5,-43 165.5,-24 212.5,-24 212.5,-43"/>
<text text-anchor="middle" x="189" y="-31" font-family="Helvetica,sans-Serif" font-size="10.00">Config</text>
</a>
</g>
</g>
<!-- dir_05d093d0ed3722b9a30705a9449fa665&#45;&gt;dir_86d6a0ef6fcd04306246bc919bf79e2a -->
<g id="edge8" class="edge">
<title>dir_05d093d0ed3722b9a30705a9449fa665&#45;&gt;dir_86d6a0ef6fcd04306246bc919bf79e2a</title>
<g id="a_edge8"><a xlink:href="dir_000022_000001.html" target="_top">
<path fill="none" stroke="#63b8ff" d="M226.78,-363.38C188.08,-363.34 113.83,-357.63 69,-318 46.4,-298.02 45,-284.67 45,-254.5 45,-254.5 45,-254.5 45,-197.5 45,-126.74 122.17,-72.23 163.52,-48.1"/>
<polygon fill="#63b8ff" stroke="#63b8ff" points="165.51,-50.99 172.48,-43.02 162.06,-44.9 165.51,-50.99"/>
</a>
</g>
<g id="a_edge8&#45;headlabel"><a xlink:href="dir_000022_000001.html" target="_top" xlink:title="4">
<text text-anchor="middle" x="163.78" y="-52.74" font-family="Helvetica,sans-Serif" font-size="10.00" fill="#63b8ff">4</text>
</a>
</g>
</g>
<!-- dir_9d06c2f3a5ac32ab80fc048d7ff16b35 -->
<g id="node4" class="node">
<title>dir_9d06c2f3a5ac32ab80fc048d7ff16b35</title>
<g id="a_node4"><a xlink:href="dir_9d06c2f3a5ac32ab80fc048d7ff16b35.html" target="_top" xlink:title="ControlFlow">
<polygon fill="#a2b4d6" stroke="#404040" points="181.5,-208 106.5,-208 106.5,-189 181.5,-189 181.5,-208"/>
<text text-anchor="middle" x="144" y="-196" font-family="Helvetica,sans-Serif" font-size="10.00">ControlFlow</text>
</a>
</g>
</g>
<!-- dir_05d093d0ed3722b9a30705a9449fa665&#45;&gt;dir_9d06c2f3a5ac32ab80fc048d7ff16b35 -->
<g id="edge10" class="edge">
<title>dir_05d093d0ed3722b9a30705a9449fa665&#45;&gt;dir_9d06c2f3a5ac32ab80fc048d7ff16b35</title>
<g id="a_edge10"><a xlink:href="dir_000022_000003.html" target="_top">
<path fill="none" stroke="#63b8ff" d="M226.93,-359.03C186.98,-352.92 111.78,-338.91 96,-318 71.72,-285.83 106.04,-239.67 128.04,-215.56"/>
<polygon fill="#63b8ff" stroke="#63b8ff" points="130.85,-217.68 135.19,-208.01 125.77,-212.86 130.85,-217.68"/>
</a>
</g>
<g id="a_edge10&#45;headlabel"><a xlink:href="dir_000022_000003.html" target="_top" xlink:title="22">
<text text-anchor="middle" x="130.44" y="-219.74" font-family="Helvetica,sans-Serif" font-size="10.00" fill="#63b8ff">22</text>
</a>
</g>
</g>
<!-- dir_69cf206f122d9153ac8b30a0f4a917bf -->
<g id="node5" class="node">
<title>dir_69cf206f122d9153ac8b30a0f4a917bf</title>
<g id="a_node5"><a xlink:href="dir_69cf206f122d9153ac8b30a0f4a917bf.html" target="_top" xlink:title="DataFlow">
<polygon fill="#a2b4d6" stroke="#404040" points="220.5,-98 157.5,-98 157.5,-79 220.5,-79 220.5,-98"/>
<text text-anchor="middle" x="189" y="-86" font-family="Helvetica,sans-Serif" font-size="10.00">DataFlow</text>
</a>
</g>
</g>
<!-- dir_05d093d0ed3722b9a30705a9449fa665&#45;&gt;dir_69cf206f122d9153ac8b30a0f4a917bf -->
<g id="edge7" class="edge">
<title>dir_05d093d0ed3722b9a30705a9449fa665&#45;&gt;dir_69cf206f122d9153ac8b30a0f4a917bf</title>
<g id="a_edge7"><a xlink:href="dir_000022_000005.html" target="_top">
<path fill="none" stroke="#63b8ff" d="M226.74,-359.55C184.23,-354.01 101.34,-340.54 84,-318 29.58,-247.29 128.97,-143.85 171.27,-105"/>
<polygon fill="#63b8ff" stroke="#63b8ff" points="173.82,-107.42 178.91,-98.12 169.14,-102.22 173.82,-107.42"/>
</a>
</g>
<g id="a_edge7&#45;headlabel"><a xlink:href="dir_000022_000005.html" target="_top" xlink:title="87">
<text text-anchor="middle" x="173.05" y="-109.43" font-family="Helvetica,sans-Serif" font-size="10.00" fill="#63b8ff">87</text>
</a>
</g>
</g>
<!-- dir_1f703d4dd1e982897af273349847e927 -->
<g id="node6" class="node">
<title>dir_1f703d4dd1e982897af273349847e927</title>
<g id="a_node6"><a xlink:href="dir_1f703d4dd1e982897af273349847e927.html" target="_top" xlink:title="DB">
<polygon fill="#a2b4d6" stroke="#404040" points="113.5,-43 82.5,-43 82.5,-24 113.5,-24 113.5,-43"/>
<text text-anchor="middle" x="98" y="-31" font-family="Helvetica,sans-Serif" font-size="10.00">DB</text>
</a>
</g>
</g>
<!-- dir_05d093d0ed3722b9a30705a9449fa665&#45;&gt;dir_1f703d4dd1e982897af273349847e927 -->
<g id="edge2" class="edge">
<title>dir_05d093d0ed3722b9a30705a9449fa665&#45;&gt;dir_1f703d4dd1e982897af273349847e927</title>
<g id="a_edge2"><a xlink:href="dir_000022_000007.html" target="_top">
<path fill="none" stroke="#63b8ff" d="M226.71,-359.96C178.41,-354.64 75.48,-340.88 49,-318 26.17,-298.27 25,-284.67 25,-254.5 25,-254.5 25,-254.5 25,-142.5 25,-103.97 57.29,-68.92 78.92,-49.77"/>
<polygon fill="#63b8ff" stroke="#63b8ff" points="81.25,-52.38 86.59,-43.23 76.71,-47.05 81.25,-52.38"/>
</a>
</g>
<g id="a_edge2&#45;headlabel"><a xlink:href="dir_000022_000007.html" target="_top" xlink:title="8">
<text text-anchor="middle" x="80.35" y="-54.37" font-family="Helvetica,sans-Serif" font-size="10.00" fill="#63b8ff">8</text>
</a>
</g>
</g>
<!-- dir_15b1266ec3c6694d64b0cfc160192d3b -->
<g id="node7" class="node">
<title>dir_15b1266ec3c6694d64b0cfc160192d3b</title>
<g id="a_node7"><a xlink:href="dir_15b1266ec3c6694d64b0cfc160192d3b.html" target="_top" xlink:title="Domain">
<polygon fill="#a2b4d6" stroke="#404040" points="378.5,-43 323.5,-43 323.5,-24 378.5,-24 378.5,-43"/>
<text text-anchor="middle" x="351" y="-31" font-family="Helvetica,sans-Serif" font-size="10.00">Domain</text>
</a>
</g>
</g>
<!-- dir_05d093d0ed3722b9a30705a9449fa665&#45;&gt;dir_15b1266ec3c6694d64b0cfc160192d3b -->
<g id="edge1" class="edge">
<title>dir_05d093d0ed3722b9a30705a9449fa665&#45;&gt;dir_15b1266ec3c6694d64b0cfc160192d3b</title>
<g id="a_edge1"><a xlink:href="dir_000022_000010.html" target="_top">
<path fill="none" stroke="#63b8ff" d="M277.02,-359.96C325.94,-354.56 431.93,-340.54 460,-318 484.19,-298.57 489,-285.53 489,-254.5 489,-254.5 489,-254.5 489,-142.5 489,-91.21 429.14,-60.63 388.27,-45.73"/>
<polygon fill="#63b8ff" stroke="#63b8ff" points="389.19,-42.35 378.59,-42.37 386.89,-48.96 389.19,-42.35"/>
</a>
</g>
<g id="a_edge1&#45;headlabel"><a xlink:href="dir_000022_000010.html" target="_top" xlink:title="25">
<text text-anchor="middle" x="393.52" y="-38.35" font-family="Helvetica,sans-Serif" font-size="10.00" fill="#63b8ff">25</text>
</a>
</g>
</g>
<!-- dir_2f78a14425137c07c54cd90f1df5b3e0 -->
<g id="node8" class="node">
<title>dir_2f78a14425137c07c54cd90f1df5b3e0</title>
<g id="a_node8"><a xlink:href="dir_2f78a14425137c07c54cd90f1df5b3e0.html" target="_top" xlink:title="PhasarClang">
<polygon fill="#a2b4d6" stroke="#404040" points="319.5,-318 242.5,-318 242.5,-299 319.5,-299 319.5,-318"/>
<text text-anchor="middle" x="281" y="-306" font-family="Helvetica,sans-Serif" font-size="10.00">PhasarClang</text>
</a>
</g>
</g>
<!-- dir_05d093d0ed3722b9a30705a9449fa665&#45;&gt;dir_2f78a14425137c07c54cd90f1df5b3e0 -->
<g id="edge4" class="edge">
<title>dir_05d093d0ed3722b9a30705a9449fa665&#45;&gt;dir_2f78a14425137c07c54cd90f1df5b3e0</title>
<g id="a_edge4"><a xlink:href="dir_000022_000023.html" target="_top">
<path fill="none" stroke="#63b8ff" d="M256.79,-353.75C260.76,-346.49 266.53,-335.95 271.43,-326.98"/>
<polygon fill="#63b8ff" stroke="#63b8ff" points="274.57,-328.54 276.3,-318.09 268.43,-325.18 274.57,-328.54"/>
</a>
</g>
<g id="a_edge4&#45;headlabel"><a xlink:href="dir_000022_000023.html" target="_top" xlink:title="4">
<text text-anchor="middle" x="275.34" y="-330.56" font-family="Helvetica,sans-Serif" font-size="10.00" fill="#63b8ff">4</text>
</a>
</g>
</g>
<!-- dir_6556945d274d6e1e874171d9d575b3f4 -->
<g id="node9" class="node">
<title>dir_6556945d274d6e1e874171d9d575b3f4</title>
<g id="a_node9"><a xlink:href="dir_6556945d274d6e1e874171d9d575b3f4.html" target="_top" xlink:title="PhasarLLVM">
<polygon fill="#a2b4d6" stroke="#404040" points="257.5,-263 182.5,-263 182.5,-244 257.5,-244 257.5,-263"/>
<text text-anchor="middle" x="220" y="-251" font-family="Helvetica,sans-Serif" font-size="10.00">PhasarLLVM</text>
</a>
</g>
</g>
<!-- dir_05d093d0ed3722b9a30705a9449fa665&#45;&gt;dir_6556945d274d6e1e874171d9d575b3f4 -->
<g id="edge6" class="edge">
<title>dir_05d093d0ed3722b9a30705a9449fa665&#45;&gt;dir_6556945d274d6e1e874171d9d575b3f4</title>
<g id="a_edge6"><a xlink:href="dir_000022_000024.html" target="_top">
<path fill="none" stroke="#63b8ff" d="M247.97,-353.79C243.99,-344.93 237.95,-330.74 234,-318 229.4,-303.16 225.7,-285.91 223.26,-273.14"/>
<polygon fill="#63b8ff" stroke="#63b8ff" points="226.69,-272.46 221.45,-263.25 219.8,-273.71 226.69,-272.46"/>
</a>
</g>
<g id="a_edge6&#45;headlabel"><a xlink:href="dir_000022_000024.html" target="_top" xlink:title="150">
<text text-anchor="middle" x="230.13" y="-272.98" font-family="Helvetica,sans-Serif" font-size="10.00" fill="#63b8ff">150</text>
</a>
</g>
</g>
<!-- dir_95cb90d78e6f0ffe194b938b245cf9c5 -->
<g id="node10" class="node">
<title>dir_95cb90d78e6f0ffe194b938b245cf9c5</title>
<g id="a_node10"><a xlink:href="dir_95cb90d78e6f0ffe194b938b245cf9c5.html" target="_top" xlink:title="PhasarPass">
<polygon fill="#a2b4d6" stroke="#404040" points="429.5,-318 358.5,-318 358.5,-299 429.5,-299 429.5,-318"/>
<text text-anchor="middle" x="394" y="-306" font-family="Helvetica,sans-Serif" font-size="10.00">PhasarPass</text>
</a>
</g>
</g>
<!-- dir_05d093d0ed3722b9a30705a9449fa665&#45;&gt;dir_95cb90d78e6f0ffe194b938b245cf9c5 -->
<g id="edge9" class="edge">
<title>dir_05d093d0ed3722b9a30705a9449fa665&#45;&gt;dir_95cb90d78e6f0ffe194b938b245cf9c5</title>
<g id="a_edge9"><a xlink:href="dir_000022_000025.html" target="_top">
<path fill="none" stroke="#63b8ff" d="M274.81,-353.98C298.17,-345.27 334.7,-331.63 361.17,-321.75"/>
<polygon fill="#63b8ff" stroke="#63b8ff" points="362.63,-324.95 370.77,-318.17 360.18,-318.39 362.63,-324.95"/>
</a>
</g>
<g id="a_edge9&#45;headlabel"><a xlink:href="dir_000022_000025.html" target="_top" xlink:title="4">
<text text-anchor="middle" x="360.25" y="-326.36" font-family="Helvetica,sans-Serif" font-size="10.00" fill="#63b8ff">4</text>
</a>
</g>
</g>
<!-- dir_58a8bb8411baaae7f5177ea38c71ea73 -->
<g id="node11" class="node">
<title>dir_58a8bb8411baaae7f5177ea38c71ea73</title>
<g id="a_node11"><a xlink:href="dir_58a8bb8411baaae7f5177ea38c71ea73.html" target="_top" xlink:title="Pointer">
<polygon fill="#a2b4d6" stroke="#404040" points="305.5,-43 254.5,-43 254.5,-24 305.5,-24 305.5,-43"/>
<text text-anchor="middle" x="280" y="-31" font-family="Helvetica,sans-Serif" font-size="10.00">Pointer</text>
</a>
</g>
</g>
<!-- dir_05d093d0ed3722b9a30705a9449fa665&#45;&gt;dir_58a8bb8411baaae7f5177ea38c71ea73 -->
<g id="edge5" class="edge">
<title>dir_05d093d0ed3722b9a30705a9449fa665&#45;&gt;dir_58a8bb8411baaae7f5177ea38c71ea73</title>
<g id="a_edge5"><a xlink:href="dir_000022_000027.html" target="_top">
<path fill="none" stroke="#63b8ff" d="M277.24,-359.85C324.33,-354.44 423.07,-340.64 448,-318 470,-298.02 469,-284.23 469,-254.5 469,-254.5 469,-254.5 469,-197.5 469,-117.35 370.31,-67.92 315.56,-46.67"/>
<polygon fill="#63b8ff" stroke="#63b8ff" points="316.48,-43.27 305.88,-43.02 314.01,-49.82 316.48,-43.27"/>
</a>
</g>
<g id="a_edge5&#45;headlabel"><a xlink:href="dir_000022_000027.html" target="_top" xlink:title="23">
<text text-anchor="middle" x="320.84" y="-39.38" font-family="Helvetica,sans-Serif" font-size="10.00" fill="#63b8ff">23</text>
</a>
</g>
</g>
<!-- dir_cd166ded320aef6ec75102a3779bae14 -->
<g id="node12" class="node">
<title>dir_cd166ded320aef6ec75102a3779bae14</title>
<g id="a_node12"><a xlink:href="dir_cd166ded320aef6ec75102a3779bae14.html" target="_top" xlink:title="TypeHierarchy">
<polygon fill="#a2b4d6" stroke="#404040" points="325,-208 239,-208 239,-189 325,-189 325,-208"/>
<text text-anchor="middle" x="282" y="-196" font-family="Helvetica,sans-Serif" font-size="10.00">TypeHierarchy</text>
</a>
</g>
</g>
<!-- dir_05d093d0ed3722b9a30705a9449fa665&#45;&gt;dir_cd166ded320aef6ec75102a3779bae14 -->
<g id="edge12" class="edge">
<title>dir_05d093d0ed3722b9a30705a9449fa665&#45;&gt;dir_cd166ded320aef6ec75102a3779bae14</title>
<g id="a_edge12"><a xlink:href="dir_000022_000036.html" target="_top">
<path fill="none" stroke="#63b8ff" d="M277.31,-355.32C295.23,-348.77 317.96,-337.12 329,-318 348.8,-283.68 317.93,-239.42 297.57,-215.89"/>
<polygon fill="#63b8ff" stroke="#63b8ff" points="299.95,-213.31 290.65,-208.22 294.75,-218 299.95,-213.31"/>
</a>
</g>
<g id="a_edge12&#45;headlabel"><a xlink:href="dir_000022_000036.html" target="_top" xlink:title="5">
<text text-anchor="middle" x="304.46" y="-211.58" font-family="Helvetica,sans-Serif" font-size="10.00" fill="#63b8ff">5</text>
</a>
</g>
</g>
<!-- dir_aeca43db7a276eb6dbfba1f93dc4539c -->
<g id="node13" class="node">
<title>dir_aeca43db7a276eb6dbfba1f93dc4539c</title>
<g id="a_node13"><a xlink:href="dir_aeca43db7a276eb6dbfba1f93dc4539c.html" target="_top" xlink:title="Utils">
<polygon fill="#a2b4d6" stroke="#404040" points="269.5,-153 230.5,-153 230.5,-134 269.5,-134 269.5,-153"/>
<text text-anchor="middle" x="250" y="-141" font-family="Helvetica,sans-Serif" font-size="10.00">Utils</text>
</a>
</g>
</g>
<!-- dir_05d093d0ed3722b9a30705a9449fa665&#45;&gt;dir_aeca43db7a276eb6dbfba1f93dc4539c -->
<g id="edge11" class="edge">
<title>dir_05d093d0ed3722b9a30705a9449fa665&#45;&gt;dir_aeca43db7a276eb6dbfba1f93dc4539c</title>
<g id="a_edge11"><a xlink:href="dir_000022_000039.html" target="_top">
<path fill="none" stroke="#63b8ff" d="M277.13,-360.3C323.39,-355.67 419.09,-343.2 439,-318 494.81,-247.35 344.67,-180.11 279,-154.93"/>
<polygon fill="#63b8ff" stroke="#63b8ff" points="280.19,-151.64 269.6,-151.39 277.73,-158.19 280.19,-151.64"/>
</a>
</g>
<g id="a_edge11&#45;headlabel"><a xlink:href="dir_000022_000039.html" target="_top" xlink:title="194">
<text text-anchor="middle" x="284.56" y="-147.75" font-family="Helvetica,sans-Serif" font-size="10.00" fill="#63b8ff">194</text>
</a>
</g>
</g>
<!-- dir_2222cf0644c06f9277150910065165b7&#45;&gt;dir_6556945d274d6e1e874171d9d575b3f4 -->
<g id="edge13" class="edge">
<title>dir_2222cf0644c06f9277150910065165b7&#45;&gt;dir_6556945d274d6e1e874171d9d575b3f4</title>
<g id="a_edge13"><a xlink:href="dir_000000_000024.html" target="_top">
<path fill="none" stroke="#63b8ff" d="M164.6,-298.98C174.46,-291.07 189.35,-279.11 201.22,-269.58"/>
<polygon fill="#63b8ff" stroke="#63b8ff" points="203.6,-272.16 209.2,-263.17 199.21,-266.7 203.6,-272.16"/>
</a>
</g>
<g id="a_edge13&#45;headlabel"><a xlink:href="dir_000000_000024.html" target="_top" xlink:title="3">
<text text-anchor="middle" x="202.57" y="-274.13" font-family="Helvetica,sans-Serif" font-size="10.00" fill="#63b8ff">3</text>
</a>
</g>
</g>
<!-- dir_9d06c2f3a5ac32ab80fc048d7ff16b35&#45;&gt;dir_aeca43db7a276eb6dbfba1f93dc4539c -->
<g id="edge14" class="edge">
<title>dir_9d06c2f3a5ac32ab80fc048d7ff16b35&#45;&gt;dir_aeca43db7a276eb6dbfba1f93dc4539c</title>
<g id="a_edge14"><a xlink:href="dir_000003_000039.html" target="_top">
<path fill="none" stroke="#63b8ff" d="M161.03,-188.98C177.93,-180.54 204.06,-167.47 223.64,-157.68"/>
<polygon fill="#63b8ff" stroke="#63b8ff" points="225.28,-160.77 232.66,-153.17 222.15,-154.51 225.28,-160.77"/>
</a>
</g>
<g id="a_edge14&#45;headlabel"><a xlink:href="dir_000003_000039.html" target="_top" xlink:title="15">
<text text-anchor="middle" x="223.34" y="-162.42" font-family="Helvetica,sans-Serif" font-size="10.00" fill="#63b8ff">15</text>
</a>
</g>
</g>
<!-- dir_69cf206f122d9153ac8b30a0f4a917bf&#45;&gt;dir_86d6a0ef6fcd04306246bc919bf79e2a -->
<g id="edge19" class="edge">
<title>dir_69cf206f122d9153ac8b30a0f4a917bf&#45;&gt;dir_86d6a0ef6fcd04306246bc919bf79e2a</title>
<g id="a_edge19"><a xlink:href="dir_000005_000001.html" target="_top">
<path fill="none" stroke="#63b8ff" d="M189,-78.75C189,-71.8 189,-61.85 189,-53.13"/>
<polygon fill="#63b8ff" stroke="#63b8ff" points="192.5,-53.09 189,-43.09 185.5,-53.09 192.5,-53.09"/>
</a>
</g>
<g id="a_edge19&#45;headlabel"><a xlink:href="dir_000005_000001.html" target="_top" xlink:title="2">
<text text-anchor="middle" x="195.34" y="-54.18" font-family="Helvetica,sans-Serif" font-size="10.00" fill="#63b8ff">2</text>
</a>
</g>
</g>
<!-- dir_69cf206f122d9153ac8b30a0f4a917bf&#45;&gt;dir_9d06c2f3a5ac32ab80fc048d7ff16b35 -->
<g id="edge16" class="edge">
<title>dir_69cf206f122d9153ac8b30a0f4a917bf&#45;&gt;dir_9d06c2f3a5ac32ab80fc048d7ff16b35</title>
<g id="a_edge16"><a xlink:href="dir_000005_000003.html" target="_top">
<path fill="none" stroke="#63b8ff" d="M185.39,-98.16C178.1,-115.66 161.47,-155.56 151.66,-179.12"/>
<polygon fill="#63b8ff" stroke="#63b8ff" points="148.3,-178.08 147.68,-188.66 154.76,-180.78 148.3,-178.08"/>
</a>
</g>
<g id="a_edge16&#45;headlabel"><a xlink:href="dir_000005_000003.html" target="_top" xlink:title="4">
<text text-anchor="middle" x="147.06" y="-171.17" font-family="Helvetica,sans-Serif" font-size="10.00" fill="#63b8ff">4</text>
</a>
</g>
</g>
<!-- dir_69cf206f122d9153ac8b30a0f4a917bf&#45;&gt;dir_1f703d4dd1e982897af273349847e927 -->
<g id="edge17" class="edge">
<title>dir_69cf206f122d9153ac8b30a0f4a917bf&#45;&gt;dir_1f703d4dd1e982897af273349847e927</title>
<g id="a_edge17"><a xlink:href="dir_000005_000007.html" target="_top">
<path fill="none" stroke="#63b8ff" d="M174.38,-78.98C160.14,-70.69 138.25,-57.94 121.55,-48.22"/>
<polygon fill="#63b8ff" stroke="#63b8ff" points="123.29,-45.18 112.89,-43.17 119.77,-51.23 123.29,-45.18"/>
</a>
</g>
<g id="a_edge17&#45;headlabel"><a xlink:href="dir_000005_000007.html" target="_top" xlink:title="4">
<text text-anchor="middle" x="127.82" y="-42.03" font-family="Helvetica,sans-Serif" font-size="10.00" fill="#63b8ff">4</text>
</a>
</g>
</g>
<!-- dir_69cf206f122d9153ac8b30a0f4a917bf&#45;&gt;dir_15b1266ec3c6694d64b0cfc160192d3b -->
<g id="edge18" class="edge">
<title>dir_69cf206f122d9153ac8b30a0f4a917bf&#45;&gt;dir_15b1266ec3c6694d64b0cfc160192d3b</title>
<g id="a_edge18"><a xlink:href="dir_000005_000010.html" target="_top">
<path fill="none" stroke="#63b8ff" d="M215.03,-78.98C242.11,-70.13 284.71,-56.19 315.01,-46.28"/>
<polygon fill="#63b8ff" stroke="#63b8ff" points="316.35,-49.52 324.77,-43.08 314.18,-42.87 316.35,-49.52"/>
</a>
</g>
<g id="a_edge18&#45;headlabel"><a xlink:href="dir_000005_000010.html" target="_top" xlink:title="9">
<text text-anchor="middle" x="313.82" y="-50.83" font-family="Helvetica,sans-Serif" font-size="10.00" fill="#63b8ff">9</text>
</a>
</g>
</g>
<!-- dir_69cf206f122d9153ac8b30a0f4a917bf&#45;&gt;dir_6556945d274d6e1e874171d9d575b3f4 -->
<g id="edge21" class="edge">
<title>dir_69cf206f122d9153ac8b30a0f4a917bf&#45;&gt;dir_6556945d274d6e1e874171d9d575b3f4</title>
<g id="a_edge21"><a xlink:href="dir_000005_000024.html" target="_top">
<path fill="none" stroke="#63b8ff" d="M193.94,-98.31C202.96,-123.79 217.5,-198.03 220.9,-233.37"/>
<polygon fill="#63b8ff" stroke="#63b8ff" points="217.43,-233.99 221.6,-243.74 224.41,-233.52 217.43,-233.99"/>
</a>
</g>
<g id="a_edge21&#45;headlabel"><a xlink:href="dir_000005_000024.html" target="_top" xlink:title="4">
<text text-anchor="middle" x="214.36" y="-228.1" font-family="Helvetica,sans-Serif" font-size="10.00" fill="#63b8ff">4</text>
</a>
</g>
</g>
<!-- dir_69cf206f122d9153ac8b30a0f4a917bf&#45;&gt;dir_58a8bb8411baaae7f5177ea38c71ea73 -->
<g id="edge20" class="edge">
<title>dir_69cf206f122d9153ac8b30a0f4a917bf&#45;&gt;dir_58a8bb8411baaae7f5177ea38c71ea73</title>
<g id="a_edge20"><a xlink:href="dir_000005_000027.html" target="_top">
<path fill="none" stroke="#63b8ff" d="M203.62,-78.98C217.86,-70.69 239.75,-57.94 256.45,-48.22"/>
<polygon fill="#63b8ff" stroke="#63b8ff" points="258.23,-51.23 265.11,-43.17 254.71,-45.18 258.23,-51.23"/>
</a>
</g>
<g id="a_edge20&#45;headlabel"><a xlink:href="dir_000005_000027.html" target="_top" xlink:title="2">
<text text-anchor="middle" x="256.56" y="-52.99" font-family="Helvetica,sans-Serif" font-size="10.00" fill="#63b8ff">2</text>
</a>
</g>
</g>
<!-- dir_69cf206f122d9153ac8b30a0f4a917bf&#45;&gt;dir_aeca43db7a276eb6dbfba1f93dc4539c -->
<g id="edge15" class="edge">
<title>dir_69cf206f122d9153ac8b30a0f4a917bf&#45;&gt;dir_aeca43db7a276eb6dbfba1f93dc4539c</title>
<g id="a_edge15"><a xlink:href="dir_000005_000039.html" target="_top">
<path fill="none" stroke="#63b8ff" d="M204.02,-98.09C214.52,-105.75 228.04,-117.18 237.86,-126.52"/>
<polygon fill="#63b8ff" stroke="#63b8ff" points="235.55,-129.15 245.09,-133.75 240.49,-124.2 235.55,-129.15"/>
</a>
</g>
<g id="a_edge15&#45;headlabel"><a xlink:href="dir_000005_000039.html" target="_top" xlink:title="92">
<text text-anchor="middle" x="231" y="-126.12" font-family="Helvetica,sans-Serif" font-size="10.00" fill="#63b8ff">92</text>
</a>
</g>
</g>
<!-- dir_1f703d4dd1e982897af273349847e927&#45;&gt;dir_aeca43db7a276eb6dbfba1f93dc4539c -->
<g id="edge22" class="edge">
<title>dir_1f703d4dd1e982897af273349847e927&#45;&gt;dir_aeca43db7a276eb6dbfba1f93dc4539c</title>
<g id="a_edge22"><a xlink:href="dir_000007_000039.html" target="_top">
<path fill="none" stroke="#63b8ff" d="M113.62,-37.9C144.85,-44.98 213.41,-62.07 230,-79 241.75,-90.98 246.6,-109.8 248.6,-123.84"/>
<polygon fill="#63b8ff" stroke="#63b8ff" points="245.13,-124.29 249.68,-133.86 252.09,-123.55 245.13,-124.29"/>
</a>
</g>
<g id="a_edge22&#45;headlabel"><a xlink:href="dir_000007_000039.html" target="_top" xlink:title="1">
<text text-anchor="middle" x="241.93" y="-118.52" font-family="Helvetica,sans-Serif" font-size="10.00" fill="#63b8ff">1</text>
</a>
</g>
</g>
<!-- dir_15b1266ec3c6694d64b0cfc160192d3b&#45;&gt;dir_aeca43db7a276eb6dbfba1f93dc4539c -->
<g id="edge23" class="edge">
<title>dir_15b1266ec3c6694d64b0cfc160192d3b&#45;&gt;dir_aeca43db7a276eb6dbfba1f93dc4539c</title>
<g id="a_edge23"><a xlink:href="dir_000010_000039.html" target="_top">
<path fill="none" stroke="#63b8ff" d="M346.78,-43.16C333.26,-61.29 294.17,-103.47 269.81,-126.61"/>
<polygon fill="#63b8ff" stroke="#63b8ff" points="267.15,-124.31 262.18,-133.66 271.9,-129.45 267.15,-124.31"/>
</a>
</g>
<g id="a_edge23&#45;headlabel"><a xlink:href="dir_000010_000039.html" target="_top" xlink:title="4">
<text text-anchor="middle" x="267.86" y="-117.28" font-family="Helvetica,sans-Serif" font-size="10.00" fill="#63b8ff">4</text>
</a>
</g>
</g>
<!-- dir_6556945d274d6e1e874171d9d575b3f4&#45;&gt;dir_9d06c2f3a5ac32ab80fc048d7ff16b35 -->
<g id="edge28" class="edge">
<title>dir_6556945d274d6e1e874171d9d575b3f4&#45;&gt;dir_9d06c2f3a5ac32ab80fc048d7ff16b35</title>
<g id="a_edge28"><a xlink:href="dir_000024_000003.html" target="_top">
<path fill="none" stroke="#63b8ff" d="M207.79,-243.98C196.22,-235.92 178.62,-223.65 164.84,-214.03"/>
<polygon fill="#63b8ff" stroke="#63b8ff" points="166.64,-211.02 156.43,-208.17 162.63,-216.76 166.64,-211.02"/>
</a>
</g>
<g id="a_edge28&#45;headlabel"><a xlink:href="dir_000024_000003.html" target="_top" xlink:title="12">
<text text-anchor="middle" x="171.21" y="-208.25" font-family="Helvetica,sans-Serif" font-size="10.00" fill="#63b8ff">12</text>
</a>
</g>
</g>
<!-- dir_6556945d274d6e1e874171d9d575b3f4&#45;&gt;dir_69cf206f122d9153ac8b30a0f4a917bf -->
<g id="edge27" class="edge">
<title>dir_6556945d274d6e1e874171d9d575b3f4&#45;&gt;dir_69cf206f122d9153ac8b30a0f4a917bf</title>
<g id="a_edge27"><a xlink:href="dir_000024_000005.html" target="_top">
<path fill="none" stroke="#63b8ff" d="M215.07,-243.74C206.06,-218.31 191.52,-144.08 188.11,-108.69"/>
<polygon fill="#63b8ff" stroke="#63b8ff" points="191.57,-108.05 187.4,-98.31 184.59,-108.52 191.57,-108.05"/>
</a>
</g>
<g id="a_edge27&#45;headlabel"><a xlink:href="dir_000024_000005.html" target="_top" xlink:title="56">
<text text-anchor="middle" x="194.65" y="-108.94" font-family="Helvetica,sans-Serif" font-size="10.00" fill="#63b8ff">56</text>
</a>
</g>
</g>
<!-- dir_6556945d274d6e1e874171d9d575b3f4&#45;&gt;dir_1f703d4dd1e982897af273349847e927 -->
<g id="edge25" class="edge">
<title>dir_6556945d274d6e1e874171d9d575b3f4&#45;&gt;dir_1f703d4dd1e982897af273349847e927</title>
<g id="a_edge25"><a xlink:href="dir_000024_000007.html" target="_top">
<path fill="none" stroke="#63b8ff" d="M182.23,-249.85C153.9,-245.65 116.87,-234.97 98,-208 64.81,-160.57 81.46,-86.56 91.82,-52.62"/>
<polygon fill="#63b8ff" stroke="#63b8ff" points="95.15,-53.68 94.89,-43.09 88.49,-51.54 95.15,-53.68"/>
</a>
</g>
<g id="a_edge25&#45;headlabel"><a xlink:href="dir_000024_000007.html" target="_top" xlink:title="1">
<text text-anchor="middle" x="96.75" y="-55.48" font-family="Helvetica,sans-Serif" font-size="10.00" fill="#63b8ff">1</text>
</a>
</g>
</g>
<!-- dir_6556945d274d6e1e874171d9d575b3f4&#45;&gt;dir_15b1266ec3c6694d64b0cfc160192d3b -->
<g id="edge24" class="edge">
<title>dir_6556945d274d6e1e874171d9d575b3f4&#45;&gt;dir_15b1266ec3c6694d64b0cfc160192d3b</title>
<g id="a_edge24"><a xlink:href="dir_000024_000010.html" target="_top">
<path fill="none" stroke="#63b8ff" d="M257.53,-249.55C285.79,-245.19 322.98,-234.43 343,-208 377.84,-162 365.06,-87.82 356.39,-53.3"/>
<polygon fill="#63b8ff" stroke="#63b8ff" points="359.65,-51.96 353.68,-43.21 352.89,-53.77 359.65,-51.96"/>
</a>
</g>
<g id="a_edge24&#45;headlabel"><a xlink:href="dir_000024_000010.html" target="_top" xlink:title="10">
<text text-anchor="middle" x="363.33" y="-52.19" font-family="Helvetica,sans-Serif" font-size="10.00" fill="#63b8ff">10</text>
</a>
</g>
</g>
<!-- dir_6556945d274d6e1e874171d9d575b3f4&#45;&gt;dir_58a8bb8411baaae7f5177ea38c71ea73 -->
<g id="edge26" class="edge">
<title>dir_6556945d274d6e1e874171d9d575b3f4&#45;&gt;dir_58a8bb8411baaae7f5177ea38c71ea73</title>
<g id="a_edge26"><a xlink:href="dir_000024_000027.html" target="_top">
<path fill="none" stroke="#63b8ff" d="M257.56,-248.71C283.77,-243.88 316.98,-232.91 334,-208 368.48,-157.52 319.82,-84.05 294.13,-51.32"/>
<polygon fill="#63b8ff" stroke="#63b8ff" points="296.59,-48.8 287.58,-43.22 291.15,-53.2 296.59,-48.8"/>
</a>
</g>
<g id="a_edge26&#45;headlabel"><a xlink:href="dir_000024_000027.html" target="_top" xlink:title="13">
<text text-anchor="middle" x="301.06" y="-47.31" font-family="Helvetica,sans-Serif" font-size="10.00" fill="#63b8ff">13</text>
</a>
</g>
</g>
<!-- dir_6556945d274d6e1e874171d9d575b3f4&#45;&gt;dir_cd166ded320aef6ec75102a3779bae14 -->
<g id="edge30" class="edge">
<title>dir_6556945d274d6e1e874171d9d575b3f4&#45;&gt;dir_cd166ded320aef6ec75102a3779bae14</title>
<g id="a_edge30"><a xlink:href="dir_000024_000036.html" target="_top">
<path fill="none" stroke="#63b8ff" d="M229.96,-243.98C239.13,-236.15 252.94,-224.34 264.03,-214.86"/>
<polygon fill="#63b8ff" stroke="#63b8ff" points="266.53,-217.33 271.86,-208.17 261.98,-212.01 266.53,-217.33"/>
</a>
</g>
<g id="a_edge30&#45;headlabel"><a xlink:href="dir_000024_000036.html" target="_top" xlink:title="3">
<text text-anchor="middle" x="265.64" y="-219.32" font-family="Helvetica,sans-Serif" font-size="10.00" fill="#63b8ff">3</text>
</a>
</g>
</g>
<!-- dir_6556945d274d6e1e874171d9d575b3f4&#45;&gt;dir_aeca43db7a276eb6dbfba1f93dc4539c -->
<g id="edge29" class="edge">
<title>dir_6556945d274d6e1e874171d9d575b3f4&#45;&gt;dir_aeca43db7a276eb6dbfba1f93dc4539c</title>
<g id="a_edge29"><a xlink:href="dir_000024_000039.html" target="_top">
<path fill="none" stroke="#63b8ff" d="M214.67,-243.71C212.71,-231.3 215.33,-208.04 221,-189 223.78,-179.66 228.1,-169.74 232.83,-161.63"/>
<polygon fill="#63b8ff" stroke="#63b8ff" points="235.88,-163.37 238.5,-153.1 230.05,-159.49 235.88,-163.37"/>
</a>
</g>
<g id="a_edge29&#45;headlabel"><a xlink:href="dir_000024_000039.html" target="_top" xlink:title="44">
<text text-anchor="middle" x="236.25" y="-165.43" font-family="Helvetica,sans-Serif" font-size="10.00" fill="#63b8ff">44</text>
</a>
</g>
</g>
<!-- dir_58a8bb8411baaae7f5177ea38c71ea73&#45;&gt;dir_aeca43db7a276eb6dbfba1f93dc4539c -->
<g id="edge31" class="edge">
<title>dir_58a8bb8411baaae7f5177ea38c71ea73&#45;&gt;dir_aeca43db7a276eb6dbfba1f93dc4539c</title>
<g id="a_edge31"><a xlink:href="dir_000027_000039.html" target="_top">
<path fill="none" stroke="#63b8ff" d="M278.22,-43.19C275.63,-55.49 270.54,-78.61 265,-98 262.51,-106.72 259.35,-116.27 256.57,-124.27"/>
<polygon fill="#63b8ff" stroke="#63b8ff" points="253.27,-123.12 253.23,-133.71 259.87,-125.45 253.27,-123.12"/>
</a>
</g>
<g id="a_edge31&#45;headlabel"><a xlink:href="dir_000027_000039.html" target="_top" xlink:title="14">
<text text-anchor="middle" x="251.79" y="-116.28" font-family="Helvetica,sans-Serif" font-size="10.00" fill="#63b8ff">14</text>
</a>
</g>
</g>
<!-- dir_cd166ded320aef6ec75102a3779bae14&#45;&gt;dir_aeca43db7a276eb6dbfba1f93dc4539c -->
<g id="edge32" class="edge">
<title>dir_cd166ded320aef6ec75102a3779bae14&#45;&gt;dir_aeca43db7a276eb6dbfba1f93dc4539c</title>
<g id="a_edge32"><a xlink:href="dir_000036_000039.html" target="_top">
<path fill="none" stroke="#63b8ff" d="M276.72,-188.75C272.29,-181.42 265.84,-170.73 260.38,-161.7"/>
<polygon fill="#63b8ff" stroke="#63b8ff" points="263.35,-159.84 255.19,-153.09 257.36,-163.46 263.35,-159.84"/>
</a>
</g>
<g id="a_edge32&#45;headlabel"><a xlink:href="dir_000036_000039.html" target="_top" xlink:title="1">
<text text-anchor="middle" x="267.64" y="-158.95" font-family="Helvetica,sans-Serif" font-size="10.00" fill="#63b8ff">1</text>
</a>
</g>
</g>
<!-- dir_aeca43db7a276eb6dbfba1f93dc4539c&#45;&gt;dir_86d6a0ef6fcd04306246bc919bf79e2a -->
<g id="edge36" class="edge">
<title>dir_aeca43db7a276eb6dbfba1f93dc4539c&#45;&gt;dir_86d6a0ef6fcd04306246bc919bf79e2a</title>
<g id="a_edge36"><a xlink:href="dir_000039_000001.html" target="_top">
<path fill="none" stroke="#63b8ff" d="M251.41,-133.68C253.02,-120.83 254.35,-96.57 245,-79 238.23,-66.28 226.1,-55.96 214.86,-48.46"/>
<polygon fill="#63b8ff" stroke="#63b8ff" points="216.49,-45.36 206.15,-43.07 212.81,-51.31 216.49,-45.36"/>
</a>
</g>
<g id="a_edge36&#45;headlabel"><a xlink:href="dir_000039_000001.html" target="_top" xlink:title="1">
<text text-anchor="middle" x="221.04" y="-42.34" font-family="Helvetica,sans-Serif" font-size="10.00" fill="#63b8ff">1</text>
</a>
</g>
</g>
<!-- dir_aeca43db7a276eb6dbfba1f93dc4539c&#45;&gt;dir_69cf206f122d9153ac8b30a0f4a917bf -->
<g id="edge35" class="edge">
<title>dir_aeca43db7a276eb6dbfba1f93dc4539c&#45;&gt;dir_69cf206f122d9153ac8b30a0f4a917bf</title>
<g id="a_edge35"><a xlink:href="dir_000039_000005.html" target="_top">
<path fill="none" stroke="#63b8ff" d="M235.08,-133.98C224.55,-126.3 210.94,-114.81 201.08,-105.42"/>
<polygon fill="#63b8ff" stroke="#63b8ff" points="203.38,-102.77 193.83,-98.17 198.42,-107.72 203.38,-102.77"/>
</a>
</g>
<g id="a_edge35&#45;headlabel"><a xlink:href="dir_000039_000005.html" target="_top" xlink:title="1">
<text text-anchor="middle" x="207.92" y="-100.8" font-family="Helvetica,sans-Serif" font-size="10.00" fill="#63b8ff">1</text>
</a>
</g>
</g>
<!-- dir_aeca43db7a276eb6dbfba1f93dc4539c&#45;&gt;dir_15b1266ec3c6694d64b0cfc160192d3b -->
<g id="edge33" class="edge">
<title>dir_aeca43db7a276eb6dbfba1f93dc4539c&#45;&gt;dir_15b1266ec3c6694d64b0cfc160192d3b</title>
<g id="a_edge33"><a xlink:href="dir_000039_000010.html" target="_top">
<path fill="none" stroke="#63b8ff" d="M254.35,-133.66C268.04,-115.38 307.17,-73.18 331.43,-50.17"/>
<polygon fill="#63b8ff" stroke="#63b8ff" points="334.05,-52.51 339.02,-43.16 329.3,-47.36 334.05,-52.51"/>
</a>
</g>
<g id="a_edge33&#45;headlabel"><a xlink:href="dir_000039_000010.html" target="_top" xlink:title="3">
<text text-anchor="middle" x="333.33" y="-54.53" font-family="Helvetica,sans-Serif" font-size="10.00" fill="#63b8ff">3</text>
</a>
</g>
</g>
<!-- dir_aeca43db7a276eb6dbfba1f93dc4539c&#45;&gt;dir_6556945d274d6e1e874171d9d575b3f4 -->
<g id="edge34" class="edge">
<title>dir_aeca43db7a276eb6dbfba1f93dc4539c&#45;&gt;dir_6556945d274d6e1e874171d9d575b3f4</title>
<g id="a_edge34"><a xlink:href="dir_000039_000024.html" target="_top">
<path fill="none" stroke="#63b8ff" d="M252.11,-153.1C249.71,-161.88 242.87,-176.01 239,-189 234.62,-203.73 232.06,-220.98 229.23,-233.78"/>
<polygon fill="#63b8ff" stroke="#63b8ff" points="225.77,-233.15 226.62,-243.71 232.54,-234.93 225.77,-233.15"/>
</a>
</g>
<g id="a_edge34&#45;headlabel"><a xlink:href="dir_000039_000024.html" target="_top" xlink:title="2">
<text text-anchor="middle" x="223.94" y="-226.45" font-family="Helvetica,sans-Serif" font-size="10.00" fill="#63b8ff">2</text>
</a>
</g>
</g>
</g>
</svg>
