<?xml version="1.0" encoding="UTF-8" standalone="no"?>
<!DOCTYPE svg PUBLIC "-//W3C//DTD SVG 1.1//EN"
 "http://www.w3.org/Graphics/SVG/1.1/DTD/svg11.dtd">
<!-- Generated by graphviz version 2.43.0 (0)
 -->
<!-- Title: include/phasar/PhasarLLVM/DataFlow/IfdsIde/Problems Pages: 1 -->
<svg width="936pt" height="180pt"
 viewBox="0.00 0.00 935.81 180.25" xmlns="http://www.w3.org/2000/svg" xmlns:xlink="http://www.w3.org/1999/xlink">
<g id="graph0" class="graph" transform="scale(1 1) rotate(0) translate(4 176.25)">
<title>include/phasar/PhasarLLVM/DataFlow/IfdsIde/Problems</title>
<g id="clust1" class="cluster">
<title>clusterdir_a914fe635f43607d3ac935bbff17c46d</title>
<g id="a_clust1"><a xlink:href="dir_a914fe635f43607d3ac935bbff17c46d.html" target="_top" xlink:title="IfdsIde">
<polygon fill="#edf0f7" stroke="#7f7f7f" stroke-dasharray="5,2" points="86.31,-39.25 86.31,-164.25 452.31,-164.25 452.31,-39.25 86.31,-39.25"/>
<text text-anchor="middle" x="269.31" y="-152.25" font-family="Helvetica,sans-Serif" font-size="10.00">IfdsIde</text>
</a>
</g>
</g>
<g id="clust2" class="cluster">
<title>clusterdir_8f2cc0dbdb5107552a837377e8f5f9e3</title>
<g id="a_clust2"><a xlink:href="dir_8f2cc0dbdb5107552a837377e8f5f9e3.html" target="_top">
<polygon fill="#edf0f7" stroke="#404040" stroke-width="2" points="94.31,-47.25 94.31,-137.25 444.31,-137.25 444.31,-47.25 94.31,-47.25"/>
</a>
</g>
</g>
<!-- dir_8f2cc0dbdb5107552a837377e8f5f9e3 -->
<g id="node1" class="node">
<title>dir_8f2cc0dbdb5107552a837377e8f5f9e3</title>
<text text-anchor="middle" x="405.31" y="-117.25" font-family="Helvetica,sans-Serif" font-size="10.00">Problems</text>
</g>
<!-- dir_a33aec843dd0f4d3dcd42c9824ffa99f -->
<g id="node2" class="node">
<title>dir_a33aec843dd0f4d3dcd42c9824ffa99f</title>
<g id="a_node2"><a xlink:href="dir_a33aec843dd0f4d3dcd42c9824ffa99f.html" target="_top" xlink:title="ExtendedTaintAnalysis">
<polygon fill="#a2b4d6" stroke="#404040" points="327.81,-74.25 200.81,-74.25 200.81,-55.25 327.81,-55.25 327.81,-74.25"/>
<text text-anchor="middle" x="264.31" y="-62.25" font-family="Helvetica,sans-Serif" font-size="10.00">ExtendedTaintAnalysis</text>
</a>
</g>
</g>
<!-- dir_8f2cc0dbdb5107552a837377e8f5f9e3&#45;&gt;dir_a33aec843dd0f4d3dcd42c9824ffa99f -->
<g id="edge10" class="edge">
<title>dir_8f2cc0dbdb5107552a837377e8f5f9e3&#45;&gt;dir_a33aec843dd0f4d3dcd42c9824ffa99f</title>
<g id="a_edge10"><a xlink:href="dir_000028_000012.html" target="_top">
<path fill="none" stroke="#63b8ff" d="M382.66,-110.23C359.47,-101.52 323.19,-87.88 296.91,-78"/>
<polygon fill="#63b8ff" stroke="#63b8ff" points="297.97,-74.66 287.38,-74.42 295.51,-81.21 297.97,-74.66"/>
</a>
</g>
<g id="a_edge10&#45;headlabel"><a xlink:href="dir_000028_000012.html" target="_top" xlink:title="5">
<text text-anchor="middle" x="302.34" y="-70.77" font-family="Helvetica,sans-Serif" font-size="10.00" fill="#63b8ff">5</text>
</a>
</g>
</g>
<!-- dir_0133e64b3a4c854b47f86a7b8e0c9983 -->
<g id="node5" class="node">
<title>dir_0133e64b3a4c854b47f86a7b8e0c9983</title>
<g id="a_node5"><a xlink:href="dir_0133e64b3a4c854b47f86a7b8e0c9983.html" target="_top" xlink:title="Pointer">
<polygon fill="#edf0f7" stroke="red" stroke-dasharray="5,2" points="260.81,-19.25 209.81,-19.25 209.81,-0.25 260.81,-0.25 260.81,-19.25"/>
<text text-anchor="middle" x="235.31" y="-7.25" font-family="Helvetica,sans-Serif" font-size="10.00">Pointer</text>
</a>
</g>
</g>
<!-- dir_8f2cc0dbdb5107552a837377e8f5f9e3&#45;&gt;dir_0133e64b3a4c854b47f86a7b8e0c9983 -->
<g id="edge1" class="edge">
<title>dir_8f2cc0dbdb5107552a837377e8f5f9e3&#45;&gt;dir_0133e64b3a4c854b47f86a7b8e0c9983</title>
<g id="a_edge1"><a xlink:href="dir_000028_000026.html" target="_top">
<path fill="none" stroke="#63b8ff" d="M374.31,-112.14C371.27,-111.5 368.23,-110.86 365.31,-110.25 288.02,-94.04 241.18,-135.49 191.31,-74.25 181.49,-62.19 183.88,-52.92 191.31,-39.25 194.45,-33.48 199.32,-28.69 204.69,-24.8"/>
<polygon fill="#63b8ff" stroke="#63b8ff" points="206.73,-27.66 213.37,-19.4 203.03,-21.71 206.73,-27.66"/>
</a>
</g>
<g id="a_edge1&#45;headlabel"><a xlink:href="dir_000028_000026.html" target="_top" xlink:title="8">
<text text-anchor="middle" x="205.17" y="-29.47" font-family="Helvetica,sans-Serif" font-size="10.00" fill="#63b8ff">8</text>
</a>
</g>
</g>
<!-- dir_04c97d3322b5ffe9ec5885b952098baa -->
<g id="node6" class="node">
<title>dir_04c97d3322b5ffe9ec5885b952098baa</title>
<g id="a_node6"><a xlink:href="dir_04c97d3322b5ffe9ec5885b952098baa.html" target="_top" xlink:title="TypeHierarchy">
<polygon fill="#edf0f7" stroke="#7f7f7f" points="838.31,-74.25 752.31,-74.25 752.31,-55.25 838.31,-55.25 838.31,-74.25"/>
<text text-anchor="middle" x="795.31" y="-62.25" font-family="Helvetica,sans-Serif" font-size="10.00">TypeHierarchy</text>
</a>
</g>
</g>
<!-- dir_8f2cc0dbdb5107552a837377e8f5f9e3&#45;&gt;dir_04c97d3322b5ffe9ec5885b952098baa -->
<g id="edge2" class="edge">
<title>dir_8f2cc0dbdb5107552a837377e8f5f9e3&#45;&gt;dir_04c97d3322b5ffe9ec5885b952098baa</title>
<g id="a_edge2"><a xlink:href="dir_000028_000035.html" target="_top">
<path fill="none" stroke="#63b8ff" d="M436.55,-114.73C495.56,-107.12 627.43,-89.92 738.31,-74.25 739.57,-74.07 740.84,-73.89 742.12,-73.71"/>
<polygon fill="#63b8ff" stroke="#63b8ff" points="742.67,-77.16 752.06,-72.27 741.67,-70.24 742.67,-77.16"/>
</a>
</g>
<g id="a_edge2&#45;headlabel"><a xlink:href="dir_000028_000035.html" target="_top" xlink:title="1">
<text text-anchor="middle" x="739.52" y="-77.99" font-family="Helvetica,sans-Serif" font-size="10.00" fill="#63b8ff">1</text>
</a>
</g>
</g>
<!-- dir_079f3dfffeb9e770010097b0dd1334eb -->
<g id="node7" class="node">
<title>dir_079f3dfffeb9e770010097b0dd1334eb</title>
<g id="a_node7"><a xlink:href="dir_079f3dfffeb9e770010097b0dd1334eb.html" target="_top" xlink:title="Utils">
<polygon fill="#edf0f7" stroke="#7f7f7f" points="64.81,-19.25 25.81,-19.25 25.81,-0.25 64.81,-0.25 64.81,-19.25"/>
<text text-anchor="middle" x="45.31" y="-7.25" font-family="Helvetica,sans-Serif" font-size="10.00">Utils</text>
</a>
</g>
</g>
<!-- dir_8f2cc0dbdb5107552a837377e8f5f9e3&#45;&gt;dir_079f3dfffeb9e770010097b0dd1334eb -->
<g id="edge3" class="edge">
<title>dir_8f2cc0dbdb5107552a837377e8f5f9e3&#45;&gt;dir_079f3dfffeb9e770010097b0dd1334eb</title>
<g id="a_edge3"><a xlink:href="dir_000028_000038.html" target="_top">
<path fill="none" stroke="#63b8ff" d="M373.9,-111.93C371,-111.34 368.1,-110.77 365.31,-110.25 268.38,-91.99 238.56,-109.19 146.31,-74.25 115.07,-62.41 83.1,-40.28 63.73,-25.53"/>
<polygon fill="#63b8ff" stroke="#63b8ff" points="65.8,-22.71 55.76,-19.33 61.5,-28.24 65.8,-22.71"/>
</a>
</g>
<g id="a_edge3&#45;headlabel"><a xlink:href="dir_000028_000038.html" target="_top" xlink:title="6">
<text text-anchor="middle" x="70.38" y="-20.17" font-family="Helvetica,sans-Serif" font-size="10.00" fill="#63b8ff">6</text>
</a>
</g>
</g>
<!-- dir_0bc4dee926a629f715a9261d8d248ef6 -->
<g id="node8" class="node">
<title>dir_0bc4dee926a629f715a9261d8d248ef6</title>
<g id="a_node8"><a xlink:href="dir_0bc4dee926a629f715a9261d8d248ef6.html" target="_top" xlink:title="ControlFlow">
<polygon fill="#edf0f7" stroke="red" stroke-dasharray="5,2" points="608.81,-74.25 533.81,-74.25 533.81,-55.25 608.81,-55.25 608.81,-74.25"/>
<text text-anchor="middle" x="571.31" y="-62.25" font-family="Helvetica,sans-Serif" font-size="10.00">ControlFlow</text>
</a>
</g>
</g>
<!-- dir_8f2cc0dbdb5107552a837377e8f5f9e3&#45;&gt;dir_0bc4dee926a629f715a9261d8d248ef6 -->
<g id="edge4" class="edge">
<title>dir_8f2cc0dbdb5107552a837377e8f5f9e3&#45;&gt;dir_0bc4dee926a629f715a9261d8d248ef6</title>
<g id="a_edge4"><a xlink:href="dir_000028_000004.html" target="_top">
<path fill="none" stroke="#63b8ff" d="M431.98,-110.23C459.85,-101.34 503.77,-87.32 534.83,-77.4"/>
<polygon fill="#63b8ff" stroke="#63b8ff" points="535.97,-80.71 544.43,-74.33 533.84,-74.04 535.97,-80.71"/>
</a>
</g>
<g id="a_edge4&#45;headlabel"><a xlink:href="dir_000028_000004.html" target="_top" xlink:title="4">
<text text-anchor="middle" x="533.41" y="-82" font-family="Helvetica,sans-Serif" font-size="10.00" fill="#63b8ff">4</text>
</a>
</g>
</g>
<!-- dir_15b1266ec3c6694d64b0cfc160192d3b -->
<g id="node9" class="node">
<title>dir_15b1266ec3c6694d64b0cfc160192d3b</title>
<g id="a_node9"><a xlink:href="dir_15b1266ec3c6694d64b0cfc160192d3b.html" target="_top" xlink:title="Domain">
<polygon fill="#edf0f7" stroke="#7f7f7f" points="161.81,-19.25 106.81,-19.25 106.81,-0.25 161.81,-0.25 161.81,-19.25"/>
<text text-anchor="middle" x="134.31" y="-7.25" font-family="Helvetica,sans-Serif" font-size="10.00">Domain</text>
</a>
</g>
</g>
<!-- dir_8f2cc0dbdb5107552a837377e8f5f9e3&#45;&gt;dir_15b1266ec3c6694d64b0cfc160192d3b -->
<g id="edge5" class="edge">
<title>dir_8f2cc0dbdb5107552a837377e8f5f9e3&#45;&gt;dir_15b1266ec3c6694d64b0cfc160192d3b</title>
<g id="a_edge5"><a xlink:href="dir_000028_000010.html" target="_top">
<path fill="none" stroke="#63b8ff" d="M373.88,-112.02C370.99,-111.41 368.1,-110.82 365.31,-110.25 283.67,-93.59 251.76,-118.75 181.31,-74.25 163.79,-63.18 150.58,-43.05 142.69,-28.41"/>
<polygon fill="#63b8ff" stroke="#63b8ff" points="145.74,-26.68 138.1,-19.34 139.49,-29.84 145.74,-26.68"/>
</a>
</g>
<g id="a_edge5&#45;headlabel"><a xlink:href="dir_000028_000010.html" target="_top" xlink:title="7">
<text text-anchor="middle" x="149.89" y="-26.1" font-family="Helvetica,sans-Serif" font-size="10.00" fill="#63b8ff">7</text>
</a>
</g>
</g>
<!-- dir_189eb8c36ffce94640b9d816bc05823d -->
<g id="node10" class="node">
<title>dir_189eb8c36ffce94640b9d816bc05823d</title>
<g id="a_node10"><a xlink:href="dir_189eb8c36ffce94640b9d816bc05823d.html" target="_top" xlink:title="Domain">
<polygon fill="#edf0f7" stroke="#7f7f7f" points="515.81,-74.25 460.81,-74.25 460.81,-55.25 515.81,-55.25 515.81,-74.25"/>
<text text-anchor="middle" x="488.31" y="-62.25" font-family="Helvetica,sans-Serif" font-size="10.00">Domain</text>
</a>
</g>
</g>
<!-- dir_8f2cc0dbdb5107552a837377e8f5f9e3&#45;&gt;dir_189eb8c36ffce94640b9d816bc05823d -->
<g id="edge6" class="edge">
<title>dir_8f2cc0dbdb5107552a837377e8f5f9e3&#45;&gt;dir_189eb8c36ffce94640b9d816bc05823d</title>
<g id="a_edge6"><a xlink:href="dir_000028_000011.html" target="_top">
<path fill="none" stroke="#63b8ff" d="M418.65,-110.23C431.4,-102.09 450.87,-89.66 465.98,-80.01"/>
<polygon fill="#63b8ff" stroke="#63b8ff" points="468.19,-82.75 474.74,-74.42 464.42,-76.85 468.19,-82.75"/>
</a>
</g>
<g id="a_edge6&#45;headlabel"><a xlink:href="dir_000028_000011.html" target="_top" xlink:title="17">
<text text-anchor="middle" x="466.69" y="-84.58" font-family="Helvetica,sans-Serif" font-size="10.00" fill="#63b8ff">17</text>
</a>
</g>
</g>
<!-- dir_63e7bb0cb88dc7cebeab7c37a85fbe32 -->
<g id="node11" class="node">
<title>dir_63e7bb0cb88dc7cebeab7c37a85fbe32</title>
<g id="a_node11"><a xlink:href="dir_63e7bb0cb88dc7cebeab7c37a85fbe32.html" target="_top" xlink:title="TaintConfig">
<polygon fill="#edf0f7" stroke="#7f7f7f" points="927.81,-74.25 856.81,-74.25 856.81,-55.25 927.81,-55.25 927.81,-74.25"/>
<text text-anchor="middle" x="892.31" y="-62.25" font-family="Helvetica,sans-Serif" font-size="10.00">TaintConfig</text>
</a>
</g>
</g>
<!-- dir_8f2cc0dbdb5107552a837377e8f5f9e3&#45;&gt;dir_63e7bb0cb88dc7cebeab7c37a85fbe32 -->
<g id="edge7" class="edge">
<title>dir_8f2cc0dbdb5107552a837377e8f5f9e3&#45;&gt;dir_63e7bb0cb88dc7cebeab7c37a85fbe32</title>
<g id="a_edge7"><a xlink:href="dir_000028_000034.html" target="_top">
<path fill="none" stroke="#63b8ff" d="M436.51,-116.54C507.42,-111.32 686.35,-97.02 846.47,-74.24"/>
<polygon fill="#63b8ff" stroke="#63b8ff" points="847.1,-77.69 856.5,-72.8 846.1,-70.76 847.1,-77.69"/>
</a>
</g>
<g id="a_edge7&#45;headlabel"><a xlink:href="dir_000028_000034.html" target="_top" xlink:title="1">
<text text-anchor="middle" x="843.94" y="-78.51" font-family="Helvetica,sans-Serif" font-size="10.00" fill="#63b8ff">1</text>
</a>
</g>
</g>
<!-- dir_68aec2623aad94785c017c13c687e045 -->
<g id="node12" class="node">
<title>dir_68aec2623aad94785c017c13c687e045</title>
<g id="a_node12"><a xlink:href="dir_68aec2623aad94785c017c13c687e045.html" target="_top" xlink:title="DB">
<polygon fill="#edf0f7" stroke="#7f7f7f" points="657.81,-74.25 626.81,-74.25 626.81,-55.25 657.81,-55.25 657.81,-74.25"/>
<text text-anchor="middle" x="642.31" y="-62.25" font-family="Helvetica,sans-Serif" font-size="10.00">DB</text>
</a>
</g>
</g>
<!-- dir_8f2cc0dbdb5107552a837377e8f5f9e3&#45;&gt;dir_68aec2623aad94785c017c13c687e045 -->
<g id="edge8" class="edge">
<title>dir_8f2cc0dbdb5107552a837377e8f5f9e3&#45;&gt;dir_68aec2623aad94785c017c13c687e045</title>
<g id="a_edge8"><a xlink:href="dir_000028_000008.html" target="_top">
<path fill="none" stroke="#63b8ff" d="M436.31,-113.62C476.18,-106.74 547.68,-93.4 616.91,-74.36"/>
<polygon fill="#63b8ff" stroke="#63b8ff" points="617.97,-77.7 626.66,-71.63 616.09,-70.95 617.97,-77.7"/>
</a>
</g>
<g id="a_edge8&#45;headlabel"><a xlink:href="dir_000028_000008.html" target="_top" xlink:title="3">
<text text-anchor="middle" x="615.27" y="-78.9" font-family="Helvetica,sans-Serif" font-size="10.00" fill="#63b8ff">3</text>
</a>
</g>
</g>
<!-- dir_69cf206f122d9153ac8b30a0f4a917bf -->
<g id="node13" class="node">
<title>dir_69cf206f122d9153ac8b30a0f4a917bf</title>
<g id="a_node13"><a xlink:href="dir_69cf206f122d9153ac8b30a0f4a917bf.html" target="_top" xlink:title="DataFlow">
<polygon fill="#edf0f7" stroke="red" stroke-dasharray="5,2" points="390.81,-19.25 327.81,-19.25 327.81,-0.25 390.81,-0.25 390.81,-19.25"/>
<text text-anchor="middle" x="359.31" y="-7.25" font-family="Helvetica,sans-Serif" font-size="10.00">DataFlow</text>
</a>
</g>
</g>
<!-- dir_8f2cc0dbdb5107552a837377e8f5f9e3&#45;&gt;dir_69cf206f122d9153ac8b30a0f4a917bf -->
<g id="edge9" class="edge">
<title>dir_8f2cc0dbdb5107552a837377e8f5f9e3&#45;&gt;dir_69cf206f122d9153ac8b30a0f4a917bf</title>
<g id="a_edge9"><a xlink:href="dir_000028_000005.html" target="_top">
<path fill="none" stroke="#63b8ff" d="M436.58,-119.06C519.56,-118.92 734.52,-111.76 667.31,-39.25 647.39,-17.75 433.37,-23.09 404.31,-19.25 403.25,-19.11 402.17,-18.96 401.09,-18.8"/>
<polygon fill="#63b8ff" stroke="#63b8ff" points="401.63,-15.34 391.2,-17.22 400.52,-22.26 401.63,-15.34"/>
</a>
</g>
<g id="a_edge9&#45;headlabel"><a xlink:href="dir_000028_000005.html" target="_top" xlink:title="41">
<text text-anchor="middle" x="405.63" y="-10.61" font-family="Helvetica,sans-Serif" font-size="10.00" fill="#63b8ff">41</text>
</a>
</g>
</g>
<!-- dir_aeca43db7a276eb6dbfba1f93dc4539c -->
<g id="node14" class="node">
<title>dir_aeca43db7a276eb6dbfba1f93dc4539c</title>
<g id="a_node14"><a xlink:href="dir_aeca43db7a276eb6dbfba1f93dc4539c.html" target="_top" xlink:title="Utils">
<polygon fill="#edf0f7" stroke="#7f7f7f" points="451.81,-19.25 412.81,-19.25 412.81,-0.25 451.81,-0.25 451.81,-19.25"/>
<text text-anchor="middle" x="432.31" y="-7.25" font-family="Helvetica,sans-Serif" font-size="10.00">Utils</text>
</a>
</g>
</g>
<!-- dir_8f2cc0dbdb5107552a837377e8f5f9e3&#45;&gt;dir_aeca43db7a276eb6dbfba1f93dc4539c -->
<g id="edge11" class="edge">
<title>dir_8f2cc0dbdb5107552a837377e8f5f9e3&#45;&gt;dir_aeca43db7a276eb6dbfba1f93dc4539c</title>
<g id="a_edge11"><a xlink:href="dir_000028_000039.html" target="_top">
<path fill="none" stroke="#63b8ff" d="M436.38,-118.93C505.08,-118.6 666.49,-113.56 700.31,-74.25 710.46,-62.46 710.72,-50.82 700.31,-39.25 684.61,-21.78 528.62,-14.18 462.11,-11.72"/>
<polygon fill="#63b8ff" stroke="#63b8ff" points="461.99,-8.21 451.87,-11.35 461.74,-15.21 461.99,-8.21"/>
</a>
</g>
<g id="a_edge11&#45;headlabel"><a xlink:href="dir_000028_000039.html" target="_top" xlink:title="18">
<text text-anchor="middle" x="465.69" y="-3" font-family="Helvetica,sans-Serif" font-size="10.00" fill="#63b8ff">18</text>
</a>
</g>
</g>
<!-- dir_a33aec843dd0f4d3dcd42c9824ffa99f&#45;&gt;dir_0133e64b3a4c854b47f86a7b8e0c9983 -->
<g id="edge12" class="edge">
<title>dir_a33aec843dd0f4d3dcd42c9824ffa99f&#45;&gt;dir_0133e64b3a4c854b47f86a7b8e0c9983</title>
<g id="a_edge12"><a xlink:href="dir_000012_000026.html" target="_top">
<path fill="none" stroke="#63b8ff" d="M259.53,-55C255.56,-47.74 249.79,-37.2 244.88,-28.23"/>
<polygon fill="#63b8ff" stroke="#63b8ff" points="247.88,-26.43 240.01,-19.34 241.74,-29.79 247.88,-26.43"/>
</a>
</g>
<g id="a_edge12&#45;headlabel"><a xlink:href="dir_000012_000026.html" target="_top" xlink:title="1">
<text text-anchor="middle" x="252.1" y="-25.72" font-family="Helvetica,sans-Serif" font-size="10.00" fill="#63b8ff">1</text>
</a>
</g>
</g>
<!-- dir_a33aec843dd0f4d3dcd42c9824ffa99f&#45;&gt;dir_079f3dfffeb9e770010097b0dd1334eb -->
<g id="edge13" class="edge">
<title>dir_a33aec843dd0f4d3dcd42c9824ffa99f&#45;&gt;dir_079f3dfffeb9e770010097b0dd1334eb</title>
<g id="a_edge13"><a xlink:href="dir_000012_000038.html" target="_top">
<path fill="none" stroke="#63b8ff" d="M229.13,-55.23C186.4,-44.89 115.07,-27.63 74.99,-17.93"/>
<polygon fill="#63b8ff" stroke="#63b8ff" points="75.58,-14.47 65.04,-15.52 73.94,-21.28 75.58,-14.47"/>
</a>
</g>
<g id="a_edge13&#45;headlabel"><a xlink:href="dir_000012_000038.html" target="_top" xlink:title="1">
<text text-anchor="middle" x="79.74" y="-10.06" font-family="Helvetica,sans-Serif" font-size="10.00" fill="#63b8ff">1</text>
</a>
</g>
</g>
<!-- dir_a33aec843dd0f4d3dcd42c9824ffa99f&#45;&gt;dir_15b1266ec3c6694d64b0cfc160192d3b -->
<g id="edge14" class="edge">
<title>dir_a33aec843dd0f4d3dcd42c9824ffa99f&#45;&gt;dir_15b1266ec3c6694d64b0cfc160192d3b</title>
<g id="a_edge14"><a xlink:href="dir_000012_000010.html" target="_top">
<path fill="none" stroke="#63b8ff" d="M243.43,-55.23C222.23,-46.59 189.19,-33.12 165.01,-23.26"/>
<polygon fill="#63b8ff" stroke="#63b8ff" points="166.16,-19.95 155.58,-19.42 163.52,-26.44 166.16,-19.95"/>
</a>
</g>
<g id="a_edge14&#45;headlabel"><a xlink:href="dir_000012_000010.html" target="_top" xlink:title="2">
<text text-anchor="middle" x="170.56" y="-16.18" font-family="Helvetica,sans-Serif" font-size="10.00" fill="#63b8ff">2</text>
</a>
</g>
</g>
<!-- dir_a33aec843dd0f4d3dcd42c9824ffa99f&#45;&gt;dir_69cf206f122d9153ac8b30a0f4a917bf -->
<g id="edge15" class="edge">
<title>dir_a33aec843dd0f4d3dcd42c9824ffa99f&#45;&gt;dir_69cf206f122d9153ac8b30a0f4a917bf</title>
<g id="a_edge15"><a xlink:href="dir_000012_000005.html" target="_top">
<path fill="none" stroke="#63b8ff" d="M279.58,-55.23C294.45,-46.94 317.3,-34.19 334.73,-24.46"/>
<polygon fill="#63b8ff" stroke="#63b8ff" points="336.75,-27.35 343.77,-19.42 333.33,-21.23 336.75,-27.35"/>
</a>
</g>
<g id="a_edge15&#45;headlabel"><a xlink:href="dir_000012_000005.html" target="_top" xlink:title="5">
<text text-anchor="middle" x="334.99" y="-29.08" font-family="Helvetica,sans-Serif" font-size="10.00" fill="#63b8ff">5</text>
</a>
</g>
</g>
<!-- dir_a33aec843dd0f4d3dcd42c9824ffa99f&#45;&gt;dir_aeca43db7a276eb6dbfba1f93dc4539c -->
<g id="edge16" class="edge">
<title>dir_a33aec843dd0f4d3dcd42c9824ffa99f&#45;&gt;dir_aeca43db7a276eb6dbfba1f93dc4539c</title>
<g id="a_edge16"><a xlink:href="dir_000012_000039.html" target="_top">
<path fill="none" stroke="#63b8ff" d="M291.31,-55.23C321.81,-45.61 371.29,-30 402.8,-20.06"/>
<polygon fill="#63b8ff" stroke="#63b8ff" points="404.25,-23.27 412.74,-16.93 402.15,-16.6 404.25,-23.27"/>
</a>
</g>
<g id="a_edge16&#45;headlabel"><a xlink:href="dir_000012_000039.html" target="_top" xlink:title="5">
<text text-anchor="middle" x="401.68" y="-24.56" font-family="Helvetica,sans-Serif" font-size="10.00" fill="#63b8ff">5</text>
</a>
</g>
</g>
<!-- dir_4702b0d9c546fd2d1801312a9ade3e5b -->
<g id="node3" class="node">
<title>dir_4702b0d9c546fd2d1801312a9ade3e5b</title>
<g id="a_node3"><a xlink:href="dir_4702b0d9c546fd2d1801312a9ade3e5b.html" target="_top" xlink:title="IDEGeneralizedLCA">
<polygon fill="#a2b4d6" stroke="#404040" points="356.31,-129.25 246.31,-129.25 246.31,-110.25 356.31,-110.25 356.31,-129.25"/>
<text text-anchor="middle" x="301.31" y="-117.25" font-family="Helvetica,sans-Serif" font-size="10.00">IDEGeneralizedLCA</text>
</a>
</g>
</g>
<!-- dir_4702b0d9c546fd2d1801312a9ade3e5b&#45;&gt;dir_079f3dfffeb9e770010097b0dd1334eb -->
<g id="edge17" class="edge">
<title>dir_4702b0d9c546fd2d1801312a9ade3e5b&#45;&gt;dir_079f3dfffeb9e770010097b0dd1334eb</title>
<g id="a_edge17"><a xlink:href="dir_000013_000038.html" target="_top">
<path fill="none" stroke="#63b8ff" d="M247.78,-110.22C187.35,-100.23 95.68,-83.83 82.31,-74.25 66.79,-63.12 56.77,-43.3 51.13,-28.76"/>
<polygon fill="#63b8ff" stroke="#63b8ff" points="54.41,-27.55 47.77,-19.29 47.82,-29.89 54.41,-27.55"/>
</a>
</g>
<g id="a_edge17&#45;headlabel"><a xlink:href="dir_000013_000038.html" target="_top" xlink:title="1">
<text text-anchor="middle" x="58.29" y="-27.49" font-family="Helvetica,sans-Serif" font-size="10.00" fill="#63b8ff">1</text>
</a>
</g>
</g>
<!-- dir_4702b0d9c546fd2d1801312a9ade3e5b&#45;&gt;dir_0bc4dee926a629f715a9261d8d248ef6 -->
<g id="edge18" class="edge">
<title>dir_4702b0d9c546fd2d1801312a9ade3e5b&#45;&gt;dir_0bc4dee926a629f715a9261d8d248ef6</title>
<g id="a_edge18"><a xlink:href="dir_000013_000004.html" target="_top">
<path fill="none" stroke="#63b8ff" d="M344.69,-110.23C393.64,-100.62 473.02,-85.04 523.66,-75.1"/>
<polygon fill="#63b8ff" stroke="#63b8ff" points="524.56,-78.49 533.7,-73.13 523.22,-71.62 524.56,-78.49"/>
</a>
</g>
<g id="a_edge18&#45;headlabel"><a xlink:href="dir_000013_000004.html" target="_top" xlink:title="1">
<text text-anchor="middle" x="521.58" y="-79.47" font-family="Helvetica,sans-Serif" font-size="10.00" fill="#63b8ff">1</text>
</a>
</g>
</g>
<!-- dir_4702b0d9c546fd2d1801312a9ade3e5b&#45;&gt;dir_189eb8c36ffce94640b9d816bc05823d -->
<g id="edge19" class="edge">
<title>dir_4702b0d9c546fd2d1801312a9ade3e5b&#45;&gt;dir_189eb8c36ffce94640b9d816bc05823d</title>
<g id="a_edge19"><a xlink:href="dir_000013_000011.html" target="_top">
<path fill="none" stroke="#63b8ff" d="M331.36,-110.23C363.87,-101.02 415.77,-86.31 450.9,-76.35"/>
<polygon fill="#63b8ff" stroke="#63b8ff" points="452.11,-79.65 460.78,-73.55 450.21,-72.91 452.11,-79.65"/>
</a>
</g>
<g id="a_edge19&#45;headlabel"><a xlink:href="dir_000013_000011.html" target="_top" xlink:title="2">
<text text-anchor="middle" x="449.43" y="-80.86" font-family="Helvetica,sans-Serif" font-size="10.00" fill="#63b8ff">2</text>
</a>
</g>
</g>
<!-- dir_4702b0d9c546fd2d1801312a9ade3e5b&#45;&gt;dir_69cf206f122d9153ac8b30a0f4a917bf -->
<g id="edge20" class="edge">
<title>dir_4702b0d9c546fd2d1801312a9ade3e5b&#45;&gt;dir_69cf206f122d9153ac8b30a0f4a917bf</title>
<g id="a_edge20"><a xlink:href="dir_000013_000005.html" target="_top">
<path fill="none" stroke="#63b8ff" d="M325.78,-110.11C341.59,-103.1 360.9,-91.52 370.31,-74.25 377.92,-60.3 373.7,-42.28 368.43,-29"/>
<polygon fill="#63b8ff" stroke="#63b8ff" points="371.48,-27.23 364.19,-19.54 365.09,-30.1 371.48,-27.23"/>
</a>
</g>
<g id="a_edge20&#45;headlabel"><a xlink:href="dir_000013_000005.html" target="_top" xlink:title="9">
<text text-anchor="middle" x="375.54" y="-26.85" font-family="Helvetica,sans-Serif" font-size="10.00" fill="#63b8ff">9</text>
</a>
</g>
</g>
<!-- dir_4702b0d9c546fd2d1801312a9ade3e5b&#45;&gt;dir_aeca43db7a276eb6dbfba1f93dc4539c -->
<g id="edge21" class="edge">
<title>dir_4702b0d9c546fd2d1801312a9ade3e5b&#45;&gt;dir_aeca43db7a276eb6dbfba1f93dc4539c</title>
<g id="a_edge21"><a xlink:href="dir_000013_000039.html" target="_top">
<path fill="none" stroke="#63b8ff" d="M324.35,-110.13C342.52,-102.56 367.79,-90.27 386.31,-74.25 401.39,-61.21 414.27,-42.3 422.54,-28.52"/>
<polygon fill="#63b8ff" stroke="#63b8ff" points="425.75,-29.95 427.7,-19.54 419.68,-26.46 425.75,-29.95"/>
</a>
</g>
<g id="a_edge21&#45;headlabel"><a xlink:href="dir_000013_000039.html" target="_top" xlink:title="2">
<text text-anchor="middle" x="426.42" y="-31.98" font-family="Helvetica,sans-Serif" font-size="10.00" fill="#63b8ff">2</text>
</a>
</g>
</g>
<!-- dir_0115e31b37e371af800ae3b4d406b9c6 -->
<g id="node4" class="node">
<title>dir_0115e31b37e371af800ae3b4d406b9c6</title>
<g id="a_node4"><a xlink:href="dir_0115e31b37e371af800ae3b4d406b9c6.html" target="_top" xlink:title="TypeStateDescriptions">
<polygon fill="#a2b4d6" stroke="#404040" points="227.81,-129.25 102.81,-129.25 102.81,-110.25 227.81,-110.25 227.81,-129.25"/>
<text text-anchor="middle" x="165.31" y="-117.25" font-family="Helvetica,sans-Serif" font-size="10.00">TypeStateDescriptions</text>
</a>
</g>
</g>
<!-- dir_0115e31b37e371af800ae3b4d406b9c6&#45;&gt;dir_079f3dfffeb9e770010097b0dd1334eb -->
<g id="edge22" class="edge">
<title>dir_0115e31b37e371af800ae3b4d406b9c6&#45;&gt;dir_079f3dfffeb9e770010097b0dd1334eb</title>
<g id="a_edge22"><a xlink:href="dir_000037_000038.html" target="_top">
<path fill="none" stroke="#63b8ff" d="M108.64,-110.24C68.22,-102.88 18.87,-90.81 6.31,-74.25 -3.09,-61.86 -0.73,-53.12 6.31,-39.25 9.09,-33.79 13.45,-29.12 18.27,-25.25"/>
<polygon fill="#63b8ff" stroke="#63b8ff" points="20.4,-28.03 26.62,-19.46 16.41,-22.28 20.4,-28.03"/>
</a>
</g>
<g id="a_edge22&#45;headlabel"><a xlink:href="dir_000037_000038.html" target="_top" xlink:title="1">
<text text-anchor="middle" x="19.06" y="-29.91" font-family="Helvetica,sans-Serif" font-size="10.00" fill="#63b8ff">1</text>
</a>
</g>
</g>
<!-- dir_0115e31b37e371af800ae3b4d406b9c6&#45;&gt;dir_15b1266ec3c6694d64b0cfc160192d3b -->
<g id="edge23" class="edge">
<title>dir_0115e31b37e371af800ae3b4d406b9c6&#45;&gt;dir_15b1266ec3c6694d64b0cfc160192d3b</title>
<g id="a_edge23"><a xlink:href="dir_000037_000010.html" target="_top">
<path fill="none" stroke="#63b8ff" d="M151.82,-110C141.02,-102.12 126.66,-89.46 120.31,-74.25 114.32,-59.89 116.79,-54.4 120.31,-39.25 121.16,-35.59 122.55,-31.87 124.13,-28.37"/>
<polygon fill="#63b8ff" stroke="#63b8ff" points="127.31,-29.83 128.8,-19.34 121.1,-26.61 127.31,-29.83"/>
</a>
</g>
<g id="a_edge23&#45;headlabel"><a xlink:href="dir_000037_000010.html" target="_top" xlink:title="2">
<text text-anchor="middle" x="128.18" y="-31.83" font-family="Helvetica,sans-Serif" font-size="10.00" fill="#63b8ff">2</text>
</a>
</g>
</g>
<!-- dir_0115e31b37e371af800ae3b4d406b9c6&#45;&gt;dir_69cf206f122d9153ac8b30a0f4a917bf -->
<g id="edge24" class="edge">
<title>dir_0115e31b37e371af800ae3b4d406b9c6&#45;&gt;dir_69cf206f122d9153ac8b30a0f4a917bf</title>
<g id="a_edge24"><a xlink:href="dir_000037_000005.html" target="_top">
<path fill="none" stroke="#63b8ff" d="M219.81,-110.23C263.15,-102.44 319.25,-89.8 336.31,-74.25 348.9,-62.78 354.61,-43.9 357.19,-29.7"/>
<polygon fill="#63b8ff" stroke="#63b8ff" points="360.69,-29.94 358.66,-19.54 353.76,-28.94 360.69,-29.94"/>
</a>
</g>
<g id="a_edge24&#45;headlabel"><a xlink:href="dir_000037_000005.html" target="_top" xlink:title="2">
<text text-anchor="middle" x="362.98" y="-31.41" font-family="Helvetica,sans-Serif" font-size="10.00" fill="#63b8ff">2</text>
</a>
</g>
</g>
</g>
</svg>
