<?xml version="1.0" encoding="UTF-8" standalone="no"?>
<!DOCTYPE svg PUBLIC "-//W3C//DTD SVG 1.1//EN"
 "http://www.w3.org/Graphics/SVG/1.1/DTD/svg11.dtd">
<!-- Generated by graphviz version 2.43.0 (0)
 -->
<!-- Title: include/phasar/PhasarLLVM/DataFlow Pages: 1 -->
<svg width="648pt" height="141pt"
 viewBox="0.00 0.00 647.50 141.00" xmlns="http://www.w3.org/2000/svg" xmlns:xlink="http://www.w3.org/1999/xlink">
<g id="graph0" class="graph" transform="scale(1 1) rotate(0) translate(4 137)">
<title>include/phasar/PhasarLLVM/DataFlow</title>
<g id="clust1" class="cluster">
<title>clusterdir_6556945d274d6e1e874171d9d575b3f4</title>
<g id="a_clust1"><a xlink:href="dir_6556945d274d6e1e874171d9d575b3f4.html" target="_top" xlink:title="PhasarLLVM">
<polygon fill="#edf0f7" stroke="#7f7f7f" stroke-dasharray="5,2" points="8,-8 8,-125 437,-125 437,-8 8,-8"/>
<text text-anchor="middle" x="222.5" y="-113" font-family="Helvetica,sans-Serif" font-size="10.00">PhasarLLVM</text>
</a>
</g>
</g>
<g id="clust2" class="cluster">
<title>clusterdir_b11f051d1364f2a30973d8d796d4babf</title>
<g id="a_clust2"><a xlink:href="dir_b11f051d1364f2a30973d8d796d4babf.html" target="_top">
<polygon fill="#edf0f7" stroke="#404040" stroke-width="2" points="112,-63 112,-98 429,-98 429,-63 112,-63"/>
</a>
</g>
</g>
<!-- dir_0133e64b3a4c854b47f86a7b8e0c9983 -->
<g id="node1" class="node">
<title>dir_0133e64b3a4c854b47f86a7b8e0c9983</title>
<g id="a_node1"><a xlink:href="dir_0133e64b3a4c854b47f86a7b8e0c9983.html" target="_top" xlink:title="Pointer">
<polygon fill="#a2b4d6" stroke="red" points="278.5,-35 227.5,-35 227.5,-16 278.5,-16 278.5,-35"/>
<text text-anchor="middle" x="253" y="-23" font-family="Helvetica,sans-Serif" font-size="10.00">Pointer</text>
</a>
</g>
</g>
<!-- dir_079f3dfffeb9e770010097b0dd1334eb -->
<g id="node2" class="node">
<title>dir_079f3dfffeb9e770010097b0dd1334eb</title>
<g id="a_node2"><a xlink:href="dir_079f3dfffeb9e770010097b0dd1334eb.html" target="_top" xlink:title="Utils">
<polygon fill="#a2b4d6" stroke="#404040" points="428.5,-35 389.5,-35 389.5,-16 428.5,-16 428.5,-35"/>
<text text-anchor="middle" x="409" y="-23" font-family="Helvetica,sans-Serif" font-size="10.00">Utils</text>
</a>
</g>
</g>
<!-- dir_0bc4dee926a629f715a9261d8d248ef6 -->
<g id="node3" class="node">
<title>dir_0bc4dee926a629f715a9261d8d248ef6</title>
<g id="a_node3"><a xlink:href="dir_0bc4dee926a629f715a9261d8d248ef6.html" target="_top" xlink:title="ControlFlow">
<polygon fill="#a2b4d6" stroke="red" points="371.5,-35 296.5,-35 296.5,-16 371.5,-16 371.5,-35"/>
<text text-anchor="middle" x="334" y="-23" font-family="Helvetica,sans-Serif" font-size="10.00">ControlFlow</text>
</a>
</g>
</g>
<!-- dir_189eb8c36ffce94640b9d816bc05823d -->
<g id="node4" class="node">
<title>dir_189eb8c36ffce94640b9d816bc05823d</title>
<g id="a_node4"><a xlink:href="dir_189eb8c36ffce94640b9d816bc05823d.html" target="_top" xlink:title="Domain">
<polygon fill="#a2b4d6" stroke="#404040" points="120.5,-35 65.5,-35 65.5,-16 120.5,-16 120.5,-35"/>
<text text-anchor="middle" x="93" y="-23" font-family="Helvetica,sans-Serif" font-size="10.00">Domain</text>
</a>
</g>
</g>
<!-- dir_68aec2623aad94785c017c13c687e045 -->
<g id="node5" class="node">
<title>dir_68aec2623aad94785c017c13c687e045</title>
<g id="a_node5"><a xlink:href="dir_68aec2623aad94785c017c13c687e045.html" target="_top" xlink:title="DB">
<polygon fill="#a2b4d6" stroke="#404040" points="47.5,-35 16.5,-35 16.5,-16 47.5,-16 47.5,-35"/>
<text text-anchor="middle" x="32" y="-23" font-family="Helvetica,sans-Serif" font-size="10.00">DB</text>
</a>
</g>
</g>
<!-- dir_63e7bb0cb88dc7cebeab7c37a85fbe32 -->
<g id="node6" class="node">
<title>dir_63e7bb0cb88dc7cebeab7c37a85fbe32</title>
<g id="a_node6"><a xlink:href="dir_63e7bb0cb88dc7cebeab7c37a85fbe32.html" target="_top" xlink:title="TaintConfig">
<polygon fill="#a2b4d6" stroke="#404040" points="209.5,-35 138.5,-35 138.5,-16 209.5,-16 209.5,-35"/>
<text text-anchor="middle" x="174" y="-23" font-family="Helvetica,sans-Serif" font-size="10.00">TaintConfig</text>
</a>
</g>
</g>
<!-- dir_b11f051d1364f2a30973d8d796d4babf -->
<g id="node7" class="node">
<title>dir_b11f051d1364f2a30973d8d796d4babf</title>
<text text-anchor="middle" x="389" y="-78" font-family="Helvetica,sans-Serif" font-size="10.00">DataFlow</text>
</g>
<!-- dir_a914fe635f43607d3ac935bbff17c46d -->
<g id="node8" class="node">
<title>dir_a914fe635f43607d3ac935bbff17c46d</title>
<g id="a_node8"><a xlink:href="dir_a914fe635f43607d3ac935bbff17c46d.html" target="_top" xlink:title="IfdsIde">
<polygon fill="#a2b4d6" stroke="#404040" points="170,-90 120,-90 120,-71 170,-71 170,-90"/>
<text text-anchor="middle" x="145" y="-78" font-family="Helvetica,sans-Serif" font-size="10.00">IfdsIde</text>
</a>
</g>
</g>
<!-- dir_a914fe635f43607d3ac935bbff17c46d&#45;&gt;dir_0133e64b3a4c854b47f86a7b8e0c9983 -->
<g id="edge1" class="edge">
<title>dir_a914fe635f43607d3ac935bbff17c46d&#45;&gt;dir_0133e64b3a4c854b47f86a7b8e0c9983</title>
<g id="a_edge1"><a xlink:href="dir_000015_000026.html" target="_top">
<path fill="none" stroke="#63b8ff" d="M162.35,-70.98C179.57,-62.54 206.2,-49.47 226.15,-39.68"/>
<polygon fill="#63b8ff" stroke="#63b8ff" points="227.9,-42.72 235.33,-35.17 224.81,-36.43 227.9,-42.72"/>
</a>
</g>
<g id="a_edge1&#45;headlabel"><a xlink:href="dir_000015_000026.html" target="_top" xlink:title="11">
<text text-anchor="middle" x="225.92" y="-44.35" font-family="Helvetica,sans-Serif" font-size="10.00" fill="#63b8ff">11</text>
</a>
</g>
</g>
<!-- dir_a914fe635f43607d3ac935bbff17c46d&#45;&gt;dir_079f3dfffeb9e770010097b0dd1334eb -->
<g id="edge2" class="edge">
<title>dir_a914fe635f43607d3ac935bbff17c46d&#45;&gt;dir_079f3dfffeb9e770010097b0dd1334eb</title>
<g id="a_edge2"><a xlink:href="dir_000015_000038.html" target="_top">
<path fill="none" stroke="#63b8ff" d="M160.16,-70.88C165.9,-67.96 172.6,-64.94 179,-63 262.68,-37.59 290.52,-53.25 379.27,-35.05"/>
<polygon fill="#63b8ff" stroke="#63b8ff" points="380.17,-38.44 389.22,-32.93 378.71,-31.59 380.17,-38.44"/>
</a>
</g>
<g id="a_edge2&#45;headlabel"><a xlink:href="dir_000015_000038.html" target="_top" xlink:title="9">
<text text-anchor="middle" x="377.25" y="-39.47" font-family="Helvetica,sans-Serif" font-size="10.00" fill="#63b8ff">9</text>
</a>
</g>
</g>
<!-- dir_a914fe635f43607d3ac935bbff17c46d&#45;&gt;dir_0bc4dee926a629f715a9261d8d248ef6 -->
<g id="edge3" class="edge">
<title>dir_a914fe635f43607d3ac935bbff17c46d&#45;&gt;dir_0bc4dee926a629f715a9261d8d248ef6</title>
<g id="a_edge3"><a xlink:href="dir_000015_000004.html" target="_top">
<path fill="none" stroke="#63b8ff" d="M160.94,-70.86C166.54,-68.08 172.94,-65.15 179,-63 198.55,-56.05 248.45,-44.7 286.4,-36.5"/>
<polygon fill="#63b8ff" stroke="#63b8ff" points="287.21,-39.91 296.26,-34.39 285.74,-33.07 287.21,-39.91"/>
</a>
</g>
<g id="a_edge3&#45;headlabel"><a xlink:href="dir_000015_000004.html" target="_top" xlink:title="4">
<text text-anchor="middle" x="284.3" y="-40.94" font-family="Helvetica,sans-Serif" font-size="10.00" fill="#63b8ff">4</text>
</a>
</g>
</g>
<!-- dir_a914fe635f43607d3ac935bbff17c46d&#45;&gt;dir_189eb8c36ffce94640b9d816bc05823d -->
<g id="edge5" class="edge">
<title>dir_a914fe635f43607d3ac935bbff17c46d&#45;&gt;dir_189eb8c36ffce94640b9d816bc05823d</title>
<g id="a_edge5"><a xlink:href="dir_000015_000011.html" target="_top">
<path fill="none" stroke="#63b8ff" d="M136.41,-70.75C128.84,-63.03 117.62,-51.6 108.49,-42.28"/>
<polygon fill="#63b8ff" stroke="#63b8ff" points="110.93,-39.78 101.43,-35.09 105.93,-44.68 110.93,-39.78"/>
</a>
</g>
<g id="a_edge5&#45;headlabel"><a xlink:href="dir_000015_000011.html" target="_top" xlink:title="18">
<text text-anchor="middle" x="115.47" y="-37.85" font-family="Helvetica,sans-Serif" font-size="10.00" fill="#63b8ff">18</text>
</a>
</g>
</g>
<!-- dir_a914fe635f43607d3ac935bbff17c46d&#45;&gt;dir_68aec2623aad94785c017c13c687e045 -->
<g id="edge6" class="edge">
<title>dir_a914fe635f43607d3ac935bbff17c46d&#45;&gt;dir_68aec2623aad94785c017c13c687e045</title>
<g id="a_edge6"><a xlink:href="dir_000015_000008.html" target="_top">
<path fill="none" stroke="#63b8ff" d="M126.84,-70.98C107.89,-62.09 78.02,-48.09 56.88,-38.17"/>
<polygon fill="#63b8ff" stroke="#63b8ff" points="58.1,-34.88 47.56,-33.8 55.13,-41.22 58.1,-34.88"/>
</a>
</g>
<g id="a_edge6&#45;headlabel"><a xlink:href="dir_000015_000008.html" target="_top" xlink:title="4">
<text text-anchor="middle" x="62.56" y="-31.33" font-family="Helvetica,sans-Serif" font-size="10.00" fill="#63b8ff">4</text>
</a>
</g>
</g>
<!-- dir_a914fe635f43607d3ac935bbff17c46d&#45;&gt;dir_63e7bb0cb88dc7cebeab7c37a85fbe32 -->
<g id="edge9" class="edge">
<title>dir_a914fe635f43607d3ac935bbff17c46d&#45;&gt;dir_63e7bb0cb88dc7cebeab7c37a85fbe32</title>
<g id="a_edge9"><a xlink:href="dir_000015_000034.html" target="_top">
<path fill="none" stroke="#63b8ff" d="M149.79,-70.75C153.76,-63.49 159.53,-52.95 164.43,-43.98"/>
<polygon fill="#63b8ff" stroke="#63b8ff" points="167.57,-45.54 169.3,-35.09 161.43,-42.18 167.57,-45.54"/>
</a>
</g>
<g id="a_edge9&#45;headlabel"><a xlink:href="dir_000015_000034.html" target="_top" xlink:title="1">
<text text-anchor="middle" x="168.34" y="-47.56" font-family="Helvetica,sans-Serif" font-size="10.00" fill="#63b8ff">1</text>
</a>
</g>
</g>
<!-- dir_69cf206f122d9153ac8b30a0f4a917bf -->
<g id="node11" class="node">
<title>dir_69cf206f122d9153ac8b30a0f4a917bf</title>
<g id="a_node11"><a xlink:href="dir_69cf206f122d9153ac8b30a0f4a917bf.html" target="_top" xlink:title="DataFlow">
<polygon fill="#edf0f7" stroke="red" stroke-dasharray="5,2" points="639.5,-35 576.5,-35 576.5,-16 639.5,-16 639.5,-35"/>
<text text-anchor="middle" x="608" y="-23" font-family="Helvetica,sans-Serif" font-size="10.00">DataFlow</text>
</a>
</g>
</g>
<!-- dir_a914fe635f43607d3ac935bbff17c46d&#45;&gt;dir_69cf206f122d9153ac8b30a0f4a917bf -->
<g id="edge7" class="edge">
<title>dir_a914fe635f43607d3ac935bbff17c46d&#45;&gt;dir_69cf206f122d9153ac8b30a0f4a917bf</title>
<g id="a_edge7"><a xlink:href="dir_000015_000005.html" target="_top">
<path fill="none" stroke="#63b8ff" d="M159.42,-71C165.3,-67.94 172.28,-64.8 179,-63 343.24,-18.99 394.43,-57.76 566.06,-35.06"/>
<polygon fill="#63b8ff" stroke="#63b8ff" points="566.76,-38.5 576.19,-33.67 565.81,-31.56 566.76,-38.5"/>
</a>
</g>
<g id="a_edge7&#45;headlabel"><a xlink:href="dir_000015_000005.html" target="_top" xlink:title="46">
<text text-anchor="middle" x="563.59" y="-39.3" font-family="Helvetica,sans-Serif" font-size="10.00" fill="#63b8ff">46</text>
</a>
</g>
</g>
<!-- dir_aeca43db7a276eb6dbfba1f93dc4539c -->
<g id="node12" class="node">
<title>dir_aeca43db7a276eb6dbfba1f93dc4539c</title>
<g id="a_node12"><a xlink:href="dir_aeca43db7a276eb6dbfba1f93dc4539c.html" target="_top" xlink:title="Utils">
<polygon fill="#edf0f7" stroke="#7f7f7f" points="558.5,-35 519.5,-35 519.5,-16 558.5,-16 558.5,-35"/>
<text text-anchor="middle" x="539" y="-23" font-family="Helvetica,sans-Serif" font-size="10.00">Utils</text>
</a>
</g>
</g>
<!-- dir_a914fe635f43607d3ac935bbff17c46d&#45;&gt;dir_aeca43db7a276eb6dbfba1f93dc4539c -->
<g id="edge8" class="edge">
<title>dir_a914fe635f43607d3ac935bbff17c46d&#45;&gt;dir_aeca43db7a276eb6dbfba1f93dc4539c</title>
<g id="a_edge8"><a xlink:href="dir_000015_000039.html" target="_top">
<path fill="none" stroke="#63b8ff" d="M159.77,-70.87C165.57,-67.87 172.42,-64.81 179,-63 318.59,-24.67 363.55,-61.17 509.05,-34.97"/>
<polygon fill="#63b8ff" stroke="#63b8ff" points="510.06,-38.34 519.24,-33.06 508.77,-31.46 510.06,-38.34"/>
</a>
</g>
<g id="a_edge8&#45;headlabel"><a xlink:href="dir_000015_000039.html" target="_top" xlink:title="23">
<text text-anchor="middle" x="507.05" y="-39.29" font-family="Helvetica,sans-Serif" font-size="10.00" fill="#63b8ff">23</text>
</a>
</g>
</g>
<!-- dir_15b1266ec3c6694d64b0cfc160192d3b -->
<g id="node13" class="node">
<title>dir_15b1266ec3c6694d64b0cfc160192d3b</title>
<g id="a_node13"><a xlink:href="dir_15b1266ec3c6694d64b0cfc160192d3b.html" target="_top" xlink:title="Domain">
<polygon fill="#edf0f7" stroke="#7f7f7f" points="501.5,-35 446.5,-35 446.5,-16 501.5,-16 501.5,-35"/>
<text text-anchor="middle" x="474" y="-23" font-family="Helvetica,sans-Serif" font-size="10.00">Domain</text>
</a>
</g>
</g>
<!-- dir_a914fe635f43607d3ac935bbff17c46d&#45;&gt;dir_15b1266ec3c6694d64b0cfc160192d3b -->
<g id="edge4" class="edge">
<title>dir_a914fe635f43607d3ac935bbff17c46d&#45;&gt;dir_15b1266ec3c6694d64b0cfc160192d3b</title>
<g id="a_edge4"><a xlink:href="dir_000015_000010.html" target="_top">
<path fill="none" stroke="#63b8ff" d="M159.79,-70.95C165.6,-67.96 172.44,-64.88 179,-63 288.39,-31.65 323.77,-54.5 436.3,-35.69"/>
<polygon fill="#63b8ff" stroke="#63b8ff" points="437.09,-39.11 446.34,-33.94 435.88,-32.21 437.09,-39.11"/>
</a>
</g>
<g id="a_edge4&#45;headlabel"><a xlink:href="dir_000015_000010.html" target="_top" xlink:title="7">
<text text-anchor="middle" x="434.04" y="-40.02" font-family="Helvetica,sans-Serif" font-size="10.00" fill="#63b8ff">7</text>
</a>
</g>
</g>
<!-- dir_0e28ca19d6cc28e1984b43a86f9232be -->
<g id="node9" class="node">
<title>dir_0e28ca19d6cc28e1984b43a86f9232be</title>
<g id="a_node9"><a xlink:href="dir_0e28ca19d6cc28e1984b43a86f9232be.html" target="_top" xlink:title="Mono">
<polygon fill="#a2b4d6" stroke="#404040" points="232,-90 188,-90 188,-71 232,-71 232,-90"/>
<text text-anchor="middle" x="210" y="-78" font-family="Helvetica,sans-Serif" font-size="10.00">Mono</text>
</a>
</g>
</g>
<!-- dir_0e28ca19d6cc28e1984b43a86f9232be&#45;&gt;dir_0133e64b3a4c854b47f86a7b8e0c9983 -->
<g id="edge13" class="edge">
<title>dir_0e28ca19d6cc28e1984b43a86f9232be&#45;&gt;dir_0133e64b3a4c854b47f86a7b8e0c9983</title>
<g id="a_edge13"><a xlink:href="dir_000018_000026.html" target="_top">
<path fill="none" stroke="#63b8ff" d="M217.1,-70.75C223.17,-63.26 232.09,-52.28 239.51,-43.13"/>
<polygon fill="#63b8ff" stroke="#63b8ff" points="242.45,-45.06 246.03,-35.09 237.01,-40.65 242.45,-45.06"/>
</a>
</g>
<g id="a_edge13&#45;headlabel"><a xlink:href="dir_000018_000026.html" target="_top" xlink:title="6">
<text text-anchor="middle" x="242.39" y="-47.14" font-family="Helvetica,sans-Serif" font-size="10.00" fill="#63b8ff">6</text>
</a>
</g>
</g>
<!-- dir_0e28ca19d6cc28e1984b43a86f9232be&#45;&gt;dir_0bc4dee926a629f715a9261d8d248ef6 -->
<g id="edge15" class="edge">
<title>dir_0e28ca19d6cc28e1984b43a86f9232be&#45;&gt;dir_0bc4dee926a629f715a9261d8d248ef6</title>
<g id="a_edge15"><a xlink:href="dir_000018_000004.html" target="_top">
<path fill="none" stroke="#63b8ff" d="M225.8,-70.96C230.92,-68.3 236.65,-65.43 242,-63 261.22,-54.26 283.19,-45.5 300.83,-38.75"/>
<polygon fill="#63b8ff" stroke="#63b8ff" points="302.56,-41.84 310.67,-35.03 300.08,-35.3 302.56,-41.84"/>
</a>
</g>
<g id="a_edge15&#45;headlabel"><a xlink:href="dir_000018_000004.html" target="_top" xlink:title="1">
<text text-anchor="middle" x="300.2" y="-43.27" font-family="Helvetica,sans-Serif" font-size="10.00" fill="#63b8ff">1</text>
</a>
</g>
</g>
<!-- dir_0e28ca19d6cc28e1984b43a86f9232be&#45;&gt;dir_189eb8c36ffce94640b9d816bc05823d -->
<g id="edge12" class="edge">
<title>dir_0e28ca19d6cc28e1984b43a86f9232be&#45;&gt;dir_189eb8c36ffce94640b9d816bc05823d</title>
<g id="a_edge12"><a xlink:href="dir_000018_000011.html" target="_top">
<path fill="none" stroke="#63b8ff" d="M194.37,-70.84C189.49,-68.23 184.06,-65.42 179,-63 161.18,-54.5 140.86,-45.83 124.45,-39.07"/>
<polygon fill="#63b8ff" stroke="#63b8ff" points="125.37,-35.67 114.79,-35.13 122.73,-42.15 125.37,-35.67"/>
</a>
</g>
<g id="a_edge12&#45;headlabel"><a xlink:href="dir_000018_000011.html" target="_top" xlink:title="6">
<text text-anchor="middle" x="129.78" y="-31.9" font-family="Helvetica,sans-Serif" font-size="10.00" fill="#63b8ff">6</text>
</a>
</g>
</g>
<!-- dir_0e28ca19d6cc28e1984b43a86f9232be&#45;&gt;dir_63e7bb0cb88dc7cebeab7c37a85fbe32 -->
<g id="edge16" class="edge">
<title>dir_0e28ca19d6cc28e1984b43a86f9232be&#45;&gt;dir_63e7bb0cb88dc7cebeab7c37a85fbe32</title>
<g id="a_edge16"><a xlink:href="dir_000018_000034.html" target="_top">
<path fill="none" stroke="#63b8ff" d="M204.06,-70.75C199.02,-63.34 191.66,-52.5 185.49,-43.41"/>
<polygon fill="#63b8ff" stroke="#63b8ff" points="188.35,-41.39 179.83,-35.09 182.56,-45.33 188.35,-41.39"/>
</a>
</g>
<g id="a_edge16&#45;headlabel"><a xlink:href="dir_000018_000034.html" target="_top" xlink:title="1">
<text text-anchor="middle" x="192.72" y="-40.27" font-family="Helvetica,sans-Serif" font-size="10.00" fill="#63b8ff">1</text>
</a>
</g>
</g>
<!-- dir_0e28ca19d6cc28e1984b43a86f9232be&#45;&gt;dir_69cf206f122d9153ac8b30a0f4a917bf -->
<g id="edge10" class="edge">
<title>dir_0e28ca19d6cc28e1984b43a86f9232be&#45;&gt;dir_69cf206f122d9153ac8b30a0f4a917bf</title>
<g id="a_edge10"><a xlink:href="dir_000018_000005.html" target="_top">
<path fill="none" stroke="#63b8ff" d="M223.84,-70.86C229.3,-67.86 235.75,-64.8 242,-63 378.59,-23.59 422.2,-54.9 566.11,-35.08"/>
<polygon fill="#63b8ff" stroke="#63b8ff" points="566.79,-38.52 576.19,-33.63 565.79,-31.59 566.79,-38.52"/>
</a>
</g>
<g id="a_edge10&#45;headlabel"><a xlink:href="dir_000018_000005.html" target="_top" xlink:title="6">
<text text-anchor="middle" x="563.63" y="-39.34" font-family="Helvetica,sans-Serif" font-size="10.00" fill="#63b8ff">6</text>
</a>
</g>
</g>
<!-- dir_0e28ca19d6cc28e1984b43a86f9232be&#45;&gt;dir_aeca43db7a276eb6dbfba1f93dc4539c -->
<g id="edge14" class="edge">
<title>dir_0e28ca19d6cc28e1984b43a86f9232be&#45;&gt;dir_aeca43db7a276eb6dbfba1f93dc4539c</title>
<g id="a_edge14"><a xlink:href="dir_000018_000039.html" target="_top">
<path fill="none" stroke="#63b8ff" d="M223.86,-70.92C229.32,-67.93 235.77,-64.86 242,-63 354.04,-29.58 391.15,-57.19 509.09,-35"/>
<polygon fill="#63b8ff" stroke="#63b8ff" points="510.1,-38.37 519.23,-33.01 508.75,-31.5 510.1,-38.37"/>
</a>
</g>
<g id="a_edge14&#45;headlabel"><a xlink:href="dir_000018_000039.html" target="_top" xlink:title="5">
<text text-anchor="middle" x="507.12" y="-39.35" font-family="Helvetica,sans-Serif" font-size="10.00" fill="#63b8ff">5</text>
</a>
</g>
</g>
<!-- dir_0e28ca19d6cc28e1984b43a86f9232be&#45;&gt;dir_15b1266ec3c6694d64b0cfc160192d3b -->
<g id="edge11" class="edge">
<title>dir_0e28ca19d6cc28e1984b43a86f9232be&#45;&gt;dir_15b1266ec3c6694d64b0cfc160192d3b</title>
<g id="a_edge11"><a xlink:href="dir_000018_000010.html" target="_top">
<path fill="none" stroke="#63b8ff" d="M224.21,-70.87C229.61,-67.94 235.92,-64.93 242,-63 323.96,-36.93 351.36,-51.23 436.25,-35.79"/>
<polygon fill="#63b8ff" stroke="#63b8ff" points="437.16,-39.18 446.32,-33.87 435.85,-32.3 437.16,-39.18"/>
</a>
</g>
<g id="a_edge11&#45;headlabel"><a xlink:href="dir_000018_000010.html" target="_top" xlink:title="2">
<text text-anchor="middle" x="434.16" y="-40.14" font-family="Helvetica,sans-Serif" font-size="10.00" fill="#63b8ff">2</text>
</a>
</g>
</g>
<!-- dir_dceb9711b5b3ca19d081938874f6c202 -->
<g id="node10" class="node">
<title>dir_dceb9711b5b3ca19d081938874f6c202</title>
<g id="a_node10"><a xlink:href="dir_dceb9711b5b3ca19d081938874f6c202.html" target="_top" xlink:title="PathSensitivity">
<polygon fill="#a2b4d6" stroke="#404040" points="339.5,-90 250.5,-90 250.5,-71 339.5,-71 339.5,-90"/>
<text text-anchor="middle" x="295" y="-78" font-family="Helvetica,sans-Serif" font-size="10.00">PathSensitivity</text>
</a>
</g>
</g>
<!-- dir_dceb9711b5b3ca19d081938874f6c202&#45;&gt;dir_079f3dfffeb9e770010097b0dd1334eb -->
<g id="edge17" class="edge">
<title>dir_dceb9711b5b3ca19d081938874f6c202&#45;&gt;dir_079f3dfffeb9e770010097b0dd1334eb</title>
<g id="a_edge17"><a xlink:href="dir_000021_000038.html" target="_top">
<path fill="none" stroke="#63b8ff" d="M313.32,-70.98C331.66,-62.46 360.11,-49.23 381.23,-39.41"/>
<polygon fill="#63b8ff" stroke="#63b8ff" points="382.76,-42.56 390.35,-35.17 379.81,-36.21 382.76,-42.56"/>
</a>
</g>
<g id="a_edge17&#45;headlabel"><a xlink:href="dir_000021_000038.html" target="_top" xlink:title="2">
<text text-anchor="middle" x="380.7" y="-44.15" font-family="Helvetica,sans-Serif" font-size="10.00" fill="#63b8ff">2</text>
</a>
</g>
</g>
<!-- dir_dceb9711b5b3ca19d081938874f6c202&#45;&gt;dir_69cf206f122d9153ac8b30a0f4a917bf -->
<g id="edge18" class="edge">
<title>dir_dceb9711b5b3ca19d081938874f6c202&#45;&gt;dir_69cf206f122d9153ac8b30a0f4a917bf</title>
<g id="a_edge18"><a xlink:href="dir_000021_000005.html" target="_top">
<path fill="none" stroke="#63b8ff" d="M319.77,-70.97C328.87,-68.09 339.32,-65.08 349,-63 441.84,-43.03 469.49,-50.88 566.27,-35.16"/>
<polygon fill="#63b8ff" stroke="#63b8ff" points="566.88,-38.61 576.17,-33.51 565.73,-31.7 566.88,-38.61"/>
</a>
</g>
<g id="a_edge18&#45;headlabel"><a xlink:href="dir_000021_000005.html" target="_top" xlink:title="4">
<text text-anchor="middle" x="563.8" y="-39.5" font-family="Helvetica,sans-Serif" font-size="10.00" fill="#63b8ff">4</text>
</a>
</g>
</g>
<!-- dir_dceb9711b5b3ca19d081938874f6c202&#45;&gt;dir_aeca43db7a276eb6dbfba1f93dc4539c -->
<g id="edge19" class="edge">
<title>dir_dceb9711b5b3ca19d081938874f6c202&#45;&gt;dir_aeca43db7a276eb6dbfba1f93dc4539c</title>
<g id="a_edge19"><a xlink:href="dir_000021_000039.html" target="_top">
<path fill="none" stroke="#63b8ff" d="M320.64,-70.95C329.55,-68.17 339.65,-65.23 349,-63 417.02,-46.8 438.11,-51.41 509.3,-35.16"/>
<polygon fill="#63b8ff" stroke="#63b8ff" points="510.26,-38.53 519.2,-32.84 508.66,-31.71 510.26,-38.53"/>
</a>
</g>
<g id="a_edge19&#45;headlabel"><a xlink:href="dir_000021_000039.html" target="_top" xlink:title="4">
<text text-anchor="middle" x="507.41" y="-39.61" font-family="Helvetica,sans-Serif" font-size="10.00" fill="#63b8ff">4</text>
</a>
</g>
</g>
</g>
</svg>
