<?xml version="1.0" encoding="UTF-8" standalone="no"?>
<!DOCTYPE svg PUBLIC "-//W3C//DTD SVG 1.1//EN"
 "http://www.w3.org/Graphics/SVG/1.1/DTD/svg11.dtd">
<!-- Generated by graphviz version 2.43.0 (0)
 -->
<!-- Title: include/phasar/DataFlow Pages: 1 -->
<svg width="600pt" height="196pt"
 viewBox="0.00 0.00 600.00 196.00" xmlns="http://www.w3.org/2000/svg" xmlns:xlink="http://www.w3.org/1999/xlink">
<g id="graph0" class="graph" transform="scale(1 1) rotate(0) translate(4 192)">
<title>include/phasar/DataFlow</title>
<g id="clust1" class="cluster">
<title>clusterdir_05d093d0ed3722b9a30705a9449fa665</title>
<g id="a_clust1"><a xlink:href="dir_05d093d0ed3722b9a30705a9449fa665.html" target="_top" xlink:title="phasar">
<polygon fill="#edf0f7" stroke="#7f7f7f" stroke-dasharray="5,2" points="8,-8 8,-180 584,-180 584,-8 8,-8"/>
<text text-anchor="middle" x="296" y="-168" font-family="Helvetica,sans-Serif" font-size="10.00">phasar</text>
</a>
</g>
</g>
<g id="clust2" class="cluster">
<title>clusterdir_69cf206f122d9153ac8b30a0f4a917bf</title>
<g id="a_clust2"><a xlink:href="dir_69cf206f122d9153ac8b30a0f4a917bf.html" target="_top">
<polygon fill="#edf0f7" stroke="#404040" stroke-width="2" points="306,-63 306,-153 516,-153 516,-63 306,-63"/>
</a>
</g>
</g>
<!-- dir_aeca43db7a276eb6dbfba1f93dc4539c -->
<g id="node1" class="node">
<title>dir_aeca43db7a276eb6dbfba1f93dc4539c</title>
<g id="a_node1"><a xlink:href="dir_aeca43db7a276eb6dbfba1f93dc4539c.html" target="_top" xlink:title="Utils">
<polygon fill="#a2b4d6" stroke="#404040" points="336.5,-35 297.5,-35 297.5,-16 336.5,-16 336.5,-35"/>
<text text-anchor="middle" x="317" y="-23" font-family="Helvetica,sans-Serif" font-size="10.00">Utils</text>
</a>
</g>
</g>
<!-- dir_9d06c2f3a5ac32ab80fc048d7ff16b35 -->
<g id="node2" class="node">
<title>dir_9d06c2f3a5ac32ab80fc048d7ff16b35</title>
<g id="a_node2"><a xlink:href="dir_9d06c2f3a5ac32ab80fc048d7ff16b35.html" target="_top" xlink:title="ControlFlow">
<polygon fill="#a2b4d6" stroke="#404040" points="298.5,-90 223.5,-90 223.5,-71 298.5,-71 298.5,-90"/>
<text text-anchor="middle" x="261" y="-78" font-family="Helvetica,sans-Serif" font-size="10.00">ControlFlow</text>
</a>
</g>
</g>
<!-- dir_1f703d4dd1e982897af273349847e927 -->
<g id="node3" class="node">
<title>dir_1f703d4dd1e982897af273349847e927</title>
<g id="a_node3"><a xlink:href="dir_1f703d4dd1e982897af273349847e927.html" target="_top" xlink:title="DB">
<polygon fill="#a2b4d6" stroke="#404040" points="47.5,-90 16.5,-90 16.5,-71 47.5,-71 47.5,-90"/>
<text text-anchor="middle" x="32" y="-78" font-family="Helvetica,sans-Serif" font-size="10.00">DB</text>
</a>
</g>
</g>
<!-- dir_15b1266ec3c6694d64b0cfc160192d3b -->
<g id="node4" class="node">
<title>dir_15b1266ec3c6694d64b0cfc160192d3b</title>
<g id="a_node4"><a xlink:href="dir_15b1266ec3c6694d64b0cfc160192d3b.html" target="_top" xlink:title="Domain">
<polygon fill="#a2b4d6" stroke="#404040" points="120.5,-90 65.5,-90 65.5,-71 120.5,-71 120.5,-90"/>
<text text-anchor="middle" x="93" y="-78" font-family="Helvetica,sans-Serif" font-size="10.00">Domain</text>
</a>
</g>
</g>
<!-- dir_86d6a0ef6fcd04306246bc919bf79e2a -->
<g id="node5" class="node">
<title>dir_86d6a0ef6fcd04306246bc919bf79e2a</title>
<g id="a_node5"><a xlink:href="dir_86d6a0ef6fcd04306246bc919bf79e2a.html" target="_top" xlink:title="Config">
<polygon fill="#a2b4d6" stroke="#404040" points="185.5,-90 138.5,-90 138.5,-71 185.5,-71 185.5,-90"/>
<text text-anchor="middle" x="162" y="-78" font-family="Helvetica,sans-Serif" font-size="10.00">Config</text>
</a>
</g>
</g>
<!-- dir_58a8bb8411baaae7f5177ea38c71ea73 -->
<g id="node6" class="node">
<title>dir_58a8bb8411baaae7f5177ea38c71ea73</title>
<g id="a_node6"><a xlink:href="dir_58a8bb8411baaae7f5177ea38c71ea73.html" target="_top" xlink:title="Pointer">
<polygon fill="#a2b4d6" stroke="#404040" points="575.5,-90 524.5,-90 524.5,-71 575.5,-71 575.5,-90"/>
<text text-anchor="middle" x="550" y="-78" font-family="Helvetica,sans-Serif" font-size="10.00">Pointer</text>
</a>
</g>
</g>
<!-- dir_6556945d274d6e1e874171d9d575b3f4 -->
<g id="node7" class="node">
<title>dir_6556945d274d6e1e874171d9d575b3f4</title>
<g id="a_node7"><a xlink:href="dir_6556945d274d6e1e874171d9d575b3f4.html" target="_top" xlink:title="PhasarLLVM">
<polygon fill="#a2b4d6" stroke="red" points="454.5,-35 379.5,-35 379.5,-16 454.5,-16 454.5,-35"/>
<text text-anchor="middle" x="417" y="-23" font-family="Helvetica,sans-Serif" font-size="10.00">PhasarLLVM</text>
</a>
</g>
</g>
<!-- dir_69cf206f122d9153ac8b30a0f4a917bf -->
<g id="node8" class="node">
<title>dir_69cf206f122d9153ac8b30a0f4a917bf</title>
<text text-anchor="middle" x="476" y="-133" font-family="Helvetica,sans-Serif" font-size="10.00">DataFlow</text>
</g>
<!-- dir_1ba1ec376ff688e17f2e5c57f98f2cf2 -->
<g id="node9" class="node">
<title>dir_1ba1ec376ff688e17f2e5c57f98f2cf2</title>
<g id="a_node9"><a xlink:href="dir_1ba1ec376ff688e17f2e5c57f98f2cf2.html" target="_top" xlink:title="IfdsIde">
<polygon fill="#a2b4d6" stroke="#404040" points="364,-145 314,-145 314,-126 364,-126 364,-145"/>
<text text-anchor="middle" x="339" y="-133" font-family="Helvetica,sans-Serif" font-size="10.00">IfdsIde</text>
</a>
</g>
</g>
<!-- dir_1ba1ec376ff688e17f2e5c57f98f2cf2&#45;&gt;dir_aeca43db7a276eb6dbfba1f93dc4539c -->
<g id="edge5" class="edge">
<title>dir_1ba1ec376ff688e17f2e5c57f98f2cf2&#45;&gt;dir_aeca43db7a276eb6dbfba1f93dc4539c</title>
<g id="a_edge5"><a xlink:href="dir_000014_000039.html" target="_top">
<path fill="none" stroke="#63b8ff" d="M314,-133.57C284.71,-130.99 237.37,-121.8 215,-90 208.09,-80.19 208.09,-72.81 215,-63 231.23,-39.96 263.4,-31.39 287.29,-28.24"/>
<polygon fill="#63b8ff" stroke="#63b8ff" points="287.71,-31.71 297.28,-27.17 286.96,-24.75 287.71,-31.71"/>
</a>
</g>
<g id="a_edge5&#45;headlabel"><a xlink:href="dir_000014_000039.html" target="_top" xlink:title="74">
<text text-anchor="middle" x="284.44" y="-32.42" font-family="Helvetica,sans-Serif" font-size="10.00" fill="#63b8ff">74</text>
</a>
</g>
</g>
<!-- dir_1ba1ec376ff688e17f2e5c57f98f2cf2&#45;&gt;dir_9d06c2f3a5ac32ab80fc048d7ff16b35 -->
<g id="edge4" class="edge">
<title>dir_1ba1ec376ff688e17f2e5c57f98f2cf2&#45;&gt;dir_9d06c2f3a5ac32ab80fc048d7ff16b35</title>
<g id="a_edge4"><a xlink:href="dir_000014_000003.html" target="_top">
<path fill="none" stroke="#63b8ff" d="M326.47,-125.98C314.6,-117.92 296.54,-105.65 282.39,-96.03"/>
<polygon fill="#63b8ff" stroke="#63b8ff" points="284,-92.9 273.76,-90.17 280.06,-98.69 284,-92.9"/>
</a>
</g>
<g id="a_edge4&#45;headlabel"><a xlink:href="dir_000014_000003.html" target="_top" xlink:title="2">
<text text-anchor="middle" x="288.57" y="-90.07" font-family="Helvetica,sans-Serif" font-size="10.00" fill="#63b8ff">2</text>
</a>
</g>
</g>
<!-- dir_1ba1ec376ff688e17f2e5c57f98f2cf2&#45;&gt;dir_1f703d4dd1e982897af273349847e927 -->
<g id="edge2" class="edge">
<title>dir_1ba1ec376ff688e17f2e5c57f98f2cf2&#45;&gt;dir_1f703d4dd1e982897af273349847e927</title>
<g id="a_edge2"><a xlink:href="dir_000014_000007.html" target="_top">
<path fill="none" stroke="#63b8ff" d="M313.82,-131.99C265.76,-126.89 157.62,-113.93 57.7,-89.76"/>
<polygon fill="#63b8ff" stroke="#63b8ff" points="58.3,-86.3 47.75,-87.31 56.62,-93.1 58.3,-86.3"/>
</a>
</g>
<g id="a_edge2&#45;headlabel"><a xlink:href="dir_000014_000007.html" target="_top" xlink:title="4">
<text text-anchor="middle" x="62.47" y="-81.91" font-family="Helvetica,sans-Serif" font-size="10.00" fill="#63b8ff">4</text>
</a>
</g>
</g>
<!-- dir_1ba1ec376ff688e17f2e5c57f98f2cf2&#45;&gt;dir_15b1266ec3c6694d64b0cfc160192d3b -->
<g id="edge1" class="edge">
<title>dir_1ba1ec376ff688e17f2e5c57f98f2cf2&#45;&gt;dir_15b1266ec3c6694d64b0cfc160192d3b</title>
<g id="a_edge1"><a xlink:href="dir_000014_000010.html" target="_top">
<path fill="none" stroke="#63b8ff" d="M313.88,-129.29C276.37,-121.47 203.24,-106.13 131.05,-90.2"/>
<polygon fill="#63b8ff" stroke="#63b8ff" points="131.39,-86.69 120.87,-87.95 129.88,-93.53 131.39,-86.69"/>
</a>
</g>
<g id="a_edge1&#45;headlabel"><a xlink:href="dir_000014_000010.html" target="_top" xlink:title="10">
<text text-anchor="middle" x="135.51" y="-82.2" font-family="Helvetica,sans-Serif" font-size="10.00" fill="#63b8ff">10</text>
</a>
</g>
</g>
<!-- dir_1ba1ec376ff688e17f2e5c57f98f2cf2&#45;&gt;dir_86d6a0ef6fcd04306246bc919bf79e2a -->
<g id="edge3" class="edge">
<title>dir_1ba1ec376ff688e17f2e5c57f98f2cf2&#45;&gt;dir_86d6a0ef6fcd04306246bc919bf79e2a</title>
<g id="a_edge3"><a xlink:href="dir_000014_000001.html" target="_top">
<path fill="none" stroke="#63b8ff" d="M313.64,-126.91C282.49,-117.58 229.58,-101.73 195.21,-91.44"/>
<polygon fill="#63b8ff" stroke="#63b8ff" points="196.2,-88.09 185.62,-88.57 194.19,-94.79 196.2,-88.09"/>
</a>
</g>
<g id="a_edge3&#45;headlabel"><a xlink:href="dir_000014_000001.html" target="_top" xlink:title="2">
<text text-anchor="middle" x="200.46" y="-83.9" font-family="Helvetica,sans-Serif" font-size="10.00" fill="#63b8ff">2</text>
</a>
</g>
</g>
<!-- dir_f6f31373dd45512da8386c416124f795 -->
<g id="node11" class="node">
<title>dir_f6f31373dd45512da8386c416124f795</title>
<g id="a_node11"><a xlink:href="dir_f6f31373dd45512da8386c416124f795.html" target="_top" xlink:title="PathSensitivity">
<polygon fill="#a2b4d6" stroke="#404040" points="424.5,-90 335.5,-90 335.5,-71 424.5,-71 424.5,-90"/>
<text text-anchor="middle" x="380" y="-78" font-family="Helvetica,sans-Serif" font-size="10.00">PathSensitivity</text>
</a>
</g>
</g>
<!-- dir_1ba1ec376ff688e17f2e5c57f98f2cf2&#45;&gt;dir_f6f31373dd45512da8386c416124f795 -->
<g id="edge6" class="edge">
<title>dir_1ba1ec376ff688e17f2e5c57f98f2cf2&#45;&gt;dir_f6f31373dd45512da8386c416124f795</title>
<g id="a_edge6"><a xlink:href="dir_000014_000020.html" target="_top">
<path fill="none" stroke="#63b8ff" d="M340.6,-125.75C344.87,-118.11 353.24,-106.82 361.31,-97.56"/>
<polygon fill="#63b8ff" stroke="#63b8ff" points="364,-99.81 368.22,-90.09 358.87,-95.05 364,-99.81"/>
</a>
</g>
<g id="a_edge6&#45;headlabel"><a xlink:href="dir_000014_000020.html" target="_top" xlink:title="1">
<text text-anchor="middle" x="363.65" y="-101.87" font-family="Helvetica,sans-Serif" font-size="10.00" fill="#63b8ff">1</text>
</a>
</g>
</g>
<!-- dir_a4174b107418faba67c63e7c8c75c1c7 -->
<g id="node10" class="node">
<title>dir_a4174b107418faba67c63e7c8c75c1c7</title>
<g id="a_node10"><a xlink:href="dir_a4174b107418faba67c63e7c8c75c1c7.html" target="_top" xlink:title="Mono">
<polygon fill="#a2b4d6" stroke="#404040" points="426,-145 382,-145 382,-126 426,-126 426,-145"/>
<text text-anchor="middle" x="404" y="-133" font-family="Helvetica,sans-Serif" font-size="10.00">Mono</text>
</a>
</g>
</g>
<!-- dir_a4174b107418faba67c63e7c8c75c1c7&#45;&gt;dir_aeca43db7a276eb6dbfba1f93dc4539c -->
<g id="edge10" class="edge">
<title>dir_a4174b107418faba67c63e7c8c75c1c7&#45;&gt;dir_aeca43db7a276eb6dbfba1f93dc4539c</title>
<g id="a_edge10"><a xlink:href="dir_000017_000039.html" target="_top">
<path fill="none" stroke="#63b8ff" d="M381.71,-127.62C363.97,-120.93 340.02,-108.97 327,-90 318.02,-76.92 315.93,-58.78 315.85,-45.23"/>
<polygon fill="#63b8ff" stroke="#63b8ff" points="319.35,-45.25 316.14,-35.15 312.35,-45.05 319.35,-45.25"/>
</a>
</g>
<g id="a_edge10&#45;headlabel"><a xlink:href="dir_000017_000039.html" target="_top" xlink:title="6">
<text text-anchor="middle" x="322.08" y="-46.43" font-family="Helvetica,sans-Serif" font-size="10.00" fill="#63b8ff">6</text>
</a>
</g>
</g>
<!-- dir_a4174b107418faba67c63e7c8c75c1c7&#45;&gt;dir_9d06c2f3a5ac32ab80fc048d7ff16b35 -->
<g id="edge9" class="edge">
<title>dir_a4174b107418faba67c63e7c8c75c1c7&#45;&gt;dir_9d06c2f3a5ac32ab80fc048d7ff16b35</title>
<g id="a_edge9"><a xlink:href="dir_000017_000003.html" target="_top">
<path fill="none" stroke="#63b8ff" d="M381.97,-126.33C358.39,-117.59 320.72,-103.63 293.68,-93.61"/>
<polygon fill="#63b8ff" stroke="#63b8ff" points="294.84,-90.31 284.24,-90.11 292.4,-96.87 294.84,-90.31"/>
</a>
</g>
<g id="a_edge9&#45;headlabel"><a xlink:href="dir_000017_000003.html" target="_top" xlink:title="2">
<text text-anchor="middle" x="299.19" y="-86.39" font-family="Helvetica,sans-Serif" font-size="10.00" fill="#63b8ff">2</text>
</a>
</g>
</g>
<!-- dir_a4174b107418faba67c63e7c8c75c1c7&#45;&gt;dir_58a8bb8411baaae7f5177ea38c71ea73 -->
<g id="edge7" class="edge">
<title>dir_a4174b107418faba67c63e7c8c75c1c7&#45;&gt;dir_58a8bb8411baaae7f5177ea38c71ea73</title>
<g id="a_edge7"><a xlink:href="dir_000017_000027.html" target="_top">
<path fill="none" stroke="#63b8ff" d="M426.17,-126.45C450.19,-117.73 488.77,-103.73 516.49,-93.67"/>
<polygon fill="#63b8ff" stroke="#63b8ff" points="517.95,-96.86 526.16,-90.15 515.56,-90.28 517.95,-96.86"/>
</a>
</g>
<g id="a_edge7&#45;headlabel"><a xlink:href="dir_000017_000027.html" target="_top" xlink:title="2">
<text text-anchor="middle" x="515.54" y="-98.25" font-family="Helvetica,sans-Serif" font-size="10.00" fill="#63b8ff">2</text>
</a>
</g>
</g>
<!-- dir_a4174b107418faba67c63e7c8c75c1c7&#45;&gt;dir_6556945d274d6e1e874171d9d575b3f4 -->
<g id="edge8" class="edge">
<title>dir_a4174b107418faba67c63e7c8c75c1c7&#45;&gt;dir_6556945d274d6e1e874171d9d575b3f4</title>
<g id="a_edge8"><a xlink:href="dir_000017_000024.html" target="_top">
<path fill="none" stroke="#63b8ff" d="M412.21,-125.8C419.54,-117.38 429.75,-103.9 434,-90 437.51,-78.52 436.59,-74.72 434,-63 432.57,-56.53 429.86,-49.84 427.03,-43.99"/>
<polygon fill="#63b8ff" stroke="#63b8ff" points="430.1,-42.32 422.33,-35.11 423.91,-45.59 430.1,-42.32"/>
</a>
</g>
<g id="a_edge8&#45;headlabel"><a xlink:href="dir_000017_000024.html" target="_top" xlink:title="2">
<text text-anchor="middle" x="434.29" y="-41.67" font-family="Helvetica,sans-Serif" font-size="10.00" fill="#63b8ff">2</text>
</a>
</g>
</g>
<!-- dir_f6f31373dd45512da8386c416124f795&#45;&gt;dir_aeca43db7a276eb6dbfba1f93dc4539c -->
<g id="edge13" class="edge">
<title>dir_f6f31373dd45512da8386c416124f795&#45;&gt;dir_aeca43db7a276eb6dbfba1f93dc4539c</title>
<g id="a_edge13"><a xlink:href="dir_000020_000039.html" target="_top">
<path fill="none" stroke="#63b8ff" d="M369.88,-70.98C360.56,-63.15 346.53,-51.34 335.26,-41.86"/>
<polygon fill="#63b8ff" stroke="#63b8ff" points="337.21,-38.93 327.31,-35.17 332.71,-44.29 337.21,-38.93"/>
</a>
</g>
<g id="a_edge13&#45;headlabel"><a xlink:href="dir_000020_000039.html" target="_top" xlink:title="15">
<text text-anchor="middle" x="341.79" y="-36.57" font-family="Helvetica,sans-Serif" font-size="10.00" fill="#63b8ff">15</text>
</a>
</g>
</g>
<!-- dir_f6f31373dd45512da8386c416124f795&#45;&gt;dir_6556945d274d6e1e874171d9d575b3f4 -->
<g id="edge12" class="edge">
<title>dir_f6f31373dd45512da8386c416124f795&#45;&gt;dir_6556945d274d6e1e874171d9d575b3f4</title>
<g id="a_edge12"><a xlink:href="dir_000020_000024.html" target="_top">
<path fill="none" stroke="#63b8ff" d="M386.11,-70.75C391.28,-63.34 398.85,-52.5 405.19,-43.41"/>
<polygon fill="#63b8ff" stroke="#63b8ff" points="408.15,-45.29 411,-35.09 402.41,-41.29 408.15,-45.29"/>
</a>
</g>
<g id="a_edge12&#45;headlabel"><a xlink:href="dir_000020_000024.html" target="_top" xlink:title="2">
<text text-anchor="middle" x="408.42" y="-47.36" font-family="Helvetica,sans-Serif" font-size="10.00" fill="#63b8ff">2</text>
</a>
</g>
</g>
<!-- dir_f6f31373dd45512da8386c416124f795&#45;&gt;dir_1ba1ec376ff688e17f2e5c57f98f2cf2 -->
<g id="edge11" class="edge">
<title>dir_f6f31373dd45512da8386c416124f795&#45;&gt;dir_1ba1ec376ff688e17f2e5c57f98f2cf2</title>
<g id="a_edge11"><a xlink:href="dir_000020_000014.html" target="_top">
<path fill="none" stroke="#63b8ff" d="M378.49,-90.09C374.28,-97.68 365.94,-108.95 357.86,-118.24"/>
<polygon fill="#63b8ff" stroke="#63b8ff" points="355.14,-116.02 350.94,-125.75 360.29,-120.77 355.14,-116.02"/>
</a>
</g>
<g id="a_edge11&#45;headlabel"><a xlink:href="dir_000020_000014.html" target="_top" xlink:title="2">
<text text-anchor="middle" x="355.49" y="-108.96" font-family="Helvetica,sans-Serif" font-size="10.00" fill="#63b8ff">2</text>
</a>
</g>
</g>
</g>
</svg>
