<?xml version="1.0" encoding="UTF-8" standalone="no"?>
<!DOCTYPE svg PUBLIC "-//W3C//DTD SVG 1.1//EN"
 "http://www.w3.org/Graphics/SVG/1.1/DTD/svg11.dtd">
<!-- Generated by graphviz version 2.43.0 (0)
 -->
<!-- Title: include/phasar/PhasarLLVM/DataFlow/IfdsIde/Problems Pages: 1 -->
<svg width="796pt" height="181pt"
 viewBox="0.00 0.00 796.35 181.06" xmlns="http://www.w3.org/2000/svg" xmlns:xlink="http://www.w3.org/1999/xlink">
<g id="graph0" class="graph" transform="scale(1 1) rotate(0) translate(4 177.06)">
<title>include/phasar/PhasarLLVM/DataFlow/IfdsIde/Problems</title>
<g id="clust1" class="cluster">
<title>clusterdir_a914fe635f43607d3ac935bbff17c46d</title>
<g id="a_clust1"><a xlink:href="dir_a914fe635f43607d3ac935bbff17c46d.html" target="_top" xlink:title="IfdsIde">
<polygon fill="#edf0f7" stroke="#7f7f7f" stroke-dasharray="5,2" points="93.5,-40.06 93.5,-165.06 459.5,-165.06 459.5,-40.06 93.5,-40.06"/>
<text text-anchor="middle" x="276.5" y="-153.06" font-family="Helvetica,sans-Serif" font-size="10.00">IfdsIde</text>
</a>
</g>
</g>
<g id="clust2" class="cluster">
<title>clusterdir_8f2cc0dbdb5107552a837377e8f5f9e3</title>
<g id="a_clust2"><a xlink:href="dir_8f2cc0dbdb5107552a837377e8f5f9e3.html" target="_top">
<polygon fill="#edf0f7" stroke="#404040" stroke-width="2" points="101.5,-48.06 101.5,-138.06 451.5,-138.06 451.5,-48.06 101.5,-48.06"/>
</a>
</g>
</g>
<!-- dir_8f2cc0dbdb5107552a837377e8f5f9e3 -->
<g id="node1" class="node">
<title>dir_8f2cc0dbdb5107552a837377e8f5f9e3</title>
<text text-anchor="middle" x="284.5" y="-118.06" font-family="Helvetica,sans-Serif" font-size="10.00">Problems</text>
</g>
<!-- dir_a33aec843dd0f4d3dcd42c9824ffa99f -->
<g id="node2" class="node">
<title>dir_a33aec843dd0f4d3dcd42c9824ffa99f</title>
<g id="a_node2"><a xlink:href="dir_a33aec843dd0f4d3dcd42c9824ffa99f.html" target="_top" xlink:title="ExtendedTaintAnalysis">
<polygon fill="#a2b4d6" stroke="#404040" points="335,-75.06 208,-75.06 208,-56.06 335,-56.06 335,-75.06"/>
<text text-anchor="middle" x="271.5" y="-63.06" font-family="Helvetica,sans-Serif" font-size="10.00">ExtendedTaintAnalysis</text>
</a>
</g>
</g>
<!-- dir_8f2cc0dbdb5107552a837377e8f5f9e3&#45;&gt;dir_a33aec843dd0f4d3dcd42c9824ffa99f -->
<g id="edge9" class="edge">
<title>dir_8f2cc0dbdb5107552a837377e8f5f9e3&#45;&gt;dir_a33aec843dd0f4d3dcd42c9824ffa99f</title>
<g id="a_edge9"><a xlink:href="dir_000028_000012.html" target="_top">
<path fill="none" stroke="#63b8ff" d="M282.35,-110.81C280.63,-103.79 278.15,-93.68 276,-84.91"/>
<polygon fill="#63b8ff" stroke="#63b8ff" points="279.39,-84.03 273.61,-75.15 272.59,-85.7 279.39,-84.03"/>
</a>
</g>
<g id="a_edge9&#45;headlabel"><a xlink:href="dir_000028_000012.html" target="_top" xlink:title="5">
<text text-anchor="middle" x="283" y="-84.34" font-family="Helvetica,sans-Serif" font-size="10.00" fill="#63b8ff">5</text>
</a>
</g>
</g>
<!-- dir_0133e64b3a4c854b47f86a7b8e0c9983 -->
<g id="node5" class="node">
<title>dir_0133e64b3a4c854b47f86a7b8e0c9983</title>
<g id="a_node5"><a xlink:href="dir_0133e64b3a4c854b47f86a7b8e0c9983.html" target="_top" xlink:title="Pointer">
<polygon fill="#edf0f7" stroke="red" stroke-dasharray="5,2" points="245,-20.06 194,-20.06 194,-1.06 245,-1.06 245,-20.06"/>
<text text-anchor="middle" x="219.5" y="-8.06" font-family="Helvetica,sans-Serif" font-size="10.00">Pointer</text>
</a>
</g>
</g>
<!-- dir_8f2cc0dbdb5107552a837377e8f5f9e3&#45;&gt;dir_0133e64b3a4c854b47f86a7b8e0c9983 -->
<g id="edge1" class="edge">
<title>dir_8f2cc0dbdb5107552a837377e8f5f9e3&#45;&gt;dir_0133e64b3a4c854b47f86a7b8e0c9983</title>
<g id="a_edge1"><a xlink:href="dir_000028_000026.html" target="_top">
<path fill="none" stroke="#63b8ff" d="M253.36,-112.27C233.91,-105.93 210.38,-94.59 198.5,-75.06 190.41,-61.77 193.64,-54.84 198.5,-40.06 199.84,-35.97 202.02,-31.99 204.48,-28.36"/>
<polygon fill="#63b8ff" stroke="#63b8ff" points="207.45,-30.24 210.84,-20.21 201.93,-25.94 207.45,-30.24"/>
</a>
</g>
<g id="a_edge1&#45;headlabel"><a xlink:href="dir_000028_000026.html" target="_top" xlink:title="8">
<text text-anchor="middle" x="207.48" y="-32.32" font-family="Helvetica,sans-Serif" font-size="10.00" fill="#63b8ff">8</text>
</a>
</g>
</g>
<!-- dir_079f3dfffeb9e770010097b0dd1334eb -->
<g id="node6" class="node">
<title>dir_079f3dfffeb9e770010097b0dd1334eb</title>
<g id="a_node6"><a xlink:href="dir_079f3dfffeb9e770010097b0dd1334eb.html" target="_top" xlink:title="Utils">
<polygon fill="#edf0f7" stroke="#7f7f7f" points="149,-20.06 110,-20.06 110,-1.06 149,-1.06 149,-20.06"/>
<text text-anchor="middle" x="129.5" y="-8.06" font-family="Helvetica,sans-Serif" font-size="10.00">Utils</text>
</a>
</g>
</g>
<!-- dir_8f2cc0dbdb5107552a837377e8f5f9e3&#45;&gt;dir_079f3dfffeb9e770010097b0dd1334eb -->
<g id="edge2" class="edge">
<title>dir_8f2cc0dbdb5107552a837377e8f5f9e3&#45;&gt;dir_079f3dfffeb9e770010097b0dd1334eb</title>
<g id="a_edge2"><a xlink:href="dir_000028_000038.html" target="_top">
<path fill="none" stroke="#63b8ff" d="M260.41,-110.97C240.6,-103.27 212.34,-90.78 190.5,-75.06 171.8,-61.6 153.97,-41.98 142.48,-28.12"/>
<polygon fill="#63b8ff" stroke="#63b8ff" points="145.19,-25.91 136.18,-20.34 139.75,-30.31 145.19,-25.91"/>
</a>
</g>
<g id="a_edge2&#45;headlabel"><a xlink:href="dir_000028_000038.html" target="_top" xlink:title="7">
<text text-anchor="middle" x="149.66" y="-24.42" font-family="Helvetica,sans-Serif" font-size="10.00" fill="#63b8ff">7</text>
</a>
</g>
</g>
<!-- dir_0bc4dee926a629f715a9261d8d248ef6 -->
<g id="node7" class="node">
<title>dir_0bc4dee926a629f715a9261d8d248ef6</title>
<g id="a_node7"><a xlink:href="dir_0bc4dee926a629f715a9261d8d248ef6.html" target="_top" xlink:title="ControlFlow">
<polygon fill="#edf0f7" stroke="red" stroke-dasharray="5,2" points="681,-75.06 606,-75.06 606,-56.06 681,-56.06 681,-75.06"/>
<text text-anchor="middle" x="643.5" y="-63.06" font-family="Helvetica,sans-Serif" font-size="10.00">ControlFlow</text>
</a>
</g>
</g>
<!-- dir_8f2cc0dbdb5107552a837377e8f5f9e3&#45;&gt;dir_0bc4dee926a629f715a9261d8d248ef6 -->
<g id="edge3" class="edge">
<title>dir_8f2cc0dbdb5107552a837377e8f5f9e3&#45;&gt;dir_0bc4dee926a629f715a9261d8d248ef6</title>
<g id="a_edge3"><a xlink:href="dir_000028_000004.html" target="_top">
<path fill="none" stroke="#63b8ff" d="M315.9,-112.65C318.8,-112.08 321.7,-111.54 324.5,-111.06 441.93,-90.87 474.9,-94 595.85,-75.25"/>
<polygon fill="#63b8ff" stroke="#63b8ff" points="596.53,-78.69 605.87,-73.68 595.45,-71.77 596.53,-78.69"/>
</a>
</g>
<g id="a_edge3&#45;headlabel"><a xlink:href="dir_000028_000004.html" target="_top" xlink:title="4">
<text text-anchor="middle" x="593.42" y="-79.55" font-family="Helvetica,sans-Serif" font-size="10.00" fill="#63b8ff">4</text>
</a>
</g>
</g>
<!-- dir_15b1266ec3c6694d64b0cfc160192d3b -->
<g id="node8" class="node">
<title>dir_15b1266ec3c6694d64b0cfc160192d3b</title>
<g id="a_node8"><a xlink:href="dir_15b1266ec3c6694d64b0cfc160192d3b.html" target="_top" xlink:title="Domain">
<polygon fill="#edf0f7" stroke="#7f7f7f" points="55,-20.06 0,-20.06 0,-1.06 55,-1.06 55,-20.06"/>
<text text-anchor="middle" x="27.5" y="-8.06" font-family="Helvetica,sans-Serif" font-size="10.00">Domain</text>
</a>
</g>
</g>
<!-- dir_8f2cc0dbdb5107552a837377e8f5f9e3&#45;&gt;dir_15b1266ec3c6694d64b0cfc160192d3b -->
<g id="edge4" class="edge">
<title>dir_8f2cc0dbdb5107552a837377e8f5f9e3&#45;&gt;dir_15b1266ec3c6694d64b0cfc160192d3b</title>
<g id="a_edge4"><a xlink:href="dir_000028_000010.html" target="_top">
<path fill="none" stroke="#63b8ff" d="M254.47,-111.05C226.98,-102.93 185.4,-89.76 150.5,-75.06 114.91,-60.07 75.55,-38.89 51.16,-25.18"/>
<polygon fill="#63b8ff" stroke="#63b8ff" points="52.71,-22.04 42.29,-20.16 49.26,-28.13 52.71,-22.04"/>
</a>
</g>
<g id="a_edge4&#45;headlabel"><a xlink:href="dir_000028_000010.html" target="_top" xlink:title="7">
<text text-anchor="middle" x="57.24" y="-18.84" font-family="Helvetica,sans-Serif" font-size="10.00" fill="#63b8ff">7</text>
</a>
</g>
</g>
<!-- dir_189eb8c36ffce94640b9d816bc05823d -->
<g id="node9" class="node">
<title>dir_189eb8c36ffce94640b9d816bc05823d</title>
<g id="a_node9"><a xlink:href="dir_189eb8c36ffce94640b9d816bc05823d.html" target="_top" xlink:title="Domain">
<polygon fill="#edf0f7" stroke="#7f7f7f" points="754,-75.06 699,-75.06 699,-56.06 754,-56.06 754,-75.06"/>
<text text-anchor="middle" x="726.5" y="-63.06" font-family="Helvetica,sans-Serif" font-size="10.00">Domain</text>
</a>
</g>
</g>
<!-- dir_8f2cc0dbdb5107552a837377e8f5f9e3&#45;&gt;dir_189eb8c36ffce94640b9d816bc05823d -->
<g id="edge5" class="edge">
<title>dir_8f2cc0dbdb5107552a837377e8f5f9e3&#45;&gt;dir_189eb8c36ffce94640b9d816bc05823d</title>
<g id="a_edge5"><a xlink:href="dir_000028_000011.html" target="_top">
<path fill="none" stroke="#63b8ff" d="M315.88,-112.55C318.79,-112 321.69,-111.5 324.5,-111.06 482.71,-86.55 527.44,-101.27 688.4,-75.21"/>
<polygon fill="#63b8ff" stroke="#63b8ff" points="689.37,-78.6 698.67,-73.52 688.23,-71.69 689.37,-78.6"/>
</a>
</g>
<g id="a_edge5&#45;headlabel"><a xlink:href="dir_000028_000011.html" target="_top" xlink:title="17">
<text text-anchor="middle" x="686.28" y="-79.49" font-family="Helvetica,sans-Serif" font-size="10.00" fill="#63b8ff">17</text>
</a>
</g>
</g>
<!-- dir_63e7bb0cb88dc7cebeab7c37a85fbe32 -->
<g id="node10" class="node">
<title>dir_63e7bb0cb88dc7cebeab7c37a85fbe32</title>
<g id="a_node10"><a xlink:href="dir_63e7bb0cb88dc7cebeab7c37a85fbe32.html" target="_top" xlink:title="TaintConfig">
<polygon fill="#edf0f7" stroke="#7f7f7f" points="539,-75.06 468,-75.06 468,-56.06 539,-56.06 539,-75.06"/>
<text text-anchor="middle" x="503.5" y="-63.06" font-family="Helvetica,sans-Serif" font-size="10.00">TaintConfig</text>
</a>
</g>
</g>
<!-- dir_8f2cc0dbdb5107552a837377e8f5f9e3&#45;&gt;dir_63e7bb0cb88dc7cebeab7c37a85fbe32 -->
<g id="edge6" class="edge">
<title>dir_8f2cc0dbdb5107552a837377e8f5f9e3&#45;&gt;dir_63e7bb0cb88dc7cebeab7c37a85fbe32</title>
<g id="a_edge6"><a xlink:href="dir_000028_000034.html" target="_top">
<path fill="none" stroke="#63b8ff" d="M315.88,-111.97C353.21,-102.93 415.84,-87.78 458.37,-77.48"/>
<polygon fill="#63b8ff" stroke="#63b8ff" points="459.29,-80.86 468.19,-75.11 457.65,-74.06 459.29,-80.86"/>
</a>
</g>
<g id="a_edge6&#45;headlabel"><a xlink:href="dir_000028_000034.html" target="_top" xlink:title="1">
<text text-anchor="middle" x="456.47" y="-81.97" font-family="Helvetica,sans-Serif" font-size="10.00" fill="#63b8ff">1</text>
</a>
</g>
</g>
<!-- dir_68aec2623aad94785c017c13c687e045 -->
<g id="node11" class="node">
<title>dir_68aec2623aad94785c017c13c687e045</title>
<g id="a_node11"><a xlink:href="dir_68aec2623aad94785c017c13c687e045.html" target="_top" xlink:title="DB">
<polygon fill="#edf0f7" stroke="#7f7f7f" points="588,-75.06 557,-75.06 557,-56.06 588,-56.06 588,-75.06"/>
<text text-anchor="middle" x="572.5" y="-63.06" font-family="Helvetica,sans-Serif" font-size="10.00">DB</text>
</a>
</g>
</g>
<!-- dir_8f2cc0dbdb5107552a837377e8f5f9e3&#45;&gt;dir_68aec2623aad94785c017c13c687e045 -->
<g id="edge7" class="edge">
<title>dir_8f2cc0dbdb5107552a837377e8f5f9e3&#45;&gt;dir_68aec2623aad94785c017c13c687e045</title>
<g id="a_edge7"><a xlink:href="dir_000028_000008.html" target="_top">
<path fill="none" stroke="#63b8ff" d="M315.91,-112.73C318.81,-112.15 321.71,-111.58 324.5,-111.06 420.53,-93.15 449.03,-99.56 547.16,-75.02"/>
<polygon fill="#63b8ff" stroke="#63b8ff" points="548.05,-78.41 556.88,-72.55 546.32,-71.63 548.05,-78.41"/>
</a>
</g>
<g id="a_edge7&#45;headlabel"><a xlink:href="dir_000028_000008.html" target="_top" xlink:title="3">
<text text-anchor="middle" x="545.26" y="-79.55" font-family="Helvetica,sans-Serif" font-size="10.00" fill="#63b8ff">3</text>
</a>
</g>
</g>
<!-- dir_69cf206f122d9153ac8b30a0f4a917bf -->
<g id="node12" class="node">
<title>dir_69cf206f122d9153ac8b30a0f4a917bf</title>
<g id="a_node12"><a xlink:href="dir_69cf206f122d9153ac8b30a0f4a917bf.html" target="_top" xlink:title="DataFlow">
<polygon fill="#edf0f7" stroke="red" stroke-dasharray="5,2" points="398,-20.06 335,-20.06 335,-1.06 398,-1.06 398,-20.06"/>
<text text-anchor="middle" x="366.5" y="-8.06" font-family="Helvetica,sans-Serif" font-size="10.00">DataFlow</text>
</a>
</g>
</g>
<!-- dir_8f2cc0dbdb5107552a837377e8f5f9e3&#45;&gt;dir_69cf206f122d9153ac8b30a0f4a917bf -->
<g id="edge8" class="edge">
<title>dir_8f2cc0dbdb5107552a837377e8f5f9e3&#45;&gt;dir_69cf206f122d9153ac8b30a0f4a917bf</title>
<g id="a_edge8"><a xlink:href="dir_000028_000005.html" target="_top">
<path fill="none" stroke="#63b8ff" d="M315.8,-113.62C337.2,-107.74 364.05,-96.41 377.5,-75.06 386.15,-61.33 381.47,-42.78 375.78,-29.27"/>
<polygon fill="#63b8ff" stroke="#63b8ff" points="378.88,-27.64 371.45,-20.09 372.55,-30.63 378.88,-27.64"/>
</a>
</g>
<g id="a_edge8&#45;headlabel"><a xlink:href="dir_000028_000005.html" target="_top" xlink:title="41">
<text text-anchor="middle" x="382.99" y="-27.18" font-family="Helvetica,sans-Serif" font-size="10.00" fill="#63b8ff">41</text>
</a>
</g>
</g>
<!-- dir_aeca43db7a276eb6dbfba1f93dc4539c -->
<g id="node13" class="node">
<title>dir_aeca43db7a276eb6dbfba1f93dc4539c</title>
<g id="a_node13"><a xlink:href="dir_aeca43db7a276eb6dbfba1f93dc4539c.html" target="_top" xlink:title="Utils">
<polygon fill="#edf0f7" stroke="#7f7f7f" points="459,-20.06 420,-20.06 420,-1.06 459,-1.06 459,-20.06"/>
<text text-anchor="middle" x="439.5" y="-8.06" font-family="Helvetica,sans-Serif" font-size="10.00">Utils</text>
</a>
</g>
</g>
<!-- dir_8f2cc0dbdb5107552a837377e8f5f9e3&#45;&gt;dir_aeca43db7a276eb6dbfba1f93dc4539c -->
<g id="edge10" class="edge">
<title>dir_8f2cc0dbdb5107552a837377e8f5f9e3&#45;&gt;dir_aeca43db7a276eb6dbfba1f93dc4539c</title>
<g id="a_edge10"><a xlink:href="dir_000028_000039.html" target="_top">
<path fill="none" stroke="#63b8ff" d="M315.54,-111.9C338.76,-105.05 370.35,-93.24 393.5,-75.06 409.35,-62.61 422.25,-43.32 430.32,-29.27"/>
<polygon fill="#63b8ff" stroke="#63b8ff" points="433.58,-30.59 435.31,-20.13 427.44,-27.23 433.58,-30.59"/>
</a>
</g>
<g id="a_edge10&#45;headlabel"><a xlink:href="dir_000028_000039.html" target="_top" xlink:title="18">
<text text-anchor="middle" x="434.35" y="-32.6" font-family="Helvetica,sans-Serif" font-size="10.00" fill="#63b8ff">18</text>
</a>
</g>
</g>
<!-- dir_a33aec843dd0f4d3dcd42c9824ffa99f&#45;&gt;dir_0133e64b3a4c854b47f86a7b8e0c9983 -->
<g id="edge11" class="edge">
<title>dir_a33aec843dd0f4d3dcd42c9824ffa99f&#45;&gt;dir_0133e64b3a4c854b47f86a7b8e0c9983</title>
<g id="a_edge11"><a xlink:href="dir_000012_000026.html" target="_top">
<path fill="none" stroke="#63b8ff" d="M262.91,-55.81C255.34,-48.09 244.12,-36.66 234.99,-27.34"/>
<polygon fill="#63b8ff" stroke="#63b8ff" points="237.43,-24.84 227.93,-20.15 232.43,-29.74 237.43,-24.84"/>
</a>
</g>
<g id="a_edge11&#45;headlabel"><a xlink:href="dir_000012_000026.html" target="_top" xlink:title="1">
<text text-anchor="middle" x="241.97" y="-22.91" font-family="Helvetica,sans-Serif" font-size="10.00" fill="#63b8ff">1</text>
</a>
</g>
</g>
<!-- dir_a33aec843dd0f4d3dcd42c9824ffa99f&#45;&gt;dir_079f3dfffeb9e770010097b0dd1334eb -->
<g id="edge12" class="edge">
<title>dir_a33aec843dd0f4d3dcd42c9824ffa99f&#45;&gt;dir_079f3dfffeb9e770010097b0dd1334eb</title>
<g id="a_edge12"><a xlink:href="dir_000012_000038.html" target="_top">
<path fill="none" stroke="#63b8ff" d="M248.69,-56.05C224.22,-46.91 185.29,-32.38 158.62,-22.43"/>
<polygon fill="#63b8ff" stroke="#63b8ff" points="159.65,-19.08 149.06,-18.86 157.2,-25.64 159.65,-19.08"/>
</a>
</g>
<g id="a_edge12&#45;headlabel"><a xlink:href="dir_000012_000038.html" target="_top" xlink:title="1">
<text text-anchor="middle" x="164.01" y="-15.18" font-family="Helvetica,sans-Serif" font-size="10.00" fill="#63b8ff">1</text>
</a>
</g>
</g>
<!-- dir_a33aec843dd0f4d3dcd42c9824ffa99f&#45;&gt;dir_15b1266ec3c6694d64b0cfc160192d3b -->
<g id="edge13" class="edge">
<title>dir_a33aec843dd0f4d3dcd42c9824ffa99f&#45;&gt;dir_15b1266ec3c6694d64b0cfc160192d3b</title>
<g id="a_edge13"><a xlink:href="dir_000012_000010.html" target="_top">
<path fill="none" stroke="#63b8ff" d="M232.3,-56.05C186.31,-46.06 110.59,-29.61 65.24,-19.76"/>
<polygon fill="#63b8ff" stroke="#63b8ff" points="65.74,-16.29 55.22,-17.58 64.25,-23.13 65.74,-16.29"/>
</a>
</g>
<g id="a_edge13&#45;headlabel"><a xlink:href="dir_000012_000010.html" target="_top" xlink:title="2">
<text text-anchor="middle" x="69.85" y="-11.77" font-family="Helvetica,sans-Serif" font-size="10.00" fill="#63b8ff">2</text>
</a>
</g>
</g>
<!-- dir_a33aec843dd0f4d3dcd42c9824ffa99f&#45;&gt;dir_69cf206f122d9153ac8b30a0f4a917bf -->
<g id="edge14" class="edge">
<title>dir_a33aec843dd0f4d3dcd42c9824ffa99f&#45;&gt;dir_69cf206f122d9153ac8b30a0f4a917bf</title>
<g id="a_edge14"><a xlink:href="dir_000012_000005.html" target="_top">
<path fill="none" stroke="#63b8ff" d="M286.76,-56.05C301.63,-47.75 324.48,-35 341.92,-25.28"/>
<polygon fill="#63b8ff" stroke="#63b8ff" points="343.93,-28.16 350.96,-20.23 340.52,-22.05 343.93,-28.16"/>
</a>
</g>
<g id="a_edge14&#45;headlabel"><a xlink:href="dir_000012_000005.html" target="_top" xlink:title="5">
<text text-anchor="middle" x="342.18" y="-29.89" font-family="Helvetica,sans-Serif" font-size="10.00" fill="#63b8ff">5</text>
</a>
</g>
</g>
<!-- dir_a33aec843dd0f4d3dcd42c9824ffa99f&#45;&gt;dir_aeca43db7a276eb6dbfba1f93dc4539c -->
<g id="edge15" class="edge">
<title>dir_a33aec843dd0f4d3dcd42c9824ffa99f&#45;&gt;dir_aeca43db7a276eb6dbfba1f93dc4539c</title>
<g id="a_edge15"><a xlink:href="dir_000012_000039.html" target="_top">
<path fill="none" stroke="#63b8ff" d="M298.49,-56.05C328.99,-46.42 378.48,-30.81 409.98,-20.87"/>
<polygon fill="#63b8ff" stroke="#63b8ff" points="411.44,-24.08 419.92,-17.74 409.33,-17.41 411.44,-24.08"/>
</a>
</g>
<g id="a_edge15&#45;headlabel"><a xlink:href="dir_000012_000039.html" target="_top" xlink:title="5">
<text text-anchor="middle" x="408.87" y="-25.37" font-family="Helvetica,sans-Serif" font-size="10.00" fill="#63b8ff">5</text>
</a>
</g>
</g>
<!-- dir_4702b0d9c546fd2d1801312a9ade3e5b -->
<g id="node3" class="node">
<title>dir_4702b0d9c546fd2d1801312a9ade3e5b</title>
<g id="a_node3"><a xlink:href="dir_4702b0d9c546fd2d1801312a9ade3e5b.html" target="_top" xlink:title="IDEGeneralizedLCA">
<polygon fill="#a2b4d6" stroke="#404040" points="443.5,-130.06 333.5,-130.06 333.5,-111.06 443.5,-111.06 443.5,-130.06"/>
<text text-anchor="middle" x="388.5" y="-118.06" font-family="Helvetica,sans-Serif" font-size="10.00">IDEGeneralizedLCA</text>
</a>
</g>
</g>
<!-- dir_4702b0d9c546fd2d1801312a9ade3e5b&#45;&gt;dir_079f3dfffeb9e770010097b0dd1334eb -->
<g id="edge16" class="edge">
<title>dir_4702b0d9c546fd2d1801312a9ade3e5b&#45;&gt;dir_079f3dfffeb9e770010097b0dd1334eb</title>
<g id="a_edge16"><a xlink:href="dir_000013_000038.html" target="_top">
<path fill="none" stroke="#63b8ff" d="M337.39,-111.02C289.48,-102.41 221.84,-88.5 198.5,-75.06 179.97,-64.39 181.26,-54.51 165.5,-40.06 160.41,-35.39 154.64,-30.62 149.24,-26.35"/>
<polygon fill="#63b8ff" stroke="#63b8ff" points="151.25,-23.48 141.2,-20.14 146.97,-29.02 151.25,-23.48"/>
</a>
</g>
<g id="a_edge16&#45;headlabel"><a xlink:href="dir_000013_000038.html" target="_top" xlink:title="1">
<text text-anchor="middle" x="155.83" y="-20.93" font-family="Helvetica,sans-Serif" font-size="10.00" fill="#63b8ff">1</text>
</a>
</g>
</g>
<!-- dir_4702b0d9c546fd2d1801312a9ade3e5b&#45;&gt;dir_0bc4dee926a629f715a9261d8d248ef6 -->
<g id="edge17" class="edge">
<title>dir_4702b0d9c546fd2d1801312a9ade3e5b&#45;&gt;dir_0bc4dee926a629f715a9261d8d248ef6</title>
<g id="a_edge17"><a xlink:href="dir_000013_000004.html" target="_top">
<path fill="none" stroke="#63b8ff" d="M429.47,-111.05C474.95,-101.59 548.23,-86.36 596.14,-76.41"/>
<polygon fill="#63b8ff" stroke="#63b8ff" points="596.88,-79.83 605.96,-74.36 595.45,-72.97 596.88,-79.83"/>
</a>
</g>
<g id="a_edge17&#45;headlabel"><a xlink:href="dir_000013_000004.html" target="_top" xlink:title="1">
<text text-anchor="middle" x="593.94" y="-80.84" font-family="Helvetica,sans-Serif" font-size="10.00" fill="#63b8ff">1</text>
</a>
</g>
</g>
<!-- dir_4702b0d9c546fd2d1801312a9ade3e5b&#45;&gt;dir_189eb8c36ffce94640b9d816bc05823d -->
<g id="edge18" class="edge">
<title>dir_4702b0d9c546fd2d1801312a9ade3e5b&#45;&gt;dir_189eb8c36ffce94640b9d816bc05823d</title>
<g id="a_edge18"><a xlink:href="dir_000013_000011.html" target="_top">
<path fill="none" stroke="#63b8ff" d="M443.57,-112.89C502.15,-105.46 597.73,-92.43 688.72,-75.28"/>
<polygon fill="#63b8ff" stroke="#63b8ff" points="689.47,-78.7 698.64,-73.39 688.16,-71.82 689.47,-78.7"/>
</a>
</g>
<g id="a_edge18&#45;headlabel"><a xlink:href="dir_000013_000011.html" target="_top" xlink:title="2">
<text text-anchor="middle" x="686.47" y="-79.66" font-family="Helvetica,sans-Serif" font-size="10.00" fill="#63b8ff">2</text>
</a>
</g>
</g>
<!-- dir_4702b0d9c546fd2d1801312a9ade3e5b&#45;&gt;dir_69cf206f122d9153ac8b30a0f4a917bf -->
<g id="edge19" class="edge">
<title>dir_4702b0d9c546fd2d1801312a9ade3e5b&#45;&gt;dir_69cf206f122d9153ac8b30a0f4a917bf</title>
<g id="a_edge19"><a xlink:href="dir_000013_000005.html" target="_top">
<path fill="none" stroke="#63b8ff" d="M443.56,-117C542.63,-111.82 742.63,-98.56 763.5,-75.06 773.83,-63.43 774.18,-51.37 763.5,-40.06 736.6,-11.59 450.38,-24.82 411.5,-20.06 410.43,-19.93 409.36,-19.79 408.27,-19.64"/>
<polygon fill="#63b8ff" stroke="#63b8ff" points="408.8,-16.18 398.38,-18.11 407.73,-23.1 408.8,-16.18"/>
</a>
</g>
<g id="a_edge19&#45;headlabel"><a xlink:href="dir_000013_000005.html" target="_top" xlink:title="9">
<text text-anchor="middle" x="412.78" y="-11.42" font-family="Helvetica,sans-Serif" font-size="10.00" fill="#63b8ff">9</text>
</a>
</g>
</g>
<!-- dir_4702b0d9c546fd2d1801312a9ade3e5b&#45;&gt;dir_aeca43db7a276eb6dbfba1f93dc4539c -->
<g id="edge20" class="edge">
<title>dir_4702b0d9c546fd2d1801312a9ade3e5b&#45;&gt;dir_aeca43db7a276eb6dbfba1f93dc4539c</title>
<g id="a_edge20"><a xlink:href="dir_000013_000039.html" target="_top">
<path fill="none" stroke="#63b8ff" d="M443.64,-117.3C546.32,-112.52 758.46,-99.74 780.5,-75.06 790.86,-63.46 791.03,-51.51 780.5,-40.06 759.66,-17.41 549.07,-12.75 469.62,-11.8"/>
<polygon fill="#63b8ff" stroke="#63b8ff" points="469.35,-8.3 459.31,-11.69 469.27,-15.3 469.35,-8.3"/>
</a>
</g>
<g id="a_edge20&#45;headlabel"><a xlink:href="dir_000013_000039.html" target="_top" xlink:title="2">
<text text-anchor="middle" x="472.97" y="-3" font-family="Helvetica,sans-Serif" font-size="10.00" fill="#63b8ff">2</text>
</a>
</g>
</g>
<!-- dir_0115e31b37e371af800ae3b4d406b9c6 -->
<g id="node4" class="node">
<title>dir_0115e31b37e371af800ae3b4d406b9c6</title>
<g id="a_node4"><a xlink:href="dir_0115e31b37e371af800ae3b4d406b9c6.html" target="_top" xlink:title="TypeStateDescriptions">
<polygon fill="#a2b4d6" stroke="#404040" points="235,-130.06 110,-130.06 110,-111.06 235,-111.06 235,-130.06"/>
<text text-anchor="middle" x="172.5" y="-118.06" font-family="Helvetica,sans-Serif" font-size="10.00">TypeStateDescriptions</text>
</a>
</g>
</g>
<!-- dir_0115e31b37e371af800ae3b4d406b9c6&#45;&gt;dir_079f3dfffeb9e770010097b0dd1334eb -->
<g id="edge21" class="edge">
<title>dir_0115e31b37e371af800ae3b4d406b9c6&#45;&gt;dir_079f3dfffeb9e770010097b0dd1334eb</title>
<g id="a_edge21"><a xlink:href="dir_000037_000038.html" target="_top">
<path fill="none" stroke="#63b8ff" d="M139.48,-110.93C121.32,-104.32 100.33,-93.16 89.5,-75.06 81.51,-61.71 82.37,-53.89 89.5,-40.06 92.35,-34.53 96.83,-29.83 101.78,-25.94"/>
<polygon fill="#63b8ff" stroke="#63b8ff" points="104.01,-28.66 110.34,-20.16 100.1,-22.86 104.01,-28.66"/>
</a>
</g>
<g id="a_edge21&#45;headlabel"><a xlink:href="dir_000037_000038.html" target="_top" xlink:title="1">
<text text-anchor="middle" x="102.62" y="-30.52" font-family="Helvetica,sans-Serif" font-size="10.00" fill="#63b8ff">1</text>
</a>
</g>
</g>
<!-- dir_0115e31b37e371af800ae3b4d406b9c6&#45;&gt;dir_15b1266ec3c6694d64b0cfc160192d3b -->
<g id="edge22" class="edge">
<title>dir_0115e31b37e371af800ae3b4d406b9c6&#45;&gt;dir_15b1266ec3c6694d64b0cfc160192d3b</title>
<g id="a_edge22"><a xlink:href="dir_000037_000010.html" target="_top">
<path fill="none" stroke="#63b8ff" d="M115.83,-111.06C75.4,-103.7 26.06,-91.62 13.5,-75.06 3.51,-61.89 9.53,-43.01 16.51,-29.26"/>
<polygon fill="#63b8ff" stroke="#63b8ff" points="19.7,-30.74 21.55,-20.31 13.6,-27.3 19.7,-30.74"/>
</a>
</g>
<g id="a_edge22&#45;headlabel"><a xlink:href="dir_000037_000010.html" target="_top" xlink:title="2">
<text text-anchor="middle" x="20.41" y="-32.76" font-family="Helvetica,sans-Serif" font-size="10.00" fill="#63b8ff">2</text>
</a>
</g>
</g>
<!-- dir_0115e31b37e371af800ae3b4d406b9c6&#45;&gt;dir_69cf206f122d9153ac8b30a0f4a917bf -->
<g id="edge23" class="edge">
<title>dir_0115e31b37e371af800ae3b4d406b9c6&#45;&gt;dir_69cf206f122d9153ac8b30a0f4a917bf</title>
<g id="a_edge23"><a xlink:href="dir_000037_000005.html" target="_top">
<path fill="none" stroke="#63b8ff" d="M226.99,-111.04C270.34,-103.26 326.44,-90.61 343.5,-75.06 356.08,-63.6 361.79,-44.71 364.38,-30.51"/>
<polygon fill="#63b8ff" stroke="#63b8ff" points="367.88,-30.76 365.85,-20.36 360.95,-29.75 367.88,-30.76"/>
</a>
</g>
<g id="a_edge23&#45;headlabel"><a xlink:href="dir_000037_000005.html" target="_top" xlink:title="2">
<text text-anchor="middle" x="370.17" y="-32.22" font-family="Helvetica,sans-Serif" font-size="10.00" fill="#63b8ff">2</text>
</a>
</g>
</g>
</g>
</svg>
