<?xml version="1.0" encoding="UTF-8" standalone="no"?>
<!DOCTYPE svg PUBLIC "-//W3C//DTD SVG 1.1//EN"
 "http://www.w3.org/Graphics/SVG/1.1/DTD/svg11.dtd">
<!-- Generated by graphviz version 2.43.0 (0)
 -->
<!-- Title: include/phasar/DataFlow/IfdsIde Pages: 1 -->
<svg width="450pt" height="196pt"
 viewBox="0.00 0.00 449.50 196.00" xmlns="http://www.w3.org/2000/svg" xmlns:xlink="http://www.w3.org/1999/xlink">
<g id="graph0" class="graph" transform="scale(1 1) rotate(0) translate(4 192)">
<title>include/phasar/DataFlow/IfdsIde</title>
<g id="clust1" class="cluster">
<title>clusterdir_69cf206f122d9153ac8b30a0f4a917bf</title>
<g id="a_clust1"><a xlink:href="dir_69cf206f122d9153ac8b30a0f4a917bf.html" target="_top" xlink:title="DataFlow">
<polygon fill="#edf0f7" stroke="#7f7f7f" stroke-dasharray="5,2" points="8,-8 8,-180 112,-180 112,-8 8,-8"/>
<text text-anchor="middle" x="60" y="-168" font-family="Helvetica,sans-Serif" font-size="10.00">DataFlow</text>
</a>
</g>
</g>
<g id="clust2" class="cluster">
<title>clusterdir_1ba1ec376ff688e17f2e5c57f98f2cf2</title>
<g id="a_clust2"><a xlink:href="dir_1ba1ec376ff688e17f2e5c57f98f2cf2.html" target="_top">
<polygon fill="#edf0f7" stroke="#404040" stroke-width="2" points="38,-63 38,-153 104,-153 104,-63 38,-63"/>
</a>
</g>
</g>
<!-- dir_f6f31373dd45512da8386c416124f795 -->
<g id="node1" class="node">
<title>dir_f6f31373dd45512da8386c416124f795</title>
<g id="a_node1"><a xlink:href="dir_f6f31373dd45512da8386c416124f795.html" target="_top" xlink:title="PathSensitivity">
<polygon fill="#a2b4d6" stroke="#404040" points="104.5,-35 15.5,-35 15.5,-16 104.5,-16 104.5,-35"/>
<text text-anchor="middle" x="60" y="-23" font-family="Helvetica,sans-Serif" font-size="10.00">PathSensitivity</text>
</a>
</g>
</g>
<!-- dir_1ba1ec376ff688e17f2e5c57f98f2cf2 -->
<g id="node2" class="node">
<title>dir_1ba1ec376ff688e17f2e5c57f98f2cf2</title>
<text text-anchor="middle" x="71" y="-133" font-family="Helvetica,sans-Serif" font-size="10.00">IfdsIde</text>
</g>
<!-- dir_27120034b373ae3c2a91f9cc8c0ee5f4 -->
<g id="node3" class="node">
<title>dir_27120034b373ae3c2a91f9cc8c0ee5f4</title>
<g id="a_node3"><a xlink:href="dir_27120034b373ae3c2a91f9cc8c0ee5f4.html" target="_top" xlink:title="Solver">
<polygon fill="#a2b4d6" stroke="#404040" points="95.5,-90 48.5,-90 48.5,-71 95.5,-71 95.5,-90"/>
<text text-anchor="middle" x="72" y="-78" font-family="Helvetica,sans-Serif" font-size="10.00">Solver</text>
</a>
</g>
</g>
<!-- dir_1ba1ec376ff688e17f2e5c57f98f2cf2&#45;&gt;dir_27120034b373ae3c2a91f9cc8c0ee5f4 -->
<g id="edge3" class="edge">
<title>dir_1ba1ec376ff688e17f2e5c57f98f2cf2&#45;&gt;dir_27120034b373ae3c2a91f9cc8c0ee5f4</title>
<g id="a_edge3"><a xlink:href="dir_000014_000031.html" target="_top">
<path fill="none" stroke="#63b8ff" d="M71.17,-125.75C71.3,-118.8 71.48,-108.85 71.65,-100.13"/>
<polygon fill="#63b8ff" stroke="#63b8ff" points="75.15,-100.15 71.84,-90.09 68.15,-100.02 75.15,-100.15"/>
</a>
</g>
<g id="a_edge3&#45;headlabel"><a xlink:href="dir_000014_000031.html" target="_top" xlink:title="1">
<text text-anchor="middle" x="77.92" y="-101.3" font-family="Helvetica,sans-Serif" font-size="10.00" fill="#63b8ff">1</text>
</a>
</g>
</g>
<!-- dir_15b1266ec3c6694d64b0cfc160192d3b -->
<g id="node4" class="node">
<title>dir_15b1266ec3c6694d64b0cfc160192d3b</title>
<g id="a_node4"><a xlink:href="dir_15b1266ec3c6694d64b0cfc160192d3b.html" target="_top" xlink:title="Domain">
<polygon fill="#edf0f7" stroke="#7f7f7f" points="392.5,-35 337.5,-35 337.5,-16 392.5,-16 392.5,-35"/>
<text text-anchor="middle" x="365" y="-23" font-family="Helvetica,sans-Serif" font-size="10.00">Domain</text>
</a>
</g>
</g>
<!-- dir_1ba1ec376ff688e17f2e5c57f98f2cf2&#45;&gt;dir_15b1266ec3c6694d64b0cfc160192d3b -->
<g id="edge1" class="edge">
<title>dir_1ba1ec376ff688e17f2e5c57f98f2cf2&#45;&gt;dir_15b1266ec3c6694d64b0cfc160192d3b</title>
<g id="a_edge1"><a xlink:href="dir_000014_000010.html" target="_top">
<path fill="none" stroke="#63b8ff" d="M96.12,-127.02C123.93,-118.59 169.97,-104.21 209,-90 253.63,-73.75 304.42,-52.56 335.59,-39.24"/>
<polygon fill="#63b8ff" stroke="#63b8ff" points="337.18,-42.36 344.99,-35.2 334.42,-35.93 337.18,-42.36"/>
</a>
</g>
<g id="a_edge1&#45;headlabel"><a xlink:href="dir_000014_000010.html" target="_top" xlink:title="10">
<text text-anchor="middle" x="335" y="-43.89" font-family="Helvetica,sans-Serif" font-size="10.00" fill="#63b8ff">10</text>
</a>
</g>
</g>
<!-- dir_1f703d4dd1e982897af273349847e927 -->
<g id="node5" class="node">
<title>dir_1f703d4dd1e982897af273349847e927</title>
<g id="a_node5"><a xlink:href="dir_1f703d4dd1e982897af273349847e927.html" target="_top" xlink:title="DB">
<polygon fill="#edf0f7" stroke="#7f7f7f" points="441.5,-35 410.5,-35 410.5,-16 441.5,-16 441.5,-35"/>
<text text-anchor="middle" x="426" y="-23" font-family="Helvetica,sans-Serif" font-size="10.00">DB</text>
</a>
</g>
</g>
<!-- dir_1ba1ec376ff688e17f2e5c57f98f2cf2&#45;&gt;dir_1f703d4dd1e982897af273349847e927 -->
<g id="edge2" class="edge">
<title>dir_1ba1ec376ff688e17f2e5c57f98f2cf2&#45;&gt;dir_1f703d4dd1e982897af273349847e927</title>
<g id="a_edge2"><a xlink:href="dir_000014_000007.html" target="_top">
<path fill="none" stroke="#63b8ff" d="M96.24,-129.51C132.26,-122.14 200.33,-107.35 257,-90 309.15,-74.03 368.48,-50.44 401.14,-36.96"/>
<polygon fill="#63b8ff" stroke="#63b8ff" points="402.49,-40.19 410.38,-33.12 399.81,-33.72 402.49,-40.19"/>
</a>
</g>
<g id="a_edge2&#45;headlabel"><a xlink:href="dir_000014_000007.html" target="_top" xlink:title="2">
<text text-anchor="middle" x="400.26" y="-41.69" font-family="Helvetica,sans-Serif" font-size="10.00" fill="#63b8ff">2</text>
</a>
</g>
</g>
<!-- dir_9d06c2f3a5ac32ab80fc048d7ff16b35 -->
<g id="node6" class="node">
<title>dir_9d06c2f3a5ac32ab80fc048d7ff16b35</title>
<g id="a_node6"><a xlink:href="dir_9d06c2f3a5ac32ab80fc048d7ff16b35.html" target="_top" xlink:title="ControlFlow">
<polygon fill="#edf0f7" stroke="#7f7f7f" points="262.5,-35 187.5,-35 187.5,-16 262.5,-16 262.5,-35"/>
<text text-anchor="middle" x="225" y="-23" font-family="Helvetica,sans-Serif" font-size="10.00">ControlFlow</text>
</a>
</g>
</g>
<!-- dir_1ba1ec376ff688e17f2e5c57f98f2cf2&#45;&gt;dir_9d06c2f3a5ac32ab80fc048d7ff16b35 -->
<g id="edge4" class="edge">
<title>dir_1ba1ec376ff688e17f2e5c57f98f2cf2&#45;&gt;dir_9d06c2f3a5ac32ab80fc048d7ff16b35</title>
<g id="a_edge4"><a xlink:href="dir_000014_000003.html" target="_top">
<path fill="none" stroke="#63b8ff" d="M83.34,-125.84C109.7,-107.36 171.73,-63.86 204.26,-41.05"/>
<polygon fill="#63b8ff" stroke="#63b8ff" points="206.42,-43.8 212.6,-35.2 202.4,-38.07 206.42,-43.8"/>
</a>
</g>
<g id="a_edge4&#45;headlabel"><a xlink:href="dir_000014_000003.html" target="_top" xlink:title="3">
<text text-anchor="middle" x="205.11" y="-45.69" font-family="Helvetica,sans-Serif" font-size="10.00" fill="#63b8ff">3</text>
</a>
</g>
</g>
<!-- dir_aeca43db7a276eb6dbfba1f93dc4539c -->
<g id="node7" class="node">
<title>dir_aeca43db7a276eb6dbfba1f93dc4539c</title>
<g id="a_node7"><a xlink:href="dir_aeca43db7a276eb6dbfba1f93dc4539c.html" target="_top" xlink:title="Utils">
<polygon fill="#edf0f7" stroke="#7f7f7f" points="319.5,-35 280.5,-35 280.5,-16 319.5,-16 319.5,-35"/>
<text text-anchor="middle" x="300" y="-23" font-family="Helvetica,sans-Serif" font-size="10.00">Utils</text>
</a>
</g>
</g>
<!-- dir_1ba1ec376ff688e17f2e5c57f98f2cf2&#45;&gt;dir_aeca43db7a276eb6dbfba1f93dc4539c -->
<g id="edge5" class="edge">
<title>dir_1ba1ec376ff688e17f2e5c57f98f2cf2&#45;&gt;dir_aeca43db7a276eb6dbfba1f93dc4539c</title>
<g id="a_edge5"><a xlink:href="dir_000014_000039.html" target="_top">
<path fill="none" stroke="#63b8ff" d="M90.01,-125.9C109.6,-117.02 141,-102.69 168,-90 204.69,-72.76 246.88,-52.37 273.48,-39.43"/>
<polygon fill="#63b8ff" stroke="#63b8ff" points="275.08,-42.55 282.54,-35.02 272.02,-36.25 275.08,-42.55"/>
</a>
</g>
<g id="a_edge5&#45;headlabel"><a xlink:href="dir_000014_000039.html" target="_top" xlink:title="78">
<text text-anchor="middle" x="273.09" y="-44.17" font-family="Helvetica,sans-Serif" font-size="10.00" fill="#63b8ff">78</text>
</a>
</g>
</g>
<!-- dir_27120034b373ae3c2a91f9cc8c0ee5f4&#45;&gt;dir_f6f31373dd45512da8386c416124f795 -->
<g id="edge11" class="edge">
<title>dir_27120034b373ae3c2a91f9cc8c0ee5f4&#45;&gt;dir_f6f31373dd45512da8386c416124f795</title>
<g id="a_edge11"><a xlink:href="dir_000031_000020.html" target="_top">
<path fill="none" stroke="#63b8ff" d="M70.02,-70.75C68.43,-63.72 66.14,-53.62 64.15,-44.84"/>
<polygon fill="#63b8ff" stroke="#63b8ff" points="67.57,-44.07 61.94,-35.09 60.74,-45.62 67.57,-44.07"/>
</a>
</g>
<g id="a_edge11&#45;headlabel"><a xlink:href="dir_000031_000020.html" target="_top" xlink:title="1">
<text text-anchor="middle" x="71.13" y="-44.45" font-family="Helvetica,sans-Serif" font-size="10.00" fill="#63b8ff">1</text>
</a>
</g>
</g>
<!-- dir_27120034b373ae3c2a91f9cc8c0ee5f4&#45;&gt;dir_15b1266ec3c6694d64b0cfc160192d3b -->
<g id="edge6" class="edge">
<title>dir_27120034b373ae3c2a91f9cc8c0ee5f4&#45;&gt;dir_15b1266ec3c6694d64b0cfc160192d3b</title>
<g id="a_edge6"><a xlink:href="dir_000031_000010.html" target="_top">
<path fill="none" stroke="#63b8ff" d="M95.83,-75.87C139.72,-69.07 236.48,-53.6 327.23,-35.27"/>
<polygon fill="#63b8ff" stroke="#63b8ff" points="328.03,-38.68 337.13,-33.26 326.63,-31.82 328.03,-38.68"/>
</a>
</g>
<g id="a_edge6&#45;headlabel"><a xlink:href="dir_000031_000010.html" target="_top" xlink:title="5">
<text text-anchor="middle" x="325.07" y="-39.68" font-family="Helvetica,sans-Serif" font-size="10.00" fill="#63b8ff">5</text>
</a>
</g>
</g>
<!-- dir_27120034b373ae3c2a91f9cc8c0ee5f4&#45;&gt;dir_1f703d4dd1e982897af273349847e927 -->
<g id="edge7" class="edge">
<title>dir_27120034b373ae3c2a91f9cc8c0ee5f4&#45;&gt;dir_1f703d4dd1e982897af273349847e927</title>
<g id="a_edge7"><a xlink:href="dir_000031_000007.html" target="_top">
<path fill="none" stroke="#63b8ff" d="M95.51,-78C148.54,-74.27 281.52,-62.95 400.4,-34.95"/>
<polygon fill="#63b8ff" stroke="#63b8ff" points="401.48,-38.29 410.39,-32.55 399.85,-31.48 401.48,-38.29"/>
</a>
</g>
<g id="a_edge7&#45;headlabel"><a xlink:href="dir_000031_000007.html" target="_top" xlink:title="1">
<text text-anchor="middle" x="398.65" y="-39.39" font-family="Helvetica,sans-Serif" font-size="10.00" fill="#63b8ff">1</text>
</a>
</g>
</g>
<!-- dir_27120034b373ae3c2a91f9cc8c0ee5f4&#45;&gt;dir_9d06c2f3a5ac32ab80fc048d7ff16b35 -->
<g id="edge9" class="edge">
<title>dir_27120034b373ae3c2a91f9cc8c0ee5f4&#45;&gt;dir_9d06c2f3a5ac32ab80fc048d7ff16b35</title>
<g id="a_edge9"><a xlink:href="dir_000031_000003.html" target="_top">
<path fill="none" stroke="#63b8ff" d="M95.57,-71.33C120.99,-62.53 161.7,-48.43 190.67,-38.39"/>
<polygon fill="#63b8ff" stroke="#63b8ff" points="192.08,-41.61 200.39,-35.03 189.79,-34.99 192.08,-41.61"/>
</a>
</g>
<g id="a_edge9&#45;headlabel"><a xlink:href="dir_000031_000003.html" target="_top" xlink:title="1">
<text text-anchor="middle" x="189.62" y="-42.97" font-family="Helvetica,sans-Serif" font-size="10.00" fill="#63b8ff">1</text>
</a>
</g>
</g>
<!-- dir_27120034b373ae3c2a91f9cc8c0ee5f4&#45;&gt;dir_aeca43db7a276eb6dbfba1f93dc4539c -->
<g id="edge10" class="edge">
<title>dir_27120034b373ae3c2a91f9cc8c0ee5f4&#45;&gt;dir_aeca43db7a276eb6dbfba1f93dc4539c</title>
<g id="a_edge10"><a xlink:href="dir_000031_000039.html" target="_top">
<path fill="none" stroke="#63b8ff" d="M95.54,-74.87C131.38,-67.68 201.98,-53.02 270.78,-35.17"/>
<polygon fill="#63b8ff" stroke="#63b8ff" points="271.69,-38.55 280.47,-32.63 269.91,-31.78 271.69,-38.55"/>
</a>
</g>
<g id="a_edge10&#45;headlabel"><a xlink:href="dir_000031_000039.html" target="_top" xlink:title="48">
<text text-anchor="middle" x="268.93" y="-39.71" font-family="Helvetica,sans-Serif" font-size="10.00" fill="#63b8ff">48</text>
</a>
</g>
</g>
<!-- dir_86d6a0ef6fcd04306246bc919bf79e2a -->
<g id="node8" class="node">
<title>dir_86d6a0ef6fcd04306246bc919bf79e2a</title>
<g id="a_node8"><a xlink:href="dir_86d6a0ef6fcd04306246bc919bf79e2a.html" target="_top" xlink:title="Config">
<polygon fill="#edf0f7" stroke="#7f7f7f" points="169.5,-35 122.5,-35 122.5,-16 169.5,-16 169.5,-35"/>
<text text-anchor="middle" x="146" y="-23" font-family="Helvetica,sans-Serif" font-size="10.00">Config</text>
</a>
</g>
</g>
<!-- dir_27120034b373ae3c2a91f9cc8c0ee5f4&#45;&gt;dir_86d6a0ef6fcd04306246bc919bf79e2a -->
<g id="edge8" class="edge">
<title>dir_27120034b373ae3c2a91f9cc8c0ee5f4&#45;&gt;dir_86d6a0ef6fcd04306246bc919bf79e2a</title>
<g id="a_edge8"><a xlink:href="dir_000031_000001.html" target="_top">
<path fill="none" stroke="#63b8ff" d="M83.89,-70.98C95.15,-62.92 112.29,-50.65 125.71,-41.03"/>
<polygon fill="#63b8ff" stroke="#63b8ff" points="127.8,-43.84 133.89,-35.17 123.73,-38.15 127.8,-43.84"/>
</a>
</g>
<g id="a_edge8&#45;headlabel"><a xlink:href="dir_000031_000001.html" target="_top" xlink:title="1">
<text text-anchor="middle" x="126.53" y="-45.74" font-family="Helvetica,sans-Serif" font-size="10.00" fill="#63b8ff">1</text>
</a>
</g>
</g>
</g>
</svg>
