<?xml version="1.0" encoding="UTF-8" standalone="no"?>
<!DOCTYPE svg PUBLIC "-//W3C//DTD SVG 1.1//EN"
 "http://www.w3.org/Graphics/SVG/1.1/DTD/svg11.dtd">
<!-- Generated by graphviz version 2.43.0 (0)
 -->
<!-- Title: include/phasar/PhasarLLVM/DataFlow/IfdsIde/Problems Pages: 1 -->
<svg width="810pt" height="180pt"
 viewBox="0.00 0.00 810.33 180.20" xmlns="http://www.w3.org/2000/svg" xmlns:xlink="http://www.w3.org/1999/xlink">
<g id="graph0" class="graph" transform="scale(1 1) rotate(0) translate(4 176.2)">
<title>include/phasar/PhasarLLVM/DataFlow/IfdsIde/Problems</title>
<g id="clust1" class="cluster">
<title>clusterdir_a914fe635f43607d3ac935bbff17c46d</title>
<g id="a_clust1"><a xlink:href="dir_a914fe635f43607d3ac935bbff17c46d.html" target="_top" xlink:title="IfdsIde">
<polygon fill="#edf0f7" stroke="#7f7f7f" stroke-dasharray="5,2" points="17.5,-39.2 17.5,-164.2 383.5,-164.2 383.5,-39.2 17.5,-39.2"/>
<text text-anchor="middle" x="200.5" y="-152.2" font-family="Helvetica,sans-Serif" font-size="10.00">IfdsIde</text>
</a>
</g>
</g>
<g id="clust2" class="cluster">
<title>clusterdir_8f2cc0dbdb5107552a837377e8f5f9e3</title>
<g id="a_clust2"><a xlink:href="dir_8f2cc0dbdb5107552a837377e8f5f9e3.html" target="_top">
<polygon fill="#edf0f7" stroke="#404040" stroke-width="2" points="25.5,-47.2 25.5,-137.2 375.5,-137.2 375.5,-47.2 25.5,-47.2"/>
</a>
</g>
</g>
<!-- dir_8f2cc0dbdb5107552a837377e8f5f9e3 -->
<g id="node1" class="node">
<title>dir_8f2cc0dbdb5107552a837377e8f5f9e3</title>
<text text-anchor="middle" x="208.5" y="-117.2" font-family="Helvetica,sans-Serif" font-size="10.00">Problems</text>
</g>
<!-- dir_a33aec843dd0f4d3dcd42c9824ffa99f -->
<g id="node2" class="node">
<title>dir_a33aec843dd0f4d3dcd42c9824ffa99f</title>
<g id="a_node2"><a xlink:href="dir_a33aec843dd0f4d3dcd42c9824ffa99f.html" target="_top" xlink:title="ExtendedTaintAnalysis">
<polygon fill="#a2b4d6" stroke="#404040" points="335,-74.2 208,-74.2 208,-55.2 335,-55.2 335,-74.2"/>
<text text-anchor="middle" x="271.5" y="-62.2" font-family="Helvetica,sans-Serif" font-size="10.00">ExtendedTaintAnalysis</text>
</a>
</g>
</g>
<!-- dir_8f2cc0dbdb5107552a837377e8f5f9e3&#45;&gt;dir_a33aec843dd0f4d3dcd42c9824ffa99f -->
<g id="edge9" class="edge">
<title>dir_8f2cc0dbdb5107552a837377e8f5f9e3&#45;&gt;dir_a33aec843dd0f4d3dcd42c9824ffa99f</title>
<g id="a_edge9"><a xlink:href="dir_000028_000012.html" target="_top">
<path fill="none" stroke="#63b8ff" d="M218.62,-110.18C227.94,-102.35 241.97,-90.54 253.24,-81.06"/>
<polygon fill="#63b8ff" stroke="#63b8ff" points="255.79,-83.48 261.19,-74.37 251.29,-78.13 255.79,-83.48"/>
</a>
</g>
<g id="a_edge9&#45;headlabel"><a xlink:href="dir_000028_000012.html" target="_top" xlink:title="5">
<text text-anchor="middle" x="254.87" y="-85.47" font-family="Helvetica,sans-Serif" font-size="10.00" fill="#63b8ff">5</text>
</a>
</g>
</g>
<!-- dir_0133e64b3a4c854b47f86a7b8e0c9983 -->
<g id="node5" class="node">
<title>dir_0133e64b3a4c854b47f86a7b8e0c9983</title>
<g id="a_node5"><a xlink:href="dir_0133e64b3a4c854b47f86a7b8e0c9983.html" target="_top" xlink:title="Pointer">
<polygon fill="#edf0f7" stroke="red" stroke-dasharray="5,2" points="245,-19.2 194,-19.2 194,-0.2 245,-0.2 245,-19.2"/>
<text text-anchor="middle" x="219.5" y="-7.2" font-family="Helvetica,sans-Serif" font-size="10.00">Pointer</text>
</a>
</g>
</g>
<!-- dir_8f2cc0dbdb5107552a837377e8f5f9e3&#45;&gt;dir_0133e64b3a4c854b47f86a7b8e0c9983 -->
<g id="edge1" class="edge">
<title>dir_8f2cc0dbdb5107552a837377e8f5f9e3&#45;&gt;dir_0133e64b3a4c854b47f86a7b8e0c9983</title>
<g id="a_edge1"><a xlink:href="dir_000028_000026.html" target="_top">
<path fill="none" stroke="#63b8ff" d="M205.03,-110.11C199.56,-95.27 190.34,-64.04 198.5,-39.2 199.84,-35.11 202.02,-31.13 204.48,-27.5"/>
<polygon fill="#63b8ff" stroke="#63b8ff" points="207.45,-29.38 210.84,-19.34 201.93,-25.07 207.45,-29.38"/>
</a>
</g>
<g id="a_edge1&#45;headlabel"><a xlink:href="dir_000028_000026.html" target="_top" xlink:title="8">
<text text-anchor="middle" x="207.48" y="-31.46" font-family="Helvetica,sans-Serif" font-size="10.00" fill="#63b8ff">8</text>
</a>
</g>
</g>
<!-- dir_079f3dfffeb9e770010097b0dd1334eb -->
<g id="node6" class="node">
<title>dir_079f3dfffeb9e770010097b0dd1334eb</title>
<g id="a_node6"><a xlink:href="dir_079f3dfffeb9e770010097b0dd1334eb.html" target="_top" xlink:title="Utils">
<polygon fill="#edf0f7" stroke="#7f7f7f" points="149,-19.2 110,-19.2 110,-0.2 149,-0.2 149,-19.2"/>
<text text-anchor="middle" x="129.5" y="-7.2" font-family="Helvetica,sans-Serif" font-size="10.00">Utils</text>
</a>
</g>
</g>
<!-- dir_8f2cc0dbdb5107552a837377e8f5f9e3&#45;&gt;dir_079f3dfffeb9e770010097b0dd1334eb -->
<g id="edge2" class="edge">
<title>dir_8f2cc0dbdb5107552a837377e8f5f9e3&#45;&gt;dir_079f3dfffeb9e770010097b0dd1334eb</title>
<g id="a_edge2"><a xlink:href="dir_000028_000038.html" target="_top">
<path fill="none" stroke="#63b8ff" d="M202.04,-109.86C188.89,-91.89 158.86,-50.84 141.85,-27.58"/>
<polygon fill="#63b8ff" stroke="#63b8ff" points="144.56,-25.36 135.83,-19.36 138.91,-29.49 144.56,-25.36"/>
</a>
</g>
<g id="a_edge2&#45;headlabel"><a xlink:href="dir_000028_000038.html" target="_top" xlink:title="7">
<text text-anchor="middle" x="148.98" y="-24.09" font-family="Helvetica,sans-Serif" font-size="10.00" fill="#63b8ff">7</text>
</a>
</g>
</g>
<!-- dir_0bc4dee926a629f715a9261d8d248ef6 -->
<g id="node7" class="node">
<title>dir_0bc4dee926a629f715a9261d8d248ef6</title>
<g id="a_node7"><a xlink:href="dir_0bc4dee926a629f715a9261d8d248ef6.html" target="_top" xlink:title="ControlFlow">
<polygon fill="#edf0f7" stroke="red" stroke-dasharray="5,2" points="633,-74.2 558,-74.2 558,-55.2 633,-55.2 633,-74.2"/>
<text text-anchor="middle" x="595.5" y="-62.2" font-family="Helvetica,sans-Serif" font-size="10.00">ControlFlow</text>
</a>
</g>
</g>
<!-- dir_8f2cc0dbdb5107552a837377e8f5f9e3&#45;&gt;dir_0bc4dee926a629f715a9261d8d248ef6 -->
<g id="edge3" class="edge">
<title>dir_8f2cc0dbdb5107552a837377e8f5f9e3&#45;&gt;dir_0bc4dee926a629f715a9261d8d248ef6</title>
<g id="a_edge3"><a xlink:href="dir_000028_000004.html" target="_top">
<path fill="none" stroke="#63b8ff" d="M239.89,-111.75C242.8,-111.19 245.7,-110.67 248.5,-110.2 378.78,-88.45 412.74,-92.86 543.5,-74.2 544.8,-74.01 546.12,-73.82 547.44,-73.63"/>
<polygon fill="#63b8ff" stroke="#63b8ff" points="548.4,-77.02 557.75,-72.05 547.34,-70.1 548.4,-77.02"/>
</a>
</g>
<g id="a_edge3&#45;headlabel"><a xlink:href="dir_000028_000004.html" target="_top" xlink:title="18">
<text text-anchor="middle" x="545.27" y="-77.87" font-family="Helvetica,sans-Serif" font-size="10.00" fill="#63b8ff">18</text>
</a>
</g>
</g>
<!-- dir_15b1266ec3c6694d64b0cfc160192d3b -->
<g id="node8" class="node">
<title>dir_15b1266ec3c6694d64b0cfc160192d3b</title>
<g id="a_node8"><a xlink:href="dir_15b1266ec3c6694d64b0cfc160192d3b.html" target="_top" xlink:title="Domain">
<polygon fill="#edf0f7" stroke="#7f7f7f" points="55,-19.2 0,-19.2 0,-0.2 55,-0.2 55,-19.2"/>
<text text-anchor="middle" x="27.5" y="-7.2" font-family="Helvetica,sans-Serif" font-size="10.00">Domain</text>
</a>
</g>
</g>
<!-- dir_8f2cc0dbdb5107552a837377e8f5f9e3&#45;&gt;dir_15b1266ec3c6694d64b0cfc160192d3b -->
<g id="edge4" class="edge">
<title>dir_8f2cc0dbdb5107552a837377e8f5f9e3&#45;&gt;dir_15b1266ec3c6694d64b0cfc160192d3b</title>
<g id="a_edge4"><a xlink:href="dir_000028_000010.html" target="_top">
<path fill="none" stroke="#63b8ff" d="M193.99,-110.04C162.67,-91.35 88.5,-47.09 50.62,-24.5"/>
<polygon fill="#63b8ff" stroke="#63b8ff" points="52.2,-21.36 41.82,-19.25 48.62,-27.37 52.2,-21.36"/>
</a>
</g>
<g id="a_edge4&#45;headlabel"><a xlink:href="dir_000028_000010.html" target="_top" xlink:title="7">
<text text-anchor="middle" x="56.75" y="-18.27" font-family="Helvetica,sans-Serif" font-size="10.00" fill="#63b8ff">7</text>
</a>
</g>
</g>
<!-- dir_189eb8c36ffce94640b9d816bc05823d -->
<g id="node9" class="node">
<title>dir_189eb8c36ffce94640b9d816bc05823d</title>
<g id="a_node9"><a xlink:href="dir_189eb8c36ffce94640b9d816bc05823d.html" target="_top" xlink:title="Domain">
<polygon fill="#edf0f7" stroke="#7f7f7f" points="706,-74.2 651,-74.2 651,-55.2 706,-55.2 706,-74.2"/>
<text text-anchor="middle" x="678.5" y="-62.2" font-family="Helvetica,sans-Serif" font-size="10.00">Domain</text>
</a>
</g>
</g>
<!-- dir_8f2cc0dbdb5107552a837377e8f5f9e3&#45;&gt;dir_189eb8c36ffce94640b9d816bc05823d -->
<g id="edge5" class="edge">
<title>dir_8f2cc0dbdb5107552a837377e8f5f9e3&#45;&gt;dir_189eb8c36ffce94640b9d816bc05823d</title>
<g id="a_edge5"><a xlink:href="dir_000028_000011.html" target="_top">
<path fill="none" stroke="#63b8ff" d="M239.88,-111.66C242.79,-111.12 245.69,-110.62 248.5,-110.2 419.13,-84.37 467.17,-101.8 640.69,-74.29"/>
<polygon fill="#63b8ff" stroke="#63b8ff" points="641.35,-77.73 650.67,-72.68 640.24,-70.81 641.35,-77.73"/>
</a>
</g>
<g id="a_edge5&#45;headlabel"><a xlink:href="dir_000028_000011.html" target="_top" xlink:title="17">
<text text-anchor="middle" x="638.26" y="-78.6" font-family="Helvetica,sans-Serif" font-size="10.00" fill="#63b8ff">17</text>
</a>
</g>
</g>
<!-- dir_63e7bb0cb88dc7cebeab7c37a85fbe32 -->
<g id="node10" class="node">
<title>dir_63e7bb0cb88dc7cebeab7c37a85fbe32</title>
<g id="a_node10"><a xlink:href="dir_63e7bb0cb88dc7cebeab7c37a85fbe32.html" target="_top" xlink:title="TaintConfig">
<polygon fill="#edf0f7" stroke="#7f7f7f" points="463,-74.2 392,-74.2 392,-55.2 463,-55.2 463,-74.2"/>
<text text-anchor="middle" x="427.5" y="-62.2" font-family="Helvetica,sans-Serif" font-size="10.00">TaintConfig</text>
</a>
</g>
</g>
<!-- dir_8f2cc0dbdb5107552a837377e8f5f9e3&#45;&gt;dir_63e7bb0cb88dc7cebeab7c37a85fbe32 -->
<g id="edge6" class="edge">
<title>dir_8f2cc0dbdb5107552a837377e8f5f9e3&#45;&gt;dir_63e7bb0cb88dc7cebeab7c37a85fbe32</title>
<g id="a_edge6"><a xlink:href="dir_000028_000034.html" target="_top">
<path fill="none" stroke="#63b8ff" d="M239.88,-111.1C277.21,-102.07 339.84,-86.91 382.37,-76.62"/>
<polygon fill="#63b8ff" stroke="#63b8ff" points="383.29,-80 392.19,-74.24 381.65,-73.19 383.29,-80"/>
</a>
</g>
<g id="a_edge6&#45;headlabel"><a xlink:href="dir_000028_000034.html" target="_top" xlink:title="1">
<text text-anchor="middle" x="380.47" y="-81.1" font-family="Helvetica,sans-Serif" font-size="10.00" fill="#63b8ff">1</text>
</a>
</g>
</g>
<!-- dir_68aec2623aad94785c017c13c687e045 -->
<g id="node11" class="node">
<title>dir_68aec2623aad94785c017c13c687e045</title>
<g id="a_node11"><a xlink:href="dir_68aec2623aad94785c017c13c687e045.html" target="_top" xlink:title="DB">
<polygon fill="#edf0f7" stroke="#7f7f7f" points="755,-74.2 724,-74.2 724,-55.2 755,-55.2 755,-74.2"/>
<text text-anchor="middle" x="739.5" y="-62.2" font-family="Helvetica,sans-Serif" font-size="10.00">DB</text>
</a>
</g>
</g>
<!-- dir_8f2cc0dbdb5107552a837377e8f5f9e3&#45;&gt;dir_68aec2623aad94785c017c13c687e045 -->
<g id="edge7" class="edge">
<title>dir_8f2cc0dbdb5107552a837377e8f5f9e3&#45;&gt;dir_68aec2623aad94785c017c13c687e045</title>
<g id="a_edge7"><a xlink:href="dir_000028_000008.html" target="_top">
<path fill="none" stroke="#63b8ff" d="M239.87,-111.62C242.78,-111.09 245.69,-110.6 248.5,-110.2 451.32,-80.96 510.02,-116.19 714.09,-73.95"/>
<polygon fill="#63b8ff" stroke="#63b8ff" points="714.86,-77.37 723.92,-71.88 713.41,-70.52 714.86,-77.37"/>
</a>
</g>
<g id="a_edge7&#45;headlabel"><a xlink:href="dir_000028_000008.html" target="_top" xlink:title="16">
<text text-anchor="middle" x="711.92" y="-78.39" font-family="Helvetica,sans-Serif" font-size="10.00" fill="#63b8ff">16</text>
</a>
</g>
</g>
<!-- dir_69cf206f122d9153ac8b30a0f4a917bf -->
<g id="node12" class="node">
<title>dir_69cf206f122d9153ac8b30a0f4a917bf</title>
<g id="a_node12"><a xlink:href="dir_69cf206f122d9153ac8b30a0f4a917bf.html" target="_top" xlink:title="DataFlow">
<polygon fill="#edf0f7" stroke="red" stroke-dasharray="5,2" points="443,-19.2 380,-19.2 380,-0.2 443,-0.2 443,-19.2"/>
<text text-anchor="middle" x="411.5" y="-7.2" font-family="Helvetica,sans-Serif" font-size="10.00">DataFlow</text>
</a>
</g>
</g>
<!-- dir_8f2cc0dbdb5107552a837377e8f5f9e3&#45;&gt;dir_69cf206f122d9153ac8b30a0f4a917bf -->
<g id="edge8" class="edge">
<title>dir_8f2cc0dbdb5107552a837377e8f5f9e3&#45;&gt;dir_69cf206f122d9153ac8b30a0f4a917bf</title>
<g id="a_edge8"><a xlink:href="dir_000028_000005.html" target="_top">
<path fill="none" stroke="#63b8ff" d="M239.91,-111.87C242.81,-111.28 245.71,-110.72 248.5,-110.2 298.06,-100.96 439.8,-112.57 472.5,-74.2 482.59,-62.36 480.85,-52.32 472.5,-39.2 467.71,-31.68 460.36,-26.11 452.4,-21.99"/>
<polygon fill="#63b8ff" stroke="#63b8ff" points="453.81,-18.79 443.25,-17.94 450.98,-25.19 453.81,-18.79"/>
</a>
</g>
<g id="a_edge8&#45;headlabel"><a xlink:href="dir_000028_000005.html" target="_top" xlink:title="41">
<text text-anchor="middle" x="458.25" y="-15.15" font-family="Helvetica,sans-Serif" font-size="10.00" fill="#63b8ff">41</text>
</a>
</g>
</g>
<!-- dir_aeca43db7a276eb6dbfba1f93dc4539c -->
<g id="node13" class="node">
<title>dir_aeca43db7a276eb6dbfba1f93dc4539c</title>
<g id="a_node13"><a xlink:href="dir_aeca43db7a276eb6dbfba1f93dc4539c.html" target="_top" xlink:title="Utils">
<polygon fill="#edf0f7" stroke="#7f7f7f" points="549,-19.2 510,-19.2 510,-0.2 549,-0.2 549,-19.2"/>
<text text-anchor="middle" x="529.5" y="-7.2" font-family="Helvetica,sans-Serif" font-size="10.00">Utils</text>
</a>
</g>
</g>
<!-- dir_8f2cc0dbdb5107552a837377e8f5f9e3&#45;&gt;dir_aeca43db7a276eb6dbfba1f93dc4539c -->
<g id="edge10" class="edge">
<title>dir_8f2cc0dbdb5107552a837377e8f5f9e3&#45;&gt;dir_aeca43db7a276eb6dbfba1f93dc4539c</title>
<g id="a_edge10"><a xlink:href="dir_000028_000039.html" target="_top">
<path fill="none" stroke="#63b8ff" d="M239.91,-111.83C242.81,-111.26 245.71,-110.7 248.5,-110.2 355.07,-90.93 398.82,-133.41 489.5,-74.2 505.83,-63.54 516.74,-43.64 522.98,-28.94"/>
<polygon fill="#63b8ff" stroke="#63b8ff" points="526.34,-29.96 526.71,-19.37 519.82,-27.42 526.34,-29.96"/>
</a>
</g>
<g id="a_edge10&#45;headlabel"><a xlink:href="dir_000028_000039.html" target="_top" xlink:title="18">
<text text-anchor="middle" x="527.68" y="-31.84" font-family="Helvetica,sans-Serif" font-size="10.00" fill="#63b8ff">18</text>
</a>
</g>
</g>
<!-- dir_a33aec843dd0f4d3dcd42c9824ffa99f&#45;&gt;dir_0133e64b3a4c854b47f86a7b8e0c9983 -->
<g id="edge11" class="edge">
<title>dir_a33aec843dd0f4d3dcd42c9824ffa99f&#45;&gt;dir_0133e64b3a4c854b47f86a7b8e0c9983</title>
<g id="a_edge11"><a xlink:href="dir_000012_000026.html" target="_top">
<path fill="none" stroke="#63b8ff" d="M262.91,-54.95C255.34,-47.23 244.12,-35.79 234.99,-26.48"/>
<polygon fill="#63b8ff" stroke="#63b8ff" points="237.43,-23.97 227.93,-19.29 232.43,-28.88 237.43,-23.97"/>
</a>
</g>
<g id="a_edge11&#45;headlabel"><a xlink:href="dir_000012_000026.html" target="_top" xlink:title="1">
<text text-anchor="middle" x="241.97" y="-22.05" font-family="Helvetica,sans-Serif" font-size="10.00" fill="#63b8ff">1</text>
</a>
</g>
</g>
<!-- dir_a33aec843dd0f4d3dcd42c9824ffa99f&#45;&gt;dir_079f3dfffeb9e770010097b0dd1334eb -->
<g id="edge12" class="edge">
<title>dir_a33aec843dd0f4d3dcd42c9824ffa99f&#45;&gt;dir_079f3dfffeb9e770010097b0dd1334eb</title>
<g id="a_edge12"><a xlink:href="dir_000012_000038.html" target="_top">
<path fill="none" stroke="#63b8ff" d="M248.69,-55.18C224.22,-46.05 185.29,-31.52 158.62,-21.57"/>
<polygon fill="#63b8ff" stroke="#63b8ff" points="159.65,-18.22 149.06,-18 157.2,-24.77 159.65,-18.22"/>
</a>
</g>
<g id="a_edge12&#45;headlabel"><a xlink:href="dir_000012_000038.html" target="_top" xlink:title="1">
<text text-anchor="middle" x="164.01" y="-14.31" font-family="Helvetica,sans-Serif" font-size="10.00" fill="#63b8ff">1</text>
</a>
</g>
</g>
<!-- dir_a33aec843dd0f4d3dcd42c9824ffa99f&#45;&gt;dir_15b1266ec3c6694d64b0cfc160192d3b -->
<g id="edge13" class="edge">
<title>dir_a33aec843dd0f4d3dcd42c9824ffa99f&#45;&gt;dir_15b1266ec3c6694d64b0cfc160192d3b</title>
<g id="a_edge13"><a xlink:href="dir_000012_000010.html" target="_top">
<path fill="none" stroke="#63b8ff" d="M232.3,-55.18C186.31,-45.19 110.59,-28.75 65.24,-18.9"/>
<polygon fill="#63b8ff" stroke="#63b8ff" points="65.74,-15.42 55.22,-16.72 64.25,-22.26 65.74,-15.42"/>
</a>
</g>
<g id="a_edge13&#45;headlabel"><a xlink:href="dir_000012_000010.html" target="_top" xlink:title="2">
<text text-anchor="middle" x="69.85" y="-10.91" font-family="Helvetica,sans-Serif" font-size="10.00" fill="#63b8ff">2</text>
</a>
</g>
</g>
<!-- dir_a33aec843dd0f4d3dcd42c9824ffa99f&#45;&gt;dir_69cf206f122d9153ac8b30a0f4a917bf -->
<g id="edge14" class="edge">
<title>dir_a33aec843dd0f4d3dcd42c9824ffa99f&#45;&gt;dir_69cf206f122d9153ac8b30a0f4a917bf</title>
<g id="a_edge14"><a xlink:href="dir_000012_000005.html" target="_top">
<path fill="none" stroke="#63b8ff" d="M293.99,-55.18C317.02,-46.46 353.04,-32.83 379.13,-22.95"/>
<polygon fill="#63b8ff" stroke="#63b8ff" points="380.48,-26.18 388.6,-19.37 378.01,-19.64 380.48,-26.18"/>
</a>
</g>
<g id="a_edge14&#45;headlabel"><a xlink:href="dir_000012_000005.html" target="_top" xlink:title="5">
<text text-anchor="middle" x="378.13" y="-27.61" font-family="Helvetica,sans-Serif" font-size="10.00" fill="#63b8ff">5</text>
</a>
</g>
</g>
<!-- dir_a33aec843dd0f4d3dcd42c9824ffa99f&#45;&gt;dir_aeca43db7a276eb6dbfba1f93dc4539c -->
<g id="edge15" class="edge">
<title>dir_a33aec843dd0f4d3dcd42c9824ffa99f&#45;&gt;dir_aeca43db7a276eb6dbfba1f93dc4539c</title>
<g id="a_edge15"><a xlink:href="dir_000012_000039.html" target="_top">
<path fill="none" stroke="#63b8ff" d="M309.56,-55.15C331.21,-50.34 358.84,-44.3 383.5,-39.2 423.59,-30.9 470.02,-21.95 499.56,-16.34"/>
<polygon fill="#63b8ff" stroke="#63b8ff" points="500.46,-19.73 509.63,-14.43 499.16,-12.85 500.46,-19.73"/>
</a>
</g>
<g id="a_edge15&#45;headlabel"><a xlink:href="dir_000012_000039.html" target="_top" xlink:title="5">
<text text-anchor="middle" x="497.46" y="-20.69" font-family="Helvetica,sans-Serif" font-size="10.00" fill="#63b8ff">5</text>
</a>
</g>
</g>
<!-- dir_4702b0d9c546fd2d1801312a9ade3e5b -->
<g id="node3" class="node">
<title>dir_4702b0d9c546fd2d1801312a9ade3e5b</title>
<g id="a_node3"><a xlink:href="dir_4702b0d9c546fd2d1801312a9ade3e5b.html" target="_top" xlink:title="IDEGeneralizedLCA">
<polygon fill="#a2b4d6" stroke="#404040" points="367.5,-129.2 257.5,-129.2 257.5,-110.2 367.5,-110.2 367.5,-129.2"/>
<text text-anchor="middle" x="312.5" y="-117.2" font-family="Helvetica,sans-Serif" font-size="10.00">IDEGeneralizedLCA</text>
</a>
</g>
</g>
<!-- dir_4702b0d9c546fd2d1801312a9ade3e5b&#45;&gt;dir_079f3dfffeb9e770010097b0dd1334eb -->
<g id="edge16" class="edge">
<title>dir_4702b0d9c546fd2d1801312a9ade3e5b&#45;&gt;dir_079f3dfffeb9e770010097b0dd1334eb</title>
<g id="a_edge16"><a xlink:href="dir_000013_000038.html" target="_top">
<path fill="none" stroke="#63b8ff" d="M279.94,-110.2C256.08,-103 223.6,-91.13 198.5,-74.2 180.78,-62.24 181.26,-53.65 165.5,-39.2 160.41,-34.53 154.64,-29.76 149.24,-25.49"/>
<polygon fill="#63b8ff" stroke="#63b8ff" points="151.25,-22.62 141.2,-19.27 146.97,-28.16 151.25,-22.62"/>
</a>
</g>
<g id="a_edge16&#45;headlabel"><a xlink:href="dir_000013_000038.html" target="_top" xlink:title="1">
<text text-anchor="middle" x="155.83" y="-20.07" font-family="Helvetica,sans-Serif" font-size="10.00" fill="#63b8ff">1</text>
</a>
</g>
</g>
<!-- dir_4702b0d9c546fd2d1801312a9ade3e5b&#45;&gt;dir_0bc4dee926a629f715a9261d8d248ef6 -->
<g id="edge17" class="edge">
<title>dir_4702b0d9c546fd2d1801312a9ade3e5b&#45;&gt;dir_0bc4dee926a629f715a9261d8d248ef6</title>
<g id="a_edge17"><a xlink:href="dir_000013_000004.html" target="_top">
<path fill="none" stroke="#63b8ff" d="M357.97,-110.18C409.97,-100.44 494.73,-84.57 547.69,-74.65"/>
<polygon fill="#63b8ff" stroke="#63b8ff" points="548.66,-78.03 557.84,-72.75 547.37,-71.15 548.66,-78.03"/>
</a>
</g>
<g id="a_edge17&#45;headlabel"><a xlink:href="dir_000013_000004.html" target="_top" xlink:title="1">
<text text-anchor="middle" x="545.64" y="-78.98" font-family="Helvetica,sans-Serif" font-size="10.00" fill="#63b8ff">1</text>
</a>
</g>
</g>
<!-- dir_4702b0d9c546fd2d1801312a9ade3e5b&#45;&gt;dir_189eb8c36ffce94640b9d816bc05823d -->
<g id="edge18" class="edge">
<title>dir_4702b0d9c546fd2d1801312a9ade3e5b&#45;&gt;dir_189eb8c36ffce94640b9d816bc05823d</title>
<g id="a_edge18"><a xlink:href="dir_000013_000011.html" target="_top">
<path fill="none" stroke="#63b8ff" d="M367.65,-112.93C431.27,-105.91 539.19,-92.85 640.55,-74.42"/>
<polygon fill="#63b8ff" stroke="#63b8ff" points="641.45,-77.81 650.65,-72.56 640.18,-70.93 641.45,-77.81"/>
</a>
</g>
<g id="a_edge18&#45;headlabel"><a xlink:href="dir_000013_000011.html" target="_top" xlink:title="2">
<text text-anchor="middle" x="638.43" y="-78.75" font-family="Helvetica,sans-Serif" font-size="10.00" fill="#63b8ff">2</text>
</a>
</g>
</g>
<!-- dir_4702b0d9c546fd2d1801312a9ade3e5b&#45;&gt;dir_68aec2623aad94785c017c13c687e045 -->
<g id="edge19" class="edge">
<title>dir_4702b0d9c546fd2d1801312a9ade3e5b&#45;&gt;dir_68aec2623aad94785c017c13c687e045</title>
<g id="a_edge19"><a xlink:href="dir_000013_000008.html" target="_top">
<path fill="none" stroke="#63b8ff" d="M367.6,-116.63C443.84,-112.89 585.76,-102.75 713.92,-74.08"/>
<polygon fill="#63b8ff" stroke="#63b8ff" points="714.93,-77.44 723.9,-71.8 713.38,-70.62 714.93,-77.44"/>
</a>
</g>
<g id="a_edge19&#45;headlabel"><a xlink:href="dir_000013_000008.html" target="_top" xlink:title="1">
<text text-anchor="middle" x="712.06" y="-78.51" font-family="Helvetica,sans-Serif" font-size="10.00" fill="#63b8ff">1</text>
</a>
</g>
</g>
<!-- dir_4702b0d9c546fd2d1801312a9ade3e5b&#45;&gt;dir_69cf206f122d9153ac8b30a0f4a917bf -->
<g id="edge20" class="edge">
<title>dir_4702b0d9c546fd2d1801312a9ade3e5b&#45;&gt;dir_69cf206f122d9153ac8b30a0f4a917bf</title>
<g id="a_edge20"><a xlink:href="dir_000013_000005.html" target="_top">
<path fill="none" stroke="#63b8ff" d="M367.55,-117.33C482.23,-113.92 738.29,-103.12 764.5,-74.2 833.64,2.08 839.42,-48 501.5,-19.2 485.74,-17.86 468.45,-16.25 453.27,-14.8"/>
<polygon fill="#63b8ff" stroke="#63b8ff" points="453.43,-11.3 443.14,-13.83 452.76,-18.27 453.43,-11.3"/>
</a>
</g>
<g id="a_edge20&#45;headlabel"><a xlink:href="dir_000013_000005.html" target="_top" xlink:title="9">
<text text-anchor="middle" x="457.28" y="-6.32" font-family="Helvetica,sans-Serif" font-size="10.00" fill="#63b8ff">9</text>
</a>
</g>
</g>
<!-- dir_4702b0d9c546fd2d1801312a9ade3e5b&#45;&gt;dir_aeca43db7a276eb6dbfba1f93dc4539c -->
<g id="edge21" class="edge">
<title>dir_4702b0d9c546fd2d1801312a9ade3e5b&#45;&gt;dir_aeca43db7a276eb6dbfba1f93dc4539c</title>
<g id="a_edge21"><a xlink:href="dir_000013_000039.html" target="_top">
<path fill="none" stroke="#63b8ff" d="M367.54,-117.7C487.92,-114.94 766.19,-105.25 794.5,-74.2 804.98,-62.7 804.89,-50.77 794.5,-39.2 779.01,-21.96 625.46,-14.25 559.43,-11.71"/>
<polygon fill="#63b8ff" stroke="#63b8ff" points="559.38,-8.2 549.26,-11.33 559.12,-15.2 559.38,-8.2"/>
</a>
</g>
<g id="a_edge21&#45;headlabel"><a xlink:href="dir_000013_000039.html" target="_top" xlink:title="2">
<text text-anchor="middle" x="563.08" y="-3" font-family="Helvetica,sans-Serif" font-size="10.00" fill="#63b8ff">2</text>
</a>
</g>
</g>
<!-- dir_0115e31b37e371af800ae3b4d406b9c6 -->
<g id="node4" class="node">
<title>dir_0115e31b37e371af800ae3b4d406b9c6</title>
<g id="a_node4"><a xlink:href="dir_0115e31b37e371af800ae3b4d406b9c6.html" target="_top" xlink:title="TypeStateDescriptions">
<polygon fill="#a2b4d6" stroke="#404040" points="159,-129.2 34,-129.2 34,-110.2 159,-110.2 159,-129.2"/>
<text text-anchor="middle" x="96.5" y="-117.2" font-family="Helvetica,sans-Serif" font-size="10.00">TypeStateDescriptions</text>
</a>
</g>
</g>
<!-- dir_0115e31b37e371af800ae3b4d406b9c6&#45;&gt;dir_079f3dfffeb9e770010097b0dd1334eb -->
<g id="edge22" class="edge">
<title>dir_0115e31b37e371af800ae3b4d406b9c6&#45;&gt;dir_079f3dfffeb9e770010097b0dd1334eb</title>
<g id="a_edge22"><a xlink:href="dir_000037_000038.html" target="_top">
<path fill="none" stroke="#63b8ff" d="M92.75,-109.75C86.94,-94.37 77.57,-62.35 89.5,-39.2 92.35,-33.66 96.83,-28.97 101.78,-25.08"/>
<polygon fill="#63b8ff" stroke="#63b8ff" points="104.01,-27.8 110.34,-19.3 100.1,-22 104.01,-27.8"/>
</a>
</g>
<g id="a_edge22&#45;headlabel"><a xlink:href="dir_000037_000038.html" target="_top" xlink:title="1">
<text text-anchor="middle" x="102.62" y="-29.66" font-family="Helvetica,sans-Serif" font-size="10.00" fill="#63b8ff">1</text>
</a>
</g>
</g>
<!-- dir_0115e31b37e371af800ae3b4d406b9c6&#45;&gt;dir_15b1266ec3c6694d64b0cfc160192d3b -->
<g id="edge23" class="edge">
<title>dir_0115e31b37e371af800ae3b4d406b9c6&#45;&gt;dir_15b1266ec3c6694d64b0cfc160192d3b</title>
<g id="a_edge23"><a xlink:href="dir_000037_000010.html" target="_top">
<path fill="none" stroke="#63b8ff" d="M63.48,-110.07C45.32,-103.45 24.33,-92.3 13.5,-74.2 5.18,-60.3 10.58,-42.04 16.94,-28.67"/>
<polygon fill="#63b8ff" stroke="#63b8ff" points="20.18,-30.03 21.77,-19.55 14,-26.75 20.18,-30.03"/>
</a>
</g>
<g id="a_edge23&#45;headlabel"><a xlink:href="dir_000037_000010.html" target="_top" xlink:title="2">
<text text-anchor="middle" x="21" y="-32.04" font-family="Helvetica,sans-Serif" font-size="10.00" fill="#63b8ff">2</text>
</a>
</g>
</g>
<!-- dir_0115e31b37e371af800ae3b4d406b9c6&#45;&gt;dir_69cf206f122d9153ac8b30a0f4a917bf -->
<g id="edge24" class="edge">
<title>dir_0115e31b37e371af800ae3b4d406b9c6&#45;&gt;dir_69cf206f122d9153ac8b30a0f4a917bf</title>
<g id="a_edge24"><a xlink:href="dir_000037_000005.html" target="_top">
<path fill="none" stroke="#63b8ff" d="M153.96,-110.16C221.84,-99.81 327.74,-82.67 344.5,-74.2 350.52,-71.16 377.56,-44.69 395.4,-26.9"/>
<polygon fill="#63b8ff" stroke="#63b8ff" points="398.24,-29 402.83,-19.45 393.29,-24.05 398.24,-29"/>
</a>
</g>
<g id="a_edge24&#45;headlabel"><a xlink:href="dir_000037_000005.html" target="_top" xlink:title="2">
<text text-anchor="middle" x="397.71" y="-31.05" font-family="Helvetica,sans-Serif" font-size="10.00" fill="#63b8ff">2</text>
</a>
</g>
</g>
</g>
</svg>
