<?xml version="1.0" encoding="UTF-8" standalone="no"?>
<!DOCTYPE svg PUBLIC "-//W3C//DTD SVG 1.1//EN"
 "http://www.w3.org/Graphics/SVG/1.1/DTD/svg11.dtd">
<!-- Generated by graphviz version 2.43.0 (0)
 -->
<!-- Title: include/phasar/PhasarLLVM/DataFlow/IfdsIde Pages: 1 -->
<svg width="631pt" height="125pt"
 viewBox="0.00 0.00 631.00 125.00" xmlns="http://www.w3.org/2000/svg" xmlns:xlink="http://www.w3.org/1999/xlink">
<g id="graph0" class="graph" transform="scale(1 1) rotate(0) translate(4 121)">
<title>include/phasar/PhasarLLVM/DataFlow/IfdsIde</title>
<g id="clust1" class="cluster">
<title>clusterdir_b11f051d1364f2a30973d8d796d4babf</title>
<g id="a_clust1"><a xlink:href="dir_b11f051d1364f2a30973d8d796d4babf.html" target="_top" xlink:title="DataFlow">
<polygon fill="#edf0f7" stroke="#7f7f7f" stroke-dasharray="5,2" points="176.5,-39 176.5,-109 338.5,-109 338.5,-39 176.5,-39"/>
<text text-anchor="middle" x="257.5" y="-97" font-family="Helvetica,sans-Serif" font-size="10.00">DataFlow</text>
</a>
</g>
</g>
<g id="clust2" class="cluster">
<title>clusterdir_a914fe635f43607d3ac935bbff17c46d</title>
<g id="a_clust2"><a xlink:href="dir_a914fe635f43607d3ac935bbff17c46d.html" target="_top">
<polygon fill="#edf0f7" stroke="#404040" stroke-width="2" points="184.5,-47 184.5,-82 330.5,-82 330.5,-47 184.5,-47"/>
</a>
</g>
</g>
<!-- dir_a914fe635f43607d3ac935bbff17c46d -->
<g id="node1" class="node">
<title>dir_a914fe635f43607d3ac935bbff17c46d</title>
<text text-anchor="middle" x="217.5" y="-62" font-family="Helvetica,sans-Serif" font-size="10.00">IfdsIde</text>
</g>
<!-- dir_0133e64b3a4c854b47f86a7b8e0c9983 -->
<g id="node3" class="node">
<title>dir_0133e64b3a4c854b47f86a7b8e0c9983</title>
<g id="a_node3"><a xlink:href="dir_0133e64b3a4c854b47f86a7b8e0c9983.html" target="_top" xlink:title="Pointer">
<polygon fill="#edf0f7" stroke="red" stroke-dasharray="5,2" points="189,-19 138,-19 138,0 189,0 189,-19"/>
<text text-anchor="middle" x="163.5" y="-7" font-family="Helvetica,sans-Serif" font-size="10.00">Pointer</text>
</a>
</g>
</g>
<!-- dir_a914fe635f43607d3ac935bbff17c46d&#45;&gt;dir_0133e64b3a4c854b47f86a7b8e0c9983 -->
<g id="edge1" class="edge">
<title>dir_a914fe635f43607d3ac935bbff17c46d&#45;&gt;dir_0133e64b3a4c854b47f86a7b8e0c9983</title>
<g id="a_edge1"><a xlink:href="dir_000015_000026.html" target="_top">
<path fill="none" stroke="#63b8ff" d="M208.58,-54.75C200.72,-47.03 189.07,-35.6 179.58,-26.28"/>
<polygon fill="#63b8ff" stroke="#63b8ff" points="181.84,-23.6 172.25,-19.09 176.94,-28.59 181.84,-23.6"/>
</a>
</g>
<g id="a_edge1&#45;headlabel"><a xlink:href="dir_000015_000026.html" target="_top" xlink:title="11">
<text text-anchor="middle" x="186.39" y="-21.59" font-family="Helvetica,sans-Serif" font-size="10.00" fill="#63b8ff">11</text>
</a>
</g>
</g>
<!-- dir_079f3dfffeb9e770010097b0dd1334eb -->
<g id="node4" class="node">
<title>dir_079f3dfffeb9e770010097b0dd1334eb</title>
<g id="a_node4"><a xlink:href="dir_079f3dfffeb9e770010097b0dd1334eb.html" target="_top" xlink:title="Utils">
<polygon fill="#edf0f7" stroke="#7f7f7f" points="246,-19 207,-19 207,0 246,0 246,-19"/>
<text text-anchor="middle" x="226.5" y="-7" font-family="Helvetica,sans-Serif" font-size="10.00">Utils</text>
</a>
</g>
</g>
<!-- dir_a914fe635f43607d3ac935bbff17c46d&#45;&gt;dir_079f3dfffeb9e770010097b0dd1334eb -->
<g id="edge2" class="edge">
<title>dir_a914fe635f43607d3ac935bbff17c46d&#45;&gt;dir_079f3dfffeb9e770010097b0dd1334eb</title>
<g id="a_edge2"><a xlink:href="dir_000015_000038.html" target="_top">
<path fill="none" stroke="#63b8ff" d="M218.99,-54.75C220.17,-47.8 221.86,-37.85 223.34,-29.13"/>
<polygon fill="#63b8ff" stroke="#63b8ff" points="226.82,-29.53 225.04,-19.09 219.92,-28.36 226.82,-29.53"/>
</a>
</g>
<g id="a_edge2&#45;headlabel"><a xlink:href="dir_000015_000038.html" target="_top" xlink:title="9">
<text text-anchor="middle" x="229.02" y="-31.05" font-family="Helvetica,sans-Serif" font-size="10.00" fill="#63b8ff">9</text>
</a>
</g>
</g>
<!-- dir_189eb8c36ffce94640b9d816bc05823d -->
<g id="node7" class="node">
<title>dir_189eb8c36ffce94640b9d816bc05823d</title>
<g id="a_node7"><a xlink:href="dir_189eb8c36ffce94640b9d816bc05823d.html" target="_top" xlink:title="Domain">
<polygon fill="#edf0f7" stroke="#7f7f7f" points="319,-19 264,-19 264,0 319,0 319,-19"/>
<text text-anchor="middle" x="291.5" y="-7" font-family="Helvetica,sans-Serif" font-size="10.00">Domain</text>
</a>
</g>
</g>
<!-- dir_a914fe635f43607d3ac935bbff17c46d&#45;&gt;dir_189eb8c36ffce94640b9d816bc05823d -->
<g id="edge3" class="edge">
<title>dir_a914fe635f43607d3ac935bbff17c46d&#45;&gt;dir_189eb8c36ffce94640b9d816bc05823d</title>
<g id="a_edge3"><a xlink:href="dir_000015_000011.html" target="_top">
<path fill="none" stroke="#63b8ff" d="M229.45,-54.87C235.96,-50.17 244.17,-44.25 251.5,-39 257.74,-34.53 264.54,-29.68 270.73,-25.27"/>
<polygon fill="#63b8ff" stroke="#63b8ff" points="273.12,-27.86 279.23,-19.21 269.06,-22.16 273.12,-27.86"/>
</a>
</g>
<g id="a_edge3&#45;headlabel"><a xlink:href="dir_000015_000011.html" target="_top" xlink:title="18">
<text text-anchor="middle" x="271.83" y="-29.76" font-family="Helvetica,sans-Serif" font-size="10.00" fill="#63b8ff">18</text>
</a>
</g>
</g>
<!-- dir_68aec2623aad94785c017c13c687e045 -->
<g id="node8" class="node">
<title>dir_68aec2623aad94785c017c13c687e045</title>
<g id="a_node8"><a xlink:href="dir_68aec2623aad94785c017c13c687e045.html" target="_top" xlink:title="DB">
<polygon fill="#edf0f7" stroke="#7f7f7f" points="368,-19 337,-19 337,0 368,0 368,-19"/>
<text text-anchor="middle" x="352.5" y="-7" font-family="Helvetica,sans-Serif" font-size="10.00">DB</text>
</a>
</g>
</g>
<!-- dir_a914fe635f43607d3ac935bbff17c46d&#45;&gt;dir_68aec2623aad94785c017c13c687e045 -->
<g id="edge4" class="edge">
<title>dir_a914fe635f43607d3ac935bbff17c46d&#45;&gt;dir_68aec2623aad94785c017c13c687e045</title>
<g id="a_edge4"><a xlink:href="dir_000015_000008.html" target="_top">
<path fill="none" stroke="#63b8ff" d="M227.29,-54.94C233.77,-49.66 242.68,-43.15 251.5,-39 280.88,-25.2 292.72,-28.61 327.04,-19.14"/>
<polygon fill="#63b8ff" stroke="#63b8ff" points="328.21,-22.45 336.81,-16.27 326.23,-15.73 328.21,-22.45"/>
</a>
</g>
<g id="a_edge4&#45;headlabel"><a xlink:href="dir_000015_000008.html" target="_top" xlink:title="4">
<text text-anchor="middle" x="325.56" y="-23.69" font-family="Helvetica,sans-Serif" font-size="10.00" fill="#63b8ff">4</text>
</a>
</g>
</g>
<!-- dir_69cf206f122d9153ac8b30a0f4a917bf -->
<g id="node9" class="node">
<title>dir_69cf206f122d9153ac8b30a0f4a917bf</title>
<g id="a_node9"><a xlink:href="dir_69cf206f122d9153ac8b30a0f4a917bf.html" target="_top" xlink:title="DataFlow">
<polygon fill="#edf0f7" stroke="red" stroke-dasharray="5,2" points="63,-19 0,-19 0,0 63,0 63,-19"/>
<text text-anchor="middle" x="31.5" y="-7" font-family="Helvetica,sans-Serif" font-size="10.00">DataFlow</text>
</a>
</g>
</g>
<!-- dir_a914fe635f43607d3ac935bbff17c46d&#45;&gt;dir_69cf206f122d9153ac8b30a0f4a917bf -->
<g id="edge5" class="edge">
<title>dir_a914fe635f43607d3ac935bbff17c46d&#45;&gt;dir_69cf206f122d9153ac8b30a0f4a917bf</title>
<g id="a_edge5"><a xlink:href="dir_000015_000005.html" target="_top">
<path fill="none" stroke="#63b8ff" d="M192.42,-56.35C161.33,-47.49 107.97,-32.29 71.28,-21.84"/>
<polygon fill="#63b8ff" stroke="#63b8ff" points="71.98,-18.4 61.41,-19.02 70.06,-25.13 71.98,-18.4"/>
</a>
</g>
<g id="a_edge5&#45;headlabel"><a xlink:href="dir_000015_000005.html" target="_top" xlink:title="46">
<text text-anchor="middle" x="76.22" y="-14.15" font-family="Helvetica,sans-Serif" font-size="10.00" fill="#63b8ff">46</text>
</a>
</g>
</g>
<!-- dir_aeca43db7a276eb6dbfba1f93dc4539c -->
<g id="node10" class="node">
<title>dir_aeca43db7a276eb6dbfba1f93dc4539c</title>
<g id="a_node10"><a xlink:href="dir_aeca43db7a276eb6dbfba1f93dc4539c.html" target="_top" xlink:title="Utils">
<polygon fill="#edf0f7" stroke="#7f7f7f" points="120,-19 81,-19 81,0 120,0 120,-19"/>
<text text-anchor="middle" x="100.5" y="-7" font-family="Helvetica,sans-Serif" font-size="10.00">Utils</text>
</a>
</g>
</g>
<!-- dir_a914fe635f43607d3ac935bbff17c46d&#45;&gt;dir_aeca43db7a276eb6dbfba1f93dc4539c -->
<g id="edge6" class="edge">
<title>dir_a914fe635f43607d3ac935bbff17c46d&#45;&gt;dir_aeca43db7a276eb6dbfba1f93dc4539c</title>
<g id="a_edge6"><a xlink:href="dir_000015_000039.html" target="_top">
<path fill="none" stroke="#63b8ff" d="M198.7,-54.98C179.88,-46.46 150.68,-33.23 129,-23.41"/>
<polygon fill="#63b8ff" stroke="#63b8ff" points="130.19,-20.11 119.64,-19.17 127.3,-26.48 130.19,-20.11"/>
</a>
</g>
<g id="a_edge6&#45;headlabel"><a xlink:href="dir_000015_000039.html" target="_top" xlink:title="23">
<text text-anchor="middle" x="134.64" y="-16.51" font-family="Helvetica,sans-Serif" font-size="10.00" fill="#63b8ff">23</text>
</a>
</g>
</g>
<!-- dir_8f2cc0dbdb5107552a837377e8f5f9e3 -->
<g id="node2" class="node">
<title>dir_8f2cc0dbdb5107552a837377e8f5f9e3</title>
<g id="a_node2"><a xlink:href="dir_8f2cc0dbdb5107552a837377e8f5f9e3.html" target="_top" xlink:title="Problems">
<polygon fill="#a2b4d6" stroke="#404040" points="322.5,-74 260.5,-74 260.5,-55 322.5,-55 322.5,-74"/>
<text text-anchor="middle" x="291.5" y="-62" font-family="Helvetica,sans-Serif" font-size="10.00">Problems</text>
</a>
</g>
</g>
<!-- dir_8f2cc0dbdb5107552a837377e8f5f9e3&#45;&gt;dir_0133e64b3a4c854b47f86a7b8e0c9983 -->
<g id="edge7" class="edge">
<title>dir_8f2cc0dbdb5107552a837377e8f5f9e3&#45;&gt;dir_0133e64b3a4c854b47f86a7b8e0c9983</title>
<g id="a_edge7"><a xlink:href="dir_000028_000026.html" target="_top">
<path fill="none" stroke="#63b8ff" d="M279.31,-54.99C271.59,-49.87 261.26,-43.49 251.5,-39 234.71,-31.27 215.22,-24.73 198.87,-19.87"/>
<polygon fill="#63b8ff" stroke="#63b8ff" points="199.71,-16.47 189.14,-17.07 197.78,-23.2 199.71,-16.47"/>
</a>
</g>
<g id="a_edge7&#45;headlabel"><a xlink:href="dir_000028_000026.html" target="_top" xlink:title="8">
<text text-anchor="middle" x="203.95" y="-12.24" font-family="Helvetica,sans-Serif" font-size="10.00" fill="#63b8ff">8</text>
</a>
</g>
</g>
<!-- dir_8f2cc0dbdb5107552a837377e8f5f9e3&#45;&gt;dir_079f3dfffeb9e770010097b0dd1334eb -->
<g id="edge8" class="edge">
<title>dir_8f2cc0dbdb5107552a837377e8f5f9e3&#45;&gt;dir_079f3dfffeb9e770010097b0dd1334eb</title>
<g id="a_edge8"><a xlink:href="dir_000028_000038.html" target="_top">
<path fill="none" stroke="#63b8ff" d="M281.06,-54.98C271.35,-47.07 256.68,-35.11 245,-25.58"/>
<polygon fill="#63b8ff" stroke="#63b8ff" points="247.1,-22.78 237.13,-19.17 242.67,-28.2 247.1,-22.78"/>
</a>
</g>
<g id="a_edge8&#45;headlabel"><a xlink:href="dir_000028_000038.html" target="_top" xlink:title="7">
<text text-anchor="middle" x="251.68" y="-20.35" font-family="Helvetica,sans-Serif" font-size="10.00" fill="#63b8ff">7</text>
</a>
</g>
</g>
<!-- dir_0bc4dee926a629f715a9261d8d248ef6 -->
<g id="node5" class="node">
<title>dir_0bc4dee926a629f715a9261d8d248ef6</title>
<g id="a_node5"><a xlink:href="dir_0bc4dee926a629f715a9261d8d248ef6.html" target="_top" xlink:title="ControlFlow">
<polygon fill="#edf0f7" stroke="red" stroke-dasharray="5,2" points="461,-19 386,-19 386,0 461,0 461,-19"/>
<text text-anchor="middle" x="423.5" y="-7" font-family="Helvetica,sans-Serif" font-size="10.00">ControlFlow</text>
</a>
</g>
</g>
<!-- dir_8f2cc0dbdb5107552a837377e8f5f9e3&#45;&gt;dir_0bc4dee926a629f715a9261d8d248ef6 -->
<g id="edge9" class="edge">
<title>dir_8f2cc0dbdb5107552a837377e8f5f9e3&#45;&gt;dir_0bc4dee926a629f715a9261d8d248ef6</title>
<g id="a_edge9"><a xlink:href="dir_000028_000004.html" target="_top">
<path fill="none" stroke="#63b8ff" d="M312.71,-54.98C334.23,-46.34 367.78,-32.87 392.33,-23.02"/>
<polygon fill="#63b8ff" stroke="#63b8ff" points="393.93,-26.14 401.91,-19.17 391.32,-19.65 393.93,-26.14"/>
</a>
</g>
<g id="a_edge9&#45;headlabel"><a xlink:href="dir_000028_000004.html" target="_top" xlink:title="4">
<text text-anchor="middle" x="391.65" y="-27.62" font-family="Helvetica,sans-Serif" font-size="10.00" fill="#63b8ff">4</text>
</a>
</g>
</g>
<!-- dir_15b1266ec3c6694d64b0cfc160192d3b -->
<g id="node6" class="node">
<title>dir_15b1266ec3c6694d64b0cfc160192d3b</title>
<g id="a_node6"><a xlink:href="dir_15b1266ec3c6694d64b0cfc160192d3b.html" target="_top" xlink:title="Domain">
<polygon fill="#edf0f7" stroke="#7f7f7f" points="534,-19 479,-19 479,0 534,0 534,-19"/>
<text text-anchor="middle" x="506.5" y="-7" font-family="Helvetica,sans-Serif" font-size="10.00">Domain</text>
</a>
</g>
</g>
<!-- dir_8f2cc0dbdb5107552a837377e8f5f9e3&#45;&gt;dir_15b1266ec3c6694d64b0cfc160192d3b -->
<g id="edge10" class="edge">
<title>dir_8f2cc0dbdb5107552a837377e8f5f9e3&#45;&gt;dir_15b1266ec3c6694d64b0cfc160192d3b</title>
<g id="a_edge10"><a xlink:href="dir_000028_000010.html" target="_top">
<path fill="none" stroke="#63b8ff" d="M322.76,-55.79C361.6,-46.22 427.8,-29.9 469.24,-19.69"/>
<polygon fill="#63b8ff" stroke="#63b8ff" points="470.08,-23.08 478.95,-17.29 468.41,-16.29 470.08,-23.08"/>
</a>
</g>
<g id="a_edge10&#45;headlabel"><a xlink:href="dir_000028_000010.html" target="_top" xlink:title="7">
<text text-anchor="middle" x="467.27" y="-24.2" font-family="Helvetica,sans-Serif" font-size="10.00" fill="#63b8ff">7</text>
</a>
</g>
</g>
<!-- dir_8f2cc0dbdb5107552a837377e8f5f9e3&#45;&gt;dir_189eb8c36ffce94640b9d816bc05823d -->
<g id="edge11" class="edge">
<title>dir_8f2cc0dbdb5107552a837377e8f5f9e3&#45;&gt;dir_189eb8c36ffce94640b9d816bc05823d</title>
<g id="a_edge11"><a xlink:href="dir_000028_000011.html" target="_top">
<path fill="none" stroke="#63b8ff" d="M291.5,-54.75C291.5,-47.8 291.5,-37.85 291.5,-29.13"/>
<polygon fill="#63b8ff" stroke="#63b8ff" points="295,-29.09 291.5,-19.09 288,-29.09 295,-29.09"/>
</a>
</g>
<g id="a_edge11&#45;headlabel"><a xlink:href="dir_000028_000011.html" target="_top" xlink:title="17">
<text text-anchor="middle" x="297.84" y="-30.18" font-family="Helvetica,sans-Serif" font-size="10.00" fill="#63b8ff">17</text>
</a>
</g>
</g>
<!-- dir_8f2cc0dbdb5107552a837377e8f5f9e3&#45;&gt;dir_68aec2623aad94785c017c13c687e045 -->
<g id="edge13" class="edge">
<title>dir_8f2cc0dbdb5107552a837377e8f5f9e3&#45;&gt;dir_68aec2623aad94785c017c13c687e045</title>
<g id="a_edge13"><a xlink:href="dir_000028_000008.html" target="_top">
<path fill="none" stroke="#63b8ff" d="M301.3,-54.98C310.32,-47.15 323.91,-35.34 334.82,-25.86"/>
<polygon fill="#63b8ff" stroke="#63b8ff" points="337.27,-28.37 342.52,-19.17 332.68,-23.09 337.27,-28.37"/>
</a>
</g>
<g id="a_edge13&#45;headlabel"><a xlink:href="dir_000028_000008.html" target="_top" xlink:title="3">
<text text-anchor="middle" x="336.42" y="-30.37" font-family="Helvetica,sans-Serif" font-size="10.00" fill="#63b8ff">3</text>
</a>
</g>
</g>
<!-- dir_8f2cc0dbdb5107552a837377e8f5f9e3&#45;&gt;dir_69cf206f122d9153ac8b30a0f4a917bf -->
<g id="edge14" class="edge">
<title>dir_8f2cc0dbdb5107552a837377e8f5f9e3&#45;&gt;dir_69cf206f122d9153ac8b30a0f4a917bf</title>
<g id="a_edge14"><a xlink:href="dir_000028_000005.html" target="_top">
<path fill="none" stroke="#63b8ff" d="M280.28,-54.76C272.61,-49.28 261.98,-42.59 251.5,-39 178.33,-13.93 152.95,-30.42 73.31,-19.08"/>
<polygon fill="#63b8ff" stroke="#63b8ff" points="73.74,-15.61 63.32,-17.56 72.68,-22.53 73.74,-15.61"/>
</a>
</g>
<g id="a_edge14&#45;headlabel"><a xlink:href="dir_000028_000005.html" target="_top" xlink:title="41">
<text text-anchor="middle" x="77.72" y="-10.84" font-family="Helvetica,sans-Serif" font-size="10.00" fill="#63b8ff">41</text>
</a>
</g>
</g>
<!-- dir_8f2cc0dbdb5107552a837377e8f5f9e3&#45;&gt;dir_aeca43db7a276eb6dbfba1f93dc4539c -->
<g id="edge15" class="edge">
<title>dir_8f2cc0dbdb5107552a837377e8f5f9e3&#45;&gt;dir_aeca43db7a276eb6dbfba1f93dc4539c</title>
<g id="a_edge15"><a xlink:href="dir_000028_000039.html" target="_top">
<path fill="none" stroke="#63b8ff" d="M280.22,-54.94C272.52,-49.53 261.88,-42.85 251.5,-39 202.42,-20.78 184.43,-30.32 130.1,-19.04"/>
<polygon fill="#63b8ff" stroke="#63b8ff" points="130.82,-15.62 120.3,-16.87 129.3,-22.45 130.82,-15.62"/>
</a>
</g>
<g id="a_edge15&#45;headlabel"><a xlink:href="dir_000028_000039.html" target="_top" xlink:title="18">
<text text-anchor="middle" x="134.94" y="-11.12" font-family="Helvetica,sans-Serif" font-size="10.00" fill="#63b8ff">18</text>
</a>
</g>
</g>
<!-- dir_63e7bb0cb88dc7cebeab7c37a85fbe32 -->
<g id="node11" class="node">
<title>dir_63e7bb0cb88dc7cebeab7c37a85fbe32</title>
<g id="a_node11"><a xlink:href="dir_63e7bb0cb88dc7cebeab7c37a85fbe32.html" target="_top" xlink:title="TaintConfig">
<polygon fill="#edf0f7" stroke="#7f7f7f" points="623,-19 552,-19 552,0 623,0 623,-19"/>
<text text-anchor="middle" x="587.5" y="-7" font-family="Helvetica,sans-Serif" font-size="10.00">TaintConfig</text>
</a>
</g>
</g>
<!-- dir_8f2cc0dbdb5107552a837377e8f5f9e3&#45;&gt;dir_63e7bb0cb88dc7cebeab7c37a85fbe32 -->
<g id="edge12" class="edge">
<title>dir_8f2cc0dbdb5107552a837377e8f5f9e3&#45;&gt;dir_63e7bb0cb88dc7cebeab7c37a85fbe32</title>
<g id="a_edge12"><a xlink:href="dir_000028_000034.html" target="_top">
<path fill="none" stroke="#63b8ff" d="M322.57,-58.18C368.35,-50.3 456.91,-34.93 541.89,-19.28"/>
<polygon fill="#63b8ff" stroke="#63b8ff" points="542.77,-22.67 551.97,-17.41 541.5,-15.79 542.77,-22.67"/>
</a>
</g>
<g id="a_edge12&#45;headlabel"><a xlink:href="dir_000028_000034.html" target="_top" xlink:title="1">
<text text-anchor="middle" x="539.75" y="-23.62" font-family="Helvetica,sans-Serif" font-size="10.00" fill="#63b8ff">1</text>
</a>
</g>
</g>
</g>
</svg>
