<?xml version="1.0" encoding="UTF-8" standalone="no"?>
<!DOCTYPE svg PUBLIC "-//W3C//DTD SVG 1.1//EN"
 "http://www.w3.org/Graphics/SVG/1.1/DTD/svg11.dtd">
<!-- Generated by graphviz version 2.43.0 (0)
 -->
<!-- Title: include/phasar/DataFlow Pages: 1 -->
<svg width="602pt" height="196pt"
 viewBox="0.00 0.00 602.00 196.00" xmlns="http://www.w3.org/2000/svg" xmlns:xlink="http://www.w3.org/1999/xlink">
<g id="graph0" class="graph" transform="scale(1 1) rotate(0) translate(4 192)">
<title>include/phasar/DataFlow</title>
<g id="clust1" class="cluster">
<title>clusterdir_05d093d0ed3722b9a30705a9449fa665</title>
<g id="a_clust1"><a xlink:href="dir_05d093d0ed3722b9a30705a9449fa665.html" target="_top" xlink:title="phasar">
<polygon fill="#edf0f7" stroke="#7f7f7f" stroke-dasharray="5,2" points="8,-8 8,-180 586,-180 586,-8 8,-8"/>
<text text-anchor="middle" x="297" y="-168" font-family="Helvetica,sans-Serif" font-size="10.00">phasar</text>
</a>
</g>
</g>
<g id="clust2" class="cluster">
<title>clusterdir_69cf206f122d9153ac8b30a0f4a917bf</title>
<g id="a_clust2"><a xlink:href="dir_69cf206f122d9153ac8b30a0f4a917bf.html" target="_top">
<polygon fill="#edf0f7" stroke="#404040" stroke-width="2" points="308,-63 308,-153 518,-153 518,-63 308,-63"/>
</a>
</g>
</g>
<!-- dir_aeca43db7a276eb6dbfba1f93dc4539c -->
<g id="node1" class="node">
<title>dir_aeca43db7a276eb6dbfba1f93dc4539c</title>
<g id="a_node1"><a xlink:href="dir_aeca43db7a276eb6dbfba1f93dc4539c.html" target="_top" xlink:title="Utils">
<polygon fill="#a2b4d6" stroke="#404040" points="338.5,-35 299.5,-35 299.5,-16 338.5,-16 338.5,-35"/>
<text text-anchor="middle" x="319" y="-23" font-family="Helvetica,sans-Serif" font-size="10.00">Utils</text>
</a>
</g>
</g>
<!-- dir_9d06c2f3a5ac32ab80fc048d7ff16b35 -->
<g id="node2" class="node">
<title>dir_9d06c2f3a5ac32ab80fc048d7ff16b35</title>
<g id="a_node2"><a xlink:href="dir_9d06c2f3a5ac32ab80fc048d7ff16b35.html" target="_top" xlink:title="ControlFlow">
<polygon fill="#a2b4d6" stroke="#404040" points="226.5,-90 151.5,-90 151.5,-71 226.5,-71 226.5,-90"/>
<text text-anchor="middle" x="189" y="-78" font-family="Helvetica,sans-Serif" font-size="10.00">ControlFlow</text>
</a>
</g>
</g>
<!-- dir_1f703d4dd1e982897af273349847e927 -->
<g id="node3" class="node">
<title>dir_1f703d4dd1e982897af273349847e927</title>
<g id="a_node3"><a xlink:href="dir_1f703d4dd1e982897af273349847e927.html" target="_top" xlink:title="DB">
<polygon fill="#a2b4d6" stroke="#404040" points="47.5,-90 16.5,-90 16.5,-71 47.5,-71 47.5,-90"/>
<text text-anchor="middle" x="32" y="-78" font-family="Helvetica,sans-Serif" font-size="10.00">DB</text>
</a>
</g>
</g>
<!-- dir_15b1266ec3c6694d64b0cfc160192d3b -->
<g id="node4" class="node">
<title>dir_15b1266ec3c6694d64b0cfc160192d3b</title>
<g id="a_node4"><a xlink:href="dir_15b1266ec3c6694d64b0cfc160192d3b.html" target="_top" xlink:title="Domain">
<polygon fill="#a2b4d6" stroke="#404040" points="299.5,-90 244.5,-90 244.5,-71 299.5,-71 299.5,-90"/>
<text text-anchor="middle" x="272" y="-78" font-family="Helvetica,sans-Serif" font-size="10.00">Domain</text>
</a>
</g>
</g>
<!-- dir_58a8bb8411baaae7f5177ea38c71ea73 -->
<g id="node5" class="node">
<title>dir_58a8bb8411baaae7f5177ea38c71ea73</title>
<g id="a_node5"><a xlink:href="dir_58a8bb8411baaae7f5177ea38c71ea73.html" target="_top" xlink:title="Pointer">
<polygon fill="#a2b4d6" stroke="#404040" points="577.5,-90 526.5,-90 526.5,-71 577.5,-71 577.5,-90"/>
<text text-anchor="middle" x="552" y="-78" font-family="Helvetica,sans-Serif" font-size="10.00">Pointer</text>
</a>
</g>
</g>
<!-- dir_6556945d274d6e1e874171d9d575b3f4 -->
<g id="node6" class="node">
<title>dir_6556945d274d6e1e874171d9d575b3f4</title>
<g id="a_node6"><a xlink:href="dir_6556945d274d6e1e874171d9d575b3f4.html" target="_top" xlink:title="PhasarLLVM">
<polygon fill="#a2b4d6" stroke="red" points="456.5,-35 381.5,-35 381.5,-16 456.5,-16 456.5,-35"/>
<text text-anchor="middle" x="419" y="-23" font-family="Helvetica,sans-Serif" font-size="10.00">PhasarLLVM</text>
</a>
</g>
</g>
<!-- dir_86d6a0ef6fcd04306246bc919bf79e2a -->
<g id="node7" class="node">
<title>dir_86d6a0ef6fcd04306246bc919bf79e2a</title>
<g id="a_node7"><a xlink:href="dir_86d6a0ef6fcd04306246bc919bf79e2a.html" target="_top" xlink:title="Config">
<polygon fill="#a2b4d6" stroke="#404040" points="133.5,-90 86.5,-90 86.5,-71 133.5,-71 133.5,-90"/>
<text text-anchor="middle" x="110" y="-78" font-family="Helvetica,sans-Serif" font-size="10.00">Config</text>
</a>
</g>
</g>
<!-- dir_69cf206f122d9153ac8b30a0f4a917bf -->
<g id="node8" class="node">
<title>dir_69cf206f122d9153ac8b30a0f4a917bf</title>
<text text-anchor="middle" x="478" y="-133" font-family="Helvetica,sans-Serif" font-size="10.00">DataFlow</text>
</g>
<!-- dir_1ba1ec376ff688e17f2e5c57f98f2cf2 -->
<g id="node9" class="node">
<title>dir_1ba1ec376ff688e17f2e5c57f98f2cf2</title>
<g id="a_node9"><a xlink:href="dir_1ba1ec376ff688e17f2e5c57f98f2cf2.html" target="_top" xlink:title="IfdsIde">
<polygon fill="#a2b4d6" stroke="#404040" points="366,-145 316,-145 316,-126 366,-126 366,-145"/>
<text text-anchor="middle" x="341" y="-133" font-family="Helvetica,sans-Serif" font-size="10.00">IfdsIde</text>
</a>
</g>
</g>
<!-- dir_1ba1ec376ff688e17f2e5c57f98f2cf2&#45;&gt;dir_aeca43db7a276eb6dbfba1f93dc4539c -->
<g id="edge4" class="edge">
<title>dir_1ba1ec376ff688e17f2e5c57f98f2cf2&#45;&gt;dir_aeca43db7a276eb6dbfba1f93dc4539c</title>
<g id="a_edge4"><a xlink:href="dir_000014_000039.html" target="_top">
<path fill="none" stroke="#63b8ff" d="M315.75,-134.18C255.94,-132.85 108.34,-125.9 78,-90 70.25,-80.83 70.18,-72.1 78,-63 104.95,-31.66 231.09,-26.9 289.36,-26.4"/>
<polygon fill="#63b8ff" stroke="#63b8ff" points="289.43,-29.9 299.41,-26.35 289.39,-22.9 289.43,-29.9"/>
</a>
</g>
<g id="a_edge4&#45;headlabel"><a xlink:href="dir_000014_000039.html" target="_top" xlink:title="78">
<text text-anchor="middle" x="285.85" y="-30.25" font-family="Helvetica,sans-Serif" font-size="10.00" fill="#63b8ff">78</text>
</a>
</g>
</g>
<!-- dir_1ba1ec376ff688e17f2e5c57f98f2cf2&#45;&gt;dir_9d06c2f3a5ac32ab80fc048d7ff16b35 -->
<g id="edge3" class="edge">
<title>dir_1ba1ec376ff688e17f2e5c57f98f2cf2&#45;&gt;dir_9d06c2f3a5ac32ab80fc048d7ff16b35</title>
<g id="a_edge3"><a xlink:href="dir_000014_000003.html" target="_top">
<path fill="none" stroke="#63b8ff" d="M316.58,-125.98C291.28,-117.16 251.55,-103.31 223.14,-93.41"/>
<polygon fill="#63b8ff" stroke="#63b8ff" points="224.21,-90.07 213.61,-90.08 221.9,-96.68 224.21,-90.07"/>
</a>
</g>
<g id="a_edge3&#45;headlabel"><a xlink:href="dir_000014_000003.html" target="_top" xlink:title="3">
<text text-anchor="middle" x="228.54" y="-86.07" font-family="Helvetica,sans-Serif" font-size="10.00" fill="#63b8ff">3</text>
</a>
</g>
</g>
<!-- dir_1ba1ec376ff688e17f2e5c57f98f2cf2&#45;&gt;dir_1f703d4dd1e982897af273349847e927 -->
<g id="edge2" class="edge">
<title>dir_1ba1ec376ff688e17f2e5c57f98f2cf2&#45;&gt;dir_1f703d4dd1e982897af273349847e927</title>
<g id="a_edge2"><a xlink:href="dir_000014_000007.html" target="_top">
<path fill="none" stroke="#63b8ff" d="M315.8,-131.49C266.65,-125.41 154.68,-110.45 62,-90 60.55,-89.68 59.06,-89.33 57.56,-88.96"/>
<polygon fill="#63b8ff" stroke="#63b8ff" points="58.36,-85.55 47.79,-86.35 56.55,-92.31 58.36,-85.55"/>
</a>
</g>
<g id="a_edge2&#45;headlabel"><a xlink:href="dir_000014_000007.html" target="_top" xlink:title="2">
<text text-anchor="middle" x="62.56" y="-81.23" font-family="Helvetica,sans-Serif" font-size="10.00" fill="#63b8ff">2</text>
</a>
</g>
</g>
<!-- dir_1ba1ec376ff688e17f2e5c57f98f2cf2&#45;&gt;dir_15b1266ec3c6694d64b0cfc160192d3b -->
<g id="edge1" class="edge">
<title>dir_1ba1ec376ff688e17f2e5c57f98f2cf2&#45;&gt;dir_15b1266ec3c6694d64b0cfc160192d3b</title>
<g id="a_edge1"><a xlink:href="dir_000014_000010.html" target="_top">
<path fill="none" stroke="#63b8ff" d="M329.91,-125.98C319.51,-118 303.74,-105.88 291.28,-96.31"/>
<polygon fill="#63b8ff" stroke="#63b8ff" points="293.35,-93.49 283.29,-90.17 289.09,-99.04 293.35,-93.49"/>
</a>
</g>
<g id="a_edge1&#45;headlabel"><a xlink:href="dir_000014_000010.html" target="_top" xlink:title="10">
<text text-anchor="middle" x="297.93" y="-90.92" font-family="Helvetica,sans-Serif" font-size="10.00" fill="#63b8ff">10</text>
</a>
</g>
</g>
<!-- dir_1ba1ec376ff688e17f2e5c57f98f2cf2&#45;&gt;dir_86d6a0ef6fcd04306246bc919bf79e2a -->
<g id="edge5" class="edge">
<title>dir_1ba1ec376ff688e17f2e5c57f98f2cf2&#45;&gt;dir_86d6a0ef6fcd04306246bc919bf79e2a</title>
<g id="a_edge5"><a xlink:href="dir_000014_000001.html" target="_top">
<path fill="none" stroke="#63b8ff" d="M315.94,-129.13C280.07,-121.38 211.79,-106.43 143.8,-90.13"/>
<polygon fill="#63b8ff" stroke="#63b8ff" points="144.31,-86.66 133.77,-87.72 142.67,-93.46 144.31,-86.66"/>
</a>
</g>
<g id="a_edge5&#45;headlabel"><a xlink:href="dir_000014_000001.html" target="_top" xlink:title="1">
<text text-anchor="middle" x="148.47" y="-82.24" font-family="Helvetica,sans-Serif" font-size="10.00" fill="#63b8ff">1</text>
</a>
</g>
</g>
<!-- dir_f6f31373dd45512da8386c416124f795 -->
<g id="node11" class="node">
<title>dir_f6f31373dd45512da8386c416124f795</title>
<g id="a_node11"><a xlink:href="dir_f6f31373dd45512da8386c416124f795.html" target="_top" xlink:title="PathSensitivity">
<polygon fill="#a2b4d6" stroke="#404040" points="426.5,-90 337.5,-90 337.5,-71 426.5,-71 426.5,-90"/>
<text text-anchor="middle" x="382" y="-78" font-family="Helvetica,sans-Serif" font-size="10.00">PathSensitivity</text>
</a>
</g>
</g>
<!-- dir_1ba1ec376ff688e17f2e5c57f98f2cf2&#45;&gt;dir_f6f31373dd45512da8386c416124f795 -->
<g id="edge6" class="edge">
<title>dir_1ba1ec376ff688e17f2e5c57f98f2cf2&#45;&gt;dir_f6f31373dd45512da8386c416124f795</title>
<g id="a_edge6"><a xlink:href="dir_000014_000020.html" target="_top">
<path fill="none" stroke="#63b8ff" d="M342.6,-125.75C346.87,-118.11 355.24,-106.82 363.31,-97.56"/>
<polygon fill="#63b8ff" stroke="#63b8ff" points="366,-99.81 370.22,-90.09 360.87,-95.05 366,-99.81"/>
</a>
</g>
<g id="a_edge6&#45;headlabel"><a xlink:href="dir_000014_000020.html" target="_top" xlink:title="1">
<text text-anchor="middle" x="365.65" y="-101.87" font-family="Helvetica,sans-Serif" font-size="10.00" fill="#63b8ff">1</text>
</a>
</g>
</g>
<!-- dir_a4174b107418faba67c63e7c8c75c1c7 -->
<g id="node10" class="node">
<title>dir_a4174b107418faba67c63e7c8c75c1c7</title>
<g id="a_node10"><a xlink:href="dir_a4174b107418faba67c63e7c8c75c1c7.html" target="_top" xlink:title="Mono">
<polygon fill="#a2b4d6" stroke="#404040" points="428,-145 384,-145 384,-126 428,-126 428,-145"/>
<text text-anchor="middle" x="406" y="-133" font-family="Helvetica,sans-Serif" font-size="10.00">Mono</text>
</a>
</g>
</g>
<!-- dir_a4174b107418faba67c63e7c8c75c1c7&#45;&gt;dir_aeca43db7a276eb6dbfba1f93dc4539c -->
<g id="edge10" class="edge">
<title>dir_a4174b107418faba67c63e7c8c75c1c7&#45;&gt;dir_aeca43db7a276eb6dbfba1f93dc4539c</title>
<g id="a_edge10"><a xlink:href="dir_000017_000039.html" target="_top">
<path fill="none" stroke="#63b8ff" d="M383.71,-127.62C365.97,-120.93 342.02,-108.97 329,-90 320.02,-76.92 317.93,-58.78 317.85,-45.23"/>
<polygon fill="#63b8ff" stroke="#63b8ff" points="321.35,-45.25 318.14,-35.15 314.35,-45.05 321.35,-45.25"/>
</a>
</g>
<g id="a_edge10&#45;headlabel"><a xlink:href="dir_000017_000039.html" target="_top" xlink:title="6">
<text text-anchor="middle" x="324.08" y="-46.43" font-family="Helvetica,sans-Serif" font-size="10.00" fill="#63b8ff">6</text>
</a>
</g>
</g>
<!-- dir_a4174b107418faba67c63e7c8c75c1c7&#45;&gt;dir_9d06c2f3a5ac32ab80fc048d7ff16b35 -->
<g id="edge9" class="edge">
<title>dir_a4174b107418faba67c63e7c8c75c1c7&#45;&gt;dir_9d06c2f3a5ac32ab80fc048d7ff16b35</title>
<g id="a_edge9"><a xlink:href="dir_000017_000003.html" target="_top">
<path fill="none" stroke="#63b8ff" d="M383.67,-128.28C380.76,-127.5 377.81,-126.72 375,-126 327.96,-113.93 273.97,-101.13 236.31,-92.37"/>
<polygon fill="#63b8ff" stroke="#63b8ff" points="236.68,-88.86 226.14,-90.01 235.09,-95.68 236.68,-88.86"/>
</a>
</g>
<g id="a_edge9&#45;headlabel"><a xlink:href="dir_000017_000003.html" target="_top" xlink:title="2">
<text text-anchor="middle" x="240.82" y="-84.41" font-family="Helvetica,sans-Serif" font-size="10.00" fill="#63b8ff">2</text>
</a>
</g>
</g>
<!-- dir_a4174b107418faba67c63e7c8c75c1c7&#45;&gt;dir_15b1266ec3c6694d64b0cfc160192d3b -->
<g id="edge7" class="edge">
<title>dir_a4174b107418faba67c63e7c8c75c1c7&#45;&gt;dir_15b1266ec3c6694d64b0cfc160192d3b</title>
<g id="a_edge7"><a xlink:href="dir_000017_000010.html" target="_top">
<path fill="none" stroke="#63b8ff" d="M384.47,-125.98C362.53,-117.3 328.26,-103.75 303.31,-93.88"/>
<polygon fill="#63b8ff" stroke="#63b8ff" points="304.51,-90.59 293.92,-90.17 301.93,-97.1 304.51,-90.59"/>
</a>
</g>
<g id="a_edge7&#45;headlabel"><a xlink:href="dir_000017_000010.html" target="_top" xlink:title="1">
<text text-anchor="middle" x="308.89" y="-86.78" font-family="Helvetica,sans-Serif" font-size="10.00" fill="#63b8ff">1</text>
</a>
</g>
</g>
<!-- dir_a4174b107418faba67c63e7c8c75c1c7&#45;&gt;dir_58a8bb8411baaae7f5177ea38c71ea73 -->
<g id="edge8" class="edge">
<title>dir_a4174b107418faba67c63e7c8c75c1c7&#45;&gt;dir_58a8bb8411baaae7f5177ea38c71ea73</title>
<g id="a_edge8"><a xlink:href="dir_000017_000027.html" target="_top">
<path fill="none" stroke="#63b8ff" d="M428.17,-126.45C452.19,-117.73 490.77,-103.73 518.49,-93.67"/>
<polygon fill="#63b8ff" stroke="#63b8ff" points="519.95,-96.86 528.16,-90.15 517.56,-90.28 519.95,-96.86"/>
</a>
</g>
<g id="a_edge8&#45;headlabel"><a xlink:href="dir_000017_000027.html" target="_top" xlink:title="2">
<text text-anchor="middle" x="517.54" y="-98.25" font-family="Helvetica,sans-Serif" font-size="10.00" fill="#63b8ff">2</text>
</a>
</g>
</g>
<!-- dir_a4174b107418faba67c63e7c8c75c1c7&#45;&gt;dir_6556945d274d6e1e874171d9d575b3f4 -->
<g id="edge11" class="edge">
<title>dir_a4174b107418faba67c63e7c8c75c1c7&#45;&gt;dir_6556945d274d6e1e874171d9d575b3f4</title>
<g id="a_edge11"><a xlink:href="dir_000017_000024.html" target="_top">
<path fill="none" stroke="#63b8ff" d="M414.21,-125.8C421.54,-117.38 431.75,-103.9 436,-90 439.51,-78.52 438.59,-74.72 436,-63 434.57,-56.53 431.86,-49.84 429.03,-43.99"/>
<polygon fill="#63b8ff" stroke="#63b8ff" points="432.1,-42.32 424.33,-35.11 425.91,-45.59 432.1,-42.32"/>
</a>
</g>
<g id="a_edge11&#45;headlabel"><a xlink:href="dir_000017_000024.html" target="_top" xlink:title="1">
<text text-anchor="middle" x="436.29" y="-41.67" font-family="Helvetica,sans-Serif" font-size="10.00" fill="#63b8ff">1</text>
</a>
</g>
</g>
<!-- dir_f6f31373dd45512da8386c416124f795&#45;&gt;dir_aeca43db7a276eb6dbfba1f93dc4539c -->
<g id="edge14" class="edge">
<title>dir_f6f31373dd45512da8386c416124f795&#45;&gt;dir_aeca43db7a276eb6dbfba1f93dc4539c</title>
<g id="a_edge14"><a xlink:href="dir_000020_000039.html" target="_top">
<path fill="none" stroke="#63b8ff" d="M371.88,-70.98C362.56,-63.15 348.53,-51.34 337.26,-41.86"/>
<polygon fill="#63b8ff" stroke="#63b8ff" points="339.21,-38.93 329.31,-35.17 334.71,-44.29 339.21,-38.93"/>
</a>
</g>
<g id="a_edge14&#45;headlabel"><a xlink:href="dir_000020_000039.html" target="_top" xlink:title="15">
<text text-anchor="middle" x="343.79" y="-36.57" font-family="Helvetica,sans-Serif" font-size="10.00" fill="#63b8ff">15</text>
</a>
</g>
</g>
<!-- dir_f6f31373dd45512da8386c416124f795&#45;&gt;dir_6556945d274d6e1e874171d9d575b3f4 -->
<g id="edge13" class="edge">
<title>dir_f6f31373dd45512da8386c416124f795&#45;&gt;dir_6556945d274d6e1e874171d9d575b3f4</title>
<g id="a_edge13"><a xlink:href="dir_000020_000024.html" target="_top">
<path fill="none" stroke="#63b8ff" d="M388.11,-70.75C393.28,-63.34 400.85,-52.5 407.19,-43.41"/>
<polygon fill="#63b8ff" stroke="#63b8ff" points="410.15,-45.29 413,-35.09 404.41,-41.29 410.15,-45.29"/>
</a>
</g>
<g id="a_edge13&#45;headlabel"><a xlink:href="dir_000020_000024.html" target="_top" xlink:title="2">
<text text-anchor="middle" x="410.42" y="-47.36" font-family="Helvetica,sans-Serif" font-size="10.00" fill="#63b8ff">2</text>
</a>
</g>
</g>
<!-- dir_f6f31373dd45512da8386c416124f795&#45;&gt;dir_1ba1ec376ff688e17f2e5c57f98f2cf2 -->
<g id="edge12" class="edge">
<title>dir_f6f31373dd45512da8386c416124f795&#45;&gt;dir_1ba1ec376ff688e17f2e5c57f98f2cf2</title>
<g id="a_edge12"><a xlink:href="dir_000020_000014.html" target="_top">
<path fill="none" stroke="#63b8ff" d="M380.49,-90.09C376.28,-97.68 367.94,-108.95 359.86,-118.24"/>
<polygon fill="#63b8ff" stroke="#63b8ff" points="357.14,-116.02 352.94,-125.75 362.29,-120.77 357.14,-116.02"/>
</a>
</g>
<g id="a_edge12&#45;headlabel"><a xlink:href="dir_000020_000014.html" target="_top" xlink:title="2">
<text text-anchor="middle" x="357.49" y="-108.96" font-family="Helvetica,sans-Serif" font-size="10.00" fill="#63b8ff">2</text>
</a>
</g>
</g>
</g>
</svg>
