<?xml version="1.0" encoding="UTF-8" standalone="no"?>
<!DOCTYPE svg PUBLIC "-//W3C//DTD SVG 1.1//EN"
 "http://www.w3.org/Graphics/SVG/1.1/DTD/svg11.dtd">
<!-- Generated by graphviz version 2.43.0 (0)
 -->
<!-- Title: include/phasar/PhasarLLVM/DataFlow/IfdsIde Pages: 1 -->
<svg width="631pt" height="125pt"
 viewBox="0.00 0.00 631.00 125.00" xmlns="http://www.w3.org/2000/svg" xmlns:xlink="http://www.w3.org/1999/xlink">
<g id="graph0" class="graph" transform="scale(1 1) rotate(0) translate(4 121)">
<title>include/phasar/PhasarLLVM/DataFlow/IfdsIde</title>
<g id="clust1" class="cluster">
<title>clusterdir_b11f051d1364f2a30973d8d796d4babf</title>
<g id="a_clust1"><a xlink:href="dir_b11f051d1364f2a30973d8d796d4babf.html" target="_top" xlink:title="DataFlow">
<polygon fill="#edf0f7" stroke="#7f7f7f" stroke-dasharray="5,2" points="192.5,-39 192.5,-109 354.5,-109 354.5,-39 192.5,-39"/>
<text text-anchor="middle" x="273.5" y="-97" font-family="Helvetica,sans-Serif" font-size="10.00">DataFlow</text>
</a>
</g>
</g>
<g id="clust2" class="cluster">
<title>clusterdir_a914fe635f43607d3ac935bbff17c46d</title>
<g id="a_clust2"><a xlink:href="dir_a914fe635f43607d3ac935bbff17c46d.html" target="_top">
<polygon fill="#edf0f7" stroke="#404040" stroke-width="2" points="200.5,-47 200.5,-82 346.5,-82 346.5,-47 200.5,-47"/>
</a>
</g>
</g>
<!-- dir_a914fe635f43607d3ac935bbff17c46d -->
<g id="node1" class="node">
<title>dir_a914fe635f43607d3ac935bbff17c46d</title>
<text text-anchor="middle" x="233.5" y="-62" font-family="Helvetica,sans-Serif" font-size="10.00">IfdsIde</text>
</g>
<!-- dir_0133e64b3a4c854b47f86a7b8e0c9983 -->
<g id="node3" class="node">
<title>dir_0133e64b3a4c854b47f86a7b8e0c9983</title>
<g id="a_node3"><a xlink:href="dir_0133e64b3a4c854b47f86a7b8e0c9983.html" target="_top" xlink:title="Pointer">
<polygon fill="#edf0f7" stroke="red" stroke-dasharray="5,2" points="461,-19 410,-19 410,0 461,0 461,-19"/>
<text text-anchor="middle" x="435.5" y="-7" font-family="Helvetica,sans-Serif" font-size="10.00">Pointer</text>
</a>
</g>
</g>
<!-- dir_a914fe635f43607d3ac935bbff17c46d&#45;&gt;dir_0133e64b3a4c854b47f86a7b8e0c9983 -->
<g id="edge1" class="edge">
<title>dir_a914fe635f43607d3ac935bbff17c46d&#45;&gt;dir_0133e64b3a4c854b47f86a7b8e0c9983</title>
<g id="a_edge1"><a xlink:href="dir_000015_000026.html" target="_top">
<path fill="none" stroke="#63b8ff" d="M242.87,-54.85C249.31,-49.41 258.33,-42.73 267.5,-39 320.45,-17.47 340.4,-29.39 400.02,-19.03"/>
<polygon fill="#63b8ff" stroke="#63b8ff" points="400.76,-22.46 409.94,-17.17 399.47,-15.58 400.76,-22.46"/>
</a>
</g>
<g id="a_edge1&#45;headlabel"><a xlink:href="dir_000015_000026.html" target="_top" xlink:title="11">
<text text-anchor="middle" x="397.75" y="-23.41" font-family="Helvetica,sans-Serif" font-size="10.00" fill="#63b8ff">11</text>
</a>
</g>
</g>
<!-- dir_079f3dfffeb9e770010097b0dd1334eb -->
<g id="node4" class="node">
<title>dir_079f3dfffeb9e770010097b0dd1334eb</title>
<g id="a_node4"><a xlink:href="dir_079f3dfffeb9e770010097b0dd1334eb.html" target="_top" xlink:title="Utils">
<polygon fill="#edf0f7" stroke="#7f7f7f" points="39,-19 0,-19 0,0 39,0 39,-19"/>
<text text-anchor="middle" x="19.5" y="-7" font-family="Helvetica,sans-Serif" font-size="10.00">Utils</text>
</a>
</g>
</g>
<!-- dir_a914fe635f43607d3ac935bbff17c46d&#45;&gt;dir_079f3dfffeb9e770010097b0dd1334eb -->
<g id="edge2" class="edge">
<title>dir_a914fe635f43607d3ac935bbff17c46d&#45;&gt;dir_079f3dfffeb9e770010097b0dd1334eb</title>
<g id="a_edge2"><a xlink:href="dir_000015_000038.html" target="_top">
<path fill="none" stroke="#63b8ff" d="M208.41,-58C174.38,-50.43 111.51,-36.07 49.05,-19.3"/>
<polygon fill="#63b8ff" stroke="#63b8ff" points="49.61,-15.83 39.04,-16.59 47.78,-22.58 49.61,-15.83"/>
</a>
</g>
<g id="a_edge2&#45;headlabel"><a xlink:href="dir_000015_000038.html" target="_top" xlink:title="9">
<text text-anchor="middle" x="53.82" y="-11.53" font-family="Helvetica,sans-Serif" font-size="10.00" fill="#63b8ff">9</text>
</a>
</g>
</g>
<!-- dir_0bc4dee926a629f715a9261d8d248ef6 -->
<g id="node5" class="node">
<title>dir_0bc4dee926a629f715a9261d8d248ef6</title>
<g id="a_node5"><a xlink:href="dir_0bc4dee926a629f715a9261d8d248ef6.html" target="_top" xlink:title="ControlFlow">
<polygon fill="#edf0f7" stroke="red" stroke-dasharray="5,2" points="132,-19 57,-19 57,0 132,0 132,-19"/>
<text text-anchor="middle" x="94.5" y="-7" font-family="Helvetica,sans-Serif" font-size="10.00">ControlFlow</text>
</a>
</g>
</g>
<!-- dir_a914fe635f43607d3ac935bbff17c46d&#45;&gt;dir_0bc4dee926a629f715a9261d8d248ef6 -->
<g id="edge3" class="edge">
<title>dir_a914fe635f43607d3ac935bbff17c46d&#45;&gt;dir_0bc4dee926a629f715a9261d8d248ef6</title>
<g id="a_edge3"><a xlink:href="dir_000015_000004.html" target="_top">
<path fill="none" stroke="#63b8ff" d="M211.17,-54.98C188.3,-46.27 152.54,-32.63 126.64,-22.75"/>
<polygon fill="#63b8ff" stroke="#63b8ff" points="127.83,-19.46 117.24,-19.17 125.34,-26 127.83,-19.46"/>
</a>
</g>
<g id="a_edge3&#45;headlabel"><a xlink:href="dir_000015_000004.html" target="_top" xlink:title="21">
<text text-anchor="middle" x="132.2" y="-15.59" font-family="Helvetica,sans-Serif" font-size="10.00" fill="#63b8ff">21</text>
</a>
</g>
</g>
<!-- dir_189eb8c36ffce94640b9d816bc05823d -->
<g id="node7" class="node">
<title>dir_189eb8c36ffce94640b9d816bc05823d</title>
<g id="a_node7"><a xlink:href="dir_189eb8c36ffce94640b9d816bc05823d.html" target="_top" xlink:title="Domain">
<polygon fill="#edf0f7" stroke="#7f7f7f" points="205,-19 150,-19 150,0 205,0 205,-19"/>
<text text-anchor="middle" x="177.5" y="-7" font-family="Helvetica,sans-Serif" font-size="10.00">Domain</text>
</a>
</g>
</g>
<!-- dir_a914fe635f43607d3ac935bbff17c46d&#45;&gt;dir_189eb8c36ffce94640b9d816bc05823d -->
<g id="edge4" class="edge">
<title>dir_a914fe635f43607d3ac935bbff17c46d&#45;&gt;dir_189eb8c36ffce94640b9d816bc05823d</title>
<g id="a_edge4"><a xlink:href="dir_000015_000011.html" target="_top">
<path fill="none" stroke="#63b8ff" d="M224.5,-54.98C216.31,-47.23 203.99,-35.58 194.03,-26.14"/>
<polygon fill="#63b8ff" stroke="#63b8ff" points="196.33,-23.5 186.66,-19.17 191.52,-28.59 196.33,-23.5"/>
</a>
</g>
<g id="a_edge4&#45;headlabel"><a xlink:href="dir_000015_000011.html" target="_top" xlink:title="18">
<text text-anchor="middle" x="200.89" y="-21.41" font-family="Helvetica,sans-Serif" font-size="10.00" fill="#63b8ff">18</text>
</a>
</g>
</g>
<!-- dir_68aec2623aad94785c017c13c687e045 -->
<g id="node8" class="node">
<title>dir_68aec2623aad94785c017c13c687e045</title>
<g id="a_node8"><a xlink:href="dir_68aec2623aad94785c017c13c687e045.html" target="_top" xlink:title="DB">
<polygon fill="#edf0f7" stroke="#7f7f7f" points="254,-19 223,-19 223,0 254,0 254,-19"/>
<text text-anchor="middle" x="238.5" y="-7" font-family="Helvetica,sans-Serif" font-size="10.00">DB</text>
</a>
</g>
</g>
<!-- dir_a914fe635f43607d3ac935bbff17c46d&#45;&gt;dir_68aec2623aad94785c017c13c687e045 -->
<g id="edge5" class="edge">
<title>dir_a914fe635f43607d3ac935bbff17c46d&#45;&gt;dir_68aec2623aad94785c017c13c687e045</title>
<g id="a_edge5"><a xlink:href="dir_000015_000008.html" target="_top">
<path fill="none" stroke="#63b8ff" d="M234.33,-54.75C234.98,-47.8 235.92,-37.85 236.74,-29.13"/>
<polygon fill="#63b8ff" stroke="#63b8ff" points="240.23,-29.37 237.69,-19.09 233.27,-28.72 240.23,-29.37"/>
</a>
</g>
<g id="a_edge5&#45;headlabel"><a xlink:href="dir_000015_000008.html" target="_top" xlink:title="20">
<text text-anchor="middle" x="242.72" y="-30.72" font-family="Helvetica,sans-Serif" font-size="10.00" fill="#63b8ff">20</text>
</a>
</g>
</g>
<!-- dir_69cf206f122d9153ac8b30a0f4a917bf -->
<g id="node9" class="node">
<title>dir_69cf206f122d9153ac8b30a0f4a917bf</title>
<g id="a_node9"><a xlink:href="dir_69cf206f122d9153ac8b30a0f4a917bf.html" target="_top" xlink:title="DataFlow">
<polygon fill="#edf0f7" stroke="red" stroke-dasharray="5,2" points="335,-19 272,-19 272,0 335,0 335,-19"/>
<text text-anchor="middle" x="303.5" y="-7" font-family="Helvetica,sans-Serif" font-size="10.00">DataFlow</text>
</a>
</g>
</g>
<!-- dir_a914fe635f43607d3ac935bbff17c46d&#45;&gt;dir_69cf206f122d9153ac8b30a0f4a917bf -->
<g id="edge6" class="edge">
<title>dir_a914fe635f43607d3ac935bbff17c46d&#45;&gt;dir_69cf206f122d9153ac8b30a0f4a917bf</title>
<g id="a_edge6"><a xlink:href="dir_000015_000005.html" target="_top">
<path fill="none" stroke="#63b8ff" d="M244.75,-54.98C255.3,-47 271.3,-34.88 283.94,-25.31"/>
<polygon fill="#63b8ff" stroke="#63b8ff" points="286.19,-28 292.05,-19.17 281.96,-22.42 286.19,-28"/>
</a>
</g>
<g id="a_edge6&#45;headlabel"><a xlink:href="dir_000015_000005.html" target="_top" xlink:title="46">
<text text-anchor="middle" x="285.04" y="-29.93" font-family="Helvetica,sans-Serif" font-size="10.00" fill="#63b8ff">46</text>
</a>
</g>
</g>
<!-- dir_aeca43db7a276eb6dbfba1f93dc4539c -->
<g id="node10" class="node">
<title>dir_aeca43db7a276eb6dbfba1f93dc4539c</title>
<g id="a_node10"><a xlink:href="dir_aeca43db7a276eb6dbfba1f93dc4539c.html" target="_top" xlink:title="Utils">
<polygon fill="#edf0f7" stroke="#7f7f7f" points="392,-19 353,-19 353,0 392,0 392,-19"/>
<text text-anchor="middle" x="372.5" y="-7" font-family="Helvetica,sans-Serif" font-size="10.00">Utils</text>
</a>
</g>
</g>
<!-- dir_a914fe635f43607d3ac935bbff17c46d&#45;&gt;dir_aeca43db7a276eb6dbfba1f93dc4539c -->
<g id="edge7" class="edge">
<title>dir_a914fe635f43607d3ac935bbff17c46d&#45;&gt;dir_aeca43db7a276eb6dbfba1f93dc4539c</title>
<g id="a_edge7"><a xlink:href="dir_000015_000039.html" target="_top">
<path fill="none" stroke="#63b8ff" d="M243.29,-54.94C249.77,-49.66 258.68,-43.15 267.5,-39 296.88,-25.2 308.52,-27.96 343.1,-19.19"/>
<polygon fill="#63b8ff" stroke="#63b8ff" points="344.2,-22.52 352.95,-16.55 342.38,-15.76 344.2,-22.52"/>
</a>
</g>
<g id="a_edge7&#45;headlabel"><a xlink:href="dir_000015_000039.html" target="_top" xlink:title="23">
<text text-anchor="middle" x="341.46" y="-23.7" font-family="Helvetica,sans-Serif" font-size="10.00" fill="#63b8ff">23</text>
</a>
</g>
</g>
<!-- dir_8f2cc0dbdb5107552a837377e8f5f9e3 -->
<g id="node2" class="node">
<title>dir_8f2cc0dbdb5107552a837377e8f5f9e3</title>
<g id="a_node2"><a xlink:href="dir_8f2cc0dbdb5107552a837377e8f5f9e3.html" target="_top" xlink:title="Problems">
<polygon fill="#a2b4d6" stroke="#404040" points="338.5,-74 276.5,-74 276.5,-55 338.5,-55 338.5,-74"/>
<text text-anchor="middle" x="307.5" y="-62" font-family="Helvetica,sans-Serif" font-size="10.00">Problems</text>
</a>
</g>
</g>
<!-- dir_8f2cc0dbdb5107552a837377e8f5f9e3&#45;&gt;dir_0133e64b3a4c854b47f86a7b8e0c9983 -->
<g id="edge8" class="edge">
<title>dir_8f2cc0dbdb5107552a837377e8f5f9e3&#45;&gt;dir_0133e64b3a4c854b47f86a7b8e0c9983</title>
<g id="a_edge8"><a xlink:href="dir_000028_000026.html" target="_top">
<path fill="none" stroke="#63b8ff" d="M328.07,-54.98C348.93,-46.34 381.47,-32.87 405.27,-23.02"/>
<polygon fill="#63b8ff" stroke="#63b8ff" points="406.66,-26.23 414.56,-19.17 403.98,-19.76 406.66,-26.23"/>
</a>
</g>
<g id="a_edge8&#45;headlabel"><a xlink:href="dir_000028_000026.html" target="_top" xlink:title="8">
<text text-anchor="middle" x="404.43" y="-27.73" font-family="Helvetica,sans-Serif" font-size="10.00" fill="#63b8ff">8</text>
</a>
</g>
</g>
<!-- dir_8f2cc0dbdb5107552a837377e8f5f9e3&#45;&gt;dir_079f3dfffeb9e770010097b0dd1334eb -->
<g id="edge9" class="edge">
<title>dir_8f2cc0dbdb5107552a837377e8f5f9e3&#45;&gt;dir_079f3dfffeb9e770010097b0dd1334eb</title>
<g id="a_edge9"><a xlink:href="dir_000028_000038.html" target="_top">
<path fill="none" stroke="#63b8ff" d="M296.64,-54.94C288.96,-49.38 278.17,-42.54 267.5,-39 177.31,-9.1 145.89,-35.95 49.15,-18.9"/>
<polygon fill="#63b8ff" stroke="#63b8ff" points="49.73,-15.45 39.26,-17.04 48.44,-22.33 49.73,-15.45"/>
</a>
</g>
<g id="a_edge9&#45;headlabel"><a xlink:href="dir_000028_000038.html" target="_top" xlink:title="7">
<text text-anchor="middle" x="53.79" y="-10.82" font-family="Helvetica,sans-Serif" font-size="10.00" fill="#63b8ff">7</text>
</a>
</g>
</g>
<!-- dir_8f2cc0dbdb5107552a837377e8f5f9e3&#45;&gt;dir_0bc4dee926a629f715a9261d8d248ef6 -->
<g id="edge10" class="edge">
<title>dir_8f2cc0dbdb5107552a837377e8f5f9e3&#45;&gt;dir_0bc4dee926a629f715a9261d8d248ef6</title>
<g id="a_edge10"><a xlink:href="dir_000028_000004.html" target="_top">
<path fill="none" stroke="#63b8ff" d="M296.22,-54.92C288.53,-49.5 277.89,-42.83 267.5,-39 216.81,-20.33 198.8,-27.7 142.34,-19.18"/>
<polygon fill="#63b8ff" stroke="#63b8ff" points="142.57,-15.68 132.14,-17.54 141.46,-22.59 142.57,-15.68"/>
</a>
</g>
<g id="a_edge10&#45;headlabel"><a xlink:href="dir_000028_000004.html" target="_top" xlink:title="18">
<text text-anchor="middle" x="146.57" y="-10.95" font-family="Helvetica,sans-Serif" font-size="10.00" fill="#63b8ff">18</text>
</a>
</g>
</g>
<!-- dir_15b1266ec3c6694d64b0cfc160192d3b -->
<g id="node6" class="node">
<title>dir_15b1266ec3c6694d64b0cfc160192d3b</title>
<g id="a_node6"><a xlink:href="dir_15b1266ec3c6694d64b0cfc160192d3b.html" target="_top" xlink:title="Domain">
<polygon fill="#edf0f7" stroke="#7f7f7f" points="534,-19 479,-19 479,0 534,0 534,-19"/>
<text text-anchor="middle" x="506.5" y="-7" font-family="Helvetica,sans-Serif" font-size="10.00">Domain</text>
</a>
</g>
</g>
<!-- dir_8f2cc0dbdb5107552a837377e8f5f9e3&#45;&gt;dir_15b1266ec3c6694d64b0cfc160192d3b -->
<g id="edge11" class="edge">
<title>dir_8f2cc0dbdb5107552a837377e8f5f9e3&#45;&gt;dir_15b1266ec3c6694d64b0cfc160192d3b</title>
<g id="a_edge11"><a xlink:href="dir_000028_000010.html" target="_top">
<path fill="none" stroke="#63b8ff" d="M338.59,-55.22C373.77,-45.85 431.04,-30.6 468.75,-20.55"/>
<polygon fill="#63b8ff" stroke="#63b8ff" points="470.07,-23.83 478.83,-17.87 468.27,-17.06 470.07,-23.83"/>
</a>
</g>
<g id="a_edge11&#45;headlabel"><a xlink:href="dir_000028_000010.html" target="_top" xlink:title="7">
<text text-anchor="middle" x="467.32" y="-24.99" font-family="Helvetica,sans-Serif" font-size="10.00" fill="#63b8ff">7</text>
</a>
</g>
</g>
<!-- dir_8f2cc0dbdb5107552a837377e8f5f9e3&#45;&gt;dir_189eb8c36ffce94640b9d816bc05823d -->
<g id="edge12" class="edge">
<title>dir_8f2cc0dbdb5107552a837377e8f5f9e3&#45;&gt;dir_189eb8c36ffce94640b9d816bc05823d</title>
<g id="a_edge12"><a xlink:href="dir_000028_000011.html" target="_top">
<path fill="none" stroke="#63b8ff" d="M295.32,-54.97C287.61,-49.84 277.28,-43.46 267.5,-39 250.83,-31.39 231.56,-24.99 215.13,-20.2"/>
<polygon fill="#63b8ff" stroke="#63b8ff" points="215.9,-16.78 205.32,-17.43 213.99,-23.52 215.9,-16.78"/>
</a>
</g>
<g id="a_edge12&#45;headlabel"><a xlink:href="dir_000028_000011.html" target="_top" xlink:title="17">
<text text-anchor="middle" x="220.13" y="-12.53" font-family="Helvetica,sans-Serif" font-size="10.00" fill="#63b8ff">17</text>
</a>
</g>
</g>
<!-- dir_8f2cc0dbdb5107552a837377e8f5f9e3&#45;&gt;dir_68aec2623aad94785c017c13c687e045 -->
<g id="edge14" class="edge">
<title>dir_8f2cc0dbdb5107552a837377e8f5f9e3&#45;&gt;dir_68aec2623aad94785c017c13c687e045</title>
<g id="a_edge14"><a xlink:href="dir_000028_000008.html" target="_top">
<path fill="none" stroke="#63b8ff" d="M296.41,-54.98C286.01,-47 270.24,-34.88 257.78,-25.31"/>
<polygon fill="#63b8ff" stroke="#63b8ff" points="259.85,-22.49 249.79,-19.17 255.59,-28.04 259.85,-22.49"/>
</a>
</g>
<g id="a_edge14&#45;headlabel"><a xlink:href="dir_000028_000008.html" target="_top" xlink:title="16">
<text text-anchor="middle" x="264.43" y="-19.92" font-family="Helvetica,sans-Serif" font-size="10.00" fill="#63b8ff">16</text>
</a>
</g>
</g>
<!-- dir_8f2cc0dbdb5107552a837377e8f5f9e3&#45;&gt;dir_69cf206f122d9153ac8b30a0f4a917bf -->
<g id="edge15" class="edge">
<title>dir_8f2cc0dbdb5107552a837377e8f5f9e3&#45;&gt;dir_69cf206f122d9153ac8b30a0f4a917bf</title>
<g id="a_edge15"><a xlink:href="dir_000028_000005.html" target="_top">
<path fill="none" stroke="#63b8ff" d="M306.84,-54.75C306.32,-47.8 305.56,-37.85 304.91,-29.13"/>
<polygon fill="#63b8ff" stroke="#63b8ff" points="308.39,-28.8 304.15,-19.09 301.41,-29.32 308.39,-28.8"/>
</a>
</g>
<g id="a_edge15&#45;headlabel"><a xlink:href="dir_000028_000005.html" target="_top" xlink:title="41">
<text text-anchor="middle" x="311.49" y="-29.67" font-family="Helvetica,sans-Serif" font-size="10.00" fill="#63b8ff">41</text>
</a>
</g>
</g>
<!-- dir_8f2cc0dbdb5107552a837377e8f5f9e3&#45;&gt;dir_aeca43db7a276eb6dbfba1f93dc4539c -->
<g id="edge16" class="edge">
<title>dir_8f2cc0dbdb5107552a837377e8f5f9e3&#45;&gt;dir_aeca43db7a276eb6dbfba1f93dc4539c</title>
<g id="a_edge16"><a xlink:href="dir_000028_000039.html" target="_top">
<path fill="none" stroke="#63b8ff" d="M317.94,-54.98C327.65,-47.07 342.32,-35.11 354,-25.58"/>
<polygon fill="#63b8ff" stroke="#63b8ff" points="356.33,-28.2 361.87,-19.17 351.9,-22.78 356.33,-28.2"/>
</a>
</g>
<g id="a_edge16&#45;headlabel"><a xlink:href="dir_000028_000039.html" target="_top" xlink:title="18">
<text text-anchor="middle" x="355.34" y="-30.17" font-family="Helvetica,sans-Serif" font-size="10.00" fill="#63b8ff">18</text>
</a>
</g>
</g>
<!-- dir_63e7bb0cb88dc7cebeab7c37a85fbe32 -->
<g id="node11" class="node">
<title>dir_63e7bb0cb88dc7cebeab7c37a85fbe32</title>
<g id="a_node11"><a xlink:href="dir_63e7bb0cb88dc7cebeab7c37a85fbe32.html" target="_top" xlink:title="TaintConfig">
<polygon fill="#edf0f7" stroke="#7f7f7f" points="623,-19 552,-19 552,0 623,0 623,-19"/>
<text text-anchor="middle" x="587.5" y="-7" font-family="Helvetica,sans-Serif" font-size="10.00">TaintConfig</text>
</a>
</g>
</g>
<!-- dir_8f2cc0dbdb5107552a837377e8f5f9e3&#45;&gt;dir_63e7bb0cb88dc7cebeab7c37a85fbe32 -->
<g id="edge13" class="edge">
<title>dir_8f2cc0dbdb5107552a837377e8f5f9e3&#45;&gt;dir_63e7bb0cb88dc7cebeab7c37a85fbe32</title>
<g id="a_edge13"><a xlink:href="dir_000028_000034.html" target="_top">
<path fill="none" stroke="#63b8ff" d="M338.81,-57.64C382.16,-49.52 463.19,-34.31 541.88,-19.3"/>
<polygon fill="#63b8ff" stroke="#63b8ff" points="542.79,-22.69 551.96,-17.38 541.48,-15.82 542.79,-22.69"/>
</a>
</g>
<g id="a_edge13&#45;headlabel"><a xlink:href="dir_000028_000034.html" target="_top" xlink:title="1">
<text text-anchor="middle" x="539.8" y="-23.65" font-family="Helvetica,sans-Serif" font-size="10.00" fill="#63b8ff">1</text>
</a>
</g>
</g>
</g>
</svg>
