<?xml version="1.0" encoding="UTF-8" standalone="no"?>
<!DOCTYPE svg PUBLIC "-//W3C//DTD SVG 1.1//EN"
 "http://www.w3.org/Graphics/SVG/1.1/DTD/svg11.dtd">
<!-- Generated by graphviz version 2.43.0 (0)
 -->
<!-- Title: include/phasar Pages: 1 -->
<svg width="594pt" height="424pt"
 viewBox="0.00 0.00 594.00 424.00" xmlns="http://www.w3.org/2000/svg" xmlns:xlink="http://www.w3.org/1999/xlink">
<g id="graph0" class="graph" transform="scale(1 1) rotate(0) translate(4 420)">
<title>include/phasar</title>
<g id="clust1" class="cluster">
<title>clusterdir_d44c64559bbebec7f509842c48db8b23</title>
<g id="a_clust1"><a xlink:href="dir_d44c64559bbebec7f509842c48db8b23.html" target="_top" xlink:title="include">
<polygon fill="#edf0f7" stroke="#404040" stroke-dasharray="5,2" points="8,-8 8,-408 578,-408 578,-8 8,-8"/>
<text text-anchor="middle" x="293" y="-396" font-family="Helvetica,sans-Serif" font-size="10.00">include</text>
</a>
</g>
</g>
<g id="clust2" class="cluster">
<title>clusterdir_05d093d0ed3722b9a30705a9449fa665</title>
<g id="a_clust2"><a xlink:href="dir_05d093d0ed3722b9a30705a9449fa665.html" target="_top">
<polygon fill="#edf0f7" stroke="#404040" stroke-width="2" points="16,-16 16,-381 570,-381 570,-16 16,-16"/>
</a>
</g>
</g>
<!-- dir_05d093d0ed3722b9a30705a9449fa665 -->
<g id="node1" class="node">
<title>dir_05d093d0ed3722b9a30705a9449fa665</title>
<text text-anchor="middle" x="324" y="-361" font-family="Helvetica,sans-Serif" font-size="10.00">phasar</text>
</g>
<!-- dir_2222cf0644c06f9277150910065165b7 -->
<g id="node2" class="node">
<title>dir_2222cf0644c06f9277150910065165b7</title>
<g id="a_node2"><a xlink:href="dir_2222cf0644c06f9277150910065165b7.html" target="_top" xlink:title="AnalysisStrategy">
<polygon fill="#a2b4d6" stroke="#404040" points="123.5,-318 24.5,-318 24.5,-299 123.5,-299 123.5,-318"/>
<text text-anchor="middle" x="74" y="-306" font-family="Helvetica,sans-Serif" font-size="10.00">AnalysisStrategy</text>
</a>
</g>
</g>
<!-- dir_05d093d0ed3722b9a30705a9449fa665&#45;&gt;dir_2222cf0644c06f9277150910065165b7 -->
<g id="edge3" class="edge">
<title>dir_05d093d0ed3722b9a30705a9449fa665&#45;&gt;dir_2222cf0644c06f9277150910065165b7</title>
<g id="a_edge3"><a xlink:href="dir_000022_000000.html" target="_top">
<path fill="none" stroke="#63b8ff" d="M298.65,-357.13C257.84,-348.47 176.79,-331.29 124.02,-320.1"/>
<polygon fill="#63b8ff" stroke="#63b8ff" points="124.7,-316.67 114.19,-318.02 123.25,-323.52 124.7,-316.67"/>
</a>
</g>
<g id="a_edge3&#45;headlabel"><a xlink:href="dir_000022_000000.html" target="_top" xlink:title="6">
<text text-anchor="middle" x="128.8" y="-312.14" font-family="Helvetica,sans-Serif" font-size="10.00" fill="#63b8ff">6</text>
</a>
</g>
</g>
<!-- dir_86d6a0ef6fcd04306246bc919bf79e2a -->
<g id="node3" class="node">
<title>dir_86d6a0ef6fcd04306246bc919bf79e2a</title>
<g id="a_node3"><a xlink:href="dir_86d6a0ef6fcd04306246bc919bf79e2a.html" target="_top" xlink:title="Config">
<polygon fill="#a2b4d6" stroke="#404040" points="249.5,-153 202.5,-153 202.5,-134 249.5,-134 249.5,-153"/>
<text text-anchor="middle" x="226" y="-141" font-family="Helvetica,sans-Serif" font-size="10.00">Config</text>
</a>
</g>
</g>
<!-- dir_05d093d0ed3722b9a30705a9449fa665&#45;&gt;dir_86d6a0ef6fcd04306246bc919bf79e2a -->
<g id="edge8" class="edge">
<title>dir_05d093d0ed3722b9a30705a9449fa665&#45;&gt;dir_86d6a0ef6fcd04306246bc919bf79e2a</title>
<g id="a_edge8"><a xlink:href="dir_000022_000001.html" target="_top">
<path fill="none" stroke="#63b8ff" d="M298.9,-363.48C264.1,-363.29 202.22,-357.07 173,-318 136.29,-268.91 186.02,-194.19 211.99,-161.18"/>
<polygon fill="#63b8ff" stroke="#63b8ff" points="214.73,-163.35 218.3,-153.38 209.29,-158.95 214.73,-163.35"/>
</a>
</g>
<g id="a_edge8&#45;headlabel"><a xlink:href="dir_000022_000001.html" target="_top" xlink:title="3">
<text text-anchor="middle" x="214.68" y="-165.43" font-family="Helvetica,sans-Serif" font-size="10.00" fill="#63b8ff">3</text>
</a>
</g>
</g>
<!-- dir_9d06c2f3a5ac32ab80fc048d7ff16b35 -->
<g id="node4" class="node">
<title>dir_9d06c2f3a5ac32ab80fc048d7ff16b35</title>
<g id="a_node4"><a xlink:href="dir_9d06c2f3a5ac32ab80fc048d7ff16b35.html" target="_top" xlink:title="ControlFlow">
<polygon fill="#a2b4d6" stroke="#404040" points="256.5,-318 181.5,-318 181.5,-299 256.5,-299 256.5,-318"/>
<text text-anchor="middle" x="219" y="-306" font-family="Helvetica,sans-Serif" font-size="10.00">ControlFlow</text>
</a>
</g>
</g>
<!-- dir_05d093d0ed3722b9a30705a9449fa665&#45;&gt;dir_9d06c2f3a5ac32ab80fc048d7ff16b35 -->
<g id="edge10" class="edge">
<title>dir_05d093d0ed3722b9a30705a9449fa665&#45;&gt;dir_9d06c2f3a5ac32ab80fc048d7ff16b35</title>
<g id="a_edge10"><a xlink:href="dir_000022_000003.html" target="_top">
<path fill="none" stroke="#63b8ff" d="M307.13,-353.98C290.39,-345.54 264.5,-332.47 245.11,-322.68"/>
<polygon fill="#63b8ff" stroke="#63b8ff" points="246.68,-319.55 236.18,-318.17 243.53,-325.8 246.68,-319.55"/>
</a>
</g>
<g id="a_edge10&#45;headlabel"><a xlink:href="dir_000022_000003.html" target="_top" xlink:title="31">
<text text-anchor="middle" x="251.17" y="-316.14" font-family="Helvetica,sans-Serif" font-size="10.00" fill="#63b8ff">31</text>
</a>
</g>
</g>
<!-- dir_69cf206f122d9153ac8b30a0f4a917bf -->
<g id="node5" class="node">
<title>dir_69cf206f122d9153ac8b30a0f4a917bf</title>
<g id="a_node5"><a xlink:href="dir_69cf206f122d9153ac8b30a0f4a917bf.html" target="_top" xlink:title="DataFlow">
<polygon fill="#a2b4d6" stroke="#404040" points="308.5,-208 245.5,-208 245.5,-189 308.5,-189 308.5,-208"/>
<text text-anchor="middle" x="277" y="-196" font-family="Helvetica,sans-Serif" font-size="10.00">DataFlow</text>
</a>
</g>
</g>
<!-- dir_05d093d0ed3722b9a30705a9449fa665&#45;&gt;dir_69cf206f122d9153ac8b30a0f4a917bf -->
<g id="edge7" class="edge">
<title>dir_05d093d0ed3722b9a30705a9449fa665&#45;&gt;dir_69cf206f122d9153ac8b30a0f4a917bf</title>
<g id="a_edge7"><a xlink:href="dir_000022_000005.html" target="_top">
<path fill="none" stroke="#63b8ff" d="M319.75,-353.86C315.6,-345.05 309.42,-330.89 306,-318 297.49,-285.92 304.82,-275.99 296,-244 293.49,-234.89 289.52,-225.19 285.85,-217.18"/>
<polygon fill="#63b8ff" stroke="#63b8ff" points="288.98,-215.62 281.51,-208.11 282.67,-218.64 288.98,-215.62"/>
</a>
</g>
<g id="a_edge7&#45;headlabel"><a xlink:href="dir_000022_000005.html" target="_top" xlink:title="88">
<text text-anchor="middle" x="293.1" y="-215.14" font-family="Helvetica,sans-Serif" font-size="10.00" fill="#63b8ff">88</text>
</a>
</g>
</g>
<!-- dir_1f703d4dd1e982897af273349847e927 -->
<g id="node6" class="node">
<title>dir_1f703d4dd1e982897af273349847e927</title>
<g id="a_node6"><a xlink:href="dir_1f703d4dd1e982897af273349847e927.html" target="_top" xlink:title="DB">
<polygon fill="#a2b4d6" stroke="#404040" points="304.5,-43 273.5,-43 273.5,-24 304.5,-24 304.5,-43"/>
<text text-anchor="middle" x="289" y="-31" font-family="Helvetica,sans-Serif" font-size="10.00">DB</text>
</a>
</g>
</g>
<!-- dir_05d093d0ed3722b9a30705a9449fa665&#45;&gt;dir_1f703d4dd1e982897af273349847e927 -->
<g id="edge2" class="edge">
<title>dir_05d093d0ed3722b9a30705a9449fa665&#45;&gt;dir_1f703d4dd1e982897af273349847e927</title>
<g id="a_edge2"><a xlink:href="dir_000022_000007.html" target="_top">
<path fill="none" stroke="#63b8ff" d="M349.02,-359.96C397.94,-354.56 503.93,-340.54 532,-318 556.19,-298.57 561,-285.53 561,-254.5 561,-254.5 561,-254.5 561,-142.5 561,-101.15 529.62,-98.2 493,-79 434.04,-48.08 354.68,-38.62 314.54,-35.75"/>
<polygon fill="#63b8ff" stroke="#63b8ff" points="314.73,-32.25 304.53,-35.11 314.29,-39.24 314.73,-32.25"/>
</a>
</g>
<g id="a_edge2&#45;headlabel"><a xlink:href="dir_000022_000007.html" target="_top" xlink:title="6">
<text text-anchor="middle" x="318.5" y="-27.15" font-family="Helvetica,sans-Serif" font-size="10.00" fill="#63b8ff">6</text>
</a>
</g>
</g>
<!-- dir_15b1266ec3c6694d64b0cfc160192d3b -->
<g id="node7" class="node">
<title>dir_15b1266ec3c6694d64b0cfc160192d3b</title>
<g id="a_node7"><a xlink:href="dir_15b1266ec3c6694d64b0cfc160192d3b.html" target="_top" xlink:title="Domain">
<polygon fill="#a2b4d6" stroke="#404040" points="217.5,-98 162.5,-98 162.5,-79 217.5,-79 217.5,-98"/>
<text text-anchor="middle" x="190" y="-86" font-family="Helvetica,sans-Serif" font-size="10.00">Domain</text>
</a>
</g>
</g>
<!-- dir_05d093d0ed3722b9a30705a9449fa665&#45;&gt;dir_15b1266ec3c6694d64b0cfc160192d3b -->
<g id="edge1" class="edge">
<title>dir_05d093d0ed3722b9a30705a9449fa665&#45;&gt;dir_15b1266ec3c6694d64b0cfc160192d3b</title>
<g id="a_edge1"><a xlink:href="dir_000022_000010.html" target="_top">
<path fill="none" stroke="#63b8ff" d="M298.85,-359.44C257,-353.76 175.96,-340.14 159,-318 109.75,-253.7 157.71,-148.32 179.98,-106.95"/>
<polygon fill="#63b8ff" stroke="#63b8ff" points="183.11,-108.52 184.9,-98.08 176.99,-105.13 183.11,-108.52"/>
</a>
</g>
<g id="a_edge1&#45;headlabel"><a xlink:href="dir_000022_000010.html" target="_top" xlink:title="30">
<text text-anchor="middle" x="183.85" y="-110.54" font-family="Helvetica,sans-Serif" font-size="10.00" fill="#63b8ff">30</text>
</a>
</g>
</g>
<!-- dir_2f78a14425137c07c54cd90f1df5b3e0 -->
<g id="node8" class="node">
<title>dir_2f78a14425137c07c54cd90f1df5b3e0</title>
<g id="a_node8"><a xlink:href="dir_2f78a14425137c07c54cd90f1df5b3e0.html" target="_top" xlink:title="PhasarClang">
<polygon fill="#a2b4d6" stroke="#404040" points="391.5,-318 314.5,-318 314.5,-299 391.5,-299 391.5,-318"/>
<text text-anchor="middle" x="353" y="-306" font-family="Helvetica,sans-Serif" font-size="10.00">PhasarClang</text>
</a>
</g>
</g>
<!-- dir_05d093d0ed3722b9a30705a9449fa665&#45;&gt;dir_2f78a14425137c07c54cd90f1df5b3e0 -->
<g id="edge4" class="edge">
<title>dir_05d093d0ed3722b9a30705a9449fa665&#45;&gt;dir_2f78a14425137c07c54cd90f1df5b3e0</title>
<g id="a_edge4"><a xlink:href="dir_000022_000023.html" target="_top">
<path fill="none" stroke="#63b8ff" d="M328.79,-353.75C332.76,-346.49 338.53,-335.95 343.43,-326.98"/>
<polygon fill="#63b8ff" stroke="#63b8ff" points="346.57,-328.54 348.3,-318.09 340.43,-325.18 346.57,-328.54"/>
</a>
</g>
<g id="a_edge4&#45;headlabel"><a xlink:href="dir_000022_000023.html" target="_top" xlink:title="4">
<text text-anchor="middle" x="347.34" y="-330.56" font-family="Helvetica,sans-Serif" font-size="10.00" fill="#63b8ff">4</text>
</a>
</g>
</g>
<!-- dir_6556945d274d6e1e874171d9d575b3f4 -->
<g id="node9" class="node">
<title>dir_6556945d274d6e1e874171d9d575b3f4</title>
<g id="a_node9"><a xlink:href="dir_6556945d274d6e1e874171d9d575b3f4.html" target="_top" xlink:title="PhasarLLVM">
<polygon fill="#a2b4d6" stroke="#404040" points="422.5,-153 347.5,-153 347.5,-134 422.5,-134 422.5,-153"/>
<text text-anchor="middle" x="385" y="-141" font-family="Helvetica,sans-Serif" font-size="10.00">PhasarLLVM</text>
</a>
</g>
</g>
<!-- dir_05d093d0ed3722b9a30705a9449fa665&#45;&gt;dir_6556945d274d6e1e874171d9d575b3f4 -->
<g id="edge6" class="edge">
<title>dir_05d093d0ed3722b9a30705a9449fa665&#45;&gt;dir_6556945d274d6e1e874171d9d575b3f4</title>
<g id="a_edge6"><a xlink:href="dir_000022_000024.html" target="_top">
<path fill="none" stroke="#63b8ff" d="M349.13,-360.3C395.39,-355.67 491.09,-343.2 511,-318 556.63,-260.23 456.58,-188.18 408.69,-158.39"/>
<polygon fill="#63b8ff" stroke="#63b8ff" points="410.49,-155.39 400.13,-153.17 406.84,-161.36 410.49,-155.39"/>
</a>
</g>
<g id="a_edge6&#45;headlabel"><a xlink:href="dir_000022_000024.html" target="_top" xlink:title="206">
<text text-anchor="middle" x="415.04" y="-152.33" font-family="Helvetica,sans-Serif" font-size="10.00" fill="#63b8ff">206</text>
</a>
</g>
</g>
<!-- dir_95cb90d78e6f0ffe194b938b245cf9c5 -->
<g id="node10" class="node">
<title>dir_95cb90d78e6f0ffe194b938b245cf9c5</title>
<g id="a_node10"><a xlink:href="dir_95cb90d78e6f0ffe194b938b245cf9c5.html" target="_top" xlink:title="PhasarPass">
<polygon fill="#a2b4d6" stroke="#404040" points="501.5,-318 430.5,-318 430.5,-299 501.5,-299 501.5,-318"/>
<text text-anchor="middle" x="466" y="-306" font-family="Helvetica,sans-Serif" font-size="10.00">PhasarPass</text>
</a>
</g>
</g>
<!-- dir_05d093d0ed3722b9a30705a9449fa665&#45;&gt;dir_95cb90d78e6f0ffe194b938b245cf9c5 -->
<g id="edge9" class="edge">
<title>dir_05d093d0ed3722b9a30705a9449fa665&#45;&gt;dir_95cb90d78e6f0ffe194b938b245cf9c5</title>
<g id="a_edge9"><a xlink:href="dir_000022_000025.html" target="_top">
<path fill="none" stroke="#63b8ff" d="M346.81,-353.98C370.17,-345.27 406.7,-331.63 433.17,-321.75"/>
<polygon fill="#63b8ff" stroke="#63b8ff" points="434.63,-324.95 442.77,-318.17 432.18,-318.39 434.63,-324.95"/>
</a>
</g>
<g id="a_edge9&#45;headlabel"><a xlink:href="dir_000022_000025.html" target="_top" xlink:title="4">
<text text-anchor="middle" x="432.25" y="-326.36" font-family="Helvetica,sans-Serif" font-size="10.00" fill="#63b8ff">4</text>
</a>
</g>
</g>
<!-- dir_58a8bb8411baaae7f5177ea38c71ea73 -->
<g id="node11" class="node">
<title>dir_58a8bb8411baaae7f5177ea38c71ea73</title>
<g id="a_node11"><a xlink:href="dir_58a8bb8411baaae7f5177ea38c71ea73.html" target="_top" xlink:title="Pointer">
<polygon fill="#a2b4d6" stroke="#404040" points="359.5,-98 308.5,-98 308.5,-79 359.5,-79 359.5,-98"/>
<text text-anchor="middle" x="334" y="-86" font-family="Helvetica,sans-Serif" font-size="10.00">Pointer</text>
</a>
</g>
</g>
<!-- dir_05d093d0ed3722b9a30705a9449fa665&#45;&gt;dir_58a8bb8411baaae7f5177ea38c71ea73 -->
<g id="edge5" class="edge">
<title>dir_05d093d0ed3722b9a30705a9449fa665&#45;&gt;dir_58a8bb8411baaae7f5177ea38c71ea73</title>
<g id="a_edge5"><a xlink:href="dir_000022_000027.html" target="_top">
<path fill="none" stroke="#63b8ff" d="M349.04,-354.38C366.34,-347.46 388.42,-335.77 401,-318 444.13,-257.11 425.08,-227.29 432,-153 432.78,-144.59 436.57,-141.1 432,-134 418.22,-112.61 391.38,-101.39 369.27,-95.57"/>
<polygon fill="#63b8ff" stroke="#63b8ff" points="370.04,-92.15 359.5,-93.25 368.43,-98.96 370.04,-92.15"/>
</a>
</g>
<g id="a_edge5&#45;headlabel"><a xlink:href="dir_000022_000027.html" target="_top" xlink:title="29">
<text text-anchor="middle" x="374.19" y="-87.72" font-family="Helvetica,sans-Serif" font-size="10.00" fill="#63b8ff">29</text>
</a>
</g>
</g>
<!-- dir_cd166ded320aef6ec75102a3779bae14 -->
<g id="node12" class="node">
<title>dir_cd166ded320aef6ec75102a3779bae14</title>
<g id="a_node12"><a xlink:href="dir_cd166ded320aef6ec75102a3779bae14.html" target="_top" xlink:title="TypeHierarchy">
<polygon fill="#a2b4d6" stroke="#404040" points="484,-98 398,-98 398,-79 484,-79 484,-98"/>
<text text-anchor="middle" x="441" y="-86" font-family="Helvetica,sans-Serif" font-size="10.00">TypeHierarchy</text>
</a>
</g>
</g>
<!-- dir_05d093d0ed3722b9a30705a9449fa665&#45;&gt;dir_cd166ded320aef6ec75102a3779bae14 -->
<g id="edge12" class="edge">
<title>dir_05d093d0ed3722b9a30705a9449fa665&#45;&gt;dir_cd166ded320aef6ec75102a3779bae14</title>
<g id="a_edge12"><a xlink:href="dir_000022_000036.html" target="_top">
<path fill="none" stroke="#63b8ff" d="M349.24,-359.85C396.33,-354.44 495.07,-340.64 520,-318 542,-298.02 541,-284.23 541,-254.5 541,-254.5 541,-254.5 541,-197.5 541,-154.15 497.09,-120.83 467.46,-103.28"/>
<polygon fill="#63b8ff" stroke="#63b8ff" points="468.84,-100.04 458.42,-98.14 465.39,-106.13 468.84,-100.04"/>
</a>
</g>
<g id="a_edge12&#45;headlabel"><a xlink:href="dir_000022_000036.html" target="_top" xlink:title="4">
<text text-anchor="middle" x="473.37" y="-96.85" font-family="Helvetica,sans-Serif" font-size="10.00" fill="#63b8ff">4</text>
</a>
</g>
</g>
<!-- dir_aeca43db7a276eb6dbfba1f93dc4539c -->
<g id="node13" class="node">
<title>dir_aeca43db7a276eb6dbfba1f93dc4539c</title>
<g id="a_node13"><a xlink:href="dir_aeca43db7a276eb6dbfba1f93dc4539c.html" target="_top" xlink:title="Utils">
<polygon fill="#a2b4d6" stroke="#404040" points="286.5,-263 247.5,-263 247.5,-244 286.5,-244 286.5,-263"/>
<text text-anchor="middle" x="267" y="-251" font-family="Helvetica,sans-Serif" font-size="10.00">Utils</text>
</a>
</g>
</g>
<!-- dir_05d093d0ed3722b9a30705a9449fa665&#45;&gt;dir_aeca43db7a276eb6dbfba1f93dc4539c -->
<g id="edge11" class="edge">
<title>dir_05d093d0ed3722b9a30705a9449fa665&#45;&gt;dir_aeca43db7a276eb6dbfba1f93dc4539c</title>
<g id="a_edge11"><a xlink:href="dir_000022_000039.html" target="_top">
<path fill="none" stroke="#63b8ff" d="M316.1,-353.86C308.59,-345.27 297.36,-331.48 290,-318 282.1,-303.53 275.93,-285.8 271.99,-272.75"/>
<polygon fill="#63b8ff" stroke="#63b8ff" points="275.33,-271.71 269.2,-263.07 268.6,-273.65 275.33,-271.71"/>
</a>
</g>
<g id="a_edge11&#45;headlabel"><a xlink:href="dir_000022_000039.html" target="_top" xlink:title="241">
<text text-anchor="middle" x="279.05" y="-271.88" font-family="Helvetica,sans-Serif" font-size="10.00" fill="#63b8ff">241</text>
</a>
</g>
</g>
<!-- dir_9d06c2f3a5ac32ab80fc048d7ff16b35&#45;&gt;dir_aeca43db7a276eb6dbfba1f93dc4539c -->
<g id="edge13" class="edge">
<title>dir_9d06c2f3a5ac32ab80fc048d7ff16b35&#45;&gt;dir_aeca43db7a276eb6dbfba1f93dc4539c</title>
<g id="a_edge13"><a xlink:href="dir_000003_000039.html" target="_top">
<path fill="none" stroke="#63b8ff" d="M226.93,-298.75C233.85,-291.11 244.07,-279.82 252.45,-270.56"/>
<polygon fill="#63b8ff" stroke="#63b8ff" points="255.1,-272.85 259.22,-263.09 249.91,-268.15 255.1,-272.85"/>
</a>
</g>
<g id="a_edge13&#45;headlabel"><a xlink:href="dir_000003_000039.html" target="_top" xlink:title="18">
<text text-anchor="middle" x="254.79" y="-274.92" font-family="Helvetica,sans-Serif" font-size="10.00" fill="#63b8ff">18</text>
</a>
</g>
</g>
<!-- dir_69cf206f122d9153ac8b30a0f4a917bf&#45;&gt;dir_86d6a0ef6fcd04306246bc919bf79e2a -->
<g id="edge20" class="edge">
<title>dir_69cf206f122d9153ac8b30a0f4a917bf&#45;&gt;dir_86d6a0ef6fcd04306246bc919bf79e2a</title>
<g id="a_edge20"><a xlink:href="dir_000005_000001.html" target="_top">
<path fill="none" stroke="#63b8ff" d="M268.58,-188.75C261.23,-181.11 250.37,-169.82 241.46,-160.56"/>
<polygon fill="#63b8ff" stroke="#63b8ff" points="243.72,-157.87 234.26,-153.09 238.68,-162.72 243.72,-157.87"/>
</a>
</g>
<g id="a_edge20&#45;headlabel"><a xlink:href="dir_000005_000001.html" target="_top" xlink:title="1">
<text text-anchor="middle" x="248.26" y="-155.99" font-family="Helvetica,sans-Serif" font-size="10.00" fill="#63b8ff">1</text>
</a>
</g>
</g>
<!-- dir_69cf206f122d9153ac8b30a0f4a917bf&#45;&gt;dir_9d06c2f3a5ac32ab80fc048d7ff16b35 -->
<g id="edge15" class="edge">
<title>dir_69cf206f122d9153ac8b30a0f4a917bf&#45;&gt;dir_9d06c2f3a5ac32ab80fc048d7ff16b35</title>
<g id="a_edge15"><a xlink:href="dir_000005_000003.html" target="_top">
<path fill="none" stroke="#63b8ff" d="M267.65,-208.22C259.11,-216.65 246.68,-230.14 239,-244 231.2,-258.08 225.97,-275.62 222.82,-288.7"/>
<polygon fill="#63b8ff" stroke="#63b8ff" points="219.32,-288.32 220.58,-298.84 226.15,-289.84 219.32,-288.32"/>
</a>
</g>
<g id="a_edge15&#45;headlabel"><a xlink:href="dir_000005_000003.html" target="_top" xlink:title="5">
<text text-anchor="middle" x="217.32" y="-281.7" font-family="Helvetica,sans-Serif" font-size="10.00" fill="#63b8ff">5</text>
</a>
</g>
</g>
<!-- dir_69cf206f122d9153ac8b30a0f4a917bf&#45;&gt;dir_1f703d4dd1e982897af273349847e927 -->
<g id="edge16" class="edge">
<title>dir_69cf206f122d9153ac8b30a0f4a917bf&#45;&gt;dir_1f703d4dd1e982897af273349847e927</title>
<g id="a_edge16"><a xlink:href="dir_000005_000007.html" target="_top">
<path fill="none" stroke="#63b8ff" d="M277.65,-188.74C279.52,-163.31 284.98,-89.08 287.59,-53.69"/>
<polygon fill="#63b8ff" stroke="#63b8ff" points="291.11,-53.54 288.35,-43.31 284.13,-53.02 291.11,-53.54"/>
</a>
</g>
<g id="a_edge16&#45;headlabel"><a xlink:href="dir_000005_000007.html" target="_top" xlink:title="2">
<text text-anchor="middle" x="293.68" y="-54.83" font-family="Helvetica,sans-Serif" font-size="10.00" fill="#63b8ff">2</text>
</a>
</g>
</g>
<!-- dir_69cf206f122d9153ac8b30a0f4a917bf&#45;&gt;dir_15b1266ec3c6694d64b0cfc160192d3b -->
<g id="edge17" class="edge">
<title>dir_69cf206f122d9153ac8b30a0f4a917bf&#45;&gt;dir_15b1266ec3c6694d64b0cfc160192d3b</title>
<g id="a_edge17"><a xlink:href="dir_000005_000010.html" target="_top">
<path fill="none" stroke="#63b8ff" d="M276.47,-188.85C275.27,-175.79 271.41,-150.76 259,-134 249.08,-120.59 233.81,-110.15 220.16,-102.75"/>
<polygon fill="#63b8ff" stroke="#63b8ff" points="221.55,-99.54 211.05,-98.13 218.38,-105.78 221.55,-99.54"/>
</a>
</g>
<g id="a_edge17&#45;headlabel"><a xlink:href="dir_000005_000010.html" target="_top" xlink:title="11">
<text text-anchor="middle" x="226.04" y="-96.13" font-family="Helvetica,sans-Serif" font-size="10.00" fill="#63b8ff">11</text>
</a>
</g>
</g>
<!-- dir_69cf206f122d9153ac8b30a0f4a917bf&#45;&gt;dir_6556945d274d6e1e874171d9d575b3f4 -->
<g id="edge19" class="edge">
<title>dir_69cf206f122d9153ac8b30a0f4a917bf&#45;&gt;dir_6556945d274d6e1e874171d9d575b3f4</title>
<g id="a_edge19"><a xlink:href="dir_000005_000024.html" target="_top">
<path fill="none" stroke="#63b8ff" d="M289.24,-188.98C304.73,-180.46 331.43,-167.23 352.8,-157.41"/>
<polygon fill="#63b8ff" stroke="#63b8ff" points="354.51,-160.48 362.18,-153.17 351.63,-154.1 354.51,-160.48"/>
</a>
</g>
<g id="a_edge19&#45;headlabel"><a xlink:href="dir_000005_000024.html" target="_top" xlink:title="3">
<text text-anchor="middle" x="352.41" y="-162.05" font-family="Helvetica,sans-Serif" font-size="10.00" fill="#63b8ff">3</text>
</a>
</g>
</g>
<!-- dir_69cf206f122d9153ac8b30a0f4a917bf&#45;&gt;dir_58a8bb8411baaae7f5177ea38c71ea73 -->
<g id="edge18" class="edge">
<title>dir_69cf206f122d9153ac8b30a0f4a917bf&#45;&gt;dir_58a8bb8411baaae7f5177ea38c71ea73</title>
<g id="a_edge18"><a xlink:href="dir_000005_000027.html" target="_top">
<path fill="none" stroke="#63b8ff" d="M281.66,-188.66C291.06,-170.85 312.43,-130.37 324.76,-107.01"/>
<polygon fill="#63b8ff" stroke="#63b8ff" points="327.86,-108.64 329.43,-98.16 321.67,-105.37 327.86,-108.64"/>
</a>
</g>
<g id="a_edge18&#45;headlabel"><a xlink:href="dir_000005_000027.html" target="_top" xlink:title="2">
<text text-anchor="middle" x="328.69" y="-110.64" font-family="Helvetica,sans-Serif" font-size="10.00" fill="#63b8ff">2</text>
</a>
</g>
</g>
<!-- dir_69cf206f122d9153ac8b30a0f4a917bf&#45;&gt;dir_aeca43db7a276eb6dbfba1f93dc4539c -->
<g id="edge14" class="edge">
<title>dir_69cf206f122d9153ac8b30a0f4a917bf&#45;&gt;dir_aeca43db7a276eb6dbfba1f93dc4539c</title>
<g id="a_edge14"><a xlink:href="dir_000005_000039.html" target="_top">
<path fill="none" stroke="#63b8ff" d="M280.51,-208.09C280.72,-215.06 279.26,-225.15 276.97,-233.95"/>
<polygon fill="#63b8ff" stroke="#63b8ff" points="273.55,-233.16 273.82,-243.75 280.21,-235.3 273.55,-233.16"/>
</a>
</g>
<g id="a_edge14&#45;headlabel"><a xlink:href="dir_000005_000039.html" target="_top" xlink:title="99">
<text text-anchor="middle" x="271.95" y="-226.36" font-family="Helvetica,sans-Serif" font-size="10.00" fill="#63b8ff">99</text>
</a>
</g>
</g>
<!-- dir_1f703d4dd1e982897af273349847e927&#45;&gt;dir_aeca43db7a276eb6dbfba1f93dc4539c -->
<g id="edge21" class="edge">
<title>dir_1f703d4dd1e982897af273349847e927&#45;&gt;dir_aeca43db7a276eb6dbfba1f93dc4539c</title>
<g id="a_edge21"><a xlink:href="dir_000007_000039.html" target="_top">
<path fill="none" stroke="#63b8ff" d="M273.11,-34.25C243.82,-34.77 181.77,-40.61 154,-79 112.5,-136.38 201.78,-208.18 245.14,-238.24"/>
<polygon fill="#63b8ff" stroke="#63b8ff" points="243.39,-241.28 253.63,-244 247.32,-235.49 243.39,-241.28"/>
</a>
</g>
<g id="a_edge21&#45;headlabel"><a xlink:href="dir_000007_000039.html" target="_top" xlink:title="4">
<text text-anchor="middle" x="238.82" y="-239.11" font-family="Helvetica,sans-Serif" font-size="10.00" fill="#63b8ff">4</text>
</a>
</g>
</g>
<!-- dir_15b1266ec3c6694d64b0cfc160192d3b&#45;&gt;dir_9d06c2f3a5ac32ab80fc048d7ff16b35 -->
<g id="edge23" class="edge">
<title>dir_15b1266ec3c6694d64b0cfc160192d3b&#45;&gt;dir_9d06c2f3a5ac32ab80fc048d7ff16b35</title>
<g id="a_edge23"><a xlink:href="dir_000010_000003.html" target="_top">
<path fill="none" stroke="#63b8ff" d="M189.01,-98.02C188.02,-106.96 186.56,-121.45 186,-134 183.42,-191.54 202.39,-258.06 212.68,-289.39"/>
<polygon fill="#63b8ff" stroke="#63b8ff" points="209.39,-290.59 215.91,-298.94 216.02,-288.34 209.39,-290.59"/>
</a>
</g>
<g id="a_edge23&#45;headlabel"><a xlink:href="dir_000010_000003.html" target="_top" xlink:title="1">
<text text-anchor="middle" x="205.55" y="-285.59" font-family="Helvetica,sans-Serif" font-size="10.00" fill="#63b8ff">1</text>
</a>
</g>
</g>
<!-- dir_15b1266ec3c6694d64b0cfc160192d3b&#45;&gt;dir_1f703d4dd1e982897af273349847e927 -->
<g id="edge22" class="edge">
<title>dir_15b1266ec3c6694d64b0cfc160192d3b&#45;&gt;dir_1f703d4dd1e982897af273349847e927</title>
<g id="a_edge22"><a xlink:href="dir_000010_000007.html" target="_top">
<path fill="none" stroke="#63b8ff" d="M205.91,-78.98C221.73,-70.51 246.23,-57.4 264.53,-47.6"/>
<polygon fill="#63b8ff" stroke="#63b8ff" points="266.3,-50.62 273.46,-42.82 262.99,-44.45 266.3,-50.62"/>
</a>
</g>
<g id="a_edge22&#45;headlabel"><a xlink:href="dir_000010_000007.html" target="_top" xlink:title="1">
<text text-anchor="middle" x="264.47" y="-52.32" font-family="Helvetica,sans-Serif" font-size="10.00" fill="#63b8ff">1</text>
</a>
</g>
</g>
<!-- dir_15b1266ec3c6694d64b0cfc160192d3b&#45;&gt;dir_aeca43db7a276eb6dbfba1f93dc4539c -->
<g id="edge24" class="edge">
<title>dir_15b1266ec3c6694d64b0cfc160192d3b&#45;&gt;dir_aeca43db7a276eb6dbfba1f93dc4539c</title>
<g id="a_edge24"><a xlink:href="dir_000010_000039.html" target="_top">
<path fill="none" stroke="#63b8ff" d="M195.24,-98.36C197.51,-110.86 197.16,-134.23 203,-153 213.39,-186.4 240.23,-217.67 255.96,-235.94"/>
<polygon fill="#63b8ff" stroke="#63b8ff" points="253.53,-238.48 262.68,-243.82 258.85,-233.94 253.53,-238.48"/>
</a>
</g>
<g id="a_edge24&#45;headlabel"><a xlink:href="dir_000010_000039.html" target="_top" xlink:title="6">
<text text-anchor="middle" x="249.03" y="-235.09" font-family="Helvetica,sans-Serif" font-size="10.00" fill="#63b8ff">6</text>
</a>
</g>
</g>
<!-- dir_6556945d274d6e1e874171d9d575b3f4&#45;&gt;dir_9d06c2f3a5ac32ab80fc048d7ff16b35 -->
<g id="edge29" class="edge">
<title>dir_6556945d274d6e1e874171d9d575b3f4&#45;&gt;dir_9d06c2f3a5ac32ab80fc048d7ff16b35</title>
<g id="a_edge29"><a xlink:href="dir_000024_000003.html" target="_top">
<path fill="none" stroke="#63b8ff" d="M380.61,-153.08C374.02,-165.62 360.87,-189.5 347,-208 327,-234.67 322.06,-242.21 296,-263 280.61,-275.28 261.44,-286.37 246.08,-294.41"/>
<polygon fill="#63b8ff" stroke="#63b8ff" points="244.4,-291.34 237.08,-299 247.58,-297.57 244.4,-291.34"/>
</a>
</g>
<g id="a_edge29&#45;headlabel"><a xlink:href="dir_000024_000003.html" target="_top" xlink:title="15">
<text text-anchor="middle" x="246.31" y="-284.68" font-family="Helvetica,sans-Serif" font-size="10.00" fill="#63b8ff">15</text>
</a>
</g>
</g>
<!-- dir_6556945d274d6e1e874171d9d575b3f4&#45;&gt;dir_69cf206f122d9153ac8b30a0f4a917bf -->
<g id="edge28" class="edge">
<title>dir_6556945d274d6e1e874171d9d575b3f4&#45;&gt;dir_69cf206f122d9153ac8b30a0f4a917bf</title>
<g id="a_edge28"><a xlink:href="dir_000024_000005.html" target="_top">
<path fill="none" stroke="#63b8ff" d="M372.48,-153.17C356.85,-161.75 330.12,-174.99 308.81,-184.77"/>
<polygon fill="#63b8ff" stroke="#63b8ff" points="307.14,-181.68 299.47,-188.98 310.02,-188.06 307.14,-181.68"/>
</a>
</g>
<g id="a_edge28&#45;headlabel"><a xlink:href="dir_000024_000005.html" target="_top" xlink:title="58">
<text text-anchor="middle" x="309.25" y="-175.11" font-family="Helvetica,sans-Serif" font-size="10.00" fill="#63b8ff">58</text>
</a>
</g>
</g>
<!-- dir_6556945d274d6e1e874171d9d575b3f4&#45;&gt;dir_1f703d4dd1e982897af273349847e927 -->
<g id="edge26" class="edge">
<title>dir_6556945d274d6e1e874171d9d575b3f4&#45;&gt;dir_1f703d4dd1e982897af273349847e927</title>
<g id="a_edge26"><a xlink:href="dir_000024_000007.html" target="_top">
<path fill="none" stroke="#63b8ff" d="M384.92,-133.76C384.37,-120.58 381.6,-95.41 369,-79 355.26,-61.11 332.16,-49.38 314.31,-42.48"/>
<polygon fill="#63b8ff" stroke="#63b8ff" points="315.36,-39.14 304.77,-39.04 312.99,-45.72 315.36,-39.14"/>
</a>
</g>
<g id="a_edge26&#45;headlabel"><a xlink:href="dir_000024_000007.html" target="_top" xlink:title="1">
<text text-anchor="middle" x="319.71" y="-35.18" font-family="Helvetica,sans-Serif" font-size="10.00" fill="#63b8ff">1</text>
</a>
</g>
</g>
<!-- dir_6556945d274d6e1e874171d9d575b3f4&#45;&gt;dir_15b1266ec3c6694d64b0cfc160192d3b -->
<g id="edge25" class="edge">
<title>dir_6556945d274d6e1e874171d9d575b3f4&#45;&gt;dir_15b1266ec3c6694d64b0cfc160192d3b</title>
<g id="a_edge25"><a xlink:href="dir_000024_000010.html" target="_top">
<path fill="none" stroke="#63b8ff" d="M353.67,-133.98C319.33,-124.65 264.24,-109.68 227.59,-99.72"/>
<polygon fill="#63b8ff" stroke="#63b8ff" points="228.35,-96.3 217.78,-97.05 226.51,-103.05 228.35,-96.3"/>
</a>
</g>
<g id="a_edge25&#45;headlabel"><a xlink:href="dir_000024_000010.html" target="_top" xlink:title="12">
<text text-anchor="middle" x="232.56" y="-92" font-family="Helvetica,sans-Serif" font-size="10.00" fill="#63b8ff">12</text>
</a>
</g>
</g>
<!-- dir_6556945d274d6e1e874171d9d575b3f4&#45;&gt;dir_58a8bb8411baaae7f5177ea38c71ea73 -->
<g id="edge27" class="edge">
<title>dir_6556945d274d6e1e874171d9d575b3f4&#45;&gt;dir_58a8bb8411baaae7f5177ea38c71ea73</title>
<g id="a_edge27"><a xlink:href="dir_000024_000027.html" target="_top">
<path fill="none" stroke="#63b8ff" d="M376.58,-133.75C369.23,-126.11 358.37,-114.82 349.46,-105.56"/>
<polygon fill="#63b8ff" stroke="#63b8ff" points="351.72,-102.87 342.26,-98.09 346.68,-107.72 351.72,-102.87"/>
</a>
</g>
<g id="a_edge27&#45;headlabel"><a xlink:href="dir_000024_000027.html" target="_top" xlink:title="17">
<text text-anchor="middle" x="356.26" y="-100.99" font-family="Helvetica,sans-Serif" font-size="10.00" fill="#63b8ff">17</text>
</a>
</g>
</g>
<!-- dir_6556945d274d6e1e874171d9d575b3f4&#45;&gt;dir_cd166ded320aef6ec75102a3779bae14 -->
<g id="edge31" class="edge">
<title>dir_6556945d274d6e1e874171d9d575b3f4&#45;&gt;dir_cd166ded320aef6ec75102a3779bae14</title>
<g id="a_edge31"><a xlink:href="dir_000024_000036.html" target="_top">
<path fill="none" stroke="#63b8ff" d="M394,-133.98C402.19,-126.23 414.51,-114.58 424.47,-105.14"/>
<polygon fill="#63b8ff" stroke="#63b8ff" points="426.98,-107.59 431.84,-98.17 422.17,-102.5 426.98,-107.59"/>
</a>
</g>
<g id="a_edge31&#45;headlabel"><a xlink:href="dir_000024_000036.html" target="_top" xlink:title="2">
<text text-anchor="middle" x="426.32" y="-109.62" font-family="Helvetica,sans-Serif" font-size="10.00" fill="#63b8ff">2</text>
</a>
</g>
</g>
<!-- dir_6556945d274d6e1e874171d9d575b3f4&#45;&gt;dir_aeca43db7a276eb6dbfba1f93dc4539c -->
<g id="edge30" class="edge">
<title>dir_6556945d274d6e1e874171d9d575b3f4&#45;&gt;dir_aeca43db7a276eb6dbfba1f93dc4539c</title>
<g id="a_edge30"><a xlink:href="dir_000024_000039.html" target="_top">
<path fill="none" stroke="#63b8ff" d="M385.02,-153.43C379.37,-166.41 361.79,-190.83 343,-208 328.91,-220.87 310.78,-232.68 295.56,-240.89"/>
<polygon fill="#63b8ff" stroke="#63b8ff" points="293.83,-237.85 286.52,-245.52 297.02,-244.08 293.83,-237.85"/>
</a>
</g>
<g id="a_edge30&#45;headlabel"><a xlink:href="dir_000024_000039.html" target="_top" xlink:title="65">
<text text-anchor="middle" x="295.73" y="-231.18" font-family="Helvetica,sans-Serif" font-size="10.00" fill="#63b8ff">65</text>
</a>
</g>
</g>
<!-- dir_58a8bb8411baaae7f5177ea38c71ea73&#45;&gt;dir_aeca43db7a276eb6dbfba1f93dc4539c -->
<g id="edge32" class="edge">
<title>dir_58a8bb8411baaae7f5177ea38c71ea73&#45;&gt;dir_aeca43db7a276eb6dbfba1f93dc4539c</title>
<g id="a_edge32"><a xlink:href="dir_000027_000039.html" target="_top">
<path fill="none" stroke="#63b8ff" d="M334.82,-98.16C336.35,-118.64 337.88,-171.07 318,-208 311.47,-220.13 300.24,-230.47 289.97,-238.13"/>
<polygon fill="#63b8ff" stroke="#63b8ff" points="287.89,-235.32 281.69,-243.91 291.9,-241.05 287.89,-235.32"/>
</a>
</g>
<g id="a_edge32&#45;headlabel"><a xlink:href="dir_000027_000039.html" target="_top" xlink:title="21">
<text text-anchor="middle" x="289.21" y="-228.43" font-family="Helvetica,sans-Serif" font-size="10.00" fill="#63b8ff">21</text>
</a>
</g>
</g>
<!-- dir_cd166ded320aef6ec75102a3779bae14&#45;&gt;dir_aeca43db7a276eb6dbfba1f93dc4539c -->
<g id="edge33" class="edge">
<title>dir_cd166ded320aef6ec75102a3779bae14&#45;&gt;dir_aeca43db7a276eb6dbfba1f93dc4539c</title>
<g id="a_edge33"><a xlink:href="dir_000036_000039.html" target="_top">
<path fill="none" stroke="#63b8ff" d="M441.91,-98.07C442.86,-111.03 442.91,-135.92 432,-153 400.33,-202.55 334.35,-230.97 296.12,-243.91"/>
<polygon fill="#63b8ff" stroke="#63b8ff" points="295,-240.59 286.58,-247.01 297.17,-247.25 295,-240.59"/>
</a>
</g>
<g id="a_edge33&#45;headlabel"><a xlink:href="dir_000036_000039.html" target="_top" xlink:title="1">
<text text-anchor="middle" x="297.54" y="-234.28" font-family="Helvetica,sans-Serif" font-size="10.00" fill="#63b8ff">1</text>
</a>
</g>
</g>
<!-- dir_aeca43db7a276eb6dbfba1f93dc4539c&#45;&gt;dir_86d6a0ef6fcd04306246bc919bf79e2a -->
<g id="edge37" class="edge">
<title>dir_aeca43db7a276eb6dbfba1f93dc4539c&#45;&gt;dir_86d6a0ef6fcd04306246bc919bf79e2a</title>
<g id="a_edge37"><a xlink:href="dir_000039_000001.html" target="_top">
<path fill="none" stroke="#63b8ff" d="M259.59,-243.93C252.63,-235.41 242.49,-221.66 237,-208 231.19,-193.55 228.44,-176.04 227.15,-163.06"/>
<polygon fill="#63b8ff" stroke="#63b8ff" points="230.63,-162.71 226.35,-153.03 223.66,-163.27 230.63,-162.71"/>
</a>
</g>
<g id="a_edge37&#45;headlabel"><a xlink:href="dir_000039_000001.html" target="_top" xlink:title="1">
<text text-anchor="middle" x="233.75" y="-163.57" font-family="Helvetica,sans-Serif" font-size="10.00" fill="#63b8ff">1</text>
</a>
</g>
</g>
<!-- dir_aeca43db7a276eb6dbfba1f93dc4539c&#45;&gt;dir_69cf206f122d9153ac8b30a0f4a917bf -->
<g id="edge36" class="edge">
<title>dir_aeca43db7a276eb6dbfba1f93dc4539c&#45;&gt;dir_69cf206f122d9153ac8b30a0f4a917bf</title>
<g id="a_edge36"><a xlink:href="dir_000039_000005.html" target="_top">
<path fill="none" stroke="#63b8ff" d="M263.48,-243.75C263.3,-236.72 264.78,-226.62 267.08,-217.84"/>
<polygon fill="#63b8ff" stroke="#63b8ff" points="270.49,-218.68 270.25,-208.09 263.83,-216.52 270.49,-218.68"/>
</a>
</g>
<g id="a_edge36&#45;headlabel"><a xlink:href="dir_000039_000005.html" target="_top" xlink:title="1">
<text text-anchor="middle" x="272.08" y="-220.48" font-family="Helvetica,sans-Serif" font-size="10.00" fill="#63b8ff">1</text>
</a>
</g>
</g>
<!-- dir_aeca43db7a276eb6dbfba1f93dc4539c&#45;&gt;dir_15b1266ec3c6694d64b0cfc160192d3b -->
<g id="edge34" class="edge">
<title>dir_aeca43db7a276eb6dbfba1f93dc4539c&#45;&gt;dir_15b1266ec3c6694d64b0cfc160192d3b</title>
<g id="a_edge34"><a xlink:href="dir_000039_000010.html" target="_top">
<path fill="none" stroke="#63b8ff" d="M252.04,-243.82C231.45,-227.85 197.09,-191.87 185,-153 180.48,-138.48 179.67,-121.21 181.28,-108.35"/>
<polygon fill="#63b8ff" stroke="#63b8ff" points="184.75,-108.86 183.29,-98.36 177.88,-107.48 184.75,-108.86"/>
</a>
</g>
<g id="a_edge34&#45;headlabel"><a xlink:href="dir_000039_000010.html" target="_top" xlink:title="3">
<text text-anchor="middle" x="186.82" y="-110.44" font-family="Helvetica,sans-Serif" font-size="10.00" fill="#63b8ff">3</text>
</a>
</g>
</g>
<!-- dir_aeca43db7a276eb6dbfba1f93dc4539c&#45;&gt;dir_6556945d274d6e1e874171d9d575b3f4 -->
<g id="edge35" class="edge">
<title>dir_aeca43db7a276eb6dbfba1f93dc4539c&#45;&gt;dir_6556945d274d6e1e874171d9d575b3f4</title>
<g id="a_edge35"><a xlink:href="dir_000039_000024.html" target="_top">
<path fill="none" stroke="#63b8ff" d="M275.83,-243.84C288.1,-235.66 309.12,-222.5 325,-208 340.56,-193.78 355.29,-174.59 366.66,-161.04"/>
<polygon fill="#63b8ff" stroke="#63b8ff" points="369.36,-163.27 373.28,-153.43 364.08,-158.68 369.36,-163.27"/>
</a>
</g>
<g id="a_edge35&#45;headlabel"><a xlink:href="dir_000039_000024.html" target="_top" xlink:title="2">
<text text-anchor="middle" x="369.14" y="-165.35" font-family="Helvetica,sans-Serif" font-size="10.00" fill="#63b8ff">2</text>
</a>
</g>
</g>
</g>
</svg>
