<?xml version="1.0" encoding="UTF-8" standalone="no"?>
<!DOCTYPE svg PUBLIC "-//W3C//DTD SVG 1.1//EN"
 "http://www.w3.org/Graphics/SVG/1.1/DTD/svg11.dtd">
<!-- Generated by graphviz version 2.43.0 (0)
 -->
<!-- Title: include/phasar/PhasarLLVM/DataFlow/Mono Pages: 1 -->
<svg width="525pt" height="125pt"
 viewBox="0.00 0.00 525.00 125.00" xmlns="http://www.w3.org/2000/svg" xmlns:xlink="http://www.w3.org/1999/xlink">
<g id="graph0" class="graph" transform="scale(1 1) rotate(0) translate(4 121)">
<title>include/phasar/PhasarLLVM/DataFlow/Mono</title>
<g id="clust1" class="cluster">
<title>clusterdir_b11f051d1364f2a30973d8d796d4babf</title>
<g id="a_clust1"><a xlink:href="dir_b11f051d1364f2a30973d8d796d4babf.html" target="_top" xlink:title="DataFlow">
<polygon fill="#edf0f7" stroke="#7f7f7f" stroke-dasharray="5,2" points="205.5,-39 205.5,-109 361.5,-109 361.5,-39 205.5,-39"/>
<text text-anchor="middle" x="283.5" y="-97" font-family="Helvetica,sans-Serif" font-size="10.00">DataFlow</text>
</a>
</g>
</g>
<g id="clust2" class="cluster">
<title>clusterdir_0e28ca19d6cc28e1984b43a86f9232be</title>
<g id="a_clust2"><a xlink:href="dir_0e28ca19d6cc28e1984b43a86f9232be.html" target="_top">
<polygon fill="#edf0f7" stroke="#404040" stroke-width="2" points="213.5,-47 213.5,-82 353.5,-82 353.5,-47 213.5,-47"/>
</a>
</g>
</g>
<!-- dir_0e28ca19d6cc28e1984b43a86f9232be -->
<g id="node1" class="node">
<title>dir_0e28ca19d6cc28e1984b43a86f9232be</title>
<text text-anchor="middle" x="323.5" y="-62" font-family="Helvetica,sans-Serif" font-size="10.00">Mono</text>
</g>
<!-- dir_a2b8510c46bfa02f8a5f51a307d28c1e -->
<g id="node2" class="node">
<title>dir_a2b8510c46bfa02f8a5f51a307d28c1e</title>
<g id="a_node2"><a xlink:href="dir_a2b8510c46bfa02f8a5f51a307d28c1e.html" target="_top" xlink:title="Problems">
<polygon fill="#a2b4d6" stroke="#404040" points="283.5,-74 221.5,-74 221.5,-55 283.5,-55 283.5,-74"/>
<text text-anchor="middle" x="252.5" y="-62" font-family="Helvetica,sans-Serif" font-size="10.00">Problems</text>
</a>
</g>
</g>
<!-- dir_69cf206f122d9153ac8b30a0f4a917bf -->
<g id="node3" class="node">
<title>dir_69cf206f122d9153ac8b30a0f4a917bf</title>
<g id="a_node3"><a xlink:href="dir_69cf206f122d9153ac8b30a0f4a917bf.html" target="_top" xlink:title="DataFlow">
<polygon fill="#edf0f7" stroke="red" stroke-dasharray="5,2" points="63,-19 0,-19 0,0 63,0 63,-19"/>
<text text-anchor="middle" x="31.5" y="-7" font-family="Helvetica,sans-Serif" font-size="10.00">DataFlow</text>
</a>
</g>
</g>
<!-- dir_a2b8510c46bfa02f8a5f51a307d28c1e&#45;&gt;dir_69cf206f122d9153ac8b30a0f4a917bf -->
<g id="edge6" class="edge">
<title>dir_a2b8510c46bfa02f8a5f51a307d28c1e&#45;&gt;dir_69cf206f122d9153ac8b30a0f4a917bf</title>
<g id="a_edge6"><a xlink:href="dir_000029_000005.html" target="_top">
<path fill="none" stroke="#63b8ff" d="M221.3,-56.02C182.53,-46.72 116.22,-30.82 73.14,-20.49"/>
<polygon fill="#63b8ff" stroke="#63b8ff" points="73.79,-17.04 63.25,-18.11 72.16,-23.85 73.79,-17.04"/>
</a>
</g>
<g id="a_edge6&#45;headlabel"><a xlink:href="dir_000029_000005.html" target="_top" xlink:title="6">
<text text-anchor="middle" x="77.95" y="-12.62" font-family="Helvetica,sans-Serif" font-size="10.00" fill="#63b8ff">6</text>
</a>
</g>
</g>
<!-- dir_15b1266ec3c6694d64b0cfc160192d3b -->
<g id="node4" class="node">
<title>dir_15b1266ec3c6694d64b0cfc160192d3b</title>
<g id="a_node4"><a xlink:href="dir_15b1266ec3c6694d64b0cfc160192d3b.html" target="_top" xlink:title="Domain">
<polygon fill="#edf0f7" stroke="#7f7f7f" points="136,-19 81,-19 81,0 136,0 136,-19"/>
<text text-anchor="middle" x="108.5" y="-7" font-family="Helvetica,sans-Serif" font-size="10.00">Domain</text>
</a>
</g>
</g>
<!-- dir_a2b8510c46bfa02f8a5f51a307d28c1e&#45;&gt;dir_15b1266ec3c6694d64b0cfc160192d3b -->
<g id="edge3" class="edge">
<title>dir_a2b8510c46bfa02f8a5f51a307d28c1e&#45;&gt;dir_15b1266ec3c6694d64b0cfc160192d3b</title>
<g id="a_edge3"><a xlink:href="dir_000029_000010.html" target="_top">
<path fill="none" stroke="#63b8ff" d="M229.36,-54.98C205.68,-46.27 168.63,-32.63 141.79,-22.75"/>
<polygon fill="#63b8ff" stroke="#63b8ff" points="142.65,-19.34 132.06,-19.17 140.23,-25.91 142.65,-19.34"/>
</a>
</g>
<g id="a_edge3&#45;headlabel"><a xlink:href="dir_000029_000010.html" target="_top" xlink:title="2">
<text text-anchor="middle" x="147" y="-15.42" font-family="Helvetica,sans-Serif" font-size="10.00" fill="#63b8ff">2</text>
</a>
</g>
</g>
<!-- dir_189eb8c36ffce94640b9d816bc05823d -->
<g id="node5" class="node">
<title>dir_189eb8c36ffce94640b9d816bc05823d</title>
<g id="a_node5"><a xlink:href="dir_189eb8c36ffce94640b9d816bc05823d.html" target="_top" xlink:title="Domain">
<polygon fill="#edf0f7" stroke="#7f7f7f" points="209,-19 154,-19 154,0 209,0 209,-19"/>
<text text-anchor="middle" x="181.5" y="-7" font-family="Helvetica,sans-Serif" font-size="10.00">Domain</text>
</a>
</g>
</g>
<!-- dir_a2b8510c46bfa02f8a5f51a307d28c1e&#45;&gt;dir_189eb8c36ffce94640b9d816bc05823d -->
<g id="edge4" class="edge">
<title>dir_a2b8510c46bfa02f8a5f51a307d28c1e&#45;&gt;dir_189eb8c36ffce94640b9d816bc05823d</title>
<g id="a_edge4"><a xlink:href="dir_000029_000011.html" target="_top">
<path fill="none" stroke="#63b8ff" d="M241.09,-54.98C230.39,-47 214.16,-34.88 201.34,-25.31"/>
<polygon fill="#63b8ff" stroke="#63b8ff" points="203.22,-22.35 193.11,-19.17 199.03,-27.96 203.22,-22.35"/>
</a>
</g>
<g id="a_edge4&#45;headlabel"><a xlink:href="dir_000029_000011.html" target="_top" xlink:title="6">
<text text-anchor="middle" x="207.8" y="-19.72" font-family="Helvetica,sans-Serif" font-size="10.00" fill="#63b8ff">6</text>
</a>
</g>
</g>
<!-- dir_0133e64b3a4c854b47f86a7b8e0c9983 -->
<g id="node6" class="node">
<title>dir_0133e64b3a4c854b47f86a7b8e0c9983</title>
<g id="a_node6"><a xlink:href="dir_0133e64b3a4c854b47f86a7b8e0c9983.html" target="_top" xlink:title="Pointer">
<polygon fill="#edf0f7" stroke="red" stroke-dasharray="5,2" points="278,-19 227,-19 227,0 278,0 278,-19"/>
<text text-anchor="middle" x="252.5" y="-7" font-family="Helvetica,sans-Serif" font-size="10.00">Pointer</text>
</a>
</g>
</g>
<!-- dir_a2b8510c46bfa02f8a5f51a307d28c1e&#45;&gt;dir_0133e64b3a4c854b47f86a7b8e0c9983 -->
<g id="edge1" class="edge">
<title>dir_a2b8510c46bfa02f8a5f51a307d28c1e&#45;&gt;dir_0133e64b3a4c854b47f86a7b8e0c9983</title>
<g id="a_edge1"><a xlink:href="dir_000029_000026.html" target="_top">
<path fill="none" stroke="#63b8ff" d="M252.5,-54.75C252.5,-47.8 252.5,-37.85 252.5,-29.13"/>
<polygon fill="#63b8ff" stroke="#63b8ff" points="256,-29.09 252.5,-19.09 249,-29.09 256,-29.09"/>
</a>
</g>
<g id="a_edge1&#45;headlabel"><a xlink:href="dir_000029_000026.html" target="_top" xlink:title="6">
<text text-anchor="middle" x="258.84" y="-30.18" font-family="Helvetica,sans-Serif" font-size="10.00" fill="#63b8ff">6</text>
</a>
</g>
</g>
<!-- dir_aeca43db7a276eb6dbfba1f93dc4539c -->
<g id="node7" class="node">
<title>dir_aeca43db7a276eb6dbfba1f93dc4539c</title>
<g id="a_node7"><a xlink:href="dir_aeca43db7a276eb6dbfba1f93dc4539c.html" target="_top" xlink:title="Utils">
<polygon fill="#edf0f7" stroke="#7f7f7f" points="335,-19 296,-19 296,0 335,0 335,-19"/>
<text text-anchor="middle" x="315.5" y="-7" font-family="Helvetica,sans-Serif" font-size="10.00">Utils</text>
</a>
</g>
</g>
<!-- dir_a2b8510c46bfa02f8a5f51a307d28c1e&#45;&gt;dir_aeca43db7a276eb6dbfba1f93dc4539c -->
<g id="edge7" class="edge">
<title>dir_a2b8510c46bfa02f8a5f51a307d28c1e&#45;&gt;dir_aeca43db7a276eb6dbfba1f93dc4539c</title>
<g id="a_edge7"><a xlink:href="dir_000029_000039.html" target="_top">
<path fill="none" stroke="#63b8ff" d="M262.62,-54.98C271.94,-47.15 285.97,-35.34 297.24,-25.86"/>
<polygon fill="#63b8ff" stroke="#63b8ff" points="299.79,-28.29 305.19,-19.17 295.29,-22.93 299.79,-28.29"/>
</a>
</g>
<g id="a_edge7&#45;headlabel"><a xlink:href="dir_000029_000039.html" target="_top" xlink:title="5">
<text text-anchor="middle" x="298.87" y="-30.27" font-family="Helvetica,sans-Serif" font-size="10.00" fill="#63b8ff">5</text>
</a>
</g>
</g>
<!-- dir_0bc4dee926a629f715a9261d8d248ef6 -->
<g id="node8" class="node">
<title>dir_0bc4dee926a629f715a9261d8d248ef6</title>
<g id="a_node8"><a xlink:href="dir_0bc4dee926a629f715a9261d8d248ef6.html" target="_top" xlink:title="ControlFlow">
<polygon fill="#edf0f7" stroke="red" stroke-dasharray="5,2" points="428,-19 353,-19 353,0 428,0 428,-19"/>
<text text-anchor="middle" x="390.5" y="-7" font-family="Helvetica,sans-Serif" font-size="10.00">ControlFlow</text>
</a>
</g>
</g>
<!-- dir_a2b8510c46bfa02f8a5f51a307d28c1e&#45;&gt;dir_0bc4dee926a629f715a9261d8d248ef6 -->
<g id="edge2" class="edge">
<title>dir_a2b8510c46bfa02f8a5f51a307d28c1e&#45;&gt;dir_0bc4dee926a629f715a9261d8d248ef6</title>
<g id="a_edge2"><a xlink:href="dir_000029_000004.html" target="_top">
<path fill="none" stroke="#63b8ff" d="M264.64,-54.88C272.34,-49.72 282.67,-43.35 292.5,-39 308.47,-31.94 326.67,-26.09 343.01,-21.57"/>
<polygon fill="#63b8ff" stroke="#63b8ff" points="344.15,-24.89 352.91,-18.92 342.34,-18.12 344.15,-24.89"/>
</a>
</g>
<g id="a_edge2&#45;headlabel"><a xlink:href="dir_000029_000004.html" target="_top" xlink:title="1">
<text text-anchor="middle" x="341.41" y="-26.06" font-family="Helvetica,sans-Serif" font-size="10.00" fill="#63b8ff">1</text>
</a>
</g>
</g>
<!-- dir_63e7bb0cb88dc7cebeab7c37a85fbe32 -->
<g id="node9" class="node">
<title>dir_63e7bb0cb88dc7cebeab7c37a85fbe32</title>
<g id="a_node9"><a xlink:href="dir_63e7bb0cb88dc7cebeab7c37a85fbe32.html" target="_top" xlink:title="TaintConfig">
<polygon fill="#edf0f7" stroke="#7f7f7f" points="517,-19 446,-19 446,0 517,0 517,-19"/>
<text text-anchor="middle" x="481.5" y="-7" font-family="Helvetica,sans-Serif" font-size="10.00">TaintConfig</text>
</a>
</g>
</g>
<!-- dir_a2b8510c46bfa02f8a5f51a307d28c1e&#45;&gt;dir_63e7bb0cb88dc7cebeab7c37a85fbe32 -->
<g id="edge5" class="edge">
<title>dir_a2b8510c46bfa02f8a5f51a307d28c1e&#45;&gt;dir_63e7bb0cb88dc7cebeab7c37a85fbe32</title>
<g id="a_edge5"><a xlink:href="dir_000029_000034.html" target="_top">
<path fill="none" stroke="#63b8ff" d="M263.75,-54.85C271.43,-49.41 282.07,-42.73 292.5,-39 350.77,-18.17 371.31,-28.48 435.71,-19.13"/>
<polygon fill="#63b8ff" stroke="#63b8ff" points="436.65,-22.53 445.99,-17.53 435.57,-15.61 436.65,-22.53"/>
</a>
</g>
<g id="a_edge5&#45;headlabel"><a xlink:href="dir_000029_000034.html" target="_top" xlink:title="1">
<text text-anchor="middle" x="433.53" y="-23.39" font-family="Helvetica,sans-Serif" font-size="10.00" fill="#63b8ff">1</text>
</a>
</g>
</g>
</g>
</svg>
