<?xml version="1.0" encoding="UTF-8" standalone="no"?>
<!DOCTYPE svg PUBLIC "-//W3C//DTD SVG 1.1//EN"
 "http://www.w3.org/Graphics/SVG/1.1/DTD/svg11.dtd">
<!-- Generated by graphviz version 2.43.0 (0)
 -->
<!-- Title: include/phasar/PhasarLLVM/DataFlow Pages: 1 -->
<svg width="648pt" height="141pt"
 viewBox="0.00 0.00 647.50 141.00" xmlns="http://www.w3.org/2000/svg" xmlns:xlink="http://www.w3.org/1999/xlink">
<g id="graph0" class="graph" transform="scale(1 1) rotate(0) translate(4 137)">
<title>include/phasar/PhasarLLVM/DataFlow</title>
<g id="clust1" class="cluster">
<title>clusterdir_6556945d274d6e1e874171d9d575b3f4</title>
<g id="a_clust1"><a xlink:href="dir_6556945d274d6e1e874171d9d575b3f4.html" target="_top" xlink:title="PhasarLLVM">
<polygon fill="#edf0f7" stroke="#7f7f7f" stroke-dasharray="5,2" points="8,-8 8,-125 437,-125 437,-8 8,-8"/>
<text text-anchor="middle" x="222.5" y="-113" font-family="Helvetica,sans-Serif" font-size="10.00">PhasarLLVM</text>
</a>
</g>
</g>
<g id="clust2" class="cluster">
<title>clusterdir_b11f051d1364f2a30973d8d796d4babf</title>
<g id="a_clust2"><a xlink:href="dir_b11f051d1364f2a30973d8d796d4babf.html" target="_top">
<polygon fill="#edf0f7" stroke="#404040" stroke-width="2" points="112,-63 112,-98 429,-98 429,-63 112,-63"/>
</a>
</g>
</g>
<!-- dir_0133e64b3a4c854b47f86a7b8e0c9983 -->
<g id="node1" class="node">
<title>dir_0133e64b3a4c854b47f86a7b8e0c9983</title>
<g id="a_node1"><a xlink:href="dir_0133e64b3a4c854b47f86a7b8e0c9983.html" target="_top" xlink:title="Pointer">
<polygon fill="#a2b4d6" stroke="red" points="67.5,-35 16.5,-35 16.5,-16 67.5,-16 67.5,-35"/>
<text text-anchor="middle" x="42" y="-23" font-family="Helvetica,sans-Serif" font-size="10.00">Pointer</text>
</a>
</g>
</g>
<!-- dir_079f3dfffeb9e770010097b0dd1334eb -->
<g id="node2" class="node">
<title>dir_079f3dfffeb9e770010097b0dd1334eb</title>
<g id="a_node2"><a xlink:href="dir_079f3dfffeb9e770010097b0dd1334eb.html" target="_top" xlink:title="Utils">
<polygon fill="#a2b4d6" stroke="#404040" points="428.5,-35 389.5,-35 389.5,-16 428.5,-16 428.5,-35"/>
<text text-anchor="middle" x="409" y="-23" font-family="Helvetica,sans-Serif" font-size="10.00">Utils</text>
</a>
</g>
</g>
<!-- dir_0bc4dee926a629f715a9261d8d248ef6 -->
<g id="node3" class="node">
<title>dir_0bc4dee926a629f715a9261d8d248ef6</title>
<g id="a_node3"><a xlink:href="dir_0bc4dee926a629f715a9261d8d248ef6.html" target="_top" xlink:title="ControlFlow">
<polygon fill="#a2b4d6" stroke="red" points="160.5,-35 85.5,-35 85.5,-16 160.5,-16 160.5,-35"/>
<text text-anchor="middle" x="123" y="-23" font-family="Helvetica,sans-Serif" font-size="10.00">ControlFlow</text>
</a>
</g>
</g>
<!-- dir_68aec2623aad94785c017c13c687e045 -->
<g id="node4" class="node">
<title>dir_68aec2623aad94785c017c13c687e045</title>
<g id="a_node4"><a xlink:href="dir_68aec2623aad94785c017c13c687e045.html" target="_top" xlink:title="DB">
<polygon fill="#a2b4d6" stroke="#404040" points="209.5,-35 178.5,-35 178.5,-16 209.5,-16 209.5,-35"/>
<text text-anchor="middle" x="194" y="-23" font-family="Helvetica,sans-Serif" font-size="10.00">DB</text>
</a>
</g>
</g>
<!-- dir_189eb8c36ffce94640b9d816bc05823d -->
<g id="node5" class="node">
<title>dir_189eb8c36ffce94640b9d816bc05823d</title>
<g id="a_node5"><a xlink:href="dir_189eb8c36ffce94640b9d816bc05823d.html" target="_top" xlink:title="Domain">
<polygon fill="#a2b4d6" stroke="#404040" points="282.5,-35 227.5,-35 227.5,-16 282.5,-16 282.5,-35"/>
<text text-anchor="middle" x="255" y="-23" font-family="Helvetica,sans-Serif" font-size="10.00">Domain</text>
</a>
</g>
</g>
<!-- dir_63e7bb0cb88dc7cebeab7c37a85fbe32 -->
<g id="node6" class="node">
<title>dir_63e7bb0cb88dc7cebeab7c37a85fbe32</title>
<g id="a_node6"><a xlink:href="dir_63e7bb0cb88dc7cebeab7c37a85fbe32.html" target="_top" xlink:title="TaintConfig">
<polygon fill="#a2b4d6" stroke="#404040" points="371.5,-35 300.5,-35 300.5,-16 371.5,-16 371.5,-35"/>
<text text-anchor="middle" x="336" y="-23" font-family="Helvetica,sans-Serif" font-size="10.00">TaintConfig</text>
</a>
</g>
</g>
<!-- dir_b11f051d1364f2a30973d8d796d4babf -->
<g id="node7" class="node">
<title>dir_b11f051d1364f2a30973d8d796d4babf</title>
<text text-anchor="middle" x="389" y="-78" font-family="Helvetica,sans-Serif" font-size="10.00">DataFlow</text>
</g>
<!-- dir_a914fe635f43607d3ac935bbff17c46d -->
<g id="node8" class="node">
<title>dir_a914fe635f43607d3ac935bbff17c46d</title>
<g id="a_node8"><a xlink:href="dir_a914fe635f43607d3ac935bbff17c46d.html" target="_top" xlink:title="IfdsIde">
<polygon fill="#a2b4d6" stroke="#404040" points="232,-90 182,-90 182,-71 232,-71 232,-90"/>
<text text-anchor="middle" x="207" y="-78" font-family="Helvetica,sans-Serif" font-size="10.00">IfdsIde</text>
</a>
</g>
</g>
<!-- dir_a914fe635f43607d3ac935bbff17c46d&#45;&gt;dir_0133e64b3a4c854b47f86a7b8e0c9983 -->
<g id="edge1" class="edge">
<title>dir_a914fe635f43607d3ac935bbff17c46d&#45;&gt;dir_0133e64b3a4c854b47f86a7b8e0c9983</title>
<g id="a_edge1"><a xlink:href="dir_000015_000026.html" target="_top">
<path fill="none" stroke="#63b8ff" d="M190.66,-70.83C185.14,-68.11 178.89,-65.23 173,-63 155.62,-56.42 110.06,-44.13 77.56,-35.64"/>
<polygon fill="#63b8ff" stroke="#63b8ff" points="78.08,-32.16 67.52,-33.03 76.32,-38.93 78.08,-32.16"/>
</a>
</g>
<g id="a_edge1&#45;headlabel"><a xlink:href="dir_000015_000026.html" target="_top" xlink:title="14">
<text text-anchor="middle" x="82.27" y="-27.81" font-family="Helvetica,sans-Serif" font-size="10.00" fill="#63b8ff">14</text>
</a>
</g>
</g>
<!-- dir_a914fe635f43607d3ac935bbff17c46d&#45;&gt;dir_079f3dfffeb9e770010097b0dd1334eb -->
<g id="edge2" class="edge">
<title>dir_a914fe635f43607d3ac935bbff17c46d&#45;&gt;dir_079f3dfffeb9e770010097b0dd1334eb</title>
<g id="a_edge2"><a xlink:href="dir_000015_000038.html" target="_top">
<path fill="none" stroke="#63b8ff" d="M223.05,-70.94C228.89,-68.09 235.62,-65.11 242,-63 298.91,-44.16 318.03,-49.75 379.65,-35.11"/>
<polygon fill="#63b8ff" stroke="#63b8ff" points="380.61,-38.47 389.48,-32.69 378.94,-31.68 380.61,-38.47"/>
</a>
</g>
<g id="a_edge2&#45;headlabel"><a xlink:href="dir_000015_000038.html" target="_top" xlink:title="9">
<text text-anchor="middle" x="377.8" y="-39.59" font-family="Helvetica,sans-Serif" font-size="10.00" fill="#63b8ff">9</text>
</a>
</g>
</g>
<!-- dir_a914fe635f43607d3ac935bbff17c46d&#45;&gt;dir_0bc4dee926a629f715a9261d8d248ef6 -->
<g id="edge3" class="edge">
<title>dir_a914fe635f43607d3ac935bbff17c46d&#45;&gt;dir_0bc4dee926a629f715a9261d8d248ef6</title>
<g id="a_edge3"><a xlink:href="dir_000015_000004.html" target="_top">
<path fill="none" stroke="#63b8ff" d="M193.5,-70.98C180.6,-62.84 160.9,-50.41 145.6,-40.76"/>
<polygon fill="#63b8ff" stroke="#63b8ff" points="147.07,-37.55 136.74,-35.17 143.33,-43.47 147.07,-37.55"/>
</a>
</g>
<g id="a_edge3&#45;headlabel"><a xlink:href="dir_000015_000004.html" target="_top" xlink:title="22">
<text text-anchor="middle" x="151.62" y="-34.56" font-family="Helvetica,sans-Serif" font-size="10.00" fill="#63b8ff">22</text>
</a>
</g>
</g>
<!-- dir_a914fe635f43607d3ac935bbff17c46d&#45;&gt;dir_68aec2623aad94785c017c13c687e045 -->
<g id="edge6" class="edge">
<title>dir_a914fe635f43607d3ac935bbff17c46d&#45;&gt;dir_68aec2623aad94785c017c13c687e045</title>
<g id="a_edge6"><a xlink:href="dir_000015_000008.html" target="_top">
<path fill="none" stroke="#63b8ff" d="M204.85,-70.75C203.13,-63.72 200.65,-53.62 198.5,-44.84"/>
<polygon fill="#63b8ff" stroke="#63b8ff" points="201.89,-43.97 196.11,-35.09 195.09,-45.63 201.89,-43.97"/>
</a>
</g>
<g id="a_edge6&#45;headlabel"><a xlink:href="dir_000015_000008.html" target="_top" xlink:title="21">
<text text-anchor="middle" x="205.5" y="-44.28" font-family="Helvetica,sans-Serif" font-size="10.00" fill="#63b8ff">21</text>
</a>
</g>
</g>
<!-- dir_a914fe635f43607d3ac935bbff17c46d&#45;&gt;dir_189eb8c36ffce94640b9d816bc05823d -->
<g id="edge5" class="edge">
<title>dir_a914fe635f43607d3ac935bbff17c46d&#45;&gt;dir_189eb8c36ffce94640b9d816bc05823d</title>
<g id="a_edge5"><a xlink:href="dir_000015_000011.html" target="_top">
<path fill="none" stroke="#63b8ff" d="M214.93,-70.75C221.85,-63.11 232.07,-51.82 240.45,-42.56"/>
<polygon fill="#63b8ff" stroke="#63b8ff" points="243.1,-44.85 247.22,-35.09 237.91,-40.15 243.1,-44.85"/>
</a>
</g>
<g id="a_edge5&#45;headlabel"><a xlink:href="dir_000015_000011.html" target="_top" xlink:title="19">
<text text-anchor="middle" x="242.79" y="-46.92" font-family="Helvetica,sans-Serif" font-size="10.00" fill="#63b8ff">19</text>
</a>
</g>
</g>
<!-- dir_a914fe635f43607d3ac935bbff17c46d&#45;&gt;dir_63e7bb0cb88dc7cebeab7c37a85fbe32 -->
<g id="edge9" class="edge">
<title>dir_a914fe635f43607d3ac935bbff17c46d&#45;&gt;dir_63e7bb0cb88dc7cebeab7c37a85fbe32</title>
<g id="a_edge9"><a xlink:href="dir_000015_000034.html" target="_top">
<path fill="none" stroke="#63b8ff" d="M224.7,-70.86C230.2,-68.25 236.32,-65.44 242,-63 262.09,-54.38 284.95,-45.48 303.09,-38.63"/>
<polygon fill="#63b8ff" stroke="#63b8ff" points="304.5,-41.84 312.64,-35.05 302.05,-35.29 304.5,-41.84"/>
</a>
</g>
<g id="a_edge9&#45;headlabel"><a xlink:href="dir_000015_000034.html" target="_top" xlink:title="1">
<text text-anchor="middle" x="302.14" y="-43.26" font-family="Helvetica,sans-Serif" font-size="10.00" fill="#63b8ff">1</text>
</a>
</g>
</g>
<!-- dir_aeca43db7a276eb6dbfba1f93dc4539c -->
<g id="node11" class="node">
<title>dir_aeca43db7a276eb6dbfba1f93dc4539c</title>
<g id="a_node11"><a xlink:href="dir_aeca43db7a276eb6dbfba1f93dc4539c.html" target="_top" xlink:title="Utils">
<polygon fill="#edf0f7" stroke="#7f7f7f" points="639.5,-35 600.5,-35 600.5,-16 639.5,-16 639.5,-35"/>
<text text-anchor="middle" x="620" y="-23" font-family="Helvetica,sans-Serif" font-size="10.00">Utils</text>
</a>
</g>
</g>
<!-- dir_a914fe635f43607d3ac935bbff17c46d&#45;&gt;dir_aeca43db7a276eb6dbfba1f93dc4539c -->
<g id="edge8" class="edge">
<title>dir_a914fe635f43607d3ac935bbff17c46d&#45;&gt;dir_aeca43db7a276eb6dbfba1f93dc4539c</title>
<g id="a_edge8"><a xlink:href="dir_000015_000039.html" target="_top">
<path fill="none" stroke="#63b8ff" d="M222.22,-70.86C228.21,-67.86 235.25,-64.8 242,-63 389.56,-23.72 436.66,-62.32 589.99,-34.97"/>
<polygon fill="#63b8ff" stroke="#63b8ff" points="591.05,-38.33 600.25,-33.07 589.78,-31.45 591.05,-38.33"/>
</a>
</g>
<g id="a_edge8&#45;headlabel"><a xlink:href="dir_000015_000039.html" target="_top" xlink:title="30">
<text text-anchor="middle" x="588.03" y="-39.28" font-family="Helvetica,sans-Serif" font-size="10.00" fill="#63b8ff">30</text>
</a>
</g>
</g>
<!-- dir_69cf206f122d9153ac8b30a0f4a917bf -->
<g id="node12" class="node">
<title>dir_69cf206f122d9153ac8b30a0f4a917bf</title>
<g id="a_node12"><a xlink:href="dir_69cf206f122d9153ac8b30a0f4a917bf.html" target="_top" xlink:title="DataFlow">
<polygon fill="#edf0f7" stroke="red" stroke-dasharray="5,2" points="582.5,-35 519.5,-35 519.5,-16 582.5,-16 582.5,-35"/>
<text text-anchor="middle" x="551" y="-23" font-family="Helvetica,sans-Serif" font-size="10.00">DataFlow</text>
</a>
</g>
</g>
<!-- dir_a914fe635f43607d3ac935bbff17c46d&#45;&gt;dir_69cf206f122d9153ac8b30a0f4a917bf -->
<g id="edge7" class="edge">
<title>dir_a914fe635f43607d3ac935bbff17c46d&#45;&gt;dir_69cf206f122d9153ac8b30a0f4a917bf</title>
<g id="a_edge7"><a xlink:href="dir_000015_000005.html" target="_top">
<path fill="none" stroke="#63b8ff" d="M222.25,-70.94C228.23,-67.95 235.27,-64.88 242,-63 354.61,-31.58 390.32,-52.52 508.97,-35.14"/>
<polygon fill="#63b8ff" stroke="#63b8ff" points="509.82,-38.55 519.18,-33.58 508.77,-31.63 509.82,-38.55"/>
</a>
</g>
<g id="a_edge7&#45;headlabel"><a xlink:href="dir_000015_000005.html" target="_top" xlink:title="48">
<text text-anchor="middle" x="506.7" y="-39.4" font-family="Helvetica,sans-Serif" font-size="10.00" fill="#63b8ff">48</text>
</a>
</g>
</g>
<!-- dir_15b1266ec3c6694d64b0cfc160192d3b -->
<g id="node13" class="node">
<title>dir_15b1266ec3c6694d64b0cfc160192d3b</title>
<g id="a_node13"><a xlink:href="dir_15b1266ec3c6694d64b0cfc160192d3b.html" target="_top" xlink:title="Domain">
<polygon fill="#edf0f7" stroke="#7f7f7f" points="501.5,-35 446.5,-35 446.5,-16 501.5,-16 501.5,-35"/>
<text text-anchor="middle" x="474" y="-23" font-family="Helvetica,sans-Serif" font-size="10.00">Domain</text>
</a>
</g>
</g>
<!-- dir_a914fe635f43607d3ac935bbff17c46d&#45;&gt;dir_15b1266ec3c6694d64b0cfc160192d3b -->
<g id="edge4" class="edge">
<title>dir_a914fe635f43607d3ac935bbff17c46d&#45;&gt;dir_15b1266ec3c6694d64b0cfc160192d3b</title>
<g id="a_edge4"><a xlink:href="dir_000015_000010.html" target="_top">
<path fill="none" stroke="#63b8ff" d="M222.63,-70.9C228.54,-67.98 235.43,-64.96 242,-63 324.41,-38.39 351.4,-51.34 436.25,-35.8"/>
<polygon fill="#63b8ff" stroke="#63b8ff" points="437.16,-39.19 446.32,-33.87 435.84,-32.31 437.16,-39.19"/>
</a>
</g>
<g id="a_edge4&#45;headlabel"><a xlink:href="dir_000015_000010.html" target="_top" xlink:title="9">
<text text-anchor="middle" x="434.16" y="-40.15" font-family="Helvetica,sans-Serif" font-size="10.00" fill="#63b8ff">9</text>
</a>
</g>
</g>
<!-- dir_0e28ca19d6cc28e1984b43a86f9232be -->
<g id="node9" class="node">
<title>dir_0e28ca19d6cc28e1984b43a86f9232be</title>
<g id="a_node9"><a xlink:href="dir_0e28ca19d6cc28e1984b43a86f9232be.html" target="_top" xlink:title="Mono">
<polygon fill="#a2b4d6" stroke="#404040" points="164,-90 120,-90 120,-71 164,-71 164,-90"/>
<text text-anchor="middle" x="142" y="-78" font-family="Helvetica,sans-Serif" font-size="10.00">Mono</text>
</a>
</g>
</g>
<!-- dir_0e28ca19d6cc28e1984b43a86f9232be&#45;&gt;dir_0133e64b3a4c854b47f86a7b8e0c9983 -->
<g id="edge14" class="edge">
<title>dir_0e28ca19d6cc28e1984b43a86f9232be&#45;&gt;dir_0133e64b3a4c854b47f86a7b8e0c9983</title>
<g id="a_edge14"><a xlink:href="dir_000018_000026.html" target="_top">
<path fill="none" stroke="#63b8ff" d="M125.93,-70.98C110.14,-62.61 85.78,-49.7 67.37,-39.95"/>
<polygon fill="#63b8ff" stroke="#63b8ff" points="68.83,-36.76 58.36,-35.17 65.56,-42.95 68.83,-36.76"/>
</a>
</g>
<g id="a_edge14&#45;headlabel"><a xlink:href="dir_000018_000026.html" target="_top" xlink:title="6">
<text text-anchor="middle" x="73.34" y="-33.44" font-family="Helvetica,sans-Serif" font-size="10.00" fill="#63b8ff">6</text>
</a>
</g>
</g>
<!-- dir_0e28ca19d6cc28e1984b43a86f9232be&#45;&gt;dir_0bc4dee926a629f715a9261d8d248ef6 -->
<g id="edge12" class="edge">
<title>dir_0e28ca19d6cc28e1984b43a86f9232be&#45;&gt;dir_0bc4dee926a629f715a9261d8d248ef6</title>
<g id="a_edge12"><a xlink:href="dir_000018_000004.html" target="_top">
<path fill="none" stroke="#63b8ff" d="M138.86,-70.75C136.32,-63.65 132.64,-53.4 129.47,-44.56"/>
<polygon fill="#63b8ff" stroke="#63b8ff" points="132.75,-43.32 126.08,-35.09 126.16,-45.68 132.75,-43.32"/>
</a>
</g>
<g id="a_edge12&#45;headlabel"><a xlink:href="dir_000018_000004.html" target="_top" xlink:title="7">
<text text-anchor="middle" x="136.63" y="-43.25" font-family="Helvetica,sans-Serif" font-size="10.00" fill="#63b8ff">7</text>
</a>
</g>
</g>
<!-- dir_0e28ca19d6cc28e1984b43a86f9232be&#45;&gt;dir_68aec2623aad94785c017c13c687e045 -->
<g id="edge15" class="edge">
<title>dir_0e28ca19d6cc28e1984b43a86f9232be&#45;&gt;dir_68aec2623aad94785c017c13c687e045</title>
<g id="a_edge15"><a xlink:href="dir_000018_000008.html" target="_top">
<path fill="none" stroke="#63b8ff" d="M150.59,-70.75C158.16,-63.03 169.38,-51.6 178.51,-42.28"/>
<polygon fill="#63b8ff" stroke="#63b8ff" points="181.07,-44.68 185.57,-35.09 176.07,-39.78 181.07,-44.68"/>
</a>
</g>
<g id="a_edge15&#45;headlabel"><a xlink:href="dir_000018_000008.html" target="_top" xlink:title="5">
<text text-anchor="middle" x="180.58" y="-46.73" font-family="Helvetica,sans-Serif" font-size="10.00" fill="#63b8ff">5</text>
</a>
</g>
</g>
<!-- dir_0e28ca19d6cc28e1984b43a86f9232be&#45;&gt;dir_189eb8c36ffce94640b9d816bc05823d -->
<g id="edge13" class="edge">
<title>dir_0e28ca19d6cc28e1984b43a86f9232be&#45;&gt;dir_189eb8c36ffce94640b9d816bc05823d</title>
<g id="a_edge13"><a xlink:href="dir_000018_000011.html" target="_top">
<path fill="none" stroke="#63b8ff" d="M157.66,-70.89C162.54,-68.28 167.96,-65.46 173,-63 190.16,-54.62 209.69,-45.9 225.38,-39.09"/>
<polygon fill="#63b8ff" stroke="#63b8ff" points="226.8,-42.28 234.6,-35.11 224.03,-35.86 226.8,-42.28"/>
</a>
</g>
<g id="a_edge13&#45;headlabel"><a xlink:href="dir_000018_000011.html" target="_top" xlink:title="6">
<text text-anchor="middle" x="224.63" y="-43.81" font-family="Helvetica,sans-Serif" font-size="10.00" fill="#63b8ff">6</text>
</a>
</g>
</g>
<!-- dir_0e28ca19d6cc28e1984b43a86f9232be&#45;&gt;dir_63e7bb0cb88dc7cebeab7c37a85fbe32 -->
<g id="edge17" class="edge">
<title>dir_0e28ca19d6cc28e1984b43a86f9232be&#45;&gt;dir_63e7bb0cb88dc7cebeab7c37a85fbe32</title>
<g id="a_edge17"><a xlink:href="dir_000018_000034.html" target="_top">
<path fill="none" stroke="#63b8ff" d="M156.14,-70.95C161.3,-68.1 167.28,-65.12 173,-63 183.97,-58.94 245.92,-45.48 290.19,-36.1"/>
<polygon fill="#63b8ff" stroke="#63b8ff" points="291.12,-39.48 300.18,-33.99 289.68,-32.63 291.12,-39.48"/>
</a>
</g>
<g id="a_edge17&#45;headlabel"><a xlink:href="dir_000018_000034.html" target="_top" xlink:title="1">
<text text-anchor="middle" x="288.19" y="-40.5" font-family="Helvetica,sans-Serif" font-size="10.00" fill="#63b8ff">1</text>
</a>
</g>
</g>
<!-- dir_0e28ca19d6cc28e1984b43a86f9232be&#45;&gt;dir_aeca43db7a276eb6dbfba1f93dc4539c -->
<g id="edge16" class="edge">
<title>dir_0e28ca19d6cc28e1984b43a86f9232be&#45;&gt;dir_aeca43db7a276eb6dbfba1f93dc4539c</title>
<g id="a_edge16"><a xlink:href="dir_000018_000039.html" target="_top">
<path fill="none" stroke="#63b8ff" d="M155.06,-70.97C160.4,-67.91 166.79,-64.77 173,-63 349.32,-12.69 406.4,-66.59 590.26,-34.89"/>
<polygon fill="#63b8ff" stroke="#63b8ff" points="591.02,-38.31 600.25,-33.1 589.79,-31.42 591.02,-38.31"/>
</a>
</g>
<g id="a_edge16&#45;headlabel"><a xlink:href="dir_000018_000039.html" target="_top" xlink:title="5">
<text text-anchor="middle" x="587.98" y="-39.23" font-family="Helvetica,sans-Serif" font-size="10.00" fill="#63b8ff">5</text>
</a>
</g>
</g>
<!-- dir_0e28ca19d6cc28e1984b43a86f9232be&#45;&gt;dir_69cf206f122d9153ac8b30a0f4a917bf -->
<g id="edge10" class="edge">
<title>dir_0e28ca19d6cc28e1984b43a86f9232be&#45;&gt;dir_69cf206f122d9153ac8b30a0f4a917bf</title>
<g id="a_edge10"><a xlink:href="dir_000018_000005.html" target="_top">
<path fill="none" stroke="#63b8ff" d="M155.37,-70.85C160.66,-67.85 166.92,-64.79 173,-63 314.51,-21.4 359.92,-55.4 509.2,-35.06"/>
<polygon fill="#63b8ff" stroke="#63b8ff" points="509.78,-38.51 519.19,-33.64 508.8,-31.58 509.78,-38.51"/>
</a>
</g>
<g id="a_edge10&#45;headlabel"><a xlink:href="dir_000018_000005.html" target="_top" xlink:title="6">
<text text-anchor="middle" x="506.62" y="-39.33" font-family="Helvetica,sans-Serif" font-size="10.00" fill="#63b8ff">6</text>
</a>
</g>
</g>
<!-- dir_0e28ca19d6cc28e1984b43a86f9232be&#45;&gt;dir_15b1266ec3c6694d64b0cfc160192d3b -->
<g id="edge11" class="edge">
<title>dir_0e28ca19d6cc28e1984b43a86f9232be&#45;&gt;dir_15b1266ec3c6694d64b0cfc160192d3b</title>
<g id="a_edge11"><a xlink:href="dir_000018_000010.html" target="_top">
<path fill="none" stroke="#63b8ff" d="M155.4,-70.92C160.68,-67.92 166.94,-64.85 173,-63 284.4,-28.95 321.13,-54.72 436.42,-35.66"/>
<polygon fill="#63b8ff" stroke="#63b8ff" points="437.08,-39.1 446.34,-33.94 435.89,-32.2 437.08,-39.1"/>
</a>
</g>
<g id="a_edge11&#45;headlabel"><a xlink:href="dir_000018_000010.html" target="_top" xlink:title="2">
<text text-anchor="middle" x="434.02" y="-40.01" font-family="Helvetica,sans-Serif" font-size="10.00" fill="#63b8ff">2</text>
</a>
</g>
</g>
<!-- dir_dceb9711b5b3ca19d081938874f6c202 -->
<g id="node10" class="node">
<title>dir_dceb9711b5b3ca19d081938874f6c202</title>
<g id="a_node10"><a xlink:href="dir_dceb9711b5b3ca19d081938874f6c202.html" target="_top" xlink:title="PathSensitivity">
<polygon fill="#a2b4d6" stroke="#404040" points="339.5,-90 250.5,-90 250.5,-71 339.5,-71 339.5,-90"/>
<text text-anchor="middle" x="295" y="-78" font-family="Helvetica,sans-Serif" font-size="10.00">PathSensitivity</text>
</a>
</g>
</g>
<!-- dir_dceb9711b5b3ca19d081938874f6c202&#45;&gt;dir_079f3dfffeb9e770010097b0dd1334eb -->
<g id="edge18" class="edge">
<title>dir_dceb9711b5b3ca19d081938874f6c202&#45;&gt;dir_079f3dfffeb9e770010097b0dd1334eb</title>
<g id="a_edge18"><a xlink:href="dir_000021_000038.html" target="_top">
<path fill="none" stroke="#63b8ff" d="M313.32,-70.98C331.66,-62.46 360.11,-49.23 381.23,-39.41"/>
<polygon fill="#63b8ff" stroke="#63b8ff" points="382.76,-42.56 390.35,-35.17 379.81,-36.21 382.76,-42.56"/>
</a>
</g>
<g id="a_edge18&#45;headlabel"><a xlink:href="dir_000021_000038.html" target="_top" xlink:title="2">
<text text-anchor="middle" x="380.7" y="-44.15" font-family="Helvetica,sans-Serif" font-size="10.00" fill="#63b8ff">2</text>
</a>
</g>
</g>
<!-- dir_dceb9711b5b3ca19d081938874f6c202&#45;&gt;dir_aeca43db7a276eb6dbfba1f93dc4539c -->
<g id="edge20" class="edge">
<title>dir_dceb9711b5b3ca19d081938874f6c202&#45;&gt;dir_aeca43db7a276eb6dbfba1f93dc4539c</title>
<g id="a_edge20"><a xlink:href="dir_000021_000039.html" target="_top">
<path fill="none" stroke="#63b8ff" d="M319.49,-70.99C328.65,-68.08 339.21,-65.04 349,-63 452.31,-41.45 483.72,-56.18 590.36,-35"/>
<polygon fill="#63b8ff" stroke="#63b8ff" points="591.13,-38.42 600.23,-32.98 589.73,-31.56 591.13,-38.42"/>
</a>
</g>
<g id="a_edge20&#45;headlabel"><a xlink:href="dir_000021_000039.html" target="_top" xlink:title="4">
<text text-anchor="middle" x="588.18" y="-39.42" font-family="Helvetica,sans-Serif" font-size="10.00" fill="#63b8ff">4</text>
</a>
</g>
</g>
<!-- dir_dceb9711b5b3ca19d081938874f6c202&#45;&gt;dir_69cf206f122d9153ac8b30a0f4a917bf -->
<g id="edge19" class="edge">
<title>dir_dceb9711b5b3ca19d081938874f6c202&#45;&gt;dir_69cf206f122d9153ac8b30a0f4a917bf</title>
<g id="a_edge19"><a xlink:href="dir_000021_000005.html" target="_top">
<path fill="none" stroke="#63b8ff" d="M320.64,-70.95C329.55,-68.17 339.65,-65.23 349,-63 417.02,-46.8 437.51,-48.62 509.17,-35.28"/>
<polygon fill="#63b8ff" stroke="#63b8ff" points="509.97,-38.69 519.15,-33.38 508.67,-31.81 509.97,-38.69"/>
</a>
</g>
<g id="a_edge19&#45;headlabel"><a xlink:href="dir_000021_000005.html" target="_top" xlink:title="4">
<text text-anchor="middle" x="506.97" y="-39.65" font-family="Helvetica,sans-Serif" font-size="10.00" fill="#63b8ff">4</text>
</a>
</g>
</g>
</g>
</svg>
