<?xml version="1.0" encoding="UTF-8" standalone="no"?>
<!DOCTYPE svg PUBLIC "-//W3C//DTD SVG 1.1//EN"
 "http://www.w3.org/Graphics/SVG/1.1/DTD/svg11.dtd">
<!-- Generated by graphviz version 2.43.0 (0)
 -->
<!-- Title: include/phasar/PhasarLLVM/DataFlow/IfdsIde Pages: 1 -->
<svg width="631pt" height="125pt"
 viewBox="0.00 0.00 631.00 125.00" xmlns="http://www.w3.org/2000/svg" xmlns:xlink="http://www.w3.org/1999/xlink">
<g id="graph0" class="graph" transform="scale(1 1) rotate(0) translate(4 121)">
<title>include/phasar/PhasarLLVM/DataFlow/IfdsIde</title>
<g id="clust1" class="cluster">
<title>clusterdir_b11f051d1364f2a30973d8d796d4babf</title>
<g id="a_clust1"><a xlink:href="dir_b11f051d1364f2a30973d8d796d4babf.html" target="_top" xlink:title="DataFlow">
<polygon fill="#edf0f7" stroke="#7f7f7f" stroke-dasharray="5,2" points="186.5,-39 186.5,-109 348.5,-109 348.5,-39 186.5,-39"/>
<text text-anchor="middle" x="267.5" y="-97" font-family="Helvetica,sans-Serif" font-size="10.00">DataFlow</text>
</a>
</g>
</g>
<g id="clust2" class="cluster">
<title>clusterdir_a914fe635f43607d3ac935bbff17c46d</title>
<g id="a_clust2"><a xlink:href="dir_a914fe635f43607d3ac935bbff17c46d.html" target="_top">
<polygon fill="#edf0f7" stroke="#404040" stroke-width="2" points="194.5,-47 194.5,-82 340.5,-82 340.5,-47 194.5,-47"/>
</a>
</g>
</g>
<!-- dir_a914fe635f43607d3ac935bbff17c46d -->
<g id="node1" class="node">
<title>dir_a914fe635f43607d3ac935bbff17c46d</title>
<text text-anchor="middle" x="227.5" y="-62" font-family="Helvetica,sans-Serif" font-size="10.00">IfdsIde</text>
</g>
<!-- dir_0133e64b3a4c854b47f86a7b8e0c9983 -->
<g id="node3" class="node">
<title>dir_0133e64b3a4c854b47f86a7b8e0c9983</title>
<g id="a_node3"><a xlink:href="dir_0133e64b3a4c854b47f86a7b8e0c9983.html" target="_top" xlink:title="Pointer">
<polygon fill="#edf0f7" stroke="red" stroke-dasharray="5,2" points="189,-19 138,-19 138,0 189,0 189,-19"/>
<text text-anchor="middle" x="163.5" y="-7" font-family="Helvetica,sans-Serif" font-size="10.00">Pointer</text>
</a>
</g>
</g>
<!-- dir_a914fe635f43607d3ac935bbff17c46d&#45;&gt;dir_0133e64b3a4c854b47f86a7b8e0c9983 -->
<g id="edge1" class="edge">
<title>dir_a914fe635f43607d3ac935bbff17c46d&#45;&gt;dir_0133e64b3a4c854b47f86a7b8e0c9983</title>
<g id="a_edge1"><a xlink:href="dir_000015_000026.html" target="_top">
<path fill="none" stroke="#63b8ff" d="M217.22,-54.98C207.66,-47.07 193.22,-35.11 181.72,-25.58"/>
<polygon fill="#63b8ff" stroke="#63b8ff" points="183.9,-22.85 173.97,-19.17 179.44,-28.24 183.9,-22.85"/>
</a>
</g>
<g id="a_edge1&#45;headlabel"><a xlink:href="dir_000015_000026.html" target="_top" xlink:title="14">
<text text-anchor="middle" x="188.48" y="-20.46" font-family="Helvetica,sans-Serif" font-size="10.00" fill="#63b8ff">14</text>
</a>
</g>
</g>
<!-- dir_079f3dfffeb9e770010097b0dd1334eb -->
<g id="node4" class="node">
<title>dir_079f3dfffeb9e770010097b0dd1334eb</title>
<g id="a_node4"><a xlink:href="dir_079f3dfffeb9e770010097b0dd1334eb.html" target="_top" xlink:title="Utils">
<polygon fill="#edf0f7" stroke="#7f7f7f" points="246,-19 207,-19 207,0 246,0 246,-19"/>
<text text-anchor="middle" x="226.5" y="-7" font-family="Helvetica,sans-Serif" font-size="10.00">Utils</text>
</a>
</g>
</g>
<!-- dir_a914fe635f43607d3ac935bbff17c46d&#45;&gt;dir_079f3dfffeb9e770010097b0dd1334eb -->
<g id="edge2" class="edge">
<title>dir_a914fe635f43607d3ac935bbff17c46d&#45;&gt;dir_079f3dfffeb9e770010097b0dd1334eb</title>
<g id="a_edge2"><a xlink:href="dir_000015_000038.html" target="_top">
<path fill="none" stroke="#63b8ff" d="M227.33,-54.75C227.2,-47.8 227.02,-37.85 226.85,-29.13"/>
<polygon fill="#63b8ff" stroke="#63b8ff" points="230.35,-29.02 226.66,-19.09 223.35,-29.15 230.35,-29.02"/>
</a>
</g>
<g id="a_edge2&#45;headlabel"><a xlink:href="dir_000015_000038.html" target="_top" xlink:title="9">
<text text-anchor="middle" x="233.26" y="-30.06" font-family="Helvetica,sans-Serif" font-size="10.00" fill="#63b8ff">9</text>
</a>
</g>
</g>
<!-- dir_0bc4dee926a629f715a9261d8d248ef6 -->
<g id="node5" class="node">
<title>dir_0bc4dee926a629f715a9261d8d248ef6</title>
<g id="a_node5"><a xlink:href="dir_0bc4dee926a629f715a9261d8d248ef6.html" target="_top" xlink:title="ControlFlow">
<polygon fill="#edf0f7" stroke="red" stroke-dasharray="5,2" points="339,-19 264,-19 264,0 339,0 339,-19"/>
<text text-anchor="middle" x="301.5" y="-7" font-family="Helvetica,sans-Serif" font-size="10.00">ControlFlow</text>
</a>
</g>
</g>
<!-- dir_a914fe635f43607d3ac935bbff17c46d&#45;&gt;dir_0bc4dee926a629f715a9261d8d248ef6 -->
<g id="edge3" class="edge">
<title>dir_a914fe635f43607d3ac935bbff17c46d&#45;&gt;dir_0bc4dee926a629f715a9261d8d248ef6</title>
<g id="a_edge3"><a xlink:href="dir_000015_000004.html" target="_top">
<path fill="none" stroke="#63b8ff" d="M239.45,-54.87C245.96,-50.17 254.17,-44.25 261.5,-39 267.74,-34.53 274.54,-29.68 280.73,-25.27"/>
<polygon fill="#63b8ff" stroke="#63b8ff" points="283.12,-27.86 289.23,-19.21 279.06,-22.16 283.12,-27.86"/>
</a>
</g>
<g id="a_edge3&#45;headlabel"><a xlink:href="dir_000015_000004.html" target="_top" xlink:title="22">
<text text-anchor="middle" x="281.83" y="-29.76" font-family="Helvetica,sans-Serif" font-size="10.00" fill="#63b8ff">22</text>
</a>
</g>
</g>
<!-- dir_15b1266ec3c6694d64b0cfc160192d3b -->
<g id="node6" class="node">
<title>dir_15b1266ec3c6694d64b0cfc160192d3b</title>
<g id="a_node6"><a xlink:href="dir_15b1266ec3c6694d64b0cfc160192d3b.html" target="_top" xlink:title="Domain">
<polygon fill="#edf0f7" stroke="#7f7f7f" points="412,-19 357,-19 357,0 412,0 412,-19"/>
<text text-anchor="middle" x="384.5" y="-7" font-family="Helvetica,sans-Serif" font-size="10.00">Domain</text>
</a>
</g>
</g>
<!-- dir_a914fe635f43607d3ac935bbff17c46d&#45;&gt;dir_15b1266ec3c6694d64b0cfc160192d3b -->
<g id="edge4" class="edge">
<title>dir_a914fe635f43607d3ac935bbff17c46d&#45;&gt;dir_15b1266ec3c6694d64b0cfc160192d3b</title>
<g id="a_edge4"><a xlink:href="dir_000015_000010.html" target="_top">
<path fill="none" stroke="#63b8ff" d="M237.26,-54.86C243.72,-49.55 252.62,-43.03 261.5,-39 262,-38.77 311,-27.45 346.99,-19.15"/>
<polygon fill="#63b8ff" stroke="#63b8ff" points="347.79,-22.55 356.75,-16.9 346.22,-15.73 347.79,-22.55"/>
</a>
</g>
<g id="a_edge4&#45;headlabel"><a xlink:href="dir_000015_000010.html" target="_top" xlink:title="9">
<text text-anchor="middle" x="344.92" y="-23.63" font-family="Helvetica,sans-Serif" font-size="10.00" fill="#63b8ff">9</text>
</a>
</g>
</g>
<!-- dir_189eb8c36ffce94640b9d816bc05823d -->
<g id="node7" class="node">
<title>dir_189eb8c36ffce94640b9d816bc05823d</title>
<g id="a_node7"><a xlink:href="dir_189eb8c36ffce94640b9d816bc05823d.html" target="_top" xlink:title="Domain">
<polygon fill="#edf0f7" stroke="#7f7f7f" points="485,-19 430,-19 430,0 485,0 485,-19"/>
<text text-anchor="middle" x="457.5" y="-7" font-family="Helvetica,sans-Serif" font-size="10.00">Domain</text>
</a>
</g>
</g>
<!-- dir_a914fe635f43607d3ac935bbff17c46d&#45;&gt;dir_189eb8c36ffce94640b9d816bc05823d -->
<g id="edge5" class="edge">
<title>dir_a914fe635f43607d3ac935bbff17c46d&#45;&gt;dir_189eb8c36ffce94640b9d816bc05823d</title>
<g id="a_edge5"><a xlink:href="dir_000015_000011.html" target="_top">
<path fill="none" stroke="#63b8ff" d="M236.84,-54.78C243.27,-49.31 252.29,-42.62 261.5,-39 325.2,-13.97 348.83,-30.09 419.38,-19.12"/>
<polygon fill="#63b8ff" stroke="#63b8ff" points="420.38,-22.5 429.65,-17.39 419.21,-15.6 420.38,-22.5"/>
</a>
</g>
<g id="a_edge5&#45;headlabel"><a xlink:href="dir_000015_000011.html" target="_top" xlink:title="19">
<text text-anchor="middle" x="417.3" y="-23.4" font-family="Helvetica,sans-Serif" font-size="10.00" fill="#63b8ff">19</text>
</a>
</g>
</g>
<!-- dir_68aec2623aad94785c017c13c687e045 -->
<g id="node8" class="node">
<title>dir_68aec2623aad94785c017c13c687e045</title>
<g id="a_node8"><a xlink:href="dir_68aec2623aad94785c017c13c687e045.html" target="_top" xlink:title="DB">
<polygon fill="#edf0f7" stroke="#7f7f7f" points="534,-19 503,-19 503,0 534,0 534,-19"/>
<text text-anchor="middle" x="518.5" y="-7" font-family="Helvetica,sans-Serif" font-size="10.00">DB</text>
</a>
</g>
</g>
<!-- dir_a914fe635f43607d3ac935bbff17c46d&#45;&gt;dir_68aec2623aad94785c017c13c687e045 -->
<g id="edge6" class="edge">
<title>dir_a914fe635f43607d3ac935bbff17c46d&#45;&gt;dir_68aec2623aad94785c017c13c687e045</title>
<g id="a_edge6"><a xlink:href="dir_000015_000008.html" target="_top">
<path fill="none" stroke="#63b8ff" d="M236.51,-54.91C242.94,-49.34 252.09,-42.49 261.5,-39 355.91,-4 390.73,-38.66 492.82,-18.76"/>
<polygon fill="#63b8ff" stroke="#63b8ff" points="493.84,-22.13 502.92,-16.66 492.41,-15.27 493.84,-22.13"/>
</a>
</g>
<g id="a_edge6&#45;headlabel"><a xlink:href="dir_000015_000008.html" target="_top" xlink:title="21">
<text text-anchor="middle" x="490.9" y="-23.14" font-family="Helvetica,sans-Serif" font-size="10.00" fill="#63b8ff">21</text>
</a>
</g>
</g>
<!-- dir_69cf206f122d9153ac8b30a0f4a917bf -->
<g id="node9" class="node">
<title>dir_69cf206f122d9153ac8b30a0f4a917bf</title>
<g id="a_node9"><a xlink:href="dir_69cf206f122d9153ac8b30a0f4a917bf.html" target="_top" xlink:title="DataFlow">
<polygon fill="#edf0f7" stroke="red" stroke-dasharray="5,2" points="63,-19 0,-19 0,0 63,0 63,-19"/>
<text text-anchor="middle" x="31.5" y="-7" font-family="Helvetica,sans-Serif" font-size="10.00">DataFlow</text>
</a>
</g>
</g>
<!-- dir_a914fe635f43607d3ac935bbff17c46d&#45;&gt;dir_69cf206f122d9153ac8b30a0f4a917bf -->
<g id="edge7" class="edge">
<title>dir_a914fe635f43607d3ac935bbff17c46d&#45;&gt;dir_69cf206f122d9153ac8b30a0f4a917bf</title>
<g id="a_edge7"><a xlink:href="dir_000015_000005.html" target="_top">
<path fill="none" stroke="#63b8ff" d="M202.28,-56.68C169.56,-47.83 112.05,-32.28 72.89,-21.69"/>
<polygon fill="#63b8ff" stroke="#63b8ff" points="73.67,-18.28 63.11,-19.05 71.85,-25.04 73.67,-18.28"/>
</a>
</g>
<g id="a_edge7&#45;headlabel"><a xlink:href="dir_000015_000005.html" target="_top" xlink:title="48">
<text text-anchor="middle" x="77.88" y="-13.98" font-family="Helvetica,sans-Serif" font-size="10.00" fill="#63b8ff">48</text>
</a>
</g>
</g>
<!-- dir_aeca43db7a276eb6dbfba1f93dc4539c -->
<g id="node10" class="node">
<title>dir_aeca43db7a276eb6dbfba1f93dc4539c</title>
<g id="a_node10"><a xlink:href="dir_aeca43db7a276eb6dbfba1f93dc4539c.html" target="_top" xlink:title="Utils">
<polygon fill="#edf0f7" stroke="#7f7f7f" points="120,-19 81,-19 81,0 120,0 120,-19"/>
<text text-anchor="middle" x="100.5" y="-7" font-family="Helvetica,sans-Serif" font-size="10.00">Utils</text>
</a>
</g>
</g>
<!-- dir_a914fe635f43607d3ac935bbff17c46d&#45;&gt;dir_aeca43db7a276eb6dbfba1f93dc4539c -->
<g id="edge8" class="edge">
<title>dir_a914fe635f43607d3ac935bbff17c46d&#45;&gt;dir_aeca43db7a276eb6dbfba1f93dc4539c</title>
<g id="a_edge8"><a xlink:href="dir_000015_000039.html" target="_top">
<path fill="none" stroke="#63b8ff" d="M207.1,-54.98C186.11,-46.23 153.24,-32.51 129.55,-22.62"/>
<polygon fill="#63b8ff" stroke="#63b8ff" points="130.6,-19.27 120.02,-18.65 127.9,-25.73 130.6,-19.27"/>
</a>
</g>
<g id="a_edge8&#45;headlabel"><a xlink:href="dir_000015_000039.html" target="_top" xlink:title="30">
<text text-anchor="middle" x="135.01" y="-15.53" font-family="Helvetica,sans-Serif" font-size="10.00" fill="#63b8ff">30</text>
</a>
</g>
</g>
<!-- dir_8f2cc0dbdb5107552a837377e8f5f9e3 -->
<g id="node2" class="node">
<title>dir_8f2cc0dbdb5107552a837377e8f5f9e3</title>
<g id="a_node2"><a xlink:href="dir_8f2cc0dbdb5107552a837377e8f5f9e3.html" target="_top" xlink:title="Problems">
<polygon fill="#a2b4d6" stroke="#404040" points="332.5,-74 270.5,-74 270.5,-55 332.5,-55 332.5,-74"/>
<text text-anchor="middle" x="301.5" y="-62" font-family="Helvetica,sans-Serif" font-size="10.00">Problems</text>
</a>
</g>
</g>
<!-- dir_8f2cc0dbdb5107552a837377e8f5f9e3&#45;&gt;dir_0133e64b3a4c854b47f86a7b8e0c9983 -->
<g id="edge9" class="edge">
<title>dir_8f2cc0dbdb5107552a837377e8f5f9e3&#45;&gt;dir_0133e64b3a4c854b47f86a7b8e0c9983</title>
<g id="a_edge9"><a xlink:href="dir_000028_000026.html" target="_top">
<path fill="none" stroke="#63b8ff" d="M289.36,-54.88C281.66,-49.72 271.33,-43.35 261.5,-39 250.21,-34.01 222.16,-26 198.95,-19.75"/>
<polygon fill="#63b8ff" stroke="#63b8ff" points="199.6,-16.3 189.04,-17.1 197.8,-23.06 199.6,-16.3"/>
</a>
</g>
<g id="a_edge9&#45;headlabel"><a xlink:href="dir_000028_000026.html" target="_top" xlink:title="8">
<text text-anchor="middle" x="203.81" y="-11.98" font-family="Helvetica,sans-Serif" font-size="10.00" fill="#63b8ff">8</text>
</a>
</g>
</g>
<!-- dir_8f2cc0dbdb5107552a837377e8f5f9e3&#45;&gt;dir_079f3dfffeb9e770010097b0dd1334eb -->
<g id="edge10" class="edge">
<title>dir_8f2cc0dbdb5107552a837377e8f5f9e3&#45;&gt;dir_079f3dfffeb9e770010097b0dd1334eb</title>
<g id="a_edge10"><a xlink:href="dir_000028_000038.html" target="_top">
<path fill="none" stroke="#63b8ff" d="M289.45,-54.98C278.04,-46.92 260.67,-34.65 247.07,-25.03"/>
<polygon fill="#63b8ff" stroke="#63b8ff" points="248.96,-22.08 238.77,-19.17 244.92,-27.8 248.96,-22.08"/>
</a>
</g>
<g id="a_edge10&#45;headlabel"><a xlink:href="dir_000028_000038.html" target="_top" xlink:title="7">
<text text-anchor="middle" x="253.53" y="-19.34" font-family="Helvetica,sans-Serif" font-size="10.00" fill="#63b8ff">7</text>
</a>
</g>
</g>
<!-- dir_8f2cc0dbdb5107552a837377e8f5f9e3&#45;&gt;dir_0bc4dee926a629f715a9261d8d248ef6 -->
<g id="edge11" class="edge">
<title>dir_8f2cc0dbdb5107552a837377e8f5f9e3&#45;&gt;dir_0bc4dee926a629f715a9261d8d248ef6</title>
<g id="a_edge11"><a xlink:href="dir_000028_000004.html" target="_top">
<path fill="none" stroke="#63b8ff" d="M301.5,-54.75C301.5,-47.8 301.5,-37.85 301.5,-29.13"/>
<polygon fill="#63b8ff" stroke="#63b8ff" points="305,-29.09 301.5,-19.09 298,-29.09 305,-29.09"/>
</a>
</g>
<g id="a_edge11&#45;headlabel"><a xlink:href="dir_000028_000004.html" target="_top" xlink:title="18">
<text text-anchor="middle" x="307.84" y="-30.18" font-family="Helvetica,sans-Serif" font-size="10.00" fill="#63b8ff">18</text>
</a>
</g>
</g>
<!-- dir_8f2cc0dbdb5107552a837377e8f5f9e3&#45;&gt;dir_15b1266ec3c6694d64b0cfc160192d3b -->
<g id="edge12" class="edge">
<title>dir_8f2cc0dbdb5107552a837377e8f5f9e3&#45;&gt;dir_15b1266ec3c6694d64b0cfc160192d3b</title>
<g id="a_edge12"><a xlink:href="dir_000028_000010.html" target="_top">
<path fill="none" stroke="#63b8ff" d="M314.84,-54.98C327.59,-46.84 347.05,-34.41 362.17,-24.76"/>
<polygon fill="#63b8ff" stroke="#63b8ff" points="364.38,-27.5 370.92,-19.17 360.61,-21.6 364.38,-27.5"/>
</a>
</g>
<g id="a_edge12&#45;headlabel"><a xlink:href="dir_000028_000010.html" target="_top" xlink:title="7">
<text text-anchor="middle" x="362.88" y="-29.33" font-family="Helvetica,sans-Serif" font-size="10.00" fill="#63b8ff">7</text>
</a>
</g>
</g>
<!-- dir_8f2cc0dbdb5107552a837377e8f5f9e3&#45;&gt;dir_189eb8c36ffce94640b9d816bc05823d -->
<g id="edge13" class="edge">
<title>dir_8f2cc0dbdb5107552a837377e8f5f9e3&#45;&gt;dir_189eb8c36ffce94640b9d816bc05823d</title>
<g id="a_edge13"><a xlink:href="dir_000028_000011.html" target="_top">
<path fill="none" stroke="#63b8ff" d="M326.56,-54.98C352.53,-46.16 393.31,-32.31 422.46,-22.41"/>
<polygon fill="#63b8ff" stroke="#63b8ff" points="423.9,-25.61 432.24,-19.08 421.65,-18.99 423.9,-25.61"/>
</a>
</g>
<g id="a_edge13&#45;headlabel"><a xlink:href="dir_000028_000011.html" target="_top" xlink:title="17">
<text text-anchor="middle" x="421.41" y="-26.96" font-family="Helvetica,sans-Serif" font-size="10.00" fill="#63b8ff">17</text>
</a>
</g>
</g>
<!-- dir_8f2cc0dbdb5107552a837377e8f5f9e3&#45;&gt;dir_68aec2623aad94785c017c13c687e045 -->
<g id="edge15" class="edge">
<title>dir_8f2cc0dbdb5107552a837377e8f5f9e3&#45;&gt;dir_68aec2623aad94785c017c13c687e045</title>
<g id="a_edge15"><a xlink:href="dir_000028_000008.html" target="_top">
<path fill="none" stroke="#63b8ff" d="M332.53,-57.48C368.95,-50.17 431.3,-36.89 492.95,-19.21"/>
<polygon fill="#63b8ff" stroke="#63b8ff" points="494.21,-22.49 502.83,-16.34 492.25,-15.77 494.21,-22.49"/>
</a>
</g>
<g id="a_edge15&#45;headlabel"><a xlink:href="dir_000028_000008.html" target="_top" xlink:title="16">
<text text-anchor="middle" x="491.55" y="-23.72" font-family="Helvetica,sans-Serif" font-size="10.00" fill="#63b8ff">16</text>
</a>
</g>
</g>
<!-- dir_8f2cc0dbdb5107552a837377e8f5f9e3&#45;&gt;dir_69cf206f122d9153ac8b30a0f4a917bf -->
<g id="edge16" class="edge">
<title>dir_8f2cc0dbdb5107552a837377e8f5f9e3&#45;&gt;dir_69cf206f122d9153ac8b30a0f4a917bf</title>
<g id="a_edge16"><a xlink:href="dir_000028_000005.html" target="_top">
<path fill="none" stroke="#63b8ff" d="M290.62,-54.98C282.93,-49.45 272.14,-42.61 261.5,-39 184.08,-12.72 157.35,-30.83 73.3,-19.07"/>
<polygon fill="#63b8ff" stroke="#63b8ff" points="73.73,-15.6 63.32,-17.58 72.69,-22.52 73.73,-15.6"/>
</a>
</g>
<g id="a_edge16&#45;headlabel"><a xlink:href="dir_000028_000005.html" target="_top" xlink:title="41">
<text text-anchor="middle" x="77.71" y="-10.82" font-family="Helvetica,sans-Serif" font-size="10.00" fill="#63b8ff">41</text>
</a>
</g>
</g>
<!-- dir_8f2cc0dbdb5107552a837377e8f5f9e3&#45;&gt;dir_aeca43db7a276eb6dbfba1f93dc4539c -->
<g id="edge17" class="edge">
<title>dir_8f2cc0dbdb5107552a837377e8f5f9e3&#45;&gt;dir_aeca43db7a276eb6dbfba1f93dc4539c</title>
<g id="a_edge17"><a xlink:href="dir_000028_000039.html" target="_top">
<path fill="none" stroke="#63b8ff" d="M290.23,-54.9C282.54,-49.47 271.91,-42.79 261.5,-39 208.3,-19.62 188.87,-30.82 130.43,-19.08"/>
<polygon fill="#63b8ff" stroke="#63b8ff" points="130.8,-15.58 120.29,-16.9 129.33,-22.42 130.8,-15.58"/>
</a>
</g>
<g id="a_edge17&#45;headlabel"><a xlink:href="dir_000028_000039.html" target="_top" xlink:title="19">
<text text-anchor="middle" x="134.91" y="-11.06" font-family="Helvetica,sans-Serif" font-size="10.00" fill="#63b8ff">19</text>
</a>
</g>
</g>
<!-- dir_63e7bb0cb88dc7cebeab7c37a85fbe32 -->
<g id="node11" class="node">
<title>dir_63e7bb0cb88dc7cebeab7c37a85fbe32</title>
<g id="a_node11"><a xlink:href="dir_63e7bb0cb88dc7cebeab7c37a85fbe32.html" target="_top" xlink:title="TaintConfig">
<polygon fill="#edf0f7" stroke="#7f7f7f" points="623,-19 552,-19 552,0 623,0 623,-19"/>
<text text-anchor="middle" x="587.5" y="-7" font-family="Helvetica,sans-Serif" font-size="10.00">TaintConfig</text>
</a>
</g>
</g>
<!-- dir_8f2cc0dbdb5107552a837377e8f5f9e3&#45;&gt;dir_63e7bb0cb88dc7cebeab7c37a85fbe32 -->
<g id="edge14" class="edge">
<title>dir_8f2cc0dbdb5107552a837377e8f5f9e3&#45;&gt;dir_63e7bb0cb88dc7cebeab7c37a85fbe32</title>
<g id="a_edge14"><a xlink:href="dir_000028_000034.html" target="_top">
<path fill="none" stroke="#63b8ff" d="M332.84,-57.83C377.19,-49.79 461.05,-34.5 542.1,-19.25"/>
<polygon fill="#63b8ff" stroke="#63b8ff" points="542.78,-22.68 551.96,-17.39 541.49,-15.81 542.78,-22.68"/>
</a>
</g>
<g id="a_edge14&#45;headlabel"><a xlink:href="dir_000028_000034.html" target="_top" xlink:title="1">
<text text-anchor="middle" x="539.78" y="-23.64" font-family="Helvetica,sans-Serif" font-size="10.00" fill="#63b8ff">1</text>
</a>
</g>
</g>
</g>
</svg>
