<?xml version="1.0" encoding="UTF-8" standalone="no"?>
<!DOCTYPE svg PUBLIC "-//W3C//DTD SVG 1.1//EN"
 "http://www.w3.org/Graphics/SVG/1.1/DTD/svg11.dtd">
<!-- Generated by graphviz version 2.43.0 (0)
 -->
<!-- Title: include/phasar/PhasarLLVM Pages: 1 -->
<svg width="750pt" height="306pt"
 viewBox="0.00 0.00 750.00 306.00" xmlns="http://www.w3.org/2000/svg" xmlns:xlink="http://www.w3.org/1999/xlink">
<g id="graph0" class="graph" transform="scale(1 1) rotate(0) translate(4 302)">
<title>include/phasar/PhasarLLVM</title>
<g id="clust1" class="cluster">
<title>clusterdir_05d093d0ed3722b9a30705a9449fa665</title>
<g id="a_clust1"><a xlink:href="dir_05d093d0ed3722b9a30705a9449fa665.html" target="_top" xlink:title="phasar">
<polygon fill="#edf0f7" stroke="#7f7f7f" stroke-dasharray="5,2" points="8,-8 8,-290 734,-290 734,-8 8,-8"/>
<text text-anchor="middle" x="371" y="-278" font-family="Helvetica,sans-Serif" font-size="10.00">phasar</text>
</a>
</g>
</g>
<g id="clust2" class="cluster">
<title>clusterdir_6556945d274d6e1e874171d9d575b3f4</title>
<g id="a_clust2"><a xlink:href="dir_6556945d274d6e1e874171d9d575b3f4.html" target="_top">
<polygon fill="#edf0f7" stroke="#404040" stroke-width="2" points="190,-63 190,-263 612,-263 612,-63 190,-63"/>
</a>
</g>
</g>
<!-- dir_15b1266ec3c6694d64b0cfc160192d3b -->
<g id="node1" class="node">
<title>dir_15b1266ec3c6694d64b0cfc160192d3b</title>
<g id="a_node1"><a xlink:href="dir_15b1266ec3c6694d64b0cfc160192d3b.html" target="_top" xlink:title="Domain">
<polygon fill="#a2b4d6" stroke="#404040" points="111.5,-90 56.5,-90 56.5,-71 111.5,-71 111.5,-90"/>
<text text-anchor="middle" x="84" y="-78" font-family="Helvetica,sans-Serif" font-size="10.00">Domain</text>
</a>
</g>
</g>
<!-- dir_1f703d4dd1e982897af273349847e927 -->
<g id="node2" class="node">
<title>dir_1f703d4dd1e982897af273349847e927</title>
<g id="a_node2"><a xlink:href="dir_1f703d4dd1e982897af273349847e927.html" target="_top" xlink:title="DB">
<polygon fill="#a2b4d6" stroke="#404040" points="181.5,-90 150.5,-90 150.5,-71 181.5,-71 181.5,-90"/>
<text text-anchor="middle" x="166" y="-78" font-family="Helvetica,sans-Serif" font-size="10.00">DB</text>
</a>
</g>
</g>
<!-- dir_58a8bb8411baaae7f5177ea38c71ea73 -->
<g id="node3" class="node">
<title>dir_58a8bb8411baaae7f5177ea38c71ea73</title>
<g id="a_node3"><a xlink:href="dir_58a8bb8411baaae7f5177ea38c71ea73.html" target="_top" xlink:title="Pointer">
<polygon fill="#a2b4d6" stroke="#404040" points="699.5,-35 648.5,-35 648.5,-16 699.5,-16 699.5,-35"/>
<text text-anchor="middle" x="674" y="-23" font-family="Helvetica,sans-Serif" font-size="10.00">Pointer</text>
</a>
</g>
</g>
<!-- dir_69cf206f122d9153ac8b30a0f4a917bf -->
<g id="node4" class="node">
<title>dir_69cf206f122d9153ac8b30a0f4a917bf</title>
<g id="a_node4"><a xlink:href="dir_69cf206f122d9153ac8b30a0f4a917bf.html" target="_top" xlink:title="DataFlow">
<polygon fill="#a2b4d6" stroke="red" points="685.5,-145 622.5,-145 622.5,-126 685.5,-126 685.5,-145"/>
<text text-anchor="middle" x="654" y="-133" font-family="Helvetica,sans-Serif" font-size="10.00">DataFlow</text>
</a>
</g>
</g>
<!-- dir_9d06c2f3a5ac32ab80fc048d7ff16b35 -->
<g id="node5" class="node">
<title>dir_9d06c2f3a5ac32ab80fc048d7ff16b35</title>
<g id="a_node5"><a xlink:href="dir_9d06c2f3a5ac32ab80fc048d7ff16b35.html" target="_top" xlink:title="ControlFlow">
<polygon fill="#a2b4d6" stroke="#404040" points="702.5,-90 627.5,-90 627.5,-71 702.5,-71 702.5,-90"/>
<text text-anchor="middle" x="665" y="-78" font-family="Helvetica,sans-Serif" font-size="10.00">ControlFlow</text>
</a>
</g>
</g>
<!-- dir_aeca43db7a276eb6dbfba1f93dc4539c -->
<g id="node6" class="node">
<title>dir_aeca43db7a276eb6dbfba1f93dc4539c</title>
<g id="a_node6"><a xlink:href="dir_aeca43db7a276eb6dbfba1f93dc4539c.html" target="_top" xlink:title="Utils">
<polygon fill="#a2b4d6" stroke="#404040" points="371.5,-35 332.5,-35 332.5,-16 371.5,-16 371.5,-35"/>
<text text-anchor="middle" x="352" y="-23" font-family="Helvetica,sans-Serif" font-size="10.00">Utils</text>
</a>
</g>
</g>
<!-- dir_cd166ded320aef6ec75102a3779bae14 -->
<g id="node7" class="node">
<title>dir_cd166ded320aef6ec75102a3779bae14</title>
<g id="a_node7"><a xlink:href="dir_cd166ded320aef6ec75102a3779bae14.html" target="_top" xlink:title="TypeHierarchy">
<polygon fill="#a2b4d6" stroke="#404040" points="604,-35 518,-35 518,-16 604,-16 604,-35"/>
<text text-anchor="middle" x="561" y="-23" font-family="Helvetica,sans-Serif" font-size="10.00">TypeHierarchy</text>
</a>
</g>
</g>
<!-- dir_6556945d274d6e1e874171d9d575b3f4 -->
<g id="node8" class="node">
<title>dir_6556945d274d6e1e874171d9d575b3f4</title>
<text text-anchor="middle" x="455" y="-243" font-family="Helvetica,sans-Serif" font-size="10.00">PhasarLLVM</text>
</g>
<!-- dir_6556945d274d6e1e874171d9d575b3f4&#45;&gt;dir_58a8bb8411baaae7f5177ea38c71ea73 -->
<g id="edge6" class="edge">
<title>dir_6556945d274d6e1e874171d9d575b3f4&#45;&gt;dir_58a8bb8411baaae7f5177ea38c71ea73</title>
<g id="a_edge6"><a xlink:href="dir_000024_000027.html" target="_top">
<path fill="none" stroke="#63b8ff" d="M492.59,-242.49C533.72,-238.86 600.38,-228.65 650,-200 698.6,-171.93 706.47,-145.85 712,-90 713.18,-78.06 716.7,-74.04 712,-63 708.52,-54.83 702.22,-47.61 695.74,-41.8"/>
<polygon fill="#63b8ff" stroke="#63b8ff" points="697.59,-38.8 687.62,-35.21 693.18,-44.23 697.59,-38.8"/>
</a>
</g>
<g id="a_edge6&#45;headlabel"><a xlink:href="dir_000024_000027.html" target="_top" xlink:title="13">
<text text-anchor="middle" x="702.17" y="-36.36" font-family="Helvetica,sans-Serif" font-size="10.00" fill="#63b8ff">13</text>
</a>
</g>
</g>
<!-- dir_6556945d274d6e1e874171d9d575b3f4&#45;&gt;dir_9d06c2f3a5ac32ab80fc048d7ff16b35 -->
<g id="edge9" class="edge">
<title>dir_6556945d274d6e1e874171d9d575b3f4&#45;&gt;dir_9d06c2f3a5ac32ab80fc048d7ff16b35</title>
<g id="a_edge9"><a xlink:href="dir_000024_000003.html" target="_top">
<path fill="none" stroke="#63b8ff" d="M492.59,-241.42C547.9,-234.64 649.53,-213.08 695,-145 705.09,-129.89 693.26,-110.84 681.62,-97.57"/>
<polygon fill="#63b8ff" stroke="#63b8ff" points="684,-95 674.59,-90.14 678.92,-99.81 684,-95"/>
</a>
</g>
<g id="a_edge9&#45;headlabel"><a xlink:href="dir_000024_000003.html" target="_top" xlink:title="12">
<text text-anchor="middle" x="688.53" y="-93.16" font-family="Helvetica,sans-Serif" font-size="10.00" fill="#63b8ff">12</text>
</a>
</g>
</g>
<!-- dir_6556945d274d6e1e874171d9d575b3f4&#45;&gt;dir_aeca43db7a276eb6dbfba1f93dc4539c -->
<g id="edge10" class="edge">
<title>dir_6556945d274d6e1e874171d9d575b3f4&#45;&gt;dir_aeca43db7a276eb6dbfba1f93dc4539c</title>
<g id="a_edge10"><a xlink:href="dir_000024_000039.html" target="_top">
<path fill="none" stroke="#63b8ff" d="M418.4,-235.96C380.31,-227.05 318.95,-212.65 266,-200 165.03,-175.88 112.2,-218.61 39,-145 21.29,-127.19 28.91,-114.95 26,-90 24.61,-78.08 18,-71.94 26,-63 45.54,-41.15 244.49,-30.84 321.65,-27.64"/>
<polygon fill="#63b8ff" stroke="#63b8ff" points="322.26,-31.12 332.11,-27.22 321.98,-24.12 322.26,-31.12"/>
</a>
</g>
<g id="a_edge10&#45;headlabel"><a xlink:href="dir_000024_000039.html" target="_top" xlink:title="45">
<text text-anchor="middle" x="318.78" y="-31.6" font-family="Helvetica,sans-Serif" font-size="10.00" fill="#63b8ff">45</text>
</a>
</g>
</g>
<!-- dir_0bc4dee926a629f715a9261d8d248ef6 -->
<g id="node9" class="node">
<title>dir_0bc4dee926a629f715a9261d8d248ef6</title>
<g id="a_node9"><a xlink:href="dir_0bc4dee926a629f715a9261d8d248ef6.html" target="_top" xlink:title="ControlFlow">
<polygon fill="#a2b4d6" stroke="#404040" points="544.5,-145 469.5,-145 469.5,-126 544.5,-126 544.5,-145"/>
<text text-anchor="middle" x="507" y="-133" font-family="Helvetica,sans-Serif" font-size="10.00">ControlFlow</text>
</a>
</g>
</g>
<!-- dir_6556945d274d6e1e874171d9d575b3f4&#45;&gt;dir_0bc4dee926a629f715a9261d8d248ef6 -->
<g id="edge4" class="edge">
<title>dir_6556945d274d6e1e874171d9d575b3f4&#45;&gt;dir_0bc4dee926a629f715a9261d8d248ef6</title>
<g id="a_edge4"><a xlink:href="dir_000024_000004.html" target="_top">
<path fill="none" stroke="#63b8ff" d="M460.83,-235.88C466.64,-227.1 475.58,-212.95 482,-200 489.32,-185.24 496.06,-167.78 500.7,-154.9"/>
<polygon fill="#63b8ff" stroke="#63b8ff" points="504.05,-155.93 504.06,-145.33 497.44,-153.6 504.05,-155.93"/>
</a>
</g>
<g id="a_edge4&#45;headlabel"><a xlink:href="dir_000024_000004.html" target="_top" xlink:title="15">
<text text-anchor="middle" x="505.54" y="-157.76" font-family="Helvetica,sans-Serif" font-size="10.00" fill="#63b8ff">15</text>
</a>
</g>
</g>
<!-- dir_b11f051d1364f2a30973d8d796d4babf -->
<g id="node10" class="node">
<title>dir_b11f051d1364f2a30973d8d796d4babf</title>
<g id="a_node10"><a xlink:href="dir_b11f051d1364f2a30973d8d796d4babf.html" target="_top" xlink:title="DataFlow">
<polygon fill="#a2b4d6" stroke="#404040" points="389.5,-200 326.5,-200 326.5,-181 389.5,-181 389.5,-200"/>
<text text-anchor="middle" x="358" y="-188" font-family="Helvetica,sans-Serif" font-size="10.00">DataFlow</text>
</a>
</g>
</g>
<!-- dir_6556945d274d6e1e874171d9d575b3f4&#45;&gt;dir_b11f051d1364f2a30973d8d796d4babf -->
<g id="edge11" class="edge">
<title>dir_6556945d274d6e1e874171d9d575b3f4&#45;&gt;dir_b11f051d1364f2a30973d8d796d4babf</title>
<g id="a_edge11"><a xlink:href="dir_000024_000006.html" target="_top">
<path fill="none" stroke="#63b8ff" d="M439.42,-235.98C424.23,-227.69 400.9,-214.94 383.1,-205.22"/>
<polygon fill="#63b8ff" stroke="#63b8ff" points="384.32,-201.89 373.87,-200.17 380.97,-208.04 384.32,-201.89"/>
</a>
</g>
<g id="a_edge11&#45;headlabel"><a xlink:href="dir_000024_000006.html" target="_top" xlink:title="26">
<text text-anchor="middle" x="388.84" y="-198.63" font-family="Helvetica,sans-Serif" font-size="10.00" fill="#63b8ff">26</text>
</a>
</g>
</g>
<!-- dir_68aec2623aad94785c017c13c687e045 -->
<g id="node11" class="node">
<title>dir_68aec2623aad94785c017c13c687e045</title>
<g id="a_node11"><a xlink:href="dir_68aec2623aad94785c017c13c687e045.html" target="_top" xlink:title="DB">
<polygon fill="#a2b4d6" stroke="#404040" points="302.5,-145 271.5,-145 271.5,-126 302.5,-126 302.5,-145"/>
<text text-anchor="middle" x="287" y="-133" font-family="Helvetica,sans-Serif" font-size="10.00">DB</text>
</a>
</g>
</g>
<!-- dir_6556945d274d6e1e874171d9d575b3f4&#45;&gt;dir_68aec2623aad94785c017c13c687e045 -->
<g id="edge8" class="edge">
<title>dir_6556945d274d6e1e874171d9d575b3f4&#45;&gt;dir_68aec2623aad94785c017c13c687e045</title>
<g id="a_edge8"><a xlink:href="dir_000024_000008.html" target="_top">
<path fill="none" stroke="#63b8ff" d="M417.33,-242.13C384.98,-238.17 339.09,-227.68 310,-200 297.67,-188.27 291.93,-169.42 289.27,-155.3"/>
<polygon fill="#63b8ff" stroke="#63b8ff" points="292.69,-154.57 287.73,-145.21 285.78,-155.63 292.69,-154.57"/>
</a>
</g>
<g id="a_edge8&#45;headlabel"><a xlink:href="dir_000024_000008.html" target="_top" xlink:title="4">
<text text-anchor="middle" x="296.04" y="-155.2" font-family="Helvetica,sans-Serif" font-size="10.00" fill="#63b8ff">4</text>
</a>
</g>
</g>
<!-- dir_189eb8c36ffce94640b9d816bc05823d -->
<g id="node12" class="node">
<title>dir_189eb8c36ffce94640b9d816bc05823d</title>
<g id="a_node12"><a xlink:href="dir_189eb8c36ffce94640b9d816bc05823d.html" target="_top" xlink:title="Domain">
<polygon fill="#a2b4d6" stroke="#404040" points="253.5,-145 198.5,-145 198.5,-126 253.5,-126 253.5,-145"/>
<text text-anchor="middle" x="226" y="-133" font-family="Helvetica,sans-Serif" font-size="10.00">Domain</text>
</a>
</g>
</g>
<!-- dir_6556945d274d6e1e874171d9d575b3f4&#45;&gt;dir_189eb8c36ffce94640b9d816bc05823d -->
<g id="edge5" class="edge">
<title>dir_6556945d274d6e1e874171d9d575b3f4&#45;&gt;dir_189eb8c36ffce94640b9d816bc05823d</title>
<g id="a_edge5"><a xlink:href="dir_000024_000011.html" target="_top">
<path fill="none" stroke="#63b8ff" d="M417.25,-239.33C383.31,-233.49 332.97,-221.82 294,-200 272.32,-187.86 252.15,-167.39 239.49,-152.97"/>
<polygon fill="#63b8ff" stroke="#63b8ff" points="242.1,-150.64 232.96,-145.3 236.77,-155.18 242.1,-150.64"/>
</a>
</g>
<g id="a_edge5&#45;headlabel"><a xlink:href="dir_000024_000011.html" target="_top" xlink:title="25">
<text text-anchor="middle" x="246.6" y="-149.04" font-family="Helvetica,sans-Serif" font-size="10.00" fill="#63b8ff">25</text>
</a>
</g>
</g>
<!-- dir_d1ed25abdb4425f8cc893afb2160bbbe -->
<g id="node13" class="node">
<title>dir_d1ed25abdb4425f8cc893afb2160bbbe</title>
<g id="a_node13"><a xlink:href="dir_d1ed25abdb4425f8cc893afb2160bbbe.html" target="_top" xlink:title="Passes">
<polygon fill="#a2b4d6" stroke="#404040" points="458,-200 408,-200 408,-181 458,-181 458,-200"/>
<text text-anchor="middle" x="433" y="-188" font-family="Helvetica,sans-Serif" font-size="10.00">Passes</text>
</a>
</g>
</g>
<!-- dir_6556945d274d6e1e874171d9d575b3f4&#45;&gt;dir_d1ed25abdb4425f8cc893afb2160bbbe -->
<g id="edge12" class="edge">
<title>dir_6556945d274d6e1e874171d9d575b3f4&#45;&gt;dir_d1ed25abdb4425f8cc893afb2160bbbe</title>
<g id="a_edge12"><a xlink:href="dir_000024_000019.html" target="_top">
<path fill="none" stroke="#63b8ff" d="M451.37,-235.75C448.42,-228.65 444.17,-218.4 440.49,-209.56"/>
<polygon fill="#63b8ff" stroke="#63b8ff" points="443.63,-207.98 436.57,-200.09 437.17,-210.67 443.63,-207.98"/>
</a>
</g>
<g id="a_edge12&#45;headlabel"><a xlink:href="dir_000024_000019.html" target="_top" xlink:title="3">
<text text-anchor="middle" x="447.63" y="-207.71" font-family="Helvetica,sans-Serif" font-size="10.00" fill="#63b8ff">3</text>
</a>
</g>
</g>
<!-- dir_0133e64b3a4c854b47f86a7b8e0c9983 -->
<g id="node14" class="node">
<title>dir_0133e64b3a4c854b47f86a7b8e0c9983</title>
<g id="a_node14"><a xlink:href="dir_0133e64b3a4c854b47f86a7b8e0c9983.html" target="_top" xlink:title="Pointer">
<polygon fill="#a2b4d6" stroke="#404040" points="499.5,-90 448.5,-90 448.5,-71 499.5,-71 499.5,-90"/>
<text text-anchor="middle" x="474" y="-78" font-family="Helvetica,sans-Serif" font-size="10.00">Pointer</text>
</a>
</g>
</g>
<!-- dir_6556945d274d6e1e874171d9d575b3f4&#45;&gt;dir_0133e64b3a4c854b47f86a7b8e0c9983 -->
<g id="edge1" class="edge">
<title>dir_6556945d274d6e1e874171d9d575b3f4&#45;&gt;dir_0133e64b3a4c854b47f86a7b8e0c9983</title>
<g id="a_edge1"><a xlink:href="dir_000024_000026.html" target="_top">
<path fill="none" stroke="#63b8ff" d="M468.77,-235.86C491.44,-220.71 535.81,-186.95 553,-145 562.94,-120.74 534.56,-103.22 509.09,-92.8"/>
<polygon fill="#63b8ff" stroke="#63b8ff" points="510.15,-89.46 499.56,-89.15 507.65,-95.99 510.15,-89.46"/>
</a>
</g>
<g id="a_edge1&#45;headlabel"><a xlink:href="dir_000024_000026.html" target="_top" xlink:title="26">
<text text-anchor="middle" x="514.52" y="-85.59" font-family="Helvetica,sans-Serif" font-size="10.00" fill="#63b8ff">26</text>
</a>
</g>
</g>
<!-- dir_63e7bb0cb88dc7cebeab7c37a85fbe32 -->
<g id="node15" class="node">
<title>dir_63e7bb0cb88dc7cebeab7c37a85fbe32</title>
<g id="a_node15"><a xlink:href="dir_63e7bb0cb88dc7cebeab7c37a85fbe32.html" target="_top" xlink:title="TaintConfig">
<polygon fill="#a2b4d6" stroke="#404040" points="391.5,-145 320.5,-145 320.5,-126 391.5,-126 391.5,-145"/>
<text text-anchor="middle" x="356" y="-133" font-family="Helvetica,sans-Serif" font-size="10.00">TaintConfig</text>
</a>
</g>
</g>
<!-- dir_6556945d274d6e1e874171d9d575b3f4&#45;&gt;dir_63e7bb0cb88dc7cebeab7c37a85fbe32 -->
<g id="edge7" class="edge">
<title>dir_6556945d274d6e1e874171d9d575b3f4&#45;&gt;dir_63e7bb0cb88dc7cebeab7c37a85fbe32</title>
<g id="a_edge7"><a xlink:href="dir_000024_000034.html" target="_top">
<path fill="none" stroke="#63b8ff" d="M417.29,-243.83C384.83,-241.01 339.75,-231.24 317,-200 305.5,-184.2 321.14,-164.95 335.9,-151.81"/>
<polygon fill="#63b8ff" stroke="#63b8ff" points="338.39,-154.29 343.84,-145.2 333.91,-148.91 338.39,-154.29"/>
</a>
</g>
<g id="a_edge7&#45;headlabel"><a xlink:href="dir_000024_000034.html" target="_top" xlink:title="5">
<text text-anchor="middle" x="337.45" y="-156.27" font-family="Helvetica,sans-Serif" font-size="10.00" fill="#63b8ff">5</text>
</a>
</g>
</g>
<!-- dir_04c97d3322b5ffe9ec5885b952098baa -->
<g id="node16" class="node">
<title>dir_04c97d3322b5ffe9ec5885b952098baa</title>
<g id="a_node16"><a xlink:href="dir_04c97d3322b5ffe9ec5885b952098baa.html" target="_top" xlink:title="TypeHierarchy">
<polygon fill="#a2b4d6" stroke="#404040" points="604,-90 518,-90 518,-71 604,-71 604,-90"/>
<text text-anchor="middle" x="561" y="-78" font-family="Helvetica,sans-Serif" font-size="10.00">TypeHierarchy</text>
</a>
</g>
</g>
<!-- dir_6556945d274d6e1e874171d9d575b3f4&#45;&gt;dir_04c97d3322b5ffe9ec5885b952098baa -->
<g id="edge2" class="edge">
<title>dir_6556945d274d6e1e874171d9d575b3f4&#45;&gt;dir_04c97d3322b5ffe9ec5885b952098baa</title>
<g id="a_edge2"><a xlink:href="dir_000024_000035.html" target="_top">
<path fill="none" stroke="#63b8ff" d="M473.74,-235.89C489.29,-228.1 511.31,-215.48 527,-200 547.62,-179.65 553.9,-172.82 562,-145 566.24,-130.43 565.63,-113.16 564.16,-100.32"/>
<polygon fill="#63b8ff" stroke="#63b8ff" points="567.62,-99.75 562.75,-90.34 560.69,-100.74 567.62,-99.75"/>
</a>
</g>
<g id="a_edge2&#45;headlabel"><a xlink:href="dir_000024_000035.html" target="_top" xlink:title="5">
<text text-anchor="middle" x="570.93" y="-100.42" font-family="Helvetica,sans-Serif" font-size="10.00" fill="#63b8ff">5</text>
</a>
</g>
</g>
<!-- dir_079f3dfffeb9e770010097b0dd1334eb -->
<g id="node17" class="node">
<title>dir_079f3dfffeb9e770010097b0dd1334eb</title>
<g id="a_node17"><a xlink:href="dir_079f3dfffeb9e770010097b0dd1334eb.html" target="_top" xlink:title="Utils">
<polygon fill="#a2b4d6" stroke="#404040" points="430.5,-90 391.5,-90 391.5,-71 430.5,-71 430.5,-90"/>
<text text-anchor="middle" x="411" y="-78" font-family="Helvetica,sans-Serif" font-size="10.00">Utils</text>
</a>
</g>
</g>
<!-- dir_6556945d274d6e1e874171d9d575b3f4&#45;&gt;dir_079f3dfffeb9e770010097b0dd1334eb -->
<g id="edge3" class="edge">
<title>dir_6556945d274d6e1e874171d9d575b3f4&#45;&gt;dir_079f3dfffeb9e770010097b0dd1334eb</title>
<g id="a_edge3"><a xlink:href="dir_000024_000038.html" target="_top">
<path fill="none" stroke="#63b8ff" d="M459.07,-235.79C464.28,-223.47 472.06,-200.32 467,-181 458.71,-149.36 437.84,-117.17 424.05,-98.29"/>
<polygon fill="#63b8ff" stroke="#63b8ff" points="426.74,-96.04 417.94,-90.14 421.15,-100.24 426.74,-96.04"/>
</a>
</g>
<g id="a_edge3&#45;headlabel"><a xlink:href="dir_000024_000038.html" target="_top" xlink:title="22">
<text text-anchor="middle" x="431.17" y="-94.71" font-family="Helvetica,sans-Serif" font-size="10.00" fill="#63b8ff">22</text>
</a>
</g>
</g>
<!-- dir_0bc4dee926a629f715a9261d8d248ef6&#45;&gt;dir_9d06c2f3a5ac32ab80fc048d7ff16b35 -->
<g id="edge16" class="edge">
<title>dir_0bc4dee926a629f715a9261d8d248ef6&#45;&gt;dir_9d06c2f3a5ac32ab80fc048d7ff16b35</title>
<g id="a_edge16"><a xlink:href="dir_000004_000003.html" target="_top">
<path fill="none" stroke="#63b8ff" d="M532.39,-125.98C558.8,-117.13 600.35,-103.19 629.89,-93.28"/>
<polygon fill="#63b8ff" stroke="#63b8ff" points="631.05,-96.58 639.42,-90.08 628.82,-89.94 631.05,-96.58"/>
</a>
</g>
<g id="a_edge16&#45;headlabel"><a xlink:href="dir_000004_000003.html" target="_top" xlink:title="10">
<text text-anchor="middle" x="628.54" y="-97.92" font-family="Helvetica,sans-Serif" font-size="10.00" fill="#63b8ff">10</text>
</a>
</g>
</g>
<!-- dir_0bc4dee926a629f715a9261d8d248ef6&#45;&gt;dir_aeca43db7a276eb6dbfba1f93dc4539c -->
<g id="edge17" class="edge">
<title>dir_0bc4dee926a629f715a9261d8d248ef6&#45;&gt;dir_aeca43db7a276eb6dbfba1f93dc4539c</title>
<g id="a_edge17"><a xlink:href="dir_000004_000039.html" target="_top">
<path fill="none" stroke="#63b8ff" d="M469.43,-129.01C442.31,-123.32 406.34,-112.03 382,-90 368.88,-78.12 360.99,-59.29 356.62,-45.22"/>
<polygon fill="#63b8ff" stroke="#63b8ff" points="359.88,-43.87 353.84,-35.17 353.13,-45.74 359.88,-43.87"/>
</a>
</g>
<g id="a_edge17&#45;headlabel"><a xlink:href="dir_000004_000039.html" target="_top" xlink:title="4">
<text text-anchor="middle" x="363.58" y="-44.08" font-family="Helvetica,sans-Serif" font-size="10.00" fill="#63b8ff">4</text>
</a>
</g>
</g>
<!-- dir_0bc4dee926a629f715a9261d8d248ef6&#45;&gt;dir_0133e64b3a4c854b47f86a7b8e0c9983 -->
<g id="edge13" class="edge">
<title>dir_0bc4dee926a629f715a9261d8d248ef6&#45;&gt;dir_0133e64b3a4c854b47f86a7b8e0c9983</title>
<g id="a_edge13"><a xlink:href="dir_000004_000026.html" target="_top">
<path fill="none" stroke="#63b8ff" d="M501.55,-125.75C496.99,-118.42 490.33,-107.73 484.71,-98.7"/>
<polygon fill="#63b8ff" stroke="#63b8ff" points="487.6,-96.73 479.35,-90.09 481.66,-100.43 487.6,-96.73"/>
</a>
</g>
<g id="a_edge13&#45;headlabel"><a xlink:href="dir_000004_000026.html" target="_top" xlink:title="5">
<text text-anchor="middle" x="491.91" y="-95.78" font-family="Helvetica,sans-Serif" font-size="10.00" fill="#63b8ff">5</text>
</a>
</g>
</g>
<!-- dir_0bc4dee926a629f715a9261d8d248ef6&#45;&gt;dir_04c97d3322b5ffe9ec5885b952098baa -->
<g id="edge14" class="edge">
<title>dir_0bc4dee926a629f715a9261d8d248ef6&#45;&gt;dir_04c97d3322b5ffe9ec5885b952098baa</title>
<g id="a_edge14"><a xlink:href="dir_000004_000035.html" target="_top">
<path fill="none" stroke="#63b8ff" d="M515.92,-125.75C523.78,-118.03 535.43,-106.6 544.92,-97.28"/>
<polygon fill="#63b8ff" stroke="#63b8ff" points="547.56,-99.59 552.25,-90.09 542.66,-94.6 547.56,-99.59"/>
</a>
</g>
<g id="a_edge14&#45;headlabel"><a xlink:href="dir_000004_000035.html" target="_top" xlink:title="1">
<text text-anchor="middle" x="546.99" y="-101.64" font-family="Helvetica,sans-Serif" font-size="10.00" fill="#63b8ff">1</text>
</a>
</g>
</g>
<!-- dir_0bc4dee926a629f715a9261d8d248ef6&#45;&gt;dir_079f3dfffeb9e770010097b0dd1334eb -->
<g id="edge15" class="edge">
<title>dir_0bc4dee926a629f715a9261d8d248ef6&#45;&gt;dir_079f3dfffeb9e770010097b0dd1334eb</title>
<g id="a_edge15"><a xlink:href="dir_000004_000038.html" target="_top">
<path fill="none" stroke="#63b8ff" d="M491.58,-125.98C476.55,-117.69 453.46,-104.94 435.84,-95.22"/>
<polygon fill="#63b8ff" stroke="#63b8ff" points="437.15,-91.94 426.7,-90.17 433.77,-98.07 437.15,-91.94"/>
</a>
</g>
<g id="a_edge15&#45;headlabel"><a xlink:href="dir_000004_000038.html" target="_top" xlink:title="3">
<text text-anchor="middle" x="441.67" y="-88.69" font-family="Helvetica,sans-Serif" font-size="10.00" fill="#63b8ff">3</text>
</a>
</g>
</g>
<!-- dir_b11f051d1364f2a30973d8d796d4babf&#45;&gt;dir_15b1266ec3c6694d64b0cfc160192d3b -->
<g id="edge22" class="edge">
<title>dir_b11f051d1364f2a30973d8d796d4babf&#45;&gt;dir_15b1266ec3c6694d64b0cfc160192d3b</title>
<g id="a_edge22"><a xlink:href="dir_000006_000010.html" target="_top">
<path fill="none" stroke="#63b8ff" d="M326.24,-181.66C280.89,-170.38 201.64,-150.36 189,-145 157.56,-131.68 124.33,-110.15 103.87,-95.91"/>
<polygon fill="#63b8ff" stroke="#63b8ff" points="105.87,-93.03 95.68,-90.12 101.83,-98.75 105.87,-93.03"/>
</a>
</g>
<g id="a_edge22&#45;headlabel"><a xlink:href="dir_000006_000010.html" target="_top" xlink:title="9">
<text text-anchor="middle" x="110.44" y="-90.29" font-family="Helvetica,sans-Serif" font-size="10.00" fill="#63b8ff">9</text>
</a>
</g>
</g>
<!-- dir_b11f051d1364f2a30973d8d796d4babf&#45;&gt;dir_69cf206f122d9153ac8b30a0f4a917bf -->
<g id="edge20" class="edge">
<title>dir_b11f051d1364f2a30973d8d796d4babf&#45;&gt;dir_69cf206f122d9153ac8b30a0f4a917bf</title>
<g id="a_edge20"><a xlink:href="dir_000006_000005.html" target="_top">
<path fill="none" stroke="#63b8ff" d="M389.76,-182.78C392.88,-182.16 396,-181.56 399,-181 491.91,-163.67 518.3,-163.66 612.18,-145.69"/>
<polygon fill="#63b8ff" stroke="#63b8ff" points="612.94,-149.11 622.1,-143.77 611.62,-142.23 612.94,-149.11"/>
</a>
</g>
<g id="a_edge20&#45;headlabel"><a xlink:href="dir_000006_000005.html" target="_top" xlink:title="56">
<text text-anchor="middle" x="609.95" y="-150.07" font-family="Helvetica,sans-Serif" font-size="10.00" fill="#63b8ff">56</text>
</a>
</g>
</g>
<!-- dir_b11f051d1364f2a30973d8d796d4babf&#45;&gt;dir_aeca43db7a276eb6dbfba1f93dc4539c -->
<g id="edge21" class="edge">
<title>dir_b11f051d1364f2a30973d8d796d4babf&#45;&gt;dir_aeca43db7a276eb6dbfba1f93dc4539c</title>
<g id="a_edge21"><a xlink:href="dir_000006_000039.html" target="_top">
<path fill="none" stroke="#63b8ff" d="M326.21,-181.95C324.79,-181.62 323.38,-181.31 322,-181 192.16,-152.17 -41.28,-162.47 47,-63 65.06,-42.66 248.06,-31.56 321.62,-27.89"/>
<polygon fill="#63b8ff" stroke="#63b8ff" points="322.23,-31.36 332.05,-27.38 321.89,-24.37 322.23,-31.36"/>
</a>
</g>
<g id="a_edge21&#45;headlabel"><a xlink:href="dir_000006_000039.html" target="_top" xlink:title="31">
<text text-anchor="middle" x="318.78" y="-31.87" font-family="Helvetica,sans-Serif" font-size="10.00" fill="#63b8ff">31</text>
</a>
</g>
</g>
<!-- dir_b11f051d1364f2a30973d8d796d4babf&#45;&gt;dir_0bc4dee926a629f715a9261d8d248ef6 -->
<g id="edge23" class="edge">
<title>dir_b11f051d1364f2a30973d8d796d4babf&#45;&gt;dir_0bc4dee926a629f715a9261d8d248ef6</title>
<g id="a_edge23"><a xlink:href="dir_000006_000004.html" target="_top">
<path fill="none" stroke="#63b8ff" d="M381.94,-180.98C406.56,-172.23 445.12,-158.51 472.92,-148.62"/>
<polygon fill="#63b8ff" stroke="#63b8ff" points="474.38,-151.82 482.62,-145.17 472.03,-145.22 474.38,-151.82"/>
</a>
</g>
<g id="a_edge23&#45;headlabel"><a xlink:href="dir_000006_000004.html" target="_top" xlink:title="5">
<text text-anchor="middle" x="471.94" y="-153.2" font-family="Helvetica,sans-Serif" font-size="10.00" fill="#63b8ff">5</text>
</a>
</g>
</g>
<!-- dir_b11f051d1364f2a30973d8d796d4babf&#45;&gt;dir_68aec2623aad94785c017c13c687e045 -->
<g id="edge25" class="edge">
<title>dir_b11f051d1364f2a30973d8d796d4babf&#45;&gt;dir_68aec2623aad94785c017c13c687e045</title>
<g id="a_edge25"><a xlink:href="dir_000006_000008.html" target="_top">
<path fill="none" stroke="#63b8ff" d="M346.59,-180.98C335.89,-173 319.66,-160.88 306.84,-151.31"/>
<polygon fill="#63b8ff" stroke="#63b8ff" points="308.72,-148.35 298.61,-145.17 304.53,-153.96 308.72,-148.35"/>
</a>
</g>
<g id="a_edge25&#45;headlabel"><a xlink:href="dir_000006_000008.html" target="_top" xlink:title="3">
<text text-anchor="middle" x="313.3" y="-145.72" font-family="Helvetica,sans-Serif" font-size="10.00" fill="#63b8ff">3</text>
</a>
</g>
</g>
<!-- dir_b11f051d1364f2a30973d8d796d4babf&#45;&gt;dir_189eb8c36ffce94640b9d816bc05823d -->
<g id="edge24" class="edge">
<title>dir_b11f051d1364f2a30973d8d796d4babf&#45;&gt;dir_189eb8c36ffce94640b9d816bc05823d</title>
<g id="a_edge24"><a xlink:href="dir_000006_000011.html" target="_top">
<path fill="none" stroke="#63b8ff" d="M336.79,-180.98C315.27,-172.34 281.72,-158.87 257.17,-149.02"/>
<polygon fill="#63b8ff" stroke="#63b8ff" points="258.18,-145.65 247.59,-145.17 255.57,-152.14 258.18,-145.65"/>
</a>
</g>
<g id="a_edge24&#45;headlabel"><a xlink:href="dir_000006_000011.html" target="_top" xlink:title="24">
<text text-anchor="middle" x="262.57" y="-141.85" font-family="Helvetica,sans-Serif" font-size="10.00" fill="#63b8ff">24</text>
</a>
</g>
</g>
<!-- dir_b11f051d1364f2a30973d8d796d4babf&#45;&gt;dir_0133e64b3a4c854b47f86a7b8e0c9983 -->
<g id="edge18" class="edge">
<title>dir_b11f051d1364f2a30973d8d796d4babf&#45;&gt;dir_0133e64b3a4c854b47f86a7b8e0c9983</title>
<g id="a_edge18"><a xlink:href="dir_000006_000026.html" target="_top">
<path fill="none" stroke="#63b8ff" d="M368.31,-180.8C378.72,-171.95 395.19,-157.75 409,-145 426.09,-129.22 445.05,-110.56 458.06,-97.57"/>
<polygon fill="#63b8ff" stroke="#63b8ff" points="460.74,-99.84 465.32,-90.29 455.78,-94.9 460.74,-99.84"/>
</a>
</g>
<g id="a_edge18&#45;headlabel"><a xlink:href="dir_000006_000026.html" target="_top" xlink:title="16">
<text text-anchor="middle" x="460.21" y="-101.89" font-family="Helvetica,sans-Serif" font-size="10.00" fill="#63b8ff">16</text>
</a>
</g>
</g>
<!-- dir_b11f051d1364f2a30973d8d796d4babf&#45;&gt;dir_63e7bb0cb88dc7cebeab7c37a85fbe32 -->
<g id="edge26" class="edge">
<title>dir_b11f051d1364f2a30973d8d796d4babf&#45;&gt;dir_63e7bb0cb88dc7cebeab7c37a85fbe32</title>
<g id="a_edge26"><a xlink:href="dir_000006_000034.html" target="_top">
<path fill="none" stroke="#63b8ff" d="M357.67,-180.75C357.41,-173.8 357.03,-163.85 356.7,-155.13"/>
<polygon fill="#63b8ff" stroke="#63b8ff" points="360.2,-154.95 356.32,-145.09 353.2,-155.21 360.2,-154.95"/>
</a>
</g>
<g id="a_edge26&#45;headlabel"><a xlink:href="dir_000006_000034.html" target="_top" xlink:title="2">
<text text-anchor="middle" x="363.17" y="-155.93" font-family="Helvetica,sans-Serif" font-size="10.00" fill="#63b8ff">2</text>
</a>
</g>
</g>
<!-- dir_b11f051d1364f2a30973d8d796d4babf&#45;&gt;dir_04c97d3322b5ffe9ec5885b952098baa -->
<g id="edge27" class="edge">
<title>dir_b11f051d1364f2a30973d8d796d4babf&#45;&gt;dir_04c97d3322b5ffe9ec5885b952098baa</title>
<g id="a_edge27"><a xlink:href="dir_000006_000035.html" target="_top">
<path fill="none" stroke="#63b8ff" d="M389.65,-182.76C444.16,-171.09 550.23,-148.06 553,-145 563.83,-133.04 564.95,-114.22 563.89,-100.17"/>
<polygon fill="#63b8ff" stroke="#63b8ff" points="567.35,-99.67 562.71,-90.15 560.4,-100.49 567.35,-99.67"/>
</a>
</g>
<g id="a_edge27&#45;headlabel"><a xlink:href="dir_000006_000035.html" target="_top" xlink:title="1">
<text text-anchor="middle" x="570.59" y="-100.41" font-family="Helvetica,sans-Serif" font-size="10.00" fill="#63b8ff">1</text>
</a>
</g>
</g>
<!-- dir_b11f051d1364f2a30973d8d796d4babf&#45;&gt;dir_079f3dfffeb9e770010097b0dd1334eb -->
<g id="edge19" class="edge">
<title>dir_b11f051d1364f2a30973d8d796d4babf&#45;&gt;dir_079f3dfffeb9e770010097b0dd1334eb</title>
<g id="a_edge19"><a xlink:href="dir_000006_000038.html" target="_top">
<path fill="none" stroke="#63b8ff" d="M369.2,-180.9C378.97,-172.76 392.68,-159.63 400,-145 406.97,-131.07 409.61,-113.51 410.57,-100.39"/>
<polygon fill="#63b8ff" stroke="#63b8ff" points="414.08,-100.36 411.05,-90.2 407.09,-100.03 414.08,-100.36"/>
</a>
</g>
<g id="a_edge19&#45;headlabel"><a xlink:href="dir_000006_000038.html" target="_top" xlink:title="10">
<text text-anchor="middle" x="416.75" y="-101.58" font-family="Helvetica,sans-Serif" font-size="10.00" fill="#63b8ff">10</text>
</a>
</g>
</g>
<!-- dir_68aec2623aad94785c017c13c687e045&#45;&gt;dir_1f703d4dd1e982897af273349847e927 -->
<g id="edge29" class="edge">
<title>dir_68aec2623aad94785c017c13c687e045&#45;&gt;dir_1f703d4dd1e982897af273349847e927</title>
<g id="a_edge29"><a xlink:href="dir_000008_000007.html" target="_top">
<path fill="none" stroke="#63b8ff" d="M271.18,-127.57C250.8,-118.64 215.13,-103.02 191.05,-92.47"/>
<polygon fill="#63b8ff" stroke="#63b8ff" points="192.39,-89.24 181.82,-88.43 189.58,-95.65 192.39,-89.24"/>
</a>
</g>
<g id="a_edge29&#45;headlabel"><a xlink:href="dir_000008_000007.html" target="_top" xlink:title="1">
<text text-anchor="middle" x="196.82" y="-85.58" font-family="Helvetica,sans-Serif" font-size="10.00" fill="#63b8ff">1</text>
</a>
</g>
</g>
<!-- dir_68aec2623aad94785c017c13c687e045&#45;&gt;dir_aeca43db7a276eb6dbfba1f93dc4539c -->
<g id="edge30" class="edge">
<title>dir_68aec2623aad94785c017c13c687e045&#45;&gt;dir_aeca43db7a276eb6dbfba1f93dc4539c</title>
<g id="a_edge30"><a xlink:href="dir_000008_000039.html" target="_top">
<path fill="none" stroke="#63b8ff" d="M271.43,-129.1C268.31,-128.05 265.06,-126.97 262,-126 208.54,-108.97 174.54,-134.98 141,-90 133.83,-80.38 133.27,-72.18 141,-63 163.85,-35.86 269.9,-28.9 322.4,-27.12"/>
<polygon fill="#63b8ff" stroke="#63b8ff" points="322.55,-30.61 332.44,-26.82 322.34,-23.62 322.55,-30.61"/>
</a>
</g>
<g id="a_edge30&#45;headlabel"><a xlink:href="dir_000008_000039.html" target="_top" xlink:title="2">
<text text-anchor="middle" x="319.04" y="-31.06" font-family="Helvetica,sans-Serif" font-size="10.00" fill="#63b8ff">2</text>
</a>
</g>
</g>
<!-- dir_68aec2623aad94785c017c13c687e045&#45;&gt;dir_079f3dfffeb9e770010097b0dd1334eb -->
<g id="edge28" class="edge">
<title>dir_68aec2623aad94785c017c13c687e045&#45;&gt;dir_079f3dfffeb9e770010097b0dd1334eb</title>
<g id="a_edge28"><a xlink:href="dir_000008_000038.html" target="_top">
<path fill="none" stroke="#63b8ff" d="M302.7,-127.79C322.61,-119.28 357.31,-104.45 382.07,-93.87"/>
<polygon fill="#63b8ff" stroke="#63b8ff" points="383.52,-97.05 391.34,-89.9 380.77,-90.61 383.52,-97.05"/>
</a>
</g>
<g id="a_edge28&#45;headlabel"><a xlink:href="dir_000008_000038.html" target="_top" xlink:title="1">
<text text-anchor="middle" x="381.33" y="-98.57" font-family="Helvetica,sans-Serif" font-size="10.00" fill="#63b8ff">1</text>
</a>
</g>
</g>
<!-- dir_189eb8c36ffce94640b9d816bc05823d&#45;&gt;dir_15b1266ec3c6694d64b0cfc160192d3b -->
<g id="edge31" class="edge">
<title>dir_189eb8c36ffce94640b9d816bc05823d&#45;&gt;dir_15b1266ec3c6694d64b0cfc160192d3b</title>
<g id="a_edge31"><a xlink:href="dir_000011_000010.html" target="_top">
<path fill="none" stroke="#63b8ff" d="M203.19,-125.98C179.83,-117.27 143.3,-103.63 116.83,-93.75"/>
<polygon fill="#63b8ff" stroke="#63b8ff" points="117.82,-90.39 107.23,-90.17 115.37,-96.95 117.82,-90.39"/>
</a>
</g>
<g id="a_edge31&#45;headlabel"><a xlink:href="dir_000011_000010.html" target="_top" xlink:title="1">
<text text-anchor="middle" x="122.18" y="-86.48" font-family="Helvetica,sans-Serif" font-size="10.00" fill="#63b8ff">1</text>
</a>
</g>
</g>
<!-- dir_0133e64b3a4c854b47f86a7b8e0c9983&#45;&gt;dir_58a8bb8411baaae7f5177ea38c71ea73 -->
<g id="edge32" class="edge">
<title>dir_0133e64b3a4c854b47f86a7b8e0c9983&#45;&gt;dir_58a8bb8411baaae7f5177ea38c71ea73</title>
<g id="a_edge32"><a xlink:href="dir_000026_000027.html" target="_top">
<path fill="none" stroke="#63b8ff" d="M490.42,-70.83C496.18,-68.04 502.77,-65.13 509,-63 552.53,-48.13 604.63,-37.79 638.47,-32"/>
<polygon fill="#63b8ff" stroke="#63b8ff" points="639.07,-35.45 648.36,-30.35 637.92,-28.54 639.07,-35.45"/>
</a>
</g>
<g id="a_edge32&#45;headlabel"><a xlink:href="dir_000026_000027.html" target="_top" xlink:title="12">
<text text-anchor="middle" x="635.99" y="-36.34" font-family="Helvetica,sans-Serif" font-size="10.00" fill="#63b8ff">12</text>
</a>
</g>
</g>
<!-- dir_0133e64b3a4c854b47f86a7b8e0c9983&#45;&gt;dir_aeca43db7a276eb6dbfba1f93dc4539c -->
<g id="edge33" class="edge">
<title>dir_0133e64b3a4c854b47f86a7b8e0c9983&#45;&gt;dir_aeca43db7a276eb6dbfba1f93dc4539c</title>
<g id="a_edge33"><a xlink:href="dir_000026_000039.html" target="_top">
<path fill="none" stroke="#63b8ff" d="M456.26,-70.96C450.75,-68.35 444.65,-65.51 439,-63 419.86,-54.48 398.13,-45.36 381.18,-38.37"/>
<polygon fill="#63b8ff" stroke="#63b8ff" points="382.38,-35.08 371.8,-34.52 379.72,-41.56 382.38,-35.08"/>
</a>
</g>
<g id="a_edge33&#45;headlabel"><a xlink:href="dir_000026_000039.html" target="_top" xlink:title="3">
<text text-anchor="middle" x="386.78" y="-31.32" font-family="Helvetica,sans-Serif" font-size="10.00" fill="#63b8ff">3</text>
</a>
</g>
</g>
<!-- dir_63e7bb0cb88dc7cebeab7c37a85fbe32&#45;&gt;dir_aeca43db7a276eb6dbfba1f93dc4539c -->
<g id="edge35" class="edge">
<title>dir_63e7bb0cb88dc7cebeab7c37a85fbe32&#45;&gt;dir_aeca43db7a276eb6dbfba1f93dc4539c</title>
<g id="a_edge35"><a xlink:href="dir_000034_000039.html" target="_top">
<path fill="none" stroke="#63b8ff" d="M355.67,-125.66C355.02,-108.17 353.57,-68.8 352.7,-45.27"/>
<polygon fill="#63b8ff" stroke="#63b8ff" points="356.19,-45.02 352.32,-35.16 349.19,-45.28 356.19,-45.02"/>
</a>
</g>
<g id="a_edge35&#45;headlabel"><a xlink:href="dir_000034_000039.html" target="_top" xlink:title="1">
<text text-anchor="middle" x="359.16" y="-46.01" font-family="Helvetica,sans-Serif" font-size="10.00" fill="#63b8ff">1</text>
</a>
</g>
</g>
<!-- dir_63e7bb0cb88dc7cebeab7c37a85fbe32&#45;&gt;dir_079f3dfffeb9e770010097b0dd1334eb -->
<g id="edge34" class="edge">
<title>dir_63e7bb0cb88dc7cebeab7c37a85fbe32&#45;&gt;dir_079f3dfffeb9e770010097b0dd1334eb</title>
<g id="a_edge34"><a xlink:href="dir_000034_000038.html" target="_top">
<path fill="none" stroke="#63b8ff" d="M365.08,-125.75C373.09,-118.03 384.96,-106.6 394.62,-97.28"/>
<polygon fill="#63b8ff" stroke="#63b8ff" points="397.31,-99.55 402.09,-90.09 392.46,-94.51 397.31,-99.55"/>
</a>
</g>
<g id="a_edge34&#45;headlabel"><a xlink:href="dir_000034_000038.html" target="_top" xlink:title="1">
<text text-anchor="middle" x="396.7" y="-101.59" font-family="Helvetica,sans-Serif" font-size="10.00" fill="#63b8ff">1</text>
</a>
</g>
</g>
<!-- dir_04c97d3322b5ffe9ec5885b952098baa&#45;&gt;dir_cd166ded320aef6ec75102a3779bae14 -->
<g id="edge36" class="edge">
<title>dir_04c97d3322b5ffe9ec5885b952098baa&#45;&gt;dir_cd166ded320aef6ec75102a3779bae14</title>
<g id="a_edge36"><a xlink:href="dir_000035_000036.html" target="_top">
<path fill="none" stroke="#63b8ff" d="M561,-70.75C561,-63.8 561,-53.85 561,-45.13"/>
<polygon fill="#63b8ff" stroke="#63b8ff" points="564.5,-45.09 561,-35.09 557.5,-45.09 564.5,-45.09"/>
</a>
</g>
<g id="a_edge36&#45;headlabel"><a xlink:href="dir_000035_000036.html" target="_top" xlink:title="3">
<text text-anchor="middle" x="567.34" y="-46.18" font-family="Helvetica,sans-Serif" font-size="10.00" fill="#63b8ff">3</text>
</a>
</g>
</g>
<!-- dir_079f3dfffeb9e770010097b0dd1334eb&#45;&gt;dir_aeca43db7a276eb6dbfba1f93dc4539c -->
<g id="edge37" class="edge">
<title>dir_079f3dfffeb9e770010097b0dd1334eb&#45;&gt;dir_aeca43db7a276eb6dbfba1f93dc4539c</title>
<g id="a_edge37"><a xlink:href="dir_000038_000039.html" target="_top">
<path fill="none" stroke="#63b8ff" d="M401.52,-70.98C392.8,-63.15 379.66,-51.34 369.1,-41.86"/>
<polygon fill="#63b8ff" stroke="#63b8ff" points="371.43,-39.25 361.65,-35.17 366.75,-44.46 371.43,-39.25"/>
</a>
</g>
<g id="a_edge37&#45;headlabel"><a xlink:href="dir_000038_000039.html" target="_top" xlink:title="3">
<text text-anchor="middle" x="376" y="-37.04" font-family="Helvetica,sans-Serif" font-size="10.00" fill="#63b8ff">3</text>
</a>
</g>
</g>
</g>
</svg>
