<?xml version="1.0" encoding="UTF-8" standalone="no"?>
<!DOCTYPE svg PUBLIC "-//W3C//DTD SVG 1.1//EN"
 "http://www.w3.org/Graphics/SVG/1.1/DTD/svg11.dtd">
<!-- Generated by graphviz version 2.43.0 (0)
 -->
<!-- Title: include/phasar/DataFlow/Mono Pages: 1 -->
<svg width="554pt" height="180pt"
 viewBox="0.00 0.00 553.50 180.37" xmlns="http://www.w3.org/2000/svg" xmlns:xlink="http://www.w3.org/1999/xlink">
<g id="graph0" class="graph" transform="scale(1 1) rotate(0) translate(4 176.37)">
<title>include/phasar/DataFlow/Mono</title>
<g id="clust1" class="cluster">
<title>clusterdir_69cf206f122d9153ac8b30a0f4a917bf</title>
<g id="a_clust1"><a xlink:href="dir_69cf206f122d9153ac8b30a0f4a917bf.html" target="_top" xlink:title="DataFlow">
<polygon fill="#edf0f7" stroke="#7f7f7f" stroke-dasharray="5,2" points="8,-39.37 8,-164.37 150,-164.37 150,-39.37 8,-39.37"/>
<text text-anchor="middle" x="79" y="-152.37" font-family="Helvetica,sans-Serif" font-size="10.00">DataFlow</text>
</a>
</g>
</g>
<g id="clust2" class="cluster">
<title>clusterdir_a4174b107418faba67c63e7c8c75c1c7</title>
<g id="a_clust2"><a xlink:href="dir_a4174b107418faba67c63e7c8c75c1c7.html" target="_top">
<polygon fill="#edf0f7" stroke="#404040" stroke-width="2" points="16,-47.37 16,-137.37 142,-137.37 142,-47.37 16,-47.37"/>
</a>
</g>
</g>
<!-- dir_a4174b107418faba67c63e7c8c75c1c7 -->
<g id="node1" class="node">
<title>dir_a4174b107418faba67c63e7c8c75c1c7</title>
<text text-anchor="middle" x="46" y="-117.37" font-family="Helvetica,sans-Serif" font-size="10.00">Mono</text>
</g>
<!-- dir_15b1266ec3c6694d64b0cfc160192d3b -->
<g id="node4" class="node">
<title>dir_15b1266ec3c6694d64b0cfc160192d3b</title>
<g id="a_node4"><a xlink:href="dir_15b1266ec3c6694d64b0cfc160192d3b.html" target="_top" xlink:title="Domain">
<polygon fill="#edf0f7" stroke="#7f7f7f" points="344.5,-74.37 289.5,-74.37 289.5,-55.37 344.5,-55.37 344.5,-74.37"/>
<text text-anchor="middle" x="317" y="-62.37" font-family="Helvetica,sans-Serif" font-size="10.00">Domain</text>
</a>
</g>
</g>
<!-- dir_a4174b107418faba67c63e7c8c75c1c7&#45;&gt;dir_15b1266ec3c6694d64b0cfc160192d3b -->
<g id="edge1" class="edge">
<title>dir_a4174b107418faba67c63e7c8c75c1c7&#45;&gt;dir_15b1266ec3c6694d64b0cfc160192d3b</title>
<g id="a_edge1"><a xlink:href="dir_000017_000010.html" target="_top">
<path fill="none" stroke="#63b8ff" d="M68.32,-112.7C71.56,-111.88 74.86,-111.08 78,-110.37 164.86,-90.93 187.6,-91.2 275,-74.37 276.46,-74.09 277.95,-73.8 279.45,-73.51"/>
<polygon fill="#63b8ff" stroke="#63b8ff" points="280.32,-76.9 289.45,-71.53 278.96,-70.04 280.32,-76.9"/>
</a>
</g>
<g id="a_edge1&#45;headlabel"><a xlink:href="dir_000017_000010.html" target="_top" xlink:title="1">
<text text-anchor="middle" x="277.35" y="-77.89" font-family="Helvetica,sans-Serif" font-size="10.00" fill="#63b8ff">1</text>
</a>
</g>
</g>
<!-- dir_58a8bb8411baaae7f5177ea38c71ea73 -->
<g id="node5" class="node">
<title>dir_58a8bb8411baaae7f5177ea38c71ea73</title>
<g id="a_node5"><a xlink:href="dir_58a8bb8411baaae7f5177ea38c71ea73.html" target="_top" xlink:title="Pointer">
<polygon fill="#edf0f7" stroke="#7f7f7f" points="413.5,-74.37 362.5,-74.37 362.5,-55.37 413.5,-55.37 413.5,-74.37"/>
<text text-anchor="middle" x="388" y="-62.37" font-family="Helvetica,sans-Serif" font-size="10.00">Pointer</text>
</a>
</g>
</g>
<!-- dir_a4174b107418faba67c63e7c8c75c1c7&#45;&gt;dir_58a8bb8411baaae7f5177ea38c71ea73 -->
<g id="edge2" class="edge">
<title>dir_a4174b107418faba67c63e7c8c75c1c7&#45;&gt;dir_58a8bb8411baaae7f5177ea38c71ea73</title>
<g id="a_edge2"><a xlink:href="dir_000017_000027.html" target="_top">
<path fill="none" stroke="#63b8ff" d="M68.29,-112.56C71.53,-111.75 74.84,-111 78,-110.37 196.17,-87.07 230.65,-96.86 352.37,-74.49"/>
<polygon fill="#63b8ff" stroke="#63b8ff" points="353.27,-77.88 362.45,-72.6 351.98,-71 353.27,-77.88"/>
</a>
</g>
<g id="a_edge2&#45;headlabel"><a xlink:href="dir_000017_000027.html" target="_top" xlink:title="2">
<text text-anchor="middle" x="350.26" y="-78.83" font-family="Helvetica,sans-Serif" font-size="10.00" fill="#63b8ff">2</text>
</a>
</g>
</g>
<!-- dir_9d06c2f3a5ac32ab80fc048d7ff16b35 -->
<g id="node6" class="node">
<title>dir_9d06c2f3a5ac32ab80fc048d7ff16b35</title>
<g id="a_node6"><a xlink:href="dir_9d06c2f3a5ac32ab80fc048d7ff16b35.html" target="_top" xlink:title="ControlFlow">
<polygon fill="#edf0f7" stroke="#7f7f7f" points="232.5,-74.37 157.5,-74.37 157.5,-55.37 232.5,-55.37 232.5,-74.37"/>
<text text-anchor="middle" x="195" y="-62.37" font-family="Helvetica,sans-Serif" font-size="10.00">ControlFlow</text>
</a>
</g>
</g>
<!-- dir_a4174b107418faba67c63e7c8c75c1c7&#45;&gt;dir_9d06c2f3a5ac32ab80fc048d7ff16b35 -->
<g id="edge3" class="edge">
<title>dir_a4174b107418faba67c63e7c8c75c1c7&#45;&gt;dir_9d06c2f3a5ac32ab80fc048d7ff16b35</title>
<g id="a_edge3"><a xlink:href="dir_000017_000003.html" target="_top">
<path fill="none" stroke="#63b8ff" d="M68.31,-110.94C93,-102.16 133.06,-87.91 161.52,-77.78"/>
<polygon fill="#63b8ff" stroke="#63b8ff" points="162.81,-81.04 171.06,-74.39 160.46,-74.44 162.81,-81.04"/>
</a>
</g>
<g id="a_edge3&#45;headlabel"><a xlink:href="dir_000017_000003.html" target="_top" xlink:title="2">
<text text-anchor="middle" x="160.37" y="-82.42" font-family="Helvetica,sans-Serif" font-size="10.00" fill="#63b8ff">2</text>
</a>
</g>
</g>
<!-- dir_aeca43db7a276eb6dbfba1f93dc4539c -->
<g id="node7" class="node">
<title>dir_aeca43db7a276eb6dbfba1f93dc4539c</title>
<g id="a_node7"><a xlink:href="dir_aeca43db7a276eb6dbfba1f93dc4539c.html" target="_top" xlink:title="Utils">
<polygon fill="#edf0f7" stroke="#7f7f7f" points="280.5,-19.37 241.5,-19.37 241.5,-0.37 280.5,-0.37 280.5,-19.37"/>
<text text-anchor="middle" x="261" y="-7.37" font-family="Helvetica,sans-Serif" font-size="10.00">Utils</text>
</a>
</g>
</g>
<!-- dir_a4174b107418faba67c63e7c8c75c1c7&#45;&gt;dir_aeca43db7a276eb6dbfba1f93dc4539c -->
<g id="edge4" class="edge">
<title>dir_a4174b107418faba67c63e7c8c75c1c7&#45;&gt;dir_aeca43db7a276eb6dbfba1f93dc4539c</title>
<g id="a_edge4"><a xlink:href="dir_000017_000039.html" target="_top">
<path fill="none" stroke="#63b8ff" d="M68,-112.89C71.35,-112.02 74.76,-111.16 78,-110.37 150.52,-92.79 187.3,-125.13 242,-74.37 254.25,-63.01 258.71,-44.11 260.29,-29.88"/>
<polygon fill="#63b8ff" stroke="#63b8ff" points="263.79,-29.92 261.02,-19.7 256.81,-29.42 263.79,-29.92"/>
</a>
</g>
<g id="a_edge4&#45;headlabel"><a xlink:href="dir_000017_000039.html" target="_top" xlink:title="6">
<text text-anchor="middle" x="266.36" y="-31.21" font-family="Helvetica,sans-Serif" font-size="10.00" fill="#63b8ff">6</text>
</a>
</g>
</g>
<!-- dir_bee63b914a421a13f9e8412264dd119f -->
<g id="node2" class="node">
<title>dir_bee63b914a421a13f9e8412264dd119f</title>
<g id="a_node2"><a xlink:href="dir_bee63b914a421a13f9e8412264dd119f.html" target="_top" xlink:title="Contexts">
<polygon fill="#a2b4d6" stroke="#404040" points="134,-74.37 74,-74.37 74,-55.37 134,-55.37 134,-74.37"/>
<text text-anchor="middle" x="104" y="-62.37" font-family="Helvetica,sans-Serif" font-size="10.00">Contexts</text>
</a>
</g>
</g>
<!-- dir_bee63b914a421a13f9e8412264dd119f&#45;&gt;dir_aeca43db7a276eb6dbfba1f93dc4539c -->
<g id="edge5" class="edge">
<title>dir_bee63b914a421a13f9e8412264dd119f&#45;&gt;dir_aeca43db7a276eb6dbfba1f93dc4539c</title>
<g id="a_edge5"><a xlink:href="dir_000002_000039.html" target="_top">
<path fill="none" stroke="#63b8ff" d="M117.75,-55.22C126.45,-50.04 138.07,-43.66 149,-39.37 176.05,-28.76 208.34,-21.03 231.28,-16.33"/>
<polygon fill="#63b8ff" stroke="#63b8ff" points="231.98,-19.75 241.11,-14.37 230.62,-12.89 231.98,-19.75"/>
</a>
</g>
<g id="a_edge5&#45;headlabel"><a xlink:href="dir_000002_000039.html" target="_top" xlink:title="1">
<text text-anchor="middle" x="229.01" y="-20.74" font-family="Helvetica,sans-Serif" font-size="10.00" fill="#63b8ff">1</text>
</a>
</g>
</g>
<!-- dir_de6d80efff8ed98d89fc40fee9fde726 -->
<g id="node3" class="node">
<title>dir_de6d80efff8ed98d89fc40fee9fde726</title>
<g id="a_node3"><a xlink:href="dir_de6d80efff8ed98d89fc40fee9fde726.html" target="_top" xlink:title="Solver">
<polygon fill="#a2b4d6" stroke="#404040" points="133.5,-129.37 86.5,-129.37 86.5,-110.37 133.5,-110.37 133.5,-129.37"/>
<text text-anchor="middle" x="110" y="-117.37" font-family="Helvetica,sans-Serif" font-size="10.00">Solver</text>
</a>
</g>
</g>
<!-- dir_de6d80efff8ed98d89fc40fee9fde726&#45;&gt;dir_bee63b914a421a13f9e8412264dd119f -->
<g id="edge8" class="edge">
<title>dir_de6d80efff8ed98d89fc40fee9fde726&#45;&gt;dir_bee63b914a421a13f9e8412264dd119f</title>
<g id="a_edge8"><a xlink:href="dir_000032_000002.html" target="_top">
<path fill="none" stroke="#63b8ff" d="M109.01,-110.12C108.22,-103.17 107.1,-93.22 106.11,-84.51"/>
<polygon fill="#63b8ff" stroke="#63b8ff" points="109.58,-84 104.97,-74.46 102.62,-84.79 109.58,-84"/>
</a>
</g>
<g id="a_edge8&#45;headlabel"><a xlink:href="dir_000032_000002.html" target="_top" xlink:title="1">
<text text-anchor="middle" x="112.8" y="-84.76" font-family="Helvetica,sans-Serif" font-size="10.00" fill="#63b8ff">1</text>
</a>
</g>
</g>
<!-- dir_de6d80efff8ed98d89fc40fee9fde726&#45;&gt;dir_aeca43db7a276eb6dbfba1f93dc4539c -->
<g id="edge7" class="edge">
<title>dir_de6d80efff8ed98d89fc40fee9fde726&#45;&gt;dir_aeca43db7a276eb6dbfba1f93dc4539c</title>
<g id="a_edge7"><a xlink:href="dir_000032_000039.html" target="_top">
<path fill="none" stroke="#63b8ff" d="M133.98,-119.3C200.58,-119.94 385.41,-117.69 423,-74.37 433.2,-62.62 433,-51.29 423,-39.37 406.45,-19.65 332.85,-13.57 290.77,-11.7"/>
<polygon fill="#63b8ff" stroke="#63b8ff" points="290.69,-8.2 280.56,-11.3 290.42,-15.19 290.69,-8.2"/>
</a>
</g>
<g id="a_edge7&#45;headlabel"><a xlink:href="dir_000032_000039.html" target="_top" xlink:title="2">
<text text-anchor="middle" x="294.39" y="-3" font-family="Helvetica,sans-Serif" font-size="10.00" fill="#63b8ff">2</text>
</a>
</g>
</g>
<!-- dir_6556945d274d6e1e874171d9d575b3f4 -->
<g id="node8" class="node">
<title>dir_6556945d274d6e1e874171d9d575b3f4</title>
<g id="a_node8"><a xlink:href="dir_6556945d274d6e1e874171d9d575b3f4.html" target="_top" xlink:title="PhasarLLVM">
<polygon fill="#edf0f7" stroke="red" stroke-dasharray="5,2" points="545.5,-74.37 470.5,-74.37 470.5,-55.37 545.5,-55.37 545.5,-74.37"/>
<text text-anchor="middle" x="508" y="-62.37" font-family="Helvetica,sans-Serif" font-size="10.00">PhasarLLVM</text>
</a>
</g>
</g>
<!-- dir_de6d80efff8ed98d89fc40fee9fde726&#45;&gt;dir_6556945d274d6e1e874171d9d575b3f4 -->
<g id="edge6" class="edge">
<title>dir_de6d80efff8ed98d89fc40fee9fde726&#45;&gt;dir_6556945d274d6e1e874171d9d575b3f4</title>
<g id="a_edge6"><a xlink:href="dir_000032_000024.html" target="_top">
<path fill="none" stroke="#63b8ff" d="M133.53,-116.13C189.5,-109.54 334.94,-92.05 456,-74.37 457.3,-74.18 458.61,-73.99 459.94,-73.79"/>
<polygon fill="#63b8ff" stroke="#63b8ff" points="460.9,-77.18 470.25,-72.2 459.83,-70.26 460.9,-77.18"/>
</a>
</g>
<g id="a_edge6&#45;headlabel"><a xlink:href="dir_000032_000024.html" target="_top" xlink:title="1">
<text text-anchor="middle" x="457.78" y="-78.04" font-family="Helvetica,sans-Serif" font-size="10.00" fill="#63b8ff">1</text>
</a>
</g>
</g>
</g>
</svg>
