<?xml version="1.0" encoding="UTF-8" standalone="no"?>
<!DOCTYPE svg PUBLIC "-//W3C//DTD SVG 1.1//EN"
 "http://www.w3.org/Graphics/SVG/1.1/DTD/svg11.dtd">
<!-- Generated by graphviz version 2.43.0 (0)
 -->
<!-- Title: include/phasar/DataFlow/Mono Pages: 1 -->
<svg width="420pt" height="181pt"
 viewBox="0.00 0.00 419.74 180.56" xmlns="http://www.w3.org/2000/svg" xmlns:xlink="http://www.w3.org/1999/xlink">
<g id="graph0" class="graph" transform="scale(1 1) rotate(0) translate(4 176.56)">
<title>include/phasar/DataFlow/Mono</title>
<g id="clust1" class="cluster">
<title>clusterdir_69cf206f122d9153ac8b30a0f4a917bf</title>
<g id="a_clust1"><a xlink:href="dir_69cf206f122d9153ac8b30a0f4a917bf.html" target="_top" xlink:title="DataFlow">
<polygon fill="#edf0f7" stroke="#7f7f7f" stroke-dasharray="5,2" points="8,-39.56 8,-164.56 150,-164.56 150,-39.56 8,-39.56"/>
<text text-anchor="middle" x="79" y="-152.56" font-family="Helvetica,sans-Serif" font-size="10.00">DataFlow</text>
</a>
</g>
</g>
<g id="clust2" class="cluster">
<title>clusterdir_a4174b107418faba67c63e7c8c75c1c7</title>
<g id="a_clust2"><a xlink:href="dir_a4174b107418faba67c63e7c8c75c1c7.html" target="_top">
<polygon fill="#edf0f7" stroke="#404040" stroke-width="2" points="16,-47.56 16,-137.56 142,-137.56 142,-47.56 16,-47.56"/>
</a>
</g>
</g>
<!-- dir_a4174b107418faba67c63e7c8c75c1c7 -->
<g id="node1" class="node">
<title>dir_a4174b107418faba67c63e7c8c75c1c7</title>
<text text-anchor="middle" x="112" y="-117.56" font-family="Helvetica,sans-Serif" font-size="10.00">Mono</text>
</g>
<!-- dir_58a8bb8411baaae7f5177ea38c71ea73 -->
<g id="node4" class="node">
<title>dir_58a8bb8411baaae7f5177ea38c71ea73</title>
<g id="a_node4"><a xlink:href="dir_58a8bb8411baaae7f5177ea38c71ea73.html" target="_top" xlink:title="Pointer">
<polygon fill="#edf0f7" stroke="#7f7f7f" points="301.5,-74.56 250.5,-74.56 250.5,-55.56 301.5,-55.56 301.5,-74.56"/>
<text text-anchor="middle" x="276" y="-62.56" font-family="Helvetica,sans-Serif" font-size="10.00">Pointer</text>
</a>
</g>
</g>
<!-- dir_a4174b107418faba67c63e7c8c75c1c7&#45;&gt;dir_58a8bb8411baaae7f5177ea38c71ea73 -->
<g id="edge1" class="edge">
<title>dir_a4174b107418faba67c63e7c8c75c1c7&#45;&gt;dir_58a8bb8411baaae7f5177ea38c71ea73</title>
<g id="a_edge1"><a xlink:href="dir_000017_000027.html" target="_top">
<path fill="none" stroke="#63b8ff" d="M134.12,-111.92C161.53,-103.06 208.58,-87.85 240.94,-77.39"/>
<polygon fill="#63b8ff" stroke="#63b8ff" points="242.03,-80.72 250.47,-74.31 239.88,-74.06 242.03,-80.72"/>
</a>
</g>
<g id="a_edge1&#45;headlabel"><a xlink:href="dir_000017_000027.html" target="_top" xlink:title="2">
<text text-anchor="middle" x="239.48" y="-82.03" font-family="Helvetica,sans-Serif" font-size="10.00" fill="#63b8ff">2</text>
</a>
</g>
</g>
<!-- dir_6556945d274d6e1e874171d9d575b3f4 -->
<g id="node5" class="node">
<title>dir_6556945d274d6e1e874171d9d575b3f4</title>
<g id="a_node5"><a xlink:href="dir_6556945d274d6e1e874171d9d575b3f4.html" target="_top" xlink:title="PhasarLLVM">
<polygon fill="#edf0f7" stroke="red" stroke-dasharray="5,2" points="232.5,-74.56 157.5,-74.56 157.5,-55.56 232.5,-55.56 232.5,-74.56"/>
<text text-anchor="middle" x="195" y="-62.56" font-family="Helvetica,sans-Serif" font-size="10.00">PhasarLLVM</text>
</a>
</g>
</g>
<!-- dir_a4174b107418faba67c63e7c8c75c1c7&#45;&gt;dir_6556945d274d6e1e874171d9d575b3f4 -->
<g id="edge2" class="edge">
<title>dir_a4174b107418faba67c63e7c8c75c1c7&#45;&gt;dir_6556945d274d6e1e874171d9d575b3f4</title>
<g id="a_edge2"><a xlink:href="dir_000017_000024.html" target="_top">
<path fill="none" stroke="#63b8ff" d="M125.34,-110.55C138.09,-102.41 157.55,-89.98 172.67,-80.32"/>
<polygon fill="#63b8ff" stroke="#63b8ff" points="174.88,-83.07 181.42,-74.73 171.11,-77.17 174.88,-83.07"/>
</a>
</g>
<g id="a_edge2&#45;headlabel"><a xlink:href="dir_000017_000024.html" target="_top" xlink:title="2">
<text text-anchor="middle" x="173.38" y="-84.89" font-family="Helvetica,sans-Serif" font-size="10.00" fill="#63b8ff">2</text>
</a>
</g>
</g>
<!-- dir_9d06c2f3a5ac32ab80fc048d7ff16b35 -->
<g id="node6" class="node">
<title>dir_9d06c2f3a5ac32ab80fc048d7ff16b35</title>
<g id="a_node6"><a xlink:href="dir_9d06c2f3a5ac32ab80fc048d7ff16b35.html" target="_top" xlink:title="ControlFlow">
<polygon fill="#edf0f7" stroke="#7f7f7f" points="394.5,-74.56 319.5,-74.56 319.5,-55.56 394.5,-55.56 394.5,-74.56"/>
<text text-anchor="middle" x="357" y="-62.56" font-family="Helvetica,sans-Serif" font-size="10.00">ControlFlow</text>
</a>
</g>
</g>
<!-- dir_a4174b107418faba67c63e7c8c75c1c7&#45;&gt;dir_9d06c2f3a5ac32ab80fc048d7ff16b35 -->
<g id="edge3" class="edge">
<title>dir_a4174b107418faba67c63e7c8c75c1c7&#45;&gt;dir_9d06c2f3a5ac32ab80fc048d7ff16b35</title>
<g id="a_edge3"><a xlink:href="dir_000017_000003.html" target="_top">
<path fill="none" stroke="#63b8ff" d="M134.17,-114.27C173.57,-105.74 256.57,-87.79 309.41,-76.36"/>
<polygon fill="#63b8ff" stroke="#63b8ff" points="310.19,-79.77 319.23,-74.23 308.71,-72.93 310.19,-79.77"/>
</a>
</g>
<g id="a_edge3&#45;headlabel"><a xlink:href="dir_000017_000003.html" target="_top" xlink:title="2">
<text text-anchor="middle" x="307.28" y="-80.81" font-family="Helvetica,sans-Serif" font-size="10.00" fill="#63b8ff">2</text>
</a>
</g>
</g>
<!-- dir_aeca43db7a276eb6dbfba1f93dc4539c -->
<g id="node7" class="node">
<title>dir_aeca43db7a276eb6dbfba1f93dc4539c</title>
<g id="a_node7"><a xlink:href="dir_aeca43db7a276eb6dbfba1f93dc4539c.html" target="_top" xlink:title="Utils">
<polygon fill="#edf0f7" stroke="#7f7f7f" points="131.5,-19.56 92.5,-19.56 92.5,-0.56 131.5,-0.56 131.5,-19.56"/>
<text text-anchor="middle" x="112" y="-7.56" font-family="Helvetica,sans-Serif" font-size="10.00">Utils</text>
</a>
</g>
</g>
<!-- dir_a4174b107418faba67c63e7c8c75c1c7&#45;&gt;dir_aeca43db7a276eb6dbfba1f93dc4539c -->
<g id="edge4" class="edge">
<title>dir_a4174b107418faba67c63e7c8c75c1c7&#45;&gt;dir_aeca43db7a276eb6dbfba1f93dc4539c</title>
<g id="a_edge4"><a xlink:href="dir_000017_000039.html" target="_top">
<path fill="none" stroke="#63b8ff" d="M134.38,-119.22C196.55,-119.15 369.08,-115.21 404,-74.56 414.14,-62.76 414.45,-51.08 404,-39.56 386.58,-20.37 212.26,-13.68 141.56,-11.74"/>
<polygon fill="#63b8ff" stroke="#63b8ff" points="141.61,-8.24 131.52,-11.48 141.43,-15.24 141.61,-8.24"/>
</a>
</g>
<g id="a_edge4&#45;headlabel"><a xlink:href="dir_000017_000039.html" target="_top" xlink:title="6">
<text text-anchor="middle" x="145.28" y="-3" font-family="Helvetica,sans-Serif" font-size="10.00" fill="#63b8ff">6</text>
</a>
</g>
</g>
<!-- dir_bee63b914a421a13f9e8412264dd119f -->
<g id="node2" class="node">
<title>dir_bee63b914a421a13f9e8412264dd119f</title>
<g id="a_node2"><a xlink:href="dir_bee63b914a421a13f9e8412264dd119f.html" target="_top" xlink:title="Contexts">
<polygon fill="#a2b4d6" stroke="#404040" points="84,-74.56 24,-74.56 24,-55.56 84,-55.56 84,-74.56"/>
<text text-anchor="middle" x="54" y="-62.56" font-family="Helvetica,sans-Serif" font-size="10.00">Contexts</text>
</a>
</g>
</g>
<!-- dir_bee63b914a421a13f9e8412264dd119f&#45;&gt;dir_aeca43db7a276eb6dbfba1f93dc4539c -->
<g id="edge5" class="edge">
<title>dir_bee63b914a421a13f9e8412264dd119f&#45;&gt;dir_aeca43db7a276eb6dbfba1f93dc4539c</title>
<g id="a_edge5"><a xlink:href="dir_000002_000039.html" target="_top">
<path fill="none" stroke="#63b8ff" d="M63.32,-55.55C71.81,-47.79 84.56,-36.14 94.88,-26.71"/>
<polygon fill="#63b8ff" stroke="#63b8ff" points="97.49,-29.06 102.51,-19.73 92.77,-23.9 97.49,-29.06"/>
</a>
</g>
<g id="a_edge5&#45;headlabel"><a xlink:href="dir_000002_000039.html" target="_top" xlink:title="1">
<text text-anchor="middle" x="96.75" y="-31.08" font-family="Helvetica,sans-Serif" font-size="10.00" fill="#63b8ff">1</text>
</a>
</g>
</g>
<!-- dir_de6d80efff8ed98d89fc40fee9fde726 -->
<g id="node3" class="node">
<title>dir_de6d80efff8ed98d89fc40fee9fde726</title>
<g id="a_node3"><a xlink:href="dir_de6d80efff8ed98d89fc40fee9fde726.html" target="_top" xlink:title="Solver">
<polygon fill="#a2b4d6" stroke="#404040" points="71.5,-129.56 24.5,-129.56 24.5,-110.56 71.5,-110.56 71.5,-129.56"/>
<text text-anchor="middle" x="48" y="-117.56" font-family="Helvetica,sans-Serif" font-size="10.00">Solver</text>
</a>
</g>
</g>
<!-- dir_de6d80efff8ed98d89fc40fee9fde726&#45;&gt;dir_bee63b914a421a13f9e8412264dd119f -->
<g id="edge8" class="edge">
<title>dir_de6d80efff8ed98d89fc40fee9fde726&#45;&gt;dir_bee63b914a421a13f9e8412264dd119f</title>
<g id="a_edge8"><a xlink:href="dir_000032_000002.html" target="_top">
<path fill="none" stroke="#63b8ff" d="M48.99,-110.31C49.78,-103.37 50.9,-93.41 51.89,-84.7"/>
<polygon fill="#63b8ff" stroke="#63b8ff" points="55.38,-84.98 53.03,-74.65 48.42,-84.2 55.38,-84.98"/>
</a>
</g>
<g id="a_edge8&#45;headlabel"><a xlink:href="dir_000032_000002.html" target="_top" xlink:title="1">
<text text-anchor="middle" x="57.8" y="-86.37" font-family="Helvetica,sans-Serif" font-size="10.00" fill="#63b8ff">1</text>
</a>
</g>
</g>
<!-- dir_de6d80efff8ed98d89fc40fee9fde726&#45;&gt;dir_6556945d274d6e1e874171d9d575b3f4 -->
<g id="edge6" class="edge">
<title>dir_de6d80efff8ed98d89fc40fee9fde726&#45;&gt;dir_6556945d274d6e1e874171d9d575b3f4</title>
<g id="a_edge6"><a xlink:href="dir_000032_000024.html" target="_top">
<path fill="none" stroke="#63b8ff" d="M71.62,-110.55C95.9,-101.79 133.95,-88.07 161.37,-78.19"/>
<polygon fill="#63b8ff" stroke="#63b8ff" points="162.73,-81.42 170.95,-74.73 160.36,-74.83 162.73,-81.42"/>
</a>
</g>
<g id="a_edge6&#45;headlabel"><a xlink:href="dir_000032_000024.html" target="_top" xlink:title="1">
<text text-anchor="middle" x="160.31" y="-82.81" font-family="Helvetica,sans-Serif" font-size="10.00" fill="#63b8ff">1</text>
</a>
</g>
</g>
<!-- dir_de6d80efff8ed98d89fc40fee9fde726&#45;&gt;dir_aeca43db7a276eb6dbfba1f93dc4539c -->
<g id="edge7" class="edge">
<title>dir_de6d80efff8ed98d89fc40fee9fde726&#45;&gt;dir_aeca43db7a276eb6dbfba1f93dc4539c</title>
<g id="a_edge7"><a xlink:href="dir_000032_000039.html" target="_top">
<path fill="none" stroke="#63b8ff" d="M59.59,-110.41C69.77,-102.23 84.29,-89.07 93,-74.56 101.33,-60.69 106.24,-42.9 108.98,-29.68"/>
<polygon fill="#63b8ff" stroke="#63b8ff" points="112.42,-30.3 110.79,-19.84 105.54,-29.04 112.42,-30.3"/>
</a>
</g>
<g id="a_edge7&#45;headlabel"><a xlink:href="dir_000032_000039.html" target="_top" xlink:title="2">
<text text-anchor="middle" x="114.56" y="-31.85" font-family="Helvetica,sans-Serif" font-size="10.00" fill="#63b8ff">2</text>
</a>
</g>
</g>
</g>
</svg>
