<?xml version="1.0" encoding="UTF-8" standalone="no"?>
<!DOCTYPE svg PUBLIC "-//W3C//DTD SVG 1.1//EN"
 "http://www.w3.org/Graphics/SVG/1.1/DTD/svg11.dtd">
<!-- Generated by graphviz version 2.43.0 (0)
 -->
<!-- Title: include/phasar/PhasarLLVM/ControlFlow Pages: 1 -->
<svg width="512pt" height="196pt"
 viewBox="0.00 0.00 511.50 196.00" xmlns="http://www.w3.org/2000/svg" xmlns:xlink="http://www.w3.org/1999/xlink">
<g id="graph0" class="graph" transform="scale(1 1) rotate(0) translate(4 192)">
<title>include/phasar/PhasarLLVM/ControlFlow</title>
<g id="clust1" class="cluster">
<title>clusterdir_6556945d274d6e1e874171d9d575b3f4</title>
<g id="a_clust1"><a xlink:href="dir_6556945d274d6e1e874171d9d575b3f4.html" target="_top" xlink:title="PhasarLLVM">
<polygon fill="#edf0f7" stroke="#7f7f7f" stroke-dasharray="5,2" points="8,-8 8,-180 364,-180 364,-8 8,-8"/>
<text text-anchor="middle" x="186" y="-168" font-family="Helvetica,sans-Serif" font-size="10.00">PhasarLLVM</text>
</a>
</g>
</g>
<g id="clust2" class="cluster">
<title>clusterdir_0bc4dee926a629f715a9261d8d248ef6</title>
<g id="a_clust2"><a xlink:href="dir_0bc4dee926a629f715a9261d8d248ef6.html" target="_top">
<polygon fill="#edf0f7" stroke="#404040" stroke-width="2" points="188,-63 188,-153 356,-153 356,-63 188,-63"/>
</a>
</g>
</g>
<!-- dir_0133e64b3a4c854b47f86a7b8e0c9983 -->
<g id="node1" class="node">
<title>dir_0133e64b3a4c854b47f86a7b8e0c9983</title>
<g id="a_node1"><a xlink:href="dir_0133e64b3a4c854b47f86a7b8e0c9983.html" target="_top" xlink:title="Pointer">
<polygon fill="#a2b4d6" stroke="red" points="318.5,-35 267.5,-35 267.5,-16 318.5,-16 318.5,-35"/>
<text text-anchor="middle" x="293" y="-23" font-family="Helvetica,sans-Serif" font-size="10.00">Pointer</text>
</a>
</g>
</g>
<!-- dir_04c97d3322b5ffe9ec5885b952098baa -->
<g id="node2" class="node">
<title>dir_04c97d3322b5ffe9ec5885b952098baa</title>
<g id="a_node2"><a xlink:href="dir_04c97d3322b5ffe9ec5885b952098baa.html" target="_top" xlink:title="TypeHierarchy">
<polygon fill="#a2b4d6" stroke="#404040" points="180,-90 94,-90 94,-71 180,-71 180,-90"/>
<text text-anchor="middle" x="137" y="-78" font-family="Helvetica,sans-Serif" font-size="10.00">TypeHierarchy</text>
</a>
</g>
</g>
<!-- dir_079f3dfffeb9e770010097b0dd1334eb -->
<g id="node3" class="node">
<title>dir_079f3dfffeb9e770010097b0dd1334eb</title>
<g id="a_node3"><a xlink:href="dir_079f3dfffeb9e770010097b0dd1334eb.html" target="_top" xlink:title="Utils">
<polygon fill="#a2b4d6" stroke="#404040" points="55.5,-90 16.5,-90 16.5,-71 55.5,-71 55.5,-90"/>
<text text-anchor="middle" x="36" y="-78" font-family="Helvetica,sans-Serif" font-size="10.00">Utils</text>
</a>
</g>
</g>
<!-- dir_0bc4dee926a629f715a9261d8d248ef6 -->
<g id="node4" class="node">
<title>dir_0bc4dee926a629f715a9261d8d248ef6</title>
<text text-anchor="middle" x="233" y="-133" font-family="Helvetica,sans-Serif" font-size="10.00">ControlFlow</text>
</g>
<!-- dir_0bc4dee926a629f715a9261d8d248ef6&#45;&gt;dir_0133e64b3a4c854b47f86a7b8e0c9983 -->
<g id="edge1" class="edge">
<title>dir_0bc4dee926a629f715a9261d8d248ef6&#45;&gt;dir_0133e64b3a4c854b47f86a7b8e0c9983</title>
<g id="a_edge1"><a xlink:href="dir_000004_000026.html" target="_top">
<path fill="none" stroke="#63b8ff" d="M195.12,-130.06C140.98,-122.24 51.51,-102.88 85,-63 106.55,-37.34 203.39,-29.71 257,-27.45"/>
<polygon fill="#63b8ff" stroke="#63b8ff" points="257.25,-30.94 267.11,-27.07 256.99,-23.95 257.25,-30.94"/>
</a>
</g>
<g id="a_edge1&#45;headlabel"><a xlink:href="dir_000004_000026.html" target="_top" xlink:title="7">
<text text-anchor="middle" x="253.77" y="-31.42" font-family="Helvetica,sans-Serif" font-size="10.00" fill="#63b8ff">7</text>
</a>
</g>
</g>
<!-- dir_0bc4dee926a629f715a9261d8d248ef6&#45;&gt;dir_04c97d3322b5ffe9ec5885b952098baa -->
<g id="edge2" class="edge">
<title>dir_0bc4dee926a629f715a9261d8d248ef6&#45;&gt;dir_04c97d3322b5ffe9ec5885b952098baa</title>
<g id="a_edge2"><a xlink:href="dir_000004_000035.html" target="_top">
<path fill="none" stroke="#63b8ff" d="M217.58,-125.98C202.55,-117.69 179.46,-104.94 161.84,-95.22"/>
<polygon fill="#63b8ff" stroke="#63b8ff" points="163.15,-91.94 152.7,-90.17 159.77,-98.07 163.15,-91.94"/>
</a>
</g>
<g id="a_edge2&#45;headlabel"><a xlink:href="dir_000004_000035.html" target="_top" xlink:title="1">
<text text-anchor="middle" x="167.67" y="-88.69" font-family="Helvetica,sans-Serif" font-size="10.00" fill="#63b8ff">1</text>
</a>
</g>
</g>
<!-- dir_0bc4dee926a629f715a9261d8d248ef6&#45;&gt;dir_079f3dfffeb9e770010097b0dd1334eb -->
<g id="edge3" class="edge">
<title>dir_0bc4dee926a629f715a9261d8d248ef6&#45;&gt;dir_079f3dfffeb9e770010097b0dd1334eb</title>
<g id="a_edge3"><a xlink:href="dir_000004_000038.html" target="_top">
<path fill="none" stroke="#63b8ff" d="M201.35,-125.98C163.93,-115.92 102.14,-99.29 65.63,-89.47"/>
<polygon fill="#63b8ff" stroke="#63b8ff" points="66.17,-85.99 55.6,-86.77 64.35,-92.75 66.17,-85.99"/>
</a>
</g>
<g id="a_edge3&#45;headlabel"><a xlink:href="dir_000004_000038.html" target="_top" xlink:title="3">
<text text-anchor="middle" x="70.38" y="-81.68" font-family="Helvetica,sans-Serif" font-size="10.00" fill="#63b8ff">3</text>
</a>
</g>
</g>
<!-- dir_9d06c2f3a5ac32ab80fc048d7ff16b35 -->
<g id="node7" class="node">
<title>dir_9d06c2f3a5ac32ab80fc048d7ff16b35</title>
<g id="a_node7"><a xlink:href="dir_9d06c2f3a5ac32ab80fc048d7ff16b35.html" target="_top" xlink:title="ControlFlow">
<polygon fill="#edf0f7" stroke="#7f7f7f" points="446.5,-35 371.5,-35 371.5,-16 446.5,-16 446.5,-35"/>
<text text-anchor="middle" x="409" y="-23" font-family="Helvetica,sans-Serif" font-size="10.00">ControlFlow</text>
</a>
</g>
</g>
<!-- dir_0bc4dee926a629f715a9261d8d248ef6&#45;&gt;dir_9d06c2f3a5ac32ab80fc048d7ff16b35 -->
<g id="edge4" class="edge">
<title>dir_0bc4dee926a629f715a9261d8d248ef6&#45;&gt;dir_9d06c2f3a5ac32ab80fc048d7ff16b35</title>
<g id="a_edge4"><a xlink:href="dir_000004_000003.html" target="_top">
<path fill="none" stroke="#63b8ff" d="M270.67,-126.39C296.35,-119.59 330.24,-108.05 356,-90 373.58,-77.68 388.7,-58.09 398.24,-43.93"/>
<polygon fill="#63b8ff" stroke="#63b8ff" points="401.43,-45.44 403.92,-35.15 395.55,-41.65 401.43,-45.44"/>
</a>
</g>
<g id="a_edge4&#45;headlabel"><a xlink:href="dir_000004_000003.html" target="_top" xlink:title="11">
<text text-anchor="middle" x="401.86" y="-47.5" font-family="Helvetica,sans-Serif" font-size="10.00" fill="#63b8ff">11</text>
</a>
</g>
</g>
<!-- dir_aeca43db7a276eb6dbfba1f93dc4539c -->
<g id="node8" class="node">
<title>dir_aeca43db7a276eb6dbfba1f93dc4539c</title>
<g id="a_node8"><a xlink:href="dir_aeca43db7a276eb6dbfba1f93dc4539c.html" target="_top" xlink:title="Utils">
<polygon fill="#edf0f7" stroke="#7f7f7f" points="503.5,-35 464.5,-35 464.5,-16 503.5,-16 503.5,-35"/>
<text text-anchor="middle" x="484" y="-23" font-family="Helvetica,sans-Serif" font-size="10.00">Utils</text>
</a>
</g>
</g>
<!-- dir_0bc4dee926a629f715a9261d8d248ef6&#45;&gt;dir_aeca43db7a276eb6dbfba1f93dc4539c -->
<g id="edge5" class="edge">
<title>dir_0bc4dee926a629f715a9261d8d248ef6&#45;&gt;dir_aeca43db7a276eb6dbfba1f93dc4539c</title>
<g id="a_edge5"><a xlink:href="dir_000004_000039.html" target="_top">
<path fill="none" stroke="#63b8ff" d="M270.69,-126.34C301.66,-118.94 346.25,-106.63 383,-90 413.11,-76.38 444.92,-55.07 464.62,-40.95"/>
<polygon fill="#63b8ff" stroke="#63b8ff" points="466.74,-43.73 472.77,-35.02 462.62,-38.07 466.74,-43.73"/>
</a>
</g>
<g id="a_edge5&#45;headlabel"><a xlink:href="dir_000004_000039.html" target="_top" xlink:title="14">
<text text-anchor="middle" x="465.51" y="-45.64" font-family="Helvetica,sans-Serif" font-size="10.00" fill="#63b8ff">14</text>
</a>
</g>
</g>
<!-- dir_c7822617fbd88f8e407abb0b40aff3e3 -->
<g id="node5" class="node">
<title>dir_c7822617fbd88f8e407abb0b40aff3e3</title>
<g id="a_node5"><a xlink:href="dir_c7822617fbd88f8e407abb0b40aff3e3.html" target="_top" xlink:title="Resolver">
<polygon fill="#a2b4d6" stroke="#404040" points="347.5,-145 288.5,-145 288.5,-126 347.5,-126 347.5,-145"/>
<text text-anchor="middle" x="318" y="-133" font-family="Helvetica,sans-Serif" font-size="10.00">Resolver</text>
</a>
</g>
</g>
<!-- dir_c7822617fbd88f8e407abb0b40aff3e3&#45;&gt;dir_0133e64b3a4c854b47f86a7b8e0c9983 -->
<g id="edge6" class="edge">
<title>dir_c7822617fbd88f8e407abb0b40aff3e3&#45;&gt;dir_0133e64b3a4c854b47f86a7b8e0c9983</title>
<g id="a_edge6"><a xlink:href="dir_000030_000026.html" target="_top">
<path fill="none" stroke="#63b8ff" d="M314.57,-125.76C311.19,-116.88 306.11,-102.67 303,-90 299.38,-75.23 296.78,-58.19 295.14,-45.48"/>
<polygon fill="#63b8ff" stroke="#63b8ff" points="298.57,-44.73 293.9,-35.22 291.62,-45.57 298.57,-44.73"/>
</a>
</g>
<g id="a_edge6&#45;headlabel"><a xlink:href="dir_000030_000026.html" target="_top" xlink:title="3">
<text text-anchor="middle" x="301.82" y="-45.46" font-family="Helvetica,sans-Serif" font-size="10.00" fill="#63b8ff">3</text>
</a>
</g>
</g>
<!-- dir_fc8a1e5276ba0b452aa73bfa3a28ac9d -->
<g id="node6" class="node">
<title>dir_fc8a1e5276ba0b452aa73bfa3a28ac9d</title>
<g id="a_node6"><a xlink:href="dir_fc8a1e5276ba0b452aa73bfa3a28ac9d.html" target="_top" xlink:title="VTA">
<polygon fill="#a2b4d6" stroke="#404040" points="347.5,-90 312.5,-90 312.5,-71 347.5,-71 347.5,-90"/>
<text text-anchor="middle" x="330" y="-78" font-family="Helvetica,sans-Serif" font-size="10.00">VTA</text>
</a>
</g>
</g>
<!-- dir_c7822617fbd88f8e407abb0b40aff3e3&#45;&gt;dir_fc8a1e5276ba0b452aa73bfa3a28ac9d -->
<g id="edge8" class="edge">
<title>dir_c7822617fbd88f8e407abb0b40aff3e3&#45;&gt;dir_fc8a1e5276ba0b452aa73bfa3a28ac9d</title>
<g id="a_edge8"><a xlink:href="dir_000030_000040.html" target="_top">
<path fill="none" stroke="#63b8ff" d="M319.98,-125.75C321.57,-118.72 323.86,-108.62 325.85,-99.84"/>
<polygon fill="#63b8ff" stroke="#63b8ff" points="329.26,-100.62 328.06,-90.09 322.43,-99.07 329.26,-100.62"/>
</a>
</g>
<g id="a_edge8&#45;headlabel"><a xlink:href="dir_000030_000040.html" target="_top" xlink:title="1">
<text text-anchor="middle" x="331.24" y="-102.25" font-family="Helvetica,sans-Serif" font-size="10.00" fill="#63b8ff">1</text>
</a>
</g>
</g>
<!-- dir_c7822617fbd88f8e407abb0b40aff3e3&#45;&gt;dir_aeca43db7a276eb6dbfba1f93dc4539c -->
<g id="edge7" class="edge">
<title>dir_c7822617fbd88f8e407abb0b40aff3e3&#45;&gt;dir_aeca43db7a276eb6dbfba1f93dc4539c</title>
<g id="a_edge7"><a xlink:href="dir_000030_000039.html" target="_top">
<path fill="none" stroke="#63b8ff" d="M347.6,-131.28C377.11,-126.68 422.22,-115.71 452,-90 465.7,-78.17 474.2,-59.06 478.97,-44.89"/>
<polygon fill="#63b8ff" stroke="#63b8ff" points="482.35,-45.81 481.91,-35.22 475.65,-43.77 482.35,-45.81"/>
</a>
</g>
<g id="a_edge7&#45;headlabel"><a xlink:href="dir_000030_000039.html" target="_top" xlink:title="6">
<text text-anchor="middle" x="484.02" y="-47.57" font-family="Helvetica,sans-Serif" font-size="10.00" fill="#63b8ff">6</text>
</a>
</g>
</g>
<!-- dir_fc8a1e5276ba0b452aa73bfa3a28ac9d&#45;&gt;dir_0133e64b3a4c854b47f86a7b8e0c9983 -->
<g id="edge9" class="edge">
<title>dir_fc8a1e5276ba0b452aa73bfa3a28ac9d&#45;&gt;dir_0133e64b3a4c854b47f86a7b8e0c9983</title>
<g id="a_edge9"><a xlink:href="dir_000040_000026.html" target="_top">
<path fill="none" stroke="#63b8ff" d="M323.89,-70.75C318.72,-63.34 311.15,-52.5 304.81,-43.41"/>
<polygon fill="#63b8ff" stroke="#63b8ff" points="307.59,-41.29 299,-35.09 301.85,-45.29 307.59,-41.29"/>
</a>
</g>
<g id="a_edge9&#45;headlabel"><a xlink:href="dir_000040_000026.html" target="_top" xlink:title="1">
<text text-anchor="middle" x="311.98" y="-40.11" font-family="Helvetica,sans-Serif" font-size="10.00" fill="#63b8ff">1</text>
</a>
</g>
</g>
<!-- dir_fc8a1e5276ba0b452aa73bfa3a28ac9d&#45;&gt;dir_9d06c2f3a5ac32ab80fc048d7ff16b35 -->
<g id="edge10" class="edge">
<title>dir_fc8a1e5276ba0b452aa73bfa3a28ac9d&#45;&gt;dir_9d06c2f3a5ac32ab80fc048d7ff16b35</title>
<g id="a_edge10"><a xlink:href="dir_000040_000003.html" target="_top">
<path fill="none" stroke="#63b8ff" d="M342.69,-70.98C354.83,-62.84 373.36,-50.41 387.75,-40.76"/>
<polygon fill="#63b8ff" stroke="#63b8ff" points="389.72,-43.65 396.08,-35.17 385.82,-37.84 389.72,-43.65"/>
</a>
</g>
<g id="a_edge10&#45;headlabel"><a xlink:href="dir_000040_000003.html" target="_top" xlink:title="1">
<text text-anchor="middle" x="388.32" y="-45.51" font-family="Helvetica,sans-Serif" font-size="10.00" fill="#63b8ff">1</text>
</a>
</g>
</g>
<!-- dir_fc8a1e5276ba0b452aa73bfa3a28ac9d&#45;&gt;dir_aeca43db7a276eb6dbfba1f93dc4539c -->
<g id="edge11" class="edge">
<title>dir_fc8a1e5276ba0b452aa73bfa3a28ac9d&#45;&gt;dir_aeca43db7a276eb6dbfba1f93dc4539c</title>
<g id="a_edge11"><a xlink:href="dir_000040_000039.html" target="_top">
<path fill="none" stroke="#63b8ff" d="M347.67,-73.42C373.76,-64.44 422.91,-47.52 454.52,-36.64"/>
<polygon fill="#63b8ff" stroke="#63b8ff" points="455.8,-39.91 464.12,-33.34 453.52,-33.29 455.8,-39.91"/>
</a>
</g>
<g id="a_edge11&#45;headlabel"><a xlink:href="dir_000040_000039.html" target="_top" xlink:title="5">
<text text-anchor="middle" x="453.33" y="-41.26" font-family="Helvetica,sans-Serif" font-size="10.00" fill="#63b8ff">5</text>
</a>
</g>
</g>
</g>
</svg>
