<?xml version="1.0" encoding="UTF-8" standalone="no"?>
<!DOCTYPE svg PUBLIC "-//W3C//DTD SVG 1.1//EN"
 "http://www.w3.org/Graphics/SVG/1.1/DTD/svg11.dtd">
<!-- Generated by graphviz version 2.43.0 (0)
 -->
<!-- Title: include/phasar/PhasarLLVM/DataFlow/IfdsIde Pages: 1 -->
<svg width="736pt" height="125pt"
 viewBox="0.00 0.00 735.50 125.00" xmlns="http://www.w3.org/2000/svg" xmlns:xlink="http://www.w3.org/1999/xlink">
<g id="graph0" class="graph" transform="scale(1 1) rotate(0) translate(4 121)">
<title>include/phasar/PhasarLLVM/DataFlow/IfdsIde</title>
<g id="clust1" class="cluster">
<title>clusterdir_b11f051d1364f2a30973d8d796d4babf</title>
<g id="a_clust1"><a xlink:href="dir_b11f051d1364f2a30973d8d796d4babf.html" target="_top" xlink:title="DataFlow">
<polygon fill="#edf0f7" stroke="#7f7f7f" stroke-dasharray="5,2" points="168.5,-39 168.5,-109 330.5,-109 330.5,-39 168.5,-39"/>
<text text-anchor="middle" x="249.5" y="-97" font-family="Helvetica,sans-Serif" font-size="10.00">DataFlow</text>
</a>
</g>
</g>
<g id="clust2" class="cluster">
<title>clusterdir_a914fe635f43607d3ac935bbff17c46d</title>
<g id="a_clust2"><a xlink:href="dir_a914fe635f43607d3ac935bbff17c46d.html" target="_top">
<polygon fill="#edf0f7" stroke="#404040" stroke-width="2" points="176.5,-47 176.5,-82 322.5,-82 322.5,-47 176.5,-47"/>
</a>
</g>
</g>
<!-- dir_a914fe635f43607d3ac935bbff17c46d -->
<g id="node1" class="node">
<title>dir_a914fe635f43607d3ac935bbff17c46d</title>
<text text-anchor="middle" x="209.5" y="-62" font-family="Helvetica,sans-Serif" font-size="10.00">IfdsIde</text>
</g>
<!-- dir_0133e64b3a4c854b47f86a7b8e0c9983 -->
<g id="node3" class="node">
<title>dir_0133e64b3a4c854b47f86a7b8e0c9983</title>
<g id="a_node3"><a xlink:href="dir_0133e64b3a4c854b47f86a7b8e0c9983.html" target="_top" xlink:title="Pointer">
<polygon fill="#edf0f7" stroke="red" stroke-dasharray="5,2" points="51,-19 0,-19 0,0 51,0 51,-19"/>
<text text-anchor="middle" x="25.5" y="-7" font-family="Helvetica,sans-Serif" font-size="10.00">Pointer</text>
</a>
</g>
</g>
<!-- dir_a914fe635f43607d3ac935bbff17c46d&#45;&gt;dir_0133e64b3a4c854b47f86a7b8e0c9983 -->
<g id="edge1" class="edge">
<title>dir_a914fe635f43607d3ac935bbff17c46d&#45;&gt;dir_0133e64b3a4c854b47f86a7b8e0c9983</title>
<g id="a_edge1"><a xlink:href="dir_000015_000026.html" target="_top">
<path fill="none" stroke="#63b8ff" d="M184.3,-56.24C152.36,-47.04 97.12,-31.13 60.95,-20.71"/>
<polygon fill="#63b8ff" stroke="#63b8ff" points="61.86,-17.33 51.28,-17.93 59.92,-24.06 61.86,-17.33"/>
</a>
</g>
<g id="a_edge1&#45;headlabel"><a xlink:href="dir_000015_000026.html" target="_top" xlink:title="10">
<text text-anchor="middle" x="66.1" y="-13.1" font-family="Helvetica,sans-Serif" font-size="10.00" fill="#63b8ff">10</text>
</a>
</g>
</g>
<!-- dir_079f3dfffeb9e770010097b0dd1334eb -->
<g id="node4" class="node">
<title>dir_079f3dfffeb9e770010097b0dd1334eb</title>
<g id="a_node4"><a xlink:href="dir_079f3dfffeb9e770010097b0dd1334eb.html" target="_top" xlink:title="Utils">
<polygon fill="#edf0f7" stroke="#7f7f7f" points="108,-19 69,-19 69,0 108,0 108,-19"/>
<text text-anchor="middle" x="88.5" y="-7" font-family="Helvetica,sans-Serif" font-size="10.00">Utils</text>
</a>
</g>
</g>
<!-- dir_a914fe635f43607d3ac935bbff17c46d&#45;&gt;dir_079f3dfffeb9e770010097b0dd1334eb -->
<g id="edge2" class="edge">
<title>dir_a914fe635f43607d3ac935bbff17c46d&#45;&gt;dir_079f3dfffeb9e770010097b0dd1334eb</title>
<g id="a_edge2"><a xlink:href="dir_000015_000038.html" target="_top">
<path fill="none" stroke="#63b8ff" d="M190.06,-54.98C170.51,-46.42 140.12,-33.11 117.68,-23.28"/>
<polygon fill="#63b8ff" stroke="#63b8ff" points="118.86,-19.98 108.29,-19.17 116.05,-26.39 118.86,-19.98"/>
</a>
</g>
<g id="a_edge2&#45;headlabel"><a xlink:href="dir_000015_000038.html" target="_top" xlink:title="8">
<text text-anchor="middle" x="123.29" y="-16.32" font-family="Helvetica,sans-Serif" font-size="10.00" fill="#63b8ff">8</text>
</a>
</g>
</g>
<!-- dir_189eb8c36ffce94640b9d816bc05823d -->
<g id="node7" class="node">
<title>dir_189eb8c36ffce94640b9d816bc05823d</title>
<g id="a_node7"><a xlink:href="dir_189eb8c36ffce94640b9d816bc05823d.html" target="_top" xlink:title="Domain">
<polygon fill="#edf0f7" stroke="#7f7f7f" points="181,-19 126,-19 126,0 181,0 181,-19"/>
<text text-anchor="middle" x="153.5" y="-7" font-family="Helvetica,sans-Serif" font-size="10.00">Domain</text>
</a>
</g>
</g>
<!-- dir_a914fe635f43607d3ac935bbff17c46d&#45;&gt;dir_189eb8c36ffce94640b9d816bc05823d -->
<g id="edge3" class="edge">
<title>dir_a914fe635f43607d3ac935bbff17c46d&#45;&gt;dir_189eb8c36ffce94640b9d816bc05823d</title>
<g id="a_edge3"><a xlink:href="dir_000015_000011.html" target="_top">
<path fill="none" stroke="#63b8ff" d="M200.5,-54.98C192.31,-47.23 179.99,-35.58 170.03,-26.14"/>
<polygon fill="#63b8ff" stroke="#63b8ff" points="172.33,-23.5 162.66,-19.17 167.52,-28.59 172.33,-23.5"/>
</a>
</g>
<g id="a_edge3&#45;headlabel"><a xlink:href="dir_000015_000011.html" target="_top" xlink:title="18">
<text text-anchor="middle" x="176.89" y="-21.41" font-family="Helvetica,sans-Serif" font-size="10.00" fill="#63b8ff">18</text>
</a>
</g>
</g>
<!-- dir_68aec2623aad94785c017c13c687e045 -->
<g id="node8" class="node">
<title>dir_68aec2623aad94785c017c13c687e045</title>
<g id="a_node8"><a xlink:href="dir_68aec2623aad94785c017c13c687e045.html" target="_top" xlink:title="DB">
<polygon fill="#edf0f7" stroke="#7f7f7f" points="230,-19 199,-19 199,0 230,0 230,-19"/>
<text text-anchor="middle" x="214.5" y="-7" font-family="Helvetica,sans-Serif" font-size="10.00">DB</text>
</a>
</g>
</g>
<!-- dir_a914fe635f43607d3ac935bbff17c46d&#45;&gt;dir_68aec2623aad94785c017c13c687e045 -->
<g id="edge4" class="edge">
<title>dir_a914fe635f43607d3ac935bbff17c46d&#45;&gt;dir_68aec2623aad94785c017c13c687e045</title>
<g id="a_edge4"><a xlink:href="dir_000015_000008.html" target="_top">
<path fill="none" stroke="#63b8ff" d="M210.33,-54.75C210.98,-47.8 211.92,-37.85 212.74,-29.13"/>
<polygon fill="#63b8ff" stroke="#63b8ff" points="216.23,-29.37 213.69,-19.09 209.27,-28.72 216.23,-29.37"/>
</a>
</g>
<g id="a_edge4&#45;headlabel"><a xlink:href="dir_000015_000008.html" target="_top" xlink:title="4">
<text text-anchor="middle" x="218.72" y="-30.72" font-family="Helvetica,sans-Serif" font-size="10.00" fill="#63b8ff">4</text>
</a>
</g>
</g>
<!-- dir_69cf206f122d9153ac8b30a0f4a917bf -->
<g id="node9" class="node">
<title>dir_69cf206f122d9153ac8b30a0f4a917bf</title>
<g id="a_node9"><a xlink:href="dir_69cf206f122d9153ac8b30a0f4a917bf.html" target="_top" xlink:title="DataFlow">
<polygon fill="#edf0f7" stroke="red" stroke-dasharray="5,2" points="311,-19 248,-19 248,0 311,0 311,-19"/>
<text text-anchor="middle" x="279.5" y="-7" font-family="Helvetica,sans-Serif" font-size="10.00">DataFlow</text>
</a>
</g>
</g>
<!-- dir_a914fe635f43607d3ac935bbff17c46d&#45;&gt;dir_69cf206f122d9153ac8b30a0f4a917bf -->
<g id="edge5" class="edge">
<title>dir_a914fe635f43607d3ac935bbff17c46d&#45;&gt;dir_69cf206f122d9153ac8b30a0f4a917bf</title>
<g id="a_edge5"><a xlink:href="dir_000015_000005.html" target="_top">
<path fill="none" stroke="#63b8ff" d="M220.75,-54.98C231.3,-47 247.3,-34.88 259.94,-25.31"/>
<polygon fill="#63b8ff" stroke="#63b8ff" points="262.19,-28 268.05,-19.17 257.96,-22.42 262.19,-28"/>
</a>
</g>
<g id="a_edge5&#45;headlabel"><a xlink:href="dir_000015_000005.html" target="_top" xlink:title="46">
<text text-anchor="middle" x="261.04" y="-29.93" font-family="Helvetica,sans-Serif" font-size="10.00" fill="#63b8ff">46</text>
</a>
</g>
</g>
<!-- dir_aeca43db7a276eb6dbfba1f93dc4539c -->
<g id="node10" class="node">
<title>dir_aeca43db7a276eb6dbfba1f93dc4539c</title>
<g id="a_node10"><a xlink:href="dir_aeca43db7a276eb6dbfba1f93dc4539c.html" target="_top" xlink:title="Utils">
<polygon fill="#edf0f7" stroke="#7f7f7f" points="368,-19 329,-19 329,0 368,0 368,-19"/>
<text text-anchor="middle" x="348.5" y="-7" font-family="Helvetica,sans-Serif" font-size="10.00">Utils</text>
</a>
</g>
</g>
<!-- dir_a914fe635f43607d3ac935bbff17c46d&#45;&gt;dir_aeca43db7a276eb6dbfba1f93dc4539c -->
<g id="edge6" class="edge">
<title>dir_a914fe635f43607d3ac935bbff17c46d&#45;&gt;dir_aeca43db7a276eb6dbfba1f93dc4539c</title>
<g id="a_edge6"><a xlink:href="dir_000015_000039.html" target="_top">
<path fill="none" stroke="#63b8ff" d="M219.29,-54.94C225.77,-49.66 234.68,-43.15 243.5,-39 272.88,-25.2 284.52,-27.96 319.1,-19.19"/>
<polygon fill="#63b8ff" stroke="#63b8ff" points="320.2,-22.52 328.95,-16.55 318.38,-15.76 320.2,-22.52"/>
</a>
</g>
<g id="a_edge6&#45;headlabel"><a xlink:href="dir_000015_000039.html" target="_top" xlink:title="22">
<text text-anchor="middle" x="317.46" y="-23.7" font-family="Helvetica,sans-Serif" font-size="10.00" fill="#63b8ff">22</text>
</a>
</g>
</g>
<!-- dir_8f2cc0dbdb5107552a837377e8f5f9e3 -->
<g id="node2" class="node">
<title>dir_8f2cc0dbdb5107552a837377e8f5f9e3</title>
<g id="a_node2"><a xlink:href="dir_8f2cc0dbdb5107552a837377e8f5f9e3.html" target="_top" xlink:title="Problems">
<polygon fill="#a2b4d6" stroke="#404040" points="314.5,-74 252.5,-74 252.5,-55 314.5,-55 314.5,-74"/>
<text text-anchor="middle" x="283.5" y="-62" font-family="Helvetica,sans-Serif" font-size="10.00">Problems</text>
</a>
</g>
</g>
<!-- dir_8f2cc0dbdb5107552a837377e8f5f9e3&#45;&gt;dir_0133e64b3a4c854b47f86a7b8e0c9983 -->
<g id="edge7" class="edge">
<title>dir_8f2cc0dbdb5107552a837377e8f5f9e3&#45;&gt;dir_0133e64b3a4c854b47f86a7b8e0c9983</title>
<g id="a_edge7"><a xlink:href="dir_000028_000026.html" target="_top">
<path fill="none" stroke="#63b8ff" d="M272.62,-55C264.93,-49.47 254.14,-42.63 243.5,-39 168.69,-13.47 142.53,-31.88 61.23,-19.01"/>
<polygon fill="#63b8ff" stroke="#63b8ff" points="61.48,-15.5 51.04,-17.28 60.31,-22.41 61.48,-15.5"/>
</a>
</g>
<g id="a_edge7&#45;headlabel"><a xlink:href="dir_000028_000026.html" target="_top" xlink:title="8">
<text text-anchor="middle" x="65.5" y="-10.81" font-family="Helvetica,sans-Serif" font-size="10.00" fill="#63b8ff">8</text>
</a>
</g>
</g>
<!-- dir_8f2cc0dbdb5107552a837377e8f5f9e3&#45;&gt;dir_079f3dfffeb9e770010097b0dd1334eb -->
<g id="edge9" class="edge">
<title>dir_8f2cc0dbdb5107552a837377e8f5f9e3&#45;&gt;dir_079f3dfffeb9e770010097b0dd1334eb</title>
<g id="a_edge9"><a xlink:href="dir_000028_000038.html" target="_top">
<path fill="none" stroke="#63b8ff" d="M272.22,-54.92C264.53,-49.5 253.89,-42.83 243.5,-39 192.81,-20.33 174.24,-30.5 118.38,-19.09"/>
<polygon fill="#63b8ff" stroke="#63b8ff" points="118.81,-15.6 108.29,-16.88 117.31,-22.44 118.81,-15.6"/>
</a>
</g>
<g id="a_edge9&#45;headlabel"><a xlink:href="dir_000028_000038.html" target="_top" xlink:title="6">
<text text-anchor="middle" x="122.93" y="-11.09" font-family="Helvetica,sans-Serif" font-size="10.00" fill="#63b8ff">6</text>
</a>
</g>
</g>
<!-- dir_0bc4dee926a629f715a9261d8d248ef6 -->
<g id="node5" class="node">
<title>dir_0bc4dee926a629f715a9261d8d248ef6</title>
<g id="a_node5"><a xlink:href="dir_0bc4dee926a629f715a9261d8d248ef6.html" target="_top" xlink:title="ControlFlow">
<polygon fill="#edf0f7" stroke="red" stroke-dasharray="5,2" points="461,-19 386,-19 386,0 461,0 461,-19"/>
<text text-anchor="middle" x="423.5" y="-7" font-family="Helvetica,sans-Serif" font-size="10.00">ControlFlow</text>
</a>
</g>
</g>
<!-- dir_8f2cc0dbdb5107552a837377e8f5f9e3&#45;&gt;dir_0bc4dee926a629f715a9261d8d248ef6 -->
<g id="edge10" class="edge">
<title>dir_8f2cc0dbdb5107552a837377e8f5f9e3&#45;&gt;dir_0bc4dee926a629f715a9261d8d248ef6</title>
<g id="a_edge10"><a xlink:href="dir_000028_000004.html" target="_top">
<path fill="none" stroke="#63b8ff" d="M305.99,-54.98C329.02,-46.27 365.04,-32.63 391.13,-22.75"/>
<polygon fill="#63b8ff" stroke="#63b8ff" points="392.48,-25.98 400.6,-19.17 390.01,-19.44 392.48,-25.98"/>
</a>
</g>
<g id="a_edge10&#45;headlabel"><a xlink:href="dir_000028_000004.html" target="_top" xlink:title="4">
<text text-anchor="middle" x="390.13" y="-27.41" font-family="Helvetica,sans-Serif" font-size="10.00" fill="#63b8ff">4</text>
</a>
</g>
</g>
<!-- dir_15b1266ec3c6694d64b0cfc160192d3b -->
<g id="node6" class="node">
<title>dir_15b1266ec3c6694d64b0cfc160192d3b</title>
<g id="a_node6"><a xlink:href="dir_15b1266ec3c6694d64b0cfc160192d3b.html" target="_top" xlink:title="Domain">
<polygon fill="#edf0f7" stroke="#7f7f7f" points="534,-19 479,-19 479,0 534,0 534,-19"/>
<text text-anchor="middle" x="506.5" y="-7" font-family="Helvetica,sans-Serif" font-size="10.00">Domain</text>
</a>
</g>
</g>
<!-- dir_8f2cc0dbdb5107552a837377e8f5f9e3&#45;&gt;dir_15b1266ec3c6694d64b0cfc160192d3b -->
<g id="edge11" class="edge">
<title>dir_8f2cc0dbdb5107552a837377e8f5f9e3&#45;&gt;dir_15b1266ec3c6694d64b0cfc160192d3b</title>
<g id="a_edge11"><a xlink:href="dir_000028_000010.html" target="_top">
<path fill="none" stroke="#63b8ff" d="M314.51,-56.13C354.95,-46.52 425.64,-29.72 469.03,-19.41"/>
<polygon fill="#63b8ff" stroke="#63b8ff" points="469.99,-22.77 478.91,-17.06 468.37,-15.96 469.99,-22.77"/>
</a>
</g>
<g id="a_edge11&#45;headlabel"><a xlink:href="dir_000028_000010.html" target="_top" xlink:title="7">
<text text-anchor="middle" x="467.15" y="-23.87" font-family="Helvetica,sans-Serif" font-size="10.00" fill="#63b8ff">7</text>
</a>
</g>
</g>
<!-- dir_8f2cc0dbdb5107552a837377e8f5f9e3&#45;&gt;dir_189eb8c36ffce94640b9d816bc05823d -->
<g id="edge12" class="edge">
<title>dir_8f2cc0dbdb5107552a837377e8f5f9e3&#45;&gt;dir_189eb8c36ffce94640b9d816bc05823d</title>
<g id="a_edge12"><a xlink:href="dir_000028_000011.html" target="_top">
<path fill="none" stroke="#63b8ff" d="M271.32,-54.97C263.61,-49.84 253.28,-43.46 243.5,-39 226.83,-31.39 207.56,-24.99 191.13,-20.2"/>
<polygon fill="#63b8ff" stroke="#63b8ff" points="191.9,-16.78 181.32,-17.43 189.99,-23.52 191.9,-16.78"/>
</a>
</g>
<g id="a_edge12&#45;headlabel"><a xlink:href="dir_000028_000011.html" target="_top" xlink:title="17">
<text text-anchor="middle" x="196.13" y="-12.53" font-family="Helvetica,sans-Serif" font-size="10.00" fill="#63b8ff">17</text>
</a>
</g>
</g>
<!-- dir_8f2cc0dbdb5107552a837377e8f5f9e3&#45;&gt;dir_68aec2623aad94785c017c13c687e045 -->
<g id="edge14" class="edge">
<title>dir_8f2cc0dbdb5107552a837377e8f5f9e3&#45;&gt;dir_68aec2623aad94785c017c13c687e045</title>
<g id="a_edge14"><a xlink:href="dir_000028_000008.html" target="_top">
<path fill="none" stroke="#63b8ff" d="M272.41,-54.98C262.01,-47 246.24,-34.88 233.78,-25.31"/>
<polygon fill="#63b8ff" stroke="#63b8ff" points="235.85,-22.49 225.79,-19.17 231.59,-28.04 235.85,-22.49"/>
</a>
</g>
<g id="a_edge14&#45;headlabel"><a xlink:href="dir_000028_000008.html" target="_top" xlink:title="3">
<text text-anchor="middle" x="240.43" y="-19.92" font-family="Helvetica,sans-Serif" font-size="10.00" fill="#63b8ff">3</text>
</a>
</g>
</g>
<!-- dir_8f2cc0dbdb5107552a837377e8f5f9e3&#45;&gt;dir_69cf206f122d9153ac8b30a0f4a917bf -->
<g id="edge15" class="edge">
<title>dir_8f2cc0dbdb5107552a837377e8f5f9e3&#45;&gt;dir_69cf206f122d9153ac8b30a0f4a917bf</title>
<g id="a_edge15"><a xlink:href="dir_000028_000005.html" target="_top">
<path fill="none" stroke="#63b8ff" d="M282.84,-54.75C282.32,-47.8 281.56,-37.85 280.91,-29.13"/>
<polygon fill="#63b8ff" stroke="#63b8ff" points="284.39,-28.8 280.15,-19.09 277.41,-29.32 284.39,-28.8"/>
</a>
</g>
<g id="a_edge15&#45;headlabel"><a xlink:href="dir_000028_000005.html" target="_top" xlink:title="41">
<text text-anchor="middle" x="287.49" y="-29.67" font-family="Helvetica,sans-Serif" font-size="10.00" fill="#63b8ff">41</text>
</a>
</g>
</g>
<!-- dir_8f2cc0dbdb5107552a837377e8f5f9e3&#45;&gt;dir_aeca43db7a276eb6dbfba1f93dc4539c -->
<g id="edge16" class="edge">
<title>dir_8f2cc0dbdb5107552a837377e8f5f9e3&#45;&gt;dir_aeca43db7a276eb6dbfba1f93dc4539c</title>
<g id="a_edge16"><a xlink:href="dir_000028_000039.html" target="_top">
<path fill="none" stroke="#63b8ff" d="M293.94,-54.98C303.65,-47.07 318.32,-35.11 330,-25.58"/>
<polygon fill="#63b8ff" stroke="#63b8ff" points="332.33,-28.2 337.87,-19.17 327.9,-22.78 332.33,-28.2"/>
</a>
</g>
<g id="a_edge16&#45;headlabel"><a xlink:href="dir_000028_000039.html" target="_top" xlink:title="18">
<text text-anchor="middle" x="331.34" y="-30.17" font-family="Helvetica,sans-Serif" font-size="10.00" fill="#63b8ff">18</text>
</a>
</g>
</g>
<!-- dir_63e7bb0cb88dc7cebeab7c37a85fbe32 -->
<g id="node11" class="node">
<title>dir_63e7bb0cb88dc7cebeab7c37a85fbe32</title>
<g id="a_node11"><a xlink:href="dir_63e7bb0cb88dc7cebeab7c37a85fbe32.html" target="_top" xlink:title="TaintConfig">
<polygon fill="#edf0f7" stroke="#7f7f7f" points="623,-19 552,-19 552,0 623,0 623,-19"/>
<text text-anchor="middle" x="587.5" y="-7" font-family="Helvetica,sans-Serif" font-size="10.00">TaintConfig</text>
</a>
</g>
</g>
<!-- dir_8f2cc0dbdb5107552a837377e8f5f9e3&#45;&gt;dir_63e7bb0cb88dc7cebeab7c37a85fbe32 -->
<g id="edge13" class="edge">
<title>dir_8f2cc0dbdb5107552a837377e8f5f9e3&#45;&gt;dir_63e7bb0cb88dc7cebeab7c37a85fbe32</title>
<g id="a_edge13"><a xlink:href="dir_000028_000034.html" target="_top">
<path fill="none" stroke="#63b8ff" d="M314.75,-58.37C361.85,-50.6 454.07,-35.18 542.09,-19.23"/>
<polygon fill="#63b8ff" stroke="#63b8ff" points="542.76,-22.66 551.97,-17.43 541.51,-15.78 542.76,-22.66"/>
</a>
</g>
<g id="a_edge13&#45;headlabel"><a xlink:href="dir_000028_000034.html" target="_top" xlink:title="1">
<text text-anchor="middle" x="539.73" y="-23.6" font-family="Helvetica,sans-Serif" font-size="10.00" fill="#63b8ff">1</text>
</a>
</g>
</g>
<!-- dir_04c97d3322b5ffe9ec5885b952098baa -->
<g id="node12" class="node">
<title>dir_04c97d3322b5ffe9ec5885b952098baa</title>
<g id="a_node12"><a xlink:href="dir_04c97d3322b5ffe9ec5885b952098baa.html" target="_top" xlink:title="TypeHierarchy">
<polygon fill="#edf0f7" stroke="#7f7f7f" points="727.5,-19 641.5,-19 641.5,0 727.5,0 727.5,-19"/>
<text text-anchor="middle" x="684.5" y="-7" font-family="Helvetica,sans-Serif" font-size="10.00">TypeHierarchy</text>
</a>
</g>
</g>
<!-- dir_8f2cc0dbdb5107552a837377e8f5f9e3&#45;&gt;dir_04c97d3322b5ffe9ec5885b952098baa -->
<g id="edge8" class="edge">
<title>dir_8f2cc0dbdb5107552a837377e8f5f9e3&#45;&gt;dir_04c97d3322b5ffe9ec5885b952098baa</title>
<g id="a_edge8"><a xlink:href="dir_000028_000035.html" target="_top">
<path fill="none" stroke="#63b8ff" d="M314.83,-59.88C374.39,-52.92 508.24,-36.89 631.41,-19.11"/>
<polygon fill="#63b8ff" stroke="#63b8ff" points="631.99,-22.57 641.39,-17.67 630.99,-15.64 631.99,-22.57"/>
</a>
</g>
<g id="a_edge8&#45;headlabel"><a xlink:href="dir_000028_000035.html" target="_top" xlink:title="1">
<text text-anchor="middle" x="628.84" y="-23.39" font-family="Helvetica,sans-Serif" font-size="10.00" fill="#63b8ff">1</text>
</a>
</g>
</g>
</g>
</svg>
