<?xml version="1.0" encoding="UTF-8" standalone="no"?>
<!DOCTYPE svg PUBLIC "-//W3C//DTD SVG 1.1//EN"
 "http://www.w3.org/Graphics/SVG/1.1/DTD/svg11.dtd">
<!-- Generated by graphviz version 2.43.0 (0)
 -->
<!-- Title: include/phasar/PhasarLLVM Pages: 1 -->
<svg width="770pt" height="306pt"
 viewBox="0.00 0.00 770.00 306.00" xmlns="http://www.w3.org/2000/svg" xmlns:xlink="http://www.w3.org/1999/xlink">
<g id="graph0" class="graph" transform="scale(1 1) rotate(0) translate(4 302)">
<title>include/phasar/PhasarLLVM</title>
<g id="clust1" class="cluster">
<title>clusterdir_05d093d0ed3722b9a30705a9449fa665</title>
<g id="a_clust1"><a xlink:href="dir_05d093d0ed3722b9a30705a9449fa665.html" target="_top" xlink:title="phasar">
<polygon fill="#edf0f7" stroke="#7f7f7f" stroke-dasharray="5,2" points="8,-8 8,-290 754,-290 754,-8 8,-8"/>
<text text-anchor="middle" x="381" y="-278" font-family="Helvetica,sans-Serif" font-size="10.00">phasar</text>
</a>
</g>
</g>
<g id="clust2" class="cluster">
<title>clusterdir_6556945d274d6e1e874171d9d575b3f4</title>
<g id="a_clust2"><a xlink:href="dir_6556945d274d6e1e874171d9d575b3f4.html" target="_top">
<polygon fill="#edf0f7" stroke="#404040" stroke-width="2" points="210,-63 210,-263 632,-263 632,-63 210,-63"/>
</a>
</g>
</g>
<!-- dir_15b1266ec3c6694d64b0cfc160192d3b -->
<g id="node1" class="node">
<title>dir_15b1266ec3c6694d64b0cfc160192d3b</title>
<g id="a_node1"><a xlink:href="dir_15b1266ec3c6694d64b0cfc160192d3b.html" target="_top" xlink:title="Domain">
<polygon fill="#a2b4d6" stroke="#404040" points="111.5,-90 56.5,-90 56.5,-71 111.5,-71 111.5,-90"/>
<text text-anchor="middle" x="84" y="-78" font-family="Helvetica,sans-Serif" font-size="10.00">Domain</text>
</a>
</g>
</g>
<!-- dir_1f703d4dd1e982897af273349847e927 -->
<g id="node2" class="node">
<title>dir_1f703d4dd1e982897af273349847e927</title>
<g id="a_node2"><a xlink:href="dir_1f703d4dd1e982897af273349847e927.html" target="_top" xlink:title="DB">
<polygon fill="#a2b4d6" stroke="#404040" points="201.5,-90 170.5,-90 170.5,-71 201.5,-71 201.5,-90"/>
<text text-anchor="middle" x="186" y="-78" font-family="Helvetica,sans-Serif" font-size="10.00">DB</text>
</a>
</g>
</g>
<!-- dir_58a8bb8411baaae7f5177ea38c71ea73 -->
<g id="node3" class="node">
<title>dir_58a8bb8411baaae7f5177ea38c71ea73</title>
<g id="a_node3"><a xlink:href="dir_58a8bb8411baaae7f5177ea38c71ea73.html" target="_top" xlink:title="Pointer">
<polygon fill="#a2b4d6" stroke="#404040" points="719.5,-35 668.5,-35 668.5,-16 719.5,-16 719.5,-35"/>
<text text-anchor="middle" x="694" y="-23" font-family="Helvetica,sans-Serif" font-size="10.00">Pointer</text>
</a>
</g>
</g>
<!-- dir_69cf206f122d9153ac8b30a0f4a917bf -->
<g id="node4" class="node">
<title>dir_69cf206f122d9153ac8b30a0f4a917bf</title>
<g id="a_node4"><a xlink:href="dir_69cf206f122d9153ac8b30a0f4a917bf.html" target="_top" xlink:title="DataFlow">
<polygon fill="#a2b4d6" stroke="red" points="705.5,-145 642.5,-145 642.5,-126 705.5,-126 705.5,-145"/>
<text text-anchor="middle" x="674" y="-133" font-family="Helvetica,sans-Serif" font-size="10.00">DataFlow</text>
</a>
</g>
</g>
<!-- dir_9d06c2f3a5ac32ab80fc048d7ff16b35 -->
<g id="node5" class="node">
<title>dir_9d06c2f3a5ac32ab80fc048d7ff16b35</title>
<g id="a_node5"><a xlink:href="dir_9d06c2f3a5ac32ab80fc048d7ff16b35.html" target="_top" xlink:title="ControlFlow">
<polygon fill="#a2b4d6" stroke="#404040" points="722.5,-90 647.5,-90 647.5,-71 722.5,-71 722.5,-90"/>
<text text-anchor="middle" x="685" y="-78" font-family="Helvetica,sans-Serif" font-size="10.00">ControlFlow</text>
</a>
</g>
</g>
<!-- dir_aeca43db7a276eb6dbfba1f93dc4539c -->
<g id="node6" class="node">
<title>dir_aeca43db7a276eb6dbfba1f93dc4539c</title>
<g id="a_node6"><a xlink:href="dir_aeca43db7a276eb6dbfba1f93dc4539c.html" target="_top" xlink:title="Utils">
<polygon fill="#a2b4d6" stroke="#404040" points="217.5,-35 178.5,-35 178.5,-16 217.5,-16 217.5,-35"/>
<text text-anchor="middle" x="198" y="-23" font-family="Helvetica,sans-Serif" font-size="10.00">Utils</text>
</a>
</g>
</g>
<!-- dir_cd166ded320aef6ec75102a3779bae14 -->
<g id="node7" class="node">
<title>dir_cd166ded320aef6ec75102a3779bae14</title>
<g id="a_node7"><a xlink:href="dir_cd166ded320aef6ec75102a3779bae14.html" target="_top" xlink:title="TypeHierarchy">
<polygon fill="#a2b4d6" stroke="#404040" points="624,-35 538,-35 538,-16 624,-16 624,-35"/>
<text text-anchor="middle" x="581" y="-23" font-family="Helvetica,sans-Serif" font-size="10.00">TypeHierarchy</text>
</a>
</g>
</g>
<!-- dir_6556945d274d6e1e874171d9d575b3f4 -->
<g id="node8" class="node">
<title>dir_6556945d274d6e1e874171d9d575b3f4</title>
<text text-anchor="middle" x="475" y="-243" font-family="Helvetica,sans-Serif" font-size="10.00">PhasarLLVM</text>
</g>
<!-- dir_6556945d274d6e1e874171d9d575b3f4&#45;&gt;dir_58a8bb8411baaae7f5177ea38c71ea73 -->
<g id="edge6" class="edge">
<title>dir_6556945d274d6e1e874171d9d575b3f4&#45;&gt;dir_58a8bb8411baaae7f5177ea38c71ea73</title>
<g id="a_edge6"><a xlink:href="dir_000024_000027.html" target="_top">
<path fill="none" stroke="#63b8ff" d="M512.59,-242.49C553.72,-238.86 620.38,-228.65 670,-200 718.6,-171.93 726.47,-145.85 732,-90 733.18,-78.06 736.7,-74.04 732,-63 728.52,-54.83 722.22,-47.61 715.74,-41.8"/>
<polygon fill="#63b8ff" stroke="#63b8ff" points="717.59,-38.8 707.62,-35.21 713.18,-44.23 717.59,-38.8"/>
</a>
</g>
<g id="a_edge6&#45;headlabel"><a xlink:href="dir_000024_000027.html" target="_top" xlink:title="16">
<text text-anchor="middle" x="722.17" y="-36.36" font-family="Helvetica,sans-Serif" font-size="10.00" fill="#63b8ff">16</text>
</a>
</g>
</g>
<!-- dir_6556945d274d6e1e874171d9d575b3f4&#45;&gt;dir_9d06c2f3a5ac32ab80fc048d7ff16b35 -->
<g id="edge9" class="edge">
<title>dir_6556945d274d6e1e874171d9d575b3f4&#45;&gt;dir_9d06c2f3a5ac32ab80fc048d7ff16b35</title>
<g id="a_edge9"><a xlink:href="dir_000024_000003.html" target="_top">
<path fill="none" stroke="#63b8ff" d="M512.59,-241.42C567.9,-234.64 669.53,-213.08 715,-145 725.09,-129.89 713.26,-110.84 701.62,-97.57"/>
<polygon fill="#63b8ff" stroke="#63b8ff" points="704,-95 694.59,-90.14 698.92,-99.81 704,-95"/>
</a>
</g>
<g id="a_edge9&#45;headlabel"><a xlink:href="dir_000024_000003.html" target="_top" xlink:title="14">
<text text-anchor="middle" x="708.53" y="-93.16" font-family="Helvetica,sans-Serif" font-size="10.00" fill="#63b8ff">14</text>
</a>
</g>
</g>
<!-- dir_6556945d274d6e1e874171d9d575b3f4&#45;&gt;dir_aeca43db7a276eb6dbfba1f93dc4539c -->
<g id="edge10" class="edge">
<title>dir_6556945d274d6e1e874171d9d575b3f4&#45;&gt;dir_aeca43db7a276eb6dbfba1f93dc4539c</title>
<g id="a_edge10"><a xlink:href="dir_000024_000039.html" target="_top">
<path fill="none" stroke="#63b8ff" d="M437.31,-244.3C361.19,-242.08 186.71,-227.63 73,-145 40.94,-121.71 13.29,-93.98 38,-63 53.98,-42.97 126.47,-33.07 168.19,-28.95"/>
<polygon fill="#63b8ff" stroke="#63b8ff" points="168.69,-32.42 178.32,-28 168.04,-25.45 168.69,-32.42"/>
</a>
</g>
<g id="a_edge10&#45;headlabel"><a xlink:href="dir_000024_000039.html" target="_top" xlink:title="49">
<text text-anchor="middle" x="165.38" y="-33.08" font-family="Helvetica,sans-Serif" font-size="10.00" fill="#63b8ff">49</text>
</a>
</g>
</g>
<!-- dir_0bc4dee926a629f715a9261d8d248ef6 -->
<g id="node9" class="node">
<title>dir_0bc4dee926a629f715a9261d8d248ef6</title>
<g id="a_node9"><a xlink:href="dir_0bc4dee926a629f715a9261d8d248ef6.html" target="_top" xlink:title="ControlFlow">
<polygon fill="#a2b4d6" stroke="#404040" points="564.5,-145 489.5,-145 489.5,-126 564.5,-126 564.5,-145"/>
<text text-anchor="middle" x="527" y="-133" font-family="Helvetica,sans-Serif" font-size="10.00">ControlFlow</text>
</a>
</g>
</g>
<!-- dir_6556945d274d6e1e874171d9d575b3f4&#45;&gt;dir_0bc4dee926a629f715a9261d8d248ef6 -->
<g id="edge4" class="edge">
<title>dir_6556945d274d6e1e874171d9d575b3f4&#45;&gt;dir_0bc4dee926a629f715a9261d8d248ef6</title>
<g id="a_edge4"><a xlink:href="dir_000024_000004.html" target="_top">
<path fill="none" stroke="#63b8ff" d="M480.83,-235.88C486.64,-227.1 495.58,-212.95 502,-200 509.32,-185.24 516.06,-167.78 520.7,-154.9"/>
<polygon fill="#63b8ff" stroke="#63b8ff" points="524.05,-155.93 524.06,-145.33 517.44,-153.6 524.05,-155.93"/>
</a>
</g>
<g id="a_edge4&#45;headlabel"><a xlink:href="dir_000024_000004.html" target="_top" xlink:title="15">
<text text-anchor="middle" x="525.54" y="-157.76" font-family="Helvetica,sans-Serif" font-size="10.00" fill="#63b8ff">15</text>
</a>
</g>
</g>
<!-- dir_b11f051d1364f2a30973d8d796d4babf -->
<g id="node10" class="node">
<title>dir_b11f051d1364f2a30973d8d796d4babf</title>
<g id="a_node10"><a xlink:href="dir_b11f051d1364f2a30973d8d796d4babf.html" target="_top" xlink:title="DataFlow">
<polygon fill="#a2b4d6" stroke="#404040" points="409.5,-200 346.5,-200 346.5,-181 409.5,-181 409.5,-200"/>
<text text-anchor="middle" x="378" y="-188" font-family="Helvetica,sans-Serif" font-size="10.00">DataFlow</text>
</a>
</g>
</g>
<!-- dir_6556945d274d6e1e874171d9d575b3f4&#45;&gt;dir_b11f051d1364f2a30973d8d796d4babf -->
<g id="edge11" class="edge">
<title>dir_6556945d274d6e1e874171d9d575b3f4&#45;&gt;dir_b11f051d1364f2a30973d8d796d4babf</title>
<g id="a_edge11"><a xlink:href="dir_000024_000006.html" target="_top">
<path fill="none" stroke="#63b8ff" d="M459.42,-235.98C444.23,-227.69 420.9,-214.94 403.1,-205.22"/>
<polygon fill="#63b8ff" stroke="#63b8ff" points="404.32,-201.89 393.87,-200.17 400.97,-208.04 404.32,-201.89"/>
</a>
</g>
<g id="a_edge11&#45;headlabel"><a xlink:href="dir_000024_000006.html" target="_top" xlink:title="26">
<text text-anchor="middle" x="408.84" y="-198.63" font-family="Helvetica,sans-Serif" font-size="10.00" fill="#63b8ff">26</text>
</a>
</g>
</g>
<!-- dir_68aec2623aad94785c017c13c687e045 -->
<g id="node11" class="node">
<title>dir_68aec2623aad94785c017c13c687e045</title>
<g id="a_node11"><a xlink:href="dir_68aec2623aad94785c017c13c687e045.html" target="_top" xlink:title="DB">
<polygon fill="#a2b4d6" stroke="#404040" points="322.5,-145 291.5,-145 291.5,-126 322.5,-126 322.5,-145"/>
<text text-anchor="middle" x="307" y="-133" font-family="Helvetica,sans-Serif" font-size="10.00">DB</text>
</a>
</g>
</g>
<!-- dir_6556945d274d6e1e874171d9d575b3f4&#45;&gt;dir_68aec2623aad94785c017c13c687e045 -->
<g id="edge8" class="edge">
<title>dir_6556945d274d6e1e874171d9d575b3f4&#45;&gt;dir_68aec2623aad94785c017c13c687e045</title>
<g id="a_edge8"><a xlink:href="dir_000024_000008.html" target="_top">
<path fill="none" stroke="#63b8ff" d="M437.33,-242.13C404.98,-238.17 359.09,-227.68 330,-200 317.67,-188.27 311.93,-169.42 309.27,-155.3"/>
<polygon fill="#63b8ff" stroke="#63b8ff" points="312.69,-154.57 307.73,-145.21 305.78,-155.63 312.69,-154.57"/>
</a>
</g>
<g id="a_edge8&#45;headlabel"><a xlink:href="dir_000024_000008.html" target="_top" xlink:title="5">
<text text-anchor="middle" x="316.04" y="-155.2" font-family="Helvetica,sans-Serif" font-size="10.00" fill="#63b8ff">5</text>
</a>
</g>
</g>
<!-- dir_189eb8c36ffce94640b9d816bc05823d -->
<g id="node12" class="node">
<title>dir_189eb8c36ffce94640b9d816bc05823d</title>
<g id="a_node12"><a xlink:href="dir_189eb8c36ffce94640b9d816bc05823d.html" target="_top" xlink:title="Domain">
<polygon fill="#a2b4d6" stroke="#404040" points="273.5,-145 218.5,-145 218.5,-126 273.5,-126 273.5,-145"/>
<text text-anchor="middle" x="246" y="-133" font-family="Helvetica,sans-Serif" font-size="10.00">Domain</text>
</a>
</g>
</g>
<!-- dir_6556945d274d6e1e874171d9d575b3f4&#45;&gt;dir_189eb8c36ffce94640b9d816bc05823d -->
<g id="edge5" class="edge">
<title>dir_6556945d274d6e1e874171d9d575b3f4&#45;&gt;dir_189eb8c36ffce94640b9d816bc05823d</title>
<g id="a_edge5"><a xlink:href="dir_000024_000011.html" target="_top">
<path fill="none" stroke="#63b8ff" d="M437.25,-239.33C403.31,-233.49 352.97,-221.82 314,-200 292.32,-187.86 272.15,-167.39 259.49,-152.97"/>
<polygon fill="#63b8ff" stroke="#63b8ff" points="262.1,-150.64 252.96,-145.3 256.77,-155.18 262.1,-150.64"/>
</a>
</g>
<g id="a_edge5&#45;headlabel"><a xlink:href="dir_000024_000011.html" target="_top" xlink:title="25">
<text text-anchor="middle" x="266.6" y="-149.04" font-family="Helvetica,sans-Serif" font-size="10.00" fill="#63b8ff">25</text>
</a>
</g>
</g>
<!-- dir_d1ed25abdb4425f8cc893afb2160bbbe -->
<g id="node13" class="node">
<title>dir_d1ed25abdb4425f8cc893afb2160bbbe</title>
<g id="a_node13"><a xlink:href="dir_d1ed25abdb4425f8cc893afb2160bbbe.html" target="_top" xlink:title="Passes">
<polygon fill="#a2b4d6" stroke="#404040" points="478,-200 428,-200 428,-181 478,-181 478,-200"/>
<text text-anchor="middle" x="453" y="-188" font-family="Helvetica,sans-Serif" font-size="10.00">Passes</text>
</a>
</g>
</g>
<!-- dir_6556945d274d6e1e874171d9d575b3f4&#45;&gt;dir_d1ed25abdb4425f8cc893afb2160bbbe -->
<g id="edge12" class="edge">
<title>dir_6556945d274d6e1e874171d9d575b3f4&#45;&gt;dir_d1ed25abdb4425f8cc893afb2160bbbe</title>
<g id="a_edge12"><a xlink:href="dir_000024_000019.html" target="_top">
<path fill="none" stroke="#63b8ff" d="M471.37,-235.75C468.42,-228.65 464.17,-218.4 460.49,-209.56"/>
<polygon fill="#63b8ff" stroke="#63b8ff" points="463.63,-207.98 456.57,-200.09 457.17,-210.67 463.63,-207.98"/>
</a>
</g>
<g id="a_edge12&#45;headlabel"><a xlink:href="dir_000024_000019.html" target="_top" xlink:title="3">
<text text-anchor="middle" x="467.63" y="-207.71" font-family="Helvetica,sans-Serif" font-size="10.00" fill="#63b8ff">3</text>
</a>
</g>
</g>
<!-- dir_0133e64b3a4c854b47f86a7b8e0c9983 -->
<g id="node14" class="node">
<title>dir_0133e64b3a4c854b47f86a7b8e0c9983</title>
<g id="a_node14"><a xlink:href="dir_0133e64b3a4c854b47f86a7b8e0c9983.html" target="_top" xlink:title="Pointer">
<polygon fill="#a2b4d6" stroke="#404040" points="519.5,-90 468.5,-90 468.5,-71 519.5,-71 519.5,-90"/>
<text text-anchor="middle" x="494" y="-78" font-family="Helvetica,sans-Serif" font-size="10.00">Pointer</text>
</a>
</g>
</g>
<!-- dir_6556945d274d6e1e874171d9d575b3f4&#45;&gt;dir_0133e64b3a4c854b47f86a7b8e0c9983 -->
<g id="edge1" class="edge">
<title>dir_6556945d274d6e1e874171d9d575b3f4&#45;&gt;dir_0133e64b3a4c854b47f86a7b8e0c9983</title>
<g id="a_edge1"><a xlink:href="dir_000024_000026.html" target="_top">
<path fill="none" stroke="#63b8ff" d="M488.77,-235.86C511.44,-220.71 555.81,-186.95 573,-145 582.94,-120.74 554.56,-103.22 529.09,-92.8"/>
<polygon fill="#63b8ff" stroke="#63b8ff" points="530.15,-89.46 519.56,-89.15 527.65,-95.99 530.15,-89.46"/>
</a>
</g>
<g id="a_edge1&#45;headlabel"><a xlink:href="dir_000024_000026.html" target="_top" xlink:title="29">
<text text-anchor="middle" x="534.52" y="-85.59" font-family="Helvetica,sans-Serif" font-size="10.00" fill="#63b8ff">29</text>
</a>
</g>
</g>
<!-- dir_63e7bb0cb88dc7cebeab7c37a85fbe32 -->
<g id="node15" class="node">
<title>dir_63e7bb0cb88dc7cebeab7c37a85fbe32</title>
<g id="a_node15"><a xlink:href="dir_63e7bb0cb88dc7cebeab7c37a85fbe32.html" target="_top" xlink:title="TaintConfig">
<polygon fill="#a2b4d6" stroke="#404040" points="411.5,-145 340.5,-145 340.5,-126 411.5,-126 411.5,-145"/>
<text text-anchor="middle" x="376" y="-133" font-family="Helvetica,sans-Serif" font-size="10.00">TaintConfig</text>
</a>
</g>
</g>
<!-- dir_6556945d274d6e1e874171d9d575b3f4&#45;&gt;dir_63e7bb0cb88dc7cebeab7c37a85fbe32 -->
<g id="edge7" class="edge">
<title>dir_6556945d274d6e1e874171d9d575b3f4&#45;&gt;dir_63e7bb0cb88dc7cebeab7c37a85fbe32</title>
<g id="a_edge7"><a xlink:href="dir_000024_000034.html" target="_top">
<path fill="none" stroke="#63b8ff" d="M437.29,-243.83C404.83,-241.01 359.75,-231.24 337,-200 325.5,-184.2 341.14,-164.95 355.9,-151.81"/>
<polygon fill="#63b8ff" stroke="#63b8ff" points="358.39,-154.29 363.84,-145.2 353.91,-148.91 358.39,-154.29"/>
</a>
</g>
<g id="a_edge7&#45;headlabel"><a xlink:href="dir_000024_000034.html" target="_top" xlink:title="5">
<text text-anchor="middle" x="357.45" y="-156.27" font-family="Helvetica,sans-Serif" font-size="10.00" fill="#63b8ff">5</text>
</a>
</g>
</g>
<!-- dir_04c97d3322b5ffe9ec5885b952098baa -->
<g id="node16" class="node">
<title>dir_04c97d3322b5ffe9ec5885b952098baa</title>
<g id="a_node16"><a xlink:href="dir_04c97d3322b5ffe9ec5885b952098baa.html" target="_top" xlink:title="TypeHierarchy">
<polygon fill="#a2b4d6" stroke="#404040" points="624,-90 538,-90 538,-71 624,-71 624,-90"/>
<text text-anchor="middle" x="581" y="-78" font-family="Helvetica,sans-Serif" font-size="10.00">TypeHierarchy</text>
</a>
</g>
</g>
<!-- dir_6556945d274d6e1e874171d9d575b3f4&#45;&gt;dir_04c97d3322b5ffe9ec5885b952098baa -->
<g id="edge2" class="edge">
<title>dir_6556945d274d6e1e874171d9d575b3f4&#45;&gt;dir_04c97d3322b5ffe9ec5885b952098baa</title>
<g id="a_edge2"><a xlink:href="dir_000024_000035.html" target="_top">
<path fill="none" stroke="#63b8ff" d="M494.21,-235.9C509.84,-228.19 531.73,-215.69 547,-200 566.73,-179.74 571.21,-172.19 579,-145 583.14,-130.55 583.44,-113.49 582.81,-100.69"/>
<polygon fill="#63b8ff" stroke="#63b8ff" points="586.28,-100.06 582.06,-90.34 579.3,-100.56 586.28,-100.06"/>
</a>
</g>
<g id="a_edge2&#45;headlabel"><a xlink:href="dir_000024_000035.html" target="_top" xlink:title="5">
<text text-anchor="middle" x="589.37" y="-100.94" font-family="Helvetica,sans-Serif" font-size="10.00" fill="#63b8ff">5</text>
</a>
</g>
</g>
<!-- dir_079f3dfffeb9e770010097b0dd1334eb -->
<g id="node17" class="node">
<title>dir_079f3dfffeb9e770010097b0dd1334eb</title>
<g id="a_node17"><a xlink:href="dir_079f3dfffeb9e770010097b0dd1334eb.html" target="_top" xlink:title="Utils">
<polygon fill="#a2b4d6" stroke="#404040" points="395.5,-90 356.5,-90 356.5,-71 395.5,-71 395.5,-90"/>
<text text-anchor="middle" x="376" y="-78" font-family="Helvetica,sans-Serif" font-size="10.00">Utils</text>
</a>
</g>
</g>
<!-- dir_6556945d274d6e1e874171d9d575b3f4&#45;&gt;dir_079f3dfffeb9e770010097b0dd1334eb -->
<g id="edge3" class="edge">
<title>dir_6556945d274d6e1e874171d9d575b3f4&#45;&gt;dir_079f3dfffeb9e770010097b0dd1334eb</title>
<g id="a_edge3"><a xlink:href="dir_000024_000038.html" target="_top">
<path fill="none" stroke="#63b8ff" d="M479.72,-235.91C485.94,-223.35 495.21,-199.45 487,-181 469.59,-141.87 428.31,-111.75 401.29,-95.34"/>
<polygon fill="#63b8ff" stroke="#63b8ff" points="402.78,-92.16 392.39,-90.12 399.24,-98.2 402.78,-92.16"/>
</a>
</g>
<g id="a_edge3&#45;headlabel"><a xlink:href="dir_000024_000038.html" target="_top" xlink:title="24">
<text text-anchor="middle" x="407.32" y="-89.03" font-family="Helvetica,sans-Serif" font-size="10.00" fill="#63b8ff">24</text>
</a>
</g>
</g>
<!-- dir_0bc4dee926a629f715a9261d8d248ef6&#45;&gt;dir_9d06c2f3a5ac32ab80fc048d7ff16b35 -->
<g id="edge16" class="edge">
<title>dir_0bc4dee926a629f715a9261d8d248ef6&#45;&gt;dir_9d06c2f3a5ac32ab80fc048d7ff16b35</title>
<g id="a_edge16"><a xlink:href="dir_000004_000003.html" target="_top">
<path fill="none" stroke="#63b8ff" d="M552.39,-125.98C578.8,-117.13 620.35,-103.19 649.89,-93.28"/>
<polygon fill="#63b8ff" stroke="#63b8ff" points="651.05,-96.58 659.42,-90.08 648.82,-89.94 651.05,-96.58"/>
</a>
</g>
<g id="a_edge16&#45;headlabel"><a xlink:href="dir_000004_000003.html" target="_top" xlink:title="10">
<text text-anchor="middle" x="648.54" y="-97.92" font-family="Helvetica,sans-Serif" font-size="10.00" fill="#63b8ff">10</text>
</a>
</g>
</g>
<!-- dir_0bc4dee926a629f715a9261d8d248ef6&#45;&gt;dir_aeca43db7a276eb6dbfba1f93dc4539c -->
<g id="edge17" class="edge">
<title>dir_0bc4dee926a629f715a9261d8d248ef6&#45;&gt;dir_aeca43db7a276eb6dbfba1f93dc4539c</title>
<g id="a_edge17"><a xlink:href="dir_000004_000039.html" target="_top">
<path fill="none" stroke="#63b8ff" d="M489.24,-127.1C452.45,-119.44 395.17,-106.31 347,-90 318.53,-80.36 312.64,-74.81 285,-63 265.74,-54.77 244.01,-45.65 227.08,-38.59"/>
<polygon fill="#63b8ff" stroke="#63b8ff" points="228.3,-35.3 217.73,-34.69 225.61,-41.76 228.3,-35.3"/>
</a>
</g>
<g id="a_edge17&#45;headlabel"><a xlink:href="dir_000004_000039.html" target="_top" xlink:title="4">
<text text-anchor="middle" x="232.71" y="-31.57" font-family="Helvetica,sans-Serif" font-size="10.00" fill="#63b8ff">4</text>
</a>
</g>
</g>
<!-- dir_0bc4dee926a629f715a9261d8d248ef6&#45;&gt;dir_0133e64b3a4c854b47f86a7b8e0c9983 -->
<g id="edge13" class="edge">
<title>dir_0bc4dee926a629f715a9261d8d248ef6&#45;&gt;dir_0133e64b3a4c854b47f86a7b8e0c9983</title>
<g id="a_edge13"><a xlink:href="dir_000004_000026.html" target="_top">
<path fill="none" stroke="#63b8ff" d="M521.55,-125.75C516.99,-118.42 510.33,-107.73 504.71,-98.7"/>
<polygon fill="#63b8ff" stroke="#63b8ff" points="507.6,-96.73 499.35,-90.09 501.66,-100.43 507.6,-96.73"/>
</a>
</g>
<g id="a_edge13&#45;headlabel"><a xlink:href="dir_000004_000026.html" target="_top" xlink:title="5">
<text text-anchor="middle" x="511.91" y="-95.78" font-family="Helvetica,sans-Serif" font-size="10.00" fill="#63b8ff">5</text>
</a>
</g>
</g>
<!-- dir_0bc4dee926a629f715a9261d8d248ef6&#45;&gt;dir_04c97d3322b5ffe9ec5885b952098baa -->
<g id="edge14" class="edge">
<title>dir_0bc4dee926a629f715a9261d8d248ef6&#45;&gt;dir_04c97d3322b5ffe9ec5885b952098baa</title>
<g id="a_edge14"><a xlink:href="dir_000004_000035.html" target="_top">
<path fill="none" stroke="#63b8ff" d="M535.92,-125.75C543.78,-118.03 555.43,-106.6 564.92,-97.28"/>
<polygon fill="#63b8ff" stroke="#63b8ff" points="567.56,-99.59 572.25,-90.09 562.66,-94.6 567.56,-99.59"/>
</a>
</g>
<g id="a_edge14&#45;headlabel"><a xlink:href="dir_000004_000035.html" target="_top" xlink:title="1">
<text text-anchor="middle" x="566.99" y="-101.64" font-family="Helvetica,sans-Serif" font-size="10.00" fill="#63b8ff">1</text>
</a>
</g>
</g>
<!-- dir_0bc4dee926a629f715a9261d8d248ef6&#45;&gt;dir_079f3dfffeb9e770010097b0dd1334eb -->
<g id="edge15" class="edge">
<title>dir_0bc4dee926a629f715a9261d8d248ef6&#45;&gt;dir_079f3dfffeb9e770010097b0dd1334eb</title>
<g id="a_edge15"><a xlink:href="dir_000004_000038.html" target="_top">
<path fill="none" stroke="#63b8ff" d="M502.74,-125.98C476.31,-116.71 434.01,-101.86 405.63,-91.9"/>
<polygon fill="#63b8ff" stroke="#63b8ff" points="406.46,-88.48 395.86,-88.47 404.14,-95.09 406.46,-88.48"/>
</a>
</g>
<g id="a_edge15&#45;headlabel"><a xlink:href="dir_000004_000038.html" target="_top" xlink:title="3">
<text text-anchor="middle" x="410.79" y="-84.49" font-family="Helvetica,sans-Serif" font-size="10.00" fill="#63b8ff">3</text>
</a>
</g>
</g>
<!-- dir_b11f051d1364f2a30973d8d796d4babf&#45;&gt;dir_15b1266ec3c6694d64b0cfc160192d3b -->
<g id="edge22" class="edge">
<title>dir_b11f051d1364f2a30973d8d796d4babf&#45;&gt;dir_15b1266ec3c6694d64b0cfc160192d3b</title>
<g id="a_edge22"><a xlink:href="dir_000006_000010.html" target="_top">
<path fill="none" stroke="#63b8ff" d="M346.47,-182.05C304.88,-172.07 234.02,-154.53 209,-145 172.25,-131.01 132.1,-109.39 107.48,-95.34"/>
<polygon fill="#63b8ff" stroke="#63b8ff" points="108.95,-92.15 98.54,-90.18 105.45,-98.21 108.95,-92.15"/>
</a>
</g>
<g id="a_edge22&#45;headlabel"><a xlink:href="dir_000006_000010.html" target="_top" xlink:title="9">
<text text-anchor="middle" x="113.48" y="-88.98" font-family="Helvetica,sans-Serif" font-size="10.00" fill="#63b8ff">9</text>
</a>
</g>
</g>
<!-- dir_b11f051d1364f2a30973d8d796d4babf&#45;&gt;dir_69cf206f122d9153ac8b30a0f4a917bf -->
<g id="edge20" class="edge">
<title>dir_b11f051d1364f2a30973d8d796d4babf&#45;&gt;dir_69cf206f122d9153ac8b30a0f4a917bf</title>
<g id="a_edge20"><a xlink:href="dir_000006_000005.html" target="_top">
<path fill="none" stroke="#63b8ff" d="M409.76,-182.78C412.88,-182.16 416,-181.56 419,-181 511.91,-163.67 538.3,-163.66 632.18,-145.69"/>
<polygon fill="#63b8ff" stroke="#63b8ff" points="632.94,-149.11 642.1,-143.77 631.62,-142.23 632.94,-149.11"/>
</a>
</g>
<g id="a_edge20&#45;headlabel"><a xlink:href="dir_000006_000005.html" target="_top" xlink:title="56">
<text text-anchor="middle" x="629.95" y="-150.07" font-family="Helvetica,sans-Serif" font-size="10.00" fill="#63b8ff">56</text>
</a>
</g>
</g>
<!-- dir_b11f051d1364f2a30973d8d796d4babf&#45;&gt;dir_aeca43db7a276eb6dbfba1f93dc4539c -->
<g id="edge21" class="edge">
<title>dir_b11f051d1364f2a30973d8d796d4babf&#45;&gt;dir_aeca43db7a276eb6dbfba1f93dc4539c</title>
<g id="a_edge21"><a xlink:href="dir_000006_000039.html" target="_top">
<path fill="none" stroke="#63b8ff" d="M346.21,-181.93C344.79,-181.61 343.38,-181.3 342,-181 207.96,-151.7 120.35,-205.96 47,-90 17.97,-44.11 116.23,-31.35 168.06,-27.83"/>
<polygon fill="#63b8ff" stroke="#63b8ff" points="168.58,-31.3 178.35,-27.21 168.16,-24.32 168.58,-31.3"/>
</a>
</g>
<g id="a_edge21&#45;headlabel"><a xlink:href="dir_000006_000039.html" target="_top" xlink:title="32">
<text text-anchor="middle" x="165.16" y="-31.85" font-family="Helvetica,sans-Serif" font-size="10.00" fill="#63b8ff">32</text>
</a>
</g>
</g>
<!-- dir_b11f051d1364f2a30973d8d796d4babf&#45;&gt;dir_0bc4dee926a629f715a9261d8d248ef6 -->
<g id="edge23" class="edge">
<title>dir_b11f051d1364f2a30973d8d796d4babf&#45;&gt;dir_0bc4dee926a629f715a9261d8d248ef6</title>
<g id="a_edge23"><a xlink:href="dir_000006_000004.html" target="_top">
<path fill="none" stroke="#63b8ff" d="M401.94,-180.98C426.56,-172.23 465.12,-158.51 492.92,-148.62"/>
<polygon fill="#63b8ff" stroke="#63b8ff" points="494.38,-151.82 502.62,-145.17 492.03,-145.22 494.38,-151.82"/>
</a>
</g>
<g id="a_edge23&#45;headlabel"><a xlink:href="dir_000006_000004.html" target="_top" xlink:title="5">
<text text-anchor="middle" x="491.94" y="-153.2" font-family="Helvetica,sans-Serif" font-size="10.00" fill="#63b8ff">5</text>
</a>
</g>
</g>
<!-- dir_b11f051d1364f2a30973d8d796d4babf&#45;&gt;dir_68aec2623aad94785c017c13c687e045 -->
<g id="edge25" class="edge">
<title>dir_b11f051d1364f2a30973d8d796d4babf&#45;&gt;dir_68aec2623aad94785c017c13c687e045</title>
<g id="a_edge25"><a xlink:href="dir_000006_000008.html" target="_top">
<path fill="none" stroke="#63b8ff" d="M366.59,-180.98C355.89,-173 339.66,-160.88 326.84,-151.31"/>
<polygon fill="#63b8ff" stroke="#63b8ff" points="328.72,-148.35 318.61,-145.17 324.53,-153.96 328.72,-148.35"/>
</a>
</g>
<g id="a_edge25&#45;headlabel"><a xlink:href="dir_000006_000008.html" target="_top" xlink:title="4">
<text text-anchor="middle" x="333.3" y="-145.72" font-family="Helvetica,sans-Serif" font-size="10.00" fill="#63b8ff">4</text>
</a>
</g>
</g>
<!-- dir_b11f051d1364f2a30973d8d796d4babf&#45;&gt;dir_189eb8c36ffce94640b9d816bc05823d -->
<g id="edge24" class="edge">
<title>dir_b11f051d1364f2a30973d8d796d4babf&#45;&gt;dir_189eb8c36ffce94640b9d816bc05823d</title>
<g id="a_edge24"><a xlink:href="dir_000006_000011.html" target="_top">
<path fill="none" stroke="#63b8ff" d="M356.79,-180.98C335.27,-172.34 301.72,-158.87 277.17,-149.02"/>
<polygon fill="#63b8ff" stroke="#63b8ff" points="278.18,-145.65 267.59,-145.17 275.57,-152.14 278.18,-145.65"/>
</a>
</g>
<g id="a_edge24&#45;headlabel"><a xlink:href="dir_000006_000011.html" target="_top" xlink:title="24">
<text text-anchor="middle" x="282.57" y="-141.85" font-family="Helvetica,sans-Serif" font-size="10.00" fill="#63b8ff">24</text>
</a>
</g>
</g>
<!-- dir_b11f051d1364f2a30973d8d796d4babf&#45;&gt;dir_0133e64b3a4c854b47f86a7b8e0c9983 -->
<g id="edge18" class="edge">
<title>dir_b11f051d1364f2a30973d8d796d4babf&#45;&gt;dir_0133e64b3a4c854b47f86a7b8e0c9983</title>
<g id="a_edge18"><a xlink:href="dir_000006_000026.html" target="_top">
<path fill="none" stroke="#63b8ff" d="M387.21,-180.98C396.88,-172.03 412.52,-157.54 426,-145 443.43,-128.78 463.33,-110.19 477.08,-97.33"/>
<polygon fill="#63b8ff" stroke="#63b8ff" points="479.86,-99.53 484.77,-90.14 475.08,-94.41 479.86,-99.53"/>
</a>
</g>
<g id="a_edge18&#45;headlabel"><a xlink:href="dir_000006_000026.html" target="_top" xlink:title="17">
<text text-anchor="middle" x="479.17" y="-101.55" font-family="Helvetica,sans-Serif" font-size="10.00" fill="#63b8ff">17</text>
</a>
</g>
</g>
<!-- dir_b11f051d1364f2a30973d8d796d4babf&#45;&gt;dir_63e7bb0cb88dc7cebeab7c37a85fbe32 -->
<g id="edge26" class="edge">
<title>dir_b11f051d1364f2a30973d8d796d4babf&#45;&gt;dir_63e7bb0cb88dc7cebeab7c37a85fbe32</title>
<g id="a_edge26"><a xlink:href="dir_000006_000034.html" target="_top">
<path fill="none" stroke="#63b8ff" d="M377.67,-180.75C377.41,-173.8 377.03,-163.85 376.7,-155.13"/>
<polygon fill="#63b8ff" stroke="#63b8ff" points="380.2,-154.95 376.32,-145.09 373.2,-155.21 380.2,-154.95"/>
</a>
</g>
<g id="a_edge26&#45;headlabel"><a xlink:href="dir_000006_000034.html" target="_top" xlink:title="2">
<text text-anchor="middle" x="383.17" y="-155.93" font-family="Helvetica,sans-Serif" font-size="10.00" fill="#63b8ff">2</text>
</a>
</g>
</g>
<!-- dir_b11f051d1364f2a30973d8d796d4babf&#45;&gt;dir_04c97d3322b5ffe9ec5885b952098baa -->
<g id="edge27" class="edge">
<title>dir_b11f051d1364f2a30973d8d796d4babf&#45;&gt;dir_04c97d3322b5ffe9ec5885b952098baa</title>
<g id="a_edge27"><a xlink:href="dir_000006_000035.html" target="_top">
<path fill="none" stroke="#63b8ff" d="M409.65,-182.76C464.16,-171.09 570.23,-148.06 573,-145 583.83,-133.04 584.95,-114.22 583.89,-100.17"/>
<polygon fill="#63b8ff" stroke="#63b8ff" points="587.35,-99.67 582.71,-90.15 580.4,-100.49 587.35,-99.67"/>
</a>
</g>
<g id="a_edge27&#45;headlabel"><a xlink:href="dir_000006_000035.html" target="_top" xlink:title="1">
<text text-anchor="middle" x="590.59" y="-100.41" font-family="Helvetica,sans-Serif" font-size="10.00" fill="#63b8ff">1</text>
</a>
</g>
</g>
<!-- dir_b11f051d1364f2a30973d8d796d4babf&#45;&gt;dir_079f3dfffeb9e770010097b0dd1334eb -->
<g id="edge19" class="edge">
<title>dir_b11f051d1364f2a30973d8d796d4babf&#45;&gt;dir_079f3dfffeb9e770010097b0dd1334eb</title>
<g id="a_edge19"><a xlink:href="dir_000006_000038.html" target="_top">
<path fill="none" stroke="#63b8ff" d="M390.59,-180.88C405.94,-169.21 428.79,-147.39 420,-126 415.19,-114.31 405.67,-104.05 396.7,-96.34"/>
<polygon fill="#63b8ff" stroke="#63b8ff" points="398.77,-93.51 388.78,-90 394.4,-98.98 398.77,-93.51"/>
</a>
</g>
<g id="a_edge19&#45;headlabel"><a xlink:href="dir_000006_000038.html" target="_top" xlink:title="11">
<text text-anchor="middle" x="403.35" y="-91.04" font-family="Helvetica,sans-Serif" font-size="10.00" fill="#63b8ff">11</text>
</a>
</g>
</g>
<!-- dir_68aec2623aad94785c017c13c687e045&#45;&gt;dir_1f703d4dd1e982897af273349847e927 -->
<g id="edge29" class="edge">
<title>dir_68aec2623aad94785c017c13c687e045&#45;&gt;dir_1f703d4dd1e982897af273349847e927</title>
<g id="a_edge29"><a xlink:href="dir_000008_000007.html" target="_top">
<path fill="none" stroke="#63b8ff" d="M291.18,-127.57C270.8,-118.64 235.13,-103.02 211.05,-92.47"/>
<polygon fill="#63b8ff" stroke="#63b8ff" points="212.39,-89.24 201.82,-88.43 209.58,-95.65 212.39,-89.24"/>
</a>
</g>
<g id="a_edge29&#45;headlabel"><a xlink:href="dir_000008_000007.html" target="_top" xlink:title="1">
<text text-anchor="middle" x="216.82" y="-85.58" font-family="Helvetica,sans-Serif" font-size="10.00" fill="#63b8ff">1</text>
</a>
</g>
</g>
<!-- dir_68aec2623aad94785c017c13c687e045&#45;&gt;dir_aeca43db7a276eb6dbfba1f93dc4539c -->
<g id="edge30" class="edge">
<title>dir_68aec2623aad94785c017c13c687e045&#45;&gt;dir_aeca43db7a276eb6dbfba1f93dc4539c</title>
<g id="a_edge30"><a xlink:href="dir_000008_000039.html" target="_top">
<path fill="none" stroke="#63b8ff" d="M291.43,-129.1C288.31,-128.05 285.06,-126.97 282,-126 228.54,-108.97 194.54,-134.98 161,-90 153.83,-80.38 156.37,-74.07 161,-63 164.43,-54.81 170.69,-47.52 177.1,-41.65"/>
<polygon fill="#63b8ff" stroke="#63b8ff" points="179.64,-44.09 185.1,-35.01 175.17,-38.7 179.64,-44.09"/>
</a>
</g>
<g id="a_edge30&#45;headlabel"><a xlink:href="dir_000008_000039.html" target="_top" xlink:title="2">
<text text-anchor="middle" x="178.68" y="-46.07" font-family="Helvetica,sans-Serif" font-size="10.00" fill="#63b8ff">2</text>
</a>
</g>
</g>
<!-- dir_68aec2623aad94785c017c13c687e045&#45;&gt;dir_079f3dfffeb9e770010097b0dd1334eb -->
<g id="edge28" class="edge">
<title>dir_68aec2623aad94785c017c13c687e045&#45;&gt;dir_079f3dfffeb9e770010097b0dd1334eb</title>
<g id="a_edge28"><a xlink:href="dir_000008_000038.html" target="_top">
<path fill="none" stroke="#63b8ff" d="M318.09,-125.98C328.49,-118 344.26,-105.88 356.72,-96.31"/>
<polygon fill="#63b8ff" stroke="#63b8ff" points="358.91,-99.04 364.71,-90.17 354.65,-93.49 358.91,-99.04"/>
</a>
</g>
<g id="a_edge28&#45;headlabel"><a xlink:href="dir_000008_000038.html" target="_top" xlink:title="1">
<text text-anchor="middle" x="357.79" y="-100.98" font-family="Helvetica,sans-Serif" font-size="10.00" fill="#63b8ff">1</text>
</a>
</g>
</g>
<!-- dir_189eb8c36ffce94640b9d816bc05823d&#45;&gt;dir_15b1266ec3c6694d64b0cfc160192d3b -->
<g id="edge32" class="edge">
<title>dir_189eb8c36ffce94640b9d816bc05823d&#45;&gt;dir_15b1266ec3c6694d64b0cfc160192d3b</title>
<g id="a_edge32"><a xlink:href="dir_000011_000010.html" target="_top">
<path fill="none" stroke="#63b8ff" d="M219.97,-125.98C192.89,-117.13 150.29,-103.19 119.99,-93.28"/>
<polygon fill="#63b8ff" stroke="#63b8ff" points="120.82,-89.87 110.23,-90.08 118.65,-96.52 120.82,-89.87"/>
</a>
</g>
<g id="a_edge32&#45;headlabel"><a xlink:href="dir_000011_000010.html" target="_top" xlink:title="1">
<text text-anchor="middle" x="125.12" y="-85.78" font-family="Helvetica,sans-Serif" font-size="10.00" fill="#63b8ff">1</text>
</a>
</g>
</g>
<!-- dir_189eb8c36ffce94640b9d816bc05823d&#45;&gt;dir_aeca43db7a276eb6dbfba1f93dc4539c -->
<g id="edge33" class="edge">
<title>dir_189eb8c36ffce94640b9d816bc05823d&#45;&gt;dir_aeca43db7a276eb6dbfba1f93dc4539c</title>
<g id="a_edge33"><a xlink:href="dir_000011_000039.html" target="_top">
<path fill="none" stroke="#63b8ff" d="M218.35,-125.96C191.74,-117.12 154.33,-102.83 146,-90 139.46,-79.94 140.47,-73.65 146,-63 151.17,-53.06 160.42,-45.27 169.7,-39.47"/>
<polygon fill="#63b8ff" stroke="#63b8ff" points="171.48,-42.49 178.47,-34.53 168.04,-36.39 171.48,-42.49"/>
</a>
</g>
<g id="a_edge33&#45;headlabel"><a xlink:href="dir_000011_000039.html" target="_top" xlink:title="2">
<text text-anchor="middle" x="169.74" y="-44.23" font-family="Helvetica,sans-Serif" font-size="10.00" fill="#63b8ff">2</text>
</a>
</g>
</g>
<!-- dir_189eb8c36ffce94640b9d816bc05823d&#45;&gt;dir_079f3dfffeb9e770010097b0dd1334eb -->
<g id="edge31" class="edge">
<title>dir_189eb8c36ffce94640b9d816bc05823d&#45;&gt;dir_079f3dfffeb9e770010097b0dd1334eb</title>
<g id="a_edge31"><a xlink:href="dir_000011_000038.html" target="_top">
<path fill="none" stroke="#63b8ff" d="M266.89,-125.98C288.59,-117.14 322.71,-103.23 347.01,-93.32"/>
<polygon fill="#63b8ff" stroke="#63b8ff" points="348.5,-96.49 356.44,-89.47 345.86,-90.01 348.5,-96.49"/>
</a>
</g>
<g id="a_edge31&#45;headlabel"><a xlink:href="dir_000011_000038.html" target="_top" xlink:title="1">
<text text-anchor="middle" x="346.25" y="-97.98" font-family="Helvetica,sans-Serif" font-size="10.00" fill="#63b8ff">1</text>
</a>
</g>
</g>
<!-- dir_0133e64b3a4c854b47f86a7b8e0c9983&#45;&gt;dir_58a8bb8411baaae7f5177ea38c71ea73 -->
<g id="edge34" class="edge">
<title>dir_0133e64b3a4c854b47f86a7b8e0c9983&#45;&gt;dir_58a8bb8411baaae7f5177ea38c71ea73</title>
<g id="a_edge34"><a xlink:href="dir_000026_000027.html" target="_top">
<path fill="none" stroke="#63b8ff" d="M510.42,-70.83C516.18,-68.04 522.77,-65.13 529,-63 572.53,-48.13 624.63,-37.79 658.47,-32"/>
<polygon fill="#63b8ff" stroke="#63b8ff" points="659.07,-35.45 668.36,-30.35 657.92,-28.54 659.07,-35.45"/>
</a>
</g>
<g id="a_edge34&#45;headlabel"><a xlink:href="dir_000026_000027.html" target="_top" xlink:title="15">
<text text-anchor="middle" x="655.99" y="-36.34" font-family="Helvetica,sans-Serif" font-size="10.00" fill="#63b8ff">15</text>
</a>
</g>
</g>
<!-- dir_0133e64b3a4c854b47f86a7b8e0c9983&#45;&gt;dir_aeca43db7a276eb6dbfba1f93dc4539c -->
<g id="edge35" class="edge">
<title>dir_0133e64b3a4c854b47f86a7b8e0c9983&#45;&gt;dir_aeca43db7a276eb6dbfba1f93dc4539c</title>
<g id="a_edge35"><a xlink:href="dir_000026_000039.html" target="_top">
<path fill="none" stroke="#63b8ff" d="M468.4,-74.77C450.4,-71.44 425.73,-66.92 404,-63 341.16,-51.67 267.49,-38.69 227.49,-31.67"/>
<polygon fill="#63b8ff" stroke="#63b8ff" points="228.06,-28.21 217.61,-29.93 226.85,-35.11 228.06,-28.21"/>
</a>
</g>
<g id="a_edge35&#45;headlabel"><a xlink:href="dir_000026_000039.html" target="_top" xlink:title="1">
<text text-anchor="middle" x="232.09" y="-23.54" font-family="Helvetica,sans-Serif" font-size="10.00" fill="#63b8ff">1</text>
</a>
</g>
</g>
<!-- dir_63e7bb0cb88dc7cebeab7c37a85fbe32&#45;&gt;dir_aeca43db7a276eb6dbfba1f93dc4539c -->
<g id="edge37" class="edge">
<title>dir_63e7bb0cb88dc7cebeab7c37a85fbe32&#45;&gt;dir_aeca43db7a276eb6dbfba1f93dc4539c</title>
<g id="a_edge37"><a xlink:href="dir_000034_000039.html" target="_top">
<path fill="none" stroke="#63b8ff" d="M361.73,-125.84C331.01,-107.2 258.35,-63.11 221.02,-40.46"/>
<polygon fill="#63b8ff" stroke="#63b8ff" points="222.7,-37.39 212.33,-35.2 219.07,-43.38 222.7,-37.39"/>
</a>
</g>
<g id="a_edge37&#45;headlabel"><a xlink:href="dir_000034_000039.html" target="_top" xlink:title="1">
<text text-anchor="middle" x="227.24" y="-34.33" font-family="Helvetica,sans-Serif" font-size="10.00" fill="#63b8ff">1</text>
</a>
</g>
</g>
<!-- dir_63e7bb0cb88dc7cebeab7c37a85fbe32&#45;&gt;dir_079f3dfffeb9e770010097b0dd1334eb -->
<g id="edge36" class="edge">
<title>dir_63e7bb0cb88dc7cebeab7c37a85fbe32&#45;&gt;dir_079f3dfffeb9e770010097b0dd1334eb</title>
<g id="a_edge36"><a xlink:href="dir_000034_000038.html" target="_top">
<path fill="none" stroke="#63b8ff" d="M376,-125.75C376,-118.8 376,-108.85 376,-100.13"/>
<polygon fill="#63b8ff" stroke="#63b8ff" points="379.5,-100.09 376,-90.09 372.5,-100.09 379.5,-100.09"/>
</a>
</g>
<g id="a_edge36&#45;headlabel"><a xlink:href="dir_000034_000038.html" target="_top" xlink:title="1">
<text text-anchor="middle" x="382.34" y="-101.18" font-family="Helvetica,sans-Serif" font-size="10.00" fill="#63b8ff">1</text>
</a>
</g>
</g>
<!-- dir_04c97d3322b5ffe9ec5885b952098baa&#45;&gt;dir_cd166ded320aef6ec75102a3779bae14 -->
<g id="edge38" class="edge">
<title>dir_04c97d3322b5ffe9ec5885b952098baa&#45;&gt;dir_cd166ded320aef6ec75102a3779bae14</title>
<g id="a_edge38"><a xlink:href="dir_000035_000036.html" target="_top">
<path fill="none" stroke="#63b8ff" d="M581,-70.75C581,-63.8 581,-53.85 581,-45.13"/>
<polygon fill="#63b8ff" stroke="#63b8ff" points="584.5,-45.09 581,-35.09 577.5,-45.09 584.5,-45.09"/>
</a>
</g>
<g id="a_edge38&#45;headlabel"><a xlink:href="dir_000035_000036.html" target="_top" xlink:title="3">
<text text-anchor="middle" x="587.34" y="-46.18" font-family="Helvetica,sans-Serif" font-size="10.00" fill="#63b8ff">3</text>
</a>
</g>
</g>
<!-- dir_079f3dfffeb9e770010097b0dd1334eb&#45;&gt;dir_aeca43db7a276eb6dbfba1f93dc4539c -->
<g id="edge39" class="edge">
<title>dir_079f3dfffeb9e770010097b0dd1334eb&#45;&gt;dir_aeca43db7a276eb6dbfba1f93dc4539c</title>
<g id="a_edge39"><a xlink:href="dir_000038_000039.html" target="_top">
<path fill="none" stroke="#63b8ff" d="M365.27,-70.87C361.3,-68.02 356.62,-65.05 352,-63 310.93,-44.78 259.5,-34.95 227.69,-30.22"/>
<polygon fill="#63b8ff" stroke="#63b8ff" points="228.1,-26.74 217.71,-28.8 227.12,-33.67 228.1,-26.74"/>
</a>
</g>
<g id="a_edge39&#45;headlabel"><a xlink:href="dir_000038_000039.html" target="_top" xlink:title="6">
<text text-anchor="middle" x="232.05" y="-21.93" font-family="Helvetica,sans-Serif" font-size="10.00" fill="#63b8ff">6</text>
</a>
</g>
</g>
</g>
</svg>
