<?xml version="1.0" encoding="UTF-8" standalone="no"?>
<!DOCTYPE svg PUBLIC "-//W3C//DTD SVG 1.1//EN"
 "http://www.w3.org/Graphics/SVG/1.1/DTD/svg11.dtd">
<!-- Generated by graphviz version 2.43.0 (0)
 -->
<!-- Title: include/phasar/DataFlow/IfdsIde Pages: 1 -->
<svg width="434pt" height="196pt"
 viewBox="0.00 0.00 434.00 196.00" xmlns="http://www.w3.org/2000/svg" xmlns:xlink="http://www.w3.org/1999/xlink">
<g id="graph0" class="graph" transform="scale(1 1) rotate(0) translate(4 192)">
<title>include/phasar/DataFlow/IfdsIde</title>
<g id="clust1" class="cluster">
<title>clusterdir_69cf206f122d9153ac8b30a0f4a917bf</title>
<g id="a_clust1"><a xlink:href="dir_69cf206f122d9153ac8b30a0f4a917bf.html" target="_top" xlink:title="DataFlow">
<polygon fill="#edf0f7" stroke="#7f7f7f" stroke-dasharray="5,2" points="65.5,-8 65.5,-180 169.5,-180 169.5,-8 65.5,-8"/>
<text text-anchor="middle" x="117.5" y="-168" font-family="Helvetica,sans-Serif" font-size="10.00">DataFlow</text>
</a>
</g>
</g>
<g id="clust2" class="cluster">
<title>clusterdir_1ba1ec376ff688e17f2e5c57f98f2cf2</title>
<g id="a_clust2"><a xlink:href="dir_1ba1ec376ff688e17f2e5c57f98f2cf2.html" target="_top">
<polygon fill="#edf0f7" stroke="#404040" stroke-width="2" points="95.5,-63 95.5,-153 161.5,-153 161.5,-63 95.5,-63"/>
</a>
</g>
</g>
<!-- dir_f6f31373dd45512da8386c416124f795 -->
<g id="node1" class="node">
<title>dir_f6f31373dd45512da8386c416124f795</title>
<g id="a_node1"><a xlink:href="dir_f6f31373dd45512da8386c416124f795.html" target="_top" xlink:title="PathSensitivity">
<polygon fill="#a2b4d6" stroke="#404040" points="162,-35 73,-35 73,-16 162,-16 162,-35"/>
<text text-anchor="middle" x="117.5" y="-23" font-family="Helvetica,sans-Serif" font-size="10.00">PathSensitivity</text>
</a>
</g>
</g>
<!-- dir_1ba1ec376ff688e17f2e5c57f98f2cf2 -->
<g id="node2" class="node">
<title>dir_1ba1ec376ff688e17f2e5c57f98f2cf2</title>
<text text-anchor="middle" x="128.5" y="-133" font-family="Helvetica,sans-Serif" font-size="10.00">IfdsIde</text>
</g>
<!-- dir_27120034b373ae3c2a91f9cc8c0ee5f4 -->
<g id="node3" class="node">
<title>dir_27120034b373ae3c2a91f9cc8c0ee5f4</title>
<g id="a_node3"><a xlink:href="dir_27120034b373ae3c2a91f9cc8c0ee5f4.html" target="_top" xlink:title="Solver">
<polygon fill="#a2b4d6" stroke="#404040" points="153,-90 106,-90 106,-71 153,-71 153,-90"/>
<text text-anchor="middle" x="129.5" y="-78" font-family="Helvetica,sans-Serif" font-size="10.00">Solver</text>
</a>
</g>
</g>
<!-- dir_1ba1ec376ff688e17f2e5c57f98f2cf2&#45;&gt;dir_27120034b373ae3c2a91f9cc8c0ee5f4 -->
<g id="edge3" class="edge">
<title>dir_1ba1ec376ff688e17f2e5c57f98f2cf2&#45;&gt;dir_27120034b373ae3c2a91f9cc8c0ee5f4</title>
<g id="a_edge3"><a xlink:href="dir_000014_000031.html" target="_top">
<path fill="none" stroke="#63b8ff" d="M128.67,-125.75C128.8,-118.8 128.98,-108.85 129.15,-100.13"/>
<polygon fill="#63b8ff" stroke="#63b8ff" points="132.65,-100.15 129.34,-90.09 125.65,-100.02 132.65,-100.15"/>
</a>
</g>
<g id="a_edge3&#45;headlabel"><a xlink:href="dir_000014_000031.html" target="_top" xlink:title="1">
<text text-anchor="middle" x="135.42" y="-101.3" font-family="Helvetica,sans-Serif" font-size="10.00" fill="#63b8ff">1</text>
</a>
</g>
</g>
<!-- dir_15b1266ec3c6694d64b0cfc160192d3b -->
<g id="node4" class="node">
<title>dir_15b1266ec3c6694d64b0cfc160192d3b</title>
<g id="a_node4"><a xlink:href="dir_15b1266ec3c6694d64b0cfc160192d3b.html" target="_top" xlink:title="Domain">
<polygon fill="#edf0f7" stroke="#7f7f7f" points="55,-35 0,-35 0,-16 55,-16 55,-35"/>
<text text-anchor="middle" x="27.5" y="-23" font-family="Helvetica,sans-Serif" font-size="10.00">Domain</text>
</a>
</g>
</g>
<!-- dir_1ba1ec376ff688e17f2e5c57f98f2cf2&#45;&gt;dir_15b1266ec3c6694d64b0cfc160192d3b -->
<g id="edge1" class="edge">
<title>dir_1ba1ec376ff688e17f2e5c57f98f2cf2&#45;&gt;dir_15b1266ec3c6694d64b0cfc160192d3b</title>
<g id="a_edge1"><a xlink:href="dir_000014_000010.html" target="_top">
<path fill="none" stroke="#63b8ff" d="M120.23,-125.66C103.21,-107.46 64.02,-65.55 42.43,-42.47"/>
<polygon fill="#63b8ff" stroke="#63b8ff" points="44.98,-40.07 35.6,-35.16 39.87,-44.85 44.98,-40.07"/>
</a>
</g>
<g id="a_edge1&#45;headlabel"><a xlink:href="dir_000014_000010.html" target="_top" xlink:title="9">
<text text-anchor="middle" x="49.51" y="-38.26" font-family="Helvetica,sans-Serif" font-size="10.00" fill="#63b8ff">9</text>
</a>
</g>
</g>
<!-- dir_1f703d4dd1e982897af273349847e927 -->
<g id="node5" class="node">
<title>dir_1f703d4dd1e982897af273349847e927</title>
<g id="a_node5"><a xlink:href="dir_1f703d4dd1e982897af273349847e927.html" target="_top" xlink:title="DB">
<polygon fill="#edf0f7" stroke="#7f7f7f" points="211,-35 180,-35 180,-16 211,-16 211,-35"/>
<text text-anchor="middle" x="195.5" y="-23" font-family="Helvetica,sans-Serif" font-size="10.00">DB</text>
</a>
</g>
</g>
<!-- dir_1ba1ec376ff688e17f2e5c57f98f2cf2&#45;&gt;dir_1f703d4dd1e982897af273349847e927 -->
<g id="edge2" class="edge">
<title>dir_1ba1ec376ff688e17f2e5c57f98f2cf2&#45;&gt;dir_1f703d4dd1e982897af273349847e927</title>
<g id="a_edge2"><a xlink:href="dir_000014_000007.html" target="_top">
<path fill="none" stroke="#63b8ff" d="M135.74,-125.96C142.96,-117.23 154.16,-103.13 162.5,-90 171.86,-75.27 180.88,-57.59 187.12,-44.63"/>
<polygon fill="#63b8ff" stroke="#63b8ff" points="190.37,-45.93 191.48,-35.39 184.04,-42.94 190.37,-45.93"/>
</a>
</g>
<g id="a_edge2&#45;headlabel"><a xlink:href="dir_000014_000007.html" target="_top" xlink:title="4">
<text text-anchor="middle" x="191.41" y="-47.89" font-family="Helvetica,sans-Serif" font-size="10.00" fill="#63b8ff">4</text>
</a>
</g>
</g>
<!-- dir_86d6a0ef6fcd04306246bc919bf79e2a -->
<g id="node6" class="node">
<title>dir_86d6a0ef6fcd04306246bc919bf79e2a</title>
<g id="a_node6"><a xlink:href="dir_86d6a0ef6fcd04306246bc919bf79e2a.html" target="_top" xlink:title="Config">
<polygon fill="#edf0f7" stroke="#7f7f7f" points="276,-35 229,-35 229,-16 276,-16 276,-35"/>
<text text-anchor="middle" x="252.5" y="-23" font-family="Helvetica,sans-Serif" font-size="10.00">Config</text>
</a>
</g>
</g>
<!-- dir_1ba1ec376ff688e17f2e5c57f98f2cf2&#45;&gt;dir_86d6a0ef6fcd04306246bc919bf79e2a -->
<g id="edge4" class="edge">
<title>dir_1ba1ec376ff688e17f2e5c57f98f2cf2&#45;&gt;dir_86d6a0ef6fcd04306246bc919bf79e2a</title>
<g id="a_edge4"><a xlink:href="dir_000014_000001.html" target="_top">
<path fill="none" stroke="#63b8ff" d="M139.63,-125.84C150.86,-117.01 168.62,-102.84 183.5,-90 201.84,-74.17 222.17,-55.29 235.98,-42.25"/>
<polygon fill="#63b8ff" stroke="#63b8ff" points="238.45,-44.74 243.3,-35.32 233.63,-39.66 238.45,-44.74"/>
</a>
</g>
<g id="a_edge4&#45;headlabel"><a xlink:href="dir_000014_000001.html" target="_top" xlink:title="2">
<text text-anchor="middle" x="237.79" y="-46.77" font-family="Helvetica,sans-Serif" font-size="10.00" fill="#63b8ff">2</text>
</a>
</g>
</g>
<!-- dir_9d06c2f3a5ac32ab80fc048d7ff16b35 -->
<g id="node7" class="node">
<title>dir_9d06c2f3a5ac32ab80fc048d7ff16b35</title>
<g id="a_node7"><a xlink:href="dir_9d06c2f3a5ac32ab80fc048d7ff16b35.html" target="_top" xlink:title="ControlFlow">
<polygon fill="#edf0f7" stroke="#7f7f7f" points="369,-35 294,-35 294,-16 369,-16 369,-35"/>
<text text-anchor="middle" x="331.5" y="-23" font-family="Helvetica,sans-Serif" font-size="10.00">ControlFlow</text>
</a>
</g>
</g>
<!-- dir_1ba1ec376ff688e17f2e5c57f98f2cf2&#45;&gt;dir_9d06c2f3a5ac32ab80fc048d7ff16b35 -->
<g id="edge5" class="edge">
<title>dir_1ba1ec376ff688e17f2e5c57f98f2cf2&#45;&gt;dir_9d06c2f3a5ac32ab80fc048d7ff16b35</title>
<g id="a_edge5"><a xlink:href="dir_000014_000003.html" target="_top">
<path fill="none" stroke="#63b8ff" d="M144.77,-125.84C180.12,-107.04 264.15,-62.33 306.37,-39.87"/>
<polygon fill="#63b8ff" stroke="#63b8ff" points="308.25,-42.83 315.44,-35.05 304.96,-36.65 308.25,-42.83"/>
</a>
</g>
<g id="a_edge5&#45;headlabel"><a xlink:href="dir_000014_000003.html" target="_top" xlink:title="2">
<text text-anchor="middle" x="306.41" y="-44.53" font-family="Helvetica,sans-Serif" font-size="10.00" fill="#63b8ff">2</text>
</a>
</g>
</g>
<!-- dir_aeca43db7a276eb6dbfba1f93dc4539c -->
<g id="node8" class="node">
<title>dir_aeca43db7a276eb6dbfba1f93dc4539c</title>
<g id="a_node8"><a xlink:href="dir_aeca43db7a276eb6dbfba1f93dc4539c.html" target="_top" xlink:title="Utils">
<polygon fill="#edf0f7" stroke="#7f7f7f" points="426,-35 387,-35 387,-16 426,-16 426,-35"/>
<text text-anchor="middle" x="406.5" y="-23" font-family="Helvetica,sans-Serif" font-size="10.00">Utils</text>
</a>
</g>
</g>
<!-- dir_1ba1ec376ff688e17f2e5c57f98f2cf2&#45;&gt;dir_aeca43db7a276eb6dbfba1f93dc4539c -->
<g id="edge6" class="edge">
<title>dir_1ba1ec376ff688e17f2e5c57f98f2cf2&#45;&gt;dir_aeca43db7a276eb6dbfba1f93dc4539c</title>
<g id="a_edge6"><a xlink:href="dir_000014_000039.html" target="_top">
<path fill="none" stroke="#63b8ff" d="M153.33,-125.97C178.45,-117.25 218.35,-103.16 252.5,-90 296.33,-73.11 346.53,-52.09 377.38,-38.98"/>
<polygon fill="#63b8ff" stroke="#63b8ff" points="378.86,-42.16 386.68,-35.02 376.11,-35.72 378.86,-42.16"/>
</a>
</g>
<g id="a_edge6&#45;headlabel"><a xlink:href="dir_000014_000039.html" target="_top" xlink:title="71">
<text text-anchor="middle" x="376.66" y="-43.68" font-family="Helvetica,sans-Serif" font-size="10.00" fill="#63b8ff">71</text>
</a>
</g>
</g>
<!-- dir_27120034b373ae3c2a91f9cc8c0ee5f4&#45;&gt;dir_f6f31373dd45512da8386c416124f795 -->
<g id="edge12" class="edge">
<title>dir_27120034b373ae3c2a91f9cc8c0ee5f4&#45;&gt;dir_f6f31373dd45512da8386c416124f795</title>
<g id="a_edge12"><a xlink:href="dir_000031_000020.html" target="_top">
<path fill="none" stroke="#63b8ff" d="M127.52,-70.75C125.93,-63.72 123.64,-53.62 121.65,-44.84"/>
<polygon fill="#63b8ff" stroke="#63b8ff" points="125.07,-44.07 119.44,-35.09 118.24,-45.62 125.07,-44.07"/>
</a>
</g>
<g id="a_edge12&#45;headlabel"><a xlink:href="dir_000031_000020.html" target="_top" xlink:title="1">
<text text-anchor="middle" x="128.63" y="-44.45" font-family="Helvetica,sans-Serif" font-size="10.00" fill="#63b8ff">1</text>
</a>
</g>
</g>
<!-- dir_27120034b373ae3c2a91f9cc8c0ee5f4&#45;&gt;dir_15b1266ec3c6694d64b0cfc160192d3b -->
<g id="edge7" class="edge">
<title>dir_27120034b373ae3c2a91f9cc8c0ee5f4&#45;&gt;dir_15b1266ec3c6694d64b0cfc160192d3b</title>
<g id="a_edge7"><a xlink:href="dir_000031_000010.html" target="_top">
<path fill="none" stroke="#63b8ff" d="M113.11,-70.98C96.93,-62.57 71.93,-49.59 53.12,-39.81"/>
<polygon fill="#63b8ff" stroke="#63b8ff" points="54.67,-36.68 44.19,-35.17 51.45,-42.89 54.67,-36.68"/>
</a>
</g>
<g id="a_edge7&#45;headlabel"><a xlink:href="dir_000031_000010.html" target="_top" xlink:title="5">
<text text-anchor="middle" x="59.17" y="-33.31" font-family="Helvetica,sans-Serif" font-size="10.00" fill="#63b8ff">5</text>
</a>
</g>
</g>
<!-- dir_27120034b373ae3c2a91f9cc8c0ee5f4&#45;&gt;dir_1f703d4dd1e982897af273349847e927 -->
<g id="edge8" class="edge">
<title>dir_27120034b373ae3c2a91f9cc8c0ee5f4&#45;&gt;dir_1f703d4dd1e982897af273349847e927</title>
<g id="a_edge8"><a xlink:href="dir_000031_000007.html" target="_top">
<path fill="none" stroke="#63b8ff" d="M140.1,-70.98C149.96,-63.07 164.85,-51.11 176.72,-41.58"/>
<polygon fill="#63b8ff" stroke="#63b8ff" points="179.1,-44.16 184.7,-35.17 174.71,-38.7 179.1,-44.16"/>
</a>
</g>
<g id="a_edge8&#45;headlabel"><a xlink:href="dir_000031_000007.html" target="_top" xlink:title="2">
<text text-anchor="middle" x="178.07" y="-46.13" font-family="Helvetica,sans-Serif" font-size="10.00" fill="#63b8ff">2</text>
</a>
</g>
</g>
<!-- dir_27120034b373ae3c2a91f9cc8c0ee5f4&#45;&gt;dir_86d6a0ef6fcd04306246bc919bf79e2a -->
<g id="edge9" class="edge">
<title>dir_27120034b373ae3c2a91f9cc8c0ee5f4&#45;&gt;dir_86d6a0ef6fcd04306246bc919bf79e2a</title>
<g id="a_edge9"><a xlink:href="dir_000031_000001.html" target="_top">
<path fill="none" stroke="#63b8ff" d="M149.26,-70.98C169.23,-62.38 200.3,-48.99 223.15,-39.15"/>
<polygon fill="#63b8ff" stroke="#63b8ff" points="224.58,-42.34 232.38,-35.17 221.81,-35.91 224.58,-42.34"/>
</a>
</g>
<g id="a_edge9&#45;headlabel"><a xlink:href="dir_000031_000001.html" target="_top" xlink:title="1">
<text text-anchor="middle" x="222.4" y="-43.87" font-family="Helvetica,sans-Serif" font-size="10.00" fill="#63b8ff">1</text>
</a>
</g>
</g>
<!-- dir_27120034b373ae3c2a91f9cc8c0ee5f4&#45;&gt;dir_9d06c2f3a5ac32ab80fc048d7ff16b35 -->
<g id="edge10" class="edge">
<title>dir_27120034b373ae3c2a91f9cc8c0ee5f4&#45;&gt;dir_9d06c2f3a5ac32ab80fc048d7ff16b35</title>
<g id="a_edge10"><a xlink:href="dir_000031_000003.html" target="_top">
<path fill="none" stroke="#63b8ff" d="M153.07,-73.32C186.43,-64.56 247.96,-48.42 289.31,-37.57"/>
<polygon fill="#63b8ff" stroke="#63b8ff" points="290.32,-40.92 299.1,-35 288.54,-34.15 290.32,-40.92"/>
</a>
</g>
<g id="a_edge10&#45;headlabel"><a xlink:href="dir_000031_000003.html" target="_top" xlink:title="1">
<text text-anchor="middle" x="287.56" y="-42.08" font-family="Helvetica,sans-Serif" font-size="10.00" fill="#63b8ff">1</text>
</a>
</g>
</g>
<!-- dir_27120034b373ae3c2a91f9cc8c0ee5f4&#45;&gt;dir_aeca43db7a276eb6dbfba1f93dc4539c -->
<g id="edge11" class="edge">
<title>dir_27120034b373ae3c2a91f9cc8c0ee5f4&#45;&gt;dir_aeca43db7a276eb6dbfba1f93dc4539c</title>
<g id="a_edge11"><a xlink:href="dir_000031_000039.html" target="_top">
<path fill="none" stroke="#63b8ff" d="M153.03,-76.24C195.84,-70.11 289.43,-55.78 377.16,-35.09"/>
<polygon fill="#63b8ff" stroke="#63b8ff" points="378.09,-38.47 387,-32.74 376.46,-31.66 378.09,-38.47"/>
</a>
</g>
<g id="a_edge11&#45;headlabel"><a xlink:href="dir_000031_000039.html" target="_top" xlink:title="46">
<text text-anchor="middle" x="375.25" y="-39.57" font-family="Helvetica,sans-Serif" font-size="10.00" fill="#63b8ff">46</text>
</a>
</g>
</g>
</g>
</svg>
