<?xml version="1.0" encoding="UTF-8" standalone="no"?>
<!DOCTYPE svg PUBLIC "-//W3C//DTD SVG 1.1//EN"
 "http://www.w3.org/Graphics/SVG/1.1/DTD/svg11.dtd">
<!-- Generated by graphviz version 2.43.0 (0)
 -->
<!-- Title: include/phasar/PhasarLLVM Pages: 1 -->
<svg width="750pt" height="306pt"
 viewBox="0.00 0.00 750.00 306.00" xmlns="http://www.w3.org/2000/svg" xmlns:xlink="http://www.w3.org/1999/xlink">
<g id="graph0" class="graph" transform="scale(1 1) rotate(0) translate(4 302)">
<title>include/phasar/PhasarLLVM</title>
<g id="clust1" class="cluster">
<title>clusterdir_05d093d0ed3722b9a30705a9449fa665</title>
<g id="a_clust1"><a xlink:href="dir_05d093d0ed3722b9a30705a9449fa665.html" target="_top" xlink:title="phasar">
<polygon fill="#edf0f7" stroke="#7f7f7f" stroke-dasharray="5,2" points="8,-8 8,-290 734,-290 734,-8 8,-8"/>
<text text-anchor="middle" x="371" y="-278" font-family="Helvetica,sans-Serif" font-size="10.00">phasar</text>
</a>
</g>
</g>
<g id="clust2" class="cluster">
<title>clusterdir_6556945d274d6e1e874171d9d575b3f4</title>
<g id="a_clust2"><a xlink:href="dir_6556945d274d6e1e874171d9d575b3f4.html" target="_top">
<polygon fill="#edf0f7" stroke="#404040" stroke-width="2" points="210,-63 210,-263 612,-263 612,-63 210,-63"/>
</a>
</g>
</g>
<!-- dir_15b1266ec3c6694d64b0cfc160192d3b -->
<g id="node1" class="node">
<title>dir_15b1266ec3c6694d64b0cfc160192d3b</title>
<g id="a_node1"><a xlink:href="dir_15b1266ec3c6694d64b0cfc160192d3b.html" target="_top" xlink:title="Domain">
<polygon fill="#a2b4d6" stroke="#404040" points="111.5,-90 56.5,-90 56.5,-71 111.5,-71 111.5,-90"/>
<text text-anchor="middle" x="84" y="-78" font-family="Helvetica,sans-Serif" font-size="10.00">Domain</text>
</a>
</g>
</g>
<!-- dir_1f703d4dd1e982897af273349847e927 -->
<g id="node2" class="node">
<title>dir_1f703d4dd1e982897af273349847e927</title>
<g id="a_node2"><a xlink:href="dir_1f703d4dd1e982897af273349847e927.html" target="_top" xlink:title="DB">
<polygon fill="#a2b4d6" stroke="#404040" points="201.5,-90 170.5,-90 170.5,-71 201.5,-71 201.5,-90"/>
<text text-anchor="middle" x="186" y="-78" font-family="Helvetica,sans-Serif" font-size="10.00">DB</text>
</a>
</g>
</g>
<!-- dir_58a8bb8411baaae7f5177ea38c71ea73 -->
<g id="node3" class="node">
<title>dir_58a8bb8411baaae7f5177ea38c71ea73</title>
<g id="a_node3"><a xlink:href="dir_58a8bb8411baaae7f5177ea38c71ea73.html" target="_top" xlink:title="Pointer">
<polygon fill="#a2b4d6" stroke="#404040" points="699.5,-35 648.5,-35 648.5,-16 699.5,-16 699.5,-35"/>
<text text-anchor="middle" x="674" y="-23" font-family="Helvetica,sans-Serif" font-size="10.00">Pointer</text>
</a>
</g>
</g>
<!-- dir_69cf206f122d9153ac8b30a0f4a917bf -->
<g id="node4" class="node">
<title>dir_69cf206f122d9153ac8b30a0f4a917bf</title>
<g id="a_node4"><a xlink:href="dir_69cf206f122d9153ac8b30a0f4a917bf.html" target="_top" xlink:title="DataFlow">
<polygon fill="#a2b4d6" stroke="red" points="685.5,-145 622.5,-145 622.5,-126 685.5,-126 685.5,-145"/>
<text text-anchor="middle" x="654" y="-133" font-family="Helvetica,sans-Serif" font-size="10.00">DataFlow</text>
</a>
</g>
</g>
<!-- dir_9d06c2f3a5ac32ab80fc048d7ff16b35 -->
<g id="node5" class="node">
<title>dir_9d06c2f3a5ac32ab80fc048d7ff16b35</title>
<g id="a_node5"><a xlink:href="dir_9d06c2f3a5ac32ab80fc048d7ff16b35.html" target="_top" xlink:title="ControlFlow">
<polygon fill="#a2b4d6" stroke="#404040" points="702.5,-90 627.5,-90 627.5,-71 702.5,-71 702.5,-90"/>
<text text-anchor="middle" x="665" y="-78" font-family="Helvetica,sans-Serif" font-size="10.00">ControlFlow</text>
</a>
</g>
</g>
<!-- dir_aeca43db7a276eb6dbfba1f93dc4539c -->
<g id="node6" class="node">
<title>dir_aeca43db7a276eb6dbfba1f93dc4539c</title>
<g id="a_node6"><a xlink:href="dir_aeca43db7a276eb6dbfba1f93dc4539c.html" target="_top" xlink:title="Utils">
<polygon fill="#a2b4d6" stroke="#404040" points="219.5,-35 180.5,-35 180.5,-16 219.5,-16 219.5,-35"/>
<text text-anchor="middle" x="200" y="-23" font-family="Helvetica,sans-Serif" font-size="10.00">Utils</text>
</a>
</g>
</g>
<!-- dir_cd166ded320aef6ec75102a3779bae14 -->
<g id="node7" class="node">
<title>dir_cd166ded320aef6ec75102a3779bae14</title>
<g id="a_node7"><a xlink:href="dir_cd166ded320aef6ec75102a3779bae14.html" target="_top" xlink:title="TypeHierarchy">
<polygon fill="#a2b4d6" stroke="#404040" points="604,-35 518,-35 518,-16 604,-16 604,-35"/>
<text text-anchor="middle" x="561" y="-23" font-family="Helvetica,sans-Serif" font-size="10.00">TypeHierarchy</text>
</a>
</g>
</g>
<!-- dir_6556945d274d6e1e874171d9d575b3f4 -->
<g id="node8" class="node">
<title>dir_6556945d274d6e1e874171d9d575b3f4</title>
<text text-anchor="middle" x="461" y="-243" font-family="Helvetica,sans-Serif" font-size="10.00">PhasarLLVM</text>
</g>
<!-- dir_6556945d274d6e1e874171d9d575b3f4&#45;&gt;dir_58a8bb8411baaae7f5177ea38c71ea73 -->
<g id="edge6" class="edge">
<title>dir_6556945d274d6e1e874171d9d575b3f4&#45;&gt;dir_58a8bb8411baaae7f5177ea38c71ea73</title>
<g id="a_edge6"><a xlink:href="dir_000024_000027.html" target="_top">
<path fill="none" stroke="#63b8ff" d="M498.79,-242.27C538.99,-238.44 603.25,-228.08 651,-200 699.19,-171.67 706.49,-145.63 712,-90 713.18,-78.06 716.7,-74.04 712,-63 708.52,-54.83 702.22,-47.61 695.74,-41.8"/>
<polygon fill="#63b8ff" stroke="#63b8ff" points="697.59,-38.8 687.62,-35.21 693.18,-44.23 697.59,-38.8"/>
</a>
</g>
<g id="a_edge6&#45;headlabel"><a xlink:href="dir_000024_000027.html" target="_top" xlink:title="17">
<text text-anchor="middle" x="702.17" y="-36.36" font-family="Helvetica,sans-Serif" font-size="10.00" fill="#63b8ff">17</text>
</a>
</g>
</g>
<!-- dir_6556945d274d6e1e874171d9d575b3f4&#45;&gt;dir_9d06c2f3a5ac32ab80fc048d7ff16b35 -->
<g id="edge9" class="edge">
<title>dir_6556945d274d6e1e874171d9d575b3f4&#45;&gt;dir_9d06c2f3a5ac32ab80fc048d7ff16b35</title>
<g id="a_edge9"><a xlink:href="dir_000024_000003.html" target="_top">
<path fill="none" stroke="#63b8ff" d="M498.58,-240.98C552.74,-233.67 651.04,-211.46 695,-145 705.03,-129.84 693.21,-110.81 681.58,-97.55"/>
<polygon fill="#63b8ff" stroke="#63b8ff" points="683.98,-94.99 674.56,-90.13 678.89,-99.8 683.98,-94.99"/>
</a>
</g>
<g id="a_edge9&#45;headlabel"><a xlink:href="dir_000024_000003.html" target="_top" xlink:title="15">
<text text-anchor="middle" x="688.51" y="-93.15" font-family="Helvetica,sans-Serif" font-size="10.00" fill="#63b8ff">15</text>
</a>
</g>
</g>
<!-- dir_6556945d274d6e1e874171d9d575b3f4&#45;&gt;dir_aeca43db7a276eb6dbfba1f93dc4539c -->
<g id="edge10" class="edge">
<title>dir_6556945d274d6e1e874171d9d575b3f4&#45;&gt;dir_aeca43db7a276eb6dbfba1f93dc4539c</title>
<g id="a_edge10"><a xlink:href="dir_000024_000039.html" target="_top">
<path fill="none" stroke="#63b8ff" d="M423.4,-242.38C351.89,-236.74 193.75,-216.51 85,-145 58.13,-127.33 49.13,-120.17 38,-90 33.85,-78.74 30.51,-72.37 38,-63 54.27,-42.66 128.27,-32.85 170.41,-28.84"/>
<polygon fill="#63b8ff" stroke="#63b8ff" points="170.74,-32.32 180.38,-27.94 170.11,-25.35 170.74,-32.32"/>
</a>
</g>
<g id="a_edge10&#45;headlabel"><a xlink:href="dir_000024_000039.html" target="_top" xlink:title="65">
<text text-anchor="middle" x="167.41" y="-32.97" font-family="Helvetica,sans-Serif" font-size="10.00" fill="#63b8ff">65</text>
</a>
</g>
</g>
<!-- dir_0bc4dee926a629f715a9261d8d248ef6 -->
<g id="node9" class="node">
<title>dir_0bc4dee926a629f715a9261d8d248ef6</title>
<g id="a_node9"><a xlink:href="dir_0bc4dee926a629f715a9261d8d248ef6.html" target="_top" xlink:title="ControlFlow">
<polygon fill="#a2b4d6" stroke="#404040" points="564.5,-145 489.5,-145 489.5,-126 564.5,-126 564.5,-145"/>
<text text-anchor="middle" x="527" y="-133" font-family="Helvetica,sans-Serif" font-size="10.00">ControlFlow</text>
</a>
</g>
</g>
<!-- dir_6556945d274d6e1e874171d9d575b3f4&#45;&gt;dir_0bc4dee926a629f715a9261d8d248ef6 -->
<g id="edge4" class="edge">
<title>dir_6556945d274d6e1e874171d9d575b3f4&#45;&gt;dir_0bc4dee926a629f715a9261d8d248ef6</title>
<g id="a_edge4"><a xlink:href="dir_000024_000004.html" target="_top">
<path fill="none" stroke="#63b8ff" d="M466.4,-235.66C477.33,-217.77 502.25,-177 516.49,-153.69"/>
<polygon fill="#63b8ff" stroke="#63b8ff" points="519.48,-155.52 521.71,-145.16 513.51,-151.87 519.48,-155.52"/>
</a>
</g>
<g id="a_edge4&#45;headlabel"><a xlink:href="dir_000024_000004.html" target="_top" xlink:title="41">
<text text-anchor="middle" x="520.03" y="-157.56" font-family="Helvetica,sans-Serif" font-size="10.00" fill="#63b8ff">41</text>
</a>
</g>
</g>
<!-- dir_b11f051d1364f2a30973d8d796d4babf -->
<g id="node10" class="node">
<title>dir_b11f051d1364f2a30973d8d796d4babf</title>
<g id="a_node10"><a xlink:href="dir_b11f051d1364f2a30973d8d796d4babf.html" target="_top" xlink:title="DataFlow">
<polygon fill="#a2b4d6" stroke="#404040" points="431.5,-200 368.5,-200 368.5,-181 431.5,-181 431.5,-200"/>
<text text-anchor="middle" x="400" y="-188" font-family="Helvetica,sans-Serif" font-size="10.00">DataFlow</text>
</a>
</g>
</g>
<!-- dir_6556945d274d6e1e874171d9d575b3f4&#45;&gt;dir_b11f051d1364f2a30973d8d796d4babf -->
<g id="edge11" class="edge">
<title>dir_6556945d274d6e1e874171d9d575b3f4&#45;&gt;dir_b11f051d1364f2a30973d8d796d4babf</title>
<g id="a_edge11"><a xlink:href="dir_000024_000006.html" target="_top">
<path fill="none" stroke="#63b8ff" d="M451.2,-235.98C442.18,-228.15 428.59,-216.34 417.68,-206.86"/>
<polygon fill="#63b8ff" stroke="#63b8ff" points="419.82,-204.09 409.98,-200.17 415.23,-209.37 419.82,-204.09"/>
</a>
</g>
<g id="a_edge11&#45;headlabel"><a xlink:href="dir_000024_000006.html" target="_top" xlink:title="26">
<text text-anchor="middle" x="424.4" y="-201.8" font-family="Helvetica,sans-Serif" font-size="10.00" fill="#63b8ff">26</text>
</a>
</g>
</g>
<!-- dir_68aec2623aad94785c017c13c687e045 -->
<g id="node11" class="node">
<title>dir_68aec2623aad94785c017c13c687e045</title>
<g id="a_node11"><a xlink:href="dir_68aec2623aad94785c017c13c687e045.html" target="_top" xlink:title="DB">
<polygon fill="#a2b4d6" stroke="#404040" points="411.5,-145 380.5,-145 380.5,-126 411.5,-126 411.5,-145"/>
<text text-anchor="middle" x="396" y="-133" font-family="Helvetica,sans-Serif" font-size="10.00">DB</text>
</a>
</g>
</g>
<!-- dir_6556945d274d6e1e874171d9d575b3f4&#45;&gt;dir_68aec2623aad94785c017c13c687e045 -->
<g id="edge8" class="edge">
<title>dir_6556945d274d6e1e874171d9d575b3f4&#45;&gt;dir_68aec2623aad94785c017c13c687e045</title>
<g id="a_edge8"><a xlink:href="dir_000024_000008.html" target="_top">
<path fill="none" stroke="#63b8ff" d="M459.43,-235.75C456.86,-222.98 450.92,-198.82 440,-181 433.38,-170.19 423.65,-159.99 415.02,-152.08"/>
<polygon fill="#63b8ff" stroke="#63b8ff" points="417.06,-149.22 407.23,-145.27 412.45,-154.49 417.06,-149.22"/>
</a>
</g>
<g id="a_edge8&#45;headlabel"><a xlink:href="dir_000024_000008.html" target="_top" xlink:title="27">
<text text-anchor="middle" x="421.63" y="-146.94" font-family="Helvetica,sans-Serif" font-size="10.00" fill="#63b8ff">27</text>
</a>
</g>
</g>
<!-- dir_189eb8c36ffce94640b9d816bc05823d -->
<g id="node12" class="node">
<title>dir_189eb8c36ffce94640b9d816bc05823d</title>
<g id="a_node12"><a xlink:href="dir_189eb8c36ffce94640b9d816bc05823d.html" target="_top" xlink:title="Domain">
<polygon fill="#a2b4d6" stroke="#404040" points="273.5,-145 218.5,-145 218.5,-126 273.5,-126 273.5,-145"/>
<text text-anchor="middle" x="246" y="-133" font-family="Helvetica,sans-Serif" font-size="10.00">Domain</text>
</a>
</g>
</g>
<!-- dir_6556945d274d6e1e874171d9d575b3f4&#45;&gt;dir_189eb8c36ffce94640b9d816bc05823d -->
<g id="edge5" class="edge">
<title>dir_6556945d274d6e1e874171d9d575b3f4&#45;&gt;dir_189eb8c36ffce94640b9d816bc05823d</title>
<g id="a_edge5"><a xlink:href="dir_000024_000011.html" target="_top">
<path fill="none" stroke="#63b8ff" d="M434.58,-235.86C413.2,-228.21 382.83,-215.8 359,-200 348.78,-193.22 349.1,-187.95 339,-181 320.13,-168.01 296.88,-156.88 278.35,-149.01"/>
<polygon fill="#63b8ff" stroke="#63b8ff" points="279.45,-145.67 268.87,-145.08 276.77,-152.14 279.45,-145.67"/>
</a>
</g>
<g id="a_edge5&#45;headlabel"><a xlink:href="dir_000024_000011.html" target="_top" xlink:title="26">
<text text-anchor="middle" x="283.85" y="-141.92" font-family="Helvetica,sans-Serif" font-size="10.00" fill="#63b8ff">26</text>
</a>
</g>
</g>
<!-- dir_d1ed25abdb4425f8cc893afb2160bbbe -->
<g id="node13" class="node">
<title>dir_d1ed25abdb4425f8cc893afb2160bbbe</title>
<g id="a_node13"><a xlink:href="dir_d1ed25abdb4425f8cc893afb2160bbbe.html" target="_top" xlink:title="Passes">
<polygon fill="#a2b4d6" stroke="#404040" points="330,-200 280,-200 280,-181 330,-181 330,-200"/>
<text text-anchor="middle" x="305" y="-188" font-family="Helvetica,sans-Serif" font-size="10.00">Passes</text>
</a>
</g>
</g>
<!-- dir_6556945d274d6e1e874171d9d575b3f4&#45;&gt;dir_d1ed25abdb4425f8cc893afb2160bbbe -->
<g id="edge12" class="edge">
<title>dir_6556945d274d6e1e874171d9d575b3f4&#45;&gt;dir_d1ed25abdb4425f8cc893afb2160bbbe</title>
<g id="a_edge12"><a xlink:href="dir_000024_000019.html" target="_top">
<path fill="none" stroke="#63b8ff" d="M435.94,-235.98C409.89,-227.14 368.95,-213.23 339.78,-203.32"/>
<polygon fill="#63b8ff" stroke="#63b8ff" points="340.6,-199.9 330,-199.99 338.34,-206.53 340.6,-199.9"/>
</a>
</g>
<g id="a_edge12&#45;headlabel"><a xlink:href="dir_000024_000019.html" target="_top" xlink:title="3">
<text text-anchor="middle" x="344.91" y="-195.87" font-family="Helvetica,sans-Serif" font-size="10.00" fill="#63b8ff">3</text>
</a>
</g>
</g>
<!-- dir_0133e64b3a4c854b47f86a7b8e0c9983 -->
<g id="node14" class="node">
<title>dir_0133e64b3a4c854b47f86a7b8e0c9983</title>
<g id="a_node14"><a xlink:href="dir_0133e64b3a4c854b47f86a7b8e0c9983.html" target="_top" xlink:title="Pointer">
<polygon fill="#a2b4d6" stroke="#404040" points="499.5,-90 448.5,-90 448.5,-71 499.5,-71 499.5,-90"/>
<text text-anchor="middle" x="474" y="-78" font-family="Helvetica,sans-Serif" font-size="10.00">Pointer</text>
</a>
</g>
</g>
<!-- dir_6556945d274d6e1e874171d9d575b3f4&#45;&gt;dir_0133e64b3a4c854b47f86a7b8e0c9983 -->
<g id="edge1" class="edge">
<title>dir_6556945d274d6e1e874171d9d575b3f4&#45;&gt;dir_0133e64b3a4c854b47f86a7b8e0c9983</title>
<g id="a_edge1"><a xlink:href="dir_000024_000026.html" target="_top">
<path fill="none" stroke="#63b8ff" d="M477.52,-235.91C503.57,-221.31 553.28,-188.89 573,-145 576.46,-137.3 577.59,-133.09 573,-126 565.59,-114.55 534.9,-101.81 509.63,-92.91"/>
<polygon fill="#63b8ff" stroke="#63b8ff" points="510.51,-89.52 499.92,-89.58 508.24,-96.14 510.51,-89.52"/>
</a>
</g>
<g id="a_edge1&#45;headlabel"><a xlink:href="dir_000024_000026.html" target="_top" xlink:title="34">
<text text-anchor="middle" x="514.83" y="-85.5" font-family="Helvetica,sans-Serif" font-size="10.00" fill="#63b8ff">34</text>
</a>
</g>
</g>
<!-- dir_63e7bb0cb88dc7cebeab7c37a85fbe32 -->
<g id="node15" class="node">
<title>dir_63e7bb0cb88dc7cebeab7c37a85fbe32</title>
<g id="a_node15"><a xlink:href="dir_63e7bb0cb88dc7cebeab7c37a85fbe32.html" target="_top" xlink:title="TaintConfig">
<polygon fill="#a2b4d6" stroke="#404040" points="362.5,-145 291.5,-145 291.5,-126 362.5,-126 362.5,-145"/>
<text text-anchor="middle" x="327" y="-133" font-family="Helvetica,sans-Serif" font-size="10.00">TaintConfig</text>
</a>
</g>
</g>
<!-- dir_6556945d274d6e1e874171d9d575b3f4&#45;&gt;dir_63e7bb0cb88dc7cebeab7c37a85fbe32 -->
<g id="edge7" class="edge">
<title>dir_6556945d274d6e1e874171d9d575b3f4&#45;&gt;dir_63e7bb0cb88dc7cebeab7c37a85fbe32</title>
<g id="a_edge7"><a xlink:href="dir_000024_000034.html" target="_top">
<path fill="none" stroke="#63b8ff" d="M423.21,-241.11C373.32,-235.77 289.63,-223.49 271,-200 256.92,-182.24 280.11,-162.84 300.79,-150.22"/>
<polygon fill="#63b8ff" stroke="#63b8ff" points="302.77,-153.12 309.67,-145.08 299.26,-147.06 302.77,-153.12"/>
</a>
</g>
<g id="a_edge7&#45;headlabel"><a xlink:href="dir_000024_000034.html" target="_top" xlink:title="5">
<text text-anchor="middle" x="301.07" y="-154.87" font-family="Helvetica,sans-Serif" font-size="10.00" fill="#63b8ff">5</text>
</a>
</g>
</g>
<!-- dir_04c97d3322b5ffe9ec5885b952098baa -->
<g id="node16" class="node">
<title>dir_04c97d3322b5ffe9ec5885b952098baa</title>
<g id="a_node16"><a xlink:href="dir_04c97d3322b5ffe9ec5885b952098baa.html" target="_top" xlink:title="TypeHierarchy">
<polygon fill="#a2b4d6" stroke="#404040" points="604,-90 518,-90 518,-71 604,-71 604,-90"/>
<text text-anchor="middle" x="561" y="-78" font-family="Helvetica,sans-Serif" font-size="10.00">TypeHierarchy</text>
</a>
</g>
</g>
<!-- dir_6556945d274d6e1e874171d9d575b3f4&#45;&gt;dir_04c97d3322b5ffe9ec5885b952098baa -->
<g id="edge2" class="edge">
<title>dir_6556945d274d6e1e874171d9d575b3f4&#45;&gt;dir_04c97d3322b5ffe9ec5885b952098baa</title>
<g id="a_edge2"><a xlink:href="dir_000024_000035.html" target="_top">
<path fill="none" stroke="#63b8ff" d="M483.41,-235.94C501.05,-228.41 525.48,-216.13 543,-200 564.49,-180.21 570.65,-173 579,-145 583.6,-129.58 577.73,-111.96 571.5,-99.21"/>
<polygon fill="#63b8ff" stroke="#63b8ff" points="574.44,-97.29 566.62,-90.15 568.28,-100.61 574.44,-97.29"/>
</a>
</g>
<g id="a_edge2&#45;headlabel"><a xlink:href="dir_000024_000035.html" target="_top" xlink:title="3">
<text text-anchor="middle" x="578.65" y="-96.61" font-family="Helvetica,sans-Serif" font-size="10.00" fill="#63b8ff">3</text>
</a>
</g>
</g>
<!-- dir_079f3dfffeb9e770010097b0dd1334eb -->
<g id="node17" class="node">
<title>dir_079f3dfffeb9e770010097b0dd1334eb</title>
<g id="a_node17"><a xlink:href="dir_079f3dfffeb9e770010097b0dd1334eb.html" target="_top" xlink:title="Utils">
<polygon fill="#a2b4d6" stroke="#404040" points="415.5,-90 376.5,-90 376.5,-71 415.5,-71 415.5,-90"/>
<text text-anchor="middle" x="396" y="-78" font-family="Helvetica,sans-Serif" font-size="10.00">Utils</text>
</a>
</g>
</g>
<!-- dir_6556945d274d6e1e874171d9d575b3f4&#45;&gt;dir_079f3dfffeb9e770010097b0dd1334eb -->
<g id="edge3" class="edge">
<title>dir_6556945d274d6e1e874171d9d575b3f4&#45;&gt;dir_079f3dfffeb9e770010097b0dd1334eb</title>
<g id="a_edge3"><a xlink:href="dir_000024_000038.html" target="_top">
<path fill="none" stroke="#63b8ff" d="M460.15,-235.72C458.81,-223.32 455.72,-200.08 450,-181 442.34,-155.45 438.84,-149.38 426,-126 420.79,-116.51 414.12,-106.46 408.4,-98.32"/>
<polygon fill="#63b8ff" stroke="#63b8ff" points="411.14,-96.14 402.46,-90.07 405.46,-100.23 411.14,-96.14"/>
</a>
</g>
<g id="a_edge3&#45;headlabel"><a xlink:href="dir_000024_000038.html" target="_top" xlink:title="24">
<text text-anchor="middle" x="415.55" y="-94.9" font-family="Helvetica,sans-Serif" font-size="10.00" fill="#63b8ff">24</text>
</a>
</g>
</g>
<!-- dir_0bc4dee926a629f715a9261d8d248ef6&#45;&gt;dir_9d06c2f3a5ac32ab80fc048d7ff16b35 -->
<g id="edge16" class="edge">
<title>dir_0bc4dee926a629f715a9261d8d248ef6&#45;&gt;dir_9d06c2f3a5ac32ab80fc048d7ff16b35</title>
<g id="a_edge16"><a xlink:href="dir_000004_000003.html" target="_top">
<path fill="none" stroke="#63b8ff" d="M549.17,-125.98C571.77,-117.3 607.06,-103.75 632.75,-93.88"/>
<polygon fill="#63b8ff" stroke="#63b8ff" points="634.34,-97.02 642.42,-90.17 631.83,-90.49 634.34,-97.02"/>
</a>
</g>
<g id="a_edge16&#45;headlabel"><a xlink:href="dir_000004_000003.html" target="_top" xlink:title="11">
<text text-anchor="middle" x="632.01" y="-98.46" font-family="Helvetica,sans-Serif" font-size="10.00" fill="#63b8ff">11</text>
</a>
</g>
</g>
<!-- dir_0bc4dee926a629f715a9261d8d248ef6&#45;&gt;dir_aeca43db7a276eb6dbfba1f93dc4539c -->
<g id="edge17" class="edge">
<title>dir_0bc4dee926a629f715a9261d8d248ef6&#45;&gt;dir_aeca43db7a276eb6dbfba1f93dc4539c</title>
<g id="a_edge17"><a xlink:href="dir_000004_000039.html" target="_top">
<path fill="none" stroke="#63b8ff" d="M492.71,-125.94C460.12,-117.57 409.87,-104.08 367,-90 360.15,-87.75 275.22,-55.3 229.2,-37.68"/>
<polygon fill="#63b8ff" stroke="#63b8ff" points="230.33,-34.37 219.74,-34.06 227.83,-40.91 230.33,-34.37"/>
</a>
</g>
<g id="a_edge17&#45;headlabel"><a xlink:href="dir_000004_000039.html" target="_top" xlink:title="14">
<text text-anchor="middle" x="234.7" y="-30.5" font-family="Helvetica,sans-Serif" font-size="10.00" fill="#63b8ff">14</text>
</a>
</g>
</g>
<!-- dir_0bc4dee926a629f715a9261d8d248ef6&#45;&gt;dir_0133e64b3a4c854b47f86a7b8e0c9983 -->
<g id="edge13" class="edge">
<title>dir_0bc4dee926a629f715a9261d8d248ef6&#45;&gt;dir_0133e64b3a4c854b47f86a7b8e0c9983</title>
<g id="a_edge13"><a xlink:href="dir_000004_000026.html" target="_top">
<path fill="none" stroke="#63b8ff" d="M518.25,-125.75C510.53,-118.03 499.1,-106.6 489.78,-97.28"/>
<polygon fill="#63b8ff" stroke="#63b8ff" points="492.14,-94.69 482.59,-90.09 487.19,-99.64 492.14,-94.69"/>
</a>
</g>
<g id="a_edge13&#45;headlabel"><a xlink:href="dir_000004_000026.html" target="_top" xlink:title="7">
<text text-anchor="middle" x="496.68" y="-92.72" font-family="Helvetica,sans-Serif" font-size="10.00" fill="#63b8ff">7</text>
</a>
</g>
</g>
<!-- dir_0bc4dee926a629f715a9261d8d248ef6&#45;&gt;dir_04c97d3322b5ffe9ec5885b952098baa -->
<g id="edge14" class="edge">
<title>dir_0bc4dee926a629f715a9261d8d248ef6&#45;&gt;dir_04c97d3322b5ffe9ec5885b952098baa</title>
<g id="a_edge14"><a xlink:href="dir_000004_000035.html" target="_top">
<path fill="none" stroke="#63b8ff" d="M532.61,-125.75C537.32,-118.42 544.17,-107.73 549.97,-98.7"/>
<polygon fill="#63b8ff" stroke="#63b8ff" points="553.04,-100.4 555.49,-90.09 547.14,-96.62 553.04,-100.4"/>
</a>
</g>
<g id="a_edge14&#45;headlabel"><a xlink:href="dir_000004_000035.html" target="_top" xlink:title="1">
<text text-anchor="middle" x="553.49" y="-102.45" font-family="Helvetica,sans-Serif" font-size="10.00" fill="#63b8ff">1</text>
</a>
</g>
</g>
<!-- dir_0bc4dee926a629f715a9261d8d248ef6&#45;&gt;dir_079f3dfffeb9e770010097b0dd1334eb -->
<g id="edge15" class="edge">
<title>dir_0bc4dee926a629f715a9261d8d248ef6&#45;&gt;dir_079f3dfffeb9e770010097b0dd1334eb</title>
<g id="a_edge15"><a xlink:href="dir_000004_000038.html" target="_top">
<path fill="none" stroke="#63b8ff" d="M505.95,-125.98C484.09,-117.14 449.7,-103.23 425.21,-93.32"/>
<polygon fill="#63b8ff" stroke="#63b8ff" points="426.29,-89.98 415.71,-89.47 423.67,-96.47 426.29,-89.98"/>
</a>
</g>
<g id="a_edge15&#45;headlabel"><a xlink:href="dir_000004_000038.html" target="_top" xlink:title="3">
<text text-anchor="middle" x="430.69" y="-86.2" font-family="Helvetica,sans-Serif" font-size="10.00" fill="#63b8ff">3</text>
</a>
</g>
</g>
<!-- dir_b11f051d1364f2a30973d8d796d4babf&#45;&gt;dir_15b1266ec3c6694d64b0cfc160192d3b -->
<g id="edge22" class="edge">
<title>dir_b11f051d1364f2a30973d8d796d4babf&#45;&gt;dir_15b1266ec3c6694d64b0cfc160192d3b</title>
<g id="a_edge22"><a xlink:href="dir_000006_000010.html" target="_top">
<path fill="none" stroke="#63b8ff" d="M368.23,-184.52C329.77,-177.94 263.38,-164.82 209,-145 171.85,-131.46 131.52,-109.54 107,-95.32"/>
<polygon fill="#63b8ff" stroke="#63b8ff" points="108.51,-92.15 98.12,-90.1 104.97,-98.19 108.51,-92.15"/>
</a>
</g>
<g id="a_edge22&#45;headlabel"><a xlink:href="dir_000006_000010.html" target="_top" xlink:title="11">
<text text-anchor="middle" x="113.05" y="-89.02" font-family="Helvetica,sans-Serif" font-size="10.00" fill="#63b8ff">11</text>
</a>
</g>
</g>
<!-- dir_b11f051d1364f2a30973d8d796d4babf&#45;&gt;dir_69cf206f122d9153ac8b30a0f4a917bf -->
<g id="edge21" class="edge">
<title>dir_b11f051d1364f2a30973d8d796d4babf&#45;&gt;dir_69cf206f122d9153ac8b30a0f4a917bf</title>
<g id="a_edge21"><a xlink:href="dir_000006_000005.html" target="_top">
<path fill="none" stroke="#63b8ff" d="M431.66,-181.75C432.78,-181.49 433.9,-181.24 435,-181 511.96,-164.01 534.05,-162.08 612.62,-145.68"/>
<polygon fill="#63b8ff" stroke="#63b8ff" points="613.43,-149.09 622.49,-143.61 611.99,-142.24 613.43,-149.09"/>
</a>
</g>
<g id="a_edge21&#45;headlabel"><a xlink:href="dir_000006_000005.html" target="_top" xlink:title="58">
<text text-anchor="middle" x="610.49" y="-150.11" font-family="Helvetica,sans-Serif" font-size="10.00" fill="#63b8ff">58</text>
</a>
</g>
</g>
<!-- dir_b11f051d1364f2a30973d8d796d4babf&#45;&gt;dir_aeca43db7a276eb6dbfba1f93dc4539c -->
<g id="edge20" class="edge">
<title>dir_b11f051d1364f2a30973d8d796d4babf&#45;&gt;dir_aeca43db7a276eb6dbfba1f93dc4539c</title>
<g id="a_edge20"><a xlink:href="dir_000006_000039.html" target="_top">
<path fill="none" stroke="#63b8ff" d="M368.41,-184.6C313.05,-175.85 200.82,-157.29 163,-145 108.74,-127.37 77.5,-138.22 47,-90 17.51,-43.39 118.08,-30.98 170.38,-27.68"/>
<polygon fill="#63b8ff" stroke="#63b8ff" points="170.66,-31.17 180.45,-27.12 170.27,-24.18 170.66,-31.17"/>
</a>
</g>
<g id="a_edge20&#45;headlabel"><a xlink:href="dir_000006_000039.html" target="_top" xlink:title="39">
<text text-anchor="middle" x="167.23" y="-31.71" font-family="Helvetica,sans-Serif" font-size="10.00" fill="#63b8ff">39</text>
</a>
</g>
</g>
<!-- dir_b11f051d1364f2a30973d8d796d4babf&#45;&gt;dir_0bc4dee926a629f715a9261d8d248ef6 -->
<g id="edge23" class="edge">
<title>dir_b11f051d1364f2a30973d8d796d4babf&#45;&gt;dir_0bc4dee926a629f715a9261d8d248ef6</title>
<g id="a_edge23"><a xlink:href="dir_000006_000004.html" target="_top">
<path fill="none" stroke="#63b8ff" d="M420.4,-180.98C441.02,-172.38 473.11,-158.99 496.69,-149.15"/>
<polygon fill="#63b8ff" stroke="#63b8ff" points="498.34,-152.25 506.22,-145.17 495.65,-145.79 498.34,-152.25"/>
</a>
</g>
<g id="a_edge23&#45;headlabel"><a xlink:href="dir_000006_000004.html" target="_top" xlink:title="29">
<text text-anchor="middle" x="496.12" y="-153.76" font-family="Helvetica,sans-Serif" font-size="10.00" fill="#63b8ff">29</text>
</a>
</g>
</g>
<!-- dir_b11f051d1364f2a30973d8d796d4babf&#45;&gt;dir_68aec2623aad94785c017c13c687e045 -->
<g id="edge24" class="edge">
<title>dir_b11f051d1364f2a30973d8d796d4babf&#45;&gt;dir_68aec2623aad94785c017c13c687e045</title>
<g id="a_edge24"><a xlink:href="dir_000006_000008.html" target="_top">
<path fill="none" stroke="#63b8ff" d="M399.34,-180.75C398.82,-173.8 398.06,-163.85 397.41,-155.13"/>
<polygon fill="#63b8ff" stroke="#63b8ff" points="400.89,-154.8 396.65,-145.09 393.91,-155.32 400.89,-154.8"/>
</a>
</g>
<g id="a_edge24&#45;headlabel"><a xlink:href="dir_000006_000008.html" target="_top" xlink:title="26">
<text text-anchor="middle" x="403.99" y="-155.67" font-family="Helvetica,sans-Serif" font-size="10.00" fill="#63b8ff">26</text>
</a>
</g>
</g>
<!-- dir_b11f051d1364f2a30973d8d796d4babf&#45;&gt;dir_189eb8c36ffce94640b9d816bc05823d -->
<g id="edge25" class="edge">
<title>dir_b11f051d1364f2a30973d8d796d4babf&#45;&gt;dir_189eb8c36ffce94640b9d816bc05823d</title>
<g id="a_edge25"><a xlink:href="dir_000006_000011.html" target="_top">
<path fill="none" stroke="#63b8ff" d="M375.26,-180.98C349.63,-172.16 309.37,-158.31 280.59,-148.41"/>
<polygon fill="#63b8ff" stroke="#63b8ff" points="281.53,-145.03 270.94,-145.08 279.25,-151.65 281.53,-145.03"/>
</a>
</g>
<g id="a_edge25&#45;headlabel"><a xlink:href="dir_000006_000011.html" target="_top" xlink:title="25">
<text text-anchor="middle" x="285.85" y="-141.01" font-family="Helvetica,sans-Serif" font-size="10.00" fill="#63b8ff">25</text>
</a>
</g>
</g>
<!-- dir_b11f051d1364f2a30973d8d796d4babf&#45;&gt;dir_0133e64b3a4c854b47f86a7b8e0c9983 -->
<g id="edge18" class="edge">
<title>dir_b11f051d1364f2a30973d8d796d4babf&#45;&gt;dir_0133e64b3a4c854b47f86a7b8e0c9983</title>
<g id="a_edge18"><a xlink:href="dir_000006_000026.html" target="_top">
<path fill="none" stroke="#63b8ff" d="M406.06,-180.66C418.31,-162.77 446.25,-122 462.22,-98.69"/>
<polygon fill="#63b8ff" stroke="#63b8ff" points="465.3,-100.39 468.07,-90.16 459.53,-96.43 465.3,-100.39"/>
</a>
</g>
<g id="a_edge18&#45;headlabel"><a xlink:href="dir_000006_000026.html" target="_top" xlink:title="20">
<text text-anchor="middle" x="465.61" y="-102.46" font-family="Helvetica,sans-Serif" font-size="10.00" fill="#63b8ff">20</text>
</a>
</g>
</g>
<!-- dir_b11f051d1364f2a30973d8d796d4babf&#45;&gt;dir_63e7bb0cb88dc7cebeab7c37a85fbe32 -->
<g id="edge26" class="edge">
<title>dir_b11f051d1364f2a30973d8d796d4babf&#45;&gt;dir_63e7bb0cb88dc7cebeab7c37a85fbe32</title>
<g id="a_edge26"><a xlink:href="dir_000006_000034.html" target="_top">
<path fill="none" stroke="#63b8ff" d="M388.27,-180.98C377.27,-173 360.58,-160.88 347.4,-151.31"/>
<polygon fill="#63b8ff" stroke="#63b8ff" points="349.09,-148.21 338.94,-145.17 344.98,-153.88 349.09,-148.21"/>
</a>
</g>
<g id="a_edge26&#45;headlabel"><a xlink:href="dir_000006_000034.html" target="_top" xlink:title="2">
<text text-anchor="middle" x="353.67" y="-145.53" font-family="Helvetica,sans-Serif" font-size="10.00" fill="#63b8ff">2</text>
</a>
</g>
</g>
<!-- dir_b11f051d1364f2a30973d8d796d4babf&#45;&gt;dir_079f3dfffeb9e770010097b0dd1334eb -->
<g id="edge19" class="edge">
<title>dir_b11f051d1364f2a30973d8d796d4babf&#45;&gt;dir_079f3dfffeb9e770010097b0dd1334eb</title>
<g id="a_edge19"><a xlink:href="dir_000006_000038.html" target="_top">
<path fill="none" stroke="#63b8ff" d="M405.84,-180.96C413.4,-168.86 425.04,-145.95 420,-126 417.59,-116.44 412.67,-106.7 407.91,-98.78"/>
<polygon fill="#63b8ff" stroke="#63b8ff" points="410.72,-96.68 402.37,-90.16 404.83,-100.46 410.72,-96.68"/>
</a>
</g>
<g id="a_edge19&#45;headlabel"><a xlink:href="dir_000006_000038.html" target="_top" xlink:title="11">
<text text-anchor="middle" x="415.05" y="-95.66" font-family="Helvetica,sans-Serif" font-size="10.00" fill="#63b8ff">11</text>
</a>
</g>
</g>
<!-- dir_68aec2623aad94785c017c13c687e045&#45;&gt;dir_1f703d4dd1e982897af273349847e927 -->
<g id="edge28" class="edge">
<title>dir_68aec2623aad94785c017c13c687e045&#45;&gt;dir_1f703d4dd1e982897af273349847e927</title>
<g id="a_edge28"><a xlink:href="dir_000008_000007.html" target="_top">
<path fill="none" stroke="#63b8ff" d="M380.48,-128.92C377.36,-127.89 374.09,-126.86 371,-126 301.93,-106.79 279.52,-112.21 211.52,-91.56"/>
<polygon fill="#63b8ff" stroke="#63b8ff" points="212.21,-88.1 201.62,-88.46 210.12,-94.79 212.21,-88.1"/>
</a>
</g>
<g id="a_edge28&#45;headlabel"><a xlink:href="dir_000008_000007.html" target="_top" xlink:title="1">
<text text-anchor="middle" x="216.48" y="-83.96" font-family="Helvetica,sans-Serif" font-size="10.00" fill="#63b8ff">1</text>
</a>
</g>
</g>
<!-- dir_68aec2623aad94785c017c13c687e045&#45;&gt;dir_aeca43db7a276eb6dbfba1f93dc4539c -->
<g id="edge29" class="edge">
<title>dir_68aec2623aad94785c017c13c687e045&#45;&gt;dir_aeca43db7a276eb6dbfba1f93dc4539c</title>
<g id="a_edge29"><a xlink:href="dir_000008_000039.html" target="_top">
<path fill="none" stroke="#63b8ff" d="M380.29,-125.84C346.23,-107.08 265.37,-62.52 224.52,-40.01"/>
<polygon fill="#63b8ff" stroke="#63b8ff" points="225.96,-36.81 215.51,-35.05 222.58,-42.94 225.96,-36.81"/>
</a>
</g>
<g id="a_edge29&#45;headlabel"><a xlink:href="dir_000008_000039.html" target="_top" xlink:title="1">
<text text-anchor="middle" x="230.48" y="-33.56" font-family="Helvetica,sans-Serif" font-size="10.00" fill="#63b8ff">1</text>
</a>
</g>
</g>
<!-- dir_68aec2623aad94785c017c13c687e045&#45;&gt;dir_079f3dfffeb9e770010097b0dd1334eb -->
<g id="edge27" class="edge">
<title>dir_68aec2623aad94785c017c13c687e045&#45;&gt;dir_079f3dfffeb9e770010097b0dd1334eb</title>
<g id="a_edge27"><a xlink:href="dir_000008_000038.html" target="_top">
<path fill="none" stroke="#63b8ff" d="M396,-125.75C396,-118.8 396,-108.85 396,-100.13"/>
<polygon fill="#63b8ff" stroke="#63b8ff" points="399.5,-100.09 396,-90.09 392.5,-100.09 399.5,-100.09"/>
</a>
</g>
<g id="a_edge27&#45;headlabel"><a xlink:href="dir_000008_000038.html" target="_top" xlink:title="1">
<text text-anchor="middle" x="402.34" y="-101.18" font-family="Helvetica,sans-Serif" font-size="10.00" fill="#63b8ff">1</text>
</a>
</g>
</g>
<!-- dir_189eb8c36ffce94640b9d816bc05823d&#45;&gt;dir_15b1266ec3c6694d64b0cfc160192d3b -->
<g id="edge31" class="edge">
<title>dir_189eb8c36ffce94640b9d816bc05823d&#45;&gt;dir_15b1266ec3c6694d64b0cfc160192d3b</title>
<g id="a_edge31"><a xlink:href="dir_000011_000010.html" target="_top">
<path fill="none" stroke="#63b8ff" d="M219.97,-125.98C192.89,-117.13 150.29,-103.19 119.99,-93.28"/>
<polygon fill="#63b8ff" stroke="#63b8ff" points="120.82,-89.87 110.23,-90.08 118.65,-96.52 120.82,-89.87"/>
</a>
</g>
<g id="a_edge31&#45;headlabel"><a xlink:href="dir_000011_000010.html" target="_top" xlink:title="1">
<text text-anchor="middle" x="125.12" y="-85.78" font-family="Helvetica,sans-Serif" font-size="10.00" fill="#63b8ff">1</text>
</a>
</g>
</g>
<!-- dir_189eb8c36ffce94640b9d816bc05823d&#45;&gt;dir_aeca43db7a276eb6dbfba1f93dc4539c -->
<g id="edge32" class="edge">
<title>dir_189eb8c36ffce94640b9d816bc05823d&#45;&gt;dir_aeca43db7a276eb6dbfba1f93dc4539c</title>
<g id="a_edge32"><a xlink:href="dir_000011_000039.html" target="_top">
<path fill="none" stroke="#63b8ff" d="M218.35,-125.96C191.74,-117.12 154.33,-102.83 146,-90 139.46,-79.94 140.37,-73.6 146,-63 151.53,-52.59 161.49,-44.61 171.37,-38.81"/>
<polygon fill="#63b8ff" stroke="#63b8ff" points="173.09,-41.86 180.29,-34.08 169.81,-35.67 173.09,-41.86"/>
</a>
</g>
<g id="a_edge32&#45;headlabel"><a xlink:href="dir_000011_000039.html" target="_top" xlink:title="2">
<text text-anchor="middle" x="171.24" y="-43.55" font-family="Helvetica,sans-Serif" font-size="10.00" fill="#63b8ff">2</text>
</a>
</g>
</g>
<!-- dir_189eb8c36ffce94640b9d816bc05823d&#45;&gt;dir_079f3dfffeb9e770010097b0dd1334eb -->
<g id="edge30" class="edge">
<title>dir_189eb8c36ffce94640b9d816bc05823d&#45;&gt;dir_079f3dfffeb9e770010097b0dd1334eb</title>
<g id="a_edge30"><a xlink:href="dir_000011_000038.html" target="_top">
<path fill="none" stroke="#63b8ff" d="M270.16,-125.98C293.44,-117.76 329.94,-104.87 366.55,-91.93"/>
<polygon fill="#63b8ff" stroke="#63b8ff" points="368.09,-95.09 376.35,-88.46 365.76,-88.49 368.09,-95.09"/>
</a>
</g>
<g id="a_edge30&#45;headlabel"><a xlink:href="dir_000011_000038.html" target="_top" xlink:title="1">
<text text-anchor="middle" x="365.65" y="-96.47" font-family="Helvetica,sans-Serif" font-size="10.00" fill="#63b8ff">1</text>
</a>
</g>
</g>
<!-- dir_0133e64b3a4c854b47f86a7b8e0c9983&#45;&gt;dir_58a8bb8411baaae7f5177ea38c71ea73 -->
<g id="edge33" class="edge">
<title>dir_0133e64b3a4c854b47f86a7b8e0c9983&#45;&gt;dir_58a8bb8411baaae7f5177ea38c71ea73</title>
<g id="a_edge33"><a xlink:href="dir_000026_000027.html" target="_top">
<path fill="none" stroke="#63b8ff" d="M490.42,-70.83C496.18,-68.04 502.77,-65.13 509,-63 552.53,-48.13 604.63,-37.79 638.47,-32"/>
<polygon fill="#63b8ff" stroke="#63b8ff" points="639.07,-35.45 648.36,-30.35 637.92,-28.54 639.07,-35.45"/>
</a>
</g>
<g id="a_edge33&#45;headlabel"><a xlink:href="dir_000026_000027.html" target="_top" xlink:title="16">
<text text-anchor="middle" x="635.99" y="-36.34" font-family="Helvetica,sans-Serif" font-size="10.00" fill="#63b8ff">16</text>
</a>
</g>
</g>
<!-- dir_0133e64b3a4c854b47f86a7b8e0c9983&#45;&gt;dir_aeca43db7a276eb6dbfba1f93dc4539c -->
<g id="edge34" class="edge">
<title>dir_0133e64b3a4c854b47f86a7b8e0c9983&#45;&gt;dir_aeca43db7a276eb6dbfba1f93dc4539c</title>
<g id="a_edge34"><a xlink:href="dir_000026_000039.html" target="_top">
<path fill="none" stroke="#63b8ff" d="M450.57,-70.92C442.26,-68.11 432.79,-65.15 424,-63 355.38,-46.2 272.99,-35.03 229.79,-29.84"/>
<polygon fill="#63b8ff" stroke="#63b8ff" points="230.02,-26.34 219.68,-28.65 229.21,-33.3 230.02,-26.34"/>
</a>
</g>
<g id="a_edge34&#45;headlabel"><a xlink:href="dir_000026_000039.html" target="_top" xlink:title="1">
<text text-anchor="middle" x="233.93" y="-21.44" font-family="Helvetica,sans-Serif" font-size="10.00" fill="#63b8ff">1</text>
</a>
</g>
</g>
<!-- dir_63e7bb0cb88dc7cebeab7c37a85fbe32&#45;&gt;dir_aeca43db7a276eb6dbfba1f93dc4539c -->
<g id="edge36" class="edge">
<title>dir_63e7bb0cb88dc7cebeab7c37a85fbe32&#45;&gt;dir_aeca43db7a276eb6dbfba1f93dc4539c</title>
<g id="a_edge36"><a xlink:href="dir_000034_000039.html" target="_top">
<path fill="none" stroke="#63b8ff" d="M291.23,-127.31C244.88,-117.64 169.01,-100.45 161,-90 153.7,-80.48 156.22,-74.01 161,-63 164.66,-54.56 171.34,-47.18 178.15,-41.31"/>
<polygon fill="#63b8ff" stroke="#63b8ff" points="180.32,-44.06 186.03,-35.13 176,-38.55 180.32,-44.06"/>
</a>
</g>
<g id="a_edge36&#45;headlabel"><a xlink:href="dir_000034_000039.html" target="_top" xlink:title="1">
<text text-anchor="middle" x="179.24" y="-46.01" font-family="Helvetica,sans-Serif" font-size="10.00" fill="#63b8ff">1</text>
</a>
</g>
</g>
<!-- dir_63e7bb0cb88dc7cebeab7c37a85fbe32&#45;&gt;dir_079f3dfffeb9e770010097b0dd1334eb -->
<g id="edge35" class="edge">
<title>dir_63e7bb0cb88dc7cebeab7c37a85fbe32&#45;&gt;dir_079f3dfffeb9e770010097b0dd1334eb</title>
<g id="a_edge35"><a xlink:href="dir_000034_000038.html" target="_top">
<path fill="none" stroke="#63b8ff" d="M338.09,-125.98C348.49,-118 364.26,-105.88 376.72,-96.31"/>
<polygon fill="#63b8ff" stroke="#63b8ff" points="378.91,-99.04 384.71,-90.17 374.65,-93.49 378.91,-99.04"/>
</a>
</g>
<g id="a_edge35&#45;headlabel"><a xlink:href="dir_000034_000038.html" target="_top" xlink:title="1">
<text text-anchor="middle" x="377.79" y="-100.98" font-family="Helvetica,sans-Serif" font-size="10.00" fill="#63b8ff">1</text>
</a>
</g>
</g>
<!-- dir_04c97d3322b5ffe9ec5885b952098baa&#45;&gt;dir_cd166ded320aef6ec75102a3779bae14 -->
<g id="edge37" class="edge">
<title>dir_04c97d3322b5ffe9ec5885b952098baa&#45;&gt;dir_cd166ded320aef6ec75102a3779bae14</title>
<g id="a_edge37"><a xlink:href="dir_000035_000036.html" target="_top">
<path fill="none" stroke="#63b8ff" d="M561,-70.75C561,-63.8 561,-53.85 561,-45.13"/>
<polygon fill="#63b8ff" stroke="#63b8ff" points="564.5,-45.09 561,-35.09 557.5,-45.09 564.5,-45.09"/>
</a>
</g>
<g id="a_edge37&#45;headlabel"><a xlink:href="dir_000035_000036.html" target="_top" xlink:title="2">
<text text-anchor="middle" x="567.34" y="-46.18" font-family="Helvetica,sans-Serif" font-size="10.00" fill="#63b8ff">2</text>
</a>
</g>
</g>
<!-- dir_079f3dfffeb9e770010097b0dd1334eb&#45;&gt;dir_aeca43db7a276eb6dbfba1f93dc4539c -->
<g id="edge38" class="edge">
<title>dir_079f3dfffeb9e770010097b0dd1334eb&#45;&gt;dir_aeca43db7a276eb6dbfba1f93dc4539c</title>
<g id="a_edge38"><a xlink:href="dir_000038_000039.html" target="_top">
<path fill="none" stroke="#63b8ff" d="M385.3,-70.81C381.32,-67.95 376.65,-65 372,-63 324.59,-42.64 264.81,-33.25 229.66,-29.23"/>
<polygon fill="#63b8ff" stroke="#63b8ff" points="229.9,-25.73 219.58,-28.14 229.15,-32.69 229.9,-25.73"/>
</a>
</g>
<g id="a_edge38&#45;headlabel"><a xlink:href="dir_000038_000039.html" target="_top" xlink:title="6">
<text text-anchor="middle" x="233.78" y="-20.79" font-family="Helvetica,sans-Serif" font-size="10.00" fill="#63b8ff">6</text>
</a>
</g>
</g>
</g>
</svg>
