<?xml version="1.0" encoding="UTF-8" standalone="no"?>
<!DOCTYPE svg PUBLIC "-//W3C//DTD SVG 1.1//EN"
 "http://www.w3.org/Graphics/SVG/1.1/DTD/svg11.dtd">
<!-- Generated by graphviz version 2.43.0 (0)
 -->
<!-- Title: include/phasar/PhasarLLVM/DataFlow/Mono Pages: 1 -->
<svg width="574pt" height="125pt"
 viewBox="0.00 0.00 574.00 125.00" xmlns="http://www.w3.org/2000/svg" xmlns:xlink="http://www.w3.org/1999/xlink">
<g id="graph0" class="graph" transform="scale(1 1) rotate(0) translate(4 121)">
<title>include/phasar/PhasarLLVM/DataFlow/Mono</title>
<g id="clust1" class="cluster">
<title>clusterdir_b11f051d1364f2a30973d8d796d4babf</title>
<g id="a_clust1"><a xlink:href="dir_b11f051d1364f2a30973d8d796d4babf.html" target="_top" xlink:title="DataFlow">
<polygon fill="#edf0f7" stroke="#7f7f7f" stroke-dasharray="5,2" points="262.5,-39 262.5,-109 418.5,-109 418.5,-39 262.5,-39"/>
<text text-anchor="middle" x="340.5" y="-97" font-family="Helvetica,sans-Serif" font-size="10.00">DataFlow</text>
</a>
</g>
</g>
<g id="clust2" class="cluster">
<title>clusterdir_0e28ca19d6cc28e1984b43a86f9232be</title>
<g id="a_clust2"><a xlink:href="dir_0e28ca19d6cc28e1984b43a86f9232be.html" target="_top">
<polygon fill="#edf0f7" stroke="#404040" stroke-width="2" points="270.5,-47 270.5,-82 410.5,-82 410.5,-47 270.5,-47"/>
</a>
</g>
</g>
<!-- dir_0e28ca19d6cc28e1984b43a86f9232be -->
<g id="node1" class="node">
<title>dir_0e28ca19d6cc28e1984b43a86f9232be</title>
<text text-anchor="middle" x="380.5" y="-62" font-family="Helvetica,sans-Serif" font-size="10.00">Mono</text>
</g>
<!-- dir_a2b8510c46bfa02f8a5f51a307d28c1e -->
<g id="node2" class="node">
<title>dir_a2b8510c46bfa02f8a5f51a307d28c1e</title>
<g id="a_node2"><a xlink:href="dir_a2b8510c46bfa02f8a5f51a307d28c1e.html" target="_top" xlink:title="Problems">
<polygon fill="#a2b4d6" stroke="#404040" points="340.5,-74 278.5,-74 278.5,-55 340.5,-55 340.5,-74"/>
<text text-anchor="middle" x="309.5" y="-62" font-family="Helvetica,sans-Serif" font-size="10.00">Problems</text>
</a>
</g>
</g>
<!-- dir_69cf206f122d9153ac8b30a0f4a917bf -->
<g id="node3" class="node">
<title>dir_69cf206f122d9153ac8b30a0f4a917bf</title>
<g id="a_node3"><a xlink:href="dir_69cf206f122d9153ac8b30a0f4a917bf.html" target="_top" xlink:title="DataFlow">
<polygon fill="#edf0f7" stroke="red" stroke-dasharray="5,2" points="63,-19 0,-19 0,0 63,0 63,-19"/>
<text text-anchor="middle" x="31.5" y="-7" font-family="Helvetica,sans-Serif" font-size="10.00">DataFlow</text>
</a>
</g>
</g>
<!-- dir_a2b8510c46bfa02f8a5f51a307d28c1e&#45;&gt;dir_69cf206f122d9153ac8b30a0f4a917bf -->
<g id="edge7" class="edge">
<title>dir_a2b8510c46bfa02f8a5f51a307d28c1e&#45;&gt;dir_69cf206f122d9153ac8b30a0f4a917bf</title>
<g id="a_edge7"><a xlink:href="dir_000029_000005.html" target="_top">
<path fill="none" stroke="#63b8ff" d="M278.27,-57.91C234.6,-50.05 152.58,-35.07 73.49,-19.36"/>
<polygon fill="#63b8ff" stroke="#63b8ff" points="73.85,-15.87 63.36,-17.34 72.49,-22.73 73.85,-15.87"/>
</a>
</g>
<g id="a_edge7&#45;headlabel"><a xlink:href="dir_000029_000005.html" target="_top" xlink:title="6">
<text text-anchor="middle" x="77.93" y="-11.28" font-family="Helvetica,sans-Serif" font-size="10.00" fill="#63b8ff">6</text>
</a>
</g>
</g>
<!-- dir_15b1266ec3c6694d64b0cfc160192d3b -->
<g id="node4" class="node">
<title>dir_15b1266ec3c6694d64b0cfc160192d3b</title>
<g id="a_node4"><a xlink:href="dir_15b1266ec3c6694d64b0cfc160192d3b.html" target="_top" xlink:title="Domain">
<polygon fill="#edf0f7" stroke="#7f7f7f" points="136,-19 81,-19 81,0 136,0 136,-19"/>
<text text-anchor="middle" x="108.5" y="-7" font-family="Helvetica,sans-Serif" font-size="10.00">Domain</text>
</a>
</g>
</g>
<!-- dir_a2b8510c46bfa02f8a5f51a307d28c1e&#45;&gt;dir_15b1266ec3c6694d64b0cfc160192d3b -->
<g id="edge3" class="edge">
<title>dir_a2b8510c46bfa02f8a5f51a307d28c1e&#45;&gt;dir_15b1266ec3c6694d64b0cfc160192d3b</title>
<g id="a_edge3"><a xlink:href="dir_000029_000010.html" target="_top">
<path fill="none" stroke="#63b8ff" d="M278.09,-55.22C242.32,-45.78 183.89,-30.38 145.82,-20.34"/>
<polygon fill="#63b8ff" stroke="#63b8ff" points="146.69,-16.95 136.13,-17.79 144.91,-23.72 146.69,-16.95"/>
</a>
</g>
<g id="a_edge3&#45;headlabel"><a xlink:href="dir_000029_000010.html" target="_top" xlink:title="2">
<text text-anchor="middle" x="150.89" y="-12.62" font-family="Helvetica,sans-Serif" font-size="10.00" fill="#63b8ff">2</text>
</a>
</g>
</g>
<!-- dir_0bc4dee926a629f715a9261d8d248ef6 -->
<g id="node5" class="node">
<title>dir_0bc4dee926a629f715a9261d8d248ef6</title>
<g id="a_node5"><a xlink:href="dir_0bc4dee926a629f715a9261d8d248ef6.html" target="_top" xlink:title="ControlFlow">
<polygon fill="#edf0f7" stroke="red" stroke-dasharray="5,2" points="229,-19 154,-19 154,0 229,0 229,-19"/>
<text text-anchor="middle" x="191.5" y="-7" font-family="Helvetica,sans-Serif" font-size="10.00">ControlFlow</text>
</a>
</g>
</g>
<!-- dir_a2b8510c46bfa02f8a5f51a307d28c1e&#45;&gt;dir_0bc4dee926a629f715a9261d8d248ef6 -->
<g id="edge2" class="edge">
<title>dir_a2b8510c46bfa02f8a5f51a307d28c1e&#45;&gt;dir_0bc4dee926a629f715a9261d8d248ef6</title>
<g id="a_edge2"><a xlink:href="dir_000029_000004.html" target="_top">
<path fill="none" stroke="#63b8ff" d="M290.54,-54.98C271.47,-46.42 241.84,-33.11 219.95,-23.28"/>
<polygon fill="#63b8ff" stroke="#63b8ff" points="221.36,-20.07 210.8,-19.17 218.49,-26.46 221.36,-20.07"/>
</a>
</g>
<g id="a_edge2&#45;headlabel"><a xlink:href="dir_000029_000004.html" target="_top" xlink:title="7">
<text text-anchor="middle" x="225.8" y="-16.46" font-family="Helvetica,sans-Serif" font-size="10.00" fill="#63b8ff">7</text>
</a>
</g>
</g>
<!-- dir_189eb8c36ffce94640b9d816bc05823d -->
<g id="node6" class="node">
<title>dir_189eb8c36ffce94640b9d816bc05823d</title>
<g id="a_node6"><a xlink:href="dir_189eb8c36ffce94640b9d816bc05823d.html" target="_top" xlink:title="Domain">
<polygon fill="#edf0f7" stroke="#7f7f7f" points="302,-19 247,-19 247,0 302,0 302,-19"/>
<text text-anchor="middle" x="274.5" y="-7" font-family="Helvetica,sans-Serif" font-size="10.00">Domain</text>
</a>
</g>
</g>
<!-- dir_a2b8510c46bfa02f8a5f51a307d28c1e&#45;&gt;dir_189eb8c36ffce94640b9d816bc05823d -->
<g id="edge4" class="edge">
<title>dir_a2b8510c46bfa02f8a5f51a307d28c1e&#45;&gt;dir_189eb8c36ffce94640b9d816bc05823d</title>
<g id="a_edge4"><a xlink:href="dir_000029_000011.html" target="_top">
<path fill="none" stroke="#63b8ff" d="M303.72,-54.75C298.88,-47.42 291.82,-36.73 285.86,-27.7"/>
<polygon fill="#63b8ff" stroke="#63b8ff" points="288.6,-25.5 280.17,-19.09 282.76,-29.36 288.6,-25.5"/>
</a>
</g>
<g id="a_edge4&#45;headlabel"><a xlink:href="dir_000029_000011.html" target="_top" xlink:title="6">
<text text-anchor="middle" x="292.95" y="-24.44" font-family="Helvetica,sans-Serif" font-size="10.00" fill="#63b8ff">6</text>
</a>
</g>
</g>
<!-- dir_0133e64b3a4c854b47f86a7b8e0c9983 -->
<g id="node7" class="node">
<title>dir_0133e64b3a4c854b47f86a7b8e0c9983</title>
<g id="a_node7"><a xlink:href="dir_0133e64b3a4c854b47f86a7b8e0c9983.html" target="_top" xlink:title="Pointer">
<polygon fill="#edf0f7" stroke="red" stroke-dasharray="5,2" points="371,-19 320,-19 320,0 371,0 371,-19"/>
<text text-anchor="middle" x="345.5" y="-7" font-family="Helvetica,sans-Serif" font-size="10.00">Pointer</text>
</a>
</g>
</g>
<!-- dir_a2b8510c46bfa02f8a5f51a307d28c1e&#45;&gt;dir_0133e64b3a4c854b47f86a7b8e0c9983 -->
<g id="edge1" class="edge">
<title>dir_a2b8510c46bfa02f8a5f51a307d28c1e&#45;&gt;dir_0133e64b3a4c854b47f86a7b8e0c9983</title>
<g id="a_edge1"><a xlink:href="dir_000029_000026.html" target="_top">
<path fill="none" stroke="#63b8ff" d="M315.44,-54.75C320.48,-47.34 327.84,-36.5 334.01,-27.41"/>
<polygon fill="#63b8ff" stroke="#63b8ff" points="336.94,-29.33 339.67,-19.09 331.15,-25.39 336.94,-29.33"/>
</a>
</g>
<g id="a_edge1&#45;headlabel"><a xlink:href="dir_000029_000026.html" target="_top" xlink:title="6">
<text text-anchor="middle" x="337.27" y="-31.4" font-family="Helvetica,sans-Serif" font-size="10.00" fill="#63b8ff">6</text>
</a>
</g>
</g>
<!-- dir_68aec2623aad94785c017c13c687e045 -->
<g id="node8" class="node">
<title>dir_68aec2623aad94785c017c13c687e045</title>
<g id="a_node8"><a xlink:href="dir_68aec2623aad94785c017c13c687e045.html" target="_top" xlink:title="DB">
<polygon fill="#edf0f7" stroke="#7f7f7f" points="420,-19 389,-19 389,0 420,0 420,-19"/>
<text text-anchor="middle" x="404.5" y="-7" font-family="Helvetica,sans-Serif" font-size="10.00">DB</text>
</a>
</g>
</g>
<!-- dir_a2b8510c46bfa02f8a5f51a307d28c1e&#45;&gt;dir_68aec2623aad94785c017c13c687e045 -->
<g id="edge6" class="edge">
<title>dir_a2b8510c46bfa02f8a5f51a307d28c1e&#45;&gt;dir_68aec2623aad94785c017c13c687e045</title>
<g id="a_edge6"><a xlink:href="dir_000029_000008.html" target="_top">
<path fill="none" stroke="#63b8ff" d="M323.06,-54.86C330.73,-50.06 340.56,-44.04 349.5,-39 359.33,-33.45 370.35,-27.66 379.93,-22.76"/>
<polygon fill="#63b8ff" stroke="#63b8ff" points="381.6,-25.84 388.93,-18.19 378.43,-19.59 381.6,-25.84"/>
</a>
</g>
<g id="a_edge6&#45;headlabel"><a xlink:href="dir_000029_000008.html" target="_top" xlink:title="5">
<text text-anchor="middle" x="379.67" y="-27.49" font-family="Helvetica,sans-Serif" font-size="10.00" fill="#63b8ff">5</text>
</a>
</g>
</g>
<!-- dir_aeca43db7a276eb6dbfba1f93dc4539c -->
<g id="node9" class="node">
<title>dir_aeca43db7a276eb6dbfba1f93dc4539c</title>
<g id="a_node9"><a xlink:href="dir_aeca43db7a276eb6dbfba1f93dc4539c.html" target="_top" xlink:title="Utils">
<polygon fill="#edf0f7" stroke="#7f7f7f" points="477,-19 438,-19 438,0 477,0 477,-19"/>
<text text-anchor="middle" x="457.5" y="-7" font-family="Helvetica,sans-Serif" font-size="10.00">Utils</text>
</a>
</g>
</g>
<!-- dir_a2b8510c46bfa02f8a5f51a307d28c1e&#45;&gt;dir_aeca43db7a276eb6dbfba1f93dc4539c -->
<g id="edge8" class="edge">
<title>dir_a2b8510c46bfa02f8a5f51a307d28c1e&#45;&gt;dir_aeca43db7a276eb6dbfba1f93dc4539c</title>
<g id="a_edge8"><a xlink:href="dir_000029_000039.html" target="_top">
<path fill="none" stroke="#63b8ff" d="M321.24,-54.99C328.95,-49.74 339.44,-43.22 349.5,-39 380.66,-25.93 392.34,-28.26 428.27,-19.15"/>
<polygon fill="#63b8ff" stroke="#63b8ff" points="429.19,-22.53 437.95,-16.57 427.39,-15.76 429.19,-22.53"/>
</a>
</g>
<g id="a_edge8&#45;headlabel"><a xlink:href="dir_000029_000039.html" target="_top" xlink:title="5">
<text text-anchor="middle" x="426.45" y="-23.69" font-family="Helvetica,sans-Serif" font-size="10.00" fill="#63b8ff">5</text>
</a>
</g>
</g>
<!-- dir_63e7bb0cb88dc7cebeab7c37a85fbe32 -->
<g id="node10" class="node">
<title>dir_63e7bb0cb88dc7cebeab7c37a85fbe32</title>
<g id="a_node10"><a xlink:href="dir_63e7bb0cb88dc7cebeab7c37a85fbe32.html" target="_top" xlink:title="TaintConfig">
<polygon fill="#edf0f7" stroke="#7f7f7f" points="566,-19 495,-19 495,0 566,0 566,-19"/>
<text text-anchor="middle" x="530.5" y="-7" font-family="Helvetica,sans-Serif" font-size="10.00">TaintConfig</text>
</a>
</g>
</g>
<!-- dir_a2b8510c46bfa02f8a5f51a307d28c1e&#45;&gt;dir_63e7bb0cb88dc7cebeab7c37a85fbe32 -->
<g id="edge5" class="edge">
<title>dir_a2b8510c46bfa02f8a5f51a307d28c1e&#45;&gt;dir_63e7bb0cb88dc7cebeab7c37a85fbe32</title>
<g id="a_edge5"><a xlink:href="dir_000029_000034.html" target="_top">
<path fill="none" stroke="#63b8ff" d="M320.76,-54.88C328.45,-49.45 339.09,-42.77 349.5,-39 404.42,-19.12 423.85,-28.23 484.83,-19.13"/>
<polygon fill="#63b8ff" stroke="#63b8ff" points="485.66,-22.54 494.98,-17.51 484.56,-15.63 485.66,-22.54"/>
</a>
</g>
<g id="a_edge5&#45;headlabel"><a xlink:href="dir_000029_000034.html" target="_top" xlink:title="1">
<text text-anchor="middle" x="482.56" y="-23.41" font-family="Helvetica,sans-Serif" font-size="10.00" fill="#63b8ff">1</text>
</a>
</g>
</g>
</g>
</svg>
