<?xml version="1.0" encoding="UTF-8" standalone="no"?>
<!DOCTYPE svg PUBLIC "-//W3C//DTD SVG 1.1//EN"
 "http://www.w3.org/Graphics/SVG/1.1/DTD/svg11.dtd">
<!-- Generated by graphviz version 2.43.0 (0)
 -->
<!-- Title: include/phasar/PhasarLLVM/DataFlow Pages: 1 -->
<svg width="752pt" height="141pt"
 viewBox="0.00 0.00 751.50 141.00" xmlns="http://www.w3.org/2000/svg" xmlns:xlink="http://www.w3.org/1999/xlink">
<g id="graph0" class="graph" transform="scale(1 1) rotate(0) translate(4 137)">
<title>include/phasar/PhasarLLVM/DataFlow</title>
<g id="clust1" class="cluster">
<title>clusterdir_6556945d274d6e1e874171d9d575b3f4</title>
<g id="a_clust1"><a xlink:href="dir_6556945d274d6e1e874171d9d575b3f4.html" target="_top" xlink:title="PhasarLLVM">
<polygon fill="#edf0f7" stroke="#7f7f7f" stroke-dasharray="5,2" points="8,-8 8,-125 541,-125 541,-8 8,-8"/>
<text text-anchor="middle" x="274.5" y="-113" font-family="Helvetica,sans-Serif" font-size="10.00">PhasarLLVM</text>
</a>
</g>
</g>
<g id="clust2" class="cluster">
<title>clusterdir_b11f051d1364f2a30973d8d796d4babf</title>
<g id="a_clust2"><a xlink:href="dir_b11f051d1364f2a30973d8d796d4babf.html" target="_top">
<polygon fill="#edf0f7" stroke="#404040" stroke-width="2" points="216,-63 216,-98 533,-98 533,-63 216,-63"/>
</a>
</g>
</g>
<!-- dir_0133e64b3a4c854b47f86a7b8e0c9983 -->
<g id="node1" class="node">
<title>dir_0133e64b3a4c854b47f86a7b8e0c9983</title>
<g id="a_node1"><a xlink:href="dir_0133e64b3a4c854b47f86a7b8e0c9983.html" target="_top" xlink:title="Pointer">
<polygon fill="#a2b4d6" stroke="red" points="475.5,-35 424.5,-35 424.5,-16 475.5,-16 475.5,-35"/>
<text text-anchor="middle" x="450" y="-23" font-family="Helvetica,sans-Serif" font-size="10.00">Pointer</text>
</a>
</g>
</g>
<!-- dir_079f3dfffeb9e770010097b0dd1334eb -->
<g id="node2" class="node">
<title>dir_079f3dfffeb9e770010097b0dd1334eb</title>
<g id="a_node2"><a xlink:href="dir_079f3dfffeb9e770010097b0dd1334eb.html" target="_top" xlink:title="Utils">
<polygon fill="#a2b4d6" stroke="#404040" points="532.5,-35 493.5,-35 493.5,-16 532.5,-16 532.5,-35"/>
<text text-anchor="middle" x="513" y="-23" font-family="Helvetica,sans-Serif" font-size="10.00">Utils</text>
</a>
</g>
</g>
<!-- dir_0bc4dee926a629f715a9261d8d248ef6 -->
<g id="node3" class="node">
<title>dir_0bc4dee926a629f715a9261d8d248ef6</title>
<g id="a_node3"><a xlink:href="dir_0bc4dee926a629f715a9261d8d248ef6.html" target="_top" xlink:title="ControlFlow">
<polygon fill="#a2b4d6" stroke="red" points="244.5,-35 169.5,-35 169.5,-16 244.5,-16 244.5,-35"/>
<text text-anchor="middle" x="207" y="-23" font-family="Helvetica,sans-Serif" font-size="10.00">ControlFlow</text>
</a>
</g>
</g>
<!-- dir_189eb8c36ffce94640b9d816bc05823d -->
<g id="node4" class="node">
<title>dir_189eb8c36ffce94640b9d816bc05823d</title>
<g id="a_node4"><a xlink:href="dir_189eb8c36ffce94640b9d816bc05823d.html" target="_top" xlink:title="Domain">
<polygon fill="#a2b4d6" stroke="#404040" points="317.5,-35 262.5,-35 262.5,-16 317.5,-16 317.5,-35"/>
<text text-anchor="middle" x="290" y="-23" font-family="Helvetica,sans-Serif" font-size="10.00">Domain</text>
</a>
</g>
</g>
<!-- dir_68aec2623aad94785c017c13c687e045 -->
<g id="node5" class="node">
<title>dir_68aec2623aad94785c017c13c687e045</title>
<g id="a_node5"><a xlink:href="dir_68aec2623aad94785c017c13c687e045.html" target="_top" xlink:title="DB">
<polygon fill="#a2b4d6" stroke="#404040" points="151.5,-35 120.5,-35 120.5,-16 151.5,-16 151.5,-35"/>
<text text-anchor="middle" x="136" y="-23" font-family="Helvetica,sans-Serif" font-size="10.00">DB</text>
</a>
</g>
</g>
<!-- dir_63e7bb0cb88dc7cebeab7c37a85fbe32 -->
<g id="node6" class="node">
<title>dir_63e7bb0cb88dc7cebeab7c37a85fbe32</title>
<g id="a_node6"><a xlink:href="dir_63e7bb0cb88dc7cebeab7c37a85fbe32.html" target="_top" xlink:title="TaintConfig">
<polygon fill="#a2b4d6" stroke="#404040" points="406.5,-35 335.5,-35 335.5,-16 406.5,-16 406.5,-35"/>
<text text-anchor="middle" x="371" y="-23" font-family="Helvetica,sans-Serif" font-size="10.00">TaintConfig</text>
</a>
</g>
</g>
<!-- dir_04c97d3322b5ffe9ec5885b952098baa -->
<g id="node7" class="node">
<title>dir_04c97d3322b5ffe9ec5885b952098baa</title>
<g id="a_node7"><a xlink:href="dir_04c97d3322b5ffe9ec5885b952098baa.html" target="_top" xlink:title="TypeHierarchy">
<polygon fill="#a2b4d6" stroke="#404040" points="102,-35 16,-35 16,-16 102,-16 102,-35"/>
<text text-anchor="middle" x="59" y="-23" font-family="Helvetica,sans-Serif" font-size="10.00">TypeHierarchy</text>
</a>
</g>
</g>
<!-- dir_b11f051d1364f2a30973d8d796d4babf -->
<g id="node8" class="node">
<title>dir_b11f051d1364f2a30973d8d796d4babf</title>
<text text-anchor="middle" x="493" y="-78" font-family="Helvetica,sans-Serif" font-size="10.00">DataFlow</text>
</g>
<!-- dir_a914fe635f43607d3ac935bbff17c46d -->
<g id="node9" class="node">
<title>dir_a914fe635f43607d3ac935bbff17c46d</title>
<g id="a_node9"><a xlink:href="dir_a914fe635f43607d3ac935bbff17c46d.html" target="_top" xlink:title="IfdsIde">
<polygon fill="#a2b4d6" stroke="#404040" points="274,-90 224,-90 224,-71 274,-71 274,-90"/>
<text text-anchor="middle" x="249" y="-78" font-family="Helvetica,sans-Serif" font-size="10.00">IfdsIde</text>
</a>
</g>
</g>
<!-- dir_a914fe635f43607d3ac935bbff17c46d&#45;&gt;dir_0133e64b3a4c854b47f86a7b8e0c9983 -->
<g id="edge1" class="edge">
<title>dir_a914fe635f43607d3ac935bbff17c46d&#45;&gt;dir_0133e64b3a4c854b47f86a7b8e0c9983</title>
<g id="a_edge1"><a xlink:href="dir_000015_000026.html" target="_top">
<path fill="none" stroke="#63b8ff" d="M264.57,-70.95C270.25,-68.11 276.79,-65.12 283,-63 337.25,-44.44 355.3,-48.1 414.53,-35.22"/>
<polygon fill="#63b8ff" stroke="#63b8ff" points="415.41,-38.61 424.4,-33.01 413.88,-31.78 415.41,-38.61"/>
</a>
</g>
<g id="a_edge1&#45;headlabel"><a xlink:href="dir_000015_000026.html" target="_top" xlink:title="11">
<text text-anchor="middle" x="412.53" y="-39.67" font-family="Helvetica,sans-Serif" font-size="10.00" fill="#63b8ff">11</text>
</a>
</g>
</g>
<!-- dir_a914fe635f43607d3ac935bbff17c46d&#45;&gt;dir_079f3dfffeb9e770010097b0dd1334eb -->
<g id="edge2" class="edge">
<title>dir_a914fe635f43607d3ac935bbff17c46d&#45;&gt;dir_079f3dfffeb9e770010097b0dd1334eb</title>
<g id="a_edge2"><a xlink:href="dir_000015_000038.html" target="_top">
<path fill="none" stroke="#63b8ff" d="M264.16,-70.88C269.9,-67.96 276.6,-64.94 283,-63 366.68,-37.59 394.52,-53.25 483.27,-35.05"/>
<polygon fill="#63b8ff" stroke="#63b8ff" points="484.17,-38.44 493.22,-32.93 482.71,-31.59 484.17,-38.44"/>
</a>
</g>
<g id="a_edge2&#45;headlabel"><a xlink:href="dir_000015_000038.html" target="_top" xlink:title="9">
<text text-anchor="middle" x="481.25" y="-39.47" font-family="Helvetica,sans-Serif" font-size="10.00" fill="#63b8ff">9</text>
</a>
</g>
</g>
<!-- dir_a914fe635f43607d3ac935bbff17c46d&#45;&gt;dir_0bc4dee926a629f715a9261d8d248ef6 -->
<g id="edge3" class="edge">
<title>dir_a914fe635f43607d3ac935bbff17c46d&#45;&gt;dir_0bc4dee926a629f715a9261d8d248ef6</title>
<g id="a_edge3"><a xlink:href="dir_000015_000004.html" target="_top">
<path fill="none" stroke="#63b8ff" d="M242.06,-70.75C236.13,-63.26 227.43,-52.28 220.18,-43.13"/>
<polygon fill="#63b8ff" stroke="#63b8ff" points="222.76,-40.75 213.81,-35.09 217.27,-45.1 222.76,-40.75"/>
</a>
</g>
<g id="a_edge3&#45;headlabel"><a xlink:href="dir_000015_000004.html" target="_top" xlink:title="4">
<text text-anchor="middle" x="227.22" y="-39.31" font-family="Helvetica,sans-Serif" font-size="10.00" fill="#63b8ff">4</text>
</a>
</g>
</g>
<!-- dir_a914fe635f43607d3ac935bbff17c46d&#45;&gt;dir_189eb8c36ffce94640b9d816bc05823d -->
<g id="edge5" class="edge">
<title>dir_a914fe635f43607d3ac935bbff17c46d&#45;&gt;dir_189eb8c36ffce94640b9d816bc05823d</title>
<g id="a_edge5"><a xlink:href="dir_000015_000011.html" target="_top">
<path fill="none" stroke="#63b8ff" d="M255.77,-70.75C261.56,-63.26 270.06,-52.28 277.14,-43.13"/>
<polygon fill="#63b8ff" stroke="#63b8ff" points="280.01,-45.14 283.36,-35.09 274.47,-40.86 280.01,-45.14"/>
</a>
</g>
<g id="a_edge5&#45;headlabel"><a xlink:href="dir_000015_000011.html" target="_top" xlink:title="18">
<text text-anchor="middle" x="280.05" y="-47.22" font-family="Helvetica,sans-Serif" font-size="10.00" fill="#63b8ff">18</text>
</a>
</g>
</g>
<!-- dir_a914fe635f43607d3ac935bbff17c46d&#45;&gt;dir_68aec2623aad94785c017c13c687e045 -->
<g id="edge6" class="edge">
<title>dir_a914fe635f43607d3ac935bbff17c46d&#45;&gt;dir_68aec2623aad94785c017c13c687e045</title>
<g id="a_edge6"><a xlink:href="dir_000015_000008.html" target="_top">
<path fill="none" stroke="#63b8ff" d="M230.84,-70.98C211.89,-62.09 182.02,-48.09 160.88,-38.17"/>
<polygon fill="#63b8ff" stroke="#63b8ff" points="162.1,-34.88 151.56,-33.8 159.13,-41.22 162.1,-34.88"/>
</a>
</g>
<g id="a_edge6&#45;headlabel"><a xlink:href="dir_000015_000008.html" target="_top" xlink:title="4">
<text text-anchor="middle" x="166.56" y="-31.33" font-family="Helvetica,sans-Serif" font-size="10.00" fill="#63b8ff">4</text>
</a>
</g>
</g>
<!-- dir_a914fe635f43607d3ac935bbff17c46d&#45;&gt;dir_63e7bb0cb88dc7cebeab7c37a85fbe32 -->
<g id="edge9" class="edge">
<title>dir_a914fe635f43607d3ac935bbff17c46d&#45;&gt;dir_63e7bb0cb88dc7cebeab7c37a85fbe32</title>
<g id="a_edge9"><a xlink:href="dir_000015_000034.html" target="_top">
<path fill="none" stroke="#63b8ff" d="M266.2,-70.91C271.55,-68.3 277.49,-65.48 283,-63 301.79,-54.55 323.13,-45.69 340.09,-38.81"/>
<polygon fill="#63b8ff" stroke="#63b8ff" points="341.55,-41.99 349.51,-35 338.93,-35.5 341.55,-41.99"/>
</a>
</g>
<g id="a_edge9&#45;headlabel"><a xlink:href="dir_000015_000034.html" target="_top" xlink:title="1">
<text text-anchor="middle" x="339.28" y="-43.47" font-family="Helvetica,sans-Serif" font-size="10.00" fill="#63b8ff">1</text>
</a>
</g>
</g>
<!-- dir_a914fe635f43607d3ac935bbff17c46d&#45;&gt;dir_04c97d3322b5ffe9ec5885b952098baa -->
<g id="edge10" class="edge">
<title>dir_a914fe635f43607d3ac935bbff17c46d&#45;&gt;dir_04c97d3322b5ffe9ec5885b952098baa</title>
<g id="a_edge10"><a xlink:href="dir_000015_000035.html" target="_top">
<path fill="none" stroke="#63b8ff" d="M223.77,-72.46C191.99,-63.6 136.98,-48.25 99.33,-37.75"/>
<polygon fill="#63b8ff" stroke="#63b8ff" points="100.26,-34.38 89.69,-35.06 98.38,-41.12 100.26,-34.38"/>
</a>
</g>
<g id="a_edge10&#45;headlabel"><a xlink:href="dir_000015_000035.html" target="_top" xlink:title="1">
<text text-anchor="middle" x="104.49" y="-30.11" font-family="Helvetica,sans-Serif" font-size="10.00" fill="#63b8ff">1</text>
</a>
</g>
</g>
<!-- dir_69cf206f122d9153ac8b30a0f4a917bf -->
<g id="node12" class="node">
<title>dir_69cf206f122d9153ac8b30a0f4a917bf</title>
<g id="a_node12"><a xlink:href="dir_69cf206f122d9153ac8b30a0f4a917bf.html" target="_top" xlink:title="DataFlow">
<polygon fill="#edf0f7" stroke="red" stroke-dasharray="5,2" points="686.5,-35 623.5,-35 623.5,-16 686.5,-16 686.5,-35"/>
<text text-anchor="middle" x="655" y="-23" font-family="Helvetica,sans-Serif" font-size="10.00">DataFlow</text>
</a>
</g>
</g>
<!-- dir_a914fe635f43607d3ac935bbff17c46d&#45;&gt;dir_69cf206f122d9153ac8b30a0f4a917bf -->
<g id="edge7" class="edge">
<title>dir_a914fe635f43607d3ac935bbff17c46d&#45;&gt;dir_69cf206f122d9153ac8b30a0f4a917bf</title>
<g id="a_edge7"><a xlink:href="dir_000015_000005.html" target="_top">
<path fill="none" stroke="#63b8ff" d="M263.77,-70.87C269.57,-67.87 276.42,-64.81 283,-63 422.59,-24.67 466.54,-55.21 612.93,-35.1"/>
<polygon fill="#63b8ff" stroke="#63b8ff" points="613.79,-38.52 623.19,-33.64 612.79,-31.59 613.79,-38.52"/>
</a>
</g>
<g id="a_edge7&#45;headlabel"><a xlink:href="dir_000015_000005.html" target="_top" xlink:title="46">
<text text-anchor="middle" x="610.63" y="-39.34" font-family="Helvetica,sans-Serif" font-size="10.00" fill="#63b8ff">46</text>
</a>
</g>
</g>
<!-- dir_aeca43db7a276eb6dbfba1f93dc4539c -->
<g id="node13" class="node">
<title>dir_aeca43db7a276eb6dbfba1f93dc4539c</title>
<g id="a_node13"><a xlink:href="dir_aeca43db7a276eb6dbfba1f93dc4539c.html" target="_top" xlink:title="Utils">
<polygon fill="#edf0f7" stroke="#7f7f7f" points="743.5,-35 704.5,-35 704.5,-16 743.5,-16 743.5,-35"/>
<text text-anchor="middle" x="724" y="-23" font-family="Helvetica,sans-Serif" font-size="10.00">Utils</text>
</a>
</g>
</g>
<!-- dir_a914fe635f43607d3ac935bbff17c46d&#45;&gt;dir_aeca43db7a276eb6dbfba1f93dc4539c -->
<g id="edge8" class="edge">
<title>dir_a914fe635f43607d3ac935bbff17c46d&#45;&gt;dir_aeca43db7a276eb6dbfba1f93dc4539c</title>
<g id="a_edge8"><a xlink:href="dir_000015_000039.html" target="_top">
<path fill="none" stroke="#63b8ff" d="M263.42,-70.98C269.29,-67.92 276.28,-64.79 283,-63 457.68,-16.58 513.09,-66.34 694.4,-34.87"/>
<polygon fill="#63b8ff" stroke="#63b8ff" points="695.03,-38.31 704.25,-33.1 693.79,-31.42 695.03,-38.31"/>
</a>
</g>
<g id="a_edge8&#45;headlabel"><a xlink:href="dir_000015_000039.html" target="_top" xlink:title="23">
<text text-anchor="middle" x="691.99" y="-39.24" font-family="Helvetica,sans-Serif" font-size="10.00" fill="#63b8ff">23</text>
</a>
</g>
</g>
<!-- dir_15b1266ec3c6694d64b0cfc160192d3b -->
<g id="node14" class="node">
<title>dir_15b1266ec3c6694d64b0cfc160192d3b</title>
<g id="a_node14"><a xlink:href="dir_15b1266ec3c6694d64b0cfc160192d3b.html" target="_top" xlink:title="Domain">
<polygon fill="#edf0f7" stroke="#7f7f7f" points="605.5,-35 550.5,-35 550.5,-16 605.5,-16 605.5,-35"/>
<text text-anchor="middle" x="578" y="-23" font-family="Helvetica,sans-Serif" font-size="10.00">Domain</text>
</a>
</g>
</g>
<!-- dir_a914fe635f43607d3ac935bbff17c46d&#45;&gt;dir_15b1266ec3c6694d64b0cfc160192d3b -->
<g id="edge4" class="edge">
<title>dir_a914fe635f43607d3ac935bbff17c46d&#45;&gt;dir_15b1266ec3c6694d64b0cfc160192d3b</title>
<g id="a_edge4"><a xlink:href="dir_000015_000010.html" target="_top">
<path fill="none" stroke="#63b8ff" d="M263.79,-70.95C269.6,-67.96 276.44,-64.88 283,-63 392.39,-31.65 427.77,-54.5 540.3,-35.69"/>
<polygon fill="#63b8ff" stroke="#63b8ff" points="541.09,-39.11 550.34,-33.94 539.88,-32.21 541.09,-39.11"/>
</a>
</g>
<g id="a_edge4&#45;headlabel"><a xlink:href="dir_000015_000010.html" target="_top" xlink:title="7">
<text text-anchor="middle" x="538.04" y="-40.02" font-family="Helvetica,sans-Serif" font-size="10.00" fill="#63b8ff">7</text>
</a>
</g>
</g>
<!-- dir_0e28ca19d6cc28e1984b43a86f9232be -->
<g id="node10" class="node">
<title>dir_0e28ca19d6cc28e1984b43a86f9232be</title>
<g id="a_node10"><a xlink:href="dir_0e28ca19d6cc28e1984b43a86f9232be.html" target="_top" xlink:title="Mono">
<polygon fill="#a2b4d6" stroke="#404040" points="336,-90 292,-90 292,-71 336,-71 336,-90"/>
<text text-anchor="middle" x="314" y="-78" font-family="Helvetica,sans-Serif" font-size="10.00">Mono</text>
</a>
</g>
</g>
<!-- dir_0e28ca19d6cc28e1984b43a86f9232be&#45;&gt;dir_0133e64b3a4c854b47f86a7b8e0c9983 -->
<g id="edge14" class="edge">
<title>dir_0e28ca19d6cc28e1984b43a86f9232be&#45;&gt;dir_0133e64b3a4c854b47f86a7b8e0c9983</title>
<g id="a_edge14"><a xlink:href="dir_000018_000026.html" target="_top">
<path fill="none" stroke="#63b8ff" d="M329.74,-70.83C334.86,-68.17 340.6,-65.32 346,-63 368.5,-53.31 394.51,-44.18 414.89,-37.47"/>
<polygon fill="#63b8ff" stroke="#63b8ff" points="415.97,-40.8 424.41,-34.39 413.81,-34.14 415.97,-40.8"/>
</a>
</g>
<g id="a_edge14&#45;headlabel"><a xlink:href="dir_000018_000026.html" target="_top" xlink:title="6">
<text text-anchor="middle" x="413.43" y="-42.11" font-family="Helvetica,sans-Serif" font-size="10.00" fill="#63b8ff">6</text>
</a>
</g>
</g>
<!-- dir_0e28ca19d6cc28e1984b43a86f9232be&#45;&gt;dir_0bc4dee926a629f715a9261d8d248ef6 -->
<g id="edge16" class="edge">
<title>dir_0e28ca19d6cc28e1984b43a86f9232be&#45;&gt;dir_0bc4dee926a629f715a9261d8d248ef6</title>
<g id="a_edge16"><a xlink:href="dir_000018_000004.html" target="_top">
<path fill="none" stroke="#63b8ff" d="M298.3,-70.98C293.42,-68.38 288,-65.53 283,-63 267.19,-55 249.34,-46.4 234.91,-39.56"/>
<polygon fill="#63b8ff" stroke="#63b8ff" points="236.07,-36.24 225.53,-35.14 233.08,-42.57 236.07,-36.24"/>
</a>
</g>
<g id="a_edge16&#45;headlabel"><a xlink:href="dir_000018_000004.html" target="_top" xlink:title="1">
<text text-anchor="middle" x="240.53" y="-32.71" font-family="Helvetica,sans-Serif" font-size="10.00" fill="#63b8ff">1</text>
</a>
</g>
</g>
<!-- dir_0e28ca19d6cc28e1984b43a86f9232be&#45;&gt;dir_189eb8c36ffce94640b9d816bc05823d -->
<g id="edge13" class="edge">
<title>dir_0e28ca19d6cc28e1984b43a86f9232be&#45;&gt;dir_189eb8c36ffce94640b9d816bc05823d</title>
<g id="a_edge13"><a xlink:href="dir_000018_000011.html" target="_top">
<path fill="none" stroke="#63b8ff" d="M310.04,-70.75C306.79,-63.57 302.08,-53.18 298.05,-44.27"/>
<polygon fill="#63b8ff" stroke="#63b8ff" points="301.2,-42.75 293.89,-35.09 294.83,-45.64 301.2,-42.75"/>
</a>
</g>
<g id="a_edge13&#45;headlabel"><a xlink:href="dir_000018_000011.html" target="_top" xlink:title="6">
<text text-anchor="middle" x="305.27" y="-42.36" font-family="Helvetica,sans-Serif" font-size="10.00" fill="#63b8ff">6</text>
</a>
</g>
</g>
<!-- dir_0e28ca19d6cc28e1984b43a86f9232be&#45;&gt;dir_63e7bb0cb88dc7cebeab7c37a85fbe32 -->
<g id="edge17" class="edge">
<title>dir_0e28ca19d6cc28e1984b43a86f9232be&#45;&gt;dir_63e7bb0cb88dc7cebeab7c37a85fbe32</title>
<g id="a_edge17"><a xlink:href="dir_000018_000034.html" target="_top">
<path fill="none" stroke="#63b8ff" d="M323.16,-70.98C331.5,-63.23 344.03,-51.58 354.18,-42.14"/>
<polygon fill="#63b8ff" stroke="#63b8ff" points="356.74,-44.54 361.68,-35.17 351.97,-39.42 356.74,-44.54"/>
</a>
</g>
<g id="a_edge17&#45;headlabel"><a xlink:href="dir_000018_000034.html" target="_top" xlink:title="1">
<text text-anchor="middle" x="356.04" y="-46.57" font-family="Helvetica,sans-Serif" font-size="10.00" fill="#63b8ff">1</text>
</a>
</g>
</g>
<!-- dir_0e28ca19d6cc28e1984b43a86f9232be&#45;&gt;dir_69cf206f122d9153ac8b30a0f4a917bf -->
<g id="edge11" class="edge">
<title>dir_0e28ca19d6cc28e1984b43a86f9232be&#45;&gt;dir_69cf206f122d9153ac8b30a0f4a917bf</title>
<g id="a_edge11"><a xlink:href="dir_000018_000005.html" target="_top">
<path fill="none" stroke="#63b8ff" d="M327.86,-70.92C333.32,-67.93 339.77,-64.86 346,-63 458.04,-29.58 494.29,-52.41 612.97,-35.13"/>
<polygon fill="#63b8ff" stroke="#63b8ff" points="613.82,-38.54 623.18,-33.58 612.77,-31.62 613.82,-38.54"/>
</a>
</g>
<g id="a_edge11&#45;headlabel"><a xlink:href="dir_000018_000005.html" target="_top" xlink:title="6">
<text text-anchor="middle" x="610.69" y="-39.39" font-family="Helvetica,sans-Serif" font-size="10.00" fill="#63b8ff">6</text>
</a>
</g>
</g>
<!-- dir_0e28ca19d6cc28e1984b43a86f9232be&#45;&gt;dir_aeca43db7a276eb6dbfba1f93dc4539c -->
<g id="edge15" class="edge">
<title>dir_0e28ca19d6cc28e1984b43a86f9232be&#45;&gt;dir_aeca43db7a276eb6dbfba1f93dc4539c</title>
<g id="a_edge15"><a xlink:href="dir_000018_000039.html" target="_top">
<path fill="none" stroke="#63b8ff" d="M327.84,-70.84C333.3,-67.84 339.75,-64.78 346,-63 492.84,-21.1 540.63,-62.21 693.99,-34.97"/>
<polygon fill="#63b8ff" stroke="#63b8ff" points="695.05,-38.33 704.25,-33.07 693.78,-31.45 695.05,-38.33"/>
</a>
</g>
<g id="a_edge15&#45;headlabel"><a xlink:href="dir_000018_000039.html" target="_top" xlink:title="5">
<text text-anchor="middle" x="692.03" y="-39.27" font-family="Helvetica,sans-Serif" font-size="10.00" fill="#63b8ff">5</text>
</a>
</g>
</g>
<!-- dir_0e28ca19d6cc28e1984b43a86f9232be&#45;&gt;dir_15b1266ec3c6694d64b0cfc160192d3b -->
<g id="edge12" class="edge">
<title>dir_0e28ca19d6cc28e1984b43a86f9232be&#45;&gt;dir_15b1266ec3c6694d64b0cfc160192d3b</title>
<g id="a_edge12"><a xlink:href="dir_000018_000010.html" target="_top">
<path fill="none" stroke="#63b8ff" d="M328.21,-70.87C333.61,-67.94 339.92,-64.93 346,-63 427.96,-36.93 455.36,-51.23 540.25,-35.79"/>
<polygon fill="#63b8ff" stroke="#63b8ff" points="541.16,-39.18 550.32,-33.87 539.85,-32.3 541.16,-39.18"/>
</a>
</g>
<g id="a_edge12&#45;headlabel"><a xlink:href="dir_000018_000010.html" target="_top" xlink:title="2">
<text text-anchor="middle" x="538.16" y="-40.14" font-family="Helvetica,sans-Serif" font-size="10.00" fill="#63b8ff">2</text>
</a>
</g>
</g>
<!-- dir_dceb9711b5b3ca19d081938874f6c202 -->
<g id="node11" class="node">
<title>dir_dceb9711b5b3ca19d081938874f6c202</title>
<g id="a_node11"><a xlink:href="dir_dceb9711b5b3ca19d081938874f6c202.html" target="_top" xlink:title="PathSensitivity">
<polygon fill="#a2b4d6" stroke="#404040" points="443.5,-90 354.5,-90 354.5,-71 443.5,-71 443.5,-90"/>
<text text-anchor="middle" x="399" y="-78" font-family="Helvetica,sans-Serif" font-size="10.00">PathSensitivity</text>
</a>
</g>
</g>
<!-- dir_dceb9711b5b3ca19d081938874f6c202&#45;&gt;dir_079f3dfffeb9e770010097b0dd1334eb -->
<g id="edge18" class="edge">
<title>dir_dceb9711b5b3ca19d081938874f6c202&#45;&gt;dir_079f3dfffeb9e770010097b0dd1334eb</title>
<g id="a_edge18"><a xlink:href="dir_000021_000038.html" target="_top">
<path fill="none" stroke="#63b8ff" d="M417.32,-70.98C435.66,-62.46 464.11,-49.23 485.23,-39.41"/>
<polygon fill="#63b8ff" stroke="#63b8ff" points="486.76,-42.56 494.35,-35.17 483.81,-36.21 486.76,-42.56"/>
</a>
</g>
<g id="a_edge18&#45;headlabel"><a xlink:href="dir_000021_000038.html" target="_top" xlink:title="2">
<text text-anchor="middle" x="484.7" y="-44.15" font-family="Helvetica,sans-Serif" font-size="10.00" fill="#63b8ff">2</text>
</a>
</g>
</g>
<!-- dir_dceb9711b5b3ca19d081938874f6c202&#45;&gt;dir_69cf206f122d9153ac8b30a0f4a917bf -->
<g id="edge19" class="edge">
<title>dir_dceb9711b5b3ca19d081938874f6c202&#45;&gt;dir_69cf206f122d9153ac8b30a0f4a917bf</title>
<g id="a_edge19"><a xlink:href="dir_000021_000005.html" target="_top">
<path fill="none" stroke="#63b8ff" d="M424.64,-70.95C433.55,-68.17 443.65,-65.23 453,-63 521.02,-46.8 541.51,-48.62 613.17,-35.28"/>
<polygon fill="#63b8ff" stroke="#63b8ff" points="613.97,-38.69 623.15,-33.38 612.67,-31.81 613.97,-38.69"/>
</a>
</g>
<g id="a_edge19&#45;headlabel"><a xlink:href="dir_000021_000005.html" target="_top" xlink:title="4">
<text text-anchor="middle" x="610.97" y="-39.65" font-family="Helvetica,sans-Serif" font-size="10.00" fill="#63b8ff">4</text>
</a>
</g>
</g>
<!-- dir_dceb9711b5b3ca19d081938874f6c202&#45;&gt;dir_aeca43db7a276eb6dbfba1f93dc4539c -->
<g id="edge20" class="edge">
<title>dir_dceb9711b5b3ca19d081938874f6c202&#45;&gt;dir_aeca43db7a276eb6dbfba1f93dc4539c</title>
<g id="a_edge20"><a xlink:href="dir_000021_000039.html" target="_top">
<path fill="none" stroke="#63b8ff" d="M423.49,-70.99C432.65,-68.08 443.21,-65.04 453,-63 556.31,-41.45 587.72,-56.18 694.36,-35"/>
<polygon fill="#63b8ff" stroke="#63b8ff" points="695.13,-38.42 704.23,-32.98 693.73,-31.56 695.13,-38.42"/>
</a>
</g>
<g id="a_edge20&#45;headlabel"><a xlink:href="dir_000021_000039.html" target="_top" xlink:title="4">
<text text-anchor="middle" x="692.18" y="-39.42" font-family="Helvetica,sans-Serif" font-size="10.00" fill="#63b8ff">4</text>
</a>
</g>
</g>
</g>
</svg>
