<?xml version="1.0" encoding="UTF-8" standalone="no"?>
<!DOCTYPE svg PUBLIC "-//W3C//DTD SVG 1.1//EN"
 "http://www.w3.org/Graphics/SVG/1.1/DTD/svg11.dtd">
<!-- Generated by graphviz version 2.43.0 (0)
 -->
<!-- Title: Graphical Class Hierarchy Pages: 1 -->
<svg width="324pt" height="123pt"
 viewBox="0.00 0.00 324.00 123.00" xmlns="http://www.w3.org/2000/svg" xmlns:xlink="http://www.w3.org/1999/xlink">
<g id="graph0" class="graph" transform="scale(1 1) rotate(0) translate(4 119)">
<title>Graphical Class Hierarchy</title>
<!-- Node0 -->
<g id="Node000000" class="node">
<title>Node0</title>
<g id="a_Node000000"><a xlink:href="structllvm_1_1CastIsPossible_3_01To_00_01psr_1_1EdgeFunction_3_01L_01_4_01_4.html" target="_top" xlink:title=" ">
<polygon fill="white" stroke="#666666" points="133,-115 2,-115 2,-74 133,-74 133,-115"/>
<text text-anchor="start" x="10" y="-103" font-family="Helvetica,sans-Serif" font-size="10.00">llvm::CastIsPossible</text>
<text text-anchor="start" x="10" y="-92" font-family="Helvetica,sans-Serif" font-size="10.00">&lt; To, psr::EdgeFunction</text>
<text text-anchor="middle" x="67.5" y="-81" font-family="Helvetica,sans-Serif" font-size="10.00">&lt; L &gt; &gt;</text>
</a>
</g>
</g>
<!-- Node1 -->
<g id="Node000001" class="node">
<title>Node1</title>
<g id="a_Node000001"><a xlink:href="structllvm_1_1CastInfo_3_01To_00_01psr_1_1EdgeFunction_3_01L_01_4_01_4.html" target="_top" xlink:title=" ">
<polygon fill="white" stroke="#666666" points="316,-61.5 171,-61.5 171,-31.5 316,-31.5 316,-61.5"/>
<text text-anchor="start" x="179" y="-49.5" font-family="Helvetica,sans-Serif" font-size="10.00">llvm::CastInfo&lt; To,</text>
<text text-anchor="middle" x="243.5" y="-38.5" font-family="Helvetica,sans-Serif" font-size="10.00"> psr::EdgeFunction&lt; L &gt; &gt;</text>
</a>
</g>
</g>
<!-- Node0&#45;&gt;Node1 -->
<g id="edge15_Node000000_Node000001" class="edge">
<title>Node0&#45;&gt;Node1</title>
<g id="a_edge15_Node000000_Node000001"><a xlink:title=" ">
<path fill="none" stroke="#63b8ff" d="M143.09,-73.92C158.14,-69.77 173.7,-65.48 187.92,-61.56"/>
<polygon fill="#63b8ff" stroke="#63b8ff" points="142,-70.59 133.29,-76.63 143.86,-77.34 142,-70.59"/>
</a>
</g>
</g>
<!-- Node2 -->
<g id="Node000002" class="node">
<title>Node2</title>
<g id="a_Node000002"><a xlink:href="classDefaultDoCastIfPossible.html" target="_top" xlink:title=" ">
<polygon fill="white" stroke="#666666" points="135,-56 0,-56 0,-37 135,-37 135,-56"/>
<text text-anchor="middle" x="67.5" y="-44" font-family="Helvetica,sans-Serif" font-size="10.00">DefaultDoCastIfPossible</text>
</a>
</g>
</g>
<!-- Node2&#45;&gt;Node1 -->
<g id="edge16_Node000002_Node000001" class="edge">
<title>Node2&#45;&gt;Node1</title>
<g id="a_edge16_Node000002_Node000001"><a xlink:title=" ">
<path fill="none" stroke="#63b8ff" d="M145.52,-46.5C153.99,-46.5 162.59,-46.5 170.99,-46.5"/>
<polygon fill="#63b8ff" stroke="#63b8ff" points="145.28,-43 135.28,-46.5 145.28,-50 145.28,-43"/>
</a>
</g>
</g>
<!-- Node3 -->
<g id="Node000003" class="node">
<title>Node3</title>
<g id="a_Node000003"><a xlink:href="classNullableValueCastFailed.html" target="_top" xlink:title=" ">
<polygon fill="white" stroke="#666666" points="134.5,-19 0.5,-19 0.5,0 134.5,0 134.5,-19"/>
<text text-anchor="middle" x="67.5" y="-7" font-family="Helvetica,sans-Serif" font-size="10.00">NullableValueCastFailed</text>
</a>
</g>
</g>
<!-- Node3&#45;&gt;Node1 -->
<g id="edge17_Node000003_Node000001" class="edge">
<title>Node3&#45;&gt;Node1</title>
<g id="a_edge17_Node000003_Node000001"><a xlink:title=" ">
<path fill="none" stroke="#63b8ff" d="M123.19,-21.13C138.62,-24.41 155.62,-28.03 171.84,-31.48"/>
<polygon fill="#63b8ff" stroke="#63b8ff" points="123.82,-17.68 113.31,-19.03 122.36,-24.53 123.82,-17.68"/>
</a>
</g>
</g>
</g>
</svg>
