<?xml version="1.0" encoding="UTF-8" standalone="no"?>
<!DOCTYPE svg PUBLIC "-//W3C//DTD SVG 1.1//EN"
 "http://www.w3.org/Graphics/SVG/1.1/DTD/svg11.dtd">
<!-- Generated by graphviz version 2.43.0 (0)
 -->
<!-- Title: Graphical Class Hierarchy Pages: 1 -->
<svg width="285pt" height="86pt"
 viewBox="0.00 0.00 285.00 86.00" xmlns="http://www.w3.org/2000/svg" xmlns:xlink="http://www.w3.org/1999/xlink">
<g id="graph0" class="graph" transform="scale(1 1) rotate(0) translate(4 82)">
<title>Graphical Class Hierarchy</title>
<!-- Node0 -->
<g id="Node000000" class="node">
<title>Node0</title>
<g id="a_Node000000"><a xlink:href="classPTATraits.html" target="_top" xlink:title=" ">
<polygon fill="white" stroke="#666666" points="60,-48.5 0,-48.5 0,-29.5 60,-29.5 60,-48.5"/>
<text text-anchor="middle" x="30" y="-36.5" font-family="Helvetica,sans-Serif" font-size="10.00">PTATraits</text>
</a>
</g>
</g>
<!-- Node1 -->
<g id="Node000001" class="node">
<title>Node1</title>
<g id="a_Node000001"><a xlink:href="structpsr_1_1PointsToTraits_3_01PointsToInfo_3_01PTATraits_01_4_01_4.html" target="_top" xlink:title=" ">
<polygon fill="white" stroke="#666666" points="268.5,-78 104.5,-78 104.5,-48 268.5,-48 268.5,-78"/>
<text text-anchor="start" x="112.5" y="-66" font-family="Helvetica,sans-Serif" font-size="10.00">psr::PointsToTraits</text>
<text text-anchor="middle" x="186.5" y="-55" font-family="Helvetica,sans-Serif" font-size="10.00">&lt; PointsToInfo&lt; PTATraits &gt; &gt;</text>
</a>
</g>
</g>
<!-- Node0&#45;&gt;Node1 -->
<g id="edge315_Node000000_Node000001" class="edge">
<title>Node0&#45;&gt;Node1</title>
<g id="a_edge315_Node000000_Node000001"><a xlink:title=" ">
<path fill="none" stroke="#63b8ff" d="M70.14,-45.08C80.68,-46.72 92.48,-48.55 104.41,-50.4"/>
<polygon fill="#63b8ff" stroke="#63b8ff" points="70.48,-41.59 60.06,-43.51 69.4,-48.51 70.48,-41.59"/>
</a>
</g>
</g>
<!-- Node2 -->
<g id="Node000002" class="node">
<title>Node2</title>
<g id="a_Node000002"><a xlink:href="structpsr_1_1PointsToTraits_3_01PointsToInfoRef_3_01PTATraits_01_4_01_4.html" target="_top" xlink:title=" ">
<polygon fill="white" stroke="#666666" points="277,-30 96,-30 96,0 277,0 277,-30"/>
<text text-anchor="start" x="104" y="-18" font-family="Helvetica,sans-Serif" font-size="10.00">psr::PointsToTraits</text>
<text text-anchor="middle" x="186.5" y="-7" font-family="Helvetica,sans-Serif" font-size="10.00">&lt; PointsToInfoRef&lt; PTATraits &gt; &gt;</text>
</a>
</g>
</g>
<!-- Node0&#45;&gt;Node2 -->
<g id="edge316_Node000000_Node000002" class="edge">
<title>Node0&#45;&gt;Node2</title>
<g id="a_edge316_Node000000_Node000002"><a xlink:title=" ">
<path fill="none" stroke="#63b8ff" d="M70.16,-32.92C78.19,-31.67 86.95,-30.31 95.95,-28.91"/>
<polygon fill="#63b8ff" stroke="#63b8ff" points="69.4,-29.49 60.06,-34.49 70.48,-36.41 69.4,-29.49"/>
</a>
</g>
</g>
</g>
</svg>
