<?xml version="1.0" encoding="UTF-8" standalone="no"?>
<!DOCTYPE svg PUBLIC "-//W3C//DTD SVG 1.1//EN"
 "http://www.w3.org/Graphics/SVG/1.1/DTD/svg11.dtd">
<!-- Generated by graphviz version 2.43.0 (0)
 -->
<!-- Title: Graphical Class Hierarchy Pages: 1 -->
<svg width="300pt" height="220pt"
 viewBox="0.00 0.00 300.00 219.50" xmlns="http://www.w3.org/2000/svg" xmlns:xlink="http://www.w3.org/1999/xlink">
<g id="graph0" class="graph" transform="scale(1 1) rotate(0) translate(4 215.5)">
<title>Graphical Class Hierarchy</title>
<!-- Node0 -->
<g id="Node000000" class="node">
<title>Node0</title>
<g id="a_Node000000"><a xlink:title=" ">
<polygon fill="#e0e0e0" stroke="#999999" points="89,-110 0,-110 0,-91 89,-91 89,-110"/>
<text text-anchor="middle" x="44.5" y="-98" font-family="Helvetica,sans-Serif" font-size="10.00">std::false_type</text>
</a>
</g>
</g>
<!-- Node1 -->
<g id="Node000001" class="node">
<title>Node1</title>
<g id="a_Node000001"><a xlink:href="structpsr_1_1has__getAsJson.html" target="_top" xlink:title=" ">
<polygon fill="white" stroke="#666666" points="262.5,-211.5 154.5,-211.5 154.5,-181.5 262.5,-181.5 262.5,-211.5"/>
<text text-anchor="start" x="162.5" y="-199.5" font-family="Helvetica,sans-Serif" font-size="10.00">psr::has_getAsJson</text>
<text text-anchor="middle" x="208.5" y="-188.5" font-family="Helvetica,sans-Serif" font-size="10.00">&lt; T, Enable &gt;</text>
</a>
</g>
</g>
<!-- Node0&#45;&gt;Node1 -->
<g id="edge314_Node000000_Node000001" class="edge">
<title>Node0&#45;&gt;Node1</title>
<g id="a_edge314_Node000000_Node000001"><a xlink:title=" ">
<path fill="none" stroke="#63b8ff" d="M60.61,-118.17C75.46,-134.49 99.53,-158.27 125,-172.5 133.99,-177.52 144.12,-181.58 154.13,-184.83"/>
<polygon fill="#63b8ff" stroke="#63b8ff" points="62.98,-115.58 53.73,-110.42 57.75,-120.22 62.98,-115.58"/>
</a>
</g>
</g>
<!-- Node2 -->
<g id="Node000002" class="node">
<title>Node2</title>
<g id="a_Node000002"><a xlink:href="structpsr_1_1has__getHashCode.html" target="_top" xlink:title=" ">
<polygon fill="white" stroke="#666666" points="271,-163.5 146,-163.5 146,-133.5 271,-133.5 271,-163.5"/>
<text text-anchor="start" x="154" y="-151.5" font-family="Helvetica,sans-Serif" font-size="10.00">psr::has_getHashCode</text>
<text text-anchor="middle" x="208.5" y="-140.5" font-family="Helvetica,sans-Serif" font-size="10.00">&lt; T, typename &gt;</text>
</a>
</g>
</g>
<!-- Node0&#45;&gt;Node2 -->
<g id="edge315_Node000000_Node000002" class="edge">
<title>Node0&#45;&gt;Node2</title>
<g id="a_edge315_Node000000_Node000002"><a xlink:title=" ">
<path fill="none" stroke="#63b8ff" d="M86.43,-112.94C98.82,-116.68 112.46,-120.78 125,-124.5 134.87,-127.42 145.41,-130.52 155.55,-133.47"/>
<polygon fill="#63b8ff" stroke="#63b8ff" points="87.4,-109.58 76.82,-110.03 85.38,-116.28 87.4,-109.58"/>
</a>
</g>
</g>
<!-- Node3 -->
<g id="Node000003" class="node">
<title>Node3</title>
<g id="a_Node000003"><a xlink:href="structpsr_1_1has__std__hash.html" target="_top" xlink:title=" ">
<polygon fill="white" stroke="#666666" points="264.5,-115.5 152.5,-115.5 152.5,-85.5 264.5,-85.5 264.5,-115.5"/>
<text text-anchor="start" x="160.5" y="-103.5" font-family="Helvetica,sans-Serif" font-size="10.00">psr::has_std_hash&lt;</text>
<text text-anchor="middle" x="208.5" y="-92.5" font-family="Helvetica,sans-Serif" font-size="10.00"> T, typename &gt;</text>
</a>
</g>
</g>
<!-- Node0&#45;&gt;Node3 -->
<g id="edge316_Node000000_Node000003" class="edge">
<title>Node0&#45;&gt;Node3</title>
<g id="a_edge316_Node000000_Node000003"><a xlink:title=" ">
<path fill="none" stroke="#63b8ff" d="M99.63,-100.5C116.58,-100.5 135.3,-100.5 152.31,-100.5"/>
<polygon fill="#63b8ff" stroke="#63b8ff" points="99.34,-97 89.34,-100.5 99.34,-104 99.34,-97"/>
</a>
</g>
</g>
<!-- Node4 -->
<g id="Node000004" class="node">
<title>Node4</title>
<g id="a_Node000004"><a xlink:href="structpsr_1_1is__pathtracingfilter__for.html" target="_top" xlink:title=" ">
<polygon fill="white" stroke="#666666" points="292,-67.5 125,-67.5 125,-37.5 292,-37.5 292,-67.5"/>
<text text-anchor="start" x="133" y="-55.5" font-family="Helvetica,sans-Serif" font-size="10.00">psr::is_pathtracingfilter</text>
<text text-anchor="middle" x="208.5" y="-44.5" font-family="Helvetica,sans-Serif" font-size="10.00">_for&lt; F, NodeRef, typename &gt;</text>
</a>
</g>
</g>
<!-- Node0&#45;&gt;Node4 -->
<g id="edge317_Node000000_Node000004" class="edge">
<title>Node0&#45;&gt;Node4</title>
<g id="a_edge317_Node000000_Node000004"><a xlink:title=" ">
<path fill="none" stroke="#63b8ff" d="M86.43,-88.06C98.82,-84.32 112.46,-80.22 125,-76.5 134.87,-73.58 145.41,-70.48 155.55,-67.53"/>
<polygon fill="#63b8ff" stroke="#63b8ff" points="85.38,-84.72 76.82,-90.97 87.4,-91.42 85.38,-84.72"/>
</a>
</g>
</g>
<!-- Node5 -->
<g id="Node000005" class="node">
<title>Node5</title>
<g id="a_Node000005"><a xlink:href="structpsr_1_1is__variant.html" target="_top" xlink:title=" ">
<polygon fill="white" stroke="#666666" points="265.5,-19 151.5,-19 151.5,0 265.5,0 265.5,-19"/>
<text text-anchor="middle" x="208.5" y="-7" font-family="Helvetica,sans-Serif" font-size="10.00">psr::is_variant&lt; T &gt;</text>
</a>
</g>
</g>
<!-- Node0&#45;&gt;Node5 -->
<g id="edge318_Node000000_Node000005" class="edge">
<title>Node0&#45;&gt;Node5</title>
<g id="a_edge318_Node000000_Node000005"><a xlink:title=" ">
<path fill="none" stroke="#63b8ff" d="M59.96,-83.03C74.63,-66.47 98.85,-42.15 125,-28.5 133.08,-24.28 142.08,-20.99 151.09,-18.43"/>
<polygon fill="#63b8ff" stroke="#63b8ff" points="57.07,-81.03 53.19,-90.89 62.37,-85.59 57.07,-81.03"/>
</a>
</g>
</g>
</g>
</svg>
