<?xml version="1.0" encoding="UTF-8" standalone="no"?>
<!DOCTYPE svg PUBLIC "-//W3C//DTD SVG 1.1//EN"
 "http://www.w3.org/Graphics/SVG/1.1/DTD/svg11.dtd">
<!-- Generated by graphviz version 2.43.0 (0)
 -->
<!-- Title: Graphical Class Hierarchy Pages: 1 -->
<svg width="463pt" height="38pt"
 viewBox="0.00 0.00 463.00 38.00" xmlns="http://www.w3.org/2000/svg" xmlns:xlink="http://www.w3.org/1999/xlink">
<g id="graph0" class="graph" transform="scale(1 1) rotate(0) translate(4 34)">
<title>Graphical Class Hierarchy</title>
<!-- Node0 -->
<g id="Node000000" class="node">
<title>Node0</title>
<g id="a_Node000000"><a xlink:href="classpsr_1_1AnalysisPropertiesMixin.html" target="_top" xlink:title=" ">
<polygon fill="white" stroke="#666666" points="155,-30 0,-30 0,0 155,0 155,-30"/>
<text text-anchor="start" x="8" y="-18" font-family="Helvetica,sans-Serif" font-size="10.00">psr::AnalysisPropertiesMixin</text>
<text text-anchor="middle" x="77.5" y="-7" font-family="Helvetica,sans-Serif" font-size="10.00">&lt; AliasInfoRef&lt; V, N &gt; &gt;</text>
</a>
</g>
</g>
<!-- Node1 -->
<g id="Node000001" class="node">
<title>Node1</title>
<g id="a_Node000001"><a xlink:href="classpsr_1_1AliasInfoRef.html" target="_top" xlink:title="A type&#45;erased reference to any object implementing the IsAliasInfo interface. Use this,...">
<polygon fill="white" stroke="#666666" points="296,-30 191,-30 191,0 296,0 296,-30"/>
<text text-anchor="start" x="199" y="-18" font-family="Helvetica,sans-Serif" font-size="10.00">psr::AliasInfoRef&lt;</text>
<text text-anchor="middle" x="243.5" y="-7" font-family="Helvetica,sans-Serif" font-size="10.00"> V, N &gt;</text>
</a>
</g>
</g>
<!-- Node0&#45;&gt;Node1 -->
<g id="edge157_Node000000_Node000001" class="edge">
<title>Node0&#45;&gt;Node1</title>
<g id="a_edge157_Node000000_Node000001"><a xlink:title=" ">
<path fill="none" stroke="#63b8ff" d="M165.36,-15C173.99,-15 182.55,-15 190.65,-15"/>
<polygon fill="#63b8ff" stroke="#63b8ff" points="165.22,-11.5 155.22,-15 165.22,-18.5 165.22,-11.5"/>
</a>
</g>
</g>
<!-- Node2 -->
<g id="Node000002" class="node">
<title>Node2</title>
<g id="a_Node000002"><a xlink:href="classpsr_1_1AliasInfo.html" target="_top" xlink:title="Similar to AliasInfoRef, but exclusively owns the held reference. Use this, if you need to decide dyn...">
<polygon fill="white" stroke="#666666" points="455,-24.5 332,-24.5 332,-5.5 455,-5.5 455,-24.5"/>
<text text-anchor="middle" x="393.5" y="-12.5" font-family="Helvetica,sans-Serif" font-size="10.00">psr::AliasInfo&lt; V, N &gt;</text>
</a>
</g>
</g>
<!-- Node1&#45;&gt;Node2 -->
<g id="edge158_Node000001_Node000002" class="edge">
<title>Node1&#45;&gt;Node2</title>
<g id="a_edge158_Node000001_Node000002"><a xlink:title=" ">
<path fill="none" stroke="#63b8ff" d="M306.41,-15C314.83,-15 323.48,-15 331.88,-15"/>
<polygon fill="#63b8ff" stroke="#63b8ff" points="306.26,-11.5 296.26,-15 306.26,-18.5 306.26,-11.5"/>
</a>
</g>
</g>
</g>
</svg>
