<?xml version="1.0" encoding="UTF-8" standalone="no"?>
<!DOCTYPE svg PUBLIC "-//W3C//DTD SVG 1.1//EN"
 "http://www.w3.org/Graphics/SVG/1.1/DTD/svg11.dtd">
<!-- Generated by graphviz version 2.43.0 (0)
 -->
<!-- Title: Graphical Class Hierarchy Pages: 1 -->
<svg width="298pt" height="308pt"
 viewBox="0.00 0.00 298.00 308.00" xmlns="http://www.w3.org/2000/svg" xmlns:xlink="http://www.w3.org/1999/xlink">
<g id="graph0" class="graph" transform="scale(1 1) rotate(0) translate(4 304)">
<title>Graphical Class Hierarchy</title>
<!-- Node0 -->
<g id="Node000000" class="node">
<title>Node0</title>
<g id="a_Node000000"><a xlink:title=" ">
<polygon fill="#e0e0e0" stroke="#999999" points="84,-153.5 0,-153.5 0,-134.5 84,-134.5 84,-153.5"/>
<text text-anchor="middle" x="42" y="-141.5" font-family="Helvetica,sans-Serif" font-size="10.00">std::true_type</text>
</a>
</g>
</g>
<!-- Node1 -->
<g id="Node000001" class="node">
<title>Node1</title>
<g id="a_Node000001"><a xlink:href="structpsr_1_1has__getAsJson_3_01T_00_01std_1_1void__t_3_01decltype_07std_1_1declval_3_01const_0104be425445e633405856f6f045939da7.html" target="_top" xlink:title=" ">
<polygon fill="white" stroke="#666666" points="277,-300 133,-300 133,-248 277,-248 277,-300"/>
<text text-anchor="start" x="141" y="-288" font-family="Helvetica,sans-Serif" font-size="10.00">psr::has_getAsJson</text>
<text text-anchor="start" x="141" y="-277" font-family="Helvetica,sans-Serif" font-size="10.00">&lt; T, std::void_t&lt; decltype</text>
<text text-anchor="start" x="141" y="-266" font-family="Helvetica,sans-Serif" font-size="10.00">(std::declval&lt; const T &gt;</text>
<text text-anchor="middle" x="205" y="-255" font-family="Helvetica,sans-Serif" font-size="10.00">() .getAsJson())&gt; &gt;</text>
</a>
</g>
</g>
<!-- Node0&#45;&gt;Node1 -->
<g id="edge319_Node000000_Node000001" class="edge">
<title>Node0&#45;&gt;Node1</title>
<g id="a_edge319_Node000000_Node000001"><a xlink:title=" ">
<path fill="none" stroke="#63b8ff" d="M53.86,-162.3C67.14,-183.3 91.4,-217.61 120,-239 124.3,-242.22 128.94,-245.2 133.76,-247.95"/>
<polygon fill="#63b8ff" stroke="#63b8ff" points="56.78,-160.36 48.56,-153.68 50.82,-164.03 56.78,-160.36"/>
</a>
</g>
</g>
<!-- Node2 -->
<g id="Node000002" class="node">
<title>Node2</title>
<g id="a_Node000002"><a xlink:href="structpsr_1_1has__getHashCode_3_01T_00_01decltype_07std_1_1declval_3_01const_01T_01_4_07_08_8getHashCode_07_08_08_4.html" target="_top" xlink:title=" ">
<polygon fill="white" stroke="#666666" points="290,-229.5 120,-229.5 120,-188.5 290,-188.5 290,-229.5"/>
<text text-anchor="start" x="128" y="-217.5" font-family="Helvetica,sans-Serif" font-size="10.00">psr::has_getHashCode</text>
<text text-anchor="start" x="128" y="-206.5" font-family="Helvetica,sans-Serif" font-size="10.00">&lt; T, decltype(std::declval</text>
<text text-anchor="middle" x="205" y="-195.5" font-family="Helvetica,sans-Serif" font-size="10.00">&lt; const T &gt;().getHashCode())&gt;</text>
</a>
</g>
</g>
<!-- Node0&#45;&gt;Node2 -->
<g id="edge320_Node000000_Node000002" class="edge">
<title>Node0&#45;&gt;Node2</title>
<g id="a_edge320_Node000000_Node000002"><a xlink:title=" ">
<path fill="none" stroke="#63b8ff" d="M72.07,-157.91C86.38,-164.58 103.97,-172.51 120,-179 127.89,-182.2 136.27,-185.41 144.57,-188.47"/>
<polygon fill="#63b8ff" stroke="#63b8ff" points="73.28,-154.61 62.74,-153.53 70.31,-160.95 73.28,-154.61"/>
</a>
</g>
</g>
<!-- Node3 -->
<g id="Node000003" class="node">
<title>Node3</title>
<g id="a_Node000003"><a xlink:href="structpsr_1_1has__std__hash_3_01T_00_01decltype_07std_1_1hash_3_01T_01_4_02_03_07std_1_1declval_3_01const_01T_01_4_08_08_4.html" target="_top" xlink:title=" ">
<polygon fill="white" stroke="#666666" points="267.5,-170 142.5,-170 142.5,-118 267.5,-118 267.5,-170"/>
<text text-anchor="start" x="150.5" y="-158" font-family="Helvetica,sans-Serif" font-size="10.00">psr::has_std_hash&lt;</text>
<text text-anchor="start" x="150.5" y="-147" font-family="Helvetica,sans-Serif" font-size="10.00"> T, decltype(std::hash</text>
<text text-anchor="start" x="150.5" y="-136" font-family="Helvetica,sans-Serif" font-size="10.00">&lt; T &gt;{}(std::declval&lt;</text>
<text text-anchor="middle" x="205" y="-125" font-family="Helvetica,sans-Serif" font-size="10.00"> const T &gt;))&gt;</text>
</a>
</g>
</g>
<!-- Node0&#45;&gt;Node3 -->
<g id="edge321_Node000000_Node000003" class="edge">
<title>Node0&#45;&gt;Node3</title>
<g id="a_edge321_Node000000_Node000003"><a xlink:title=" ">
<path fill="none" stroke="#63b8ff" d="M94.32,-144C109.6,-144 126.49,-144 142.34,-144"/>
<polygon fill="#63b8ff" stroke="#63b8ff" points="94.04,-140.5 84.04,-144 94.04,-147.5 94.04,-140.5"/>
</a>
</g>
</g>
<!-- Node4 -->
<g id="Node000004" class="node">
<title>Node4</title>
<g id="a_Node000004"><a xlink:href="structpsr_1_1is__pathtracingfilter__for_3_01PathTracingFilter_3_01EndFilter_00_01ErrFilter_01_4_00_01NodeRef_01_4.html" target="_top" xlink:title=" ">
<polygon fill="white" stroke="#666666" points="269.5,-100 140.5,-100 140.5,-48 269.5,-48 269.5,-100"/>
<text text-anchor="start" x="148.5" y="-88" font-family="Helvetica,sans-Serif" font-size="10.00">psr::is_pathtracingfilter</text>
<text text-anchor="start" x="148.5" y="-77" font-family="Helvetica,sans-Serif" font-size="10.00">_for&lt; PathTracingFilter</text>
<text text-anchor="start" x="148.5" y="-66" font-family="Helvetica,sans-Serif" font-size="10.00">&lt; EndFilter, ErrFilter &gt;</text>
<text text-anchor="middle" x="205" y="-55" font-family="Helvetica,sans-Serif" font-size="10.00">, NodeRef &gt;</text>
</a>
</g>
</g>
<!-- Node0&#45;&gt;Node4 -->
<g id="edge322_Node000000_Node000004" class="edge">
<title>Node0&#45;&gt;Node4</title>
<g id="a_edge322_Node000000_Node000004"><a xlink:title=" ">
<path fill="none" stroke="#63b8ff" d="M72.82,-130.18C87.05,-123.65 104.36,-115.81 120,-109 126.66,-106.1 133.64,-103.11 140.61,-100.16"/>
<polygon fill="#63b8ff" stroke="#63b8ff" points="71.13,-127.1 63.51,-134.46 74.06,-133.46 71.13,-127.1"/>
</a>
</g>
</g>
<!-- Node5 -->
<g id="Node000005" class="node">
<title>Node5</title>
<g id="a_Node000005"><a xlink:href="structpsr_1_1is__variant_3_01std_1_1variant_3_01Args_8_8_8_01_4_01_4.html" target="_top" xlink:title=" ">
<polygon fill="white" stroke="#666666" points="266,-30 144,-30 144,0 266,0 266,-30"/>
<text text-anchor="start" x="152" y="-18" font-family="Helvetica,sans-Serif" font-size="10.00">psr::is_variant&lt; std</text>
<text text-anchor="middle" x="205" y="-7" font-family="Helvetica,sans-Serif" font-size="10.00">::variant&lt; Args... &gt; &gt;</text>
</a>
</g>
</g>
<!-- Node0&#45;&gt;Node5 -->
<g id="edge323_Node000000_Node000005" class="edge">
<title>Node0&#45;&gt;Node5</title>
<g id="a_edge323_Node000000_Node000005"><a xlink:title=" ">
<path fill="none" stroke="#63b8ff" d="M51.86,-125.19C63.95,-101.56 87.86,-61.38 120,-39 127.22,-33.97 135.48,-29.99 143.94,-26.84"/>
<polygon fill="#63b8ff" stroke="#63b8ff" points="48.7,-123.69 47.41,-134.21 54.97,-126.79 48.7,-123.69"/>
</a>
</g>
</g>
</g>
</svg>
