<?xml version="1.0" encoding="UTF-8" standalone="no"?>
<!DOCTYPE svg PUBLIC "-//W3C//DTD SVG 1.1//EN"
 "http://www.w3.org/Graphics/SVG/1.1/DTD/svg11.dtd">
<!-- Generated by graphviz version 2.43.0 (0)
 -->
<!-- Title: Graphical Class Hierarchy Pages: 1 -->
<svg width="446pt" height="1278pt"
 viewBox="0.00 0.00 446.00 1278.00" xmlns="http://www.w3.org/2000/svg" xmlns:xlink="http://www.w3.org/1999/xlink">
<g id="graph0" class="graph" transform="scale(1 1) rotate(0) translate(4 1274)">
<title>Graphical Class Hierarchy</title>
<!-- Node0 -->
<g id="Node000000" class="node">
<title>Node0</title>
<g id="a_Node000000"><a xlink:title=" ">
<polygon fill="#e0e0e0" stroke="#999999" points="176,-611 0,-611 0,-581 176,-581 176,-611"/>
<text text-anchor="start" x="8" y="-599" font-family="Helvetica,sans-Serif" font-size="10.00">psr::detail::MaybeUnique</text>
<text text-anchor="middle" x="88" y="-588" font-family="Helvetica,sans-Serif" font-size="10.00">PtrBase&lt; T, RequireAlignment &gt;</text>
</a>
</g>
</g>
<!-- Node1 -->
<g id="Node000001" class="node">
<title>Node1</title>
<g id="a_Node000001"><a xlink:href="classpsr_1_1MaybeUniquePtr.html" target="_top" xlink:title=" ">
<polygon fill="white" stroke="#666666" points="426.5,-1270 223.5,-1270 223.5,-1218 426.5,-1218 426.5,-1270"/>
<text text-anchor="start" x="231.5" y="-1258" font-family="Helvetica,sans-Serif" font-size="10.00">psr::MaybeUniquePtr</text>
<text text-anchor="start" x="231.5" y="-1247" font-family="Helvetica,sans-Serif" font-size="10.00">&lt; psr::AnalysisPrinterBase</text>
<text text-anchor="start" x="231.5" y="-1236" font-family="Helvetica,sans-Serif" font-size="10.00">&lt; WithBinaryValueDomain</text>
<text text-anchor="middle" x="325" y="-1225" font-family="Helvetica,sans-Serif" font-size="10.00">&lt; LLVMAnalysisDomainDefault &gt; &gt; &gt;</text>
</a>
</g>
</g>
<!-- Node0&#45;&gt;Node1 -->
<g id="edge218_Node000000_Node000001" class="edge">
<title>Node0&#45;&gt;Node1</title>
<g id="a_edge218_Node000000_Node000001"><a xlink:title=" ">
<path fill="none" stroke="#8b1a1a" d="M90.7,-621.29C98.19,-725.39 131.51,-1119.59 212,-1209 215.41,-1212.79 219.22,-1216.16 223.32,-1219.18"/>
<polygon fill="#8b1a1a" stroke="#8b1a1a" points="94.18,-620.82 89.98,-611.09 87.19,-621.31 94.18,-620.82"/>
</a>
</g>
</g>
<!-- Node2 -->
<g id="Node000002" class="node">
<title>Node2</title>
<g id="a_Node000002"><a xlink:href="classpsr_1_1MaybeUniquePtr.html" target="_top" xlink:title=" ">
<polygon fill="white" stroke="#666666" points="438,-1200 212,-1200 212,-1148 438,-1148 438,-1200"/>
<text text-anchor="start" x="220" y="-1188" font-family="Helvetica,sans-Serif" font-size="10.00">psr::MaybeUniquePtr</text>
<text text-anchor="start" x="220" y="-1177" font-family="Helvetica,sans-Serif" font-size="10.00">&lt; psr::AnalysisPrinterBase</text>
<text text-anchor="start" x="220" y="-1166" font-family="Helvetica,sans-Serif" font-size="10.00">&lt; WithBinaryValueDomain</text>
<text text-anchor="middle" x="325" y="-1155" font-family="Helvetica,sans-Serif" font-size="10.00">&lt; LLVMIFDSAnalysisDomainDefault &gt; &gt; &gt;</text>
</a>
</g>
</g>
<!-- Node0&#45;&gt;Node2 -->
<g id="edge219_Node000000_Node000002" class="edge">
<title>Node0&#45;&gt;Node2</title>
<g id="a_edge219_Node000000_Node000002"><a xlink:title=" ">
<path fill="none" stroke="#8b1a1a" d="M91.4,-621.16C101.04,-717.45 140.04,-1061.03 212,-1139 215.04,-1142.29 218.38,-1145.28 221.96,-1147.99"/>
<polygon fill="#8b1a1a" stroke="#8b1a1a" points="94.87,-620.77 90.41,-611.16 87.91,-621.46 94.87,-620.77"/>
</a>
</g>
</g>
<!-- Node3 -->
<g id="Node000003" class="node">
<title>Node3</title>
<g id="a_Node000003"><a xlink:href="classpsr_1_1MaybeUniquePtr.html" target="_top" xlink:title=" ">
<polygon fill="white" stroke="#666666" points="428,-1129.5 222,-1129.5 222,-1088.5 428,-1088.5 428,-1129.5"/>
<text text-anchor="start" x="230" y="-1117.5" font-family="Helvetica,sans-Serif" font-size="10.00">psr::MaybeUniquePtr</text>
<text text-anchor="start" x="230" y="-1106.5" font-family="Helvetica,sans-Serif" font-size="10.00">&lt; psr::AnalysisPrinterBase</text>
<text text-anchor="middle" x="325" y="-1095.5" font-family="Helvetica,sans-Serif" font-size="10.00">&lt; IDEFeatureTaintAnalysisDomain &gt; &gt;</text>
</a>
</g>
</g>
<!-- Node0&#45;&gt;Node3 -->
<g id="edge220_Node000000_Node000003" class="edge">
<title>Node0&#45;&gt;Node3</title>
<g id="a_edge220_Node000000_Node000003"><a xlink:title=" ">
<path fill="none" stroke="#8b1a1a" d="M92.01,-621.1C103.23,-710.72 145.5,-1013.2 212,-1080 215.12,-1083.13 218.53,-1085.94 222.15,-1088.46"/>
<polygon fill="#8b1a1a" stroke="#8b1a1a" points="95.46,-620.52 90.76,-611.03 88.51,-621.38 95.46,-620.52"/>
</a>
</g>
</g>
<!-- Node4 -->
<g id="Node000004" class="node">
<title>Node4</title>
<g id="a_Node000004"><a xlink:href="classpsr_1_1MaybeUniquePtr.html" target="_top" xlink:title=" ">
<polygon fill="white" stroke="#666666" points="416,-1070.5 234,-1070.5 234,-1029.5 416,-1029.5 416,-1070.5"/>
<text text-anchor="start" x="242" y="-1058.5" font-family="Helvetica,sans-Serif" font-size="10.00">psr::MaybeUniquePtr</text>
<text text-anchor="start" x="242" y="-1047.5" font-family="Helvetica,sans-Serif" font-size="10.00">&lt; psr::AnalysisPrinterBase</text>
<text text-anchor="middle" x="325" y="-1036.5" font-family="Helvetica,sans-Serif" font-size="10.00">&lt; IDEGeneralizedLCADomain &gt; &gt;</text>
</a>
</g>
</g>
<!-- Node0&#45;&gt;Node4 -->
<g id="edge221_Node000000_Node000004" class="edge">
<title>Node0&#45;&gt;Node4</title>
<g id="a_edge221_Node000000_Node000004"><a xlink:title=" ">
<path fill="none" stroke="#8b1a1a" d="M88.35,-621.52C87.93,-694.75 97.16,-907.51 212,-1020 218.33,-1026.2 225.79,-1031.15 233.81,-1035.11"/>
<polygon fill="#8b1a1a" stroke="#8b1a1a" points="91.85,-621.42 88.47,-611.38 84.85,-621.33 91.85,-621.42"/>
</a>
</g>
</g>
<!-- Node5 -->
<g id="Node000005" class="node">
<title>Node5</title>
<g id="a_Node000005"><a xlink:href="classpsr_1_1MaybeUniquePtr.html" target="_top" xlink:title=" ">
<polygon fill="white" stroke="#666666" points="422,-1011 228,-1011 228,-959 422,-959 422,-1011"/>
<text text-anchor="start" x="236" y="-999" font-family="Helvetica,sans-Serif" font-size="10.00">psr::MaybeUniquePtr</text>
<text text-anchor="start" x="236" y="-988" font-family="Helvetica,sans-Serif" font-size="10.00">&lt; psr::AnalysisPrinterBase</text>
<text text-anchor="start" x="236" y="-977" font-family="Helvetica,sans-Serif" font-size="10.00">&lt; IDEInstInteractionAnalysisDomain</text>
<text text-anchor="middle" x="325" y="-966" font-family="Helvetica,sans-Serif" font-size="10.00">&lt; std::string &gt; &gt; &gt;</text>
</a>
</g>
</g>
<!-- Node0&#45;&gt;Node5 -->
<g id="edge222_Node000000_Node000005" class="edge">
<title>Node0&#45;&gt;Node5</title>
<g id="a_edge222_Node000000_Node000005"><a xlink:title=" ">
<path fill="none" stroke="#8b1a1a" d="M90.29,-621.37C94.93,-685.79 116.15,-857.13 212,-950 216.75,-954.61 222.11,-958.61 227.83,-962.08"/>
<polygon fill="#8b1a1a" stroke="#8b1a1a" points="93.77,-621.06 89.63,-611.3 86.79,-621.51 93.77,-621.06"/>
</a>
</g>
</g>
<!-- Node6 -->
<g id="Node000006" class="node">
<title>Node6</title>
<g id="a_Node000006"><a xlink:href="classpsr_1_1MaybeUniquePtr.html" target="_top" xlink:title=" ">
<polygon fill="white" stroke="#666666" points="435,-940.5 215,-940.5 215,-899.5 435,-899.5 435,-940.5"/>
<text text-anchor="start" x="223" y="-928.5" font-family="Helvetica,sans-Serif" font-size="10.00">psr::MaybeUniquePtr</text>
<text text-anchor="start" x="223" y="-917.5" font-family="Helvetica,sans-Serif" font-size="10.00">&lt; psr::AnalysisPrinterBase</text>
<text text-anchor="middle" x="325" y="-906.5" font-family="Helvetica,sans-Serif" font-size="10.00">&lt; IDELinearConstantAnalysisDomain &gt; &gt;</text>
</a>
</g>
</g>
<!-- Node0&#45;&gt;Node6 -->
<g id="edge223_Node000000_Node000006" class="edge">
<title>Node0&#45;&gt;Node6</title>
<g id="a_edge223_Node000000_Node000006"><a xlink:title=" ">
<path fill="none" stroke="#8b1a1a" d="M91.98,-621.24C100.09,-678.33 127.93,-818.07 212,-891 215.64,-894.16 219.58,-896.98 223.74,-899.5"/>
<polygon fill="#8b1a1a" stroke="#8b1a1a" points="95.44,-620.72 90.65,-611.27 88.5,-621.65 95.44,-620.72"/>
</a>
</g>
</g>
<!-- Node7 -->
<g id="Node000007" class="node">
<title>Node7</title>
<g id="a_Node000007"><a xlink:href="classpsr_1_1MaybeUniquePtr.html" target="_top" xlink:title=" ">
<polygon fill="white" stroke="#666666" points="411,-881.5 239,-881.5 239,-840.5 411,-840.5 411,-881.5"/>
<text text-anchor="start" x="247" y="-869.5" font-family="Helvetica,sans-Serif" font-size="10.00">psr::MaybeUniquePtr</text>
<text text-anchor="start" x="247" y="-858.5" font-family="Helvetica,sans-Serif" font-size="10.00">&lt; psr::AnalysisPrinterBase</text>
<text text-anchor="middle" x="325" y="-847.5" font-family="Helvetica,sans-Serif" font-size="10.00">&lt; IDEProtoAnalysisDomain &gt; &gt;</text>
</a>
</g>
</g>
<!-- Node0&#45;&gt;Node7 -->
<g id="edge224_Node000000_Node000007" class="edge">
<title>Node0&#45;&gt;Node7</title>
<g id="a_edge224_Node000000_Node000007"><a xlink:title=" ">
<path fill="none" stroke="#8b1a1a" d="M94.91,-620.97C107.64,-669.17 142.32,-775.21 212,-831 220.01,-837.42 229.28,-842.47 238.98,-846.44"/>
<polygon fill="#8b1a1a" stroke="#8b1a1a" points="98.25,-619.9 92.39,-611.07 91.47,-621.63 98.25,-619.9"/>
</a>
</g>
</g>
<!-- Node8 -->
<g id="Node000008" class="node">
<title>Node8</title>
<g id="a_Node000008"><a xlink:href="classpsr_1_1MaybeUniquePtr.html" target="_top" xlink:title=" ">
<polygon fill="white" stroke="#666666" points="426.5,-822 223.5,-822 223.5,-770 426.5,-770 426.5,-822"/>
<text text-anchor="start" x="231.5" y="-810" font-family="Helvetica,sans-Serif" font-size="10.00">psr::MaybeUniquePtr</text>
<text text-anchor="start" x="231.5" y="-799" font-family="Helvetica,sans-Serif" font-size="10.00">&lt; psr::AnalysisPrinterBase</text>
<text text-anchor="start" x="231.5" y="-788" font-family="Helvetica,sans-Serif" font-size="10.00">&lt; IDESecureHeapPropagationAnalysis</text>
<text text-anchor="middle" x="325" y="-777" font-family="Helvetica,sans-Serif" font-size="10.00">Domain &gt; &gt;</text>
</a>
</g>
</g>
<!-- Node0&#45;&gt;Node8 -->
<g id="edge225_Node000000_Node000008" class="edge">
<title>Node0&#45;&gt;Node8</title>
<g id="a_edge225_Node000000_Node000008"><a xlink:title=" ">
<path fill="none" stroke="#8b1a1a" d="M100.9,-620.57C119.6,-656.62 159.24,-723.61 212,-761 216.57,-764.24 221.45,-767.19 226.52,-769.87"/>
<polygon fill="#8b1a1a" stroke="#8b1a1a" points="103.84,-618.61 96.19,-611.27 97.59,-621.77 103.84,-618.61"/>
</a>
</g>
</g>
<!-- Node9 -->
<g id="Node000009" class="node">
<title>Node9</title>
<g id="a_Node000009"><a xlink:href="classpsr_1_1MaybeUniquePtr.html" target="_top" xlink:title=" ">
<polygon fill="white" stroke="#666666" points="423.5,-751.5 226.5,-751.5 226.5,-710.5 423.5,-710.5 423.5,-751.5"/>
<text text-anchor="start" x="234.5" y="-739.5" font-family="Helvetica,sans-Serif" font-size="10.00">psr::MaybeUniquePtr</text>
<text text-anchor="start" x="234.5" y="-728.5" font-family="Helvetica,sans-Serif" font-size="10.00">&lt; psr::AnalysisPrinterBase</text>
<text text-anchor="middle" x="325" y="-717.5" font-family="Helvetica,sans-Serif" font-size="10.00">&lt; IDESolverTestAnalysisDomain &gt; &gt;</text>
</a>
</g>
</g>
<!-- Node0&#45;&gt;Node9 -->
<g id="edge226_Node000000_Node000009" class="edge">
<title>Node0&#45;&gt;Node9</title>
<g id="a_edge226_Node000000_Node000009"><a xlink:title=" ">
<path fill="none" stroke="#8b1a1a" d="M109.65,-618.84C132.46,-642.72 171.37,-679.63 212,-701 218.68,-704.51 225.81,-707.64 233.11,-710.42"/>
<polygon fill="#8b1a1a" stroke="#8b1a1a" points="111.95,-616.18 102.55,-611.29 106.85,-620.97 111.95,-616.18"/>
</a>
</g>
</g>
<!-- Node10 -->
<g id="Node000010" class="node">
<title>Node10</title>
<g id="a_Node000010"><a xlink:href="classpsr_1_1MaybeUniquePtr.html" target="_top" xlink:title=" ">
<polygon fill="white" stroke="#666666" points="413,-692 237,-692 237,-640 413,-640 413,-692"/>
<text text-anchor="start" x="245" y="-680" font-family="Helvetica,sans-Serif" font-size="10.00">psr::MaybeUniquePtr</text>
<text text-anchor="start" x="245" y="-669" font-family="Helvetica,sans-Serif" font-size="10.00">&lt; psr::AnalysisPrinterBase</text>
<text text-anchor="start" x="245" y="-658" font-family="Helvetica,sans-Serif" font-size="10.00">&lt; IDETypeStateAnalysisDomain</text>
<text text-anchor="middle" x="325" y="-647" font-family="Helvetica,sans-Serif" font-size="10.00">&lt; TypeStateDescriptionTy &gt; &gt; &gt;</text>
</a>
</g>
</g>
<!-- Node0&#45;&gt;Node10 -->
<g id="edge227_Node000000_Node000010" class="edge">
<title>Node0&#45;&gt;Node10</title>
<g id="a_edge227_Node000000_Node000010"><a xlink:title=" ">
<path fill="none" stroke="#8b1a1a" d="M149.32,-613.97C175.88,-621.88 207.59,-631.32 236.66,-639.98"/>
<polygon fill="#8b1a1a" stroke="#8b1a1a" points="150,-610.52 139.41,-611.02 148,-617.23 150,-610.52"/>
</a>
</g>
</g>
<!-- Node11 -->
<g id="Node000011" class="node">
<title>Node11</title>
<g id="a_Node000011"><a xlink:href="classpsr_1_1MaybeUniquePtr.html" target="_top" xlink:title=" ">
<polygon fill="white" stroke="#666666" points="401,-622 249,-622 249,-570 401,-570 401,-622"/>
<text text-anchor="start" x="257" y="-610" font-family="Helvetica,sans-Serif" font-size="10.00">psr::MaybeUniquePtr</text>
<text text-anchor="start" x="257" y="-599" font-family="Helvetica,sans-Serif" font-size="10.00">&lt; psr::AnalysisPrinterBase</text>
<text text-anchor="start" x="257" y="-588" font-family="Helvetica,sans-Serif" font-size="10.00">&lt; WithBinaryValueDomain</text>
<text text-anchor="middle" x="325" y="-577" font-family="Helvetica,sans-Serif" font-size="10.00">&lt; AnalysisDomainTy &gt; &gt; &gt;</text>
</a>
</g>
</g>
<!-- Node0&#45;&gt;Node11 -->
<g id="edge228_Node000000_Node000011" class="edge">
<title>Node0&#45;&gt;Node11</title>
<g id="a_edge228_Node000000_Node000011"><a xlink:title=" ">
<path fill="none" stroke="#8b1a1a" d="M186.35,-596C207.25,-596 229.03,-596 248.94,-596"/>
<polygon fill="#8b1a1a" stroke="#8b1a1a" points="186.17,-592.5 176.17,-596 186.17,-599.5 186.17,-592.5"/>
</a>
</g>
</g>
<!-- Node12 -->
<g id="Node000012" class="node">
<title>Node12</title>
<g id="a_Node000012"><a xlink:href="classpsr_1_1MaybeUniquePtr.html" target="_top" xlink:title=" ">
<polygon fill="white" stroke="#666666" points="398,-551.5 252,-551.5 252,-510.5 398,-510.5 398,-551.5"/>
<text text-anchor="start" x="260" y="-539.5" font-family="Helvetica,sans-Serif" font-size="10.00">psr::MaybeUniquePtr</text>
<text text-anchor="start" x="260" y="-528.5" font-family="Helvetica,sans-Serif" font-size="10.00">&lt; psr::AnalysisPrinterBase</text>
<text text-anchor="middle" x="325" y="-517.5" font-family="Helvetica,sans-Serif" font-size="10.00">&lt; AnalysisDomainTy &gt; &gt;</text>
</a>
</g>
</g>
<!-- Node0&#45;&gt;Node12 -->
<g id="edge229_Node000000_Node000012" class="edge">
<title>Node0&#45;&gt;Node12</title>
<g id="a_edge229_Node000000_Node000012"><a xlink:title=" ">
<path fill="none" stroke="#8b1a1a" d="M151,-578.15C170.51,-572.6 192.14,-566.49 212,-561 224.9,-557.44 238.66,-553.7 251.96,-550.12"/>
<polygon fill="#8b1a1a" stroke="#8b1a1a" points="149.97,-574.81 141.32,-580.92 151.9,-581.54 149.97,-574.81"/>
</a>
</g>
</g>
<!-- Node13 -->
<g id="Node000013" class="node">
<title>Node13</title>
<g id="a_Node000013"><a xlink:href="classpsr_1_1MaybeUniquePtr.html" target="_top" xlink:title=" ">
<polygon fill="white" stroke="#666666" points="432.5,-492.5 217.5,-492.5 217.5,-451.5 432.5,-451.5 432.5,-492.5"/>
<text text-anchor="start" x="225.5" y="-480.5" font-family="Helvetica,sans-Serif" font-size="10.00">psr::MaybeUniquePtr</text>
<text text-anchor="start" x="225.5" y="-469.5" font-family="Helvetica,sans-Serif" font-size="10.00">&lt; psr::AnalysisPrinterBase</text>
<text text-anchor="middle" x="325" y="-458.5" font-family="Helvetica,sans-Serif" font-size="10.00">&lt; IDEExtendedTaintAnalysisDomain &gt; &gt;</text>
</a>
</g>
</g>
<!-- Node0&#45;&gt;Node13 -->
<g id="edge230_Node000000_Node000013" class="edge">
<title>Node0&#45;&gt;Node13</title>
<g id="a_edge230_Node000000_Node000013"><a xlink:title=" ">
<path fill="none" stroke="#8b1a1a" d="M112.07,-573.87C135.48,-552.56 173.65,-520.86 212,-502 219.13,-498.49 226.73,-495.35 234.49,-492.55"/>
<polygon fill="#8b1a1a" stroke="#8b1a1a" points="109.68,-571.31 104.72,-580.67 114.44,-576.45 109.68,-571.31"/>
</a>
</g>
</g>
<!-- Node14 -->
<g id="Node000014" class="node">
<title>Node14</title>
<g id="a_Node000014"><a xlink:href="classpsr_1_1MaybeUniquePtr.html" target="_top" xlink:title=" ">
<polygon fill="white" stroke="#666666" points="420.5,-433.5 229.5,-433.5 229.5,-392.5 420.5,-392.5 420.5,-433.5"/>
<text text-anchor="start" x="237.5" y="-421.5" font-family="Helvetica,sans-Serif" font-size="10.00">psr::MaybeUniquePtr</text>
<text text-anchor="start" x="237.5" y="-410.5" font-family="Helvetica,sans-Serif" font-size="10.00">&lt; const psr::DIBasedTypeHierarchy,</text>
<text text-anchor="middle" x="325" y="-399.5" font-family="Helvetica,sans-Serif" font-size="10.00"> true &gt;</text>
</a>
</g>
</g>
<!-- Node0&#45;&gt;Node14 -->
<g id="edge231_Node000000_Node000014" class="edge">
<title>Node0&#45;&gt;Node14</title>
<g id="a_edge231_Node000000_Node000014"><a xlink:title=" ">
<path fill="none" stroke="#8b1a1a" d="M101.77,-571.93C121.05,-537.95 160.85,-476.34 212,-443 217.48,-439.43 223.37,-436.28 229.49,-433.5"/>
<polygon fill="#8b1a1a" stroke="#8b1a1a" points="98.67,-570.3 96.88,-580.74 104.79,-573.69 98.67,-570.3"/>
</a>
</g>
</g>
<!-- Node15 -->
<g id="Node000015" class="node">
<title>Node15</title>
<g id="a_Node000015"><a xlink:href="classpsr_1_1MaybeUniquePtr.html" target="_top" xlink:title=" ">
<polygon fill="white" stroke="#666666" points="384.5,-374 265.5,-374 265.5,-344 384.5,-344 384.5,-374"/>
<text text-anchor="start" x="273.5" y="-362" font-family="Helvetica,sans-Serif" font-size="10.00">psr::MaybeUniquePtr</text>
<text text-anchor="middle" x="325" y="-351" font-family="Helvetica,sans-Serif" font-size="10.00">&lt; z3::context &gt;</text>
</a>
</g>
</g>
<!-- Node0&#45;&gt;Node15 -->
<g id="edge232_Node000000_Node000015" class="edge">
<title>Node0&#45;&gt;Node15</title>
<g id="a_edge232_Node000000_Node000015"><a xlink:title=" ">
<path fill="none" stroke="#8b1a1a" d="M96.15,-571.03C110.35,-526.12 146.54,-431.96 212,-384 227.35,-372.75 246.83,-366.42 265.23,-362.9"/>
<polygon fill="#8b1a1a" stroke="#8b1a1a" points="92.73,-570.24 93.15,-580.83 99.42,-572.29 92.73,-570.24"/>
</a>
</g>
</g>
<!-- Node16 -->
<g id="Node000016" class="node">
<title>Node16</title>
<g id="a_Node000016"><a xlink:href="classpsr_1_1MaybeUniquePtr.html" target="_top" xlink:title=" ">
<polygon fill="white" stroke="#666666" points="384.5,-326 265.5,-326 265.5,-296 384.5,-296 384.5,-326"/>
<text text-anchor="start" x="273.5" y="-314" font-family="Helvetica,sans-Serif" font-size="10.00">psr::MaybeUniquePtr</text>
<text text-anchor="middle" x="325" y="-303" font-family="Helvetica,sans-Serif" font-size="10.00">&lt; llvm::Module &gt;</text>
</a>
</g>
</g>
<!-- Node0&#45;&gt;Node16 -->
<g id="edge233_Node000000_Node000016" class="edge">
<title>Node0&#45;&gt;Node16</title>
<g id="a_edge233_Node000000_Node000016"><a xlink:title=" ">
<path fill="none" stroke="#8b1a1a" d="M93.21,-570.9C103.4,-518.33 134.54,-396.46 212,-335 227.03,-323.07 246.65,-316.73 265.25,-313.45"/>
<polygon fill="#8b1a1a" stroke="#8b1a1a" points="89.77,-570.26 91.39,-580.73 96.65,-571.53 89.77,-570.26"/>
</a>
</g>
</g>
<!-- Node17 -->
<g id="Node000017" class="node">
<title>Node17</title>
<g id="a_Node000017"><a xlink:href="classpsr_1_1MaybeUniquePtr.html" target="_top" xlink:title=" ">
<polygon fill="white" stroke="#666666" points="390.5,-278 259.5,-278 259.5,-248 390.5,-248 390.5,-278"/>
<text text-anchor="start" x="267.5" y="-266" font-family="Helvetica,sans-Serif" font-size="10.00">psr::MaybeUniquePtr</text>
<text text-anchor="middle" x="325" y="-255" font-family="Helvetica,sans-Serif" font-size="10.00">&lt; llvm::raw_ostream &gt;</text>
</a>
</g>
</g>
<!-- Node0&#45;&gt;Node17 -->
<g id="edge234_Node000000_Node000017" class="edge">
<title>Node0&#45;&gt;Node17</title>
<g id="a_edge234_Node000000_Node000017"><a xlink:title=" ">
<path fill="none" stroke="#8b1a1a" d="M91.18,-570.96C97.73,-511.74 122.73,-362.42 212,-287 225.22,-275.83 242.38,-269.49 259.29,-265.97"/>
<polygon fill="#8b1a1a" stroke="#8b1a1a" points="87.69,-570.62 90.16,-580.93 94.66,-571.33 87.69,-570.62"/>
</a>
</g>
</g>
<!-- Node18 -->
<g id="Node000018" class="node">
<title>Node18</title>
<g id="a_Node000018"><a xlink:href="classpsr_1_1MaybeUniquePtr.html" target="_top" xlink:title=" ">
<polygon fill="white" stroke="#666666" points="435,-230 215,-230 215,-178 435,-178 435,-230"/>
<text text-anchor="start" x="223" y="-218" font-family="Helvetica,sans-Serif" font-size="10.00">psr::MaybeUniquePtr</text>
<text text-anchor="start" x="223" y="-207" font-family="Helvetica,sans-Serif" font-size="10.00">&lt; psr::AnalysisPrinterBase</text>
<text text-anchor="start" x="223" y="-196" font-family="Helvetica,sans-Serif" font-size="10.00">&lt; psr::IDETypeStateAnalysisDomain</text>
<text text-anchor="middle" x="325" y="-185" font-family="Helvetica,sans-Serif" font-size="10.00">&lt; psr::OpenSSLEVPKDFDescription &gt; &gt; &gt;</text>
</a>
</g>
</g>
<!-- Node0&#45;&gt;Node18 -->
<g id="edge235_Node000000_Node000018" class="edge">
<title>Node0&#45;&gt;Node18</title>
<g id="a_edge235_Node000000_Node000018"><a xlink:title=" ">
<path fill="none" stroke="#8b1a1a" d="M90.18,-570.86C94.6,-506.26 115.33,-332.92 212,-239 215.36,-235.74 219.02,-232.77 222.9,-230.09"/>
<polygon fill="#8b1a1a" stroke="#8b1a1a" points="86.68,-570.75 89.57,-580.95 93.67,-571.18 86.68,-570.75"/>
</a>
</g>
</g>
<!-- Node19 -->
<g id="Node000019" class="node">
<title>Node19</title>
<g id="a_Node000019"><a xlink:href="classpsr_1_1MaybeUniquePtr.html" target="_top" xlink:title=" ">
<polygon fill="white" stroke="#666666" points="416,-160 234,-160 234,-108 416,-108 416,-160"/>
<text text-anchor="start" x="242" y="-148" font-family="Helvetica,sans-Serif" font-size="10.00">psr::MaybeUniquePtr</text>
<text text-anchor="start" x="242" y="-137" font-family="Helvetica,sans-Serif" font-size="10.00">&lt; psr::AnalysisPrinterBase</text>
<text text-anchor="start" x="242" y="-126" font-family="Helvetica,sans-Serif" font-size="10.00">&lt; psr::IDESecureHeapPropagation</text>
<text text-anchor="middle" x="325" y="-115" font-family="Helvetica,sans-Serif" font-size="10.00">AnalysisDomain &gt; &gt;</text>
</a>
</g>
</g>
<!-- Node0&#45;&gt;Node19 -->
<g id="edge236_Node000000_Node000019" class="edge">
<title>Node0&#45;&gt;Node19</title>
<g id="a_edge236_Node000000_Node000019"><a xlink:title=" ">
<path fill="none" stroke="#8b1a1a" d="M88.52,-570.54C88.55,-497.42 98.88,-284.69 212,-169 218.34,-162.52 225.86,-157.23 233.95,-152.92"/>
<polygon fill="#8b1a1a" stroke="#8b1a1a" points="85.02,-570.68 88.58,-580.66 92.02,-570.64 85.02,-570.68"/>
</a>
</g>
</g>
<!-- Node20 -->
<g id="Node000020" class="node">
<title>Node20</title>
<g id="a_Node000020"><a xlink:href="classpsr_1_1MaybeUniquePtr.html" target="_top" xlink:title=" ">
<polygon fill="white" stroke="#666666" points="402,-89.5 248,-89.5 248,-48.5 402,-48.5 402,-89.5"/>
<text text-anchor="start" x="256" y="-77.5" font-family="Helvetica,sans-Serif" font-size="10.00">psr::MaybeUniquePtr</text>
<text text-anchor="start" x="256" y="-66.5" font-family="Helvetica,sans-Serif" font-size="10.00">&lt; psr::LLVMPathConstraints,</text>
<text text-anchor="middle" x="325" y="-55.5" font-family="Helvetica,sans-Serif" font-size="10.00"> true &gt;</text>
</a>
</g>
</g>
<!-- Node0&#45;&gt;Node20 -->
<g id="edge237_Node000000_Node000020" class="edge">
<title>Node0&#45;&gt;Node20</title>
<g id="a_edge237_Node000000_Node000020"><a xlink:title=" ">
<path fill="none" stroke="#8b1a1a" d="M91.89,-570.53C102.79,-478.94 144.26,-168.05 212,-99 221.8,-89.01 234.53,-82.24 247.88,-77.67"/>
<polygon fill="#8b1a1a" stroke="#8b1a1a" points="88.4,-570.25 90.72,-580.58 95.36,-571.06 88.4,-570.25"/>
</a>
</g>
</g>
<!-- Node21 -->
<g id="Node000021" class="node">
<title>Node21</title>
<g id="a_Node000021"><a xlink:href="classpsr_1_1MaybeUniquePtr.html" target="_top" xlink:title=" ">
<polygon fill="white" stroke="#666666" points="394.5,-30 255.5,-30 255.5,0 394.5,0 394.5,-30"/>
<text text-anchor="start" x="263.5" y="-18" font-family="Helvetica,sans-Serif" font-size="10.00">psr::MaybeUniquePtr</text>
<text text-anchor="middle" x="325" y="-7" font-family="Helvetica,sans-Serif" font-size="10.00">&lt; T, RequireAlignment &gt;</text>
</a>
</g>
</g>
<!-- Node0&#45;&gt;Node21 -->
<g id="edge238_Node000000_Node000021" class="edge">
<title>Node0&#45;&gt;Node21</title>
<g id="a_edge238_Node000000_Node000021"><a xlink:title=" ">
<path fill="none" stroke="#8b1a1a" d="M91.05,-570.7C99.55,-472.33 135.17,-116.98 212,-40 223.61,-28.37 239.37,-21.63 255.4,-17.85"/>
<polygon fill="#8b1a1a" stroke="#8b1a1a" points="87.55,-570.64 90.19,-580.9 94.52,-571.23 87.55,-570.64"/>
</a>
</g>
</g>
</g>
</svg>
