<?xml version="1.0" encoding="UTF-8" standalone="no"?>
<!DOCTYPE svg PUBLIC "-//W3C//DTD SVG 1.1//EN"
 "http://www.w3.org/Graphics/SVG/1.1/DTD/svg11.dtd">
<!-- Generated by graphviz version 2.43.0 (0)
 -->
<!-- Title: Graphical Class Hierarchy Pages: 1 -->
<svg width="359pt" height="101pt"
 viewBox="0.00 0.00 359.00 101.00" xmlns="http://www.w3.org/2000/svg" xmlns:xlink="http://www.w3.org/1999/xlink">
<g id="graph0" class="graph" transform="scale(1 1) rotate(0) translate(4 97)">
<title>Graphical Class Hierarchy</title>
<!-- Node0 -->
<g id="Node000000" class="node">
<title>Node0</title>
<g id="a_Node000000"><a xlink:href="classpsr_1_1Resolver.html" target="_top" xlink:title="A base class for call&#45;target resolvers. Used to build call graphs.">
<polygon fill="white" stroke="#666666" points="80,-56 0,-56 0,-37 80,-37 80,-56"/>
<text text-anchor="middle" x="40" y="-44" font-family="Helvetica,sans-Serif" font-size="10.00">psr::Resolver</text>
</a>
</g>
</g>
<!-- Node1 -->
<g id="Node000001" class="node">
<title>Node1</title>
<g id="a_Node000001"><a xlink:href="classpsr_1_1CHAResolver.html" target="_top" xlink:title="A resolver that performs Class Hierarchy Analysis to resolve calls to C++ virtual functions....">
<polygon fill="white" stroke="#666666" points="217,-93 116,-93 116,-74 217,-74 217,-93"/>
<text text-anchor="middle" x="166.5" y="-81" font-family="Helvetica,sans-Serif" font-size="10.00">psr::CHAResolver</text>
</a>
</g>
</g>
<!-- Node0&#45;&gt;Node1 -->
<g id="edge313_Node000000_Node000001" class="edge">
<title>Node0&#45;&gt;Node1</title>
<g id="a_edge313_Node000000_Node000001"><a xlink:title=" ">
<path fill="none" stroke="#63b8ff" d="M82.94,-58.96C99.31,-63.83 117.8,-69.32 133.11,-73.88"/>
<polygon fill="#63b8ff" stroke="#63b8ff" points="83.64,-55.52 73.06,-56.03 81.65,-62.23 83.64,-55.52"/>
</a>
</g>
</g>
<!-- Node3 -->
<g id="Node000003" class="node">
<title>Node3</title>
<g id="a_Node000003"><a xlink:href="classpsr_1_1NOResolver.html" target="_top" xlink:title="A resolver that doesn&#39;t resolve indirect&#45; and virtual calls.">
<polygon fill="white" stroke="#666666" points="214,-56 119,-56 119,-37 214,-37 214,-56"/>
<text text-anchor="middle" x="166.5" y="-44" font-family="Helvetica,sans-Serif" font-size="10.00">psr::NOResolver</text>
</a>
</g>
</g>
<!-- Node0&#45;&gt;Node3 -->
<g id="edge315_Node000000_Node000003" class="edge">
<title>Node0&#45;&gt;Node3</title>
<g id="a_edge315_Node000000_Node000003"><a xlink:title=" ">
<path fill="none" stroke="#63b8ff" d="M90.08,-46.5C99.51,-46.5 109.37,-46.5 118.73,-46.5"/>
<polygon fill="#63b8ff" stroke="#63b8ff" points="90.05,-43 80.05,-46.5 90.05,-50 90.05,-43"/>
</a>
</g>
</g>
<!-- Node4 -->
<g id="Node000004" class="node">
<title>Node4</title>
<g id="a_Node000004"><a xlink:href="classpsr_1_1OTFResolver.html" target="_top" xlink:title="A resolver that uses alias information to resolve indirect and virtual calls.">
<polygon fill="white" stroke="#666666" points="216.5,-19 116.5,-19 116.5,0 216.5,0 216.5,-19"/>
<text text-anchor="middle" x="166.5" y="-7" font-family="Helvetica,sans-Serif" font-size="10.00">psr::OTFResolver</text>
</a>
</g>
</g>
<!-- Node0&#45;&gt;Node4 -->
<g id="edge316_Node000000_Node000004" class="edge">
<title>Node0&#45;&gt;Node4</title>
<g id="a_edge316_Node000000_Node000004"><a xlink:title=" ">
<path fill="none" stroke="#63b8ff" d="M82.94,-34.04C99.31,-29.17 117.8,-23.68 133.11,-19.12"/>
<polygon fill="#63b8ff" stroke="#63b8ff" points="81.65,-30.77 73.06,-36.97 83.64,-37.48 81.65,-30.77"/>
</a>
</g>
</g>
<!-- Node2 -->
<g id="Node000002" class="node">
<title>Node2</title>
<g id="a_Node000002"><a xlink:href="classpsr_1_1RTAResolver.html" target="_top" xlink:title="A resolver that performs Rapid Type Analysis to resolve calls to C++ virtual functions....">
<polygon fill="white" stroke="#666666" points="351,-93 253,-93 253,-74 351,-74 351,-93"/>
<text text-anchor="middle" x="302" y="-81" font-family="Helvetica,sans-Serif" font-size="10.00">psr::RTAResolver</text>
</a>
</g>
</g>
<!-- Node1&#45;&gt;Node2 -->
<g id="edge314_Node000001_Node000002" class="edge">
<title>Node1&#45;&gt;Node2</title>
<g id="a_edge314_Node000001_Node000002"><a xlink:title=" ">
<path fill="none" stroke="#63b8ff" d="M227.39,-83.5C235.82,-83.5 244.4,-83.5 252.58,-83.5"/>
<polygon fill="#63b8ff" stroke="#63b8ff" points="227.21,-80 217.21,-83.5 227.21,-87 227.21,-80"/>
</a>
</g>
</g>
</g>
</svg>
