<?xml version="1.0" encoding="UTF-8" standalone="no"?>
<!DOCTYPE svg PUBLIC "-//W3C//DTD SVG 1.1//EN"
 "http://www.w3.org/Graphics/SVG/1.1/DTD/svg11.dtd">
<!-- Generated by graphviz version 2.43.0 (0)
 -->
<!-- Title: Graphical Class Hierarchy Pages: 1 -->
<svg width="321pt" height="108pt"
 viewBox="0.00 0.00 321.00 108.00" xmlns="http://www.w3.org/2000/svg" xmlns:xlink="http://www.w3.org/1999/xlink">
<g id="graph0" class="graph" transform="scale(1 1) rotate(0) translate(4 104)">
<title>Graphical Class Hierarchy</title>
<!-- Node0 -->
<g id="Node000000" class="node">
<title>Node0</title>
<g id="a_Node000000"><a xlink:title=" ">
<polygon fill="#e0e0e0" stroke="#999999" points="81,-59 0,-59 0,-40 81,-40 81,-59"/>
<text text-anchor="middle" x="40.5" y="-47" font-family="Helvetica,sans-Serif" font-size="10.00">type_identity</text>
</a>
</g>
</g>
<!-- Node1 -->
<g id="Node000001" class="node">
<title>Node1</title>
<g id="a_Node000001"><a xlink:href="structpsr_1_1DefaultAnalysisPrinterSelector.html" target="_top" xlink:title=" ">
<polygon fill="white" stroke="#666666" points="295.5,-100 134.5,-100 134.5,-59 295.5,-59 295.5,-100"/>
<text text-anchor="start" x="142.5" y="-88" font-family="Helvetica,sans-Serif" font-size="10.00">psr::DefaultAnalysisPrinter</text>
<text text-anchor="start" x="142.5" y="-77" font-family="Helvetica,sans-Serif" font-size="10.00">Selector&lt; AnalysisDomainTy,</text>
<text text-anchor="middle" x="215" y="-66" font-family="Helvetica,sans-Serif" font-size="10.00"> typename &gt;</text>
</a>
</g>
</g>
<!-- Node0&#45;&gt;Node1 -->
<g id="edge326_Node000000_Node000001" class="edge">
<title>Node0&#45;&gt;Node1</title>
<g id="a_edge326_Node000000_Node000001"><a xlink:title=" ">
<path fill="none" stroke="#63b8ff" d="M91.12,-58.13C104.67,-60.49 119.7,-63.1 134.47,-65.67"/>
<polygon fill="#63b8ff" stroke="#63b8ff" points="91.53,-54.65 81.07,-56.38 90.33,-61.54 91.53,-54.65"/>
</a>
</g>
</g>
<!-- Node2 -->
<g id="Node000002" class="node">
<title>Node2</title>
<g id="a_Node000002"><a xlink:href="structpsr_1_1DefaultAnalysisPrinterSelector_3_01LLVMIFDSAnalysisDomainDefault_01_4.html" target="_top" xlink:title=" ">
<polygon fill="white" stroke="#666666" points="313,-41 117,-41 117,0 313,0 313,-41"/>
<text text-anchor="start" x="125" y="-29" font-family="Helvetica,sans-Serif" font-size="10.00">psr::DefaultAnalysisPrinter</text>
<text text-anchor="start" x="125" y="-18" font-family="Helvetica,sans-Serif" font-size="10.00">Selector&lt; LLVMIFDSAnalysisDomain</text>
<text text-anchor="middle" x="215" y="-7" font-family="Helvetica,sans-Serif" font-size="10.00">Default &gt;</text>
</a>
</g>
</g>
<!-- Node0&#45;&gt;Node2 -->
<g id="edge327_Node000000_Node000002" class="edge">
<title>Node0&#45;&gt;Node2</title>
<g id="a_edge327_Node000000_Node000002"><a xlink:title=" ">
<path fill="none" stroke="#63b8ff" d="M91.07,-41.17C99.22,-39.8 107.9,-38.34 116.73,-36.85"/>
<polygon fill="#63b8ff" stroke="#63b8ff" points="90.36,-37.74 81.07,-42.85 91.52,-44.64 90.36,-37.74"/>
</a>
</g>
</g>
</g>
</svg>
