<?xml version="1.0" encoding="UTF-8" standalone="no"?>
<!DOCTYPE svg PUBLIC "-//W3C//DTD SVG 1.1//EN"
 "http://www.w3.org/Graphics/SVG/1.1/DTD/svg11.dtd">
<!-- Generated by graphviz version 2.43.0 (0)
 -->
<!-- Title: Graphical Class Hierarchy Pages: 1 -->
<svg width="461pt" height="146pt"
 viewBox="0.00 0.00 461.00 145.50" xmlns="http://www.w3.org/2000/svg" xmlns:xlink="http://www.w3.org/1999/xlink">
<g id="graph0" class="graph" transform="scale(1 1) rotate(0) translate(4 141.5)">
<title>Graphical Class Hierarchy</title>
<!-- Node0 -->
<g id="Node000000" class="node">
<title>Node0</title>
<g id="a_Node000000"><a xlink:href="structpsr_1_1TypeErasureUtils.html" target="_top" xlink:title=" ">
<polygon fill="white" stroke="#666666" points="119,-72.5 0,-72.5 0,-53.5 119,-53.5 119,-72.5"/>
<text text-anchor="middle" x="59.5" y="-60.5" font-family="Helvetica,sans-Serif" font-size="10.00">psr::TypeErasureUtils</text>
</a>
</g>
</g>
<!-- Node1 -->
<g id="Node000001" class="node">
<title>Node1</title>
<g id="a_Node000001"><a xlink:href="classpsr_1_1AliasIteratorRef.html" target="_top" xlink:title=" ">
<polygon fill="white" stroke="#666666" points="303,-137.5 155,-137.5 155,-96.5 303,-96.5 303,-137.5"/>
<text text-anchor="start" x="163" y="-125.5" font-family="Helvetica,sans-Serif" font-size="10.00">psr::AliasIteratorRef</text>
<text text-anchor="start" x="163" y="-114.5" font-family="Helvetica,sans-Serif" font-size="10.00">&lt; const llvm::Value *,</text>
<text text-anchor="middle" x="229" y="-103.5" font-family="Helvetica,sans-Serif" font-size="10.00"> const llvm::Instruction * &gt;</text>
</a>
</g>
</g>
<!-- Node0&#45;&gt;Node1 -->
<g id="edge322_Node000000_Node000001" class="edge">
<title>Node0&#45;&gt;Node1</title>
<g id="a_edge322_Node000000_Node000001"><a xlink:title=" ">
<path fill="none" stroke="#8b1a1a" d="M99.69,-75.63C118.94,-81.84 142.63,-89.48 164.39,-96.49"/>
<polygon fill="#8b1a1a" stroke="#8b1a1a" points="100.65,-72.27 90.06,-72.53 98.5,-78.93 100.65,-72.27"/>
</a>
</g>
</g>
<!-- Node2 -->
<g id="Node000002" class="node">
<title>Node2</title>
<g id="a_Node000002"><a xlink:href="classpsr_1_1AliasIteratorRef.html" target="_top" xlink:title="A type&#45;erased reference to any object implementing the IsAliasIterator interface. Use this,...">
<polygon fill="white" stroke="#666666" points="286,-78 172,-78 172,-48 286,-48 286,-78"/>
<text text-anchor="start" x="180" y="-66" font-family="Helvetica,sans-Serif" font-size="10.00">psr::AliasIteratorRef</text>
<text text-anchor="middle" x="229" y="-55" font-family="Helvetica,sans-Serif" font-size="10.00">&lt; V, N &gt;</text>
</a>
</g>
</g>
<!-- Node0&#45;&gt;Node2 -->
<g id="edge323_Node000000_Node000002" class="edge">
<title>Node0&#45;&gt;Node2</title>
<g id="a_edge323_Node000000_Node000002"><a xlink:title=" ">
<path fill="none" stroke="#8b1a1a" d="M129.3,-63C143.5,-63 158.3,-63 171.98,-63"/>
<polygon fill="#8b1a1a" stroke="#8b1a1a" points="129.08,-59.5 119.08,-63 129.08,-66.5 129.08,-59.5"/>
</a>
</g>
</g>
<!-- Node3 -->
<g id="Node000003" class="node">
<title>Node3</title>
<g id="a_Node000003"><a xlink:href="classpsr_1_1PointsToIteratorRef.html" target="_top" xlink:title=" ">
<polygon fill="white" stroke="#666666" points="294.5,-30 163.5,-30 163.5,0 294.5,0 294.5,-30"/>
<text text-anchor="start" x="171.5" y="-18" font-family="Helvetica,sans-Serif" font-size="10.00">psr::PointsToIteratorRef</text>
<text text-anchor="middle" x="229" y="-7" font-family="Helvetica,sans-Serif" font-size="10.00">&lt; V, O, N &gt;</text>
</a>
</g>
</g>
<!-- Node0&#45;&gt;Node3 -->
<g id="edge324_Node000000_Node000003" class="edge">
<title>Node0&#45;&gt;Node3</title>
<g id="a_edge324_Node000000_Node000003"><a xlink:title=" ">
<path fill="none" stroke="darkgreen" d="M103.68,-50.63C125.58,-44.35 152.35,-36.68 175.44,-30.06"/>
<polygon fill="darkgreen" stroke="darkgreen" points="102.64,-47.28 93.99,-53.4 104.57,-54.01 102.64,-47.28"/>
</a>
</g>
</g>
<!-- Node4 -->
<g id="Node000004" class="node">
<title>Node4</title>
<g id="a_Node000004"><a xlink:href="classpsr_1_1PointsToIterator.html" target="_top" xlink:title="Owning version of PointsToIteratorRef.">
<polygon fill="white" stroke="#666666" points="453,-30 339,-30 339,0 453,0 453,-30"/>
<text text-anchor="start" x="347" y="-18" font-family="Helvetica,sans-Serif" font-size="10.00">psr::PointsToIterator</text>
<text text-anchor="middle" x="396" y="-7" font-family="Helvetica,sans-Serif" font-size="10.00">&lt; V, O, N &gt;</text>
</a>
</g>
</g>
<!-- Node3&#45;&gt;Node4 -->
<g id="edge325_Node000003_Node000004" class="edge">
<title>Node3&#45;&gt;Node4</title>
<g id="a_edge325_Node000003_Node000004"><a xlink:title=" ">
<path fill="none" stroke="#63b8ff" d="M305.06,-15C316.39,-15 327.9,-15 338.74,-15"/>
<polygon fill="#63b8ff" stroke="#63b8ff" points="304.74,-11.5 294.74,-15 304.74,-18.5 304.74,-11.5"/>
</a>
</g>
</g>
</g>
</svg>
