<?xml version="1.0" encoding="UTF-8" standalone="no"?>
<!DOCTYPE svg PUBLIC "-//W3C//DTD SVG 1.1//EN"
 "http://www.w3.org/Graphics/SVG/1.1/DTD/svg11.dtd">
<!-- Generated by graphviz version 2.43.0 (0)
 -->
<!-- Title: Graphical Class Hierarchy Pages: 1 -->
<svg width="756pt" height="416pt"
 viewBox="0.00 0.00 756.00 415.50" xmlns="http://www.w3.org/2000/svg" xmlns:xlink="http://www.w3.org/1999/xlink">
<g id="graph0" class="graph" transform="scale(1 1) rotate(0) translate(4 411.5)">
<title>Graphical Class Hierarchy</title>
<!-- Node0 -->
<g id="Node000000" class="node">
<title>Node0</title>
<g id="a_Node000000"><a xlink:href="classpsr_1_1IDESolverAPIMixin.html" target="_top" xlink:title=" ">
<polygon fill="white" stroke="#666666" points="204.5,-257.5 76.5,-257.5 76.5,-227.5 204.5,-227.5 204.5,-257.5"/>
<text text-anchor="start" x="84.5" y="-245.5" font-family="Helvetica,sans-Serif" font-size="10.00">psr::IDESolverAPIMixin</text>
<text text-anchor="middle" x="140.5" y="-234.5" font-family="Helvetica,sans-Serif" font-size="10.00">&lt; Derived &gt;</text>
</a>
</g>
</g>
<!-- Node1 -->
<g id="Node000001" class="node">
<title>Node1</title>
<g id="a_Node000001"><a xlink:href="classpsr_1_1IDESolver.html" target="_top" xlink:title=" ">
<polygon fill="white" stroke="#666666" points="530,-407.5 317,-407.5 317,-355.5 530,-355.5 530,-407.5"/>
<text text-anchor="start" x="325" y="-395.5" font-family="Helvetica,sans-Serif" font-size="10.00">psr::IDESolver&lt; WithBinary</text>
<text text-anchor="start" x="325" y="-384.5" font-family="Helvetica,sans-Serif" font-size="10.00">ValueDomain&lt; AnalysisDomainTy</text>
<text text-anchor="start" x="325" y="-373.5" font-family="Helvetica,sans-Serif" font-size="10.00"> &gt;, std::set&lt; typename AnalysisDomain</text>
<text text-anchor="middle" x="423.5" y="-362.5" font-family="Helvetica,sans-Serif" font-size="10.00">Ty::d_t &gt; &gt;</text>
</a>
</g>
</g>
<!-- Node0&#45;&gt;Node1 -->
<g id="edge253_Node000000_Node000001" class="edge">
<title>Node0&#45;&gt;Node1</title>
<g id="a_edge253_Node000000_Node000001"><a xlink:title=" ">
<path fill="none" stroke="#63b8ff" d="M171.96,-263.3C206.13,-285.96 263.75,-322.23 317,-346.5 323.85,-349.62 331.06,-352.6 338.36,-355.42"/>
<polygon fill="#63b8ff" stroke="#63b8ff" points="173.64,-260.21 163.38,-257.57 169.75,-266.03 173.64,-260.21"/>
</a>
</g>
</g>
<!-- Node2 -->
<g id="Node000002" class="node">
<title>Node2</title>
<g id="a_Node000002"><a xlink:href="classpsr_1_1IDESolver.html" target="_top" xlink:title=" ">
<polygon fill="white" stroke="#666666" points="507.5,-337 339.5,-337 339.5,-296 507.5,-296 507.5,-337"/>
<text text-anchor="start" x="347.5" y="-325" font-family="Helvetica,sans-Serif" font-size="10.00">psr::IDESolver&lt; Analysis</text>
<text text-anchor="start" x="347.5" y="-314" font-family="Helvetica,sans-Serif" font-size="10.00">DomainTy, std::set&lt; typename</text>
<text text-anchor="middle" x="423.5" y="-303" font-family="Helvetica,sans-Serif" font-size="10.00"> AnalysisDomainTy::d_t &gt; &gt;</text>
</a>
</g>
</g>
<!-- Node0&#45;&gt;Node2 -->
<g id="edge254_Node000000_Node000002" class="edge">
<title>Node0&#45;&gt;Node2</title>
<g id="a_edge254_Node000000_Node000002"><a xlink:title=" ">
<path fill="none" stroke="#63b8ff" d="M208.57,-260.16C249.46,-270.93 301.89,-284.74 344.61,-295.99"/>
<polygon fill="#63b8ff" stroke="#63b8ff" points="209.26,-256.73 198.7,-257.56 207.48,-263.5 209.26,-256.73"/>
</a>
</g>
</g>
<!-- Node3 -->
<g id="Node000003" class="node">
<title>Node3</title>
<g id="a_Node000003"><a xlink:href="classpsr_1_1IDESolver.html" target="_top" xlink:title=" ">
<polygon fill="white" stroke="#666666" points="528,-278 319,-278 319,-237 528,-237 528,-278"/>
<text text-anchor="start" x="327" y="-266" font-family="Helvetica,sans-Serif" font-size="10.00">psr::IDESolver&lt; psr</text>
<text text-anchor="start" x="327" y="-255" font-family="Helvetica,sans-Serif" font-size="10.00">::IDETypeStateAnalysisDomain</text>
<text text-anchor="middle" x="423.5" y="-244" font-family="Helvetica,sans-Serif" font-size="10.00">&lt; psr::OpenSSLEVPKDFDescription &gt; &gt;</text>
</a>
</g>
</g>
<!-- Node0&#45;&gt;Node3 -->
<g id="edge255_Node000000_Node000003" class="edge">
<title>Node0&#45;&gt;Node3</title>
<g id="a_edge255_Node000000_Node000003"><a xlink:title=" ">
<path fill="none" stroke="#63b8ff" d="M214.66,-246.41C246.44,-248.1 284.24,-250.12 318.84,-251.97"/>
<polygon fill="#63b8ff" stroke="#63b8ff" points="214.73,-242.9 204.56,-245.87 214.36,-249.89 214.73,-242.9"/>
</a>
</g>
</g>
<!-- Node4 -->
<g id="Node000004" class="node">
<title>Node4</title>
<g id="a_Node000004"><a xlink:href="classpsr_1_1IDESolver.html" target="_top" xlink:title=" ">
<polygon fill="white" stroke="#666666" points="501.5,-219 345.5,-219 345.5,-178 501.5,-178 501.5,-219"/>
<text text-anchor="start" x="353.5" y="-207" font-family="Helvetica,sans-Serif" font-size="10.00">psr::IDESolver&lt; psr</text>
<text text-anchor="start" x="353.5" y="-196" font-family="Helvetica,sans-Serif" font-size="10.00">::IDESecureHeapPropagation</text>
<text text-anchor="middle" x="423.5" y="-185" font-family="Helvetica,sans-Serif" font-size="10.00">AnalysisDomain &gt;</text>
</a>
</g>
</g>
<!-- Node0&#45;&gt;Node4 -->
<g id="edge256_Node000000_Node000004" class="edge">
<title>Node0&#45;&gt;Node4</title>
<g id="a_edge256_Node000000_Node000004"><a xlink:title=" ">
<path fill="none" stroke="#63b8ff" d="M214.56,-231.06C254.74,-224.77 304.57,-216.97 345.37,-210.58"/>
<polygon fill="#63b8ff" stroke="#63b8ff" points="213.9,-227.62 204.56,-232.63 214.98,-234.54 213.9,-227.62"/>
</a>
</g>
</g>
<!-- Node5 -->
<g id="Node000005" class="node">
<title>Node5</title>
<g id="a_Node000005"><a xlink:href="classpsr_1_1IDESolver.html" target="_top" xlink:title=" ">
<polygon fill="white" stroke="#666666" points="492,-159.5 355,-159.5 355,-129.5 492,-129.5 492,-159.5"/>
<text text-anchor="start" x="363" y="-147.5" font-family="Helvetica,sans-Serif" font-size="10.00">psr::IDESolver&lt; Analysis</text>
<text text-anchor="middle" x="423.5" y="-136.5" font-family="Helvetica,sans-Serif" font-size="10.00">DomainTy, Container &gt;</text>
</a>
</g>
</g>
<!-- Node0&#45;&gt;Node5 -->
<g id="edge257_Node000000_Node000005" class="edge">
<title>Node0&#45;&gt;Node5</title>
<g id="a_edge257_Node000000_Node000005"><a xlink:title=" ">
<path fill="none" stroke="#63b8ff" d="M214.45,-228.38C236.68,-222.32 260.61,-213.92 281,-202.5 299.94,-191.89 297.82,-179.66 317,-169.5 328.64,-163.33 341.81,-158.67 354.79,-155.14"/>
<polygon fill="#63b8ff" stroke="#63b8ff" points="213.5,-225.01 204.71,-230.92 215.27,-231.79 213.5,-225.01"/>
</a>
</g>
</g>
<!-- Node8 -->
<g id="Node000008" class="node">
<title>Node8</title>
<g id="a_Node000008"><a xlink:href="classpsr_1_1IterativeIDESolver.html" target="_top" xlink:title=" ">
<polygon fill="white" stroke="#666666" points="521.5,-111.5 325.5,-111.5 325.5,-81.5 521.5,-81.5 521.5,-111.5"/>
<text text-anchor="start" x="333.5" y="-99.5" font-family="Helvetica,sans-Serif" font-size="10.00">psr::IterativeIDESolver</text>
<text text-anchor="middle" x="423.5" y="-88.5" font-family="Helvetica,sans-Serif" font-size="10.00">&lt; ProblemTy, StaticSolverConfigTy &gt;</text>
</a>
</g>
</g>
<!-- Node0&#45;&gt;Node8 -->
<g id="edge260_Node000000_Node000008" class="edge">
<title>Node0&#45;&gt;Node8</title>
<g id="a_edge260_Node000000_Node000008"><a xlink:title=" ">
<path fill="none" stroke="#63b8ff" d="M214.71,-234.01C238.05,-228.24 262.57,-218.6 281,-202.5 310.97,-176.31 286.31,-145.85 317,-120.5 321.13,-117.09 325.64,-114.14 330.41,-111.6"/>
<polygon fill="#63b8ff" stroke="#63b8ff" points="213.78,-230.63 204.8,-236.25 215.32,-237.46 213.78,-230.63"/>
</a>
</g>
</g>
<!-- Node6 -->
<g id="Node000006" class="node">
<title>Node6</title>
<g id="a_Node000006"><a xlink:href="classpsr_1_1IFDSSolver.html" target="_top" xlink:title="Solves the given IFDSTabulationProblem as described in the 1995 paper by Reps, Horwitz and Sagiv....">
<polygon fill="white" stroke="#666666" points="728.5,-183.5 585.5,-183.5 585.5,-153.5 728.5,-153.5 728.5,-183.5"/>
<text text-anchor="start" x="593.5" y="-171.5" font-family="Helvetica,sans-Serif" font-size="10.00">psr::IFDSSolver&lt; Analysis</text>
<text text-anchor="middle" x="657" y="-160.5" font-family="Helvetica,sans-Serif" font-size="10.00">DomainTy, Container &gt;</text>
</a>
</g>
</g>
<!-- Node5&#45;&gt;Node6 -->
<g id="edge258_Node000005_Node000006" class="edge">
<title>Node5&#45;&gt;Node6</title>
<g id="a_edge258_Node000005_Node000006"><a xlink:title=" ">
<path fill="none" stroke="#63b8ff" d="M502.19,-152.55C529,-155.33 558.87,-158.43 585.11,-161.15"/>
<polygon fill="#63b8ff" stroke="#63b8ff" points="502.39,-149.06 492.08,-151.51 501.67,-156.02 502.39,-149.06"/>
</a>
</g>
</g>
<!-- Node7 -->
<g id="Node000007" class="node">
<title>Node7</title>
<g id="a_Node000007"><a xlink:href="classpsr_1_1PathAwareIDESolver.html" target="_top" xlink:title=" ">
<polygon fill="white" stroke="#666666" points="748,-135.5 566,-135.5 566,-105.5 748,-105.5 748,-135.5"/>
<text text-anchor="start" x="574" y="-123.5" font-family="Helvetica,sans-Serif" font-size="10.00">psr::PathAwareIDESolver</text>
<text text-anchor="middle" x="657" y="-112.5" font-family="Helvetica,sans-Serif" font-size="10.00">&lt; AnalysisDomainTy, Container &gt;</text>
</a>
</g>
</g>
<!-- Node5&#45;&gt;Node7 -->
<g id="edge259_Node000005_Node000007" class="edge">
<title>Node5&#45;&gt;Node7</title>
<g id="a_edge259_Node000005_Node000007"><a xlink:title=" ">
<path fill="none" stroke="#63b8ff" d="M502.27,-136.44C522.71,-134.32 544.92,-132.02 565.94,-129.84"/>
<polygon fill="#63b8ff" stroke="#63b8ff" points="501.67,-132.98 492.08,-137.49 502.39,-139.94 501.67,-132.98"/>
</a>
</g>
</g>
<!-- Node9 -->
<g id="Node000009" class="node">
<title>Node9</title>
<g id="a_Node000009"><a xlink:href="classpsr_1_1IterativeIDESolverBase.html" target="_top" xlink:title=" ">
<polygon fill="white" stroke="#666666" points="215.5,-193 65.5,-193 65.5,-152 215.5,-152 215.5,-193"/>
<text text-anchor="start" x="73.5" y="-181" font-family="Helvetica,sans-Serif" font-size="10.00">psr::IterativeIDESolverBase</text>
<text text-anchor="start" x="73.5" y="-170" font-family="Helvetica,sans-Serif" font-size="10.00">&lt; StaticSolverConfigTy,</text>
<text text-anchor="middle" x="140.5" y="-159" font-family="Helvetica,sans-Serif" font-size="10.00"> EdgeFunPtrTy &gt;</text>
</a>
</g>
</g>
<!-- Node9&#45;&gt;Node8 -->
<g id="edge261_Node000009_Node000008" class="edge">
<title>Node9&#45;&gt;Node8</title>
<g id="a_edge261_Node000009_Node000008"><a xlink:title=" ">
<path fill="none" stroke="#63b8ff" d="M225.59,-159.2C244.19,-154.95 263.55,-149.47 281,-142.5 298.41,-135.54 299.63,-127.56 317,-120.5 325.35,-117.1 334.28,-114.14 343.28,-111.56"/>
<polygon fill="#63b8ff" stroke="#63b8ff" points="224.66,-155.82 215.64,-161.38 226.16,-162.66 224.66,-155.82"/>
</a>
</g>
</g>
<!-- Node10 -->
<g id="Node000010" class="node">
<title>Node10</title>
<g id="a_Node000010"><a xlink:title=" ">
<polygon fill="#e0e0e0" stroke="#999999" points="281,-133.5 0,-133.5 0,-59.5 281,-59.5 281,-133.5"/>
<text text-anchor="start" x="8" y="-121.5" font-family="Helvetica,sans-Serif" font-size="10.00">psr::detail::IterativeIDESolver</text>
<text text-anchor="start" x="8" y="-110.5" font-family="Helvetica,sans-Serif" font-size="10.00">Results&lt; ProblemTy::ProblemAnalysis</text>
<text text-anchor="start" x="8" y="-99.5" font-family="Helvetica,sans-Serif" font-size="10.00">Domain::n_t, ProblemTy::ProblemAnalysisDomain</text>
<text text-anchor="start" x="8" y="-88.5" font-family="Helvetica,sans-Serif" font-size="10.00">::d_t, std::conditional_t&lt; StaticSolverConfigTy</text>
<text text-anchor="start" x="8" y="-77.5" font-family="Helvetica,sans-Serif" font-size="10.00">::ComputeValues, ProblemTy::ProblemAnalysisDomain</text>
<text text-anchor="middle" x="140.5" y="-66.5" font-family="Helvetica,sans-Serif" font-size="10.00">::l_t, BinaryDomain &gt; &gt;</text>
</a>
</g>
</g>
<!-- Node10&#45;&gt;Node8 -->
<g id="edge262_Node000010_Node000008" class="edge">
<title>Node10&#45;&gt;Node8</title>
<g id="a_edge262_Node000010_Node000008"><a xlink:title=" ">
<path fill="none" stroke="#8b1a1a" d="M291.28,-96.5C302.77,-96.5 314.17,-96.5 325.17,-96.5"/>
<polygon fill="#8b1a1a" stroke="#8b1a1a" points="291.18,-93 281.18,-96.5 291.18,-100 291.18,-93"/>
</a>
</g>
</g>
<!-- Node11 -->
<g id="Node000011" class="node">
<title>Node11</title>
<g id="a_Node000011"><a xlink:href="structpsr_1_1SolverStatsSelector.html" target="_top" xlink:title=" ">
<polygon fill="white" stroke="#666666" points="207,-41 74,-41 74,0 207,0 207,-41"/>
<text text-anchor="start" x="82" y="-29" font-family="Helvetica,sans-Serif" font-size="10.00">psr::SolverStatsSelector</text>
<text text-anchor="start" x="82" y="-18" font-family="Helvetica,sans-Serif" font-size="10.00">&lt; StaticSolverConfigTy,</text>
<text text-anchor="middle" x="140.5" y="-7" font-family="Helvetica,sans-Serif" font-size="10.00"> typename &gt;</text>
</a>
</g>
</g>
<!-- Node11&#45;&gt;Node8 -->
<g id="edge263_Node000011_Node000008" class="edge">
<title>Node11&#45;&gt;Node8</title>
<g id="a_edge263_Node000011_Node000008"><a xlink:title=" ">
<path fill="none" stroke="#8b1a1a" d="M217.18,-35.3C237.97,-39.76 260.44,-44.96 281,-50.5 314.67,-59.57 352.18,-71.86 380.12,-81.46"/>
<polygon fill="#8b1a1a" stroke="#8b1a1a" points="217.63,-31.82 207.12,-33.17 216.18,-38.66 217.63,-31.82"/>
</a>
</g>
</g>
</g>
</svg>
