<?xml version="1.0" encoding="UTF-8" standalone="no"?>
<!DOCTYPE svg PUBLIC "-//W3C//DTD SVG 1.1//EN"
 "http://www.w3.org/Graphics/SVG/1.1/DTD/svg11.dtd">
<!-- Generated by graphviz version 2.43.0 (0)
 -->
<!-- Title: Graphical Class Hierarchy Pages: 1 -->
<svg width="381pt" height="182pt"
 viewBox="0.00 0.00 381.00 182.00" xmlns="http://www.w3.org/2000/svg" xmlns:xlink="http://www.w3.org/1999/xlink">
<g id="graph0" class="graph" transform="scale(1 1) rotate(0) translate(4 178)">
<title>Graphical Class Hierarchy</title>
<!-- Node0 -->
<g id="Node000000" class="node">
<title>Node0</title>
<g id="a_Node000000"><a xlink:href="classpsr_1_1AnalysisPrinterBase.html" target="_top" xlink:title="A generic class that serves as the basis for a custom analysis printer implementation.">
<polygon fill="white" stroke="#666666" points="157,-102 22,-102 22,-72 157,-72 157,-102"/>
<text text-anchor="start" x="30" y="-90" font-family="Helvetica,sans-Serif" font-size="10.00">psr::AnalysisPrinterBase</text>
<text text-anchor="middle" x="89.5" y="-79" font-family="Helvetica,sans-Serif" font-size="10.00">&lt; AnalysisDomainTy &gt;</text>
</a>
</g>
</g>
<!-- Node1 -->
<g id="Node000001" class="node">
<title>Node1</title>
<g id="a_Node000001"><a xlink:href="classpsr_1_1DefaultAnalysisPrinter.html" target="_top" xlink:title="A default implementation of the AnalysisPrinterBase. Aggregates all analysis results in a vector and ...">
<polygon fill="white" stroke="#666666" points="367.5,-174 220.5,-174 220.5,-144 367.5,-144 367.5,-174"/>
<text text-anchor="start" x="228.5" y="-162" font-family="Helvetica,sans-Serif" font-size="10.00">psr::DefaultAnalysisPrinter</text>
<text text-anchor="middle" x="294" y="-151" font-family="Helvetica,sans-Serif" font-size="10.00">&lt; AnalysisDomainTy &gt;</text>
</a>
</g>
</g>
<!-- Node0&#45;&gt;Node1 -->
<g id="edge157_Node000000_Node000001" class="edge">
<title>Node0&#45;&gt;Node1</title>
<g id="a_edge157_Node000000_Node000001"><a xlink:title=" ">
<path fill="none" stroke="#63b8ff" d="M136.87,-105.76C160.17,-114.96 188.93,-125.98 215,-135 223.7,-138.01 233.01,-141.04 242.07,-143.89"/>
<polygon fill="#63b8ff" stroke="#63b8ff" points="138.15,-102.5 127.57,-102.07 135.57,-109.01 138.15,-102.5"/>
</a>
</g>
</g>
<!-- Node2 -->
<g id="Node000002" class="node">
<title>Node2</title>
<g id="a_Node000002"><a xlink:href="classpsr_1_1NullAnalysisPrinter.html" target="_top" xlink:title=" ">
<polygon fill="white" stroke="#666666" points="359.5,-126 228.5,-126 228.5,-96 359.5,-96 359.5,-126"/>
<text text-anchor="start" x="236.5" y="-114" font-family="Helvetica,sans-Serif" font-size="10.00">psr::NullAnalysisPrinter</text>
<text text-anchor="middle" x="294" y="-103" font-family="Helvetica,sans-Serif" font-size="10.00">&lt; AnalysisDomainTy &gt;</text>
</a>
</g>
</g>
<!-- Node0&#45;&gt;Node2 -->
<g id="edge158_Node000000_Node000002" class="edge">
<title>Node0&#45;&gt;Node2</title>
<g id="a_edge158_Node000000_Node000002"><a xlink:title=" ">
<path fill="none" stroke="#63b8ff" d="M167.19,-96.09C187.38,-98.48 208.96,-101.04 228.44,-103.35"/>
<polygon fill="#63b8ff" stroke="#63b8ff" points="167.43,-92.59 157.09,-94.89 166.61,-99.54 167.43,-92.59"/>
</a>
</g>
</g>
<!-- Node3 -->
<g id="Node000003" class="node">
<title>Node3</title>
<g id="a_Node000003"><a xlink:href="classpsr_1_1OnTheFlyAnalysisPrinter.html" target="_top" xlink:title=" ">
<polygon fill="white" stroke="#666666" points="373,-78 215,-78 215,-48 373,-48 373,-78"/>
<text text-anchor="start" x="223" y="-66" font-family="Helvetica,sans-Serif" font-size="10.00">psr::OnTheFlyAnalysisPrinter</text>
<text text-anchor="middle" x="294" y="-55" font-family="Helvetica,sans-Serif" font-size="10.00">&lt; AnalysisDomainTy &gt;</text>
</a>
</g>
</g>
<!-- Node0&#45;&gt;Node3 -->
<g id="edge159_Node000000_Node000003" class="edge">
<title>Node0&#45;&gt;Node3</title>
<g id="a_edge159_Node000000_Node000003"><a xlink:title=" ">
<path fill="none" stroke="#63b8ff" d="M167.18,-77.91C182.75,-76.07 199.14,-74.12 214.76,-72.27"/>
<polygon fill="#63b8ff" stroke="#63b8ff" points="166.61,-74.46 157.09,-79.11 167.43,-81.41 166.61,-74.46"/>
</a>
</g>
</g>
<!-- Node4 -->
<g id="Node000004" class="node">
<title>Node4</title>
<g id="a_Node000004"><a xlink:href="classpsr_1_1SourceMgrPrinter.html" target="_top" xlink:title=" ">
<polygon fill="white" stroke="#666666" points="358.5,-30 229.5,-30 229.5,0 358.5,0 358.5,-30"/>
<text text-anchor="start" x="237.5" y="-18" font-family="Helvetica,sans-Serif" font-size="10.00">psr::SourceMgrPrinter</text>
<text text-anchor="middle" x="294" y="-7" font-family="Helvetica,sans-Serif" font-size="10.00">&lt; AnalysisDomainTy &gt;</text>
</a>
</g>
</g>
<!-- Node0&#45;&gt;Node4 -->
<g id="edge160_Node000000_Node000004" class="edge">
<title>Node0&#45;&gt;Node4</title>
<g id="a_edge160_Node000000_Node000004"><a xlink:title=" ">
<path fill="none" stroke="#63b8ff" d="M136.87,-68.24C160.17,-59.04 188.93,-48.02 215,-39 223.7,-35.99 233.01,-32.96 242.07,-30.11"/>
<polygon fill="#63b8ff" stroke="#63b8ff" points="135.57,-64.99 127.57,-71.93 138.15,-71.5 135.57,-64.99"/>
</a>
</g>
</g>
<!-- Node5 -->
<g id="Node000005" class="node">
<title>Node5</title>
<g id="a_Node000005"><a xlink:title=" ">
<polygon fill="#e0e0e0" stroke="#999999" points="179,-24.5 0,-24.5 0,-5.5 179,-5.5 179,-24.5"/>
<text text-anchor="middle" x="89.5" y="-12.5" font-family="Helvetica,sans-Serif" font-size="10.00">psr::detail::SourceMgrPrinterBase</text>
</a>
</g>
</g>
<!-- Node5&#45;&gt;Node4 -->
<g id="edge161_Node000005_Node000004" class="edge">
<title>Node5&#45;&gt;Node4</title>
<g id="a_edge161_Node000005_Node000004"><a xlink:title=" ">
<path fill="none" stroke="#8b1a1a" d="M189.38,-15C202.96,-15 216.59,-15 229.3,-15"/>
<polygon fill="#8b1a1a" stroke="#8b1a1a" points="189.02,-11.5 179.02,-15 189.02,-18.5 189.02,-11.5"/>
</a>
</g>
</g>
</g>
</svg>
