<?xml version="1.0" encoding="UTF-8" standalone="no"?>
<!DOCTYPE svg PUBLIC "-//W3C//DTD SVG 1.1//EN"
 "http://www.w3.org/Graphics/SVG/1.1/DTD/svg11.dtd">
<!-- Generated by graphviz version 2.43.0 (0)
 -->
<!-- Title: Graphical Class Hierarchy Pages: 1 -->
<svg width="626pt" height="248pt"
 viewBox="0.00 0.00 626.00 247.50" xmlns="http://www.w3.org/2000/svg" xmlns:xlink="http://www.w3.org/1999/xlink">
<g id="graph0" class="graph" transform="scale(1 1) rotate(0) translate(4 243.5)">
<title>Graphical Class Hierarchy</title>
<!-- Node0 -->
<g id="Node000000" class="node">
<title>Node0</title>
<g id="a_Node000000"><a xlink:href="classpsr_1_1IntraMonoProblem.html" target="_top" xlink:title="The analysis problem interface for intraprocedural monotone problems (solvable by the IntraMonoSolver...">
<polygon fill="white" stroke="#666666" points="163,-102 34,-102 34,-72 163,-72 163,-102"/>
<text text-anchor="start" x="42" y="-90" font-family="Helvetica,sans-Serif" font-size="10.00">psr::IntraMonoProblem</text>
<text text-anchor="middle" x="98.5" y="-79" font-family="Helvetica,sans-Serif" font-size="10.00">&lt; AnalysisDomainTy &gt;</text>
</a>
</g>
</g>
<!-- Node1 -->
<g id="Node000001" class="node">
<title>Node1</title>
<g id="a_Node000001"><a xlink:href="classpsr_1_1InterMonoProblem.html" target="_top" xlink:title=" ">
<polygon fill="white" stroke="#666666" points="430,-185.5 233,-185.5 233,-144.5 430,-144.5 430,-185.5"/>
<text text-anchor="start" x="241" y="-173.5" font-family="Helvetica,sans-Serif" font-size="10.00">psr::InterMonoProblem</text>
<text text-anchor="start" x="241" y="-162.5" font-family="Helvetica,sans-Serif" font-size="10.00">&lt; IntraMonoFullConstantPropagation</text>
<text text-anchor="middle" x="331.5" y="-151.5" font-family="Helvetica,sans-Serif" font-size="10.00">AnalysisDomain &gt;</text>
</a>
</g>
</g>
<!-- Node0&#45;&gt;Node1 -->
<g id="edge277_Node000000_Node000001" class="edge">
<title>Node0&#45;&gt;Node1</title>
<g id="a_edge277_Node000000_Node000001"><a xlink:title=" ">
<path fill="none" stroke="#63b8ff" d="M149.55,-105.62C174.53,-114.75 205.26,-125.75 233,-135 242.41,-138.14 252.37,-141.34 262.18,-144.42"/>
<polygon fill="#63b8ff" stroke="#63b8ff" points="150.53,-102.25 139.93,-102.09 148.12,-108.82 150.53,-102.25"/>
</a>
</g>
</g>
<!-- Node5 -->
<g id="Node000005" class="node">
<title>Node5</title>
<g id="a_Node000005"><a xlink:href="classpsr_1_1InterMonoProblem.html" target="_top" xlink:title=" ">
<polygon fill="white" stroke="#666666" points="420,-126 243,-126 243,-96 420,-96 420,-126"/>
<text text-anchor="start" x="251" y="-114" font-family="Helvetica,sans-Serif" font-size="10.00">psr::InterMonoProblem</text>
<text text-anchor="middle" x="331.5" y="-103" font-family="Helvetica,sans-Serif" font-size="10.00">&lt; InterMonoSolverTestDomain &gt;</text>
</a>
</g>
</g>
<!-- Node0&#45;&gt;Node5 -->
<g id="edge279_Node000000_Node000005" class="edge">
<title>Node0&#45;&gt;Node5</title>
<g id="a_edge279_Node000000_Node000005"><a xlink:title=" ">
<path fill="none" stroke="#63b8ff" d="M173.22,-94.66C195.34,-96.96 219.83,-99.5 242.77,-101.88"/>
<polygon fill="#63b8ff" stroke="#63b8ff" points="173.54,-91.17 163.23,-93.62 172.82,-98.14 173.54,-91.17"/>
</a>
</g>
</g>
<!-- Node7 -->
<g id="Node000007" class="node">
<title>Node7</title>
<g id="a_Node000007"><a xlink:href="classpsr_1_1InterMonoProblem.html" target="_top" xlink:title=" ">
<polygon fill="white" stroke="#666666" points="427,-78 236,-78 236,-48 427,-48 427,-78"/>
<text text-anchor="start" x="244" y="-66" font-family="Helvetica,sans-Serif" font-size="10.00">psr::InterMonoProblem</text>
<text text-anchor="middle" x="331.5" y="-55" font-family="Helvetica,sans-Serif" font-size="10.00">&lt; InterMonoTaintAnalysisDomain &gt;</text>
</a>
</g>
</g>
<!-- Node0&#45;&gt;Node7 -->
<g id="edge281_Node000000_Node000007" class="edge">
<title>Node0&#45;&gt;Node7</title>
<g id="a_edge281_Node000000_Node000007"><a xlink:title=" ">
<path fill="none" stroke="#63b8ff" d="M173.43,-79.32C193.28,-77.26 215.02,-75 235.82,-72.84"/>
<polygon fill="#63b8ff" stroke="#63b8ff" points="172.82,-75.86 163.23,-80.38 173.54,-82.83 172.82,-75.86"/>
</a>
</g>
</g>
<!-- Node9 -->
<g id="Node000009" class="node">
<title>Node9</title>
<g id="a_Node000009"><a xlink:href="classpsr_1_1InterMonoProblem.html" target="_top" xlink:title="The analysis problem interface for interprocedural monotone problems (solvable by the InterMonoSolver...">
<polygon fill="white" stroke="#666666" points="396,-30 267,-30 267,0 396,0 396,-30"/>
<text text-anchor="start" x="275" y="-18" font-family="Helvetica,sans-Serif" font-size="10.00">psr::InterMonoProblem</text>
<text text-anchor="middle" x="331.5" y="-7" font-family="Helvetica,sans-Serif" font-size="10.00">&lt; AnalysisDomainTy &gt;</text>
</a>
</g>
</g>
<!-- Node0&#45;&gt;Node9 -->
<g id="edge283_Node000000_Node000009" class="edge">
<title>Node0&#45;&gt;Node9</title>
<g id="a_edge283_Node000000_Node000009"><a xlink:title=" ">
<path fill="none" stroke="#63b8ff" d="M147.68,-68.31C172.89,-58.88 204.38,-47.64 233,-39 243.85,-35.72 255.47,-32.57 266.78,-29.67"/>
<polygon fill="#63b8ff" stroke="#63b8ff" points="146.12,-65.16 137.99,-71.96 148.58,-71.71 146.12,-65.16"/>
</a>
</g>
</g>
<!-- Node2 -->
<g id="Node000002" class="node">
<title>Node2</title>
<g id="a_Node000002"><a xlink:href="classpsr_1_1InterMonoFullConstantPropagation.html" target="_top" xlink:title=" ">
<polygon fill="white" stroke="#666666" points="616,-207 468,-207 468,-177 616,-177 616,-207"/>
<text text-anchor="start" x="476" y="-195" font-family="Helvetica,sans-Serif" font-size="10.00">psr::InterMonoFullConstant</text>
<text text-anchor="middle" x="542" y="-184" font-family="Helvetica,sans-Serif" font-size="10.00">Propagation</text>
</a>
</g>
</g>
<!-- Node1&#45;&gt;Node2 -->
<g id="edge278_Node000001_Node000002" class="edge">
<title>Node1&#45;&gt;Node2</title>
<g id="a_edge278_Node000001_Node000002"><a xlink:title=" ">
<path fill="none" stroke="#63b8ff" d="M440.18,-178.94C449.54,-180.16 458.85,-181.36 467.83,-182.52"/>
<polygon fill="#63b8ff" stroke="#63b8ff" points="440.4,-175.44 430.03,-177.63 439.5,-182.39 440.4,-175.44"/>
</a>
</g>
</g>
<!-- Node6 -->
<g id="Node000006" class="node">
<title>Node6</title>
<g id="a_Node000006"><a xlink:href="classpsr_1_1InterMonoSolverTest.html" target="_top" xlink:title=" ">
<polygon fill="white" stroke="#666666" points="610.5,-120.5 473.5,-120.5 473.5,-101.5 610.5,-101.5 610.5,-120.5"/>
<text text-anchor="middle" x="542" y="-108.5" font-family="Helvetica,sans-Serif" font-size="10.00">psr::InterMonoSolverTest</text>
</a>
</g>
</g>
<!-- Node5&#45;&gt;Node6 -->
<g id="edge280_Node000005_Node000006" class="edge">
<title>Node5&#45;&gt;Node6</title>
<g id="a_edge280_Node000005_Node000006"><a xlink:title=" ">
<path fill="none" stroke="#63b8ff" d="M430.1,-111C444.73,-111 459.54,-111 473.36,-111"/>
<polygon fill="#63b8ff" stroke="#63b8ff" points="430.02,-107.5 420.02,-111 430.02,-114.5 430.02,-107.5"/>
</a>
</g>
</g>
<!-- Node8 -->
<g id="Node000008" class="node">
<title>Node8</title>
<g id="a_Node000008"><a xlink:href="classpsr_1_1InterMonoTaintAnalysis.html" target="_top" xlink:title=" ">
<polygon fill="white" stroke="#666666" points="618,-72.5 466,-72.5 466,-53.5 618,-53.5 618,-72.5"/>
<text text-anchor="middle" x="542" y="-60.5" font-family="Helvetica,sans-Serif" font-size="10.00">psr::InterMonoTaintAnalysis</text>
</a>
</g>
</g>
<!-- Node7&#45;&gt;Node8 -->
<g id="edge282_Node000007_Node000008" class="edge">
<title>Node7&#45;&gt;Node8</title>
<g id="a_edge282_Node000007_Node000008"><a xlink:title=" ">
<path fill="none" stroke="#63b8ff" d="M437.3,-63C446.92,-63 456.53,-63 465.8,-63"/>
<polygon fill="#63b8ff" stroke="#63b8ff" points="437.29,-59.5 427.29,-63 437.29,-66.5 437.29,-59.5"/>
</a>
</g>
</g>
<!-- Node4 -->
<g id="Node000004" class="node">
<title>Node4</title>
<g id="a_Node000004"><a xlink:href="classpsr_1_1IntraMonoProblem.html" target="_top" xlink:title=" ">
<polygon fill="white" stroke="#666666" points="197,-239.5 0,-239.5 0,-198.5 197,-198.5 197,-239.5"/>
<text text-anchor="start" x="8" y="-227.5" font-family="Helvetica,sans-Serif" font-size="10.00">psr::IntraMonoProblem</text>
<text text-anchor="start" x="8" y="-216.5" font-family="Helvetica,sans-Serif" font-size="10.00">&lt; IntraMonoFullConstantPropagation</text>
<text text-anchor="middle" x="98.5" y="-205.5" font-family="Helvetica,sans-Serif" font-size="10.00">AnalysisDomain &gt;</text>
</a>
</g>
</g>
<!-- Node3 -->
<g id="Node000003" class="node">
<title>Node3</title>
<g id="a_Node000003"><a xlink:href="classpsr_1_1IntraMonoFullConstantPropagation.html" target="_top" xlink:title=" ">
<polygon fill="white" stroke="#666666" points="405.5,-234 257.5,-234 257.5,-204 405.5,-204 405.5,-234"/>
<text text-anchor="start" x="265.5" y="-222" font-family="Helvetica,sans-Serif" font-size="10.00">psr::IntraMonoFullConstant</text>
<text text-anchor="middle" x="331.5" y="-211" font-family="Helvetica,sans-Serif" font-size="10.00">Propagation</text>
</a>
</g>
</g>
<!-- Node4&#45;&gt;Node3 -->
<g id="edge284_Node000004_Node000003" class="edge">
<title>Node4&#45;&gt;Node3</title>
<g id="a_edge284_Node000004_Node000003"><a xlink:title=" ">
<path fill="none" stroke="#63b8ff" d="M207.6,-219C224.47,-219 241.55,-219 257.4,-219"/>
<polygon fill="#63b8ff" stroke="#63b8ff" points="207.13,-215.5 197.13,-219 207.13,-222.5 207.13,-215.5"/>
</a>
</g>
</g>
<!-- Node3&#45;&gt;Node2 -->
<g id="edge285_Node000003_Node000002" class="edge">
<title>Node3&#45;&gt;Node2</title>
<g id="a_edge285_Node000003_Node000002"><a xlink:title=" ">
<path fill="none" stroke="#63b8ff" d="M415.77,-208.22C433.03,-205.98 451.1,-203.64 467.96,-201.46"/>
<polygon fill="#63b8ff" stroke="#63b8ff" points="415.18,-204.76 405.72,-209.52 416.08,-211.71 415.18,-204.76"/>
</a>
</g>
</g>
</g>
</svg>
