<?xml version="1.0" encoding="UTF-8" standalone="no"?>
<!DOCTYPE svg PUBLIC "-//W3C//DTD SVG 1.1//EN"
 "http://www.w3.org/Graphics/SVG/1.1/DTD/svg11.dtd">
<!-- Generated by graphviz version 2.43.0 (0)
 -->
<!-- Title: Graphical Class Hierarchy Pages: 1 -->
<svg width="347pt" height="98pt"
 viewBox="0.00 0.00 347.00 97.50" xmlns="http://www.w3.org/2000/svg" xmlns:xlink="http://www.w3.org/1999/xlink">
<g id="graph0" class="graph" transform="scale(1 1) rotate(0) translate(4 93.5)">
<title>Graphical Class Hierarchy</title>
<!-- Node0 -->
<g id="Node000000" class="node">
<title>Node0</title>
<g id="a_Node000000"><a xlink:href="classpsr_1_1AnalysisPropertiesMixin.html" target="_top" xlink:title=" ">
<polygon fill="white" stroke="#666666" points="155,-62.5 0,-62.5 0,-32.5 155,-32.5 155,-62.5"/>
<text text-anchor="start" x="8" y="-50.5" font-family="Helvetica,sans-Serif" font-size="10.00">psr::AnalysisPropertiesMixin</text>
<text text-anchor="middle" x="77.5" y="-39.5" font-family="Helvetica,sans-Serif" font-size="10.00">&lt; Derived &gt;</text>
</a>
</g>
</g>
<!-- Node1 -->
<g id="Node000001" class="node">
<title>Node1</title>
<g id="a_Node000001"><a xlink:href="classpsr_1_1AliasInfoRef.html" target="_top" xlink:title=" ">
<polygon fill="white" stroke="#666666" points="317.5,-89.5 212.5,-89.5 212.5,-59.5 317.5,-59.5 317.5,-89.5"/>
<text text-anchor="start" x="220.5" y="-77.5" font-family="Helvetica,sans-Serif" font-size="10.00">psr::AliasInfoRef&lt;</text>
<text text-anchor="middle" x="265" y="-66.5" font-family="Helvetica,sans-Serif" font-size="10.00"> v_t, n_t &gt;</text>
</a>
</g>
</g>
<!-- Node0&#45;&gt;Node1 -->
<g id="edge171_Node000000_Node000001" class="edge">
<title>Node0&#45;&gt;Node1</title>
<g id="a_edge171_Node000000_Node000001"><a xlink:title=" ">
<path fill="none" stroke="#63b8ff" d="M165.02,-60.09C181.16,-62.44 197.55,-64.83 212.23,-66.97"/>
<polygon fill="#63b8ff" stroke="#63b8ff" points="165.42,-56.61 155.02,-58.64 164.41,-63.54 165.42,-56.61"/>
</a>
</g>
</g>
<!-- Node2 -->
<g id="Node000002" class="node">
<title>Node2</title>
<g id="a_Node000002"><a xlink:href="classpsr_1_1AliasInfoRef.html" target="_top" xlink:title=" ">
<polygon fill="white" stroke="#666666" points="339,-41 191,-41 191,0 339,0 339,-41"/>
<text text-anchor="start" x="199" y="-29" font-family="Helvetica,sans-Serif" font-size="10.00">psr::AliasInfoRef&lt;</text>
<text text-anchor="start" x="199" y="-18" font-family="Helvetica,sans-Serif" font-size="10.00"> const llvm::Value *,</text>
<text text-anchor="middle" x="265" y="-7" font-family="Helvetica,sans-Serif" font-size="10.00"> const llvm::Instruction * &gt;</text>
</a>
</g>
</g>
<!-- Node0&#45;&gt;Node2 -->
<g id="edge172_Node000000_Node000002" class="edge">
<title>Node0&#45;&gt;Node2</title>
<g id="a_edge172_Node000000_Node000002"><a xlink:title=" ">
<path fill="none" stroke="#63b8ff" d="M165.11,-34.89C173.75,-33.64 182.46,-32.37 190.94,-31.13"/>
<polygon fill="#63b8ff" stroke="#63b8ff" points="164.41,-31.46 155.02,-36.36 165.42,-38.39 164.41,-31.46"/>
</a>
</g>
</g>
</g>
</svg>
