<?xml version="1.0" encoding="UTF-8" standalone="no"?>
<!DOCTYPE svg PUBLIC "-//W3C//DTD SVG 1.1//EN"
 "http://www.w3.org/Graphics/SVG/1.1/DTD/svg11.dtd">
<!-- Generated by graphviz version 2.43.0 (0)
 -->
<!-- Title: Graphical Class Hierarchy Pages: 1 -->
<svg width="411pt" height="362pt"
 viewBox="0.00 0.00 411.00 361.50" xmlns="http://www.w3.org/2000/svg" xmlns:xlink="http://www.w3.org/1999/xlink">
<g id="graph0" class="graph" transform="scale(1 1) rotate(0) translate(4 357.5)">
<title>Graphical Class Hierarchy</title>
<!-- Node0 -->
<g id="Node000000" class="node">
<title>Node0</title>
<g id="a_Node000000"><a xlink:title=" ">
<polygon fill="#e0e0e0" stroke="#999999" points="176,-186 0,-186 0,-156 176,-156 176,-186"/>
<text text-anchor="start" x="8" y="-174" font-family="Helvetica,sans-Serif" font-size="10.00">psr::detail::MaybeUnique</text>
<text text-anchor="middle" x="88" y="-163" font-family="Helvetica,sans-Serif" font-size="10.00">PtrBase&lt; T, RequireAlignment &gt;</text>
</a>
</g>
</g>
<!-- Node1 -->
<g id="Node000001" class="node">
<title>Node1</title>
<g id="a_Node000001"><a xlink:href="classpsr_1_1MaybeUniquePtr.html" target="_top" xlink:title=" ">
<polygon fill="white" stroke="#666666" points="403,-353.5 212,-353.5 212,-312.5 403,-312.5 403,-353.5"/>
<text text-anchor="start" x="220" y="-341.5" font-family="Helvetica,sans-Serif" font-size="10.00">psr::MaybeUniquePtr</text>
<text text-anchor="start" x="220" y="-330.5" font-family="Helvetica,sans-Serif" font-size="10.00">&lt; const psr::DIBasedTypeHierarchy,</text>
<text text-anchor="middle" x="307.5" y="-319.5" font-family="Helvetica,sans-Serif" font-size="10.00"> true &gt;</text>
</a>
</g>
</g>
<!-- Node0&#45;&gt;Node1 -->
<g id="edge215_Node000000_Node000001" class="edge">
<title>Node0&#45;&gt;Node1</title>
<g id="a_edge215_Node000000_Node000001"><a xlink:title=" ">
<path fill="none" stroke="#8b1a1a" d="M104.93,-194.45C126.09,-223.88 166.18,-274.01 212,-303 217.53,-306.5 223.5,-309.62 229.65,-312.39"/>
<polygon fill="#8b1a1a" stroke="#8b1a1a" points="107.61,-192.17 98.98,-186.02 101.89,-196.21 107.61,-192.17"/>
</a>
</g>
</g>
<!-- Node2 -->
<g id="Node000002" class="node">
<title>Node2</title>
<g id="a_Node000002"><a xlink:href="classpsr_1_1MaybeUniquePtr.html" target="_top" xlink:title=" ">
<polygon fill="white" stroke="#666666" points="373,-294 242,-294 242,-264 373,-264 373,-294"/>
<text text-anchor="start" x="250" y="-282" font-family="Helvetica,sans-Serif" font-size="10.00">psr::MaybeUniquePtr</text>
<text text-anchor="middle" x="307.5" y="-271" font-family="Helvetica,sans-Serif" font-size="10.00">&lt; llvm::raw_ostream &gt;</text>
</a>
</g>
</g>
<!-- Node0&#45;&gt;Node2 -->
<g id="edge216_Node000000_Node000002" class="edge">
<title>Node0&#45;&gt;Node2</title>
<g id="a_edge216_Node000000_Node000002"><a xlink:title=" ">
<path fill="none" stroke="#8b1a1a" d="M114.8,-192.63C138.63,-211.6 175.74,-238.63 212,-255 221.41,-259.25 231.7,-262.83 241.92,-265.83"/>
<polygon fill="#8b1a1a" stroke="#8b1a1a" points="116.92,-189.85 106.94,-186.29 112.53,-195.29 116.92,-189.85"/>
</a>
</g>
</g>
<!-- Node3 -->
<g id="Node000003" class="node">
<title>Node3</title>
<g id="a_Node000003"><a xlink:href="classpsr_1_1MaybeUniquePtr.html" target="_top" xlink:title=" ">
<polygon fill="white" stroke="#666666" points="367,-245.5 248,-245.5 248,-204.5 367,-204.5 367,-245.5"/>
<text text-anchor="start" x="256" y="-233.5" font-family="Helvetica,sans-Serif" font-size="10.00">psr::MaybeUniquePtr</text>
<text text-anchor="start" x="256" y="-222.5" font-family="Helvetica,sans-Serif" font-size="10.00">&lt; psr::LLVMAliasSet,</text>
<text text-anchor="middle" x="307.5" y="-211.5" font-family="Helvetica,sans-Serif" font-size="10.00"> true &gt;</text>
</a>
</g>
</g>
<!-- Node0&#45;&gt;Node3 -->
<g id="edge217_Node000000_Node000003" class="edge">
<title>Node0&#45;&gt;Node3</title>
<g id="a_edge217_Node000000_Node000003"><a xlink:title=" ">
<path fill="none" stroke="#8b1a1a" d="M159.49,-188.5C188,-195.58 220.54,-203.66 247.74,-210.41"/>
<polygon fill="#8b1a1a" stroke="#8b1a1a" points="160.13,-185.05 149.59,-186.04 158.45,-191.85 160.13,-185.05"/>
</a>
</g>
</g>
<!-- Node4 -->
<g id="Node000004" class="node">
<title>Node4</title>
<g id="a_Node000004"><a xlink:href="classpsr_1_1MaybeUniquePtr.html" target="_top" xlink:title=" ">
<polygon fill="white" stroke="#666666" points="367,-186 248,-186 248,-156 367,-156 367,-186"/>
<text text-anchor="start" x="256" y="-174" font-family="Helvetica,sans-Serif" font-size="10.00">psr::MaybeUniquePtr</text>
<text text-anchor="middle" x="307.5" y="-163" font-family="Helvetica,sans-Serif" font-size="10.00">&lt; z3::context &gt;</text>
</a>
</g>
</g>
<!-- Node0&#45;&gt;Node4 -->
<g id="edge218_Node000000_Node000004" class="edge">
<title>Node0&#45;&gt;Node4</title>
<g id="a_edge218_Node000000_Node000004"><a xlink:title=" ">
<path fill="none" stroke="#8b1a1a" d="M186.46,-171C207.45,-171 229,-171 247.95,-171"/>
<polygon fill="#8b1a1a" stroke="#8b1a1a" points="186.21,-167.5 176.21,-171 186.21,-174.5 186.21,-167.5"/>
</a>
</g>
</g>
<!-- Node5 -->
<g id="Node000005" class="node">
<title>Node5</title>
<g id="a_Node000005"><a xlink:href="classpsr_1_1MaybeUniquePtr.html" target="_top" xlink:title=" ">
<polygon fill="white" stroke="#666666" points="367,-138 248,-138 248,-108 367,-108 367,-138"/>
<text text-anchor="start" x="256" y="-126" font-family="Helvetica,sans-Serif" font-size="10.00">psr::MaybeUniquePtr</text>
<text text-anchor="middle" x="307.5" y="-115" font-family="Helvetica,sans-Serif" font-size="10.00">&lt; llvm::Module &gt;</text>
</a>
</g>
</g>
<!-- Node0&#45;&gt;Node5 -->
<g id="edge219_Node000000_Node000005" class="edge">
<title>Node0&#45;&gt;Node5</title>
<g id="a_edge219_Node000000_Node000005"><a xlink:title=" ">
<path fill="none" stroke="#8b1a1a" d="M167.24,-153.73C193.77,-147.88 222.93,-141.44 247.69,-135.98"/>
<polygon fill="#8b1a1a" stroke="#8b1a1a" points="166.23,-150.37 157.22,-155.94 167.74,-157.21 166.23,-150.37"/>
</a>
</g>
</g>
<!-- Node6 -->
<g id="Node000006" class="node">
<title>Node6</title>
<g id="a_Node000006"><a xlink:href="classpsr_1_1MaybeUniquePtr.html" target="_top" xlink:title=" ">
<polygon fill="white" stroke="#666666" points="384.5,-89.5 230.5,-89.5 230.5,-48.5 384.5,-48.5 384.5,-89.5"/>
<text text-anchor="start" x="238.5" y="-77.5" font-family="Helvetica,sans-Serif" font-size="10.00">psr::MaybeUniquePtr</text>
<text text-anchor="start" x="238.5" y="-66.5" font-family="Helvetica,sans-Serif" font-size="10.00">&lt; psr::LLVMPathConstraints,</text>
<text text-anchor="middle" x="307.5" y="-55.5" font-family="Helvetica,sans-Serif" font-size="10.00"> true &gt;</text>
</a>
</g>
</g>
<!-- Node0&#45;&gt;Node6 -->
<g id="edge220_Node000000_Node000006" class="edge">
<title>Node0&#45;&gt;Node6</title>
<g id="a_edge220_Node000000_Node000006"><a xlink:title=" ">
<path fill="none" stroke="#8b1a1a" d="M119.74,-150.41C144.03,-134.79 179.18,-113.6 212,-99 219.55,-95.64 227.59,-92.49 235.67,-89.58"/>
<polygon fill="#8b1a1a" stroke="#8b1a1a" points="117.79,-147.5 111.31,-155.89 121.61,-153.37 117.79,-147.5"/>
</a>
</g>
</g>
<!-- Node7 -->
<g id="Node000007" class="node">
<title>Node7</title>
<g id="a_Node000007"><a xlink:href="classpsr_1_1MaybeUniquePtr.html" target="_top" xlink:title=" ">
<polygon fill="white" stroke="#666666" points="377,-30 238,-30 238,0 377,0 377,-30"/>
<text text-anchor="start" x="246" y="-18" font-family="Helvetica,sans-Serif" font-size="10.00">psr::MaybeUniquePtr</text>
<text text-anchor="middle" x="307.5" y="-7" font-family="Helvetica,sans-Serif" font-size="10.00">&lt; T, RequireAlignment &gt;</text>
</a>
</g>
</g>
<!-- Node0&#45;&gt;Node7 -->
<g id="edge221_Node000000_Node000007" class="edge">
<title>Node0&#45;&gt;Node7</title>
<g id="a_edge221_Node000000_Node000007"><a xlink:title=" ">
<path fill="none" stroke="#8b1a1a" d="M104.75,-147.38C125.73,-117.8 165.62,-67.66 212,-40 219.87,-35.31 228.63,-31.48 237.54,-28.36"/>
<polygon fill="#8b1a1a" stroke="#8b1a1a" points="101.7,-145.65 98.86,-155.86 107.45,-149.64 101.7,-145.65"/>
</a>
</g>
</g>
</g>
</svg>
