<?xml version="1.0" encoding="UTF-8" standalone="no"?>
<!DOCTYPE svg PUBLIC "-//W3C//DTD SVG 1.1//EN"
 "http://www.w3.org/Graphics/SVG/1.1/DTD/svg11.dtd">
<!-- Generated by graphviz version 2.43.0 (0)
 -->
<!-- Title: Graphical Class Hierarchy Pages: 1 -->
<svg width="298pt" height="86pt"
 viewBox="0.00 0.00 298.00 86.00" xmlns="http://www.w3.org/2000/svg" xmlns:xlink="http://www.w3.org/1999/xlink">
<g id="graph0" class="graph" transform="scale(1 1) rotate(0) translate(4 82)">
<title>Graphical Class Hierarchy</title>
<!-- Node0 -->
<g id="Node000000" class="node">
<title>Node0</title>
<g id="a_Node000000"><a xlink:href="structpsr_1_1DefaultAATraits.html" target="_top" xlink:title=" ">
<polygon fill="white" stroke="#666666" points="113,-54 0,-54 0,-24 113,-24 113,-54"/>
<text text-anchor="start" x="8" y="-42" font-family="Helvetica,sans-Serif" font-size="10.00">psr::DefaultAATraits</text>
<text text-anchor="middle" x="56.5" y="-31" font-family="Helvetica,sans-Serif" font-size="10.00">&lt; V, N &gt;</text>
</a>
</g>
</g>
<!-- Node1 -->
<g id="Node000001" class="node">
<title>Node1</title>
<g id="a_Node000001"><a xlink:href="structpsr_1_1AliasInfoTraits_3_01AliasInfo_3_01V_00_01N_01_4_01_4.html" target="_top" xlink:title=" ">
<polygon fill="white" stroke="#666666" points="282,-78 157,-78 157,-48 282,-48 282,-78"/>
<text text-anchor="start" x="165" y="-66" font-family="Helvetica,sans-Serif" font-size="10.00">psr::AliasInfoTraits</text>
<text text-anchor="middle" x="219.5" y="-55" font-family="Helvetica,sans-Serif" font-size="10.00">&lt; AliasInfo&lt; V, N &gt; &gt;</text>
</a>
</g>
</g>
<!-- Node0&#45;&gt;Node1 -->
<g id="edge208_Node000000_Node000001" class="edge">
<title>Node0&#45;&gt;Node1</title>
<g id="a_edge208_Node000000_Node000001"><a xlink:title=" ">
<path fill="none" stroke="#63b8ff" d="M123.41,-48.83C134.51,-50.48 145.99,-52.19 156.96,-53.83"/>
<polygon fill="#63b8ff" stroke="#63b8ff" points="123.76,-45.34 113.36,-47.33 122.73,-52.26 123.76,-45.34"/>
</a>
</g>
</g>
<!-- Node2 -->
<g id="Node000002" class="node">
<title>Node2</title>
<g id="a_Node000002"><a xlink:href="structpsr_1_1AliasInfoTraits_3_01AliasInfoRef_3_01V_00_01N_01_4_01_4.html" target="_top" xlink:title=" ">
<polygon fill="white" stroke="#666666" points="290,-30 149,-30 149,0 290,0 290,-30"/>
<text text-anchor="start" x="157" y="-18" font-family="Helvetica,sans-Serif" font-size="10.00">psr::AliasInfoTraits</text>
<text text-anchor="middle" x="219.5" y="-7" font-family="Helvetica,sans-Serif" font-size="10.00">&lt; AliasInfoRef&lt; V, N &gt; &gt;</text>
</a>
</g>
</g>
<!-- Node0&#45;&gt;Node2 -->
<g id="edge209_Node000000_Node000002" class="edge">
<title>Node0&#45;&gt;Node2</title>
<g id="a_edge209_Node000000_Node000002"><a xlink:title=" ">
<path fill="none" stroke="#63b8ff" d="M123.44,-29.17C131.82,-27.92 140.41,-26.64 148.84,-25.38"/>
<polygon fill="#63b8ff" stroke="#63b8ff" points="122.73,-25.74 113.36,-30.67 123.76,-32.66 122.73,-25.74"/>
</a>
</g>
</g>
</g>
</svg>
