<?xml version="1.0" encoding="UTF-8" standalone="no"?>
<!DOCTYPE svg PUBLIC "-//W3C//DTD SVG 1.1//EN"
 "http://www.w3.org/Graphics/SVG/1.1/DTD/svg11.dtd">
<!-- Generated by graphviz version 2.43.0 (0)
 -->
<!-- Title: Graphical Class Hierarchy Pages: 1 -->
<svg width="411pt" height="479pt"
 viewBox="0.00 0.00 411.00 478.50" xmlns="http://www.w3.org/2000/svg" xmlns:xlink="http://www.w3.org/1999/xlink">
<g id="graph0" class="graph" transform="scale(1 1) rotate(0) translate(4 474.5)">
<title>Graphical Class Hierarchy</title>
<!-- Node0 -->
<g id="Node000000" class="node">
<title>Node0</title>
<g id="a_Node000000"><a xlink:title=" ">
<polygon fill="#e0e0e0" stroke="#999999" points="176,-256 0,-256 0,-226 176,-226 176,-256"/>
<text text-anchor="start" x="8" y="-244" font-family="Helvetica,sans-Serif" font-size="10.00">psr::detail::MaybeUnique</text>
<text text-anchor="middle" x="88" y="-233" font-family="Helvetica,sans-Serif" font-size="10.00">PtrBase&lt; T, RequireAlignment &gt;</text>
</a>
</g>
</g>
<!-- Node1 -->
<g id="Node000001" class="node">
<title>Node1</title>
<g id="a_Node000001"><a xlink:href="classpsr_1_1MaybeUniquePtr.html" target="_top" xlink:title=" ">
<polygon fill="white" stroke="#666666" points="380.5,-470.5 234.5,-470.5 234.5,-429.5 380.5,-429.5 380.5,-470.5"/>
<text text-anchor="start" x="242.5" y="-458.5" font-family="Helvetica,sans-Serif" font-size="10.00">psr::MaybeUniquePtr</text>
<text text-anchor="start" x="242.5" y="-447.5" font-family="Helvetica,sans-Serif" font-size="10.00">&lt; psr::AnalysisPrinterBase</text>
<text text-anchor="middle" x="307.5" y="-436.5" font-family="Helvetica,sans-Serif" font-size="10.00">&lt; AnalysisDomainTy &gt; &gt;</text>
</a>
</g>
</g>
<!-- Node0&#45;&gt;Node1 -->
<g id="edge227_Node000000_Node000001" class="edge">
<title>Node0&#45;&gt;Node1</title>
<g id="a_edge227_Node000000_Node000001"><a xlink:title=" ">
<path fill="none" stroke="#8b1a1a" d="M99.26,-265.59C116.69,-304.37 155.76,-379.6 212,-421 218.77,-425.99 226.41,-430.12 234.34,-433.56"/>
<polygon fill="#8b1a1a" stroke="#8b1a1a" points="102.33,-263.86 95.11,-256.11 95.92,-266.67 102.33,-263.86"/>
</a>
</g>
</g>
<!-- Node2 -->
<g id="Node000002" class="node">
<title>Node2</title>
<g id="a_Node000002"><a xlink:href="classpsr_1_1MaybeUniquePtr.html" target="_top" xlink:title=" ">
<polygon fill="white" stroke="#666666" points="403,-411.5 212,-411.5 212,-370.5 403,-370.5 403,-411.5"/>
<text text-anchor="start" x="220" y="-399.5" font-family="Helvetica,sans-Serif" font-size="10.00">psr::MaybeUniquePtr</text>
<text text-anchor="start" x="220" y="-388.5" font-family="Helvetica,sans-Serif" font-size="10.00">&lt; const psr::DIBasedTypeHierarchy,</text>
<text text-anchor="middle" x="307.5" y="-377.5" font-family="Helvetica,sans-Serif" font-size="10.00"> true &gt;</text>
</a>
</g>
</g>
<!-- Node0&#45;&gt;Node2 -->
<g id="edge228_Node000000_Node000002" class="edge">
<title>Node0&#45;&gt;Node2</title>
<g id="a_edge228_Node000000_Node000002"><a xlink:title=" ">
<path fill="none" stroke="#8b1a1a" d="M107.08,-264.3C129.13,-291.21 168.83,-335.11 212,-361 217.76,-364.45 223.95,-367.55 230.32,-370.32"/>
<polygon fill="#8b1a1a" stroke="#8b1a1a" points="109.56,-261.79 100.56,-256.2 104.11,-266.18 109.56,-261.79"/>
</a>
</g>
</g>
<!-- Node3 -->
<g id="Node000003" class="node">
<title>Node3</title>
<g id="a_Node000003"><a xlink:href="classpsr_1_1MaybeUniquePtr.html" target="_top" xlink:title=" ">
<polygon fill="white" stroke="#666666" points="367,-352 248,-352 248,-322 367,-322 367,-352"/>
<text text-anchor="start" x="256" y="-340" font-family="Helvetica,sans-Serif" font-size="10.00">psr::MaybeUniquePtr</text>
<text text-anchor="middle" x="307.5" y="-329" font-family="Helvetica,sans-Serif" font-size="10.00">&lt; z3::context &gt;</text>
</a>
</g>
</g>
<!-- Node0&#45;&gt;Node3 -->
<g id="edge229_Node000000_Node000003" class="edge">
<title>Node0&#45;&gt;Node3</title>
<g id="a_edge229_Node000000_Node000003"><a xlink:title=" ">
<path fill="none" stroke="#8b1a1a" d="M119.07,-261.84C143.24,-277.78 178.56,-299.29 212,-313 223.28,-317.62 235.68,-321.55 247.7,-324.79"/>
<polygon fill="#8b1a1a" stroke="#8b1a1a" points="120.95,-258.89 110.69,-256.25 117.06,-264.71 120.95,-258.89"/>
</a>
</g>
</g>
<!-- Node4 -->
<g id="Node000004" class="node">
<title>Node4</title>
<g id="a_Node000004"><a xlink:href="classpsr_1_1MaybeUniquePtr.html" target="_top" xlink:title=" ">
<polygon fill="white" stroke="#666666" points="367,-304 248,-304 248,-274 367,-274 367,-304"/>
<text text-anchor="start" x="256" y="-292" font-family="Helvetica,sans-Serif" font-size="10.00">psr::MaybeUniquePtr</text>
<text text-anchor="middle" x="307.5" y="-281" font-family="Helvetica,sans-Serif" font-size="10.00">&lt; llvm::Module &gt;</text>
</a>
</g>
</g>
<!-- Node0&#45;&gt;Node4 -->
<g id="edge230_Node000000_Node000004" class="edge">
<title>Node0&#45;&gt;Node4</title>
<g id="a_edge230_Node000000_Node000004"><a xlink:title=" ">
<path fill="none" stroke="#8b1a1a" d="M167.24,-258.27C193.77,-264.12 222.93,-270.56 247.69,-276.02"/>
<polygon fill="#8b1a1a" stroke="#8b1a1a" points="167.74,-254.79 157.22,-256.06 166.23,-261.63 167.74,-254.79"/>
</a>
</g>
</g>
<!-- Node5 -->
<g id="Node000005" class="node">
<title>Node5</title>
<g id="a_Node000005"><a xlink:href="classpsr_1_1MaybeUniquePtr.html" target="_top" xlink:title=" ">
<polygon fill="white" stroke="#666666" points="373,-256 242,-256 242,-226 373,-226 373,-256"/>
<text text-anchor="start" x="250" y="-244" font-family="Helvetica,sans-Serif" font-size="10.00">psr::MaybeUniquePtr</text>
<text text-anchor="middle" x="307.5" y="-233" font-family="Helvetica,sans-Serif" font-size="10.00">&lt; llvm::raw_ostream &gt;</text>
</a>
</g>
</g>
<!-- Node0&#45;&gt;Node5 -->
<g id="edge231_Node000000_Node000005" class="edge">
<title>Node0&#45;&gt;Node5</title>
<g id="a_edge231_Node000000_Node000005"><a xlink:title=" ">
<path fill="none" stroke="#8b1a1a" d="M186.28,-241C205.05,-241 224.28,-241 241.71,-241"/>
<polygon fill="#8b1a1a" stroke="#8b1a1a" points="186.21,-237.5 176.21,-241 186.21,-244.5 186.21,-237.5"/>
</a>
</g>
</g>
<!-- Node6 -->
<g id="Node000006" class="node">
<title>Node6</title>
<g id="a_Node000006"><a xlink:href="classpsr_1_1MaybeUniquePtr.html" target="_top" xlink:title=" ">
<polygon fill="white" stroke="#666666" points="379,-208 236,-208 236,-156 379,-156 379,-208"/>
<text text-anchor="start" x="244" y="-196" font-family="Helvetica,sans-Serif" font-size="10.00">psr::MaybeUniquePtr</text>
<text text-anchor="start" x="244" y="-185" font-family="Helvetica,sans-Serif" font-size="10.00">&lt; const CallGraph&lt; const</text>
<text text-anchor="start" x="244" y="-174" font-family="Helvetica,sans-Serif" font-size="10.00"> llvm::Instruction *, const</text>
<text text-anchor="middle" x="307.5" y="-163" font-family="Helvetica,sans-Serif" font-size="10.00"> llvm::Function * &gt; &gt;</text>
</a>
</g>
</g>
<!-- Node0&#45;&gt;Node6 -->
<g id="edge232_Node000000_Node000006" class="edge">
<title>Node0&#45;&gt;Node6</title>
<g id="a_edge232_Node000000_Node000006"><a xlink:title=" ">
<path fill="none" stroke="#8b1a1a" d="M154.12,-223.33C179.91,-216.34 209.62,-208.28 235.92,-201.15"/>
<polygon fill="#8b1a1a" stroke="#8b1a1a" points="153.18,-219.96 144.45,-225.96 155.01,-226.72 153.18,-219.96"/>
</a>
</g>
</g>
<!-- Node7 -->
<g id="Node000007" class="node">
<title>Node7</title>
<g id="a_Node000007"><a xlink:href="classpsr_1_1MaybeUniquePtr.html" target="_top" xlink:title=" ">
<polygon fill="white" stroke="#666666" points="367,-138 248,-138 248,-108 367,-108 367,-138"/>
<text text-anchor="start" x="256" y="-126" font-family="Helvetica,sans-Serif" font-size="10.00">psr::MaybeUniquePtr</text>
<text text-anchor="middle" x="307.5" y="-115" font-family="Helvetica,sans-Serif" font-size="10.00">&lt; psr::Resolver &gt;</text>
</a>
</g>
</g>
<!-- Node0&#45;&gt;Node7 -->
<g id="edge233_Node000000_Node000007" class="edge">
<title>Node0&#45;&gt;Node7</title>
<g id="a_edge233_Node000000_Node000007"><a xlink:title=" ">
<path fill="none" stroke="#8b1a1a" d="M111.93,-218.85C135.29,-197.46 173.48,-165.64 212,-147 223.12,-141.62 235.59,-137.35 247.72,-134.01"/>
<polygon fill="#8b1a1a" stroke="#8b1a1a" points="109.24,-216.57 104.3,-225.94 114.01,-221.69 109.24,-216.57"/>
</a>
</g>
</g>
<!-- Node8 -->
<g id="Node000008" class="node">
<title>Node8</title>
<g id="a_Node000008"><a xlink:href="classpsr_1_1MaybeUniquePtr.html" target="_top" xlink:title=" ">
<polygon fill="white" stroke="#666666" points="384.5,-89.5 230.5,-89.5 230.5,-48.5 384.5,-48.5 384.5,-89.5"/>
<text text-anchor="start" x="238.5" y="-77.5" font-family="Helvetica,sans-Serif" font-size="10.00">psr::MaybeUniquePtr</text>
<text text-anchor="start" x="238.5" y="-66.5" font-family="Helvetica,sans-Serif" font-size="10.00">&lt; psr::LLVMPathConstraints,</text>
<text text-anchor="middle" x="307.5" y="-55.5" font-family="Helvetica,sans-Serif" font-size="10.00"> true &gt;</text>
</a>
</g>
</g>
<!-- Node0&#45;&gt;Node8 -->
<g id="edge234_Node000000_Node000008" class="edge">
<title>Node0&#45;&gt;Node8</title>
<g id="a_edge234_Node000000_Node000008"><a xlink:title=" ">
<path fill="none" stroke="#8b1a1a" d="M103.6,-217.13C124.05,-185.63 164.15,-130.5 212,-99 217.75,-95.21 224.01,-91.88 230.48,-88.95"/>
<polygon fill="#8b1a1a" stroke="#8b1a1a" points="100.55,-215.41 98.13,-225.72 106.45,-219.17 100.55,-215.41"/>
</a>
</g>
</g>
<!-- Node9 -->
<g id="Node000009" class="node">
<title>Node9</title>
<g id="a_Node000009"><a xlink:href="classpsr_1_1MaybeUniquePtr.html" target="_top" xlink:title=" ">
<polygon fill="white" stroke="#666666" points="377,-30 238,-30 238,0 377,0 377,-30"/>
<text text-anchor="start" x="246" y="-18" font-family="Helvetica,sans-Serif" font-size="10.00">psr::MaybeUniquePtr</text>
<text text-anchor="middle" x="307.5" y="-7" font-family="Helvetica,sans-Serif" font-size="10.00">&lt; T, RequireAlignment &gt;</text>
</a>
</g>
</g>
<!-- Node0&#45;&gt;Node9 -->
<g id="edge235_Node000000_Node000009" class="edge">
<title>Node0&#45;&gt;Node9</title>
<g id="a_edge235_Node000000_Node000009"><a xlink:title=" ">
<path fill="none" stroke="#8b1a1a" d="M97.14,-216.34C112.53,-173.66 150.01,-86.17 212,-40 219.62,-34.32 228.43,-29.93 237.54,-26.54"/>
<polygon fill="#8b1a1a" stroke="#8b1a1a" points="93.78,-215.34 93.78,-225.94 100.39,-217.65 93.78,-215.34"/>
</a>
</g>
</g>
</g>
</svg>
