<?xml version="1.0" encoding="UTF-8" standalone="no"?>
<!DOCTYPE svg PUBLIC "-//W3C//DTD SVG 1.1//EN"
 "http://www.w3.org/Graphics/SVG/1.1/DTD/svg11.dtd">
<!-- Generated by graphviz version 2.43.0 (0)
 -->
<!-- Title: Graphical Class Hierarchy Pages: 1 -->
<svg width="337pt" height="101pt"
 viewBox="0.00 0.00 337.00 101.00" xmlns="http://www.w3.org/2000/svg" xmlns:xlink="http://www.w3.org/1999/xlink">
<g id="graph0" class="graph" transform="scale(1 1) rotate(0) translate(4 97)">
<title>Graphical Class Hierarchy</title>
<!-- Node0 -->
<g id="Node000000" class="node">
<title>Node0</title>
<g id="a_Node000000"><a xlink:title=" ">
<polygon fill="#e0e0e0" stroke="#999999" points="131,-56 0,-56 0,-37 131,-37 131,-56"/>
<text text-anchor="middle" x="65.5" y="-44" font-family="Helvetica,sans-Serif" font-size="10.00">llvm::AnalysisInfoMixin</text>
</a>
</g>
</g>
<!-- Node1 -->
<g id="Node000001" class="node">
<title>Node1</title>
<g id="a_Node000001"><a xlink:href="classpsr_1_1ExampleModulePass.html" target="_top" xlink:title=" ">
<polygon fill="white" stroke="#666666" points="317,-93 179,-93 179,-74 317,-74 317,-93"/>
<text text-anchor="middle" x="248" y="-81" font-family="Helvetica,sans-Serif" font-size="10.00">psr::ExampleModulePass</text>
</a>
</g>
</g>
<!-- Node0&#45;&gt;Node1 -->
<g id="edge11_Node000000_Node000001" class="edge">
<title>Node0&#45;&gt;Node1</title>
<g id="a_edge11_Node000000_Node000001"><a xlink:title=" ">
<path fill="none" stroke="#63b8ff" d="M123.01,-58.08C147.88,-63.18 176.74,-69.1 200.36,-73.94"/>
<polygon fill="#63b8ff" stroke="#63b8ff" points="123.48,-54.61 112.98,-56.03 122.08,-61.47 123.48,-54.61"/>
</a>
</g>
</g>
<!-- Node2 -->
<g id="Node000002" class="node">
<title>Node2</title>
<g id="a_Node000002"><a xlink:href="classpsr_1_1GeneralStatisticsAnalysis.html" target="_top" xlink:title="Computes general statistics for a Module.">
<polygon fill="white" stroke="#666666" points="329,-56 167,-56 167,-37 329,-37 329,-56"/>
<text text-anchor="middle" x="248" y="-44" font-family="Helvetica,sans-Serif" font-size="10.00">psr::GeneralStatisticsAnalysis</text>
</a>
</g>
</g>
<!-- Node0&#45;&gt;Node2 -->
<g id="edge12_Node000000_Node000002" class="edge">
<title>Node0&#45;&gt;Node2</title>
<g id="a_edge12_Node000000_Node000002"><a xlink:title=" ">
<path fill="none" stroke="#63b8ff" d="M141.29,-46.5C149.69,-46.5 158.27,-46.5 166.73,-46.5"/>
<polygon fill="#63b8ff" stroke="#63b8ff" points="141.15,-43 131.15,-46.5 141.15,-50 141.15,-43"/>
</a>
</g>
</g>
<!-- Node3 -->
<g id="Node000003" class="node">
<title>Node3</title>
<g id="a_Node000003"><a xlink:href="classpsr_1_1ValueAnnotationPass.html" target="_top" xlink:title="Annotates every Instruction with a unique ID.">
<polygon fill="white" stroke="#666666" points="318,-19 178,-19 178,0 318,0 318,-19"/>
<text text-anchor="middle" x="248" y="-7" font-family="Helvetica,sans-Serif" font-size="10.00">psr::ValueAnnotationPass</text>
</a>
</g>
</g>
<!-- Node0&#45;&gt;Node3 -->
<g id="edge13_Node000000_Node000003" class="edge">
<title>Node0&#45;&gt;Node3</title>
<g id="a_edge13_Node000000_Node000003"><a xlink:title=" ">
<path fill="none" stroke="#63b8ff" d="M123.01,-34.92C147.88,-29.82 176.74,-23.9 200.36,-19.06"/>
<polygon fill="#63b8ff" stroke="#63b8ff" points="122.08,-31.53 112.98,-36.97 123.48,-38.39 122.08,-31.53"/>
</a>
</g>
</g>
</g>
</svg>
