<?xml version="1.0" encoding="UTF-8" standalone="no"?>
<!DOCTYPE svg PUBLIC "-//W3C//DTD SVG 1.1//EN"
 "http://www.w3.org/Graphics/SVG/1.1/DTD/svg11.dtd">
<!-- Generated by graphviz version 2.43.0 (0)
 -->
<!-- Title: Graphical Class Hierarchy Pages: 1 -->
<svg width="689pt" height="396pt"
 viewBox="0.00 0.00 689.00 396.00" xmlns="http://www.w3.org/2000/svg" xmlns:xlink="http://www.w3.org/1999/xlink">
<g id="graph0" class="graph" transform="scale(1 1) rotate(0) translate(4 392)">
<title>Graphical Class Hierarchy</title>
<!-- Node0 -->
<g id="Node000000" class="node">
<title>Node0</title>
<g id="a_Node000000"><a xlink:href="classpsr_1_1EdgeFunctionSingletonCache.html" target="_top" xlink:title=" ">
<polygon fill="white" stroke="#666666" points="149,-231.5 0,-231.5 0,-201.5 149,-201.5 149,-231.5"/>
<text text-anchor="start" x="8" y="-219.5" font-family="Helvetica,sans-Serif" font-size="10.00">psr::EdgeFunctionSingleton</text>
<text text-anchor="middle" x="74.5" y="-208.5" font-family="Helvetica,sans-Serif" font-size="10.00">Cache&lt; EdgeFunctionTy &gt;</text>
</a>
</g>
</g>
<!-- Node1 -->
<g id="Node000001" class="node">
<title>Node1</title>
<g id="a_Node000001"><a xlink:href="classpsr_1_1DefaultEdgeFunctionSingletonCacheImpl.html" target="_top" xlink:title=" ">
<polygon fill="white" stroke="#666666" points="395.5,-388 204.5,-388 204.5,-347 395.5,-347 395.5,-388"/>
<text text-anchor="start" x="212.5" y="-376" font-family="Helvetica,sans-Serif" font-size="10.00">psr::DefaultEdgeFunction</text>
<text text-anchor="start" x="212.5" y="-365" font-family="Helvetica,sans-Serif" font-size="10.00">SingletonCacheImpl&lt; EdgeFunction</text>
<text text-anchor="middle" x="300" y="-354" font-family="Helvetica,sans-Serif" font-size="10.00">Ty, EdgeFunctionTy::l_t &gt;</text>
</a>
</g>
</g>
<!-- Node0&#45;&gt;Node1 -->
<g id="edge255_Node000000_Node000001" class="edge">
<title>Node0&#45;&gt;Node1</title>
<g id="a_edge255_Node000000_Node000001"><a xlink:title=" ">
<path fill="none" stroke="#63b8ff" d="M90.37,-240.25C109.05,-268.06 143.69,-313.5 185,-338.5 191.12,-342.2 197.69,-345.43 204.48,-348.25"/>
<polygon fill="#63b8ff" stroke="#63b8ff" points="93.3,-238.33 84.88,-231.89 87.45,-242.17 93.3,-238.33"/>
</a>
</g>
</g>
<!-- Node3 -->
<g id="Node000003" class="node">
<title>Node3</title>
<g id="a_Node000003"><a xlink:href="classpsr_1_1DefaultEdgeFunctionSingletonCacheImpl.html" target="_top" xlink:title=" ">
<polygon fill="white" stroke="#666666" points="385,-329 215,-329 215,-288 385,-288 385,-329"/>
<text text-anchor="start" x="223" y="-317" font-family="Helvetica,sans-Serif" font-size="10.00">psr::DefaultEdgeFunction</text>
<text text-anchor="start" x="223" y="-306" font-family="Helvetica,sans-Serif" font-size="10.00">SingletonCacheImpl&lt; Generate</text>
<text text-anchor="middle" x="300" y="-295" font-family="Helvetica,sans-Serif" font-size="10.00">EF, l_t &gt;</text>
</a>
</g>
</g>
<!-- Node0&#45;&gt;Node3 -->
<g id="edge257_Node000000_Node000003" class="edge">
<title>Node0&#45;&gt;Node3</title>
<g id="a_edge257_Node000000_Node000003"><a xlink:title=" ">
<path fill="none" stroke="#63b8ff" d="M106.26,-237.25C127.6,-250.86 157.08,-268.17 185,-279.5 194.46,-283.34 204.58,-286.79 214.73,-289.85"/>
<polygon fill="#63b8ff" stroke="#63b8ff" points="107.94,-234.16 97.65,-231.67 104.14,-240.04 107.94,-234.16"/>
</a>
</g>
</g>
<!-- Node4 -->
<g id="Node000004" class="node">
<title>Node4</title>
<g id="a_Node000004"><a xlink:href="classpsr_1_1DefaultEdgeFunctionSingletonCacheImpl.html" target="_top" xlink:title=" ">
<polygon fill="white" stroke="#666666" points="384.5,-270 215.5,-270 215.5,-229 384.5,-229 384.5,-270"/>
<text text-anchor="start" x="223.5" y="-258" font-family="Helvetica,sans-Serif" font-size="10.00">psr::DefaultEdgeFunction</text>
<text text-anchor="start" x="223.5" y="-247" font-family="Helvetica,sans-Serif" font-size="10.00">SingletonCacheImpl&lt; AddFacts</text>
<text text-anchor="middle" x="300" y="-236" font-family="Helvetica,sans-Serif" font-size="10.00">EF, l_t &gt;</text>
</a>
</g>
</g>
<!-- Node0&#45;&gt;Node4 -->
<g id="edge258_Node000000_Node000004" class="edge">
<title>Node0&#45;&gt;Node4</title>
<g id="a_edge258_Node000000_Node000004"><a xlink:title=" ">
<path fill="none" stroke="#63b8ff" d="M159.33,-228.88C177.61,-231.58 196.95,-234.43 215.22,-237.13"/>
<polygon fill="#63b8ff" stroke="#63b8ff" points="159.71,-225.4 149.3,-227.4 158.68,-232.32 159.71,-225.4"/>
</a>
</g>
</g>
<!-- Node5 -->
<g id="Node000005" class="node">
<title>Node5</title>
<g id="a_Node000005"><a xlink:href="classpsr_1_1DefaultEdgeFunctionSingletonCacheImpl.html" target="_top" xlink:title=" ">
<polygon fill="white" stroke="#666666" points="407.5,-210.5 192.5,-210.5 192.5,-158.5 407.5,-158.5 407.5,-210.5"/>
<text text-anchor="start" x="200.5" y="-198.5" font-family="Helvetica,sans-Serif" font-size="10.00">psr::DefaultEdgeFunction</text>
<text text-anchor="start" x="200.5" y="-187.5" font-family="Helvetica,sans-Serif" font-size="10.00">SingletonCacheImpl&lt; psr</text>
<text text-anchor="start" x="200.5" y="-176.5" font-family="Helvetica,sans-Serif" font-size="10.00">::IDEInstInteractionAnalysisT</text>
<text text-anchor="middle" x="300" y="-165.5" font-family="Helvetica,sans-Serif" font-size="10.00">::IIAAAddLabelsEF, EdgeFunctionTy::l_t &gt;</text>
</a>
</g>
</g>
<!-- Node0&#45;&gt;Node5 -->
<g id="edge259_Node000000_Node000005" class="edge">
<title>Node0&#45;&gt;Node5</title>
<g id="a_edge259_Node000000_Node000005"><a xlink:title=" ">
<path fill="none" stroke="#63b8ff" d="M159.42,-204.48C170.1,-202.96 181.14,-201.37 192.12,-199.8"/>
<polygon fill="#63b8ff" stroke="#63b8ff" points="158.7,-201.05 149.3,-205.93 159.7,-207.98 158.7,-201.05"/>
</a>
</g>
</g>
<!-- Node6 -->
<g id="Node000006" class="node">
<title>Node6</title>
<g id="a_Node000006"><a xlink:href="classpsr_1_1DefaultEdgeFunctionSingletonCacheImpl.html" target="_top" xlink:title=" ">
<polygon fill="white" stroke="#666666" points="415,-140.5 185,-140.5 185,-88.5 415,-88.5 415,-140.5"/>
<text text-anchor="start" x="193" y="-128.5" font-family="Helvetica,sans-Serif" font-size="10.00">psr::DefaultEdgeFunction</text>
<text text-anchor="start" x="193" y="-117.5" font-family="Helvetica,sans-Serif" font-size="10.00">SingletonCacheImpl&lt; psr</text>
<text text-anchor="start" x="193" y="-106.5" font-family="Helvetica,sans-Serif" font-size="10.00">::IDEInstInteractionAnalysisT</text>
<text text-anchor="middle" x="300" y="-95.5" font-family="Helvetica,sans-Serif" font-size="10.00">::IIAAKillOrReplaceEF, EdgeFunctionTy::l_t &gt;</text>
</a>
</g>
</g>
<!-- Node0&#45;&gt;Node6 -->
<g id="edge260_Node000000_Node000006" class="edge">
<title>Node0&#45;&gt;Node6</title>
<g id="a_edge260_Node000000_Node000006"><a xlink:title=" ">
<path fill="none" stroke="#63b8ff" d="M104.77,-195.79C126.2,-181.33 156.43,-162.38 185,-149.5 191.98,-146.35 199.33,-143.38 206.79,-140.61"/>
<polygon fill="#63b8ff" stroke="#63b8ff" points="102.71,-192.95 96.43,-201.48 106.66,-198.73 102.71,-192.95"/>
</a>
</g>
</g>
<!-- Node7 -->
<g id="Node000007" class="node">
<title>Node7</title>
<g id="a_Node000007"><a xlink:href="classpsr_1_1DefaultEdgeFunctionSingletonCacheImpl.html" target="_top" xlink:title=" ">
<polygon fill="white" stroke="#666666" points="395.5,-70 204.5,-70 204.5,-29 395.5,-29 395.5,-70"/>
<text text-anchor="start" x="212.5" y="-58" font-family="Helvetica,sans-Serif" font-size="10.00">psr::DefaultEdgeFunction</text>
<text text-anchor="start" x="212.5" y="-47" font-family="Helvetica,sans-Serif" font-size="10.00">SingletonCacheImpl&lt; EdgeFunction</text>
<text text-anchor="middle" x="300" y="-36" font-family="Helvetica,sans-Serif" font-size="10.00">Ty, L &gt;</text>
</a>
</g>
</g>
<!-- Node0&#45;&gt;Node7 -->
<g id="edge261_Node000000_Node000007" class="edge">
<title>Node0&#45;&gt;Node7</title>
<g id="a_edge261_Node000000_Node000007"><a xlink:title=" ">
<path fill="none" stroke="#63b8ff" d="M88.34,-192.23C105.97,-161.3 140.59,-108.4 185,-79.5 191,-75.59 197.5,-72.19 204.23,-69.24"/>
<polygon fill="#63b8ff" stroke="#63b8ff" points="85.22,-190.63 83.42,-201.07 91.34,-194.03 85.22,-190.63"/>
</a>
</g>
</g>
<!-- Node2 -->
<g id="Node000002" class="node">
<title>Node2</title>
<g id="a_Node000002"><a xlink:href="classpsr_1_1DefaultEdgeFunctionSingletonCache.html" target="_top" xlink:title=" ">
<polygon fill="white" stroke="#666666" points="650.5,-388 481.5,-388 481.5,-347 650.5,-347 650.5,-388"/>
<text text-anchor="start" x="489.5" y="-376" font-family="Helvetica,sans-Serif" font-size="10.00">psr::DefaultEdgeFunction</text>
<text text-anchor="start" x="489.5" y="-365" font-family="Helvetica,sans-Serif" font-size="10.00">SingletonCache&lt; EdgeFunction</text>
<text text-anchor="middle" x="566" y="-354" font-family="Helvetica,sans-Serif" font-size="10.00">Ty, typename &gt;</text>
</a>
</g>
</g>
<!-- Node1&#45;&gt;Node2 -->
<g id="edge256_Node000001_Node000002" class="edge">
<title>Node1&#45;&gt;Node2</title>
<g id="a_edge256_Node000001_Node000002"><a xlink:title=" ">
<path fill="none" stroke="#63b8ff" d="M405.82,-367.5C430.85,-367.5 457.23,-367.5 481.17,-367.5"/>
<polygon fill="#63b8ff" stroke="#63b8ff" points="405.56,-364 395.56,-367.5 405.56,-371 405.56,-364"/>
</a>
</g>
</g>
<!-- Node8 -->
<g id="Node000008" class="node">
<title>Node8</title>
<g id="a_Node000008"><a xlink:href="classpsr_1_1DefaultEdgeFunctionSingletonCache.html" target="_top" xlink:title=" ">
<polygon fill="white" stroke="#666666" points="673.5,-100 458.5,-100 458.5,-59 673.5,-59 673.5,-100"/>
<text text-anchor="start" x="466.5" y="-88" font-family="Helvetica,sans-Serif" font-size="10.00">psr::DefaultEdgeFunction</text>
<text text-anchor="start" x="466.5" y="-77" font-family="Helvetica,sans-Serif" font-size="10.00">SingletonCache&lt; psr::IDEInst</text>
<text text-anchor="middle" x="566" y="-66" font-family="Helvetica,sans-Serif" font-size="10.00">InteractionAnalysisT::IIAAAddLabelsEF &gt;</text>
</a>
</g>
</g>
<!-- Node7&#45;&gt;Node8 -->
<g id="edge262_Node000007_Node000008" class="edge">
<title>Node7&#45;&gt;Node8</title>
<g id="a_edge262_Node000007_Node000008"><a xlink:title=" ">
<path fill="none" stroke="#63b8ff" d="M405.64,-61.39C422.88,-63.35 440.78,-65.38 458.09,-67.35"/>
<polygon fill="#63b8ff" stroke="#63b8ff" points="405.9,-57.9 395.56,-60.25 405.11,-64.85 405.9,-57.9"/>
</a>
</g>
</g>
<!-- Node9 -->
<g id="Node000009" class="node">
<title>Node9</title>
<g id="a_Node000009"><a xlink:href="classpsr_1_1DefaultEdgeFunctionSingletonCache.html" target="_top" xlink:title=" ">
<polygon fill="white" stroke="#666666" points="681,-41 451,-41 451,0 681,0 681,-41"/>
<text text-anchor="start" x="459" y="-29" font-family="Helvetica,sans-Serif" font-size="10.00">psr::DefaultEdgeFunction</text>
<text text-anchor="start" x="459" y="-18" font-family="Helvetica,sans-Serif" font-size="10.00">SingletonCache&lt; psr::IDEInst</text>
<text text-anchor="middle" x="566" y="-7" font-family="Helvetica,sans-Serif" font-size="10.00">InteractionAnalysisT::IIAAKillOrReplaceEF &gt;</text>
</a>
</g>
</g>
<!-- Node7&#45;&gt;Node9 -->
<g id="edge263_Node000007_Node000009" class="edge">
<title>Node7&#45;&gt;Node9</title>
<g id="a_edge263_Node000007_Node000009"><a xlink:title=" ">
<path fill="none" stroke="#63b8ff" d="M405.73,-38C420.54,-36.37 435.83,-34.69 450.8,-33.04"/>
<polygon fill="#63b8ff" stroke="#63b8ff" points="405.12,-34.54 395.56,-39.11 405.89,-41.5 405.12,-34.54"/>
</a>
</g>
</g>
</g>
</svg>
