<?xml version="1.0" encoding="UTF-8" standalone="no"?>
<!DOCTYPE svg PUBLIC "-//W3C//DTD SVG 1.1//EN"
 "http://www.w3.org/Graphics/SVG/1.1/DTD/svg11.dtd">
<!-- Generated by graphviz version 2.43.0 (0)
 -->
<!-- Title: Graphical Class Hierarchy Pages: 1 -->
<svg width="620pt" height="278pt"
 viewBox="0.00 0.00 620.00 278.00" xmlns="http://www.w3.org/2000/svg" xmlns:xlink="http://www.w3.org/1999/xlink">
<g id="graph0" class="graph" transform="scale(1 1) rotate(0) translate(4 274)">
<title>Graphical Class Hierarchy</title>
<!-- Node0 -->
<g id="Node000000" class="node">
<title>Node0</title>
<g id="a_Node000000"><a xlink:href="structpsr_1_1TypeStateDescriptionBase.html" target="_top" xlink:title=" ">
<polygon fill="white" stroke="#666666" points="165,-144.5 0,-144.5 0,-125.5 165,-125.5 165,-144.5"/>
<text text-anchor="middle" x="82.5" y="-132.5" font-family="Helvetica,sans-Serif" font-size="10.00">psr::TypeStateDescriptionBase</text>
</a>
</g>
</g>
<!-- Node1 -->
<g id="Node000001" class="node">
<title>Node1</title>
<g id="a_Node000001"><a xlink:href="structpsr_1_1TypeStateDescription.html" target="_top" xlink:title=" ">
<polygon fill="white" stroke="#666666" points="362,-270 221,-270 221,-240 362,-240 362,-270"/>
<text text-anchor="start" x="229" y="-258" font-family="Helvetica,sans-Serif" font-size="10.00">psr::TypeStateDescription</text>
<text text-anchor="middle" x="291.5" y="-247" font-family="Helvetica,sans-Serif" font-size="10.00">&lt; CSTDFILEIOState &gt;</text>
</a>
</g>
</g>
<!-- Node0&#45;&gt;Node1 -->
<g id="edge323_Node000000_Node000001" class="edge">
<title>Node0&#45;&gt;Node1</title>
<g id="a_edge323_Node000000_Node000001"><a xlink:title=" ">
<path fill="none" stroke="#63b8ff" d="M99.79,-152.21C121.08,-173.72 160.46,-210.23 201,-231 207.59,-234.37 214.69,-237.31 221.93,-239.86"/>
<polygon fill="#63b8ff" stroke="#63b8ff" points="102.03,-149.49 92.55,-144.76 97.01,-154.37 102.03,-149.49"/>
</a>
</g>
</g>
<!-- Node3 -->
<g id="Node000003" class="node">
<title>Node3</title>
<g id="a_Node000003"><a xlink:href="structpsr_1_1TypeStateDescription.html" target="_top" xlink:title=" ">
<polygon fill="white" stroke="#666666" points="374.5,-222 208.5,-222 208.5,-192 374.5,-192 374.5,-222"/>
<text text-anchor="start" x="216.5" y="-210" font-family="Helvetica,sans-Serif" font-size="10.00">psr::TypeStateDescription</text>
<text text-anchor="middle" x="291.5" y="-199" font-family="Helvetica,sans-Serif" font-size="10.00">&lt; OpenSSLEVPKDFCTXState &gt;</text>
</a>
</g>
</g>
<!-- Node0&#45;&gt;Node3 -->
<g id="edge325_Node000000_Node000003" class="edge">
<title>Node0&#45;&gt;Node3</title>
<g id="a_edge325_Node000000_Node000003"><a xlink:title=" ">
<path fill="none" stroke="#63b8ff" d="M114.27,-148.81C137.74,-159.05 171.03,-172.91 201,-183 210.3,-186.13 220.25,-189.13 230.01,-191.89"/>
<polygon fill="#63b8ff" stroke="#63b8ff" points="115.41,-145.49 104.85,-144.67 112.59,-151.9 115.41,-145.49"/>
</a>
</g>
</g>
<!-- Node5 -->
<g id="Node000005" class="node">
<title>Node5</title>
<g id="a_Node000005"><a xlink:href="structpsr_1_1TypeStateDescription.html" target="_top" xlink:title=" ">
<polygon fill="white" stroke="#666666" points="364.5,-174 218.5,-174 218.5,-144 364.5,-144 364.5,-174"/>
<text text-anchor="start" x="226.5" y="-162" font-family="Helvetica,sans-Serif" font-size="10.00">psr::TypeStateDescription</text>
<text text-anchor="middle" x="291.5" y="-151" font-family="Helvetica,sans-Serif" font-size="10.00">&lt; OpenSSLEVPKDFState &gt;</text>
</a>
</g>
</g>
<!-- Node0&#45;&gt;Node5 -->
<g id="edge327_Node000000_Node000005" class="edge">
<title>Node0&#45;&gt;Node5</title>
<g id="a_edge327_Node000000_Node000005"><a xlink:title=" ">
<path fill="none" stroke="#63b8ff" d="M175.02,-145.61C189.57,-147.3 204.44,-149.02 218.46,-150.65"/>
<polygon fill="#63b8ff" stroke="#63b8ff" points="175.35,-142.13 165.01,-144.45 174.55,-149.08 175.35,-142.13"/>
</a>
</g>
</g>
<!-- Node7 -->
<g id="Node000007" class="node">
<title>Node7</title>
<g id="a_Node000007"><a xlink:href="structpsr_1_1TypeStateDescription.html" target="_top" xlink:title=" ">
<polygon fill="white" stroke="#666666" points="374.5,-126 208.5,-126 208.5,-96 374.5,-96 374.5,-126"/>
<text text-anchor="start" x="216.5" y="-114" font-family="Helvetica,sans-Serif" font-size="10.00">psr::TypeStateDescription</text>
<text text-anchor="middle" x="291.5" y="-103" font-family="Helvetica,sans-Serif" font-size="10.00">&lt; OpenSSLSecureHeapState &gt;</text>
</a>
</g>
</g>
<!-- Node0&#45;&gt;Node7 -->
<g id="edge329_Node000000_Node000007" class="edge">
<title>Node0&#45;&gt;Node7</title>
<g id="a_edge329_Node000000_Node000007"><a xlink:title=" ">
<path fill="none" stroke="#63b8ff" d="M175.12,-124.38C186.19,-123.09 197.45,-121.79 208.38,-120.52"/>
<polygon fill="#63b8ff" stroke="#63b8ff" points="174.55,-120.92 165.01,-125.55 175.35,-127.87 174.55,-120.92"/>
</a>
</g>
</g>
<!-- Node9 -->
<g id="Node000009" class="node">
<title>Node9</title>
<g id="a_Node000009"><a xlink:href="structpsr_1_1TypeStateDescription.html" target="_top" xlink:title=" ">
<polygon fill="white" stroke="#666666" points="382,-78 201,-78 201,-48 382,-48 382,-78"/>
<text text-anchor="start" x="209" y="-66" font-family="Helvetica,sans-Serif" font-size="10.00">psr::TypeStateDescription</text>
<text text-anchor="middle" x="291.5" y="-55" font-family="Helvetica,sans-Serif" font-size="10.00">&lt; OpenSSLSecureMemoryState &gt;</text>
</a>
</g>
</g>
<!-- Node0&#45;&gt;Node9 -->
<g id="edge331_Node000000_Node000009" class="edge">
<title>Node0&#45;&gt;Node9</title>
<g id="a_edge331_Node000000_Node000009"><a xlink:title=" ">
<path fill="none" stroke="#63b8ff" d="M114.27,-121.19C137.74,-110.95 171.03,-97.09 201,-87 210.3,-83.87 220.25,-80.87 230.01,-78.11"/>
<polygon fill="#63b8ff" stroke="#63b8ff" points="112.59,-118.1 104.85,-125.33 115.41,-124.51 112.59,-118.1"/>
</a>
</g>
</g>
<!-- Node11 -->
<g id="Node000011" class="node">
<title>Node11</title>
<g id="a_Node000011"><a xlink:href="structpsr_1_1TypeStateDescription.html" target="_top" xlink:title=" ">
<polygon fill="white" stroke="#666666" points="362,-30 221,-30 221,0 362,0 362,-30"/>
<text text-anchor="start" x="229" y="-18" font-family="Helvetica,sans-Serif" font-size="10.00">psr::TypeStateDescription</text>
<text text-anchor="middle" x="291.5" y="-7" font-family="Helvetica,sans-Serif" font-size="10.00">&lt; StateTy &gt;</text>
</a>
</g>
</g>
<!-- Node0&#45;&gt;Node11 -->
<g id="edge333_Node000000_Node000011" class="edge">
<title>Node0&#45;&gt;Node11</title>
<g id="a_edge333_Node000000_Node000011"><a xlink:title=" ">
<path fill="none" stroke="#63b8ff" d="M99.79,-117.79C121.08,-96.28 160.46,-59.77 201,-39 207.59,-35.63 214.69,-32.69 221.93,-30.14"/>
<polygon fill="#63b8ff" stroke="#63b8ff" points="97.01,-115.63 92.55,-125.24 102.03,-120.51 97.01,-115.63"/>
</a>
</g>
</g>
<!-- Node2 -->
<g id="Node000002" class="node">
<title>Node2</title>
<g id="a_Node000002"><a xlink:href="classpsr_1_1CSTDFILEIOTypeStateDescription.html" target="_top" xlink:title=" ">
<polygon fill="white" stroke="#666666" points="586.5,-270 443.5,-270 443.5,-240 586.5,-240 586.5,-270"/>
<text text-anchor="start" x="451.5" y="-258" font-family="Helvetica,sans-Serif" font-size="10.00">psr::CSTDFILEIOTypeState</text>
<text text-anchor="middle" x="515" y="-247" font-family="Helvetica,sans-Serif" font-size="10.00">Description</text>
</a>
</g>
</g>
<!-- Node1&#45;&gt;Node2 -->
<g id="edge324_Node000001_Node000002" class="edge">
<title>Node1&#45;&gt;Node2</title>
<g id="a_edge324_Node000001_Node000002"><a xlink:title=" ">
<path fill="none" stroke="#63b8ff" d="M372.44,-255C395.66,-255 420.83,-255 443.43,-255"/>
<polygon fill="#63b8ff" stroke="#63b8ff" points="372.28,-251.5 362.28,-255 372.28,-258.5 372.28,-251.5"/>
</a>
</g>
</g>
<!-- Node4 -->
<g id="Node000004" class="node">
<title>Node4</title>
<g id="a_Node000004"><a xlink:href="classpsr_1_1OpenSSLEVPKDFCTXDescription.html" target="_top" xlink:title=" ">
<polygon fill="white" stroke="#666666" points="612,-216.5 418,-216.5 418,-197.5 612,-197.5 612,-216.5"/>
<text text-anchor="middle" x="515" y="-204.5" font-family="Helvetica,sans-Serif" font-size="10.00">psr::OpenSSLEVPKDFCTXDescription</text>
</a>
</g>
</g>
<!-- Node3&#45;&gt;Node4 -->
<g id="edge326_Node000003_Node000004" class="edge">
<title>Node3&#45;&gt;Node4</title>
<g id="a_edge326_Node000003_Node000004"><a xlink:title=" ">
<path fill="none" stroke="#63b8ff" d="M384.96,-207C395.8,-207 406.87,-207 417.75,-207"/>
<polygon fill="#63b8ff" stroke="#63b8ff" points="384.66,-203.5 374.66,-207 384.66,-210.5 384.66,-203.5"/>
</a>
</g>
</g>
<!-- Node6 -->
<g id="Node000006" class="node">
<title>Node6</title>
<g id="a_Node000006"><a xlink:href="classpsr_1_1OpenSSLEVPKDFDescription.html" target="_top" xlink:title=" ">
<polygon fill="white" stroke="#666666" points="602.5,-168.5 427.5,-168.5 427.5,-149.5 602.5,-149.5 602.5,-168.5"/>
<text text-anchor="middle" x="515" y="-156.5" font-family="Helvetica,sans-Serif" font-size="10.00">psr::OpenSSLEVPKDFDescription</text>
</a>
</g>
</g>
<!-- Node5&#45;&gt;Node6 -->
<g id="edge328_Node000005_Node000006" class="edge">
<title>Node5&#45;&gt;Node6</title>
<g id="a_edge328_Node000005_Node000006"><a xlink:title=" ">
<path fill="none" stroke="#63b8ff" d="M375.16,-159C392.14,-159 410.07,-159 427.2,-159"/>
<polygon fill="#63b8ff" stroke="#63b8ff" points="374.72,-155.5 364.72,-159 374.72,-162.5 374.72,-155.5"/>
</a>
</g>
</g>
<!-- Node8 -->
<g id="Node000008" class="node">
<title>Node8</title>
<g id="a_Node000008"><a xlink:href="classpsr_1_1OpenSSLSecureHeapDescription.html" target="_top" xlink:title=" ">
<polygon fill="white" stroke="#666666" points="612,-120.5 418,-120.5 418,-101.5 612,-101.5 612,-120.5"/>
<text text-anchor="middle" x="515" y="-108.5" font-family="Helvetica,sans-Serif" font-size="10.00">psr::OpenSSLSecureHeapDescription</text>
</a>
</g>
</g>
<!-- Node7&#45;&gt;Node8 -->
<g id="edge330_Node000007_Node000008" class="edge">
<title>Node7&#45;&gt;Node8</title>
<g id="a_edge330_Node000007_Node000008"><a xlink:title=" ">
<path fill="none" stroke="#63b8ff" d="M384.96,-111C395.8,-111 406.87,-111 417.75,-111"/>
<polygon fill="#63b8ff" stroke="#63b8ff" points="384.66,-107.5 374.66,-111 384.66,-114.5 384.66,-107.5"/>
</a>
</g>
</g>
<!-- Node10 -->
<g id="Node000010" class="node">
<title>Node10</title>
<g id="a_Node000010"><a xlink:href="classpsr_1_1OpenSSLSecureMemoryDescription.html" target="_top" xlink:title=" ">
<polygon fill="white" stroke="#666666" points="592,-78 438,-78 438,-48 592,-48 592,-78"/>
<text text-anchor="start" x="446" y="-66" font-family="Helvetica,sans-Serif" font-size="10.00">psr::OpenSSLSecureMemory</text>
<text text-anchor="middle" x="515" y="-55" font-family="Helvetica,sans-Serif" font-size="10.00">Description</text>
</a>
</g>
</g>
<!-- Node9&#45;&gt;Node10 -->
<g id="edge332_Node000009_Node000010" class="edge">
<title>Node9&#45;&gt;Node10</title>
<g id="a_edge332_Node000009_Node000010"><a xlink:title=" ">
<path fill="none" stroke="#63b8ff" d="M392.29,-63C407.62,-63 423.24,-63 437.94,-63"/>
<polygon fill="#63b8ff" stroke="#63b8ff" points="392.27,-59.5 382.27,-63 392.27,-66.5 392.27,-59.5"/>
</a>
</g>
</g>
</g>
</svg>
