<?xml version="1.0" encoding="UTF-8" standalone="no"?>
<!DOCTYPE svg PUBLIC "-//W3C//DTD SVG 1.1//EN"
 "http://www.w3.org/Graphics/SVG/1.1/DTD/svg11.dtd">
<!-- Generated by graphviz version 2.43.0 (0)
 -->
<!-- Title: Graphical Class Hierarchy Pages: 1 -->
<svg width="302pt" height="124pt"
 viewBox="0.00 0.00 302.00 124.00" xmlns="http://www.w3.org/2000/svg" xmlns:xlink="http://www.w3.org/1999/xlink">
<g id="graph0" class="graph" transform="scale(1 1) rotate(0) translate(4 120)">
<title>Graphical Class Hierarchy</title>
<!-- Node0 -->
<g id="Node000000" class="node">
<title>Node0</title>
<g id="a_Node000000"><a xlink:href="classpsr_1_1EdgeFunctionBase.html" target="_top" xlink:title=" ">
<polygon fill="white" stroke="#666666" points="127,-67.5 0,-67.5 0,-48.5 127,-48.5 127,-67.5"/>
<text text-anchor="middle" x="63.5" y="-55.5" font-family="Helvetica,sans-Serif" font-size="10.00">psr::EdgeFunctionBase</text>
</a>
</g>
</g>
<!-- Node1 -->
<g id="Node000001" class="node">
<title>Node1</title>
<g id="a_Node000001"><a xlink:href="classpsr_1_1EdgeFunction.html" target="_top" xlink:title=" ">
<polygon fill="white" stroke="#666666" points="284,-116 173,-116 173,-86 284,-86 284,-116"/>
<text text-anchor="start" x="181" y="-104" font-family="Helvetica,sans-Serif" font-size="10.00">psr::EdgeFunction&lt;</text>
<text text-anchor="middle" x="228.5" y="-93" font-family="Helvetica,sans-Serif" font-size="10.00"> l_t &gt;</text>
</a>
</g>
</g>
<!-- Node0&#45;&gt;Node1 -->
<g id="edge245_Node000000_Node000001" class="edge">
<title>Node0&#45;&gt;Node1</title>
<g id="a_edge245_Node000000_Node000001"><a xlink:title=" ">
<path fill="none" stroke="#8b1a1a" d="M110.48,-70.13C129.87,-75.24 152.59,-81.24 172.83,-86.58"/>
<polygon fill="#8b1a1a" stroke="#8b1a1a" points="111.24,-66.71 100.67,-67.54 109.45,-73.48 111.24,-66.71"/>
</a>
</g>
</g>
<!-- Node2 -->
<g id="Node000002" class="node">
<title>Node2</title>
<g id="a_Node000002"><a xlink:href="classpsr_1_1EdgeFunction.html" target="_top" xlink:title="Ref&#45;counted and type&#45;erased edge function with small&#45;object optimization. Supports caching.">
<polygon fill="white" stroke="#666666" points="294,-67.5 163,-67.5 163,-48.5 294,-48.5 294,-67.5"/>
<text text-anchor="middle" x="228.5" y="-55.5" font-family="Helvetica,sans-Serif" font-size="10.00">psr::EdgeFunction&lt; L &gt;</text>
</a>
</g>
</g>
<!-- Node0&#45;&gt;Node2 -->
<g id="edge246_Node000000_Node000002" class="edge">
<title>Node0&#45;&gt;Node2</title>
<g id="a_edge246_Node000000_Node000002"><a xlink:title=" ">
<path fill="none" stroke="#8b1a1a" d="M137.09,-58C145.7,-58 154.46,-58 162.95,-58"/>
<polygon fill="#8b1a1a" stroke="#8b1a1a" points="137.05,-54.5 127.05,-58 137.05,-61.5 137.05,-54.5"/>
</a>
</g>
</g>
<!-- Node3 -->
<g id="Node000003" class="node">
<title>Node3</title>
<g id="a_Node000003"><a xlink:href="classpsr_1_1EdgeFunctionRef.html" target="_top" xlink:title="Non&#45;null reference to an edge function that is guarenteed to be managed by an EdgeFunction object.">
<polygon fill="white" stroke="#666666" points="288,-30 169,-30 169,0 288,0 288,-30"/>
<text text-anchor="start" x="177" y="-18" font-family="Helvetica,sans-Serif" font-size="10.00">psr::EdgeFunctionRef</text>
<text text-anchor="middle" x="228.5" y="-7" font-family="Helvetica,sans-Serif" font-size="10.00">&lt; EF &gt;</text>
</a>
</g>
</g>
<!-- Node0&#45;&gt;Node3 -->
<g id="edge247_Node000000_Node000003" class="edge">
<title>Node0&#45;&gt;Node3</title>
<g id="a_edge247_Node000000_Node000003"><a xlink:title=" ">
<path fill="none" stroke="#8b1a1a" d="M110.42,-45.88C129.12,-40.95 150.93,-35.2 170.62,-30.01"/>
<polygon fill="#8b1a1a" stroke="#8b1a1a" points="109.45,-42.52 100.67,-48.46 111.24,-49.29 109.45,-42.52"/>
</a>
</g>
</g>
</g>
</svg>
