<?xml version="1.0" encoding="UTF-8" standalone="no"?>
<!DOCTYPE svg PUBLIC "-//W3C//DTD SVG 1.1//EN"
 "http://www.w3.org/Graphics/SVG/1.1/DTD/svg11.dtd">
<!-- Generated by graphviz version 2.43.0 (0)
 -->
<!-- Title: Graphical Class Hierarchy Pages: 1 -->
<svg width="622pt" height="213pt"
 viewBox="0.00 0.00 622.00 212.50" xmlns="http://www.w3.org/2000/svg" xmlns:xlink="http://www.w3.org/1999/xlink">
<g id="graph0" class="graph" transform="scale(1 1) rotate(0) translate(4 208.5)">
<title>Graphical Class Hierarchy</title>
<!-- Node0 -->
<g id="Node000000" class="node">
<title>Node0</title>
<g id="a_Node000000"><a xlink:href="structpsr_1_1EdgeFunctionCacheStats.html" target="_top" xlink:title=" ">
<polygon fill="white" stroke="#666666" points="182.5,-194 24.5,-194 24.5,-175 182.5,-175 182.5,-194"/>
<text text-anchor="middle" x="103.5" y="-182" font-family="Helvetica,sans-Serif" font-size="10.00">psr::EdgeFunctionCacheStats</text>
</a>
</g>
</g>
<!-- Node1 -->
<g id="Node000001" class="node">
<title>Node1</title>
<g id="a_Node000001"><a xlink:href="classpsr_1_1EdgeFunctionCache.html" target="_top" xlink:title=" ">
<polygon fill="white" stroke="#666666" points="389.5,-204.5 256.5,-204.5 256.5,-174.5 389.5,-174.5 389.5,-204.5"/>
<text text-anchor="start" x="264.5" y="-192.5" font-family="Helvetica,sans-Serif" font-size="10.00">psr::EdgeFunctionCache</text>
<text text-anchor="middle" x="323" y="-181.5" font-family="Helvetica,sans-Serif" font-size="10.00">&lt; ProblemTy &gt;</text>
</a>
</g>
</g>
<!-- Node0&#45;&gt;Node1 -->
<g id="edge225_Node000000_Node000001" class="edge">
<title>Node0&#45;&gt;Node1</title>
<g id="a_edge225_Node000000_Node000001"><a xlink:title=" ">
<path fill="none" stroke="#8b1a1a" d="M192.71,-186.53C213.96,-187.02 236.29,-187.53 256.3,-187.99"/>
<polygon fill="#8b1a1a" stroke="#8b1a1a" points="192.79,-183.03 182.72,-186.3 192.63,-190.03 192.79,-183.03"/>
</a>
</g>
</g>
<!-- Node6 -->
<g id="Node000006" class="node">
<title>Node6</title>
<g id="a_Node000006"><a xlink:href="structpsr_1_1FlowEdgeFunctionCacheStats.html" target="_top" xlink:title=" ">
<polygon fill="white" stroke="#666666" points="401,-156.5 245,-156.5 245,-126.5 401,-126.5 401,-156.5"/>
<text text-anchor="start" x="253" y="-144.5" font-family="Helvetica,sans-Serif" font-size="10.00">psr::FlowEdgeFunctionCache</text>
<text text-anchor="middle" x="323" y="-133.5" font-family="Helvetica,sans-Serif" font-size="10.00">Stats</text>
</a>
</g>
</g>
<!-- Node0&#45;&gt;Node6 -->
<g id="edge227_Node000000_Node000006" class="edge">
<title>Node0&#45;&gt;Node6</title>
<g id="a_edge227_Node000000_Node000006"><a xlink:title=" ">
<path fill="none" stroke="#63b8ff" d="M162.7,-172.99C188.31,-167.93 218.73,-161.92 246.1,-156.51"/>
<polygon fill="#63b8ff" stroke="#63b8ff" points="161.9,-169.58 152.77,-174.96 163.26,-176.45 161.9,-169.58"/>
</a>
</g>
</g>
<!-- Node2 -->
<g id="Node000002" class="node">
<title>Node2</title>
<g id="a_Node000002"><a xlink:href="classpsr_1_1FlowEdgeFunctionCacheNG.html" target="_top" xlink:title=" ">
<polygon fill="white" stroke="#666666" points="614,-156.5 439,-156.5 439,-126.5 614,-126.5 614,-156.5"/>
<text text-anchor="start" x="447" y="-144.5" font-family="Helvetica,sans-Serif" font-size="10.00">psr::FlowEdgeFunctionCache</text>
<text text-anchor="middle" x="526.5" y="-133.5" font-family="Helvetica,sans-Serif" font-size="10.00">NG&lt; ProblemTy, AutoAddZero &gt;</text>
</a>
</g>
</g>
<!-- Node1&#45;&gt;Node2 -->
<g id="edge226_Node000001_Node000002" class="edge">
<title>Node1&#45;&gt;Node2</title>
<g id="a_edge226_Node000001_Node000002"><a xlink:title=" ">
<path fill="none" stroke="#63b8ff" d="M397.22,-172.06C418.62,-166.96 441.81,-161.43 462.52,-156.5"/>
<polygon fill="#63b8ff" stroke="#63b8ff" points="396.12,-168.72 387.2,-174.44 397.74,-175.53 396.12,-168.72"/>
</a>
</g>
</g>
<!-- Node4 -->
<g id="Node000004" class="node">
<title>Node4</title>
<g id="a_Node000004"><a xlink:title=" ">
<polygon fill="#e0e0e0" stroke="#999999" points="175.5,-111.5 31.5,-111.5 31.5,-81.5 175.5,-81.5 175.5,-111.5"/>
<text text-anchor="start" x="39.5" y="-99.5" font-family="Helvetica,sans-Serif" font-size="10.00">psr::detail::FlowFunction</text>
<text text-anchor="middle" x="103.5" y="-88.5" font-family="Helvetica,sans-Serif" font-size="10.00">CacheBase&lt; ProblemTy &gt;</text>
</a>
</g>
</g>
<!-- Node3 -->
<g id="Node000003" class="node">
<title>Node3</title>
<g id="a_Node000003"><a xlink:href="classpsr_1_1FlowFunctionCache.html" target="_top" xlink:title=" ">
<polygon fill="white" stroke="#666666" points="403,-108.5 243,-108.5 243,-78.5 403,-78.5 403,-108.5"/>
<text text-anchor="start" x="251" y="-96.5" font-family="Helvetica,sans-Serif" font-size="10.00">psr::FlowFunctionCache</text>
<text text-anchor="middle" x="323" y="-85.5" font-family="Helvetica,sans-Serif" font-size="10.00">&lt; ProblemTy, AutoAddZero &gt;</text>
</a>
</g>
</g>
<!-- Node4&#45;&gt;Node3 -->
<g id="edge228_Node000004_Node000003" class="edge">
<title>Node4&#45;&gt;Node3</title>
<g id="a_edge228_Node000004_Node000003"><a xlink:title=" ">
<path fill="none" stroke="#8b1a1a" d="M185.91,-95.38C204.5,-95.12 224.23,-94.85 242.72,-94.59"/>
<polygon fill="#8b1a1a" stroke="#8b1a1a" points="185.67,-91.88 175.72,-95.52 185.76,-98.88 185.67,-91.88"/>
</a>
</g>
</g>
<!-- Node3&#45;&gt;Node2 -->
<g id="edge229_Node000003_Node000002" class="edge">
<title>Node3&#45;&gt;Node2</title>
<g id="a_edge229_Node000003_Node000002"><a xlink:title=" ">
<path fill="none" stroke="#63b8ff" d="M397.22,-110.94C418.62,-116.04 441.81,-121.57 462.52,-126.5"/>
<polygon fill="#63b8ff" stroke="#63b8ff" points="397.74,-107.47 387.2,-108.56 396.12,-114.28 397.74,-107.47"/>
</a>
</g>
</g>
<!-- Node7 -->
<g id="Node000007" class="node">
<title>Node7</title>
<g id="a_Node000007"><a xlink:href="structpsr_1_1FlowFunctionCacheStats.html" target="_top" xlink:title=" ">
<polygon fill="white" stroke="#666666" points="182,-151 25,-151 25,-132 182,-132 182,-151"/>
<text text-anchor="middle" x="103.5" y="-139" font-family="Helvetica,sans-Serif" font-size="10.00">psr::FlowFunctionCacheStats</text>
</a>
</g>
</g>
<!-- Node7&#45;&gt;Node6 -->
<g id="edge230_Node000007_Node000006" class="edge">
<title>Node7&#45;&gt;Node6</title>
<g id="a_edge230_Node000007_Node000006"><a xlink:title=" ">
<path fill="none" stroke="#63b8ff" d="M192.24,-141.5C209.64,-141.5 227.78,-141.5 244.79,-141.5"/>
<polygon fill="#63b8ff" stroke="#63b8ff" points="192.1,-138 182.1,-141.5 192.1,-145 192.1,-138"/>
</a>
</g>
</g>
<!-- Node5 -->
<g id="Node000005" class="node">
<title>Node5</title>
<g id="a_Node000005"><a xlink:title=" ">
<polygon fill="#e0e0e0" stroke="#999999" points="207,-63 0,-63 0,0 207,0 207,-63"/>
<text text-anchor="start" x="8" y="-51" font-family="Helvetica,sans-Serif" font-size="10.00">psr::detail::IntraFlowFunctions</text>
<text text-anchor="start" x="8" y="-40" font-family="Helvetica,sans-Serif" font-size="10.00">Mixin&lt; detail::FlowFunctionCacheBase</text>
<text text-anchor="start" x="8" y="-29" font-family="Helvetica,sans-Serif" font-size="10.00">&lt; ProblemTy &gt;::normal_ff_t, detail</text>
<text text-anchor="start" x="8" y="-18" font-family="Helvetica,sans-Serif" font-size="10.00">::FlowFunctionCacheBase&lt; ProblemTy</text>
<text text-anchor="middle" x="103.5" y="-7" font-family="Helvetica,sans-Serif" font-size="10.00"> &gt;::ctr_ff_t &gt;</text>
</a>
</g>
</g>
<!-- Node5&#45;&gt;Node3 -->
<g id="edge231_Node000005_Node000003" class="edge">
<title>Node5&#45;&gt;Node3</title>
<g id="a_edge231_Node000005_Node000003"><a xlink:title=" ">
<path fill="none" stroke="#8b1a1a" d="M217.01,-63.57C235.21,-68.76 253.26,-73.91 269.14,-78.43"/>
<polygon fill="#8b1a1a" stroke="#8b1a1a" points="217.78,-60.15 207.2,-60.78 215.86,-66.88 217.78,-60.15"/>
</a>
</g>
</g>
</g>
</svg>
