<?xml version="1.0" encoding="UTF-8" standalone="no"?>
<!DOCTYPE svg PUBLIC "-//W3C//DTD SVG 1.1//EN"
 "http://www.w3.org/Graphics/SVG/1.1/DTD/svg11.dtd">
<!-- Generated by graphviz version 2.43.0 (0)
 -->
<!-- Title: Graphical Class Hierarchy Pages: 1 -->
<svg width="341pt" height="86pt"
 viewBox="0.00 0.00 341.00 86.00" xmlns="http://www.w3.org/2000/svg" xmlns:xlink="http://www.w3.org/1999/xlink">
<g id="graph0" class="graph" transform="scale(1 1) rotate(0) translate(4 82)">
<title>Graphical Class Hierarchy</title>
<!-- Node0 -->
<g id="Node000000" class="node">
<title>Node0</title>
<g id="a_Node000000"><a xlink:href="classLLVMIFDSAnalysisDomainDefault.html" target="_top" xlink:title=" ">
<polygon fill="white" stroke="#666666" points="181,-48.5 0,-48.5 0,-29.5 181,-29.5 181,-48.5"/>
<text text-anchor="middle" x="90.5" y="-36.5" font-family="Helvetica,sans-Serif" font-size="10.00">LLVMIFDSAnalysisDomainDefault</text>
</a>
</g>
</g>
<!-- Node1 -->
<g id="Node000001" class="node">
<title>Node1</title>
<g id="a_Node000001"><a xlink:href="structpsr_1_1cfl__fieldsens_1_1IFDSDomain.html" target="_top" xlink:title=" ">
<polygon fill="white" stroke="#666666" points="324,-78 226,-78 226,-48 324,-48 324,-78"/>
<text text-anchor="start" x="234" y="-66" font-family="Helvetica,sans-Serif" font-size="10.00">psr::cfl_fieldsens</text>
<text text-anchor="middle" x="275" y="-55" font-family="Helvetica,sans-Serif" font-size="10.00">::IFDSDomain</text>
</a>
</g>
</g>
<!-- Node0&#45;&gt;Node1 -->
<g id="edge23_Node000000_Node000001" class="edge">
<title>Node0&#45;&gt;Node1</title>
<g id="a_edge23_Node000000_Node000001"><a xlink:title=" ">
<path fill="none" stroke="#63b8ff" d="M174.22,-49.88C191.88,-52.2 209.97,-54.58 225.81,-56.66"/>
<polygon fill="#63b8ff" stroke="#63b8ff" points="174.26,-46.35 163.89,-48.52 173.35,-53.29 174.26,-46.35"/>
</a>
</g>
</g>
<!-- Node2 -->
<g id="Node000002" class="node">
<title>Node2</title>
<g id="a_Node000002"><a xlink:href="structpsr_1_1cfl__fieldsens_1_1IFDSProblemConfig.html" target="_top" xlink:title="Configures, how the CFLFieldSensIFDSProblem should handle strong updates.">
<polygon fill="white" stroke="#666666" points="333,-30 217,-30 217,0 333,0 333,-30"/>
<text text-anchor="start" x="225" y="-18" font-family="Helvetica,sans-Serif" font-size="10.00">psr::cfl_fieldsens</text>
<text text-anchor="middle" x="275" y="-7" font-family="Helvetica,sans-Serif" font-size="10.00">::IFDSProblemConfig</text>
</a>
</g>
</g>
<!-- Node0&#45;&gt;Node2 -->
<g id="edge24_Node000000_Node000002" class="edge">
<title>Node0&#45;&gt;Node2</title>
<g id="a_edge24_Node000000_Node000002"><a xlink:title=" ">
<path fill="none" stroke="#63b8ff" d="M173.88,-28.17C188.42,-26.25 203.25,-24.3 216.89,-22.51"/>
<polygon fill="#63b8ff" stroke="#63b8ff" points="173.35,-24.71 163.89,-29.48 174.26,-31.65 173.35,-24.71"/>
</a>
</g>
</g>
</g>
</svg>
