<?xml version="1.0" encoding="UTF-8" standalone="no"?>
<!DOCTYPE svg PUBLIC "-//W3C//DTD SVG 1.1//EN"
 "http://www.w3.org/Graphics/SVG/1.1/DTD/svg11.dtd">
<!-- Generated by graphviz version 2.43.0 (0)
 -->
<!-- Title: Graphical Class Hierarchy Pages: 1 -->
<svg width="446pt" height="1337pt"
 viewBox="0.00 0.00 446.00 1337.00" xmlns="http://www.w3.org/2000/svg" xmlns:xlink="http://www.w3.org/1999/xlink">
<g id="graph0" class="graph" transform="scale(1 1) rotate(0) translate(4 1333)">
<title>Graphical Class Hierarchy</title>
<!-- Node0 -->
<g id="Node000000" class="node">
<title>Node0</title>
<g id="a_Node000000"><a xlink:title=" ">
<polygon fill="#e0e0e0" stroke="#999999" points="176,-637 0,-637 0,-607 176,-607 176,-637"/>
<text text-anchor="start" x="8" y="-625" font-family="Helvetica,sans-Serif" font-size="10.00">psr::detail::MaybeUnique</text>
<text text-anchor="middle" x="88" y="-614" font-family="Helvetica,sans-Serif" font-size="10.00">PtrBase&lt; T, RequireAlignment &gt;</text>
</a>
</g>
</g>
<!-- Node1 -->
<g id="Node000001" class="node">
<title>Node1</title>
<g id="a_Node000001"><a xlink:href="classpsr_1_1MaybeUniquePtr.html" target="_top" xlink:title=" ">
<polygon fill="white" stroke="#666666" points="426.5,-1329 223.5,-1329 223.5,-1277 426.5,-1277 426.5,-1329"/>
<text text-anchor="start" x="231.5" y="-1317" font-family="Helvetica,sans-Serif" font-size="10.00">psr::MaybeUniquePtr</text>
<text text-anchor="start" x="231.5" y="-1306" font-family="Helvetica,sans-Serif" font-size="10.00">&lt; psr::AnalysisPrinterBase</text>
<text text-anchor="start" x="231.5" y="-1295" font-family="Helvetica,sans-Serif" font-size="10.00">&lt; WithBinaryValueDomain</text>
<text text-anchor="middle" x="325" y="-1284" font-family="Helvetica,sans-Serif" font-size="10.00">&lt; LLVMAnalysisDomainDefault &gt; &gt; &gt;</text>
</a>
</g>
</g>
<!-- Node0&#45;&gt;Node1 -->
<g id="edge215_Node000000_Node000001" class="edge">
<title>Node0&#45;&gt;Node1</title>
<g id="a_edge215_Node000000_Node000001"><a xlink:title=" ">
<path fill="none" stroke="#8b1a1a" d="M90.42,-647.24C96.93,-754.74 127.44,-1173.14 212,-1268 215.39,-1271.8 219.18,-1275.19 223.27,-1278.22"/>
<polygon fill="#8b1a1a" stroke="#8b1a1a" points="93.9,-646.8 89.81,-637.03 86.91,-647.22 93.9,-646.8"/>
</a>
</g>
</g>
<!-- Node2 -->
<g id="Node000002" class="node">
<title>Node2</title>
<g id="a_Node000002"><a xlink:href="classpsr_1_1MaybeUniquePtr.html" target="_top" xlink:title=" ">
<polygon fill="white" stroke="#666666" points="438,-1259 212,-1259 212,-1207 438,-1207 438,-1259"/>
<text text-anchor="start" x="220" y="-1247" font-family="Helvetica,sans-Serif" font-size="10.00">psr::MaybeUniquePtr</text>
<text text-anchor="start" x="220" y="-1236" font-family="Helvetica,sans-Serif" font-size="10.00">&lt; psr::AnalysisPrinterBase</text>
<text text-anchor="start" x="220" y="-1225" font-family="Helvetica,sans-Serif" font-size="10.00">&lt; WithBinaryValueDomain</text>
<text text-anchor="middle" x="325" y="-1214" font-family="Helvetica,sans-Serif" font-size="10.00">&lt; LLVMIFDSAnalysisDomainDefault &gt; &gt; &gt;</text>
</a>
</g>
</g>
<!-- Node0&#45;&gt;Node2 -->
<g id="edge216_Node000000_Node000002" class="edge">
<title>Node0&#45;&gt;Node2</title>
<g id="a_edge216_Node000000_Node000002"><a xlink:title=" ">
<path fill="none" stroke="#8b1a1a" d="M91.06,-647.37C99.69,-747.62 136.06,-1114.69 212,-1198 214.88,-1201.16 218.04,-1204.04 221.42,-1206.66"/>
<polygon fill="#8b1a1a" stroke="#8b1a1a" points="94.53,-646.92 90.21,-637.25 87.56,-647.51 94.53,-646.92"/>
</a>
</g>
</g>
<!-- Node3 -->
<g id="Node000003" class="node">
<title>Node3</title>
<g id="a_Node000003"><a xlink:href="classpsr_1_1MaybeUniquePtr.html" target="_top" xlink:title=" ">
<polygon fill="white" stroke="#666666" points="428,-1188.5 222,-1188.5 222,-1147.5 428,-1147.5 428,-1188.5"/>
<text text-anchor="start" x="230" y="-1176.5" font-family="Helvetica,sans-Serif" font-size="10.00">psr::MaybeUniquePtr</text>
<text text-anchor="start" x="230" y="-1165.5" font-family="Helvetica,sans-Serif" font-size="10.00">&lt; psr::AnalysisPrinterBase</text>
<text text-anchor="middle" x="325" y="-1154.5" font-family="Helvetica,sans-Serif" font-size="10.00">&lt; IDEFeatureTaintAnalysisDomain &gt; &gt;</text>
</a>
</g>
</g>
<!-- Node0&#45;&gt;Node3 -->
<g id="edge217_Node000000_Node000003" class="edge">
<title>Node0&#45;&gt;Node3</title>
<g id="a_edge217_Node000000_Node000003"><a xlink:title=" ">
<path fill="none" stroke="#8b1a1a" d="M91.56,-646.97C101.6,-740.28 141.33,-1066.91 212,-1139 214.95,-1142.01 218.18,-1144.72 221.6,-1147.17"/>
<polygon fill="#8b1a1a" stroke="#8b1a1a" points="95.04,-646.59 90.5,-637.01 88.07,-647.32 95.04,-646.59"/>
</a>
</g>
</g>
<!-- Node4 -->
<g id="Node000004" class="node">
<title>Node4</title>
<g id="a_Node000004"><a xlink:href="classpsr_1_1MaybeUniquePtr.html" target="_top" xlink:title=" ">
<polygon fill="white" stroke="#666666" points="416,-1129.5 234,-1129.5 234,-1088.5 416,-1088.5 416,-1129.5"/>
<text text-anchor="start" x="242" y="-1117.5" font-family="Helvetica,sans-Serif" font-size="10.00">psr::MaybeUniquePtr</text>
<text text-anchor="start" x="242" y="-1106.5" font-family="Helvetica,sans-Serif" font-size="10.00">&lt; psr::AnalysisPrinterBase</text>
<text text-anchor="middle" x="325" y="-1095.5" font-family="Helvetica,sans-Serif" font-size="10.00">&lt; IDEGeneralizedLCADomain &gt; &gt;</text>
</a>
</g>
</g>
<!-- Node0&#45;&gt;Node4 -->
<g id="edge218_Node000000_Node000004" class="edge">
<title>Node0&#45;&gt;Node4</title>
<g id="a_edge218_Node000000_Node000004"><a xlink:title=" ">
<path fill="none" stroke="#8b1a1a" d="M92.43,-647.09C104.71,-733.4 149.14,-1016.22 212,-1079 218.34,-1085.33 225.86,-1090.37 233.95,-1094.37"/>
<polygon fill="#8b1a1a" stroke="#8b1a1a" points="95.89,-646.54 91.03,-637.13 88.95,-647.52 95.89,-646.54"/>
</a>
</g>
</g>
<!-- Node5 -->
<g id="Node000005" class="node">
<title>Node5</title>
<g id="a_Node000005"><a xlink:href="classpsr_1_1MaybeUniquePtr.html" target="_top" xlink:title=" ">
<polygon fill="white" stroke="#666666" points="422,-1070 228,-1070 228,-1018 422,-1018 422,-1070"/>
<text text-anchor="start" x="236" y="-1058" font-family="Helvetica,sans-Serif" font-size="10.00">psr::MaybeUniquePtr</text>
<text text-anchor="start" x="236" y="-1047" font-family="Helvetica,sans-Serif" font-size="10.00">&lt; psr::AnalysisPrinterBase</text>
<text text-anchor="start" x="236" y="-1036" font-family="Helvetica,sans-Serif" font-size="10.00">&lt; IDEInstInteractionAnalysisDomain</text>
<text text-anchor="middle" x="325" y="-1025" font-family="Helvetica,sans-Serif" font-size="10.00">&lt; std::string &gt; &gt; &gt;</text>
</a>
</g>
</g>
<!-- Node0&#45;&gt;Node5 -->
<g id="edge219_Node000000_Node000005" class="edge">
<title>Node0&#45;&gt;Node5</title>
<g id="a_edge219_Node000000_Node000005"><a xlink:title=" ">
<path fill="none" stroke="#8b1a1a" d="M89.41,-647.35C91.91,-715.74 108.33,-905.84 212,-1009 216.77,-1013.74 222.16,-1017.84 227.95,-1021.39"/>
<polygon fill="#8b1a1a" stroke="#8b1a1a" points="92.9,-646.98 89.11,-637.09 85.9,-647.19 92.9,-646.98"/>
</a>
</g>
</g>
<!-- Node6 -->
<g id="Node000006" class="node">
<title>Node6</title>
<g id="a_Node000006"><a xlink:href="classpsr_1_1MaybeUniquePtr.html" target="_top" xlink:title=" ">
<polygon fill="white" stroke="#666666" points="435,-999.5 215,-999.5 215,-958.5 435,-958.5 435,-999.5"/>
<text text-anchor="start" x="223" y="-987.5" font-family="Helvetica,sans-Serif" font-size="10.00">psr::MaybeUniquePtr</text>
<text text-anchor="start" x="223" y="-976.5" font-family="Helvetica,sans-Serif" font-size="10.00">&lt; psr::AnalysisPrinterBase</text>
<text text-anchor="middle" x="325" y="-965.5" font-family="Helvetica,sans-Serif" font-size="10.00">&lt; IDELinearConstantAnalysisDomain &gt; &gt;</text>
</a>
</g>
</g>
<!-- Node0&#45;&gt;Node6 -->
<g id="edge220_Node000000_Node000006" class="edge">
<title>Node0&#45;&gt;Node6</title>
<g id="a_edge220_Node000000_Node000006"><a xlink:title=" ">
<path fill="none" stroke="#8b1a1a" d="M90.8,-647.42C96.58,-709.03 120.07,-867.28 212,-950 215.43,-953.09 219.16,-955.86 223.08,-958.34"/>
<polygon fill="#8b1a1a" stroke="#8b1a1a" points="94.26,-646.75 89.92,-637.09 87.28,-647.35 94.26,-646.75"/>
</a>
</g>
</g>
<!-- Node7 -->
<g id="Node000007" class="node">
<title>Node7</title>
<g id="a_Node000007"><a xlink:href="classpsr_1_1MaybeUniquePtr.html" target="_top" xlink:title=" ">
<polygon fill="white" stroke="#666666" points="411,-940.5 239,-940.5 239,-899.5 411,-899.5 411,-940.5"/>
<text text-anchor="start" x="247" y="-928.5" font-family="Helvetica,sans-Serif" font-size="10.00">psr::MaybeUniquePtr</text>
<text text-anchor="start" x="247" y="-917.5" font-family="Helvetica,sans-Serif" font-size="10.00">&lt; psr::AnalysisPrinterBase</text>
<text text-anchor="middle" x="325" y="-906.5" font-family="Helvetica,sans-Serif" font-size="10.00">&lt; IDEProtoAnalysisDomain &gt; &gt;</text>
</a>
</g>
</g>
<!-- Node0&#45;&gt;Node7 -->
<g id="edge221_Node000000_Node000007" class="edge">
<title>Node0&#45;&gt;Node7</title>
<g id="a_edge221_Node000000_Node000007"><a xlink:title=" ">
<path fill="none" stroke="#8b1a1a" d="M93.17,-647.07C103.37,-700.22 134.6,-824.66 212,-890 219.92,-896.69 229.19,-901.9 238.94,-905.96"/>
<polygon fill="#8b1a1a" stroke="#8b1a1a" points="96.6,-646.35 91.36,-637.15 89.71,-647.61 96.6,-646.35"/>
</a>
</g>
</g>
<!-- Node8 -->
<g id="Node000008" class="node">
<title>Node8</title>
<g id="a_Node000008"><a xlink:href="classpsr_1_1MaybeUniquePtr.html" target="_top" xlink:title=" ">
<polygon fill="white" stroke="#666666" points="426.5,-881 223.5,-881 223.5,-829 426.5,-829 426.5,-881"/>
<text text-anchor="start" x="231.5" y="-869" font-family="Helvetica,sans-Serif" font-size="10.00">psr::MaybeUniquePtr</text>
<text text-anchor="start" x="231.5" y="-858" font-family="Helvetica,sans-Serif" font-size="10.00">&lt; psr::AnalysisPrinterBase</text>
<text text-anchor="start" x="231.5" y="-847" font-family="Helvetica,sans-Serif" font-size="10.00">&lt; IDESecureHeapPropagationAnalysis</text>
<text text-anchor="middle" x="325" y="-836" font-family="Helvetica,sans-Serif" font-size="10.00">Domain &gt; &gt;</text>
</a>
</g>
</g>
<!-- Node0&#45;&gt;Node8 -->
<g id="edge222_Node000000_Node000008" class="edge">
<title>Node0&#45;&gt;Node8</title>
<g id="a_edge222_Node000000_Node000008"><a xlink:title=" ">
<path fill="none" stroke="#8b1a1a" d="M97.69,-646.63C113.71,-688.47 151.85,-773.42 212,-820 216.19,-823.24 220.68,-826.19 225.37,-828.86"/>
<polygon fill="#8b1a1a" stroke="#8b1a1a" points="100.95,-645.35 94.18,-637.2 94.39,-647.8 100.95,-645.35"/>
</a>
</g>
</g>
<!-- Node9 -->
<g id="Node000009" class="node">
<title>Node9</title>
<g id="a_Node000009"><a xlink:href="classpsr_1_1MaybeUniquePtr.html" target="_top" xlink:title=" ">
<polygon fill="white" stroke="#666666" points="423.5,-810.5 226.5,-810.5 226.5,-769.5 423.5,-769.5 423.5,-810.5"/>
<text text-anchor="start" x="234.5" y="-798.5" font-family="Helvetica,sans-Serif" font-size="10.00">psr::MaybeUniquePtr</text>
<text text-anchor="start" x="234.5" y="-787.5" font-family="Helvetica,sans-Serif" font-size="10.00">&lt; psr::AnalysisPrinterBase</text>
<text text-anchor="middle" x="325" y="-776.5" font-family="Helvetica,sans-Serif" font-size="10.00">&lt; IDESolverTestAnalysisDomain &gt; &gt;</text>
</a>
</g>
</g>
<!-- Node0&#45;&gt;Node9 -->
<g id="edge223_Node000000_Node000009" class="edge">
<title>Node0&#45;&gt;Node9</title>
<g id="a_edge223_Node000000_Node000009"><a xlink:title=" ">
<path fill="none" stroke="#8b1a1a" d="M103.56,-645.5C123.96,-676.46 164.01,-730.42 212,-760 217.74,-763.54 223.9,-766.66 230.26,-769.42"/>
<polygon fill="#8b1a1a" stroke="#8b1a1a" points="106.47,-643.56 98.1,-637.06 100.59,-647.35 106.47,-643.56"/>
</a>
</g>
</g>
<!-- Node10 -->
<g id="Node000010" class="node">
<title>Node10</title>
<g id="a_Node000010"><a xlink:href="classpsr_1_1MaybeUniquePtr.html" target="_top" xlink:title=" ">
<polygon fill="white" stroke="#666666" points="413,-751 237,-751 237,-699 413,-699 413,-751"/>
<text text-anchor="start" x="245" y="-739" font-family="Helvetica,sans-Serif" font-size="10.00">psr::MaybeUniquePtr</text>
<text text-anchor="start" x="245" y="-728" font-family="Helvetica,sans-Serif" font-size="10.00">&lt; psr::AnalysisPrinterBase</text>
<text text-anchor="start" x="245" y="-717" font-family="Helvetica,sans-Serif" font-size="10.00">&lt; IDETypeStateAnalysisDomain</text>
<text text-anchor="middle" x="325" y="-706" font-family="Helvetica,sans-Serif" font-size="10.00">&lt; TypeStateDescriptionTy &gt; &gt; &gt;</text>
</a>
</g>
</g>
<!-- Node0&#45;&gt;Node10 -->
<g id="edge224_Node000000_Node000010" class="edge">
<title>Node0&#45;&gt;Node10</title>
<g id="a_edge224_Node000000_Node000010"><a xlink:title=" ">
<path fill="none" stroke="#8b1a1a" d="M121.56,-642.38C145.84,-656.98 180.17,-676.39 212,-690 219.96,-693.4 228.37,-696.64 236.85,-699.67"/>
<polygon fill="#8b1a1a" stroke="#8b1a1a" points="123.14,-639.24 112.77,-637.04 119.5,-645.23 123.14,-639.24"/>
</a>
</g>
</g>
<!-- Node11 -->
<g id="Node000011" class="node">
<title>Node11</title>
<g id="a_Node000011"><a xlink:href="classpsr_1_1MaybeUniquePtr.html" target="_top" xlink:title=" ">
<polygon fill="white" stroke="#666666" points="401,-681 249,-681 249,-629 401,-629 401,-681"/>
<text text-anchor="start" x="257" y="-669" font-family="Helvetica,sans-Serif" font-size="10.00">psr::MaybeUniquePtr</text>
<text text-anchor="start" x="257" y="-658" font-family="Helvetica,sans-Serif" font-size="10.00">&lt; psr::AnalysisPrinterBase</text>
<text text-anchor="start" x="257" y="-647" font-family="Helvetica,sans-Serif" font-size="10.00">&lt; WithBinaryValueDomain</text>
<text text-anchor="middle" x="325" y="-636" font-family="Helvetica,sans-Serif" font-size="10.00">&lt; AnalysisDomainTy &gt; &gt; &gt;</text>
</a>
</g>
</g>
<!-- Node0&#45;&gt;Node11 -->
<g id="edge225_Node000000_Node000011" class="edge">
<title>Node0&#45;&gt;Node11</title>
<g id="a_edge225_Node000000_Node000011"><a xlink:title=" ">
<path fill="none" stroke="#8b1a1a" d="M186.35,-635.67C207.25,-638.61 229.03,-641.66 248.94,-644.46"/>
<polygon fill="#8b1a1a" stroke="#8b1a1a" points="186.56,-632.17 176.17,-634.24 185.59,-639.1 186.56,-632.17"/>
</a>
</g>
</g>
<!-- Node12 -->
<g id="Node000012" class="node">
<title>Node12</title>
<g id="a_Node000012"><a xlink:href="classpsr_1_1MaybeUniquePtr.html" target="_top" xlink:title=" ">
<polygon fill="white" stroke="#666666" points="398,-610.5 252,-610.5 252,-569.5 398,-569.5 398,-610.5"/>
<text text-anchor="start" x="260" y="-598.5" font-family="Helvetica,sans-Serif" font-size="10.00">psr::MaybeUniquePtr</text>
<text text-anchor="start" x="260" y="-587.5" font-family="Helvetica,sans-Serif" font-size="10.00">&lt; psr::AnalysisPrinterBase</text>
<text text-anchor="middle" x="325" y="-576.5" font-family="Helvetica,sans-Serif" font-size="10.00">&lt; AnalysisDomainTy &gt; &gt;</text>
</a>
</g>
</g>
<!-- Node0&#45;&gt;Node12 -->
<g id="edge226_Node000000_Node000012" class="edge">
<title>Node0&#45;&gt;Node12</title>
<g id="a_edge226_Node000000_Node000012"><a xlink:title=" ">
<path fill="none" stroke="#8b1a1a" d="M186.2,-608.76C208.21,-605.77 231.21,-602.64 251.96,-599.81"/>
<polygon fill="#8b1a1a" stroke="#8b1a1a" points="185.61,-605.31 176.17,-610.13 186.55,-612.25 185.61,-605.31"/>
</a>
</g>
</g>
<!-- Node13 -->
<g id="Node000013" class="node">
<title>Node13</title>
<g id="a_Node000013"><a xlink:href="classpsr_1_1MaybeUniquePtr.html" target="_top" xlink:title=" ">
<polygon fill="white" stroke="#666666" points="432.5,-551.5 217.5,-551.5 217.5,-510.5 432.5,-510.5 432.5,-551.5"/>
<text text-anchor="start" x="225.5" y="-539.5" font-family="Helvetica,sans-Serif" font-size="10.00">psr::MaybeUniquePtr</text>
<text text-anchor="start" x="225.5" y="-528.5" font-family="Helvetica,sans-Serif" font-size="10.00">&lt; psr::AnalysisPrinterBase</text>
<text text-anchor="middle" x="325" y="-517.5" font-family="Helvetica,sans-Serif" font-size="10.00">&lt; IDEExtendedTaintAnalysisDomain &gt; &gt;</text>
</a>
</g>
</g>
<!-- Node0&#45;&gt;Node13 -->
<g id="edge227_Node000000_Node000013" class="edge">
<title>Node0&#45;&gt;Node13</title>
<g id="a_edge227_Node000000_Node000013"><a xlink:title=" ">
<path fill="none" stroke="#8b1a1a" d="M124.46,-602.06C148.59,-589.09 181.55,-572.5 212,-561 220.95,-557.62 230.43,-554.47 239.94,-551.56"/>
<polygon fill="#8b1a1a" stroke="#8b1a1a" points="122.78,-598.99 115.66,-606.84 126.12,-605.14 122.78,-598.99"/>
</a>
</g>
</g>
<!-- Node14 -->
<g id="Node000014" class="node">
<title>Node14</title>
<g id="a_Node000014"><a xlink:href="classpsr_1_1MaybeUniquePtr.html" target="_top" xlink:title=" ">
<polygon fill="white" stroke="#666666" points="420.5,-492.5 229.5,-492.5 229.5,-451.5 420.5,-451.5 420.5,-492.5"/>
<text text-anchor="start" x="237.5" y="-480.5" font-family="Helvetica,sans-Serif" font-size="10.00">psr::MaybeUniquePtr</text>
<text text-anchor="start" x="237.5" y="-469.5" font-family="Helvetica,sans-Serif" font-size="10.00">&lt; const psr::DIBasedTypeHierarchy,</text>
<text text-anchor="middle" x="325" y="-458.5" font-family="Helvetica,sans-Serif" font-size="10.00"> true &gt;</text>
</a>
</g>
</g>
<!-- Node0&#45;&gt;Node14 -->
<g id="edge228_Node000000_Node000014" class="edge">
<title>Node0&#45;&gt;Node14</title>
<g id="a_edge228_Node000000_Node000014"><a xlink:title=" ">
<path fill="none" stroke="#8b1a1a" d="M106.53,-598.79C128.31,-571.58 168.01,-527.03 212,-502 218.21,-498.47 224.85,-495.33 231.69,-492.56"/>
<polygon fill="#8b1a1a" stroke="#8b1a1a" points="103.53,-596.94 100.11,-606.97 109.04,-601.27 103.53,-596.94"/>
</a>
</g>
</g>
<!-- Node15 -->
<g id="Node000015" class="node">
<title>Node15</title>
<g id="a_Node000015"><a xlink:href="classpsr_1_1MaybeUniquePtr.html" target="_top" xlink:title=" ">
<polygon fill="white" stroke="#666666" points="384.5,-433.5 265.5,-433.5 265.5,-392.5 384.5,-392.5 384.5,-433.5"/>
<text text-anchor="start" x="273.5" y="-421.5" font-family="Helvetica,sans-Serif" font-size="10.00">psr::MaybeUniquePtr</text>
<text text-anchor="start" x="273.5" y="-410.5" font-family="Helvetica,sans-Serif" font-size="10.00">&lt; psr::LLVMAliasSet,</text>
<text text-anchor="middle" x="325" y="-399.5" font-family="Helvetica,sans-Serif" font-size="10.00"> true &gt;</text>
</a>
</g>
</g>
<!-- Node0&#45;&gt;Node15 -->
<g id="edge229_Node000000_Node000015" class="edge">
<title>Node0&#45;&gt;Node15</title>
<g id="a_edge229_Node000000_Node000015"><a xlink:title=" ">
<path fill="none" stroke="#8b1a1a" d="M99.13,-597.31C116.37,-558.41 155.18,-483.15 212,-443 227.62,-431.96 247.07,-424.99 265.35,-420.58"/>
<polygon fill="#8b1a1a" stroke="#8b1a1a" points="95.77,-596.25 95.02,-606.82 102.2,-599.03 95.77,-596.25"/>
</a>
</g>
</g>
<!-- Node16 -->
<g id="Node000016" class="node">
<title>Node16</title>
<g id="a_Node000016"><a xlink:href="classpsr_1_1MaybeUniquePtr.html" target="_top" xlink:title=" ">
<polygon fill="white" stroke="#666666" points="384.5,-374 265.5,-374 265.5,-344 384.5,-344 384.5,-374"/>
<text text-anchor="start" x="273.5" y="-362" font-family="Helvetica,sans-Serif" font-size="10.00">psr::MaybeUniquePtr</text>
<text text-anchor="middle" x="325" y="-351" font-family="Helvetica,sans-Serif" font-size="10.00">&lt; z3::context &gt;</text>
</a>
</g>
</g>
<!-- Node0&#45;&gt;Node16 -->
<g id="edge230_Node000000_Node000016" class="edge">
<title>Node0&#45;&gt;Node16</title>
<g id="a_edge230_Node000000_Node000016"><a xlink:title=" ">
<path fill="none" stroke="#8b1a1a" d="M94.44,-597.12C106.5,-548.16 140.27,-439.29 212,-384 227.23,-372.26 246.89,-365.82 265.48,-362.35"/>
<polygon fill="#8b1a1a" stroke="#8b1a1a" points="91.03,-596.34 92.13,-606.88 97.84,-597.95 91.03,-596.34"/>
</a>
</g>
</g>
<!-- Node17 -->
<g id="Node000017" class="node">
<title>Node17</title>
<g id="a_Node000017"><a xlink:href="classpsr_1_1MaybeUniquePtr.html" target="_top" xlink:title=" ">
<polygon fill="white" stroke="#666666" points="384.5,-326 265.5,-326 265.5,-296 384.5,-296 384.5,-326"/>
<text text-anchor="start" x="273.5" y="-314" font-family="Helvetica,sans-Serif" font-size="10.00">psr::MaybeUniquePtr</text>
<text text-anchor="middle" x="325" y="-303" font-family="Helvetica,sans-Serif" font-size="10.00">&lt; llvm::Module &gt;</text>
</a>
</g>
</g>
<!-- Node0&#45;&gt;Node17 -->
<g id="edge231_Node000000_Node000017" class="edge">
<title>Node0&#45;&gt;Node17</title>
<g id="a_edge231_Node000000_Node000017"><a xlink:title=" ">
<path fill="none" stroke="#8b1a1a" d="M92.04,-596.83C100.26,-540.52 128.21,-403.94 212,-335 226.9,-322.74 246.58,-316.33 265.29,-313.09"/>
<polygon fill="#8b1a1a" stroke="#8b1a1a" points="88.54,-596.59 90.65,-606.98 95.48,-597.54 88.54,-596.59"/>
</a>
</g>
</g>
<!-- Node18 -->
<g id="Node000018" class="node">
<title>Node18</title>
<g id="a_Node000018"><a xlink:href="classpsr_1_1MaybeUniquePtr.html" target="_top" xlink:title=" ">
<polygon fill="white" stroke="#666666" points="390.5,-278 259.5,-278 259.5,-248 390.5,-248 390.5,-278"/>
<text text-anchor="start" x="267.5" y="-266" font-family="Helvetica,sans-Serif" font-size="10.00">psr::MaybeUniquePtr</text>
<text text-anchor="middle" x="325" y="-255" font-family="Helvetica,sans-Serif" font-size="10.00">&lt; llvm::raw_ostream &gt;</text>
</a>
</g>
</g>
<!-- Node0&#45;&gt;Node18 -->
<g id="edge232_Node000000_Node000018" class="edge">
<title>Node0&#45;&gt;Node18</title>
<g id="a_edge232_Node000000_Node000018"><a xlink:title=" ">
<path fill="none" stroke="#8b1a1a" d="M90.33,-596.63C95.07,-533.77 116.45,-369.96 212,-287 225.14,-275.59 242.38,-269.18 259.39,-265.68"/>
<polygon fill="#8b1a1a" stroke="#8b1a1a" points="86.83,-596.6 89.65,-606.82 93.81,-597.07 86.83,-596.6"/>
</a>
</g>
</g>
<!-- Node19 -->
<g id="Node000019" class="node">
<title>Node19</title>
<g id="a_Node000019"><a xlink:href="classpsr_1_1MaybeUniquePtr.html" target="_top" xlink:title=" ">
<polygon fill="white" stroke="#666666" points="435,-230 215,-230 215,-178 435,-178 435,-230"/>
<text text-anchor="start" x="223" y="-218" font-family="Helvetica,sans-Serif" font-size="10.00">psr::MaybeUniquePtr</text>
<text text-anchor="start" x="223" y="-207" font-family="Helvetica,sans-Serif" font-size="10.00">&lt; psr::AnalysisPrinterBase</text>
<text text-anchor="start" x="223" y="-196" font-family="Helvetica,sans-Serif" font-size="10.00">&lt; psr::IDETypeStateAnalysisDomain</text>
<text text-anchor="middle" x="325" y="-185" font-family="Helvetica,sans-Serif" font-size="10.00">&lt; psr::OpenSSLEVPKDFDescription &gt; &gt; &gt;</text>
</a>
</g>
</g>
<!-- Node0&#45;&gt;Node19 -->
<g id="edge233_Node000000_Node000019" class="edge">
<title>Node0&#45;&gt;Node19</title>
<g id="a_edge233_Node000000_Node000019"><a xlink:title=" ">
<path fill="none" stroke="#8b1a1a" d="M89.52,-596.45C92.3,-528.35 109.39,-340.81 212,-239 215.33,-235.7 218.96,-232.71 222.82,-230"/>
<polygon fill="#8b1a1a" stroke="#8b1a1a" points="86.01,-596.56 89.17,-606.67 93.01,-596.79 86.01,-596.56"/>
</a>
</g>
</g>
<!-- Node20 -->
<g id="Node000020" class="node">
<title>Node20</title>
<g id="a_Node000020"><a xlink:href="classpsr_1_1MaybeUniquePtr.html" target="_top" xlink:title=" ">
<polygon fill="white" stroke="#666666" points="416,-160 234,-160 234,-108 416,-108 416,-160"/>
<text text-anchor="start" x="242" y="-148" font-family="Helvetica,sans-Serif" font-size="10.00">psr::MaybeUniquePtr</text>
<text text-anchor="start" x="242" y="-137" font-family="Helvetica,sans-Serif" font-size="10.00">&lt; psr::AnalysisPrinterBase</text>
<text text-anchor="start" x="242" y="-126" font-family="Helvetica,sans-Serif" font-size="10.00">&lt; psr::IDESecureHeapPropagation</text>
<text text-anchor="middle" x="325" y="-115" font-family="Helvetica,sans-Serif" font-size="10.00">AnalysisDomain &gt; &gt;</text>
</a>
</g>
</g>
<!-- Node0&#45;&gt;Node20 -->
<g id="edge234_Node000000_Node000020" class="edge">
<title>Node0&#45;&gt;Node20</title>
<g id="a_edge234_Node000000_Node000020"><a xlink:title=" ">
<path fill="none" stroke="#8b1a1a" d="M92.64,-596.65C105.45,-510.72 151.02,-232.33 212,-169 218.29,-162.47 225.77,-157.15 233.85,-152.82"/>
<polygon fill="#8b1a1a" stroke="#8b1a1a" points="89.17,-596.18 91.18,-606.59 96.1,-597.2 89.17,-596.18"/>
</a>
</g>
</g>
<!-- Node21 -->
<g id="Node000021" class="node">
<title>Node21</title>
<g id="a_Node000021"><a xlink:href="classpsr_1_1MaybeUniquePtr.html" target="_top" xlink:title=" ">
<polygon fill="white" stroke="#666666" points="402,-89.5 248,-89.5 248,-48.5 402,-48.5 402,-89.5"/>
<text text-anchor="start" x="256" y="-77.5" font-family="Helvetica,sans-Serif" font-size="10.00">psr::MaybeUniquePtr</text>
<text text-anchor="start" x="256" y="-66.5" font-family="Helvetica,sans-Serif" font-size="10.00">&lt; psr::LLVMPathConstraints,</text>
<text text-anchor="middle" x="325" y="-55.5" font-family="Helvetica,sans-Serif" font-size="10.00"> true &gt;</text>
</a>
</g>
</g>
<!-- Node0&#45;&gt;Node21 -->
<g id="edge235_Node000000_Node000021" class="edge">
<title>Node0&#45;&gt;Node21</title>
<g id="a_edge235_Node000000_Node000021"><a xlink:title=" ">
<path fill="none" stroke="#8b1a1a" d="M91.53,-596.77C101.49,-502.44 140.95,-172.27 212,-99 221.74,-88.96 234.45,-82.16 247.79,-77.58"/>
<polygon fill="#8b1a1a" stroke="#8b1a1a" points="88.04,-596.52 90.49,-606.83 95,-597.24 88.04,-596.52"/>
</a>
</g>
</g>
<!-- Node22 -->
<g id="Node000022" class="node">
<title>Node22</title>
<g id="a_Node000022"><a xlink:href="classpsr_1_1MaybeUniquePtr.html" target="_top" xlink:title=" ">
<polygon fill="white" stroke="#666666" points="394.5,-30 255.5,-30 255.5,0 394.5,0 394.5,-30"/>
<text text-anchor="start" x="263.5" y="-18" font-family="Helvetica,sans-Serif" font-size="10.00">psr::MaybeUniquePtr</text>
<text text-anchor="middle" x="325" y="-7" font-family="Helvetica,sans-Serif" font-size="10.00">&lt; T, RequireAlignment &gt;</text>
</a>
</g>
</g>
<!-- Node0&#45;&gt;Node22 -->
<g id="edge236_Node000000_Node000022" class="edge">
<title>Node0&#45;&gt;Node22</title>
<g id="a_edge236_Node000000_Node000022"><a xlink:title=" ">
<path fill="none" stroke="#8b1a1a" d="M90.8,-596.51C98.48,-495 131.87,-121.05 212,-40 223.56,-28.31 239.3,-21.56 255.32,-17.78"/>
<polygon fill="#8b1a1a" stroke="#8b1a1a" points="87.29,-596.52 90.04,-606.75 94.27,-597.03 87.29,-596.52"/>
</a>
</g>
</g>
</g>
</svg>
