<?xml version="1.0" encoding="UTF-8" standalone="no"?>
<!DOCTYPE svg PUBLIC "-//W3C//DTD SVG 1.1//EN"
 "http://www.w3.org/Graphics/SVG/1.1/DTD/svg11.dtd">
<!-- Generated by graphviz version 2.43.0 (0)
 -->
<!-- Title: Graphical Class Hierarchy Pages: 1 -->
<svg width="462pt" height="1121pt"
 viewBox="0.00 0.00 462.00 1121.00" xmlns="http://www.w3.org/2000/svg" xmlns:xlink="http://www.w3.org/1999/xlink">
<g id="graph0" class="graph" transform="scale(1 1) rotate(0) translate(4 1117)">
<title>Graphical Class Hierarchy</title>
<!-- Node0 -->
<g id="Node000000" class="node">
<title>Node0</title>
<g id="a_Node000000"><a xlink:href="classpsr_1_1FlowFunctionTemplates.html" target="_top" xlink:title=" ">
<polygon fill="white" stroke="#666666" points="152,-571.5 0,-571.5 0,-541.5 152,-541.5 152,-571.5"/>
<text text-anchor="start" x="8" y="-559.5" font-family="Helvetica,sans-Serif" font-size="10.00">psr::FlowFunctionTemplates</text>
<text text-anchor="middle" x="76" y="-548.5" font-family="Helvetica,sans-Serif" font-size="10.00">&lt; D, Container &gt;</text>
</a>
</g>
</g>
<!-- Node1 -->
<g id="Node000001" class="node">
<title>Node1</title>
<g id="a_Node000001"><a xlink:href="classpsr_1_1FlowFunctions.html" target="_top" xlink:title=" ">
<polygon fill="white" stroke="#666666" points="427.5,-1113 214.5,-1113 214.5,-1050 427.5,-1050 427.5,-1113"/>
<text text-anchor="start" x="222.5" y="-1101" font-family="Helvetica,sans-Serif" font-size="10.00">psr::FlowFunctions</text>
<text text-anchor="start" x="222.5" y="-1090" font-family="Helvetica,sans-Serif" font-size="10.00">&lt; WithBinaryValueDomain</text>
<text text-anchor="start" x="222.5" y="-1079" font-family="Helvetica,sans-Serif" font-size="10.00">&lt; LLVMAnalysisDomainDefault</text>
<text text-anchor="start" x="222.5" y="-1068" font-family="Helvetica,sans-Serif" font-size="10.00"> &gt;, std::set&lt; typename AnalysisDomain</text>
<text text-anchor="middle" x="321" y="-1057" font-family="Helvetica,sans-Serif" font-size="10.00">Ty::d_t &gt; &gt;</text>
</a>
</g>
</g>
<!-- Node0&#45;&gt;Node1 -->
<g id="edge271_Node000000_Node000001" class="edge">
<title>Node0&#45;&gt;Node1</title>
<g id="a_edge271_Node000000_Node000001"><a xlink:title=" ">
<path fill="none" stroke="darkgreen" d="M79.5,-582.13C88.78,-672.27 124.08,-972.99 188,-1041.5 195.51,-1049.55 204.59,-1056 214.42,-1061.17"/>
<polygon fill="darkgreen" stroke="darkgreen" points="82.96,-581.58 78.47,-571.98 76,-582.28 82.96,-581.58"/>
</a>
</g>
</g>
<!-- Node2 -->
<g id="Node000002" class="node">
<title>Node2</title>
<g id="a_Node000002"><a xlink:href="classpsr_1_1FlowFunctions.html" target="_top" xlink:title=" ">
<polygon fill="white" stroke="#666666" points="427.5,-1032 214.5,-1032 214.5,-969 427.5,-969 427.5,-1032"/>
<text text-anchor="start" x="222.5" y="-1020" font-family="Helvetica,sans-Serif" font-size="10.00">psr::FlowFunctions</text>
<text text-anchor="start" x="222.5" y="-1009" font-family="Helvetica,sans-Serif" font-size="10.00">&lt; WithBinaryValueDomain</text>
<text text-anchor="start" x="222.5" y="-998" font-family="Helvetica,sans-Serif" font-size="10.00">&lt; LLVMIFDSAnalysisDomainDefault</text>
<text text-anchor="start" x="222.5" y="-987" font-family="Helvetica,sans-Serif" font-size="10.00"> &gt;, std::set&lt; typename AnalysisDomain</text>
<text text-anchor="middle" x="321" y="-976" font-family="Helvetica,sans-Serif" font-size="10.00">Ty::d_t &gt; &gt;</text>
</a>
</g>
</g>
<!-- Node0&#45;&gt;Node2 -->
<g id="edge272_Node000000_Node000002" class="edge">
<title>Node0&#45;&gt;Node2</title>
<g id="a_edge272_Node000000_Node000002"><a xlink:title=" ">
<path fill="none" stroke="darkgreen" d="M76.17,-581.89C75.32,-652.11 82.83,-850.87 188,-959.5 195.59,-967.34 204.66,-973.7 214.43,-978.84"/>
<polygon fill="darkgreen" stroke="darkgreen" points="79.68,-581.83 76.37,-571.76 72.68,-581.69 79.68,-581.83"/>
</a>
</g>
</g>
<!-- Node3 -->
<g id="Node000003" class="node">
<title>Node3</title>
<g id="a_Node000003"><a xlink:href="classpsr_1_1FlowFunctions.html" target="_top" xlink:title=" ">
<polygon fill="white" stroke="#666666" points="425.5,-950.5 216.5,-950.5 216.5,-898.5 425.5,-898.5 425.5,-950.5"/>
<text text-anchor="start" x="224.5" y="-938.5" font-family="Helvetica,sans-Serif" font-size="10.00">psr::FlowFunctions</text>
<text text-anchor="start" x="224.5" y="-927.5" font-family="Helvetica,sans-Serif" font-size="10.00">&lt; IDEFeatureTaintAnalysisDomain,</text>
<text text-anchor="start" x="224.5" y="-916.5" font-family="Helvetica,sans-Serif" font-size="10.00"> std::set&lt; typename AnalysisDomainTy</text>
<text text-anchor="middle" x="321" y="-905.5" font-family="Helvetica,sans-Serif" font-size="10.00">::d_t &gt; &gt;</text>
</a>
</g>
</g>
<!-- Node0&#45;&gt;Node3 -->
<g id="edge273_Node000000_Node000003" class="edge">
<title>Node0&#45;&gt;Node3</title>
<g id="a_edge273_Node000000_Node000003"><a xlink:title=" ">
<path fill="none" stroke="darkgreen" d="M77.67,-581.82C80.74,-643.83 97.49,-804.48 188,-889.5 196.21,-897.21 205.91,-903.26 216.28,-908.01"/>
<polygon fill="darkgreen" stroke="darkgreen" points="81.17,-581.59 77.26,-571.75 74.17,-581.88 81.17,-581.59"/>
</a>
</g>
</g>
<!-- Node4 -->
<g id="Node000004" class="node">
<title>Node4</title>
<g id="a_Node000004"><a xlink:href="classpsr_1_1FlowFunctions.html" target="_top" xlink:title=" ">
<polygon fill="white" stroke="#666666" points="420.5,-880.5 221.5,-880.5 221.5,-828.5 420.5,-828.5 420.5,-880.5"/>
<text text-anchor="start" x="229.5" y="-868.5" font-family="Helvetica,sans-Serif" font-size="10.00">psr::FlowFunctions</text>
<text text-anchor="start" x="229.5" y="-857.5" font-family="Helvetica,sans-Serif" font-size="10.00">&lt; IDEGeneralizedLCADomain,</text>
<text text-anchor="start" x="229.5" y="-846.5" font-family="Helvetica,sans-Serif" font-size="10.00"> std::set&lt; typename AnalysisDomain</text>
<text text-anchor="middle" x="321" y="-835.5" font-family="Helvetica,sans-Serif" font-size="10.00">Ty::d_t &gt; &gt;</text>
</a>
</g>
</g>
<!-- Node0&#45;&gt;Node4 -->
<g id="edge274_Node000000_Node000004" class="edge">
<title>Node0&#45;&gt;Node4</title>
<g id="a_edge274_Node000000_Node000004"><a xlink:title=" ">
<path fill="none" stroke="darkgreen" d="M80.23,-581.78C88.3,-634.26 114.3,-755.47 188,-819.5 197.66,-827.9 209.13,-834.31 221.19,-839.2"/>
<polygon fill="darkgreen" stroke="darkgreen" points="83.66,-581.06 78.77,-571.66 76.73,-582.06 83.66,-581.06"/>
</a>
</g>
</g>
<!-- Node5 -->
<g id="Node000005" class="node">
<title>Node5</title>
<g id="a_Node000005"><a xlink:href="classpsr_1_1FlowFunctions.html" target="_top" xlink:title=" ">
<polygon fill="white" stroke="#666666" points="416.5,-810 225.5,-810 225.5,-747 416.5,-747 416.5,-810"/>
<text text-anchor="start" x="233.5" y="-798" font-family="Helvetica,sans-Serif" font-size="10.00">psr::FlowFunctions</text>
<text text-anchor="start" x="233.5" y="-787" font-family="Helvetica,sans-Serif" font-size="10.00">&lt; IDEInstInteractionAnalysis</text>
<text text-anchor="start" x="233.5" y="-776" font-family="Helvetica,sans-Serif" font-size="10.00">Domain&lt; std::string &gt;, std</text>
<text text-anchor="start" x="233.5" y="-765" font-family="Helvetica,sans-Serif" font-size="10.00">::set&lt; typename AnalysisDomainTy</text>
<text text-anchor="middle" x="321" y="-754" font-family="Helvetica,sans-Serif" font-size="10.00">::d_t &gt; &gt;</text>
</a>
</g>
</g>
<!-- Node0&#45;&gt;Node5 -->
<g id="edge275_Node000000_Node000005" class="edge">
<title>Node0&#45;&gt;Node5</title>
<g id="a_edge275_Node000000_Node000005"><a xlink:title=" ">
<path fill="none" stroke="darkgreen" d="M85.57,-581.19C100.35,-620.16 134.31,-695.75 188,-737.5 199.08,-746.12 211.99,-752.94 225.32,-758.33"/>
<polygon fill="darkgreen" stroke="darkgreen" points="88.81,-579.85 82.07,-571.68 82.24,-582.27 88.81,-579.85"/>
</a>
</g>
</g>
<!-- Node6 -->
<g id="Node000006" class="node">
<title>Node6</title>
<g id="a_Node000006"><a xlink:href="classpsr_1_1FlowFunctions.html" target="_top" xlink:title=" ">
<polygon fill="white" stroke="#666666" points="400.5,-728.5 241.5,-728.5 241.5,-676.5 400.5,-676.5 400.5,-728.5"/>
<text text-anchor="start" x="249.5" y="-716.5" font-family="Helvetica,sans-Serif" font-size="10.00">psr::FlowFunctions</text>
<text text-anchor="start" x="249.5" y="-705.5" font-family="Helvetica,sans-Serif" font-size="10.00">&lt; IDELinearConstantAnalysis</text>
<text text-anchor="start" x="249.5" y="-694.5" font-family="Helvetica,sans-Serif" font-size="10.00">Domain, std::set&lt; typename</text>
<text text-anchor="middle" x="321" y="-683.5" font-family="Helvetica,sans-Serif" font-size="10.00"> AnalysisDomainTy::d_t &gt; &gt;</text>
</a>
</g>
</g>
<!-- Node0&#45;&gt;Node6 -->
<g id="edge276_Node000000_Node000006" class="edge">
<title>Node0&#45;&gt;Node6</title>
<g id="a_edge276_Node000000_Node000006"><a xlink:title=" ">
<path fill="none" stroke="darkgreen" d="M93.9,-579.55C113.67,-604.86 148.74,-644.9 188,-667.5 204.23,-676.84 223.02,-683.75 241.23,-688.84"/>
<polygon fill="darkgreen" stroke="darkgreen" points="96.65,-577.39 87.79,-571.57 91.09,-581.64 96.65,-577.39"/>
</a>
</g>
</g>
<!-- Node7 -->
<g id="Node000007" class="node">
<title>Node7</title>
<g id="a_Node000007"><a xlink:href="classpsr_1_1FlowFunctions.html" target="_top" xlink:title=" ">
<polygon fill="white" stroke="#666666" points="420.5,-658.5 221.5,-658.5 221.5,-606.5 420.5,-606.5 420.5,-658.5"/>
<text text-anchor="start" x="229.5" y="-646.5" font-family="Helvetica,sans-Serif" font-size="10.00">psr::FlowFunctions</text>
<text text-anchor="start" x="229.5" y="-635.5" font-family="Helvetica,sans-Serif" font-size="10.00">&lt; IDEProtoAnalysisDomain,</text>
<text text-anchor="start" x="229.5" y="-624.5" font-family="Helvetica,sans-Serif" font-size="10.00"> std::set&lt; typename AnalysisDomain</text>
<text text-anchor="middle" x="321" y="-613.5" font-family="Helvetica,sans-Serif" font-size="10.00">Ty::d_t &gt; &gt;</text>
</a>
</g>
</g>
<!-- Node0&#45;&gt;Node7 -->
<g id="edge277_Node000000_Node000007" class="edge">
<title>Node0&#45;&gt;Node7</title>
<g id="a_edge277_Node000000_Node000007"><a xlink:title=" ">
<path fill="none" stroke="darkgreen" d="M124.54,-575.18C144.06,-582.56 166.97,-590.85 188,-597.5 198.74,-600.9 210.03,-604.24 221.31,-607.43"/>
<polygon fill="darkgreen" stroke="darkgreen" points="125.55,-571.83 114.96,-571.54 123.06,-578.37 125.55,-571.83"/>
</a>
</g>
</g>
<!-- Node8 -->
<g id="Node000008" class="node">
<title>Node8</title>
<g id="a_Node000008"><a xlink:href="classpsr_1_1FlowFunctions.html" target="_top" xlink:title=" ">
<polygon fill="white" stroke="#666666" points="406,-588 236,-588 236,-525 406,-525 406,-588"/>
<text text-anchor="start" x="244" y="-576" font-family="Helvetica,sans-Serif" font-size="10.00">psr::FlowFunctions</text>
<text text-anchor="start" x="244" y="-565" font-family="Helvetica,sans-Serif" font-size="10.00">&lt; IDESecureHeapPropagation</text>
<text text-anchor="start" x="244" y="-554" font-family="Helvetica,sans-Serif" font-size="10.00">AnalysisDomain, std::set</text>
<text text-anchor="start" x="244" y="-543" font-family="Helvetica,sans-Serif" font-size="10.00">&lt; typename AnalysisDomainTy</text>
<text text-anchor="middle" x="321" y="-532" font-family="Helvetica,sans-Serif" font-size="10.00">::d_t &gt; &gt;</text>
</a>
</g>
</g>
<!-- Node0&#45;&gt;Node8 -->
<g id="edge278_Node000000_Node000008" class="edge">
<title>Node0&#45;&gt;Node8</title>
<g id="a_edge278_Node000000_Node000008"><a xlink:title=" ">
<path fill="none" stroke="darkgreen" d="M162.3,-556.5C186.15,-556.5 212.04,-556.5 235.81,-556.5"/>
<polygon fill="darkgreen" stroke="darkgreen" points="162.22,-553 152.22,-556.5 162.22,-560 162.22,-553"/>
</a>
</g>
</g>
<!-- Node9 -->
<g id="Node000009" class="node">
<title>Node9</title>
<g id="a_Node000009"><a xlink:href="classpsr_1_1FlowFunctions.html" target="_top" xlink:title=" ">
<polygon fill="white" stroke="#666666" points="420.5,-506.5 221.5,-506.5 221.5,-454.5 420.5,-454.5 420.5,-506.5"/>
<text text-anchor="start" x="229.5" y="-494.5" font-family="Helvetica,sans-Serif" font-size="10.00">psr::FlowFunctions</text>
<text text-anchor="start" x="229.5" y="-483.5" font-family="Helvetica,sans-Serif" font-size="10.00">&lt; IDESolverTestAnalysisDomain,</text>
<text text-anchor="start" x="229.5" y="-472.5" font-family="Helvetica,sans-Serif" font-size="10.00"> std::set&lt; typename AnalysisDomain</text>
<text text-anchor="middle" x="321" y="-461.5" font-family="Helvetica,sans-Serif" font-size="10.00">Ty::d_t &gt; &gt;</text>
</a>
</g>
</g>
<!-- Node0&#45;&gt;Node9 -->
<g id="edge279_Node000000_Node000009" class="edge">
<title>Node0&#45;&gt;Node9</title>
<g id="a_edge279_Node000000_Node000009"><a xlink:title=" ">
<path fill="none" stroke="darkgreen" d="M125.77,-537.98C145.04,-530.91 167.45,-522.99 188,-516.5 198.76,-513.1 210.07,-509.72 221.36,-506.48"/>
<polygon fill="darkgreen" stroke="darkgreen" points="124.46,-534.73 116.3,-541.48 126.89,-541.29 124.46,-534.73"/>
</a>
</g>
</g>
<!-- Node10 -->
<g id="Node000010" class="node">
<title>Node10</title>
<g id="a_Node000010"><a xlink:href="classpsr_1_1FlowFunctions.html" target="_top" xlink:title=" ">
<polygon fill="white" stroke="#666666" points="401.5,-436.5 240.5,-436.5 240.5,-384.5 401.5,-384.5 401.5,-436.5"/>
<text text-anchor="start" x="248.5" y="-424.5" font-family="Helvetica,sans-Serif" font-size="10.00">psr::FlowFunctions</text>
<text text-anchor="start" x="248.5" y="-413.5" font-family="Helvetica,sans-Serif" font-size="10.00">&lt; AnalysisDomainTy,</text>
<text text-anchor="start" x="248.5" y="-402.5" font-family="Helvetica,sans-Serif" font-size="10.00"> std::set&lt; typename Analysis</text>
<text text-anchor="middle" x="321" y="-391.5" font-family="Helvetica,sans-Serif" font-size="10.00">DomainTy::d_t &gt; &gt;</text>
</a>
</g>
</g>
<!-- Node0&#45;&gt;Node10 -->
<g id="edge280_Node000000_Node000010" class="edge">
<title>Node0&#45;&gt;Node10</title>
<g id="a_edge280_Node000000_Node000010"><a xlink:title=" ">
<path fill="none" stroke="darkgreen" d="M93.9,-533.45C113.67,-508.14 148.74,-468.1 188,-445.5 203.92,-436.33 222.3,-429.51 240.19,-424.45"/>
<polygon fill="darkgreen" stroke="darkgreen" points="91.09,-531.36 87.79,-541.43 96.65,-535.61 91.09,-531.36"/>
</a>
</g>
</g>
<!-- Node11 -->
<g id="Node000011" class="node">
<title>Node11</title>
<g id="a_Node000011"><a xlink:href="classpsr_1_1FlowFunctions.html" target="_top" xlink:title=" ">
<polygon fill="white" stroke="#666666" points="427.5,-366 214.5,-366 214.5,-303 427.5,-303 427.5,-366"/>
<text text-anchor="start" x="222.5" y="-354" font-family="Helvetica,sans-Serif" font-size="10.00">psr::FlowFunctions</text>
<text text-anchor="start" x="222.5" y="-343" font-family="Helvetica,sans-Serif" font-size="10.00">&lt; IDETypeStateAnalysisDomain</text>
<text text-anchor="start" x="222.5" y="-332" font-family="Helvetica,sans-Serif" font-size="10.00">&lt; TypeStateDescriptionTy</text>
<text text-anchor="start" x="222.5" y="-321" font-family="Helvetica,sans-Serif" font-size="10.00"> &gt;, std::set&lt; typename AnalysisDomain</text>
<text text-anchor="middle" x="321" y="-310" font-family="Helvetica,sans-Serif" font-size="10.00">Ty::d_t &gt; &gt;</text>
</a>
</g>
</g>
<!-- Node0&#45;&gt;Node11 -->
<g id="edge281_Node000000_Node000011" class="edge">
<title>Node0&#45;&gt;Node11</title>
<g id="a_edge281_Node000000_Node000011"><a xlink:title=" ">
<path fill="none" stroke="darkgreen" d="M85.57,-531.81C100.35,-492.84 134.31,-417.25 188,-375.5 195.96,-369.31 204.85,-364.05 214.17,-359.58"/>
<polygon fill="darkgreen" stroke="darkgreen" points="82.24,-530.73 82.07,-541.32 88.81,-533.15 82.24,-530.73"/>
</a>
</g>
</g>
<!-- Node12 -->
<g id="Node000012" class="node">
<title>Node12</title>
<g id="a_Node000012"><a xlink:href="classpsr_1_1FlowFunctions.html" target="_top" xlink:title=" ">
<polygon fill="white" stroke="#666666" points="416.5,-285 225.5,-285 225.5,-222 416.5,-222 416.5,-285"/>
<text text-anchor="start" x="233.5" y="-273" font-family="Helvetica,sans-Serif" font-size="10.00">psr::FlowFunctions</text>
<text text-anchor="start" x="233.5" y="-262" font-family="Helvetica,sans-Serif" font-size="10.00">&lt; WithBinaryValueDomain</text>
<text text-anchor="start" x="233.5" y="-251" font-family="Helvetica,sans-Serif" font-size="10.00">&lt; AnalysisDomainTy &gt;, std</text>
<text text-anchor="start" x="233.5" y="-240" font-family="Helvetica,sans-Serif" font-size="10.00">::set&lt; typename AnalysisDomainTy</text>
<text text-anchor="middle" x="321" y="-229" font-family="Helvetica,sans-Serif" font-size="10.00">::d_t &gt; &gt;</text>
</a>
</g>
</g>
<!-- Node0&#45;&gt;Node12 -->
<g id="edge282_Node000000_Node000012" class="edge">
<title>Node0&#45;&gt;Node12</title>
<g id="a_edge282_Node000000_Node000012"><a xlink:title=" ">
<path fill="none" stroke="darkgreen" d="M80.53,-531.19C89.14,-479.17 116.02,-359.65 188,-294.5 198.76,-284.76 211.81,-277.33 225.46,-271.67"/>
<polygon fill="darkgreen" stroke="darkgreen" points="77.05,-530.8 78.97,-541.23 83.97,-531.89 77.05,-530.8"/>
</a>
</g>
</g>
<!-- Node13 -->
<g id="Node000013" class="node">
<title>Node13</title>
<g id="a_Node000013"><a xlink:href="classpsr_1_1FlowFunctions.html" target="_top" xlink:title=" ">
<polygon fill="white" stroke="#666666" points="400,-203.5 242,-203.5 242,-151.5 400,-151.5 400,-203.5"/>
<text text-anchor="start" x="250" y="-191.5" font-family="Helvetica,sans-Serif" font-size="10.00">psr::FlowFunctions</text>
<text text-anchor="start" x="250" y="-180.5" font-family="Helvetica,sans-Serif" font-size="10.00">&lt; IDEExtendedTaintAnalysis</text>
<text text-anchor="start" x="250" y="-169.5" font-family="Helvetica,sans-Serif" font-size="10.00">Domain, std::set&lt; typename</text>
<text text-anchor="middle" x="321" y="-158.5" font-family="Helvetica,sans-Serif" font-size="10.00"> AnalysisDomainTy::d_t &gt; &gt;</text>
</a>
</g>
</g>
<!-- Node0&#45;&gt;Node13 -->
<g id="edge283_Node000000_Node000013" class="edge">
<title>Node0&#45;&gt;Node13</title>
<g id="a_edge283_Node000000_Node000013"><a xlink:title=" ">
<path fill="none" stroke="darkgreen" d="M77.44,-530.93C79.95,-467.5 95.52,-301.75 188,-213.5 202.69,-199.48 222.29,-190.81 241.89,-185.48"/>
<polygon fill="darkgreen" stroke="darkgreen" points="73.93,-531.1 77.11,-541.2 80.93,-531.32 73.93,-531.1"/>
</a>
</g>
</g>
<!-- Node14 -->
<g id="Node000014" class="node">
<title>Node14</title>
<g id="a_Node000014"><a xlink:href="classpsr_1_1FlowFunctions.html" target="_top" xlink:title=" ">
<polygon fill="white" stroke="#666666" points="454,-133.5 188,-133.5 188,-81.5 454,-81.5 454,-133.5"/>
<text text-anchor="start" x="196" y="-121.5" font-family="Helvetica,sans-Serif" font-size="10.00">psr::FlowFunctions</text>
<text text-anchor="start" x="196" y="-110.5" font-family="Helvetica,sans-Serif" font-size="10.00">&lt; psr::IDETypeStateAnalysis</text>
<text text-anchor="start" x="196" y="-99.5" font-family="Helvetica,sans-Serif" font-size="10.00">Domain&lt; psr::OpenSSLEVPKDFDescription</text>
<text text-anchor="middle" x="321" y="-88.5" font-family="Helvetica,sans-Serif" font-size="10.00"> &gt;, std::set&lt; typename AnalysisDomainTy::d_t &gt; &gt;</text>
</a>
</g>
</g>
<!-- Node0&#45;&gt;Node14 -->
<g id="edge284_Node000000_Node000014" class="edge">
<title>Node0&#45;&gt;Node14</title>
<g id="a_edge284_Node000000_Node000014"><a xlink:title=" ">
<path fill="none" stroke="darkgreen" d="M80.44,-531.2C91.96,-450.1 131.64,-198.71 188,-142.5 191.27,-139.24 194.81,-136.27 198.56,-133.56"/>
<polygon fill="darkgreen" stroke="darkgreen" points="76.92,-531.08 79,-541.47 83.85,-532.05 76.92,-531.08"/>
</a>
</g>
</g>
<!-- Node15 -->
<g id="Node000015" class="node">
<title>Node15</title>
<g id="a_Node000015"><a xlink:href="classpsr_1_1FlowFunctions.html" target="_top" xlink:title=" ">
<polygon fill="white" stroke="#666666" points="412,-63 230,-63 230,0 412,0 412,-63"/>
<text text-anchor="start" x="238" y="-51" font-family="Helvetica,sans-Serif" font-size="10.00">psr::FlowFunctions</text>
<text text-anchor="start" x="238" y="-40" font-family="Helvetica,sans-Serif" font-size="10.00">&lt; psr::IDESecureHeapPropagation</text>
<text text-anchor="start" x="238" y="-29" font-family="Helvetica,sans-Serif" font-size="10.00">AnalysisDomain, std::set&lt;</text>
<text text-anchor="start" x="238" y="-18" font-family="Helvetica,sans-Serif" font-size="10.00"> typename AnalysisDomainTy</text>
<text text-anchor="middle" x="321" y="-7" font-family="Helvetica,sans-Serif" font-size="10.00">::d_t &gt; &gt;</text>
</a>
</g>
</g>
<!-- Node0&#45;&gt;Node15 -->
<g id="edge285_Node000000_Node000015" class="edge">
<title>Node0&#45;&gt;Node15</title>
<g id="a_edge285_Node000000_Node000015"><a xlink:title=" ">
<path fill="none" stroke="darkgreen" d="M79.52,-530.94C88.89,-441.03 124.42,-141.08 188,-72.5 199.34,-60.27 214.25,-51.66 229.96,-45.6"/>
<polygon fill="darkgreen" stroke="darkgreen" points="76.02,-530.76 78.49,-541.06 82.99,-531.47 76.02,-530.76"/>
</a>
</g>
</g>
</g>
</svg>
