<?xml version="1.0" encoding="UTF-8" standalone="no"?>
<!DOCTYPE svg PUBLIC "-//W3C//DTD SVG 1.1//EN"
 "http://www.w3.org/Graphics/SVG/1.1/DTD/svg11.dtd">
<!-- Generated by graphviz version 2.43.0 (0)
 -->
<!-- Title: Graphical Class Hierarchy Pages: 1 -->
<svg width="566pt" height="182pt"
 viewBox="0.00 0.00 566.00 182.00" xmlns="http://www.w3.org/2000/svg" xmlns:xlink="http://www.w3.org/1999/xlink">
<g id="graph0" class="graph" transform="scale(1 1) rotate(0) translate(4 178)">
<title>Graphical Class Hierarchy</title>
<!-- Node0 -->
<g id="Node000000" class="node">
<title>Node0</title>
<g id="a_Node000000"><a xlink:href="structpsr_1_1CFGTraits_3_01LLVMBasedCFG_01_4.html" target="_top" xlink:title=" ">
<polygon fill="white" stroke="#666666" points="151,-102 0,-102 0,-72 151,-72 151,-102"/>
<text text-anchor="start" x="8" y="-90" font-family="Helvetica,sans-Serif" font-size="10.00">psr::CFGTraits&lt; LLVMBased</text>
<text text-anchor="middle" x="75.5" y="-79" font-family="Helvetica,sans-Serif" font-size="10.00">CFG &gt;</text>
</a>
</g>
</g>
<!-- Node1 -->
<g id="Node000001" class="node">
<title>Node1</title>
<g id="a_Node000001"><a xlink:href="structpsr_1_1CFGTraits_3_01LLVMBasedBackwardCFG_01_4.html" target="_top" xlink:title=" ">
<polygon fill="white" stroke="#666666" points="354.5,-174 203.5,-174 203.5,-144 354.5,-144 354.5,-174"/>
<text text-anchor="start" x="211.5" y="-162" font-family="Helvetica,sans-Serif" font-size="10.00">psr::CFGTraits&lt; LLVMBased</text>
<text text-anchor="middle" x="279" y="-151" font-family="Helvetica,sans-Serif" font-size="10.00">BackwardCFG &gt;</text>
</a>
</g>
</g>
<!-- Node0&#45;&gt;Node1 -->
<g id="edge173_Node000000_Node000001" class="edge">
<title>Node0&#45;&gt;Node1</title>
<g id="a_edge173_Node000000_Node000001"><a xlink:title=" ">
<path fill="none" stroke="#63b8ff" d="M117.02,-106.36C137.67,-115.78 163.35,-126.8 187,-135 196.26,-138.21 206.18,-141.24 215.94,-143.99"/>
<polygon fill="#63b8ff" stroke="#63b8ff" points="118.45,-103.17 107.91,-102.17 115.52,-109.53 118.45,-103.17"/>
</a>
</g>
</g>
<!-- Node3 -->
<g id="Node000003" class="node">
<title>Node3</title>
<g id="a_Node000003"><a xlink:href="structpsr_1_1CFGTraits_3_01LLVMBasedICFG_01_4.html" target="_top" xlink:title=" ">
<polygon fill="white" stroke="#666666" points="354.5,-126 203.5,-126 203.5,-96 354.5,-96 354.5,-126"/>
<text text-anchor="start" x="211.5" y="-114" font-family="Helvetica,sans-Serif" font-size="10.00">psr::CFGTraits&lt; LLVMBased</text>
<text text-anchor="middle" x="279" y="-103" font-family="Helvetica,sans-Serif" font-size="10.00">ICFG &gt;</text>
</a>
</g>
</g>
<!-- Node0&#45;&gt;Node3 -->
<g id="edge175_Node000000_Node000003" class="edge">
<title>Node0&#45;&gt;Node3</title>
<g id="a_edge175_Node000000_Node000003"><a xlink:title=" ">
<path fill="none" stroke="#63b8ff" d="M161.33,-97.1C175.29,-98.77 189.68,-100.48 203.38,-102.11"/>
<polygon fill="#63b8ff" stroke="#63b8ff" points="161.59,-93.61 151.24,-95.9 160.76,-100.56 161.59,-93.61"/>
</a>
</g>
</g>
<!-- Node4 -->
<g id="Node000004" class="node">
<title>Node4</title>
<g id="a_Node000004"><a xlink:href="structpsr_1_1CFGTraits_3_01SparseLLVMBasedCFG_01_4.html" target="_top" xlink:title=" ">
<polygon fill="white" stroke="#666666" points="371,-78 187,-78 187,-48 371,-48 371,-78"/>
<text text-anchor="start" x="195" y="-66" font-family="Helvetica,sans-Serif" font-size="10.00">psr::CFGTraits&lt; SparseLLVMBased</text>
<text text-anchor="middle" x="279" y="-55" font-family="Helvetica,sans-Serif" font-size="10.00">CFG &gt;</text>
</a>
</g>
</g>
<!-- Node0&#45;&gt;Node4 -->
<g id="edge176_Node000000_Node000004" class="edge">
<title>Node0&#45;&gt;Node4</title>
<g id="a_edge176_Node000000_Node000004"><a xlink:title=" ">
<path fill="none" stroke="#63b8ff" d="M161.18,-76.91C169.71,-75.9 178.4,-74.86 187,-73.84"/>
<polygon fill="#63b8ff" stroke="#63b8ff" points="160.76,-73.44 151.24,-78.1 161.59,-80.39 160.76,-73.44"/>
</a>
</g>
</g>
<!-- Node5 -->
<g id="Node000005" class="node">
<title>Node5</title>
<g id="a_Node000005"><a xlink:href="structpsr_1_1CFGTraits_3_01SparseLLVMBasedICFGView_01_4.html" target="_top" xlink:title=" ">
<polygon fill="white" stroke="#666666" points="371,-30 187,-30 187,0 371,0 371,-30"/>
<text text-anchor="start" x="195" y="-18" font-family="Helvetica,sans-Serif" font-size="10.00">psr::CFGTraits&lt; SparseLLVMBased</text>
<text text-anchor="middle" x="279" y="-7" font-family="Helvetica,sans-Serif" font-size="10.00">ICFGView &gt;</text>
</a>
</g>
</g>
<!-- Node0&#45;&gt;Node5 -->
<g id="edge177_Node000000_Node000005" class="edge">
<title>Node0&#45;&gt;Node5</title>
<g id="a_edge177_Node000000_Node000005"><a xlink:title=" ">
<path fill="none" stroke="#63b8ff" d="M117.02,-67.64C137.67,-58.22 163.35,-47.2 187,-39 196.26,-35.79 206.18,-32.76 215.94,-30.01"/>
<polygon fill="#63b8ff" stroke="#63b8ff" points="115.52,-64.47 107.91,-71.83 118.45,-70.83 115.52,-64.47"/>
</a>
</g>
</g>
<!-- Node2 -->
<g id="Node000002" class="node">
<title>Node2</title>
<g id="a_Node000002"><a xlink:href="structpsr_1_1CFGTraits_3_01LLVMBasedBackwardICFG_01_4.html" target="_top" xlink:title=" ">
<polygon fill="white" stroke="#666666" points="558,-174 407,-174 407,-144 558,-144 558,-174"/>
<text text-anchor="start" x="415" y="-162" font-family="Helvetica,sans-Serif" font-size="10.00">psr::CFGTraits&lt; LLVMBased</text>
<text text-anchor="middle" x="482.5" y="-151" font-family="Helvetica,sans-Serif" font-size="10.00">BackwardICFG &gt;</text>
</a>
</g>
</g>
<!-- Node1&#45;&gt;Node2 -->
<g id="edge174_Node000001_Node000002" class="edge">
<title>Node1&#45;&gt;Node2</title>
<g id="a_edge174_Node000001_Node000002"><a xlink:title=" ">
<path fill="none" stroke="#63b8ff" d="M364.83,-159C378.79,-159 393.18,-159 406.88,-159"/>
<polygon fill="#63b8ff" stroke="#63b8ff" points="364.74,-155.5 354.74,-159 364.74,-162.5 364.74,-155.5"/>
</a>
</g>
</g>
</g>
</svg>
