<?xml version="1.0" encoding="UTF-8" standalone="no"?>
<!DOCTYPE svg PUBLIC "-//W3C//DTD SVG 1.1//EN"
 "http://www.w3.org/Graphics/SVG/1.1/DTD/svg11.dtd">
<!-- Generated by graphviz version 2.43.0 (0)
 -->
<!-- Title: Graphical Class Hierarchy Pages: 1 -->
<svg width="446pt" height="1396pt"
 viewBox="0.00 0.00 446.00 1396.00" xmlns="http://www.w3.org/2000/svg" xmlns:xlink="http://www.w3.org/1999/xlink">
<g id="graph0" class="graph" transform="scale(1 1) rotate(0) translate(4 1392)">
<title>Graphical Class Hierarchy</title>
<!-- Node0 -->
<g id="Node000000" class="node">
<title>Node0</title>
<g id="a_Node000000"><a xlink:title=" ">
<polygon fill="#e0e0e0" stroke="#999999" points="176,-664 0,-664 0,-634 176,-634 176,-664"/>
<text text-anchor="start" x="8" y="-652" font-family="Helvetica,sans-Serif" font-size="10.00">psr::detail::MaybeUnique</text>
<text text-anchor="middle" x="88" y="-641" font-family="Helvetica,sans-Serif" font-size="10.00">PtrBase&lt; T, RequireAlignment &gt;</text>
</a>
</g>
</g>
<!-- Node1 -->
<g id="Node000001" class="node">
<title>Node1</title>
<g id="a_Node000001"><a xlink:href="classpsr_1_1MaybeUniquePtr.html" target="_top" xlink:title=" ">
<polygon fill="white" stroke="#666666" points="426.5,-1388 223.5,-1388 223.5,-1336 426.5,-1336 426.5,-1388"/>
<text text-anchor="start" x="231.5" y="-1376" font-family="Helvetica,sans-Serif" font-size="10.00">psr::MaybeUniquePtr</text>
<text text-anchor="start" x="231.5" y="-1365" font-family="Helvetica,sans-Serif" font-size="10.00">&lt; psr::AnalysisPrinterBase</text>
<text text-anchor="start" x="231.5" y="-1354" font-family="Helvetica,sans-Serif" font-size="10.00">&lt; WithBinaryValueDomain</text>
<text text-anchor="middle" x="325" y="-1343" font-family="Helvetica,sans-Serif" font-size="10.00">&lt; LLVMAnalysisDomainDefault &gt; &gt; &gt;</text>
</a>
</g>
</g>
<!-- Node0&#45;&gt;Node1 -->
<g id="edge219_Node000000_Node000001" class="edge">
<title>Node0&#45;&gt;Node1</title>
<g id="a_edge219_Node000000_Node000001"><a xlink:title=" ">
<path fill="none" stroke="#8b1a1a" d="M90.18,-674.42C95.81,-785.46 123.55,-1226.9 212,-1327 215.37,-1330.82 219.15,-1334.22 223.23,-1337.26"/>
<polygon fill="#8b1a1a" stroke="#8b1a1a" points="93.66,-673.99 89.67,-664.17 86.67,-674.33 93.66,-673.99"/>
</a>
</g>
</g>
<!-- Node2 -->
<g id="Node000002" class="node">
<title>Node2</title>
<g id="a_Node000002"><a xlink:href="classpsr_1_1MaybeUniquePtr.html" target="_top" xlink:title=" ">
<polygon fill="white" stroke="#666666" points="438,-1318 212,-1318 212,-1266 438,-1266 438,-1318"/>
<text text-anchor="start" x="220" y="-1306" font-family="Helvetica,sans-Serif" font-size="10.00">psr::MaybeUniquePtr</text>
<text text-anchor="start" x="220" y="-1295" font-family="Helvetica,sans-Serif" font-size="10.00">&lt; psr::AnalysisPrinterBase</text>
<text text-anchor="start" x="220" y="-1284" font-family="Helvetica,sans-Serif" font-size="10.00">&lt; WithBinaryValueDomain</text>
<text text-anchor="middle" x="325" y="-1273" font-family="Helvetica,sans-Serif" font-size="10.00">&lt; LLVMIFDSAnalysisDomainDefault &gt; &gt; &gt;</text>
</a>
</g>
</g>
<!-- Node0&#45;&gt;Node2 -->
<g id="edge220_Node000000_Node000002" class="edge">
<title>Node0&#45;&gt;Node2</title>
<g id="a_edge220_Node000000_Node000002"><a xlink:title=" ">
<path fill="none" stroke="#8b1a1a" d="M90.75,-674.42C98.41,-778.2 132.15,-1168.45 212,-1257 214.86,-1260.18 218.01,-1263.07 221.38,-1265.7"/>
<polygon fill="#8b1a1a" stroke="#8b1a1a" points="94.23,-673.97 90.02,-664.25 87.25,-674.47 94.23,-673.97"/>
</a>
</g>
</g>
<!-- Node3 -->
<g id="Node000003" class="node">
<title>Node3</title>
<g id="a_Node000003"><a xlink:href="classpsr_1_1MaybeUniquePtr.html" target="_top" xlink:title=" ">
<polygon fill="white" stroke="#666666" points="428,-1247.5 222,-1247.5 222,-1206.5 428,-1206.5 428,-1247.5"/>
<text text-anchor="start" x="230" y="-1235.5" font-family="Helvetica,sans-Serif" font-size="10.00">psr::MaybeUniquePtr</text>
<text text-anchor="start" x="230" y="-1224.5" font-family="Helvetica,sans-Serif" font-size="10.00">&lt; psr::AnalysisPrinterBase</text>
<text text-anchor="middle" x="325" y="-1213.5" font-family="Helvetica,sans-Serif" font-size="10.00">&lt; IDEFeatureTaintAnalysisDomain &gt; &gt;</text>
</a>
</g>
</g>
<!-- Node0&#45;&gt;Node3 -->
<g id="edge221_Node000000_Node000003" class="edge">
<title>Node0&#45;&gt;Node3</title>
<g id="a_edge221_Node000000_Node000003"><a xlink:title=" ">
<path fill="none" stroke="#8b1a1a" d="M91.21,-674.23C100.22,-771.53 137.36,-1120.86 212,-1198 214.93,-1201.03 218.14,-1203.76 221.55,-1206.22"/>
<polygon fill="#8b1a1a" stroke="#8b1a1a" points="94.68,-673.77 90.29,-664.13 87.71,-674.41 94.68,-673.77"/>
</a>
</g>
</g>
<!-- Node4 -->
<g id="Node000004" class="node">
<title>Node4</title>
<g id="a_Node000004"><a xlink:href="classpsr_1_1MaybeUniquePtr.html" target="_top" xlink:title=" ">
<polygon fill="white" stroke="#666666" points="416,-1188.5 234,-1188.5 234,-1147.5 416,-1147.5 416,-1188.5"/>
<text text-anchor="start" x="242" y="-1176.5" font-family="Helvetica,sans-Serif" font-size="10.00">psr::MaybeUniquePtr</text>
<text text-anchor="start" x="242" y="-1165.5" font-family="Helvetica,sans-Serif" font-size="10.00">&lt; psr::AnalysisPrinterBase</text>
<text text-anchor="middle" x="325" y="-1154.5" font-family="Helvetica,sans-Serif" font-size="10.00">&lt; IDEGeneralizedLCADomain &gt; &gt;</text>
</a>
</g>
</g>
<!-- Node0&#45;&gt;Node4 -->
<g id="edge222_Node000000_Node000004" class="edge">
<title>Node0&#45;&gt;Node4</title>
<g id="a_edge222_Node000000_Node000004"><a xlink:title=" ">
<path fill="none" stroke="#8b1a1a" d="M91.99,-674.34C103.15,-764.81 145.22,-1070.19 212,-1138 218.29,-1144.38 225.77,-1149.45 233.85,-1153.47"/>
<polygon fill="#8b1a1a" stroke="#8b1a1a" points="95.43,-673.67 90.75,-664.17 88.48,-674.52 95.43,-673.67"/>
</a>
</g>
</g>
<!-- Node5 -->
<g id="Node000005" class="node">
<title>Node5</title>
<g id="a_Node000005"><a xlink:href="classpsr_1_1MaybeUniquePtr.html" target="_top" xlink:title=" ">
<polygon fill="white" stroke="#666666" points="422,-1129 228,-1129 228,-1077 422,-1077 422,-1129"/>
<text text-anchor="start" x="236" y="-1117" font-family="Helvetica,sans-Serif" font-size="10.00">psr::MaybeUniquePtr</text>
<text text-anchor="start" x="236" y="-1106" font-family="Helvetica,sans-Serif" font-size="10.00">&lt; psr::AnalysisPrinterBase</text>
<text text-anchor="start" x="236" y="-1095" font-family="Helvetica,sans-Serif" font-size="10.00">&lt; IDEInstInteractionAnalysisDomain</text>
<text text-anchor="middle" x="325" y="-1084" font-family="Helvetica,sans-Serif" font-size="10.00">&lt; std::string &gt; &gt; &gt;</text>
</a>
</g>
</g>
<!-- Node0&#45;&gt;Node5 -->
<g id="edge223_Node000000_Node000005" class="edge">
<title>Node0&#45;&gt;Node5</title>
<g id="a_edge223_Node000000_Node000005"><a xlink:title=" ">
<path fill="none" stroke="#8b1a1a" d="M88.68,-674.44C89.2,-746.63 100.78,-954.83 212,-1068 216.71,-1072.79 222.07,-1076.93 227.83,-1080.51"/>
<polygon fill="#8b1a1a" stroke="#8b1a1a" points="92.18,-674.06 88.68,-664.06 85.18,-674.06 92.18,-674.06"/>
</a>
</g>
</g>
<!-- Node6 -->
<g id="Node000006" class="node">
<title>Node6</title>
<g id="a_Node000006"><a xlink:href="classpsr_1_1MaybeUniquePtr.html" target="_top" xlink:title=" ">
<polygon fill="white" stroke="#666666" points="435,-1058.5 215,-1058.5 215,-1017.5 435,-1017.5 435,-1058.5"/>
<text text-anchor="start" x="223" y="-1046.5" font-family="Helvetica,sans-Serif" font-size="10.00">psr::MaybeUniquePtr</text>
<text text-anchor="start" x="223" y="-1035.5" font-family="Helvetica,sans-Serif" font-size="10.00">&lt; psr::AnalysisPrinterBase</text>
<text text-anchor="middle" x="325" y="-1024.5" font-family="Helvetica,sans-Serif" font-size="10.00">&lt; IDELinearConstantAnalysisDomain &gt; &gt;</text>
</a>
</g>
</g>
<!-- Node0&#45;&gt;Node6 -->
<g id="edge224_Node000000_Node000006" class="edge">
<title>Node0&#45;&gt;Node6</title>
<g id="a_edge224_Node000000_Node000006"><a xlink:title=" ">
<path fill="none" stroke="#8b1a1a" d="M89.84,-674.63C93.45,-740.44 112.4,-916.69 212,-1009 215.39,-1012.14 219.07,-1014.95 222.97,-1017.46"/>
<polygon fill="#8b1a1a" stroke="#8b1a1a" points="93.33,-674.18 89.36,-664.35 86.33,-674.51 93.33,-674.18"/>
</a>
</g>
</g>
<!-- Node7 -->
<g id="Node000007" class="node">
<title>Node7</title>
<g id="a_Node000007"><a xlink:href="classpsr_1_1MaybeUniquePtr.html" target="_top" xlink:title=" ">
<polygon fill="white" stroke="#666666" points="411,-999.5 239,-999.5 239,-958.5 411,-958.5 411,-999.5"/>
<text text-anchor="start" x="247" y="-987.5" font-family="Helvetica,sans-Serif" font-size="10.00">psr::MaybeUniquePtr</text>
<text text-anchor="start" x="247" y="-976.5" font-family="Helvetica,sans-Serif" font-size="10.00">&lt; psr::AnalysisPrinterBase</text>
<text text-anchor="middle" x="325" y="-965.5" font-family="Helvetica,sans-Serif" font-size="10.00">&lt; IDEProtoAnalysisDomain &gt; &gt;</text>
</a>
</g>
</g>
<!-- Node0&#45;&gt;Node7 -->
<g id="edge225_Node000000_Node000007" class="edge">
<title>Node0&#45;&gt;Node7</title>
<g id="a_edge225_Node000000_Node000007"><a xlink:title=" ">
<path fill="none" stroke="#8b1a1a" d="M91.83,-674.2C99.67,-731.88 127.05,-874.23 212,-949 219.86,-955.92 229.14,-961.26 238.96,-965.38"/>
<polygon fill="#8b1a1a" stroke="#8b1a1a" points="95.28,-673.63 90.54,-664.15 88.34,-674.51 95.28,-673.63"/>
</a>
</g>
</g>
<!-- Node8 -->
<g id="Node000008" class="node">
<title>Node8</title>
<g id="a_Node000008"><a xlink:href="classpsr_1_1MaybeUniquePtr.html" target="_top" xlink:title=" ">
<polygon fill="white" stroke="#666666" points="426.5,-940 223.5,-940 223.5,-888 426.5,-888 426.5,-940"/>
<text text-anchor="start" x="231.5" y="-928" font-family="Helvetica,sans-Serif" font-size="10.00">psr::MaybeUniquePtr</text>
<text text-anchor="start" x="231.5" y="-917" font-family="Helvetica,sans-Serif" font-size="10.00">&lt; psr::AnalysisPrinterBase</text>
<text text-anchor="start" x="231.5" y="-906" font-family="Helvetica,sans-Serif" font-size="10.00">&lt; IDESecureHeapPropagationAnalysis</text>
<text text-anchor="middle" x="325" y="-895" font-family="Helvetica,sans-Serif" font-size="10.00">Domain &gt; &gt;</text>
</a>
</g>
</g>
<!-- Node0&#45;&gt;Node8 -->
<g id="edge226_Node000000_Node000008" class="edge">
<title>Node0&#45;&gt;Node8</title>
<g id="a_edge226_Node000000_Node000008"><a xlink:title=" ">
<path fill="none" stroke="#8b1a1a" d="M95.47,-673.87C108.98,-720.95 144.7,-823.31 212,-879 215.92,-882.25 220.15,-885.19 224.58,-887.87"/>
<polygon fill="#8b1a1a" stroke="#8b1a1a" points="98.83,-672.89 92.78,-664.19 92.08,-674.76 98.83,-672.89"/>
</a>
</g>
</g>
<!-- Node9 -->
<g id="Node000009" class="node">
<title>Node9</title>
<g id="a_Node000009"><a xlink:href="classpsr_1_1MaybeUniquePtr.html" target="_top" xlink:title=" ">
<polygon fill="white" stroke="#666666" points="423.5,-869.5 226.5,-869.5 226.5,-828.5 423.5,-828.5 423.5,-869.5"/>
<text text-anchor="start" x="234.5" y="-857.5" font-family="Helvetica,sans-Serif" font-size="10.00">psr::MaybeUniquePtr</text>
<text text-anchor="start" x="234.5" y="-846.5" font-family="Helvetica,sans-Serif" font-size="10.00">&lt; psr::AnalysisPrinterBase</text>
<text text-anchor="middle" x="325" y="-835.5" font-family="Helvetica,sans-Serif" font-size="10.00">&lt; IDESolverTestAnalysisDomain &gt; &gt;</text>
</a>
</g>
</g>
<!-- Node0&#45;&gt;Node9 -->
<g id="edge227_Node000000_Node000009" class="edge">
<title>Node0&#45;&gt;Node9</title>
<g id="a_edge227_Node000000_Node000009"><a xlink:title=" ">
<path fill="none" stroke="#8b1a1a" d="M99.87,-673.28C117.78,-710.46 157.05,-781.16 212,-819 217.14,-822.54 222.68,-825.66 228.44,-828.42"/>
<polygon fill="#8b1a1a" stroke="#8b1a1a" points="103,-671.72 95.58,-664.16 96.67,-674.7 103,-671.72"/>
</a>
</g>
</g>
<!-- Node10 -->
<g id="Node000010" class="node">
<title>Node10</title>
<g id="a_Node000010"><a xlink:href="classpsr_1_1MaybeUniquePtr.html" target="_top" xlink:title=" ">
<polygon fill="white" stroke="#666666" points="413,-810 237,-810 237,-758 413,-758 413,-810"/>
<text text-anchor="start" x="245" y="-798" font-family="Helvetica,sans-Serif" font-size="10.00">psr::MaybeUniquePtr</text>
<text text-anchor="start" x="245" y="-787" font-family="Helvetica,sans-Serif" font-size="10.00">&lt; psr::AnalysisPrinterBase</text>
<text text-anchor="start" x="245" y="-776" font-family="Helvetica,sans-Serif" font-size="10.00">&lt; IDETypeStateAnalysisDomain</text>
<text text-anchor="middle" x="325" y="-765" font-family="Helvetica,sans-Serif" font-size="10.00">&lt; TypeStateDescriptionTy &gt; &gt; &gt;</text>
</a>
</g>
</g>
<!-- Node0&#45;&gt;Node10 -->
<g id="edge228_Node000000_Node000010" class="edge">
<title>Node0&#45;&gt;Node10</title>
<g id="a_edge228_Node000000_Node000010"><a xlink:title=" ">
<path fill="none" stroke="#8b1a1a" d="M110.81,-671.13C134.03,-693.59 172.79,-727.95 212,-749 219.81,-753.19 228.2,-756.97 236.74,-760.35"/>
<polygon fill="#8b1a1a" stroke="#8b1a1a" points="113.14,-668.52 103.55,-664.01 108.23,-673.51 113.14,-668.52"/>
</a>
</g>
</g>
<!-- Node11 -->
<g id="Node000011" class="node">
<title>Node11</title>
<g id="a_Node000011"><a xlink:href="classpsr_1_1MaybeUniquePtr.html" target="_top" xlink:title=" ">
<polygon fill="white" stroke="#666666" points="401,-740 249,-740 249,-688 401,-688 401,-740"/>
<text text-anchor="start" x="257" y="-728" font-family="Helvetica,sans-Serif" font-size="10.00">psr::MaybeUniquePtr</text>
<text text-anchor="start" x="257" y="-717" font-family="Helvetica,sans-Serif" font-size="10.00">&lt; psr::AnalysisPrinterBase</text>
<text text-anchor="start" x="257" y="-706" font-family="Helvetica,sans-Serif" font-size="10.00">&lt; WithBinaryValueDomain</text>
<text text-anchor="middle" x="325" y="-695" font-family="Helvetica,sans-Serif" font-size="10.00">&lt; AnalysisDomainTy &gt; &gt; &gt;</text>
</a>
</g>
</g>
<!-- Node0&#45;&gt;Node11 -->
<g id="edge229_Node000000_Node000011" class="edge">
<title>Node0&#45;&gt;Node11</title>
<g id="a_edge229_Node000000_Node000011"><a xlink:title=" ">
<path fill="none" stroke="#8b1a1a" d="M153.3,-666.78C182.85,-674.96 218.1,-684.71 248.88,-693.22"/>
<polygon fill="#8b1a1a" stroke="#8b1a1a" points="154.08,-663.37 143.5,-664.08 152.21,-670.11 154.08,-663.37"/>
</a>
</g>
</g>
<!-- Node12 -->
<g id="Node000012" class="node">
<title>Node12</title>
<g id="a_Node000012"><a xlink:href="classpsr_1_1MaybeUniquePtr.html" target="_top" xlink:title=" ">
<polygon fill="white" stroke="#666666" points="398,-669.5 252,-669.5 252,-628.5 398,-628.5 398,-669.5"/>
<text text-anchor="start" x="260" y="-657.5" font-family="Helvetica,sans-Serif" font-size="10.00">psr::MaybeUniquePtr</text>
<text text-anchor="start" x="260" y="-646.5" font-family="Helvetica,sans-Serif" font-size="10.00">&lt; psr::AnalysisPrinterBase</text>
<text text-anchor="middle" x="325" y="-635.5" font-family="Helvetica,sans-Serif" font-size="10.00">&lt; AnalysisDomainTy &gt; &gt;</text>
</a>
</g>
</g>
<!-- Node0&#45;&gt;Node12 -->
<g id="edge230_Node000000_Node000012" class="edge">
<title>Node0&#45;&gt;Node12</title>
<g id="a_edge230_Node000000_Node000012"><a xlink:title=" ">
<path fill="none" stroke="#8b1a1a" d="M186.2,-649C208.21,-649 231.21,-649 251.96,-649"/>
<polygon fill="#8b1a1a" stroke="#8b1a1a" points="186.17,-645.5 176.17,-649 186.17,-652.5 186.17,-645.5"/>
</a>
</g>
</g>
<!-- Node13 -->
<g id="Node000013" class="node">
<title>Node13</title>
<g id="a_Node000013"><a xlink:href="classpsr_1_1MaybeUniquePtr.html" target="_top" xlink:title=" ">
<polygon fill="white" stroke="#666666" points="432.5,-610.5 217.5,-610.5 217.5,-569.5 432.5,-569.5 432.5,-610.5"/>
<text text-anchor="start" x="225.5" y="-598.5" font-family="Helvetica,sans-Serif" font-size="10.00">psr::MaybeUniquePtr</text>
<text text-anchor="start" x="225.5" y="-587.5" font-family="Helvetica,sans-Serif" font-size="10.00">&lt; psr::AnalysisPrinterBase</text>
<text text-anchor="middle" x="325" y="-576.5" font-family="Helvetica,sans-Serif" font-size="10.00">&lt; IDEExtendedTaintAnalysisDomain &gt; &gt;</text>
</a>
</g>
</g>
<!-- Node0&#45;&gt;Node13 -->
<g id="edge231_Node000000_Node000013" class="edge">
<title>Node0&#45;&gt;Node13</title>
<g id="a_edge231_Node000000_Node000013"><a xlink:title=" ">
<path fill="none" stroke="#8b1a1a" d="M158.73,-631.49C184.9,-624.92 214.86,-617.4 242.04,-610.58"/>
<polygon fill="#8b1a1a" stroke="#8b1a1a" points="157.76,-628.13 148.91,-633.96 159.46,-634.92 157.76,-628.13"/>
</a>
</g>
</g>
<!-- Node14 -->
<g id="Node000014" class="node">
<title>Node14</title>
<g id="a_Node000014"><a xlink:href="classpsr_1_1MaybeUniquePtr.html" target="_top" xlink:title=" ">
<polygon fill="white" stroke="#666666" points="420.5,-551.5 229.5,-551.5 229.5,-510.5 420.5,-510.5 420.5,-551.5"/>
<text text-anchor="start" x="237.5" y="-539.5" font-family="Helvetica,sans-Serif" font-size="10.00">psr::MaybeUniquePtr</text>
<text text-anchor="start" x="237.5" y="-528.5" font-family="Helvetica,sans-Serif" font-size="10.00">&lt; const psr::DIBasedTypeHierarchy,</text>
<text text-anchor="middle" x="325" y="-517.5" font-family="Helvetica,sans-Serif" font-size="10.00"> true &gt;</text>
</a>
</g>
</g>
<!-- Node0&#45;&gt;Node14 -->
<g id="edge232_Node000000_Node000014" class="edge">
<title>Node0&#45;&gt;Node14</title>
<g id="a_edge232_Node000000_Node000014"><a xlink:title=" ">
<path fill="none" stroke="#8b1a1a" d="M113.85,-627.08C137.56,-607.22 175.05,-578.46 212,-561 219.37,-557.52 227.21,-554.39 235.19,-551.58"/>
<polygon fill="#8b1a1a" stroke="#8b1a1a" points="111.41,-624.56 106.06,-633.7 115.95,-629.89 111.41,-624.56"/>
</a>
</g>
</g>
<!-- Node15 -->
<g id="Node000015" class="node">
<title>Node15</title>
<g id="a_Node000015"><a xlink:href="classpsr_1_1MaybeUniquePtr.html" target="_top" xlink:title=" ">
<polygon fill="white" stroke="#666666" points="384.5,-492 265.5,-492 265.5,-462 384.5,-462 384.5,-492"/>
<text text-anchor="start" x="273.5" y="-480" font-family="Helvetica,sans-Serif" font-size="10.00">psr::MaybeUniquePtr</text>
<text text-anchor="middle" x="325" y="-469" font-family="Helvetica,sans-Serif" font-size="10.00">&lt; z3::context &gt;</text>
</a>
</g>
</g>
<!-- Node0&#45;&gt;Node15 -->
<g id="edge233_Node000000_Node000015" class="edge">
<title>Node0&#45;&gt;Node15</title>
<g id="a_edge233_Node000000_Node000015"><a xlink:title=" ">
<path fill="none" stroke="#8b1a1a" d="M102.38,-624.66C121.94,-591.49 161.55,-532.71 212,-502 228,-492.26 247.35,-486.3 265.43,-482.66"/>
<polygon fill="#8b1a1a" stroke="#8b1a1a" points="99.14,-623.27 97.18,-633.69 105.21,-626.77 99.14,-623.27"/>
</a>
</g>
</g>
<!-- Node16 -->
<g id="Node000016" class="node">
<title>Node16</title>
<g id="a_Node000016"><a xlink:href="classpsr_1_1MaybeUniquePtr.html" target="_top" xlink:title=" ">
<polygon fill="white" stroke="#666666" points="384.5,-444 265.5,-444 265.5,-414 384.5,-414 384.5,-444"/>
<text text-anchor="start" x="273.5" y="-432" font-family="Helvetica,sans-Serif" font-size="10.00">psr::MaybeUniquePtr</text>
<text text-anchor="middle" x="325" y="-421" font-family="Helvetica,sans-Serif" font-size="10.00">&lt; llvm::Module &gt;</text>
</a>
</g>
</g>
<!-- Node0&#45;&gt;Node16 -->
<g id="edge234_Node000000_Node000016" class="edge">
<title>Node0&#45;&gt;Node16</title>
<g id="a_edge234_Node000000_Node000016"><a xlink:title=" ">
<path fill="none" stroke="#8b1a1a" d="M97.21,-624.34C112.61,-582.13 149.98,-496.42 212,-453 227.56,-442.11 247.09,-436 265.48,-432.63"/>
<polygon fill="#8b1a1a" stroke="#8b1a1a" points="93.89,-623.25 93.85,-633.84 100.49,-625.58 93.89,-623.25"/>
</a>
</g>
</g>
<!-- Node17 -->
<g id="Node000017" class="node">
<title>Node17</title>
<g id="a_Node000017"><a xlink:href="classpsr_1_1MaybeUniquePtr.html" target="_top" xlink:title=" ">
<polygon fill="white" stroke="#666666" points="390.5,-396 259.5,-396 259.5,-366 390.5,-366 390.5,-396"/>
<text text-anchor="start" x="267.5" y="-384" font-family="Helvetica,sans-Serif" font-size="10.00">psr::MaybeUniquePtr</text>
<text text-anchor="middle" x="325" y="-373" font-family="Helvetica,sans-Serif" font-size="10.00">&lt; llvm::raw_ostream &gt;</text>
</a>
</g>
</g>
<!-- Node0&#45;&gt;Node17 -->
<g id="edge235_Node000000_Node000017" class="edge">
<title>Node0&#45;&gt;Node17</title>
<g id="a_edge235_Node000000_Node000017"><a xlink:title=" ">
<path fill="none" stroke="#8b1a1a" d="M94.12,-623.81C105.68,-573.72 138.71,-461.58 212,-405 225.54,-394.55 242.62,-388.41 259.33,-384.87"/>
<polygon fill="#8b1a1a" stroke="#8b1a1a" points="90.65,-623.27 91.91,-633.79 97.49,-624.78 90.65,-623.27"/>
</a>
</g>
</g>
<!-- Node18 -->
<g id="Node000018" class="node">
<title>Node18</title>
<g id="a_Node000018"><a xlink:href="classpsr_1_1MaybeUniquePtr.html" target="_top" xlink:title=" ">
<polygon fill="white" stroke="#666666" points="435,-348 215,-348 215,-296 435,-296 435,-348"/>
<text text-anchor="start" x="223" y="-336" font-family="Helvetica,sans-Serif" font-size="10.00">psr::MaybeUniquePtr</text>
<text text-anchor="start" x="223" y="-325" font-family="Helvetica,sans-Serif" font-size="10.00">&lt; psr::AnalysisPrinterBase</text>
<text text-anchor="start" x="223" y="-314" font-family="Helvetica,sans-Serif" font-size="10.00">&lt; psr::IDETypeStateAnalysisDomain</text>
<text text-anchor="middle" x="325" y="-303" font-family="Helvetica,sans-Serif" font-size="10.00">&lt; psr::OpenSSLEVPKDFDescription &gt; &gt; &gt;</text>
</a>
</g>
</g>
<!-- Node0&#45;&gt;Node18 -->
<g id="edge236_Node000000_Node000018" class="edge">
<title>Node0&#45;&gt;Node18</title>
<g id="a_edge236_Node000000_Node000018"><a xlink:title=" ">
<path fill="none" stroke="#8b1a1a" d="M92.43,-623.55C101.39,-567.16 130.7,-430.86 212,-357 215.62,-353.71 219.54,-350.73 223.68,-348.03"/>
<polygon fill="#8b1a1a" stroke="#8b1a1a" points="88.93,-623.31 90.9,-633.72 95.85,-624.35 88.93,-623.31"/>
</a>
</g>
</g>
<!-- Node19 -->
<g id="Node000019" class="node">
<title>Node19</title>
<g id="a_Node000019"><a xlink:href="classpsr_1_1MaybeUniquePtr.html" target="_top" xlink:title=" ">
<polygon fill="white" stroke="#666666" points="416,-278 234,-278 234,-226 416,-226 416,-278"/>
<text text-anchor="start" x="242" y="-266" font-family="Helvetica,sans-Serif" font-size="10.00">psr::MaybeUniquePtr</text>
<text text-anchor="start" x="242" y="-255" font-family="Helvetica,sans-Serif" font-size="10.00">&lt; psr::AnalysisPrinterBase</text>
<text text-anchor="start" x="242" y="-244" font-family="Helvetica,sans-Serif" font-size="10.00">&lt; psr::IDESecureHeapPropagation</text>
<text text-anchor="middle" x="325" y="-233" font-family="Helvetica,sans-Serif" font-size="10.00">AnalysisDomain &gt; &gt;</text>
</a>
</g>
</g>
<!-- Node0&#45;&gt;Node19 -->
<g id="edge237_Node000000_Node000019" class="edge">
<title>Node0&#45;&gt;Node19</title>
<g id="a_edge237_Node000000_Node000019"><a xlink:title=" ">
<path fill="none" stroke="#8b1a1a" d="M90.07,-623.52C94.2,-558.03 114.32,-382.3 212,-287 218.42,-280.74 225.93,-275.6 233.99,-271.38"/>
<polygon fill="#8b1a1a" stroke="#8b1a1a" points="86.56,-623.56 89.5,-633.74 93.55,-623.95 86.56,-623.56"/>
</a>
</g>
</g>
<!-- Node20 -->
<g id="Node000020" class="node">
<title>Node20</title>
<g id="a_Node000020"><a xlink:href="classpsr_1_1MaybeUniquePtr.html" target="_top" xlink:title=" ">
<polygon fill="white" stroke="#666666" points="396.5,-208 253.5,-208 253.5,-156 396.5,-156 396.5,-208"/>
<text text-anchor="start" x="261.5" y="-196" font-family="Helvetica,sans-Serif" font-size="10.00">psr::MaybeUniquePtr</text>
<text text-anchor="start" x="261.5" y="-185" font-family="Helvetica,sans-Serif" font-size="10.00">&lt; const CallGraph&lt; const</text>
<text text-anchor="start" x="261.5" y="-174" font-family="Helvetica,sans-Serif" font-size="10.00"> llvm::Instruction *, const</text>
<text text-anchor="middle" x="325" y="-163" font-family="Helvetica,sans-Serif" font-size="10.00"> llvm::Function * &gt; &gt;</text>
</a>
</g>
</g>
<!-- Node0&#45;&gt;Node20 -->
<g id="edge238_Node000000_Node000020" class="edge">
<title>Node0&#45;&gt;Node20</title>
<g id="a_edge238_Node000000_Node000020"><a xlink:title=" ">
<path fill="none" stroke="#8b1a1a" d="M88.42,-623.75C88.13,-550.27 97.58,-334.38 212,-217 223.16,-205.55 238.01,-197.83 253.23,-192.63"/>
<polygon fill="#8b1a1a" stroke="#8b1a1a" points="84.92,-623.94 88.52,-633.9 91.92,-623.87 84.92,-623.94"/>
</a>
</g>
</g>
<!-- Node21 -->
<g id="Node000021" class="node">
<title>Node21</title>
<g id="a_Node000021"><a xlink:href="classpsr_1_1MaybeUniquePtr.html" target="_top" xlink:title=" ">
<polygon fill="white" stroke="#666666" points="384.5,-138 265.5,-138 265.5,-108 384.5,-108 384.5,-138"/>
<text text-anchor="start" x="273.5" y="-126" font-family="Helvetica,sans-Serif" font-size="10.00">psr::MaybeUniquePtr</text>
<text text-anchor="middle" x="325" y="-115" font-family="Helvetica,sans-Serif" font-size="10.00">&lt; psr::Resolver &gt;</text>
</a>
</g>
</g>
<!-- Node0&#45;&gt;Node21 -->
<g id="edge239_Node000000_Node000021" class="edge">
<title>Node0&#45;&gt;Node21</title>
<g id="a_edge239_Node000000_Node000021"><a xlink:title=" ">
<path fill="none" stroke="#8b1a1a" d="M91.67,-623.77C101.93,-531.64 141.8,-215.18 212,-147 226.12,-133.28 246.07,-126.59 265.23,-123.53"/>
<polygon fill="#8b1a1a" stroke="#8b1a1a" points="88.17,-623.54 90.57,-633.87 95.13,-624.31 88.17,-623.54"/>
</a>
</g>
</g>
<!-- Node22 -->
<g id="Node000022" class="node">
<title>Node22</title>
<g id="a_Node000022"><a xlink:href="classpsr_1_1MaybeUniquePtr.html" target="_top" xlink:title=" ">
<polygon fill="white" stroke="#666666" points="402,-89.5 248,-89.5 248,-48.5 402,-48.5 402,-89.5"/>
<text text-anchor="start" x="256" y="-77.5" font-family="Helvetica,sans-Serif" font-size="10.00">psr::MaybeUniquePtr</text>
<text text-anchor="start" x="256" y="-66.5" font-family="Helvetica,sans-Serif" font-size="10.00">&lt; psr::LLVMPathConstraints,</text>
<text text-anchor="middle" x="325" y="-55.5" font-family="Helvetica,sans-Serif" font-size="10.00"> true &gt;</text>
</a>
</g>
</g>
<!-- Node0&#45;&gt;Node22 -->
<g id="edge240_Node000000_Node000022" class="edge">
<title>Node0&#45;&gt;Node22</title>
<g id="a_edge240_Node000000_Node000022"><a xlink:title=" ">
<path fill="none" stroke="#8b1a1a" d="M91.22,-623.75C100.28,-526.33 137.57,-176.6 212,-99 221.75,-88.83 234.55,-81.98 247.99,-77.39"/>
<polygon fill="#8b1a1a" stroke="#8b1a1a" points="87.72,-623.58 90.3,-633.85 94.69,-624.21 87.72,-623.58"/>
</a>
</g>
</g>
<!-- Node23 -->
<g id="Node000023" class="node">
<title>Node23</title>
<g id="a_Node000023"><a xlink:href="classpsr_1_1MaybeUniquePtr.html" target="_top" xlink:title=" ">
<polygon fill="white" stroke="#666666" points="394.5,-30 255.5,-30 255.5,0 394.5,0 394.5,-30"/>
<text text-anchor="start" x="263.5" y="-18" font-family="Helvetica,sans-Serif" font-size="10.00">psr::MaybeUniquePtr</text>
<text text-anchor="middle" x="325" y="-7" font-family="Helvetica,sans-Serif" font-size="10.00">&lt; T, RequireAlignment &gt;</text>
</a>
</g>
</g>
<!-- Node0&#45;&gt;Node23 -->
<g id="edge241_Node000000_Node000023" class="edge">
<title>Node0&#45;&gt;Node23</title>
<g id="a_edge241_Node000000_Node000023"><a xlink:title=" ">
<path fill="none" stroke="#8b1a1a" d="M90.53,-623.69C97.34,-519.53 128.33,-125.39 212,-40 223.5,-28.26 239.22,-21.49 255.25,-17.71"/>
<polygon fill="#8b1a1a" stroke="#8b1a1a" points="87.02,-623.69 89.88,-633.9 94.01,-624.14 87.02,-623.69"/>
</a>
</g>
</g>
</g>
</svg>
