<?xml version="1.0" encoding="UTF-8" standalone="no"?>
<!DOCTYPE svg PUBLIC "-//W3C//DTD SVG 1.1//EN"
 "http://www.w3.org/Graphics/SVG/1.1/DTD/svg11.dtd">
<!-- Generated by graphviz version 2.43.0 (0)
 -->
<!-- Title: Graphical Class Hierarchy Pages: 1 -->
<svg width="1208pt" height="696pt"
 viewBox="0.00 0.00 1208.00 695.50" xmlns="http://www.w3.org/2000/svg" xmlns:xlink="http://www.w3.org/1999/xlink">
<g id="graph0" class="graph" transform="scale(1 1) rotate(0) translate(4 691.5)">
<title>Graphical Class Hierarchy</title>
<!-- Node0 -->
<g id="Node000000" class="node">
<title>Node0</title>
<g id="a_Node000000"><a xlink:href="classpsr_1_1CRTPBase.html" target="_top" xlink:title=" ">
<polygon fill="white" stroke="#666666" points="147,-349.5 0,-349.5 0,-330.5 147,-330.5 147,-349.5"/>
<text text-anchor="middle" x="73.5" y="-337.5" font-family="Helvetica,sans-Serif" font-size="10.00">psr::CRTPBase&lt; Derived &gt;</text>
</a>
</g>
</g>
<!-- Node1 -->
<g id="Node000001" class="node">
<title>Node1</title>
<g id="a_Node000001"><a xlink:href="classpsr_1_1CFGBase.html" target="_top" xlink:title=" ">
<polygon fill="white" stroke="#666666" points="341,-687.5 222,-687.5 222,-668.5 341,-668.5 341,-687.5"/>
<text text-anchor="middle" x="281.5" y="-675.5" font-family="Helvetica,sans-Serif" font-size="10.00">psr::CFGBase&lt; c_t &gt;</text>
</a>
</g>
</g>
<!-- Node0&#45;&gt;Node1 -->
<g id="edge178_Node000000_Node000001" class="edge">
<title>Node0&#45;&gt;Node1</title>
<g id="a_edge178_Node000000_Node000001"><a xlink:title=" ">
<path fill="none" stroke="#63b8ff" d="M74.8,-359.72C76.79,-415.99 90.65,-578.38 183,-659 193.78,-668.41 207.82,-673.72 221.87,-676.59"/>
<polygon fill="#63b8ff" stroke="#63b8ff" points="78.3,-359.57 74.54,-349.67 71.3,-359.76 78.3,-359.57"/>
</a>
</g>
</g>
<!-- Node2 -->
<g id="Node000002" class="node">
<title>Node2</title>
<g id="a_Node000002"><a xlink:href="classpsr_1_1CFGBase.html" target="_top" xlink:title=" ">
<polygon fill="white" stroke="#666666" points="380,-650 183,-650 183,-620 380,-620 380,-650"/>
<text text-anchor="start" x="191" y="-638" font-family="Helvetica,sans-Serif" font-size="10.00">psr::CFGBase&lt; LLVMBasedBackward</text>
<text text-anchor="middle" x="281.5" y="-627" font-family="Helvetica,sans-Serif" font-size="10.00">CFG &gt;</text>
</a>
</g>
</g>
<!-- Node0&#45;&gt;Node2 -->
<g id="edge179_Node000000_Node000002" class="edge">
<title>Node0&#45;&gt;Node2</title>
<g id="a_edge179_Node000000_Node000002"><a xlink:title=" ">
<path fill="none" stroke="#63b8ff" d="M76.37,-359.84C82.18,-410.02 104.59,-542.82 183,-611 186.95,-614.43 191.31,-617.39 195.93,-619.93"/>
<polygon fill="#63b8ff" stroke="#63b8ff" points="79.82,-359.27 75.29,-349.69 72.86,-360 79.82,-359.27"/>
</a>
</g>
</g>
<!-- Node3 -->
<g id="Node000003" class="node">
<title>Node3</title>
<g id="a_Node000003"><a xlink:href="classpsr_1_1CFGBase.html" target="_top" xlink:title=" ">
<polygon fill="white" stroke="#666666" points="371.5,-601.5 191.5,-601.5 191.5,-582.5 371.5,-582.5 371.5,-601.5"/>
<text text-anchor="middle" x="281.5" y="-589.5" font-family="Helvetica,sans-Serif" font-size="10.00">psr::CFGBase&lt; LLVMBasedCFG &gt;</text>
</a>
</g>
</g>
<!-- Node0&#45;&gt;Node3 -->
<g id="edge180_Node000000_Node000003" class="edge">
<title>Node0&#45;&gt;Node3</title>
<g id="a_edge180_Node000000_Node000003"><a xlink:title=" ">
<path fill="none" stroke="#63b8ff" d="M77.59,-360.01C85.76,-405.66 112.36,-517.75 183,-573 187.89,-576.82 193.33,-579.95 199.08,-582.5"/>
<polygon fill="#63b8ff" stroke="#63b8ff" points="81.01,-359.2 75.9,-349.92 74.1,-360.36 81.01,-359.2"/>
</a>
</g>
</g>
<!-- Node4 -->
<g id="Node000004" class="node">
<title>Node4</title>
<g id="a_Node000004"><a xlink:href="classpsr_1_1CFGBase.html" target="_top" xlink:title=" ">
<polygon fill="white" stroke="#666666" points="372.5,-564 190.5,-564 190.5,-534 372.5,-534 372.5,-564"/>
<text text-anchor="start" x="198.5" y="-552" font-family="Helvetica,sans-Serif" font-size="10.00">psr::CFGBase&lt; SparseLLVMBased</text>
<text text-anchor="middle" x="281.5" y="-541" font-family="Helvetica,sans-Serif" font-size="10.00">CFG &gt;</text>
</a>
</g>
</g>
<!-- Node0&#45;&gt;Node4 -->
<g id="edge181_Node000000_Node000004" class="edge">
<title>Node0&#45;&gt;Node4</title>
<g id="a_edge181_Node000000_Node000004"><a xlink:title=" ">
<path fill="none" stroke="#63b8ff" d="M80.35,-359.78C92.69,-397.96 125.14,-481.84 183,-525 187.61,-528.44 192.65,-531.39 197.94,-533.92"/>
<polygon fill="#63b8ff" stroke="#63b8ff" points="83.58,-358.4 77.27,-349.89 76.9,-360.48 83.58,-358.4"/>
</a>
</g>
</g>
<!-- Node5 -->
<g id="Node000005" class="node">
<title>Node5</title>
<g id="a_Node000005"><a xlink:href="classpsr_1_1CallGraphBase.html" target="_top" xlink:title=" ">
<polygon fill="white" stroke="#666666" points="346,-516 217,-516 217,-486 346,-486 346,-516"/>
<text text-anchor="start" x="225" y="-504" font-family="Helvetica,sans-Serif" font-size="10.00">psr::CallGraphBase</text>
<text text-anchor="middle" x="281.5" y="-493" font-family="Helvetica,sans-Serif" font-size="10.00">&lt; CallGraph&lt; N, F &gt; &gt;</text>
</a>
</g>
</g>
<!-- Node0&#45;&gt;Node5 -->
<g id="edge182_Node000000_Node000005" class="edge">
<title>Node0&#45;&gt;Node5</title>
<g id="a_edge182_Node000000_Node000005"><a xlink:title=" ">
<path fill="none" stroke="#63b8ff" d="M83.99,-358.73C100.12,-388.57 135.76,-446.64 183,-477 193.19,-483.55 205.04,-488.31 216.88,-491.77"/>
<polygon fill="#63b8ff" stroke="#63b8ff" points="87.03,-356.99 79.28,-349.77 80.84,-360.25 87.03,-356.99"/>
</a>
</g>
</g>
<!-- Node7 -->
<g id="Node000007" class="node">
<title>Node7</title>
<g id="a_Node000007"><a xlink:href="classpsr_1_1CallGraphBase.html" target="_top" xlink:title=" ">
<polygon fill="white" stroke="#666666" points="353,-468 210,-468 210,-438 353,-438 353,-468"/>
<text text-anchor="start" x="218" y="-456" font-family="Helvetica,sans-Serif" font-size="10.00">psr::CallGraphBase</text>
<text text-anchor="middle" x="281.5" y="-445" font-family="Helvetica,sans-Serif" font-size="10.00">&lt; CallGraph&lt; n_t, f_t &gt; &gt;</text>
</a>
</g>
</g>
<!-- Node0&#45;&gt;Node7 -->
<g id="edge184_Node000000_Node000007" class="edge">
<title>Node0&#45;&gt;Node7</title>
<g id="a_edge184_Node000000_Node000007"><a xlink:title=" ">
<path fill="none" stroke="#63b8ff" d="M90.33,-356.97C110.11,-377.15 145.88,-410.42 183,-429 191.42,-433.21 200.62,-436.72 209.91,-439.62"/>
<polygon fill="#63b8ff" stroke="#63b8ff" points="92.79,-354.48 83.34,-349.69 87.75,-359.33 92.79,-354.48"/>
</a>
</g>
</g>
<!-- Node8 -->
<g id="Node000008" class="node">
<title>Node8</title>
<g id="a_Node000008"><a xlink:href="classpsr_1_1CallGraphBase.html" target="_top" xlink:title=" ">
<polygon fill="white" stroke="#666666" points="350.5,-420 212.5,-420 212.5,-368 350.5,-368 350.5,-420"/>
<text text-anchor="start" x="220.5" y="-408" font-family="Helvetica,sans-Serif" font-size="10.00">psr::CallGraphBase</text>
<text text-anchor="start" x="220.5" y="-397" font-family="Helvetica,sans-Serif" font-size="10.00">&lt; CallGraph&lt; const llvm</text>
<text text-anchor="start" x="220.5" y="-386" font-family="Helvetica,sans-Serif" font-size="10.00">::Instruction *, const</text>
<text text-anchor="middle" x="281.5" y="-375" font-family="Helvetica,sans-Serif" font-size="10.00"> llvm::Function * &gt; &gt;</text>
</a>
</g>
</g>
<!-- Node0&#45;&gt;Node8 -->
<g id="edge185_Node000000_Node000008" class="edge">
<title>Node0&#45;&gt;Node8</title>
<g id="a_edge185_Node000000_Node000008"><a xlink:title=" ">
<path fill="none" stroke="#63b8ff" d="M120.81,-352.14C147.83,-359.22 182.4,-368.28 212.46,-376.17"/>
<polygon fill="#63b8ff" stroke="#63b8ff" points="121.42,-348.68 110.85,-349.53 119.64,-355.45 121.42,-348.68"/>
</a>
</g>
</g>
<!-- Node9 -->
<g id="Node000009" class="node">
<title>Node9</title>
<g id="a_Node000009"><a xlink:href="classpsr_1_1ICFGBase.html" target="_top" xlink:title=" ">
<polygon fill="white" stroke="#666666" points="789.5,-453 637.5,-453 637.5,-423 789.5,-423 789.5,-453"/>
<text text-anchor="start" x="645.5" y="-441" font-family="Helvetica,sans-Serif" font-size="10.00">psr::ICFGBase&lt; LLVMBased</text>
<text text-anchor="middle" x="713.5" y="-430" font-family="Helvetica,sans-Serif" font-size="10.00">BackwardICFG &gt;</text>
</a>
</g>
</g>
<!-- Node0&#45;&gt;Node9 -->
<g id="edge186_Node000000_Node000009" class="edge">
<title>Node0&#45;&gt;Node9</title>
<g id="a_edge186_Node000000_Node000009"><a xlink:title=" ">
<path fill="none" stroke="#63b8ff" d="M157.51,-336.08C235.31,-334 344.75,-335.67 380,-359 409.84,-378.75 385.79,-411.83 416,-431 488.06,-476.72 591.11,-466.17 654.8,-453.05"/>
<polygon fill="#63b8ff" stroke="#63b8ff" points="157.13,-332.59 147.24,-336.38 157.33,-339.58 157.13,-332.59"/>
</a>
</g>
</g>
<!-- Node22 -->
<g id="Node000022" class="node">
<title>Node22</title>
<g id="a_Node000022"><a xlink:href="classpsr_1_1ICFGBase.html" target="_top" xlink:title=" ">
<polygon fill="white" stroke="#666666" points="789.5,-245 637.5,-245 637.5,-215 789.5,-215 789.5,-245"/>
<text text-anchor="start" x="645.5" y="-233" font-family="Helvetica,sans-Serif" font-size="10.00">psr::ICFGBase&lt; LLVMBased</text>
<text text-anchor="middle" x="713.5" y="-222" font-family="Helvetica,sans-Serif" font-size="10.00">ICFG &gt;</text>
</a>
</g>
</g>
<!-- Node0&#45;&gt;Node22 -->
<g id="edge188_Node000000_Node000022" class="edge">
<title>Node0&#45;&gt;Node22</title>
<g id="a_edge188_Node000000_Node000022"><a xlink:title=" ">
<path fill="none" stroke="#63b8ff" d="M97.94,-325.02C119.28,-312.11 152.08,-294 183,-284 338.84,-233.6 532.72,-227.11 637.25,-227.88"/>
<polygon fill="#63b8ff" stroke="#63b8ff" points="95.94,-322.15 89.26,-330.38 99.61,-328.11 95.94,-322.15"/>
</a>
</g>
</g>
<!-- Node21 -->
<g id="Node000021" class="node">
<title>Node21</title>
<g id="a_Node000021"><a xlink:href="classpsr_1_1ICFGBase.html" target="_top" xlink:title=" ">
<polygon fill="white" stroke="#666666" points="806,-197 621,-197 621,-167 806,-167 806,-197"/>
<text text-anchor="start" x="629" y="-185" font-family="Helvetica,sans-Serif" font-size="10.00">psr::ICFGBase&lt; SparseLLVMBased</text>
<text text-anchor="middle" x="713.5" y="-174" font-family="Helvetica,sans-Serif" font-size="10.00">ICFGView &gt;</text>
</a>
</g>
</g>
<!-- Node0&#45;&gt;Node21 -->
<g id="edge191_Node000000_Node000021" class="edge">
<title>Node0&#45;&gt;Node21</title>
<g id="a_edge191_Node000000_Node000021"><a xlink:title=" ">
<path fill="none" stroke="#63b8ff" d="M87.4,-322.08C105.68,-298.28 141.53,-257.02 183,-238 258.73,-203.27 490.32,-189.69 620.75,-184.69"/>
<polygon fill="#63b8ff" stroke="#63b8ff" points="84.47,-320.17 81.29,-330.27 90.08,-324.36 84.47,-320.17"/>
</a>
</g>
</g>
<!-- Node25 -->
<g id="Node000025" class="node">
<title>Node25</title>
<g id="a_Node000025"><a xlink:href="classpsr_1_1PointsToInfoBase.html" target="_top" xlink:title=" ">
<polygon fill="white" stroke="#666666" points="372,-164 191,-164 191,-134 372,-134 372,-164"/>
<text text-anchor="start" x="199" y="-152" font-family="Helvetica,sans-Serif" font-size="10.00">psr::PointsToInfoBase</text>
<text text-anchor="middle" x="281.5" y="-141" font-family="Helvetica,sans-Serif" font-size="10.00">&lt; PointsToInfoRef&lt; PTATraits &gt; &gt;</text>
</a>
</g>
</g>
<!-- Node0&#45;&gt;Node25 -->
<g id="edge193_Node000000_Node000025" class="edge">
<title>Node0&#45;&gt;Node25</title>
<g id="a_edge193_Node000000_Node000025"><a xlink:title=" ">
<path fill="none" stroke="#63b8ff" d="M82.02,-321.02C96.42,-287.14 131.13,-216.21 183,-178 190.75,-172.29 199.62,-167.7 208.78,-164.01"/>
<polygon fill="#63b8ff" stroke="#63b8ff" points="78.78,-319.69 78.21,-330.27 85.25,-322.36 78.78,-319.69"/>
</a>
</g>
</g>
<!-- Node13 -->
<g id="Node000013" class="node">
<title>Node13</title>
<g id="a_Node000013"><a xlink:href="classpsr_1_1CFGBase.html" target="_top" xlink:title=" ">
<polygon fill="white" stroke="#666666" points="353,-311.5 210,-311.5 210,-292.5 353,-292.5 353,-311.5"/>
<text text-anchor="middle" x="281.5" y="-299.5" font-family="Helvetica,sans-Serif" font-size="10.00">psr::CFGBase&lt; Derived &gt;</text>
</a>
</g>
</g>
<!-- Node0&#45;&gt;Node13 -->
<g id="edge196_Node000000_Node000013" class="edge">
<title>Node0&#45;&gt;Node13</title>
<g id="a_edge196_Node000000_Node000013"><a xlink:title=" ">
<path fill="none" stroke="#63b8ff" d="M136.4,-328.58C165.87,-323.14 200.72,-316.72 228.76,-311.54"/>
<polygon fill="#63b8ff" stroke="#63b8ff" points="135.42,-325.2 126.22,-330.46 136.69,-332.09 135.42,-325.2"/>
</a>
</g>
</g>
<!-- Node28 -->
<g id="Node000028" class="node">
<title>Node28</title>
<g id="a_Node000028"><a xlink:href="classpsr_1_1CallGraphBase.html" target="_top" xlink:title=" ">
<polygon fill="white" stroke="#666666" points="336.5,-116 226.5,-116 226.5,-86 336.5,-86 336.5,-116"/>
<text text-anchor="start" x="234.5" y="-104" font-family="Helvetica,sans-Serif" font-size="10.00">psr::CallGraphBase</text>
<text text-anchor="middle" x="281.5" y="-93" font-family="Helvetica,sans-Serif" font-size="10.00">&lt; Derived &gt;</text>
</a>
</g>
</g>
<!-- Node0&#45;&gt;Node28 -->
<g id="edge208_Node000000_Node000028" class="edge">
<title>Node0&#45;&gt;Node28</title>
<g id="a_edge208_Node000000_Node000028"><a xlink:title=" ">
<path fill="none" stroke="#63b8ff" d="M78.53,-320.61C88.39,-278.2 117.84,-176.88 183,-125 195.34,-115.17 211.14,-109.3 226.41,-105.8"/>
<polygon fill="#63b8ff" stroke="#63b8ff" points="75.09,-319.97 76.35,-330.49 81.92,-321.48 75.09,-319.97"/>
</a>
</g>
</g>
<!-- Node31 -->
<g id="Node000031" class="node">
<title>Node31</title>
<g id="a_Node000031"><a xlink:href="classpsr_1_1ICFGBase.html" target="_top" xlink:title=" ">
<polygon fill="white" stroke="#666666" points="354.5,-67.5 208.5,-67.5 208.5,-48.5 354.5,-48.5 354.5,-67.5"/>
<text text-anchor="middle" x="281.5" y="-55.5" font-family="Helvetica,sans-Serif" font-size="10.00">psr::ICFGBase&lt; Derived &gt;</text>
</a>
</g>
</g>
<!-- Node0&#45;&gt;Node31 -->
<g id="edge211_Node000000_Node000031" class="edge">
<title>Node0&#45;&gt;Node31</title>
<g id="a_edge211_Node000000_Node000031"><a xlink:title=" ">
<path fill="none" stroke="#63b8ff" d="M76.37,-320.5C82.2,-271.24 104.64,-141.15 183,-77 190.34,-70.99 199.03,-66.69 208.14,-63.63"/>
<polygon fill="#63b8ff" stroke="#63b8ff" points="72.89,-320.16 75.29,-330.47 79.85,-320.91 72.89,-320.16"/>
</a>
</g>
</g>
<!-- Node32 -->
<g id="Node000032" class="node">
<title>Node32</title>
<g id="a_Node000032"><a xlink:href="classpsr_1_1PointsToInfoBase.html" target="_top" xlink:title=" ">
<polygon fill="white" stroke="#666666" points="342,-30 221,-30 221,0 342,0 342,-30"/>
<text text-anchor="start" x="229" y="-18" font-family="Helvetica,sans-Serif" font-size="10.00">psr::PointsToInfoBase</text>
<text text-anchor="middle" x="281.5" y="-7" font-family="Helvetica,sans-Serif" font-size="10.00">&lt; Derived &gt;</text>
</a>
</g>
</g>
<!-- Node0&#45;&gt;Node32 -->
<g id="edge212_Node000000_Node000032" class="edge">
<title>Node0&#45;&gt;Node32</title>
<g id="a_edge212_Node000000_Node000032"><a xlink:title=" ">
<path fill="none" stroke="#63b8ff" d="M75.47,-320.19C79.22,-266.35 97.24,-116.23 183,-39 193.49,-29.55 207.11,-23.68 220.82,-20.07"/>
<polygon fill="#63b8ff" stroke="#63b8ff" points="71.96,-320.22 74.86,-330.42 78.95,-320.64 71.96,-320.22"/>
</a>
</g>
</g>
<!-- Node6 -->
<g id="Node000006" class="node">
<title>Node6</title>
<g id="a_Node000006"><a xlink:href="classpsr_1_1CallGraph.html" target="_top" xlink:title=" ">
<polygon fill="white" stroke="#666666" points="564.5,-510.5 436.5,-510.5 436.5,-491.5 564.5,-491.5 564.5,-510.5"/>
<text text-anchor="middle" x="500.5" y="-498.5" font-family="Helvetica,sans-Serif" font-size="10.00">psr::CallGraph&lt; N, F &gt;</text>
</a>
</g>
</g>
<!-- Node5&#45;&gt;Node6 -->
<g id="edge183_Node000005_Node000006" class="edge">
<title>Node5&#45;&gt;Node6</title>
<g id="a_edge183_Node000005_Node000006"><a xlink:title=" ">
<path fill="none" stroke="#63b8ff" d="M356.31,-501C382.28,-501 411.21,-501 436.24,-501"/>
<polygon fill="#63b8ff" stroke="#63b8ff" points="356.14,-497.5 346.14,-501 356.14,-504.5 356.14,-497.5"/>
</a>
</g>
</g>
<!-- Node10 -->
<g id="Node000010" class="node">
<title>Node10</title>
<g id="a_Node000010"><a xlink:href="classpsr_1_1LLVMBasedBackwardICFG.html" target="_top" xlink:title="A class that represents a backwards interprocedural control flow graph. Conforms to the ICFGBase CRTP...">
<polygon fill="white" stroke="#666666" points="1010.5,-419.5 846.5,-419.5 846.5,-400.5 1010.5,-400.5 1010.5,-419.5"/>
<text text-anchor="middle" x="928.5" y="-407.5" font-family="Helvetica,sans-Serif" font-size="10.00">psr::LLVMBasedBackwardICFG</text>
</a>
</g>
</g>
<!-- Node9&#45;&gt;Node10 -->
<g id="edge187_Node000009_Node000010" class="edge">
<title>Node9&#45;&gt;Node10</title>
<g id="a_edge187_Node000009_Node000010"><a xlink:title=" ">
<path fill="none" stroke="#63b8ff" d="M799.71,-426.8C818.1,-424.38 837.38,-421.85 855.23,-419.5"/>
<polygon fill="#63b8ff" stroke="#63b8ff" points="799.05,-423.35 789.6,-428.13 799.97,-430.29 799.05,-423.35"/>
</a>
</g>
</g>
<!-- Node17 -->
<g id="Node000017" class="node">
<title>Node17</title>
<g id="a_Node000017"><a xlink:href="classpsr_1_1LLVMBasedICFG.html" target="_top" xlink:title="A class that implements a inter&#45;procedural control flow graph. Conforms to the ICFGBase CRTP interfac...">
<polygon fill="white" stroke="#666666" points="986.5,-239.5 870.5,-239.5 870.5,-220.5 986.5,-220.5 986.5,-239.5"/>
<text text-anchor="middle" x="928.5" y="-227.5" font-family="Helvetica,sans-Serif" font-size="10.00">psr::LLVMBasedICFG</text>
</a>
</g>
</g>
<!-- Node22&#45;&gt;Node17 -->
<g id="edge189_Node000022_Node000017" class="edge">
<title>Node22&#45;&gt;Node17</title>
<g id="a_edge189_Node000022_Node000017"><a xlink:title=" ">
<path fill="none" stroke="#63b8ff" d="M799.69,-230C823.48,-230 848.75,-230 870.48,-230"/>
<polygon fill="#63b8ff" stroke="#63b8ff" points="799.6,-226.5 789.6,-230 799.6,-233.5 799.6,-226.5"/>
</a>
</g>
</g>
<!-- Node18 -->
<g id="Node000018" class="node">
<title>Node18</title>
<g id="a_Node000018"><a xlink:href="classpsr_1_1SparseLLVMBasedICFG.html" target="_top" xlink:title="A class that implements a sparse interprocedural control flow graph. Conforms to the ICFGBase CRTP in...">
<polygon fill="white" stroke="#666666" points="1200,-191.5 1051,-191.5 1051,-172.5 1200,-172.5 1200,-191.5"/>
<text text-anchor="middle" x="1125.5" y="-179.5" font-family="Helvetica,sans-Serif" font-size="10.00">psr::SparseLLVMBasedICFG</text>
</a>
</g>
</g>
<!-- Node17&#45;&gt;Node18 -->
<g id="edge190_Node000017_Node000018" class="edge">
<title>Node17&#45;&gt;Node18</title>
<g id="a_edge190_Node000017_Node000018"><a xlink:title=" ">
<path fill="none" stroke="#63b8ff" d="M978.43,-217.96C1011.57,-209.8 1054.77,-199.16 1085.58,-191.58"/>
<polygon fill="#63b8ff" stroke="#63b8ff" points="977.37,-214.61 968.49,-220.4 979.04,-221.41 977.37,-214.61"/>
</a>
</g>
</g>
<!-- Node20 -->
<g id="Node000020" class="node">
<title>Node20</title>
<g id="a_Node000020"><a xlink:href="classpsr_1_1SparseLLVMBasedICFGView.html" target="_top" xlink:title="Similar to SparseLLVMBasedICFG; the only difference is that this one is no LLVMBasedICFG – it contain...">
<polygon fill="white" stroke="#666666" points="1015,-191.5 842,-191.5 842,-172.5 1015,-172.5 1015,-191.5"/>
<text text-anchor="middle" x="928.5" y="-179.5" font-family="Helvetica,sans-Serif" font-size="10.00">psr::SparseLLVMBasedICFGView</text>
</a>
</g>
</g>
<!-- Node21&#45;&gt;Node20 -->
<g id="edge192_Node000021_Node000020" class="edge">
<title>Node21&#45;&gt;Node20</title>
<g id="a_edge192_Node000021_Node000020"><a xlink:title=" ">
<path fill="none" stroke="#63b8ff" d="M816.1,-182C824.68,-182 833.3,-182 841.74,-182"/>
<polygon fill="#63b8ff" stroke="#63b8ff" points="816.07,-178.5 806.07,-182 816.07,-185.5 816.07,-178.5"/>
</a>
</g>
</g>
<!-- Node26 -->
<g id="Node000026" class="node">
<title>Node26</title>
<g id="a_Node000026"><a xlink:href="classpsr_1_1PointsToInfoRef_3_01PTATraits_01_4.html" target="_top" xlink:title=" ">
<polygon fill="white" stroke="#666666" points="557,-164 444,-164 444,-134 557,-134 557,-164"/>
<text text-anchor="start" x="452" y="-152" font-family="Helvetica,sans-Serif" font-size="10.00">psr::PointsToInfoRef</text>
<text text-anchor="middle" x="500.5" y="-141" font-family="Helvetica,sans-Serif" font-size="10.00">&lt; PTATraits &gt;</text>
</a>
</g>
</g>
<!-- Node25&#45;&gt;Node26 -->
<g id="edge194_Node000025_Node000026" class="edge">
<title>Node25&#45;&gt;Node26</title>
<g id="a_edge194_Node000025_Node000026"><a xlink:title=" ">
<path fill="none" stroke="#63b8ff" d="M382.04,-149C403.23,-149 424.88,-149 443.72,-149"/>
<polygon fill="#63b8ff" stroke="#63b8ff" points="382.02,-145.5 372.02,-149 382.02,-152.5 382.02,-145.5"/>
</a>
</g>
</g>
<!-- Node27 -->
<g id="Node000027" class="node">
<title>Node27</title>
<g id="a_Node000027"><a xlink:href="classpsr_1_1PointsToInfo_3_01PTATraits_01_4.html" target="_top" xlink:title=" ">
<polygon fill="white" stroke="#666666" points="766,-101 661,-101 661,-71 766,-71 766,-101"/>
<text text-anchor="start" x="669" y="-89" font-family="Helvetica,sans-Serif" font-size="10.00">psr::PointsToInfo&lt;</text>
<text text-anchor="middle" x="713.5" y="-78" font-family="Helvetica,sans-Serif" font-size="10.00"> PTATraits &gt;</text>
</a>
</g>
</g>
<!-- Node26&#45;&gt;Node27 -->
<g id="edge195_Node000026_Node000027" class="edge">
<title>Node26&#45;&gt;Node27</title>
<g id="a_edge195_Node000026_Node000027"><a xlink:title=" ">
<path fill="none" stroke="#63b8ff" d="M566.76,-131.03C572.95,-129.09 579.12,-127.06 585,-125 601.36,-119.26 604.58,-115.55 621,-110 633.76,-105.69 647.73,-101.68 660.83,-98.22"/>
<polygon fill="#63b8ff" stroke="#63b8ff" points="565.57,-127.73 557.03,-134.01 567.61,-134.43 565.57,-127.73"/>
</a>
</g>
</g>
<!-- Node14 -->
<g id="Node000014" class="node">
<title>Node14</title>
<g id="a_Node000014"><a xlink:href="classpsr_1_1SparseCFGBase.html" target="_top" xlink:title=" ">
<polygon fill="white" stroke="#666666" points="787.5,-331 639.5,-331 639.5,-301 787.5,-301 787.5,-331"/>
<text text-anchor="start" x="647.5" y="-319" font-family="Helvetica,sans-Serif" font-size="10.00">psr::SparseCFGBase</text>
<text text-anchor="middle" x="713.5" y="-308" font-family="Helvetica,sans-Serif" font-size="10.00">&lt; SparseLLVMBasedCFG &gt;</text>
</a>
</g>
</g>
<!-- Node13&#45;&gt;Node14 -->
<g id="edge197_Node000013_Node000014" class="edge">
<title>Node13&#45;&gt;Node14</title>
<g id="a_edge197_Node000013_Node000014"><a xlink:title=" ">
<path fill="none" stroke="#63b8ff" d="M363.47,-304.64C442.87,-307.22 562.85,-311.13 639.42,-313.62"/>
<polygon fill="#63b8ff" stroke="#63b8ff" points="363.13,-301.12 353.02,-304.3 362.91,-308.12 363.13,-301.12"/>
</a>
</g>
</g>
<!-- Node12 -->
<g id="Node000012" class="node">
<title>Node12</title>
<g id="a_Node000012"><a xlink:title=" ">
<polygon fill="#e0e0e0" stroke="#999999" points="585,-374 416,-374 416,-344 585,-344 585,-374"/>
<text text-anchor="start" x="424" y="-362" font-family="Helvetica,sans-Serif" font-size="10.00">psr::detail::LLVMBasedCFGImpl</text>
<text text-anchor="middle" x="500.5" y="-351" font-family="Helvetica,sans-Serif" font-size="10.00">&lt; LLVMBasedBackwardCFG &gt;</text>
</a>
</g>
</g>
<!-- Node13&#45;&gt;Node12 -->
<g id="edge199_Node000013_Node000012" class="edge">
<title>Node13&#45;&gt;Node12</title>
<g id="a_edge199_Node000013_Node000012"><a xlink:title=" ">
<path fill="none" stroke="#63b8ff" d="M332.23,-313.96C347.57,-317.72 364.5,-321.95 380,-326 401.76,-331.68 425.67,-338.22 446.35,-343.98"/>
<polygon fill="#63b8ff" stroke="#63b8ff" points="332.96,-310.53 322.41,-311.56 331.29,-317.33 332.96,-310.53"/>
</a>
</g>
</g>
<!-- Node23 -->
<g id="Node000023" class="node">
<title>Node23</title>
<g id="a_Node000023"><a xlink:title=" ">
<polygon fill="#e0e0e0" stroke="#999999" points="585,-288 416,-288 416,-258 585,-258 585,-288"/>
<text text-anchor="start" x="424" y="-276" font-family="Helvetica,sans-Serif" font-size="10.00">psr::detail::LLVMBasedCFGImpl</text>
<text text-anchor="middle" x="500.5" y="-265" font-family="Helvetica,sans-Serif" font-size="10.00">&lt; LLVMBasedCFG &gt;</text>
</a>
</g>
</g>
<!-- Node13&#45;&gt;Node23 -->
<g id="edge202_Node000013_Node000023" class="edge">
<title>Node13&#45;&gt;Node23</title>
<g id="a_edge202_Node000013_Node000023"><a xlink:title=" ">
<path fill="none" stroke="#63b8ff" d="M363.2,-291.22C380.3,-288.93 398.4,-286.51 415.62,-284.21"/>
<polygon fill="#63b8ff" stroke="#63b8ff" points="362.7,-287.75 353.25,-292.54 363.63,-294.69 362.7,-287.75"/>
</a>
</g>
</g>
<!-- Node24 -->
<g id="Node000024" class="node">
<title>Node24</title>
<g id="a_Node000024"><a xlink:href="classpsr_1_1SparseCFGBase.html" target="_top" xlink:title=" ">
<polygon fill="white" stroke="#666666" points="558,-422 443,-422 443,-392 558,-392 558,-422"/>
<text text-anchor="start" x="451" y="-410" font-family="Helvetica,sans-Serif" font-size="10.00">psr::SparseCFGBase</text>
<text text-anchor="middle" x="500.5" y="-399" font-family="Helvetica,sans-Serif" font-size="10.00">&lt; Derived &gt;</text>
</a>
</g>
</g>
<!-- Node13&#45;&gt;Node24 -->
<g id="edge207_Node000013_Node000024" class="edge">
<title>Node13&#45;&gt;Node24</title>
<g id="a_edge207_Node000013_Node000024"><a xlink:title=" ">
<path fill="none" stroke="#63b8ff" d="M360.23,-315.17C367.25,-318.09 373.97,-321.66 380,-326 404.31,-343.52 392.03,-365.02 416,-383 423.96,-388.97 433.37,-393.46 442.95,-396.84"/>
<polygon fill="#63b8ff" stroke="#63b8ff" points="361.1,-311.76 350.51,-311.57 358.67,-318.33 361.1,-311.76"/>
</a>
</g>
</g>
<!-- Node15 -->
<g id="Node000015" class="node">
<title>Node15</title>
<g id="a_Node000015"><a xlink:href="classpsr_1_1SparseLLVMBasedCFG.html" target="_top" xlink:title="A class that implements a sparse control flow graph. Conforms to the CFGBase CRTP interface.">
<polygon fill="white" stroke="#666666" points="1001.5,-303.5 855.5,-303.5 855.5,-284.5 1001.5,-284.5 1001.5,-303.5"/>
<text text-anchor="middle" x="928.5" y="-291.5" font-family="Helvetica,sans-Serif" font-size="10.00">psr::SparseLLVMBasedCFG</text>
</a>
</g>
</g>
<!-- Node14&#45;&gt;Node15 -->
<g id="edge198_Node000014_Node000015" class="edge">
<title>Node14&#45;&gt;Node15</title>
<g id="a_edge198_Node000014_Node000015"><a xlink:title=" ">
<path fill="none" stroke="#63b8ff" d="M797.65,-307.41C816.69,-305.44 836.78,-303.37 855.31,-301.46"/>
<polygon fill="#63b8ff" stroke="#63b8ff" points="797.09,-303.95 787.5,-308.46 797.81,-310.91 797.09,-303.95"/>
</a>
</g>
</g>
<!-- Node11 -->
<g id="Node000011" class="node">
<title>Node11</title>
<g id="a_Node000011"><a xlink:href="classpsr_1_1LLVMBasedBackwardCFG.html" target="_top" xlink:title="A class that represents a backwards control flow graph. Conforms to the CFGBase CRTP interface.">
<polygon fill="white" stroke="#666666" points="794,-392.5 633,-392.5 633,-373.5 794,-373.5 794,-392.5"/>
<text text-anchor="middle" x="713.5" y="-380.5" font-family="Helvetica,sans-Serif" font-size="10.00">psr::LLVMBasedBackwardCFG</text>
</a>
</g>
</g>
<!-- Node12&#45;&gt;Node11 -->
<g id="edge200_Node000012_Node000011" class="edge">
<title>Node12&#45;&gt;Node11</title>
<g id="a_edge200_Node000012_Node000011"><a xlink:title=" ">
<path fill="none" stroke="#63b8ff" d="M595.17,-369.65C607.69,-371.08 620.44,-372.53 632.69,-373.92"/>
<polygon fill="#63b8ff" stroke="#63b8ff" points="595.53,-366.17 585.2,-368.52 594.74,-373.13 595.53,-366.17"/>
</a>
</g>
</g>
<!-- Node11&#45;&gt;Node10 -->
<g id="edge201_Node000011_Node000010" class="edge">
<title>Node11&#45;&gt;Node10</title>
<g id="a_edge201_Node000011_Node000010"><a xlink:title=" ">
<path fill="none" stroke="#63b8ff" d="M799.74,-393.8C817.15,-396.01 835.34,-398.32 852.36,-400.48"/>
<polygon fill="#63b8ff" stroke="#63b8ff" points="799.96,-390.3 789.6,-392.52 799.08,-397.25 799.96,-390.3"/>
</a>
</g>
</g>
<!-- Node16 -->
<g id="Node000016" class="node">
<title>Node16</title>
<g id="a_Node000016"><a xlink:href="classpsr_1_1LLVMBasedCFG.html" target="_top" xlink:title=" ">
<polygon fill="white" stroke="#666666" points="770,-282.5 657,-282.5 657,-263.5 770,-263.5 770,-282.5"/>
<text text-anchor="middle" x="713.5" y="-270.5" font-family="Helvetica,sans-Serif" font-size="10.00">psr::LLVMBasedCFG</text>
</a>
</g>
</g>
<!-- Node23&#45;&gt;Node16 -->
<g id="edge203_Node000023_Node000016" class="edge">
<title>Node23&#45;&gt;Node16</title>
<g id="a_edge203_Node000023_Node000016"><a xlink:title=" ">
<path fill="none" stroke="#63b8ff" d="M595.42,-273C616.38,-273 637.95,-273 656.78,-273"/>
<polygon fill="#63b8ff" stroke="#63b8ff" points="595.2,-269.5 585.2,-273 595.2,-276.5 595.2,-269.5"/>
</a>
</g>
</g>
<!-- Node16&#45;&gt;Node17 -->
<g id="edge204_Node000016_Node000017" class="edge">
<title>Node16&#45;&gt;Node17</title>
<g id="a_edge204_Node000016_Node000017"><a xlink:title=" ">
<path fill="none" stroke="#63b8ff" d="M771.58,-261.48C805.6,-254.61 848.26,-246 880.36,-239.52"/>
<polygon fill="#63b8ff" stroke="#63b8ff" points="770.88,-258.05 761.77,-263.46 772.27,-264.91 770.88,-258.05"/>
</a>
</g>
</g>
<!-- Node16&#45;&gt;Node20 -->
<g id="edge206_Node000016_Node000020" class="edge">
<title>Node16&#45;&gt;Node20</title>
<g id="a_edge206_Node000016_Node000020"><a xlink:title=" ">
<path fill="none" stroke="#63b8ff" d="M780.19,-264.87C789.23,-262.2 798.1,-258.67 806,-254 827.17,-241.5 821.71,-225.88 842,-212 855.37,-202.85 871.83,-196.21 886.72,-191.54"/>
<polygon fill="#63b8ff" stroke="#63b8ff" points="779.16,-261.52 770.37,-267.44 780.93,-268.29 779.16,-261.52"/>
</a>
</g>
</g>
<!-- Node16&#45;&gt;Node15 -->
<g id="edge205_Node000016_Node000015" class="edge">
<title>Node16&#45;&gt;Node15</title>
<g id="a_edge205_Node000016_Node000015"><a xlink:title=" ">
<path fill="none" stroke="#63b8ff" d="M780.17,-279.47C803.96,-281.82 830.96,-284.48 855.28,-286.88"/>
<polygon fill="#63b8ff" stroke="#63b8ff" points="780.48,-275.99 770.19,-278.49 779.79,-282.95 780.48,-275.99"/>
</a>
</g>
</g>
<!-- Node29 -->
<g id="Node000029" class="node">
<title>Node29</title>
<g id="a_Node000029"><a xlink:href="classpsr_1_1CallGraph.html" target="_top" xlink:title=" ">
<polygon fill="white" stroke="#666666" points="558,-56 443,-56 443,-26 558,-26 558,-56"/>
<text text-anchor="start" x="451" y="-44" font-family="Helvetica,sans-Serif" font-size="10.00">psr::CallGraph&lt; n_t,</text>
<text text-anchor="middle" x="500.5" y="-33" font-family="Helvetica,sans-Serif" font-size="10.00"> f_t &gt;</text>
</a>
</g>
</g>
<!-- Node28&#45;&gt;Node29 -->
<g id="edge209_Node000028_Node000029" class="edge">
<title>Node28&#45;&gt;Node29</title>
<g id="a_edge209_Node000028_Node000029"><a xlink:title=" ">
<path fill="none" stroke="#63b8ff" d="M346.31,-85.83C357.56,-83 369.15,-79.99 380,-77 396.13,-72.55 399.99,-70.84 416,-66 426.72,-62.76 438.22,-59.3 449.15,-56.02"/>
<polygon fill="#63b8ff" stroke="#63b8ff" points="345.39,-82.45 336.53,-88.26 347.08,-89.24 345.39,-82.45"/>
</a>
</g>
</g>
<!-- Node30 -->
<g id="Node000030" class="node">
<title>Node30</title>
<g id="a_Node000030"><a xlink:href="classpsr_1_1CallGraph.html" target="_top" xlink:title=" ">
<polygon fill="white" stroke="#666666" points="569,-115.5 432,-115.5 432,-74.5 569,-74.5 569,-115.5"/>
<text text-anchor="start" x="440" y="-103.5" font-family="Helvetica,sans-Serif" font-size="10.00">psr::CallGraph&lt; const</text>
<text text-anchor="start" x="440" y="-92.5" font-family="Helvetica,sans-Serif" font-size="10.00"> llvm::Instruction *,</text>
<text text-anchor="middle" x="500.5" y="-81.5" font-family="Helvetica,sans-Serif" font-size="10.00"> const llvm::Function * &gt;</text>
</a>
</g>
</g>
<!-- Node28&#45;&gt;Node30 -->
<g id="edge210_Node000028_Node000030" class="edge">
<title>Node28&#45;&gt;Node30</title>
<g id="a_edge210_Node000028_Node000030"><a xlink:title=" ">
<path fill="none" stroke="#63b8ff" d="M346.71,-99.22C373.45,-98.49 404.51,-97.63 431.62,-96.88"/>
<polygon fill="#63b8ff" stroke="#63b8ff" points="346.6,-95.73 336.7,-99.5 346.79,-102.72 346.6,-95.73"/>
</a>
</g>
</g>
<!-- Node19 -->
<g id="Node000019" class="node">
<title>Node19</title>
<g id="a_Node000019"><a xlink:href="classpsr_1_1SparseCFGProvider.html" target="_top" xlink:title=" ">
<polygon fill="white" stroke="#666666" points="779,-149 648,-149 648,-119 779,-119 779,-149"/>
<text text-anchor="start" x="656" y="-137" font-family="Helvetica,sans-Serif" font-size="10.00">psr::SparseCFGProvider</text>
<text text-anchor="middle" x="713.5" y="-126" font-family="Helvetica,sans-Serif" font-size="10.00">&lt; Derived, F, V &gt;</text>
</a>
</g>
</g>
<!-- Node19&#45;&gt;Node18 -->
<g id="edge213_Node000019_Node000018" class="edge">
<title>Node19&#45;&gt;Node18</title>
<g id="a_edge213_Node000019_Node000018"><a xlink:title=" ">
<path fill="none" stroke="#63b8ff" d="M789.4,-140.15C850.29,-145.47 938.35,-153.88 1015,-164 1033.24,-166.41 1053.11,-169.52 1070.86,-172.48"/>
<polygon fill="#63b8ff" stroke="#63b8ff" points="789.38,-136.63 779.12,-139.26 788.78,-143.61 789.38,-136.63"/>
</a>
</g>
</g>
<!-- Node19&#45;&gt;Node20 -->
<g id="edge214_Node000019_Node000020" class="edge">
<title>Node19&#45;&gt;Node20</title>
<g id="a_edge214_Node000019_Node000020"><a xlink:title=" ">
<path fill="none" stroke="#63b8ff" d="M789.11,-150.81C821.31,-158.07 857.79,-166.29 885.21,-172.47"/>
<polygon fill="#63b8ff" stroke="#63b8ff" points="789.8,-147.38 779.27,-148.6 788.26,-154.21 789.8,-147.38"/>
</a>
</g>
</g>
</g>
</svg>
