<?xml version="1.0" encoding="UTF-8" standalone="no"?>
<!DOCTYPE svg PUBLIC "-//W3C//DTD SVG 1.1//EN"
 "http://www.w3.org/Graphics/SVG/1.1/DTD/svg11.dtd">
<!-- Generated by graphviz version 2.43.0 (0)
 -->
<!-- Title: Graphical Class Hierarchy Pages: 1 -->
<svg width="302pt" height="172pt"
 viewBox="0.00 0.00 302.00 172.00" xmlns="http://www.w3.org/2000/svg" xmlns:xlink="http://www.w3.org/1999/xlink">
<g id="graph0" class="graph" transform="scale(1 1) rotate(0) translate(4 168)">
<title>Graphical Class Hierarchy</title>
<!-- Node0 -->
<g id="Node000000" class="node">
<title>Node0</title>
<g id="a_Node000000"><a xlink:href="classpsr_1_1EdgeFunctionBase.html" target="_top" xlink:title=" ">
<polygon fill="white" stroke="#666666" points="127,-88.5 0,-88.5 0,-69.5 127,-69.5 127,-88.5"/>
<text text-anchor="middle" x="63.5" y="-76.5" font-family="Helvetica,sans-Serif" font-size="10.00">psr::EdgeFunctionBase</text>
</a>
</g>
</g>
<!-- Node1 -->
<g id="Node000001" class="node">
<title>Node1</title>
<g id="a_Node000001"><a xlink:href="classpsr_1_1EdgeFunction.html" target="_top" xlink:title=" ">
<polygon fill="white" stroke="#666666" points="284,-164 173,-164 173,-134 284,-134 284,-164"/>
<text text-anchor="start" x="181" y="-152" font-family="Helvetica,sans-Serif" font-size="10.00">psr::EdgeFunction&lt;</text>
<text text-anchor="middle" x="228.5" y="-141" font-family="Helvetica,sans-Serif" font-size="10.00"> l_t &gt;</text>
</a>
</g>
</g>
<!-- Node0&#45;&gt;Node1 -->
<g id="edge224_Node000000_Node000001" class="edge">
<title>Node0&#45;&gt;Node1</title>
<g id="a_edge224_Node000000_Node000001"><a xlink:title=" ">
<path fill="none" stroke="#8b1a1a" d="M93.16,-93.13C112.67,-102.56 139.17,-115.02 163,-125 170.27,-128.05 178.08,-131.12 185.67,-134"/>
<polygon fill="#8b1a1a" stroke="#8b1a1a" points="94.44,-89.86 83.92,-88.63 91.38,-96.16 94.44,-89.86"/>
</a>
</g>
</g>
<!-- Node2 -->
<g id="Node000002" class="node">
<title>Node2</title>
<g id="a_Node000002"><a xlink:href="classpsr_1_1EdgeFunction.html" target="_top" xlink:title=" ">
<polygon fill="white" stroke="#666666" points="284,-116 173,-116 173,-86 284,-86 284,-116"/>
<text text-anchor="start" x="181" y="-104" font-family="Helvetica,sans-Serif" font-size="10.00">psr::EdgeFunction&lt;</text>
<text text-anchor="middle" x="228.5" y="-93" font-family="Helvetica,sans-Serif" font-size="10.00"> BinaryDomain &gt;</text>
</a>
</g>
</g>
<!-- Node0&#45;&gt;Node2 -->
<g id="edge225_Node000000_Node000002" class="edge">
<title>Node0&#45;&gt;Node2</title>
<g id="a_edge225_Node000000_Node000002"><a xlink:title=" ">
<path fill="none" stroke="#8b1a1a" d="M137.06,-88.79C149.07,-90.41 161.35,-92.07 172.83,-93.62"/>
<polygon fill="#8b1a1a" stroke="#8b1a1a" points="137.43,-85.31 127.05,-87.44 136.5,-92.25 137.43,-85.31"/>
</a>
</g>
</g>
<!-- Node3 -->
<g id="Node000003" class="node">
<title>Node3</title>
<g id="a_Node000003"><a xlink:href="classpsr_1_1EdgeFunction.html" target="_top" xlink:title="Ref&#45;counted and type&#45;erased edge function with small&#45;object optimization. Supports caching.">
<polygon fill="white" stroke="#666666" points="294,-67.5 163,-67.5 163,-48.5 294,-48.5 294,-67.5"/>
<text text-anchor="middle" x="228.5" y="-55.5" font-family="Helvetica,sans-Serif" font-size="10.00">psr::EdgeFunction&lt; L &gt;</text>
</a>
</g>
</g>
<!-- Node0&#45;&gt;Node3 -->
<g id="edge226_Node000000_Node000003" class="edge">
<title>Node0&#45;&gt;Node3</title>
<g id="a_edge226_Node000000_Node000003"><a xlink:title=" ">
<path fill="none" stroke="#8b1a1a" d="M137.09,-69.65C145.7,-68.54 154.46,-67.41 162.95,-66.32"/>
<polygon fill="#8b1a1a" stroke="#8b1a1a" points="136.52,-66.19 127.05,-70.94 137.42,-73.13 136.52,-66.19"/>
</a>
</g>
</g>
<!-- Node4 -->
<g id="Node000004" class="node">
<title>Node4</title>
<g id="a_Node000004"><a xlink:href="classpsr_1_1EdgeFunctionRef.html" target="_top" xlink:title="Non&#45;null reference to an edge function that is guarenteed to be managed by an EdgeFunction object.">
<polygon fill="white" stroke="#666666" points="288,-30 169,-30 169,0 288,0 288,-30"/>
<text text-anchor="start" x="177" y="-18" font-family="Helvetica,sans-Serif" font-size="10.00">psr::EdgeFunctionRef</text>
<text text-anchor="middle" x="228.5" y="-7" font-family="Helvetica,sans-Serif" font-size="10.00">&lt; EF &gt;</text>
</a>
</g>
</g>
<!-- Node0&#45;&gt;Node4 -->
<g id="edge227_Node000000_Node000004" class="edge">
<title>Node0&#45;&gt;Node4</title>
<g id="a_edge227_Node000000_Node000004"><a xlink:title=" ">
<path fill="none" stroke="#8b1a1a" d="M97.81,-65.74C116.88,-58.17 141.27,-48.51 163,-40 171.27,-36.76 180.16,-33.3 188.6,-30.03"/>
<polygon fill="#8b1a1a" stroke="#8b1a1a" points="96.37,-62.55 88.37,-69.49 98.95,-69.05 96.37,-62.55"/>
</a>
</g>
</g>
</g>
</svg>
