<?xml version="1.0" encoding="UTF-8" standalone="no"?>
<!DOCTYPE svg PUBLIC "-//W3C//DTD SVG 1.1//EN"
 "http://www.w3.org/Graphics/SVG/1.1/DTD/svg11.dtd">
<!-- Generated by graphviz version 2.43.0 (0)
 -->
<!-- Title: Graphical Class Hierarchy Pages: 1 -->
<svg width="652pt" height="120pt"
 viewBox="0.00 0.00 652.00 119.50" xmlns="http://www.w3.org/2000/svg" xmlns:xlink="http://www.w3.org/1999/xlink">
<g id="graph0" class="graph" transform="scale(1 1) rotate(0) translate(4 115.5)">
<title>Graphical Class Hierarchy</title>
<!-- Node0 -->
<g id="Node000000" class="node">
<title>Node0</title>
<g id="a_Node000000"><a xlink:href="classpsr_1_1PathSensitivityManagerBase.html" target="_top" xlink:title=" ">
<polygon fill="white" stroke="#666666" points="180,-111.5 0,-111.5 0,-81.5 180,-81.5 180,-111.5"/>
<text text-anchor="start" x="8" y="-99.5" font-family="Helvetica,sans-Serif" font-size="10.00">psr::PathSensitivityManager</text>
<text text-anchor="middle" x="90" y="-88.5" font-family="Helvetica,sans-Serif" font-size="10.00">Base&lt; const llvm::Instruction * &gt;</text>
</a>
</g>
</g>
<!-- Node1 -->
<g id="Node000001" class="node">
<title>Node1</title>
<g id="a_Node000001"><a xlink:href="classpsr_1_1Z3BasedPathSensitivityManagerBase.html" target="_top" xlink:title=" ">
<polygon fill="white" stroke="#666666" points="406.5,-111.5 253.5,-111.5 253.5,-81.5 406.5,-81.5 406.5,-111.5"/>
<text text-anchor="start" x="261.5" y="-99.5" font-family="Helvetica,sans-Serif" font-size="10.00">psr::Z3BasedPathSensitivity</text>
<text text-anchor="middle" x="330" y="-88.5" font-family="Helvetica,sans-Serif" font-size="10.00">ManagerBase</text>
</a>
</g>
</g>
<!-- Node0&#45;&gt;Node1 -->
<g id="edge312_Node000000_Node000001" class="edge">
<title>Node0&#45;&gt;Node1</title>
<g id="a_edge312_Node000000_Node000001"><a xlink:title=" ">
<path fill="none" stroke="#63b8ff" d="M190.52,-96.5C211.49,-96.5 233.3,-96.5 253.23,-96.5"/>
<polygon fill="#63b8ff" stroke="#63b8ff" points="190.3,-93 180.3,-96.5 190.3,-100 190.3,-93"/>
</a>
</g>
</g>
<!-- Node2 -->
<g id="Node000002" class="node">
<title>Node2</title>
<g id="a_Node000002"><a xlink:href="classpsr_1_1Z3BasedPathSensitivityManager.html" target="_top" xlink:title="An extension of the path&#45;reconstruction mechanism of the PathSensitivityManager that provides means t...">
<polygon fill="white" stroke="#666666" points="644,-84 480,-84 480,-43 644,-43 644,-84"/>
<text text-anchor="start" x="488" y="-72" font-family="Helvetica,sans-Serif" font-size="10.00">psr::Z3BasedPathSensitivity</text>
<text text-anchor="start" x="488" y="-61" font-family="Helvetica,sans-Serif" font-size="10.00">Manager&lt; AnalysisDomainTy,</text>
<text text-anchor="middle" x="562" y="-50" font-family="Helvetica,sans-Serif" font-size="10.00"> typename &gt;</text>
</a>
</g>
</g>
<!-- Node1&#45;&gt;Node2 -->
<g id="edge313_Node000001_Node000002" class="edge">
<title>Node1&#45;&gt;Node2</title>
<g id="a_edge313_Node000001_Node000002"><a xlink:title=" ">
<path fill="none" stroke="#63b8ff" d="M416.65,-84.21C437.31,-81.25 459.33,-78.09 479.78,-75.15"/>
<polygon fill="#63b8ff" stroke="#63b8ff" points="416.03,-80.76 406.63,-85.65 417.02,-87.69 416.03,-80.76"/>
</a>
</g>
</g>
<!-- Node3 -->
<g id="Node000003" class="node">
<title>Node3</title>
<g id="a_Node000003"><a xlink:href="classpsr_1_1PathSensitivityManagerMixin.html" target="_top" xlink:title=" ">
<polygon fill="white" stroke="#666666" points="444,-63 216,-63 216,0 444,0 444,-63"/>
<text text-anchor="start" x="224" y="-51" font-family="Helvetica,sans-Serif" font-size="10.00">psr::PathSensitivityManager</text>
<text text-anchor="start" x="224" y="-40" font-family="Helvetica,sans-Serif" font-size="10.00">Mixin&lt; Z3BasedPathSensitivityManager</text>
<text text-anchor="start" x="224" y="-29" font-family="Helvetica,sans-Serif" font-size="10.00">&lt; AnalysisDomainTy &gt;, AnalysisDomainTy,</text>
<text text-anchor="start" x="224" y="-18" font-family="Helvetica,sans-Serif" font-size="10.00"> Z3BasedPathSensitivityManagerBase::</text>
<text text-anchor="middle" x="330" y="-7" font-family="Helvetica,sans-Serif" font-size="10.00">graph_type &gt;</text>
</a>
</g>
</g>
<!-- Node3&#45;&gt;Node2 -->
<g id="edge314_Node000003_Node000002" class="edge">
<title>Node3&#45;&gt;Node2</title>
<g id="a_edge314_Node000003_Node000002"><a xlink:title=" ">
<path fill="none" stroke="#63b8ff" d="M454.45,-48.68C463.07,-49.87 471.63,-51.07 479.92,-52.22"/>
<polygon fill="#63b8ff" stroke="#63b8ff" points="454.7,-45.18 444.32,-47.27 453.74,-52.11 454.7,-45.18"/>
</a>
</g>
</g>
</g>
</svg>
