<?xml version="1.0" encoding="UTF-8" standalone="no"?>
<!DOCTYPE svg PUBLIC "-//W3C//DTD SVG 1.1//EN"
 "http://www.w3.org/Graphics/SVG/1.1/DTD/svg11.dtd">
<!-- Generated by graphviz version 2.43.0 (0)
 -->
<!-- Title: Graphical Class Hierarchy Pages: 1 -->
<svg width="318pt" height="86pt"
 viewBox="0.00 0.00 318.00 86.00" xmlns="http://www.w3.org/2000/svg" xmlns:xlink="http://www.w3.org/1999/xlink">
<g id="graph0" class="graph" transform="scale(1 1) rotate(0) translate(4 82)">
<title>Graphical Class Hierarchy</title>
<!-- Node0 -->
<g id="Node000000" class="node">
<title>Node0</title>
<g id="a_Node000000"><a xlink:href="classpsr_1_1FlowFunction.html" target="_top" xlink:title=" ">
<polygon fill="white" stroke="#666666" points="123,-54 0,-54 0,-24 123,-24 123,-54"/>
<text text-anchor="start" x="8" y="-42" font-family="Helvetica,sans-Serif" font-size="10.00">psr::FlowFunction&lt;</text>
<text text-anchor="middle" x="61.5" y="-31" font-family="Helvetica,sans-Serif" font-size="10.00"> const llvm::Value * &gt;</text>
</a>
</g>
</g>
<!-- Node1 -->
<g id="Node000001" class="node">
<title>Node1</title>
<g id="a_Node000001"><a xlink:href="classpsr_1_1glca_1_1MapFactsToCalleeFlowFunction.html" target="_top" xlink:title=" ">
<polygon fill="white" stroke="#666666" points="310,-78 159,-78 159,-48 310,-48 310,-78"/>
<text text-anchor="start" x="167" y="-66" font-family="Helvetica,sans-Serif" font-size="10.00">psr::glca::MapFactsToCallee</text>
<text text-anchor="middle" x="234.5" y="-55" font-family="Helvetica,sans-Serif" font-size="10.00">FlowFunction</text>
</a>
</g>
</g>
<!-- Node0&#45;&gt;Node1 -->
<g id="edge243_Node000000_Node000001" class="edge">
<title>Node0&#45;&gt;Node1</title>
<g id="a_edge243_Node000000_Node000001"><a xlink:title=" ">
<path fill="none" stroke="#63b8ff" d="M133.4,-48.95C141.8,-50.13 150.4,-51.34 158.85,-52.52"/>
<polygon fill="#63b8ff" stroke="#63b8ff" points="133.66,-45.45 123.27,-47.53 132.69,-52.39 133.66,-45.45"/>
</a>
</g>
</g>
<!-- Node2 -->
<g id="Node000002" class="node">
<title>Node2</title>
<g id="a_Node000002"><a xlink:href="classpsr_1_1glca_1_1MapFactsToCallerFlowFunction.html" target="_top" xlink:title=" ">
<polygon fill="white" stroke="#666666" points="309,-30 160,-30 160,0 309,0 309,-30"/>
<text text-anchor="start" x="168" y="-18" font-family="Helvetica,sans-Serif" font-size="10.00">psr::glca::MapFactsToCaller</text>
<text text-anchor="middle" x="234.5" y="-7" font-family="Helvetica,sans-Serif" font-size="10.00">FlowFunction</text>
</a>
</g>
</g>
<!-- Node0&#45;&gt;Node2 -->
<g id="edge244_Node000000_Node000002" class="edge">
<title>Node0&#45;&gt;Node2</title>
<g id="a_edge244_Node000000_Node000002"><a xlink:title=" ">
<path fill="none" stroke="#63b8ff" d="M133.37,-29.05C142.08,-27.83 151,-26.58 159.75,-25.35"/>
<polygon fill="#63b8ff" stroke="#63b8ff" points="132.69,-25.61 123.27,-30.47 133.66,-32.55 132.69,-25.61"/>
</a>
</g>
</g>
</g>
</svg>
