<?xml version="1.0" encoding="UTF-8" standalone="no"?>
<!DOCTYPE svg PUBLIC "-//W3C//DTD SVG 1.1//EN"
 "http://www.w3.org/Graphics/SVG/1.1/DTD/svg11.dtd">
<!-- Generated by graphviz version 2.43.0 (0)
 -->
<!-- Title: Graphical Class Hierarchy Pages: 1 -->
<svg width="1208pt" height="699pt"
 viewBox="0.00 0.00 1208.00 698.50" xmlns="http://www.w3.org/2000/svg" xmlns:xlink="http://www.w3.org/1999/xlink">
<g id="graph0" class="graph" transform="scale(1 1) rotate(0) translate(4 694.5)">
<title>Graphical Class Hierarchy</title>
<!-- Node0 -->
<g id="Node000000" class="node">
<title>Node0</title>
<g id="a_Node000000"><a xlink:href="classpsr_1_1CRTPBase.html" target="_top" xlink:title=" ">
<polygon fill="white" stroke="#666666" points="147,-352.5 0,-352.5 0,-333.5 147,-333.5 147,-352.5"/>
<text text-anchor="middle" x="73.5" y="-340.5" font-family="Helvetica,sans-Serif" font-size="10.00">psr::CRTPBase&lt; Derived &gt;</text>
</a>
</g>
</g>
<!-- Node1 -->
<g id="Node000001" class="node">
<title>Node1</title>
<g id="a_Node000001"><a xlink:href="classpsr_1_1CFGBase.html" target="_top" xlink:title=" ">
<polygon fill="white" stroke="#666666" points="341,-690.5 222,-690.5 222,-671.5 341,-671.5 341,-690.5"/>
<text text-anchor="middle" x="281.5" y="-678.5" font-family="Helvetica,sans-Serif" font-size="10.00">psr::CFGBase&lt; c_t &gt;</text>
</a>
</g>
</g>
<!-- Node0&#45;&gt;Node1 -->
<g id="edge168_Node000000_Node000001" class="edge">
<title>Node0&#45;&gt;Node1</title>
<g id="a_edge168_Node000000_Node000001"><a xlink:title=" ">
<path fill="none" stroke="#63b8ff" d="M74.8,-362.72C76.79,-418.99 90.65,-581.38 183,-662 193.78,-671.41 207.82,-676.72 221.87,-679.59"/>
<polygon fill="#63b8ff" stroke="#63b8ff" points="78.3,-362.57 74.54,-352.67 71.3,-362.76 78.3,-362.57"/>
</a>
</g>
</g>
<!-- Node2 -->
<g id="Node000002" class="node">
<title>Node2</title>
<g id="a_Node000002"><a xlink:href="classpsr_1_1CFGBase.html" target="_top" xlink:title=" ">
<polygon fill="white" stroke="#666666" points="380,-653 183,-653 183,-623 380,-623 380,-653"/>
<text text-anchor="start" x="191" y="-641" font-family="Helvetica,sans-Serif" font-size="10.00">psr::CFGBase&lt; LLVMBasedBackward</text>
<text text-anchor="middle" x="281.5" y="-630" font-family="Helvetica,sans-Serif" font-size="10.00">CFG &gt;</text>
</a>
</g>
</g>
<!-- Node0&#45;&gt;Node2 -->
<g id="edge169_Node000000_Node000002" class="edge">
<title>Node0&#45;&gt;Node2</title>
<g id="a_edge169_Node000000_Node000002"><a xlink:title=" ">
<path fill="none" stroke="#63b8ff" d="M76.37,-362.84C82.18,-413.02 104.59,-545.82 183,-614 186.95,-617.43 191.31,-620.39 195.93,-622.93"/>
<polygon fill="#63b8ff" stroke="#63b8ff" points="79.82,-362.27 75.29,-352.69 72.86,-363 79.82,-362.27"/>
</a>
</g>
</g>
<!-- Node3 -->
<g id="Node000003" class="node">
<title>Node3</title>
<g id="a_Node000003"><a xlink:href="classpsr_1_1CFGBase.html" target="_top" xlink:title=" ">
<polygon fill="white" stroke="#666666" points="371.5,-604.5 191.5,-604.5 191.5,-585.5 371.5,-585.5 371.5,-604.5"/>
<text text-anchor="middle" x="281.5" y="-592.5" font-family="Helvetica,sans-Serif" font-size="10.00">psr::CFGBase&lt; LLVMBasedCFG &gt;</text>
</a>
</g>
</g>
<!-- Node0&#45;&gt;Node3 -->
<g id="edge170_Node000000_Node000003" class="edge">
<title>Node0&#45;&gt;Node3</title>
<g id="a_edge170_Node000000_Node000003"><a xlink:title=" ">
<path fill="none" stroke="#63b8ff" d="M77.59,-363.01C85.76,-408.66 112.36,-520.75 183,-576 187.89,-579.82 193.33,-582.95 199.08,-585.5"/>
<polygon fill="#63b8ff" stroke="#63b8ff" points="81.01,-362.2 75.9,-352.92 74.1,-363.36 81.01,-362.2"/>
</a>
</g>
</g>
<!-- Node4 -->
<g id="Node000004" class="node">
<title>Node4</title>
<g id="a_Node000004"><a xlink:href="classpsr_1_1CFGBase.html" target="_top" xlink:title=" ">
<polygon fill="white" stroke="#666666" points="372.5,-567 190.5,-567 190.5,-537 372.5,-537 372.5,-567"/>
<text text-anchor="start" x="198.5" y="-555" font-family="Helvetica,sans-Serif" font-size="10.00">psr::CFGBase&lt; SparseLLVMBased</text>
<text text-anchor="middle" x="281.5" y="-544" font-family="Helvetica,sans-Serif" font-size="10.00">CFG &gt;</text>
</a>
</g>
</g>
<!-- Node0&#45;&gt;Node4 -->
<g id="edge171_Node000000_Node000004" class="edge">
<title>Node0&#45;&gt;Node4</title>
<g id="a_edge171_Node000000_Node000004"><a xlink:title=" ">
<path fill="none" stroke="#63b8ff" d="M80.35,-362.78C92.69,-400.96 125.14,-484.84 183,-528 187.61,-531.44 192.65,-534.39 197.94,-536.92"/>
<polygon fill="#63b8ff" stroke="#63b8ff" points="83.58,-361.4 77.27,-352.89 76.9,-363.48 83.58,-361.4"/>
</a>
</g>
</g>
<!-- Node5 -->
<g id="Node000005" class="node">
<title>Node5</title>
<g id="a_Node000005"><a xlink:href="classpsr_1_1CallGraphBase.html" target="_top" xlink:title=" ">
<polygon fill="white" stroke="#666666" points="346,-519 217,-519 217,-489 346,-489 346,-519"/>
<text text-anchor="start" x="225" y="-507" font-family="Helvetica,sans-Serif" font-size="10.00">psr::CallGraphBase</text>
<text text-anchor="middle" x="281.5" y="-496" font-family="Helvetica,sans-Serif" font-size="10.00">&lt; CallGraph&lt; N, F &gt; &gt;</text>
</a>
</g>
</g>
<!-- Node0&#45;&gt;Node5 -->
<g id="edge172_Node000000_Node000005" class="edge">
<title>Node0&#45;&gt;Node5</title>
<g id="a_edge172_Node000000_Node000005"><a xlink:title=" ">
<path fill="none" stroke="#63b8ff" d="M83.99,-361.73C100.12,-391.57 135.76,-449.64 183,-480 193.19,-486.55 205.04,-491.31 216.88,-494.77"/>
<polygon fill="#63b8ff" stroke="#63b8ff" points="87.03,-359.99 79.28,-352.77 80.84,-363.25 87.03,-359.99"/>
</a>
</g>
</g>
<!-- Node7 -->
<g id="Node000007" class="node">
<title>Node7</title>
<g id="a_Node000007"><a xlink:href="classpsr_1_1CallGraphBase.html" target="_top" xlink:title=" ">
<polygon fill="white" stroke="#666666" points="353,-471 210,-471 210,-441 353,-441 353,-471"/>
<text text-anchor="start" x="218" y="-459" font-family="Helvetica,sans-Serif" font-size="10.00">psr::CallGraphBase</text>
<text text-anchor="middle" x="281.5" y="-448" font-family="Helvetica,sans-Serif" font-size="10.00">&lt; CallGraph&lt; n_t, f_t &gt; &gt;</text>
</a>
</g>
</g>
<!-- Node0&#45;&gt;Node7 -->
<g id="edge174_Node000000_Node000007" class="edge">
<title>Node0&#45;&gt;Node7</title>
<g id="a_edge174_Node000000_Node000007"><a xlink:title=" ">
<path fill="none" stroke="#63b8ff" d="M90.33,-359.97C110.11,-380.15 145.88,-413.42 183,-432 191.42,-436.21 200.62,-439.72 209.91,-442.62"/>
<polygon fill="#63b8ff" stroke="#63b8ff" points="92.79,-357.48 83.34,-352.69 87.75,-362.33 92.79,-357.48"/>
</a>
</g>
</g>
<!-- Node8 -->
<g id="Node000008" class="node">
<title>Node8</title>
<g id="a_Node000008"><a xlink:href="classpsr_1_1CallGraphBase.html" target="_top" xlink:title=" ">
<polygon fill="white" stroke="#666666" points="350.5,-423 212.5,-423 212.5,-371 350.5,-371 350.5,-423"/>
<text text-anchor="start" x="220.5" y="-411" font-family="Helvetica,sans-Serif" font-size="10.00">psr::CallGraphBase</text>
<text text-anchor="start" x="220.5" y="-400" font-family="Helvetica,sans-Serif" font-size="10.00">&lt; CallGraph&lt; const llvm</text>
<text text-anchor="start" x="220.5" y="-389" font-family="Helvetica,sans-Serif" font-size="10.00">::Instruction *, const</text>
<text text-anchor="middle" x="281.5" y="-378" font-family="Helvetica,sans-Serif" font-size="10.00"> llvm::Function * &gt; &gt;</text>
</a>
</g>
</g>
<!-- Node0&#45;&gt;Node8 -->
<g id="edge175_Node000000_Node000008" class="edge">
<title>Node0&#45;&gt;Node8</title>
<g id="a_edge175_Node000000_Node000008"><a xlink:title=" ">
<path fill="none" stroke="#63b8ff" d="M120.81,-355.14C147.83,-362.22 182.4,-371.28 212.46,-379.17"/>
<polygon fill="#63b8ff" stroke="#63b8ff" points="121.42,-351.68 110.85,-352.53 119.64,-358.45 121.42,-351.68"/>
</a>
</g>
</g>
<!-- Node9 -->
<g id="Node000009" class="node">
<title>Node9</title>
<g id="a_Node000009"><a xlink:href="classpsr_1_1ICFGBase.html" target="_top" xlink:title=" ">
<polygon fill="white" stroke="#666666" points="789.5,-465 637.5,-465 637.5,-435 789.5,-435 789.5,-465"/>
<text text-anchor="start" x="645.5" y="-453" font-family="Helvetica,sans-Serif" font-size="10.00">psr::ICFGBase&lt; LLVMBased</text>
<text text-anchor="middle" x="713.5" y="-442" font-family="Helvetica,sans-Serif" font-size="10.00">BackwardICFG &gt;</text>
</a>
</g>
</g>
<!-- Node0&#45;&gt;Node9 -->
<g id="edge176_Node000000_Node000009" class="edge">
<title>Node0&#45;&gt;Node9</title>
<g id="a_edge176_Node000000_Node000009"><a xlink:title=" ">
<path fill="none" stroke="#63b8ff" d="M157.43,-339.21C235.16,-337.23 344.55,-338.97 380,-362 409.01,-380.84 387.01,-412.13 416,-431 481.5,-473.63 573.31,-472.45 637.36,-464.4"/>
<polygon fill="#63b8ff" stroke="#63b8ff" points="157.06,-335.72 147.16,-339.5 157.25,-342.72 157.06,-335.72"/>
</a>
</g>
</g>
<!-- Node22 -->
<g id="Node000022" class="node">
<title>Node22</title>
<g id="a_Node000022"><a xlink:href="classpsr_1_1ICFGBase.html" target="_top" xlink:title=" ">
<polygon fill="white" stroke="#666666" points="789.5,-293 637.5,-293 637.5,-263 789.5,-263 789.5,-293"/>
<text text-anchor="start" x="645.5" y="-281" font-family="Helvetica,sans-Serif" font-size="10.00">psr::ICFGBase&lt; LLVMBased</text>
<text text-anchor="middle" x="713.5" y="-270" font-family="Helvetica,sans-Serif" font-size="10.00">ICFG &gt;</text>
</a>
</g>
</g>
<!-- Node0&#45;&gt;Node22 -->
<g id="edge178_Node000000_Node000022" class="edge">
<title>Node0&#45;&gt;Node22</title>
<g id="a_edge178_Node000000_Node000022"><a xlink:title=" ">
<path fill="none" stroke="#63b8ff" d="M97.97,-328.12C119.33,-315.26 152.14,-297.19 183,-287 353.41,-230.71 406.66,-228.97 585,-249 609.48,-251.75 636.11,-257.38 658.67,-262.95"/>
<polygon fill="#63b8ff" stroke="#63b8ff" points="95.98,-325.23 89.29,-333.44 99.64,-331.2 95.98,-325.23"/>
</a>
</g>
</g>
<!-- Node21 -->
<g id="Node000021" class="node">
<title>Node21</title>
<g id="a_Node000021"><a xlink:href="classpsr_1_1ICFGBase.html" target="_top" xlink:title=" ">
<polygon fill="white" stroke="#666666" points="806,-197 621,-197 621,-167 806,-167 806,-197"/>
<text text-anchor="start" x="629" y="-185" font-family="Helvetica,sans-Serif" font-size="10.00">psr::ICFGBase&lt; SparseLLVMBased</text>
<text text-anchor="middle" x="713.5" y="-174" font-family="Helvetica,sans-Serif" font-size="10.00">ICFGView &gt;</text>
</a>
</g>
</g>
<!-- Node0&#45;&gt;Node21 -->
<g id="edge181_Node000000_Node000021" class="edge">
<title>Node0&#45;&gt;Node21</title>
<g id="a_edge181_Node000000_Node000021"><a xlink:title=" ">
<path fill="none" stroke="#63b8ff" d="M86.36,-325.09C104.07,-300.04 139.98,-255.33 183,-235 258.33,-199.4 490.38,-187.66 620.9,-183.82"/>
<polygon fill="#63b8ff" stroke="#63b8ff" points="83.47,-323.12 80.68,-333.35 89.23,-327.09 83.47,-323.12"/>
</a>
</g>
</g>
<!-- Node25 -->
<g id="Node000025" class="node">
<title>Node25</title>
<g id="a_Node000025"><a xlink:href="classpsr_1_1PointsToInfoBase.html" target="_top" xlink:title=" ">
<polygon fill="white" stroke="#666666" points="372,-164 191,-164 191,-134 372,-134 372,-164"/>
<text text-anchor="start" x="199" y="-152" font-family="Helvetica,sans-Serif" font-size="10.00">psr::PointsToInfoBase</text>
<text text-anchor="middle" x="281.5" y="-141" font-family="Helvetica,sans-Serif" font-size="10.00">&lt; PointsToInfoRef&lt; PTATraits &gt; &gt;</text>
</a>
</g>
</g>
<!-- Node0&#45;&gt;Node25 -->
<g id="edge183_Node000000_Node000025" class="edge">
<title>Node0&#45;&gt;Node25</title>
<g id="a_edge183_Node000000_Node000025"><a xlink:title=" ">
<path fill="none" stroke="#63b8ff" d="M81.72,-324.16C95.83,-289.85 130.38,-217.1 183,-178 190.65,-172.31 199.42,-167.73 208.48,-164.05"/>
<polygon fill="#63b8ff" stroke="#63b8ff" points="78.45,-322.91 78,-333.5 84.95,-325.5 78.45,-322.91"/>
</a>
</g>
</g>
<!-- Node13 -->
<g id="Node000013" class="node">
<title>Node13</title>
<g id="a_Node000013"><a xlink:href="classpsr_1_1CFGBase.html" target="_top" xlink:title=" ">
<polygon fill="white" stroke="#666666" points="353,-314.5 210,-314.5 210,-295.5 353,-295.5 353,-314.5"/>
<text text-anchor="middle" x="281.5" y="-302.5" font-family="Helvetica,sans-Serif" font-size="10.00">psr::CFGBase&lt; Derived &gt;</text>
</a>
</g>
</g>
<!-- Node0&#45;&gt;Node13 -->
<g id="edge185_Node000000_Node000013" class="edge">
<title>Node0&#45;&gt;Node13</title>
<g id="a_edge185_Node000000_Node000013"><a xlink:title=" ">
<path fill="none" stroke="#63b8ff" d="M136.4,-331.58C165.87,-326.14 200.72,-319.72 228.76,-314.54"/>
<polygon fill="#63b8ff" stroke="#63b8ff" points="135.42,-328.2 126.22,-333.46 136.69,-335.09 135.42,-328.2"/>
</a>
</g>
</g>
<!-- Node27 -->
<g id="Node000027" class="node">
<title>Node27</title>
<g id="a_Node000027"><a xlink:href="classpsr_1_1CallGraphBase.html" target="_top" xlink:title=" ">
<polygon fill="white" stroke="#666666" points="336.5,-116 226.5,-116 226.5,-86 336.5,-86 336.5,-116"/>
<text text-anchor="start" x="234.5" y="-104" font-family="Helvetica,sans-Serif" font-size="10.00">psr::CallGraphBase</text>
<text text-anchor="middle" x="281.5" y="-93" font-family="Helvetica,sans-Serif" font-size="10.00">&lt; Derived &gt;</text>
</a>
</g>
</g>
<!-- Node0&#45;&gt;Node27 -->
<g id="edge197_Node000000_Node000027" class="edge">
<title>Node0&#45;&gt;Node27</title>
<g id="a_edge197_Node000000_Node000027"><a xlink:title=" ">
<path fill="none" stroke="#63b8ff" d="M78.45,-323.34C88.14,-280.35 117.26,-177.64 183,-125 195.31,-115.14 211.11,-109.25 226.38,-105.76"/>
<polygon fill="#63b8ff" stroke="#63b8ff" points="74.97,-322.84 76.3,-333.36 81.82,-324.31 74.97,-322.84"/>
</a>
</g>
</g>
<!-- Node30 -->
<g id="Node000030" class="node">
<title>Node30</title>
<g id="a_Node000030"><a xlink:href="classpsr_1_1ICFGBase.html" target="_top" xlink:title=" ">
<polygon fill="white" stroke="#666666" points="354.5,-67.5 208.5,-67.5 208.5,-48.5 354.5,-48.5 354.5,-67.5"/>
<text text-anchor="middle" x="281.5" y="-55.5" font-family="Helvetica,sans-Serif" font-size="10.00">psr::ICFGBase&lt; Derived &gt;</text>
</a>
</g>
</g>
<!-- Node0&#45;&gt;Node30 -->
<g id="edge200_Node000000_Node000030" class="edge">
<title>Node0&#45;&gt;Node30</title>
<g id="a_edge200_Node000000_Node000030"><a xlink:title=" ">
<path fill="none" stroke="#63b8ff" d="M76.3,-323.29C81.95,-273.48 104,-141.93 183,-77 190.33,-70.98 199.01,-66.67 208.12,-63.61"/>
<polygon fill="#63b8ff" stroke="#63b8ff" points="72.8,-323.06 75.25,-333.37 79.76,-323.78 72.8,-323.06"/>
</a>
</g>
</g>
<!-- Node31 -->
<g id="Node000031" class="node">
<title>Node31</title>
<g id="a_Node000031"><a xlink:href="classpsr_1_1PointsToInfoBase.html" target="_top" xlink:title=" ">
<polygon fill="white" stroke="#666666" points="342,-30 221,-30 221,0 342,0 342,-30"/>
<text text-anchor="start" x="229" y="-18" font-family="Helvetica,sans-Serif" font-size="10.00">psr::PointsToInfoBase</text>
<text text-anchor="middle" x="281.5" y="-7" font-family="Helvetica,sans-Serif" font-size="10.00">&lt; Derived &gt;</text>
</a>
</g>
</g>
<!-- Node0&#45;&gt;Node31 -->
<g id="edge201_Node000000_Node000031" class="edge">
<title>Node0&#45;&gt;Node31</title>
<g id="a_edge201_Node000000_Node000031"><a xlink:title=" ">
<path fill="none" stroke="#63b8ff" d="M75.38,-323.34C78.91,-269.27 96.43,-117.21 183,-39 193.48,-29.53 207.09,-23.66 220.8,-20.04"/>
<polygon fill="#63b8ff" stroke="#63b8ff" points="71.89,-323.14 74.82,-333.32 78.88,-323.54 71.89,-323.14"/>
</a>
</g>
</g>
<!-- Node6 -->
<g id="Node000006" class="node">
<title>Node6</title>
<g id="a_Node000006"><a xlink:href="classpsr_1_1CallGraph.html" target="_top" xlink:title=" ">
<polygon fill="white" stroke="#666666" points="564.5,-513.5 436.5,-513.5 436.5,-494.5 564.5,-494.5 564.5,-513.5"/>
<text text-anchor="middle" x="500.5" y="-501.5" font-family="Helvetica,sans-Serif" font-size="10.00">psr::CallGraph&lt; N, F &gt;</text>
</a>
</g>
</g>
<!-- Node5&#45;&gt;Node6 -->
<g id="edge173_Node000005_Node000006" class="edge">
<title>Node5&#45;&gt;Node6</title>
<g id="a_edge173_Node000005_Node000006"><a xlink:title=" ">
<path fill="none" stroke="#63b8ff" d="M356.31,-504C382.28,-504 411.21,-504 436.24,-504"/>
<polygon fill="#63b8ff" stroke="#63b8ff" points="356.14,-500.5 346.14,-504 356.14,-507.5 356.14,-500.5"/>
</a>
</g>
</g>
<!-- Node10 -->
<g id="Node000010" class="node">
<title>Node10</title>
<g id="a_Node000010"><a xlink:href="classpsr_1_1LLVMBasedBackwardICFG.html" target="_top" xlink:title="A class that represents a backwards interprocedural control flow graph. Conforms to the ICFGBase CRTP...">
<polygon fill="white" stroke="#666666" points="1010.5,-437.5 846.5,-437.5 846.5,-418.5 1010.5,-418.5 1010.5,-437.5"/>
<text text-anchor="middle" x="928.5" y="-425.5" font-family="Helvetica,sans-Serif" font-size="10.00">psr::LLVMBasedBackwardICFG</text>
</a>
</g>
</g>
<!-- Node9&#45;&gt;Node10 -->
<g id="edge177_Node000009_Node000010" class="edge">
<title>Node9&#45;&gt;Node10</title>
<g id="a_edge177_Node000009_Node000010"><a xlink:title=" ">
<path fill="none" stroke="#63b8ff" d="M799.59,-441.21C814.96,-439.62 830.95,-437.97 846.21,-436.4"/>
<polygon fill="#63b8ff" stroke="#63b8ff" points="799.18,-437.73 789.6,-442.24 799.9,-444.7 799.18,-437.73"/>
</a>
</g>
</g>
<!-- Node17 -->
<g id="Node000017" class="node">
<title>Node17</title>
<g id="a_Node000017"><a xlink:href="classpsr_1_1LLVMBasedICFG.html" target="_top" xlink:title="A class that implements a inter&#45;procedural control flow graph. Conforms to the ICFGBase CRTP interfac...">
<polygon fill="white" stroke="#666666" points="986.5,-300.5 870.5,-300.5 870.5,-281.5 986.5,-281.5 986.5,-300.5"/>
<text text-anchor="middle" x="928.5" y="-288.5" font-family="Helvetica,sans-Serif" font-size="10.00">psr::LLVMBasedICFG</text>
</a>
</g>
</g>
<!-- Node22&#45;&gt;Node17 -->
<g id="edge179_Node000022_Node000017" class="edge">
<title>Node22&#45;&gt;Node17</title>
<g id="a_edge179_Node000022_Node000017"><a xlink:title=" ">
<path fill="none" stroke="#63b8ff" d="M799.69,-283.2C823.48,-284.65 848.75,-286.19 870.48,-287.52"/>
<polygon fill="#63b8ff" stroke="#63b8ff" points="799.79,-279.7 789.6,-282.58 799.36,-286.69 799.79,-279.7"/>
</a>
</g>
</g>
<!-- Node18 -->
<g id="Node000018" class="node">
<title>Node18</title>
<g id="a_Node000018"><a xlink:href="classpsr_1_1SparseLLVMBasedICFG.html" target="_top" xlink:title="A class that implements a sparse interprocedural control flow graph. Conforms to the ICFGBase CRTP in...">
<polygon fill="white" stroke="#666666" points="1200,-281.5 1051,-281.5 1051,-262.5 1200,-262.5 1200,-281.5"/>
<text text-anchor="middle" x="1125.5" y="-269.5" font-family="Helvetica,sans-Serif" font-size="10.00">psr::SparseLLVMBasedICFG</text>
</a>
</g>
</g>
<!-- Node17&#45;&gt;Node18 -->
<g id="edge180_Node000017_Node000018" class="edge">
<title>Node17&#45;&gt;Node18</title>
<g id="a_edge180_Node000017_Node000018"><a xlink:title=" ">
<path fill="none" stroke="#63b8ff" d="M996.79,-284.44C1014.27,-282.74 1033.19,-280.9 1050.97,-279.16"/>
<polygon fill="#63b8ff" stroke="#63b8ff" points="996.3,-280.97 986.69,-285.43 996.98,-287.94 996.3,-280.97"/>
</a>
</g>
</g>
<!-- Node20 -->
<g id="Node000020" class="node">
<title>Node20</title>
<g id="a_Node000020"><a xlink:href="classpsr_1_1SparseLLVMBasedICFGView.html" target="_top" xlink:title="Similar to SparseLLVMBasedICFG; the only difference is that this one is no LLVMBasedICFG – it contain...">
<polygon fill="white" stroke="#666666" points="1015,-224.5 842,-224.5 842,-205.5 1015,-205.5 1015,-224.5"/>
<text text-anchor="middle" x="928.5" y="-212.5" font-family="Helvetica,sans-Serif" font-size="10.00">psr::SparseLLVMBasedICFGView</text>
</a>
</g>
</g>
<!-- Node21&#45;&gt;Node20 -->
<g id="edge182_Node000021_Node000020" class="edge">
<title>Node21&#45;&gt;Node20</title>
<g id="a_edge182_Node000021_Node000020"><a xlink:title=" ">
<path fill="none" stroke="#63b8ff" d="M816.1,-197.74C833.2,-200.39 850.47,-203.07 866.14,-205.49"/>
<polygon fill="#63b8ff" stroke="#63b8ff" points="816.49,-194.26 806.07,-196.19 815.41,-201.18 816.49,-194.26"/>
</a>
</g>
</g>
<!-- Node26 -->
<g id="Node000026" class="node">
<title>Node26</title>
<g id="a_Node000026"><a xlink:href="classpsr_1_1PointsToInfoRef_3_01PTATraits_00_01std_1_1enable__if__t_3_01is__PointsToTraits__v_3_01PTATraits_01_4_01_4_01_4.html" target="_top" xlink:title=" ">
<polygon fill="white" stroke="#666666" points="566,-164 435,-164 435,-112 566,-112 566,-164"/>
<text text-anchor="start" x="443" y="-152" font-family="Helvetica,sans-Serif" font-size="10.00">psr::PointsToInfoRef</text>
<text text-anchor="start" x="443" y="-141" font-family="Helvetica,sans-Serif" font-size="10.00">&lt; PTATraits, std::enable</text>
<text text-anchor="start" x="443" y="-130" font-family="Helvetica,sans-Serif" font-size="10.00">_if_t&lt; is_PointsToTraits</text>
<text text-anchor="middle" x="500.5" y="-119" font-family="Helvetica,sans-Serif" font-size="10.00">_v&lt; PTATraits &gt; &gt; &gt;</text>
</a>
</g>
</g>
<!-- Node25&#45;&gt;Node26 -->
<g id="edge184_Node000025_Node000026" class="edge">
<title>Node25&#45;&gt;Node26</title>
<g id="a_edge184_Node000025_Node000026"><a xlink:title=" ">
<path fill="none" stroke="#63b8ff" d="M382.42,-143.93C400.18,-143.03 418.26,-142.12 434.71,-141.28"/>
<polygon fill="#63b8ff" stroke="#63b8ff" points="381.82,-140.46 372.02,-144.46 382.18,-147.45 381.82,-140.46"/>
</a>
</g>
</g>
<!-- Node14 -->
<g id="Node000014" class="node">
<title>Node14</title>
<g id="a_Node000014"><a xlink:href="classpsr_1_1SparseCFGBase.html" target="_top" xlink:title=" ">
<polygon fill="white" stroke="#666666" points="787.5,-379 639.5,-379 639.5,-349 787.5,-349 787.5,-379"/>
<text text-anchor="start" x="647.5" y="-367" font-family="Helvetica,sans-Serif" font-size="10.00">psr::SparseCFGBase</text>
<text text-anchor="middle" x="713.5" y="-356" font-family="Helvetica,sans-Serif" font-size="10.00">&lt; SparseLLVMBasedCFG &gt;</text>
</a>
</g>
</g>
<!-- Node13&#45;&gt;Node14 -->
<g id="edge186_Node000013_Node000014" class="edge">
<title>Node13&#45;&gt;Node14</title>
<g id="a_edge186_Node000013_Node000014"><a xlink:title=" ">
<path fill="none" stroke="#63b8ff" d="M338.44,-316.97C352.17,-320.4 366.73,-324.46 380,-329 396.57,-334.67 399,-340.82 416,-345 490.51,-363.32 578.54,-366.77 639.21,-366.44"/>
<polygon fill="#63b8ff" stroke="#63b8ff" points="339.16,-313.54 328.62,-314.59 337.51,-320.35 339.16,-313.54"/>
</a>
</g>
</g>
<!-- Node12 -->
<g id="Node000012" class="node">
<title>Node12</title>
<g id="a_Node000012"><a xlink:title=" ">
<polygon fill="#e0e0e0" stroke="#999999" points="585,-422 416,-422 416,-392 585,-392 585,-422"/>
<text text-anchor="start" x="424" y="-410" font-family="Helvetica,sans-Serif" font-size="10.00">psr::detail::LLVMBasedCFGImpl</text>
<text text-anchor="middle" x="500.5" y="-399" font-family="Helvetica,sans-Serif" font-size="10.00">&lt; LLVMBasedBackwardCFG &gt;</text>
</a>
</g>
</g>
<!-- Node13&#45;&gt;Node12 -->
<g id="edge188_Node000013_Node000012" class="edge">
<title>Node13&#45;&gt;Node12</title>
<g id="a_edge188_Node000013_Node000012"><a xlink:title=" ">
<path fill="none" stroke="#63b8ff" d="M357.95,-317.85C365.73,-320.82 373.25,-324.49 380,-329 402.47,-344.02 394.26,-361.95 416,-378 423.53,-383.56 432.22,-388.11 441.07,-391.83"/>
<polygon fill="#63b8ff" stroke="#63b8ff" points="358.94,-314.49 348.35,-314.55 356.67,-321.11 358.94,-314.49"/>
</a>
</g>
</g>
<!-- Node23 -->
<g id="Node000023" class="node">
<title>Node23</title>
<g id="a_Node000023"><a xlink:title=" ">
<polygon fill="#e0e0e0" stroke="#999999" points="585,-336 416,-336 416,-306 585,-306 585,-336"/>
<text text-anchor="start" x="424" y="-324" font-family="Helvetica,sans-Serif" font-size="10.00">psr::detail::LLVMBasedCFGImpl</text>
<text text-anchor="middle" x="500.5" y="-313" font-family="Helvetica,sans-Serif" font-size="10.00">&lt; LLVMBasedCFG &gt;</text>
</a>
</g>
</g>
<!-- Node13&#45;&gt;Node23 -->
<g id="edge191_Node000013_Node000023" class="edge">
<title>Node13&#45;&gt;Node23</title>
<g id="a_edge191_Node000013_Node000023"><a xlink:title=" ">
<path fill="none" stroke="#63b8ff" d="M363.68,-310.99C380.64,-312.24 398.56,-313.56 415.62,-314.82"/>
<polygon fill="#63b8ff" stroke="#63b8ff" points="363.48,-307.46 353.25,-310.22 362.97,-314.44 363.48,-307.46"/>
</a>
</g>
</g>
<!-- Node24 -->
<g id="Node000024" class="node">
<title>Node24</title>
<g id="a_Node000024"><a xlink:href="classpsr_1_1SparseCFGBase.html" target="_top" xlink:title=" ">
<polygon fill="white" stroke="#666666" points="558,-288 443,-288 443,-258 558,-258 558,-288"/>
<text text-anchor="start" x="451" y="-276" font-family="Helvetica,sans-Serif" font-size="10.00">psr::SparseCFGBase</text>
<text text-anchor="middle" x="500.5" y="-265" font-family="Helvetica,sans-Serif" font-size="10.00">&lt; Derived &gt;</text>
</a>
</g>
</g>
<!-- Node13&#45;&gt;Node24 -->
<g id="edge196_Node000013_Node000024" class="edge">
<title>Node13&#45;&gt;Node24</title>
<g id="a_edge196_Node000013_Node000024"><a xlink:title=" ">
<path fill="none" stroke="#63b8ff" d="M357.21,-293.98C385.31,-289.84 416.78,-285.2 442.96,-281.34"/>
<polygon fill="#63b8ff" stroke="#63b8ff" points="356.4,-290.56 347.02,-295.49 357.42,-297.49 356.4,-290.56"/>
</a>
</g>
</g>
<!-- Node15 -->
<g id="Node000015" class="node">
<title>Node15</title>
<g id="a_Node000015"><a xlink:href="classpsr_1_1SparseLLVMBasedCFG.html" target="_top" xlink:title="A class that implements a sparse control flow graph. Conforms to the CFGBase CRTP interface.">
<polygon fill="white" stroke="#666666" points="1001.5,-351.5 855.5,-351.5 855.5,-332.5 1001.5,-332.5 1001.5,-351.5"/>
<text text-anchor="middle" x="928.5" y="-339.5" font-family="Helvetica,sans-Serif" font-size="10.00">psr::SparseLLVMBasedCFG</text>
</a>
</g>
</g>
<!-- Node14&#45;&gt;Node15 -->
<g id="edge187_Node000014_Node000015" class="edge">
<title>Node14&#45;&gt;Node15</title>
<g id="a_edge187_Node000014_Node000015"><a xlink:title=" ">
<path fill="none" stroke="#63b8ff" d="M797.65,-355.41C816.69,-353.44 836.78,-351.37 855.31,-349.46"/>
<polygon fill="#63b8ff" stroke="#63b8ff" points="797.09,-351.95 787.5,-356.46 797.81,-358.91 797.09,-351.95"/>
</a>
</g>
</g>
<!-- Node11 -->
<g id="Node000011" class="node">
<title>Node11</title>
<g id="a_Node000011"><a xlink:href="classpsr_1_1LLVMBasedBackwardCFG.html" target="_top" xlink:title="A class that represents a backwards control flow graph. Conforms to the CFGBase CRTP interface.">
<polygon fill="white" stroke="#666666" points="794,-416.5 633,-416.5 633,-397.5 794,-397.5 794,-416.5"/>
<text text-anchor="middle" x="713.5" y="-404.5" font-family="Helvetica,sans-Serif" font-size="10.00">psr::LLVMBasedBackwardCFG</text>
</a>
</g>
</g>
<!-- Node12&#45;&gt;Node11 -->
<g id="edge189_Node000012_Node000011" class="edge">
<title>Node12&#45;&gt;Node11</title>
<g id="a_edge189_Node000012_Node000011"><a xlink:title=" ">
<path fill="none" stroke="#63b8ff" d="M595.55,-407C607.94,-407 620.56,-407 632.69,-407"/>
<polygon fill="#63b8ff" stroke="#63b8ff" points="595.2,-403.5 585.2,-407 595.2,-410.5 595.2,-403.5"/>
</a>
</g>
</g>
<!-- Node11&#45;&gt;Node10 -->
<g id="edge190_Node000011_Node000010" class="edge">
<title>Node11&#45;&gt;Node10</title>
<g id="a_edge190_Node000011_Node000010"><a xlink:title=" ">
<path fill="none" stroke="#63b8ff" d="M804.18,-415.84C818.13,-417.22 832.46,-418.63 846.2,-419.98"/>
<polygon fill="#63b8ff" stroke="#63b8ff" points="804.41,-412.35 794.12,-414.85 803.72,-419.31 804.41,-412.35"/>
</a>
</g>
</g>
<!-- Node16 -->
<g id="Node000016" class="node">
<title>Node16</title>
<g id="a_Node000016"><a xlink:href="classpsr_1_1LLVMBasedCFG.html" target="_top" xlink:title=" ">
<polygon fill="white" stroke="#666666" points="770,-330.5 657,-330.5 657,-311.5 770,-311.5 770,-330.5"/>
<text text-anchor="middle" x="713.5" y="-318.5" font-family="Helvetica,sans-Serif" font-size="10.00">psr::LLVMBasedCFG</text>
</a>
</g>
</g>
<!-- Node23&#45;&gt;Node16 -->
<g id="edge192_Node000023_Node000016" class="edge">
<title>Node23&#45;&gt;Node16</title>
<g id="a_edge192_Node000023_Node000016"><a xlink:title=" ">
<path fill="none" stroke="#63b8ff" d="M595.42,-321C616.38,-321 637.95,-321 656.78,-321"/>
<polygon fill="#63b8ff" stroke="#63b8ff" points="595.2,-317.5 585.2,-321 595.2,-324.5 595.2,-317.5"/>
</a>
</g>
</g>
<!-- Node16&#45;&gt;Node17 -->
<g id="edge193_Node000016_Node000017" class="edge">
<title>Node16&#45;&gt;Node17</title>
<g id="a_edge193_Node000016_Node000017"><a xlink:title=" ">
<path fill="none" stroke="#63b8ff" d="M780.17,-311.75C808.98,-307.69 842.5,-302.97 870.29,-299.06"/>
<polygon fill="#63b8ff" stroke="#63b8ff" points="779.6,-308.3 770.19,-313.16 780.58,-315.23 779.6,-308.3"/>
</a>
</g>
</g>
<!-- Node16&#45;&gt;Node20 -->
<g id="edge195_Node000016_Node000020" class="edge">
<title>Node16&#45;&gt;Node20</title>
<g id="a_edge195_Node000016_Node000020"><a xlink:title=" ">
<path fill="none" stroke="#63b8ff" d="M779.83,-311.41C788.85,-308.95 797.81,-305.87 806,-302 824.58,-293.22 825.48,-285.22 842,-273 866.08,-255.18 895.13,-235.93 912.41,-224.7"/>
<polygon fill="#63b8ff" stroke="#63b8ff" points="778.92,-308.03 770.06,-313.84 780.61,-314.83 778.92,-308.03"/>
</a>
</g>
</g>
<!-- Node16&#45;&gt;Node15 -->
<g id="edge194_Node000016_Node000015" class="edge">
<title>Node16&#45;&gt;Node15</title>
<g id="a_edge194_Node000016_Node000015"><a xlink:title=" ">
<path fill="none" stroke="#63b8ff" d="M780.17,-327.47C803.96,-329.82 830.96,-332.48 855.28,-334.88"/>
<polygon fill="#63b8ff" stroke="#63b8ff" points="780.48,-323.99 770.19,-326.49 779.79,-330.95 780.48,-323.99"/>
</a>
</g>
</g>
<!-- Node28 -->
<g id="Node000028" class="node">
<title>Node28</title>
<g id="a_Node000028"><a xlink:href="classpsr_1_1CallGraph.html" target="_top" xlink:title=" ">
<polygon fill="white" stroke="#666666" points="558,-94 443,-94 443,-64 558,-64 558,-94"/>
<text text-anchor="start" x="451" y="-82" font-family="Helvetica,sans-Serif" font-size="10.00">psr::CallGraph&lt; n_t,</text>
<text text-anchor="middle" x="500.5" y="-71" font-family="Helvetica,sans-Serif" font-size="10.00"> f_t &gt;</text>
</a>
</g>
</g>
<!-- Node27&#45;&gt;Node28 -->
<g id="edge198_Node000027_Node000028" class="edge">
<title>Node27&#45;&gt;Node28</title>
<g id="a_edge198_Node000027_Node000028"><a xlink:title=" ">
<path fill="none" stroke="#63b8ff" d="M346.82,-94.48C377.35,-91.38 413.5,-87.72 442.97,-84.73"/>
<polygon fill="#63b8ff" stroke="#63b8ff" points="346.29,-91.01 336.7,-95.51 347,-97.98 346.29,-91.01"/>
</a>
</g>
</g>
<!-- Node29 -->
<g id="Node000029" class="node">
<title>Node29</title>
<g id="a_Node000029"><a xlink:href="classpsr_1_1CallGraph.html" target="_top" xlink:title=" ">
<polygon fill="white" stroke="#666666" points="569,-45.5 432,-45.5 432,-4.5 569,-4.5 569,-45.5"/>
<text text-anchor="start" x="440" y="-33.5" font-family="Helvetica,sans-Serif" font-size="10.00">psr::CallGraph&lt; const</text>
<text text-anchor="start" x="440" y="-22.5" font-family="Helvetica,sans-Serif" font-size="10.00"> llvm::Instruction *,</text>
<text text-anchor="middle" x="500.5" y="-11.5" font-family="Helvetica,sans-Serif" font-size="10.00"> const llvm::Function * &gt;</text>
</a>
</g>
</g>
<!-- Node27&#45;&gt;Node29 -->
<g id="edge199_Node000027_Node000029" class="edge">
<title>Node27&#45;&gt;Node29</title>
<g id="a_edge199_Node000027_Node000029"><a xlink:title=" ">
<path fill="none" stroke="#63b8ff" d="M346.6,-87.27C357.91,-84.09 369.43,-80.34 380,-76 397.14,-68.97 399.21,-62.83 416,-55 423.12,-51.68 430.72,-48.49 438.32,-45.51"/>
<polygon fill="#63b8ff" stroke="#63b8ff" points="345.5,-83.94 336.75,-89.92 347.32,-90.7 345.5,-83.94"/>
</a>
</g>
</g>
<!-- Node19 -->
<g id="Node000019" class="node">
<title>Node19</title>
<g id="a_Node000019"><a xlink:href="classpsr_1_1SparseCFGProvider.html" target="_top" xlink:title=" ">
<polygon fill="white" stroke="#666666" points="779,-245 648,-245 648,-215 779,-215 779,-245"/>
<text text-anchor="start" x="656" y="-233" font-family="Helvetica,sans-Serif" font-size="10.00">psr::SparseCFGProvider</text>
<text text-anchor="middle" x="713.5" y="-222" font-family="Helvetica,sans-Serif" font-size="10.00">&lt; Derived, F, V &gt;</text>
</a>
</g>
</g>
<!-- Node19&#45;&gt;Node18 -->
<g id="edge202_Node000019_Node000018" class="edge">
<title>Node19&#45;&gt;Node18</title>
<g id="a_edge202_Node000019_Node000018"><a xlink:title=" ">
<path fill="none" stroke="#63b8ff" d="M789.23,-237.65C863.49,-245.26 976.71,-256.86 1050.66,-264.44"/>
<polygon fill="#63b8ff" stroke="#63b8ff" points="789.32,-234.15 779.01,-236.61 788.6,-241.11 789.32,-234.15"/>
</a>
</g>
</g>
<!-- Node19&#45;&gt;Node20 -->
<g id="edge203_Node000019_Node000020" class="edge">
<title>Node19&#45;&gt;Node20</title>
<g id="a_edge203_Node000019_Node000020"><a xlink:title=" ">
<path fill="none" stroke="#63b8ff" d="M789.62,-224.71C806.5,-223.52 824.53,-222.25 841.81,-221.03"/>
<polygon fill="#63b8ff" stroke="#63b8ff" points="789,-221.24 779.27,-225.44 789.5,-228.23 789,-221.24"/>
</a>
</g>
</g>
</g>
</svg>
