<?xml version="1.0" encoding="UTF-8" standalone="no"?>
<!DOCTYPE svg PUBLIC "-//W3C//DTD SVG 1.1//EN"
 "http://www.w3.org/Graphics/SVG/1.1/DTD/svg11.dtd">
<!-- Generated by graphviz version 2.43.0 (0)
 -->
<!-- Title: Graphical Class Hierarchy Pages: 1 -->
<svg width="271pt" height="64pt"
 viewBox="0.00 0.00 271.00 64.00" xmlns="http://www.w3.org/2000/svg" xmlns:xlink="http://www.w3.org/1999/xlink">
<g id="graph0" class="graph" transform="scale(1 1) rotate(0) translate(4 60)">
<title>Graphical Class Hierarchy</title>
<!-- Node0 -->
<g id="Node000000" class="node">
<title>Node0</title>
<g id="a_Node000000"><a xlink:title=" ">
<polygon fill="#e0e0e0" stroke="#999999" points="102,-37 0,-37 0,-18 102,-18 102,-37"/>
<text text-anchor="middle" x="51" y="-25" font-family="Helvetica,sans-Serif" font-size="10.00">llvm::ModulePass</text>
</a>
</g>
</g>
<!-- Node1 -->
<g id="Node000001" class="node">
<title>Node1</title>
<g id="a_Node000001"><a xlink:href="classpsr_1_1PhasarPass.html" target="_top" xlink:title="PhasarPass is an implementation of llvm passes for the PhASAR framework.">
<polygon fill="white" stroke="#666666" points="246.5,-56 154.5,-56 154.5,-37 246.5,-37 246.5,-56"/>
<text text-anchor="middle" x="200.5" y="-44" font-family="Helvetica,sans-Serif" font-size="10.00">psr::PhasarPass</text>
</a>
</g>
</g>
<!-- Node0&#45;&gt;Node1 -->
<g id="edge18_Node000000_Node000001" class="edge">
<title>Node0&#45;&gt;Node1</title>
<g id="a_edge18_Node000000_Node000001"><a xlink:title=" ">
<path fill="none" stroke="#63b8ff" d="M112.4,-35.28C126.42,-37.09 141.1,-38.98 154.32,-40.68"/>
<polygon fill="#63b8ff" stroke="#63b8ff" points="112.71,-31.79 102.35,-33.99 111.82,-38.73 112.71,-31.79"/>
</a>
</g>
</g>
<!-- Node2 -->
<g id="Node000002" class="node">
<title>Node2</title>
<g id="a_Node000002"><a xlink:href="classpsr_1_1PhasarPrinterPass.html" target="_top" xlink:title=" ">
<polygon fill="white" stroke="#666666" points="263,-19 138,-19 138,0 263,0 263,-19"/>
<text text-anchor="middle" x="200.5" y="-7" font-family="Helvetica,sans-Serif" font-size="10.00">psr::PhasarPrinterPass</text>
</a>
</g>
</g>
<!-- Node0&#45;&gt;Node2 -->
<g id="edge19_Node000000_Node000002" class="edge">
<title>Node0&#45;&gt;Node2</title>
<g id="a_edge19_Node000000_Node000002"><a xlink:title=" ">
<path fill="none" stroke="#63b8ff" d="M112.44,-20.12C120.84,-19.1 129.48,-18.05 137.89,-17.02"/>
<polygon fill="#63b8ff" stroke="#63b8ff" points="111.85,-16.67 102.35,-21.36 112.7,-23.62 111.85,-16.67"/>
</a>
</g>
</g>
</g>
</svg>
