<?xml version="1.0" encoding="UTF-8" standalone="no"?>
<!DOCTYPE svg PUBLIC "-//W3C//DTD SVG 1.1//EN"
 "http://www.w3.org/Graphics/SVG/1.1/DTD/svg11.dtd">
<!-- Generated by graphviz version 2.43.0 (0)
 -->
<!-- Title: Graphical Class Hierarchy Pages: 1 -->
<svg width="344pt" height="64pt"
 viewBox="0.00 0.00 344.00 64.00" xmlns="http://www.w3.org/2000/svg" xmlns:xlink="http://www.w3.org/1999/xlink">
<g id="graph0" class="graph" transform="scale(1 1) rotate(0) translate(4 60)">
<title>Graphical Class Hierarchy</title>
<!-- Node0 -->
<g id="Node000000" class="node">
<title>Node0</title>
<g id="a_Node000000"><a xlink:href="classpsr_1_1CachedLLVMAliasIterator.html" target="_top" xlink:title="A wrapper over a LLVMAliasIteratorRef that adds caching to make it conform to the LLVMAliasInfoRef in...">
<polygon fill="white" stroke="#666666" points="159.5,-56 0.5,-56 0.5,-37 159.5,-37 159.5,-56"/>
<text text-anchor="middle" x="80" y="-44" font-family="Helvetica,sans-Serif" font-size="10.00">psr::CachedLLVMAliasIterator</text>
</a>
</g>
</g>
<!-- Node1 -->
<g id="Node000001" class="node">
<title>Node1</title>
<g id="a_Node000001"><a xlink:href="classpsr_1_1FilteredLLVMAliasSet.html" target="_top" xlink:title=" ">
<polygon fill="white" stroke="#666666" points="336,-37 196,-37 196,-18 336,-18 336,-37"/>
<text text-anchor="middle" x="266" y="-25" font-family="Helvetica,sans-Serif" font-size="10.00">psr::FilteredLLVMAliasSet</text>
</a>
</g>
</g>
<!-- Node0&#45;&gt;Node1 -->
<g id="edge175_Node000000_Node000001" class="edge">
<title>Node0&#45;&gt;Node1</title>
<g id="a_edge175_Node000000_Node000001"><a xlink:title=" ">
<path fill="none" stroke="#63b8ff" d="M169.56,-37.36C178.43,-36.44 187.36,-35.52 195.99,-34.63"/>
<polygon fill="#63b8ff" stroke="#63b8ff" points="169.15,-33.88 159.57,-38.39 169.87,-40.84 169.15,-33.88"/>
</a>
</g>
</g>
<!-- Node2 -->
<g id="Node000002" class="node">
<title>Node2</title>
<g id="a_Node000002"><a xlink:href="classpsr_1_1FilteredLLVMAliasIterator.html" target="_top" xlink:title=" ">
<polygon fill="white" stroke="#666666" points="160,-19 0,-19 0,0 160,0 160,-19"/>
<text text-anchor="middle" x="80" y="-7" font-family="Helvetica,sans-Serif" font-size="10.00">psr::FilteredLLVMAliasIterator</text>
</a>
</g>
</g>
<!-- Node2&#45;&gt;Node1 -->
<g id="edge176_Node000002_Node000001" class="edge">
<title>Node2&#45;&gt;Node1</title>
<g id="a_edge176_Node000002_Node000001"><a xlink:title=" ">
<path fill="none" stroke="#8b1a1a" d="M170.18,-18.22C178.79,-19.07 187.44,-19.91 195.81,-20.73"/>
<polygon fill="#8b1a1a" stroke="#8b1a1a" points="170.39,-14.73 160.1,-17.24 169.71,-21.7 170.39,-14.73"/>
</a>
</g>
</g>
</g>
</svg>
