<?xml version="1.0" encoding="UTF-8" standalone="no"?>
<!DOCTYPE svg PUBLIC "-//W3C//DTD SVG 1.1//EN"
 "http://www.w3.org/Graphics/SVG/1.1/DTD/svg11.dtd">
<!-- Generated by graphviz version 2.43.0 (0)
 -->
<!-- Title: Graphical Class Hierarchy Pages: 1 -->
<svg width="1208pt" height="661pt"
 viewBox="0.00 0.00 1208.00 661.00" xmlns="http://www.w3.org/2000/svg" xmlns:xlink="http://www.w3.org/1999/xlink">
<g id="graph0" class="graph" transform="scale(1 1) rotate(0) translate(4 657)">
<title>Graphical Class Hierarchy</title>
<!-- Node0 -->
<g id="Node000000" class="node">
<title>Node0</title>
<g id="a_Node000000"><a xlink:href="classpsr_1_1CRTPBase.html" target="_top" xlink:title=" ">
<polygon fill="white" stroke="#666666" points="147,-333.5 0,-333.5 0,-314.5 147,-314.5 147,-333.5"/>
<text text-anchor="middle" x="73.5" y="-321.5" font-family="Helvetica,sans-Serif" font-size="10.00">psr::CRTPBase&lt; Derived &gt;</text>
</a>
</g>
</g>
<!-- Node1 -->
<g id="Node000001" class="node">
<title>Node1</title>
<g id="a_Node000001"><a xlink:href="classpsr_1_1CFGBase.html" target="_top" xlink:title=" ">
<polygon fill="white" stroke="#666666" points="380,-653 183,-653 183,-623 380,-623 380,-653"/>
<text text-anchor="start" x="191" y="-641" font-family="Helvetica,sans-Serif" font-size="10.00">psr::CFGBase&lt; LLVMBasedBackward</text>
<text text-anchor="middle" x="281.5" y="-630" font-family="Helvetica,sans-Serif" font-size="10.00">CFG &gt;</text>
</a>
</g>
</g>
<!-- Node0&#45;&gt;Node1 -->
<g id="edge169_Node000000_Node000001" class="edge">
<title>Node0&#45;&gt;Node1</title>
<g id="a_edge169_Node000000_Node000001"><a xlink:title=" ">
<path fill="none" stroke="#63b8ff" d="M75.78,-343.79C80.26,-396.28 99.92,-540.09 183,-614 186.78,-617.36 190.95,-620.27 195.38,-622.78"/>
<polygon fill="#63b8ff" stroke="#63b8ff" points="79.24,-343.22 75,-333.51 72.26,-343.75 79.24,-343.22"/>
</a>
</g>
</g>
<!-- Node2 -->
<g id="Node000002" class="node">
<title>Node2</title>
<g id="a_Node000002"><a xlink:href="classpsr_1_1CFGBase.html" target="_top" xlink:title=" ">
<polygon fill="white" stroke="#666666" points="371.5,-604.5 191.5,-604.5 191.5,-585.5 371.5,-585.5 371.5,-604.5"/>
<text text-anchor="middle" x="281.5" y="-592.5" font-family="Helvetica,sans-Serif" font-size="10.00">psr::CFGBase&lt; LLVMBasedCFG &gt;</text>
</a>
</g>
</g>
<!-- Node0&#45;&gt;Node2 -->
<g id="edge170_Node000000_Node000002" class="edge">
<title>Node0&#45;&gt;Node2</title>
<g id="a_edge170_Node000000_Node000002"><a xlink:title=" ">
<path fill="none" stroke="#63b8ff" d="M76.78,-343.65C83.44,-391.6 107.46,-515.12 183,-576 187.7,-579.79 192.94,-582.89 198.48,-585.44"/>
<polygon fill="#63b8ff" stroke="#63b8ff" points="80.24,-343.12 75.49,-333.65 73.3,-344.01 80.24,-343.12"/>
</a>
</g>
</g>
<!-- Node3 -->
<g id="Node000003" class="node">
<title>Node3</title>
<g id="a_Node000003"><a xlink:href="classpsr_1_1CFGBase.html" target="_top" xlink:title=" ">
<polygon fill="white" stroke="#666666" points="372.5,-567 190.5,-567 190.5,-537 372.5,-537 372.5,-567"/>
<text text-anchor="start" x="198.5" y="-555" font-family="Helvetica,sans-Serif" font-size="10.00">psr::CFGBase&lt; SparseLLVMBased</text>
<text text-anchor="middle" x="281.5" y="-544" font-family="Helvetica,sans-Serif" font-size="10.00">CFG &gt;</text>
</a>
</g>
</g>
<!-- Node0&#45;&gt;Node3 -->
<g id="edge171_Node000000_Node000003" class="edge">
<title>Node0&#45;&gt;Node3</title>
<g id="a_edge171_Node000000_Node000003"><a xlink:title=" ">
<path fill="none" stroke="#63b8ff" d="M79.21,-343.81C90.03,-384.87 120.67,-479.46 183,-528 187.4,-531.43 192.23,-534.37 197.3,-536.9"/>
<polygon fill="#63b8ff" stroke="#63b8ff" points="82.56,-342.79 76.72,-333.94 75.77,-344.5 82.56,-342.79"/>
</a>
</g>
</g>
<!-- Node4 -->
<g id="Node000004" class="node">
<title>Node4</title>
<g id="a_Node000004"><a xlink:href="classpsr_1_1CallGraphBase.html" target="_top" xlink:title=" ">
<polygon fill="white" stroke="#666666" points="346,-519 217,-519 217,-489 346,-489 346,-519"/>
<text text-anchor="start" x="225" y="-507" font-family="Helvetica,sans-Serif" font-size="10.00">psr::CallGraphBase</text>
<text text-anchor="middle" x="281.5" y="-496" font-family="Helvetica,sans-Serif" font-size="10.00">&lt; CallGraph&lt; N, F &gt; &gt;</text>
</a>
</g>
</g>
<!-- Node0&#45;&gt;Node4 -->
<g id="edge172_Node000000_Node000004" class="edge">
<title>Node0&#45;&gt;Node4</title>
<g id="a_edge172_Node000000_Node000004"><a xlink:title=" ">
<path fill="none" stroke="#63b8ff" d="M82.44,-343.42C97.12,-376.78 131.73,-444.76 183,-480 193.06,-486.91 204.9,-491.84 216.81,-495.35"/>
<polygon fill="#63b8ff" stroke="#63b8ff" points="85.52,-341.72 78.38,-333.89 79.08,-344.47 85.52,-341.72"/>
</a>
</g>
</g>
<!-- Node6 -->
<g id="Node000006" class="node">
<title>Node6</title>
<g id="a_Node000006"><a xlink:href="classpsr_1_1CallGraphBase.html" target="_top" xlink:title=" ">
<polygon fill="white" stroke="#666666" points="353,-471 210,-471 210,-441 353,-441 353,-471"/>
<text text-anchor="start" x="218" y="-459" font-family="Helvetica,sans-Serif" font-size="10.00">psr::CallGraphBase</text>
<text text-anchor="middle" x="281.5" y="-448" font-family="Helvetica,sans-Serif" font-size="10.00">&lt; CallGraph&lt; n_t, f_t &gt; &gt;</text>
</a>
</g>
</g>
<!-- Node0&#45;&gt;Node6 -->
<g id="edge174_Node000000_Node000006" class="edge">
<title>Node0&#45;&gt;Node6</title>
<g id="a_edge174_Node000000_Node000006"><a xlink:title=" ">
<path fill="none" stroke="#63b8ff" d="M87.3,-341.78C105.68,-365.97 141.91,-408.9 183,-432 191.28,-436.66 200.46,-440.42 209.77,-443.45"/>
<polygon fill="#63b8ff" stroke="#63b8ff" points="89.92,-339.44 81.15,-333.5 84.3,-343.62 89.92,-339.44"/>
</a>
</g>
</g>
<!-- Node7 -->
<g id="Node000007" class="node">
<title>Node7</title>
<g id="a_Node000007"><a xlink:href="classpsr_1_1CallGraphBase.html" target="_top" xlink:title=" ">
<polygon fill="white" stroke="#666666" points="350.5,-423 212.5,-423 212.5,-371 350.5,-371 350.5,-423"/>
<text text-anchor="start" x="220.5" y="-411" font-family="Helvetica,sans-Serif" font-size="10.00">psr::CallGraphBase</text>
<text text-anchor="start" x="220.5" y="-400" font-family="Helvetica,sans-Serif" font-size="10.00">&lt; CallGraph&lt; const llvm</text>
<text text-anchor="start" x="220.5" y="-389" font-family="Helvetica,sans-Serif" font-size="10.00">::Instruction *, const</text>
<text text-anchor="middle" x="281.5" y="-378" font-family="Helvetica,sans-Serif" font-size="10.00"> llvm::Function * &gt; &gt;</text>
</a>
</g>
</g>
<!-- Node0&#45;&gt;Node7 -->
<g id="edge175_Node000000_Node000007" class="edge">
<title>Node0&#45;&gt;Node7</title>
<g id="a_edge175_Node000000_Node000007"><a xlink:title=" ">
<path fill="none" stroke="#63b8ff" d="M111.21,-337.01C139.22,-346.93 178.61,-360.89 212.35,-372.85"/>
<polygon fill="#63b8ff" stroke="#63b8ff" points="112.03,-333.58 101.43,-333.54 109.69,-340.18 112.03,-333.58"/>
</a>
</g>
</g>
<!-- Node8 -->
<g id="Node000008" class="node">
<title>Node8</title>
<g id="a_Node000008"><a xlink:href="classpsr_1_1ICFGBase.html" target="_top" xlink:title=" ">
<polygon fill="white" stroke="#666666" points="789.5,-465 637.5,-465 637.5,-435 789.5,-435 789.5,-465"/>
<text text-anchor="start" x="645.5" y="-453" font-family="Helvetica,sans-Serif" font-size="10.00">psr::ICFGBase&lt; LLVMBased</text>
<text text-anchor="middle" x="713.5" y="-442" font-family="Helvetica,sans-Serif" font-size="10.00">BackwardICFG &gt;</text>
</a>
</g>
</g>
<!-- Node0&#45;&gt;Node8 -->
<g id="edge176_Node000000_Node000008" class="edge">
<title>Node0&#45;&gt;Node8</title>
<g id="a_edge176_Node000000_Node000008"><a xlink:title=" ">
<path fill="none" stroke="#63b8ff" d="M157.3,-325.78C235.22,-328.94 345.02,-337.72 380,-362 408.41,-381.73 387.01,-412.13 416,-431 481.5,-473.63 573.31,-472.45 637.36,-464.4"/>
<polygon fill="#63b8ff" stroke="#63b8ff" points="157.14,-322.27 147.01,-325.38 156.87,-329.26 157.14,-322.27"/>
</a>
</g>
</g>
<!-- Node21 -->
<g id="Node000021" class="node">
<title>Node21</title>
<g id="a_Node000021"><a xlink:href="classpsr_1_1ICFGBase.html" target="_top" xlink:title=" ">
<polygon fill="white" stroke="#666666" points="789.5,-293 637.5,-293 637.5,-263 789.5,-263 789.5,-293"/>
<text text-anchor="start" x="645.5" y="-281" font-family="Helvetica,sans-Serif" font-size="10.00">psr::ICFGBase&lt; LLVMBased</text>
<text text-anchor="middle" x="713.5" y="-270" font-family="Helvetica,sans-Serif" font-size="10.00">ICFG &gt;</text>
</a>
</g>
</g>
<!-- Node0&#45;&gt;Node21 -->
<g id="edge178_Node000000_Node000021" class="edge">
<title>Node0&#45;&gt;Node21</title>
<g id="a_edge178_Node000000_Node000021"><a xlink:title=" ">
<path fill="none" stroke="#63b8ff" d="M108.23,-310.87C129.43,-303.03 157.5,-293.38 183,-287 357.1,-243.44 406.66,-228.97 585,-249 609.48,-251.75 636.11,-257.38 658.67,-262.95"/>
<polygon fill="#63b8ff" stroke="#63b8ff" points="106.85,-307.65 98.71,-314.44 109.31,-314.2 106.85,-307.65"/>
</a>
</g>
</g>
<!-- Node20 -->
<g id="Node000020" class="node">
<title>Node20</title>
<g id="a_Node000020"><a xlink:href="classpsr_1_1ICFGBase.html" target="_top" xlink:title=" ">
<polygon fill="white" stroke="#666666" points="806,-197 621,-197 621,-167 806,-167 806,-197"/>
<text text-anchor="start" x="629" y="-185" font-family="Helvetica,sans-Serif" font-size="10.00">psr::ICFGBase&lt; SparseLLVMBased</text>
<text text-anchor="middle" x="713.5" y="-174" font-family="Helvetica,sans-Serif" font-size="10.00">ICFGView &gt;</text>
</a>
</g>
</g>
<!-- Node0&#45;&gt;Node20 -->
<g id="edge181_Node000000_Node000020" class="edge">
<title>Node0&#45;&gt;Node20</title>
<g id="a_edge181_Node000000_Node000020"><a xlink:title=" ">
<path fill="none" stroke="#63b8ff" d="M90.42,-306.94C110.08,-287.09 145.53,-255.14 183,-240 327.91,-181.46 512.25,-174.93 620.81,-177.26"/>
<polygon fill="#63b8ff" stroke="#63b8ff" points="87.67,-304.75 83.23,-314.37 92.7,-309.62 87.67,-304.75"/>
</a>
</g>
</g>
<!-- Node24 -->
<g id="Node000024" class="node">
<title>Node24</title>
<g id="a_Node000024"><a xlink:href="classpsr_1_1PointsToInfoBase.html" target="_top" xlink:title=" ">
<polygon fill="white" stroke="#666666" points="372,-164 191,-164 191,-134 372,-134 372,-164"/>
<text text-anchor="start" x="199" y="-152" font-family="Helvetica,sans-Serif" font-size="10.00">psr::PointsToInfoBase</text>
<text text-anchor="middle" x="281.5" y="-141" font-family="Helvetica,sans-Serif" font-size="10.00">&lt; PointsToInfoRef&lt; PTATraits &gt; &gt;</text>
</a>
</g>
</g>
<!-- Node0&#45;&gt;Node24 -->
<g id="edge183_Node000000_Node000024" class="edge">
<title>Node0&#45;&gt;Node24</title>
<g id="a_edge183_Node000000_Node000024"><a xlink:title=" ">
<path fill="none" stroke="#63b8ff" d="M83.38,-305.21C99.07,-274.07 134.64,-211.83 183,-178 191.1,-172.33 200.33,-167.76 209.79,-164.06"/>
<polygon fill="#63b8ff" stroke="#63b8ff" points="80.09,-303.98 78.84,-314.5 86.38,-307.06 80.09,-303.98"/>
</a>
</g>
</g>
<!-- Node12 -->
<g id="Node000012" class="node">
<title>Node12</title>
<g id="a_Node000012"><a xlink:href="classpsr_1_1CFGBase.html" target="_top" xlink:title=" ">
<polygon fill="white" stroke="#666666" points="353,-314.5 210,-314.5 210,-295.5 353,-295.5 353,-314.5"/>
<text text-anchor="middle" x="281.5" y="-302.5" font-family="Helvetica,sans-Serif" font-size="10.00">psr::CFGBase&lt; Derived &gt;</text>
</a>
</g>
</g>
<!-- Node0&#45;&gt;Node12 -->
<g id="edge186_Node000000_Node000012" class="edge">
<title>Node0&#45;&gt;Node12</title>
<g id="a_edge186_Node000000_Node000012"><a xlink:title=" ">
<path fill="none" stroke="#63b8ff" d="M157.29,-316.36C174.73,-314.76 192.97,-313.07 209.91,-311.51"/>
<polygon fill="#63b8ff" stroke="#63b8ff" points="156.76,-312.9 147.13,-317.3 157.41,-319.87 156.76,-312.9"/>
</a>
</g>
</g>
<!-- Node27 -->
<g id="Node000027" class="node">
<title>Node27</title>
<g id="a_Node000027"><a xlink:href="classpsr_1_1CallGraphBase.html" target="_top" xlink:title=" ">
<polygon fill="white" stroke="#666666" points="336.5,-116 226.5,-116 226.5,-86 336.5,-86 336.5,-116"/>
<text text-anchor="start" x="234.5" y="-104" font-family="Helvetica,sans-Serif" font-size="10.00">psr::CallGraphBase</text>
<text text-anchor="middle" x="281.5" y="-93" font-family="Helvetica,sans-Serif" font-size="10.00">&lt; Derived &gt;</text>
</a>
</g>
</g>
<!-- Node0&#45;&gt;Node27 -->
<g id="edge198_Node000000_Node000027" class="edge">
<title>Node0&#45;&gt;Node27</title>
<g id="a_edge198_Node000000_Node000027"><a xlink:title=" ">
<path fill="none" stroke="#63b8ff" d="M79.43,-304.41C90.6,-264.21 121.74,-172.2 183,-125 195.43,-115.42 211.17,-109.62 226.36,-106.11"/>
<polygon fill="#63b8ff" stroke="#63b8ff" points="75.99,-303.73 76.8,-314.3 82.75,-305.53 75.99,-303.73"/>
</a>
</g>
</g>
<!-- Node30 -->
<g id="Node000030" class="node">
<title>Node30</title>
<g id="a_Node000030"><a xlink:href="classpsr_1_1ICFGBase.html" target="_top" xlink:title=" ">
<polygon fill="white" stroke="#666666" points="354.5,-67.5 208.5,-67.5 208.5,-48.5 354.5,-48.5 354.5,-67.5"/>
<text text-anchor="middle" x="281.5" y="-55.5" font-family="Helvetica,sans-Serif" font-size="10.00">psr::ICFGBase&lt; Derived &gt;</text>
</a>
</g>
</g>
<!-- Node0&#45;&gt;Node30 -->
<g id="edge201_Node000000_Node000030" class="edge">
<title>Node0&#45;&gt;Node30</title>
<g id="a_edge201_Node000000_Node000030"><a xlink:title=" ">
<path fill="none" stroke="#63b8ff" d="M77,-304.11C84.09,-256.64 108.83,-136.33 183,-77 190.41,-71.08 199.13,-66.82 208.27,-63.79"/>
<polygon fill="#63b8ff" stroke="#63b8ff" points="73.5,-303.9 75.59,-314.28 80.43,-304.86 73.5,-303.9"/>
</a>
</g>
</g>
<!-- Node31 -->
<g id="Node000031" class="node">
<title>Node31</title>
<g id="a_Node000031"><a xlink:href="classpsr_1_1PointsToInfoBase.html" target="_top" xlink:title=" ">
<polygon fill="white" stroke="#666666" points="342,-30 221,-30 221,0 342,0 342,-30"/>
<text text-anchor="start" x="229" y="-18" font-family="Helvetica,sans-Serif" font-size="10.00">psr::PointsToInfoBase</text>
<text text-anchor="middle" x="281.5" y="-7" font-family="Helvetica,sans-Serif" font-size="10.00">&lt; Derived &gt;</text>
</a>
</g>
</g>
<!-- Node0&#45;&gt;Node31 -->
<g id="edge202_Node000000_Node000031" class="edge">
<title>Node0&#45;&gt;Node31</title>
<g id="a_edge202_Node000000_Node000031"><a xlink:title=" ">
<path fill="none" stroke="#63b8ff" d="M75.92,-304.2C80.76,-252.3 101.15,-111.4 183,-39 193.58,-29.64 207.22,-23.81 220.93,-20.2"/>
<polygon fill="#63b8ff" stroke="#63b8ff" points="72.42,-304.12 75.07,-314.37 79.39,-304.7 72.42,-304.12"/>
</a>
</g>
</g>
<!-- Node5 -->
<g id="Node000005" class="node">
<title>Node5</title>
<g id="a_Node000005"><a xlink:href="classpsr_1_1CallGraph.html" target="_top" xlink:title=" ">
<polygon fill="white" stroke="#666666" points="564.5,-513.5 436.5,-513.5 436.5,-494.5 564.5,-494.5 564.5,-513.5"/>
<text text-anchor="middle" x="500.5" y="-501.5" font-family="Helvetica,sans-Serif" font-size="10.00">psr::CallGraph&lt; N, F &gt;</text>
</a>
</g>
</g>
<!-- Node4&#45;&gt;Node5 -->
<g id="edge173_Node000004_Node000005" class="edge">
<title>Node4&#45;&gt;Node5</title>
<g id="a_edge173_Node000004_Node000005"><a xlink:title=" ">
<path fill="none" stroke="#63b8ff" d="M356.31,-504C382.28,-504 411.21,-504 436.24,-504"/>
<polygon fill="#63b8ff" stroke="#63b8ff" points="356.14,-500.5 346.14,-504 356.14,-507.5 356.14,-500.5"/>
</a>
</g>
</g>
<!-- Node9 -->
<g id="Node000009" class="node">
<title>Node9</title>
<g id="a_Node000009"><a xlink:href="classpsr_1_1LLVMBasedBackwardICFG.html" target="_top" xlink:title="A class that represents a backwards interprocedural control flow graph. Conforms to the ICFGBase CRTP...">
<polygon fill="white" stroke="#666666" points="1010.5,-437.5 846.5,-437.5 846.5,-418.5 1010.5,-418.5 1010.5,-437.5"/>
<text text-anchor="middle" x="928.5" y="-425.5" font-family="Helvetica,sans-Serif" font-size="10.00">psr::LLVMBasedBackwardICFG</text>
</a>
</g>
</g>
<!-- Node8&#45;&gt;Node9 -->
<g id="edge177_Node000008_Node000009" class="edge">
<title>Node8&#45;&gt;Node9</title>
<g id="a_edge177_Node000008_Node000009"><a xlink:title=" ">
<path fill="none" stroke="#63b8ff" d="M799.59,-441.21C814.96,-439.62 830.95,-437.97 846.21,-436.4"/>
<polygon fill="#63b8ff" stroke="#63b8ff" points="799.18,-437.73 789.6,-442.24 799.9,-444.7 799.18,-437.73"/>
</a>
</g>
</g>
<!-- Node16 -->
<g id="Node000016" class="node">
<title>Node16</title>
<g id="a_Node000016"><a xlink:href="classpsr_1_1LLVMBasedICFG.html" target="_top" xlink:title="A class that implements a inter&#45;procedural control flow graph. Conforms to the ICFGBase CRTP interfac...">
<polygon fill="white" stroke="#666666" points="986.5,-300.5 870.5,-300.5 870.5,-281.5 986.5,-281.5 986.5,-300.5"/>
<text text-anchor="middle" x="928.5" y="-288.5" font-family="Helvetica,sans-Serif" font-size="10.00">psr::LLVMBasedICFG</text>
</a>
</g>
</g>
<!-- Node21&#45;&gt;Node16 -->
<g id="edge179_Node000021_Node000016" class="edge">
<title>Node21&#45;&gt;Node16</title>
<g id="a_edge179_Node000021_Node000016"><a xlink:title=" ">
<path fill="none" stroke="#63b8ff" d="M799.69,-283.2C823.48,-284.65 848.75,-286.19 870.48,-287.52"/>
<polygon fill="#63b8ff" stroke="#63b8ff" points="799.79,-279.7 789.6,-282.58 799.36,-286.69 799.79,-279.7"/>
</a>
</g>
</g>
<!-- Node17 -->
<g id="Node000017" class="node">
<title>Node17</title>
<g id="a_Node000017"><a xlink:href="classpsr_1_1SparseLLVMBasedICFG.html" target="_top" xlink:title="A class that implements a sparse interprocedural control flow graph. Conforms to the ICFGBase CRTP in...">
<polygon fill="white" stroke="#666666" points="1200,-281.5 1051,-281.5 1051,-262.5 1200,-262.5 1200,-281.5"/>
<text text-anchor="middle" x="1125.5" y="-269.5" font-family="Helvetica,sans-Serif" font-size="10.00">psr::SparseLLVMBasedICFG</text>
</a>
</g>
</g>
<!-- Node16&#45;&gt;Node17 -->
<g id="edge180_Node000016_Node000017" class="edge">
<title>Node16&#45;&gt;Node17</title>
<g id="a_edge180_Node000016_Node000017"><a xlink:title=" ">
<path fill="none" stroke="#63b8ff" d="M996.79,-284.44C1014.27,-282.74 1033.19,-280.9 1050.97,-279.16"/>
<polygon fill="#63b8ff" stroke="#63b8ff" points="996.3,-280.97 986.69,-285.43 996.98,-287.94 996.3,-280.97"/>
</a>
</g>
</g>
<!-- Node19 -->
<g id="Node000019" class="node">
<title>Node19</title>
<g id="a_Node000019"><a xlink:href="classpsr_1_1SparseLLVMBasedICFGView.html" target="_top" xlink:title="Similar to SparseLLVMBasedICFG; the only difference is that this one is no LLVMBasedICFG – it contain...">
<polygon fill="white" stroke="#666666" points="1015,-224.5 842,-224.5 842,-205.5 1015,-205.5 1015,-224.5"/>
<text text-anchor="middle" x="928.5" y="-212.5" font-family="Helvetica,sans-Serif" font-size="10.00">psr::SparseLLVMBasedICFGView</text>
</a>
</g>
</g>
<!-- Node20&#45;&gt;Node19 -->
<g id="edge182_Node000020_Node000019" class="edge">
<title>Node20&#45;&gt;Node19</title>
<g id="a_edge182_Node000020_Node000019"><a xlink:title=" ">
<path fill="none" stroke="#63b8ff" d="M816.1,-197.74C833.2,-200.39 850.47,-203.07 866.14,-205.49"/>
<polygon fill="#63b8ff" stroke="#63b8ff" points="816.49,-194.26 806.07,-196.19 815.41,-201.18 816.49,-194.26"/>
</a>
</g>
</g>
<!-- Node25 -->
<g id="Node000025" class="node">
<title>Node25</title>
<g id="a_Node000025"><a xlink:href="classpsr_1_1PointsToInfoRef_3_01PTATraits_01_4.html" target="_top" xlink:title=" ">
<polygon fill="white" stroke="#666666" points="557,-164 444,-164 444,-134 557,-134 557,-164"/>
<text text-anchor="start" x="452" y="-152" font-family="Helvetica,sans-Serif" font-size="10.00">psr::PointsToInfoRef</text>
<text text-anchor="middle" x="500.5" y="-141" font-family="Helvetica,sans-Serif" font-size="10.00">&lt; PTATraits &gt;</text>
</a>
</g>
</g>
<!-- Node24&#45;&gt;Node25 -->
<g id="edge184_Node000024_Node000025" class="edge">
<title>Node24&#45;&gt;Node25</title>
<g id="a_edge184_Node000024_Node000025"><a xlink:title=" ">
<path fill="none" stroke="#63b8ff" d="M382.04,-149C403.23,-149 424.88,-149 443.72,-149"/>
<polygon fill="#63b8ff" stroke="#63b8ff" points="382.02,-145.5 372.02,-149 382.02,-152.5 382.02,-145.5"/>
</a>
</g>
</g>
<!-- Node26 -->
<g id="Node000026" class="node">
<title>Node26</title>
<g id="a_Node000026"><a xlink:href="classpsr_1_1PointsToInfo_3_01PTATraits_01_4.html" target="_top" xlink:title=" ">
<polygon fill="white" stroke="#666666" points="766,-149 661,-149 661,-119 766,-119 766,-149"/>
<text text-anchor="start" x="669" y="-137" font-family="Helvetica,sans-Serif" font-size="10.00">psr::PointsToInfo&lt;</text>
<text text-anchor="middle" x="713.5" y="-126" font-family="Helvetica,sans-Serif" font-size="10.00"> PTATraits &gt;</text>
</a>
</g>
</g>
<!-- Node25&#45;&gt;Node26 -->
<g id="edge185_Node000025_Node000026" class="edge">
<title>Node25&#45;&gt;Node26</title>
<g id="a_edge185_Node000025_Node000026"><a xlink:title=" ">
<path fill="none" stroke="#63b8ff" d="M567.23,-144.33C597.38,-142.18 632.61,-139.68 660.83,-137.67"/>
<polygon fill="#63b8ff" stroke="#63b8ff" points="566.94,-140.84 557.21,-145.04 567.44,-147.82 566.94,-140.84"/>
</a>
</g>
</g>
<!-- Node13 -->
<g id="Node000013" class="node">
<title>Node13</title>
<g id="a_Node000013"><a xlink:href="classpsr_1_1SparseCFGBase.html" target="_top" xlink:title=" ">
<polygon fill="white" stroke="#666666" points="787.5,-379 639.5,-379 639.5,-349 787.5,-349 787.5,-379"/>
<text text-anchor="start" x="647.5" y="-367" font-family="Helvetica,sans-Serif" font-size="10.00">psr::SparseCFGBase</text>
<text text-anchor="middle" x="713.5" y="-356" font-family="Helvetica,sans-Serif" font-size="10.00">&lt; SparseLLVMBasedCFG &gt;</text>
</a>
</g>
</g>
<!-- Node12&#45;&gt;Node13 -->
<g id="edge187_Node000012_Node000013" class="edge">
<title>Node12&#45;&gt;Node13</title>
<g id="a_edge187_Node000012_Node000013"><a xlink:title=" ">
<path fill="none" stroke="#63b8ff" d="M338.44,-316.97C352.17,-320.4 366.73,-324.46 380,-329 396.57,-334.67 399,-340.82 416,-345 490.51,-363.32 578.54,-366.77 639.21,-366.44"/>
<polygon fill="#63b8ff" stroke="#63b8ff" points="339.16,-313.54 328.62,-314.59 337.51,-320.35 339.16,-313.54"/>
</a>
</g>
</g>
<!-- Node11 -->
<g id="Node000011" class="node">
<title>Node11</title>
<g id="a_Node000011"><a xlink:title=" ">
<polygon fill="#e0e0e0" stroke="#999999" points="585,-422 416,-422 416,-392 585,-392 585,-422"/>
<text text-anchor="start" x="424" y="-410" font-family="Helvetica,sans-Serif" font-size="10.00">psr::detail::LLVMBasedCFGImpl</text>
<text text-anchor="middle" x="500.5" y="-399" font-family="Helvetica,sans-Serif" font-size="10.00">&lt; LLVMBasedBackwardCFG &gt;</text>
</a>
</g>
</g>
<!-- Node12&#45;&gt;Node11 -->
<g id="edge189_Node000012_Node000011" class="edge">
<title>Node12&#45;&gt;Node11</title>
<g id="a_edge189_Node000012_Node000011"><a xlink:title=" ">
<path fill="none" stroke="#63b8ff" d="M357.95,-317.85C365.73,-320.82 373.25,-324.49 380,-329 402.47,-344.02 394.26,-361.95 416,-378 423.53,-383.56 432.22,-388.11 441.07,-391.83"/>
<polygon fill="#63b8ff" stroke="#63b8ff" points="358.94,-314.49 348.35,-314.55 356.67,-321.11 358.94,-314.49"/>
</a>
</g>
</g>
<!-- Node22 -->
<g id="Node000022" class="node">
<title>Node22</title>
<g id="a_Node000022"><a xlink:title=" ">
<polygon fill="#e0e0e0" stroke="#999999" points="585,-336 416,-336 416,-306 585,-306 585,-336"/>
<text text-anchor="start" x="424" y="-324" font-family="Helvetica,sans-Serif" font-size="10.00">psr::detail::LLVMBasedCFGImpl</text>
<text text-anchor="middle" x="500.5" y="-313" font-family="Helvetica,sans-Serif" font-size="10.00">&lt; LLVMBasedCFG &gt;</text>
</a>
</g>
</g>
<!-- Node12&#45;&gt;Node22 -->
<g id="edge192_Node000012_Node000022" class="edge">
<title>Node12&#45;&gt;Node22</title>
<g id="a_edge192_Node000012_Node000022"><a xlink:title=" ">
<path fill="none" stroke="#63b8ff" d="M363.68,-310.99C380.64,-312.24 398.56,-313.56 415.62,-314.82"/>
<polygon fill="#63b8ff" stroke="#63b8ff" points="363.48,-307.46 353.25,-310.22 362.97,-314.44 363.48,-307.46"/>
</a>
</g>
</g>
<!-- Node23 -->
<g id="Node000023" class="node">
<title>Node23</title>
<g id="a_Node000023"><a xlink:href="classpsr_1_1SparseCFGBase.html" target="_top" xlink:title=" ">
<polygon fill="white" stroke="#666666" points="558,-288 443,-288 443,-258 558,-258 558,-288"/>
<text text-anchor="start" x="451" y="-276" font-family="Helvetica,sans-Serif" font-size="10.00">psr::SparseCFGBase</text>
<text text-anchor="middle" x="500.5" y="-265" font-family="Helvetica,sans-Serif" font-size="10.00">&lt; Derived &gt;</text>
</a>
</g>
</g>
<!-- Node12&#45;&gt;Node23 -->
<g id="edge197_Node000012_Node000023" class="edge">
<title>Node12&#45;&gt;Node23</title>
<g id="a_edge197_Node000012_Node000023"><a xlink:title=" ">
<path fill="none" stroke="#63b8ff" d="M357.21,-293.98C385.31,-289.84 416.78,-285.2 442.96,-281.34"/>
<polygon fill="#63b8ff" stroke="#63b8ff" points="356.4,-290.56 347.02,-295.49 357.42,-297.49 356.4,-290.56"/>
</a>
</g>
</g>
<!-- Node14 -->
<g id="Node000014" class="node">
<title>Node14</title>
<g id="a_Node000014"><a xlink:href="classpsr_1_1SparseLLVMBasedCFG.html" target="_top" xlink:title="A class that implements a sparse control flow graph. Conforms to the CFGBase CRTP interface.">
<polygon fill="white" stroke="#666666" points="1001.5,-351.5 855.5,-351.5 855.5,-332.5 1001.5,-332.5 1001.5,-351.5"/>
<text text-anchor="middle" x="928.5" y="-339.5" font-family="Helvetica,sans-Serif" font-size="10.00">psr::SparseLLVMBasedCFG</text>
</a>
</g>
</g>
<!-- Node13&#45;&gt;Node14 -->
<g id="edge188_Node000013_Node000014" class="edge">
<title>Node13&#45;&gt;Node14</title>
<g id="a_edge188_Node000013_Node000014"><a xlink:title=" ">
<path fill="none" stroke="#63b8ff" d="M797.65,-355.41C816.69,-353.44 836.78,-351.37 855.31,-349.46"/>
<polygon fill="#63b8ff" stroke="#63b8ff" points="797.09,-351.95 787.5,-356.46 797.81,-358.91 797.09,-351.95"/>
</a>
</g>
</g>
<!-- Node10 -->
<g id="Node000010" class="node">
<title>Node10</title>
<g id="a_Node000010"><a xlink:href="classpsr_1_1LLVMBasedBackwardCFG.html" target="_top" xlink:title="A class that represents a backwards control flow graph. Conforms to the CFGBase CRTP interface.">
<polygon fill="white" stroke="#666666" points="794,-416.5 633,-416.5 633,-397.5 794,-397.5 794,-416.5"/>
<text text-anchor="middle" x="713.5" y="-404.5" font-family="Helvetica,sans-Serif" font-size="10.00">psr::LLVMBasedBackwardCFG</text>
</a>
</g>
</g>
<!-- Node11&#45;&gt;Node10 -->
<g id="edge190_Node000011_Node000010" class="edge">
<title>Node11&#45;&gt;Node10</title>
<g id="a_edge190_Node000011_Node000010"><a xlink:title=" ">
<path fill="none" stroke="#63b8ff" d="M595.55,-407C607.94,-407 620.56,-407 632.69,-407"/>
<polygon fill="#63b8ff" stroke="#63b8ff" points="595.2,-403.5 585.2,-407 595.2,-410.5 595.2,-403.5"/>
</a>
</g>
</g>
<!-- Node10&#45;&gt;Node9 -->
<g id="edge191_Node000010_Node000009" class="edge">
<title>Node10&#45;&gt;Node9</title>
<g id="a_edge191_Node000010_Node000009"><a xlink:title=" ">
<path fill="none" stroke="#63b8ff" d="M804.18,-415.84C818.13,-417.22 832.46,-418.63 846.2,-419.98"/>
<polygon fill="#63b8ff" stroke="#63b8ff" points="804.41,-412.35 794.12,-414.85 803.72,-419.31 804.41,-412.35"/>
</a>
</g>
</g>
<!-- Node15 -->
<g id="Node000015" class="node">
<title>Node15</title>
<g id="a_Node000015"><a xlink:href="classpsr_1_1LLVMBasedCFG.html" target="_top" xlink:title=" ">
<polygon fill="white" stroke="#666666" points="770,-330.5 657,-330.5 657,-311.5 770,-311.5 770,-330.5"/>
<text text-anchor="middle" x="713.5" y="-318.5" font-family="Helvetica,sans-Serif" font-size="10.00">psr::LLVMBasedCFG</text>
</a>
</g>
</g>
<!-- Node22&#45;&gt;Node15 -->
<g id="edge193_Node000022_Node000015" class="edge">
<title>Node22&#45;&gt;Node15</title>
<g id="a_edge193_Node000022_Node000015"><a xlink:title=" ">
<path fill="none" stroke="#63b8ff" d="M595.42,-321C616.38,-321 637.95,-321 656.78,-321"/>
<polygon fill="#63b8ff" stroke="#63b8ff" points="595.2,-317.5 585.2,-321 595.2,-324.5 595.2,-317.5"/>
</a>
</g>
</g>
<!-- Node15&#45;&gt;Node16 -->
<g id="edge194_Node000015_Node000016" class="edge">
<title>Node15&#45;&gt;Node16</title>
<g id="a_edge194_Node000015_Node000016"><a xlink:title=" ">
<path fill="none" stroke="#63b8ff" d="M780.17,-311.75C808.98,-307.69 842.5,-302.97 870.29,-299.06"/>
<polygon fill="#63b8ff" stroke="#63b8ff" points="779.6,-308.3 770.19,-313.16 780.58,-315.23 779.6,-308.3"/>
</a>
</g>
</g>
<!-- Node15&#45;&gt;Node19 -->
<g id="edge196_Node000015_Node000019" class="edge">
<title>Node15&#45;&gt;Node19</title>
<g id="a_edge196_Node000015_Node000019"><a xlink:title=" ">
<path fill="none" stroke="#63b8ff" d="M779.83,-311.41C788.85,-308.95 797.81,-305.87 806,-302 824.58,-293.22 825.48,-285.22 842,-273 866.08,-255.18 895.13,-235.93 912.41,-224.7"/>
<polygon fill="#63b8ff" stroke="#63b8ff" points="778.92,-308.03 770.06,-313.84 780.61,-314.83 778.92,-308.03"/>
</a>
</g>
</g>
<!-- Node15&#45;&gt;Node14 -->
<g id="edge195_Node000015_Node000014" class="edge">
<title>Node15&#45;&gt;Node14</title>
<g id="a_edge195_Node000015_Node000014"><a xlink:title=" ">
<path fill="none" stroke="#63b8ff" d="M780.17,-327.47C803.96,-329.82 830.96,-332.48 855.28,-334.88"/>
<polygon fill="#63b8ff" stroke="#63b8ff" points="780.48,-323.99 770.19,-326.49 779.79,-330.95 780.48,-323.99"/>
</a>
</g>
</g>
<!-- Node28 -->
<g id="Node000028" class="node">
<title>Node28</title>
<g id="a_Node000028"><a xlink:href="classpsr_1_1CallGraph.html" target="_top" xlink:title=" ">
<polygon fill="white" stroke="#666666" points="558,-116 443,-116 443,-86 558,-86 558,-116"/>
<text text-anchor="start" x="451" y="-104" font-family="Helvetica,sans-Serif" font-size="10.00">psr::CallGraph&lt; n_t,</text>
<text text-anchor="middle" x="500.5" y="-93" font-family="Helvetica,sans-Serif" font-size="10.00"> f_t &gt;</text>
</a>
</g>
</g>
<!-- Node27&#45;&gt;Node28 -->
<g id="edge199_Node000027_Node000028" class="edge">
<title>Node27&#45;&gt;Node28</title>
<g id="a_edge199_Node000027_Node000028"><a xlink:title=" ">
<path fill="none" stroke="#63b8ff" d="M346.82,-101C377.35,-101 413.5,-101 442.97,-101"/>
<polygon fill="#63b8ff" stroke="#63b8ff" points="346.7,-97.5 336.7,-101 346.7,-104.5 346.7,-97.5"/>
</a>
</g>
</g>
<!-- Node29 -->
<g id="Node000029" class="node">
<title>Node29</title>
<g id="a_Node000029"><a xlink:href="classpsr_1_1CallGraph.html" target="_top" xlink:title=" ">
<polygon fill="white" stroke="#666666" points="569,-67.5 432,-67.5 432,-26.5 569,-26.5 569,-67.5"/>
<text text-anchor="start" x="440" y="-55.5" font-family="Helvetica,sans-Serif" font-size="10.00">psr::CallGraph&lt; const</text>
<text text-anchor="start" x="440" y="-44.5" font-family="Helvetica,sans-Serif" font-size="10.00"> llvm::Instruction *,</text>
<text text-anchor="middle" x="500.5" y="-33.5" font-family="Helvetica,sans-Serif" font-size="10.00"> const llvm::Function * &gt;</text>
</a>
</g>
</g>
<!-- Node27&#45;&gt;Node29 -->
<g id="edge200_Node000027_Node000029" class="edge">
<title>Node27&#45;&gt;Node29</title>
<g id="a_edge200_Node000027_Node000029"><a xlink:title=" ">
<path fill="none" stroke="#63b8ff" d="M346.71,-85.02C373.45,-78.37 404.51,-70.64 431.62,-63.89"/>
<polygon fill="#63b8ff" stroke="#63b8ff" points="345.56,-81.7 336.7,-87.51 347.25,-88.49 345.56,-81.7"/>
</a>
</g>
</g>
<!-- Node18 -->
<g id="Node000018" class="node">
<title>Node18</title>
<g id="a_Node000018"><a xlink:href="classpsr_1_1SparseCFGProvider.html" target="_top" xlink:title=" ">
<polygon fill="white" stroke="#666666" points="779,-245 648,-245 648,-215 779,-215 779,-245"/>
<text text-anchor="start" x="656" y="-233" font-family="Helvetica,sans-Serif" font-size="10.00">psr::SparseCFGProvider</text>
<text text-anchor="middle" x="713.5" y="-222" font-family="Helvetica,sans-Serif" font-size="10.00">&lt; Derived, F, V &gt;</text>
</a>
</g>
</g>
<!-- Node18&#45;&gt;Node17 -->
<g id="edge203_Node000018_Node000017" class="edge">
<title>Node18&#45;&gt;Node17</title>
<g id="a_edge203_Node000018_Node000017"><a xlink:title=" ">
<path fill="none" stroke="#63b8ff" d="M789.23,-237.65C863.49,-245.26 976.71,-256.86 1050.66,-264.44"/>
<polygon fill="#63b8ff" stroke="#63b8ff" points="789.32,-234.15 779.01,-236.61 788.6,-241.11 789.32,-234.15"/>
</a>
</g>
</g>
<!-- Node18&#45;&gt;Node19 -->
<g id="edge204_Node000018_Node000019" class="edge">
<title>Node18&#45;&gt;Node19</title>
<g id="a_edge204_Node000018_Node000019"><a xlink:title=" ">
<path fill="none" stroke="#63b8ff" d="M789.62,-224.71C806.5,-223.52 824.53,-222.25 841.81,-221.03"/>
<polygon fill="#63b8ff" stroke="#63b8ff" points="789,-221.24 779.27,-225.44 789.5,-228.23 789,-221.24"/>
</a>
</g>
</g>
</g>
</svg>
