<?xml version="1.0" encoding="UTF-8" standalone="no"?>
<!DOCTYPE svg PUBLIC "-//W3C//DTD SVG 1.1//EN"
 "http://www.w3.org/Graphics/SVG/1.1/DTD/svg11.dtd">
<!-- Generated by graphviz version 2.43.0 (0)
 -->
<!-- Title: Graphical Class Hierarchy Pages: 1 -->
<svg width="283pt" height="76pt"
 viewBox="0.00 0.00 283.00 75.50" xmlns="http://www.w3.org/2000/svg" xmlns:xlink="http://www.w3.org/1999/xlink">
<g id="graph0" class="graph" transform="scale(1 1) rotate(0) translate(4 71.5)">
<title>Graphical Class Hierarchy</title>
<!-- Node0 -->
<g id="Node000000" class="node">
<title>Node0</title>
<g id="a_Node000000"><a xlink:href="classpsr_1_1Ts.html" target="_top" xlink:title=" ">
<polygon fill="white" stroke="#666666" points="47,-40 0,-40 0,-21 47,-21 47,-40"/>
<text text-anchor="middle" x="23.5" y="-28" font-family="Helvetica,sans-Serif" font-size="10.00">psr::Ts</text>
</a>
</g>
</g>
<!-- Node1 -->
<g id="Node000001" class="node">
<title>Node1</title>
<g id="a_Node000001"><a xlink:href="classpsr_1_1MapKeyCompressorCombinator.html" target="_top" xlink:title=" ">
<polygon fill="white" stroke="#666666" points="275,-67.5 83,-67.5 83,-37.5 275,-37.5 275,-67.5"/>
<text text-anchor="start" x="91" y="-55.5" font-family="Helvetica,sans-Serif" font-size="10.00">psr::MapKeyCompressorCombinator</text>
<text text-anchor="middle" x="179" y="-44.5" font-family="Helvetica,sans-Serif" font-size="10.00">&lt; Ts &gt;</text>
</a>
</g>
</g>
<!-- Node0&#45;&gt;Node1 -->
<g id="edge327_Node000000_Node000001" class="edge">
<title>Node0&#45;&gt;Node1</title>
<g id="a_edge327_Node000000_Node000001"><a xlink:title=" ">
<path fill="none" stroke="#63b8ff" d="M57.21,-35.19C65.05,-36.31 73.81,-37.57 82.94,-38.88"/>
<polygon fill="#63b8ff" stroke="#63b8ff" points="57.54,-31.7 47.15,-33.75 56.55,-38.63 57.54,-31.7"/>
</a>
</g>
</g>
<!-- Node2 -->
<g id="Node000002" class="node">
<title>Node2</title>
<g id="a_Node000002"><a xlink:href="structpsr_1_1Overloaded.html" target="_top" xlink:title=" ">
<polygon fill="white" stroke="#666666" points="242,-19 116,-19 116,0 242,0 242,-19"/>
<text text-anchor="middle" x="179" y="-7" font-family="Helvetica,sans-Serif" font-size="10.00">psr::Overloaded&lt; Ts &gt;</text>
</a>
</g>
</g>
<!-- Node0&#45;&gt;Node2 -->
<g id="edge328_Node000000_Node000002" class="edge">
<title>Node0&#45;&gt;Node2</title>
<g id="a_edge328_Node000000_Node000002"><a xlink:title=" ">
<path fill="none" stroke="#63b8ff" d="M57.15,-26.03C74.21,-23.7 95.68,-20.76 115.76,-18.01"/>
<polygon fill="#63b8ff" stroke="#63b8ff" points="56.58,-22.58 47.15,-27.4 57.53,-29.51 56.58,-22.58"/>
</a>
</g>
</g>
</g>
</svg>
