<?xml version="1.0" encoding="UTF-8" standalone="no"?>
<!DOCTYPE svg PUBLIC "-//W3C//DTD SVG 1.1//EN"
 "http://www.w3.org/Graphics/SVG/1.1/DTD/svg11.dtd">
<!-- Generated by graphviz version 2.43.0 (0)
 -->
<!-- Title: Graphical Class Hierarchy Pages: 1 -->
<svg width="353pt" height="134pt"
 viewBox="0.00 0.00 353.00 134.00" xmlns="http://www.w3.org/2000/svg" xmlns:xlink="http://www.w3.org/1999/xlink">
<g id="graph0" class="graph" transform="scale(1 1) rotate(0) translate(4 130)">
<title>Graphical Class Hierarchy</title>
<!-- Node0 -->
<g id="Node000000" class="node">
<title>Node0</title>
<g id="a_Node000000"><a xlink:href="structpsr_1_1DefaultAATraits.html" target="_top" xlink:title=" ">
<polygon fill="white" stroke="#666666" points="148,-83.5 0,-83.5 0,-42.5 148,-42.5 148,-83.5"/>
<text text-anchor="start" x="8" y="-71.5" font-family="Helvetica,sans-Serif" font-size="10.00">psr::DefaultAATraits</text>
<text text-anchor="start" x="8" y="-60.5" font-family="Helvetica,sans-Serif" font-size="10.00">&lt; const llvm::Value *,</text>
<text text-anchor="middle" x="74" y="-49.5" font-family="Helvetica,sans-Serif" font-size="10.00"> const llvm::Instruction * &gt;</text>
</a>
</g>
</g>
<!-- Node1 -->
<g id="Node000001" class="node">
<title>Node1</title>
<g id="a_Node000001"><a xlink:href="structpsr_1_1AliasInfoTraits_3_01CachedLLVMAliasIterator_01_4.html" target="_top" xlink:title=" ">
<polygon fill="white" stroke="#666666" points="345,-126 184,-126 184,-96 345,-96 345,-126"/>
<text text-anchor="start" x="192" y="-114" font-family="Helvetica,sans-Serif" font-size="10.00">psr::AliasInfoTraits</text>
<text text-anchor="middle" x="264.5" y="-103" font-family="Helvetica,sans-Serif" font-size="10.00">&lt; CachedLLVMAliasIterator &gt;</text>
</a>
</g>
</g>
<!-- Node0&#45;&gt;Node1 -->
<g id="edge215_Node000000_Node000001" class="edge">
<title>Node0&#45;&gt;Node1</title>
<g id="a_edge215_Node000000_Node000001"><a xlink:title=" ">
<path fill="none" stroke="#63b8ff" d="M157.84,-84.09C173.52,-88.09 189.63,-92.19 204.39,-95.95"/>
<polygon fill="#63b8ff" stroke="#63b8ff" points="158.7,-80.7 148.15,-81.63 156.98,-87.49 158.7,-80.7"/>
</a>
</g>
</g>
<!-- Node2 -->
<g id="Node000002" class="node">
<title>Node2</title>
<g id="a_Node000002"><a xlink:href="structpsr_1_1AliasInfoTraits_3_01FilteredLLVMAliasSet_01_4.html" target="_top" xlink:title=" ">
<polygon fill="white" stroke="#666666" points="335,-78 194,-78 194,-48 335,-48 335,-78"/>
<text text-anchor="start" x="202" y="-66" font-family="Helvetica,sans-Serif" font-size="10.00">psr::AliasInfoTraits</text>
<text text-anchor="middle" x="264.5" y="-55" font-family="Helvetica,sans-Serif" font-size="10.00">&lt; FilteredLLVMAliasSet &gt;</text>
</a>
</g>
</g>
<!-- Node0&#45;&gt;Node2 -->
<g id="edge216_Node000000_Node000002" class="edge">
<title>Node0&#45;&gt;Node2</title>
<g id="a_edge216_Node000000_Node000002"><a xlink:title=" ">
<path fill="none" stroke="#63b8ff" d="M158.44,-63C170.25,-63 182.28,-63 193.79,-63"/>
<polygon fill="#63b8ff" stroke="#63b8ff" points="158.15,-59.5 148.15,-63 158.15,-66.5 158.15,-59.5"/>
</a>
</g>
</g>
<!-- Node3 -->
<g id="Node000003" class="node">
<title>Node3</title>
<g id="a_Node000003"><a xlink:href="structpsr_1_1AliasInfoTraits_3_01LLVMAliasSet_01_4.html" target="_top" xlink:title=" ">
<polygon fill="white" stroke="#666666" points="318,-30 211,-30 211,0 318,0 318,-30"/>
<text text-anchor="start" x="219" y="-18" font-family="Helvetica,sans-Serif" font-size="10.00">psr::AliasInfoTraits</text>
<text text-anchor="middle" x="264.5" y="-7" font-family="Helvetica,sans-Serif" font-size="10.00">&lt; LLVMAliasSet &gt;</text>
</a>
</g>
</g>
<!-- Node0&#45;&gt;Node3 -->
<g id="edge217_Node000000_Node000003" class="edge">
<title>Node0&#45;&gt;Node3</title>
<g id="a_edge217_Node000000_Node000003"><a xlink:title=" ">
<path fill="none" stroke="#63b8ff" d="M158.04,-41.86C175.97,-37.29 194.45,-32.58 210.84,-28.41"/>
<polygon fill="#63b8ff" stroke="#63b8ff" points="156.98,-38.51 148.15,-44.37 158.7,-45.3 156.98,-38.51"/>
</a>
</g>
</g>
</g>
</svg>
