<?xml version="1.0" encoding="UTF-8" standalone="no"?>
<!DOCTYPE svg PUBLIC "-//W3C//DTD SVG 1.1//EN"
 "http://www.w3.org/Graphics/SVG/1.1/DTD/svg11.dtd">
<!-- Generated by graphviz version 2.43.0 (0)
 -->
<!-- Title: Graphical Class Hierarchy Pages: 1 -->
<svg width="301pt" height="559pt"
 viewBox="0.00 0.00 301.00 559.00" xmlns="http://www.w3.org/2000/svg" xmlns:xlink="http://www.w3.org/1999/xlink">
<g id="graph0" class="graph" transform="scale(1 1) rotate(0) translate(4 555)">
<title>Graphical Class Hierarchy</title>
<!-- Node0 -->
<g id="Node000000" class="node">
<title>Node0</title>
<g id="a_Node000000"><a xlink:title=" ">
<polygon fill="#e0e0e0" stroke="#999999" points="84,-301.5 0,-301.5 0,-282.5 84,-282.5 84,-301.5"/>
<text text-anchor="middle" x="42" y="-289.5" font-family="Helvetica,sans-Serif" font-size="10.00">std::true_type</text>
</a>
</g>
</g>
<!-- Node1 -->
<g id="Node000001" class="node">
<title>Node1</title>
<g id="a_Node000001"><a xlink:href="structpsr_1_1has__getAsJson_3_01T_00_01std_1_1void__t_3_01decltype_07std_1_1declval_3_01const_01b23f1f37ea085aba06c053637750e368.html" target="_top" xlink:title=" ">
<polygon fill="white" stroke="#666666" points="278.5,-551 134.5,-551 134.5,-499 278.5,-499 278.5,-551"/>
<text text-anchor="start" x="142.5" y="-539" font-family="Helvetica,sans-Serif" font-size="10.00">psr::has_getAsJson</text>
<text text-anchor="start" x="142.5" y="-528" font-family="Helvetica,sans-Serif" font-size="10.00">&lt; T, std::void_t&lt; decltype</text>
<text text-anchor="start" x="142.5" y="-517" font-family="Helvetica,sans-Serif" font-size="10.00">(std::declval&lt; const T &gt;</text>
<text text-anchor="middle" x="206.5" y="-506" font-family="Helvetica,sans-Serif" font-size="10.00">().getAsJson())&gt; &gt;</text>
</a>
</g>
</g>
<!-- Node0&#45;&gt;Node1 -->
<g id="edge357_Node000000_Node000001" class="edge">
<title>Node0&#45;&gt;Node1</title>
<g id="a_edge357_Node000000_Node000001"><a xlink:title=" ">
<path fill="none" stroke="#63b8ff" d="M45.47,-311.77C51.34,-350.87 69.65,-438.76 120,-490 124.27,-494.35 129.16,-498.18 134.39,-501.54"/>
<polygon fill="#63b8ff" stroke="#63b8ff" points="48.91,-311.12 44.07,-301.69 41.98,-312.08 48.91,-311.12"/>
</a>
</g>
</g>
<!-- Node2 -->
<g id="Node000002" class="node">
<title>Node2</title>
<g id="a_Node000002"><a xlink:href="structpsr_1_1has__getHashCode_3_01T_00_01decltype_07std_1_1declval_3_01const_01T_01_4_07_08_8getHashCode_07_08_08_4.html" target="_top" xlink:title=" ">
<polygon fill="white" stroke="#666666" points="291.5,-480.5 121.5,-480.5 121.5,-439.5 291.5,-439.5 291.5,-480.5"/>
<text text-anchor="start" x="129.5" y="-468.5" font-family="Helvetica,sans-Serif" font-size="10.00">psr::has_getHashCode</text>
<text text-anchor="start" x="129.5" y="-457.5" font-family="Helvetica,sans-Serif" font-size="10.00">&lt; T, decltype(std::declval</text>
<text text-anchor="middle" x="206.5" y="-446.5" font-family="Helvetica,sans-Serif" font-size="10.00">&lt; const T &gt;().getHashCode())&gt;</text>
</a>
</g>
</g>
<!-- Node0&#45;&gt;Node2 -->
<g id="edge358_Node000000_Node000002" class="edge">
<title>Node0&#45;&gt;Node2</title>
<g id="a_edge358_Node000000_Node000002"><a xlink:title=" ">
<path fill="none" stroke="#63b8ff" d="M48.69,-311.34C58.44,-341.22 81.16,-398.55 120,-431 123.73,-434.12 127.81,-436.9 132.1,-439.39"/>
<polygon fill="#63b8ff" stroke="#63b8ff" points="51.99,-310.17 45.67,-301.67 45.31,-312.25 51.99,-310.17"/>
</a>
</g>
</g>
<!-- Node3 -->
<g id="Node000003" class="node">
<title>Node3</title>
<g id="a_Node000003"><a xlink:href="structpsr_1_1has__getSparseCFG_3_01T_00_01D_00_01std_1_1void__t_3_01decltype_07std_1_1declval_3_3d6aece4725c2ee7959dba385e5a1b3c.html" target="_top" xlink:title=" ">
<polygon fill="white" stroke="#666666" points="283.5,-421.5 129.5,-421.5 129.5,-336.5 283.5,-336.5 283.5,-421.5"/>
<text text-anchor="start" x="137.5" y="-409.5" font-family="Helvetica,sans-Serif" font-size="10.00">psr::has_getSparseCFG</text>
<text text-anchor="start" x="137.5" y="-398.5" font-family="Helvetica,sans-Serif" font-size="10.00">&lt; T, D, std::void_t&lt;</text>
<text text-anchor="start" x="137.5" y="-387.5" font-family="Helvetica,sans-Serif" font-size="10.00"> decltype(std::declval</text>
<text text-anchor="start" x="137.5" y="-376.5" font-family="Helvetica,sans-Serif" font-size="10.00">&lt; const T &gt;().getSparseCFG</text>
<text text-anchor="start" x="137.5" y="-365.5" font-family="Helvetica,sans-Serif" font-size="10.00">(std::declval&lt; typename T</text>
<text text-anchor="start" x="137.5" y="-354.5" font-family="Helvetica,sans-Serif" font-size="10.00">::f_t &gt;(), std::declval&lt; D</text>
<text text-anchor="middle" x="206.5" y="-343.5" font-family="Helvetica,sans-Serif" font-size="10.00"> &gt;()))&gt; &gt;</text>
</a>
</g>
</g>
<!-- Node0&#45;&gt;Node3 -->
<g id="edge359_Node000000_Node000003" class="edge">
<title>Node0&#45;&gt;Node3</title>
<g id="a_edge359_Node000000_Node000003"><a xlink:title=" ">
<path fill="none" stroke="#63b8ff" d="M69.98,-306.45C86.36,-315.21 108.16,-326.88 129.47,-338.3"/>
<polygon fill="#63b8ff" stroke="#63b8ff" points="71.48,-303.28 61.01,-301.64 68.18,-309.45 71.48,-303.28"/>
</a>
</g>
</g>
<!-- Node4 -->
<g id="Node000004" class="node">
<title>Node4</title>
<g id="a_Node000004"><a xlink:href="structpsr_1_1has__std__hash_3_01T_00_01decltype_07std_1_1hash_3_01T_01_4_02_03_07std_1_1declval_3_01const_01T_01_4_08_08_4.html" target="_top" xlink:title=" ">
<polygon fill="white" stroke="#666666" points="269,-318 144,-318 144,-266 269,-266 269,-318"/>
<text text-anchor="start" x="152" y="-306" font-family="Helvetica,sans-Serif" font-size="10.00">psr::has_std_hash&lt;</text>
<text text-anchor="start" x="152" y="-295" font-family="Helvetica,sans-Serif" font-size="10.00"> T, decltype(std::hash</text>
<text text-anchor="start" x="152" y="-284" font-family="Helvetica,sans-Serif" font-size="10.00">&lt; T &gt;{}(std::declval&lt;</text>
<text text-anchor="middle" x="206.5" y="-273" font-family="Helvetica,sans-Serif" font-size="10.00"> const T &gt;))&gt;</text>
</a>
</g>
</g>
<!-- Node0&#45;&gt;Node4 -->
<g id="edge360_Node000000_Node000004" class="edge">
<title>Node0&#45;&gt;Node4</title>
<g id="a_edge360_Node000000_Node000004"><a xlink:title=" ">
<path fill="none" stroke="#63b8ff" d="M94.1,-292C109.91,-292 127.48,-292 143.91,-292"/>
<polygon fill="#63b8ff" stroke="#63b8ff" points="94.01,-288.5 84.01,-292 94.01,-295.5 94.01,-288.5"/>
</a>
</g>
</g>
<!-- Node5 -->
<g id="Node000005" class="node">
<title>Node5</title>
<g id="a_Node000005"><a xlink:href="structpsr_1_1is__PointsToTraits_3_01T_00_01std_1_1void__t_3_01typename_01T_1_1v__t_00_01typenamefa80385505af6f7e573238f9488efefa.html" target="_top" xlink:title=" ">
<polygon fill="white" stroke="#666666" points="283.5,-248 129.5,-248 129.5,-174 283.5,-174 283.5,-248"/>
<text text-anchor="start" x="137.5" y="-236" font-family="Helvetica,sans-Serif" font-size="10.00">psr::is_PointsToTraits</text>
<text text-anchor="start" x="137.5" y="-225" font-family="Helvetica,sans-Serif" font-size="10.00">&lt; T, std::void_t&lt; typename</text>
<text text-anchor="start" x="137.5" y="-214" font-family="Helvetica,sans-Serif" font-size="10.00"> T::v_t, typename T::n_t,</text>
<text text-anchor="start" x="137.5" y="-203" font-family="Helvetica,sans-Serif" font-size="10.00"> typename T::o_t, typename</text>
<text text-anchor="start" x="137.5" y="-192" font-family="Helvetica,sans-Serif" font-size="10.00"> T::PointsToSetTy, typename</text>
<text text-anchor="middle" x="206.5" y="-181" font-family="Helvetica,sans-Serif" font-size="10.00"> T::PointsToSetPtrTy &gt; &gt;</text>
</a>
</g>
</g>
<!-- Node0&#45;&gt;Node5 -->
<g id="edge361_Node000000_Node000005" class="edge">
<title>Node0&#45;&gt;Node5</title>
<g id="a_edge361_Node000000_Node000005"><a xlink:title=" ">
<path fill="none" stroke="#63b8ff" d="M71.41,-277.84C88.01,-269.56 109.81,-258.7 130.99,-248.14"/>
<polygon fill="#63b8ff" stroke="#63b8ff" points="69.67,-274.8 62.28,-282.39 72.79,-281.06 69.67,-274.8"/>
</a>
</g>
</g>
<!-- Node6 -->
<g id="Node000006" class="node">
<title>Node6</title>
<g id="a_Node000006"><a xlink:href="structpsr_1_1is__pathtracingfilter__for_3_01PathTracingFilter_3_01EndFilter_00_01ErrFilter_01_4_1b0040c37f57ef1a1d1d3276edbb2d0b.html" target="_top" xlink:title=" ">
<polygon fill="white" stroke="#666666" points="293,-155.5 120,-155.5 120,-48.5 293,-48.5 293,-155.5"/>
<text text-anchor="start" x="128" y="-143.5" font-family="Helvetica,sans-Serif" font-size="10.00">psr::is_pathtracingfilter</text>
<text text-anchor="start" x="128" y="-132.5" font-family="Helvetica,sans-Serif" font-size="10.00">_for&lt; PathTracingFilter</text>
<text text-anchor="start" x="128" y="-121.5" font-family="Helvetica,sans-Serif" font-size="10.00">&lt; EndFilter, ErrFilter &gt;</text>
<text text-anchor="start" x="128" y="-110.5" font-family="Helvetica,sans-Serif" font-size="10.00">, NodeRef, std::enable_if</text>
<text text-anchor="start" x="128" y="-99.5" font-family="Helvetica,sans-Serif" font-size="10.00">_t&lt; std::is_invocable_r_v</text>
<text text-anchor="start" x="128" y="-88.5" font-family="Helvetica,sans-Serif" font-size="10.00">&lt; bool, EndFilter, NodeRef,</text>
<text text-anchor="start" x="128" y="-77.5" font-family="Helvetica,sans-Serif" font-size="10.00"> NodeRef &gt; &amp;&amp;std::is_invocable</text>
<text text-anchor="start" x="128" y="-66.5" font-family="Helvetica,sans-Serif" font-size="10.00">_r_v&lt; bool, ErrFilter, NodeRef,</text>
<text text-anchor="middle" x="206.5" y="-55.5" font-family="Helvetica,sans-Serif" font-size="10.00"> NodeRef &gt; &gt; &gt;</text>
</a>
</g>
</g>
<!-- Node0&#45;&gt;Node6 -->
<g id="edge362_Node000000_Node000006" class="edge">
<title>Node0&#45;&gt;Node6</title>
<g id="a_edge362_Node000000_Node000006"><a xlink:title=" ">
<path fill="none" stroke="#63b8ff" d="M51.58,-273C64.06,-246.75 89.14,-198.78 120,-165 122.86,-161.87 125.9,-158.79 129.06,-155.79"/>
<polygon fill="#63b8ff" stroke="#63b8ff" points="48.34,-271.69 47.29,-282.23 54.68,-274.64 48.34,-271.69"/>
</a>
</g>
</g>
<!-- Node7 -->
<g id="Node000007" class="node">
<title>Node7</title>
<g id="a_Node000007"><a xlink:href="structpsr_1_1is__variant_3_01std_1_1variant_3_01Args_8_8_8_01_4_01_4.html" target="_top" xlink:title=" ">
<polygon fill="white" stroke="#666666" points="267.5,-30 145.5,-30 145.5,0 267.5,0 267.5,-30"/>
<text text-anchor="start" x="153.5" y="-18" font-family="Helvetica,sans-Serif" font-size="10.00">psr::is_variant&lt; std</text>
<text text-anchor="middle" x="206.5" y="-7" font-family="Helvetica,sans-Serif" font-size="10.00">::variant&lt; Args... &gt; &gt;</text>
</a>
</g>
</g>
<!-- Node0&#45;&gt;Node7 -->
<g id="edge363_Node000000_Node000007" class="edge">
<title>Node0&#45;&gt;Node7</title>
<g id="a_edge363_Node000000_Node000007"><a xlink:title=" ">
<path fill="none" stroke="#63b8ff" d="M43.04,-272.31C44.25,-225.22 54.01,-105.2 120,-40 127.04,-33.04 135.91,-28 145.24,-24.35"/>
<polygon fill="#63b8ff" stroke="#63b8ff" points="39.54,-272.35 42.89,-282.4 46.54,-272.45 39.54,-272.35"/>
</a>
</g>
</g>
</g>
</svg>
