<?xml version="1.0" encoding="UTF-8" standalone="no"?>
<!DOCTYPE svg PUBLIC "-//W3C//DTD SVG 1.1//EN"
 "http://www.w3.org/Graphics/SVG/1.1/DTD/svg11.dtd">
<!-- Generated by graphviz version 2.43.0 (0)
 -->
<!-- Title: Graphical Class Hierarchy Pages: 1 -->
<svg width="302pt" height="76pt"
 viewBox="0.00 0.00 302.00 75.50" xmlns="http://www.w3.org/2000/svg" xmlns:xlink="http://www.w3.org/1999/xlink">
<g id="graph0" class="graph" transform="scale(1 1) rotate(0) translate(4 71.5)">
<title>Graphical Class Hierarchy</title>
<!-- Node0 -->
<g id="Node000000" class="node">
<title>Node0</title>
<g id="a_Node000000"><a xlink:href="classpsr_1_1AliasInfoBaseUtils.html" target="_top" xlink:title=" ">
<polygon fill="white" stroke="#666666" points="141,-67.5 14,-67.5 14,-48.5 141,-48.5 141,-67.5"/>
<text text-anchor="middle" x="77.5" y="-55.5" font-family="Helvetica,sans-Serif" font-size="10.00">psr::AliasInfoBaseUtils</text>
</a>
</g>
</g>
<!-- Node1 -->
<g id="Node000001" class="node">
<title>Node1</title>
<g id="a_Node000001"><a xlink:href="classpsr_1_1LLVMAliasSet.html" target="_top" xlink:title=" ">
<polygon fill="white" stroke="#666666" points="294,-45.5 191,-45.5 191,-26.5 294,-26.5 294,-45.5"/>
<text text-anchor="middle" x="242.5" y="-33.5" font-family="Helvetica,sans-Serif" font-size="10.00">psr::LLVMAliasSet</text>
</a>
</g>
</g>
<!-- Node0&#45;&gt;Node1 -->
<g id="edge23_Node000000_Node000001" class="edge">
<title>Node0&#45;&gt;Node1</title>
<g id="a_edge23_Node000000_Node000001"><a xlink:title=" ">
<path fill="none" stroke="#63b8ff" d="M151.23,-48.18C164.66,-46.37 178.4,-44.52 190.99,-42.82"/>
<polygon fill="#63b8ff" stroke="#63b8ff" points="150.5,-44.75 141.05,-49.56 151.43,-51.69 150.5,-44.75"/>
</a>
</g>
</g>
<!-- Node2 -->
<g id="Node000002" class="node">
<title>Node2</title>
<g id="a_Node000002"><a xlink:href="classpsr_1_1AnalysisPropertiesMixin.html" target="_top" xlink:title=" ">
<polygon fill="white" stroke="#666666" points="155,-30 0,-30 0,0 155,0 155,-30"/>
<text text-anchor="start" x="8" y="-18" font-family="Helvetica,sans-Serif" font-size="10.00">psr::AnalysisPropertiesMixin</text>
<text text-anchor="middle" x="77.5" y="-7" font-family="Helvetica,sans-Serif" font-size="10.00">&lt; LLVMAliasSet &gt;</text>
</a>
</g>
</g>
<!-- Node2&#45;&gt;Node1 -->
<g id="edge24_Node000002_Node000001" class="edge">
<title>Node2&#45;&gt;Node1</title>
<g id="a_edge24_Node000002_Node000001"><a xlink:title=" ">
<path fill="none" stroke="#63b8ff" d="M165.41,-26.2C174.07,-27.31 182.65,-28.42 190.75,-29.46"/>
<polygon fill="#63b8ff" stroke="#63b8ff" points="165.59,-22.69 155.23,-24.89 164.7,-29.63 165.59,-22.69"/>
</a>
</g>
</g>
</g>
</svg>
