<?xml version="1.0" encoding="UTF-8" standalone="no"?>
<!DOCTYPE svg PUBLIC "-//W3C//DTD SVG 1.1//EN"
 "http://www.w3.org/Graphics/SVG/1.1/DTD/svg11.dtd">
<!-- Generated by graphviz version 2.43.0 (0)
 -->
<!-- Title: Graphical Class Hierarchy Pages: 1 -->
<svg width="484pt" height="265pt"
 viewBox="0.00 0.00 484.00 265.00" xmlns="http://www.w3.org/2000/svg" xmlns:xlink="http://www.w3.org/1999/xlink">
<g id="graph0" class="graph" transform="scale(1 1) rotate(0) translate(4 261)">
<title>Graphical Class Hierarchy</title>
<!-- Node0 -->
<g id="Node000000" class="node">
<title>Node0</title>
<g id="a_Node000000"><a xlink:href="classBase.html" target="_top" xlink:title=" ">
<polygon fill="white" stroke="#666666" points="41,-120.5 0,-120.5 0,-101.5 41,-101.5 41,-120.5"/>
<text text-anchor="middle" x="20.5" y="-108.5" font-family="Helvetica,sans-Serif" font-size="10.00">Base</text>
</a>
</g>
</g>
<!-- Node1 -->
<g id="Node000001" class="node">
<title>Node1</title>
<g id="a_Node000001"><a xlink:href="structpsr_1_1WithComputeValues.html" target="_top" xlink:title=" ">
<polygon fill="white" stroke="#666666" points="238,-222 77,-222 77,-192 238,-192 238,-222"/>
<text text-anchor="start" x="85" y="-210" font-family="Helvetica,sans-Serif" font-size="10.00">psr::WithComputeValues</text>
<text text-anchor="middle" x="157.5" y="-199" font-family="Helvetica,sans-Serif" font-size="10.00">&lt; Base, ComputeValuesVal &gt;</text>
</a>
</g>
</g>
<!-- Node0&#45;&gt;Node1 -->
<g id="edge1_Node000000_Node000001" class="edge">
<title>Node0&#45;&gt;Node1</title>
<g id="a_edge1_Node000000_Node000001"><a xlink:title=" ">
<path fill="none" stroke="#63b8ff" d="M31.69,-130.13C41.31,-146.44 57.2,-169.35 77,-183 81.99,-186.44 87.47,-189.39 93.17,-191.93"/>
<polygon fill="#63b8ff" stroke="#63b8ff" points="34.48,-127.97 26.53,-120.97 28.39,-131.4 34.48,-127.97"/>
</a>
</g>
</g>
<!-- Node4 -->
<g id="Node000004" class="node">
<title>Node4</title>
<g id="a_Node000004"><a xlink:href="structpsr_1_1WithEndSummaryTab.html" target="_top" xlink:title=" ">
<polygon fill="white" stroke="#666666" points="228.5,-174 86.5,-174 86.5,-144 228.5,-144 228.5,-174"/>
<text text-anchor="start" x="94.5" y="-162" font-family="Helvetica,sans-Serif" font-size="10.00">psr::WithEndSummaryTab</text>
<text text-anchor="middle" x="157.5" y="-151" font-family="Helvetica,sans-Serif" font-size="10.00">&lt; Base, UseEST &gt;</text>
</a>
</g>
</g>
<!-- Node0&#45;&gt;Node4 -->
<g id="edge4_Node000000_Node000004" class="edge">
<title>Node0&#45;&gt;Node4</title>
<g id="a_edge4_Node000000_Node000004"><a xlink:title=" ">
<path fill="none" stroke="#63b8ff" d="M50.23,-124.17C58.77,-127.88 68.19,-131.78 77,-135 85.53,-138.12 94.68,-141.16 103.62,-143.97"/>
<polygon fill="#63b8ff" stroke="#63b8ff" points="51.62,-120.96 41.06,-120.11 48.78,-127.36 51.62,-120.96"/>
</a>
</g>
</g>
<!-- Node5 -->
<g id="Node000005" class="node">
<title>Node5</title>
<g id="a_Node000005"><a xlink:href="structpsr_1_1WithGCMode.html" target="_top" xlink:title=" ">
<polygon fill="white" stroke="#666666" points="227.5,-126 87.5,-126 87.5,-96 227.5,-96 227.5,-126"/>
<text text-anchor="start" x="95.5" y="-114" font-family="Helvetica,sans-Serif" font-size="10.00">psr::WithGCMode&lt; Base,</text>
<text text-anchor="middle" x="157.5" y="-103" font-family="Helvetica,sans-Serif" font-size="10.00"> GCMode &gt;</text>
</a>
</g>
</g>
<!-- Node0&#45;&gt;Node5 -->
<g id="edge5_Node000000_Node000005" class="edge">
<title>Node0&#45;&gt;Node5</title>
<g id="a_edge5_Node000000_Node000005"><a xlink:title=" ">
<path fill="none" stroke="#63b8ff" d="M51.22,-111C62.02,-111 74.71,-111 87.48,-111"/>
<polygon fill="#63b8ff" stroke="#63b8ff" points="51.13,-107.5 41.13,-111 51.13,-114.5 51.13,-107.5"/>
</a>
</g>
</g>
<!-- Node6 -->
<g id="Node000006" class="node">
<title>Node6</title>
<g id="a_Node000006"><a xlink:href="structpsr_1_1WithStats.html" target="_top" xlink:title=" ">
<polygon fill="white" stroke="#666666" points="219,-78 96,-78 96,-48 219,-48 219,-78"/>
<text text-anchor="start" x="104" y="-66" font-family="Helvetica,sans-Serif" font-size="10.00">psr::WithStats&lt; Base,</text>
<text text-anchor="middle" x="157.5" y="-55" font-family="Helvetica,sans-Serif" font-size="10.00"> EnableStats &gt;</text>
</a>
</g>
</g>
<!-- Node0&#45;&gt;Node6 -->
<g id="edge6_Node000000_Node000006" class="edge">
<title>Node0&#45;&gt;Node6</title>
<g id="a_edge6_Node000000_Node000006"><a xlink:title=" ">
<path fill="none" stroke="#63b8ff" d="M50.23,-97.83C58.77,-94.12 68.19,-90.22 77,-87 85.53,-83.88 94.68,-80.84 103.62,-78.03"/>
<polygon fill="#63b8ff" stroke="#63b8ff" points="48.78,-94.64 41.06,-101.89 51.62,-101.04 48.78,-94.64"/>
</a>
</g>
</g>
<!-- Node7 -->
<g id="Node000007" class="node">
<title>Node7</title>
<g id="a_Node000007"><a xlink:href="structpsr_1_1WithWorkList.html" target="_top" xlink:title=" ">
<polygon fill="white" stroke="#666666" points="212.5,-30 102.5,-30 102.5,0 212.5,0 212.5,-30"/>
<text text-anchor="start" x="110.5" y="-18" font-family="Helvetica,sans-Serif" font-size="10.00">psr::WithWorkList&lt;</text>
<text text-anchor="middle" x="157.5" y="-7" font-family="Helvetica,sans-Serif" font-size="10.00"> Base, WorkList &gt;</text>
</a>
</g>
</g>
<!-- Node0&#45;&gt;Node7 -->
<g id="edge7_Node000000_Node000007" class="edge">
<title>Node0&#45;&gt;Node7</title>
<g id="a_edge7_Node000000_Node000007"><a xlink:title=" ">
<path fill="none" stroke="#63b8ff" d="M31.69,-91.87C41.31,-75.56 57.2,-52.65 77,-39 84.6,-33.76 93.36,-29.64 102.24,-26.41"/>
<polygon fill="#63b8ff" stroke="#63b8ff" points="28.39,-90.6 26.53,-101.03 34.48,-94.03 28.39,-90.6"/>
</a>
</g>
</g>
<!-- Node2 -->
<g id="Node000002" class="node">
<title>Node2</title>
<g id="a_Node000002"><a xlink:href="structpsr_1_1DefaultIDESolverConfig.html" target="_top" xlink:title=" ">
<polygon fill="white" stroke="#666666" points="451,-257 299,-257 299,-227 451,-227 451,-257"/>
<text text-anchor="start" x="307" y="-245" font-family="Helvetica,sans-Serif" font-size="10.00">psr::DefaultIDESolverConfig</text>
<text text-anchor="middle" x="375" y="-234" font-family="Helvetica,sans-Serif" font-size="10.00">&lt; ProblemTy, Enable &gt;</text>
</a>
</g>
</g>
<!-- Node1&#45;&gt;Node2 -->
<g id="edge2_Node000001_Node000002" class="edge">
<title>Node1&#45;&gt;Node2</title>
<g id="a_edge2_Node000001_Node000002"><a xlink:title=" ">
<path fill="none" stroke="#63b8ff" d="M248.03,-221.54C264.97,-224.29 282.54,-227.15 298.99,-229.82"/>
<polygon fill="#63b8ff" stroke="#63b8ff" points="248.56,-218.08 238.13,-219.93 247.44,-224.99 248.56,-218.08"/>
</a>
</g>
</g>
<!-- Node3 -->
<g id="Node000003" class="node">
<title>Node3</title>
<g id="a_Node000003"><a xlink:href="structpsr_1_1DefaultIDESolverConfig_3_01ProblemTy_00_01std_1_1enable__if__t_3_01std_1_1is__base_adc4e44d50d6a7f0c5ce731aba6dd5ad.html" target="_top" xlink:title=" ">
<polygon fill="white" stroke="#666666" points="476,-209 274,-209 274,-135 476,-135 476,-209"/>
<text text-anchor="start" x="282" y="-197" font-family="Helvetica,sans-Serif" font-size="10.00">psr::DefaultIDESolverConfig</text>
<text text-anchor="start" x="282" y="-186" font-family="Helvetica,sans-Serif" font-size="10.00">&lt; ProblemTy, std::enable</text>
<text text-anchor="start" x="282" y="-175" font-family="Helvetica,sans-Serif" font-size="10.00">_if_t&lt; std::is_base_of_v</text>
<text text-anchor="start" x="282" y="-164" font-family="Helvetica,sans-Serif" font-size="10.00">&lt; IFDSTabulationProblem&lt; typename</text>
<text text-anchor="start" x="282" y="-153" font-family="Helvetica,sans-Serif" font-size="10.00"> ProblemTy::ProblemAnalysisDomain</text>
<text text-anchor="middle" x="375" y="-142" font-family="Helvetica,sans-Serif" font-size="10.00"> &gt;, ProblemTy &gt; &gt; &gt;</text>
</a>
</g>
</g>
<!-- Node1&#45;&gt;Node3 -->
<g id="edge3_Node000001_Node000003" class="edge">
<title>Node1&#45;&gt;Node3</title>
<g id="a_edge3_Node000001_Node000003"><a xlink:title=" ">
<path fill="none" stroke="#63b8ff" d="M248.04,-192.46C256.56,-191.07 265.23,-189.67 273.84,-188.27"/>
<polygon fill="#63b8ff" stroke="#63b8ff" points="247.44,-189.01 238.13,-194.07 248.56,-195.92 247.44,-189.01"/>
</a>
</g>
</g>
</g>
</svg>
