<?xml version="1.0" encoding="UTF-8" standalone="no"?>
<!DOCTYPE svg PUBLIC "-//W3C//DTD SVG 1.1//EN"
 "http://www.w3.org/Graphics/SVG/1.1/DTD/svg11.dtd">
<!-- Generated by graphviz version 2.43.0 (0)
 -->
<!-- Title: Graphical Class Hierarchy Pages: 1 -->
<svg width="253pt" height="76pt"
 viewBox="0.00 0.00 253.00 75.50" xmlns="http://www.w3.org/2000/svg" xmlns:xlink="http://www.w3.org/1999/xlink">
<g id="graph0" class="graph" transform="scale(1 1) rotate(0) translate(4 71.5)">
<title>Graphical Class Hierarchy</title>
<!-- Node0 -->
<g id="Node000000" class="node">
<title>Node0</title>
<g id="a_Node000000"><a xlink:title=" ">
<polygon fill="#e0e0e0" stroke="#999999" points="72,-40 0,-40 0,-21 72,-21 72,-40"/>
<text text-anchor="middle" x="36" y="-28" font-family="Helvetica,sans-Serif" font-size="10.00">std::variant</text>
</a>
</g>
</g>
<!-- Node1 -->
<g id="Node000001" class="node">
<title>Node1</title>
<g id="a_Node000001"><a xlink:href="structpsr_1_1LatticeDomain.html" target="_top" xlink:title=" ">
<polygon fill="white" stroke="#666666" points="231,-67.5 122,-67.5 122,-37.5 231,-37.5 231,-67.5"/>
<text text-anchor="start" x="130" y="-55.5" font-family="Helvetica,sans-Serif" font-size="10.00">psr::LatticeDomain</text>
<text text-anchor="middle" x="176.5" y="-44.5" font-family="Helvetica,sans-Serif" font-size="10.00">&lt; int64_t &gt;</text>
</a>
</g>
</g>
<!-- Node0&#45;&gt;Node1 -->
<g id="edge353_Node000000_Node000001" class="edge">
<title>Node0&#45;&gt;Node1</title>
<g id="a_edge353_Node000000_Node000001"><a xlink:title=" ">
<path fill="none" stroke="#63b8ff" d="M82.18,-37.68C94.88,-39.69 108.8,-41.91 121.93,-43.99"/>
<polygon fill="#63b8ff" stroke="#63b8ff" points="82.73,-34.22 72.31,-36.11 81.63,-41.13 82.73,-34.22"/>
</a>
</g>
</g>
<!-- Node2 -->
<g id="Node000002" class="node">
<title>Node2</title>
<g id="a_Node000002"><a xlink:href="structpsr_1_1LatticeDomain.html" target="_top" xlink:title="A easy shorthand to construct a complete lattice of L.">
<polygon fill="white" stroke="#666666" points="245,-19 108,-19 108,0 245,0 245,-19"/>
<text text-anchor="middle" x="176.5" y="-7" font-family="Helvetica,sans-Serif" font-size="10.00">psr::LatticeDomain&lt; L &gt;</text>
</a>
</g>
</g>
<!-- Node0&#45;&gt;Node2 -->
<g id="edge354_Node000000_Node000002" class="edge">
<title>Node0&#45;&gt;Node2</title>
<g id="a_edge354_Node000000_Node000002"><a xlink:title=" ">
<path fill="none" stroke="#63b8ff" d="M82.2,-23.65C91.98,-22.16 102.49,-20.57 112.8,-19.01"/>
<polygon fill="#63b8ff" stroke="#63b8ff" points="81.67,-20.19 72.31,-25.15 82.72,-27.11 81.67,-20.19"/>
</a>
</g>
</g>
</g>
</svg>
