<?xml version="1.0" encoding="UTF-8" standalone="no"?>
<!DOCTYPE svg PUBLIC "-//W3C//DTD SVG 1.1//EN"
 "http://www.w3.org/Graphics/SVG/1.1/DTD/svg11.dtd">
<!-- Generated by graphviz version 2.43.0 (0)
 -->
<!-- Title: Graphical Class Hierarchy Pages: 1 -->
<svg width="521pt" height="201pt"
 viewBox="0.00 0.00 521.00 201.00" xmlns="http://www.w3.org/2000/svg" xmlns:xlink="http://www.w3.org/1999/xlink">
<g id="graph0" class="graph" transform="scale(1 1) rotate(0) translate(4 197)">
<title>Graphical Class Hierarchy</title>
<!-- Node0 -->
<g id="Node000000" class="node">
<title>Node0</title>
<g id="a_Node000000"><a xlink:href="classpsr_1_1IterativeIDESolverBase.html" target="_top" xlink:title=" ">
<polygon fill="white" stroke="#666666" points="215.5,-193 65.5,-193 65.5,-152 215.5,-152 215.5,-193"/>
<text text-anchor="start" x="73.5" y="-181" font-family="Helvetica,sans-Serif" font-size="10.00">psr::IterativeIDESolverBase</text>
<text text-anchor="start" x="73.5" y="-170" font-family="Helvetica,sans-Serif" font-size="10.00">&lt; StaticSolverConfigTy,</text>
<text text-anchor="middle" x="140.5" y="-159" font-family="Helvetica,sans-Serif" font-size="10.00"> EdgeFunPtrTy &gt;</text>
</a>
</g>
</g>
<!-- Node1 -->
<g id="Node000001" class="node">
<title>Node1</title>
<g id="a_Node000001"><a xlink:href="classpsr_1_1IterativeIDESolver.html" target="_top" xlink:title=" ">
<polygon fill="white" stroke="#666666" points="513,-111.5 317,-111.5 317,-81.5 513,-81.5 513,-111.5"/>
<text text-anchor="start" x="325" y="-99.5" font-family="Helvetica,sans-Serif" font-size="10.00">psr::IterativeIDESolver</text>
<text text-anchor="middle" x="415" y="-88.5" font-family="Helvetica,sans-Serif" font-size="10.00">&lt; ProblemTy, StaticSolverConfigTy &gt;</text>
</a>
</g>
</g>
<!-- Node0&#45;&gt;Node1 -->
<g id="edge301_Node000000_Node000001" class="edge">
<title>Node0&#45;&gt;Node1</title>
<g id="a_edge301_Node000000_Node000001"><a xlink:title=" ">
<path fill="none" stroke="#63b8ff" d="M225.56,-156.15C243.93,-152.09 263.2,-147.47 281,-142.5 312.89,-133.59 348.28,-121.23 374.53,-111.56"/>
<polygon fill="#63b8ff" stroke="#63b8ff" points="224.78,-152.73 215.75,-158.28 226.27,-159.57 224.78,-152.73"/>
</a>
</g>
</g>
<!-- Node2 -->
<g id="Node000002" class="node">
<title>Node2</title>
<g id="a_Node000002"><a xlink:title=" ">
<polygon fill="#e0e0e0" stroke="#999999" points="281,-133.5 0,-133.5 0,-59.5 281,-59.5 281,-133.5"/>
<text text-anchor="start" x="8" y="-121.5" font-family="Helvetica,sans-Serif" font-size="10.00">psr::detail::IterativeIDESolver</text>
<text text-anchor="start" x="8" y="-110.5" font-family="Helvetica,sans-Serif" font-size="10.00">Results&lt; ProblemTy::ProblemAnalysis</text>
<text text-anchor="start" x="8" y="-99.5" font-family="Helvetica,sans-Serif" font-size="10.00">Domain::n_t, ProblemTy::ProblemAnalysisDomain</text>
<text text-anchor="start" x="8" y="-88.5" font-family="Helvetica,sans-Serif" font-size="10.00">::d_t, std::conditional_t&lt; StaticSolverConfigTy</text>
<text text-anchor="start" x="8" y="-77.5" font-family="Helvetica,sans-Serif" font-size="10.00">::ComputeValues, ProblemTy::ProblemAnalysisDomain</text>
<text text-anchor="middle" x="140.5" y="-66.5" font-family="Helvetica,sans-Serif" font-size="10.00">::l_t, BinaryDomain &gt; &gt;</text>
</a>
</g>
</g>
<!-- Node2&#45;&gt;Node1 -->
<g id="edge302_Node000002_Node000001" class="edge">
<title>Node2&#45;&gt;Node1</title>
<g id="a_edge302_Node000002_Node000001"><a xlink:title=" ">
<path fill="none" stroke="#8b1a1a" d="M291.47,-96.5C300.07,-96.5 308.6,-96.5 316.92,-96.5"/>
<polygon fill="#8b1a1a" stroke="#8b1a1a" points="291.34,-93 281.34,-96.5 291.34,-100 291.34,-93"/>
</a>
</g>
</g>
<!-- Node3 -->
<g id="Node000003" class="node">
<title>Node3</title>
<g id="a_Node000003"><a xlink:href="structpsr_1_1SolverStatsSelector.html" target="_top" xlink:title=" ">
<polygon fill="white" stroke="#666666" points="207,-41 74,-41 74,0 207,0 207,-41"/>
<text text-anchor="start" x="82" y="-29" font-family="Helvetica,sans-Serif" font-size="10.00">psr::SolverStatsSelector</text>
<text text-anchor="start" x="82" y="-18" font-family="Helvetica,sans-Serif" font-size="10.00">&lt; StaticSolverConfigTy,</text>
<text text-anchor="middle" x="140.5" y="-7" font-family="Helvetica,sans-Serif" font-size="10.00"> typename &gt;</text>
</a>
</g>
</g>
<!-- Node3&#45;&gt;Node1 -->
<g id="edge303_Node000003_Node000001" class="edge">
<title>Node3&#45;&gt;Node1</title>
<g id="a_edge303_Node000003_Node000001"><a xlink:title=" ">
<path fill="none" stroke="#8b1a1a" d="M217.25,-35.04C238.04,-39.51 260.5,-44.77 281,-50.5 312.89,-59.41 348.28,-71.77 374.53,-81.44"/>
<polygon fill="#8b1a1a" stroke="#8b1a1a" points="217.7,-31.56 207.19,-32.92 216.25,-38.41 217.7,-31.56"/>
</a>
</g>
</g>
</g>
</svg>
