<?xml version="1.0" encoding="UTF-8" standalone="no"?>
<!DOCTYPE svg PUBLIC "-//W3C//DTD SVG 1.1//EN"
 "http://www.w3.org/Graphics/SVG/1.1/DTD/svg11.dtd">
<!-- Generated by graphviz version 2.43.0 (0)
 -->
<!-- Title: Graphical Class Hierarchy Pages: 1 -->
<svg width="403pt" height="175pt"
 viewBox="0.00 0.00 403.00 175.00" xmlns="http://www.w3.org/2000/svg" xmlns:xlink="http://www.w3.org/1999/xlink">
<g id="graph0" class="graph" transform="scale(1 1) rotate(0) translate(4 171)">
<title>Graphical Class Hierarchy</title>
<!-- Node0 -->
<g id="Node000000" class="node">
<title>Node0</title>
<g id="a_Node000000"><a xlink:href="classpsr_1_1Resolver.html" target="_top" xlink:title="A base class for call&#45;target resolvers. Used to build call graphs.">
<polygon fill="white" stroke="#666666" points="80,-93 0,-93 0,-74 80,-74 80,-93"/>
<text text-anchor="middle" x="40" y="-81" font-family="Helvetica,sans-Serif" font-size="10.00">psr::Resolver</text>
</a>
</g>
</g>
<!-- Node1 -->
<g id="Node000001" class="node">
<title>Node1</title>
<g id="a_Node000001"><a xlink:href="classpsr_1_1CHAResolver.html" target="_top" xlink:title="A resolver that performs Class Hierarchy Analysis to resolve calls to C++ virtual functions....">
<polygon fill="white" stroke="#666666" points="239,-167 138,-167 138,-148 239,-148 239,-167"/>
<text text-anchor="middle" x="188.5" y="-155" font-family="Helvetica,sans-Serif" font-size="10.00">psr::CHAResolver</text>
</a>
</g>
</g>
<!-- Node0&#45;&gt;Node1 -->
<g id="edge319_Node000000_Node000001" class="edge">
<title>Node0&#45;&gt;Node1</title>
<g id="a_edge319_Node000000_Node000001"><a xlink:title=" ">
<path fill="none" stroke="#63b8ff" d="M58.94,-100.13C73.35,-112.65 94.66,-129.35 116,-139.5 123.05,-142.85 130.8,-145.63 138.52,-147.92"/>
<polygon fill="#63b8ff" stroke="#63b8ff" points="61.09,-97.36 51.3,-93.32 56.43,-102.58 61.09,-97.36"/>
</a>
</g>
</g>
<!-- Node3 -->
<g id="Node000003" class="node">
<title>Node3</title>
<g id="a_Node000003"><a xlink:href="classpsr_1_1NOResolver.html" target="_top" xlink:title="A resolver that doesn&#39;t resolve indirect&#45; and virtual calls.">
<polygon fill="white" stroke="#666666" points="236,-130 141,-130 141,-111 236,-111 236,-130"/>
<text text-anchor="middle" x="188.5" y="-118" font-family="Helvetica,sans-Serif" font-size="10.00">psr::NOResolver</text>
</a>
</g>
</g>
<!-- Node0&#45;&gt;Node3 -->
<g id="edge321_Node000000_Node000003" class="edge">
<title>Node0&#45;&gt;Node3</title>
<g id="a_edge321_Node000000_Node000003"><a xlink:title=" ">
<path fill="none" stroke="#63b8ff" d="M88.49,-95.54C97.62,-97.85 107.11,-100.25 116,-102.5 126.92,-105.26 138.78,-108.25 149.65,-110.98"/>
<polygon fill="#63b8ff" stroke="#63b8ff" points="89.32,-92.14 78.77,-93.08 87.6,-98.93 89.32,-92.14"/>
</a>
</g>
</g>
<!-- Node4 -->
<g id="Node000004" class="node">
<title>Node4</title>
<g id="a_Node000004"><a xlink:href="classpsr_1_1OTFResolver.html" target="_top" xlink:title="A resolver that uses alias information to resolve indirect and virtual calls.">
<polygon fill="white" stroke="#666666" points="238.5,-93 138.5,-93 138.5,-74 238.5,-74 238.5,-93"/>
<text text-anchor="middle" x="188.5" y="-81" font-family="Helvetica,sans-Serif" font-size="10.00">psr::OTFResolver</text>
</a>
</g>
</g>
<!-- Node0&#45;&gt;Node4 -->
<g id="edge322_Node000000_Node000004" class="edge">
<title>Node0&#45;&gt;Node4</title>
<g id="a_edge322_Node000000_Node000004"><a xlink:title=" ">
<path fill="none" stroke="#63b8ff" d="M90.65,-83.5C106.07,-83.5 123.05,-83.5 138.43,-83.5"/>
<polygon fill="#63b8ff" stroke="#63b8ff" points="90.26,-80 80.26,-83.5 90.26,-87 90.26,-80"/>
</a>
</g>
</g>
<!-- Node5 -->
<g id="Node000005" class="node">
<title>Node5</title>
<g id="a_Node000005"><a xlink:href="classpsr_1_1PrecomputedResolver.html" target="_top" xlink:title="A Resolver that uses a pre&#45;computed call&#45;graph to resolve indirect calls.">
<polygon fill="white" stroke="#666666" points="261,-56 116,-56 116,-37 261,-37 261,-56"/>
<text text-anchor="middle" x="188.5" y="-44" font-family="Helvetica,sans-Serif" font-size="10.00">psr::PrecomputedResolver</text>
</a>
</g>
</g>
<!-- Node0&#45;&gt;Node5 -->
<g id="edge323_Node000000_Node000005" class="edge">
<title>Node0&#45;&gt;Node5</title>
<g id="a_edge323_Node000000_Node000005"><a xlink:title=" ">
<path fill="none" stroke="#63b8ff" d="M88.49,-71.51C108.3,-66.5 130.99,-60.77 149.65,-56.06"/>
<polygon fill="#63b8ff" stroke="#63b8ff" points="87.57,-68.13 78.73,-73.97 89.28,-74.92 87.57,-68.13"/>
</a>
</g>
</g>
<!-- Node6 -->
<g id="Node000006" class="node">
<title>Node6</title>
<g id="a_Node000006"><a xlink:href="classpsr_1_1VTAResolver.html" target="_top" xlink:title="A Resolver that uses a variant of the Variable Type Analysis to resolver indirect calls.">
<polygon fill="white" stroke="#666666" points="238,-19 139,-19 139,0 238,0 238,-19"/>
<text text-anchor="middle" x="188.5" y="-7" font-family="Helvetica,sans-Serif" font-size="10.00">psr::VTAResolver</text>
</a>
</g>
</g>
<!-- Node0&#45;&gt;Node6 -->
<g id="edge324_Node000000_Node000006" class="edge">
<title>Node0&#45;&gt;Node6</title>
<g id="a_edge324_Node000000_Node000006"><a xlink:title=" ">
<path fill="none" stroke="#63b8ff" d="M59.03,-67.26C73.49,-55.01 94.81,-38.64 116,-28.5 123.88,-24.73 132.62,-21.62 141.2,-19.09"/>
<polygon fill="#63b8ff" stroke="#63b8ff" points="56.61,-64.72 51.35,-73.92 61.2,-70.01 56.61,-64.72"/>
</a>
</g>
</g>
<!-- Node2 -->
<g id="Node000002" class="node">
<title>Node2</title>
<g id="a_Node000002"><a xlink:href="classpsr_1_1RTAResolver.html" target="_top" xlink:title="A resolver that performs Rapid Type Analysis to resolve calls to C++ virtual functions....">
<polygon fill="white" stroke="#666666" points="395,-167 297,-167 297,-148 395,-148 395,-167"/>
<text text-anchor="middle" x="346" y="-155" font-family="Helvetica,sans-Serif" font-size="10.00">psr::RTAResolver</text>
</a>
</g>
</g>
<!-- Node1&#45;&gt;Node2 -->
<g id="edge320_Node000001_Node000002" class="edge">
<title>Node1&#45;&gt;Node2</title>
<g id="a_edge320_Node000001_Node000002"><a xlink:title=" ">
<path fill="none" stroke="#63b8ff" d="M249.3,-157.5C265.06,-157.5 281.85,-157.5 296.9,-157.5"/>
<polygon fill="#63b8ff" stroke="#63b8ff" points="249.13,-154 239.13,-157.5 249.13,-161 249.13,-154"/>
</a>
</g>
</g>
</g>
</svg>
