<?xml version="1.0" encoding="UTF-8" standalone="no"?>
<!DOCTYPE svg PUBLIC "-//W3C//DTD SVG 1.1//EN"
 "http://www.w3.org/Graphics/SVG/1.1/DTD/svg11.dtd">
<!-- Generated by graphviz version 2.43.0 (0)
 -->
<!-- Title: Graphical Class Hierarchy Pages: 1 -->
<svg width="300pt" height="316pt"
 viewBox="0.00 0.00 300.00 315.50" xmlns="http://www.w3.org/2000/svg" xmlns:xlink="http://www.w3.org/1999/xlink">
<g id="graph0" class="graph" transform="scale(1 1) rotate(0) translate(4 311.5)">
<title>Graphical Class Hierarchy</title>
<!-- Node0 -->
<g id="Node000000" class="node">
<title>Node0</title>
<g id="a_Node000000"><a xlink:title=" ">
<polygon fill="#e0e0e0" stroke="#999999" points="89,-158 0,-158 0,-139 89,-139 89,-158"/>
<text text-anchor="middle" x="44.5" y="-146" font-family="Helvetica,sans-Serif" font-size="10.00">std::false_type</text>
</a>
</g>
</g>
<!-- Node1 -->
<g id="Node000001" class="node">
<title>Node1</title>
<g id="a_Node000001"><a xlink:href="structpsr_1_1has__getAsJson.html" target="_top" xlink:title=" ">
<polygon fill="white" stroke="#666666" points="262.5,-307.5 154.5,-307.5 154.5,-277.5 262.5,-277.5 262.5,-307.5"/>
<text text-anchor="start" x="162.5" y="-295.5" font-family="Helvetica,sans-Serif" font-size="10.00">psr::has_getAsJson</text>
<text text-anchor="middle" x="208.5" y="-284.5" font-family="Helvetica,sans-Serif" font-size="10.00">&lt; T, Enable &gt;</text>
</a>
</g>
</g>
<!-- Node0&#45;&gt;Node1 -->
<g id="edge343_Node000000_Node000001" class="edge">
<title>Node0&#45;&gt;Node1</title>
<g id="a_edge343_Node000000_Node000001"><a xlink:title=" ">
<path fill="none" stroke="#63b8ff" d="M53.1,-167.64C64.64,-194.24 89.11,-242.09 125,-268.5 133.65,-274.87 143.96,-279.55 154.31,-282.99"/>
<polygon fill="#63b8ff" stroke="#63b8ff" points="56.27,-166.15 49.19,-158.27 49.81,-168.85 56.27,-166.15"/>
</a>
</g>
</g>
<!-- Node2 -->
<g id="Node000002" class="node">
<title>Node2</title>
<g id="a_Node000002"><a xlink:href="structpsr_1_1has__getHashCode.html" target="_top" xlink:title=" ">
<polygon fill="white" stroke="#666666" points="271,-259.5 146,-259.5 146,-229.5 271,-229.5 271,-259.5"/>
<text text-anchor="start" x="154" y="-247.5" font-family="Helvetica,sans-Serif" font-size="10.00">psr::has_getHashCode</text>
<text text-anchor="middle" x="208.5" y="-236.5" font-family="Helvetica,sans-Serif" font-size="10.00">&lt; T, typename &gt;</text>
</a>
</g>
</g>
<!-- Node0&#45;&gt;Node2 -->
<g id="edge344_Node000000_Node000002" class="edge">
<title>Node0&#45;&gt;Node2</title>
<g id="a_edge344_Node000000_Node000002"><a xlink:title=" ">
<path fill="none" stroke="#63b8ff" d="M60.61,-166.17C75.46,-182.49 99.53,-206.27 125,-220.5 131.51,-224.14 138.63,-227.27 145.86,-229.96"/>
<polygon fill="#63b8ff" stroke="#63b8ff" points="62.98,-163.58 53.73,-158.42 57.75,-168.22 62.98,-163.58"/>
</a>
</g>
</g>
<!-- Node3 -->
<g id="Node000003" class="node">
<title>Node3</title>
<g id="a_Node000003"><a xlink:href="structpsr_1_1has__getSparseCFG.html" target="_top" xlink:title=" ">
<polygon fill="white" stroke="#666666" points="273,-211.5 144,-211.5 144,-181.5 273,-181.5 273,-211.5"/>
<text text-anchor="start" x="152" y="-199.5" font-family="Helvetica,sans-Serif" font-size="10.00">psr::has_getSparseCFG</text>
<text text-anchor="middle" x="208.5" y="-188.5" font-family="Helvetica,sans-Serif" font-size="10.00">&lt; T, D, typename &gt;</text>
</a>
</g>
</g>
<!-- Node0&#45;&gt;Node3 -->
<g id="edge345_Node000000_Node000003" class="edge">
<title>Node0&#45;&gt;Node3</title>
<g id="a_edge345_Node000000_Node000003"><a xlink:title=" ">
<path fill="none" stroke="#63b8ff" d="M86.43,-160.94C98.82,-164.68 112.46,-168.78 125,-172.5 134.87,-175.42 145.41,-178.52 155.55,-181.47"/>
<polygon fill="#63b8ff" stroke="#63b8ff" points="87.4,-157.58 76.82,-158.03 85.38,-164.28 87.4,-157.58"/>
</a>
</g>
</g>
<!-- Node4 -->
<g id="Node000004" class="node">
<title>Node4</title>
<g id="a_Node000004"><a xlink:href="structpsr_1_1has__std__hash.html" target="_top" xlink:title=" ">
<polygon fill="white" stroke="#666666" points="264.5,-163.5 152.5,-163.5 152.5,-133.5 264.5,-133.5 264.5,-163.5"/>
<text text-anchor="start" x="160.5" y="-151.5" font-family="Helvetica,sans-Serif" font-size="10.00">psr::has_std_hash&lt;</text>
<text text-anchor="middle" x="208.5" y="-140.5" font-family="Helvetica,sans-Serif" font-size="10.00"> T, typename &gt;</text>
</a>
</g>
</g>
<!-- Node0&#45;&gt;Node4 -->
<g id="edge346_Node000000_Node000004" class="edge">
<title>Node0&#45;&gt;Node4</title>
<g id="a_edge346_Node000000_Node000004"><a xlink:title=" ">
<path fill="none" stroke="#63b8ff" d="M99.63,-148.5C116.58,-148.5 135.3,-148.5 152.31,-148.5"/>
<polygon fill="#63b8ff" stroke="#63b8ff" points="99.34,-145 89.34,-148.5 99.34,-152 99.34,-145"/>
</a>
</g>
</g>
<!-- Node5 -->
<g id="Node000005" class="node">
<title>Node5</title>
<g id="a_Node000005"><a xlink:href="structpsr_1_1is__PointsToTraits.html" target="_top" xlink:title=" ">
<polygon fill="white" stroke="#666666" points="267.5,-115.5 149.5,-115.5 149.5,-85.5 267.5,-85.5 267.5,-115.5"/>
<text text-anchor="start" x="157.5" y="-103.5" font-family="Helvetica,sans-Serif" font-size="10.00">psr::is_PointsToTraits</text>
<text text-anchor="middle" x="208.5" y="-92.5" font-family="Helvetica,sans-Serif" font-size="10.00">&lt; T, Enable &gt;</text>
</a>
</g>
</g>
<!-- Node0&#45;&gt;Node5 -->
<g id="edge347_Node000000_Node000005" class="edge">
<title>Node0&#45;&gt;Node5</title>
<g id="a_edge347_Node000000_Node000005"><a xlink:title=" ">
<path fill="none" stroke="#63b8ff" d="M86.43,-136.06C98.82,-132.32 112.46,-128.22 125,-124.5 134.87,-121.58 145.41,-118.48 155.55,-115.53"/>
<polygon fill="#63b8ff" stroke="#63b8ff" points="85.38,-132.72 76.82,-138.97 87.4,-139.42 85.38,-132.72"/>
</a>
</g>
</g>
<!-- Node6 -->
<g id="Node000006" class="node">
<title>Node6</title>
<g id="a_Node000006"><a xlink:href="structpsr_1_1is__pathtracingfilter__for.html" target="_top" xlink:title=" ">
<polygon fill="white" stroke="#666666" points="292,-67.5 125,-67.5 125,-37.5 292,-37.5 292,-67.5"/>
<text text-anchor="start" x="133" y="-55.5" font-family="Helvetica,sans-Serif" font-size="10.00">psr::is_pathtracingfilter</text>
<text text-anchor="middle" x="208.5" y="-44.5" font-family="Helvetica,sans-Serif" font-size="10.00">_for&lt; F, NodeRef, typename &gt;</text>
</a>
</g>
</g>
<!-- Node0&#45;&gt;Node6 -->
<g id="edge348_Node000000_Node000006" class="edge">
<title>Node0&#45;&gt;Node6</title>
<g id="a_edge348_Node000000_Node000006"><a xlink:title=" ">
<path fill="none" stroke="#63b8ff" d="M60.61,-130.83C75.46,-114.51 99.53,-90.73 125,-76.5 131.12,-73.08 137.77,-70.11 144.56,-67.53"/>
<polygon fill="#63b8ff" stroke="#63b8ff" points="57.75,-128.78 53.73,-138.58 62.98,-133.42 57.75,-128.78"/>
</a>
</g>
</g>
<!-- Node7 -->
<g id="Node000007" class="node">
<title>Node7</title>
<g id="a_Node000007"><a xlink:href="structpsr_1_1is__variant.html" target="_top" xlink:title=" ">
<polygon fill="white" stroke="#666666" points="265.5,-19 151.5,-19 151.5,0 265.5,0 265.5,-19"/>
<text text-anchor="middle" x="208.5" y="-7" font-family="Helvetica,sans-Serif" font-size="10.00">psr::is_variant&lt; T &gt;</text>
</a>
</g>
</g>
<!-- Node0&#45;&gt;Node7 -->
<g id="edge349_Node000000_Node000007" class="edge">
<title>Node0&#45;&gt;Node7</title>
<g id="a_edge349_Node000000_Node000007"><a xlink:title=" ">
<path fill="none" stroke="#63b8ff" d="M52.73,-129.47C63.96,-102.61 88.19,-54.01 125,-28.5 132.85,-23.06 142.04,-19.16 151.37,-16.36"/>
<polygon fill="#63b8ff" stroke="#63b8ff" points="49.42,-128.33 48.95,-138.92 55.92,-130.93 49.42,-128.33"/>
</a>
</g>
</g>
</g>
</svg>
