<?xml version="1.0" encoding="UTF-8" standalone="no"?>
<!DOCTYPE svg PUBLIC "-//W3C//DTD SVG 1.1//EN"
 "http://www.w3.org/Graphics/SVG/1.1/DTD/svg11.dtd">
<!-- Generated by graphviz version 2.43.0 (0)
 -->
<!-- Title: Graphical Class Hierarchy Pages: 1 -->
<svg width="340pt" height="230pt"
 viewBox="0.00 0.00 340.00 230.00" xmlns="http://www.w3.org/2000/svg" xmlns:xlink="http://www.w3.org/1999/xlink">
<g id="graph0" class="graph" transform="scale(1 1) rotate(0) translate(4 226)">
<title>Graphical Class Hierarchy</title>
<!-- Node0 -->
<g id="Node000000" class="node">
<title>Node0</title>
<g id="a_Node000000"><a xlink:href="classpsr_1_1AnalysisPrinterBase.html" target="_top" xlink:title="A generic class that serves as the basis for a custom analysis printer implementation.">
<polygon fill="white" stroke="#666666" points="135,-126 0,-126 0,-96 135,-96 135,-126"/>
<text text-anchor="start" x="8" y="-114" font-family="Helvetica,sans-Serif" font-size="10.00">psr::AnalysisPrinterBase</text>
<text text-anchor="middle" x="67.5" y="-103" font-family="Helvetica,sans-Serif" font-size="10.00">&lt; AnalysisDomainTy &gt;</text>
</a>
</g>
</g>
<!-- Node1 -->
<g id="Node000001" class="node">
<title>Node1</title>
<g id="a_Node000001"><a xlink:href="classpsr_1_1DefaultAnalysisPrinter.html" target="_top" xlink:title="A default implementation of the AnalysisPrinterBase. Aggregates all analysis results in a vector and ...">
<polygon fill="white" stroke="#666666" points="325,-222 178,-222 178,-192 325,-192 325,-222"/>
<text text-anchor="start" x="186" y="-210" font-family="Helvetica,sans-Serif" font-size="10.00">psr::DefaultAnalysisPrinter</text>
<text text-anchor="middle" x="251.5" y="-199" font-family="Helvetica,sans-Serif" font-size="10.00">&lt; AnalysisDomainTy &gt;</text>
</a>
</g>
</g>
<!-- Node0&#45;&gt;Node1 -->
<g id="edge164_Node000000_Node000001" class="edge">
<title>Node0&#45;&gt;Node1</title>
<g id="a_edge164_Node000000_Node000001"><a xlink:title=" ">
<path fill="none" stroke="#63b8ff" d="M94.23,-132.58C114.13,-148.38 142.94,-169.35 171,-183 177.87,-186.34 185.3,-189.33 192.77,-191.97"/>
<polygon fill="#63b8ff" stroke="#63b8ff" points="96.25,-129.72 86.27,-126.17 91.86,-135.17 96.25,-129.72"/>
</a>
</g>
</g>
<!-- Node2 -->
<g id="Node000002" class="node">
<title>Node2</title>
<g id="a_Node000002"><a xlink:href="classpsr_1_1DefaultLLVMAnalysisPrinter.html" target="_top" xlink:title=" ">
<polygon fill="white" stroke="#666666" points="332,-174 171,-174 171,-144 332,-144 332,-174"/>
<text text-anchor="start" x="179" y="-162" font-family="Helvetica,sans-Serif" font-size="10.00">psr::DefaultLLVMAnalysis</text>
<text text-anchor="middle" x="251.5" y="-151" font-family="Helvetica,sans-Serif" font-size="10.00">Printer&lt; AnalysisDomainTy &gt;</text>
</a>
</g>
</g>
<!-- Node0&#45;&gt;Node2 -->
<g id="edge165_Node000000_Node000002" class="edge">
<title>Node0&#45;&gt;Node2</title>
<g id="a_edge165_Node000000_Node000002"><a xlink:title=" ">
<path fill="none" stroke="#63b8ff" d="M135.42,-128.65C154.53,-133.69 175.17,-139.13 193.62,-144"/>
<polygon fill="#63b8ff" stroke="#63b8ff" points="136.15,-125.22 125.59,-126.06 134.36,-131.99 136.15,-125.22"/>
</a>
</g>
</g>
<!-- Node3 -->
<g id="Node000003" class="node">
<title>Node3</title>
<g id="a_Node000003"><a xlink:href="classpsr_1_1NullAnalysisPrinter.html" target="_top" xlink:title=" ">
<polygon fill="white" stroke="#666666" points="317,-126 186,-126 186,-96 317,-96 317,-126"/>
<text text-anchor="start" x="194" y="-114" font-family="Helvetica,sans-Serif" font-size="10.00">psr::NullAnalysisPrinter</text>
<text text-anchor="middle" x="251.5" y="-103" font-family="Helvetica,sans-Serif" font-size="10.00">&lt; AnalysisDomainTy &gt;</text>
</a>
</g>
</g>
<!-- Node0&#45;&gt;Node3 -->
<g id="edge166_Node000000_Node000003" class="edge">
<title>Node0&#45;&gt;Node3</title>
<g id="a_edge166_Node000000_Node000003"><a xlink:title=" ">
<path fill="none" stroke="#63b8ff" d="M145.44,-111C158.91,-111 172.8,-111 185.9,-111"/>
<polygon fill="#63b8ff" stroke="#63b8ff" points="145.24,-107.5 135.24,-111 145.24,-114.5 145.24,-107.5"/>
</a>
</g>
</g>
<!-- Node4 -->
<g id="Node000004" class="node">
<title>Node4</title>
<g id="a_Node000004"><a xlink:href="classpsr_1_1OnTheFlyAnalysisPrinter.html" target="_top" xlink:title=" ">
<polygon fill="white" stroke="#666666" points="330.5,-78 172.5,-78 172.5,-48 330.5,-48 330.5,-78"/>
<text text-anchor="start" x="180.5" y="-66" font-family="Helvetica,sans-Serif" font-size="10.00">psr::OnTheFlyAnalysisPrinter</text>
<text text-anchor="middle" x="251.5" y="-55" font-family="Helvetica,sans-Serif" font-size="10.00">&lt; AnalysisDomainTy &gt;</text>
</a>
</g>
</g>
<!-- Node0&#45;&gt;Node4 -->
<g id="edge167_Node000000_Node000004" class="edge">
<title>Node0&#45;&gt;Node4</title>
<g id="a_edge167_Node000000_Node000004"><a xlink:title=" ">
<path fill="none" stroke="#63b8ff" d="M135.42,-93.35C154.53,-88.31 175.17,-82.87 193.62,-78"/>
<polygon fill="#63b8ff" stroke="#63b8ff" points="134.36,-90.01 125.59,-95.94 136.15,-96.78 134.36,-90.01"/>
</a>
</g>
</g>
<!-- Node5 -->
<g id="Node000005" class="node">
<title>Node5</title>
<g id="a_Node000005"><a xlink:href="classpsr_1_1SourceMgrPrinter.html" target="_top" xlink:title=" ">
<polygon fill="white" stroke="#666666" points="316,-30 187,-30 187,0 316,0 316,-30"/>
<text text-anchor="start" x="195" y="-18" font-family="Helvetica,sans-Serif" font-size="10.00">psr::SourceMgrPrinter</text>
<text text-anchor="middle" x="251.5" y="-7" font-family="Helvetica,sans-Serif" font-size="10.00">&lt; AnalysisDomainTy &gt;</text>
</a>
</g>
</g>
<!-- Node0&#45;&gt;Node5 -->
<g id="edge168_Node000000_Node000005" class="edge">
<title>Node0&#45;&gt;Node5</title>
<g id="a_edge168_Node000000_Node000005"><a xlink:title=" ">
<path fill="none" stroke="#63b8ff" d="M94.23,-89.42C114.13,-73.62 142.94,-52.65 171,-39 177.87,-35.66 185.3,-32.67 192.77,-30.03"/>
<polygon fill="#63b8ff" stroke="#63b8ff" points="91.86,-86.83 86.27,-95.83 96.25,-92.28 91.86,-86.83"/>
</a>
</g>
</g>
</g>
</svg>
