<?xml version="1.0" encoding="UTF-8" standalone="no"?>
<!DOCTYPE svg PUBLIC "-//W3C//DTD SVG 1.1//EN"
 "http://www.w3.org/Graphics/SVG/1.1/DTD/svg11.dtd">
<!-- Generated by graphviz version 2.43.0 (0)
 -->
<!-- Title: Graphical Class Hierarchy Pages: 1 -->
<svg width="603pt" height="310pt"
 viewBox="0.00 0.00 603.00 310.00" xmlns="http://www.w3.org/2000/svg" xmlns:xlink="http://www.w3.org/1999/xlink">
<g id="graph0" class="graph" transform="scale(1 1) rotate(0) translate(4 306)">
<title>Graphical Class Hierarchy</title>
<!-- Node0 -->
<g id="Node000000" class="node">
<title>Node0</title>
<g id="a_Node000000"><a xlink:href="classpsr_1_1IDESolverAPIMixin.html" target="_top" xlink:title=" ">
<polygon fill="white" stroke="#666666" points="128,-167 0,-167 0,-137 128,-137 128,-167"/>
<text text-anchor="start" x="8" y="-155" font-family="Helvetica,sans-Serif" font-size="10.00">psr::IDESolverAPIMixin</text>
<text text-anchor="middle" x="64" y="-144" font-family="Helvetica,sans-Serif" font-size="10.00">&lt; Derived &gt;</text>
</a>
</g>
</g>
<!-- Node1 -->
<g id="Node000001" class="node">
<title>Node1</title>
<g id="a_Node000001"><a xlink:href="classpsr_1_1IDESolver.html" target="_top" xlink:title=" ">
<polygon fill="white" stroke="#666666" points="377,-302 164,-302 164,-250 377,-250 377,-302"/>
<text text-anchor="start" x="172" y="-290" font-family="Helvetica,sans-Serif" font-size="10.00">psr::IDESolver&lt; WithBinary</text>
<text text-anchor="start" x="172" y="-279" font-family="Helvetica,sans-Serif" font-size="10.00">ValueDomain&lt; AnalysisDomainTy</text>
<text text-anchor="start" x="172" y="-268" font-family="Helvetica,sans-Serif" font-size="10.00"> &gt;, std::set&lt; typename AnalysisDomain</text>
<text text-anchor="middle" x="270.5" y="-257" font-family="Helvetica,sans-Serif" font-size="10.00">Ty::d_t &gt; &gt;</text>
</a>
</g>
</g>
<!-- Node0&#45;&gt;Node1 -->
<g id="edge261_Node000000_Node000001" class="edge">
<title>Node0&#45;&gt;Node1</title>
<g id="a_edge261_Node000000_Node000001"><a xlink:title=" ">
<path fill="none" stroke="#63b8ff" d="M85.11,-174.76C103.8,-194.69 133.3,-223.17 164,-241 169.51,-244.2 175.35,-247.15 181.34,-249.88"/>
<polygon fill="#63b8ff" stroke="#63b8ff" points="87.61,-172.31 78.26,-167.33 82.46,-177.05 87.61,-172.31"/>
</a>
</g>
</g>
<!-- Node2 -->
<g id="Node000002" class="node">
<title>Node2</title>
<g id="a_Node000002"><a xlink:href="classpsr_1_1IDESolver.html" target="_top" xlink:title=" ">
<polygon fill="white" stroke="#666666" points="354.5,-231.5 186.5,-231.5 186.5,-190.5 354.5,-190.5 354.5,-231.5"/>
<text text-anchor="start" x="194.5" y="-219.5" font-family="Helvetica,sans-Serif" font-size="10.00">psr::IDESolver&lt; Analysis</text>
<text text-anchor="start" x="194.5" y="-208.5" font-family="Helvetica,sans-Serif" font-size="10.00">DomainTy, std::set&lt; typename</text>
<text text-anchor="middle" x="270.5" y="-197.5" font-family="Helvetica,sans-Serif" font-size="10.00"> AnalysisDomainTy::d_t &gt; &gt;</text>
</a>
</g>
</g>
<!-- Node0&#45;&gt;Node2 -->
<g id="edge262_Node000000_Node000002" class="edge">
<title>Node0&#45;&gt;Node2</title>
<g id="a_edge262_Node000000_Node000002"><a xlink:title=" ">
<path fill="none" stroke="#63b8ff" d="M123.71,-170.07C136.94,-174.06 150.94,-178.23 164,-182 173.67,-184.79 183.86,-187.67 193.94,-190.49"/>
<polygon fill="#63b8ff" stroke="#63b8ff" points="124.35,-166.6 113.77,-167.05 122.32,-173.3 124.35,-166.6"/>
</a>
</g>
</g>
<!-- Node3 -->
<g id="Node000003" class="node">
<title>Node3</title>
<g id="a_Node000003"><a xlink:href="classpsr_1_1IDESolver.html" target="_top" xlink:title=" ">
<polygon fill="white" stroke="#666666" points="375,-172.5 166,-172.5 166,-131.5 375,-131.5 375,-172.5"/>
<text text-anchor="start" x="174" y="-160.5" font-family="Helvetica,sans-Serif" font-size="10.00">psr::IDESolver&lt; psr</text>
<text text-anchor="start" x="174" y="-149.5" font-family="Helvetica,sans-Serif" font-size="10.00">::IDETypeStateAnalysisDomain</text>
<text text-anchor="middle" x="270.5" y="-138.5" font-family="Helvetica,sans-Serif" font-size="10.00">&lt; psr::OpenSSLEVPKDFDescription &gt; &gt;</text>
</a>
</g>
</g>
<!-- Node0&#45;&gt;Node3 -->
<g id="edge263_Node000000_Node000003" class="edge">
<title>Node0&#45;&gt;Node3</title>
<g id="a_edge263_Node000000_Node000003"><a xlink:title=" ">
<path fill="none" stroke="#63b8ff" d="M138.31,-152C147.21,-152 156.43,-152 165.66,-152"/>
<polygon fill="#63b8ff" stroke="#63b8ff" points="138.03,-148.5 128.03,-152 138.03,-155.5 138.03,-148.5"/>
</a>
</g>
</g>
<!-- Node4 -->
<g id="Node000004" class="node">
<title>Node4</title>
<g id="a_Node000004"><a xlink:href="classpsr_1_1IDESolver.html" target="_top" xlink:title=" ">
<polygon fill="white" stroke="#666666" points="348.5,-113.5 192.5,-113.5 192.5,-72.5 348.5,-72.5 348.5,-113.5"/>
<text text-anchor="start" x="200.5" y="-101.5" font-family="Helvetica,sans-Serif" font-size="10.00">psr::IDESolver&lt; psr</text>
<text text-anchor="start" x="200.5" y="-90.5" font-family="Helvetica,sans-Serif" font-size="10.00">::IDESecureHeapPropagation</text>
<text text-anchor="middle" x="270.5" y="-79.5" font-family="Helvetica,sans-Serif" font-size="10.00">AnalysisDomain &gt;</text>
</a>
</g>
</g>
<!-- Node0&#45;&gt;Node4 -->
<g id="edge264_Node000000_Node000004" class="edge">
<title>Node0&#45;&gt;Node4</title>
<g id="a_edge264_Node000000_Node000004"><a xlink:title=" ">
<path fill="none" stroke="#63b8ff" d="M126.02,-134.04C138.58,-130.37 151.71,-126.55 164,-123 174.7,-119.91 186.02,-116.67 197.12,-113.5"/>
<polygon fill="#63b8ff" stroke="#63b8ff" points="124.72,-130.78 116.11,-136.95 126.69,-137.5 124.72,-130.78"/>
</a>
</g>
</g>
<!-- Node5 -->
<g id="Node000005" class="node">
<title>Node5</title>
<g id="a_Node000005"><a xlink:href="classpsr_1_1IDESolver.html" target="_top" xlink:title=" ">
<polygon fill="white" stroke="#666666" points="339,-54 202,-54 202,-24 339,-24 339,-54"/>
<text text-anchor="start" x="210" y="-42" font-family="Helvetica,sans-Serif" font-size="10.00">psr::IDESolver&lt; Analysis</text>
<text text-anchor="middle" x="270.5" y="-31" font-family="Helvetica,sans-Serif" font-size="10.00">DomainTy, Container &gt;</text>
</a>
</g>
</g>
<!-- Node0&#45;&gt;Node5 -->
<g id="edge265_Node000000_Node000005" class="edge">
<title>Node0&#45;&gt;Node5</title>
<g id="a_edge265_Node000000_Node000005"><a xlink:title=" ">
<path fill="none" stroke="#63b8ff" d="M84.49,-129.2C102.95,-109.05 132.48,-80.39 164,-64 175.69,-57.92 188.87,-53.3 201.86,-49.79"/>
<polygon fill="#63b8ff" stroke="#63b8ff" points="81.81,-126.94 77.74,-136.72 87.02,-131.61 81.81,-126.94"/>
</a>
</g>
</g>
<!-- Node6 -->
<g id="Node000006" class="node">
<title>Node6</title>
<g id="a_Node000006"><a xlink:href="classpsr_1_1IFDSSolver.html" target="_top" xlink:title="Solves the given IFDSTabulationProblem as described in the 1995 paper by Reps, Horwitz and Sagiv....">
<polygon fill="white" stroke="#666666" points="575.5,-78 432.5,-78 432.5,-48 575.5,-48 575.5,-78"/>
<text text-anchor="start" x="440.5" y="-66" font-family="Helvetica,sans-Serif" font-size="10.00">psr::IFDSSolver&lt; Analysis</text>
<text text-anchor="middle" x="504" y="-55" font-family="Helvetica,sans-Serif" font-size="10.00">DomainTy, Container &gt;</text>
</a>
</g>
</g>
<!-- Node5&#45;&gt;Node6 -->
<g id="edge266_Node000005_Node000006" class="edge">
<title>Node5&#45;&gt;Node6</title>
<g id="a_edge266_Node000005_Node000006"><a xlink:title=" ">
<path fill="none" stroke="#63b8ff" d="M349.19,-47.05C376,-49.83 405.87,-52.93 432.11,-55.65"/>
<polygon fill="#63b8ff" stroke="#63b8ff" points="349.39,-43.56 339.08,-46.01 348.67,-50.52 349.39,-43.56"/>
</a>
</g>
</g>
<!-- Node7 -->
<g id="Node000007" class="node">
<title>Node7</title>
<g id="a_Node000007"><a xlink:href="classpsr_1_1PathAwareIDESolver.html" target="_top" xlink:title=" ">
<polygon fill="white" stroke="#666666" points="595,-30 413,-30 413,0 595,0 595,-30"/>
<text text-anchor="start" x="421" y="-18" font-family="Helvetica,sans-Serif" font-size="10.00">psr::PathAwareIDESolver</text>
<text text-anchor="middle" x="504" y="-7" font-family="Helvetica,sans-Serif" font-size="10.00">&lt; AnalysisDomainTy, Container &gt;</text>
</a>
</g>
</g>
<!-- Node5&#45;&gt;Node7 -->
<g id="edge267_Node000005_Node000007" class="edge">
<title>Node5&#45;&gt;Node7</title>
<g id="a_edge267_Node000005_Node000007"><a xlink:title=" ">
<path fill="none" stroke="#63b8ff" d="M349.27,-30.94C369.71,-28.82 391.92,-26.52 412.94,-24.34"/>
<polygon fill="#63b8ff" stroke="#63b8ff" points="348.67,-27.48 339.08,-31.99 349.39,-34.44 348.67,-27.48"/>
</a>
</g>
</g>
</g>
</svg>
