<?xml version="1.0" encoding="UTF-8" standalone="no"?>
<!DOCTYPE svg PUBLIC "-//W3C//DTD SVG 1.1//EN"
 "http://www.w3.org/Graphics/SVG/1.1/DTD/svg11.dtd">
<!-- Generated by graphviz version 2.43.0 (0)
 -->
<!-- Title: llvm::CastInfo&lt; To, psr::EdgeFunction&lt; L &gt; &gt; Pages: 1 -->
<svg width="370pt" height="168pt"
 viewBox="0.00 0.00 370.00 167.50" xmlns="http://www.w3.org/2000/svg" xmlns:xlink="http://www.w3.org/1999/xlink">
<g id="graph0" class="graph" transform="scale(1 1) rotate(0) translate(4 163.5)">
<title>llvm::CastInfo&lt; To, psr::EdgeFunction&lt; L &gt; &gt;</title>
<!-- Node1 -->
<g id="Node000001" class="node">
<title>Node1</title>
<g id="a_Node000001"><a xlink:title=" ">
<polygon fill="#999999" stroke="#666666" points="362,-100 217,-100 217,-70 362,-70 362,-100"/>
<text text-anchor="start" x="225" y="-88" font-family="Helvetica,sans-Serif" font-size="10.00">llvm::CastInfo&lt; To,</text>
<text text-anchor="middle" x="289.5" y="-77" font-family="Helvetica,sans-Serif" font-size="10.00"> psr::EdgeFunction&lt; L &gt; &gt;</text>
</a>
</g>
</g>
<!-- Node2 -->
<g id="Node000002" class="node">
<title>Node2</title>
<g id="a_Node000002"><a xlink:href="structllvm_1_1CastIsPossible_3_01To_00_01psr_1_1EdgeFunction_3_01L_01_4_01_4.html" target="_top" xlink:title=" ">
<polygon fill="white" stroke="#666666" points="156,-159.5 25,-159.5 25,-118.5 156,-118.5 156,-159.5"/>
<text text-anchor="start" x="33" y="-147.5" font-family="Helvetica,sans-Serif" font-size="10.00">llvm::CastIsPossible</text>
<text text-anchor="start" x="33" y="-136.5" font-family="Helvetica,sans-Serif" font-size="10.00">&lt; To, psr::EdgeFunction</text>
<text text-anchor="middle" x="90.5" y="-125.5" font-family="Helvetica,sans-Serif" font-size="10.00">&lt; L &gt; &gt;</text>
</a>
</g>
</g>
<!-- Node2&#45;&gt;Node1 -->
<g id="edge1_Node000001_Node000002" class="edge">
<title>Node2&#45;&gt;Node1</title>
<g id="a_edge1_Node000001_Node000002"><a xlink:title=" ">
<path fill="none" stroke="#63b8ff" d="M165.88,-118.61C188.42,-112.43 212.75,-105.76 233.76,-100.01"/>
<polygon fill="#63b8ff" stroke="#63b8ff" points="164.72,-115.3 156.01,-121.32 166.57,-122.05 164.72,-115.3"/>
</a>
</g>
</g>
<!-- Node3 -->
<g id="Node000003" class="node">
<title>Node3</title>
<g id="a_Node000003"><a xlink:href="classNullableValueCastFailed.html" target="_top" xlink:title=" ">
<polygon fill="white" stroke="#666666" points="157.5,-100 23.5,-100 23.5,-70 157.5,-70 157.5,-100"/>
<text text-anchor="start" x="31.5" y="-88" font-family="Helvetica,sans-Serif" font-size="10.00">NullableValueCastFailed</text>
<text text-anchor="middle" x="90.5" y="-77" font-family="Helvetica,sans-Serif" font-size="10.00">&lt; const To * &gt;</text>
</a>
</g>
</g>
<!-- Node3&#45;&gt;Node1 -->
<g id="edge2_Node000001_Node000003" class="edge">
<title>Node3&#45;&gt;Node1</title>
<g id="a_edge2_Node000001_Node000003"><a xlink:title=" ">
<path fill="none" stroke="#63b8ff" d="M168.05,-85C184.08,-85 200.93,-85 216.78,-85"/>
<polygon fill="#63b8ff" stroke="#63b8ff" points="167.65,-81.5 157.65,-85 167.65,-88.5 167.65,-81.5"/>
</a>
</g>
</g>
<!-- Node4 -->
<g id="Node000004" class="node">
<title>Node4</title>
<g id="a_Node000004"><a xlink:href="classDefaultDoCastIfPossible.html" target="_top" xlink:title=" ">
<polygon fill="white" stroke="#666666" points="181,-52 0,-52 0,0 181,0 181,-52"/>
<text text-anchor="start" x="8" y="-40" font-family="Helvetica,sans-Serif" font-size="10.00">DefaultDoCastIfPossible</text>
<text text-anchor="start" x="8" y="-29" font-family="Helvetica,sans-Serif" font-size="10.00">&lt; const To *, const psr</text>
<text text-anchor="start" x="8" y="-18" font-family="Helvetica,sans-Serif" font-size="10.00">::EdgeFunction&lt; L &gt; &amp;, CastInfo</text>
<text text-anchor="middle" x="90.5" y="-7" font-family="Helvetica,sans-Serif" font-size="10.00">&lt; To, psr::EdgeFunction&lt; L &gt; &gt; &gt;</text>
</a>
</g>
</g>
<!-- Node4&#45;&gt;Node1 -->
<g id="edge3_Node000001_Node000004" class="edge">
<title>Node4&#45;&gt;Node1</title>
<g id="a_edge3_Node000001_Node000004"><a xlink:title=" ">
<path fill="none" stroke="#63b8ff" d="M188.08,-54.93C205.4,-60.11 222.81,-65.33 238.14,-69.92"/>
<polygon fill="#63b8ff" stroke="#63b8ff" points="189.06,-51.57 178.48,-52.05 187.06,-58.27 189.06,-51.57"/>
</a>
</g>
</g>
</g>
</svg>
