<?xml version="1.0" encoding="UTF-8" standalone="no"?>
<!DOCTYPE svg PUBLIC "-//W3C//DTD SVG 1.1//EN"
 "http://www.w3.org/Graphics/SVG/1.1/DTD/svg11.dtd">
<!-- Generated by graphviz version 2.43.0 (0)
 -->
<!-- Title: psr::XTaint::ComposeEdgeFunction Pages: 1 -->
<svg width="188pt" height="171pt"
 viewBox="0.00 0.00 188.00 171.00" xmlns="http://www.w3.org/2000/svg" xmlns:xlink="http://www.w3.org/1999/xlink">
<g id="graph0" class="graph" transform="scale(1 1) rotate(0) translate(4 167)">
<title>psr::XTaint::ComposeEdgeFunction</title>
<!-- Node1 -->
<g id="Node000001" class="node">
<title>Node1</title>
<g id="a_Node000001"><a xlink:title=" ">
<polygon fill="#999999" stroke="#666666" points="161.5,-30 18.5,-30 18.5,0 161.5,0 161.5,-30"/>
<text text-anchor="start" x="26.5" y="-18" font-family="Helvetica,sans-Serif" font-size="10.00">psr::XTaint::ComposeEdge</text>
<text text-anchor="middle" x="90" y="-7" font-family="Helvetica,sans-Serif" font-size="10.00">Function</text>
</a>
</g>
</g>
<!-- Node2 -->
<g id="Node000002" class="node">
<title>Node2</title>
<g id="a_Node000002"><a xlink:href="structpsr_1_1EdgeFunctionComposer.html" target="_top" xlink:title=" ">
<polygon fill="white" stroke="#666666" points="166,-97 14,-97 14,-67 166,-67 166,-97"/>
<text text-anchor="start" x="22" y="-85" font-family="Helvetica,sans-Serif" font-size="10.00">psr::EdgeFunctionComposer</text>
<text text-anchor="middle" x="90" y="-74" font-family="Helvetica,sans-Serif" font-size="10.00">&lt; EdgeDomain &gt;</text>
</a>
</g>
</g>
<!-- Node2&#45;&gt;Node1 -->
<g id="edge1_Node000001_Node000002" class="edge">
<title>Node2&#45;&gt;Node1</title>
<g id="a_edge1_Node000001_Node000002"><a xlink:title=" ">
<path fill="none" stroke="#63b8ff" d="M90,-56.61C90,-47.65 90,-37.82 90,-30.08"/>
<polygon fill="#63b8ff" stroke="#63b8ff" points="86.5,-56.9 90,-66.9 93.5,-56.9 86.5,-56.9"/>
</a>
</g>
</g>
<!-- Node3 -->
<g id="Node000003" class="node">
<title>Node3</title>
<g id="a_Node000003"><a xlink:href="structpsr_1_1EdgeFunctionComposer.html" target="_top" xlink:title=" ">
<polygon fill="white" stroke="#666666" points="180,-163 0,-163 0,-144 180,-144 180,-163"/>
<text text-anchor="middle" x="90" y="-151" font-family="Helvetica,sans-Serif" font-size="10.00">psr::EdgeFunctionComposer&lt; L &gt;</text>
</a>
</g>
</g>
<!-- Node3&#45;&gt;Node2 -->
<g id="edge2_Node000002_Node000003" class="edge">
<title>Node3&#45;&gt;Node2</title>
<g id="a_edge2_Node000002_Node000003"><a xlink:title=" ">
<path fill="none" stroke="orange" stroke-dasharray="5,2" d="M90,-133.71C90,-122.19 90,-107.68 90,-97.14"/>
<polygon fill="orange" stroke="orange" points="86.5,-133.98 90,-143.98 93.5,-133.98 86.5,-133.98"/>
</a>
</g>
<text text-anchor="middle" x="134" y="-118" font-family="Helvetica,sans-Serif" font-size="10.00" fill="grey"> &lt; EdgeDomain &gt;</text>
</g>
</g>
</svg>
