<?xml version="1.0" encoding="UTF-8" standalone="no"?>
<!DOCTYPE svg PUBLIC "-//W3C//DTD SVG 1.1//EN"
 "http://www.w3.org/Graphics/SVG/1.1/DTD/svg11.dtd">
<!-- Generated by graphviz version 2.43.0 (0)
 -->
<!-- Title: psr::XTaint::TransferEdgeFunction Pages: 1 -->
<svg width="222pt" height="182pt"
 viewBox="0.00 0.00 221.50 182.00" xmlns="http://www.w3.org/2000/svg" xmlns:xlink="http://www.w3.org/1999/xlink">
<g id="graph0" class="graph" transform="scale(1 1) rotate(0) translate(4 178)">
<title>psr::XTaint::TransferEdgeFunction</title>
<!-- Node1 -->
<g id="Node000001" class="node">
<title>Node1</title>
<g id="a_Node000001"><a xlink:title=" ">
<polygon fill="#999999" stroke="#666666" points="152,-30 15,-30 15,0 152,0 152,-30"/>
<text text-anchor="start" x="23" y="-18" font-family="Helvetica,sans-Serif" font-size="10.00">psr::XTaint::TransferEdge</text>
<text text-anchor="middle" x="83.5" y="-7" font-family="Helvetica,sans-Serif" font-size="10.00">Function</text>
</a>
</g>
</g>
<!-- Node2 -->
<g id="Node000002" class="node">
<title>Node2</title>
<g id="a_Node000002"><a xlink:href="structpsr_1_1XTaint_1_1EdgeFunctionBase.html" target="_top" xlink:title=" ">
<polygon fill="white" stroke="#666666" points="167,-97 0,-97 0,-67 167,-67 167,-97"/>
<text text-anchor="start" x="8" y="-85" font-family="Helvetica,sans-Serif" font-size="10.00">psr::XTaint::EdgeFunction</text>
<text text-anchor="middle" x="83.5" y="-74" font-family="Helvetica,sans-Serif" font-size="10.00">Base&lt; TransferEdgeFunction &gt;</text>
</a>
</g>
</g>
<!-- Node2&#45;&gt;Node1 -->
<g id="edge1_Node000001_Node000002" class="edge">
<title>Node2&#45;&gt;Node1</title>
<g id="a_edge1_Node000001_Node000002"><a xlink:title=" ">
<path fill="none" stroke="#63b8ff" d="M83.5,-56.61C83.5,-47.65 83.5,-37.82 83.5,-30.08"/>
<polygon fill="#63b8ff" stroke="#63b8ff" points="80,-56.9 83.5,-66.9 87,-56.9 80,-56.9"/>
</a>
</g>
</g>
<!-- Node3 -->
<g id="Node000003" class="node">
<title>Node3</title>
<g id="a_Node000003"><a xlink:href="structpsr_1_1XTaint_1_1EdgeFunctionBase.html" target="_top" xlink:title=" ">
<polygon fill="white" stroke="#666666" points="153,-174 14,-174 14,-144 153,-144 153,-174"/>
<text text-anchor="start" x="22" y="-162" font-family="Helvetica,sans-Serif" font-size="10.00">psr::XTaint::EdgeFunction</text>
<text text-anchor="middle" x="83.5" y="-151" font-family="Helvetica,sans-Serif" font-size="10.00">Base&lt; Derived &gt;</text>
</a>
</g>
</g>
<!-- Node3&#45;&gt;Node2 -->
<g id="edge2_Node000002_Node000003" class="edge">
<title>Node3&#45;&gt;Node2</title>
<g id="a_edge2_Node000002_Node000003"><a xlink:title=" ">
<path fill="none" stroke="orange" stroke-dasharray="5,2" d="M83.5,-133.54C83.5,-121.45 83.5,-107.29 83.5,-97.04"/>
<polygon fill="orange" stroke="orange" points="80,-133.89 83.5,-143.89 87,-133.89 80,-133.89"/>
</a>
</g>
<text text-anchor="middle" x="148.5" y="-118" font-family="Helvetica,sans-Serif" font-size="10.00" fill="grey"> &lt; TransferEdgeFunction &gt;</text>
</g>
</g>
</svg>
