<?xml version="1.0" encoding="UTF-8" standalone="no"?>
<!DOCTYPE svg PUBLIC "-//W3C//DTD SVG 1.1//EN"
 "http://www.w3.org/Graphics/SVG/1.1/DTD/svg11.dtd">
<!-- Generated by graphviz version 2.43.0 (0)
 -->
<!-- Title: psr::EdgeFunctionComposer&lt; L &gt; Pages: 1 -->
<svg width="745pt" height="134pt"
 viewBox="0.00 0.00 745.00 134.00" xmlns="http://www.w3.org/2000/svg" xmlns:xlink="http://www.w3.org/1999/xlink">
<g id="graph0" class="graph" transform="scale(1 1) rotate(0) translate(4 130)">
<title>psr::EdgeFunctionComposer&lt; L &gt;</title>
<!-- Node1 -->
<g id="Node000001" class="node">
<title>Node1</title>
<g id="a_Node000001"><a xlink:title=" ">
<polygon fill="#999999" stroke="#666666" points="180,-72.5 0,-72.5 0,-53.5 180,-53.5 180,-72.5"/>
<text text-anchor="middle" x="90" y="-60.5" font-family="Helvetica,sans-Serif" font-size="10.00">psr::EdgeFunctionComposer&lt; L &gt;</text>
</a>
</g>
</g>
<!-- Node2 -->
<g id="Node000002" class="node">
<title>Node2</title>
<g id="a_Node000002"><a xlink:href="structpsr_1_1EdgeFunctionComposer.html" target="_top" xlink:title=" ">
<polygon fill="white" stroke="#666666" points="533.5,-126 381.5,-126 381.5,-96 533.5,-96 533.5,-126"/>
<text text-anchor="start" x="389.5" y="-114" font-family="Helvetica,sans-Serif" font-size="10.00">psr::EdgeFunctionComposer</text>
<text text-anchor="middle" x="457.5" y="-103" font-family="Helvetica,sans-Serif" font-size="10.00">&lt; l_t &gt;</text>
</a>
</g>
</g>
<!-- Node1&#45;&gt;Node2 -->
<g id="edge1_Node000001_Node000002" class="edge">
<title>Node1&#45;&gt;Node2</title>
<g id="a_edge1_Node000001_Node000002"><a xlink:title=" ">
<path fill="none" stroke="orange" stroke-dasharray="5,2" d="M168.06,-73.92C178.13,-75.31 188.31,-76.7 198,-78 259.66,-86.26 329.66,-95.16 381.25,-101.64"/>
<polygon fill="orange" stroke="orange" points="168.44,-70.44 158.05,-72.53 167.47,-77.37 168.44,-70.44"/>
</a>
</g>
<text text-anchor="middle" x="271.5" y="-99" font-family="Helvetica,sans-Serif" font-size="10.00" fill="grey"> &lt; l_t &gt;</text>
</g>
<!-- Node3 -->
<g id="Node000003" class="node">
<title>Node3</title>
<g id="a_Node000003"><a xlink:href="structpsr_1_1EdgeFunctionComposer.html" target="_top" xlink:title=" ">
<polygon fill="white" stroke="#666666" points="533.5,-78 381.5,-78 381.5,-48 533.5,-48 533.5,-78"/>
<text text-anchor="start" x="389.5" y="-66" font-family="Helvetica,sans-Serif" font-size="10.00">psr::EdgeFunctionComposer</text>
<text text-anchor="middle" x="457.5" y="-55" font-family="Helvetica,sans-Serif" font-size="10.00">&lt; EdgeDomain &gt;</text>
</a>
</g>
</g>
<!-- Node1&#45;&gt;Node3 -->
<g id="edge2_Node000001_Node000003" class="edge">
<title>Node1&#45;&gt;Node3</title>
<g id="a_edge2_Node000001_Node000003"><a xlink:title=" ">
<path fill="none" stroke="orange" stroke-dasharray="5,2" d="M190.69,-63C250.8,-63 326.15,-63 381.26,-63"/>
<polygon fill="orange" stroke="orange" points="190.41,-59.5 180.41,-63 190.41,-66.5 190.41,-59.5"/>
</a>
</g>
<text text-anchor="middle" x="271.5" y="-66" font-family="Helvetica,sans-Serif" font-size="10.00" fill="grey"> &lt; EdgeDomain &gt;</text>
</g>
<!-- Node5 -->
<g id="Node000005" class="node">
<title>Node5</title>
<g id="a_Node000005"><a xlink:href="structpsr_1_1EdgeFunctionComposer.html" target="_top" xlink:title=" ">
<polygon fill="white" stroke="#666666" points="552,-30 363,-30 363,0 552,0 552,-30"/>
<text text-anchor="start" x="371" y="-18" font-family="Helvetica,sans-Serif" font-size="10.00">psr::EdgeFunctionComposer</text>
<text text-anchor="middle" x="457.5" y="-7" font-family="Helvetica,sans-Serif" font-size="10.00">&lt; IDEGeneralizedLCADomain::l_t &gt;</text>
</a>
</g>
</g>
<!-- Node1&#45;&gt;Node5 -->
<g id="edge4_Node000001_Node000005" class="edge">
<title>Node1&#45;&gt;Node5</title>
<g id="a_edge4_Node000001_Node000005"><a xlink:title=" ">
<path fill="none" stroke="orange" stroke-dasharray="5,2" d="M134.21,-50.9C153.58,-45.89 176.79,-40.46 198,-37 252.23,-28.16 313.48,-22.75 362.75,-19.5"/>
<polygon fill="orange" stroke="orange" points="133.24,-47.54 124.46,-53.47 135.02,-54.3 133.24,-47.54"/>
</a>
</g>
<text text-anchor="start" x="198" y="-51" font-family="Helvetica,sans-Serif" font-size="10.00" fill="grey"> &lt; IDEGeneralizedLCADomain</text>
<text text-anchor="middle" x="271.5" y="-40" font-family="Helvetica,sans-Serif" font-size="10.00" fill="grey">::l_t &gt;</text>
</g>
<!-- Node4 -->
<g id="Node000004" class="node">
<title>Node4</title>
<g id="a_Node000004"><a xlink:href="structpsr_1_1XTaint_1_1ComposeEdgeFunction.html" target="_top" xlink:title=" ">
<polygon fill="white" stroke="#666666" points="734.5,-78 591.5,-78 591.5,-48 734.5,-48 734.5,-78"/>
<text text-anchor="start" x="599.5" y="-66" font-family="Helvetica,sans-Serif" font-size="10.00">psr::XTaint::ComposeEdge</text>
<text text-anchor="middle" x="663" y="-55" font-family="Helvetica,sans-Serif" font-size="10.00">Function</text>
</a>
</g>
</g>
<!-- Node3&#45;&gt;Node4 -->
<g id="edge3_Node000003_Node000004" class="edge">
<title>Node3&#45;&gt;Node4</title>
<g id="a_edge3_Node000003_Node000004"><a xlink:title=" ">
<path fill="none" stroke="#63b8ff" d="M544,-63C559.82,-63 576.18,-63 591.5,-63"/>
<polygon fill="#63b8ff" stroke="#63b8ff" points="543.7,-59.5 533.7,-63 543.7,-66.5 543.7,-59.5"/>
</a>
</g>
</g>
<!-- Node6 -->
<g id="Node000006" class="node">
<title>Node6</title>
<g id="a_Node000006"><a xlink:href="structpsr_1_1glca_1_1LCAEdgeFunctionComposer.html" target="_top" xlink:title=" ">
<polygon fill="white" stroke="#666666" points="737,-30 589,-30 589,0 737,0 737,-30"/>
<text text-anchor="start" x="597" y="-18" font-family="Helvetica,sans-Serif" font-size="10.00">psr::glca::LCAEdgeFunction</text>
<text text-anchor="middle" x="663" y="-7" font-family="Helvetica,sans-Serif" font-size="10.00">Composer</text>
</a>
</g>
</g>
<!-- Node5&#45;&gt;Node6 -->
<g id="edge5_Node000005_Node000006" class="edge">
<title>Node5&#45;&gt;Node6</title>
<g id="a_edge5_Node000005_Node000006"><a xlink:title=" ">
<path fill="none" stroke="#63b8ff" d="M562.33,-15C571.29,-15 580.24,-15 588.88,-15"/>
<polygon fill="#63b8ff" stroke="#63b8ff" points="562.21,-11.5 552.21,-15 562.21,-18.5 562.21,-11.5"/>
</a>
</g>
</g>
</g>
</svg>
