<?xml version="1.0" encoding="UTF-8" standalone="no"?>
<!DOCTYPE svg PUBLIC "-//W3C//DTD SVG 1.1//EN"
 "http://www.w3.org/Graphics/SVG/1.1/DTD/svg11.dtd">
<!-- Generated by graphviz version 2.43.0 (0)
 -->
<!-- Title: psr::PathSensitivityConfigBase&lt; DerivedConfig &gt; Pages: 1 -->
<svg width="714pt" height="86pt"
 viewBox="0.00 0.00 714.00 86.00" xmlns="http://www.w3.org/2000/svg" xmlns:xlink="http://www.w3.org/1999/xlink">
<g id="graph0" class="graph" transform="scale(1 1) rotate(0) translate(4 82)">
<title>psr::PathSensitivityConfigBase&lt; DerivedConfig &gt;</title>
<!-- Node1 -->
<g id="Node000001" class="node">
<title>Node1</title>
<g id="a_Node000001"><a xlink:title=" ">
<polygon fill="#999999" stroke="#666666" points="141,-53 0,-53 0,-23 141,-23 141,-53"/>
<text text-anchor="start" x="8" y="-41" font-family="Helvetica,sans-Serif" font-size="10.00">psr::PathSensitivityConfig</text>
<text text-anchor="middle" x="70.5" y="-30" font-family="Helvetica,sans-Serif" font-size="10.00">Base&lt; DerivedConfig &gt;</text>
</a>
</g>
</g>
<!-- Node2 -->
<g id="Node000002" class="node">
<title>Node2</title>
<g id="a_Node000002"><a xlink:href="structpsr_1_1PathSensitivityConfigBase.html" target="_top" xlink:title=" ">
<polygon fill="white" stroke="#666666" points="495,-78 328,-78 328,-48 495,-48 495,-78"/>
<text text-anchor="start" x="336" y="-66" font-family="Helvetica,sans-Serif" font-size="10.00">psr::PathSensitivityConfig</text>
<text text-anchor="middle" x="411.5" y="-55" font-family="Helvetica,sans-Serif" font-size="10.00">Base&lt; PathSensitivityConfig &gt;</text>
</a>
</g>
</g>
<!-- Node1&#45;&gt;Node2 -->
<g id="edge1_Node000001_Node000002" class="edge">
<title>Node1&#45;&gt;Node2</title>
<g id="a_edge1_Node000001_Node000002"><a xlink:title=" ">
<path fill="none" stroke="orange" stroke-dasharray="5,2" d="M151.39,-43.89C204.55,-47.81 274.21,-52.95 327.91,-56.91"/>
<polygon fill="orange" stroke="orange" points="151.56,-40.39 141.33,-43.15 151.05,-47.38 151.56,-40.39"/>
</a>
</g>
<text text-anchor="middle" x="224" y="-56" font-family="Helvetica,sans-Serif" font-size="10.00" fill="grey"> &lt; PathSensitivityConfig &gt;</text>
</g>
<!-- Node4 -->
<g id="Node000004" class="node">
<title>Node4</title>
<g id="a_Node000004"><a xlink:href="structpsr_1_1PathSensitivityConfigBase.html" target="_top" xlink:title=" ">
<polygon fill="white" stroke="#666666" points="516,-30 307,-30 307,0 516,0 516,-30"/>
<text text-anchor="start" x="315" y="-18" font-family="Helvetica,sans-Serif" font-size="10.00">psr::PathSensitivityConfig</text>
<text text-anchor="middle" x="411.5" y="-7" font-family="Helvetica,sans-Serif" font-size="10.00">Base&lt; Z3BasedPathSensitivityConfig &gt;</text>
</a>
</g>
</g>
<!-- Node1&#45;&gt;Node4 -->
<g id="edge3_Node000001_Node000004" class="edge">
<title>Node1&#45;&gt;Node4</title>
<g id="a_edge3_Node000001_Node000004"><a xlink:title=" ">
<path fill="none" stroke="orange" stroke-dasharray="5,2" d="M139.71,-20.94C146.2,-19.76 152.7,-18.75 159,-18 207.35,-12.25 261.29,-10.94 306.78,-11.3"/>
<polygon fill="orange" stroke="orange" points="138.71,-17.57 129.56,-22.92 140.04,-24.44 138.71,-17.57"/>
</a>
</g>
<text text-anchor="start" x="159" y="-32" font-family="Helvetica,sans-Serif" font-size="10.00" fill="grey"> &lt; Z3BasedPathSensitivity</text>
<text text-anchor="middle" x="224" y="-21" font-family="Helvetica,sans-Serif" font-size="10.00" fill="grey">Config &gt;</text>
</g>
<!-- Node3 -->
<g id="Node000003" class="node">
<title>Node3</title>
<g id="a_Node000003"><a xlink:href="structpsr_1_1PathSensitivityConfig.html" target="_top" xlink:title=" ">
<polygon fill="white" stroke="#666666" points="700,-72.5 559,-72.5 559,-53.5 700,-53.5 700,-72.5"/>
<text text-anchor="middle" x="629.5" y="-60.5" font-family="Helvetica,sans-Serif" font-size="10.00">psr::PathSensitivityConfig</text>
</a>
</g>
</g>
<!-- Node2&#45;&gt;Node3 -->
<g id="edge2_Node000002_Node000003" class="edge">
<title>Node2&#45;&gt;Node3</title>
<g id="a_edge2_Node000002_Node000003"><a xlink:title=" ">
<path fill="none" stroke="#63b8ff" d="M505.3,-63C523.3,-63 541.87,-63 558.97,-63"/>
<polygon fill="#63b8ff" stroke="#63b8ff" points="505.08,-59.5 495.08,-63 505.08,-66.5 505.08,-59.5"/>
</a>
</g>
</g>
<!-- Node5 -->
<g id="Node000005" class="node">
<title>Node5</title>
<g id="a_Node000005"><a xlink:href="structpsr_1_1Z3BasedPathSensitivityConfig.html" target="_top" xlink:title=" ">
<polygon fill="white" stroke="#666666" points="706,-30 553,-30 553,0 706,0 706,-30"/>
<text text-anchor="start" x="561" y="-18" font-family="Helvetica,sans-Serif" font-size="10.00">psr::Z3BasedPathSensitivity</text>
<text text-anchor="middle" x="629.5" y="-7" font-family="Helvetica,sans-Serif" font-size="10.00">Config</text>
</a>
</g>
</g>
<!-- Node4&#45;&gt;Node5 -->
<g id="edge4_Node000004_Node000005" class="edge">
<title>Node4&#45;&gt;Node5</title>
<g id="a_edge4_Node000004_Node000005"><a xlink:title=" ">
<path fill="none" stroke="#63b8ff" d="M526.29,-15C535.33,-15 544.32,-15 553,-15"/>
<polygon fill="#63b8ff" stroke="#63b8ff" points="526.07,-11.5 516.07,-15 526.07,-18.5 526.07,-11.5"/>
</a>
</g>
</g>
</g>
</svg>
