<?xml version="1.0" encoding="UTF-8" standalone="no"?>
<!DOCTYPE svg PUBLIC "-//W3C//DTD SVG 1.1//EN"
 "http://www.w3.org/Graphics/SVG/1.1/DTD/svg11.dtd">
<!-- Generated by graphviz version 2.43.0 (0)
 -->
<!-- Title: psr::FlowEdgeFunctionCacheStats Pages: 1 -->
<svg width="342pt" height="93pt"
 viewBox="0.00 0.00 341.50 93.00" xmlns="http://www.w3.org/2000/svg" xmlns:xlink="http://www.w3.org/1999/xlink">
<g id="graph0" class="graph" transform="scale(1 1) rotate(0) translate(4 89)">
<title>psr::FlowEdgeFunctionCacheStats</title>
<!-- Node1 -->
<g id="Node000001" class="node">
<title>Node1</title>
<g id="a_Node000001"><a xlink:title=" ">
<polygon fill="#999999" stroke="#666666" points="244.5,-30 88.5,-30 88.5,0 244.5,0 244.5,-30"/>
<text text-anchor="start" x="96.5" y="-18" font-family="Helvetica,sans-Serif" font-size="10.00">psr::FlowEdgeFunctionCache</text>
<text text-anchor="middle" x="166.5" y="-7" font-family="Helvetica,sans-Serif" font-size="10.00">Stats</text>
</a>
</g>
</g>
<!-- Node2 -->
<g id="Node000002" class="node">
<title>Node2</title>
<g id="a_Node000002"><a xlink:href="structpsr_1_1FlowFunctionCacheStats.html" target="_top" xlink:title=" ">
<polygon fill="white" stroke="#666666" points="157,-85 0,-85 0,-66 157,-66 157,-85"/>
<text text-anchor="middle" x="78.5" y="-73" font-family="Helvetica,sans-Serif" font-size="10.00">psr::FlowFunctionCacheStats</text>
</a>
</g>
</g>
<!-- Node2&#45;&gt;Node1 -->
<g id="edge1_Node000001_Node000002" class="edge">
<title>Node2&#45;&gt;Node1</title>
<g id="a_edge1_Node000001_Node000002"><a xlink:title=" ">
<path fill="none" stroke="#63b8ff" d="M99.87,-60.29C113.66,-51.13 131.51,-39.26 145.27,-30.11"/>
<polygon fill="#63b8ff" stroke="#63b8ff" points="97.87,-57.42 91.48,-65.87 101.75,-63.25 97.87,-57.42"/>
</a>
</g>
</g>
<!-- Node3 -->
<g id="Node000003" class="node">
<title>Node3</title>
<g id="a_Node000003"><a xlink:href="structpsr_1_1EdgeFunctionCacheStats.html" target="_top" xlink:title=" ">
<polygon fill="white" stroke="#666666" points="333.5,-85 175.5,-85 175.5,-66 333.5,-66 333.5,-85"/>
<text text-anchor="middle" x="254.5" y="-73" font-family="Helvetica,sans-Serif" font-size="10.00">psr::EdgeFunctionCacheStats</text>
</a>
</g>
</g>
<!-- Node3&#45;&gt;Node1 -->
<g id="edge2_Node000001_Node000003" class="edge">
<title>Node3&#45;&gt;Node1</title>
<g id="a_edge2_Node000001_Node000003"><a xlink:title=" ">
<path fill="none" stroke="#63b8ff" d="M233.13,-60.29C219.34,-51.13 201.49,-39.26 187.73,-30.11"/>
<polygon fill="#63b8ff" stroke="#63b8ff" points="231.25,-63.25 241.52,-65.87 235.13,-57.42 231.25,-63.25"/>
</a>
</g>
</g>
</g>
</svg>
