<?xml version="1.0" encoding="UTF-8" standalone="no"?>
<!DOCTYPE svg PUBLIC "-//W3C//DTD SVG 1.1//EN"
 "http://www.w3.org/Graphics/SVG/1.1/DTD/svg11.dtd">
<!-- Generated by graphviz version 2.43.0 (0)
 -->
<!-- Title: psr::EdgeFunctionCacheStats Pages: 1 -->
<svg width="337pt" height="159pt"
 viewBox="0.00 0.00 336.50 159.00" xmlns="http://www.w3.org/2000/svg" xmlns:xlink="http://www.w3.org/1999/xlink">
<g id="graph0" class="graph" transform="scale(1 1) rotate(0) translate(4 155)">
<title>psr::EdgeFunctionCacheStats</title>
<!-- Node1 -->
<g id="Node000001" class="node">
<title>Node1</title>
<g id="a_Node000001"><a xlink:title=" ">
<polygon fill="#999999" stroke="#666666" points="247.5,-151 89.5,-151 89.5,-132 247.5,-132 247.5,-151"/>
<text text-anchor="middle" x="168.5" y="-139" font-family="Helvetica,sans-Serif" font-size="10.00">psr::EdgeFunctionCacheStats</text>
</a>
</g>
</g>
<!-- Node2 -->
<g id="Node000002" class="node">
<title>Node2</title>
<g id="a_Node000002"><a xlink:href="classpsr_1_1EdgeFunctionCache.html" target="_top" xlink:title=" ">
<polygon fill="white" stroke="#666666" points="154,-96 21,-96 21,-66 154,-66 154,-96"/>
<text text-anchor="start" x="29" y="-84" font-family="Helvetica,sans-Serif" font-size="10.00">psr::EdgeFunctionCache</text>
<text text-anchor="middle" x="87.5" y="-73" font-family="Helvetica,sans-Serif" font-size="10.00">&lt; ProblemTy &gt;</text>
</a>
</g>
</g>
<!-- Node1&#45;&gt;Node2 -->
<g id="edge1_Node000001_Node000002" class="edge">
<title>Node1&#45;&gt;Node2</title>
<g id="a_edge1_Node000001_Node000002"><a xlink:title=" ">
<path fill="none" stroke="#8b1a1a" d="M148.1,-125.77C135.52,-116.68 119.46,-105.09 107.04,-96.11"/>
<polygon fill="#8b1a1a" stroke="#8b1a1a" points="146.39,-128.85 156.55,-131.87 150.49,-123.18 146.39,-128.85"/>
</a>
</g>
</g>
<!-- Node4 -->
<g id="Node000004" class="node">
<title>Node4</title>
<g id="a_Node000004"><a xlink:href="structpsr_1_1FlowEdgeFunctionCacheStats.html" target="_top" xlink:title=" ">
<polygon fill="white" stroke="#666666" points="328.5,-96 172.5,-96 172.5,-66 328.5,-66 328.5,-96"/>
<text text-anchor="start" x="180.5" y="-84" font-family="Helvetica,sans-Serif" font-size="10.00">psr::FlowEdgeFunctionCache</text>
<text text-anchor="middle" x="250.5" y="-73" font-family="Helvetica,sans-Serif" font-size="10.00">Stats</text>
</a>
</g>
</g>
<!-- Node1&#45;&gt;Node4 -->
<g id="edge3_Node000001_Node000004" class="edge">
<title>Node1&#45;&gt;Node4</title>
<g id="a_edge3_Node000001_Node000004"><a xlink:title=" ">
<path fill="none" stroke="#63b8ff" d="M188.78,-126.03C201.58,-116.9 218.02,-105.17 230.72,-96.11"/>
<polygon fill="#63b8ff" stroke="#63b8ff" points="186.71,-123.21 180.6,-131.87 190.77,-128.91 186.71,-123.21"/>
</a>
</g>
</g>
<!-- Node3 -->
<g id="Node000003" class="node">
<title>Node3</title>
<g id="a_Node000003"><a xlink:href="classpsr_1_1FlowEdgeFunctionCacheNG.html" target="_top" xlink:title=" ">
<polygon fill="white" stroke="#666666" points="175,-30 0,-30 0,0 175,0 175,-30"/>
<text text-anchor="start" x="8" y="-18" font-family="Helvetica,sans-Serif" font-size="10.00">psr::FlowEdgeFunctionCache</text>
<text text-anchor="middle" x="87.5" y="-7" font-family="Helvetica,sans-Serif" font-size="10.00">NG&lt; ProblemTy, AutoAddZero &gt;</text>
</a>
</g>
</g>
<!-- Node2&#45;&gt;Node3 -->
<g id="edge2_Node000002_Node000003" class="edge">
<title>Node2&#45;&gt;Node3</title>
<g id="a_edge2_Node000002_Node000003"><a xlink:title=" ">
<path fill="none" stroke="#63b8ff" d="M87.5,-55.54C87.5,-46.96 87.5,-37.61 87.5,-30.16"/>
<polygon fill="#63b8ff" stroke="#63b8ff" points="84,-55.8 87.5,-65.8 91,-55.8 84,-55.8"/>
</a>
</g>
</g>
</g>
</svg>
