<?xml version="1.0" encoding="UTF-8" standalone="no"?>
<!DOCTYPE svg PUBLIC "-//W3C//DTD SVG 1.1//EN"
 "http://www.w3.org/Graphics/SVG/1.1/DTD/svg11.dtd">
<!-- Generated by graphviz version 2.43.0 (0)
 -->
<!-- Title: psr::LatticeDomain&lt; L &gt; Pages: 1 -->
<svg width="145pt" height="171pt"
 viewBox="0.00 0.00 145.00 171.00" xmlns="http://www.w3.org/2000/svg" xmlns:xlink="http://www.w3.org/1999/xlink">
<g id="graph0" class="graph" transform="scale(1 1) rotate(0) translate(4 167)">
<title>psr::LatticeDomain&lt; L &gt;</title>
<!-- Node1 -->
<g id="Node000001" class="node">
<title>Node1</title>
<g id="a_Node000001"><a xlink:title="A easy shorthand to construct a complete lattice of L.">
<polygon fill="#999999" stroke="#666666" points="137,-96 0,-96 0,-77 137,-77 137,-96"/>
<text text-anchor="middle" x="68.5" y="-84" font-family="Helvetica,sans-Serif" font-size="10.00">psr::LatticeDomain&lt; L &gt;</text>
</a>
</g>
</g>
<!-- Node3 -->
<g id="Node000003" class="node">
<title>Node3</title>
<g id="a_Node000003"><a xlink:href="structpsr_1_1LatticeDomain.html" target="_top" xlink:title=" ">
<polygon fill="white" stroke="#666666" points="123,-30 14,-30 14,0 123,0 123,-30"/>
<text text-anchor="start" x="22" y="-18" font-family="Helvetica,sans-Serif" font-size="10.00">psr::LatticeDomain</text>
<text text-anchor="middle" x="68.5" y="-7" font-family="Helvetica,sans-Serif" font-size="10.00">&lt; int64_t &gt;</text>
</a>
</g>
</g>
<!-- Node1&#45;&gt;Node3 -->
<g id="edge2_Node000001_Node000003" class="edge">
<title>Node1&#45;&gt;Node3</title>
<g id="a_edge2_Node000001_Node000003"><a xlink:title=" ">
<path fill="none" stroke="orange" stroke-dasharray="5,2" d="M68.5,-66.71C68.5,-55.19 68.5,-40.68 68.5,-30.14"/>
<polygon fill="orange" stroke="orange" points="65,-66.98 68.5,-76.98 72,-66.98 65,-66.98"/>
</a>
</g>
<text text-anchor="middle" x="98.5" y="-51" font-family="Helvetica,sans-Serif" font-size="10.00" fill="grey"> &lt; int64_t &gt;</text>
</g>
<!-- Node2 -->
<g id="Node000002" class="node">
<title>Node2</title>
<g id="a_Node000002"><a xlink:title=" ">
<polygon fill="white" stroke="#666666" points="120,-163 17,-163 17,-133 120,-133 120,-163"/>
<text text-anchor="start" x="25" y="-151" font-family="Helvetica,sans-Serif" font-size="10.00">std::variant&lt; Top,</text>
<text text-anchor="middle" x="68.5" y="-140" font-family="Helvetica,sans-Serif" font-size="10.00"> L, Bottom &gt;</text>
</a>
</g>
</g>
<!-- Node2&#45;&gt;Node1 -->
<g id="edge1_Node000001_Node000002" class="edge">
<title>Node2&#45;&gt;Node1</title>
<g id="a_edge1_Node000001_Node000002"><a xlink:title=" ">
<path fill="none" stroke="#63b8ff" d="M68.5,-122.79C68.5,-113.36 68.5,-103.15 68.5,-96.16"/>
<polygon fill="#63b8ff" stroke="#63b8ff" points="65,-122.9 68.5,-132.9 72,-122.9 65,-122.9"/>
</a>
</g>
</g>
</g>
</svg>
