<?xml version="1.0" encoding="UTF-8" standalone="no"?>
<!DOCTYPE svg PUBLIC "-//W3C//DTD SVG 1.1//EN"
 "http://www.w3.org/Graphics/SVG/1.1/DTD/svg11.dtd">
<!-- Generated by graphviz version 2.43.0 (0)
 -->
<!-- Title: psr::AliasInfoTraits&lt; FilteredLLVMAliasSet &gt; Pages: 1 -->
<svg width="225pt" height="204pt"
 viewBox="0.00 0.00 225.00 204.00" xmlns="http://www.w3.org/2000/svg" xmlns:xlink="http://www.w3.org/1999/xlink">
<g id="graph0" class="graph" transform="scale(1 1) rotate(0) translate(4 200)">
<title>psr::AliasInfoTraits&lt; FilteredLLVMAliasSet &gt;</title>
<!-- Node1 -->
<g id="Node000001" class="node">
<title>Node1</title>
<g id="a_Node000001"><a xlink:title=" ">
<polygon fill="#999999" stroke="#666666" points="144.5,-30 3.5,-30 3.5,0 144.5,0 144.5,-30"/>
<text text-anchor="start" x="11.5" y="-18" font-family="Helvetica,sans-Serif" font-size="10.00">psr::AliasInfoTraits</text>
<text text-anchor="middle" x="74" y="-7" font-family="Helvetica,sans-Serif" font-size="10.00">&lt; FilteredLLVMAliasSet &gt;</text>
</a>
</g>
</g>
<!-- Node2 -->
<g id="Node000002" class="node">
<title>Node2</title>
<g id="a_Node000002"><a xlink:href="structpsr_1_1DefaultAATraits.html" target="_top" xlink:title=" ">
<polygon fill="white" stroke="#666666" points="148,-108 0,-108 0,-67 148,-67 148,-108"/>
<text text-anchor="start" x="8" y="-96" font-family="Helvetica,sans-Serif" font-size="10.00">psr::DefaultAATraits</text>
<text text-anchor="start" x="8" y="-85" font-family="Helvetica,sans-Serif" font-size="10.00">&lt; const llvm::Value *,</text>
<text text-anchor="middle" x="74" y="-74" font-family="Helvetica,sans-Serif" font-size="10.00"> const llvm::Instruction * &gt;</text>
</a>
</g>
</g>
<!-- Node2&#45;&gt;Node1 -->
<g id="edge1_Node000001_Node000002" class="edge">
<title>Node2&#45;&gt;Node1</title>
<g id="a_edge1_Node000001_Node000002"><a xlink:title=" ">
<path fill="none" stroke="#63b8ff" d="M74,-56.58C74,-47.51 74,-37.95 74,-30.39"/>
<polygon fill="#63b8ff" stroke="#63b8ff" points="70.5,-56.86 74,-66.86 77.5,-56.86 70.5,-56.86"/>
</a>
</g>
</g>
<!-- Node3 -->
<g id="Node000003" class="node">
<title>Node3</title>
<g id="a_Node000003"><a xlink:href="structpsr_1_1DefaultAATraits.html" target="_top" xlink:title=" ">
<polygon fill="white" stroke="#666666" points="130.5,-196 17.5,-196 17.5,-166 130.5,-166 130.5,-196"/>
<text text-anchor="start" x="25.5" y="-184" font-family="Helvetica,sans-Serif" font-size="10.00">psr::DefaultAATraits</text>
<text text-anchor="middle" x="74" y="-173" font-family="Helvetica,sans-Serif" font-size="10.00">&lt; V, N &gt;</text>
</a>
</g>
</g>
<!-- Node3&#45;&gt;Node2 -->
<g id="edge2_Node000002_Node000003" class="edge">
<title>Node3&#45;&gt;Node2</title>
<g id="a_edge2_Node000002_Node000003"><a xlink:title=" ">
<path fill="none" stroke="orange" stroke-dasharray="5,2" d="M74,-155.69C74,-140.82 74,-122.05 74,-108.13"/>
<polygon fill="orange" stroke="orange" points="70.5,-155.7 74,-165.7 77.5,-155.7 70.5,-155.7"/>
</a>
</g>
<text text-anchor="start" x="74" y="-140" font-family="Helvetica,sans-Serif" font-size="10.00" fill="grey"> &lt; const llvm::Value</text>
<text text-anchor="middle" x="145.5" y="-129" font-family="Helvetica,sans-Serif" font-size="10.00" fill="grey"> *, const llvm::Instruction * &gt;</text>
</g>
</g>
</svg>
