<?xml version="1.0" encoding="UTF-8" standalone="no"?>
<!DOCTYPE svg PUBLIC "-//W3C//DTD SVG 1.1//EN"
 "http://www.w3.org/Graphics/SVG/1.1/DTD/svg11.dtd">
<!-- Generated by graphviz version 2.43.0 (0)
 -->
<!-- Title: psr::XTaint::KillIfSanitizedEdgeFunction Pages: 1 -->
<svg width="265pt" height="182pt"
 viewBox="0.00 0.00 265.00 182.00" xmlns="http://www.w3.org/2000/svg" xmlns:xlink="http://www.w3.org/1999/xlink">
<g id="graph0" class="graph" transform="scale(1 1) rotate(0) translate(4 178)">
<title>psr::XTaint::KillIfSanitizedEdgeFunction</title>
<!-- Node1 -->
<g id="Node000001" class="node">
<title>Node1</title>
<g id="a_Node000001"><a xlink:title=" ">
<polygon fill="#999999" stroke="#666666" points="168.5,-30 27.5,-30 27.5,0 168.5,0 168.5,-30"/>
<text text-anchor="start" x="35.5" y="-18" font-family="Helvetica,sans-Serif" font-size="10.00">psr::XTaint::KillIfSanitized</text>
<text text-anchor="middle" x="98" y="-7" font-family="Helvetica,sans-Serif" font-size="10.00">EdgeFunction</text>
</a>
</g>
</g>
<!-- Node2 -->
<g id="Node000002" class="node">
<title>Node2</title>
<g id="a_Node000002"><a xlink:href="structpsr_1_1XTaint_1_1EdgeFunctionBase.html" target="_top" xlink:title=" ">
<polygon fill="white" stroke="#666666" points="196,-97 0,-97 0,-67 196,-67 196,-97"/>
<text text-anchor="start" x="8" y="-85" font-family="Helvetica,sans-Serif" font-size="10.00">psr::XTaint::EdgeFunction</text>
<text text-anchor="middle" x="98" y="-74" font-family="Helvetica,sans-Serif" font-size="10.00">Base&lt; KillIfSanitizedEdgeFunction &gt;</text>
</a>
</g>
</g>
<!-- Node2&#45;&gt;Node1 -->
<g id="edge1_Node000001_Node000002" class="edge">
<title>Node2&#45;&gt;Node1</title>
<g id="a_edge1_Node000001_Node000002"><a xlink:title=" ">
<path fill="none" stroke="#63b8ff" d="M98,-56.61C98,-47.65 98,-37.82 98,-30.08"/>
<polygon fill="#63b8ff" stroke="#63b8ff" points="94.5,-56.9 98,-66.9 101.5,-56.9 94.5,-56.9"/>
</a>
</g>
</g>
<!-- Node3 -->
<g id="Node000003" class="node">
<title>Node3</title>
<g id="a_Node000003"><a xlink:href="structpsr_1_1XTaint_1_1EdgeFunctionBase.html" target="_top" xlink:title=" ">
<polygon fill="white" stroke="#666666" points="167.5,-174 28.5,-174 28.5,-144 167.5,-144 167.5,-174"/>
<text text-anchor="start" x="36.5" y="-162" font-family="Helvetica,sans-Serif" font-size="10.00">psr::XTaint::EdgeFunction</text>
<text text-anchor="middle" x="98" y="-151" font-family="Helvetica,sans-Serif" font-size="10.00">Base&lt; Derived &gt;</text>
</a>
</g>
</g>
<!-- Node3&#45;&gt;Node2 -->
<g id="edge2_Node000002_Node000003" class="edge">
<title>Node3&#45;&gt;Node2</title>
<g id="a_edge2_Node000002_Node000003"><a xlink:title=" ">
<path fill="none" stroke="orange" stroke-dasharray="5,2" d="M98,-133.54C98,-121.45 98,-107.29 98,-97.04"/>
<polygon fill="orange" stroke="orange" points="94.5,-133.89 98,-143.89 101.5,-133.89 94.5,-133.89"/>
</a>
</g>
<text text-anchor="middle" x="177.5" y="-118" font-family="Helvetica,sans-Serif" font-size="10.00" fill="grey"> &lt; KillIfSanitizedEdgeFunction &gt;</text>
</g>
</g>
</svg>
