<?xml version="1.0" encoding="UTF-8" standalone="no"?>
<!DOCTYPE svg PUBLIC "-//W3C//DTD SVG 1.1//EN"
 "http://www.w3.org/Graphics/SVG/1.1/DTD/svg11.dtd">
<!-- Generated by graphviz version 2.43.0 (0)
 -->
<!-- Title: psr::WithComputeValues&lt; Base, ComputeValuesVal &gt; Pages: 1 -->
<svg width="330pt" height="159pt"
 viewBox="0.00 0.00 330.00 159.00" xmlns="http://www.w3.org/2000/svg" xmlns:xlink="http://www.w3.org/1999/xlink">
<g id="graph0" class="graph" transform="scale(1 1) rotate(0) translate(4 155)">
<title>psr::WithComputeValues&lt; Base, ComputeValuesVal &gt;</title>
<!-- Node1 -->
<g id="Node000001" class="node">
<title>Node1</title>
<g id="a_Node000001"><a xlink:title=" ">
<polygon fill="#999999" stroke="#666666" points="241.5,-96 80.5,-96 80.5,-66 241.5,-66 241.5,-96"/>
<text text-anchor="start" x="88.5" y="-84" font-family="Helvetica,sans-Serif" font-size="10.00">psr::WithComputeValues</text>
<text text-anchor="middle" x="161" y="-73" font-family="Helvetica,sans-Serif" font-size="10.00">&lt; Base, ComputeValuesVal &gt;</text>
</a>
</g>
</g>
<!-- Node3 -->
<g id="Node000003" class="node">
<title>Node3</title>
<g id="a_Node000003"><a xlink:href="structpsr_1_1DefaultIDESolverConfig.html" target="_top" xlink:title=" ">
<polygon fill="white" stroke="#666666" points="152,-30 0,-30 0,0 152,0 152,-30"/>
<text text-anchor="start" x="8" y="-18" font-family="Helvetica,sans-Serif" font-size="10.00">psr::DefaultIDESolverConfig</text>
<text text-anchor="middle" x="76" y="-7" font-family="Helvetica,sans-Serif" font-size="10.00">&lt; ProblemTy &gt;</text>
</a>
</g>
</g>
<!-- Node1&#45;&gt;Node3 -->
<g id="edge2_Node000001_Node000003" class="edge">
<title>Node1&#45;&gt;Node3</title>
<g id="a_edge2_Node000001_Node000003"><a xlink:title=" ">
<path fill="none" stroke="#63b8ff" d="M134.11,-59.75C121.33,-50.13 106.36,-38.86 94.81,-30.16"/>
<polygon fill="#63b8ff" stroke="#63b8ff" points="132.04,-62.58 142.14,-65.8 136.25,-56.99 132.04,-62.58"/>
</a>
</g>
</g>
<!-- Node4 -->
<g id="Node000004" class="node">
<title>Node4</title>
<g id="a_Node000004"><a xlink:href="structpsr_1_1DefaultIDESolverConfig_3_01ProblemTy_01_4.html" target="_top" xlink:title=" ">
<polygon fill="white" stroke="#666666" points="322,-30 170,-30 170,0 322,0 322,-30"/>
<text text-anchor="start" x="178" y="-18" font-family="Helvetica,sans-Serif" font-size="10.00">psr::DefaultIDESolverConfig</text>
<text text-anchor="middle" x="246" y="-7" font-family="Helvetica,sans-Serif" font-size="10.00">&lt; ProblemTy &gt;</text>
</a>
</g>
</g>
<!-- Node1&#45;&gt;Node4 -->
<g id="edge3_Node000001_Node000004" class="edge">
<title>Node1&#45;&gt;Node4</title>
<g id="a_edge3_Node000001_Node000004"><a xlink:title=" ">
<path fill="none" stroke="#63b8ff" d="M187.89,-59.75C200.67,-50.13 215.64,-38.86 227.19,-30.16"/>
<polygon fill="#63b8ff" stroke="#63b8ff" points="185.75,-56.99 179.86,-65.8 189.96,-62.58 185.75,-56.99"/>
</a>
</g>
</g>
<!-- Node2 -->
<g id="Node000002" class="node">
<title>Node2</title>
<g id="a_Node000002"><a xlink:href="classBase.html" target="_top" xlink:title=" ">
<polygon fill="white" stroke="#666666" points="181.5,-151 140.5,-151 140.5,-132 181.5,-132 181.5,-151"/>
<text text-anchor="middle" x="161" y="-139" font-family="Helvetica,sans-Serif" font-size="10.00">Base</text>
</a>
</g>
</g>
<!-- Node2&#45;&gt;Node1 -->
<g id="edge1_Node000001_Node000002" class="edge">
<title>Node2&#45;&gt;Node1</title>
<g id="a_edge1_Node000001_Node000002"><a xlink:title=" ">
<path fill="none" stroke="#63b8ff" d="M161,-121.65C161,-113.36 161,-103.78 161,-96.11"/>
<polygon fill="#63b8ff" stroke="#63b8ff" points="157.5,-121.87 161,-131.87 164.5,-121.87 157.5,-121.87"/>
</a>
</g>
</g>
</g>
</svg>
