<?xml version="1.0" encoding="UTF-8" standalone="no"?>
<!DOCTYPE svg PUBLIC "-//W3C//DTD SVG 1.1//EN"
 "http://www.w3.org/Graphics/SVG/1.1/DTD/svg11.dtd">
<!-- Generated by graphviz version 2.43.0 (0)
 -->
<!-- Title: psr::DefaultAATraits&lt; V, N &gt; Pages: 1 -->
<svg width="646pt" height="188pt"
 viewBox="0.00 0.00 646.00 188.00" xmlns="http://www.w3.org/2000/svg" xmlns:xlink="http://www.w3.org/1999/xlink">
<g id="graph0" class="graph" transform="scale(1 1) rotate(0) translate(4 184)">
<title>psr::DefaultAATraits&lt; V, N &gt;</title>
<!-- Node1 -->
<g id="Node000001" class="node">
<title>Node1</title>
<g id="a_Node000001"><a xlink:title=" ">
<polygon fill="#999999" stroke="#666666" points="113,-132 0,-132 0,-102 113,-102 113,-132"/>
<text text-anchor="start" x="8" y="-120" font-family="Helvetica,sans-Serif" font-size="10.00">psr::DefaultAATraits</text>
<text text-anchor="middle" x="56.5" y="-109" font-family="Helvetica,sans-Serif" font-size="10.00">&lt; V, N &gt;</text>
</a>
</g>
</g>
<!-- Node2 -->
<g id="Node000002" class="node">
<title>Node2</title>
<g id="a_Node000002"><a xlink:href="structpsr_1_1AliasInfoTraits_3_01AliasInfo_3_01V_00_01N_01_4_01_4.html" target="_top" xlink:title=" ">
<polygon fill="white" stroke="#666666" points="428.5,-180 303.5,-180 303.5,-150 428.5,-150 428.5,-180"/>
<text text-anchor="start" x="311.5" y="-168" font-family="Helvetica,sans-Serif" font-size="10.00">psr::AliasInfoTraits</text>
<text text-anchor="middle" x="366" y="-157" font-family="Helvetica,sans-Serif" font-size="10.00">&lt; AliasInfo&lt; V, N &gt; &gt;</text>
</a>
</g>
</g>
<!-- Node1&#45;&gt;Node2 -->
<g id="edge1_Node000001_Node000002" class="edge">
<title>Node1&#45;&gt;Node2</title>
<g id="a_edge1_Node000001_Node000002"><a xlink:title=" ">
<path fill="none" stroke="#63b8ff" d="M123.32,-129.68C125.91,-130.14 128.48,-130.58 131,-131 189.3,-140.78 256.05,-150.32 303.3,-156.79"/>
<polygon fill="#63b8ff" stroke="#63b8ff" points="123.7,-126.2 113.24,-127.88 122.47,-133.09 123.7,-126.2"/>
</a>
</g>
</g>
<!-- Node3 -->
<g id="Node000003" class="node">
<title>Node3</title>
<g id="a_Node000003"><a xlink:href="structpsr_1_1AliasInfoTraits_3_01AliasInfoRef_3_01V_00_01N_01_4_01_4.html" target="_top" xlink:title=" ">
<polygon fill="white" stroke="#666666" points="436.5,-132 295.5,-132 295.5,-102 436.5,-102 436.5,-132"/>
<text text-anchor="start" x="303.5" y="-120" font-family="Helvetica,sans-Serif" font-size="10.00">psr::AliasInfoTraits</text>
<text text-anchor="middle" x="366" y="-109" font-family="Helvetica,sans-Serif" font-size="10.00">&lt; AliasInfoRef&lt; V, N &gt; &gt;</text>
</a>
</g>
</g>
<!-- Node1&#45;&gt;Node3 -->
<g id="edge2_Node000001_Node000003" class="edge">
<title>Node1&#45;&gt;Node3</title>
<g id="a_edge2_Node000001_Node000003"><a xlink:title=" ">
<path fill="none" stroke="#63b8ff" d="M123.37,-117C174.04,-117 243.87,-117 295.44,-117"/>
<polygon fill="#63b8ff" stroke="#63b8ff" points="123.19,-113.5 113.19,-117 123.19,-120.5 123.19,-113.5"/>
</a>
</g>
</g>
<!-- Node4 -->
<g id="Node000004" class="node">
<title>Node4</title>
<g id="a_Node000004"><a xlink:href="structpsr_1_1DefaultAATraits.html" target="_top" xlink:title=" ">
<polygon fill="white" stroke="#666666" points="440,-83.5 292,-83.5 292,-42.5 440,-42.5 440,-83.5"/>
<text text-anchor="start" x="300" y="-71.5" font-family="Helvetica,sans-Serif" font-size="10.00">psr::DefaultAATraits</text>
<text text-anchor="start" x="300" y="-60.5" font-family="Helvetica,sans-Serif" font-size="10.00">&lt; const llvm::Value *,</text>
<text text-anchor="middle" x="366" y="-49.5" font-family="Helvetica,sans-Serif" font-size="10.00"> const llvm::Instruction * &gt;</text>
</a>
</g>
</g>
<!-- Node1&#45;&gt;Node4 -->
<g id="edge3_Node000001_Node000004" class="edge">
<title>Node1&#45;&gt;Node4</title>
<g id="a_edge3_Node000001_Node000004"><a xlink:title=" ">
<path fill="none" stroke="orange" stroke-dasharray="5,2" d="M104.73,-98.57C113.37,-95.7 122.38,-93.01 131,-91 184.09,-78.59 245.31,-71.52 291.81,-67.58"/>
<polygon fill="orange" stroke="orange" points="103.48,-95.3 95.17,-101.88 105.77,-101.92 103.48,-95.3"/>
</a>
</g>
<text text-anchor="start" x="131" y="-105" font-family="Helvetica,sans-Serif" font-size="10.00" fill="grey"> &lt; const llvm::Value</text>
<text text-anchor="middle" x="202.5" y="-94" font-family="Helvetica,sans-Serif" font-size="10.00" fill="grey"> *, const llvm::Instruction * &gt;</text>
</g>
<!-- Node5 -->
<g id="Node000005" class="node">
<title>Node5</title>
<g id="a_Node000005"><a xlink:href="structpsr_1_1AliasInfoTraits_3_01CachedLLVMAliasIterator_01_4.html" target="_top" xlink:title=" ">
<polygon fill="white" stroke="#666666" points="638,-126 477,-126 477,-96 638,-96 638,-126"/>
<text text-anchor="start" x="485" y="-114" font-family="Helvetica,sans-Serif" font-size="10.00">psr::AliasInfoTraits</text>
<text text-anchor="middle" x="557.5" y="-103" font-family="Helvetica,sans-Serif" font-size="10.00">&lt; CachedLLVMAliasIterator &gt;</text>
</a>
</g>
</g>
<!-- Node4&#45;&gt;Node5 -->
<g id="edge4_Node000004_Node000005" class="edge">
<title>Node4&#45;&gt;Node5</title>
<g id="a_edge4_Node000004_Node000005"><a xlink:title=" ">
<path fill="none" stroke="#63b8ff" d="M450.08,-84.04C465.95,-88.06 482.27,-92.2 497.21,-95.98"/>
<polygon fill="#63b8ff" stroke="#63b8ff" points="450.82,-80.62 440.27,-81.56 449.1,-87.41 450.82,-80.62"/>
</a>
</g>
</g>
<!-- Node6 -->
<g id="Node000006" class="node">
<title>Node6</title>
<g id="a_Node000006"><a xlink:href="structpsr_1_1AliasInfoTraits_3_01FilteredLLVMAliasSet_01_4.html" target="_top" xlink:title=" ">
<polygon fill="white" stroke="#666666" points="628,-78 487,-78 487,-48 628,-48 628,-78"/>
<text text-anchor="start" x="495" y="-66" font-family="Helvetica,sans-Serif" font-size="10.00">psr::AliasInfoTraits</text>
<text text-anchor="middle" x="557.5" y="-55" font-family="Helvetica,sans-Serif" font-size="10.00">&lt; FilteredLLVMAliasSet &gt;</text>
</a>
</g>
</g>
<!-- Node4&#45;&gt;Node6 -->
<g id="edge5_Node000004_Node000006" class="edge">
<title>Node4&#45;&gt;Node6</title>
<g id="a_edge5_Node000004_Node000006"><a xlink:title=" ">
<path fill="none" stroke="#63b8ff" d="M450.41,-63C462.58,-63 475,-63 486.85,-63"/>
<polygon fill="#63b8ff" stroke="#63b8ff" points="450.27,-59.5 440.27,-63 450.27,-66.5 450.27,-59.5"/>
</a>
</g>
</g>
<!-- Node7 -->
<g id="Node000007" class="node">
<title>Node7</title>
<g id="a_Node000007"><a xlink:href="structpsr_1_1AliasInfoTraits_3_01LLVMAliasSet_01_4.html" target="_top" xlink:title=" ">
<polygon fill="white" stroke="#666666" points="611,-30 504,-30 504,0 611,0 611,-30"/>
<text text-anchor="start" x="512" y="-18" font-family="Helvetica,sans-Serif" font-size="10.00">psr::AliasInfoTraits</text>
<text text-anchor="middle" x="557.5" y="-7" font-family="Helvetica,sans-Serif" font-size="10.00">&lt; LLVMAliasSet &gt;</text>
</a>
</g>
</g>
<!-- Node4&#45;&gt;Node7 -->
<g id="edge6_Node000004_Node000007" class="edge">
<title>Node4&#45;&gt;Node7</title>
<g id="a_edge6_Node000004_Node000007"><a xlink:title=" ">
<path fill="none" stroke="#63b8ff" d="M450.07,-41.96C468.38,-37.32 487.28,-32.53 503.98,-28.3"/>
<polygon fill="#63b8ff" stroke="#63b8ff" points="449.1,-38.59 440.27,-44.44 450.82,-45.38 449.1,-38.59"/>
</a>
</g>
</g>
</g>
</svg>
