<?xml version="1.0" encoding="UTF-8" standalone="no"?>
<!DOCTYPE svg PUBLIC "-//W3C//DTD SVG 1.1//EN"
 "http://www.w3.org/Graphics/SVG/1.1/DTD/svg11.dtd">
<!-- Generated by graphviz version 2.43.0 (0)
 -->
<!-- Title: psr::AnalysisDomain Pages: 1 -->
<svg width="928pt" height="690pt"
 viewBox="0.00 0.00 928.00 690.00" xmlns="http://www.w3.org/2000/svg" xmlns:xlink="http://www.w3.org/1999/xlink">
<g id="graph0" class="graph" transform="scale(1 1) rotate(0) translate(4 686)">
<title>psr::AnalysisDomain</title>
<!-- Node1 -->
<g id="Node000001" class="node">
<title>Node1</title>
<g id="a_Node000001"><a xlink:title=" ">
<polygon fill="#999999" stroke="#666666" points="117,-360.5 0,-360.5 0,-341.5 117,-341.5 117,-360.5"/>
<text text-anchor="middle" x="58.5" y="-348.5" font-family="Helvetica,sans-Serif" font-size="10.00">psr::AnalysisDomain</text>
</a>
</g>
</g>
<!-- Node2 -->
<g id="Node000002" class="node">
<title>Node2</title>
<g id="a_Node000002"><a xlink:href="structpsr_1_1LLVMAnalysisDomainDefault.html" target="_top" xlink:title="An AnalysisDomain that specializes sensible defaults for LLVM&#45;based analysis.">
<polygon fill="white" stroke="#666666" points="332,-360.5 153,-360.5 153,-341.5 332,-341.5 332,-360.5"/>
<text text-anchor="middle" x="242.5" y="-348.5" font-family="Helvetica,sans-Serif" font-size="10.00">psr::LLVMAnalysisDomainDefault</text>
</a>
</g>
</g>
<!-- Node1&#45;&gt;Node2 -->
<g id="edge1_Node000001_Node000002" class="edge">
<title>Node1&#45;&gt;Node2</title>
<g id="a_edge1_Node000001_Node000002"><a xlink:title=" ">
<path fill="none" stroke="#63b8ff" d="M127.11,-351C135.46,-351 144.09,-351 152.7,-351"/>
<polygon fill="#63b8ff" stroke="#63b8ff" points="127.09,-347.5 117.09,-351 127.09,-354.5 127.09,-347.5"/>
</a>
</g>
</g>
<!-- Node3 -->
<g id="Node000003" class="node">
<title>Node3</title>
<g id="a_Node000003"><a xlink:href="structpsr_1_1IDEExtendedTaintAnalysisDomain.html" target="_top" xlink:title=" ">
<polygon fill="white" stroke="#666666" points="545.5,-682 381.5,-682 381.5,-652 545.5,-652 545.5,-682"/>
<text text-anchor="start" x="389.5" y="-670" font-family="Helvetica,sans-Serif" font-size="10.00">psr::IDEExtendedTaintAnalysis</text>
<text text-anchor="middle" x="463.5" y="-659" font-family="Helvetica,sans-Serif" font-size="10.00">Domain</text>
</a>
</g>
</g>
<!-- Node2&#45;&gt;Node3 -->
<g id="edge2_Node000002_Node000003" class="edge">
<title>Node2&#45;&gt;Node3</title>
<g id="a_edge2_Node000002_Node000003"><a xlink:title=" ">
<path fill="none" stroke="#63b8ff" d="M245.88,-370.62C253.35,-423.27 281.24,-568.69 368,-643 371.99,-646.41 376.39,-649.35 381.06,-651.88"/>
<polygon fill="#63b8ff" stroke="#63b8ff" points="249.34,-370.05 244.55,-360.59 242.4,-370.97 249.34,-370.05"/>
</a>
</g>
</g>
<!-- Node4 -->
<g id="Node000004" class="node">
<title>Node4</title>
<g id="a_Node000004"><a xlink:href="structpsr_1_1IDEFeatureTaintAnalysisDomain.html" target="_top" xlink:title=" ">
<polygon fill="white" stroke="#666666" points="541,-634 386,-634 386,-604 541,-604 541,-634"/>
<text text-anchor="start" x="394" y="-622" font-family="Helvetica,sans-Serif" font-size="10.00">psr::IDEFeatureTaintAnalysis</text>
<text text-anchor="middle" x="463.5" y="-611" font-family="Helvetica,sans-Serif" font-size="10.00">Domain</text>
</a>
</g>
</g>
<!-- Node2&#45;&gt;Node4 -->
<g id="edge3_Node000002_Node000004" class="edge">
<title>Node2&#45;&gt;Node4</title>
<g id="a_edge3_Node000002_Node000004"><a xlink:title=" ">
<path fill="none" stroke="#63b8ff" d="M247.71,-370.77C258.71,-417.42 292.81,-534.96 368,-595 373.42,-599.33 379.53,-602.89 385.97,-605.81"/>
<polygon fill="#63b8ff" stroke="#63b8ff" points="251.06,-369.73 245.45,-360.74 244.23,-371.27 251.06,-369.73"/>
</a>
</g>
</g>
<!-- Node5 -->
<g id="Node000005" class="node">
<title>Node5</title>
<g id="a_Node000005"><a xlink:href="structpsr_1_1IDEGeneralizedLCADomain.html" target="_top" xlink:title=" ">
<polygon fill="white" stroke="#666666" points="548.5,-585.5 378.5,-585.5 378.5,-566.5 548.5,-566.5 548.5,-585.5"/>
<text text-anchor="middle" x="463.5" y="-573.5" font-family="Helvetica,sans-Serif" font-size="10.00">psr::IDEGeneralizedLCADomain</text>
</a>
</g>
</g>
<!-- Node2&#45;&gt;Node5 -->
<g id="edge4_Node000002_Node000005" class="edge">
<title>Node2&#45;&gt;Node5</title>
<g id="a_edge4_Node000002_Node000005"><a xlink:title=" ">
<path fill="none" stroke="#63b8ff" d="M249.3,-370.43C262.75,-411.93 300.22,-509.34 368,-557 373.48,-560.85 379.55,-563.96 385.9,-566.47"/>
<polygon fill="#63b8ff" stroke="#63b8ff" points="252.58,-369.21 246.26,-360.71 245.9,-371.3 252.58,-369.21"/>
</a>
</g>
</g>
<!-- Node6 -->
<g id="Node000006" class="node">
<title>Node6</title>
<g id="a_Node000006"><a xlink:href="structpsr_1_1IDEInstInteractionAnalysisDomain.html" target="_top" xlink:title=" ">
<polygon fill="white" stroke="#666666" points="546.5,-548 380.5,-548 380.5,-518 546.5,-518 546.5,-548"/>
<text text-anchor="start" x="388.5" y="-536" font-family="Helvetica,sans-Serif" font-size="10.00">psr::IDEInstInteractionAnalysis</text>
<text text-anchor="middle" x="463.5" y="-525" font-family="Helvetica,sans-Serif" font-size="10.00">Domain&lt; EdgeFactType &gt;</text>
</a>
</g>
</g>
<!-- Node2&#45;&gt;Node6 -->
<g id="edge5_Node000002_Node000006" class="edge">
<title>Node2&#45;&gt;Node6</title>
<g id="a_edge5_Node000002_Node000006"><a xlink:title=" ">
<path fill="none" stroke="#63b8ff" d="M252.88,-369.72C270.59,-403.1 312.26,-472.8 368,-509 373.25,-512.41 378.96,-515.34 384.88,-517.85"/>
<polygon fill="#63b8ff" stroke="#63b8ff" points="255.86,-367.87 248.16,-360.6 249.65,-371.09 255.86,-367.87"/>
</a>
</g>
</g>
<!-- Node7 -->
<g id="Node000007" class="node">
<title>Node7</title>
<g id="a_Node000007"><a xlink:href="structpsr_1_1IDELinearConstantAnalysisDomain.html" target="_top" xlink:title=" ">
<polygon fill="white" stroke="#666666" points="548,-500 379,-500 379,-470 548,-470 548,-500"/>
<text text-anchor="start" x="387" y="-488" font-family="Helvetica,sans-Serif" font-size="10.00">psr::IDELinearConstantAnalysis</text>
<text text-anchor="middle" x="463.5" y="-477" font-family="Helvetica,sans-Serif" font-size="10.00">Domain</text>
</a>
</g>
</g>
<!-- Node2&#45;&gt;Node7 -->
<g id="edge6_Node000002_Node000007" class="edge">
<title>Node2&#45;&gt;Node7</title>
<g id="a_edge6_Node000002_Node000007"><a xlink:title=" ">
<path fill="none" stroke="#63b8ff" d="M258.16,-368.36C279.72,-392.75 322.38,-436.89 368,-461 374.44,-464.4 381.37,-467.34 388.47,-469.87"/>
<polygon fill="#63b8ff" stroke="#63b8ff" points="260.64,-365.88 251.44,-360.62 255.35,-370.47 260.64,-365.88"/>
</a>
</g>
</g>
<!-- Node8 -->
<g id="Node000008" class="node">
<title>Node8</title>
<g id="a_Node000008"><a xlink:href="structpsr_1_1IDEProtoAnalysisDomain.html" target="_top" xlink:title=" ">
<polygon fill="white" stroke="#666666" points="543,-451.5 384,-451.5 384,-432.5 543,-432.5 543,-451.5"/>
<text text-anchor="middle" x="463.5" y="-439.5" font-family="Helvetica,sans-Serif" font-size="10.00">psr::IDEProtoAnalysisDomain</text>
</a>
</g>
</g>
<!-- Node2&#45;&gt;Node8 -->
<g id="edge7_Node000002_Node000008" class="edge">
<title>Node2&#45;&gt;Node8</title>
<g id="a_edge7_Node000002_Node000008"><a xlink:title=" ">
<path fill="none" stroke="#63b8ff" d="M264.93,-366.32C288.92,-382.76 329.48,-408.44 368,-423 378.17,-426.85 389.28,-429.96 400.17,-432.47"/>
<polygon fill="#63b8ff" stroke="#63b8ff" points="266.8,-363.36 256.59,-360.52 262.8,-369.11 266.8,-363.36"/>
</a>
</g>
</g>
<!-- Node9 -->
<g id="Node000009" class="node">
<title>Node9</title>
<g id="a_Node000009"><a xlink:href="structpsr_1_1IDESecureHeapPropagationAnalysisDomain.html" target="_top" xlink:title=" ">
<polygon fill="white" stroke="#666666" points="549,-414 378,-414 378,-384 549,-384 549,-414"/>
<text text-anchor="start" x="386" y="-402" font-family="Helvetica,sans-Serif" font-size="10.00">psr::IDESecureHeapPropagation</text>
<text text-anchor="middle" x="463.5" y="-391" font-family="Helvetica,sans-Serif" font-size="10.00">AnalysisDomain</text>
</a>
</g>
</g>
<!-- Node2&#45;&gt;Node9 -->
<g id="edge8_Node000002_Node000009" class="edge">
<title>Node2&#45;&gt;Node9</title>
<g id="a_edge8_Node000002_Node000009"><a xlink:title=" ">
<path fill="none" stroke="#63b8ff" d="M297.04,-362.74C326.27,-369.14 362.77,-377.14 394.05,-384"/>
<polygon fill="#63b8ff" stroke="#63b8ff" points="297.55,-359.26 287.03,-360.54 296.05,-366.1 297.55,-359.26"/>
</a>
</g>
</g>
<!-- Node10 -->
<g id="Node000010" class="node">
<title>Node10</title>
<g id="a_Node000010"><a xlink:href="structpsr_1_1IDESolverTestAnalysisDomain.html" target="_top" xlink:title=" ">
<polygon fill="white" stroke="#666666" points="536.5,-366 390.5,-366 390.5,-336 536.5,-336 536.5,-366"/>
<text text-anchor="start" x="398.5" y="-354" font-family="Helvetica,sans-Serif" font-size="10.00">psr::IDESolverTestAnalysis</text>
<text text-anchor="middle" x="463.5" y="-343" font-family="Helvetica,sans-Serif" font-size="10.00">Domain</text>
</a>
</g>
</g>
<!-- Node2&#45;&gt;Node10 -->
<g id="edge9_Node000002_Node000010" class="edge">
<title>Node2&#45;&gt;Node10</title>
<g id="a_edge9_Node000002_Node000010"><a xlink:title=" ">
<path fill="none" stroke="#63b8ff" d="M342.29,-351C358.49,-351 375,-351 390.39,-351"/>
<polygon fill="#63b8ff" stroke="#63b8ff" points="342.26,-347.5 332.26,-351 342.26,-354.5 342.26,-347.5"/>
</a>
</g>
</g>
<!-- Node11 -->
<g id="Node000011" class="node">
<title>Node11</title>
<g id="a_Node000011"><a xlink:href="structpsr_1_1IDETypeStateAnalysisDomain.html" target="_top" xlink:title=" ">
<polygon fill="white" stroke="#666666" points="559,-318 368,-318 368,-288 559,-288 559,-318"/>
<text text-anchor="start" x="376" y="-306" font-family="Helvetica,sans-Serif" font-size="10.00">psr::IDETypeStateAnalysis</text>
<text text-anchor="middle" x="463.5" y="-295" font-family="Helvetica,sans-Serif" font-size="10.00">Domain&lt; TypeStateDescriptionTy &gt;</text>
</a>
</g>
</g>
<!-- Node2&#45;&gt;Node11 -->
<g id="edge10_Node000002_Node000011" class="edge">
<title>Node2&#45;&gt;Node11</title>
<g id="a_edge10_Node000002_Node000011"><a xlink:title=" ">
<path fill="none" stroke="#63b8ff" d="M297.04,-339.26C326.27,-332.86 362.77,-324.86 394.05,-318"/>
<polygon fill="#63b8ff" stroke="#63b8ff" points="296.05,-335.9 287.03,-341.46 297.55,-342.74 296.05,-335.9"/>
</a>
</g>
</g>
<!-- Node12 -->
<g id="Node000012" class="node">
<title>Node12</title>
<g id="a_Node000012"><a xlink:href="structpsr_1_1InterMonoSolverTestDomain.html" target="_top" xlink:title=" ">
<polygon fill="white" stroke="#666666" points="532,-270 395,-270 395,-240 532,-240 532,-270"/>
<text text-anchor="start" x="403" y="-258" font-family="Helvetica,sans-Serif" font-size="10.00">psr::InterMonoSolverTest</text>
<text text-anchor="middle" x="463.5" y="-247" font-family="Helvetica,sans-Serif" font-size="10.00">Domain</text>
</a>
</g>
</g>
<!-- Node2&#45;&gt;Node12 -->
<g id="edge11_Node000002_Node000012" class="edge">
<title>Node2&#45;&gt;Node12</title>
<g id="a_edge11_Node000002_Node000012"><a xlink:title=" ">
<path fill="none" stroke="#63b8ff" d="M265.47,-335.78C289.62,-319.66 330.06,-294.44 368,-279 376.54,-275.52 385.73,-272.44 394.91,-269.74"/>
<polygon fill="#63b8ff" stroke="#63b8ff" points="263.37,-332.97 257.04,-341.48 267.29,-338.77 263.37,-332.97"/>
</a>
</g>
</g>
<!-- Node13 -->
<g id="Node000013" class="node">
<title>Node13</title>
<g id="a_Node000013"><a xlink:href="structpsr_1_1InterMonoTaintAnalysisDomain.html" target="_top" xlink:title=" ">
<polygon fill="white" stroke="#666666" points="539.5,-222 387.5,-222 387.5,-192 539.5,-192 539.5,-222"/>
<text text-anchor="start" x="395.5" y="-210" font-family="Helvetica,sans-Serif" font-size="10.00">psr::InterMonoTaintAnalysis</text>
<text text-anchor="middle" x="463.5" y="-199" font-family="Helvetica,sans-Serif" font-size="10.00">Domain</text>
</a>
</g>
</g>
<!-- Node2&#45;&gt;Node13 -->
<g id="edge12_Node000002_Node000013" class="edge">
<title>Node2&#45;&gt;Node13</title>
<g id="a_edge12_Node000002_Node000013"><a xlink:title=" ">
<path fill="none" stroke="#63b8ff" d="M256.9,-333.15C277.72,-306.73 320.39,-257.49 368,-231 374.21,-227.54 380.93,-224.57 387.82,-222.03"/>
<polygon fill="#63b8ff" stroke="#63b8ff" points="254.05,-331.12 250.71,-341.17 259.59,-335.4 254.05,-331.12"/>
</a>
</g>
</g>
<!-- Node14 -->
<g id="Node000014" class="node">
<title>Node14</title>
<g id="a_Node000014"><a xlink:href="structpsr_1_1IntraMonoFullConstantPropagationAnalysisDomain.html" target="_top" xlink:title=" ">
<polygon fill="white" stroke="#666666" points="541,-174 386,-174 386,-144 541,-144 541,-174"/>
<text text-anchor="start" x="394" y="-162" font-family="Helvetica,sans-Serif" font-size="10.00">psr::IntraMonoFullConstant</text>
<text text-anchor="middle" x="463.5" y="-151" font-family="Helvetica,sans-Serif" font-size="10.00">PropagationAnalysisDomain</text>
</a>
</g>
</g>
<!-- Node2&#45;&gt;Node14 -->
<g id="edge13_Node000002_Node000014" class="edge">
<title>Node2&#45;&gt;Node14</title>
<g id="a_edge13_Node000002_Node000014"><a xlink:title=" ">
<path fill="none" stroke="#63b8ff" d="M252.09,-332.05C269.01,-296.95 310.1,-221.84 368,-183 373.48,-179.32 379.49,-176.21 385.73,-173.57"/>
<polygon fill="#63b8ff" stroke="#63b8ff" points="248.87,-330.67 247.79,-341.21 255.21,-333.64 248.87,-330.67"/>
</a>
</g>
</g>
<!-- Node15 -->
<g id="Node000015" class="node">
<title>Node15</title>
<g id="a_Node000015"><a xlink:href="structpsr_1_1IntraMonoSolverTestAnalysisDomain.html" target="_top" xlink:title=" ">
<polygon fill="white" stroke="#666666" points="532,-126 395,-126 395,-96 532,-96 532,-126"/>
<text text-anchor="start" x="403" y="-114" font-family="Helvetica,sans-Serif" font-size="10.00">psr::IntraMonoSolverTest</text>
<text text-anchor="middle" x="463.5" y="-103" font-family="Helvetica,sans-Serif" font-size="10.00">AnalysisDomain</text>
</a>
</g>
</g>
<!-- Node2&#45;&gt;Node15 -->
<g id="edge14_Node000002_Node000015" class="edge">
<title>Node2&#45;&gt;Node15</title>
<g id="a_edge14_Node000002_Node000015"><a xlink:title=" ">
<path fill="none" stroke="#63b8ff" d="M248.93,-331.78C261.96,-289.32 299.13,-187.17 368,-135 375.96,-128.97 385.27,-124.44 394.89,-121.05"/>
<polygon fill="#63b8ff" stroke="#63b8ff" points="245.56,-330.85 246.08,-341.44 252.27,-332.84 245.56,-330.85"/>
</a>
</g>
</g>
<!-- Node16 -->
<g id="Node000016" class="node">
<title>Node16</title>
<g id="a_Node000016"><a xlink:href="structpsr_1_1IntraMonoUninitVariablesDomain.html" target="_top" xlink:title=" ">
<polygon fill="white" stroke="#666666" points="544,-78 383,-78 383,-48 544,-48 544,-78"/>
<text text-anchor="start" x="391" y="-66" font-family="Helvetica,sans-Serif" font-size="10.00">psr::IntraMonoUninitVariables</text>
<text text-anchor="middle" x="463.5" y="-55" font-family="Helvetica,sans-Serif" font-size="10.00">Domain</text>
</a>
</g>
</g>
<!-- Node2&#45;&gt;Node16 -->
<g id="edge15_Node000002_Node000016" class="edge">
<title>Node2&#45;&gt;Node16</title>
<g id="a_edge15_Node000002_Node000016"><a xlink:title=" ">
<path fill="none" stroke="#63b8ff" d="M246.87,-331.3C256.36,-282.07 288.01,-152.94 368,-87 372.44,-83.34 377.37,-80.23 382.58,-77.58"/>
<polygon fill="#63b8ff" stroke="#63b8ff" points="243.4,-330.81 245.04,-341.28 250.29,-332.07 243.4,-330.81"/>
</a>
</g>
</g>
<!-- Node17 -->
<g id="Node000017" class="node">
<title>Node17</title>
<g id="a_Node000017"><a xlink:title=" ">
<polygon fill="white" stroke="#666666" points="531.5,-30 395.5,-30 395.5,0 531.5,0 531.5,-30"/>
<text text-anchor="start" x="403.5" y="-18" font-family="Helvetica,sans-Serif" font-size="10.00">psr::detail::IDETypeState</text>
<text text-anchor="middle" x="463.5" y="-7" font-family="Helvetica,sans-Serif" font-size="10.00">AnalysisBaseCommon</text>
</a>
</g>
</g>
<!-- Node2&#45;&gt;Node17 -->
<g id="edge16_Node000002_Node000017" class="edge">
<title>Node2&#45;&gt;Node17</title>
<g id="a_edge16_Node000002_Node000017"><a xlink:title=" ">
<path fill="none" stroke="#63b8ff" d="M245.31,-331.17C251.45,-275.95 276.51,-119.23 368,-39 375.76,-32.19 385.19,-27.27 395.05,-23.71"/>
<polygon fill="#63b8ff" stroke="#63b8ff" points="241.81,-331.04 244.27,-341.35 248.77,-331.75 241.81,-331.04"/>
</a>
</g>
</g>
<!-- Node18 -->
<g id="Node000018" class="node">
<title>Node18</title>
<g id="a_Node000018"><a xlink:title=" ">
<polygon fill="white" stroke="#666666" points="731,-30 595,-30 595,0 731,0 731,-30"/>
<text text-anchor="start" x="603" y="-18" font-family="Helvetica,sans-Serif" font-size="10.00">psr::detail::IDETypeState</text>
<text text-anchor="middle" x="663" y="-7" font-family="Helvetica,sans-Serif" font-size="10.00">AnalysisBase</text>
</a>
</g>
</g>
<!-- Node17&#45;&gt;Node18 -->
<g id="edge17_Node000017_Node000018" class="edge">
<title>Node17&#45;&gt;Node18</title>
<g id="a_edge17_Node000017_Node000018"><a xlink:title=" ">
<path fill="none" stroke="#8b1a1a" d="M541.8,-15C559.27,-15 577.69,-15 594.71,-15"/>
<polygon fill="#8b1a1a" stroke="#8b1a1a" points="541.64,-11.5 531.64,-15 541.64,-18.5 541.64,-11.5"/>
</a>
</g>
</g>
<!-- Node19 -->
<g id="Node000019" class="node">
<title>Node19</title>
<g id="a_Node000019"><a xlink:href="classpsr_1_1IDETypeStateAnalysis.html" target="_top" xlink:title=" ">
<polygon fill="white" stroke="#666666" points="920,-30 767,-30 767,0 920,0 920,-30"/>
<text text-anchor="start" x="775" y="-18" font-family="Helvetica,sans-Serif" font-size="10.00">psr::IDETypeStateAnalysis</text>
<text text-anchor="middle" x="843.5" y="-7" font-family="Helvetica,sans-Serif" font-size="10.00">&lt; TypeStateDescriptionTy &gt;</text>
</a>
</g>
</g>
<!-- Node18&#45;&gt;Node19 -->
<g id="edge18_Node000018_Node000019" class="edge">
<title>Node18&#45;&gt;Node19</title>
<g id="a_edge18_Node000018_Node000019"><a xlink:title=" ">
<path fill="none" stroke="#8b1a1a" d="M741.45,-15C749.91,-15 758.52,-15 766.95,-15"/>
<polygon fill="#8b1a1a" stroke="#8b1a1a" points="741.23,-11.5 731.23,-15 741.23,-18.5 741.23,-11.5"/>
</a>
</g>
</g>
</g>
</svg>
