<?xml version="1.0" encoding="UTF-8" standalone="no"?>
<!DOCTYPE svg PUBLIC "-//W3C//DTD SVG 1.1//EN"
 "http://www.w3.org/Graphics/SVG/1.1/DTD/svg11.dtd">
<!-- Generated by graphviz version 2.43.0 (0)
 -->
<!-- Title: psr::TypeStateDescription&lt; StateTy &gt; Pages: 1 -->
<svg width="967pt" height="230pt"
 viewBox="0.00 0.00 967.00 230.00" xmlns="http://www.w3.org/2000/svg" xmlns:xlink="http://www.w3.org/1999/xlink">
<g id="graph0" class="graph" transform="scale(1 1) rotate(0) translate(4 226)">
<title>psr::TypeStateDescription&lt; StateTy &gt;</title>
<!-- Node1 -->
<g id="Node000001" class="node">
<title>Node1</title>
<g id="a_Node000001"><a xlink:title=" ">
<polygon fill="#999999" stroke="#666666" points="343,-126 202,-126 202,-96 343,-96 343,-126"/>
<text text-anchor="start" x="210" y="-114" font-family="Helvetica,sans-Serif" font-size="10.00">psr::TypeStateDescription</text>
<text text-anchor="middle" x="272.5" y="-103" font-family="Helvetica,sans-Serif" font-size="10.00">&lt; StateTy &gt;</text>
</a>
</g>
</g>
<!-- Node3 -->
<g id="Node000003" class="node">
<title>Node3</title>
<g id="a_Node000003"><a xlink:href="structpsr_1_1TypeStateDescription.html" target="_top" xlink:title=" ">
<polygon fill="white" stroke="#666666" points="708,-222 567,-222 567,-192 708,-192 708,-222"/>
<text text-anchor="start" x="575" y="-210" font-family="Helvetica,sans-Serif" font-size="10.00">psr::TypeStateDescription</text>
<text text-anchor="middle" x="637.5" y="-199" font-family="Helvetica,sans-Serif" font-size="10.00">&lt; CSTDFILEIOState &gt;</text>
</a>
</g>
</g>
<!-- Node1&#45;&gt;Node3 -->
<g id="edge2_Node000001_Node000003" class="edge">
<title>Node1&#45;&gt;Node3</title>
<g id="a_edge2_Node000001_Node000003"><a xlink:title=" ">
<path fill="none" stroke="orange" stroke-dasharray="5,2" d="M303.32,-131.57C319.67,-141.92 340.7,-153.77 361,-161 428.6,-185.09 510.12,-196.7 566.87,-202.21"/>
<polygon fill="orange" stroke="orange" points="305.05,-128.52 294.75,-126.01 301.24,-134.39 305.05,-128.52"/>
</a>
</g>
<text text-anchor="middle" x="445" y="-200" font-family="Helvetica,sans-Serif" font-size="10.00" fill="grey"> &lt; CSTDFILEIOState &gt;</text>
</g>
<!-- Node5 -->
<g id="Node000005" class="node">
<title>Node5</title>
<g id="a_Node000005"><a xlink:href="structpsr_1_1TypeStateDescription.html" target="_top" xlink:title=" ">
<polygon fill="white" stroke="#666666" points="720.5,-174 554.5,-174 554.5,-144 720.5,-144 720.5,-174"/>
<text text-anchor="start" x="562.5" y="-162" font-family="Helvetica,sans-Serif" font-size="10.00">psr::TypeStateDescription</text>
<text text-anchor="middle" x="637.5" y="-151" font-family="Helvetica,sans-Serif" font-size="10.00">&lt; OpenSSLEVPKDFCTXState &gt;</text>
</a>
</g>
</g>
<!-- Node1&#45;&gt;Node5 -->
<g id="edge4_Node000001_Node000005" class="edge">
<title>Node1&#45;&gt;Node5</title>
<g id="a_edge4_Node000001_Node000005"><a xlink:title=" ">
<path fill="none" stroke="orange" stroke-dasharray="5,2" d="M353.29,-124.85C355.89,-125.25 358.46,-125.63 361,-126 425.83,-135.43 499.53,-144.16 554.38,-150.26"/>
<polygon fill="orange" stroke="orange" points="353.6,-121.36 343.18,-123.27 352.52,-128.27 353.6,-121.36"/>
</a>
</g>
<text text-anchor="middle" x="445" y="-149" font-family="Helvetica,sans-Serif" font-size="10.00" fill="grey"> &lt; OpenSSLEVPKDFCTXState &gt;</text>
</g>
<!-- Node7 -->
<g id="Node000007" class="node">
<title>Node7</title>
<g id="a_Node000007"><a xlink:href="structpsr_1_1TypeStateDescription.html" target="_top" xlink:title=" ">
<polygon fill="white" stroke="#666666" points="710.5,-126 564.5,-126 564.5,-96 710.5,-96 710.5,-126"/>
<text text-anchor="start" x="572.5" y="-114" font-family="Helvetica,sans-Serif" font-size="10.00">psr::TypeStateDescription</text>
<text text-anchor="middle" x="637.5" y="-103" font-family="Helvetica,sans-Serif" font-size="10.00">&lt; OpenSSLEVPKDFState &gt;</text>
</a>
</g>
</g>
<!-- Node1&#45;&gt;Node7 -->
<g id="edge6_Node000001_Node000007" class="edge">
<title>Node1&#45;&gt;Node7</title>
<g id="a_edge6_Node000001_Node000007"><a xlink:title=" ">
<path fill="none" stroke="orange" stroke-dasharray="5,2" d="M353.35,-111C416.35,-111 503.47,-111 564.38,-111"/>
<polygon fill="orange" stroke="orange" points="353.06,-107.5 343.06,-111 353.06,-114.5 353.06,-107.5"/>
</a>
</g>
<text text-anchor="middle" x="445" y="-114" font-family="Helvetica,sans-Serif" font-size="10.00" fill="grey"> &lt; OpenSSLEVPKDFState &gt;</text>
</g>
<!-- Node9 -->
<g id="Node000009" class="node">
<title>Node9</title>
<g id="a_Node000009"><a xlink:href="structpsr_1_1TypeStateDescription.html" target="_top" xlink:title=" ">
<polygon fill="white" stroke="#666666" points="720.5,-78 554.5,-78 554.5,-48 720.5,-48 720.5,-78"/>
<text text-anchor="start" x="562.5" y="-66" font-family="Helvetica,sans-Serif" font-size="10.00">psr::TypeStateDescription</text>
<text text-anchor="middle" x="637.5" y="-55" font-family="Helvetica,sans-Serif" font-size="10.00">&lt; OpenSSLSecureHeapState &gt;</text>
</a>
</g>
</g>
<!-- Node1&#45;&gt;Node9 -->
<g id="edge8_Node000001_Node000009" class="edge">
<title>Node1&#45;&gt;Node9</title>
<g id="a_edge8_Node000001_Node000009"><a xlink:title=" ">
<path fill="none" stroke="orange" stroke-dasharray="5,2" d="M353.29,-97.15C355.89,-96.75 358.46,-96.37 361,-96 425.83,-86.57 499.53,-77.84 554.38,-71.74"/>
<polygon fill="orange" stroke="orange" points="352.52,-93.73 343.18,-98.73 353.6,-100.64 352.52,-93.73"/>
</a>
</g>
<text text-anchor="middle" x="445" y="-99" font-family="Helvetica,sans-Serif" font-size="10.00" fill="grey"> &lt; OpenSSLSecureHeapState &gt;</text>
</g>
<!-- Node11 -->
<g id="Node000011" class="node">
<title>Node11</title>
<g id="a_Node000011"><a xlink:href="structpsr_1_1TypeStateDescription.html" target="_top" xlink:title=" ">
<polygon fill="white" stroke="#666666" points="728,-30 547,-30 547,0 728,0 728,-30"/>
<text text-anchor="start" x="555" y="-18" font-family="Helvetica,sans-Serif" font-size="10.00">psr::TypeStateDescription</text>
<text text-anchor="middle" x="637.5" y="-7" font-family="Helvetica,sans-Serif" font-size="10.00">&lt; OpenSSLSecureMemoryState &gt;</text>
</a>
</g>
</g>
<!-- Node1&#45;&gt;Node11 -->
<g id="edge10_Node000001_Node000011" class="edge">
<title>Node1&#45;&gt;Node11</title>
<g id="a_edge10_Node000001_Node000011"><a xlink:title=" ">
<path fill="none" stroke="orange" stroke-dasharray="5,2" d="M303.32,-90.43C319.67,-80.08 340.7,-68.23 361,-61 420.95,-39.64 491.85,-28.09 546.71,-21.91"/>
<polygon fill="orange" stroke="orange" points="301.24,-87.61 294.75,-95.99 305.05,-93.48 301.24,-87.61"/>
</a>
</g>
<text text-anchor="middle" x="445" y="-64" font-family="Helvetica,sans-Serif" font-size="10.00" fill="grey"> &lt; OpenSSLSecureMemoryState &gt;</text>
</g>
<!-- Node2 -->
<g id="Node000002" class="node">
<title>Node2</title>
<g id="a_Node000002"><a xlink:href="structpsr_1_1TypeStateDescriptionBase.html" target="_top" xlink:title=" ">
<polygon fill="white" stroke="#666666" points="165,-120.5 0,-120.5 0,-101.5 165,-101.5 165,-120.5"/>
<text text-anchor="middle" x="82.5" y="-108.5" font-family="Helvetica,sans-Serif" font-size="10.00">psr::TypeStateDescriptionBase</text>
</a>
</g>
</g>
<!-- Node2&#45;&gt;Node1 -->
<g id="edge1_Node000001_Node000002" class="edge">
<title>Node2&#45;&gt;Node1</title>
<g id="a_edge1_Node000001_Node000002"><a xlink:title=" ">
<path fill="none" stroke="#63b8ff" d="M175.18,-111C184.11,-111 193.06,-111 201.71,-111"/>
<polygon fill="#63b8ff" stroke="#63b8ff" points="175.14,-107.5 165.14,-111 175.14,-114.5 175.14,-107.5"/>
</a>
</g>
</g>
<!-- Node4 -->
<g id="Node000004" class="node">
<title>Node4</title>
<g id="a_Node000004"><a xlink:href="classpsr_1_1CSTDFILEIOTypeStateDescription.html" target="_top" xlink:title=" ">
<polygon fill="white" stroke="#666666" points="933.5,-222 790.5,-222 790.5,-192 933.5,-192 933.5,-222"/>
<text text-anchor="start" x="798.5" y="-210" font-family="Helvetica,sans-Serif" font-size="10.00">psr::CSTDFILEIOTypeState</text>
<text text-anchor="middle" x="862" y="-199" font-family="Helvetica,sans-Serif" font-size="10.00">Description</text>
</a>
</g>
</g>
<!-- Node3&#45;&gt;Node4 -->
<g id="edge3_Node000003_Node000004" class="edge">
<title>Node3&#45;&gt;Node4</title>
<g id="a_edge3_Node000003_Node000004"><a xlink:title=" ">
<path fill="none" stroke="#63b8ff" d="M718.56,-207C742.01,-207 767.48,-207 790.31,-207"/>
<polygon fill="#63b8ff" stroke="#63b8ff" points="718.29,-203.5 708.29,-207 718.29,-210.5 718.29,-203.5"/>
</a>
</g>
</g>
<!-- Node6 -->
<g id="Node000006" class="node">
<title>Node6</title>
<g id="a_Node000006"><a xlink:href="classpsr_1_1OpenSSLEVPKDFCTXDescription.html" target="_top" xlink:title=" ">
<polygon fill="white" stroke="#666666" points="959,-168.5 765,-168.5 765,-149.5 959,-149.5 959,-168.5"/>
<text text-anchor="middle" x="862" y="-156.5" font-family="Helvetica,sans-Serif" font-size="10.00">psr::OpenSSLEVPKDFCTXDescription</text>
</a>
</g>
</g>
<!-- Node5&#45;&gt;Node6 -->
<g id="edge5_Node000005_Node000006" class="edge">
<title>Node5&#45;&gt;Node6</title>
<g id="a_edge5_Node000005_Node000006"><a xlink:title=" ">
<path fill="none" stroke="#63b8ff" d="M730.92,-159C742.12,-159 753.58,-159 764.83,-159"/>
<polygon fill="#63b8ff" stroke="#63b8ff" points="730.72,-155.5 720.72,-159 730.72,-162.5 730.72,-155.5"/>
</a>
</g>
</g>
<!-- Node8 -->
<g id="Node000008" class="node">
<title>Node8</title>
<g id="a_Node000008"><a xlink:href="classpsr_1_1OpenSSLEVPKDFDescription.html" target="_top" xlink:title=" ">
<polygon fill="white" stroke="#666666" points="949.5,-120.5 774.5,-120.5 774.5,-101.5 949.5,-101.5 949.5,-120.5"/>
<text text-anchor="middle" x="862" y="-108.5" font-family="Helvetica,sans-Serif" font-size="10.00">psr::OpenSSLEVPKDFDescription</text>
</a>
</g>
</g>
<!-- Node7&#45;&gt;Node8 -->
<g id="edge7_Node000007_Node000008" class="edge">
<title>Node7&#45;&gt;Node8</title>
<g id="a_edge7_Node000007_Node000008"><a xlink:title=" ">
<path fill="none" stroke="#63b8ff" d="M720.88,-111C738.32,-111 756.78,-111 774.38,-111"/>
<polygon fill="#63b8ff" stroke="#63b8ff" points="720.74,-107.5 710.74,-111 720.74,-114.5 720.74,-107.5"/>
</a>
</g>
</g>
<!-- Node10 -->
<g id="Node000010" class="node">
<title>Node10</title>
<g id="a_Node000010"><a xlink:href="classpsr_1_1OpenSSLSecureHeapDescription.html" target="_top" xlink:title=" ">
<polygon fill="white" stroke="#666666" points="959,-72.5 765,-72.5 765,-53.5 959,-53.5 959,-72.5"/>
<text text-anchor="middle" x="862" y="-60.5" font-family="Helvetica,sans-Serif" font-size="10.00">psr::OpenSSLSecureHeapDescription</text>
</a>
</g>
</g>
<!-- Node9&#45;&gt;Node10 -->
<g id="edge9_Node000009_Node000010" class="edge">
<title>Node9&#45;&gt;Node10</title>
<g id="a_edge9_Node000009_Node000010"><a xlink:title=" ">
<path fill="none" stroke="#63b8ff" d="M730.92,-63C742.12,-63 753.58,-63 764.83,-63"/>
<polygon fill="#63b8ff" stroke="#63b8ff" points="730.72,-59.5 720.72,-63 730.72,-66.5 730.72,-59.5"/>
</a>
</g>
</g>
<!-- Node12 -->
<g id="Node000012" class="node">
<title>Node12</title>
<g id="a_Node000012"><a xlink:href="classpsr_1_1OpenSSLSecureMemoryDescription.html" target="_top" xlink:title=" ">
<polygon fill="white" stroke="#666666" points="939,-30 785,-30 785,0 939,0 939,-30"/>
<text text-anchor="start" x="793" y="-18" font-family="Helvetica,sans-Serif" font-size="10.00">psr::OpenSSLSecureMemory</text>
<text text-anchor="middle" x="862" y="-7" font-family="Helvetica,sans-Serif" font-size="10.00">Description</text>
</a>
</g>
</g>
<!-- Node11&#45;&gt;Node12 -->
<g id="edge11_Node000011_Node000012" class="edge">
<title>Node11&#45;&gt;Node12</title>
<g id="a_edge11_Node000011_Node000012"><a xlink:title=" ">
<path fill="none" stroke="#63b8ff" d="M738.26,-15C753.91,-15 769.86,-15 784.87,-15"/>
<polygon fill="#63b8ff" stroke="#63b8ff" points="738.04,-11.5 728.04,-15 738.04,-18.5 738.04,-11.5"/>
</a>
</g>
</g>
</g>
</svg>
