<?xml version="1.0" encoding="UTF-8" standalone="no"?>
<!DOCTYPE svg PUBLIC "-//W3C//DTD SVG 1.1//EN"
 "http://www.w3.org/Graphics/SVG/1.1/DTD/svg11.dtd">
<!-- Generated by graphviz version 2.43.0 (0)
 -->
<!-- Title: psr::XTaint::EdgeFunctionBase&lt; Derived &gt; Pages: 1 -->
<svg width="716pt" height="86pt"
 viewBox="0.00 0.00 716.00 86.00" xmlns="http://www.w3.org/2000/svg" xmlns:xlink="http://www.w3.org/1999/xlink">
<g id="graph0" class="graph" transform="scale(1 1) rotate(0) translate(4 82)">
<title>psr::XTaint::EdgeFunctionBase&lt; Derived &gt;</title>
<!-- Node1 -->
<g id="Node000001" class="node">
<title>Node1</title>
<g id="a_Node000001"><a xlink:title=" ">
<polygon fill="#999999" stroke="#666666" points="139,-54 0,-54 0,-24 139,-24 139,-54"/>
<text text-anchor="start" x="8" y="-42" font-family="Helvetica,sans-Serif" font-size="10.00">psr::XTaint::EdgeFunction</text>
<text text-anchor="middle" x="69.5" y="-31" font-family="Helvetica,sans-Serif" font-size="10.00">Base&lt; Derived &gt;</text>
</a>
</g>
</g>
<!-- Node2 -->
<g id="Node000002" class="node">
<title>Node2</title>
<g id="a_Node000002"><a xlink:href="structpsr_1_1XTaint_1_1EdgeFunctionBase.html" target="_top" xlink:title=" ">
<polygon fill="white" stroke="#666666" points="530,-78 334,-78 334,-48 530,-48 530,-78"/>
<text text-anchor="start" x="342" y="-66" font-family="Helvetica,sans-Serif" font-size="10.00">psr::XTaint::EdgeFunction</text>
<text text-anchor="middle" x="432" y="-55" font-family="Helvetica,sans-Serif" font-size="10.00">Base&lt; KillIfSanitizedEdgeFunction &gt;</text>
</a>
</g>
</g>
<!-- Node1&#45;&gt;Node2 -->
<g id="edge1_Node000001_Node000002" class="edge">
<title>Node1&#45;&gt;Node2</title>
<g id="a_edge1_Node000001_Node000002"><a xlink:title=" ">
<path fill="none" stroke="orange" stroke-dasharray="5,2" d="M149.4,-44.25C203.59,-47.86 275.89,-52.67 333.66,-56.52"/>
<polygon fill="orange" stroke="orange" points="149.37,-40.74 139.16,-43.57 148.9,-47.73 149.37,-40.74"/>
</a>
</g>
<text text-anchor="middle" x="236.5" y="-58" font-family="Helvetica,sans-Serif" font-size="10.00" fill="grey"> &lt; KillIfSanitizedEdgeFunction &gt;</text>
</g>
<!-- Node4 -->
<g id="Node000004" class="node">
<title>Node4</title>
<g id="a_Node000004"><a xlink:href="structpsr_1_1XTaint_1_1EdgeFunctionBase.html" target="_top" xlink:title=" ">
<polygon fill="white" stroke="#666666" points="515.5,-30 348.5,-30 348.5,0 515.5,0 515.5,-30"/>
<text text-anchor="start" x="356.5" y="-18" font-family="Helvetica,sans-Serif" font-size="10.00">psr::XTaint::EdgeFunction</text>
<text text-anchor="middle" x="432" y="-7" font-family="Helvetica,sans-Serif" font-size="10.00">Base&lt; TransferEdgeFunction &gt;</text>
</a>
</g>
</g>
<!-- Node1&#45;&gt;Node4 -->
<g id="edge3_Node000001_Node000004" class="edge">
<title>Node1&#45;&gt;Node4</title>
<g id="a_edge3_Node000001_Node000004"><a xlink:title=" ">
<path fill="none" stroke="orange" stroke-dasharray="5,2" d="M149.38,-29.67C151.95,-29.43 154.5,-29.21 157,-29 221.2,-23.65 294.04,-20.05 348.48,-17.84"/>
<polygon fill="orange" stroke="orange" points="149.01,-26.19 139.39,-30.63 149.68,-33.16 149.01,-26.19"/>
</a>
</g>
<text text-anchor="middle" x="236.5" y="-32" font-family="Helvetica,sans-Serif" font-size="10.00" fill="grey"> &lt; TransferEdgeFunction &gt;</text>
</g>
<!-- Node3 -->
<g id="Node000003" class="node">
<title>Node3</title>
<g id="a_Node000003"><a xlink:href="structpsr_1_1XTaint_1_1KillIfSanitizedEdgeFunction.html" target="_top" xlink:title=" ">
<polygon fill="white" stroke="#666666" points="708,-78 567,-78 567,-48 708,-48 708,-78"/>
<text text-anchor="start" x="575" y="-66" font-family="Helvetica,sans-Serif" font-size="10.00">psr::XTaint::KillIfSanitized</text>
<text text-anchor="middle" x="637.5" y="-55" font-family="Helvetica,sans-Serif" font-size="10.00">EdgeFunction</text>
</a>
</g>
</g>
<!-- Node2&#45;&gt;Node3 -->
<g id="edge2_Node000002_Node000003" class="edge">
<title>Node2&#45;&gt;Node3</title>
<g id="a_edge2_Node000002_Node000003"><a xlink:title=" ">
<path fill="none" stroke="#63b8ff" d="M540.43,-63C549.41,-63 558.33,-63 566.91,-63"/>
<polygon fill="#63b8ff" stroke="#63b8ff" points="540.28,-59.5 530.28,-63 540.28,-66.5 540.28,-59.5"/>
</a>
</g>
</g>
<!-- Node5 -->
<g id="Node000005" class="node">
<title>Node5</title>
<g id="a_Node000005"><a xlink:href="structpsr_1_1XTaint_1_1TransferEdgeFunction.html" target="_top" xlink:title=" ">
<polygon fill="white" stroke="#666666" points="706,-30 569,-30 569,0 706,0 706,-30"/>
<text text-anchor="start" x="577" y="-18" font-family="Helvetica,sans-Serif" font-size="10.00">psr::XTaint::TransferEdge</text>
<text text-anchor="middle" x="637.5" y="-7" font-family="Helvetica,sans-Serif" font-size="10.00">Function</text>
</a>
</g>
</g>
<!-- Node4&#45;&gt;Node5 -->
<g id="edge4_Node000004_Node000005" class="edge">
<title>Node4&#45;&gt;Node5</title>
<g id="a_edge4_Node000004_Node000005"><a xlink:title=" ">
<path fill="none" stroke="#63b8ff" d="M526.16,-15C540.51,-15 555.08,-15 568.74,-15"/>
<polygon fill="#63b8ff" stroke="#63b8ff" points="525.77,-11.5 515.77,-15 525.77,-18.5 525.77,-11.5"/>
</a>
</g>
</g>
</g>
</svg>
