<?xml version="1.0" encoding="UTF-8" standalone="no"?>
<!DOCTYPE svg PUBLIC "-//W3C//DTD SVG 1.1//EN"
 "http://www.w3.org/Graphics/SVG/1.1/DTD/svg11.dtd">
<!-- Generated by graphviz version 2.43.0 (0)
 -->
<!-- Title: psr::TypeErasureUtils Pages: 1 -->
<svg width="622pt" height="116pt"
 viewBox="0.00 0.00 622.00 115.50" xmlns="http://www.w3.org/2000/svg" xmlns:xlink="http://www.w3.org/1999/xlink">
<g id="graph0" class="graph" transform="scale(1 1) rotate(0) translate(4 111.5)">
<title>psr::TypeErasureUtils</title>
<!-- Node1 -->
<g id="Node000001" class="node">
<title>Node1</title>
<g id="a_Node000001"><a xlink:title=" ">
<polygon fill="#999999" stroke="#666666" points="119,-72.5 0,-72.5 0,-53.5 119,-53.5 119,-72.5"/>
<text text-anchor="middle" x="59.5" y="-60.5" font-family="Helvetica,sans-Serif" font-size="10.00">psr::TypeErasureUtils</text>
</a>
</g>
</g>
<!-- Node2 -->
<g id="Node000002" class="node">
<title>Node2</title>
<g id="a_Node000002"><a xlink:href="classpsr_1_1AliasIteratorRef.html" target="_top" xlink:title=" ">
<polygon fill="white" stroke="#666666" points="614,-107.5 466,-107.5 466,-66.5 614,-66.5 614,-107.5"/>
<text text-anchor="start" x="474" y="-95.5" font-family="Helvetica,sans-Serif" font-size="10.00">psr::AliasIteratorRef</text>
<text text-anchor="start" x="474" y="-84.5" font-family="Helvetica,sans-Serif" font-size="10.00">&lt; const llvm::Value *,</text>
<text text-anchor="middle" x="540" y="-73.5" font-family="Helvetica,sans-Serif" font-size="10.00"> const llvm::Instruction * &gt;</text>
</a>
</g>
</g>
<!-- Node1&#45;&gt;Node2 -->
<g id="edge1_Node000001_Node000002" class="edge">
<title>Node1&#45;&gt;Node2</title>
<g id="a_edge1_Node000001_Node000002"><a xlink:title=" ">
<path fill="none" stroke="#8b1a1a" d="M101.57,-75.36C118.29,-79.85 137.92,-84.45 156,-87 263,-102.06 388.48,-98 465.87,-93.03"/>
<polygon fill="#8b1a1a" stroke="#8b1a1a" points="102.14,-71.88 91.57,-72.59 100.27,-78.63 102.14,-71.88"/>
</a>
</g>
</g>
<!-- Node3 -->
<g id="Node000003" class="node">
<title>Node3</title>
<g id="a_Node000003"><a xlink:href="classpsr_1_1AliasIteratorRef.html" target="_top" xlink:title="A type&#45;erased reference to any object implementing the IsAliasIterator interface. Use this,...">
<polygon fill="white" stroke="#666666" points="278.5,-78 164.5,-78 164.5,-48 278.5,-48 278.5,-78"/>
<text text-anchor="start" x="172.5" y="-66" font-family="Helvetica,sans-Serif" font-size="10.00">psr::AliasIteratorRef</text>
<text text-anchor="middle" x="221.5" y="-55" font-family="Helvetica,sans-Serif" font-size="10.00">&lt; V, N &gt;</text>
</a>
</g>
</g>
<!-- Node1&#45;&gt;Node3 -->
<g id="edge2_Node000001_Node000003" class="edge">
<title>Node1&#45;&gt;Node3</title>
<g id="a_edge2_Node000001_Node000003"><a xlink:title=" ">
<path fill="none" stroke="#8b1a1a" d="M129.31,-63C140.96,-63 152.95,-63 164.24,-63"/>
<polygon fill="#8b1a1a" stroke="#8b1a1a" points="129.17,-59.5 119.17,-63 129.17,-66.5 129.17,-59.5"/>
</a>
</g>
</g>
<!-- Node4 -->
<g id="Node000004" class="node">
<title>Node4</title>
<g id="a_Node000004"><a xlink:href="classpsr_1_1PointsToIteratorRef.html" target="_top" xlink:title=" ">
<polygon fill="white" stroke="#666666" points="287,-30 156,-30 156,0 287,0 287,-30"/>
<text text-anchor="start" x="164" y="-18" font-family="Helvetica,sans-Serif" font-size="10.00">psr::PointsToIteratorRef</text>
<text text-anchor="middle" x="221.5" y="-7" font-family="Helvetica,sans-Serif" font-size="10.00">&lt; V, O, N &gt;</text>
</a>
</g>
</g>
<!-- Node1&#45;&gt;Node4 -->
<g id="edge4_Node000001_Node000004" class="edge">
<title>Node1&#45;&gt;Node4</title>
<g id="a_edge4_Node000001_Node000004"><a xlink:title=" ">
<path fill="none" stroke="darkgreen" d="M102.31,-50.46C123.12,-44.21 148.44,-36.62 170.29,-30.06"/>
<polygon fill="darkgreen" stroke="darkgreen" points="101.07,-47.18 92.49,-53.4 103.08,-53.88 101.07,-47.18"/>
</a>
</g>
</g>
<!-- Node3&#45;&gt;Node2 -->
<g id="edge3_Node000003_Node000002" class="edge">
<title>Node3&#45;&gt;Node2</title>
<g id="a_edge3_Node000003_Node000002"><a xlink:title=" ">
<path fill="none" stroke="orange" stroke-dasharray="5,2" d="M288.95,-62.39C333.96,-62.63 394.71,-64.23 448,-70 453.75,-70.62 459.69,-71.41 465.64,-72.29"/>
<polygon fill="orange" stroke="orange" points="288.74,-58.89 278.73,-62.35 288.72,-65.89 288.74,-58.89"/>
</a>
</g>
<text text-anchor="start" x="305" y="-84" font-family="Helvetica,sans-Serif" font-size="10.00" fill="grey"> &lt; const llvm::Value</text>
<text text-anchor="middle" x="376.5" y="-73" font-family="Helvetica,sans-Serif" font-size="10.00" fill="grey"> *, const llvm::Instruction * &gt;</text>
</g>
<!-- Node5 -->
<g id="Node000005" class="node">
<title>Node5</title>
<g id="a_Node000005"><a xlink:href="classpsr_1_1PointsToIterator.html" target="_top" xlink:title="Owning version of PointsToIteratorRef.">
<polygon fill="white" stroke="#666666" points="597,-30 483,-30 483,0 597,0 597,-30"/>
<text text-anchor="start" x="491" y="-18" font-family="Helvetica,sans-Serif" font-size="10.00">psr::PointsToIterator</text>
<text text-anchor="middle" x="540" y="-7" font-family="Helvetica,sans-Serif" font-size="10.00">&lt; V, O, N &gt;</text>
</a>
</g>
</g>
<!-- Node4&#45;&gt;Node5 -->
<g id="edge5_Node000004_Node000005" class="edge">
<title>Node4&#45;&gt;Node5</title>
<g id="a_edge5_Node000004_Node000005"><a xlink:title=" ">
<path fill="none" stroke="#63b8ff" d="M297.32,-15C354.15,-15 431.09,-15 482.75,-15"/>
<polygon fill="#63b8ff" stroke="#63b8ff" points="297.31,-11.5 287.31,-15 297.31,-18.5 297.31,-11.5"/>
</a>
</g>
</g>
</g>
</svg>
