<?xml version="1.0" encoding="UTF-8" standalone="no"?>
<!DOCTYPE svg PUBLIC "-//W3C//DTD SVG 1.1//EN"
 "http://www.w3.org/Graphics/SVG/1.1/DTD/svg11.dtd">
<!-- Generated by graphviz version 2.43.0 (0)
 -->
<!-- Title: psr::DefaultAATraits&lt; V, N &gt; Pages: 1 -->
<svg width="626pt" height="164pt"
 viewBox="0.00 0.00 626.00 164.00" xmlns="http://www.w3.org/2000/svg" xmlns:xlink="http://www.w3.org/1999/xlink">
<g id="graph0" class="graph" transform="scale(1 1) rotate(0) translate(4 160)">
<title>psr::DefaultAATraits&lt; V, N &gt;</title>
<!-- Node1 -->
<g id="Node000001" class="node">
<title>Node1</title>
<g id="a_Node000001"><a xlink:title=" ">
<polygon fill="#999999" stroke="#666666" points="113,-108 0,-108 0,-78 113,-78 113,-108"/>
<text text-anchor="start" x="8" y="-96" font-family="Helvetica,sans-Serif" font-size="10.00">psr::DefaultAATraits</text>
<text text-anchor="middle" x="56.5" y="-85" font-family="Helvetica,sans-Serif" font-size="10.00">&lt; V, N &gt;</text>
</a>
</g>
</g>
<!-- Node2 -->
<g id="Node000002" class="node">
<title>Node2</title>
<g id="a_Node000002"><a xlink:href="structpsr_1_1AliasInfoTraits_3_01AliasInfo_3_01V_00_01N_01_4_01_4.html" target="_top" xlink:title=" ">
<polygon fill="white" stroke="#666666" points="428.5,-156 303.5,-156 303.5,-126 428.5,-126 428.5,-156"/>
<text text-anchor="start" x="311.5" y="-144" font-family="Helvetica,sans-Serif" font-size="10.00">psr::AliasInfoTraits</text>
<text text-anchor="middle" x="366" y="-133" font-family="Helvetica,sans-Serif" font-size="10.00">&lt; AliasInfo&lt; V, N &gt; &gt;</text>
</a>
</g>
</g>
<!-- Node1&#45;&gt;Node2 -->
<g id="edge1_Node000001_Node000002" class="edge">
<title>Node1&#45;&gt;Node2</title>
<g id="a_edge1_Node000001_Node000002"><a xlink:title=" ">
<path fill="none" stroke="#63b8ff" d="M123.32,-105.68C125.91,-106.14 128.48,-106.58 131,-107 189.3,-116.78 256.05,-126.32 303.3,-132.79"/>
<polygon fill="#63b8ff" stroke="#63b8ff" points="123.7,-102.2 113.24,-103.88 122.47,-109.09 123.7,-102.2"/>
</a>
</g>
</g>
<!-- Node3 -->
<g id="Node000003" class="node">
<title>Node3</title>
<g id="a_Node000003"><a xlink:href="structpsr_1_1AliasInfoTraits_3_01AliasInfoRef_3_01V_00_01N_01_4_01_4.html" target="_top" xlink:title=" ">
<polygon fill="white" stroke="#666666" points="436.5,-108 295.5,-108 295.5,-78 436.5,-78 436.5,-108"/>
<text text-anchor="start" x="303.5" y="-96" font-family="Helvetica,sans-Serif" font-size="10.00">psr::AliasInfoTraits</text>
<text text-anchor="middle" x="366" y="-85" font-family="Helvetica,sans-Serif" font-size="10.00">&lt; AliasInfoRef&lt; V, N &gt; &gt;</text>
</a>
</g>
</g>
<!-- Node1&#45;&gt;Node3 -->
<g id="edge2_Node000001_Node000003" class="edge">
<title>Node1&#45;&gt;Node3</title>
<g id="a_edge2_Node000001_Node000003"><a xlink:title=" ">
<path fill="none" stroke="#63b8ff" d="M123.37,-93C174.04,-93 243.87,-93 295.44,-93"/>
<polygon fill="#63b8ff" stroke="#63b8ff" points="123.19,-89.5 113.19,-93 123.19,-96.5 123.19,-89.5"/>
</a>
</g>
</g>
<!-- Node4 -->
<g id="Node000004" class="node">
<title>Node4</title>
<g id="a_Node000004"><a xlink:href="structpsr_1_1DefaultAATraits.html" target="_top" xlink:title=" ">
<polygon fill="white" stroke="#666666" points="440,-59.5 292,-59.5 292,-18.5 440,-18.5 440,-59.5"/>
<text text-anchor="start" x="300" y="-47.5" font-family="Helvetica,sans-Serif" font-size="10.00">psr::DefaultAATraits</text>
<text text-anchor="start" x="300" y="-36.5" font-family="Helvetica,sans-Serif" font-size="10.00">&lt; const llvm::Value *,</text>
<text text-anchor="middle" x="366" y="-25.5" font-family="Helvetica,sans-Serif" font-size="10.00"> const llvm::Instruction * &gt;</text>
</a>
</g>
</g>
<!-- Node1&#45;&gt;Node4 -->
<g id="edge3_Node000001_Node000004" class="edge">
<title>Node1&#45;&gt;Node4</title>
<g id="a_edge3_Node000001_Node000004"><a xlink:title=" ">
<path fill="none" stroke="orange" stroke-dasharray="5,2" d="M104.73,-74.57C113.37,-71.7 122.38,-69.01 131,-67 184.09,-54.59 245.31,-47.52 291.81,-43.58"/>
<polygon fill="orange" stroke="orange" points="103.48,-71.3 95.17,-77.88 105.77,-77.92 103.48,-71.3"/>
</a>
</g>
<text text-anchor="start" x="131" y="-81" font-family="Helvetica,sans-Serif" font-size="10.00" fill="grey"> &lt; const llvm::Value</text>
<text text-anchor="middle" x="202.5" y="-70" font-family="Helvetica,sans-Serif" font-size="10.00" fill="grey"> *, const llvm::Instruction * &gt;</text>
</g>
<!-- Node5 -->
<g id="Node000005" class="node">
<title>Node5</title>
<g id="a_Node000005"><a xlink:href="structpsr_1_1AliasInfoTraits_3_01FilteredLLVMAliasSet_01_4.html" target="_top" xlink:title=" ">
<polygon fill="white" stroke="#666666" points="618,-78 477,-78 477,-48 618,-48 618,-78"/>
<text text-anchor="start" x="485" y="-66" font-family="Helvetica,sans-Serif" font-size="10.00">psr::AliasInfoTraits</text>
<text text-anchor="middle" x="547.5" y="-55" font-family="Helvetica,sans-Serif" font-size="10.00">&lt; FilteredLLVMAliasSet &gt;</text>
</a>
</g>
</g>
<!-- Node4&#45;&gt;Node5 -->
<g id="edge4_Node000004_Node000005" class="edge">
<title>Node4&#45;&gt;Node5</title>
<g id="a_edge4_Node000004_Node000005"><a xlink:title=" ">
<path fill="none" stroke="#63b8ff" d="M450.04,-50.1C458.97,-51.3 467.99,-52.5 476.75,-53.67"/>
<polygon fill="#63b8ff" stroke="#63b8ff" points="450.39,-46.62 440.01,-48.76 449.46,-53.56 450.39,-46.62"/>
</a>
</g>
</g>
<!-- Node6 -->
<g id="Node000006" class="node">
<title>Node6</title>
<g id="a_Node000006"><a xlink:href="structpsr_1_1AliasInfoTraits_3_01LLVMAliasSet_01_4.html" target="_top" xlink:title=" ">
<polygon fill="white" stroke="#666666" points="601,-30 494,-30 494,0 601,0 601,-30"/>
<text text-anchor="start" x="502" y="-18" font-family="Helvetica,sans-Serif" font-size="10.00">psr::AliasInfoTraits</text>
<text text-anchor="middle" x="547.5" y="-7" font-family="Helvetica,sans-Serif" font-size="10.00">&lt; LLVMAliasSet &gt;</text>
</a>
</g>
</g>
<!-- Node4&#45;&gt;Node6 -->
<g id="edge5_Node000004_Node000006" class="edge">
<title>Node4&#45;&gt;Node6</title>
<g id="a_edge5_Node000004_Node000006"><a xlink:title=" ">
<path fill="none" stroke="#63b8ff" d="M450.24,-27.87C465.11,-25.88 480.22,-23.86 493.92,-22.03"/>
<polygon fill="#63b8ff" stroke="#63b8ff" points="449.46,-24.44 440.01,-29.24 450.39,-31.38 449.46,-24.44"/>
</a>
</g>
</g>
</g>
</svg>
