<?xml version="1.0" encoding="UTF-8" standalone="no"?>
<!DOCTYPE svg PUBLIC "-//W3C//DTD SVG 1.1//EN"
 "http://www.w3.org/Graphics/SVG/1.1/DTD/svg11.dtd">
<!-- Generated by graphviz version 2.43.0 (0)
 -->
<!-- Title: psr::WithComputeValues&lt; Base, ComputeValuesVal &gt; Pages: 1 -->
<svg width="484pt" height="130pt"
 viewBox="0.00 0.00 484.00 130.00" xmlns="http://www.w3.org/2000/svg" xmlns:xlink="http://www.w3.org/1999/xlink">
<g id="graph0" class="graph" transform="scale(1 1) rotate(0) translate(4 126)">
<title>psr::WithComputeValues&lt; Base, ComputeValuesVal &gt;</title>
<!-- Node1 -->
<g id="Node000001" class="node">
<title>Node1</title>
<g id="a_Node000001"><a xlink:title=" ">
<polygon fill="#999999" stroke="#666666" points="238,-87 77,-87 77,-57 238,-57 238,-87"/>
<text text-anchor="start" x="85" y="-75" font-family="Helvetica,sans-Serif" font-size="10.00">psr::WithComputeValues</text>
<text text-anchor="middle" x="157.5" y="-64" font-family="Helvetica,sans-Serif" font-size="10.00">&lt; Base, ComputeValuesVal &gt;</text>
</a>
</g>
</g>
<!-- Node3 -->
<g id="Node000003" class="node">
<title>Node3</title>
<g id="a_Node000003"><a xlink:href="structpsr_1_1DefaultIDESolverConfig.html" target="_top" xlink:title=" ">
<polygon fill="white" stroke="#666666" points="451,-122 299,-122 299,-92 451,-92 451,-122"/>
<text text-anchor="start" x="307" y="-110" font-family="Helvetica,sans-Serif" font-size="10.00">psr::DefaultIDESolverConfig</text>
<text text-anchor="middle" x="375" y="-99" font-family="Helvetica,sans-Serif" font-size="10.00">&lt; ProblemTy, Enable &gt;</text>
</a>
</g>
</g>
<!-- Node1&#45;&gt;Node3 -->
<g id="edge2_Node000001_Node000003" class="edge">
<title>Node1&#45;&gt;Node3</title>
<g id="a_edge2_Node000001_Node000003"><a xlink:title=" ">
<path fill="none" stroke="#63b8ff" d="M248.03,-86.54C264.97,-89.29 282.54,-92.15 298.99,-94.82"/>
<polygon fill="#63b8ff" stroke="#63b8ff" points="248.56,-83.08 238.13,-84.93 247.44,-89.99 248.56,-83.08"/>
</a>
</g>
</g>
<!-- Node4 -->
<g id="Node000004" class="node">
<title>Node4</title>
<g id="a_Node000004"><a xlink:href="structpsr_1_1DefaultIDESolverConfig_3_01ProblemTy_00_01std_1_1enable__if__t_3_01std_1_1is__base_adc4e44d50d6a7f0c5ce731aba6dd5ad.html" target="_top" xlink:title=" ">
<polygon fill="white" stroke="#666666" points="476,-74 274,-74 274,0 476,0 476,-74"/>
<text text-anchor="start" x="282" y="-62" font-family="Helvetica,sans-Serif" font-size="10.00">psr::DefaultIDESolverConfig</text>
<text text-anchor="start" x="282" y="-51" font-family="Helvetica,sans-Serif" font-size="10.00">&lt; ProblemTy, std::enable</text>
<text text-anchor="start" x="282" y="-40" font-family="Helvetica,sans-Serif" font-size="10.00">_if_t&lt; std::is_base_of_v</text>
<text text-anchor="start" x="282" y="-29" font-family="Helvetica,sans-Serif" font-size="10.00">&lt; IFDSTabulationProblem&lt; typename</text>
<text text-anchor="start" x="282" y="-18" font-family="Helvetica,sans-Serif" font-size="10.00"> ProblemTy::ProblemAnalysisDomain</text>
<text text-anchor="middle" x="375" y="-7" font-family="Helvetica,sans-Serif" font-size="10.00"> &gt;, ProblemTy &gt; &gt; &gt;</text>
</a>
</g>
</g>
<!-- Node1&#45;&gt;Node4 -->
<g id="edge3_Node000001_Node000004" class="edge">
<title>Node1&#45;&gt;Node4</title>
<g id="a_edge3_Node000001_Node000004"><a xlink:title=" ">
<path fill="none" stroke="#63b8ff" d="M248.04,-57.46C256.56,-56.07 265.23,-54.67 273.84,-53.27"/>
<polygon fill="#63b8ff" stroke="#63b8ff" points="247.44,-54.01 238.13,-59.07 248.56,-60.92 247.44,-54.01"/>
</a>
</g>
</g>
<!-- Node2 -->
<g id="Node000002" class="node">
<title>Node2</title>
<g id="a_Node000002"><a xlink:href="classBase.html" target="_top" xlink:title=" ">
<polygon fill="white" stroke="#666666" points="41,-81.5 0,-81.5 0,-62.5 41,-62.5 41,-81.5"/>
<text text-anchor="middle" x="20.5" y="-69.5" font-family="Helvetica,sans-Serif" font-size="10.00">Base</text>
</a>
</g>
</g>
<!-- Node2&#45;&gt;Node1 -->
<g id="edge1_Node000001_Node000002" class="edge">
<title>Node2&#45;&gt;Node1</title>
<g id="a_edge1_Node000001_Node000002"><a xlink:title=" ">
<path fill="none" stroke="#63b8ff" d="M51.33,-72C59.05,-72 67.74,-72 76.72,-72"/>
<polygon fill="#63b8ff" stroke="#63b8ff" points="51.13,-68.5 41.13,-72 51.13,-75.5 51.13,-68.5"/>
</a>
</g>
</g>
</g>
</svg>
