<?xml version="1.0" encoding="UTF-8" standalone="no"?>
<!DOCTYPE svg PUBLIC "-//W3C//DTD SVG 1.1//EN"
 "http://www.w3.org/Graphics/SVG/1.1/DTD/svg11.dtd">
<!-- Generated by graphviz version 2.43.0 (0)
 -->
<!-- Title: psr::type_identity&lt; T &gt; Pages: 1 -->
<svg width="822pt" height="108pt"
 viewBox="0.00 0.00 822.00 108.00" xmlns="http://www.w3.org/2000/svg" xmlns:xlink="http://www.w3.org/1999/xlink">
<g id="graph0" class="graph" transform="scale(1 1) rotate(0) translate(4 104)">
<title>psr::type_identity&lt; T &gt;</title>
<!-- Node1 -->
<g id="Node000001" class="node">
<title>Node1</title>
<g id="a_Node000001"><a xlink:title=" ">
<polygon fill="#999999" stroke="#666666" points="131,-59 0,-59 0,-40 131,-40 131,-59"/>
<text text-anchor="middle" x="65.5" y="-47" font-family="Helvetica,sans-Serif" font-size="10.00">psr::type_identity&lt; T &gt;</text>
</a>
</g>
</g>
<!-- Node2 -->
<g id="Node000002" class="node">
<title>Node2</title>
<g id="a_Node000002"><a xlink:href="structpsr_1_1type__identity.html" target="_top" xlink:title=" ">
<polygon fill="white" stroke="#666666" points="543.5,-100 403.5,-100 403.5,-59 543.5,-59 543.5,-100"/>
<text text-anchor="start" x="411.5" y="-88" font-family="Helvetica,sans-Serif" font-size="10.00">psr::type_identity</text>
<text text-anchor="start" x="411.5" y="-77" font-family="Helvetica,sans-Serif" font-size="10.00">&lt; DefaultAnalysisPrinter</text>
<text text-anchor="middle" x="473.5" y="-66" font-family="Helvetica,sans-Serif" font-size="10.00">&lt; AnalysisDomainTy &gt; &gt;</text>
</a>
</g>
</g>
<!-- Node1&#45;&gt;Node2 -->
<g id="edge1_Node000001_Node000002" class="edge">
<title>Node1&#45;&gt;Node2</title>
<g id="a_edge1_Node000001_Node000002"><a xlink:title=" ">
<path fill="none" stroke="orange" stroke-dasharray="5,2" d="M141.57,-55.05C216.42,-60.58 330.44,-69 403.19,-74.38"/>
<polygon fill="orange" stroke="orange" points="141.51,-51.53 131.28,-54.29 141,-58.51 141.51,-51.53"/>
</a>
</g>
<text text-anchor="start" x="186.5" y="-83.5" font-family="Helvetica,sans-Serif" font-size="10.00" fill="grey"> &lt; DefaultAnalysisPrinter</text>
<text text-anchor="middle" x="248.5" y="-72.5" font-family="Helvetica,sans-Serif" font-size="10.00" fill="grey">&lt; AnalysisDomainTy &gt; &gt;</text>
</g>
<!-- Node4 -->
<g id="Node000004" class="node">
<title>Node4</title>
<g id="a_Node000004"><a xlink:href="structpsr_1_1type__identity.html" target="_top" xlink:title=" ">
<polygon fill="white" stroke="#666666" points="581,-41 366,-41 366,0 581,0 581,-41"/>
<text text-anchor="start" x="374" y="-29" font-family="Helvetica,sans-Serif" font-size="10.00">psr::type_identity</text>
<text text-anchor="start" x="374" y="-18" font-family="Helvetica,sans-Serif" font-size="10.00">&lt; DefaultLLVMAnalysisPrinter</text>
<text text-anchor="middle" x="473.5" y="-7" font-family="Helvetica,sans-Serif" font-size="10.00">&lt; LLVMIFDSAnalysisDomainDefault &gt; &gt;</text>
</a>
</g>
</g>
<!-- Node1&#45;&gt;Node4 -->
<g id="edge3_Node000001_Node000004" class="edge">
<title>Node1&#45;&gt;Node4</title>
<g id="a_edge3_Node000001_Node000004"><a xlink:title=" ">
<path fill="none" stroke="orange" stroke-dasharray="5,2" d="M113.17,-37.78C124.81,-35.28 137.3,-32.96 149,-31.5 220.93,-22.5 302.51,-19.78 365.75,-19.29"/>
<polygon fill="orange" stroke="orange" points="112.21,-34.41 103.22,-40 113.74,-41.24 112.21,-34.41"/>
</a>
</g>
<text text-anchor="start" x="149" y="-45.5" font-family="Helvetica,sans-Serif" font-size="10.00" fill="grey"> &lt; DefaultLLVMAnalysisPrinter</text>
<text text-anchor="middle" x="248.5" y="-34.5" font-family="Helvetica,sans-Serif" font-size="10.00" fill="grey">&lt; LLVMIFDSAnalysisDomainDefault &gt; &gt;</text>
</g>
<!-- Node3 -->
<g id="Node000003" class="node">
<title>Node3</title>
<g id="a_Node000003"><a xlink:href="structpsr_1_1DefaultAnalysisPrinterSelector.html" target="_top" xlink:title=" ">
<polygon fill="white" stroke="#666666" points="796.5,-100 635.5,-100 635.5,-59 796.5,-59 796.5,-100"/>
<text text-anchor="start" x="643.5" y="-88" font-family="Helvetica,sans-Serif" font-size="10.00">psr::DefaultAnalysisPrinter</text>
<text text-anchor="start" x="643.5" y="-77" font-family="Helvetica,sans-Serif" font-size="10.00">Selector&lt; AnalysisDomainTy,</text>
<text text-anchor="middle" x="716" y="-66" font-family="Helvetica,sans-Serif" font-size="10.00"> typename &gt;</text>
</a>
</g>
</g>
<!-- Node2&#45;&gt;Node3 -->
<g id="edge2_Node000002_Node000003" class="edge">
<title>Node2&#45;&gt;Node3</title>
<g id="a_edge2_Node000002_Node000003"><a xlink:title=" ">
<path fill="none" stroke="#63b8ff" d="M553.97,-79.5C580.08,-79.5 609.1,-79.5 635.23,-79.5"/>
<polygon fill="#63b8ff" stroke="#63b8ff" points="553.74,-76 543.74,-79.5 553.74,-83 553.74,-76"/>
</a>
</g>
</g>
<!-- Node5 -->
<g id="Node000005" class="node">
<title>Node5</title>
<g id="a_Node000005"><a xlink:href="structpsr_1_1DefaultAnalysisPrinterSelector_3_01LLVMIFDSAnalysisDomainDefault_01_4.html" target="_top" xlink:title=" ">
<polygon fill="white" stroke="#666666" points="814,-41 618,-41 618,0 814,0 814,-41"/>
<text text-anchor="start" x="626" y="-29" font-family="Helvetica,sans-Serif" font-size="10.00">psr::DefaultAnalysisPrinter</text>
<text text-anchor="start" x="626" y="-18" font-family="Helvetica,sans-Serif" font-size="10.00">Selector&lt; LLVMIFDSAnalysisDomain</text>
<text text-anchor="middle" x="716" y="-7" font-family="Helvetica,sans-Serif" font-size="10.00">Default &gt;</text>
</a>
</g>
</g>
<!-- Node4&#45;&gt;Node5 -->
<g id="edge4_Node000004_Node000005" class="edge">
<title>Node4&#45;&gt;Node5</title>
<g id="a_edge4_Node000004_Node000005"><a xlink:title=" ">
<path fill="none" stroke="#63b8ff" d="M591.07,-20.5C599.97,-20.5 608.9,-20.5 617.66,-20.5"/>
<polygon fill="#63b8ff" stroke="#63b8ff" points="591.04,-17 581.04,-20.5 591.04,-24 591.04,-17"/>
</a>
</g>
</g>
</g>
</svg>
