<?xml version="1.0" encoding="UTF-8" standalone="no"?>
<!DOCTYPE svg PUBLIC "-//W3C//DTD SVG 1.1//EN"
 "http://www.w3.org/Graphics/SVG/1.1/DTD/svg11.dtd">
<!-- Generated by graphviz version 2.43.0 (0)
 -->
<!-- Title: psr::TypeStateDescriptionBase Pages: 1 -->
<svg width="967pt" height="302pt"
 viewBox="0.00 0.00 967.00 302.00" xmlns="http://www.w3.org/2000/svg" xmlns:xlink="http://www.w3.org/1999/xlink">
<g id="graph0" class="graph" transform="scale(1 1) rotate(0) translate(4 298)">
<title>psr::TypeStateDescriptionBase</title>
<!-- Node1 -->
<g id="Node000001" class="node">
<title>Node1</title>
<g id="a_Node000001"><a xlink:title=" ">
<polygon fill="#999999" stroke="#666666" points="165,-135.5 0,-135.5 0,-116.5 165,-116.5 165,-135.5"/>
<text text-anchor="middle" x="82.5" y="-123.5" font-family="Helvetica,sans-Serif" font-size="10.00">psr::TypeStateDescriptionBase</text>
</a>
</g>
</g>
<!-- Node2 -->
<g id="Node000002" class="node">
<title>Node2</title>
<g id="a_Node000002"><a xlink:href="structpsr_1_1TypeStateDescription.html" target="_top" xlink:title=" ">
<polygon fill="white" stroke="#666666" points="708,-221 567,-221 567,-191 708,-191 708,-221"/>
<text text-anchor="start" x="575" y="-209" font-family="Helvetica,sans-Serif" font-size="10.00">psr::TypeStateDescription</text>
<text text-anchor="middle" x="637.5" y="-198" font-family="Helvetica,sans-Serif" font-size="10.00">&lt; CSTDFILEIOState &gt;</text>
</a>
</g>
</g>
<!-- Node1&#45;&gt;Node2 -->
<g id="edge1_Node000001_Node000002" class="edge">
<title>Node1&#45;&gt;Node2</title>
<g id="a_edge1_Node000001_Node000002"><a xlink:title=" ">
<path fill="none" stroke="#63b8ff" d="M108.96,-140.53C156.58,-166.75 263.17,-221.05 361,-240 434.3,-254.2 455.21,-251.39 529,-240 552.79,-236.33 578.54,-228.33 598.87,-221.02"/>
<polygon fill="#63b8ff" stroke="#63b8ff" points="110.42,-137.33 99.98,-135.53 107.01,-143.45 110.42,-137.33"/>
</a>
</g>
</g>
<!-- Node4 -->
<g id="Node000004" class="node">
<title>Node4</title>
<g id="a_Node000004"><a xlink:href="structpsr_1_1TypeStateDescription.html" target="_top" xlink:title=" ">
<polygon fill="white" stroke="#666666" points="720.5,-294 554.5,-294 554.5,-264 720.5,-264 720.5,-294"/>
<text text-anchor="start" x="562.5" y="-282" font-family="Helvetica,sans-Serif" font-size="10.00">psr::TypeStateDescription</text>
<text text-anchor="middle" x="637.5" y="-271" font-family="Helvetica,sans-Serif" font-size="10.00">&lt; OpenSSLEVPKDFCTXState &gt;</text>
</a>
</g>
</g>
<!-- Node1&#45;&gt;Node4 -->
<g id="edge3_Node000001_Node000004" class="edge">
<title>Node1&#45;&gt;Node4</title>
<g id="a_edge3_Node000001_Node000004"><a xlink:title=" ">
<path fill="none" stroke="#63b8ff" d="M98.73,-143.15C119.69,-165.62 159.65,-204.53 202,-225 315.26,-279.76 463.68,-286.28 554.45,-284.05"/>
<polygon fill="#63b8ff" stroke="#63b8ff" points="101.24,-140.7 91.91,-135.69 96.07,-145.43 101.24,-140.7"/>
</a>
</g>
</g>
<!-- Node6 -->
<g id="Node000006" class="node">
<title>Node6</title>
<g id="a_Node000006"><a xlink:href="structpsr_1_1TypeStateDescription.html" target="_top" xlink:title=" ">
<polygon fill="white" stroke="#666666" points="710.5,-92 564.5,-92 564.5,-62 710.5,-62 710.5,-92"/>
<text text-anchor="start" x="572.5" y="-80" font-family="Helvetica,sans-Serif" font-size="10.00">psr::TypeStateDescription</text>
<text text-anchor="middle" x="637.5" y="-69" font-family="Helvetica,sans-Serif" font-size="10.00">&lt; OpenSSLEVPKDFState &gt;</text>
</a>
</g>
</g>
<!-- Node1&#45;&gt;Node6 -->
<g id="edge5_Node000001_Node000006" class="edge">
<title>Node1&#45;&gt;Node6</title>
<g id="a_edge5_Node000001_Node000006"><a xlink:title=" ">
<path fill="none" stroke="#63b8ff" d="M118.35,-112.86C170.3,-94.04 271.53,-60.33 361,-48 434.97,-37.8 454.98,-38.19 529,-48 549.79,-50.76 572.27,-56.38 591.27,-61.96"/>
<polygon fill="#63b8ff" stroke="#63b8ff" points="116.82,-109.69 108.64,-116.41 119.23,-116.26 116.82,-109.69"/>
</a>
</g>
</g>
<!-- Node8 -->
<g id="Node000008" class="node">
<title>Node8</title>
<g id="a_Node000008"><a xlink:href="structpsr_1_1TypeStateDescription.html" target="_top" xlink:title=" ">
<polygon fill="white" stroke="#666666" points="720.5,-30 554.5,-30 554.5,0 720.5,0 720.5,-30"/>
<text text-anchor="start" x="562.5" y="-18" font-family="Helvetica,sans-Serif" font-size="10.00">psr::TypeStateDescription</text>
<text text-anchor="middle" x="637.5" y="-7" font-family="Helvetica,sans-Serif" font-size="10.00">&lt; OpenSSLSecureHeapState &gt;</text>
</a>
</g>
</g>
<!-- Node1&#45;&gt;Node8 -->
<g id="edge7_Node000001_Node000008" class="edge">
<title>Node1&#45;&gt;Node8</title>
<g id="a_edge7_Node000001_Node000008"><a xlink:title=" ">
<path fill="none" stroke="#63b8ff" d="M101.42,-109.65C123.33,-90.78 162.39,-60.6 202,-47 319.5,-6.65 465.09,-4.91 554.35,-8.84"/>
<polygon fill="#63b8ff" stroke="#63b8ff" points="99.09,-107.04 93.9,-116.27 103.72,-112.29 99.09,-107.04"/>
</a>
</g>
</g>
<!-- Node10 -->
<g id="Node000010" class="node">
<title>Node10</title>
<g id="a_Node000010"><a xlink:href="structpsr_1_1TypeStateDescription.html" target="_top" xlink:title=" ">
<polygon fill="white" stroke="#666666" points="728,-147 547,-147 547,-117 728,-117 728,-147"/>
<text text-anchor="start" x="555" y="-135" font-family="Helvetica,sans-Serif" font-size="10.00">psr::TypeStateDescription</text>
<text text-anchor="middle" x="637.5" y="-124" font-family="Helvetica,sans-Serif" font-size="10.00">&lt; OpenSSLSecureMemoryState &gt;</text>
</a>
</g>
</g>
<!-- Node1&#45;&gt;Node10 -->
<g id="edge9_Node000001_Node000010" class="edge">
<title>Node1&#45;&gt;Node10</title>
<g id="a_edge9_Node000001_Node000010"><a xlink:title=" ">
<path fill="none" stroke="#63b8ff" d="M161.7,-115.28C250.87,-104.77 400.88,-92.3 529,-107 546.7,-109.03 565.73,-112.89 582.79,-116.97"/>
<polygon fill="#63b8ff" stroke="#63b8ff" points="161.18,-111.82 151.66,-116.49 162.01,-118.77 161.18,-111.82"/>
</a>
</g>
</g>
<!-- Node12 -->
<g id="Node000012" class="node">
<title>Node12</title>
<g id="a_Node000012"><a xlink:href="structpsr_1_1TypeStateDescription.html" target="_top" xlink:title=" ">
<polygon fill="white" stroke="#666666" points="343,-167 202,-167 202,-137 343,-137 343,-167"/>
<text text-anchor="start" x="210" y="-155" font-family="Helvetica,sans-Serif" font-size="10.00">psr::TypeStateDescription</text>
<text text-anchor="middle" x="272.5" y="-144" font-family="Helvetica,sans-Serif" font-size="10.00">&lt; StateTy &gt;</text>
</a>
</g>
</g>
<!-- Node1&#45;&gt;Node12 -->
<g id="edge11_Node000001_Node000012" class="edge">
<title>Node1&#45;&gt;Node12</title>
<g id="a_edge11_Node000001_Node000012"><a xlink:title=" ">
<path fill="none" stroke="#63b8ff" d="M162.39,-136.91C175.52,-138.73 189.06,-140.6 201.94,-142.38"/>
<polygon fill="#63b8ff" stroke="#63b8ff" points="162.82,-133.44 152.44,-135.53 161.86,-140.37 162.82,-133.44"/>
</a>
</g>
</g>
<!-- Node3 -->
<g id="Node000003" class="node">
<title>Node3</title>
<g id="a_Node000003"><a xlink:href="classpsr_1_1CSTDFILEIOTypeStateDescription.html" target="_top" xlink:title=" ">
<polygon fill="white" stroke="#666666" points="933.5,-221 790.5,-221 790.5,-191 933.5,-191 933.5,-221"/>
<text text-anchor="start" x="798.5" y="-209" font-family="Helvetica,sans-Serif" font-size="10.00">psr::CSTDFILEIOTypeState</text>
<text text-anchor="middle" x="862" y="-198" font-family="Helvetica,sans-Serif" font-size="10.00">Description</text>
</a>
</g>
</g>
<!-- Node2&#45;&gt;Node3 -->
<g id="edge2_Node000002_Node000003" class="edge">
<title>Node2&#45;&gt;Node3</title>
<g id="a_edge2_Node000002_Node000003"><a xlink:title=" ">
<path fill="none" stroke="#63b8ff" d="M718.56,-206C742.01,-206 767.48,-206 790.31,-206"/>
<polygon fill="#63b8ff" stroke="#63b8ff" points="718.29,-202.5 708.29,-206 718.29,-209.5 718.29,-202.5"/>
</a>
</g>
</g>
<!-- Node5 -->
<g id="Node000005" class="node">
<title>Node5</title>
<g id="a_Node000005"><a xlink:href="classpsr_1_1OpenSSLEVPKDFCTXDescription.html" target="_top" xlink:title=" ">
<polygon fill="white" stroke="#666666" points="959,-288.5 765,-288.5 765,-269.5 959,-269.5 959,-288.5"/>
<text text-anchor="middle" x="862" y="-276.5" font-family="Helvetica,sans-Serif" font-size="10.00">psr::OpenSSLEVPKDFCTXDescription</text>
</a>
</g>
</g>
<!-- Node4&#45;&gt;Node5 -->
<g id="edge4_Node000004_Node000005" class="edge">
<title>Node4&#45;&gt;Node5</title>
<g id="a_edge4_Node000004_Node000005"><a xlink:title=" ">
<path fill="none" stroke="#63b8ff" d="M730.92,-279C742.12,-279 753.58,-279 764.83,-279"/>
<polygon fill="#63b8ff" stroke="#63b8ff" points="730.72,-275.5 720.72,-279 730.72,-282.5 730.72,-275.5"/>
</a>
</g>
</g>
<!-- Node7 -->
<g id="Node000007" class="node">
<title>Node7</title>
<g id="a_Node000007"><a xlink:href="classpsr_1_1OpenSSLEVPKDFDescription.html" target="_top" xlink:title=" ">
<polygon fill="white" stroke="#666666" points="949.5,-86.5 774.5,-86.5 774.5,-67.5 949.5,-67.5 949.5,-86.5"/>
<text text-anchor="middle" x="862" y="-74.5" font-family="Helvetica,sans-Serif" font-size="10.00">psr::OpenSSLEVPKDFDescription</text>
</a>
</g>
</g>
<!-- Node6&#45;&gt;Node7 -->
<g id="edge6_Node000006_Node000007" class="edge">
<title>Node6&#45;&gt;Node7</title>
<g id="a_edge6_Node000006_Node000007"><a xlink:title=" ">
<path fill="none" stroke="#63b8ff" d="M720.88,-77C738.32,-77 756.78,-77 774.38,-77"/>
<polygon fill="#63b8ff" stroke="#63b8ff" points="720.74,-73.5 710.74,-77 720.74,-80.5 720.74,-73.5"/>
</a>
</g>
</g>
<!-- Node9 -->
<g id="Node000009" class="node">
<title>Node9</title>
<g id="a_Node000009"><a xlink:href="classpsr_1_1OpenSSLSecureHeapDescription.html" target="_top" xlink:title=" ">
<polygon fill="white" stroke="#666666" points="959,-24.5 765,-24.5 765,-5.5 959,-5.5 959,-24.5"/>
<text text-anchor="middle" x="862" y="-12.5" font-family="Helvetica,sans-Serif" font-size="10.00">psr::OpenSSLSecureHeapDescription</text>
</a>
</g>
</g>
<!-- Node8&#45;&gt;Node9 -->
<g id="edge8_Node000008_Node000009" class="edge">
<title>Node8&#45;&gt;Node9</title>
<g id="a_edge8_Node000008_Node000009"><a xlink:title=" ">
<path fill="none" stroke="#63b8ff" d="M730.92,-15C742.12,-15 753.58,-15 764.83,-15"/>
<polygon fill="#63b8ff" stroke="#63b8ff" points="730.72,-11.5 720.72,-15 730.72,-18.5 730.72,-11.5"/>
</a>
</g>
</g>
<!-- Node11 -->
<g id="Node000011" class="node">
<title>Node11</title>
<g id="a_Node000011"><a xlink:href="classpsr_1_1OpenSSLSecureMemoryDescription.html" target="_top" xlink:title=" ">
<polygon fill="white" stroke="#666666" points="939,-147 785,-147 785,-117 939,-117 939,-147"/>
<text text-anchor="start" x="793" y="-135" font-family="Helvetica,sans-Serif" font-size="10.00">psr::OpenSSLSecureMemory</text>
<text text-anchor="middle" x="862" y="-124" font-family="Helvetica,sans-Serif" font-size="10.00">Description</text>
</a>
</g>
</g>
<!-- Node10&#45;&gt;Node11 -->
<g id="edge10_Node000010_Node000011" class="edge">
<title>Node10&#45;&gt;Node11</title>
<g id="a_edge10_Node000010_Node000011"><a xlink:title=" ">
<path fill="none" stroke="#63b8ff" d="M738.26,-132C753.91,-132 769.86,-132 784.87,-132"/>
<polygon fill="#63b8ff" stroke="#63b8ff" points="738.04,-128.5 728.04,-132 738.04,-135.5 738.04,-128.5"/>
</a>
</g>
</g>
<!-- Node12&#45;&gt;Node2 -->
<g id="edge12_Node000012_Node000002" class="edge">
<title>Node12&#45;&gt;Node2</title>
<g id="a_edge12_Node000012_Node000002"><a xlink:title=" ">
<path fill="none" stroke="orange" stroke-dasharray="5,2" d="M353.09,-163.84C416.97,-173.34 505.78,-186.55 566.87,-195.64"/>
<polygon fill="orange" stroke="orange" points="353.47,-160.36 343.06,-162.35 352.44,-167.28 353.47,-160.36"/>
</a>
</g>
<text text-anchor="middle" x="445" y="-191" font-family="Helvetica,sans-Serif" font-size="10.00" fill="grey"> &lt; CSTDFILEIOState &gt;</text>
</g>
<!-- Node12&#45;&gt;Node4 -->
<g id="edge13_Node000012_Node000004" class="edge">
<title>Node12&#45;&gt;Node4</title>
<g id="a_edge13_Node000012_Node000004"><a xlink:title=" ">
<path fill="none" stroke="orange" stroke-dasharray="5,2" d="M304.27,-172.58C320.6,-182.8 341.31,-194.71 361,-203 426.74,-230.67 505.52,-251.23 561.96,-263.94"/>
<polygon fill="orange" stroke="orange" points="306,-169.53 295.69,-167.1 302.24,-175.43 306,-169.53"/>
</a>
</g>
<text text-anchor="middle" x="445" y="-257" font-family="Helvetica,sans-Serif" font-size="10.00" fill="grey"> &lt; OpenSSLEVPKDFCTXState &gt;</text>
</g>
<!-- Node12&#45;&gt;Node6 -->
<g id="edge14_Node000012_Node000006" class="edge">
<title>Node12&#45;&gt;Node6</title>
<g id="a_edge14_Node000012_Node000006"><a xlink:title=" ">
<path fill="none" stroke="orange" stroke-dasharray="5,2" d="M328.33,-133.92C339.09,-130.7 350.35,-127.56 361,-125 429.33,-108.58 508.47,-95.38 564.35,-87.01"/>
<polygon fill="orange" stroke="orange" points="327.15,-130.62 318.61,-136.88 329.2,-137.31 327.15,-130.62"/>
</a>
</g>
<text text-anchor="middle" x="445" y="-128" font-family="Helvetica,sans-Serif" font-size="10.00" fill="grey"> &lt; OpenSSLEVPKDFState &gt;</text>
</g>
<!-- Node12&#45;&gt;Node8 -->
<g id="edge15_Node000012_Node000008" class="edge">
<title>Node12&#45;&gt;Node8</title>
<g id="a_edge15_Node000012_Node000008"><a xlink:title=" ">
<path fill="none" stroke="orange" stroke-dasharray="5,2" d="M294.46,-129.58C311.01,-113.19 335.5,-91.69 361,-79 422,-48.64 497.8,-32.39 554.45,-23.88"/>
<polygon fill="orange" stroke="orange" points="291.97,-127.12 287.44,-136.7 296.95,-132.04 291.97,-127.12"/>
</a>
</g>
<text text-anchor="middle" x="445" y="-82" font-family="Helvetica,sans-Serif" font-size="10.00" fill="grey"> &lt; OpenSSLSecureHeapState &gt;</text>
</g>
<!-- Node12&#45;&gt;Node10 -->
<g id="edge16_Node000012_Node000010" class="edge">
<title>Node12&#45;&gt;Node10</title>
<g id="a_edge16_Node000012_Node000010"><a xlink:title=" ">
<path fill="none" stroke="orange" stroke-dasharray="5,2" d="M353.35,-147.65C403.73,-144.89 470.18,-141.25 529,-138 534.79,-137.68 540.75,-137.35 546.76,-137.02"/>
<polygon fill="orange" stroke="orange" points="352.97,-144.16 343.18,-148.2 353.35,-151.15 352.97,-144.16"/>
</a>
</g>
<text text-anchor="middle" x="445" y="-150" font-family="Helvetica,sans-Serif" font-size="10.00" fill="grey"> &lt; OpenSSLSecureMemoryState &gt;</text>
</g>
</g>
</svg>
