<?xml version="1.0" encoding="UTF-8" standalone="no"?>
<!DOCTYPE svg PUBLIC "-//W3C//DTD SVG 1.1//EN"
 "http://www.w3.org/Graphics/SVG/1.1/DTD/svg11.dtd">
<!-- Generated by graphviz version 2.43.0 (0)
 -->
<!-- Title: psr::Z3BasedPathSensitivityConfig Pages: 1 -->
<svg width="243pt" height="193pt"
 viewBox="0.00 0.00 242.50 193.00" xmlns="http://www.w3.org/2000/svg" xmlns:xlink="http://www.w3.org/1999/xlink">
<g id="graph0" class="graph" transform="scale(1 1) rotate(0) translate(4 189)">
<title>psr::Z3BasedPathSensitivityConfig</title>
<!-- Node1 -->
<g id="Node000001" class="node">
<title>Node1</title>
<g id="a_Node000001"><a xlink:title=" ">
<polygon fill="#999999" stroke="#666666" points="181,-30 28,-30 28,0 181,0 181,-30"/>
<text text-anchor="start" x="36" y="-18" font-family="Helvetica,sans-Serif" font-size="10.00">psr::Z3BasedPathSensitivity</text>
<text text-anchor="middle" x="104.5" y="-7" font-family="Helvetica,sans-Serif" font-size="10.00">Config</text>
</a>
</g>
</g>
<!-- Node2 -->
<g id="Node000002" class="node">
<title>Node2</title>
<g id="a_Node000002"><a xlink:href="structpsr_1_1PathSensitivityConfigBase.html" target="_top" xlink:title=" ">
<polygon fill="white" stroke="#666666" points="209,-97 0,-97 0,-67 209,-67 209,-97"/>
<text text-anchor="start" x="8" y="-85" font-family="Helvetica,sans-Serif" font-size="10.00">psr::PathSensitivityConfig</text>
<text text-anchor="middle" x="104.5" y="-74" font-family="Helvetica,sans-Serif" font-size="10.00">Base&lt; Z3BasedPathSensitivityConfig &gt;</text>
</a>
</g>
</g>
<!-- Node2&#45;&gt;Node1 -->
<g id="edge1_Node000001_Node000002" class="edge">
<title>Node2&#45;&gt;Node1</title>
<g id="a_edge1_Node000001_Node000002"><a xlink:title=" ">
<path fill="none" stroke="#63b8ff" d="M104.5,-56.61C104.5,-47.65 104.5,-37.82 104.5,-30.08"/>
<polygon fill="#63b8ff" stroke="#63b8ff" points="101,-56.9 104.5,-66.9 108,-56.9 101,-56.9"/>
</a>
</g>
</g>
<!-- Node3 -->
<g id="Node000003" class="node">
<title>Node3</title>
<g id="a_Node000003"><a xlink:href="structpsr_1_1PathSensitivityConfigBase.html" target="_top" xlink:title=" ">
<polygon fill="white" stroke="#666666" points="175,-185 34,-185 34,-155 175,-155 175,-185"/>
<text text-anchor="start" x="42" y="-173" font-family="Helvetica,sans-Serif" font-size="10.00">psr::PathSensitivityConfig</text>
<text text-anchor="middle" x="104.5" y="-162" font-family="Helvetica,sans-Serif" font-size="10.00">Base&lt; DerivedConfig &gt;</text>
</a>
</g>
</g>
<!-- Node3&#45;&gt;Node2 -->
<g id="edge2_Node000002_Node000003" class="edge">
<title>Node3&#45;&gt;Node2</title>
<g id="a_edge2_Node000002_Node000003"><a xlink:title=" ">
<path fill="none" stroke="orange" stroke-dasharray="5,2" d="M104.5,-144.49C104.5,-129.2 104.5,-110.05 104.5,-97.22"/>
<polygon fill="orange" stroke="orange" points="101,-144.8 104.5,-154.8 108,-144.8 101,-144.8"/>
</a>
</g>
<text text-anchor="start" x="104.5" y="-129" font-family="Helvetica,sans-Serif" font-size="10.00" fill="grey"> &lt; Z3BasedPathSensitivity</text>
<text text-anchor="middle" x="169.5" y="-118" font-family="Helvetica,sans-Serif" font-size="10.00" fill="grey">Config &gt;</text>
</g>
</g>
</svg>
