<?xml version="1.0" encoding="UTF-8" standalone="no"?>
<!DOCTYPE svg PUBLIC "-//W3C//DTD SVG 1.1//EN"
 "http://www.w3.org/Graphics/SVG/1.1/DTD/svg11.dtd">
<!-- Generated by graphviz version 2.43.0 (0)
 -->
<!-- Title: psr::DefaultAnalysisPrinterSelector&lt; LLVMIFDSAnalysisDomainDefault &gt; Pages: 1 -->
<svg width="822pt" height="51pt"
 viewBox="0.00 0.00 822.00 50.50" xmlns="http://www.w3.org/2000/svg" xmlns:xlink="http://www.w3.org/1999/xlink">
<g id="graph0" class="graph" transform="scale(1 1) rotate(0) translate(4 46.5)">
<title>psr::DefaultAnalysisPrinterSelector&lt; LLVMIFDSAnalysisDomainDefault &gt;</title>
<!-- Node1 -->
<g id="Node000001" class="node">
<title>Node1</title>
<g id="a_Node000001"><a xlink:title=" ">
<polygon fill="#999999" stroke="#666666" points="814,-41 618,-41 618,0 814,0 814,-41"/>
<text text-anchor="start" x="626" y="-29" font-family="Helvetica,sans-Serif" font-size="10.00">psr::DefaultAnalysisPrinter</text>
<text text-anchor="start" x="626" y="-18" font-family="Helvetica,sans-Serif" font-size="10.00">Selector&lt; LLVMIFDSAnalysisDomain</text>
<text text-anchor="middle" x="716" y="-7" font-family="Helvetica,sans-Serif" font-size="10.00">Default &gt;</text>
</a>
</g>
</g>
<!-- Node2 -->
<g id="Node000002" class="node">
<title>Node2</title>
<g id="a_Node000002"><a xlink:href="structpsr_1_1type__identity.html" target="_top" xlink:title=" ">
<polygon fill="white" stroke="#666666" points="581,-41 366,-41 366,0 581,0 581,-41"/>
<text text-anchor="start" x="374" y="-29" font-family="Helvetica,sans-Serif" font-size="10.00">psr::type_identity</text>
<text text-anchor="start" x="374" y="-18" font-family="Helvetica,sans-Serif" font-size="10.00">&lt; DefaultLLVMAnalysisPrinter</text>
<text text-anchor="middle" x="473.5" y="-7" font-family="Helvetica,sans-Serif" font-size="10.00">&lt; LLVMIFDSAnalysisDomainDefault &gt; &gt;</text>
</a>
</g>
</g>
<!-- Node2&#45;&gt;Node1 -->
<g id="edge1_Node000001_Node000002" class="edge">
<title>Node2&#45;&gt;Node1</title>
<g id="a_edge1_Node000001_Node000002"><a xlink:title=" ">
<path fill="none" stroke="#63b8ff" d="M591.07,-20.5C599.97,-20.5 608.9,-20.5 617.66,-20.5"/>
<polygon fill="#63b8ff" stroke="#63b8ff" points="591.04,-17 581.04,-20.5 591.04,-24 591.04,-17"/>
</a>
</g>
</g>
<!-- Node3 -->
<g id="Node000003" class="node">
<title>Node3</title>
<g id="a_Node000003"><a xlink:href="structpsr_1_1type__identity.html" target="_top" xlink:title=" ">
<polygon fill="white" stroke="#666666" points="131,-30 0,-30 0,-11 131,-11 131,-30"/>
<text text-anchor="middle" x="65.5" y="-18" font-family="Helvetica,sans-Serif" font-size="10.00">psr::type_identity&lt; T &gt;</text>
</a>
</g>
</g>
<!-- Node3&#45;&gt;Node2 -->
<g id="edge2_Node000002_Node000003" class="edge">
<title>Node3&#45;&gt;Node2</title>
<g id="a_edge2_Node000002_Node000003"><a xlink:title=" ">
<path fill="none" stroke="orange" stroke-dasharray="5,2" d="M141.53,-20.5C204.46,-20.5 295.1,-20.5 365.62,-20.5"/>
<polygon fill="orange" stroke="orange" points="141.28,-17 131.28,-20.5 141.28,-24 141.28,-17"/>
</a>
</g>
<text text-anchor="start" x="149" y="-34.5" font-family="Helvetica,sans-Serif" font-size="10.00" fill="grey"> &lt; DefaultLLVMAnalysisPrinter</text>
<text text-anchor="middle" x="248.5" y="-23.5" font-family="Helvetica,sans-Serif" font-size="10.00" fill="grey">&lt; LLVMIFDSAnalysisDomainDefault &gt; &gt;</text>
</g>
</g>
</svg>
