<?xml version="1.0" encoding="UTF-8" standalone="no"?>
<!DOCTYPE svg PUBLIC "-//W3C//DTD SVG 1.1//EN"
 "http://www.w3.org/Graphics/SVG/1.1/DTD/svg11.dtd">
<!-- Generated by graphviz version 2.43.0 (0)
 -->
<!-- Title: psr::SolverStatsSelector&lt; StaticSolverConfigTy, typename &gt; Pages: 1 -->
<svg width="502pt" height="98pt"
 viewBox="0.00 0.00 502.00 97.50" xmlns="http://www.w3.org/2000/svg" xmlns:xlink="http://www.w3.org/1999/xlink">
<g id="graph0" class="graph" transform="scale(1 1) rotate(0) translate(4 93.5)">
<title>psr::SolverStatsSelector&lt; StaticSolverConfigTy, typename &gt;</title>
<!-- Node1 -->
<g id="Node000001" class="node">
<title>Node1</title>
<g id="a_Node000001"><a xlink:title=" ">
<polygon fill="#999999" stroke="#666666" points="133,-68 0,-68 0,-27 133,-27 133,-68"/>
<text text-anchor="start" x="8" y="-56" font-family="Helvetica,sans-Serif" font-size="10.00">psr::SolverStatsSelector</text>
<text text-anchor="start" x="8" y="-45" font-family="Helvetica,sans-Serif" font-size="10.00">&lt; StaticSolverConfigTy,</text>
<text text-anchor="middle" x="66.5" y="-34" font-family="Helvetica,sans-Serif" font-size="10.00"> typename &gt;</text>
</a>
</g>
</g>
<!-- Node2 -->
<g id="Node000002" class="node">
<title>Node2</title>
<g id="a_Node000002"><a xlink:href="classpsr_1_1IterativeIDESolver.html" target="_top" xlink:title=" ">
<polygon fill="white" stroke="#666666" points="494,-89.5 298,-89.5 298,-59.5 494,-59.5 494,-89.5"/>
<text text-anchor="start" x="306" y="-77.5" font-family="Helvetica,sans-Serif" font-size="10.00">psr::IterativeIDESolver</text>
<text text-anchor="middle" x="396" y="-66.5" font-family="Helvetica,sans-Serif" font-size="10.00">&lt; ProblemTy, StaticSolverConfigTy &gt;</text>
</a>
</g>
</g>
<!-- Node1&#45;&gt;Node2 -->
<g id="edge1_Node000001_Node000002" class="edge">
<title>Node1&#45;&gt;Node2</title>
<g id="a_edge1_Node000001_Node000002"><a xlink:title=" ">
<path fill="none" stroke="#8b1a1a" d="M143.57,-53.77C189.53,-57.56 248.55,-62.43 297.85,-66.49"/>
<polygon fill="#8b1a1a" stroke="#8b1a1a" points="143.63,-50.26 133.38,-52.93 143.06,-57.24 143.63,-50.26"/>
</a>
</g>
</g>
<!-- Node3 -->
<g id="Node000003" class="node">
<title>Node3</title>
<g id="a_Node000003"><a xlink:href="structpsr_1_1SolverStatsSelector.html" target="_top" xlink:title=" ">
<polygon fill="white" stroke="#666666" points="467,-41 325,-41 325,0 467,0 467,-41"/>
<text text-anchor="start" x="333" y="-29" font-family="Helvetica,sans-Serif" font-size="10.00">psr::SolverStatsSelector</text>
<text text-anchor="start" x="333" y="-18" font-family="Helvetica,sans-Serif" font-size="10.00">&lt; DefaultIDESolverConfig</text>
<text text-anchor="middle" x="396" y="-7" font-family="Helvetica,sans-Serif" font-size="10.00">&lt; ProblemTy &gt; &gt;</text>
</a>
</g>
</g>
<!-- Node1&#45;&gt;Node3 -->
<g id="edge2_Node000001_Node000003" class="edge">
<title>Node1&#45;&gt;Node3</title>
<g id="a_edge2_Node000001_Node000003"><a xlink:title=" ">
<path fill="none" stroke="orange" stroke-dasharray="5,2" d="M143.38,-30.55C145.94,-30.17 148.49,-29.81 151,-29.5 209.25,-22.2 275.89,-20.17 324.8,-19.84"/>
<polygon fill="orange" stroke="orange" points="142.71,-27.11 133.41,-32.18 143.84,-34.02 142.71,-27.11"/>
</a>
</g>
<text text-anchor="start" x="151" y="-43.5" font-family="Helvetica,sans-Serif" font-size="10.00" fill="grey"> &lt; DefaultIDESolverConfig</text>
<text text-anchor="middle" x="215.5" y="-32.5" font-family="Helvetica,sans-Serif" font-size="10.00" fill="grey">&lt; ProblemTy &gt; &gt;</text>
</g>
</g>
</svg>
